<?xml version="1.0" encoding="UTF-8"?>
<svg xmlns="http://www.w3.org/2000/svg" width="1200" height="600" xmlns:xlink="http://www.w3.org/1999/xlink">
<clipPath id="c">
<path d="M0,0V150H700V300H600zM0,300V400H300V0H600z"/>
</clipPath>
<rect width="1200" height="600" fill="#00247d"/>
<path d="M0,0 600,300M0,300 600,0" stroke="#fff" stroke-width="60"/>
<path d="M0,0 600,300M0,300 600,0" stroke="#cf142b" stroke-width="40" clip-path="url(#c)"/>
<path d="M300,0V400M0,150H700" stroke="#fff" stroke-width="100"/>
<path d="M300,0V400M0,150H700" stroke="#cf142b" stroke-width="60"/>
<path d="M0,300H600V0H1200V600H0z" fill="#cf142b"/>
<g id="shield" transform="matrix(1.25,0,0,1.25,-225,-75)">
<rect width="191.835" height="81.2687" x="803.365" y="170.578" fill="#fff"/>
<path d="m900,170.578v81.3328m95.201-40.667h-191.835" stroke="#cf142b" stroke-width="27.5"/>
<rect width="191.835" height="81.2687" x="803.365" y="170.578" fill="none" stroke="#fedd00" stroke-width="4.2446"/>
<path d="m803.382 251.929l191.812-0.0363 0.0363 54.096c-3.903 58.65-49.381 106.425-96.168 127.686-42.7264-20.8437-89.7684-65.2828-95.6443-125.308l-0.0363-56.4376z" fill="#016a28" stroke="#fedd00" stroke-width="4.25197"/>
<path d="m849.625 346.914c6.96564-0.32052 34.1182 6.42379 55.5994 9.82376 12.6698-0.0798 28.136 2.87745 41.5399 2.3247 9.74876-0.17417 19.0827 0.54913 28.1565 3.16654-22.0254 33.9671-40.3207 50.8097-75.8589 69.2586-51.4749-30.2175-64.7724-51.5354-78.1474-74.3785 9.36172-3.6068 13.7354-9.4742 28.7105-10.1951z" fill="#01289a" stroke-width="3.54331"/>
<path d="m905.792 364.802c0.5842-1.39337 39.4486 3.556 53.4307 4.76432 2.42752 0.3181-5.25538 3.94305-4.06279 8.20178-5.50817-3.54149-49.9304-11.6247-49.3679-12.9661zm-57.4899 11.8727c-1.8917 5.09331 44.8358 21.5368 65.1462 26.8708 4.3434-6.39597 17.6228-9.39801 23.8143-11.6199 1.51795-2.9331-7.73128-9.86246-11.9344-11.3405-2.19044-0.77046-4.6361 4.65062-7.24746 4.59377-4.92761-0.10885-6.96444-4.1027-15.0586-4.46677-0.72208-0.0339 9.67136 4.59256 10.2495 5.84321 0.36165 0.78256-6.42136-1.24581-7.74217-0.37011-0.82005 0.54307 2.61983 4.826 1.31839 4.62764-9.35809-1.4224-33.2728-10.7527-33.2958-9.48993 0.24311 4.09424 29.2826 9.50323 26.6942 12.6928-4.00473 4.45225-51.135-19.6511-51.9442-17.341zm44.3678 28.7456c-8.45579-1.74414-25.0492-9.54436-29.3697-9.68587-2.03321-0.0677 8.79082 6.10084 10.31 9.06054 0.45962 0.89384-3.20887 1.52038-4.37364 0.93739-1.95943-0.97972-3.33224-3.74953-4.99896-5.62429 0 0 0 3.1242-0.31327 3.1242-0.31206 0-5.62308-1.24944-9.3726-2.81214-10.7273-8.01915-22.8237-26.3991-29.3709-36.2434-0.84788-3.48706 17.8477 0.61323 21.2465 2.81214 12.7448 1.13454 25.8209-0.42575 38.4314 1.5615 19.7794 3.11694 54.0645 10.9099 58.4285 13.4366 2.80367 1.7018-10.3572-1.17808-10.3112-0.001 0.0593 1.53005 8.51263 8.37112 10.9365 8.43643 1.42966 0.0387 0.25642-5.30497 1.87355-6.2484 2.13239-1.24339 10.4757 2.00176 9.37381-0.31327-1.83364-4.51031-34.977-10.0185-57.1778-16.8716-13.2818-4.15955-34.5343-2.35736-46.5558-4.6869-1.41394-0.27456 0.0738-4.58773 1.5627-4.68691 9.44759-0.63016 28.3101 0.43543 31.2456 2.49888 7.99979-2.79279 53.028 1.143 79.3617 2.81214 3.24516 0.20562 10.7454 0.60597 9.37381 2.81215-8.62753 15.1868-24.1191 30.942-34.6819 40.3062-3.39271 2.61378-12.8959-1.95096-15.6234-1.56149-0.91803 0.13063 1.87476 3.43626 2.81214 4.68569 0 0-18.4344-4.06158-18.4344-3.74831 0 0.31206 11.8739 6.2484 11.8739 6.2484-2.29205 0.20804-6.63666-1.14179-7.81232-0.31206-0.59508 0.41971 1.97878 2.70813 1.56271 3.1242-0.52131 0.52131-4.87197-0.81038-4.37364-0.31205 1.27242 1.27241 10.7406 3.76041 9.68587 5.62428-2.0695 3.65639-15.5206 9.78989-18.7476 11.2474-2.46743-1.01963-28.7455-16.5596-28.4323-16.5596 8.74849-0.62532 24.3707-0.62532 24.3707-0.62532 2.18682-1.87476 6.88945-3.72292 6.56167-5.62429-0.45357-2.6295-6.79511-7.31278-8.90452-7.96713-0.91077-0.28303 1.23009 5.44286-0.15723 5.1562z" fill="#536383" fill-rule="evenodd"/>
<g id="bison">
<path d="m963.923 313.551c0.14031 0.89142 0.11854-10.5543 1.69939-15.2956 1.36555-4.09545 7.33576-9.9568 7.1374-11.2159-0.14152-0.89384-7.26561 2.08401-8.15703 4.75826-2.05377 6.16253-0.87933 20.4918-0.67976 21.7533z" fill="#4a0f00"/>
<path d="m937.071 331.224c-0.006 0.3302 14.276 15.2956 14.276 15.2956 1.81308 3.73864 3.76283 6.92936 5.11387 10.2737 0.54308 0.16328 6.44193 0.26246 6.44193-0.0774 0-0.33988-9.51654-16.995-9.51654-16.995-0.79345-11.1034 0.7995-23.2567-2.37913-33.3091-1.69334-5.35577-12.9443-15.165-14.432-12.5162-3.15807 5.62187 0.71604 25.0831 0.4959 37.3283z" fill="#febb30" stroke="#4a0f00" stroke-width=".850393"/>
<path d="m834.782 311.918c-0.008 6.81808 3.69146 7.71192 5.39689 9.45243 3.50158 3.57172 8.06269 5.38238 10.6232 9.68586 3.60801 6.43225 8.1026 4.37606 9.06176 7.81232 1.39821-1.85299 1.17082-4.95179-3.74953-9.06175 3.90314-0.22377 8.94322 5.16708 8.74849 7.8111 2.86294-2.35615 0.46567-9.54798 0-13.4354-0.16812-1.28935 2.48073 3.20161 5.62429 3.12541 0.70636 7.12772 6.20606 10.9123 12.4968 12.1847 3.20766 5.15016 11.4868 10.893 13.7487 8.74849 0.78135-0.52493-5.73678-2.16989-4.55507-3.8862 1.5107-1.43087 3.55479 1.65947 6.96928 0.075-3.86443-2.41784-3.43142-4.57321-3.35159-7.43615 1.36555 2.04772 5.8045 2.14448 6.56166 1.56149-2.26664-0.61927-3.16169-2.60168-2.50008-4.6869 6.56167-0.58904 9.59273-4.29139 13.4354-9.06055 2.22673 0.31811 21.815 3.66607 22.9519 5.39206 0.62169 1.66431 9.98099 7.39624 10.9353 7.95262-0.3556-1.10308-1.96789-3.67332-1.48892-4.04586 0.45841-0.35681 1.87234 1.70301 3.82331 3.28991-1.25186-3.41207-1.81429-8.33241-1.16961-8.52715 0.46808 1.48651 3.21007 4.2031 4.60102 6.72617-0.001-5.16467 0.56969-20.3623-1.46594-25.5415-0.89384-2.88109-33.707-20.187-51.3104-28.9887-7.18457-3.59229-13.7789-7.05999-21.2465-7.50026-5.74887-0.0266-11.7336 2.38155-16.5596 5.00017-7.46276 4.04707-14.7598 8.70495-21.5586 13.7474-2.47106 1.83122-5.78032 4.03739-6.56772 6.7939-1.08736 3.80516-1.51553 8.93354 0.5455 12.8113z" fill="#4a0f00"/>
<path d="m844.856 328.5c-1.50706-1.54819 4.67602-4.04707 7.98165-10.5749 5.30739 6.30888-5.44407 12.8766-7.98165 10.5749z" fill="#dc6207" stroke="#000" stroke-width=".425197"/>
<path d="m838.164 312.871s0.67975 8.15703 3.73863 9.51654c0 3.05888 0 4.07851 0.33988 4.07851 6.45765 0.33988 10.5374-7.47728 10.5374-7.47728 2.71901 6.68383-6.38144 8.67108-6.11777 9.85641 6.64755 5.27232 4.98445-2.49282 7.47728-3.73863 8.15703 0.67975 2.88109-7.05637 4.01925-6.65722 2.53516-0.19958 7.51114-3.84145 5.15741-11.3574-2.03926-2.47468-9.51654 3.73985-10.5362 6.45886 1.67036-3.47254-3.05888-6.45886-2.03925-6.45886 2.37913 1.01963-3.05889-0.33866-4.07852 0.68097l-8.49811 5.09814z" fill="#febb30" stroke="#4a0f00" stroke-width=".850393"/>
<path d="m860.878 278.976c-0.65436 0.0399-10.0245 6.32218-11.4506 7.15675-3.01655 1.44417-14.9509 6.83865-16.6999 10.0197-2.2473 3.74469-2.88956 9.93987-1.27121 13.0411 2.08884 3.55237 6.89428 1.84331 8.58762 3.33949 3.3661 3.13146 6.35242-2.16142 6.83865-4.45225-0.1524-3.77372-2.29931-10.7418-3.49916-14.9497 2.36583 0.81522 5.87224 3.09759 8.42918 2.38518 0.73055-0.0714-1.21437-3.3903-0.47656-3.18105 3.18468 0.90352 8.84646 5.76096 12.2452 6.52055 1.72599 0.20803-0.46203-3.53544 0.15966-3.18105 2.34769 1.34136 6.40201 5.11387 8.74728 8.27072-5.36666 0.81885 4.16439 6.72012 3.6576 8.42918-0.3423 1.15388-4.73408-4.85624-6.20244 0.15844-2.53274 5.26022 3.77009 8.62996 3.3395 10.0197-0.25884 0.83699-5.24934-5.36666-5.40779-3.3395 0 5.65211 11.753 18.6654 20.5172 17.8114 1.55061-0.0677-2.20738-6.85074-1.11397-7.15675 1.55786-0.43543 8.91661 12.8657 10.0197 4.93123 0.74749-2.93189-3.71686-9.42582-3.49915-13.5188 1.15994-0.35923 14.5893 5.34489 17.653-6.52054-0.62532 6.98863 3.2379 14.9993 7.63331 16.8583-0.0484 4.76674 4.21398 7.07693 3.97692 10.6559-0.18748 2.83512-3.9104 5.15015-5.08968 7.95141-0.51647 1.22767 0.48865 2.91253 0 4.13536-0.78256 1.95701-4.68086 3.19194-4.77036 5.40657-0.0399 0.92892 5.23603 2.35737 6.52054 1.74898 1.63528-0.87449-0.64226-2.49404 0.15845-3.18105 1.93765-1.77437 9.71247-8.9916 11.9283-13.0399 0.85997-1.57117-2.02232-2.67305-1.90863-5.72589 0.19474-4.9917 10.443-8.91177 12.4049-18.6073 0.77773-3.71929 1.22283-8.10502 0.31932-11.7687-1.05834-4.28897-6.51692-12.2682-6.20365-12.0868 6.62335 3.68059 6.86647 29.1278 17.8127 28.627 9.79956-0.45599 9.9822-13.1862 9.38349-20.516-0.77047-10.3898 2.17351-6.41531 1.59052-12.723 0 0-9.22504 1.90863-9.06538 9.38228 0.0968 4.45225 2.86294 6.6802 3.18104 10.974-0.47413 6.39838-3.52939 8.40498-5.08967 7.79296-2.3622-0.92528-4.44863-8.27193-6.6802-12.4049-2.43357-4.5091-3.62132-10.4781-7.3152-13.5188-4.09908-3.37336-10.385-5.85893-16.0637-5.72467-7.30432 0.64588-12.0094-1.11277-18.2892-5.08968-1.60383-1.00028-5.61099-1.67156-5.56623-1.11276 0.0617 0.76563 6.95839 5.28078 5.88433 5.08846-2.47831-0.44389-11.4844-5.82385-16.5402-6.99709-0.88174-0.20441-0.63016 3.02381-1.27121 2.86294-1.26637-0.31689-2.96938-2.86294-4.45347-4.29381 0 0-0.79586 6.83865-0.79586 6.52055 0-0.31811-4.45226-6.3621-4.45226-6.3621-0.58299 1.5373-0.7366 4.36517-1.75018 4.61191-1.15994 0.28303-3.61648-3.51971-4.77037-3.02139-0.88537 0.47293 1.84937 4.51999 0.95432 4.29381-3.01655-1.04019-10.3378-6.64754-12.2464-6.52054z" fill="#febb30" stroke="#3a1400" stroke-width=".850393"/>
<path d="m882.666 339.73c-0.48623 5.36666 0.68943 9.16336-1.59052 11.609-0.72813 0.83941 1.00995 2.62104 0.15966 3.34071-1.47683 1.11639-4.83447 4.25873 1.11276 4.13415 5.66299-0.12216 4.83205-3.31409 4.29381-4.93002-0.78135-2.50371 1.00753-7.16038 0.15966-10.1781-0.47777-1.70059-4.03861-5.01711-4.13537-3.97571z" fill="#febb30" fill-rule="evenodd" stroke="#4a0f00" stroke-width=".850393"/>
<path d="m892.526 347.841c0.93738 1.64616 0.53098 4.02892 0.79466 6.04278 0 0-0.79466 0.63621-0.79466 0.95431 0 0.31811 0.63742 0.31811 0.95553 2.22674 0.20924 2.31382-2.54847 4.14262-5.56744 3.49915-1.11397-0.18022-3.34071 0.62049-3.34071-0.63621 0-2.70328 3.27902-4.46556 3.18105-6.04399-0.13789-2.0066-1.74897-1.74897-1.74897-3.65639 0-2.35373 0.25884-6.24356 1.43087-6.6802 1.10671-0.41124 4.06642 2.49525 5.08967 4.29381z" fill="#febb30" fill-rule="evenodd" stroke="#4a0f00" stroke-width=".850393"/>
<path d="m878.27 288.059c1.02084 1.01962 12.9165 19.3729 12.9165 19.3729-1.01963-0.33988-2.03926-0.67975-3.05889-1.01963 1.92557 2.83271 3.85234 5.66541 5.7779 8.49812-1.92556 0.67975-7.2511-6.79874-10.876-10.1975 0.79224 4.87196-6.57134-5.21184-9.85762-7.81715 2.15295 0.67975 4.30469 1.3595 6.45765 2.03926-2.49283-2.37914-4.98445-4.75827-7.47728-7.13741 2.60652 0.90594 5.21184 1.81308 7.81836 2.71901-0.56726-2.15295-1.13332-4.30469-1.70059-6.45764z" fill="#4a0f00"/>
<path d="m911.58 306.752c-1.01962-8.83678 4.75948-12.9153 6.79874-13.2552 0.67249-0.0956 3.05888 4.07851 3.05888 4.07851-7.02491-0.67975-9.32301 13.6338-9.85762 9.17666z" fill="#4a0f00"/>
<path d="m839.183 293.497c-4.33736 3.65639-6.68504 8.72429-5.43802 14.9558 0 0 3.39876-0.67975 3.73863-0.67975 0.33988 0 4.07852 3.05888 4.07852 3.05888s1.28451-7.0104 1.01963-6.79873c-1.69938 1.69938-9.37623-1.73083-3.39876-10.5362z" fill="#4a0f00"/>
<path d="m857.538 284.32c5.89159 1.4732 8.04334 3.62494 10.5362 6.45765" fill="none" stroke="#480f00" stroke-width="1.48819"/>
<path d="m860.597 280.921c4.64457 1.58568 7.59097 3.85233 10.5362 7.1374" fill="none" stroke="#4a0f00" stroke-width="1.48819"/>
<path d="m932.993 312.871c0.33987 4.36154-5.842 16.6648-7.17974 19.246-0.5467 0.91319-1.14663-0.66645-1.99692-3.61164" fill="none" stroke="#4a0f00" stroke-width="1.2pt"/>
<path d="m938.091 316.27c-3.39876 5.89159-4.07851 10.4225-9.17666 13.595" fill="none" stroke="#4a0f00" stroke-width="1.48819"/>
<path d="m926.535 341.421v0.33987" fill="none" stroke="#000" stroke-width="1.2pt"/>
<path d="m920.078 354.337c0-4.19221 7.1374-4.98566 6.11777-12.5766" fill="none" stroke="#4a0f00" stroke-width="1.48819"/>
<path d="m880.651 284.66c-1.51796 4.74376 10.8748 25.152 17.3337 28.2109 1.55303 0.69064-1.01479-8.1026 1.01963-8.15824 2.40212-0.0786 4.75827 7.81715 6.79753 5.43802 2.06707-2.06708 4.07851-6.11777 4.75827-6.79752 0.67975-0.67976 2.71901-8.83679 2.71901-8.83679s-6.79753-0.33987-7.13741-0.33987c-0.33987 0-7.81715-7.1374-7.81715-7.1374 0.45357 2.15295 2.16868 5.92787 1.35951 6.45765-3.11937 1.81912-7.52082-7.40592-9.51654-7.47728-1.17687-0.0423 1.13816 7.29948 0 7.1374-2.03442-0.29029-9.0424-10.4055-9.51653-8.49691z" fill="#fee5a3"/>
<path d="m915.999 300.634c-4.29139 5.79241 0.52615 19.6608 3.73864 22.433 3.23185 3.42295-4.07972-16.5523-1.01963-14.6147 4.41235 2.66942 3.32741 4.68086 5.7779 7.47728 4.18374 5.54445 9.15005-0.33625 8.49691-8.838-0.3302-4.12205-13.2262-8.97466-12.9153-8.83678 3.39876 1.35951-1.73809-0.32052-4.07852 2.37914z" fill="#fee5a3"/>
<path d="m850.401 306.752c0.9398-2.03684 2.23399-11.6949-7.81836-13.9349 6.65359 10.6232 1.71994 9.99551 3.73985 13.595 0.58661 1.04503 3.65881 1.24823 4.07851 0.33988z" fill="#feffff" stroke="#4a0f00" stroke-width=".850393"/>
<path d="m841.223 314.57v-0.33987" fill="none" stroke="#000" stroke-width="1.2pt"/>
<path d="m850.74 312.871c-2.03926 4.07852-5.77911 3.39876-10.1975 2.03926" fill="none" stroke="#4a0f00" stroke-width=".850393"/>
<path d="m840.883 315.93h0.33987" fill="none" stroke="#000" stroke-width="1.2pt"/>
<path d="m842.582 322.388c-0.67976-0.96279 3.05888-0.90594 2.37913-1.86872-2.03926-0.96399-1.69938-3.96603-5.09814-5.26869" fill="none" stroke="#4a0f00" stroke-width=".850393"/>
<path d="m956.758 357.054c0.33988 0 5.80572 0.002 5.80572 0.002s0.33988 6.11777 0 6.11777-8.83678-0.33987-8.83678-0.33987 2.69119-5.78032 3.03106-5.78032z" fill="#000"/>
<path d="m938.252 305.944c6.3633 4.52483 4.25268 20.7288-7.35391 28.4238-1.64737 1.23372-1.55303 8.47997-2.26181 8.20178-0.94464-0.31447-1.6764-5.29287 0.42333-11.0296 5.53237-5.29045 12.3867-12.2924 9.19239-25.5959z" fill="#fee5a3"/>
<path d="m855.033 314.533c-0.35439-1.00028 4.02046-5.88434 5.58679-5.18765 2.20375 1.06922 0.61807 4.54539-0.39914 5.38722-0.91078 0.75353-4.74013 1.62923-5.18765-0.19957z" fill="#490f00"/>
</g>
</g>
</svg>