<?xml version="1.0" encoding="UTF-8" standalone="no"?>
<!-- Created with Inkscape (http://www.inkscape.org/) -->
<svg
   xmlns:dc="http://purl.org/dc/elements/1.1/"
   xmlns:cc="http://creativecommons.org/ns#"
   xmlns:rdf="http://www.w3.org/1999/02/22-rdf-syntax-ns#"
   xmlns:svg="http://www.w3.org/2000/svg"
   xmlns="http://www.w3.org/2000/svg"
   xmlns:sodipodi="http://sodipodi.sourceforge.net/DTD/sodipodi-0.dtd"
   xmlns:inkscape="http://www.inkscape.org/namespaces/inkscape"
   width="800"
   height="533.33002"
   id="svg2"
   sodipodi:version="0.32"
   inkscape:version="0.46"
   version="1.0"
   sodipodi:docname="Flag of Anchorage, Alaska.svg"
   sodipodi:docbase="F:\"
   inkscape:output_extension="org.inkscape.output.svg.inkscape">
  <defs
     id="defs4">
    <inkscape:perspective
       sodipodi:type="inkscape:persp3d"
       inkscape:vp_x="0 : 526.18109 : 1"
       inkscape:vp_y="0 : 1000 : 0"
       inkscape:vp_z="744.09448 : 526.18109 : 1"
       inkscape:persp3d-origin="372.04724 : 350.78739 : 1"
       id="perspective10" />
    <inkscape:perspective
       id="perspective3457"
       inkscape:persp3d-origin="372.04724 : 350.78739 : 1"
       inkscape:vp_z="744.09448 : 526.18109 : 1"
       inkscape:vp_y="0 : 1000 : 0"
       inkscape:vp_x="0 : 526.18109 : 1"
       sodipodi:type="inkscape:persp3d" />
  </defs>
  <sodipodi:namedview
     id="base"
     pagecolor="#ffffff"
     bordercolor="#666666"
     borderopacity="1.0"
     gridtolerance="10000"
     guidetolerance="10"
     objecttolerance="10"
     inkscape:pageopacity="0.0"
     inkscape:pageshadow="2"
     inkscape:zoom="0.71860172"
     inkscape:cx="464.01492"
     inkscape:cy="175.20265"
     inkscape:document-units="px"
     inkscape:current-layer="layer1"
     showgrid="false"
     width="800px"
     inkscape:window-width="1280"
     inkscape:window-height="956"
     inkscape:window-x="-4"
     inkscape:window-y="-4"
     showguides="false"
     inkscape:guide-bbox="true">
    <inkscape:grid
       type="xygrid"
       id="grid2383"
       visible="true"
       enabled="true" />
    <sodipodi:guide
       orientation="1,0"
       position="0,533.08594"
       id="guide2469" />
    <sodipodi:guide
       orientation="1,0"
       position="800,-0.234375"
       id="guide2471" />
    <sodipodi:guide
       orientation="horizontal"
       position="533.33203"
       id="guide2914" />
    <sodipodi:guide
       orientation="horizontal"
       position="0.00000000"
       id="guide2916" />
  </sodipodi:namedview>
  <metadata
     id="metadata7">
    <rdf:RDF>
      <cc:Work
         rdf:about="">
        <dc:format>image/svg+xml</dc:format>
        <dc:type
           rdf:resource="http://purl.org/dc/dcmitype/StillImage" />
      </cc:Work>
    </rdf:RDF>
  </metadata>
  <g
     inkscape:label="Layer 1"
     inkscape:groupmode="layer"
     id="layer1">
    <rect
       style="opacity:1;fill:#f5dc0f;fill-opacity:1;fill-rule:evenodd;stroke:none;stroke-width:1;stroke-linecap:round;stroke-linejoin:round;marker:none;marker-start:none;marker-mid:none;marker-end:none;stroke-miterlimit:4;stroke-dasharray:none;stroke-dashoffset:0;stroke-opacity:1;visibility:visible;display:inline;overflow:visible;enable-background:accumulate"
       id="rect4037"
       width="800"
       height="533.33203"
       x="0"
       y="-0.0020129101" />
    <g
       id="g3981"
       transform="translate(-609.93655,-44.281164)">
      <path
         transform="matrix(0.8002365,0,0,0.8002365,713.67226,-8.7902207)"
         d="M 568.74628,399.55112 A 198.52536,198.52536 0 1 1 171.69556,399.55112 A 198.52536,198.52536 0 1 1 568.74628,399.55112 z"
         sodipodi:ry="198.52536"
         sodipodi:rx="198.52536"
         sodipodi:cy="399.55112"
         sodipodi:cx="370.22092"
         id="path3322"
         style="fill:#002673;fill-opacity:1;fill-rule:evenodd;stroke:none;stroke-width:1.24713254;stroke-linecap:round;stroke-linejoin:round;marker:none;marker-start:none;marker-mid:none;marker-end:none;stroke-miterlimit:4;stroke-dasharray:none;stroke-dashoffset:0;stroke-opacity:1;visibility:visible;display:inline;overflow:visible;enable-background:accumulate"
         sodipodi:type="arc" />
      <path
         transform="matrix(0.8002365,0,0,0.8002365,713.67226,-8.7902207)"
         d="M 561.96057,399.55112 A 191.73965,191.73965 0 1 1 178.48126,399.55112 A 191.73965,191.73965 0 1 1 561.96057,399.55112 z"
         sodipodi:ry="191.73965"
         sodipodi:rx="191.73965"
         sodipodi:cy="399.55112"
         sodipodi:cx="370.22092"
         id="path3324"
         style="fill:#ffffff;fill-opacity:1;fill-rule:evenodd;stroke:none;stroke-width:1.24713254;stroke-linecap:round;stroke-linejoin:round;marker:none;marker-start:none;marker-mid:none;marker-end:none;stroke-miterlimit:4;stroke-dasharray:none;stroke-dashoffset:0;stroke-opacity:1;visibility:visible;display:inline;overflow:visible;enable-background:accumulate"
         sodipodi:type="arc" />
      <path
         transform="matrix(0.8002365,0,0,0.8002365,713.67226,-8.7902207)"
         d="M 553.032,399.55112 A 182.81108,182.81108 0 1 1 187.40984,399.55112 A 182.81108,182.81108 0 1 1 553.032,399.55112 z"
         sodipodi:ry="182.81108"
         sodipodi:rx="182.81108"
         sodipodi:cy="399.55112"
         sodipodi:cx="370.22092"
         id="path3326"
         style="fill:#002673;fill-opacity:1;fill-rule:evenodd;stroke:none;stroke-width:1.24713254;stroke-linecap:round;stroke-linejoin:round;marker:none;marker-start:none;marker-mid:none;marker-end:none;stroke-miterlimit:4;stroke-dasharray:none;stroke-dashoffset:0;stroke-opacity:1;visibility:visible;display:inline;overflow:visible;enable-background:accumulate"
         sodipodi:type="arc" />
      <path
         transform="matrix(0.8002365,0,0,0.8002365,713.67226,-8.7902207)"
         d="M 547.3177,399.55112 A 177.09679,177.09679 0 1 1 193.12413,399.55112 A 177.09679,177.09679 0 1 1 547.3177,399.55112 z"
         sodipodi:ry="177.09679"
         sodipodi:rx="177.09679"
         sodipodi:cy="399.55112"
         sodipodi:cx="370.22092"
         id="path3328"
         style="fill:#ffffff;fill-opacity:1;fill-rule:evenodd;stroke:none;stroke-width:1.24713254;stroke-linecap:round;stroke-linejoin:round;marker:none;marker-start:none;marker-mid:none;marker-end:none;stroke-miterlimit:4;stroke-dasharray:none;stroke-dashoffset:0;stroke-opacity:1;visibility:visible;display:inline;overflow:visible;enable-background:accumulate"
         sodipodi:type="arc" />
      <path
         id="path2473"
         d="M 1069.1206,264.14693 L 1065.3119,264.52279 L 1071.3256,271.16302 C 1070.8149,271.38964 1070.477,271.54479 1070.1479,271.7644 L 1070.1479,273.39314 C 1065.9215,273.70262 1061.4322,274.75473 1056.0907,277.47751 C 1054.5869,278.24404 1053.8389,279.5583 1056.5167,280.18372 C 1065.0677,282.18086 1077.3402,282.34462 1087.6631,281.83751 L 1089.0413,282.1382 C 1088.5657,282.31504 1088.2657,282.49413 1087.9638,282.68946 L 1087.9638,284.64395 C 1089.6376,285.6362 1092.7014,285.84654 1095.3808,285.64625 L 1095.3808,287.5005 C 1098.2499,289.2014 1105.2181,288.69729 1107.3082,287.52556 C 1108.0758,287.09521 1108.347,286.63927 1108.4608,286.17245 L 1122.0169,289.00395 L 1124.5979,286.69866 L 1105.0029,281.01061 L 1110.6408,280.83521 L 1119.5112,279.00601 L 1124.0466,280.73498 L 1125.6252,279.18142 L 1123.345,277.6028 L 1123.8461,274.92165 L 1127.5546,269.73475 C 1128.4809,268.44337 1128.0683,267.03778 1126.6275,267.02854 L 1121.0397,266.97842 L 1122.0169,268.2313 C 1122.2992,268.59723 1122.2624,268.89679 1121.9167,269.2336 L 1117.0556,273.96946 L 1115.4018,272.66647 L 1111.7183,272.99222 L 1112.6956,274.16992 L 1084.4307,273.51843 L 1084.0799,273.31797 C 1083.2826,272.00827 1081.6869,271.04958 1080.0707,270.86233 L 1069.1206,264.14693 z"
         style="fill:#002673;fill-opacity:1;fill-rule:evenodd;stroke:none;stroke-width:0.25;stroke-linecap:butt;stroke-linejoin:miter;stroke-miterlimit:4;stroke-dasharray:none;stroke-opacity:1" />
      <path
         transform="matrix(0.8018394,0,0,0.8018394,712.93565,-11.578436)"
         d="M 280.35714,360.04074 A 21.607143,21.607143 0 1 1 237.14286,360.04074 A 21.607143,21.607143 0 1 1 280.35714,360.04074 z"
         sodipodi:ry="21.607143"
         sodipodi:rx="21.607143"
         sodipodi:cy="360.04074"
         sodipodi:cx="258.75"
         id="path3308"
         style="fill:#f5dc0f;fill-opacity:1;fill-rule:evenodd;stroke:none;stroke-width:0.25;stroke-linecap:round;stroke-linejoin:round;marker:none;marker-start:none;marker-mid:none;marker-end:none;stroke-miterlimit:4;stroke-dasharray:none;stroke-dashoffset:0;stroke-opacity:1;visibility:visible;display:inline;overflow:visible;enable-background:accumulate"
         sodipodi:type="arc" />
      <path
         id="path3171"
         d="M 981.99573,245.32876 L 981.92056,253.29704 L 969.19136,253.29704 C 965.7094,253.29704 962.61645,258.70781 962.55112,261.84164 C 962.50156,264.21926 963.68929,267.54366 968.41457,267.45452 L 981.79527,267.20394 L 981.79527,269.10831 L 974.25297,269.30877 C 972.15143,269.36232 970.45017,270.40499 969.14124,273.04233 C 946.67433,294.26124 924.506,317.32753 904.74351,340.52213 L 904.59317,340.47202 C 903.3908,340.08348 902.98501,341.56863 903.99179,341.90029 L 922.88513,348.13961 L 922.88513,349.86857 C 922.88513,351.08431 923.66535,351.26336 924.38858,351.42214 L 957.06353,361.87111 L 957.06353,362.94858 L 952.12721,362.94858 L 953.12951,368.76191 C 953.49106,370.85377 954.22655,372.92669 956.41204,374.55019 L 961.42354,378.28376 C 962.73746,379.25983 964.083,380.06441 965.65825,383.14491 L 968.89067,389.43433 C 969.40365,390.4731 970.75659,391.4533 972.44883,390.43663 C 978.4122,386.85394 982.39713,385.38641 986.75665,385.04928 C 992.14459,384.6326 997.605,384.68992 1003.2445,386.37732 L 1016.124,390.21112 C 1022.9772,392.95026 1029.7427,393.17558 1036.2702,390.63709 L 1049.0245,385.67571 C 1054.7295,383.45708 1060.8804,383.15243 1066.8153,385.37502 C 1067.5221,385.63973 1068.3744,386.1566 1069.0454,385.07433 L 1071.2505,381.49111 C 1071.9438,380.37289 1072.589,379.96598 1074.6834,378.13341 L 1077.565,375.62766 C 1079.0321,374.34393 1079.6484,372.72557 1080.2712,370.69134 L 1081.3486,367.18329 C 1081.7323,365.93006 1082.4568,365.18831 1084.4307,363.82559 L 1088.7155,360.86881 C 1089.1258,360.5856 1089.367,360.39956 1089.367,360.06697 L 1089.367,358.18766 L 1087.9638,358.18766 L 1087.9638,357.31064 C 1087.9638,356.62865 1087.5285,356.65915 1087.2121,356.65915 L 1081.499,356.65915 L 1092.4992,331.5265 C 1092.8437,331.41259 1093.1692,331.15813 1093.3261,330.79983 C 1093.6194,330.13012 1093.2942,329.3641 1092.6245,329.07086 C 1092.4571,328.99755 1092.2698,328.94968 1092.0983,328.94557 C 1091.5837,328.93325 1091.0904,329.22007 1090.8705,329.72236 C 1090.7136,330.08066 1090.7205,330.46941 1090.8705,330.79983 L 1089.2417,334.55845 C 1086.6304,333.22797 1082.9961,332.19161 1075.7608,332.17799 C 1071.3821,332.16975 1067.4073,331.74227 1064.7355,330.02305 C 1060.2856,331.61144 1059.9453,334.45515 1059.3732,337.18949 C 1058.6096,340.83948 1057.3424,343.17943 1055.0383,344.05524 C 1054.8034,342.04289 1054.1536,339.83766 1053.0086,337.38995 C 1052.1931,335.64639 1051.5091,333.7814 1052.4323,332.10282 L 1053.2091,330.67454 C 1054.2723,328.74147 1053.7407,325.92914 1052.6328,323.73362 L 1057.5941,321.00235 C 1060.513,319.39485 1062.0688,315.50735 1061.9542,310.25269 C 1064.7249,309.09723 1066.6148,306.78557 1066.6148,304.18878 L 1066.6148,301.18189 C 1069.6673,301.22575 1071.9771,298.36239 1071.9771,295.36855 L 1071.9771,290.43223 C 1071.9771,289.04189 1072.0161,287.74679 1072.9043,286.92418 L 1071.6263,285.99705 L 1054.6875,307.5966 C 1046.8908,302.33374 1044.792,286.60988 1054.8879,267.20394 L 1047.2705,267.4044 L 1047.07,245.32876 L 1043.2613,245.32876 L 1043.0608,267.50463 L 1033.8898,267.75521 C 1022.6549,276.26178 1020.4952,292.19324 1025.2199,305.69223 C 1026.5253,309.42192 1029.0571,309.93739 1031.9102,310.32787 L 1042.71,310.02718 L 1042.284,358.1626 L 1024.3679,358.1626 L 1021.0603,360.86881 L 1009.6091,360.86881 L 1009.5339,358.18766 L 986.78171,358.18766 L 986.75665,354.65455 C 989.95141,355.33954 993.26797,354.78865 996.4539,353.72742 C 988.90637,344.30609 989.63232,340.66188 989.4378,336.38765 C 989.1871,328.37916 992.06734,323.18392 995.37642,318.92258 L 986.4309,319.17316 L 986.40585,316.74258 L 994.85022,316.51706 C 986.88174,301.28958 985.2834,286.0996 990.33987,270.88739 C 990.69574,269.81677 990.85009,268.88974 990.13941,268.90785 L 985.97987,269.00808 L 985.85458,253.97359 C 986.52787,253.70945 987.20479,253.4933 987.85918,253.29704 L 985.85458,253.29704 L 985.77941,245.32876 L 981.99573,245.32876 z M 1006.3767,251.99405 C 1002.4157,252.13364 999.89449,254.72272 998.28309,257.98279 C 995.93979,262.72362 1000.3945,266.72393 1005.2491,266.60256 L 1022.4385,266.15153 C 1016.2704,259.50426 1021.2263,255.16606 1025.8714,251.99405 L 1007.1785,251.99405 C 1006.9015,251.98096 1006.6407,251.98474 1006.3767,251.99405 z M 981.8955,255.92807 L 981.82033,266.2267 C 978.50328,265.05688 976.41371,264.0304 976.78377,261.79153 C 977.1448,259.60727 979.24918,257.54337 981.8955,255.92807 z M 1024.418,267.95567 L 1005.4746,268.43176 C 1001.8492,268.51899 1000.3119,268.30246 998.18286,271.66417 C 985.67079,291.42081 992.6964,309.81685 999.71137,316.41683 L 1029.9307,315.53982 C 1013.2366,304.13261 1017.6107,280.4766 1024.418,267.95567 z M 968.38952,274.87153 C 966.11125,280.67749 964.03433,286.82409 963.10239,294.31614 C 959.82193,298.07213 956.6925,301.88007 953.88123,305.79246 C 956.11643,291.27121 961.89111,281.30498 968.38952,274.87153 z M 962.60124,301.15683 C 962.53286,304.05885 962.61408,307.1471 962.92699,310.47821 C 963.27604,314.19429 964.02862,317.33316 968.31434,317.21867 L 981.36929,316.86787 L 981.34423,319.29844 L 972.524,319.54902 C 962.67846,321.86766 958.30084,328.13479 957.63986,333.45592 C 956.95037,339.00649 957.71077,344.53284 965.30745,345.55868 C 966.66503,345.742 967.24499,346.0869 967.66285,347.21248 C 968.83421,350.36774 970.64218,354.42708 978.68814,351.49731 C 979.44588,351.22139 980.10302,351.2465 981.04354,351.84811 L 980.99343,358.18766 L 974.5286,358.18766 L 974.5286,360.518 L 966.78584,360.518 C 951.58245,343.50614 951.05677,322.82936 962.60124,301.15683 z M 1053.0086,309.72649 L 1047.6964,316.49201 L 1047.6463,309.87683 L 1053.0086,309.72649 z M 1033.113,317.92028 L 1002.1419,318.77224 C 986.74178,330.99067 989.13534,345.96905 1008.6318,354.88007 C 1024.2613,360.27192 1032.3615,356.88944 1039.8033,352.54972 C 1025.9826,341.32513 1026.6597,329.37716 1033.113,317.92028 z M 1088.6153,335.96167 L 1082.4011,350.1442 C 1080.9936,344.26971 1082.7076,338.74118 1088.6153,335.96167 z M 926.59364,336.0619 C 928.35076,336.04777 930.11413,336.12796 931.88077,336.31247 C 929.83283,339.57735 927.65594,343.00812 925.01502,347.06213 L 905.89616,340.89799 C 912.15801,337.86638 919.29003,336.12063 926.59364,336.0619 z M 936.21571,344.85708 C 946.43681,344.50531 957.34495,352.53725 965.18216,360.518 L 963.12745,360.518 L 927.57088,349.01662 C 927.66382,348.60241 927.76375,348.06078 927.1449,347.76374 C 930.02472,345.85124 933.09291,344.96455 936.21571,344.85708 z M 1055.1385,345.50857 C 1057.2578,347.11599 1061.6417,347.57987 1067.9679,347.33777 C 1076.2725,347.01995 1079.7214,349.05194 1081.7997,351.54742 L 1079.5696,356.65915 L 1050.2022,356.65915 L 1050.2022,355.30605 C 1053.3903,352.75732 1055.201,349.58412 1055.1385,345.50857 z"
         style="fill:#f5dc0f;fill-opacity:1;fill-rule:evenodd;stroke:none;stroke-width:0.25;stroke-linecap:butt;stroke-linejoin:miter;stroke-miterlimit:4;stroke-dasharray:none;stroke-opacity:1" />
      <path
         id="path3249"
         d="M 989.88884,392.59158 C 979.30581,392.43841 969.84614,396.70454 963.90423,403.41641 L 968.11388,407.14997 C 974.46073,399.9807 986.3399,395.83881 999.13505,399.68284 L 1015.8233,404.69434 C 1024.8203,407.39727 1032.9944,408.67008 1041.407,404.91986 L 1053.2843,399.60767 C 1057.7677,397.60902 1064.2836,397.66676 1072.5535,401.58721 L 1074.959,396.5256 C 1065.6647,392.1195 1057.3624,391.66151 1051.004,394.49595 L 1039.1017,399.78307 C 1032.3113,402.81015 1026.0251,401.89008 1017.427,399.30698 L 1000.7638,394.29549 C 997.07037,393.18588 993.41651,392.64263 989.88884,392.59158 z"
         style="fill:#f5dc0f;fill-opacity:1;fill-rule:evenodd;stroke:none;stroke-width:7;stroke-linecap:butt;stroke-linejoin:miter;stroke-miterlimit:4;stroke-dasharray:none;stroke-opacity:1" />
      <path
         id="path3279"
         d="M 1009.9348,176.59609 C 996.7354,176.59609 986.02999,187.30151 986.02998,200.50093 C 986.02998,211.88964 994.00777,221.44847 1004.6727,223.8545 L 1004.6727,234.20324 L 920.4295,234.20324 L 905.44512,249.78899 L 1004.6727,249.78899 L 1004.6727,391.1633 C 1004.6727,406.90781 997.53717,414.78089 991.74309,418.90193 C 983.50751,424.75947 972.88797,425.91419 963.42814,421.8086 C 935.694,409.7719 915.64925,391.01048 902.31294,363.8757 C 911.85176,368.19309 922.14745,370.35576 932.58238,370.19019 C 910.09867,353.23954 890.17021,333.44937 879.0596,303.98832 C 878.93021,306.42653 878.88419,308.51266 878.88419,310.9543 C 878.88419,383.29323 937.59589,442.00491 1010.0351,442.00493 C 1082.4742,442.00493 1141.1859,383.29323 1141.1859,310.9543 C 1141.1859,308.51266 1141.1399,306.42653 1141.0105,303.98832 C 1129.8999,333.44937 1109.9714,353.23953 1087.4877,370.19019 C 1097.9226,370.35577 1108.2183,368.1931 1117.7572,363.8757 C 1104.4208,391.01047 1084.4012,409.77189 1056.667,421.8086 C 1047.2072,425.9142 1036.5877,424.75947 1028.3521,418.90193 C 1022.558,414.7809 1015.3974,406.9078 1015.3974,391.1633 L 1015.3974,249.78899 L 1114.4245,249.78899 L 1099.4401,234.20324 L 1015.3974,234.20324 L 1015.3974,223.80438 C 1025.961,221.32409 1033.8396,211.81773 1033.8397,200.50093 C 1033.8397,187.3015 1023.1342,176.5961 1009.9348,176.59609 z M 1009.9348,188.47333 C 1016.574,188.47333 1021.9624,193.8617 1021.9624,200.50093 C 1021.9624,207.14016 1016.5741,212.52852 1009.9348,212.52852 C 1003.2956,212.52852 997.90723,207.14016 997.90723,200.50093 C 997.90722,193.8617 1003.2956,188.47333 1009.9348,188.47333 z"
         style="fill:#002673;fill-opacity:1;fill-rule:evenodd;stroke:none;stroke-width:0.25;stroke-linecap:round;stroke-linejoin:round;marker:none;marker-start:none;marker-mid:none;marker-end:none;stroke-miterlimit:4;stroke-dasharray:none;stroke-dashoffset:0;stroke-opacity:1;visibility:visible;display:inline;overflow:visible;enable-background:accumulate" />
    </g>
    <path
       style="font-size:26.31263351px;font-style:normal;font-variant:normal;font-weight:bold;font-stretch:normal;text-align:center;line-height:125%;writing-mode:lr-tb;text-anchor:middle;fill:#002673;fill-opacity:1;stroke:none;stroke-width:1px;stroke-linecap:butt;stroke-linejoin:miter;stroke-opacity:1;font-family:Futura Md BT;-inkscape-font-specification:Futura Md BT Bold"
       d="M 318.75336,113.47423 L 323.29298,111.14859 L 318.75977,106.49844 C 318.62049,106.35809 318.40943,106.12457 318.12659,105.79788 C 317.84375,105.47122 317.47956,105.0515 317.03401,104.53869 C 317.14579,105.00113 317.24972,105.44352 317.3458,105.86585 C 317.44187,106.28822 317.52823,106.69631 317.60486,107.0901 L 318.75336,113.47423 z M 315.56566,123.00366 L 312.7641,103.30487 L 318.48148,100.37587 L 332.84359,114.15223 L 328.30399,116.47785 L 325.92302,113.91543 L 319.4395,117.23693 L 320.10526,120.67804 L 315.56566,123.00366 z M 334.53696,113.44574 L 328.09469,95.773968 L 332.74199,94.079793 L 342.73072,100.73572 C 342.92694,100.87388 343.27386,101.16905 343.77149,101.62125 C 344.26909,102.07347 344.83574,102.6213 345.47148,103.26475 C 345.10792,102.56767 344.79989,101.9415 344.54735,101.38627 C 344.29479,100.83106 344.08784,100.33216 343.92651,99.889541 L 340.74499,91.162293 L 345.36813,89.476918 L 351.81039,107.14869 L 347.18724,108.83406 L 337.18531,102.14193 C 336.98102,102.00673 336.63007,101.71301 336.13246,101.2608 C 335.63485,100.8086 335.07515,100.26736 334.45336,99.637044 C 334.81982,100.3422 335.12932,100.97239 335.38187,101.52759 C 335.63442,102.08282 335.84138,102.58173 336.00271,103.02432 L 339.18425,111.75157 L 334.53696,113.44574 z M 364.82401,85.419802 L 366.11513,90.870693 C 365.25202,90.274135 364.43888,89.879184 363.67572,89.685838 C 362.91252,89.492527 362.14336,89.487664 361.36825,89.671246 C 359.93468,90.010822 358.89005,90.77539 358.23439,91.964952 C 357.5787,93.154543 357.43743,94.536959 357.81054,96.112204 C 358.15799,97.579119 358.89839,98.688883 360.03172,99.441501 C 361.16502,100.19414 362.4318,100.40461 363.83204,100.07294 C 364.60715,99.889351 365.2924,99.539991 365.88778,99.024864 C 366.48315,98.509752 367.03175,97.787853 367.53358,96.859171 L 368.82766,102.32256 C 368.12666,102.89352 367.40714,103.36761 366.66909,103.74488 C 365.93104,104.12216 365.16195,104.40556 364.36182,104.59508 C 363.36164,104.83198 362.41045,104.93185 361.50822,104.89469 C 360.60599,104.85754 359.74339,104.68115 358.92045,104.36554 C 357.33638,103.7725 356.02113,102.86492 354.97465,101.6428 C 353.92819,100.42069 353.19864,98.938658 352.78604,97.1967 C 352.45438,95.796482 352.37994,94.469562 352.56273,93.215936 C 352.74553,91.962337 353.18477,90.760208 353.88047,89.609545 C 354.53604,88.512436 355.35536,87.614189 356.33841,86.914799 C 357.32144,86.215449 358.47974,85.707831 359.81329,85.391939 C 360.61341,85.20244 361.42792,85.11074 362.25679,85.116844 C 363.08565,85.122989 363.94139,85.223975 364.82401,85.419802 L 364.82401,85.419802 z M 371.86536,102.42957 L 369.63559,83.752782 L 374.72578,83.145075 L 375.5924,90.404018 L 382.37933,89.593742 L 381.51269,82.3348 L 386.61564,81.725569 L 388.84543,100.40235 L 383.74247,101.01159 L 382.83473,93.408195 L 376.0478,94.218471 L 376.95556,101.82186 L 371.86536,102.42957 z M 412.31503,91.03379 C 412.29703,92.386998 412.03179,93.651246 411.51934,94.826541 C 411.00686,96.001846 410.26908,97.049941 409.30603,97.970829 C 408.33447,98.883042 407.22872,99.581459 405.98878,100.06608 C 404.7488,100.55071 403.46508,100.78419 402.13759,100.76653 C 400.79294,100.74864 399.50945,100.48101 398.2871,99.963636 C 397.06476,99.446263 395.99296,98.718883 395.07174,97.781491 C 394.11635,96.835086 393.39608,95.763314 392.91088,94.566172 C 392.42569,93.369043 392.19198,92.102439 392.20975,90.766361 C 392.22763,89.421737 392.49499,88.159658 393.01178,86.980119 C 393.52859,85.800607 394.2771,84.750514 395.25731,83.829835 C 396.20314,82.917298 397.29391,82.218682 398.52959,81.733986 C 399.76526,81.249327 401.05542,81.015929 402.40005,81.033797 C 403.73612,81.051587 405.01961,81.319217 406.25054,81.836686 C 407.48143,82.354191 408.56179,83.081686 409.4916,84.019173 C 410.42137,84.95669 411.12887,86.024009 411.61409,87.221133 C 412.09925,88.418282 412.33291,89.689166 412.31503,91.03379 L 412.31503,91.03379 z M 402.19534,96.424298 C 403.61705,96.443212 404.79948,95.936411 405.74265,94.903891 C 406.68578,93.871382 407.16796,92.558624 407.18915,90.965608 C 407.21011,89.389742 406.75654,88.068818 405.82846,87.002836 C 404.90036,85.936878 403.73831,85.394608 402.3423,85.376024 C 400.92057,85.357129 399.73812,85.866071 398.79491,86.902854 C 397.8517,87.939663 397.36955,89.250282 397.34848,90.834714 C 397.32707,92.444857 397.76766,93.774174 398.6703,94.822668 C 399.5729,95.871173 400.74792,96.405049 402.19534,96.424298 L 402.19534,96.424298 z M 415.38274,100.85028 L 417.86084,82.20482 L 423.17175,82.910673 C 425.25194,83.187165 426.68902,83.475369 427.48299,83.775288 C 428.27694,84.075241 428.94118,84.489706 429.47574,85.018687 C 430.07878,85.61729 430.50825,86.335378 430.76417,87.172954 C 431.02006,88.010557 431.08482,88.904827 430.95846,89.855768 C 430.7666,91.299188 430.25611,92.425905 429.42697,93.235925 C 428.5978,94.045958 427.48423,94.509281 426.08625,94.625893 L 430.16921,102.81551 L 424.42528,102.0521 L 421.11591,94.185639 L 420.146,101.48335 L 415.38274,100.85028 z M 421.45276,91.651181 L 422.39521,91.77644 C 423.4905,91.92202 424.31557,91.841584 424.87044,91.535131 C 425.42526,91.228695 425.75572,90.676412 425.86181,89.878281 C 425.98593,88.944321 425.83862,88.248614 425.41986,87.791157 C 425.0011,87.333726 424.23559,87.031089 423.12332,86.883247 L 422.10445,86.747831 L 421.45276,91.651181 z M 438.57022,97.582035 L 443.52647,98.787085 L 443.13242,92.304917 C 443.11866,92.107659 443.11143,91.792975 443.11073,91.360861 C 443.10999,90.928772 443.10848,90.373067 443.10618,89.693749 C 442.88869,90.116888 442.67836,90.519713 442.47519,90.902224 C 442.27198,91.28476 442.07075,91.650132 441.8715,91.998342 L 438.57022,97.582035 z M 429.93117,102.71414 L 440.67952,85.970061 L 446.92165,87.487758 L 448.79488,107.30062 L 443.83862,106.09556 L 443.71006,102.60007 L 436.63149,100.879 L 434.88742,103.91918 L 429.93117,102.71414 z M 461.32597,104.48219 L 462.69493,100.78305 L 472.14159,104.27906 C 472.10501,104.40253 472.06198,104.5373 472.01252,104.68338 C 471.96299,104.82945 471.88622,105.04307 471.78219,105.32423 C 470.65846,108.36065 468.98541,110.41974 466.76305,111.50153 C 464.54065,112.58331 461.97551,112.58612 459.06761,111.50998 C 457.63776,110.98081 456.44608,110.29549 455.49258,109.454 C 454.53907,108.61252 453.78803,107.58794 453.23946,106.3803 C 452.71617,105.22767 452.43689,103.98954 452.4016,102.66588 C 452.36629,101.34223 452.58202,100.04983 453.04875,98.788659 C 453.53628,97.471277 454.20935,96.343562 455.06795,95.405507 C 455.92654,94.467477 456.96517,93.721637 458.18383,93.167987 C 459.38553,92.635493 460.64048,92.360145 461.94868,92.341945 C 463.25684,92.323775 464.57365,92.559938 465.89909,93.050434 C 467.62614,93.689598 469.02806,94.596568 470.10483,95.771347 C 471.18155,96.946149 471.92408,98.376267 472.33239,100.0617 L 467.4231,100.51901 C 467.17773,99.651911 466.80547,98.936481 466.30631,98.372718 C 465.80711,97.808971 465.17195,97.3844 464.40081,97.099002 C 462.9629,96.566883 461.65265,96.627683 460.47003,97.281404 C 459.28738,97.935143 458.38839,99.093409 457.77303,100.7562 C 457.15171,102.43508 457.07636,103.90959 457.54703,105.17972 C 458.01767,106.44987 458.97194,107.35101 460.40983,107.88313 C 461.63082,108.335 462.75972,108.41258 463.79655,108.11587 C 464.83333,107.81915 465.60434,107.19803 466.10954,106.25249 L 461.32597,104.48219 z M 471.21454,115.9534 L 479.60633,99.11973 L 489.92039,104.26141 L 488.0804,107.9524 L 482.2392,105.0405 L 480.78325,107.96109 L 486.29099,110.70677 L 484.4911,114.31727 L 478.98338,111.5716 L 477.56754,114.41169 L 483.40874,117.3236 L 481.5286,121.09508 L 471.21454,115.9534 z"
       id="text3998"
       inkscape:transform-center-x="-1.342245"
       inkscape:transform-center-y="-164.64379" />
    <path
       style="font-size:26.31263351px;font-style:normal;font-variant:normal;font-weight:bold;font-stretch:normal;text-align:center;line-height:125%;writing-mode:lr-tb;text-anchor:middle;fill:#002673;fill-opacity:1;stroke:none;stroke-width:1px;stroke-linecap:butt;stroke-linejoin:miter;stroke-opacity:1;font-family:Futura Md BT;-inkscape-font-specification:Futura Md BT Bold"
       d="M 350.20315,437.69663 L 355.12066,439.05111 L 354.92294,432.55998 C 354.91517,432.36241 354.91747,432.04764 354.92984,431.61571 C 354.94218,431.1838 354.95748,430.6283 354.97574,429.94922 C 354.74555,430.36558 354.52312,430.76186 354.30846,431.13805 C 354.09377,431.51426 353.88158,431.87337 353.6719,432.21539 L 350.20315,437.69663 z M 341.41274,442.56494 L 352.6629,426.15381 L 358.85623,427.8597 L 360.12901,447.72017 L 355.2115,446.36569 L 355.18878,442.86791 L 348.16553,440.93342 L 346.33025,443.91943 L 341.41274,442.56494 z M 364.8149,448.50611 L 367.90473,429.9522 L 372.96143,430.79431 L 370.5934,445.0139 L 376.87943,446.06073 L 376.15762,450.39504 L 364.8149,448.50611 z M 386.96453,444.34593 L 392.05603,444.65127 L 390.5166,438.34223 C 390.46803,438.15056 390.405,437.84216 390.32753,437.41704 C 390.25005,436.99196 390.14983,436.44536 390.02688,435.77726 C 389.88803,436.23231 389.75261,436.6661 389.62062,437.07862 C 389.48861,437.49117 389.3555,437.88648 389.22128,438.26455 L 386.96453,444.34593 z M 379.37468,450.93121 L 386.97727,432.54393 L 393.38974,432.9285 L 398.75314,452.09337 L 393.66164,451.78802 L 392.91411,448.37098 L 385.64239,447.93488 L 384.46618,451.23655 L 379.37468,450.93121 z M 404.03536,445.78723 C 404.83943,446.61366 405.62204,447.22246 406.38317,447.61364 C 407.14429,448.00483 407.89271,448.18225 408.62844,448.14589 C 409.31282,448.11208 409.86621,447.90036 410.28863,447.51073 C 410.71102,447.12111 410.90828,446.64398 410.88039,446.07935 C 410.84952,445.45485 410.6354,444.98305 410.23802,444.66393 C 409.84062,444.34483 408.9615,444.0388 407.60064,443.74586 C 405.73683,443.34056 404.40456,442.7589 403.60388,442.00091 C 402.80318,441.24294 402.3686,440.17101 402.30013,438.7851 C 402.21137,436.98859 402.73996,435.49388 403.88592,434.30095 C 405.03188,433.10807 406.563,432.46427 408.47929,432.36957 C 409.51442,432.31845 410.50297,432.40897 411.44491,432.64112 C 412.38685,432.87332 413.28668,433.25121 414.14441,433.77481 L 412.72233,437.53694 C 412.11607,437.06952 411.50087,436.72472 410.87674,436.50256 C 410.2526,436.28042 409.64111,436.18415 409.04226,436.21371 C 408.42631,436.24416 407.93314,436.41646 407.56276,436.73061 C 407.19237,437.04479 407.01859,437.43285 407.04142,437.8948 C 407.06465,438.36534 407.25221,438.7334 407.60409,438.999 C 407.95595,439.26463 408.62157,439.50188 409.60095,439.71075 C 409.66168,439.72491 409.73973,439.7425 409.83511,439.7635 C 411.95038,440.225 413.35409,440.77739 414.04621,441.42067 C 414.51387,441.86066 414.87917,442.3979 415.14207,443.03236 C 415.40494,443.66685 415.55584,444.37761 415.59474,445.16466 C 415.6932,447.15795 415.11791,448.79218 413.86883,450.06736 C 412.61973,451.34255 410.90445,452.03403 408.72295,452.14181 C 407.41405,452.20648 406.21181,452.04291 405.11619,451.65111 C 404.02057,451.25929 402.95312,450.61311 401.91385,449.71254 L 404.03536,445.78723 z M 421.70716,450.72055 L 418.73321,432.14772 L 423.74432,431.34532 L 425.09519,439.78175 L 429.61811,430.40479 L 435.51727,429.4602 L 430.10436,439.61724 L 439.08747,447.93755 L 432.76967,448.94918 L 425.38366,441.58321 L 426.71828,449.91815 L 421.70716,450.72055 z M 446.20919,438.71105 L 451.11433,437.31241 L 447.57173,431.86963 C 447.46239,431.70487 447.30077,431.43477 447.08684,431.05933 C 446.87291,430.68391 446.59727,430.20139 446.25992,429.61175 C 446.27966,430.08709 446.2956,430.54125 446.30772,430.9742 C 446.31984,431.40719 446.32521,431.82427 446.32383,432.22545 L 446.20919,438.71105 z M 441.22956,447.43889 L 442.31137,427.57129 L 448.48912,425.80978 L 459.89873,442.11558 L 454.99359,443.51423 L 453.15625,440.53779 L 446.15068,442.53535 L 446.1347,446.04024 L 441.22956,447.43889 z"
       id="text4010"
       inkscape:transform-center-y="172.32062"
       inkscape:transform-center-x="-2.2448496" />
  </g>
</svg>
