<?xml version="1.0" encoding="utf-8"?>
<!-- Generator: Adobe Illustrator 12.0.0, SVG Export Plug-In . SVG Version: 6.00 Build 51448)  -->
<!DOCTYPE svg PUBLIC "-//W3C//DTD SVG 1.1//EN" "http://www.w3.org/Graphics/SVG/1.1/DTD/svg11.dtd" [
	<!ENTITY ns_svg "http://www.w3.org/2000/svg">
	<!ENTITY ns_xlink "http://www.w3.org/1999/xlink">
]>
<svg  version="1.1" id="Layer_7" xmlns="&ns_svg;" xmlns:xlink="&ns_xlink;" width="600" height="400" viewBox="0 0 600 400"
	 overflow="visible" enable-background="new 0 0 600 400" xml:space="preserve">
<rect fill="#55BCFF" width="600" height="400"/>
<path fill="none" stroke="#1C5BA2" stroke-width="5.3812" d="M575.14,292.419c0,10.032-8.133,18.164-18.163,18.164H43.024
	c-10.032,0-18.164-8.132-18.164-18.164V114.823c0-10.031,8.131-18.164,18.164-18.164h513.953c10.03,0,18.163,8.132,18.163,18.164
	V292.419z"/>
<polygon fill="#1C5BA2" points="197.757,256.496 210.512,294.441 557.58,294.441 557.58,256.496 "/>
<g>
	<path fill="#1C5BA2" d="M214.462,185.697c0,5.443-0.364,9.254-1.091,11.432c-0.727,2.177-2,4.124-3.817,5.838
		c-1.852,1.749-4.307,3.209-7.363,4.381c-3.058,1.17-6.553,2.004-10.487,2.498c4.494-3.166,7.616-6.375,9.368-9.624
		c1.751-3.25,2.627-8.092,2.627-14.525V130.27c0-3.463-0.312-6.019-0.936-7.668c-0.624-1.648-1.657-3.117-3.101-4.403h18.834
		c-1.477,1.286-2.519,2.755-3.126,4.403c-0.607,1.649-0.91,4.206-0.91,7.668v55.427H214.462z"/>
	<path fill="#1C5BA2" d="M277.994,186.92v-5.27c-3.369,2.409-6.752,4.206-10.154,5.394c-3.401,1.188-6.867,1.782-10.4,1.782
		c-4.029,0-7.611-0.66-10.749-1.979c-3.137-1.319-5.844-3.298-8.122-5.937c-1.783-2.078-3.063-4.493-3.838-7.247
		c-0.776-2.754-1.165-6.456-1.165-11.106v-32.294c0-3.461-0.308-6.017-0.922-7.665s-1.653-3.116-3.113-4.401h18.834
		c-1.462,1.286-2.5,2.753-3.115,4.401s-0.921,4.204-0.921,7.665v30.167c0,4.714,0.231,8.209,0.694,10.484
		c0.462,2.275,1.239,4.088,2.33,5.439c1.322,1.616,3.082,2.829,5.28,3.636c2.199,0.808,4.835,1.211,7.909,1.211
		c2.512,0,4.859-0.371,7.041-1.112c2.182-0.741,4.098-1.822,5.752-3.24c1.454-1.187,2.495-2.728,3.123-4.624s0.942-4.475,0.942-7.74
		v-34.223c0-3.592-0.298-6.188-0.896-7.788c-0.597-1.6-1.625-3.025-3.083-4.279h18.834c-1.444,1.253-2.478,2.753-3.102,4.501
		c-0.624,1.747-0.935,4.269-0.935,7.565v44.459c0,3.471,0.311,6.041,0.935,7.71c0.624,1.669,1.657,3.165,3.102,4.486h-14.261V186.92
		z"/>
	<path fill="#1C5BA2" d="M369.592,118.198c-1.477,1.286-2.52,2.755-3.127,4.403c-0.604,1.649-0.909,4.206-0.909,7.668v58.22
		c-2.402-0.067-4.683-0.841-6.838-2.322c-2.156-1.482-4.862-4.299-8.121-8.45l-35.545-44.727v41.758
		c0,3.595,0.298,6.201,0.896,7.817c0.596,1.617,1.625,3.068,3.084,4.354h-15.584c1.444-1.319,2.478-2.811,3.102-4.477
		c0.623-1.666,0.936-4.23,0.936-7.693V130.27c0-3.463-0.313-6.019-0.936-7.668c-0.624-1.648-1.657-3.117-3.102-4.403h13.961
		l40.691,51.604V130.27c0-3.463-0.312-6.019-0.936-7.668c-0.623-1.648-1.657-3.117-3.101-4.403L369.592,118.198L369.592,118.198z"/>
	<path fill="#1C5BA2" d="M380.805,186.92c1.442-1.319,2.477-2.811,3.101-4.477c0.623-1.666,0.935-4.23,0.935-7.694v-44.497
		c0-3.458-0.312-6.01-0.935-7.657c-0.624-1.646-1.657-3.112-3.101-4.396h37.667v10.762c-1.687-1.317-3.538-2.273-5.555-2.866
		c-2.017-0.593-4.348-0.89-6.992-0.89c-1.355,0-2.877,0.108-4.563,0.321c-1.688,0.214-3.587,0.535-5.703,0.964v19.455h16.815v9.978
		c-0.793-0.923-1.862-1.574-3.216-1.953c-1.353-0.379-3.825-0.569-7.418-0.569h-6.183v24.602c2.608,0.395,4.972,0.69,7.087,0.887
		c2.114,0.198,3.948,0.296,5.501,0.296c3.503,0,6.808-0.468,9.913-1.404c3.104-0.937,6.161-2.374,9.17-4.313l-4.8,13.453h-41.725
		V186.92z"/>
	<path fill="#1C5BA2" d="M439.041,177.618c-0.297,0.693-0.52,1.411-0.668,2.153c-0.149,0.743-0.223,1.509-0.223,2.301
		c0,0.66,0.237,1.385,0.717,2.177c0.479,0.792,1.246,1.683,2.302,2.672h-16.255c1.354-0.923,2.568-2.193,3.642-3.81
		c1.075-1.616,2.173-3.826,3.297-6.63l19.371-49.035c0.396-0.923,0.693-1.83,0.893-2.72c0.198-0.89,0.298-1.682,0.298-2.374
		c0-0.791-0.191-1.516-0.571-2.175c-0.379-0.659-0.998-1.319-1.854-1.979h15.65l21.869,57.589c1.021,2.607,2.116,4.727,3.287,6.359
		c1.17,1.632,2.677,3.224,4.523,4.774h-19.676l0.246-0.247c1.813-1.913,2.722-3.315,2.722-4.206c0-1.056-0.396-2.606-1.188-4.652
		c-0.099-0.33-0.181-0.577-0.247-0.742l-5.892-15.883h-25.655L439.041,177.618z M448.352,154.297h20.308l-9.757-26.555
		L448.352,154.297z"/>
	<path fill="#1C5BA2" d="M543.318,186.92v-5.27c-3.367,2.409-6.752,4.206-10.152,5.394c-3.401,1.188-6.867,1.782-10.4,1.782
		c-4.028,0-7.61-0.66-10.749-1.979c-3.137-1.319-5.845-3.298-8.122-5.937c-1.781-2.078-3.063-4.493-3.839-7.247
		c-0.775-2.754-1.164-6.456-1.164-11.106v-32.294c0-3.461-0.307-6.017-0.922-7.665c-0.614-1.648-1.651-3.116-3.114-4.401h18.836
		c-1.463,1.286-2.5,2.753-3.115,4.401c-0.614,1.648-0.921,4.204-0.921,7.665v30.167c0,4.714,0.229,8.209,0.692,10.484
		s1.24,4.088,2.331,5.439c1.322,1.616,3.082,2.829,5.28,3.636c2.199,0.808,4.834,1.211,7.909,1.211c2.512,0,4.857-0.371,7.041-1.112
		c2.181-0.742,4.098-1.822,5.751-3.24c1.455-1.187,2.495-2.728,3.123-4.624c0.629-1.896,0.941-4.475,0.941-7.74v-34.223
		c0-3.592-0.299-6.188-0.896-7.788c-0.598-1.6-1.625-3.025-3.084-4.279h18.834c-1.443,1.253-2.478,2.753-3.103,4.501
		c-0.622,1.747-0.934,4.269-0.934,7.565v44.459c0,3.471,0.311,6.041,0.934,7.71c0.625,1.669,1.658,3.165,3.103,4.486h-14.261V186.92
		z"/>
</g>
<g>
	<path fill="#1C5BA2" d="M252.463,232.547c-0.085,0.199-0.149,0.405-0.192,0.619s-0.064,0.434-0.064,0.661
		c0,0.19,0.069,0.397,0.207,0.626c0.137,0.229,0.358,0.484,0.662,0.77h-4.653c0.389-0.266,0.735-0.631,1.043-1.097
		c0.308-0.464,0.622-1.101,0.943-1.905l5.544-14.072c0.113-0.266,0.198-0.526,0.255-0.781c0.057-0.256,0.085-0.483,0.085-0.684
		c0-0.227-0.054-0.436-0.163-0.623c-0.109-0.188-0.286-0.379-0.532-0.568h4.479l6.277,16.529c0.294,0.75,0.609,1.358,0.946,1.828
		c0.336,0.469,0.77,0.928,1.301,1.373h-5.661l0.071-0.07c0.521-0.551,0.782-0.954,0.782-1.211c0-0.303-0.114-0.748-0.342-1.338
		c-0.028-0.095-0.052-0.166-0.071-0.213l-1.688-4.567h-7.342L252.463,232.547z M255.131,225.861h5.812l-2.792-7.629L255.131,225.861
		z"/>
	<path fill="#1C5BA2" d="M269.033,235.223c0.421-0.381,0.722-0.809,0.905-1.287c0.182-0.479,0.272-1.215,0.272-2.211v-12.769
		c0-0.993-0.091-1.728-0.272-2.2c-0.183-0.474-0.483-0.896-0.905-1.265h5.438c-0.431,0.368-0.735,0.791-0.912,1.265
		c-0.177,0.473-0.266,1.207-0.266,2.2v13.71c0.767,0.113,1.454,0.199,2.06,0.257c0.606,0.056,1.132,0.085,1.578,0.085
		c0.994,0,1.941-0.136,2.842-0.406c0.9-0.271,1.776-0.687,2.629-1.246l-1.376,3.867H269.033L269.033,235.223z"/>
	<path fill="#1C5BA2" d="M285.502,232.547c-0.085,0.199-0.149,0.405-0.192,0.619s-0.064,0.434-0.064,0.661
		c0,0.19,0.068,0.397,0.206,0.626c0.138,0.229,0.358,0.484,0.662,0.77h-4.652c0.388-0.266,0.735-0.631,1.042-1.097
		c0.308-0.464,0.623-1.101,0.943-1.905l5.544-14.072c0.113-0.266,0.198-0.526,0.255-0.781c0.056-0.256,0.085-0.483,0.085-0.684
		c0-0.227-0.055-0.436-0.163-0.623c-0.108-0.188-0.286-0.379-0.531-0.568h4.479l6.277,16.529c0.293,0.75,0.609,1.358,0.946,1.828
		c0.336,0.469,0.771,0.928,1.302,1.373h-5.662l0.071-0.07c0.521-0.551,0.783-0.954,0.783-1.211c0-0.303-0.114-0.748-0.341-1.338
		c-0.029-0.095-0.052-0.166-0.071-0.213l-1.688-4.567h-7.342L285.502,232.547z M288.169,225.861h5.812l-2.792-7.629L288.169,225.861
		z"/>
	<path fill="#1C5BA2" d="M302.033,234.789l-0.938-3.575c1.145,0.767,2.256,1.336,3.334,1.71s2.146,0.561,3.205,0.561
		c1.354,0,2.44-0.291,3.264-0.873c0.821-0.582,1.234-1.338,1.234-2.266c0-0.265-0.044-0.529-0.128-0.795
		c-0.086-0.265-0.207-0.516-0.368-0.752c-0.358-0.54-1.564-1.313-3.618-2.316c-0.521-0.246-0.923-0.44-1.206-0.582
		c-1.92-0.967-3.236-1.857-3.951-2.672c-0.713-0.814-1.07-1.781-1.07-2.899c0-1.601,0.652-2.873,1.961-3.815
		c1.309-0.941,3.1-1.414,5.372-1.414c0.654,0,1.374,0.043,2.16,0.129c0.786,0.084,1.64,0.215,2.558,0.395v3.316
		c-0.813-0.621-1.632-1.084-2.455-1.391c-0.822-0.306-1.68-0.46-2.568-0.46c-1.126,0-2.032,0.243-2.719,0.728
		c-0.687,0.483-1.029,1.115-1.029,1.896c0,0.692,0.27,1.306,0.808,1.837s1.745,1.244,3.623,2.137
		c0.104,0.047,0.266,0.123,0.483,0.229c1.591,0.729,2.779,1.4,3.566,2.018c0.587,0.455,1.044,1.008,1.371,1.661
		c0.326,0.652,0.49,1.349,0.49,2.087c0,1.694-0.776,3.131-2.329,4.311s-3.495,1.768-5.823,1.768c-0.748,0-1.553-0.08-2.414-0.24
		C303.982,235.352,303.046,235.111,302.033,234.789z"/>
	<path fill="#1C5BA2" d="M322.232,231.729c0,0.994,0.09,1.729,0.267,2.209c0.177,0.478,0.479,0.906,0.911,1.285h-5.438
		c0.421-0.379,0.724-0.809,0.905-1.285c0.182-0.479,0.272-1.215,0.272-2.209v-12.771c0-0.994-0.092-1.729-0.272-2.201
		c-0.183-0.474-0.484-0.896-0.905-1.265h5.438c-0.432,0.368-0.734,0.791-0.911,1.265c-0.177,0.473-0.267,1.207-0.267,2.201V231.729z
		 M322.722,224.866l4.576-6.164c0.322-0.437,0.56-0.802,0.71-1.095c0.151-0.293,0.229-0.539,0.229-0.738
		c0-0.219-0.063-0.439-0.187-0.668s-0.307-0.465-0.553-0.71h4.938l-6.356,8.821l5.79,8.168c0.228,0.332,0.551,0.72,0.973,1.164
		c0.421,0.444,0.958,0.972,1.612,1.576h-1.663c-1.061,0-1.93-0.199-2.61-0.604c-0.683-0.401-1.477-1.258-2.385-2.563
		L322.722,224.866z"/>
	<path fill="#1C5BA2" d="M335.267,232.547c-0.086,0.199-0.149,0.405-0.191,0.619c-0.043,0.214-0.064,0.434-0.064,0.661
		c0,0.19,0.069,0.397,0.206,0.626c0.14,0.229,0.358,0.484,0.662,0.77h-4.652c0.389-0.266,0.736-0.631,1.043-1.097
		c0.309-0.464,0.622-1.101,0.943-1.905l5.544-14.072c0.113-0.266,0.198-0.526,0.255-0.781c0.057-0.256,0.085-0.483,0.085-0.684
		c0-0.227-0.055-0.436-0.162-0.623c-0.108-0.188-0.285-0.379-0.531-0.568h4.479l6.277,16.529c0.294,0.75,0.608,1.358,0.944,1.828
		c0.337,0.469,0.771,0.928,1.303,1.373h-5.661l0.07-0.07c0.521-0.551,0.782-0.954,0.782-1.211c0-0.303-0.113-0.748-0.342-1.338
		c-0.029-0.095-0.053-0.166-0.071-0.213l-1.688-4.567h-7.342L335.267,232.547z M337.934,225.861h5.813l-2.792-7.629L337.934,225.861
		z"/>
	<path fill="#1C5BA2" d="M350.438,218.434c-0.488-0.058-0.879-0.229-1.165-0.52c-0.288-0.288-0.432-0.653-0.432-1.1
		c0-0.51,0.165-0.941,0.498-1.295c0.331-0.355,0.73-0.533,1.196-0.533c0.504,0,0.916,0.188,1.239,0.568
		c0.321,0.377,0.483,0.873,0.483,1.487c0,0.597-0.18,1.222-0.538,1.879c-0.357,0.656-0.887,1.315-1.585,1.979l-1.295-0.113
		c0.46-0.521,0.811-0.963,1.05-1.327C350.132,219.098,350.313,218.754,350.438,218.434z"/>
	<path fill="#1C5BA2" d="M356.397,234.789l-0.938-3.575c1.146,0.767,2.257,1.336,3.335,1.71s2.146,0.561,3.205,0.561
		c1.353,0,2.44-0.291,3.263-0.873c0.823-0.582,1.234-1.338,1.234-2.266c0-0.265-0.042-0.529-0.127-0.795
		c-0.085-0.265-0.207-0.516-0.368-0.752c-0.359-0.54-1.565-1.313-3.618-2.316c-0.521-0.246-0.923-0.44-1.206-0.582
		c-1.92-0.967-3.237-1.857-3.951-2.672s-1.07-1.781-1.07-2.899c0-1.601,0.652-2.873,1.962-3.815
		c1.308-0.941,3.098-1.414,5.371-1.414c0.653,0,1.374,0.043,2.16,0.129c0.785,0.084,1.64,0.215,2.559,0.395v3.316
		c-0.813-0.621-1.633-1.084-2.455-1.391c-0.824-0.306-1.681-0.46-2.57-0.46c-1.126,0-2.031,0.243-2.718,0.728
		c-0.687,0.483-1.03,1.115-1.03,1.896c0,0.692,0.271,1.306,0.809,1.837s1.745,1.244,3.624,2.137
		c0.104,0.047,0.265,0.123,0.481,0.229c1.593,0.729,2.781,1.4,3.567,2.018c0.587,0.455,1.044,1.008,1.371,1.661
		c0.327,0.652,0.491,1.349,0.491,2.087c0,1.694-0.777,3.131-2.33,4.311c-1.554,1.18-3.494,1.768-5.823,1.768
		c-0.747,0-1.553-0.08-2.415-0.24C358.348,235.352,357.41,235.111,356.397,234.789z"/>
	<path fill="#1C5BA2" d="M397.758,231.271l-1.481,3.547c-0.929,0.304-1.799,0.531-2.612,0.683c-0.813,0.149-1.589,0.228-2.327,0.228
		c-1.098,0-2.167-0.144-3.207-0.427c-1.041-0.284-2.024-0.706-2.952-1.265c-1.477-0.88-2.626-2.089-3.449-3.622
		c-0.822-1.534-1.234-3.226-1.234-5.072c0-1.383,0.298-2.727,0.895-4.032c0.598-1.307,1.442-2.47,2.541-3.48
		c1.003-0.919,2.147-1.617,3.436-2.096c1.285-0.479,2.657-0.719,4.115-0.719c0.689,0,1.415,0.063,2.179,0.191
		c0.762,0.128,1.577,0.323,2.448,0.589v3.172c-0.891-0.477-1.729-0.829-2.524-1.059c-0.793-0.229-1.569-0.343-2.325-0.343
		c-2.202,0-3.968,0.682-5.296,2.047c-1.327,1.363-1.99,3.175-1.99,5.431c0,2.474,0.688,4.472,2.063,5.992
		c1.376,1.521,3.185,2.28,5.427,2.28c0.916,0,1.895-0.168,2.929-0.504C395.424,232.475,396.546,231.962,397.758,231.271z"/>
	<path fill="#1C5BA2" d="M401.415,232.547c-0.085,0.199-0.149,0.405-0.192,0.619s-0.063,0.434-0.063,0.661
		c0,0.19,0.069,0.397,0.207,0.626c0.137,0.229,0.357,0.484,0.662,0.77h-4.652c0.388-0.266,0.734-0.631,1.043-1.097
		c0.307-0.464,0.621-1.101,0.943-1.905l5.544-14.072c0.111-0.266,0.197-0.526,0.254-0.781c0.057-0.256,0.086-0.483,0.086-0.684
		c0-0.227-0.056-0.436-0.163-0.623c-0.109-0.188-0.286-0.379-0.532-0.568h4.479l6.276,16.529c0.294,0.75,0.609,1.358,0.945,1.828
		c0.337,0.469,0.771,0.928,1.303,1.373h-5.662l0.07-0.07c0.521-0.551,0.783-0.954,0.783-1.211c0-0.303-0.113-0.748-0.341-1.338
		c-0.029-0.095-0.054-0.166-0.071-0.213l-1.689-4.567h-7.342L401.415,232.547z M404.082,225.861h5.812l-2.79-7.629L404.082,225.861z
		"/>
	<path fill="#1C5BA2" d="M422.244,231.725c0,0.996,0.088,1.732,0.265,2.213c0.177,0.478,0.481,0.906,0.913,1.285h-5.438
		c0.421-0.379,0.722-0.809,0.902-1.285c0.183-0.479,0.273-1.217,0.273-2.213v-12.769c0-0.993-0.092-1.728-0.273-2.2
		c-0.182-0.474-0.481-0.896-0.902-1.265h7.084c2.147,0,3.858,0.489,5.132,1.47c1.271,0.979,1.91,2.283,1.91,3.911
		c0,1.601-0.583,2.894-1.747,3.877s-2.707,1.478-4.628,1.478c-0.322,0-0.669-0.02-1.043-0.058c-0.375-0.037-0.771-0.094-1.188-0.167
		c1.771-0.332,3.109-0.898,4.019-1.697c0.907-0.801,1.362-1.815,1.362-3.047c0-1.137-0.396-2.035-1.188-2.699
		c-0.792-0.662-1.867-0.992-3.224-0.992c-0.294,0-0.628,0.021-1.002,0.063c-0.375,0.043-0.784,0.107-1.229,0.191L422.244,231.725
		L422.244,231.725z"/>
	<path fill="#1C5BA2" d="M439.139,231.729c0,0.994,0.088,1.729,0.267,2.209c0.177,0.478,0.479,0.906,0.911,1.285h-5.438
		c0.432-0.379,0.735-0.809,0.912-1.285c0.177-0.479,0.266-1.215,0.266-2.209v-12.771c0-0.994-0.089-1.729-0.266-2.201
		c-0.177-0.474-0.48-0.896-0.912-1.265h5.438c-0.432,0.368-0.734,0.791-0.911,1.265c-0.179,0.473-0.267,1.207-0.267,2.201V231.729z"
		/>
	<path fill="#1C5BA2" d="M451.305,231.725c0,0.996,0.092,1.732,0.272,2.211c0.181,0.479,0.482,0.906,0.905,1.287h-5.438
		c0.43-0.381,0.734-0.809,0.911-1.287c0.177-0.478,0.265-1.215,0.265-2.211V217.65h-1.601c-1.093,0-1.979,0.084-2.657,0.252
		c-0.68,0.168-1.222,0.438-1.627,0.813l0.977-3.224h14.103l-0.921,3.167c-0.293-0.346-0.679-0.6-1.155-0.764
		c-0.476-0.164-1.08-0.246-1.807-0.246h-2.228L451.305,231.725L451.305,231.725z"/>
	<path fill="#1C5BA2" d="M459.811,232.547c-0.085,0.199-0.147,0.405-0.19,0.619s-0.063,0.434-0.063,0.661
		c0,0.19,0.067,0.397,0.206,0.626c0.138,0.229,0.357,0.484,0.662,0.77h-4.651c0.388-0.266,0.733-0.631,1.042-1.097
		c0.308-0.464,0.621-1.101,0.942-1.905l5.544-14.072c0.113-0.266,0.198-0.526,0.256-0.781c0.057-0.256,0.084-0.483,0.084-0.684
		c0-0.227-0.054-0.436-0.163-0.623c-0.107-0.188-0.285-0.379-0.531-0.568h4.479l6.276,16.529c0.294,0.75,0.609,1.358,0.947,1.828
		c0.336,0.469,0.77,0.928,1.301,1.373h-5.661l0.071-0.07c0.521-0.551,0.78-0.954,0.78-1.211c0-0.303-0.112-0.748-0.341-1.338
		c-0.027-0.095-0.052-0.166-0.07-0.213l-1.688-4.567h-7.343L459.811,232.547z M462.479,225.861h5.813l-2.793-7.629L462.479,225.861z
		"/>
	<path fill="#1C5BA2" d="M476.381,235.223c0.421-0.381,0.723-0.809,0.904-1.287c0.181-0.478,0.271-1.215,0.271-2.211v-12.769
		c0-0.993-0.091-1.728-0.271-2.2c-0.183-0.474-0.483-0.896-0.904-1.265h5.438c-0.431,0.368-0.734,0.791-0.911,1.265
		c-0.179,0.473-0.267,1.207-0.267,2.2v13.71c0.769,0.113,1.455,0.199,2.062,0.257c0.604,0.056,1.132,0.085,1.577,0.085
		c0.995,0,1.941-0.136,2.842-0.406s1.776-0.687,2.63-1.246l-1.377,3.867H476.381L476.381,235.223z"/>
	<path fill="#1C5BA2" d="M516.837,231.271l-1.481,3.547c-0.93,0.304-1.799,0.531-2.612,0.683c-0.813,0.149-1.589,0.228-2.327,0.228
		c-1.099,0-2.167-0.144-3.208-0.427c-1.04-0.284-2.024-0.706-2.951-1.265c-1.477-0.88-2.627-2.089-3.449-3.622
		c-0.823-1.534-1.234-3.226-1.234-5.072c0-1.383,0.298-2.727,0.895-4.032c0.595-1.308,1.442-2.47,2.54-3.48
		c1.004-0.919,2.148-1.617,3.437-2.096c1.284-0.479,2.656-0.719,4.113-0.719c0.691,0,1.417,0.063,2.181,0.191
		c0.761,0.128,1.577,0.323,2.447,0.589v3.172c-0.89-0.477-1.73-0.829-2.523-1.059c-0.795-0.229-1.569-0.343-2.325-0.343
		c-2.202,0-3.968,0.682-5.296,2.047c-1.327,1.363-1.991,3.175-1.991,5.431c0,2.474,0.688,4.472,2.064,5.992
		c1.375,1.521,3.185,2.28,5.427,2.28c0.916,0,1.895-0.168,2.929-0.504C514.502,232.475,515.625,231.962,516.837,231.271z"/>
	<path fill="#1C5BA2" d="M523.404,231.729c0,0.994,0.088,1.729,0.265,2.209c0.177,0.478,0.481,0.906,0.911,1.285h-5.436
		c0.43-0.379,0.732-0.809,0.909-1.285c0.178-0.479,0.267-1.215,0.267-2.209v-12.771c0-0.994-0.089-1.729-0.267-2.201
		c-0.177-0.474-0.479-0.896-0.909-1.265h5.436c-0.43,0.368-0.734,0.791-0.911,1.265c-0.177,0.473-0.265,1.207-0.265,2.201V231.729z"
		/>
	<path fill="#1C5BA2" d="M535.569,231.725c0,0.996,0.091,1.732,0.271,2.211c0.181,0.479,0.483,0.906,0.905,1.287h-5.438
		c0.432-0.381,0.734-0.809,0.911-1.287c0.178-0.479,0.268-1.215,0.268-2.211V217.65h-1.604c-1.093,0-1.979,0.084-2.657,0.252
		c-0.68,0.168-1.222,0.438-1.627,0.813l0.978-3.224h14.103l-0.922,3.167c-0.293-0.346-0.678-0.6-1.155-0.764
		c-0.477-0.164-1.078-0.246-1.807-0.246h-2.227L535.569,231.725L535.569,231.725z"/>
	<path fill="#1C5BA2" d="M550.826,231.729c0,0.994,0.09,1.729,0.271,2.209c0.183,0.478,0.483,0.906,0.905,1.285h-5.466
		c0.43-0.379,0.734-0.809,0.911-1.285c0.178-0.479,0.266-1.215,0.266-2.209v-5.441l-4.825-7.827
		c-0.367-0.587-0.767-1.123-1.194-1.61c-0.429-0.488-0.907-0.939-1.436-1.356h4.354l5.119,8.595l3.459-5.598
		c0.208-0.342,0.365-0.651,0.475-0.93c0.109-0.28,0.163-0.521,0.163-0.72c0-0.227-0.069-0.45-0.205-0.674
		c-0.137-0.224-0.347-0.446-0.63-0.675h4.586l-6.754,10.854V231.729L550.826,231.729z"/>
</g>
<g>
	<polygon fill="#55BCFF" points="74.645,176.568 119.466,66.208 133.403,59.052 178.602,191.259 68.24,195.026 	"/>
	<polygon fill="#019700" points="196.577,294.441 126.729,81.968 99.937,168.3 90.014,138.53 40.626,294.441 	"/>
</g>
<g>
	<g>
		<circle fill="#55BCFF" cx="558.552" cy="255.13" r="6.021"/>
		<circle fill="#55BCFF" cx="546.518" cy="255.13" r="6.021"/>
		<circle fill="#55BCFF" cx="534.484" cy="255.13" r="6.021"/>
		<circle fill="#55BCFF" cx="522.449" cy="255.13" r="6.021"/>
		<circle fill="#55BCFF" cx="510.415" cy="255.13" r="6.021"/>
		<circle fill="#55BCFF" cx="498.38" cy="255.13" r="6.021"/>
		<circle fill="#55BCFF" cx="197.529" cy="255.13" r="6.021"/>
		<circle fill="#55BCFF" cx="209.563" cy="255.13" r="6.021"/>
		<circle fill="#55BCFF" cx="221.597" cy="255.13" r="6.021"/>
		<circle fill="#55BCFF" cx="486.347" cy="255.13" r="6.021"/>
		<circle fill="#55BCFF" cx="474.313" cy="255.13" r="6.021"/>
		<circle fill="#55BCFF" cx="462.279" cy="255.13" r="6.021"/>
		<circle fill="#55BCFF" cx="450.245" cy="255.13" r="6.021"/>
		<circle fill="#55BCFF" cx="438.21" cy="255.13" r="6.021"/>
		<circle fill="#55BCFF" cx="426.177" cy="255.13" r="6.021"/>
		<circle fill="#55BCFF" cx="414.142" cy="255.13" r="6.021"/>
		<circle fill="#55BCFF" cx="402.108" cy="255.13" r="6.021"/>
		<circle fill="#55BCFF" cx="390.075" cy="255.13" r="6.021"/>
		<circle fill="#55BCFF" cx="378.042" cy="255.13" r="6.021"/>
		<circle fill="#55BCFF" cx="366.007" cy="255.13" r="6.021"/>
		<circle fill="#55BCFF" cx="353.972" cy="255.13" r="6.021"/>
		<circle fill="#55BCFF" cx="341.938" cy="255.13" r="6.021"/>
		<circle fill="#55BCFF" cx="329.904" cy="255.13" r="6.021"/>
		<circle fill="#55BCFF" cx="317.87" cy="255.13" r="6.021"/>
		<circle fill="#55BCFF" cx="305.836" cy="255.13" r="6.021"/>
		<circle fill="#55BCFF" cx="293.802" cy="255.13" r="6.021"/>
		<circle fill="#55BCFF" cx="281.768" cy="255.13" r="6.021"/>
		<circle fill="#55BCFF" cx="269.733" cy="255.13" r="6.021"/>
		<circle fill="#55BCFF" cx="257.699" cy="255.13" r="6.021"/>
		<circle fill="#55BCFF" cx="245.666" cy="255.13" r="6.021"/>
		<circle fill="#55BCFF" cx="233.631" cy="255.13" r="6.021"/>
	</g>
</g>
<polygon fill="#F6CC28" stroke="#1C5BA2" stroke-width="1.9989" points="227.473,234.549 241.11,224.585 224.207,224.585 
	218.994,208.689 213.782,224.585 196.879,224.585 210.515,234.549 205.172,250.848 218.994,240.745 232.817,250.848 "/>
</svg>
