<?xml version="1.0" encoding="UTF-8" standalone="no"?>
<!-- Created with Inkscape (http://www.inkscape.org/) -->
<svg
   xmlns:dc="http://purl.org/dc/elements/1.1/"
   xmlns:cc="http://creativecommons.org/ns#"
   xmlns:rdf="http://www.w3.org/1999/02/22-rdf-syntax-ns#"
   xmlns:svg="http://www.w3.org/2000/svg"
   xmlns="http://www.w3.org/2000/svg"
   xmlns:sodipodi="http://sodipodi.sourceforge.net/DTD/sodipodi-0.dtd"
   xmlns:inkscape="http://www.inkscape.org/namespaces/inkscape"
   width="800"
   height="531.92108"
   id="svg2"
   sodipodi:version="0.32"
   inkscape:version="0.46"
   version="1.0"
   sodipodi:docname="Flag of St. Louis, Missouri.svg"
   inkscape:output_extension="org.inkscape.output.svg.inkscape">
  <defs
     id="defs4">
    <inkscape:perspective
       sodipodi:type="inkscape:persp3d"
       inkscape:vp_x="0 : 526.18109 : 1"
       inkscape:vp_y="0 : 1000 : 0"
       inkscape:vp_z="744.09448 : 526.18109 : 1"
       inkscape:persp3d-origin="372.04724 : 350.78739 : 1"
       id="perspective10" />
    <inkscape:perspective
       id="perspective2464"
       inkscape:persp3d-origin="372.04724 : 350.78739 : 1"
       inkscape:vp_z="744.09448 : 526.18109 : 1"
       inkscape:vp_y="0 : 1000 : 0"
       inkscape:vp_x="0 : 526.18109 : 1"
       sodipodi:type="inkscape:persp3d" />
    <inkscape:perspective
       id="perspective3478"
       inkscape:persp3d-origin="372.04724 : 350.78739 : 1"
       inkscape:vp_z="744.09448 : 526.18109 : 1"
       inkscape:vp_y="0 : 1000 : 0"
       inkscape:vp_x="0 : 526.18109 : 1"
       sodipodi:type="inkscape:persp3d" />
  </defs>
  <sodipodi:namedview
     id="base"
     pagecolor="#ffffff"
     bordercolor="#666666"
     borderopacity="1.0"
     gridtolerance="10000"
     guidetolerance="10"
     objecttolerance="10"
     inkscape:pageopacity="0.0"
     inkscape:pageshadow="2"
     inkscape:zoom="0.5"
     inkscape:cx="491.42068"
     inkscape:cy="334.78166"
     inkscape:document-units="px"
     inkscape:current-layer="layer1"
     showgrid="false"
     width="800px"
     inkscape:window-width="1280"
     inkscape:window-height="952"
     inkscape:window-x="-4"
     inkscape:window-y="-4"
     inkscape:object-paths="false"
     inkscape:object-nodes="false"
     showguides="true"
     inkscape:guide-bbox="true">
    <inkscape:grid
       type="xygrid"
       id="grid2383"
       visible="true"
       enabled="true" />
  </sodipodi:namedview>
  <metadata
     id="metadata7">
    <rdf:RDF>
      <cc:Work
         rdf:about="">
        <dc:format>image/svg+xml</dc:format>
        <dc:type
           rdf:resource="http://purl.org/dc/dcmitype/StillImage" />
      </cc:Work>
    </rdf:RDF>
  </metadata>
  <g
     inkscape:label="Layer 1"
     inkscape:groupmode="layer"
     id="layer1"
     transform="translate(0,-28.12739)">
    <rect
       style="opacity:1;fill:#c70f2e;fill-opacity:1;stroke:none;stroke-width:1;stroke-linecap:butt;stroke-linejoin:miter;stroke-miterlimit:4;stroke-dasharray:none;stroke-opacity:1"
       id="rect3285"
       width="800"
       height="531.92108"
       x="0"
       y="28.12739" />
    <path
       style="fill:#ffffff;fill-rule:evenodd;stroke:none;stroke-width:1.01261246px;stroke-linecap:butt;stroke-linejoin:miter;stroke-opacity:1"
       d="M 408.625,226.89407 C 396.61468,226.89407 383.69627,235.89082 374.5,242.26907 C 365.30373,248.64732 352.41659,257.64407 340.40625,257.64407 C 333.22167,257.64407 325.71301,254.44202 318.875,250.48782 L 318.875,354.05032 C 325.71457,358.00606 333.21964,361.23782 340.40625,361.23782 C 352.41659,361.23782 365.30373,352.24107 374.5,345.86282 C 383.69627,339.48458 396.61467,330.48782 408.625,330.48782 C 420.63533,330.48781 433.52249,339.48457 442.71875,345.86282 C 451.91503,352.24108 464.80218,361.23782 476.8125,361.23782 C 488.82284,361.23782 501.74122,352.24107 510.9375,345.86282 C 520.13375,339.48458 533.02092,330.48782 545.03125,330.48782 C 557.04156,330.48781 569.95998,339.48457 579.15625,345.86282 C 588.35253,352.24108 601.23968,361.23782 613.25,361.23782 C 625.26032,361.23782 638.14796,352.24107 647.34375,345.86282 C 656.53951,339.48458 669.45842,330.48782 681.46875,330.48782 C 693.47909,330.48781 706.36624,339.48457 715.5625,345.86282 C 724.75876,352.24108 737.67717,361.23782 749.6875,361.23782 C 761.69784,361.23782 774.58498,352.24107 783.78125,345.86282 C 788.4346,342.6354 794.04839,338.73878 800,335.67532 L 800,232.08157 C 794.04839,235.14503 788.4346,239.04165 783.78125,242.26907 C 774.58497,248.64732 761.69782,257.64407 749.6875,257.64407 C 737.67719,257.64408 724.75878,248.64732 715.5625,242.26907 C 706.36622,235.89082 693.47908,226.89407 681.46875,226.89407 C 669.45843,226.89407 656.53954,235.89082 647.34375,242.26907 C 638.14793,248.64732 625.26034,257.64407 613.25,257.64407 C 601.23966,257.64408 588.35251,248.64732 579.15625,242.26907 C 569.96,235.89082 557.04158,226.89407 545.03125,226.89407 C 533.0209,226.89407 520.13376,235.89082 510.9375,242.26907 C 501.74121,248.64732 488.82283,257.64407 476.8125,257.64407 C 464.80219,257.64408 451.91502,248.64732 442.71875,242.26907 C 433.5225,235.89082 420.63532,226.89407 408.625,226.89407 z"
       id="path2403" />
    <path
       style="fill:#002673;fill-opacity:1;fill-rule:evenodd;stroke:none;stroke-width:1.01261246px;stroke-linecap:butt;stroke-linejoin:miter;stroke-opacity:1"
       d="M 408.625,261.42532 C 396.61467,261.42532 383.69627,270.42208 374.5,276.80032 C 365.30373,283.17856 352.41659,292.17532 340.40625,292.17532 C 333.22167,292.17532 325.71301,288.97327 318.875,285.01907 L 318.875,319.51907 C 325.71457,323.47481 333.21964,326.70658 340.40625,326.70657 C 352.41659,326.70657 365.30373,317.70981 374.5,311.33157 C 383.69627,304.95333 396.61468,295.95657 408.625,295.95657 C 420.63532,295.95657 433.5225,304.95332 442.71875,311.33157 C 451.91502,317.70982 464.80219,326.70658 476.8125,326.70657 C 488.82283,326.70657 501.74121,317.70981 510.9375,311.33157 C 520.13376,304.95333 533.0209,295.95657 545.03125,295.95657 C 557.04158,295.95657 569.96,304.95332 579.15625,311.33157 C 588.35251,317.70982 601.23966,326.70658 613.25,326.70657 C 625.26034,326.70657 638.14793,317.70981 647.34375,311.33157 C 656.53954,304.95333 669.45843,295.95657 681.46875,295.95657 C 693.47908,295.95657 706.36622,304.95332 715.5625,311.33157 C 724.75878,317.70982 737.67719,326.70658 749.6875,326.70657 C 761.69782,326.70657 774.58497,317.70981 783.78125,311.33157 C 788.4346,308.10415 794.04839,304.20753 800,301.14407 L 800,266.61282 C 794.04839,269.67628 788.4346,273.5729 783.78125,276.80032 C 774.58498,283.17856 761.69784,292.17532 749.6875,292.17532 C 737.67717,292.17532 724.75876,283.17857 715.5625,276.80032 C 706.36624,270.42207 693.47909,261.42531 681.46875,261.42532 C 669.45842,261.42532 656.53951,270.42208 647.34375,276.80032 C 638.14796,283.17856 625.26032,292.17532 613.25,292.17532 C 601.23968,292.17532 588.35253,283.17857 579.15625,276.80032 C 569.95998,270.42207 557.04156,261.42531 545.03125,261.42532 C 533.02092,261.42532 520.13375,270.42208 510.9375,276.80032 C 501.74122,283.17856 488.82284,292.17532 476.8125,292.17532 C 464.80218,292.17532 451.91503,283.17857 442.71875,276.80032 C 433.52249,270.42207 420.63533,261.42531 408.625,261.42532 z"
       id="path2424" />
    <path
       style="opacity:1;fill:#ffffff;fill-rule:evenodd;stroke:none;stroke-width:1.01261246px;stroke-linecap:butt;stroke-linejoin:miter;stroke-opacity:1"
       d="M 0,28.12739 L 0,29.18989 C 7.5604166,37.891688 10.166787,52.400212 12.0625,62.87739 C 14.055141,73.890237 16.788664,89.384804 25.28125,97.87739 C 33.773837,106.36997 49.268408,109.1035 60.28125,111.09614 C 71.294106,113.08879 86.788664,115.85355 95.28125,124.34614 C 103.77383,132.83872 106.50736,148.33329 108.5,159.34614 C 110.49263,170.35899 113.25742,185.85356 121.75,194.34614 C 130.24258,202.83872 145.73715,205.57225 156.75,207.56489 C 167.76286,209.55753 183.2574,212.3223 191.75,220.81489 C 200.24258,229.30748 202.97612,244.80205 204.96875,255.81489 C 205.78866,260.34635 206.7627,265.62976 208.1875,270.87739 L 285.03125,207.90864 C 285.0273,207.90004 285.03519,207.88599 285.03125,207.87739 C 281.33188,199.80832 279.58724,190.12816 278.21875,182.56489 C 276.22612,171.55205 273.46134,156.05747 264.96875,147.56489 C 256.47616,139.0723 241.01285,136.33878 230,134.34614 C 218.98716,132.3535 203.49259,129.58873 195,121.09614 C 186.50742,112.60356 183.74264,97.108982 181.75,86.09614 C 179.75736,75.083287 176.99258,59.588719 168.5,51.09614 C 160.0074,42.603553 144.54411,39.870039 133.53125,37.87739 C 124.1955,36.188204 111.65637,33.945251 102.875,28.12739 L 0,28.12739 z"
       id="path2431"
       sodipodi:nodetypes="ccsssssssssccsssssssscc" />
    <path
       style="opacity:1;fill:#002673;fill-opacity:1;fill-rule:evenodd;stroke:none;stroke-width:1.01261246px;stroke-linecap:butt;stroke-linejoin:miter;stroke-opacity:1"
       d="M 34.4375,28.12739 C 35.256937,31.765279 35.895311,35.301886 36.46875,38.47114 C 38.461391,49.483989 41.194913,64.947303 49.6875,73.43989 C 58.180086,81.932476 73.674655,84.697254 84.6875,86.68989 C 95.700349,88.682545 111.19491,91.4473 119.6875,99.93989 C 128.18008,108.43247 130.94484,123.92706 132.9375,134.93989 C 134.93013,145.95273 137.66366,161.41606 146.15625,169.90864 C 154.64884,178.40123 170.14341,181.166 181.15625,183.15864 C 192.16909,185.15129 207.66366,187.91605 216.15625,196.40864 C 224.64884,204.90122 227.4136,220.3958 229.40625,231.40864 C 230.41104,236.96187 231.6257,243.64419 233.65625,250.00239 L 259.25,229.00239 C 256.46817,221.68891 254.99993,213.53371 253.8125,206.97114 C 251.81987,195.95829 249.05509,180.49497 240.5625,172.00239 C 232.06991,163.50979 216.57535,160.74503 205.5625,158.75239 C 194.54966,156.75974 179.08634,153.99498 170.59375,145.50239 C 162.10118,137.00981 159.33639,121.51522 157.34375,110.50239 C 155.3511,99.48954 152.58632,84.026218 144.09375,75.53364 C 135.60116,67.041054 120.1066,64.276289 109.09375,62.28364 C 98.080911,60.290999 82.617587,57.526227 74.125,49.03364 C 68.907202,43.815842 65.855353,35.968089 63.8125,28.12739 L 34.4375,28.12739 z"
       id="path2433" />
    <path
       style="opacity:1;fill:#ffffff;fill-rule:evenodd;stroke:none;stroke-width:1.01261246px;stroke-linecap:butt;stroke-linejoin:miter;stroke-opacity:1"
       d="M 208,317.07972 C 206.50947,322.46749 205.52963,327.92482 204.6875,332.57972 C 202.6952,343.59223 199.9301,359.08713 191.4375,367.57972 C 182.94492,376.07229 167.45034,378.80583 156.4375,380.79847 C 145.42465,382.79112 129.93009,385.55589 121.4375,394.04847 C 112.94492,402.54107 110.21138,418.03563 108.21875,429.04847 C 106.2261,440.06135 103.46134,455.55588 94.96875,464.04847 C 86.476171,472.54106 70.981599,475.27458 59.96875,477.26722 C 48.955907,479.25987 33.461328,482.02464 24.96875,490.51722 C 16.476163,499.00981 13.742641,514.50437 11.75,525.51722 C 9.8812699,535.84526 7.3152997,550.06324 0,558.79847 L 0,560.04847 L 102.90625,560.04847 C 111.66928,554.39657 124.00372,552.18456 133.21875,550.51722 C 144.2316,548.52456 159.72617,545.7598 168.21875,537.26722 C 176.71133,528.77465 179.44485,513.28008 181.4375,502.26722 C 183.43013,491.25437 186.19491,475.79106 194.6875,467.29847 C 203.18009,458.80589 218.67465,456.04111 229.6875,454.04847 C 240.70035,452.05585 256.19492,449.29104 264.6875,440.79847 C 273.1801,432.30586 275.91395,416.81098 277.90625,405.79847 C 279.29768,398.10732 281.07587,388.26033 284.90625,380.11097 L 208,317.07972 z"
       id="path2449" />
    <path
       style="opacity:1;fill:#002673;fill-opacity:1;fill-rule:evenodd;stroke:none;stroke-width:1.01261246px;stroke-linecap:butt;stroke-linejoin:miter;stroke-opacity:1"
       d="M 233.46875,337.95472 C 231.35279,344.44158 230.12128,351.30627 229.09375,356.98597 C 227.10144,367.99848 224.33634,383.49337 215.84375,391.98597 C 207.35117,400.47855 191.85658,403.21208 180.84375,405.20472 C 169.8309,407.19736 154.36759,409.96213 145.875,418.45472 C 137.38242,426.94731 134.61764,442.44188 132.625,453.45472 C 130.63235,464.46757 127.86759,479.96213 119.375,488.45472 C 110.88242,496.94729 95.387845,499.68081 84.375,501.67347 C 73.362158,503.6661 57.89883,506.43088 49.40625,514.92347 C 40.913664,523.41605 38.148889,538.91062 36.15625,549.92347 C 35.594083,553.03042 34.952604,556.48596 34.15625,560.04847 L 63.5625,560.04847 C 65.605152,552.27168 68.637329,544.5049 73.8125,539.32972 C 82.305079,530.83714 97.799665,528.10361 108.8125,526.11097 C 119.82535,524.11833 135.28868,521.35351 143.78125,512.86097 C 152.27384,504.36838 155.0386,488.87383 157.03125,477.86097 C 159.0239,466.84814 161.78867,451.35355 170.28125,442.86097 C 178.77384,434.36839 194.26842,431.63486 205.28125,429.64222 C 216.29409,427.64958 231.75742,424.88481 240.25,416.39222 C 248.74259,407.89962 251.5077,392.40474 253.5,381.39222 C 254.70983,374.7049 256.20724,366.374 259.09375,358.95472 L 233.46875,337.95472 z"
       id="path2451" />
    <g
       id="g3531"
       transform="matrix(1.9651649,0,0,1.9651649,-225.16324,-1187.7117)"
       style="stroke:none">
      <path
         transform="matrix(0.9864865,0,0,0.9864865,4.9795935,8.7198484)"
         d="M 309.75919,755.51178 A 60.181786,60.181786 0 1 1 189.39562,755.51178 A 60.181786,60.181786 0 1 1 309.75919,755.51178 z"
         sodipodi:ry="60.181786"
         sodipodi:rx="60.181786"
         sodipodi:cy="755.51178"
         sodipodi:cx="249.57741"
         id="path3527"
         style="opacity:1;fill:#f5dc0f;fill-opacity:1;stroke:none;stroke-width:1;stroke-linecap:butt;stroke-linejoin:miter;stroke-miterlimit:4;stroke-dasharray:none;stroke-opacity:1"
         sodipodi:type="arc" />
      <path
         d="M 251.18434,772.25 L 229.93434,772.25 L 229.93434,777.25 L 251.18434,777.25 M 215.93434,769.5 C 214.46095,762.69783 217.52962,759.91148 220.18434,758.875 C 226.27582,756.49671 232.58109,760.67405 238.06507,767.96242 L 241.56507,767.96242 C 238.21649,752.10479 231.07894,743.85115 217.80934,743.875 C 210.90683,743.88741 203.03567,750.20369 203.18434,756.75 C 203.31957,762.70457 207.7272,769.54026 215.93434,769.5 z M 242.11581,781.48434 C 241.25084,786.09945 239.14336,788.87416 236.37057,791.80271 L 233.54214,789.32784 C 236.56093,786.12169 237.99924,784.35089 238.6717,781.48434 L 242.11581,781.48434 z M 251.18434,772.25 L 272.43434,772.25 L 272.43434,777.25 L 251.18434,777.25 M 253.30934,767.96242 C 253.76767,761.12909 255.63781,754.05332 258.80934,747.875 C 262.05447,741.55332 264.94976,738.16152 265.68434,730.875 C 266.6277,721.51757 259.29433,711.56394 251.18434,706.875 C 243.07435,711.56394 235.74098,721.51757 236.68434,730.875 C 237.41892,738.16152 240.31421,741.55332 243.55934,747.875 C 246.73087,754.05332 248.60101,761.12909 249.05934,767.96242 L 253.30934,767.96242 z M 286.43434,769.5 C 287.90773,762.69783 284.83906,759.91148 282.18434,758.875 C 276.09286,756.49671 269.78759,760.67405 264.30361,767.96242 L 260.80361,767.96242 C 264.15219,752.10479 271.28974,743.85115 284.55934,743.875 C 291.46185,743.88741 299.33301,750.20369 299.18434,756.75 C 299.04911,762.70457 294.64148,769.54026 286.43434,769.5 z M 260.25287,781.48434 C 261.11784,786.09945 263.22532,788.87416 265.99811,791.80271 L 268.82654,789.32784 C 265.80775,786.12169 264.36944,784.35089 263.69698,781.48434 L 260.25287,781.48434 z M 253.25342,781.48434 C 253.67152,786.48803 255.83304,790.83792 258.94287,794.83221 C 257.87388,798.37232 254.52911,801.53313 251.18434,802.79745 C 247.83957,801.53313 244.4948,798.37232 243.42581,794.83221 C 246.53564,790.83792 248.69716,786.48803 249.11526,781.48434 L 253.25342,781.48434 z"
         style="fill:#002673;fill-opacity:1;fill-rule:evenodd;stroke:none;stroke-width:1px;stroke-linecap:butt;stroke-linejoin:miter;stroke-opacity:1"
         id="path3486" />
    </g>
  </g>
</svg>
