<?xml version="1.0" encoding="utf-8"?>
<!-- Generator: Adobe Illustrator 13.0.0, SVG Export Plug-In . SVG Version: 6.00 Build 14948)  -->
<!DOCTYPE svg PUBLIC "-//W3C//DTD SVG 1.1//EN" "http://www.w3.org/Graphics/SVG/1.1/DTD/svg11.dtd">
<svg version="1.1" id="Layer_1" xmlns="http://www.w3.org/2000/svg" xmlns:xlink="http://www.w3.org/1999/xlink" x="0px" y="0px"
	 width="945.771px" height="630.847px" viewBox="-291.884 -90.579 945.771 630.847"
	 enable-background="new -291.884 -90.579 945.771 630.847" xml:space="preserve">
<g id="Credits">
	<text transform="matrix(1 0 0 1 122.3379 217.231)" font-family="'ArialMT'" font-size="8">created by: </text>
	<text transform="matrix(1 0 0 1 170.0908 217.231)" fill="#ED1C24" font-family="'Arial-BoldMT'" font-size="8">cecilomar</text>
	<text transform="matrix(1 0 0 1 211.9102 217.231)" font-family="'Arial-BoldMT'" font-size="8">design</text>
	<text transform="matrix(1 0 0 1 128.625 226.8315)" font-family="'ArialMT'" font-size="8">http://www.cecilomar.com/</text>
	<text transform="matrix(1 0 0 1 156.7349 236.4302)" font-family="'ArialMT'" font-size="8">no copyright</text>
</g>
<rect x="-291.384" y="-90.079" fill="#FFFFFF" stroke="#000000" width="944.771" height="629.847"/>
<g id="Escudo_San_Juan">
	<g>
		<g>
			<g>
				<g>
					<g>
						<g>
							<g>
								<g>
									<polygon fill="#B49F5C" stroke="#000000" points="152.794,37.459 153.48,43.224 146.62,44.066 145.908,38.305 
										128.928,40.796 145.859,112.843 171.764,109.614 169.089,35.874 									"/>
								</g>
								<line fill="none" stroke="#000000" x1="168.967" y1="41.76" x2="130.162" y2="46.554"/>
								<line fill="none" stroke="#000000" x1="169.639" y1="49.678" x2="131.998" y2="54.397"/>
								<line fill="none" stroke="#000000" x1="133.638" y1="61.053" x2="169.685" y2="56.492"/>
								<line fill="none" stroke="#000000" x1="170.53" y1="76.241" x2="138.168" y2="80.488"/>
								<line fill="none" stroke="#000000" x1="139.856" y1="87.38" x2="170.602" y2="83.272"/>
								<line fill="none" stroke="#000000" x1="170.889" y1="90.063" x2="141.361" y2="94.063"/>
								<line fill="none" stroke="#000000" x1="142.666" y1="99.07" x2="171.151" y2="95.172"/>
								<line fill="none" stroke="#000000" x1="171.301" y1="101.847" x2="144.146" y2="105.638"/>
							</g>
							<polygon fill="#445684" stroke="#000000" points="145.389,71.041 146.027,76.236 162.415,74.225 161.786,69.101 							"/>
						</g>
						<line fill="none" stroke="#000000" x1="156.682" y1="97.426" x2="157.481" y2="103.932"/>
						<line fill="none" stroke="#000000" x1="155.208" y1="85.421" x2="156.048" y2="92.264"/>
						<line fill="none" stroke="#000000" x1="151.902" y1="58.496" x2="153.155" y2="68.706"/>
						<line fill="none" stroke="#000000" x1="150.07" y1="43.574" x2="151.075" y2="51.764"/>
						<line fill="none" stroke="#000000" x1="146.9" y1="59.11" x2="146.251" y2="52.356"/>
						<line fill="none" stroke="#000000" x1="149.495" y1="86.122" x2="148.814" y2="79.032"/>
						<line fill="none" stroke="#000000" x1="150.63" y1="97.941" x2="150.132" y2="92.762"/>
						<line fill="none" stroke="#000000" x1="151.981" y1="112.009" x2="151.289" y2="104.803"/>
						<line fill="none" stroke="#000000" x1="165.372" y1="103.076" x2="166.524" y2="109.882"/>
						<line fill="none" stroke="#000000" x1="163.35" y1="91.139" x2="164.239" y2="96.385"/>
						<line fill="none" stroke="#000000" x1="161.026" y1="77.418" x2="162.216" y2="84.448"/>
						<line fill="none" stroke="#000000" x1="156.586" y1="51.202" x2="157.681" y2="57.667"/>
					</g>
					<g>
						<g>
							<g>
								<g>
									<polygon fill="#B49F5C" stroke="#000000" points="90.737,53.225 92.798,58.652 86.345,61.128 84.26,55.711 68.388,62.236 
										102.246,128.046 126.599,118.647 106.166,47.744 									"/>
								</g>
								<line fill="none" stroke="#000000" x1="107.47" y1="53.485" x2="70.978" y2="67.525"/>
								<line fill="none" stroke="#000000" x1="110.038" y1="61.005" x2="74.656" y2="74.69"/>
								<line fill="none" stroke="#000000" x1="77.858" y1="80.751" x2="111.732" y2="67.606"/>
								<line fill="none" stroke="#000000" x1="117.329" y1="86.564" x2="86.956" y2="98.514"/>
								<line fill="none" stroke="#000000" x1="90.261" y1="104.792" x2="119.099" y2="93.369"/>
								<line fill="none" stroke="#000000" x1="121.021" y1="99.889" x2="93.338" y2="110.914"/>
								<line fill="none" stroke="#000000" x1="95.815" y1="115.456" x2="122.51" y2="104.782"/>
								<line fill="none" stroke="#000000" x1="124.271" y1="111.222" x2="98.84" y2="121.47"/>
							</g>
							<polygon fill="#445684" stroke="#000000" points="91.677,87.6 93.552,92.487 108.966,86.571 107.117,81.751 							"/>
						</g>
						<line fill="none" stroke="#000000" x1="109.017" y1="110.469" x2="111.366" y2="116.589"/>
						<line fill="none" stroke="#000000" x1="104.682" y1="99.178" x2="107.154" y2="105.614"/>
						<line fill="none" stroke="#000000" x1="94.961" y1="73.853" x2="98.647" y2="83.456"/>
						<line fill="none" stroke="#000000" x1="89.574" y1="59.817" x2="92.53" y2="67.52"/>
						<line fill="none" stroke="#000000" x1="90.256" y1="75.659" x2="87.993" y2="69.262"/>
						<line fill="none" stroke="#000000" x1="99.308" y1="101.24" x2="96.933" y2="94.525"/>
						<line fill="none" stroke="#000000" x1="103.27" y1="112.434" x2="101.535" y2="107.528"/>
						<line fill="none" stroke="#000000" x1="107.984" y1="125.756" x2="105.569" y2="118.932"/>
						<line fill="none" stroke="#000000" x1="118.815" y1="113.85" x2="121.58" y2="120.174"/>
						<line fill="none" stroke="#000000" x1="113.965" y1="102.756" x2="116.097" y2="107.631"/>
						<line fill="none" stroke="#000000" x1="108.391" y1="90.005" x2="111.248" y2="96.538"/>
						<line fill="none" stroke="#000000" x1="97.742" y1="65.642" x2="100.369" y2="71.65"/>
					</g>
					<g>
						<g>
							<g>
								<g>
									<polygon fill="#B49F5C" stroke="#000000" points="279.391,54.291 277.293,59.703 270.84,57.226 272.915,51.805 
										256.754,46.033 237.879,117.595 262.268,126.905 294.525,60.541 									"/>
								</g>
								<line fill="none" stroke="#000000" x1="291.652" y1="65.681" x2="255.139" y2="51.696"/>
								<line fill="none" stroke="#000000" x1="288.529" y1="72.987" x2="253.079" y2="59.482"/>
								<line fill="none" stroke="#000000" x1="251.402" y1="66.129" x2="285.372" y2="79.026"/>
								<line fill="none" stroke="#000000" x1="276.844" y1="96.859" x2="246.277" y2="85.417"/>
								<line fill="none" stroke="#000000" x1="244.534" y1="92.294" x2="273.607" y2="103.102"/>
								<line fill="none" stroke="#000000" x1="270.672" y1="109.232" x2="242.725" y2="98.902"/>
								<line fill="none" stroke="#000000" x1="241.525" y1="103.935" x2="268.506" y2="113.866"/>
								<line fill="none" stroke="#000000" x1="265.504" y1="119.83" x2="239.75" y2="110.429"/>
							</g>
							<polygon fill="#445684" stroke="#000000" points="257.088,80.464 255.213,85.352 270.625,91.269 272.475,86.45 							"/>
						</g>
						<line fill="none" stroke="#000000" x1="254.672" y1="109.063" x2="252.325" y2="115.182"/>
						<line fill="none" stroke="#000000" x1="259.006" y1="97.771" x2="256.538" y2="104.208"/>
						<line fill="none" stroke="#000000" x1="268.729" y1="72.447" x2="265.042" y2="82.049"/>
						<line fill="none" stroke="#000000" x1="274.116" y1="58.411" x2="271.159" y2="66.114"/>
						<line fill="none" stroke="#000000" x1="264.023" y1="70.641" x2="266.622" y2="64.373"/>
						<line fill="none" stroke="#000000" x1="253.633" y1="95.708" x2="256.361" y2="89.129"/>
						<line fill="none" stroke="#000000" x1="249.086" y1="106.677" x2="251.079" y2="101.87"/>
						<line fill="none" stroke="#000000" x1="243.676" y1="119.732" x2="246.448" y2="113.045"/>
						<line fill="none" stroke="#000000" x1="259.691" y1="118.132" x2="257.514" y2="124.682"/>
						<line fill="none" stroke="#000000" x1="263.51" y1="106.642" x2="261.833" y2="111.692"/>
						<line fill="none" stroke="#000000" x1="267.9" y1="93.437" x2="265.652" y2="100.203"/>
						<line fill="none" stroke="#000000" x1="276.29" y1="68.205" x2="274.221" y2="74.428"/>
					</g>
					<g>
						<g>
							<g>
								<g>
									<polygon fill="#B49F5C" stroke="#000000" points="217.439,38.636 216.711,44.395 209.852,43.552 210.553,37.791 
										193.475,36.1 192.475,110.102 218.391,113.236 233.637,41.039 									"/>
								</g>
								<line fill="none" stroke="#000000" x1="232.092" y1="46.722" x2="193.279" y2="41.985"/>
								<line fill="none" stroke="#000000" x1="230.829" y1="54.566" x2="193.165" y2="50.04"/>
								<line fill="none" stroke="#000000" x1="193.145" y1="56.895" x2="229.225" y2="61.19"/>
								<line fill="none" stroke="#000000" x1="225.268" y1="80.557" x2="192.84" y2="76.848"/>
								<line fill="none" stroke="#000000" x1="192.811" y1="83.944" x2="223.635" y2="87.396"/>
								<line fill="none" stroke="#000000" x1="222.271" y1="94.055" x2="192.652" y2="90.793"/>
								<line fill="none" stroke="#000000" x1="192.708" y1="95.967" x2="221.29" y2="99.075"/>
								<line fill="none" stroke="#000000" x1="219.82" y1="105.587" x2="192.555" y2="102.697"/>
							</g>
							<polygon fill="#445684" stroke="#000000" points="202.131,69.428 201.493,74.624 217.881,76.637 218.51,71.513 							"/>
						</g>
						<line fill="none" stroke="#000000" x1="206.706" y1="97.761" x2="205.907" y2="104.268"/>
						<line fill="none" stroke="#000000" x1="208.178" y1="85.757" x2="207.34" y2="92.6"/>
						<line fill="none" stroke="#000000" x1="211.484" y1="58.832" x2="210.23" y2="69.042"/>
						<line fill="none" stroke="#000000" x1="213.318" y1="43.91" x2="212.313" y2="52.1"/>
						<line fill="none" stroke="#000000" x1="206.482" y1="58.218" x2="207.488" y2="51.508"/>
						<line fill="none" stroke="#000000" x1="202.465" y1="85.054" x2="203.521" y2="78.011"/>
						<line fill="none" stroke="#000000" x1="200.709" y1="96.798" x2="201.479" y2="91.652"/>
						<line fill="none" stroke="#000000" x1="198.616" y1="110.774" x2="199.688" y2="103.614"/>
						<line fill="none" stroke="#000000" x1="213.77" y1="105.346" x2="213.241" y2="112.229"/>
						<line fill="none" stroke="#000000" x1="214.695" y1="93.274" x2="214.29" y2="98.58"/>
						<line fill="none" stroke="#000000" x1="215.76" y1="79.398" x2="215.215" y2="86.508"/>
						<line fill="none" stroke="#000000" x1="217.795" y1="52.888" x2="217.293" y2="59.426"/>
					</g>
				</g>
				<g>
					<g>
						<g>
							<g>
								<polygon fill="#B49F5C" stroke="#000000" points="168.562,109.742 165.71,14.101 197.079,14.101 194.667,109.694 								
									"/>
								<polygon fill="#B49F5C" stroke="#000000" points="159.787,0.5 168.343,0.5 168.359,7.537 177.468,7.537 177.489,0.5 
									186.575,0.5 186.575,7.537 194.575,7.537 194.551,0.5 202.563,0.5 202.563,7.52 197.002,14.125 165.862,14.125 
									159.787,7.52 								"/>
								<line fill="none" stroke="#000000" x1="166.044" y1="21.345" x2="196.997" y2="21.345"/>
								<line fill="none" stroke="#000000" x1="196.764" y1="28.194" x2="166.09" y2="28.194"/>
								<line fill="none" stroke="#000000" x1="196.484" y1="35.765" x2="166.602" y2="35.765"/>
								<line fill="none" stroke="#000000" x1="196.484" y1="41.653" x2="166.415" y2="41.653"/>
								<line fill="none" stroke="#000000" x1="196.206" y1="49.705" x2="166.648" y2="49.705"/>
								<line fill="none" stroke="#000000" x1="166.927" y1="56.554" x2="196.066" y2="56.554"/>
								<line fill="none" stroke="#000000" x1="195.602" y1="76.502" x2="167.485" y2="76.502"/>
								<line fill="none" stroke="#000000" x1="167.764" y1="83.592" x2="195.323" y2="83.592"/>
								<line fill="none" stroke="#000000" x1="195.229" y1="90.442" x2="167.903" y2="90.442"/>
								<line fill="none" stroke="#000000" x1="168.182" y1="95.609" x2="195.09" y2="95.609"/>
								<line fill="none" stroke="#000000" x1="194.902" y1="102.339" x2="168.321" y2="102.339"/>
							</g>
							<path fill="#445684" stroke="#000000" d="M177.782,65.448h6.864l0.556-20.071c0,0-2.82-4.206-3.975-4.206
								c-1.155,0-4.077,4.206-4.077,4.206L177.782,65.448z"/>
							<g>
								<path fill="#445684" stroke="#000000" d="M169.304,29.521h6.866V21.43c0,0-2.266-3.237-3.422-3.237
									c-1.155,0-3.468,3.307-3.468,3.307L169.304,29.521z"/>
								<path fill="#445684" stroke="#000000" d="M186.204,29.521h6.864V21.43c0,0-2.266-3.237-3.42-3.237
									c-1.155,0-3.469,3.307-3.469,3.307L186.204,29.521z"/>
							</g>
							<path fill="#445684" stroke="#000000" d="M174.813,110.133h12.871l1.039-25.521c0,0-5.285-7.885-7.452-7.885
								c-2.166,0-7.644,7.885-7.644,7.885L174.813,110.133z"/>
						</g>
						<g>
							<line fill="none" stroke="#000000" x1="181.2" y1="21.537" x2="181.2" y2="14.19"/>
							<line fill="none" stroke="#000000" x1="181.2" y1="35.666" x2="181.2" y2="28.092"/>
							<line fill="none" stroke="#000000" x1="175.075" y1="67.646" x2="175.323" y2="76.583"/>
							<line fill="none" stroke="#000000" x1="174.192" y1="35.779" x2="174.349" y2="41.428"/>
							<line fill="none" stroke="#000000" x1="188.984" y1="41.657" x2="189.111" y2="35.892"/>
							<line fill="none" stroke="#000000" x1="188.208" y1="76.809" x2="188.402" y2="67.984"/>
						</g>
					</g>
					<g>
						<g>
							<g>
								<polygon fill="#B49F5C" stroke="#000000" points="217.131,112.967 237.502,19.477 267.939,27.066 242.473,119.236 								
									"/>
								<polygon fill="#B49F5C" stroke="#000000" points="235.045,4.848 243.348,6.917 241.661,13.749 250.499,15.953 252.223,9.13 
									261.038,11.328 259.336,18.156 267.098,20.091 268.777,13.258 276.551,15.196 274.852,22.007 267.859,27.072 
									237.645,19.538 233.348,11.659 								"/>
								<line fill="none" stroke="#000000" x1="236.075" y1="26.587" x2="266.105" y2="34.075"/>
								<line fill="none" stroke="#000000" x1="264.225" y1="40.665" x2="234.461" y2="33.244"/>
								<line fill="none" stroke="#000000" x1="262.122" y1="47.943" x2="233.127" y2="40.714"/>
								<line fill="none" stroke="#000000" x1="260.698" y1="53.656" x2="231.521" y2="46.382"/>
								<line fill="none" stroke="#000000" x1="258.479" y1="61.401" x2="229.799" y2="54.25"/>
								<line fill="none" stroke="#000000" x1="228.413" y1="60.964" x2="256.686" y2="68.014"/>
								<line fill="none" stroke="#000000" x1="251.411" y1="87.257" x2="224.129" y2="80.455"/>
								<line fill="none" stroke="#000000" x1="222.684" y1="87.401" x2="249.424" y2="94.068"/>
								<line fill="none" stroke="#000000" x1="247.676" y1="100.692" x2="221.163" y2="94.082"/>
								<line fill="none" stroke="#000000" x1="220.182" y1="99.163" x2="246.292" y2="105.672"/>
								<line fill="none" stroke="#000000" x1="244.482" y1="112.157" x2="218.689" y2="105.726"/>
							</g>
							<path fill="#445684" stroke="#000000" d="M236.793,72.22l6.662,1.661l5.393-19.341c0,0-1.719-4.763-2.84-5.042
								c-1.119-0.279-4.973,3.095-4.973,3.095L236.793,72.22z"/>
							<g>
								<path fill="#445684" stroke="#000000" d="M237.258,35.31l6.662,1.661l1.959-7.851c0,0-1.416-3.689-2.537-3.969
									c-1.121-0.279-4.166,2.37-4.166,2.37L237.258,35.31z"/>
								<path fill="#445684" stroke="#000000" d="M253.657,39.398l6.661,1.661l1.957-7.851c0,0-1.414-3.689-2.534-3.968
									c-1.121-0.28-4.166,2.369-4.166,2.369L253.657,39.398z"/>
							</g>
							<path fill="#445684" stroke="#000000" d="M223.104,114.859l12.488,3.114l7.182-24.512c0,0-3.221-8.929-5.321-9.454
								c-2.103-0.524-9.324,5.802-9.324,5.802L223.104,114.859z"/>
						</g>
						<g>
							<line fill="none" stroke="#000000" x1="250.732" y1="30.44" x2="252.51" y2="23.311"/>
							<line fill="none" stroke="#000000" x1="247.314" y1="44.149" x2="249.146" y2="36.801"/>
							<line fill="none" stroke="#000000" x1="233.635" y1="73.698" x2="231.715" y2="82.429"/>
							<line fill="none" stroke="#000000" x1="240.488" y1="42.563" x2="239.273" y2="48.083"/>
							<line fill="none" stroke="#000000" x1="253.418" y1="51.845" x2="254.938" y2="46.283"/>
							<line fill="none" stroke="#000000" x1="244.163" y1="85.766" x2="246.486" y2="77.25"/>
						</g>
					</g>
					<g>
						<g>
							<g>
								<polygon fill="#B49F5C" stroke="#000000" points="258.398,126.164 300.784,40.378 328.481,55.105 281.471,138.376 								
									"/>
								<polygon fill="#B49F5C" stroke="#000000" points="301.938,25.589 309.493,29.606 306.204,35.827 314.245,40.103 
									317.569,33.9 325.59,38.166 322.288,44.378 329.35,48.134 332.633,41.91 339.706,45.671 336.411,51.869 328.401,55.092 
									300.904,40.472 298.643,31.787 								"/>
								<line fill="none" stroke="#000000" x1="297.676" y1="46.932" x2="325.004" y2="61.462"/>
								<line fill="none" stroke="#000000" x1="321.584" y1="67.401" x2="294.502" y2="53.001"/>
								<line fill="none" stroke="#000000" x1="317.784" y1="73.955" x2="291.398" y2="59.926"/>
								<line fill="none" stroke="#000000" x1="315.02" y1="79.154" x2="288.469" y2="65.037"/>
								<line fill="none" stroke="#000000" x1="310.993" y1="86.131" x2="284.896" y2="72.255"/>
								<line fill="none" stroke="#000000" x1="281.926" y1="78.434" x2="307.655" y2="92.114"/>
								<line fill="none" stroke="#000000" x1="297.879" y1="109.51" x2="273.053" y2="96.31"/>
								<line fill="none" stroke="#000000" x1="269.971" y1="102.7" x2="294.305" y2="115.638"/>
								<line fill="none" stroke="#000000" x1="291.006" y1="121.642" x2="266.879" y2="108.814"/>
								<line fill="none" stroke="#000000" x1="264.698" y1="113.507" x2="288.458" y2="126.14"/>
								<line fill="none" stroke="#000000" x1="285.133" y1="131.994" x2="261.663" y2="119.514"/>
							</g>
							<path fill="#445684" stroke="#000000" d="M287.334,91.384l6.063,3.223l9.912-17.461c0,0-0.516-5.038-1.535-5.58
								s-5.573,1.8-5.573,1.8L287.334,91.384z"/>
							<g>
								<path fill="#445684" stroke="#000000" d="M296.715,55.682l6.063,3.223l3.8-7.145c0,0-0.479-3.922-1.5-4.465
									c-1.021-0.542-4.615,1.292-4.615,1.292L296.715,55.682z"/>
								<path fill="#445684" stroke="#000000" d="M311.637,63.616l6.063,3.223l3.799-7.145c0,0-0.48-3.921-1.5-4.464
									c-1.021-0.542-4.615,1.291-4.615,1.291L311.637,63.616z"/>
							</g>
							<path fill="#445684" stroke="#000000" d="M263.736,129.444l11.363,6.042l12.898-22.047c0,0-0.965-9.443-2.877-10.46
								s-10.451,3.374-10.451,3.374L263.736,129.444z"/>
						</g>
						<g>
							<line fill="none" stroke="#000000" x1="310.967" y1="54.217" x2="314.417" y2="47.729"/>
							<line fill="none" stroke="#000000" x1="304.334" y1="66.691" x2="307.891" y2="60.005"/>
							<line fill="none" stroke="#000000" x1="283.913" y1="92.054" x2="279.938" y2="100.061"/>
							<line fill="none" stroke="#000000" x1="298.094" y1="63.501" x2="295.581" y2="68.563"/>
							<line fill="none" stroke="#000000" x1="308.395" y1="75.636" x2="311.215" y2="70.606"/>
							<line fill="none" stroke="#000000" x1="291.208" y1="106.309" x2="295.521" y2="98.609"/>
						</g>
					</g>
					<g>
						<g>
							<g>
								<polygon fill="#B49F5C" stroke="#000000" points="124.419,118.645 98.515,26.534 128.952,18.945 149.737,112.283 								
									"/>
								<polygon fill="#B49F5C" stroke="#000000" points="89.478,14.771 97.779,12.701 99.498,19.524 108.335,17.321 
									106.654,10.488 115.47,8.29 117.172,15.118 124.934,13.183 123.209,6.36 130.982,4.422 132.681,11.233 128.884,18.988 
									98.668,26.521 91.176,21.582 								"/>
								<line fill="none" stroke="#000000" x1="100.591" y1="33.482" x2="130.624" y2="25.995"/>
								<line fill="none" stroke="#000000" x1="132.056" y1="32.697" x2="102.293" y2="40.118"/>
								<line fill="none" stroke="#000000" x1="133.616" y1="40.11" x2="104.621" y2="47.34"/>
								<line fill="none" stroke="#000000" x1="135.041" y1="45.824" x2="105.864" y2="53.098"/>
								<line fill="none" stroke="#000000" x1="136.717" y1="53.703" x2="108.039" y2="60.854"/>
								<line fill="none" stroke="#000000" x1="109.966" y1="67.433" x2="138.24" y2="60.383"/>
								<line fill="none" stroke="#000000" x1="142.615" y1="79.851" x2="115.334" y2="86.653"/>
								<line fill="none" stroke="#000000" x1="117.319" y1="93.465" x2="144.059" y2="86.798"/>
								<line fill="none" stroke="#000000" x1="145.625" y1="93.467" x2="119.112" y2="100.077"/>
								<line fill="none" stroke="#000000" x1="120.632" y1="105.024" x2="146.741" y2="98.514"/>
								<line fill="none" stroke="#000000" x1="148.188" y1="105.089" x2="122.396" y2="111.52"/>
							</g>
							<path fill="#445684" stroke="#000000" d="M122.65,73.436l6.662-1.661l-4.318-19.608c0,0-3.753-3.399-4.874-3.12
								c-1.121,0.279-2.938,5.067-2.938,5.067L122.65,73.436z"/>
							<g>
								<path fill="#445684" stroke="#000000" d="M105.732,40.628l6.662-1.661l-1.958-7.852c0,0-2.981-2.593-4.103-2.313
									c-1.121,0.28-2.565,4.047-2.565,4.047L105.732,40.628z"/>
								<path fill="#445684" stroke="#000000" d="M122.131,36.539l6.661-1.661l-1.958-7.852c0,0-2.981-2.592-4.103-2.313
									c-1.121,0.279-2.564,4.047-2.564,4.047L122.131,36.539z"/>
							</g>
							<path fill="#445684" stroke="#000000" d="M130.58,117.512l12.489-3.114l-5.167-25.015c0,0-7.036-6.373-9.137-5.849
								c-2.102,0.524-5.509,9.5-5.509,9.5L130.58,117.512z"/>
						</g>
						<g>
							<line fill="none" stroke="#000000" x1="115.344" y1="30.002" x2="113.566" y2="22.874"/>
							<line fill="none" stroke="#000000" x1="118.762" y1="43.711" x2="116.93" y2="36.363"/>
							<line fill="none" stroke="#000000" x1="120.556" y1="76.224" x2="122.958" y2="84.835"/>
							<line fill="none" stroke="#000000" x1="111.99" y1="45.517" x2="113.508" y2="50.96"/>
							<line fill="none" stroke="#000000" x1="127.764" y1="47.642" x2="126.494" y2="42.017"/>
							<line fill="none" stroke="#000000" x1="135.515" y1="81.938" x2="133.569" y2="73.327"/>
						</g>
					</g>
					<g>
						<g>
							<g>
								<polygon fill="#B49F5C" stroke="#000000" points="82.332,140.228 34.913,57.12 62.611,42.393 105.358,127.93 								"/>
								<polygon fill="#B49F5C" stroke="#000000" points="23.299,47.892 30.853,43.875 34.171,50.081 42.213,45.805 38.929,39.582 
									46.951,35.316 50.255,41.529 57.317,37.774 53.994,31.571 61.067,27.811 64.363,34.008 62.555,42.451 35.06,57.07 
									26.594,54.09 								"/>
								<line fill="none" stroke="#000000" x1="38.609" y1="63.359" x2="65.938" y2="48.829"/>
								<line fill="none" stroke="#000000" x1="68.949" y1="54.985" x2="41.866" y2="69.386"/>
								<line fill="none" stroke="#000000" x1="72.257" y1="61.801" x2="45.872" y2="75.831"/>
								<line fill="none" stroke="#000000" x1="75.021" y1="67" x2="48.471" y2="81.117"/>
								<line fill="none" stroke="#000000" x1="78.554" y1="74.24" x2="52.457" y2="88.116"/>
								<line fill="none" stroke="#000000" x1="55.918" y1="94.033" x2="81.647" y2="80.353"/>
								<line fill="none" stroke="#000000" x1="90.602" y1="98.185" x2="65.777" y2="111.384"/>
								<line fill="none" stroke="#000000" x1="69.351" y1="117.514" x2="93.684" y2="104.575"/>
								<line fill="none" stroke="#000000" x1="96.817" y1="110.667" x2="72.69" y2="123.496"/>
								<line fill="none" stroke="#000000" x1="75.362" y1="127.928" x2="99.121" y2="115.295"/>
								<line fill="none" stroke="#000000" x1="102.115" y1="121.324" x2="78.645" y2="133.804"/>
							</g>
							<path fill="#445684" stroke="#000000" d="M69.679,96.79l6.062-3.223l-8.934-17.981c0,0-4.464-2.39-5.484-1.848
								c-1.02,0.542-1.625,5.628-1.625,5.628L69.679,96.79z"/>
							<g>
								<path fill="#445684" stroke="#000000" d="M45.326,69.049l6.063-3.223l-3.799-7.145c0,0-3.52-1.794-4.541-1.251
									c-1.021,0.542-1.51,4.547-1.51,4.547L45.326,69.049z"/>
								<path fill="#445684" stroke="#000000" d="M60.249,61.114l6.062-3.223l-3.799-7.145c0,0-3.52-1.794-4.541-1.252
									c-1.02,0.542-1.509,4.547-1.509,4.547L60.249,61.114z"/>
							</g>
							<path fill="#445684" stroke="#000000" d="M88.036,137.638l11.365-6.042l-11.065-23.021c0,0-8.368-4.481-10.281-3.464
								c-1.913,1.017-3.047,10.551-3.047,10.551L88.036,137.638z"/>
						</g>
						<g>
							<line fill="none" stroke="#000000" x1="52.082" y1="56.414" x2="48.632" y2="49.927"/>
							<line fill="none" stroke="#000000" x1="58.714" y1="68.889" x2="55.159" y2="62.202"/>
							<line fill="none" stroke="#000000" x1="68.321" y1="100.002" x2="72.735" y2="107.776"/>
							<line fill="none" stroke="#000000" x1="52.581" y1="72.279" x2="55.371" y2="77.193"/>
							<line fill="none" stroke="#000000" x1="68.4" y1="70.524" x2="65.807" y2="65.375"/>
							<line fill="none" stroke="#000000" x1="84.218" y1="101.926" x2="80.247" y2="94.042"/>
						</g>
					</g>
				</g>
			</g>
			<g>
				<path fill="#B49F5C" stroke="#000000" d="M303.534,106.795c0,0-0.14-0.11-0.482-0.363l0,0c-0.344-0.252-0.866-0.632-1.567-1.119
					l0,0c-1.4-0.975-3.506-2.382-6.279-4.078l0,0c-5.547-3.393-13.764-7.939-24.361-12.489l0,0
					c-21.197-9.104-51.893-18.218-89.827-18.216l0,0c-71.102-0.013-114.468,32.062-119.327,35.845l0,0
					c-0.324,0.252-0.451,0.357-0.451,0.357l0,0c-1.493,1.228-3.698,1.013-4.926-0.48l0,0c-1.228-1.493-1.013-3.698,0.48-4.926l0,0
					c0.357-0.288,46.058-37.781,124.223-37.798l0,0c78.157,0.023,126.466,37.48,126.812,37.735l0,0
					c1.527,1.186,1.803,3.385,0.619,4.914l0,0c-0.689,0.888-1.723,1.354-2.768,1.354l0,0
					C304.928,107.53,304.172,107.291,303.534,106.795L303.534,106.795z"/>
				<path fill="#B49F5C" stroke="#000000" d="M281.5,143.929c0,0-0.113-0.09-0.395-0.297l0,0c-0.281-0.207-0.711-0.518-1.283-0.916
					l0,0c-1.146-0.798-2.869-1.949-5.139-3.336l0,0c-4.537-2.776-11.263-6.496-19.933-10.218l0,0
					c-17.344-7.449-42.457-14.906-73.495-14.904l0,0c-58.174-0.01-93.656,26.232-97.631,29.328l0,0
					c-0.265,0.207-0.369,0.292-0.369,0.292l0,0c-1.221,1.005-3.025,0.829-4.03-0.393l0,0c-1.004-1.222-0.829-3.026,0.393-4.03l0,0
					c0.292-0.236,37.684-30.912,101.638-30.926l0,0c63.946,0.019,103.472,30.666,103.757,30.874l0,0
					c1.248,0.971,1.476,2.77,0.504,4.021l0,0c-0.563,0.727-1.408,1.106-2.262,1.106l0,0
					C282.641,144.53,282.023,144.334,281.5,143.929L281.5,143.929z"/>
			</g>
		</g>
		<g>
			<g>
				<g>
					<path fill="#B49F5C" stroke="#000000" d="M69.818,372.166l9.46-10.553c0,0,4.973-3.518,13.342,4.852
						c8.369,8.371,5.458,12.492,5.458,12.492l-9.946,11.039l-8.611,1.818l-13.099-12.372L69.818,372.166z"/>
					<path fill="none" stroke="#000000" d="M76.476,373.905c0,0,2.05-0.485,2.924-2.71c1.334-3.396-3.517-6.429-0.121-9.582"/>
					<path fill="none" stroke="#000000" d="M82.713,382.783c0,0,1.097-1.873,4.935-2.734c2.535-0.567,5.215,4.125,10.431-1.092"/>
				</g>
				<g>
					<path fill="#B49F5C" stroke="#000000" d="M293.13,372.644l-9.528-10.553c0,0-5.009-3.518-13.438,4.853
						c-8.431,8.37-5.498,12.492-5.498,12.492l10.019,11.038l8.674,1.818l13.193-12.371L293.13,372.644z"/>
					<path fill="none" stroke="#000000" d="M286.425,374.384c0,0-2.065-0.486-2.944-2.711c-1.345-3.396,3.543-6.428,0.121-9.582"/>
					<path fill="none" stroke="#000000" d="M280.143,383.261c0,0-1.105-1.872-4.972-2.733c-2.553-0.567-5.252,4.124-10.506-1.092"/>
				</g>
				<path fill="#B49F5C" stroke="#000000" d="M82.713,382.783c0,0,33.345,41.02,99.555,41.02c66.209,0,97.875-40.54,97.875-40.54
					l17.99,23.271c0,0-44.857,43.658-115.387,43.658c-70.527,0-117.785-44.619-117.785-44.619L82.713,382.783z"/>
				<g>
					<path fill="#B49F5C" stroke="#000000" d="M8.695,156.03c0,0,25.914,5.265,41,28.333c14.083,21.534,17.886,60.989,5.333,60.667
						l-5.333-2.668l-15-11.667c0,0,7.667-38.667-33.333-50.667l16-8C17.362,172.03,13.362,160.697,8.695,156.03z"/>
					<path fill="#B49F5C" stroke="#000000" d="M53.029,235.697c0,0,2.218,0.563,3.434,2.557c1.411,2.313-0.129,6.25-1.434,6.777
						l-5.333-2.666L53.029,235.697z"/>
				</g>
				<g>
					<path fill="#B49F5C" stroke="#000000" d="M354.319,156.51c0,0-25.882,5.265-40.947,28.333
						c-14.063,21.534-17.863,60.989-5.326,60.667l5.326-2.666l14.979-11.668c0,0-7.655-38.667,33.291-50.667l-15.979-8
						C345.663,172.51,349.659,161.176,354.319,156.51z"/>
					<path fill="#B49F5C" stroke="#000000" d="M310.042,236.175c0,0-2.215,0.563-3.431,2.557c-1.408,2.314,0.131,6.251,1.434,6.777
						l5.326-2.666L310.042,236.175z"/>
				</g>
				<path fill="#B49F5C" stroke="#000000" d="M76.476,373.905l-20.391,19.431c0,0-27.39-18.639-37.39-75.971
					c-10-57.334,9.333-92,9.333-92l25,10.333c0,0-15.333,38.668-7.667,77.334C53.027,351.699,76.476,373.905,76.476,373.905z"/>
				<path fill="#B49F5C" stroke="#000000" d="M286.425,374.384l20.539,19.431c0,0,27.588-18.64,37.66-75.972
					c10.072-57.334-9.4-92-9.4-92l-25.182,10.333c0,0,15.444,38.668,7.723,77.334C310.042,352.177,286.425,374.384,286.425,374.384z
					"/>
			</g>
			<g>
				<g>
					<path d="M31.944,241.182l-0.328,0.217c-0.644-0.685-1.052-1.403-1.224-2.157c-0.172-0.756-0.138-1.484,0.101-2.189
						c0.402-1.186,1.17-1.981,2.305-2.389c1.135-0.406,2.33-0.396,3.585,0.027c1.211,0.412,2.166,1.096,2.866,2.055
						c0.845,1.155,1.036,2.418,0.572,3.787c-0.312,0.92-0.792,1.572-1.438,1.957s-1.255,0.48-1.826,0.287
						c-0.361-0.123-0.613-0.33-0.754-0.621c-0.142-0.291-0.152-0.615-0.032-0.971c0.127-0.374,0.356-0.641,0.686-0.801
						c0.33-0.161,0.822-0.161,1.475-0.006c0.412,0.099,0.722,0.102,0.93,0.011c0.208-0.093,0.345-0.237,0.412-0.435
						c0.103-0.305,0.029-0.619-0.222-0.943c-0.375-0.494-1.068-0.914-2.076-1.256c-0.837-0.283-1.683-0.422-2.536-0.416
						c-0.854,0.009-1.547,0.182-2.078,0.517c-0.391,0.256-0.667,0.622-0.828,1.099c-0.105,0.311-0.133,0.629-0.081,0.959
						C31.504,240.242,31.667,240.666,31.944,241.182z"/>
					<path d="M37.067,249.75c-0.208,0.791-0.605,1.473-1.192,2.043c-0.587,0.574-1.302,0.938-2.146,1.092
						c-0.844,0.156-1.713,0.115-2.606-0.119c-1.288-0.34-2.28-0.95-2.976-1.833c-0.84-1.065-1.077-2.295-0.711-3.687
						c0.36-1.367,1.116-2.291,2.269-2.777c1.152-0.485,2.36-0.563,3.622-0.229c1.302,0.344,2.337,1.018,3.105,2.025
						C37.202,247.275,37.413,248.437,37.067,249.75z M36.367,249.609c0.087-0.331,0.037-0.646-0.149-0.947
						c-0.187-0.304-0.638-0.588-1.353-0.855c-0.716-0.268-1.727-0.574-3.035-0.918c-0.693-0.184-1.352-0.309-1.978-0.375
						c-0.479-0.051-0.868,0.01-1.169,0.18c-0.301,0.17-0.491,0.403-0.569,0.701c-0.077,0.291-0.06,0.555,0.051,0.792
						c0.154,0.31,0.417,0.562,0.79,0.748c0.582,0.292,1.807,0.683,3.677,1.176c1.101,0.29,1.873,0.429,2.316,0.413
						c0.444-0.016,0.791-0.117,1.042-0.307C36.17,250.082,36.296,249.88,36.367,249.609z"/>
					<path d="M34.532,259.669l-1.196-0.217c0.428,0.568,0.72,1.09,0.875,1.566c0.155,0.477,0.188,0.965,0.098,1.466
						c-0.108,0.599-0.364,1.067-0.768,1.403c-0.404,0.334-0.865,0.523-1.383,0.566c-0.394,0.037-1.125-0.041-2.192-0.231
						l-3.597-0.649c-0.711-0.129-1.166-0.145-1.363-0.047c-0.198,0.098-0.357,0.346-0.477,0.745l-0.355-0.063l0.843-4.674
						l0.355,0.063c-0.017,0.357,0.083,0.635,0.299,0.83c0.146,0.135,0.545,0.262,1.197,0.379l4.111,0.74
						c0.757,0.139,1.24,0.195,1.449,0.172c0.208-0.025,0.379-0.098,0.514-0.219c0.134-0.123,0.217-0.271,0.247-0.441
						c0.103-0.566-0.208-1.166-0.93-1.801l-4.951-0.893c-0.692-0.125-1.142-0.141-1.349-0.045s-0.366,0.314-0.476,0.655
						l-0.355-0.065l0.843-4.673l0.355,0.063c-0.03,0.396,0.045,0.695,0.226,0.898c0.125,0.139,0.543,0.271,1.255,0.399l5.217,0.94
						c0.699,0.125,1.145,0.139,1.339,0.041c0.194-0.097,0.354-0.346,0.481-0.744l0.366,0.066L34.532,259.669z"/>
					<path d="M32.84,273.684l-3.201-0.188l0.036-0.34c0.988-0.307,1.679-0.658,2.071-1.059c0.393-0.398,0.612-0.814,0.658-1.248
						c0.029-0.271-0.038-0.516-0.201-0.729c-0.162-0.213-0.363-0.332-0.603-0.356c-0.179-0.019-0.36,0.028-0.541,0.146
						c-0.295,0.184-0.826,0.729-1.593,1.639c-0.767,0.908-1.397,1.492-1.893,1.752c-0.496,0.262-1.03,0.361-1.602,0.301
						c-0.52-0.057-1.015-0.24-1.486-0.553c-0.472-0.313-0.816-0.721-1.032-1.219c-0.216-0.502-0.294-1.039-0.233-1.611
						c0.047-0.446,0.25-1.027,0.61-1.743c0.094-0.19,0.145-0.324,0.153-0.397c0.022-0.22-0.124-0.42-0.441-0.603l0.035-0.329
						l3.372,0.195l-0.036,0.341c-0.91,0.206-1.613,0.547-2.108,1.022c-0.495,0.476-0.768,0.946-0.817,1.412
						c-0.034,0.32,0.037,0.594,0.211,0.815c0.175,0.226,0.402,0.353,0.682,0.381c0.319,0.033,0.606-0.036,0.86-0.212
						c0.254-0.176,0.654-0.583,1.201-1.227c0.813-0.943,1.423-1.545,1.828-1.805c0.593-0.382,1.218-0.537,1.877-0.467
						c0.719,0.075,1.343,0.393,1.873,0.95s0.745,1.307,0.646,2.245c-0.054,0.507-0.229,0.982-0.526,1.429
						c-0.118,0.169-0.185,0.31-0.195,0.424c-0.013,0.12,0.001,0.22,0.043,0.298s0.171,0.211,0.388,0.395L32.84,273.684z"/>
					<path d="M35.614,280.33l-3.43-0.166l-0.108,2.228l-0.993-0.05l0.108-2.227l-5.787-0.279c-0.542-0.026-0.892-0.019-1.052,0.023
						s-0.291,0.125-0.394,0.247c-0.104,0.122-0.158,0.237-0.163,0.345c-0.021,0.436,0.29,0.862,0.933,1.281l-0.235,0.291
						c-1.258-0.604-1.857-1.516-1.798-2.73c0.029-0.596,0.219-1.09,0.569-1.485c0.351-0.396,0.733-0.642,1.146-0.733
						c0.23-0.056,0.848-0.059,1.851-0.012l5.064,0.246l0.059-1.225l0.352,0.019c0.554,0.87,1.145,1.618,1.771,2.241
						s1.333,1.176,2.122,1.656L35.614,280.33z"/>
					<path d="M24.092,289.25c-1.03-1.127-1.552-2.146-1.566-3.058c-0.008-0.534,0.16-0.983,0.505-1.343
						c0.346-0.361,0.783-0.546,1.312-0.555c0.716-0.012,1.365,0.287,1.947,0.894c0.583,0.606,1.365,1.937,2.349,3.989l0.944-0.016
						c0.709-0.012,1.156-0.059,1.339-0.138c0.182-0.08,0.341-0.229,0.474-0.444c0.134-0.217,0.199-0.459,0.195-0.727
						c-0.007-0.436-0.11-0.791-0.309-1.068c-0.123-0.174-0.265-0.257-0.426-0.254c-0.141,0.002-0.313,0.098-0.518,0.289
						c-0.284,0.26-0.56,0.391-0.827,0.395c-0.328,0.006-0.61-0.112-0.845-0.354c-0.235-0.24-0.355-0.559-0.361-0.953
						c-0.007-0.422,0.114-0.777,0.364-1.064c0.25-0.289,0.546-0.436,0.887-0.441c0.482-0.008,0.945,0.176,1.39,0.551
						c0.445,0.375,0.79,0.901,1.035,1.58c0.245,0.678,0.374,1.385,0.386,2.123c0.014,0.891-0.165,1.598-0.534,2.122
						s-0.774,0.868-1.213,1.029c-0.279,0.099-0.925,0.153-1.936,0.172l-3.644,0.06c-0.429,0.006-0.698,0.026-0.808,0.063
						s-0.191,0.087-0.244,0.154c-0.053,0.068-0.078,0.146-0.077,0.231c0.003,0.175,0.129,0.351,0.38,0.525l-0.236,0.307
						c-0.5-0.327-0.866-0.668-1.096-1.022c-0.23-0.354-0.349-0.76-0.356-1.213c-0.008-0.537,0.11-0.957,0.357-1.263
						C23.207,289.517,23.585,289.328,24.092,289.25z M24.825,289.24l3.143-0.05c-0.489-0.803-1.007-1.397-1.556-1.782
						c-0.365-0.257-0.732-0.381-1.1-0.375c-0.309,0.004-0.578,0.12-0.808,0.346c-0.178,0.17-0.265,0.404-0.26,0.705
						C24.25,288.417,24.443,288.804,24.825,289.24z"/>
					<path d="M32.603,298.598l-1.209,0.112c0.565,0.432,0.987,0.855,1.265,1.273c0.278,0.417,0.441,0.879,0.489,1.387
						c0.058,0.605-0.063,1.125-0.362,1.558c-0.299,0.431-0.691,0.737-1.179,0.918c-0.37,0.144-1.095,0.265-2.174,0.366l-3.639,0.345
						c-0.72,0.067-1.162,0.176-1.327,0.321c-0.165,0.146-0.25,0.43-0.257,0.848l-0.36,0.033l-0.447-4.729l0.36-0.033
						c0.08,0.35,0.25,0.588,0.511,0.719c0.177,0.092,0.595,0.104,1.255,0.043l4.159-0.395c0.766-0.072,1.247-0.148,1.44-0.229
						c0.194-0.078,0.34-0.194,0.436-0.348c0.097-0.154,0.137-0.317,0.121-0.492c-0.054-0.571-0.515-1.066-1.381-1.481l-5.008,0.476
						c-0.699,0.063-1.137,0.172-1.312,0.318c-0.174,0.148-0.268,0.4-0.281,0.76l-0.36,0.032l-0.448-4.728l0.361-0.034
						c0.077,0.389,0.229,0.657,0.458,0.803c0.158,0.101,0.596,0.115,1.316,0.048l5.278-0.498c0.706-0.066,1.14-0.175,1.301-0.32
						c0.161-0.146,0.249-0.428,0.263-0.848l0.37-0.035L32.603,298.598z"/>
					<path d="M27.886,315.457l-0.187,0.348c-0.892-0.299-1.592-0.739-2.101-1.322c-0.509-0.583-0.825-1.24-0.948-1.975
						c-0.208-1.233,0.092-2.299,0.899-3.193c0.807-0.896,1.863-1.455,3.17-1.675c1.261-0.211,2.427-0.062,3.497,0.452
						c1.292,0.617,2.058,1.64,2.298,3.064c0.161,0.957,0.048,1.76-0.34,2.403c-0.387,0.646-0.877,1.019-1.472,1.118
						c-0.376,0.064-0.696,0-0.959-0.19c-0.262-0.188-0.425-0.47-0.487-0.84c-0.065-0.39,0.01-0.731,0.224-1.028
						c0.214-0.3,0.646-0.531,1.297-0.703c0.409-0.108,0.683-0.254,0.823-0.435c0.14-0.179,0.192-0.371,0.158-0.575
						c-0.053-0.318-0.267-0.56-0.642-0.728c-0.566-0.259-1.374-0.3-2.424-0.121c-0.871,0.146-1.681,0.424-2.43,0.836
						c-0.75,0.41-1.278,0.89-1.587,1.437c-0.223,0.412-0.292,0.863-0.209,1.359c0.054,0.323,0.182,0.617,0.382,0.883
						C27.051,314.835,27.396,315.13,27.886,315.457z"/>
					<path d="M36.032,320.089l-7.263,1.619c-0.646,0.145-1.043,0.312-1.189,0.502c-0.146,0.189-0.184,0.506-0.112,0.949l-0.353,0.08
						l-1.103-4.949l0.353-0.08c0.103,0.402,0.288,0.678,0.554,0.824c0.18,0.098,0.593,0.072,1.239-0.07l5.352-1.192
						c0.647-0.144,1.043-0.312,1.189-0.502s0.184-0.504,0.115-0.94l0.362-0.08L36.032,320.089z M40.167,317.729
						c0.094,0.426,0.026,0.817-0.206,1.179c-0.232,0.359-0.557,0.586-0.975,0.68c-0.419,0.094-0.808,0.023-1.168-0.207
						c-0.36-0.232-0.587-0.557-0.68-0.977c-0.093-0.418-0.026-0.808,0.203-1.166c0.229-0.359,0.552-0.586,0.971-0.68
						c0.418-0.094,0.808-0.025,1.171,0.201C39.846,316.99,40.074,317.312,40.167,317.729z"/>
					<path d="M30.333,329.978c-1.283-0.83-2.047-1.684-2.293-2.561c-0.145-0.516-0.096-0.99,0.146-1.428
						c0.243-0.438,0.618-0.727,1.128-0.869c0.689-0.192,1.393-0.07,2.111,0.367c0.717,0.438,1.813,1.525,3.287,3.26l0.909-0.254
						c0.684-0.191,1.104-0.351,1.259-0.475c0.157-0.123,0.272-0.307,0.346-0.551c0.075-0.243,0.076-0.493,0.003-0.752
						c-0.117-0.418-0.308-0.736-0.57-0.957c-0.163-0.135-0.322-0.18-0.477-0.137c-0.136,0.039-0.278,0.176-0.427,0.412
						c-0.209,0.322-0.441,0.521-0.7,0.592c-0.315,0.09-0.617,0.047-0.905-0.125c-0.289-0.174-0.486-0.451-0.593-0.83
						c-0.114-0.405-0.087-0.779,0.081-1.123s0.417-0.562,0.746-0.652c0.464-0.129,0.958-0.07,1.484,0.18
						c0.524,0.247,0.993,0.67,1.403,1.264c0.41,0.595,0.714,1.246,0.914,1.955c0.24,0.856,0.248,1.586,0.024,2.188
						s-0.527,1.036-0.912,1.305c-0.246,0.166-0.854,0.387-1.828,0.658l-3.509,0.984c-0.413,0.115-0.667,0.205-0.765,0.267
						c-0.097,0.062-0.163,0.134-0.196,0.212c-0.034,0.08-0.039,0.16-0.015,0.243c0.047,0.169,0.214,0.306,0.502,0.413l-0.151,0.355
						c-0.567-0.189-1.007-0.426-1.32-0.709c-0.313-0.285-0.531-0.646-0.653-1.084c-0.145-0.517-0.137-0.953,0.023-1.312
						C29.545,330.458,29.861,330.179,30.333,329.978z M31.038,329.78l3.027-0.85c-0.677-0.651-1.33-1.095-1.958-1.328
						c-0.418-0.153-0.805-0.181-1.16-0.081c-0.296,0.083-0.528,0.264-0.693,0.538c-0.129,0.21-0.153,0.461-0.071,0.75
						C30.273,329.132,30.558,329.457,31.038,329.78z"/>
					<path d="M36.077,346.837c-1.359-0.694-2.205-1.469-2.538-2.315c-0.196-0.498-0.194-0.978,0.003-1.437
						c0.197-0.457,0.542-0.782,1.035-0.978c0.667-0.262,1.378-0.21,2.136,0.153c0.758,0.365,1.958,1.337,3.598,2.914l0.878-0.346
						c0.66-0.259,1.063-0.457,1.206-0.597c0.144-0.14,0.24-0.334,0.289-0.583c0.049-0.249,0.025-0.499-0.073-0.748
						c-0.159-0.404-0.38-0.701-0.663-0.895c-0.176-0.117-0.339-0.146-0.488-0.09c-0.131,0.054-0.258,0.203-0.383,0.455
						c-0.175,0.34-0.387,0.562-0.636,0.658c-0.306,0.119-0.61,0.107-0.915-0.035c-0.305-0.142-0.529-0.397-0.673-0.767
						c-0.154-0.394-0.165-0.769-0.032-1.125c0.133-0.358,0.358-0.599,0.676-0.724c0.449-0.178,0.946-0.168,1.494,0.027
						c0.547,0.194,1.055,0.567,1.523,1.118c0.467,0.55,0.835,1.167,1.104,1.853c0.325,0.83,0.407,1.555,0.244,2.176
						c-0.162,0.621-0.421,1.084-0.777,1.389c-0.228,0.189-0.812,0.471-1.752,0.84l-3.393,1.332
						c-0.399,0.154-0.644,0.271-0.734,0.342c-0.091,0.07-0.148,0.146-0.174,0.229c-0.026,0.082-0.022,0.163,0.01,0.245
						c0.063,0.161,0.243,0.28,0.54,0.358l-0.114,0.369c-0.584-0.132-1.045-0.322-1.385-0.574c-0.339-0.252-0.592-0.588-0.759-1.012
						c-0.196-0.5-0.231-0.934-0.108-1.307C35.342,347.397,35.628,347.085,36.077,346.837z M36.76,346.571l2.926-1.147
						c-0.738-0.58-1.432-0.957-2.082-1.125c-0.432-0.11-0.819-0.1-1.162,0.035c-0.286,0.111-0.499,0.313-0.636,0.605
						c-0.107,0.221-0.105,0.473,0.005,0.753C35.933,346.003,36.25,346.296,36.76,346.571z"/>
					<path d="M47.247,352.694l-1.109,0.542c0.731,0.217,1.294,0.475,1.688,0.77s0.706,0.678,0.935,1.146
						c0.264,0.541,0.359,1.057,0.285,1.547c-0.073,0.49-0.32,0.963-0.741,1.413c0.776,0.218,1.393,0.487,1.849,0.812
						c0.456,0.326,0.802,0.729,1.037,1.209c0.285,0.586,0.378,1.115,0.278,1.592c-0.098,0.477-0.321,0.883-0.667,1.22
						c-0.346,0.337-0.97,0.726-1.873,1.166l-3.456,1.687c-0.65,0.316-1.025,0.572-1.123,0.767c-0.1,0.192-0.082,0.487,0.052,0.886
						l-0.325,0.158l-2.128-4.359l0.326-0.158c0.197,0.328,0.453,0.518,0.767,0.564c0.215,0.029,0.615-0.099,1.198-0.383l3.628-1.771
						c0.752-0.367,1.215-0.631,1.391-0.791c0.175-0.16,0.281-0.33,0.317-0.506c0.037-0.179,0.012-0.354-0.073-0.529
						c-0.126-0.26-0.349-0.475-0.668-0.646c-0.318-0.172-0.733-0.3-1.245-0.387l-4.529,2.211c-0.608,0.297-0.965,0.533-1.072,0.714
						c-0.155,0.246-0.149,0.571,0.018,0.976l-0.325,0.157l-2.131-4.366l0.325-0.158c0.126,0.229,0.275,0.384,0.447,0.468
						c0.172,0.084,0.342,0.112,0.511,0.087c0.169-0.027,0.501-0.162,0.994-0.402l3.628-1.771c0.764-0.372,1.228-0.636,1.391-0.79
						c0.163-0.154,0.264-0.328,0.303-0.523c0.039-0.193,0.02-0.371-0.06-0.533c-0.117-0.242-0.288-0.431-0.511-0.566
						c-0.325-0.191-0.791-0.338-1.397-0.436l-4.53,2.211c-0.596,0.289-0.96,0.539-1.091,0.75c-0.133,0.211-0.125,0.51,0.021,0.9
						l-0.325,0.158l-2.123-4.35l0.325-0.158c0.209,0.336,0.447,0.533,0.712,0.591c0.183,0.036,0.599-0.103,1.249-0.419l4.765-2.326
						c0.637-0.311,1.006-0.563,1.105-0.758c0.1-0.192,0.082-0.488-0.052-0.885l0.334-0.164L47.247,352.694z"/>
					<path d="M55.969,368.645c0.416,0.704,0.621,1.466,0.615,2.285s-0.25,1.583-0.733,2.293c-0.482,0.709-1.122,1.299-1.917,1.771
						c-1.147,0.676-2.279,0.952-3.395,0.827c-1.349-0.153-2.39-0.849-3.122-2.088c-0.719-1.216-0.845-2.403-0.38-3.563
						c0.464-1.162,1.26-2.074,2.383-2.738c1.159-0.684,2.367-0.946,3.625-0.782C54.303,366.81,55.278,367.475,55.969,368.645z
						 M55.376,369.042c-0.173-0.295-0.434-0.479-0.78-0.561c-0.346-0.08-0.866,0.042-1.559,0.361
						c-0.694,0.32-1.622,0.824-2.787,1.512c-0.617,0.365-1.169,0.746-1.657,1.145c-0.373,0.306-0.604,0.623-0.694,0.957
						c-0.091,0.334-0.058,0.633,0.099,0.896c0.153,0.261,0.353,0.436,0.599,0.521c0.328,0.108,0.691,0.098,1.087-0.035
						c0.616-0.209,1.756-0.805,3.422-1.789c0.98-0.578,1.62-1.031,1.922-1.356c0.301-0.325,0.472-0.646,0.514-0.957
						C55.574,369.516,55.52,369.285,55.376,369.042z"/>
					<path d="M61.3,377.591l-1.762,1.195c1.153-0.029,1.993,0.061,2.519,0.269c0.526,0.21,0.913,0.495,1.156,0.854
						c0.211,0.31,0.284,0.623,0.219,0.938c-0.065,0.313-0.272,0.59-0.621,0.827c-0.371,0.252-0.72,0.357-1.047,0.316
						c-0.327-0.041-0.578-0.188-0.75-0.443c-0.2-0.293-0.278-0.611-0.237-0.957c0.042-0.344,0.061-0.543,0.057-0.596
						c-0.004-0.078-0.031-0.154-0.081-0.226c-0.109-0.161-0.273-0.271-0.493-0.332c-0.342-0.101-0.728-0.09-1.156,0.031
						c-0.657,0.188-1.31,0.502-1.958,0.94l-1.787,1.213l-0.459,0.328c-0.315,0.213-0.505,0.369-0.567,0.469
						c-0.104,0.168-0.147,0.342-0.127,0.518c0.019,0.178,0.125,0.428,0.319,0.749l-0.299,0.203l-2.848-4.196l0.299-0.203
						c0.257,0.319,0.504,0.485,0.743,0.497c0.239,0.013,0.696-0.212,1.372-0.67l4.295-2.916c0.443-0.301,0.71-0.515,0.802-0.644
						c0.117-0.159,0.176-0.317,0.177-0.471c0-0.154-0.076-0.375-0.229-0.66l0.307-0.207L61.3,377.591z"/>
				</g>
				<g>
					<path d="M75.931,405.998l1.805-7.371c0.275-1.113,0.399-1.83,0.372-2.153s-0.135-0.615-0.323-0.877l0.226-0.296l3.968,3.025
						l-0.225,0.295c-0.269-0.189-0.491-0.277-0.667-0.27c-0.176,0.01-0.312,0.078-0.409,0.205c-0.154,0.203-0.326,0.703-0.514,1.502
						l-0.949,3.896l2.592-1.596c0.926-0.564,1.509-1.006,1.749-1.318c0.15-0.197,0.204-0.404,0.163-0.621
						c-0.041-0.215-0.223-0.455-0.544-0.717l0.225-0.295l2.499,1.902l-0.225,0.297c-0.265-0.16-0.537-0.219-0.815-0.174
						c-0.278,0.045-0.957,0.4-2.037,1.066l-6.349,3.908c-1.592,0.975-2.641,1.521-3.145,1.643c-0.708,0.168-1.339,0.041-1.893-0.381
						c-0.442-0.338-0.704-0.736-0.785-1.197c-0.082-0.463,0.014-0.871,0.286-1.229c0.235-0.311,0.524-0.492,0.868-0.551
						c0.343-0.059,0.653,0.018,0.93,0.229c0.266,0.203,0.416,0.451,0.448,0.746c0.032,0.295-0.084,0.621-0.351,0.982
						c-0.149,0.205-0.224,0.354-0.226,0.445c-0.002,0.09,0.037,0.166,0.117,0.229c0.128,0.098,0.322,0.123,0.583,0.078
						c0.383-0.063,1.023-0.383,1.919-0.961L75.931,405.998z"/>
					<path d="M94.806,408.339l-3.483,5.506c-0.336,0.531-0.491,0.9-0.464,1.107c0.049,0.324,0.321,0.631,0.819,0.922l-0.193,0.305
						l-4.674-2.957l0.193-0.305c0.36,0.219,0.639,0.338,0.837,0.357c0.198,0.018,0.368-0.023,0.511-0.123
						c0.143-0.102,0.35-0.365,0.622-0.795l3.484-5.506l-1.154-0.729l0.526-0.832l1.154,0.729l0.371-0.586l0.244-0.402
						c0.515-0.814,1.243-1.305,2.183-1.471c0.94-0.166,1.919,0.074,2.938,0.719c0.696,0.439,1.129,0.896,1.301,1.369
						c0.172,0.475,0.158,0.867-0.042,1.186c-0.161,0.254-0.405,0.408-0.733,0.463c-0.327,0.055-0.664-0.027-1.008-0.246
						c-0.294-0.186-0.479-0.41-0.555-0.672c-0.076-0.262-0.055-0.486,0.063-0.672c0.032-0.051,0.115-0.146,0.25-0.281
						c0.083-0.082,0.152-0.166,0.206-0.25c0.075-0.119,0.097-0.229,0.064-0.328c-0.037-0.143-0.12-0.254-0.25-0.336
						c-0.164-0.104-0.344-0.123-0.541-0.057c-0.196,0.064-0.389,0.248-0.579,0.547l-0.922,1.496l-0.639,1.01l1.17,0.74l-0.526,0.832
						L94.806,408.339z"/>
					<path d="M101.382,411.119l-3.742,6.43c-0.333,0.572-0.479,0.977-0.439,1.213s0.248,0.479,0.622,0.729l-0.182,0.313
						l-4.382-2.551l0.182-0.313c0.365,0.197,0.692,0.248,0.98,0.152c0.193-0.064,0.456-0.385,0.79-0.957l2.757-4.736
						c0.333-0.574,0.479-0.979,0.439-1.215c-0.04-0.236-0.245-0.479-0.613-0.723l0.187-0.322L101.382,411.119z M102.455,406.48
						c0.376,0.219,0.618,0.535,0.725,0.949c0.107,0.416,0.053,0.809-0.163,1.18c-0.216,0.369-0.53,0.607-0.945,0.715
						c-0.415,0.107-0.807,0.053-1.177-0.162s-0.609-0.529-0.718-0.941c-0.109-0.412-0.056-0.803,0.16-1.172
						c0.216-0.371,0.53-0.611,0.943-0.723C101.693,406.212,102.085,406.265,102.455,406.48z"/>
					<path d="M113.626,412.876l-4.978,9.588c-0.336,0.646-0.517,1.039-0.543,1.178c-0.054,0.221-0.04,0.412,0.045,0.576
						c0.084,0.166,0.287,0.346,0.607,0.541l-0.153,0.295l-3.875-1.141l0.685-1.318c-0.687,0.291-1.243,0.443-1.668,0.457
						c-0.425,0.014-0.846-0.09-1.262-0.305c-1.063-0.553-1.657-1.465-1.781-2.734c-0.098-1.031,0.145-2.107,0.727-3.23
						c0.466-0.896,1.037-1.619,1.715-2.17c0.677-0.549,1.379-0.865,2.104-0.949c0.725-0.082,1.397,0.035,2.015,0.355
						c0.398,0.207,0.711,0.469,0.94,0.783s0.418,0.756,0.568,1.324l1.304-2.514c0.33-0.637,0.502-1.031,0.517-1.189
						c0.018-0.211-0.022-0.393-0.122-0.551c-0.1-0.156-0.345-0.338-0.737-0.541l0.194-0.375L113.626,412.876z M108.199,417.232
						c-0.002-1.072-0.32-1.773-0.956-2.104c-0.22-0.115-0.432-0.148-0.636-0.104c-0.315,0.068-0.664,0.299-1.043,0.689
						c-0.38,0.393-0.818,1.064-1.315,2.021c-0.546,1.051-0.873,1.869-0.98,2.455s-0.086,1.061,0.064,1.424
						c0.078,0.184,0.235,0.338,0.473,0.461c0.522,0.271,1.229,0.117,2.117-0.461L108.199,417.232z"/>
					<path d="M119.524,425.001l-4.699-2.109c-0.455,1.162-0.555,2.195-0.301,3.102c0.194,0.695,0.587,1.176,1.18,1.441
						c0.366,0.164,0.745,0.213,1.136,0.143c0.391-0.07,0.876-0.295,1.457-0.674l0.221,0.342c-0.889,0.738-1.703,1.178-2.441,1.32
						c-0.739,0.143-1.477,0.047-2.216-0.285c-1.271-0.568-2.013-1.488-2.228-2.76c-0.172-1.023,0.004-2.117,0.527-3.283
						c0.641-1.43,1.537-2.395,2.689-2.895c1.152-0.498,2.247-0.516,3.285-0.049c0.867,0.389,1.46,1.082,1.779,2.08
						S120.103,423.582,119.524,425.001z M117.546,423.376c0.441-0.982,0.69-1.682,0.748-2.096s0.016-0.768-0.125-1.059
						c-0.079-0.168-0.226-0.299-0.439-0.395c-0.318-0.145-0.647-0.105-0.988,0.117c-0.604,0.381-1.119,1.045-1.543,1.992
						l-0.144,0.32L117.546,423.376z"/>
					<path d="M127.892,419.085l-4.299,10.844c-0.244,0.615-0.329,1.037-0.253,1.266c0.075,0.229,0.316,0.438,0.724,0.627
						l-0.133,0.336l-4.713-1.867l0.133-0.336c0.391,0.141,0.721,0.141,0.992,0.004c0.181-0.094,0.394-0.449,0.638-1.064l3.582-9.033
						c0.242-0.609,0.325-1.027,0.25-1.258c-0.075-0.227-0.313-0.436-0.714-0.621l0.137-0.346L127.892,419.085z"/>
					<path d="M132.335,425.21l-2.488,7.01c-0.222,0.625-0.291,1.051-0.207,1.275c0.084,0.223,0.332,0.424,0.746,0.6l-0.121,0.34
						l-4.778-1.693l0.121-0.34c0.396,0.125,0.726,0.113,0.991-0.033c0.178-0.102,0.377-0.463,0.599-1.086l1.833-5.166
						c0.221-0.625,0.291-1.049,0.207-1.273c-0.083-0.227-0.329-0.424-0.736-0.598l0.124-0.352L132.335,425.21z M132.532,420.455
						c0.41,0.146,0.706,0.412,0.888,0.801s0.202,0.783,0.058,1.188c-0.143,0.402-0.409,0.695-0.796,0.879
						c-0.388,0.182-0.783,0.201-1.187,0.059c-0.404-0.143-0.697-0.408-0.88-0.793c-0.184-0.383-0.203-0.777-0.06-1.182
						s0.408-0.699,0.793-0.885C131.733,420.333,132.128,420.312,132.532,420.455z"/>
					<path d="M144.571,424.593l-3.07,10.357c-0.208,0.699-0.311,1.119-0.311,1.258c-0.012,0.229,0.04,0.414,0.154,0.559
						c0.114,0.146,0.347,0.285,0.698,0.418l-0.094,0.316l-4.021-0.385l0.422-1.426c-0.619,0.418-1.136,0.672-1.551,0.766
						s-0.848,0.074-1.296-0.061c-1.149-0.34-1.904-1.123-2.267-2.348c-0.292-0.994-0.258-2.098,0.102-3.311
						c0.287-0.969,0.711-1.787,1.272-2.455s1.19-1.111,1.887-1.33c0.697-0.219,1.379-0.23,2.046-0.033
						c0.43,0.129,0.787,0.324,1.071,0.59c0.284,0.268,0.554,0.664,0.809,1.193l0.805-2.715c0.203-0.688,0.297-1.107,0.281-1.268
						c-0.022-0.209-0.096-0.381-0.224-0.516c-0.127-0.137-0.403-0.268-0.826-0.393l0.12-0.404L144.571,424.593z M140.067,429.898
						c-0.205-1.053-0.65-1.68-1.337-1.885c-0.238-0.068-0.452-0.063-0.645,0.02c-0.296,0.129-0.594,0.422-0.893,0.877
						c-0.299,0.455-0.602,1.201-0.908,2.232c-0.337,1.137-0.503,2.002-0.498,2.598c0.005,0.594,0.116,1.057,0.333,1.387
						c0.111,0.164,0.295,0.285,0.552,0.361c0.565,0.168,1.229-0.117,1.992-0.854L140.067,429.898z"/>
					<path d="M149.078,438.226c-1.338,0.736-2.451,1.006-3.339,0.807c-0.522-0.117-0.918-0.387-1.188-0.807
						c-0.27-0.422-0.346-0.889-0.23-1.404c0.157-0.699,0.598-1.262,1.324-1.684c0.726-0.424,2.202-0.873,4.428-1.35l0.207-0.92
						c0.155-0.691,0.215-1.137,0.181-1.334c-0.035-0.195-0.142-0.385-0.321-0.564c-0.179-0.182-0.399-0.301-0.66-0.359
						c-0.425-0.096-0.795-0.078-1.112,0.051c-0.196,0.078-0.312,0.197-0.347,0.354c-0.031,0.137,0.022,0.326,0.16,0.57
						c0.185,0.336,0.249,0.635,0.19,0.896c-0.072,0.318-0.252,0.564-0.541,0.736s-0.626,0.215-1.011,0.129
						c-0.411-0.092-0.728-0.295-0.95-0.604c-0.222-0.313-0.296-0.633-0.221-0.967c0.105-0.471,0.392-0.877,0.86-1.223
						c0.468-0.344,1.061-0.555,1.778-0.635c0.717-0.078,1.435-0.039,2.154,0.123c0.868,0.195,1.514,0.533,1.938,1.016
						c0.423,0.482,0.662,0.955,0.715,1.42c0.03,0.297-0.066,0.938-0.287,1.924l-0.797,3.555c-0.094,0.418-0.136,0.686-0.128,0.801
						c0.009,0.113,0.04,0.205,0.093,0.271c0.054,0.066,0.123,0.109,0.208,0.129c0.17,0.039,0.37-0.043,0.601-0.246l0.241,0.301
						c-0.435,0.41-0.852,0.688-1.25,0.826c-0.398,0.141-0.82,0.162-1.264,0.063c-0.522-0.117-0.903-0.332-1.142-0.643
						C149.128,439.15,149.032,438.74,149.078,438.226z M149.238,437.511l0.688-3.064c-0.894,0.287-1.593,0.65-2.097,1.094
						c-0.333,0.295-0.541,0.623-0.621,0.98c-0.067,0.303-0.019,0.59,0.145,0.867c0.124,0.213,0.333,0.352,0.626,0.418
						C148.305,437.878,148.725,437.783,149.238,437.511z"/>
					<path d="M165.58,428.718l-1.617,10.682c-0.109,0.721-0.154,1.15-0.134,1.287c0.02,0.229,0.096,0.404,0.229,0.533
						c0.133,0.129,0.382,0.234,0.749,0.316l-0.049,0.328l-4.037,0.17l0.222-1.469c-0.556,0.496-1.033,0.82-1.431,0.971
						c-0.398,0.15-0.829,0.189-1.292,0.119c-1.185-0.18-2.041-0.852-2.568-2.014c-0.426-0.943-0.544-2.043-0.354-3.293
						c0.151-1,0.458-1.867,0.922-2.605c0.464-0.738,1.026-1.266,1.686-1.578c0.66-0.313,1.334-0.418,2.022-0.313
						c0.443,0.066,0.824,0.213,1.142,0.438c0.318,0.225,0.64,0.58,0.965,1.07l0.423-2.801c0.107-0.707,0.142-1.139,0.104-1.293
						c-0.05-0.205-0.148-0.363-0.292-0.48c-0.145-0.117-0.436-0.209-0.873-0.275l0.063-0.416L165.58,428.718z M161.848,434.589
						c-0.348-1.014-0.875-1.574-1.583-1.68c-0.245-0.037-0.457-0.002-0.636,0.105c-0.276,0.168-0.531,0.498-0.764,0.99
						c-0.234,0.492-0.431,1.271-0.593,2.338c-0.177,1.17-0.222,2.051-0.135,2.641c0.087,0.588,0.26,1.029,0.52,1.326
						c0.133,0.148,0.332,0.242,0.597,0.283c0.582,0.088,1.201-0.285,1.855-1.121L161.848,434.589z"/>
					<path d="M180.914,438.369l-5.146-0.215c0.008,1.246,0.298,2.24,0.87,2.988c0.438,0.574,0.981,0.875,1.63,0.902
						c0.401,0.018,0.77-0.08,1.107-0.291c0.337-0.209,0.705-0.598,1.104-1.164l0.332,0.234c-0.551,1.016-1.144,1.727-1.777,2.133
						c-0.633,0.404-1.354,0.59-2.164,0.557c-1.391-0.059-2.422-0.637-3.092-1.736c-0.539-0.887-0.782-1.969-0.729-3.246
						c0.065-1.564,0.54-2.791,1.425-3.684c0.885-0.891,1.895-1.313,3.032-1.266c0.949,0.041,1.757,0.465,2.423,1.271
						C180.596,435.664,180.924,436.833,180.914,438.369z M178.474,437.591c0.045-1.076,0.017-1.816-0.083-2.223
						s-0.27-0.719-0.508-0.938c-0.136-0.127-0.32-0.193-0.554-0.203c-0.348-0.016-0.639,0.145-0.874,0.477
						c-0.419,0.578-0.651,1.385-0.694,2.422l-0.015,0.352L178.474,437.591z"/>
					<path d="M188.473,433.632l0.211,3.199l-0.341,0.006c-0.427-0.941-0.862-1.582-1.307-1.922c-0.445-0.34-0.886-0.506-1.319-0.498
						c-0.275,0.006-0.508,0.102-0.697,0.289c-0.19,0.188-0.283,0.402-0.278,0.645c0.004,0.182,0.073,0.354,0.211,0.518
						c0.219,0.271,0.825,0.729,1.821,1.377c0.998,0.646,1.656,1.201,1.976,1.66s0.485,0.977,0.496,1.551
						c0.011,0.521-0.11,1.037-0.361,1.543c-0.252,0.508-0.612,0.898-1.082,1.176c-0.471,0.277-0.993,0.42-1.567,0.432
						c-0.449,0.01-1.051-0.119-1.805-0.389c-0.203-0.068-0.341-0.104-0.414-0.102c-0.222,0.004-0.401,0.176-0.543,0.512l-0.33,0.006
						l-0.226-3.369l0.341-0.006c0.317,0.877,0.743,1.531,1.277,1.963c0.533,0.434,1.033,0.645,1.503,0.637
						c0.321-0.008,0.582-0.109,0.782-0.313c0.199-0.201,0.298-0.441,0.291-0.723c-0.006-0.322-0.11-0.6-0.315-0.828
						c-0.205-0.23-0.659-0.576-1.364-1.039c-1.037-0.689-1.711-1.219-2.019-1.588c-0.453-0.541-0.687-1.143-0.697-1.805
						c-0.014-0.723,0.224-1.383,0.711-1.977c0.486-0.596,1.202-0.9,2.146-0.92c0.508-0.01,1.002,0.105,1.481,0.344
						c0.182,0.098,0.33,0.145,0.443,0.143c0.121-0.002,0.217-0.029,0.29-0.08c0.073-0.053,0.187-0.195,0.343-0.434L188.473,433.632z
						"/>
					<path d="M200.049,433.029l0.18,1.221c0.429-0.629,0.844-1.088,1.244-1.373c0.401-0.285,0.86-0.465,1.377-0.541
						c0.596-0.086,1.116-0.02,1.562,0.199c0.444,0.219,0.817,0.598,1.118,1.135c0.443-0.674,0.89-1.178,1.338-1.514
						c0.447-0.336,0.938-0.543,1.467-0.621c0.643-0.094,1.175-0.021,1.6,0.219c0.424,0.238,0.743,0.574,0.959,1.006
						c0.215,0.434,0.396,1.146,0.539,2.139l0.557,3.805c0.104,0.715,0.234,1.148,0.389,1.303c0.155,0.154,0.439,0.229,0.857,0.221
						l0.054,0.357l-4.8,0.699l-0.051-0.357c0.373-0.088,0.629-0.273,0.771-0.559c0.093-0.195,0.093-0.615-0.001-1.258l-0.583-3.994
						c-0.121-0.826-0.231-1.35-0.33-1.564s-0.228-0.367-0.386-0.455c-0.159-0.09-0.334-0.119-0.526-0.092
						c-0.284,0.043-0.558,0.189-0.817,0.439c-0.26,0.252-0.51,0.605-0.748,1.066l0.729,4.988c0.099,0.668,0.216,1.08,0.353,1.236
						c0.188,0.223,0.5,0.314,0.935,0.279l0.054,0.357l-4.809,0.701l-0.053-0.357c0.257-0.051,0.449-0.145,0.582-0.283
						c0.133-0.137,0.211-0.291,0.238-0.461c0.024-0.168-0.002-0.523-0.08-1.066l-0.584-3.994c-0.123-0.842-0.232-1.363-0.33-1.564
						c-0.098-0.203-0.231-0.352-0.404-0.447c-0.174-0.098-0.35-0.133-0.528-0.105c-0.265,0.039-0.496,0.145-0.694,0.314
						c-0.281,0.25-0.562,0.648-0.84,1.197l0.729,4.986c0.096,0.654,0.223,1.078,0.383,1.268c0.159,0.189,0.446,0.275,0.864,0.256
						l0.052,0.355l-4.788,0.699l-0.052-0.357c0.385-0.096,0.645-0.264,0.778-0.498c0.092-0.162,0.084-0.602-0.021-1.316
						l-0.767-5.244c-0.103-0.703-0.229-1.131-0.385-1.283c-0.154-0.154-0.439-0.227-0.857-0.219l-0.055-0.369L200.049,433.029z"/>
					<path d="M221.631,428.816l1.747,7.139c0.17,0.695,0.341,1.113,0.515,1.254c0.172,0.141,0.461,0.186,0.869,0.133l0.086,0.352
						l-3.716,0.908l-0.299-1.219c-0.308,0.627-0.649,1.113-1.028,1.457c-0.378,0.344-0.836,0.58-1.375,0.713
						c-0.514,0.125-1.01,0.08-1.486-0.137c-0.477-0.219-0.834-0.521-1.074-0.91s-0.489-1.111-0.747-2.164l-0.886-3.617
						c-0.168-0.689-0.336-1.104-0.504-1.24c-0.168-0.139-0.461-0.184-0.877-0.139l-0.088-0.359l3.715-0.908l1.524,6.229
						c0.159,0.65,0.293,1.064,0.4,1.236c0.108,0.174,0.239,0.293,0.397,0.357c0.156,0.064,0.323,0.074,0.498,0.031
						c0.234-0.057,0.432-0.17,0.59-0.34c0.219-0.232,0.446-0.648,0.686-1.254l-1.193-4.875c-0.168-0.688-0.337-1.102-0.505-1.24
						s-0.46-0.184-0.876-0.137l-0.088-0.361L221.631,428.816z"/>
					<path d="M231.107,436.13l-5.02-5.691c-0.756-0.859-1.273-1.371-1.555-1.533c-0.281-0.164-0.583-0.242-0.904-0.236l-0.113-0.354
						l4.748-1.531l0.114,0.354c-0.308,0.113-0.509,0.244-0.601,0.395c-0.094,0.148-0.114,0.301-0.065,0.455
						c0.078,0.242,0.392,0.668,0.938,1.277l2.656,3.006l0.17-3.039c0.066-1.084,0.039-1.814-0.082-2.189
						c-0.076-0.234-0.215-0.396-0.416-0.488c-0.201-0.09-0.502-0.078-0.899,0.037l-0.114-0.354l2.991-0.963l0.112,0.354
						c-0.281,0.125-0.484,0.316-0.606,0.57s-0.218,1.014-0.288,2.281l-0.417,7.441c-0.11,1.865-0.259,3.037-0.448,3.521
						c-0.267,0.676-0.73,1.121-1.395,1.336c-0.527,0.17-1.006,0.154-1.432-0.041c-0.426-0.197-0.707-0.508-0.844-0.936
						c-0.119-0.369-0.105-0.713,0.043-1.025c0.147-0.316,0.387-0.527,0.719-0.635c0.318-0.102,0.607-0.082,0.867,0.059
						c0.26,0.143,0.463,0.426,0.605,0.85c0.085,0.24,0.164,0.389,0.236,0.441c0.074,0.053,0.158,0.063,0.255,0.033
						c0.151-0.051,0.284-0.193,0.397-0.436c0.168-0.35,0.271-1.057,0.307-2.123L231.107,436.13z"/>
					<path d="M242.896,421.267l0.49,1.111c0.229-0.674,0.498-1.207,0.807-1.602c0.31-0.396,0.695-0.697,1.16-0.902
						c0.559-0.246,1.088-0.295,1.592-0.148c0.505,0.148,0.918,0.424,1.244,0.828c0.252,0.307,0.597,0.955,1.033,1.947l1.477,3.344
						c0.292,0.66,0.533,1.047,0.724,1.156s0.486,0.102,0.886-0.023l0.146,0.332l-4.345,1.916l-0.146-0.33
						c0.306-0.188,0.479-0.424,0.521-0.713c0.031-0.195-0.088-0.598-0.355-1.203l-1.686-3.82c-0.312-0.705-0.534-1.137-0.67-1.295
						c-0.137-0.16-0.293-0.262-0.469-0.305c-0.177-0.043-0.345-0.029-0.504,0.041c-0.525,0.232-0.851,0.824-0.972,1.777l2.03,4.602
						c0.283,0.645,0.522,1.023,0.719,1.145c0.193,0.119,0.464,0.127,0.808,0.027l0.146,0.33l-4.345,1.916l-0.146-0.33
						c0.345-0.195,0.551-0.426,0.617-0.689c0.045-0.18-0.078-0.602-0.37-1.262l-2.14-4.852c-0.287-0.648-0.524-1.025-0.715-1.133
						c-0.189-0.107-0.484-0.102-0.887,0.02l-0.148-0.342L242.896,421.267z"/>
					<path d="M253.826,415.753c0.725-0.377,1.496-0.539,2.313-0.488c0.818,0.051,1.567,0.336,2.25,0.857
						c0.682,0.521,1.233,1.191,1.659,2.012c0.613,1.184,0.826,2.326,0.64,3.436c-0.226,1.338-0.977,2.338-2.254,3.002
						c-1.254,0.648-2.447,0.711-3.58,0.184s-2-1.371-2.603-2.529c-0.619-1.193-0.813-2.416-0.582-3.662
						S252.62,416.378,253.826,415.753z M254.189,416.369c-0.303,0.156-0.504,0.406-0.603,0.748c-0.099,0.34-0.007,0.865,0.274,1.576
						c0.281,0.709,0.734,1.664,1.355,2.863c0.33,0.637,0.68,1.207,1.051,1.719c0.283,0.387,0.59,0.637,0.918,0.744
						s0.629,0.094,0.901-0.051c0.267-0.139,0.451-0.328,0.554-0.568c0.127-0.322,0.135-0.686,0.022-1.088
						c-0.175-0.625-0.706-1.797-1.597-3.514c-0.524-1.01-0.94-1.674-1.25-1.992c-0.309-0.318-0.616-0.508-0.926-0.564
						C254.673,416.197,254.439,416.24,254.189,416.369z"/>
					<path d="M260.375,407.632l2.648,4.439c0.261-1.105,0.793-1.898,1.598-2.377c0.552-0.33,1.169-0.479,1.852-0.445
						c0.682,0.033,1.34,0.268,1.973,0.701c0.633,0.432,1.182,1.039,1.647,1.822c0.524,0.879,0.825,1.781,0.903,2.709
						s-0.063,1.756-0.426,2.48c-0.361,0.727-0.918,1.314-1.672,1.764c-0.438,0.262-0.865,0.424-1.287,0.486
						c-0.422,0.064-0.889,0.039-1.401-0.076l-0.815,1.668l-0.293,0.176l-6.115-10.252c-0.278-0.465-0.471-0.738-0.575-0.824
						c-0.153-0.127-0.313-0.191-0.484-0.195c-0.17-0.004-0.405,0.076-0.704,0.238l-0.19-0.318L260.375,407.632z M263.482,412.839
						l2.14,3.588c0.437,0.729,0.729,1.186,0.886,1.365c0.26,0.305,0.561,0.496,0.904,0.576s0.686,0.018,1.023-0.186
						c0.293-0.174,0.496-0.406,0.605-0.699c0.109-0.291,0.088-0.727-0.064-1.305c-0.154-0.578-0.615-1.512-1.385-2.799
						c-0.736-1.236-1.396-1.992-1.982-2.266c-0.422-0.201-0.823-0.188-1.203,0.039C263.912,411.451,263.604,412.011,263.482,412.839
						z"/>
					<path d="M270.368,401.359l6.42,9.74c0.364,0.553,0.662,0.863,0.892,0.934c0.229,0.068,0.539-0.008,0.93-0.232l0.197,0.301
						l-4.231,2.791l-0.199-0.303c0.34-0.238,0.53-0.51,0.572-0.811c0.026-0.201-0.142-0.58-0.507-1.133l-5.349-8.113
						c-0.36-0.547-0.655-0.855-0.886-0.924c-0.23-0.07-0.537,0.006-0.921,0.227l-0.204-0.311L270.368,401.359z"/>
					<path d="M283.962,402.308l-4.19,2.994c0.773,0.979,1.615,1.584,2.525,1.822c0.698,0.184,1.313,0.088,1.84-0.291
						c0.327-0.232,0.559-0.535,0.695-0.908c0.136-0.373,0.188-0.906,0.154-1.598l0.406-0.02c0.188,1.141,0.157,2.064-0.093,2.773
						s-0.704,1.299-1.362,1.77c-1.133,0.811-2.303,0.986-3.508,0.531c-0.97-0.367-1.826-1.072-2.57-2.111
						c-0.909-1.273-1.289-2.533-1.141-3.779c0.15-1.248,0.688-2.201,1.613-2.863c0.773-0.553,1.671-0.715,2.693-0.486
						C282.049,400.371,283.027,401.091,283.962,402.308z M281.563,403.197c-0.627-0.877-1.104-1.443-1.434-1.703
						c-0.329-0.258-0.654-0.4-0.977-0.426c-0.185-0.016-0.373,0.045-0.563,0.18c-0.282,0.203-0.415,0.508-0.396,0.914
						c0.024,0.713,0.339,1.492,0.941,2.336l0.204,0.287L281.563,403.197z"/>
				</g>
				<g>
					<path d="M314.793,375.257l-7.392-1.721c-1.114-0.263-1.833-0.379-2.156-0.348c-0.323,0.03-0.614,0.143-0.873,0.332
						l-0.298-0.223l2.979-4.002l0.298,0.223c-0.185,0.271-0.271,0.494-0.26,0.669c0.011,0.177,0.081,0.312,0.21,0.407
						c0.204,0.15,0.706,0.316,1.508,0.496l3.906,0.904l-1.626-2.574c-0.574-0.92-1.021-1.498-1.337-1.732
						c-0.199-0.148-0.406-0.199-0.622-0.156s-0.453,0.229-0.712,0.553l-0.298-0.221l1.876-2.521l0.298,0.222
						c-0.157,0.269-0.212,0.54-0.164,0.817s0.411,0.951,1.09,2.023l3.98,6.305c0.992,1.582,1.552,2.623,1.679,3.127
						c0.175,0.705,0.055,1.338-0.361,1.896c-0.331,0.445-0.728,0.712-1.188,0.8c-0.461,0.086-0.871-0.005-1.23-0.271
						c-0.312-0.232-0.498-0.52-0.561-0.861c-0.063-0.343,0.011-0.652,0.219-0.934c0.199-0.268,0.446-0.42,0.74-0.456
						c0.293-0.035,0.622,0.077,0.986,0.34c0.207,0.146,0.355,0.222,0.447,0.222c0.092,0.002,0.166-0.039,0.228-0.119
						c0.096-0.129,0.12-0.324,0.071-0.584c-0.065-0.384-0.394-1.02-0.982-1.908L314.793,375.257z"/>
					<path d="M315.091,356.987l1.097,0.566c-0.263-0.716-0.394-1.319-0.392-1.812c0.002-0.494,0.123-0.972,0.362-1.436
						c0.275-0.535,0.634-0.92,1.069-1.153c0.438-0.233,0.963-0.315,1.575-0.249c-0.29-0.752-0.439-1.408-0.453-1.968
						c-0.012-0.562,0.105-1.078,0.352-1.554c0.298-0.577,0.668-0.969,1.108-1.174s0.899-0.27,1.376-0.192
						c0.478,0.077,1.161,0.346,2.054,0.806l3.416,1.766c0.643,0.332,1.069,0.479,1.285,0.443c0.215-0.037,0.439-0.227,0.679-0.57
						l0.321,0.166l-2.227,4.309l-0.32-0.166c0.146-0.354,0.144-0.672-0.006-0.952c-0.104-0.19-0.445-0.435-1.022-0.731l-3.586-1.853
						c-0.743-0.384-1.23-0.598-1.464-0.644c-0.232-0.045-0.433-0.028-0.597,0.049c-0.164,0.076-0.291,0.201-0.38,0.374
						c-0.132,0.256-0.172,0.563-0.119,0.922s0.196,0.769,0.434,1.229l4.478,2.313c0.602,0.311,1.004,0.455,1.211,0.434
						c0.291-0.021,0.548-0.222,0.771-0.596l0.32,0.166l-2.229,4.316l-0.32-0.166c0.107-0.237,0.145-0.45,0.109-0.639
						c-0.035-0.188-0.114-0.341-0.237-0.461c-0.122-0.119-0.428-0.306-0.915-0.558l-3.586-1.853
						c-0.755-0.391-1.243-0.604-1.464-0.644s-0.421-0.017-0.601,0.067s-0.312,0.207-0.394,0.367
						c-0.123,0.238-0.173,0.487-0.148,0.748c0.04,0.375,0.2,0.836,0.483,1.381l4.479,2.313c0.588,0.304,1.006,0.445,1.254,0.427
						c0.247-0.021,0.482-0.204,0.709-0.554l0.321,0.165l-2.221,4.3l-0.32-0.166c0.146-0.369,0.16-0.678,0.048-0.924
						c-0.079-0.169-0.439-0.419-1.081-0.751l-4.71-2.433c-0.63-0.326-1.054-0.471-1.269-0.435c-0.214,0.036-0.439,0.226-0.679,0.569
						l-0.329-0.17L315.091,356.987z"/>
					<path d="M323.946,337.164l6.866,2.616c0.67,0.255,1.11,0.353,1.323,0.289c0.214-0.062,0.415-0.274,0.604-0.64l0.338,0.129
						l-1.362,3.574l-1.172-0.447c0.34,0.609,0.545,1.168,0.613,1.674c0.067,0.506,0.004,1.02-0.193,1.537
						c-0.188,0.494-0.508,0.876-0.958,1.145c-0.449,0.271-0.901,0.394-1.358,0.369c-0.456-0.023-1.191-0.229-2.204-0.615
						l-3.48-1.326c-0.663-0.252-1.099-0.348-1.309-0.288c-0.209,0.06-0.412,0.274-0.61,0.644l-0.347-0.133l1.361-3.574l5.994,2.284
						c0.625,0.238,1.04,0.362,1.244,0.372s0.377-0.031,0.521-0.124c0.144-0.092,0.247-0.224,0.311-0.392
						c0.086-0.227,0.104-0.451,0.055-0.678c-0.066-0.313-0.28-0.738-0.642-1.276l-4.69-1.787c-0.662-0.253-1.1-0.349-1.309-0.289
						s-0.412,0.274-0.61,0.644l-0.347-0.133L323.946,337.164z"/>
					<path d="M335.245,333.583l-7.523,1.002c-1.135,0.148-1.849,0.295-2.14,0.438c-0.292,0.144-0.524,0.351-0.699,0.619
						l-0.356-0.103l1.372-4.797l0.356,0.103c-0.077,0.319-0.08,0.559-0.008,0.719c0.073,0.16,0.187,0.263,0.341,0.306
						c0.245,0.07,0.773,0.049,1.586-0.067l3.976-0.533l-2.432-1.834c-0.862-0.657-1.483-1.04-1.864-1.149
						c-0.237-0.066-0.449-0.043-0.637,0.074c-0.187,0.117-0.344,0.373-0.471,0.77l-0.357-0.104l0.864-3.021l0.357,0.103
						c-0.054,0.306-0.009,0.579,0.136,0.822c0.143,0.243,0.721,0.745,1.734,1.509l5.951,4.49c1.486,1.129,2.378,1.906,2.675,2.332
						c0.413,0.599,0.524,1.232,0.334,1.9c-0.153,0.534-0.431,0.924-0.83,1.168c-0.4,0.244-0.816,0.303-1.247,0.18
						c-0.374-0.105-0.649-0.309-0.829-0.606c-0.181-0.298-0.222-0.614-0.125-0.948c0.092-0.322,0.269-0.553,0.531-0.688
						c0.262-0.138,0.608-0.147,1.042-0.031c0.245,0.063,0.411,0.08,0.498,0.05c0.086-0.031,0.143-0.097,0.17-0.193
						c0.044-0.153-0.003-0.344-0.141-0.571c-0.195-0.334-0.728-0.813-1.594-1.437L335.245,333.583z"/>
					<path d="M325.089,314.962l11.494,1.992c0.653,0.112,1.083,0.109,1.291-0.012c0.208-0.119,0.363-0.398,0.466-0.836l0.356,0.063
						l-0.866,4.994l-0.355-0.062c0.059-0.411-0.009-0.733-0.197-0.972c-0.129-0.158-0.521-0.295-1.174-0.406l-9.574-1.659
						c-0.646-0.112-1.073-0.106-1.281,0.013c-0.207,0.121-0.362,0.396-0.464,0.826l-0.366-0.063L325.089,314.962z"/>
					<path d="M334.893,305.953l-0.589,5.115c1.244,0.083,2.26-0.134,3.046-0.648c0.605-0.396,0.944-0.916,1.02-1.562
						c0.046-0.399-0.023-0.774-0.209-1.126c-0.187-0.352-0.546-0.746-1.081-1.186l0.258-0.313c0.973,0.624,1.639,1.267,1.997,1.929
						c0.358,0.66,0.491,1.394,0.398,2.197c-0.159,1.383-0.813,2.369-1.957,2.958c-0.925,0.474-2.021,0.638-3.29,0.49
						c-1.557-0.179-2.746-0.742-3.57-1.688c-0.824-0.947-1.171-1.986-1.041-3.115c0.108-0.944,0.591-1.721,1.445-2.325
						C332.173,306.074,333.365,305.83,334.893,305.953z M333.943,308.33c-1.07-0.123-1.813-0.149-2.226-0.08
						c-0.412,0.07-0.734,0.217-0.97,0.438c-0.136,0.126-0.217,0.306-0.244,0.538c-0.039,0.346,0.098,0.648,0.411,0.906
						c0.547,0.461,1.336,0.75,2.366,0.867l0.349,0.041L333.943,308.33z"/>
					<path d="M338.907,299.321c0.958,1.188,1.417,2.238,1.375,3.147c-0.023,0.535-0.22,0.972-0.586,1.311
						c-0.367,0.338-0.814,0.495-1.343,0.473c-0.717-0.033-1.347-0.369-1.891-1.01c-0.544-0.642-1.243-2.017-2.1-4.125l-0.942-0.043
						c-0.709-0.031-1.157-0.014-1.345,0.055s-0.354,0.207-0.501,0.414c-0.146,0.209-0.227,0.445-0.238,0.713
						c-0.02,0.436,0.063,0.798,0.243,1.086c0.112,0.181,0.249,0.273,0.409,0.281c0.141,0.006,0.317-0.08,0.534-0.258
						c0.299-0.24,0.582-0.355,0.85-0.344c0.327,0.016,0.602,0.148,0.82,0.402c0.22,0.256,0.32,0.58,0.303,0.975
						c-0.02,0.421-0.161,0.77-0.429,1.041s-0.57,0.4-0.911,0.387c-0.481-0.021-0.934-0.234-1.354-0.635s-0.731-0.947-0.936-1.641
						s-0.289-1.406-0.255-2.143c0.04-0.89,0.261-1.584,0.661-2.086c0.4-0.501,0.825-0.818,1.273-0.951
						c0.285-0.082,0.934-0.1,1.942-0.054l3.64,0.164c0.429,0.021,0.698,0.017,0.811-0.015c0.111-0.027,0.195-0.073,0.253-0.139
						c0.057-0.064,0.087-0.141,0.091-0.228c0.008-0.175-0.108-0.356-0.349-0.548l0.256-0.29c0.479,0.356,0.822,0.719,1.03,1.087
						c0.208,0.367,0.302,0.777,0.28,1.232c-0.023,0.535-0.168,0.947-0.433,1.236C339.806,299.111,339.418,299.277,338.907,299.321z
						 M338.175,299.289l-3.14-0.143c0.438,0.831,0.919,1.455,1.442,1.874c0.35,0.276,0.707,0.424,1.075,0.44
						c0.309,0.015,0.583-0.084,0.827-0.295c0.188-0.158,0.289-0.389,0.303-0.688C338.699,300.142,338.53,299.748,338.175,299.289z"
						/>
					<path d="M326.781,289.893l11.665-0.124c0.663-0.008,1.085-0.089,1.268-0.245c0.184-0.155,0.284-0.458,0.308-0.905l0.36-0.004
						l0.054,5.068l-0.36,0.004c-0.019-0.415-0.143-0.723-0.371-0.92c-0.155-0.133-0.564-0.193-1.228-0.188l-9.718,0.104
						c-0.654,0.007-1.074,0.089-1.257,0.244c-0.183,0.156-0.285,0.455-0.307,0.896l-0.372,0.004L326.781,289.893z"/>
					<path d="M334.225,273.191l0.495,5.126c1.233-0.18,2.182-0.604,2.843-1.272c0.509-0.514,0.73-1.092,0.669-1.738
						c-0.038-0.398-0.186-0.752-0.439-1.057c-0.254-0.306-0.69-0.617-1.306-0.934l0.188-0.361c1.081,0.406,1.866,0.896,2.355,1.467
						c0.487,0.572,0.771,1.261,0.85,2.066c0.134,1.387-0.298,2.486-1.295,3.303c-0.804,0.655-1.842,1.045-3.114,1.168
						c-1.559,0.15-2.84-0.15-3.845-0.904c-1.004-0.754-1.561-1.696-1.67-2.829c-0.091-0.946,0.218-1.806,0.927-2.575
						C331.589,273.876,332.705,273.392,334.225,273.191z M333.792,275.712c-1.072,0.104-1.803,0.234-2.191,0.39
						c-0.388,0.155-0.674,0.366-0.855,0.632c-0.106,0.152-0.148,0.346-0.126,0.577c0.033,0.347,0.229,0.612,0.592,0.801
						c0.631,0.337,1.463,0.453,2.495,0.354l0.35-0.033L333.792,275.712z"/>
					<path d="M328.533,266.173l3.146-0.623l0.05,0.339c-0.879,0.544-1.459,1.06-1.737,1.543c-0.279,0.485-0.388,0.942-0.323,1.373
						c0.041,0.271,0.167,0.489,0.377,0.653c0.211,0.166,0.437,0.229,0.674,0.193c0.18-0.025,0.341-0.117,0.486-0.275
						c0.24-0.252,0.616-0.914,1.13-1.984s0.978-1.796,1.391-2.172c0.415-0.377,0.906-0.607,1.477-0.692
						c0.517-0.077,1.042-0.022,1.577,0.16c0.535,0.185,0.97,0.491,1.305,0.922s0.545,0.931,0.63,1.5
						c0.066,0.442,0.017,1.058-0.151,1.839c-0.043,0.211-0.06,0.352-0.049,0.424c0.033,0.219,0.227,0.377,0.578,0.473l0.049,0.328
						l-3.313,0.656l-0.05-0.338c0.829-0.429,1.423-0.935,1.781-1.52c0.359-0.585,0.506-1.109,0.437-1.573
						c-0.048-0.317-0.184-0.563-0.409-0.735c-0.225-0.172-0.478-0.238-0.756-0.195c-0.317,0.047-0.577,0.188-0.779,0.421
						c-0.202,0.231-0.485,0.729-0.854,1.487c-0.551,1.117-0.989,1.853-1.315,2.205c-0.478,0.519-1.044,0.826-1.699,0.924
						c-0.715,0.106-1.397-0.043-2.052-0.449c-0.651-0.406-1.049-1.076-1.188-2.01c-0.075-0.504-0.025-1.008,0.148-1.516
						c0.072-0.193,0.102-0.346,0.083-0.459c-0.018-0.119-0.057-0.211-0.117-0.275c-0.06-0.065-0.219-0.16-0.474-0.285
						L328.533,266.173z"/>
					<path d="M324.273,260.558l3.369-0.652l-0.424-2.189l0.977-0.188l0.424,2.188l5.688-1.102c0.532-0.104,0.87-0.193,1.017-0.273
						c0.145-0.078,0.253-0.189,0.323-0.334c0.07-0.143,0.097-0.268,0.075-0.373c-0.083-0.426-0.485-0.768-1.21-1.021l0.159-0.338
						c1.364,0.288,2.163,1.029,2.396,2.227c0.112,0.584,0.047,1.109-0.2,1.576c-0.247,0.469-0.562,0.797-0.939,0.985
						c-0.211,0.108-0.809,0.259-1.794,0.45l-4.978,0.964l0.232,1.202l-0.346,0.066c-0.745-0.715-1.496-1.301-2.252-1.756
						c-0.757-0.457-1.575-0.826-2.454-1.105L324.273,260.558z"/>
					<path d="M333.498,249.397c1.252,0.874,1.984,1.754,2.198,2.64c0.126,0.521,0.061,0.994-0.197,1.422
						c-0.259,0.428-0.646,0.703-1.158,0.828c-0.696,0.168-1.395,0.021-2.096-0.443c-0.701-0.465-1.757-1.59-3.167-3.375
						l-0.917,0.222c-0.689,0.167-1.115,0.31-1.275,0.429c-0.161,0.117-0.282,0.297-0.366,0.537c-0.081,0.24-0.093,0.491-0.028,0.752
						c0.103,0.422,0.28,0.748,0.535,0.975c0.157,0.142,0.314,0.193,0.472,0.154c0.137-0.033,0.283-0.164,0.441-0.396
						c0.22-0.313,0.46-0.503,0.72-0.565c0.317-0.078,0.619-0.025,0.9,0.158s0.47,0.467,0.563,0.85c0.1,0.41,0.06,0.783-0.121,1.119
						c-0.181,0.338-0.437,0.545-0.769,0.625c-0.469,0.113-0.96,0.037-1.477-0.23c-0.516-0.268-0.968-0.705-1.355-1.313
						c-0.389-0.609-0.669-1.271-0.844-1.986c-0.209-0.864-0.19-1.594,0.056-2.188c0.245-0.594,0.563-1.018,0.957-1.271
						c0.252-0.156,0.868-0.354,1.851-0.592l3.542-0.857c0.416-0.102,0.674-0.182,0.773-0.239s0.167-0.126,0.203-0.204
						c0.036-0.076,0.045-0.158,0.023-0.242c-0.041-0.17-0.203-0.313-0.486-0.431l0.163-0.351c0.562,0.209,0.991,0.461,1.293,0.757
						c0.304,0.296,0.508,0.664,0.614,1.106c0.126,0.521,0.104,0.957-0.07,1.309C334.303,248.947,333.976,249.212,333.498,249.397z
						 M332.786,249.57l-3.055,0.739c0.651,0.675,1.288,1.142,1.907,1.397c0.413,0.168,0.8,0.209,1.156,0.121
						c0.299-0.072,0.536-0.242,0.712-0.513c0.137-0.205,0.169-0.454,0.1-0.747C333.527,250.244,333.253,249.912,332.786,249.57z"/>
				</g>
				<g>
					<path d="M317.875,222.184l0.221-0.326c0.856,0.39,1.507,0.902,1.95,1.535c0.445,0.633,0.689,1.32,0.736,2.062
						c0.076,1.25-0.333,2.277-1.229,3.083c-0.896,0.807-2.005,1.25-3.328,1.33c-1.274,0.08-2.419-0.193-3.43-0.814
						c-1.219-0.749-1.873-1.846-1.962-3.289c-0.061-0.968,0.137-1.753,0.59-2.355c0.452-0.601,0.979-0.92,1.581-0.957
						c0.381-0.023,0.692,0.074,0.932,0.291c0.242,0.216,0.375,0.511,0.397,0.885c0.024,0.394-0.087,0.728-0.331,1.001
						s-0.699,0.461-1.363,0.562c-0.419,0.066-0.706,0.181-0.863,0.345c-0.158,0.165-0.229,0.349-0.219,0.556
						c0.021,0.32,0.208,0.584,0.563,0.791c0.534,0.314,1.334,0.441,2.396,0.375c0.884-0.055,1.717-0.245,2.504-0.575
						c0.788-0.33,1.364-0.751,1.729-1.264c0.264-0.385,0.382-0.828,0.351-1.329c-0.021-0.327-0.115-0.633-0.289-0.917
						C318.639,222.888,318.327,222.558,317.875,222.184z"/>
					<path d="M306.738,216.909c0.037-0.434,0.221-0.787,0.55-1.061c0.33-0.274,0.708-0.393,1.135-0.355
						c0.426,0.037,0.776,0.22,1.051,0.549c0.273,0.329,0.393,0.708,0.356,1.134c-0.037,0.427-0.219,0.778-0.545,1.051
						c-0.325,0.274-0.702,0.394-1.128,0.356c-0.429-0.036-0.78-0.218-1.059-0.544C306.823,217.712,306.702,217.336,306.738,216.909z
						 M311.389,215.899l7.411,0.637c0.661,0.057,1.09,0.016,1.286-0.122c0.196-0.137,0.328-0.428,0.394-0.873l0.358,0.031
						l-0.435,5.052l-0.359-0.031c0.022-0.414-0.071-0.731-0.28-0.951c-0.142-0.146-0.543-0.248-1.204-0.305l-5.461-0.469
						c-0.659-0.058-1.088-0.017-1.284,0.121c-0.196,0.138-0.327,0.426-0.393,0.863l-0.37-0.032L311.389,215.899z"/>
					<path d="M314.239,202.892l7.082,1.962c0.688,0.191,1.138,0.246,1.346,0.164c0.206-0.082,0.387-0.313,0.54-0.693l0.349,0.096
						l-1.021,3.686l-1.209-0.335c0.396,0.575,0.65,1.111,0.769,1.608c0.115,0.498,0.1,1.014-0.049,1.549
						c-0.142,0.509-0.424,0.919-0.847,1.229c-0.423,0.31-0.861,0.475-1.318,0.494s-1.208-0.116-2.253-0.405l-3.59-0.994
						c-0.683-0.189-1.126-0.245-1.329-0.166c-0.202,0.08-0.385,0.313-0.547,0.698l-0.358-0.099l1.021-3.687l6.182,1.713
						c0.646,0.179,1.069,0.264,1.274,0.254c0.203-0.01,0.372-0.067,0.505-0.172c0.134-0.105,0.225-0.245,0.272-0.42
						c0.063-0.232,0.062-0.458-0.01-0.679c-0.096-0.304-0.35-0.708-0.759-1.21l-4.837-1.34c-0.686-0.189-1.128-0.245-1.329-0.165
						c-0.204,0.08-0.386,0.312-0.549,0.697l-0.357-0.099L314.239,202.892z"/>
					<path d="M317.451,187.395l9.293,5.508c0.627,0.373,1.009,0.575,1.145,0.609c0.219,0.066,0.41,0.063,0.579-0.013
						s0.36-0.267,0.575-0.576l0.284,0.169l-1.356,3.805l-1.278-0.757c0.253,0.702,0.375,1.266,0.362,1.691
						c-0.011,0.425-0.135,0.84-0.374,1.243c-0.609,1.03-1.555,1.572-2.831,1.625c-1.034,0.04-2.097-0.263-3.185-0.907
						c-0.868-0.516-1.56-1.127-2.07-1.834c-0.51-0.707-0.786-1.425-0.828-2.155c-0.044-0.729,0.114-1.393,0.469-1.991
						c0.229-0.386,0.508-0.684,0.834-0.895c0.327-0.21,0.777-0.375,1.354-0.493l-2.436-1.443c-0.616-0.365-1.002-0.559-1.159-0.582
						c-0.209-0.03-0.395,0-0.556,0.09c-0.163,0.09-0.357,0.326-0.582,0.706l-0.362-0.215L317.451,187.395z M321.493,193.058
						c-1.069-0.059-1.786,0.22-2.152,0.836c-0.126,0.213-0.173,0.423-0.14,0.629c0.052,0.319,0.263,0.679,0.632,1.08
						c0.368,0.402,1.017,0.877,1.943,1.426c1.02,0.604,1.816,0.977,2.396,1.117c0.578,0.141,1.053,0.146,1.425,0.017
						c0.189-0.067,0.353-0.216,0.487-0.447c0.301-0.506,0.187-1.22-0.342-2.14L321.493,193.058z"/>
					<path d="M333.686,187.136c-0.072,1.525-0.428,2.614-1.062,3.267c-0.373,0.383-0.81,0.58-1.308,0.59
						c-0.5,0.009-0.938-0.17-1.318-0.539c-0.513-0.499-0.761-1.169-0.741-2.009c0.02-0.84,0.408-2.333,1.168-4.479l-0.677-0.658
						c-0.509-0.495-0.856-0.778-1.041-0.851c-0.186-0.074-0.403-0.081-0.65-0.023s-0.466,0.183-0.65,0.375
						c-0.305,0.312-0.482,0.636-0.541,0.974c-0.033,0.209,0.006,0.369,0.122,0.481c0.101,0.098,0.291,0.152,0.569,0.162
						c0.384,0.018,0.672,0.121,0.862,0.307c0.236,0.229,0.351,0.511,0.347,0.847c-0.006,0.336-0.146,0.646-0.421,0.929
						c-0.293,0.302-0.631,0.467-1.012,0.493c-0.381,0.027-0.692-0.079-0.938-0.316c-0.347-0.336-0.542-0.793-0.592-1.373
						c-0.049-0.579,0.081-1.195,0.391-1.848c0.308-0.652,0.718-1.243,1.23-1.771c0.619-0.638,1.246-1.012,1.879-1.119
						c0.634-0.109,1.161-0.064,1.585,0.133c0.269,0.129,0.765,0.545,1.486,1.25l2.614,2.54c0.308,0.299,0.511,0.474,0.614,0.527
						c0.103,0.053,0.194,0.074,0.28,0.063c0.085-0.01,0.158-0.047,0.218-0.109c0.121-0.125,0.157-0.338,0.105-0.641l0.382-0.048
						c0.123,0.585,0.141,1.084,0.051,1.498c-0.09,0.413-0.292,0.783-0.608,1.109c-0.373,0.383-0.754,0.596-1.146,0.637
						C334.499,187.575,334.098,187.443,333.686,187.136z M333.162,186.625l-2.255-2.19c-0.224,0.912-0.278,1.698-0.165,2.359
						c0.077,0.439,0.248,0.787,0.513,1.043c0.22,0.214,0.491,0.324,0.813,0.329c0.246,0.006,0.475-0.099,0.684-0.315
						C332.986,187.612,333.122,187.203,333.162,186.625z"/>
					<path d="M338.58,167.764l6.114,8.904c0.414,0.602,0.675,0.946,0.782,1.034c0.171,0.152,0.347,0.229,0.531,0.232
						c0.186,0.003,0.438-0.09,0.764-0.28l0.188,0.273l-2.832,2.882l-0.841-1.224c-0.066,0.743-0.193,1.306-0.382,1.687
						c-0.189,0.381-0.477,0.704-0.862,0.97c-0.987,0.678-2.072,0.773-3.251,0.284c-0.956-0.399-1.792-1.12-2.509-2.163
						c-0.571-0.833-0.941-1.677-1.107-2.534c-0.165-0.856-0.114-1.624,0.154-2.303c0.269-0.68,0.688-1.217,1.263-1.61
						c0.369-0.254,0.747-0.408,1.133-0.461c0.386-0.054,0.863-0.013,1.437,0.122l-1.604-2.333c-0.404-0.591-0.675-0.93-0.809-1.017
						c-0.175-0.115-0.356-0.165-0.541-0.151c-0.187,0.014-0.461,0.146-0.824,0.396l-0.239-0.348L338.58,167.764z M339.865,174.602
						c-0.946-0.502-1.714-0.551-2.305-0.146c-0.204,0.14-0.334,0.311-0.392,0.512c-0.087,0.311-0.047,0.727,0.119,1.246
						c0.166,0.52,0.554,1.223,1.164,2.112c0.67,0.977,1.238,1.65,1.703,2.021c0.466,0.371,0.895,0.575,1.287,0.614
						c0.197,0.018,0.408-0.049,0.629-0.201c0.485-0.333,0.683-1.028,0.59-2.085L339.865,174.602z"/>
				</g>
				<g>
					<path d="M23.018,176.58l-1.988,3.209c-0.388,0.626-0.593,1.044-0.617,1.254s0.033,0.424,0.169,0.642
						c0.136,0.219,0.466,0.49,0.99,0.814l-0.196,0.316l-5.882-3.643l0.196-0.316c0.535,0.332,0.928,0.506,1.181,0.525
						s0.466-0.028,0.642-0.14c0.175-0.111,0.457-0.48,0.845-1.106l4.653-7.512c0.388-0.626,0.594-1.044,0.617-1.254
						c0.024-0.209-0.031-0.423-0.165-0.64c-0.133-0.216-0.465-0.489-0.994-0.816l0.196-0.316l5.045,3.125
						c1.662,1.029,2.671,2.063,3.027,3.103s0.26,2.003-0.291,2.891c-0.465,0.751-1.097,1.25-1.895,1.496
						c-0.798,0.246-1.667,0.212-2.606-0.102C25.308,177.904,24.332,177.394,23.018,176.58z M26.528,170.912l-3.098,5.002
						c0.181,0.128,0.319,0.222,0.416,0.281c0.694,0.43,1.357,0.555,1.988,0.375c0.631-0.18,1.214-0.703,1.75-1.568
						c0.532-0.859,0.734-1.604,0.605-2.235c-0.129-0.631-0.566-1.177-1.312-1.639L26.528,170.912z"/>
					<path d="M36.146,182.289c0.583,0.572,0.978,1.255,1.184,2.048c0.207,0.793,0.167,1.595-0.116,2.405
						c-0.284,0.81-0.749,1.544-1.396,2.204c-0.933,0.951-1.955,1.51-3.066,1.676c-1.343,0.202-2.527-0.201-3.555-1.209
						c-1.008-0.989-1.438-2.105-1.289-3.347c0.149-1.241,0.681-2.328,1.595-3.26c0.942-0.96,2.042-1.525,3.3-1.693
						C34.062,180.946,35.176,181.337,36.146,182.289z M35.675,182.826c-0.244-0.239-0.543-0.352-0.898-0.339
						c-0.355,0.013-0.826,0.264-1.413,0.752c-0.587,0.488-1.354,1.215-2.301,2.18c-0.502,0.511-0.938,1.022-1.306,1.532
						c-0.281,0.391-0.421,0.759-0.423,1.104c-0.002,0.345,0.107,0.626,0.328,0.842c0.215,0.211,0.453,0.327,0.713,0.348
						c0.345,0.021,0.692-0.084,1.041-0.315c0.541-0.36,1.489-1.231,2.844-2.612c0.797-0.812,1.299-1.415,1.506-1.807
						c0.207-0.392,0.29-0.745,0.249-1.057C35.989,183.233,35.876,183.023,35.675,182.826z"/>
					<path d="M43.44,191.686l-1.795,1.146c1.153,0.002,1.99,0.116,2.51,0.34c0.52,0.224,0.897,0.519,1.131,0.886
						c0.202,0.316,0.265,0.631,0.191,0.944c-0.074,0.313-0.289,0.583-0.645,0.81c-0.378,0.241-0.73,0.337-1.056,0.287
						c-0.326-0.05-0.572-0.205-0.737-0.464c-0.191-0.299-0.261-0.62-0.209-0.962c0.051-0.343,0.076-0.541,0.073-0.595
						c-0.002-0.078-0.026-0.154-0.073-0.227c-0.104-0.164-0.266-0.279-0.483-0.347c-0.339-0.109-0.725-0.109-1.156-0.001
						c-0.663,0.169-1.324,0.464-1.984,0.885l-1.82,1.161l-0.469,0.311c-0.322,0.206-0.515,0.356-0.58,0.454
						c-0.109,0.165-0.157,0.336-0.143,0.514c0.014,0.177,0.113,0.43,0.298,0.756l-0.305,0.195l-2.728-4.275l0.305-0.194
						c0.248,0.326,0.491,0.499,0.729,0.517c0.238,0.019,0.702-0.191,1.39-0.631l4.376-2.793c0.451-0.288,0.725-0.494,0.82-0.619
						c0.122-0.157,0.186-0.313,0.19-0.467s-0.065-0.375-0.209-0.665l0.313-0.2L43.44,191.686z"/>
					<path d="M50.668,209.277l-3.083,0.883l-0.079-0.332c0.831-0.616,1.366-1.178,1.604-1.685c0.238-0.507,0.307-0.972,0.207-1.395
						c-0.063-0.268-0.207-0.474-0.431-0.621c-0.224-0.146-0.453-0.192-0.688-0.137c-0.176,0.042-0.33,0.146-0.462,0.315
						c-0.218,0.271-0.538,0.963-0.959,2.074c-0.422,1.111-0.823,1.872-1.205,2.281c-0.381,0.41-0.852,0.682-1.412,0.814
						c-0.508,0.12-1.037,0.111-1.585-0.028c-0.549-0.139-1.008-0.408-1.378-0.809c-0.37-0.401-0.621-0.882-0.754-1.442
						c-0.103-0.437-0.104-1.052-0.003-1.846c0.025-0.212,0.03-0.354,0.013-0.426c-0.051-0.215-0.256-0.355-0.616-0.422l-0.076-0.322
						l3.247-0.933l0.079,0.332c-0.791,0.497-1.341,1.051-1.65,1.665c-0.309,0.613-0.41,1.147-0.302,1.604
						c0.074,0.313,0.23,0.545,0.47,0.699c0.24,0.154,0.496,0.198,0.769,0.133c0.313-0.074,0.56-0.236,0.742-0.485
						c0.182-0.249,0.424-0.767,0.727-1.554c0.455-1.16,0.83-1.93,1.125-2.309c0.433-0.556,0.971-0.911,1.616-1.063
						c0.704-0.167,1.398-0.074,2.083,0.276c0.685,0.351,1.136,0.985,1.353,1.904c0.117,0.495,0.11,1.002-0.022,1.521
						c-0.056,0.199-0.071,0.354-0.045,0.464c0.028,0.117,0.075,0.206,0.14,0.266c0.066,0.06,0.231,0.142,0.497,0.244L50.668,209.277
						z"/>
					<path d="M51.274,222.469l-7.35,0.102c-0.716,0.01-1.162,0.083-1.337,0.22c-0.176,0.136-0.284,0.409-0.325,0.818l-0.362,0.005
						l-0.053-3.825l1.255-0.018c-0.542-0.441-0.938-0.884-1.188-1.329s-0.38-0.946-0.388-1.501
						c-0.007-0.529,0.149-1.001,0.468-1.417c0.319-0.417,0.695-0.698,1.128-0.844s1.192-0.228,2.276-0.242l3.725-0.052
						c0.709-0.01,1.15-0.081,1.323-0.214c0.172-0.133,0.282-0.407,0.33-0.823l0.372-0.005l0.053,3.826l-6.416,0.089
						c-0.669,0.009-1.101,0.047-1.294,0.113c-0.193,0.066-0.339,0.168-0.438,0.307c-0.099,0.139-0.146,0.298-0.144,0.479
						c0.003,0.241,0.07,0.458,0.2,0.65c0.178,0.266,0.534,0.582,1.068,0.95l5.02-0.07c0.709-0.01,1.15-0.081,1.323-0.214
						c0.172-0.133,0.282-0.408,0.33-0.823l0.372-0.005L51.274,222.469z"/>
				</g>
			</g>
		</g>
		<g>
			<path fill="#445684" stroke="#000000" d="M280.532,309.279c0,0-6.361,87.379-99.029,87.379
				c-92.667,0-99.029-86.408-99.029-86.408V151.026h198.058V309.279z"/>
			<path fill="#FFFFFF" stroke="#000000" d="M106.324,333.442c8.309-0.461,16.71-7.108,23.08-7.108c6.37,0,14.31,3.971,14.31,3.971
				l3.508-10.063c0,0-6.739-3.232-16.063-4.154c-9.324-0.924-21.787,7.201-24.834,6.832c-3.047-0.369-11.355-3.141-15.51-5.726
				c-2.016-1.254-4.919-0.896-7.378-0.198c0.609,3.299,1.586,7.629,3.114,12.563c0.972-0.254,2.264-0.408,3.986-0.361
				C97.368,329.378,98.016,333.903,106.324,333.442z"/>
			<path fill="#FFFFFF" stroke="#000000" d="M233.357,314.611l-2.399,5.264c0,0-0.187,7.016,6.276,7.016
				c6.461,0,13.939,5.908,20.494,5.908c6.48,0,14.486-5.043,19.129-5.338c1.345-4.582,2.211-8.584,2.765-11.66
				c-7.203,1.875-16.563,7.203-23,7.675C249.053,324.029,240.557,314.705,233.357,314.611z"/>
			<path fill="#C0A264" stroke="#000000" d="M217.939,350.063l28.988-6.188c0,0-2.77-13.387-5.725-14.679
				c-2.953-1.292-1.938-2.769-3.416-6.276c-1.477-3.51-2.215-9.141-2.77-11.078c-0.554-1.938-4.525-8.678-7.388-10.893
				c-2.862-2.217-6.924-8.771-10.894-10.156c-3.971-1.385-7.108-2.492-10.155-3.23c-3.045-0.738-5.539-4.708-7.106-6.093
				c-1.57-1.386-9.785-0.83-12.556-0.738c-2.771,0.093-7.94-2.032-11.541,0.83s-9.047,8.586-11.816,8.862
				c-2.769,0.277-11.447,3.324-12.278,3.231c-0.831-0.092-2.031,8.031-2.678,10.71c-0.647,2.678-3.878,6.368-4.432,10.707
				c-0.554,4.34-0.554,8.125-1.385,9.973c-0.831,1.847-9.601,10.522-10.063,11.447c-0.462,0.924-1.016,3.323-1.016,3.323
				l25.48,13.017l28.434-7.386L217.939,350.063z"/>
			<path fill="#FFFFFF" stroke="#000000" d="M157.022,348.957c0,0,1.803-2.438,2.969-4.24c1.166-1.801,2.226-2.014,3.392-4.239
				s-0.53-6.042,0.53-7.103c1.06-1.062,8.587-7.422,9.541-7.846s2.013-1.482,3.073-2.968s-0.847-2.228,1.591-5.089
				s9.751-5.725,13.78-5.618c0,0-0.955,5.088-1.907,6.571c-0.955,1.484-0.531,2.758,0,3.924c0.528,1.166,2.225,6.148-0.955,9.646
				c-3.181,3.498-5.302,4.238-4.451,7.844c0.849,3.604-0.53,2.543-0.53,2.543L157.022,348.957z"/>
			<path fill="#445684" stroke="#000000" d="M163.701,346.201c0,0,0.424-2.757,1.59-4.135s0.001-5.617,1.272-7.104
				c1.271-1.484,8.691-7.526,10.494-8.799c1.803-1.271,2.545-4.134,2.757-5.83c0.212-1.695,6.997-5.828,6.997-5.512
				c0,0.317-2.438,5.406-2.862,6.254c-0.425,0.848-4.77,7.42-5.194,7.95c-0.424,0.53-4.452,3.923-4.664,5.937
				c-0.212,2.015-1.061,8.162-1.061,8.162l2.65-0.848c0,0,0.211-5.83,0.636-6.996c0.425-1.166,3.181-3.605,4.347-5.089
				s5.725-8.161,5.936-10.282c0,0,1.908,3.817,1.695,6.467c-0.211,2.649-2.225,5.193-4.346,7.313
				c-2.12,2.12-2.226,6.785-2.226,6.785l-4.876,3.073L163.701,346.201z"/>
			<path fill="#445684" stroke="#000000" d="M235.939,351.998c-6.555,0-20.494,7.108-28.063,7.108s-18.739-7.108-25.203-7.108
				c-6.463,0-18.557,7.017-25.574,7.017s-14.401-6.464-24.741-6.464c-10.34,0-20.957,5.908-26.681,5.908
				c-2.234,0-4.041-0.168-5.421-0.375c3.451,4.982,7.564,9.881,12.462,14.428c4.075-1.906,12.847-5.649,18.902-5.649
				c8.124,0,18.925,8.399,25.203,8.399c6.278,0,15.604-7.938,25.02-7.938s18.648,7.294,26.773,7.294
				c8.122,0,17.909-7.107,26.68-7.107c5.683,0,10.998,3.285,14.052,5.604c4.959-4.518,9.139-9.399,12.657-14.388
				c-1.09,0.117-2.303,0.195-3.631,0.195C252.743,358.921,242.495,351.998,235.939,351.998z"/>
			<path fill="#445684" stroke="#000000" d="M208.43,387.08c-8.123,0-17.541-8.309-25.479-8.309c-7.939,0-15.417,8.4-25.573,8.4
				c-10.156,0-17.819-7.108-24.466-7.108c-3.627,0-6.312,0.962-8.009,1.836c13.88,8.792,32.259,14.759,56.601,14.759
				c24.285,0,42.632-6.006,56.501-14.861c-1.977-0.43-4.471-0.81-7.141-0.81C224.678,380.987,216.555,387.08,208.43,387.08z"/>
			<path fill="#FFFFFF" stroke="#000000" d="M265.111,347.197c-8.862,0-20.954-8.125-29.448-8.125
				c-8.492,0-18.463,7.387-28.435,7.387c-9.971,0-15.139-6.371-23.91-6.371c-8.77,0-17.909,6.465-26.033,7.203
				c-8.124,0.737-16.987-8.863-26.312-8.863c-9.325,0-16.895,7.662-25.203,7.939c-4.488,0.149-9.729-1.128-13.601-2.334
				c2.18,4.607,4.841,9.364,8.086,14.051c1.38,0.207,3.187,0.375,5.421,0.375c5.724,0,16.341-5.908,26.681-5.908
				s17.725,6.464,24.741,6.464c7.016,0,19.11-7.017,25.574-7.017c6.463,0,17.633,7.108,25.203,7.108s21.51-7.108,28.064-7.108
				c6.554,0,16.803,6.924,22.434,6.924c1.328,0,2.541-0.077,3.631-0.195c2.799-3.969,5.186-7.999,7.209-11.961
				C267.84,347.035,266.459,347.197,265.111,347.197z"/>
			<path fill="#FFFFFF" stroke="#000000" d="M208.616,374.617c-8.125,0-17.357-7.295-26.773-7.295s-18.741,7.939-25.02,7.939
				c-6.279,0-17.079-8.4-25.203-8.4c-6.056,0-14.827,3.743-18.902,5.65c3.617,3.357,7.66,6.521,12.185,9.388
				c1.697-0.874,4.382-1.836,8.009-1.836c6.646,0,14.311,7.108,24.466,7.108c10.155,0,17.634-8.4,25.573-8.4
				c7.939,0,17.357,8.309,25.48,8.309c8.125,0,16.248-6.093,22.434-6.093c2.67,0,5.164,0.38,7.141,0.81
				c4.174-2.666,7.941-5.586,11.342-8.684c-3.053-2.318-8.369-5.605-14.051-5.605C226.525,367.507,216.738,374.617,208.616,374.617z
				"/>
			<g>
				<path fill="#C0A264" stroke="#000000" d="M146.489,183.334c-11.368,0-20.584,9.216-20.584,20.584s9.216,20.584,20.584,20.584
					c11.368,0,20.584-9.216,20.584-20.584S157.857,183.334,146.489,183.334z M138.068,217.953c-3.322,0-6.015-2.693-6.015-6.015
					s2.692-6.015,6.015-6.015c3.323,0,6.015,2.693,6.015,6.015S141.391,217.953,138.068,217.953z M138.068,202.982
					c-3.322,0-6.015-2.693-6.015-6.015c0-3.322,2.692-6.015,6.015-6.015c3.323,0,6.015,2.693,6.015,6.015
					C144.083,200.289,141.391,202.982,138.068,202.982z M153.707,202.982c-3.322,0-6.015-2.693-6.015-6.015
					c0-3.322,2.692-6.015,6.015-6.015c3.323,0,6.015,2.693,6.015,6.015C159.722,200.289,157.029,202.982,153.707,202.982z"/>
			</g>
			<path fill="#FFFFFF" stroke="#000000" d="M195.068,261.442c0,0,5.125,5.333,7.218,6.483c2.092,1.15,3.346,3.66,3.346,5.752
				s-0.209,5.123-1.465,7.216c-1.254,2.092-5.438,6.798-6.063,8.157c-0.627,1.359-2.511,4.81-1.465,5.646
				c1.047,0.837,4.077,1.466,4.916,1.466c0.836,0,3.346-0.941,3.555-1.779c0.209-0.836-1.359-3.137-1.359-3.137
				s-0.104-1.674,0.838-3.138c0.939-1.464,2.613-5.961,3.764-7.425c1.151-1.465,2.931-5.542,3.349-6.379
				c0.418-0.838,0.209-2.197,0.104-2.721c-0.104-0.521-1.568-6.691-1.675-7.946c-0.104-1.255,0.313-5.544,0.313-5.544
				L195.068,261.442z"/>
			<path fill="#FFFFFF" stroke="#000000" d="M162.651,297.626c0,1.149,0.837,1.567,2.092,1.567c1.255,0,6.171,0.522,6.693-1.987
				c0.522-2.508-1.255-3.031-1.255-3.031s2.51-5.021,2.51-6.693s-1.15-6.379-2.196-8.889s-2.196-12.342-2.092-12.863
				s0.418-3.766,0.418-3.766s0.942-0.418,5.125-0.104c4.183,0.314,8.262,2.51,15.791,2.092c7.529-0.418,19.451-0.104,23.111-5.543
				c3.66-5.438,8.994-19.975,8.994-19.975s5.125,9.412,8.367,9.412c0,0,1.777-7.53-2.719-12.76
				c-4.498-5.229-5.857-5.646-5.857-5.646s-14.535-1.987-22.902-1.674c-8.364,0.313-23.005,2.51-26.353,1.883
				c-3.347-0.627-17.674,0.418-17.15-12.131l-15.688-9.203c0,0-4.6,4.392-4.705,10.144s0.836,15.477,7.215,24.68
				c6.379,9.202,11.816,15.269,11.816,15.269s5.542,10.877,6.588,12.444s5.125,7.948,6.275,10.876s1.674,4.706,1.15,7.216
				C167.355,291.457,162.651,297.626,162.651,297.626z"/>
			<polygon fill="#C0A264" stroke="#000000" points="192.038,168.264 187.732,177.485 179.979,177.511 177.407,181.233 
				185.982,181.233 125.005,311.846 130.443,311.846 190.719,181.221 198.936,181.196 201.195,177.478 192.448,177.476 
				196.745,168.159 			"/>
			<path fill="#FFFFFF" stroke="#000000" d="M160.769,252.761c0,0-10.146,4.078-12.445,5.23c-2.299,1.15-8.993,4.916-8.993,6.588
				c0,1.674-3.032,10.146-3.66,12.235s-1.673,6.587-2.928,8.261c-1.255,1.674-0.733,6.066,2.3,5.021s4.812-3.348,5.334-3.766
				s0.209-1.777-1.255-2.72c0,0,0.836-3.45,1.673-5.751s2.197-8.785,3.033-9.831c0.836-1.045,1.673-2.51,2.928-2.51
				c1.255,0,12.445-0.104,15.164-0.104c2.719,0,7.32,1.256,9.83-2.51c2.51-3.765,2.091-5.646,2.091-5.646"/>
			<path fill="#FFFFFF" stroke="#000000" d="M202.704,246.173c0,0,3.764,9.203,8.573,14.746c4.811,5.541,8.576,9.41,8.576,9.41
				s0.418,8.576-0.104,11.504c-0.521,2.929-0.521,2.929-0.521,2.929s-1.777,5.124-2.406,6.379c-0.627,1.255-4.184,4.603-4.184,5.647
				s1.567,1.149,2.301,1.149c0.732,0,5.858,1.196,7.008-1.673c0.627-1.569-1.15-2.196-1.15-2.196s-0.523-0.731,0.209-2.301
				s1.674-7.845,2.928-12.968c1.256-5.125,3.765-10.25,4.287-10.668c0.523-0.418-1.254-2.821-2.51-8.26
				c-1.254-5.438-1.986-16.522-1.568-20.603s-2.194-6.901-2.194-6.901"/>
			<path fill="#FFFFFF" stroke="#000000" d="M141.004,213.651c0,0-5.751,11.085-11.398,11.294c0,0-0.836-10.772,7.32-16.628
				c0,0-2.405-5.02,0.418-7.843c2.823-2.823,7.006-5.333,11.189-4.392c4.183,0.941,7.111,4.078,8.366,4.915s6.274,8.994,7.216,9.935
				c0.942,0.941,2.719,3.242,1.464,4.392c-1.255,1.15-4.497,2.091-8.68,2.719s-9.412,1.674-11.713,0.837
				S140.69,217.102,141.004,213.651z"/>
			<path fill="none" stroke="#000000" d="M148.429,205.389c0,0,5.753,0.628,6.693,3.242"/>
			<path fill="none" stroke="#000000" d="M140.063,211.246c0,0-4.602,2.51-5.961,8.262"/>
			<path fill="#FFFFFF" stroke="#000000" d="M205.939,200.321c0,0-2.565,4.906-0.688,7.062c1.881,2.155,9.217-0.963,7.016-4.402
				S205.939,200.321,205.939,200.321z"/>
			<g>
				<path fill="#FFFFFF" stroke="#000000" d="M197.975,190.91l1.762-4.885c-4.301,0.329-8.44,0.497-10.018-0.029
					c0,0-0.758,1.759-1.85,4.2C189.553,190.922,193.443,192.192,197.975,190.91z"/>
				<path fill="#FFFFFF" stroke="#000000" d="M216.45,193.46c0.946-1.834,1.762-3.806,1.299-4.454
					c-0.94-1.317-3.011-3.951-6.209-3.951c-0.912,0-2.806,0.168-5.119,0.383l-1.571,4.441
					C204.848,189.879,214.581,189.786,216.45,193.46z"/>
				<path fill="#FFFFFF" stroke="#000000" d="M185.221,195.983c-1.453,3.087-2.949,6.096-3.968,7.696c0,0,1.129,1.128,6.208,1.128
					c1.686,0,3.537-0.313,5.416-0.728l4.182-7.901C197.059,196.179,190.661,198.1,185.221,195.983z"/>
				<path fill="#EE2D2B" stroke="#000000" d="M213.438,198.813l0.924-1.719c-0.288-0.002,0,0,0,0s1.113-1.745,2.089-3.635
					c-1.869-3.674-11.603-3.581-11.603-3.581l1.572-4.441c-2.027,0.188-4.377,0.41-6.684,0.587l-1.762,4.885
					c-4.531,1.282-8.423,0.012-10.105-0.714c-0.766,1.716-1.697,3.766-2.648,5.787c5.439,2.117,11.838,0.196,11.838,0.196
					l-4.182,7.901c2.373-0.524,4.791-1.213,6.977-1.655l2.359-6.36C212.637,195.721,213.438,198.813,213.438,198.813z"/>
			</g>
			<g>
				<path fill="#FFFFFF" stroke="#000000" d="M248.788,198.788c0,0-5.644,3.198-10.347,3.01c-4.702-0.188-8.467-3.198-11.477-3.951
					c-2.617-0.654-10.668-0.742-12.604-0.752l-0.924,1.719c0,0-0.801-3.093-11.226-2.749l-2.358,6.36
					c1.301-0.263,2.52-0.438,3.598-0.438c4.326,0,6.207,0.564,6.207,2.634c0,2.07-4.891,2.069-4.891,2.069s-1.506,4.139,2.633,4.139
					s8.651,0,11.1,0c2.445,0,7.338,0.376,8.654,1.317s14.297,6.396,18.246,0c0,0-3.385,1.505-8.652-0.376
					c-1.654-0.591-3.217-1.349-4.58-2.111c-2.656-0.5-7.049-1.49-9.568-2.941c-3.779-2.176-12.828-1.718-12.828-1.718l2.636-4.238
					c0,0,5.842,0,7.444,0c1.293,0,8.908,3.942,14.334,5.592C239.801,205.957,247.01,204.338,248.788,198.788z"/>
				<path fill="#EE2D2B" stroke="#000000" d="M212.407,200.76l-2.636,4.238c0,0,9.049-0.458,12.828,1.718
					c2.521,1.451,6.912,2.44,9.568,2.941c-2.979-1.663-5.014-3.345-5.014-3.345s3.131,0.315,7.031,0.04
					c-5.427-1.65-13.041-5.592-14.334-5.592C218.249,200.76,212.407,200.76,212.407,200.76z"/>
			</g>
			<line fill="none" stroke="#000000" x1="214.361" y1="197.095" x2="209.771" y2="204.998"/>
		</g>
	</g>
</g>
<rect fill="none" width="363.004" height="450.691"/>
</svg>
