<?xml version="1.0" encoding="UTF-8" standalone="no"?>
<svg
   xmlns:dc="http://purl.org/dc/elements/1.1/"
   xmlns:cc="http://creativecommons.org/ns#"
   xmlns:rdf="http://www.w3.org/1999/02/22-rdf-syntax-ns#"
   xmlns:svg="http://www.w3.org/2000/svg"
   xmlns="http://www.w3.org/2000/svg"
   xmlns:sodipodi="http://sodipodi.sourceforge.net/DTD/sodipodi-0.dtd"
   xmlns:inkscape="http://www.inkscape.org/namespaces/inkscape"
   width="1260"
   height="765"
   viewBox="0 0 1008 612"
   version="1.1"
   id="svg3033"
   inkscape:version="0.48.4 r9939"
   sodipodi:docname="Flag_of_Eagan,_Minnesota.png">
  <metadata
     id="metadata3099">
    <rdf:RDF>
      <cc:Work
         rdf:about="">
        <dc:format>image/svg+xml</dc:format>
        <dc:type
           rdf:resource="http://purl.org/dc/dcmitype/StillImage" />
        <dc:title></dc:title>
      </cc:Work>
    </rdf:RDF>
  </metadata>
  <defs
     id="defs3097" />
  <sodipodi:namedview
     pagecolor="#ffffff"
     bordercolor="#666666"
     borderopacity="1"
     objecttolerance="10"
     gridtolerance="10"
     guidetolerance="10"
     inkscape:pageopacity="1"
     inkscape:pageshadow="2"
     inkscape:window-width="1920"
     inkscape:window-height="1024"
     id="namedview3095"
     showgrid="false"
     inkscape:zoom="0.81988968"
     inkscape:cx="694.28335"
     inkscape:cy="337.01955"
     inkscape:window-x="1366"
     inkscape:window-y="1"
     inkscape:window-maximized="1"
     inkscape:current-layer="svg3033" />
  <g
     id="g3289"
     transform="matrix(1.8480229,0,0,1.8480229,1048.0194,60.953878)">
    <g
       transform="translate(-519.57654,36.595005)"
       id="g3166">
      <g
         id="g3152">
        <g
           id="g3139">
          <g
             id="g3127">
            <path
               style="fill:#010101"
               inkscape:connector-curvature="0"
               id="path3037"
               d="m 73.84,0 2.7,0 c 2.93,1.37 5.32,3.82 8.46,4.7 2.7,-0.15 5.29,-1.42 8.01,-1.09 1.88,0.87 3.36,2.37 5.23,3.25 3.22,0.98 7.04,-0.16 9.9,1.97 1.84,1.3 1.38,3.85 1.85,5.78 2.38,0.29 4.81,0.41 7.11,1.17 1.72,0.95 2.9,2.59 4.43,3.8 2.75,1.21 6.1,1.4 8.23,3.75 1.81,1.82 2.37,4.75 4.74,6 4.07,1.37 8.82,0.19 12.57,2.65 5.37,3.44 11.79,6.76 13.7,13.36 1.12,-0.15 2.23,-0.31 3.37,-0.36 2.23,0.2 2.92,2.6 3.95,4.2 2.2,1.18 5,2.12 5.9,4.71 0.84,2.39 1.14,4.93 1.94,7.34 5.79,-1.1 13,-1.25 17.14,3.68 1.98,3.51 -0.48,7.49 -0.47,11.19 3.53,5.33 11.41,4.18 15.08,9.29 1.33,1.69 1.03,4.28 -0.51,5.73 -3.17,3.23 -7.8,4.69 -12.26,4.55 -0.5,2.19 -0.78,4.46 -1.71,6.52 -1.53,1.75 -4.04,1.98 -5.96,3.15 -3.02,1.82 -5.55,4.81 -9.23,5.26 -1.98,0.01 -3.94,-0.3 -5.91,-0.46 -1.39,2.35 -3.33,4.47 -6.17,4.9 -3.05,0.58 -5.56,3.76 -8.86,2.55 -1.74,-1.07 -2.62,-3.01 -3.75,-4.63 -3,0.5 -6.09,0.45 -9.03,1.28 -0.48,3.01 1.55,7.37 -2.08,9.03 -3.75,1.45 -7.41,-1.13 -11.11,-1.47 -4.07,2.27 -7.47,5.8 -12,7.2 -3.97,0.79 -6.33,4.35 -9.18,6.87 -2.01,2.27 -5.64,4.61 -4.15,8.12 1.78,4.41 3.03,8.97 3.94,13.63 3.88,2.31 6.01,6.67 10.14,8.61 4.4,2.36 7.93,5.95 11.53,9.34 -0.5,0.73 -1,1.45 -1.5,2.18 -3.82,-1.49 -7.8,-2.52 -11.85,-3.12 -0.56,1.77 -1.11,3.55 -1.66,5.32 -5.32,-2.03 -10.51,-4.8 -16.19,-5.63 -2.85,1.22 -4.3,4.15 -5.9,6.61 -1.71,-2.41 -3.38,-4.93 -5.73,-6.77 -3.42,-0.33 -6.53,1.51 -9.61,2.72 -0.42,-0.45 -1.27,-1.36 -1.69,-1.81 0.72,-1.24 1.43,-2.49 2.14,-3.73 -4.76,0.72 -9.45,1.85 -14.1,3.12 3.43,-5.47 8.27,-9.79 13.64,-13.28 5.06,-2.92 7.09,-10.22 4.26,-15.29 -1.55,-3.13 -1.17,-7.44 -4.38,-9.56 -4.66,-2.99 -7.53,-7.93 -12.02,-11.12 -3.96,-2.78 -7.15,-6.46 -9.83,-10.44 -2.27,0.76 -4.59,1.81 -7.05,1.44 -2.52,-0.17 -4.15,-2.33 -5.98,-3.79 -1.93,0.59 -3.83,1.65 -5.91,1.46 -1.99,-0.93 -3.35,-2.79 -4.99,-4.2 -1.95,1.36 -4.03,2.55 -6.33,3.23 -0.59,-2.47 -0.95,-4.97 -1.24,-7.49 -1.8,0.02 -3.62,0.15 -5.4,-0.14 -1.42,-2.32 -2.18,-5.09 -4.25,-6.96 -1.97,-2.06 -4.78,-4.1 -4.47,-7.32 -0.19,-5.29 4.05,-8.98 6.42,-13.26 2.49,-4.13 3.79,-9.17 7.64,-12.34 2.9,-2.51 7.24,-3.24 9.28,-6.71 1.54,-2.59 0.67,-6.65 3.83,-8.08 1.26,-0.8 2.61,-1.49 3.76,-2.46 1.19,-2.62 0.99,-5.75 2.65,-8.18 1.88,-1.92 4.78,-2.31 6.78,-4.09 0.54,-3.28 0.35,-6.74 1.69,-9.86 0.9,-2.42 2.79,-4.48 3,-7.14 0.37,-2.01 0,-4.41 1.56,-5.99 2.24,-2.19 5.74,-1.91 8.19,-3.71 C 68.92,6.27 69.93,1.8 73.84,0 z" />
            <path
               style="fill:#018748"
               inkscape:connector-curvature="0"
               id="path3039"
               d="m 73.53,3.51 c 3.04,-1.49 5.6,1.63 8.16,2.79 3.12,2.27 6.85,0.17 10.26,0.11 1.9,0.65 3.3,2.24 5.15,2.99 2.98,0.74 6.11,0.58 9.08,1.33 0.86,1.94 0.92,4.24 2.18,5.99 2.25,1.26 5.07,0.74 7.49,1.6 1.68,1.15 2.93,2.83 4.61,3.99 2.19,0.96 4.76,1.05 6.78,2.43 2.24,2.42 3.26,6.24 6.68,7.37 4.05,1.2 8.73,0.06 12.37,2.61 3.58,2.29 7.36,4.52 10.11,7.83 1.77,1.93 0.94,4.7 1.02,7.05 0.58,0 1.74,0.01 2.32,0.01 1.36,-0.75 2.71,-1.5 4.08,-2.24 1.06,3.51 4.27,5.01 7.12,6.78 1.82,2.92 0.65,7.93 4.45,9.42 5.03,0.51 11.38,-1.59 15.23,2.77 1.63,3.69 -2.35,8.27 0.19,11.91 3.43,4.96 10.41,4.59 14.61,8.5 1.29,2.31 -1.51,3.51 -3.1,4.54 -2.72,1.65 -6.08,1.04 -8.95,2.17 -1.61,2.03 -1.53,4.91 -2.75,7.18 -3.33,1.51 -6.56,3.22 -9.36,5.62 -2.93,2.61 -7.03,0.56 -10.43,1.51 -1.93,1.58 -3.18,4.23 -5.92,4.52 -2.42,0.53 -4.42,2.02 -6.38,3.45 -1.14,-1.84 -2.23,-3.7 -3.3,-5.58 -4.08,0.39 -8.42,0.17 -12.24,1.84 -2.9,2.02 -1.19,6.06 -1.29,8.98 -3.98,0 -7.75,-2.1 -11.71,-1.66 -4.72,2.26 -8.31,6.79 -13.76,7.48 -1.32,-0.85 -2.46,-2.26 -4.15,-2.31 -4.3,-0.56 -8.63,-0.92 -12.94,-1.42 -1.97,-4.84 -7.21,-7.13 -12.22,-6.3 -1.44,-0.63 -2.87,-1.28 -4.29,-1.94 -0.47,-1.33 -0.86,-2.68 -1.48,-3.94 -2.92,-1.08 -6.11,-1.48 -8.73,-3.27 -2.53,-1.7 -5.38,-2.82 -8.39,-3.3 -0.04,-0.76 -0.13,-2.26 -0.17,-3.01 -3.04,-0.23 -6.09,-0.1 -9.14,-0.09 2.53,2.07 4.3,6.79 8.24,5.52 -0.2,2.36 -0.37,4.72 -0.52,7.09 -1.4,-1.09 -2.75,-2.28 -4.31,-3.14 -2.07,0.85 -3.96,2.11 -6.09,2.81 -3.19,0.35 -5.38,-2.55 -7.85,-4.08 -1.76,0.63 -3.52,1.26 -5.27,1.9 -1.6,-1.41 -3.05,-3.12 -5.02,-4.04 -1.87,-0.54 -3.48,0.87 -5.09,1.57 -0.41,-2.24 -1.06,-4.43 -2.05,-6.48 -1.61,0.07 -3.22,0.27 -4.83,0.17 -1.73,-3.84 -4.82,-6.66 -7.48,-9.81 -1.32,-3.97 1.65,-7.49 3.73,-10.56 2.83,-3.73 4.34,-8.22 6.78,-12.18 2.67,-4.21 8.28,-4.93 11.34,-8.75 1.74,-2.06 1.77,-4.91 2.75,-7.33 1.7,-1.64 4.01,-2.52 5.6,-4.29 1.29,-2.36 1.27,-5.19 2.31,-7.66 2.23,-1.87 5.53,-2.36 7.2,-4.88 1.04,-3.99 0.4,-8.44 2.8,-12.05 1.97,-3.02 2.12,-6.66 2.95,-10.06 2.18,-1.81 5.36,-1.71 7.65,-3.38 2.61,-2.2 3.69,-5.6 5.97,-8.08 z" />
            <path
               style="fill:#010101"
               inkscape:connector-curvature="0"
               id="path3041"
               d="m 103.6,93.01 c 1.47,-1.33 2.58,-2.98 3.8,-4.53 0.29,1.75 0.58,3.5 0.88,5.25 1.56,0.69 3.87,0.62 4.48,2.56 0.03,2.08 -1.66,3.93 -3.76,3.99 -2.93,0.05 -5.8,-0.68 -8.7,-1.03 0.14,-0.77 0.42,-2.31 0.56,-3.08 -2.62,1.18 -3.62,3.76 -4.34,6.35 -2.56,-2.2 -1.94,-6.48 0.48,-8.5 2.17,-0.54 4.45,-0.4 6.6,-1.01 z" />
            <path
               style="fill:#010101"
               inkscape:connector-curvature="0"
               id="path3043"
               d="m 70.62,99.7 c 1.82,-4.38 6.98,-5.28 11.05,-6.37 -0.01,1.53 -0.13,3.05 -0.37,4.56 -3.11,2.14 -7.09,1.81 -10.68,1.81 z" />
            <path
               style="fill:#010101"
               inkscape:connector-curvature="0"
               id="path3045"
               d="m 81.76,105.73 c -1.11,-4.31 -0.73,-8.88 2.5,-12.23 0.83,2.33 1.15,4.79 1.22,7.25 0.74,0.92 1.49,1.84 2.24,2.76 -1.65,1.53 -3.72,2.23 -5.96,2.22 z" />
            <path
               style="fill:#010101"
               inkscape:connector-curvature="0"
               id="path3047"
               d="m 113.98,100.08 c 2.89,-1.86 6.65,-1.88 9.53,-3.91 1.81,1.59 3.14,3.53 2.06,5.97 1.55,0.37 2.88,1.2 4.02,2.31 3.47,-1.39 6.79,-3.35 10.53,-3.97 0.5,0.55 1.5,1.66 2,2.21 1.07,-0.09 2.14,-0.18 3.22,-0.28 0.73,0.87 1.45,1.75 2.18,2.63 -0.33,0.58 -0.98,1.74 -1.31,2.32 -7.07,0.32 -14.18,0.04 -21.16,1.42 -0.44,-1.25 -0.88,-2.51 -1.31,-3.76 -0.54,2.63 -0.13,6.39 -3.21,7.51 -3.66,1.38 -6.23,-3.62 -5.68,-6.58 1.59,-1.56 4.05,-1.07 6.07,-1.48 -0.25,-0.3 -0.73,-0.89 -0.97,-1.19 -2.07,-0.89 -4.18,-1.8 -5.97,-3.2 z" />
            <path
               style="fill:#010101"
               inkscape:connector-curvature="0"
               id="path3049"
               d="m 71.41,102.8 c 1.96,-3.85 6.56,-2.17 9.2,0.02 -1.67,3.96 -6.42,0.86 -9.2,-0.02 z" />
            <path
               style="fill:#010101"
               inkscape:connector-curvature="0"
               id="path3051"
               d="m 98.09,102.15 c 2.68,-2.41 6.21,-0.81 8.94,0.59 -0.15,3.25 -3.26,3.47 -5.44,4.81 -1.54,1.99 -2.38,4.69 -4.93,5.66 -1.49,-3.61 -2.12,-8.41 1.43,-11.06 z" />
            <path
               style="fill:#ffffff"
               inkscape:connector-curvature="0"
               id="path3053"
               d="m 67.65,107.24 c 0.96,1.54 1.22,3.34 1.65,5.07 1.2,-0.57 2.33,-1.29 3.56,-1.77 -0.96,3.62 -5.06,5.68 -5.75,9.61 2.31,0.68 4.49,1.74 6.8,2.41 3.63,-0.54 5.79,-3.95 8.79,-5.72 -0.63,2.22 -1.61,4.31 -2.56,6.4 2.14,1.01 4.42,1.82 6.31,3.28 1.56,1.93 2.65,4.28 4.82,5.67 0.97,-4.34 -0.76,-8.64 -0.55,-13 1.2,1.9 2.04,3.98 3.09,5.96 0.63,-0.55 1.88,-1.66 2.51,-2.21 0.98,2.8 -1.48,5.26 -0.97,8.1 0.07,2.15 0.48,6.19 3.47,5.72 2.73,-3.34 1.26,-7.82 0.58,-11.59 2.5,1.57 3.54,4.43 5.21,6.72 2.98,-1.71 5.92,-3.64 9.39,-4.22 -3.15,3.92 -7.31,6.91 -10.3,10.97 -2.29,3.27 -0.27,7.26 0.99,10.53 1.55,3.23 1,7.16 3,10.19 1.64,1.64 3.71,2.83 5.11,4.73 2.87,4.19 8.21,5.23 11.79,8.66 -2.82,-0.29 -5.65,-0.68 -8.49,-0.42 -0.53,1.26 -1.06,2.52 -1.59,3.78 -4.46,-1.63 -8.82,-3.68 -13.5,-4.6 -3.01,-0.14 -5.06,2.39 -6.97,4.33 -1.26,-1.43 -2.44,-2.98 -4.03,-4.07 -2.63,-1.14 -5.47,0.07 -8.06,0.76 -0.29,-1.43 -0.07,-3.4 -1.92,-3.79 -2.58,-0.17 -5.09,0.67 -7.64,0.93 4.63,-4.71 12.45,-6.93 14.01,-14.05 0.82,-3.17 1.81,-6.9 -0.17,-9.84 -2.18,-3.25 -1.33,-7.88 -4.4,-10.62 -2.32,-2 -5.04,-3.55 -6.89,-6.05 -3.86,-4.88 -9.62,-7.75 -13.42,-12.68 1.94,-0.09 3.89,0.01 5.83,-0.11 0.48,-3.03 -0.69,-6.09 0.3,-9.08 z" />
            <path
               style="fill:#010101"
               inkscape:connector-curvature="0"
               id="path3055"
               d="m 122.8,112.09 c 4.23,-3.01 9.84,-4.11 14.87,-2.72 -0.11,1.19 -0.22,2.38 -0.33,3.57 -0.89,-0.35 -2.66,-1.03 -3.55,-1.37 -3.38,1.09 -6.15,3.62 -9.61,4.44 -1.26,-0.99 -2.32,-2.29 -1.38,-3.92 z" />
          </g>
        </g>
      </g>
    </g>
    <g
       transform="translate(-303.23439,-58.301037)"
       id="g3181">
      <path
         style="fill:#010101"
         inkscape:connector-curvature="0"
         d="m 5.43,205.42 c 2.31,-2.63 5.82,-1.59 8.58,-0.42 1.07,-0.61 2.14,-1.21 3.22,-1.79 0.17,7.06 -0.02,14.13 0.09,21.2 -1.33,-0.01 -2.66,-0.01 -3.99,-0.02 -0.41,-6.31 1.69,-13.99 -3.41,-18.92 -2.85,3.91 -2.77,8.91 -3.15,13.52 -0.35,9.34 -0.32,18.7 0.02,28.04 0.4,4.79 0.21,9.98 3.09,14.1 1.42,-1.43 3.05,-2.9 3.24,-5.04 0.5,-4.62 0.13,-9.27 0.21,-13.9 1.33,0 2.65,-0.01 3.98,-0.01 -0.19,5.65 0.65,11.51 -1.22,16.97 -1.83,5.26 -10.22,4.84 -12.27,-0.07 C 0.82,253.04 0.63,246.05 0,239.45 L 0,224.8 c 1.12,-6.52 0.68,-14.22 5.43,-19.38 z"
         id="path3057" />
      <path
         style="fill:#010101"
         inkscape:connector-curvature="0"
         d="m 100.63,206.12 c 2.75,-3.87 10.9,-3.41 11.73,1.84 0.29,2.28 -0.36,6.04 -3.42,5.6 -3.39,-1.2 -1.08,-4.97 -0.24,-7.22 -1.15,-0.08 -2.3,-0.14 -3.45,-0.18 -0.19,3.99 -0.1,7.98 -0.09,11.97 1.11,0.02 2.23,0.05 3.35,0.09 -0.08,0.48 -0.23,1.44 -0.3,1.92 -0.72,0.17 -2.15,0.51 -2.86,0.68 -0.16,2.05 -0.22,4.1 -0.23,6.16 0.17,11.02 -0.22,22.05 0.19,33.06 0.58,0.27 1.76,0.82 2.35,1.09 0.05,0.43 0.15,1.29 0.2,1.72 -3.75,-0.04 -7.52,0.11 -11.26,-0.23 1.11,-1.19 2.43,-2.16 3.49,-3.39 0.24,-8.74 0.02,-17.5 0.09,-26.24 -0.08,-4.01 0.33,-8.07 -0.5,-12.03 -1.75,-0.26 -2.97,-1.14 -3.66,-2.65 1.39,-0.08 2.78,-0.14 4.17,-0.17 0.15,-4 -0.45,-8.08 0.44,-12.02 z"
         id="path3059" />
      <path
         style="fill:#010101"
         inkscape:connector-curvature="0"
         d="m 121.68,204.99 c 0.56,-0.31 1.69,-0.95 2.26,-1.27 6.08,-0.12 12.17,-0.02 18.26,-0.03 -0.45,6.67 -0.09,13.33 -0.05,20 -1.34,0.03 -2.69,0.05 -4.03,0.08 -0.18,-5.11 0.64,-10.37 -0.76,-15.36 -0.96,-2.28 -3.65,-2.31 -5.7,-2.8 -0.84,8.69 -0.24,17.47 -0.35,26.19 1.19,-0.4 3.32,-0.02 3.19,-1.87 0.09,-1.39 0.14,-2.78 0.13,-4.16 0.68,-0.01 2.02,-0.01 2.7,-0.02 -0.02,4.97 -0.02,9.93 0,14.9 -0.91,0 -1.83,0.01 -2.74,0.03 -0.03,-1.98 -0.07,-3.95 -0.18,-5.91 -1.03,-0.23 -2.06,-0.45 -3.09,-0.65 0.04,8.91 -0.43,17.86 0.29,26.75 2.06,-0.19 4.67,-0.18 5.67,-2.4 1.52,-5.1 0.64,-10.51 0.84,-15.75 1.24,-0.02 2.47,-0.04 3.71,-0.06 0.16,6.72 0.63,13.45 0.04,20.17 -6.49,-0.03 -12.98,0.07 -19.48,-0.04 -0.51,-2.01 1.61,-2.17 2.95,-2.79 0.1,-17.74 0.06,-35.49 0.02,-53.23 -1.23,-0.58 -2.46,-1.18 -3.68,-1.78 z"
         id="path3061" />
      <path
         style="fill:#010101"
         inkscape:connector-curvature="0"
         d="m 22.68,206.67 c 4.04,-2.43 6.84,4.42 3.23,6.52 -3.97,1.97 -6.43,-4.35 -3.23,-6.52 z"
         id="path3063" />
      <path
         style="fill:#010101"
         inkscape:connector-curvature="0"
         d="m 34.17,206.22 c 1.37,0 2.74,0 4.11,0 -0.01,4 -0.02,7.99 0.01,11.99 1.43,-0.05 2.86,-0.09 4.3,-0.13 l -0.03,1.81 c -1.56,0.65 -4.8,0.5 -4.25,3.06 0.12,12.82 -0.41,25.68 0.25,38.48 2.87,-1.89 1.17,-5.83 1.6,-8.66 1.12,-0.03 2.25,-0.07 3.37,-0.09 -0.17,2.75 0.47,5.71 -0.53,8.34 -1.98,4.25 -9.74,2.7 -9.54,-2.14 -0.12,-12.4 -0.02,-24.81 -0.04,-37.21 -1.5,-0.92 -3.01,-1.82 -4.5,-2.74 1.52,-0.64 3.07,-1.22 4.62,-1.78 1.03,-3.56 0.63,-7.28 0.63,-10.93 z"
         id="path3065" />
      <path
         style="fill:#010101"
         inkscape:connector-curvature="0"
         d="m 19.17,218.14 c 2.53,0.01 5.07,0.02 7.6,0.01 0.08,13.7 -0.1,27.41 0.08,41.11 0.94,1.12 2.21,1.88 3.25,2.9 -3.57,1.46 -7.8,0.47 -11.62,0.45 0.71,-1.31 1.98,-2.02 3.27,-2.63 0.18,-13.06 0.12,-26.13 0.04,-39.19 -0.63,-0.18 -1.89,-0.52 -2.52,-0.69 -0.03,-0.49 -0.08,-1.47 -0.1,-1.96 z"
         id="path3067" />
      <path
         style="fill:#010101"
         inkscape:connector-curvature="0"
         d="m 44.3,218.31 c 6.78,-0.3 13.57,-0.02 20.35,-0.18 -0.05,0.5 -0.16,1.5 -0.21,2 -0.66,0.15 -1.98,0.46 -2.64,0.61 -2.08,17.14 -3.91,34.33 -5.91,51.48 -0.06,2.21 -1.83,3.62 -3.48,4.78 l -4.62,0 c -3.98,-2.61 -3.91,-8.61 0.28,-11 2.69,2.52 1.24,6.02 0.74,9.11 1.23,-0.69 3.59,-0.56 3.62,-2.46 0.47,-4.19 0.32,-8.42 -0.17,-12.6 -1.47,-12.03 -2.64,-24.1 -4.02,-36.15 0.2,-2.66 -2.46,-3.84 -3.94,-5.59 z"
         id="path3069" />
      <path
         style="fill:#010101"
         inkscape:connector-curvature="0"
         d="m 83.52,218.69 c 2.63,-1.04 6.31,-0.9 7.98,1.73 2.22,3.42 2.23,7.7 2.69,11.62 0.15,7.96 0.5,16 -0.89,23.87 -0.58,2.59 -1.59,5.67 -4.32,6.66 -2.32,0.55 -5.35,0.57 -6.95,-1.51 -1.53,-1.99 -2.03,-4.54 -2.41,-6.97 -1,-9.37 -1.09,-18.86 0.12,-28.21 0.5,-2.66 1.27,-5.73 3.78,-7.19 z"
         id="path3071" />
      <path
         style="fill:#010101"
         inkscape:connector-curvature="0"
         d="m 146.4,222.02 c 1.97,-5.2 11.03,-5.5 12.92,-0.11 0.9,2.58 1.01,5.35 1.04,8.07 0.03,9.32 -0.05,18.63 0.02,27.95 -0.31,1.78 1.78,2.18 2.84,3.1 -0.01,0.65 -0.02,1.3 -0.03,1.96 -2.16,-0.08 -4.3,-0.44 -6.27,-1.36 -2.59,0.9 -5.54,1.92 -8.18,0.66 -3.19,-1.88 -3.55,-5.98 -3.5,-9.3 -0.16,-5.26 1.89,-10.45 5.36,-14.36 1.57,-1.85 3.54,-3.4 4.6,-5.63 0.43,-3.59 0.42,-7.28 -0.02,-10.87 -1.05,-2.87 -5.19,-1.63 -5.71,0.96 -1.18,3.22 0.79,6.12 2.06,8.91 0.66,3.08 -4.67,3.87 -5.38,0.91 -1.07,-3.45 -1.04,-7.48 0.25,-10.89 z"
         id="path3073" />
      <path
         style="fill:#010101"
         inkscape:connector-curvature="0"
         d="m 167.53,220.52 c 1.58,-2.73 5.34,-2.87 7.98,-1.84 2.47,1.21 3.33,4.03 3.74,6.54 1.23,9.8 1.3,19.75 -0.01,29.55 -0.53,2.74 -1.36,5.79 -3.77,7.51 -2,0.74 -4.19,0.48 -6.27,0.6 -0.3,1.58 -0.57,3.17 -0.82,4.77 4.95,1.17 10.12,-0.05 15.03,1.17 2.35,0.69 2.99,3.16 3.53,5.25 -1.6,1.04 -3.2,2.09 -4.93,2.93 l -13.19,0 c -1.56,-0.81 -2.99,-1.83 -4.41,-2.83 0.7,-1.27 1.43,-2.52 2.18,-3.76 -2.55,-2.94 -0.93,-6.54 0.41,-9.62 -2.82,-9 -2.25,-18.56 -2.15,-27.86 0.42,-4.19 0.4,-8.73 2.68,-12.41 z"
         id="path3075" />
      <path
         style="fill:#010101"
         inkscape:connector-curvature="0"
         d="m 183.93,221.12 c 1.86,-3.36 6.32,-3.49 9.57,-2.47 3.38,1.74 3.82,5.96 3.89,9.34 0.09,10.42 -0.04,20.85 0.05,31.27 0.96,0.55 1.92,1.1 2.89,1.66 -0.04,0.69 -0.07,1.39 -0.1,2.09 -2.16,-0.1 -4.3,-0.46 -6.27,-1.36 -2.58,0.85 -5.54,1.9 -8.15,0.63 -3.16,-1.89 -3.51,-5.99 -3.51,-9.3 -0.14,-5.7 2.29,-11.29 6.26,-15.33 1.69,-1.94 4.23,-3.78 3.94,-6.67 -0.33,-3.41 1.13,-7.62 -1.43,-10.38 -2.71,-0.86 -5.05,1.72 -4.82,4.33 -0.5,3.33 2.83,5.72 2.28,9.07 -0.64,0.22 -1.91,0.65 -2.54,0.87 -0.56,-0.16 -1.69,-0.46 -2.25,-0.62 -1.54,-4.15 -1.91,-9.11 0.19,-13.13 z"
         id="path3077" />
      <path
         style="fill:#010101"
         inkscape:connector-curvature="0"
         d="m 202.21,218.08 c 2.81,0.05 5.62,0.1 8.41,0.37 2.3,-0.09 5.14,-0.9 6.97,0.98 2.84,2.73 2.05,7.05 2.19,10.59 0.15,10.14 -0.42,20.32 0.34,30.44 0.72,0.11 2.16,0.34 2.88,0.46 l 0,1.95 c -6.93,-0.05 -13.87,-0.12 -20.8,-0.01 0.03,-0.49 0.1,-1.47 0.14,-1.97 0.62,-0.12 1.85,-0.38 2.47,-0.5 0.5,-13.22 0.46,-26.48 0.02,-39.69 -0.63,-0.15 -1.88,-0.44 -2.51,-0.58 -0.03,-0.51 -0.08,-1.53 -0.11,-2.04 z"
         id="path3079" />
      <path
         style="fill:#ffffff"
         inkscape:connector-curvature="0"
         d="m 53.14,219.84 c 1.33,-0.04 2.67,-0.05 4.01,-0.03 1.03,3 0.31,6.16 0.05,9.22 -0.89,6.76 -1,13.61 -2.21,20.33 -0.81,-7.1 -1.21,-14.25 -1.79,-21.37 -0.19,-2.57 -0.94,-5.23 0.18,-7.7 l -0.24,-0.45 z"
         id="path3081" />
      <path
         style="fill:#ffffff"
         inkscape:connector-curvature="0"
         d="m 84.9,221.92 c 0.55,-0.5 1.64,-1.48 2.19,-1.97 2.61,4.21 1.9,9.37 2.14,14.09 -0.17,7.97 0.46,16 -0.66,23.92 0.26,1.58 -2.33,4.06 -3.26,1.79 -1.29,-1.98 -0.93,-4.51 -1.09,-6.75 0.13,-5.67 -0.71,-11.34 -0.17,-17.01 0.43,-4.67 -0.38,-9.5 0.85,-14.07 z"
         id="path3083" />
      <path
         style="fill:#ffffff"
         inkscape:connector-curvature="0"
         d="m 170.48,223.94 c 0.18,-1.47 0.99,-2.75 1.56,-4.07 3.12,2.42 2.5,6.63 2.77,10.11 0.48,8.95 0.29,17.93 -0.36,26.87 0.07,1.84 -1.24,3.12 -2.47,4.31 -2.17,-3.69 -1.8,-8.1 -2.15,-12.2 0.02,-8.34 -0.45,-16.73 0.65,-25.02 z"
         id="path3085" />
      <path
         style="fill:#ffffff"
         inkscape:connector-curvature="0"
         d="m 209.85,225.97 c -0.25,-2.46 0.91,-6.78 4.22,-5.17 0.85,1.59 0.78,3.43 0.83,5.18 -0.01,9.01 -0.03,18.01 0,27.02 -0.05,2.83 0.35,5.79 -0.9,8.44 -1.24,-0.2 -2.46,-0.43 -3.67,-0.69 -1.04,-11.55 -0.2,-23.2 -0.48,-34.78 z"
         id="path3087" />
      <path
         style="fill:#ffffff"
         inkscape:connector-curvature="0"
         d="m 150.41,249.92 c 0.21,-4.61 1.98,-9.08 4.96,-12.6 0.17,7.37 0.05,14.73 0.06,22.1 -1.19,0.49 -2.39,0.96 -3.6,1.42 -2,-3.29 -1.53,-7.26 -1.42,-10.92 z"
         id="path3089" />
      <path
         style="fill:#ffffff"
         inkscape:connector-curvature="0"
         d="m 187.54,249.11 c 0.28,-4.36 2.2,-8.42 4.89,-11.79 0.08,7.31 0.22,14.63 -0.05,21.93 -1.07,0.73 -2.24,1.28 -3.5,1.64 -2.08,-3.57 -1.51,-7.84 -1.34,-11.78 z"
         id="path3091" />
      <path
         style="fill:#ffffff"
         inkscape:connector-curvature="0"
         d="m 167.77,273.05 c 4.5,-3.07 10.48,-1.44 15.58,-1.14 -0.34,1.78 -1.48,2.79 -3.35,2.47 -4.09,-0.13 -8.52,0.88 -12.23,-1.33 z"
         id="path3093" />
    </g>
  </g>
</svg>
