<?xml version="1.0" encoding="utf-8"?>
<!-- Generator: Adobe Illustrator 12.0.0, SVG Export Plug-In . SVG Version: 6.00 Build 51448)  -->
<!DOCTYPE svg PUBLIC "-//W3C//DTD SVG 1.1//EN" "http://www.w3.org/Graphics/SVG/1.1/DTD/svg11.dtd" [
	<!ENTITY ns_svg "http://www.w3.org/2000/svg">
	<!ENTITY ns_xlink "http://www.w3.org/1999/xlink">
]>
<svg  version="1.1" id="Layer_1" xmlns="&ns_svg;" xmlns:xlink="&ns_xlink;" width="1600" height="1000" viewBox="0 0 1600 1000"
	 overflow="visible" enable-background="new 0 0 1600 1000" xml:space="preserve">
<g>
	<rect fill="#FFFFFF" width="1600" height="1000"/>
	<polyline fill="#E3303C" points="694.028,369.086 652.276,116.185 739.728,163.455 798.029,60.245 860.275,148.485 946.146,94.121 
		897.298,369.872 1006.027,290.3 1019.412,337.567 1143.896,312.356 1095.053,393.508 1182.501,432.114 929.604,632.232 
		960.322,701.565 834.276,651.93 824.026,822.104 781.48,822.104 779.12,651.144 630.214,706.293 671.187,644.056 417.49,435.266 
		508.094,410.052 494.703,294.237 570.337,322.6 582.939,265.875 694.028,369.086 	"/>
	<path fill="#FFFFFF" d="M799.605,526.661h44.116c0,0,2.366-36.244,32.312-36.244c29.936,0,33.873,41.758,33.873,41.758
		c9.454,0,48.847-18.125,48.847-67.756c0-26-24.429-65.393-65.391-65.393c-40.972,0-53.568,25.208-53.568,25.208
		c22.842-74.848-7.884-143.387-40.188-181.206c-32.298,37.819-63.029,106.358-40.182,181.206c0,0-12.602-25.208-53.574-25.208
		c-40.967,0-65.395,39.393-65.395,65.393c0,49.631,39.396,67.756,48.852,67.756c0,0,3.942-41.758,33.878-41.758
		c29.936,0,32.303,36.244,32.303,36.244H799.605"/>
	<path fill="#FFFFFF" d="M799.605,559.75h43.33c0,0,0,48.06-43.33,72.482c-43.328-24.423-43.328-72.482-43.328-72.482H799.605"/>
	<polyline fill="#FFFFFF" points="799.605,537.703 734.216,537.703 734.216,550.31 864.996,550.315 864.996,537.703 
		799.605,537.703 	"/>
	<path fill="#212020" d="M844.123,452.989c0,4.816,11.419-1.963,12.606-5.905c1.179-3.938-9.847-16.545-19.302-18.912
		c-9.455-2.364-20.49-1.969-29.15,7.486c-8.672,9.457-11.819,20.09-12.202,29.944c-5.518-3.545-10.648-5.121-16.161-6.31
		c-0.397-12.602-0.444-29.501,1.179-44.121c0.79-7.089,4.333-14.177,8.271-16.544c3.942-2.364,20.886-4.729,21.269,17.729
		c7.099-1.973,11.036-1.575,13.403-6.306c2.354-4.726-4.341-17.333-15.366-21.269c-11.033-3.942-24.42-5.123-32.305,7.089
		c-7.879,12.211-10.634,29.936-11.424,55.154c-7.485,0.393-18.911,0-18.512,6.304c0.393,6.298,15.366,6.298,15.366,6.298
		s16.937,13.79,34.663,14.974c1.576,6.69,13.792,21.271,30.336,21.271c16.545,0,31.114-11.429,31.509-14.973
		c0.391-3.544-2.761-6.696-4.331-6.696s-9.456,9.848-21.67,9.455c-12.213-0.393-18.124-14.177-17.721-24.03
		c0.393-9.847,7.088-22.456,18.114-26.001C843.731,434.082,844.123,446.294,844.123,452.989"/>
	<g>
		<path d="M232.894,706.457l10.609,15.512c-4.104,3.174-8.227,5.264-12.371,6.273c-4.145,1.008-8.258,0.977-12.338-0.096
			s-8.439-3.473-13.076-7.203c-5.626-4.523-9.564-9.037-11.814-13.541s-3.014-9.857-2.29-16.059
			c0.723-6.201,3.669-12.516,8.837-18.943c6.891-8.568,14.464-13.32,22.72-14.26c8.256-0.938,16.55,1.943,24.883,8.645
			c6.52,5.244,10.585,10.684,12.196,16.32s1.127,11.916-1.452,18.834l-16.651-8.217c0.773-1.975,1.184-3.543,1.229-4.709
			c0.09-1.943-0.248-3.766-1.013-5.465c-0.765-1.701-1.947-3.195-3.547-4.482c-3.625-2.914-7.576-3.689-11.854-2.322
			c-3.202,0.992-6.668,3.807-10.396,8.443c-4.619,5.744-6.915,10.381-6.886,13.912c0.028,3.531,1.62,6.564,4.774,9.102
			c3.06,2.461,6.063,3.461,9.011,3.002S229.556,709.162,232.894,706.457z"/>
		<path d="M281.121,693.392l16.792,11.9l-38.427,54.224l-16.792-11.9L281.121,693.392z"/>
		<path d="M306.939,712.006l52.739,33.383l-8.775,13.865l-17.695-11.201l-26.765,42.283l-17.35-10.982l26.765-42.283l-17.694-11.199
			L306.939,712.006z"/>
		<path d="M361.94,746.915l20.047,10.86l1.11,26.12l22.484-13.338l19.929,10.796l-41.114,21.649l-13.257,24.472l-18.094-9.802
			l13.257-24.472L361.94,746.915z"/>
		<path d="M446.462,827.969c4.095-10.051,10.082-16.734,17.962-20.053c7.88-3.316,16.817-2.939,26.812,1.131
			c10.246,4.176,17.02,10.143,20.321,17.902s2.934,16.594-1.104,26.504c-2.932,7.193-6.546,12.6-10.844,16.219
			s-9.257,5.775-14.878,6.473s-11.847-0.346-18.677-3.129c-6.943-2.828-12.238-6.275-15.887-10.34
			c-3.648-4.066-5.91-9.066-6.787-15.006S443.53,835.164,446.462,827.969z M465.45,835.803c-2.532,6.215-3.196,11.15-1.993,14.807
			s3.792,6.295,7.768,7.914c4.087,1.666,7.792,1.625,11.115-0.121c3.323-1.748,6.388-6.064,9.193-12.951
			c2.361-5.795,2.917-10.506,1.669-14.131c-1.248-3.627-3.874-6.256-7.877-7.887c-3.836-1.563-7.469-1.459-10.898,0.311
			S468.005,829.533,465.45,835.803z"/>
		<path d="M533.043,826.496l48.33,15.539l-4.371,13.594l-28.696-9.227l-3.552,11.047l24.51,7.881l-4.107,12.773l-24.51-7.881
			l-8.311,25.848l-19.634-6.313L533.043,826.496z"/>
		<path d="M623.866,853.047l20.129,4.064l-9.915,49.1l31.414,6.344l-3.239,16.041l-51.543-10.408L623.866,853.047z"/>
		<path d="M686.031,864.723l20.381,2.812l-9.078,65.811l-20.381-2.812L686.031,864.723z"/>
		<path d="M716.515,869.28l62.277,4.354l-1.145,16.372l-20.895-1.461l-3.491,49.931l-20.488-1.433l3.491-49.931l-20.895-1.461
			L716.515,869.28z"/>
		<path d="M782.222,873.764l62.405-1.145l0.301,16.405l-20.938,0.384l0.918,50.032l-20.529,0.377l-0.918-50.032l-20.938,0.384
			L782.222,873.764z"/>
		<path d="M852.972,871.832l20.419-2.1l5.122,49.809l31.868-3.277l1.674,16.271l-52.287,5.377L852.972,871.832z"/>
		<path d="M913.737,865.141l54.091-10.047l2.59,13.945l-33.862,6.289l1.929,10.383l31.412-5.834l2.474,13.322l-31.412,5.834
			l2.392,12.875l34.843-6.471l2.747,14.793l-55.071,10.229L913.737,865.141z"/>
		<path d="M1064.832,868.537l18.799-0.213c0.361,5.178-0.189,9.77-1.652,13.779c-1.463,4.008-3.774,7.412-6.933,10.213
			c-3.159,2.799-7.578,5.092-13.257,6.879c-6.891,2.168-12.835,2.938-17.833,2.309s-9.876-2.969-14.635-7.016
			s-8.375-10.004-10.852-17.875c-3.302-10.494-3.05-19.436,0.755-26.828c3.806-7.391,10.811-12.691,21.017-15.904
			c7.985-2.512,14.771-2.871,20.356-1.08c5.585,1.791,10.539,5.682,14.863,11.67l-16.086,9.291c-1.214-1.74-2.293-2.953-3.236-3.639
			c-1.567-1.154-3.271-1.885-5.11-2.193s-3.739-0.154-5.699,0.461c-4.44,1.398-7.28,4.256-8.52,8.574
			c-0.953,3.215-0.535,7.662,1.252,13.34c2.213,7.035,4.796,11.521,7.751,13.459c2.954,1.938,6.362,2.299,10.226,1.084
			c3.748-1.18,6.249-3.123,7.504-5.83S1065.227,872.816,1064.832,868.537z"/>
		<path d="M1137.644,858.479l-21.684,8.75l1.12,11.373l-19.457,7.852l-1.705-70.949l20.76-8.377l48.014,52.262l-19.919,8.039
			L1137.644,858.479z M1128.276,846.77l-15.744-19.4l2.171,24.877L1128.276,846.77z"/>
		<path d="M1145.507,794.982l17.182-8.518l38.752,21.826l-16.33-32.941l17.344-8.598l29.519,59.547l-17.344,8.598l-38.509-21.643
			l16.209,32.697l-17.304,8.578L1145.507,794.982z"/>
		<path d="M1276.872,787.701l-20.156,11.882l2.799,11.088l-18.086,10.662l-12.235-69.954l19.297-11.376l55.282,44.578
			l-18.516,10.915L1276.872,787.701z M1265.861,777.506l-18.464-16.855l5.847,24.293L1265.861,777.506z"/>
		<path d="M1275.622,723.486l25.118-17.303c4.952-3.41,9.414-5.494,13.388-6.25c3.973-0.756,7.82-0.563,11.542,0.58
			s7.179,3.072,10.372,5.789c3.192,2.717,6.074,5.941,8.646,9.674c4.027,5.848,6.485,10.84,7.374,14.979
			c0.889,4.141,0.9,8.113,0.036,11.918s-2.404,7.002-4.619,9.592c-3.021,3.549-6.038,6.361-9.049,8.436l-25.118,17.301
			L1275.622,723.486z M1301.064,724.232l20.593,29.895l4.144-2.854c3.533-2.434,5.776-4.557,6.729-6.369s1.18-3.986,0.681-6.521
			c-0.5-2.537-2.258-5.994-5.273-10.373c-3.994-5.797-7.674-9.115-11.039-9.953c-3.365-0.836-7.237,0.254-11.616,3.27
			L1301.064,724.232z"/>
		<path d="M1397.841,702.5l-18.219,14.65l4.364,10.561l-16.349,13.146l-22.169-67.408l17.443-14.025l61.079,36.117L1407.255,709
			L1397.841,702.5z M1385.487,694.004l-20.685-14.008l9.279,23.18L1385.487,694.004z"/>
	</g>
</g>
</svg>
