<?xml version="1.0" encoding="utf-8"?>
<!-- Generator: Adobe Illustrator 13.0.0, SVG Export Plug-In . SVG Version: 6.00 Build 14948)  -->
<!DOCTYPE svg PUBLIC "-//W3C//DTD SVG 1.1//EN" "http://www.w3.org/Graphics/SVG/1.1/DTD/svg11.dtd">
<svg version="1.1" xmlns="http://www.w3.org/2000/svg" xmlns:xlink="http://www.w3.org/1999/xlink" x="0px" y="0px" width="319px"
	 height="200px" viewBox="0 0 319 200" enable-background="new 0 0 319 200" xml:space="preserve">
<g id="Layer_10">
	<rect fill="#FFFFFF" width="319" height="200"/>
</g>
<g id="Layer_2">
	<polygon fill="#0036DE" points="0,0 0,200 319,99 	"/>
</g>
<g id="Layer_3">
	<circle fill="#FFFFFF" cx="88.792" cy="99.5" r="47"/>
</g>
<g id="Layer_4">
	<polygon fill="#0036DE" points="134.042,97.5 90.792,97.5 90.792,54.25 86.792,54.25 86.792,97.5 43.542,97.5 43.542,101.5 
		86.792,101.5 86.792,144.75 90.792,144.75 90.792,101.5 134.042,101.5 	"/>
</g>
<g id="Layer_5">
	<path fill="#0036DE" d="M69.047,107.203c-6.834,0-12.375,5.54-12.375,12.375s5.541,12.375,12.375,12.375s12.375-5.54,12.375-12.375
		S75.881,107.203,69.047,107.203z M69.047,128.391c-4.867,0-8.813-3.945-8.813-8.813s3.945-8.813,8.813-8.813
		s8.813,3.945,8.813,8.813S73.914,128.391,69.047,128.391z"/>
	<rect x="53.984" y="118.266" fill="#0036DE" width="30.125" height="2.625"/>
	
		<rect x="53.984" y="118.266" transform="matrix(0.5 -0.866 0.866 0.5 -69.0343 119.5873)" fill="#0036DE" width="30.126" height="2.625"/>
	
		<rect x="53.984" y="118.266" transform="matrix(-0.5 -0.866 0.866 -0.5 0.0143 239.1645)" fill="#0036DE" width="30.126" height="2.625"/>
</g>
<g id="Layer_6">
	<rect x="54" y="90" fill="#0036DE" width="29.75" height="4"/>
	<g>
		<g>
			<path fill="#0036DE" d="M72.75,66H65l-11,5.583v4h29.75v-4L72.75,66z M59.292,72.583l6.428-3.208h6.312l6.468,3.208H59.292z"/>
		</g>
	</g>
	<rect x="57" y="74.75" fill="#0036DE" width="4.875" height="16.875"/>
	<rect x="75.875" y="74.75" fill="#0036DE" width="4.875" height="16.875"/>
	<rect x="63.312" y="74.667" fill="#0036DE" width="2.417" height="16.583"/>
	<rect x="67.729" y="74.667" fill="#0036DE" width="2.417" height="16.583"/>
	<rect x="72.146" y="74.667" fill="#0036DE" width="2.417" height="16.583"/>
</g>
<g id="Layer_5_copy">
	<path fill="#0036DE" d="M123.151,82.058v-2.625h-2.759c-0.138-1.306-0.484-2.548-0.996-3.701l2.393-1.381l-1.313-2.273
		l-2.399,1.385c-0.757-1.037-1.669-1.949-2.706-2.706l1.385-2.399l-2.273-1.313l-1.381,2.393c-1.153-0.512-2.395-0.858-3.701-0.996
		v-2.759h-2.625v2.759c-1.306,0.138-2.548,0.484-3.701,0.996l-1.381-2.393l-2.273,1.313l1.385,2.399
		c-1.037,0.757-1.949,1.669-2.706,2.706L95.7,72.077l-1.313,2.273l2.393,1.381c-0.512,1.153-0.858,2.395-0.996,3.701h-2.759v2.625
		h2.759c0.138,1.306,0.484,2.548,0.996,3.701l-2.393,1.381l1.313,2.273l2.399-1.385c0.757,1.037,1.669,1.949,2.706,2.706
		l-1.385,2.399l2.273,1.313l1.381-2.393c1.153,0.512,2.395,0.858,3.701,0.996v2.759h2.625v-2.759
		c1.306-0.138,2.548-0.484,3.701-0.996l1.381,2.393l2.273-1.313l-1.385-2.399c1.037-0.757,1.949-1.669,2.706-2.706l2.399,1.385
		l1.313-2.273l-2.393-1.381c0.512-1.153,0.858-2.395,0.996-3.701H123.151z M116.286,83.962c-0.324,0.826-0.767,1.591-1.312,2.274
		c-0.412,0.516-0.879,0.983-1.395,1.395c-0.683,0.545-1.448,0.988-2.274,1.312c-0.605,0.238-1.243,0.407-1.905,0.506
		c-0.429,0.064-0.865,0.108-1.313,0.108s-0.883-0.044-1.313-0.108c-0.662-0.099-1.3-0.269-1.905-0.506
		c-0.826-0.324-1.591-0.767-2.274-1.312c-0.516-0.412-0.983-0.879-1.395-1.395c-0.545-0.683-0.988-1.448-1.312-2.274
		c-0.238-0.605-0.407-1.243-0.506-1.905c-0.064-0.429-0.108-0.865-0.108-1.313s0.044-0.883,0.108-1.313
		c0.099-0.662,0.269-1.3,0.506-1.905c0.324-0.826,0.767-1.591,1.312-2.274c0.412-0.516,0.879-0.983,1.395-1.395
		c0.683-0.545,1.448-0.988,2.274-1.312c0.605-0.238,1.243-0.407,1.905-0.506c0.429-0.064,0.865-0.108,1.313-0.108
		s0.883,0.044,1.313,0.108c0.662,0.099,1.3,0.269,1.905,0.506c0.826,0.324,1.591,0.767,2.274,1.312
		c0.516,0.412,0.983,0.879,1.395,1.395c0.545,0.683,0.988,1.448,1.312,2.274c0.238,0.605,0.407,1.243,0.506,1.905
		c0.064,0.429,0.108,0.865,0.108,1.313s-0.044,0.883-0.108,1.313C116.693,82.72,116.524,83.357,116.286,83.962z"/>
</g>
<g id="Layer_7">
	<path fill="#0036DE" d="M108.594,75.125c-3.124,0-5.656,2.533-5.656,5.656s2.533,5.656,5.656,5.656s5.656-2.533,5.656-5.656
		S111.717,75.125,108.594,75.125z M108.594,83.804c-1.669,0-3.022-1.353-3.022-3.022s1.353-3.022,3.022-3.022
		s3.022,1.353,3.022,3.022S110.263,83.804,108.594,83.804z"/>
</g>
<g id="Layer_9">
	<g>
		<polygon fill="#FFFFFF" points="106.75,81 106.75,65.167 101.25,65.167 101.25,86.5 124.583,86.5 124.583,81 		"/>
		<path fill="#0036DE" d="M100.75,86.999V64.666h6.5v15.833h17.833v6.5H100.75L100.75,86.999z M101.75,86h22.333V81.5H106.75V81h0.5
			h-0.5V81.5h-0.501V65.665h-4.499V86L101.75,86z"/>
	</g>
	<g>
		<rect x="102.917" y="67.667" fill="#0036DE" width="3.667" height="1"/>
		<rect x="102.917" y="71.417" fill="#0036DE" width="3.667" height="1"/>
		<rect x="102.917" y="75.167" fill="#0036DE" width="3.667" height="1"/>
		<rect x="102.917" y="78.917" fill="#0036DE" width="3.667" height="1"/>
	</g>
</g>
<g id="Layer_11">
	<path fill="#0036DE" d="M113.974,131.417L113,114.188l-3.477-2.461l1.337-2.909l0.198,0.097c0,0,3.129-1.567,2.817-2.685
		c-0.28-1.004-2.418-0.789-3.332-1.233c-0.874-0.425-2.153-1.924-3.08-1.549c-1.075,0.436-0.163,3.636-0.163,3.636l0.244,0.119
		l-6.822,14.841l3.35,1.541l3.296-7.17l1.693,1.398v8.313h-1.188V130h-2.169l-0.039-1.75l-1.083-2c0,0-1.021-0.781-2.271-1.438
		c-1.464-0.769-2.708-1.219-3.375-0.469s-0.875,1.28,0.719,2.5c2.531,1.938,3.094,0.323,3.094,0.323l1.167,1.333l-2.171,2.917
		h-6.162v2.416h22.333v-2.416H113.974z"/>
</g>
</svg>
