<?xml version="1.0" encoding="UTF-8"?>
<!DOCTYPE svg PUBLIC "-//W3C//DTD SVG 1.1//EN" "http://www.w3.org/Graphics/SVG/1.1/DTD/svg11.dtd">
<!-- Creator: CorelDRAW -->
<svg xmlns="http://www.w3.org/2000/svg" xml:space="preserve" width="150mm" height="100mm" style="shape-rendering:geometricPrecision; text-rendering:geometricPrecision; image-rendering:optimizeQuality; fill-rule:evenodd; clip-rule:evenodd"
viewBox="0 0 150 100"
 xmlns:xlink="http://www.w3.org/1999/xlink">
 <defs>
  <style type="text/css">
   <![CDATA[
    .str0 {stroke:#393185;stroke-width:0.2}
    .fil3 {fill:#00A0E3}
    .fil0 {fill:#393185}
    .fil1 {fill:#FEFEFE}
    .fil4 {fill:#464A9A}
    .fil2 {fill:#F0B719;fill-rule:nonzero}
    .fil5 {fill:#464A9A;fill-rule:nonzero}
   ]]>
  </style>
 </defs>
 <g id="Capa_x0020_1">
  <metadata id="CorelCorpID_0Corel-Layer"/>
  <g id="_292674568">
   <rect id="_220651072" class="fil0" x="-2.11432e-005" width="150" height="100"/>
   <g>
    <circle id="_219236576" class="fil1" cx="75" cy="50" r="33.1062"/>
    <path id="_219236480" class="fil2" d="M74.9999 16.3937c9.28,0 17.6817,3.7615 23.7633,9.8431 6.0816,6.0816 9.8431,14.4833 9.8431,23.7633 0,9.28 -3.7617,17.6816 -9.8432,23.763 -6.0814,6.0815 -14.4832,9.8431 -23.7632,9.8431 -9.2798,0 -17.6816,-3.7617 -23.763,-9.8431 -6.0814,-6.0814 -9.8431,-14.4832 -9.8431,-23.763 0,-9.28 3.7616,-17.6818 9.8431,-23.7632 6.0814,-6.0815 14.483,-9.8432 23.763,-9.8432zm23.0563 10.5501c-5.9005,-5.9005 -14.0523,-9.5501 -23.0563,-9.5501 -9.004,0 -17.1556,3.6497 -23.056,9.5502 -5.9005,5.9004 -9.5501,14.0521 -9.5501,23.0562 0,9.0039 3.6497,17.1556 9.5501,23.056 5.9004,5.9004 14.0521,9.5501 23.056,9.5501 9.0041,0 17.1558,-3.6496 23.0562,-9.5501 5.9005,-5.9004 9.5502,-14.052 9.5502,-23.056 0,-9.004 -3.6496,-17.1558 -9.5501,-23.0563z"/>
    <circle id="_219236384" class="fil3" cx="75" cy="50" r="21.0367"/>
    <path id="_220652824" class="fil4" d="M58.0253 61.656c11.0092,14.4407 29.9422,9.4349 35.3302,-2.0305 -1.2019,0.3155 -2.553,1.1021 -3.8278,1.5621 -17.4069,6.2803 -17.5571,-5.5024 -31.5024,0.4684z"/>
    <path id="_219236288" class="fil2" d="M75.0001 28.4632c5.947,0 11.3314,2.4107 15.2287,6.308 3.8973,3.8973 6.308,9.2817 6.308,15.2287 0,5.947 -2.4107,11.3314 -6.308,15.2288 -3.8973,3.8973 -9.2817,6.308 -15.2287,6.308 -5.947,0 -11.3314,-2.4107 -15.2288,-6.308 -3.8973,-3.8974 -6.308,-9.2818 -6.308,-15.2288 0,-5.947 2.4107,-11.3314 6.308,-15.2287 3.8974,-3.8973 9.2818,-6.308 15.2288,-6.308zm14.5217 7.015c-3.7163,-3.7163 -8.8506,-6.015 -14.5217,-6.015 -5.6711,0 -10.8054,2.2987 -14.5218,6.015 -3.7163,3.7163 -6.015,8.8506 -6.015,14.5217 0,5.6711 2.2987,10.8054 6.015,14.5218 3.7164,3.7163 8.8507,6.015 14.5218,6.015 5.6711,0 10.8054,-2.2987 14.5217,-6.015 3.7163,-3.7164 6.015,-8.8507 6.015,-14.5218 0,-5.6711 -2.2987,-10.8054 -6.015,-14.5217z"/>
    <path id="_219235856" class="fil5" d="M44.1932 49.4569l1.8945 -0.1324 0.011 0.1569c-0.486,0.153 -0.8492,0.3998 -1.0909,0.7418 -0.2405,0.3406 -0.3471,0.716 -0.3185,1.1249 0.0239,0.3415 0.1435,0.6472 0.3603,0.9184 0.2169,0.2713 0.4876,0.4627 0.8148,0.5712 0.418,0.141 0.8756,0.1948 1.3726,0.16 0.4888,-0.0341 0.9306,-0.1273 1.3239,-0.2793 0.3934,-0.1521 0.6841,-0.3661 0.8709,-0.6448 0.1881,-0.2774 0.2661,-0.626 0.2368,-1.046 -0.0241,-0.3441 -0.1206,-0.6543 -0.292,-0.9301 -0.1701,-0.2758 -0.45,-0.5592 -0.8413,-0.8515l0.4723 -0.033c0.3409,0.2847 0.5959,0.5879 0.7623,0.9097 0.1678,0.323 0.2665,0.7049 0.2976,1.1496 0.0407,0.5825 -0.04,1.1097 -0.2424,1.5791 -0.2024,0.4693 -0.5139,0.8425 -0.9345,1.1196 -0.422,0.2758 -0.8801,0.4323 -1.3744,0.4669 -0.5218,0.0365 -1.0256,-0.0652 -1.513,-0.3065 -0.4871,-0.2399 -0.8763,-0.5821 -1.1662,-1.0281 -0.2913,-0.4459 -0.4539,-0.9299 -0.4904,-1.4517 -0.0268,-0.3841 0.0275,-0.7961 0.1641,-1.2359 0.0791,-0.2546 0.1177,-0.415 0.1129,-0.4824 -0.0059,-0.0854 -0.0429,-0.1576 -0.1106,-0.2164 -0.0678,-0.0589 -0.1711,-0.0932 -0.3089,-0.103l-0.0109 -0.157zm5.9708 -3.8673l0.1479 0.0182 -0.3493 2.8453 -0.148 -0.0181 0.0222 -0.1809c0.0193,-0.1575 0.0063,-0.2885 -0.0381,-0.3912 -0.0284,-0.0745 -0.0863,-0.1358 -0.1735,-0.1841 -0.0593,-0.0379 -0.226,-0.0735 -0.4999,-0.1072l-3.5796 -0.4395c-0.2782,-0.0341 -0.454,-0.0405 -0.5276,-0.0189 -0.0733,0.0202 -0.1409,0.0716 -0.204,0.1557 -0.063,0.0826 -0.104,0.2014 -0.1227,0.3535l-0.0222 0.1808 -0.1492 -0.0183 0.3493 -2.8454 0.1493 0.0184 -0.0222 0.1808c-0.0193,0.1575 -0.0076,0.2883 0.0368,0.3911 0.0297,0.0746 0.086,0.1371 0.173,0.1881 0.0609,0.0367 0.2274,0.0724 0.5001,0.1059l3.5796 0.4395c0.278,0.0342 0.4539,0.0405 0.5274,0.0189 0.0738,-0.0229 0.1414,-0.0758 0.2045,-0.1585 0.0645,-0.0839 0.1053,-0.2012 0.124,-0.3532l0.0222 -0.1809zm-3.7283 -6.7349l1.4275 0.4094 -0.0399 0.1393c-0.3544,-0.0112 -0.6168,0.0127 -0.7889,0.0724 -0.1736,0.0594 -0.3277,0.166 -0.4631,0.3181 -0.076,0.0845 -0.148,0.2505 -0.2184,0.4959l-0.1126 0.3928 4.0652 1.1656c0.2692,0.0772 0.4419,0.1109 0.518,0.1011 0.0764,-0.011 0.1515,-0.0527 0.2267,-0.1245 0.0768,-0.0727 0.1358,-0.1836 0.1788,-0.3335l0.0502 -0.1751 0.1433 0.0411 -0.7913 2.7596 -0.1433 -0.0411 0.0502 -0.1751c0.0438,-0.1526 0.0514,-0.284 0.0236,-0.3924 -0.0164,-0.078 -0.0636,-0.1489 -0.1414,-0.2128 -0.0527,-0.0468 -0.2117,-0.1082 -0.477,-0.1843l-4.0652 -1.1656 -0.1095 0.3821c-0.1016,0.3542 -0.1015,0.6343 0.0038,0.8382 0.1449,0.2856 0.4041,0.5136 0.7757,0.6847l-0.0423 0.1473 -1.4275 -0.4094 1.3574 -4.7338zm3.6291 -6.7207l0.1289 0.0774c-0.0729,0.1671 -0.0998,0.3136 -0.0797,0.4384 0.0273,0.1741 0.1828,0.5156 0.4647,1.0247l1.0891 2.0408 1.137 0.6832c0.2425,0.1457 0.4011,0.2249 0.4759,0.2343 0.0728,0.01 0.1554,-0.0096 0.2452,-0.0571 0.0916,-0.048 0.1738,-0.1338 0.2492,-0.2593l0.1578 -0.2627 0.1278 0.0768 -1.5845 2.6371 -0.1278 -0.0768 0.1478 -0.2461c0.0832,-0.1384 0.1245,-0.2633 0.1244,-0.3729 0.0042,-0.0796 -0.023,-0.1603 -0.0816,-0.2422 -0.0387,-0.0587 -0.1765,-0.1591 -0.4131,-0.3013l-0.9429 -0.5666 -2.6783 -0.1037c-0.5297,-0.0188 -0.8551,-0.005 -0.9808,0.0434 -0.125,0.0473 -0.2323,0.1455 -0.325,0.2942l-0.1289 -0.0775 1.3535 -2.2525 0.1289 0.0775 -0.0605 0.1006c-0.0817,0.136 -0.1203,0.2432 -0.1128,0.3218 0.0063,0.0779 0.0321,0.1288 0.0759,0.1551 0.0828,0.0498 0.3476,0.0833 0.7933,0.0999l2.0673 0.0861 -0.9102 -1.6983c-0.2208,-0.4177 -0.387,-0.6608 -0.5006,-0.7291 -0.0615,-0.0369 -0.1313,-0.0386 -0.209,-0.0032 -0.105,0.0433 -0.2267,0.1682 -0.3643,0.3704l-0.1289 -0.0774 0.8622 -1.435zm4.6432 -5.0682c0.648,-0.5871 1.3556,-0.8474 2.122,-0.7843 0.7663,0.065 1.4112,0.4086 1.9347,1.0324 0.4471,0.5328 0.6847,1.1317 0.7126,1.7983 0.0373,0.884 -0.321,1.6422 -1.0748,2.2748 -0.755,0.6335 -1.5543,0.8682 -2.398,0.7023 -0.6654,-0.1317 -1.2321,-0.4742 -1.6978,-1.0293 -0.5235,-0.6238 -0.7475,-1.3223 -0.6722,-2.0935 0.0756,-0.7733 0.4326,-1.4063 1.0735,-1.9007zm0.204 0.1658c-0.3849,0.3229 -0.5116,0.7644 -0.3835,1.3252 0.107,0.458 0.4141,0.9894 0.9198,1.5921 0.6015,0.7168 1.1718,1.1409 1.7109,1.2724 0.3769,0.0927 0.7235,0.0055 1.0396,-0.2597 0.2125,-0.1783 0.3467,-0.3793 0.4034,-0.6017 0.0699,-0.2838 0.0341,-0.6141 -0.1084,-0.99 -0.1415,-0.3749 -0.4084,-0.796 -0.7996,-1.2623 -0.4667,-0.5561 -0.8672,-0.9281 -1.2014,-1.1161 -0.3352,-0.189 -0.6296,-0.2736 -0.886,-0.2529 -0.2546,0.0209 -0.4865,0.1182 -0.6948,0.293zm5.2578 -3.6052l1.1263 1.9507 0.1375 -0.0794c0.2092,-0.1208 0.3627,-0.2524 0.4595,-0.3912 0.0972,-0.1406 0.1482,-0.3119 0.154,-0.5144 0.0057,-0.2026 -0.0499,-0.4397 -0.1694,-0.7102l0.1218 -0.0704 1.3768 2.3846 -0.1219 0.0704c-0.3044,-0.4251 -0.5962,-0.6518 -0.8762,-0.6814 -0.2802,-0.0296 -0.5458,0.0265 -0.7955,0.1707l-0.1376 0.0794 0.8392 1.4536c0.1401,0.2426 0.2421,0.3861 0.3036,0.4318 0.0627,0.0452 0.1456,0.0674 0.2496,0.0679 0.1046,0.0018 0.2241,-0.0369 0.3567,-0.1135l0.1578 -0.0911 0.0746 0.1291 -2.4827 1.4334 -0.0745 -0.1292 0.1578 -0.0911c0.1374,-0.0793 0.2342,-0.1686 0.2895,-0.2659 0.0423,-0.0675 0.0565,-0.1506 0.0426,-0.2492 -0.0054,-0.0702 -0.0784,-0.2242 -0.2164,-0.4632l-1.8032 -3.1233c-0.1401,-0.2427 -0.2397,-0.3876 -0.3013,-0.4334 -0.0602,-0.0464 -0.1432,-0.0687 -0.2471,-0.0692 -0.1051,0.0001 -0.2234,0.0381 -0.3561,0.1147l-0.1578 0.0911 -0.0752 -0.1302 4.0054 -2.3126 0.7867 1.3627 -0.1434 0.0828c-0.2172,-0.3017 -0.4375,-0.4901 -0.6604,-0.567 -0.2242,-0.0762 -0.4799,-0.072 -0.771,0.0117 -0.1599,0.046 -0.4296,0.1778 -0.8074,0.3959l-0.4423 0.2554zm8.3592 -0.4273l0.3162 1.4878c0.0617,0.2902 0.1181,0.4688 0.1702,0.5353 0.0512,0.0681 0.1276,0.1154 0.2276,0.1406 0.1012,0.0251 0.2721,0.0127 0.5151,-0.0389l0.031 0.1458 -2.7257 0.5794 -0.031 -0.1459c0.2484,-0.0528 0.411,-0.1112 0.49,-0.1774 0.078,-0.0646 0.1275,-0.1372 0.1482,-0.2192 0.0192,-0.0817 -0.0016,-0.2664 -0.0633,-0.5566l-0.7398 -3.4805c-0.0617,-0.2902 -0.118,-0.4687 -0.1691,-0.5368 -0.0526,-0.0679 -0.1273,-0.1141 -0.2273,-0.1394 -0.0988,-0.027 -0.2708,-0.013 -0.5165,0.0392l-0.0313 -0.1471 2.3383 -0.497c0.7695,-0.1636 1.3509,-0.1433 1.744,0.0596 0.3931,0.2029 0.6333,0.5103 0.7208,0.922 0.0741,0.3483 0.0292,0.6683 -0.134,0.9626 -0.1634,0.293 -0.426,0.5251 -0.7861,0.6962 -0.2417,0.1178 -0.6684,0.2409 -1.2773,0.3703zm-0.5581 -2.6258l0.4927 2.318c0.0889,-0.0132 0.1543,-0.0243 0.2002,-0.0341 0.3213,-0.0683 0.548,-0.2167 0.6813,-0.4454 0.1338,-0.2274 0.1584,-0.543 0.0732,-0.9439 -0.0847,-0.3983 -0.2341,-0.6699 -0.4476,-0.8178 -0.2135,-0.148 -0.4922,-0.1848 -0.8379,-0.1113l-0.1619 0.0345zm6.0189 1.9053l0.0269 1.5373c0.0052,0.2966 0.0264,0.4827 0.0636,0.5579 0.0386,0.0767 0.1031,0.1376 0.195,0.1815 0.0933,0.044 0.2648,0.0644 0.5159,0.0601l0.0026 0.149 -2.8068 0.049 -0.0026 -0.1491c0.2539,-0.0044 0.4246,-0.0308 0.5148,-0.0806 0.0889,-0.0486 0.1513,-0.1104 0.1873,-0.1869 0.0345,-0.0766 0.0492,-0.2618 0.0441,-0.5585l-0.0621 -3.5577c-0.0052,-0.2966 -0.0265,-0.4826 -0.0636,-0.5592 -0.0386,-0.0767 -0.1032,-0.1363 -0.1965,-0.1802 -0.0919,-0.0453 -0.2633,-0.0644 -0.5145,-0.0601l-0.0026 -0.1503 2.5475 -0.0445c0.6637,-0.0116 1.1489,0.0268 1.4583,0.1126 0.3079,0.0857 0.562,0.251 0.7609,0.4947 0.1975,0.2422 0.3005,0.5303 0.3063,0.8615 0.0071,0.4044 -0.1334,0.7409 -0.4199,1.0109 -0.1835,0.1703 -0.4406,0.3004 -0.7731,0.389l1.3502 1.8331c0.1767,0.237 0.3021,0.384 0.3749,0.442 0.1133,0.0823 0.2411,0.1256 0.3875,0.1313l0.0026 0.1491 -1.7265 0.0301 -1.8099 -2.4683 -0.3603 0.0063zm-0.0469 -2.6883l0.0419 2.4012 0.2305 -0.004c0.374,-0.0065 0.6535,-0.0445 0.8387,-0.1168 0.1851,-0.0723 0.3292,-0.199 0.4323,-0.3803 0.1032,-0.1812 0.1529,-0.4154 0.1479,-0.7038 -0.0073,-0.4182 -0.1107,-0.7241 -0.3102,-0.9209 -0.198,-0.1966 -0.5144,-0.2905 -0.9491,-0.2829l-0.432 0.0075zm6.8834 5.6055l-0.0259 0.1469 -2.8231 -0.4978 0.0259 -0.1469 0.1794 0.0317c0.1563,0.0275 0.2878,0.0214 0.3927,-0.0176 0.0758,-0.0245 0.1401,-0.0791 0.1929,-0.1636 0.0409,-0.0573 0.0853,-0.2219 0.1332,-0.4937l0.6263 -3.5517c0.0486,-0.2759 0.0642,-0.4512 0.0465,-0.5258 -0.0164,-0.0743 -0.0642,-0.1444 -0.1448,-0.2119 -0.0792,-0.0672 -0.1957,-0.1144 -0.3466,-0.141l-0.1794 -0.0316 0.0261 -0.1481 2.8231 0.4978 -0.0261 0.1481 -0.1794 -0.0317c-0.1563,-0.0275 -0.2875,-0.0226 -0.3925,0.0163 -0.076,0.0258 -0.1414,0.0788 -0.1969,0.1629 -0.0398,0.0589 -0.0843,0.2234 -0.132,0.4939l-0.6262 3.5517c-0.0487,0.2759 -0.0641,0.4511 -0.0464,0.5257 0.019,0.0749 0.0682,0.1452 0.1475,0.2125 0.0804,0.0688 0.1954,0.1157 0.3463,0.1423l0.1794 0.0316zm5.1885 -4.0097c0.8276,0.2821 1.3983,0.7748 1.7147,1.4757 0.3147,0.7018 0.3268,1.4324 0.035,2.1926 -0.2493,0.6494 -0.6578,1.1475 -1.2273,1.4951 -0.7551,0.4612 -1.592,0.5155 -2.5107,0.1628 -0.92,-0.3532 -1.5129,-0.9385 -1.7768,-1.7568 -0.2075,-0.6459 -0.1826,-1.3075 0.0771,-1.984 0.2918,-0.7603 0.7941,-1.2948 1.5052,-1.6028 0.7129,-0.3089 1.4396,-0.3035 2.1828,0.0174zm-0.0461 0.2587c-0.469,-0.18 -0.9166,-0.0769 -1.345,0.3071 -0.3487,0.3156 -0.6646,0.8419 -0.9465,1.5763 -0.3354,0.8737 -0.4298,1.5781 -0.2835,2.1133 0.1017,0.3746 0.3459,0.6355 0.7312,0.7834 0.259,0.0994 0.4998,0.1193 0.7218,0.0611 0.2821,-0.0765 0.5536,-0.2679 0.8134,-0.5748 0.2592,-0.3055 0.4982,-0.7431 0.7163,-1.3113 0.2602,-0.6778 0.3913,-1.2084 0.3937,-1.5919 0.0028,-0.3848 -0.0659,-0.6832 -0.2084,-0.8975 -0.1416,-0.2126 -0.3391,-0.3682 -0.593,-0.4657zm4.3314 5.4013l-0.8819 1.2594c-0.1702,0.2431 -0.2623,0.4061 -0.2765,0.4889 -0.0138,0.0846 0.0026,0.1719 0.0511,0.2614 0.0496,0.0904 0.1763,0.2078 0.3821,0.3518l-0.0855 0.1222 -2.2996 -1.6102 0.0855 -0.1222c0.2081,0.1457 0.3617,0.2247 0.464,0.2374 0.1004,0.0129 0.1873,-0.0004 0.2613,-0.0411 0.0729,-0.0417 0.1938,-0.1829 0.3639,-0.4259l2.0409 -2.9148c0.1702,-0.243 0.2623,-0.4059 0.2773,-0.4898 0.0138,-0.0847 -0.0034,-0.1708 -0.053,-0.2613 -0.0477,-0.0906 -0.1752,-0.2069 -0.381,-0.3509l0.0863 -0.1232 2.0871 1.4614c0.5438,0.3807 0.9137,0.697 1.1136,0.9482 0.1988,0.2504 0.3072,0.5335 0.3249,0.8475 0.0173,0.3121 -0.0686,0.6057 -0.2587,0.8771 -0.2319,0.3312 -0.5433,0.5209 -0.9339,0.571 -0.2484,0.0298 -0.533,-0.0161 -0.8541,-0.1398l0.0149 2.2766c0.0037,0.2957 0.0187,0.4883 0.0435,0.578 0.0433,0.1331 0.1212,0.2433 0.2363,0.334l-0.0855 0.1221 -1.4144 -0.9904 -0.0135 -3.0607 -0.2951 -0.2067zm1.5422 -2.2025l-1.3775 1.9673 0.1888 0.1322c0.3064,0.2146 0.5549,0.3481 0.7472,0.3985 0.1922,0.0503 0.3832,0.0325 0.5732,-0.0535 0.19,-0.086 0.3679,-0.2462 0.5334,-0.4826 0.2398,-0.3425 0.336,-0.6508 0.2903,-0.9272 -0.0446,-0.2756 -0.2454,-0.5375 -0.6016,-0.7869l-0.3538 -0.2478zm6.3202 10.891l-1.6257 1.0518 -3.0644 -3.7841 0.1159 -0.0939 0.1146 0.1416c0.0999,0.1234 0.2032,0.205 0.308,0.2444 0.0733,0.0312 0.1575,0.0322 0.2536,0.0041 0.0676,-0.0175 0.2092,-0.1125 0.4237,-0.2862l2.8027 -2.2696c0.2178,-0.1764 0.3445,-0.2985 0.3809,-0.3654 0.0356,-0.0677 0.0455,-0.1522 0.0289,-0.2559 -0.0157,-0.1028 -0.0726,-0.2147 -0.169,-0.3338l-0.1147 -0.1416 0.1169 -0.0946 1.8405 2.2728 -0.1169 0.0947 -0.1502 -0.1855c-0.1008,-0.1245 -0.2021,-0.2058 -0.3078,-0.2463 -0.0734,-0.0294 -0.1575,-0.0323 -0.2554,-0.0063 -0.0687,0.0184 -0.2102,0.1133 -0.4237,0.2862l-2.7148 2.1984c-0.2177,0.1764 -0.3467,0.3022 -0.3857,0.3746 -0.0393,0.0743 -0.0453,0.1591 -0.0142,0.2566 0.0232,0.0682 0.1172,0.2017 0.2796,0.4023l0.2875 0.355c0.1832,0.2263 0.3759,0.383 0.5777,0.4699 0.2009,0.0859 0.4324,0.1152 0.6937,0.0847 0.261,-0.0285 0.5985,-0.1294 1.0141,-0.3026l0.1042 0.1287zm1.3718 4.0002l-0.8184 -1.755 -0.5815 0.0169c-0.1935,0.0064 -0.3418,0.0345 -0.4469,0.0835 -0.1401,0.0653 -0.2164,0.1694 -0.2289,0.3123 -0.0097,0.0837 0.0373,0.2598 0.1381,0.528l-0.1352 0.063 -0.7705 -1.6524 0.1352 -0.063c0.1103,0.1648 0.2529,0.2779 0.4273,0.3352 0.1737,0.0591 0.4904,0.085 0.9476,0.0759l4.7942 -0.0715 0.0326 0.07 -3.2401 3.6917c-0.3066,0.3516 -0.4839,0.6049 -0.5326,0.7616 -0.0372,0.1194 -0.0262,0.2574 0.0319,0.4145l-0.1352 0.063 -1.121 -2.4041 0.1351 -0.063 0.0461 0.0988c0.0898,0.1926 0.1808,0.3161 0.2708,0.3686 0.0639,0.0357 0.133,0.037 0.2068,0.0026 0.0438,-0.0204 0.0853,-0.049 0.1246,-0.0855 0.0201,-0.0156 0.0946,-0.0944 0.2238,-0.2384l0.4962 -0.5527zm0.2131 -0.2516l1.3665 -1.5372 -2.0671 0.0348 0.7006 1.5024zm3.3159 5.9947l-2.0017 2.3534c-0.2811,0.3329 -0.4626,0.6073 -0.5445,0.8229 -0.0566,0.1572 -0.0712,0.3132 -0.0409,0.4691l-0.1464 0.0285 -0.5446 -2.8019 0.1464 -0.0285c0.0507,0.1744 0.1013,0.2827 0.1505,0.3265 0.0496,0.0452 0.1034,0.0615 0.1617,0.0502 0.1111,-0.0216 0.2973,-0.1844 0.5561,-0.4878l1.3127 -1.5361 -0.2053 -0.1668 -1.4687 0.2855c-0.2804,0.0545 -0.452,0.1048 -0.5148,0.1507 -0.063,0.0447 -0.1094,0.1169 -0.1408,0.2158 -0.0325,0.1006 -0.0289,0.2489 0.0098,0.448l-0.1464 0.0285 -0.5278 -2.7151 0.1464 -0.0285 0.0348 0.1789c0.0303,0.1558 0.0831,0.2763 0.1571,0.3603 0.0501,0.062 0.124,0.1024 0.2219,0.1214 0.0681,0.0177 0.2374,-0.0011 0.5083,-0.0538l3.5403 -0.6881c0.275,-0.0535 0.4445,-0.1005 0.5078,-0.1438 0.0635,-0.0418 0.1116,-0.113 0.1459,-0.2111 0.0341,-0.0994 0.0367,-0.2237 0.0074,-0.3741l-0.0347 -0.1788 0.1476 -0.0287 0.5207 2.6785 -0.1477 0.0287c-0.0353,-0.1816 -0.0881,-0.3161 -0.1594,-0.4006 -0.0514,-0.0617 -0.1242,-0.1038 -0.2186,-0.1263 -0.0727,-0.0196 -0.2452,-0.003 -0.5175,0.05l-1.6746 0.3255 2.0032 1.6832c0.2788,0.2339 0.4861,0.3385 0.6203,0.3124 0.1016,-0.0197 0.1692,-0.0919 0.2053,-0.217 0.0185,-0.0641 0.0078,-0.2125 -0.0288,-0.4444l0.1477 -0.0287 0.4082 2.1 -0.1477 0.0287c-0.0501,-0.1856 -0.1111,-0.3257 -0.186,-0.4222 -0.0754,-0.0979 -0.3076,-0.3086 -0.6942,-0.6342l-1.569 -1.3302zm2.0759 6.2481l-2.2264 -0.1557 -0.0076 0.1088c-0.0242,0.347 0.067,0.6052 0.2736,0.7773 0.2067,0.1708 0.5218,0.2924 0.9428,0.3662l-0.0107 0.1528 -2.8638 -0.2003 0.0107 -0.1528c0.3149,-0.0112 0.5744,-0.0608 0.7812,-0.1502 0.2069,-0.0906 0.3489,-0.201 0.4273,-0.3339 0.077,-0.1316 0.1254,-0.3288 0.1436,-0.5891l-1.5407 -0.1077c-0.3015,-0.0211 -0.4854,-0.0215 -0.5548,0 -0.0692,0.02 -0.1276,0.0643 -0.1752,0.1316 -0.0489,0.0657 -0.0775,0.1772 -0.0884,0.3341l-0.0229 0.3263c-0.0357,0.5109 0.0541,0.928 0.2694,1.2531 0.2138,0.3249 0.5593,0.5704 1.0344,0.7391l-0.0104 0.1488 -1.7218 -0.3667 0.3306 -4.7281 0.1488 0.0104 -0.0127 0.1818c-0.0111,0.1583 0.0088,0.2884 0.0585,0.3887 0.0323,0.0728 0.0933,0.131 0.1829,0.1747 0.0612,0.0347 0.2295,0.0616 0.5048,0.0809l3.5978 0.2516c0.2478,0.0173 0.3998,0.021 0.4571,0.0112 0.0955,-0.0196 0.172,-0.0655 0.228,-0.1335 0.0829,-0.0979 0.1298,-0.2344 0.1422,-0.412l0.0128 -0.1818 0.15 0.0105 -0.3201 4.578 -1.6178 -0.1131 0.0107 -0.1528c0.4006,-0.0509 0.6918,-0.1398 0.8739,-0.2696 0.1819,-0.1284 0.3226,-0.3192 0.4205,-0.5725 0.0601,-0.1465 0.1032,-0.4272 0.1322,-0.8416l0.0395 -0.5645z"/>
    <path id="_219235928" class="fil5" d="M61.2307 75.1878l2.2802 -1.6941 1.39 0.8352 -0.0564 0.0938 -0.1108 -0.0667c-0.1006,-0.0603 -0.1917,-0.0918 -0.2731,-0.0927 -0.0566,-0.0012 -0.1139,0.0183 -0.1727,0.0577 -0.0423,0.0296 -0.1148,0.1288 -0.2165,0.2981l-1.3528 2.2513c-0.1049,0.1745 -0.1609,0.2894 -0.1692,0.3439 -0.0075,0.0554 0.0076,0.116 0.0448,0.1826 0.0374,0.0682 0.1033,0.13 0.1995,0.1878l0.1109 0.0666 -0.0559 0.0929 -1.7836 -1.0718 0.0558 -0.0928 0.1109 0.0666c0.1014,0.0609 0.1923,0.0909 0.2744,0.0924 0.0552,0.0016 0.1139,-0.0181 0.1734,-0.0608 0.0419,-0.0287 0.1147,-0.1288 0.2181,-0.3006l1.5206 -2.5307 -3.181 2.3285 -0.061 -0.0366 0.5285 -3.8919 -1.4451 2.4052c-0.1007,0.1676 -0.159,0.2742 -0.1736,0.3181 -0.0286,0.0961 -0.0217,0.1938 0.0198,0.2903 0.041,0.0972 0.1394,0.1925 0.2958,0.2864l-0.0558 0.0929 -1.169 -0.7024 0.0557 -0.0929 0.0353 0.0212c0.0747,0.0472 0.1529,0.0766 0.2336,0.0901 0.0809,0.0134 0.152,0.0082 0.2113,-0.0145 0.0599,-0.0237 0.1229,-0.0702 0.1887,-0.1371 0.0148,-0.0168 0.0678,-0.1009 0.1597,-0.2538l1.2985 -2.1612c0.1037,-0.1727 0.1588,-0.2858 0.1665,-0.3397 0.0071,-0.0543 -0.0081,-0.1149 -0.0452,-0.1817 -0.038,-0.0672 -0.1047,-0.1294 -0.2001,-0.1868l-0.1083 -0.0651 0.0564 -0.0937 1.3952 0.8382 -0.3935 2.8278zm3.8835 3.1198l-0.0406 0.1005 -1.9312 -0.7803 0.0406 -0.1004 0.1228 0.0495c0.1068,0.0433 0.2012,0.0587 0.2816,0.0468 0.0576,-0.0059 0.1115,-0.0349 0.1618,-0.0872 0.0378,-0.0345 0.0942,-0.1446 0.1694,-0.3306l0.9816 -2.4295c0.0762,-0.1889 0.1137,-0.3112 0.1124,-0.3668 -0.0004,-0.0553 -0.0239,-0.1124 -0.0709,-0.1725 -0.0462,-0.0598 -0.1218,-0.1108 -0.225,-0.1524l-0.1227 -0.0497 0.0409 -0.1014 1.9313 0.7803 -0.041 0.1014 -0.1227 -0.0496c-0.107,-0.0432 -0.2009,-0.0596 -0.2814,-0.0478 -0.058,0.0069 -0.1124,0.0347 -0.1646,0.086 -0.0372,0.0359 -0.0936,0.1461 -0.1684,0.3311l-0.9816 2.4296c-0.0762,0.1888 -0.1138,0.3111 -0.1124,0.3667 0.0022,0.0562 0.0265,0.1135 0.0727,0.1732 0.0467,0.061 0.1214,0.1118 0.2247,0.1535l0.1227 0.0496zm2.7963 -3.2056l1.3092 2.8732 0.4145 -1.662c0.0577,-0.2316 0.0637,-0.3965 0.0179,-0.4948 -0.064,-0.1327 -0.2035,-0.2243 -0.4194,-0.274l0.0264 -0.1061 1.2767 0.3183 -0.0265 0.1061c-0.1686,-0.0203 -0.2844,-0.0203 -0.3491,-0.0013 -0.0647,0.0191 -0.122,0.0626 -0.1719,0.1297 -0.0497,0.0673 -0.0976,0.1927 -0.143,0.3747l-0.8026 3.2189 -0.0972 -0.0242 -1.8111 -3.8706 -0.6128 2.458c-0.0553,0.2218 -0.0422,0.3843 0.0406,0.4876 0.0816,0.104 0.1887,0.1721 0.3191,0.2046l0.0914 0.0228 -0.0261 0.1051 -1.3711 -0.3418 0.0261 -0.1051c0.2137,0.0511 0.3725,0.0443 0.4775,-0.0205 0.1051,-0.0648 0.183,-0.1993 0.2342,-0.4047l0.6803 -2.7284 -0.0569 -0.1238c-0.0563,-0.1225 -0.1115,-0.2076 -0.1665,-0.2565 -0.0543,-0.0476 -0.1405,-0.0877 -0.2573,-0.1209l0.0265 -0.1061 1.3711 0.3418zm4.2487 0.8083l1.7428 2.6329 0.1492 -1.7064c0.0208,-0.2378 0.001,-0.4016 -0.0596,-0.4914 -0.0841,-0.1211 -0.2361,-0.1899 -0.4573,-0.2051l0.0096 -0.109 1.3107 0.1147 -0.0094 0.1091c-0.1698,0.0062 -0.2841,0.0244 -0.345,0.0533 -0.061,0.0288 -0.1108,0.0809 -0.1495,0.1549 -0.0387,0.0742 -0.0664,0.2057 -0.0827,0.3925l-0.2891 3.3048 -0.0999 -0.0087 -2.3942 -3.5396 -0.2208 2.5235c-0.0199,0.2278 0.0185,0.3862 0.1163,0.4753 0.0969,0.09 0.2134,0.1404 0.3473,0.1521l0.0939 0.0082 -0.0095 0.1079 -1.4077 -0.123 0.0095 -0.108c0.2189,0.0172 0.3748,-0.0145 0.4683,-0.0949 0.0936,-0.0804 0.1496,-0.2255 0.1681,-0.4362l0.245 -2.8013 -0.0756 -0.1133c-0.0748,-0.1123 -0.1426,-0.1877 -0.2046,-0.2273 -0.061,-0.0386 -0.1524,-0.0647 -0.2729,-0.0792l0.0094 -0.109 1.4077 0.1232zm4.1127 0.3764l0.1413 1.6155 0.0789 -0.007c0.2518,-0.022 0.4267,-0.1168 0.5268,-0.2846 0.099,-0.1678 0.1505,-0.4078 0.1556,-0.7183l0.1109 -0.0097 0.1817 2.078 -0.1108 0.0097c-0.0438,-0.2248 -0.1089,-0.4053 -0.1965,-0.5436 -0.0887,-0.1382 -0.184,-0.2275 -0.2883,-0.2687 -0.1032,-0.0403 -0.2503,-0.0525 -0.4391,-0.036l0.0978 1.1178c0.0192,0.2188 0.0398,0.3509 0.063,0.3981 0.0223,0.0475 0.0607,0.0844 0.1145,0.1108 0.0527,0.0278 0.1359,0.0355 0.2498,0.0256l0.2369 -0.0208c0.3705,-0.0324 0.6597,-0.1443 0.8685,-0.3356 0.2088,-0.1905 0.3457,-0.4662 0.4129,-0.8264l0.1079 -0.0094 -0.0675 1.2772 -3.4306 0.3001 -0.0095 -0.1079 0.132 -0.0115c0.1148,-0.01 0.2059,-0.0392 0.2722,-0.0862 0.0486,-0.0314 0.0835,-0.0817 0.1045,-0.151 0.018,-0.048 0.0183,-0.1718 0.0008,-0.3716l-0.2284 -2.6105c-0.0158,-0.1798 -0.0304,-0.2892 -0.0439,-0.3293 -0.0249,-0.0664 -0.0665,-0.116 -0.1218,-0.1485 -0.0797,-0.0483 -0.183,-0.0664 -0.3117,-0.0551l-0.1319 0.0114 -0.0096 -0.1089 3.3219 -0.2906 0.1026 1.1739 -0.1109 0.0097c-0.082,-0.2817 -0.179,-0.4806 -0.2928,-0.5965 -0.1128,-0.116 -0.2657,-0.1952 -0.4587,-0.2367 -0.1119,-0.0265 -0.3182,-0.0256 -0.6189,0.0009l-0.4096 0.0357zm4.7038 -0.9565l0.2858 1.297 -0.1191 0.0231c-0.1186,-0.316 -0.3065,-0.5522 -0.564,-0.7095 -0.2571,-0.1565 -0.5117,-0.2102 -0.7657,-0.1608 -0.1959,0.0381 -0.3413,0.1206 -0.435,0.2481 -0.095,0.1266 -0.1285,0.2588 -0.1019,0.3957 0.0166,0.0857 0.0524,0.1594 0.1058,0.2184 0.0727,0.0799 0.1798,0.1521 0.3199,0.2158 0.103,0.0464 0.3334,0.118 0.6917,0.216 0.5015,0.1365 0.851,0.2891 1.0493,0.458 0.1973,0.169 0.3205,0.382 0.3706,0.6401 0.0635,0.3267 -0.0098,0.6332 -0.218,0.9177 -0.2092,0.285 -0.5101,0.466 -0.9019,0.5421 -0.1231,0.024 -0.2427,0.0339 -0.3567,0.0305 -0.1143,-0.0043 -0.2613,-0.0248 -0.44,-0.0615 -0.1,-0.0204 -0.1796,-0.0244 -0.2386,-0.0129 -0.0501,0.0098 -0.0997,0.0388 -0.1474,0.0879 -0.0486,0.0493 -0.0824,0.1172 -0.1015,0.2027l-0.1064 0.0206 -0.287 -1.4766 0.1063 -0.0206c0.1655,0.3989 0.3893,0.6833 0.6739,0.8547 0.2837,0.1717 0.5649,0.2305 0.8434,0.1763 0.2156,-0.0418 0.3754,-0.1342 0.4806,-0.2763 0.1052,-0.1419 0.1425,-0.2913 0.1123,-0.4468 -0.0179,-0.0925 -0.0599,-0.1774 -0.1261,-0.2544 -0.0657,-0.076 -0.1556,-0.1444 -0.2712,-0.2027 -0.1155,-0.0581 -0.3115,-0.1253 -0.5897,-0.201 -0.3894,-0.1061 -0.6743,-0.2051 -0.8538,-0.2978 -0.1804,-0.0926 -0.3263,-0.2074 -0.4395,-0.3426 -0.1132,-0.1354 -0.1879,-0.2945 -0.2236,-0.4777 -0.0605,-0.311 0.0032,-0.5992 0.1888,-0.8631 0.1869,-0.2631 0.4541,-0.4285 0.8016,-0.4961 0.127,-0.0246 0.2529,-0.0338 0.378,-0.0264 0.095,0.0061 0.2136,0.0269 0.3547,0.0649 0.1422,0.0367 0.2398,0.0505 0.291,0.0405 0.0502,-0.0098 0.0866,-0.0332 0.1091,-0.0692 0.0236,-0.0363 0.0357,-0.1153 0.0376,-0.2373l0.0867 -0.0168zm2.0915 -0.5329c0.5883,-0.2398 1.1362,-0.2417 1.6438,-0.0082 0.5071,0.2349 0.8621,0.6296 1.0644,1.1856 0.1729,0.4751 0.1862,0.9429 0.0397,1.4051 -0.1943,0.6128 -0.6273,1.0416 -1.2992,1.286 -0.6729,0.245 -1.277,0.2065 -1.8119,-0.1164 -0.4215,-0.2553 -0.7234,-0.63 -0.9034,-1.1247 -0.2024,-0.556 -0.1818,-1.0885 0.0613,-1.5965 0.2438,-0.5091 0.6449,-0.8526 1.2053,-1.0309zm0.0982 0.1639c-0.3431,0.1248 -0.5393,0.3947 -0.5912,0.8095 -0.0408,0.3393 0.0368,0.7786 0.2324,1.3156 0.2325,0.6389 0.5164,1.0703 0.852,1.2939 0.2341,0.1571 0.4926,0.1836 0.7742,0.081 0.1895,-0.069 0.331,-0.1727 0.4249,-0.3104 0.1183,-0.1765 0.176,-0.4108 0.1722,-0.7029 -0.0036,-0.2913 -0.0812,-0.645 -0.2325,-1.0606 -0.1804,-0.4957 -0.3613,-0.8492 -0.5428,-1.0606 -0.1818,-0.2124 -0.3619,-0.3432 -0.5422,-0.3929 -0.1789,-0.049 -0.3614,-0.0403 -0.547,0.0274zm5.1126 -2.4111l0.49 0.9615 -0.0939 0.0478c-0.1697,-0.1938 -0.3123,-0.3215 -0.4294,-0.3834 -0.1176,-0.0627 -0.2506,-0.0918 -0.3986,-0.0884 -0.0823,0.0015 -0.2064,0.0455 -0.3716,0.1297l-0.2644 0.1347 1.3949 2.7378c0.0924,0.1815 0.16,0.2899 0.2029,0.3255 0.0438,0.0351 0.1031,0.0543 0.1785,0.0586 0.0767,0.0049 0.1649,-0.0187 0.2659,-0.0701l0.118 -0.0601 0.0491 0.0966 -1.8585 0.9469 -0.0492 -0.0965 0.1179 -0.0602c0.1027,-0.0522 0.1763,-0.1133 0.2202,-0.1819 0.0333,-0.0473 0.0476,-0.1074 0.0431,-0.1806 -0.0013,-0.0511 -0.0475,-0.166 -0.1386,-0.3447l-1.395 -2.7378 -0.2573 0.1312c-0.2385,0.1215 -0.3873,0.2603 -0.4435,0.4172 -0.08,0.2186 -0.0727,0.4693 0.0205,0.7516l-0.0992 0.0505 -0.4899 -0.9615 3.1881 -1.6244zm3.1145 1.3342l-1.18 0.7663 0.0709 0.4167c0.0242,0.1385 0.0594,0.2423 0.1053,0.313 0.0612,0.0943 0.1438,0.1387 0.2478,0.1332 0.0613,-0.0015 0.1831,-0.0531 0.366,-0.1528l0.059 0.0908 -1.111 0.7216 -0.059 -0.0909c0.1073,-0.096 0.1744,-0.21 0.198,-0.3414 0.0249,-0.131 0.0116,-0.3614 -0.0413,-0.6895l-0.5363 -3.4422 0.0472 -0.0306 2.9838 1.958c0.2841,0.185 0.4841,0.2871 0.6018,0.3063 0.0898,0.0146 0.1879,-0.0072 0.2951,-0.0649l0.059 0.0908 -1.6164 1.0498 -0.059 -0.0908 0.0664 -0.0432c0.1295,-0.0841 0.2092,-0.162 0.2378,-0.2321 0.0192,-0.0496 0.0131,-0.0995 -0.019,-0.149 -0.0192,-0.0295 -0.0438,-0.0565 -0.0741,-0.0811 -0.0133,-0.013 -0.0775,-0.0585 -0.1942,-0.137l-0.4478 -0.301zm-0.2027 -0.1279l-1.2442 -0.8277 0.2341 1.4836 1.0101 -0.6559z"/>
    <g>
     <polygon id="_219235616" class="fil1 str0" points="75.5301,31.0813 75.5301,59.3187 57.8578,59.3187 "/>
     <polygon id="_219235760" class="fil1 str0" points="76.8309,34.475 92.1421,59.3187 76.8309,59.3187 "/>
    </g>
   </g>
  </g>
 </g>
</svg>
