<?xml version="1.0" encoding="UTF-8" standalone="no"?>
<!-- Created with Inkscape (http://www.inkscape.org/) -->
<svg
   xmlns:dc="http://purl.org/dc/elements/1.1/"
   xmlns:cc="http://creativecommons.org/ns#"
   xmlns:rdf="http://www.w3.org/1999/02/22-rdf-syntax-ns#"
   xmlns:svg="http://www.w3.org/2000/svg"
   xmlns="http://www.w3.org/2000/svg"
   xmlns:sodipodi="http://sodipodi.sourceforge.net/DTD/sodipodi-0.dtd"
   xmlns:inkscape="http://www.inkscape.org/namespaces/inkscape"
   width="650"
   height="487.5"
   id="svg2"
   sodipodi:version="0.32"
   inkscape:version="0.46"
   version="1.0"
   sodipodi:docname="Flag of St. Paul, Minnesota.svg"
   sodipodi:docbase="F:\"
   inkscape:output_extension="org.inkscape.output.svg.inkscape">
  <defs
     id="defs4">
    <inkscape:perspective
       sodipodi:type="inkscape:persp3d"
       inkscape:vp_x="0 : 526.18109 : 1"
       inkscape:vp_y="0 : 1000 : 0"
       inkscape:vp_z="744.09448 : 526.18109 : 1"
       inkscape:persp3d-origin="372.04724 : 350.78739 : 1"
       id="perspective10" />
    <inkscape:perspective
       id="perspective2953"
       inkscape:persp3d-origin="372.04724 : 350.78739 : 1"
       inkscape:vp_z="744.09448 : 526.18109 : 1"
       inkscape:vp_y="0 : 1000 : 0"
       inkscape:vp_x="0 : 526.18109 : 1"
       sodipodi:type="inkscape:persp3d" />
    <inkscape:perspective
       id="perspective3037"
       inkscape:persp3d-origin="372.04724 : 350.78739 : 1"
       inkscape:vp_z="744.09448 : 526.18109 : 1"
       inkscape:vp_y="0 : 1000 : 0"
       inkscape:vp_x="0 : 526.18109 : 1"
       sodipodi:type="inkscape:persp3d" />
    <inkscape:perspective
       id="perspective3087"
       inkscape:persp3d-origin="372.04724 : 350.78739 : 1"
       inkscape:vp_z="744.09448 : 526.18109 : 1"
       inkscape:vp_y="0 : 1000 : 0"
       inkscape:vp_x="0 : 526.18109 : 1"
       sodipodi:type="inkscape:persp3d" />
    <inkscape:perspective
       id="perspective4372"
       inkscape:persp3d-origin="372.04724 : 350.78739 : 1"
       inkscape:vp_z="744.09448 : 526.18109 : 1"
       inkscape:vp_y="0 : 1000 : 0"
       inkscape:vp_x="0 : 526.18109 : 1"
       sodipodi:type="inkscape:persp3d" />
  </defs>
  <sodipodi:namedview
     id="base"
     pagecolor="#ffffff"
     bordercolor="#666666"
     borderopacity="1.0"
     gridtolerance="10000"
     guidetolerance="10"
     objecttolerance="10"
     inkscape:pageopacity="0.0"
     inkscape:pageshadow="2"
     inkscape:zoom="1.7536248"
     inkscape:cx="305.21016"
     inkscape:cy="70.567428"
     inkscape:document-units="px"
     inkscape:current-layer="layer1"
     showgrid="false"
     width="800px"
     inkscape:window-width="1280"
     inkscape:window-height="952"
     inkscape:window-x="-4"
     inkscape:window-y="-4"
     showguides="false"
     inkscape:guide-bbox="true">
    <inkscape:grid
       type="xygrid"
       id="grid2383"
       visible="true"
       enabled="true" />
    <sodipodi:guide
       orientation="1,0"
       position="0,533.08594"
       id="guide2469" />
    <sodipodi:guide
       orientation="0,1"
       position="650.00000"
       id="guide2473" />
    <sodipodi:guide
       orientation="1,0"
       position="325.00000"
       id="guide2547" />
    <sodipodi:guide
       orientation="horizontal"
       position="-7,487.5"
       id="guide2914" />
    <sodipodi:guide
       orientation="horizontal"
       position="0.00000000"
       id="guide2916" />
    <sodipodi:guide
       orientation="horizontal"
       position="-168.25391,243.75"
       id="guide2918" />
    <sodipodi:guide
       orientation="1,0"
       position="650,597"
       id="guide2853" />
  </sodipodi:namedview>
  <metadata
     id="metadata7">
    <rdf:RDF>
      <cc:Work
         rdf:about="">
        <dc:format>image/svg+xml</dc:format>
        <dc:type
           rdf:resource="http://purl.org/dc/dcmitype/StillImage" />
      </cc:Work>
    </rdf:RDF>
  </metadata>
  <g
     inkscape:label="Layer 1"
     inkscape:groupmode="layer"
     id="layer1">
    <rect
       style="opacity:1;fill:#f5dc0f;fill-opacity:1;fill-rule:nonzero;stroke:none;stroke-width:0.50000000000000000;stroke-linecap:butt;stroke-linejoin:round;stroke-miterlimit:4;stroke-dasharray:none;stroke-dashoffset:0;stroke-opacity:1"
       id="rect4233"
       width="650"
       height="487.5"
       x="0"
       y="0" />
    <rect
       y="162.5"
       x="-1.030287e-13"
       height="162.5"
       width="650"
       id="rect4229"
       style="opacity:1;fill:#002673;fill-opacity:1;fill-rule:nonzero;stroke:none;stroke-width:0.50000000000000000;stroke-linecap:butt;stroke-linejoin:round;stroke-miterlimit:4;stroke-dasharray:none;stroke-dashoffset:0;stroke-opacity:1" />
    <path
       id="path4143"
       style="fill:#c70f2e;fill-rule:evenodd;stroke:none;stroke-width:1px;stroke-linecap:butt;stroke-linejoin:miter;stroke-opacity:1;fill-opacity:1"
       d="M 325,411.48602 C 320.48734,404.63302 304.47002,401.13876 299.62859,399.81876 L 237.39928,382.85211 C 201.08217,372.95035 190.37668,345.16281 190.37668,313.90919 L 190.37668,101.07005 C 230.31782,115.18574 276.0878,112.7873 305.45605,91.454037 L 325,77.257202 L 344.54395,91.454037 C 373.9122,112.7873 419.68218,115.18574 459.62332,101.07005 L 459.62332,313.90919 C 459.62332,345.16281 448.91783,372.95035 412.60072,382.85211 L 350.37141,399.81876 C 345.52998,401.13876 329.51266,404.63302 325,411.48602 z"
       sodipodi:nodetypes="cssscscscsssc" />
    <path
       style="fill:#f5dc0f;fill-rule:evenodd;stroke:none;stroke-width:1px;stroke-linecap:butt;stroke-linejoin:miter;stroke-opacity:1;fill-opacity:1"
       d="M 325,74.247267 L 321.375,77.497267 L 321.375,209.625 L 190.375,209.625 L 286.875,396.34375 C 290.29618,384.67774 305.08193,376.28125 325,376.28125 C 344.56503,376.28124 359.70382,384.67774 363.125,396.34375 L 459.625,209.625 L 328.625,209.625 L 328.625,77.497267 L 325,74.247267 z"
       id="path4148"
       sodipodi:nodetypes="cccccsccccc" />
    <path
       id="path3115"
       style="fill:#f5dc0f;fill-rule:evenodd;stroke:none;stroke-width:0.98292612999999995px;stroke-linecap:butt;stroke-linejoin:miter;stroke-opacity:1;fill-opacity:1"
       d="M 391.1875,113.1875 C 390.12457,113.1875 389.11113,114.35967 390.21875,115.75 L 390.21875,118.71875 L 385.625,125.28125 L 385.625,132.34375 C 384.37571,132.70838 383.12431,133.08997 381.875,134.34375 L 381.875,137.40625 C 372.57764,141.92916 366.75218,148.58835 365.28125,159.0625 C 369.99651,155.66873 383.67956,155 391.1875,155 C 398.82044,155 412.40972,155.66874 417.125,159.0625 C 415.65406,148.58834 409.79736,141.92916 400.5,137.40625 L 400.5,134.34375 C 399.25069,133.08997 397.9993,132.70838 396.75,132.34375 L 396.75,125.28125 L 392.15625,118.71875 L 392.15625,115.75 C 393.26389,114.35967 392.25046,113.1875 391.1875,113.1875 z M 391.1875,144.8125 C 392.3293,144.81251 394.125,145.75785 394.125,147.53125 L 394.125,149.75 C 394.12499,151.01502 392.63812,152.15625 391.1875,152.15625 C 389.71987,152.15625 388.25,151.01502 388.25,149.75 L 388.25,147.53125 C 388.25,145.75785 390.0457,144.8125 391.1875,144.8125 z M 378.625,146.0625 C 379.6728,146.0625 381.13235,146.95414 380.8125,148.65625 L 380.40625,150.8125 C 380.17808,152.02667 378.62806,153.125 377.28125,153.125 C 375.95007,153.125 374.80309,152.02666 375.03125,150.8125 L 375.4375,148.65625 C 375.75734,146.95414 377.57722,146.0625 378.625,146.0625 z M 403.78125,146.0625 C 404.82901,146.0625 406.61765,146.95414 406.9375,148.65625 L 407.34375,150.8125 C 407.57192,152.02666 406.42494,153.125 405.09375,153.125 C 403.74694,153.125 402.19692,152.02667 401.96875,150.8125 L 401.5625,148.65625 C 401.24264,146.95414 402.73346,146.0625 403.78125,146.0625 z M 391.1875,157.9375 C 377.51237,157.9375 366.99324,160.29058 363.3125,162.34375 L 363.3125,167.8125 C 367.85634,166.28267 377.76963,164.375 391.1875,164.375 C 404.60537,164.375 414.51866,166.28267 419.0625,167.8125 L 419.0625,162.34375 C 415.38174,160.29059 404.86263,157.93751 391.1875,157.9375 z M 391.1875,167.6875 C 379.85062,167.68751 364.06275,168.95086 360.6875,171.25 L 360.6875,180.40625 C 366.01488,182.57655 371.09637,185.39571 376.03125,188.5625 C 378.05649,188.37088 380.10193,188.31006 382.15625,188.375 C 387.32384,188.53836 392.4671,189.45584 396.96875,190.84375 C 403.88803,185.49433 412.61845,182.25247 421.6875,182.4375 L 421.6875,171.25 C 418.31223,168.95086 402.5244,167.6875 391.1875,167.6875 z M 388.25,172.5 L 394.125,172.5 L 394.125,182.0625 L 388.25,182.0625 L 388.25,172.5 z M 377.0625,172.875 L 377.0625,182.0625 L 371.1875,182.0625 L 371.1875,173.21875 L 377.0625,172.875 z M 405.34375,172.875 L 411.21875,173.21875 L 411.21875,182.0625 L 405.34375,182.0625 L 405.34375,172.875 z M 342.75,179.9375 C 342.53969,179.93985 342.3346,179.96197 342.125,179.96875 C 342.64344,183.13652 345.34023,186.42898 353.125,189.875 C 358.45499,192.23438 363.31196,195.875 364.125,198.875 C 360.37953,199.28261 356.32603,199.26572 353.5,198.875 C 351.75392,198.63359 351.62298,200.39237 353.125,201.25 C 357.23444,203.59643 363.12499,203.854 370.75,202.5 C 377.23696,201.34809 384.34921,202.51539 390.90625,203.40625 C 383.94673,198.10238 376.76677,192.87944 369.59375,188.71875 C 360.40267,183.38749 351.28922,179.84208 342.75,179.9375 z M 382.5,191.75 C 381.95176,191.75105 381.44105,191.77192 380.9375,191.8125 C 382.59763,192.84134 388.84666,197.47691 391.125,199.1875 C 393.56261,201.01766 395.70443,202.71754 399.15625,202.3125 C 405.30531,201.59097 407.28905,201.94133 413.6875,203.5625 C 416.17256,204.19214 418.37359,203.9176 420.78125,203.3125 C 417.18644,201.21361 413.52861,199.18107 408.28125,198 C 405.0176,197.26541 402.50201,196.64786 399.65625,195.46875 C 394.71355,193.42079 387.69792,191.74007 382.5,191.75 z M 449.25,175.375 C 440.32023,175.65584 432.65789,180.07017 427,186.625 C 416.51058,184.14478 405.88053,188.59301 401.03125,192.25 C 403.12136,193.11374 405.04886,193.65765 407.4375,194.21875 C 414.69512,191.98699 421.8973,192.4348 428.875,193.5 C 435.81692,186.8649 443.84646,179.62455 450.625,177.875 C 452.45876,177.4017 453.47363,175.24217 449.25,175.375 z"
       sodipodi:nodetypes="ccccccccscccccccccccsccccccsccccccsccccccscccccccscccccccccccccccccccccscssscscccssscssccccccsc" />
    <path
       style="fill:#f5dc0f;fill-rule:evenodd;stroke:none;stroke-width:1px;stroke-linecap:butt;stroke-linejoin:miter;stroke-opacity:1;fill-opacity:1"
       d="M 273.20623,127.86753 L 239.33123,128.30503 L 221.95623,146.30503 L 242.23748,151.43003 L 298.39373,150.05503 L 298.39373,135.31775 L 289.64373,135.474 L 289.6772,142.42223 L 273.20623,127.86753 z M 220.70623,149.08628 L 220.70623,159.11753 L 240.51873,166.18003 L 240.51873,154.08628 L 220.70623,149.08628 z M 298.39373,153.05503 L 243.51873,154.39878 L 243.51873,166.74253 L 298.39373,164.68003 L 298.39373,153.05503 z M 220.70623,162.30503 L 220.70623,171.89878 L 240.51873,180.83628 L 240.51873,169.36753 L 220.70623,162.30503 z M 298.39373,167.68003 L 243.51873,169.74253 L 243.51873,181.58628 L 298.39373,178.96128 L 298.39373,167.68003 z M 220.70623,175.18003 L 220.70623,186.74253 L 240.51873,198.02378 L 240.51873,184.14878 L 220.70623,175.18003 z M 298.39373,181.99253 L 279.39373,182.89878 L 279.39373,196.77378 L 298.39373,195.71128 L 298.39373,181.99253 z M 264.89373,183.58628 L 243.51873,184.61753 L 243.51873,198.77378 L 264.89373,197.58628 L 264.89373,183.58628 z"
       id="path3992"
       sodipodi:nodetypes="cccccccccccccccccccccccccccccccccccccccccccc" />
    <path
       style="fill:#002673;fill-rule:evenodd;stroke:none;stroke-width:1px;stroke-linecap:butt;stroke-linejoin:miter;stroke-opacity:1;fill-opacity:1"
       d="M 434.84375,226.34375 C 434.38181,226.39705 433.89495,226.62223 433.375,227 C 424.78845,233.23874 401.22907,233.90728 367.28125,235.875 C 344.71793,237.18285 333.02368,250.10996 330.375,268.96875 C 337.91344,269.79021 344.86279,272.83822 351.15625,277 C 355.77285,274.84448 361.87697,274.47907 369.28125,274.15625 C 384.91201,273.47479 386.86471,268.53855 390.25,263.3125 C 380.88577,264.94452 371.59929,260.09694 361.75,264.0625 C 365.15896,261.19682 368.98448,260.35036 373,260.3125 C 379.03288,260.25563 385.57991,262.086 392.125,261 C 399.58232,259.76264 405.781,255.25448 408.625,247.28125 C 398.2785,249.93673 387.63652,245.31486 376.875,250.03125 C 385.46963,242.55112 397.1981,246.90704 408.6875,245.1875 C 415.35429,244.18973 421.84533,241.86372 427.70718,238.41497 C 431.83414,235.70055 436.25157,233.10019 436.625,227.84375 C 436.28597,226.68084 435.61361,226.25491 434.84375,226.34375 z"
       id="path4061"
       inkscape:transform-center-x="-58.543373"
       inkscape:transform-center-y="27.577165"
       sodipodi:nodetypes="cssccsccssccsccc" />
    <path
       transform="translate(0,13.346641)"
       style="fill:#002673;fill-opacity:1;fill-rule:nonzero;stroke:none;stroke-width:0.5;stroke-linecap:butt;stroke-linejoin:round;stroke-miterlimit:4;stroke-dashoffset:0;stroke-opacity:1"
       d="M 325,17.981098 L 332.46217,40.944328 L 356.60743,40.945242 L 337.07404,55.138211 L 344.53447,78.102006 L 325,63.910514 L 305.46553,78.102005 L 312.92596,55.138211 L 293.39257,40.945241 L 317.53783,40.944328 L 325,17.981098 z"
       id="path4162" />
    <path
       id="path4184"
       style="fill:#c70f2e;fill-opacity:1;fill-rule:evenodd;stroke:none;stroke-width:1px;stroke-linecap:butt;stroke-linejoin:miter;stroke-opacity:1"
       d="M 325,469.9375 C 270.67973,469.9375 224.04427,467.3918 170.558,458.5625 C 157.10234,456.34129 145.55886,454.45622 147.63,440.0625 C 148.94876,430.89755 141.53606,425.45939 131.78649,423.90625 C 112.87611,420.89376 94.249771,415.20892 79.554435,407.625 C 96.673936,406.66093 110.4888,401.47443 119.00219,394.5 C 107.84975,387.08978 100.03573,375.909 94.399674,361.65625 C 113.16679,371.3415 128.4056,377.53127 152.62135,378.25 C 177.23446,378.98053 178.47037,391.92766 177.48148,400.15625 C 176.53598,408.02387 184.3557,413.11705 191.29625,414.1875 C 230.43574,420.22403 278.94593,422.96875 325,422.96875 C 371.05407,422.96875 419.56426,420.22403 458.70375,414.1875 C 465.6443,413.11705 473.46402,408.02387 472.51852,400.15625 C 471.52963,391.92766 472.76554,378.98053 497.37865,378.25 C 521.5944,377.53127 536.83321,371.3415 555.60033,361.65625 C 549.96427,375.909 542.15025,387.08978 530.99781,394.5 C 539.5112,401.47443 553.32606,406.66093 570.44556,407.625 C 555.75023,415.20892 537.12389,420.89376 518.21351,423.90625 C 508.46394,425.45939 501.05124,430.89755 502.37,440.0625 C 504.44114,454.45622 492.89766,456.34129 479.442,458.5625 C 425.95573,467.3918 379.32027,469.9375 325,469.9375 z"
       sodipodi:nodetypes="cssscccssszssscccsssz" />
    <path
       style="font-size:40px;font-style:normal;font-variant:normal;font-weight:normal;font-stretch:normal;text-align:center;line-height:125%;writing-mode:lr-tb;text-anchor:middle;fill:#f5dc0f;fill-opacity:1;stroke:none;stroke-width:1px;stroke-linecap:butt;stroke-linejoin:miter;stroke-opacity:1;font-family:Windsor BT;-inkscape-font-specification:Windsor BT"
       d="M 173.13892,444.51608 C 172.95583,444.06743 172.81993,443.65544 172.73121,443.28013 C 172.64248,442.90482 172.61737,442.58839 172.65587,442.33083 C 172.70783,441.98313 172.8458,441.7207 173.06976,441.54352 C 173.29372,441.36635 173.56024,441.30086 173.86931,441.34705 C 174.32003,441.41442 174.97989,441.88827 175.84889,442.76858 C 176.36294,443.29304 176.7839,443.69168 177.11176,443.96449 C 178.57134,445.20956 180.09163,446.18064 181.67263,446.87773 C 183.25361,447.57482 185.10008,448.0812 187.21205,448.39687 C 189.19521,448.69328 190.82374,448.58781 192.09766,448.08044 C 193.37152,447.57307 193.80708,447.40074 193.97456,446.28037 C 194.12659,445.26303 193.72449,444.51164 192.76826,443.59853 C 191.81198,442.68543 189.76826,441.42876 186.6371,439.82852 C 186.12509,439.55452 185.39736,439.18244 184.4539,438.71228 C 181.52816,437.23492 179.96683,435.30048 179.19967,434.61969 C 178.1452,433.659 177.41312,432.67737 177.00345,431.67479 C 176.59376,430.67224 176.47457,429.5979 176.64588,428.45176 C 176.95961,426.3527 178.07198,424.76796 179.98298,423.69752 C 181.89397,422.62713 184.20807,422.29498 186.9253,422.70108 C 187.98126,422.85894 189.04034,423.10611 190.10255,423.44257 C 191.16472,423.77909 191.71513,423.95023 191.75378,423.95598 C 192.04995,424.00027 192.29363,423.97745 192.48482,423.88751 C 192.67597,423.79762 192.86452,423.61515 193.05047,423.34011 C 193.21965,423.08895 193.39758,422.91148 193.58426,422.8077 C 193.77089,422.70397 193.98012,422.66941 194.21195,422.70403 C 194.53387,422.75218 194.8504,422.92456 195.16156,423.22118 C 195.47266,423.51786 195.82412,423.9851 196.21593,424.62291 L 198.83531,428.76658 C 199.23994,429.40636 199.50288,429.89329 199.62413,430.22736 C 199.74532,430.56146 199.78571,430.86372 199.74532,431.13414 C 199.6991,431.44322 199.54744,431.68716 199.29035,431.86594 C 199.0332,432.04476 198.74367,432.1101 198.42175,432.06196 C 197.99676,431.99846 197.2973,431.52528 196.32338,430.64243 C 195.82351,430.1991 195.42157,429.84939 195.11757,429.59328 C 194.1211,428.77293 193.15388,428.13136 192.21591,427.66859 C 191.27789,427.20586 190.33886,426.90423 189.3988,426.7637 C 188.09813,426.56932 187.04821,426.61317 186.24905,426.89524 C 185.44985,427.17736 184.99926,427.65967 184.89726,428.34217 C 184.73556,429.42393 186.16825,431.60245 189.76557,433.16701 C 191.10053,433.74836 192.14991,434.21459 192.91371,434.56571 C 196.39641,436.19217 199.09603,437.0636 200.44231,438.89075 C 201.78854,440.71791 202.27111,442.90638 201.89004,445.45618 C 201.48388,448.17339 200.08474,450.17936 197.69262,451.47408 C 195.30045,452.7688 192.25641,453.13996 188.56051,452.58755 C 186.68034,452.30653 184.77321,451.85362 182.83913,451.22882 C 180.90502,450.60402 179.8929,450.28489 179.80277,450.27141 C 179.58384,450.23869 179.21007,450.51526 178.68147,451.1011 C 178.15286,451.68695 177.63744,451.94234 177.13521,451.86728 C 176.81326,451.81916 176.5344,451.65899 176.29861,451.38677 C 176.06282,451.11455 175.76347,450.56293 175.40056,449.73193 L 173.13892,444.51608 z M 217.42859,442.03947 C 217.34599,442.20094 217.28556,442.33857 217.24732,442.45234 C 217.20905,442.56614 217.18581,442.66188 217.17758,442.73956 C 217.13912,443.10212 217.29396,443.3706 217.64211,443.54499 C 217.99023,443.7194 218.68222,443.86153 219.7181,443.97137 C 221.0388,444.11144 222.08785,444.12776 222.86525,444.02033 C 223.64261,443.91292 224.04778,443.70383 224.08075,443.39306 C 224.09584,443.25064 224.09441,443.10973 224.07648,442.97033 C 224.05851,442.83096 224.02167,442.65356 223.96597,442.43814 L 222.2376,435.40022 C 222.18186,435.18482 222.11197,435.01046 222.02792,434.87714 C 221.94383,434.74385 221.86295,434.67308 221.78528,434.66482 C 221.66873,434.65248 221.54567,434.70163 221.41611,434.81226 C 221.28652,434.92293 221.1719,435.07772 221.07226,435.27663 L 217.42859,442.03947 z M 205.8089,454.00582 C 205.26507,453.94814 204.85798,453.77403 204.58764,453.48349 C 204.31729,453.19294 204.20821,452.80165 204.26039,452.30962 C 204.34415,451.51978 204.89522,451.01519 205.91362,450.79584 C 206.16787,450.74424 206.36249,450.69941 206.49746,450.66134 C 206.91671,450.53559 207.318,450.27044 207.70134,449.8659 C 208.08468,449.46136 208.62506,448.68721 209.32249,447.54344 L 220.77407,428.27254 C 220.83683,428.17447 220.90883,428.05117 220.99006,427.90263 C 221.3108,427.34745 221.8661,427.11172 222.65596,427.19546 L 226.07429,427.55797 C 226.63104,427.61704 226.97991,427.72278 227.12089,427.87519 C 227.26183,428.02765 227.41893,428.46003 227.59219,429.17236 L 232.86649,450.00096 C 232.88549,450.06845 232.91335,450.17616 232.95007,450.32408 C 233.41404,452.2457 234.08952,453.46959 234.97651,453.99575 C 235.05004,454.04283 235.14304,454.09198 235.25548,454.14318 C 236.10906,454.61343 236.4981,455.20462 236.42261,455.91678 C 236.37314,456.38291 236.20149,456.70515 235.90764,456.88349 C 235.61372,457.06182 235.14307,457.11666 234.49569,457.048 L 225.69737,456.11496 C 224.86867,456.02707 224.31096,455.85336 224.02425,455.59381 C 223.7375,455.33426 223.62366,454.9261 223.68273,454.36933 C 223.71429,454.07152 223.82337,453.81466 224.00996,453.59876 C 224.1965,453.38285 224.44556,453.22595 224.75712,453.12805 C 224.86618,453.08724 225.00115,453.04918 225.16204,453.01387 C 225.69918,452.88752 225.99247,452.59127 226.04192,452.12514 C 226.07074,451.85323 226.01178,451.42142 225.86505,450.82973 C 225.71827,450.23804 225.53974,449.76082 225.32944,449.39808 C 225.02925,448.89487 224.67582,448.5235 224.26915,448.28395 C 223.86244,448.04442 223.26417,447.88277 222.47434,447.79901 L 217.83241,447.30674 C 217.09434,447.22847 216.45591,447.22951 215.9171,447.30985 C 215.37827,447.3902 214.9527,447.54475 214.64038,447.7735 C 214.24075,448.08466 213.84883,448.57012 213.46461,449.22989 C 213.08039,449.88967 212.86356,450.45263 212.81413,450.91876 C 212.77842,451.25542 213.01944,451.57559 213.53719,451.87927 C 213.58622,451.91066 213.61653,451.93352 213.62812,451.94784 C 214.0607,452.19012 214.35885,452.43452 214.52258,452.68102 C 214.68629,452.92753 214.75099,453.21263 214.71667,453.53634 C 214.66997,453.97657 214.48468,454.30391 214.16079,454.51835 C 213.83688,454.73278 213.41597,454.81253 212.89805,454.75761 L 205.8089,454.00582 z M 244.03528,457.79883 C 243.21699,457.74123 242.62587,457.56256 242.2619,457.26282 C 241.89794,456.96309 241.73607,456.52747 241.7763,455.95597 C 241.8211,455.31953 242.30395,454.8575 243.22486,454.56989 C 243.49194,454.48427 243.68576,454.41959 243.80632,454.37586 C 244.12902,454.24195 244.36793,454.04665 244.52306,453.78998 C 244.67818,453.53332 244.77357,453.1517 244.80923,452.64514 L 246.07645,434.64281 C 246.1121,434.13627 246.07111,433.74506 245.95348,433.46917 C 245.83584,433.19332 245.62664,432.96649 245.32589,432.78865 C 245.20057,432.71459 245.01772,432.6234 244.77734,432.51509 C 243.9058,432.10133 243.49243,431.57622 243.53724,430.93975 C 243.57838,430.35528 243.7999,429.94339 244.20182,429.70406 C 244.60372,429.4648 245.21382,429.37395 246.03211,429.43152 L 253.98119,429.99107 C 254.79947,430.0487 255.38757,430.22389 255.74552,430.51665 C 256.10343,430.80946 256.26182,431.24809 256.2207,431.83256 C 256.17588,432.46903 255.69952,432.93151 254.79162,433.22001 C 254.52452,433.30566 254.33719,433.37079 254.22964,433.41541 C 253.89393,433.54844 253.64853,433.74327 253.49342,433.99992 C 253.33828,434.25661 253.24289,434.63822 253.20724,435.14476 L 251.94003,453.14709 C 251.90436,453.65365 251.94535,454.04486 252.063,454.32073 C 252.18062,454.5966 252.39632,454.8239 252.71007,455.00261 C 252.81031,455.06189 252.98667,455.15262 253.23914,455.27481 C 254.09767,455.68768 254.50454,456.21234 254.45976,456.84878 C 254.4186,457.43327 254.20032,457.84539 253.80492,458.08515 C 253.40949,458.3249 252.80264,458.41598 251.98436,458.35838 L 244.03528,457.79883 z M 265.34738,434.88748 C 265.35462,434.70536 265.2544,434.52219 265.04671,434.33799 C 264.83902,434.15383 264.53662,433.97566 264.1395,433.80347 C 263.66535,433.6022 263.34798,433.39086 263.18738,433.16943 C 263.02678,432.94806 262.95347,432.66171 262.96744,432.3104 C 262.99072,431.72496 263.19957,431.30649 263.59399,431.05501 C 263.98841,430.80359 264.59545,430.69416 265.41512,430.72673 L 271.58212,430.97199 C 271.95941,430.98702 272.28599,431.04888 272.56185,431.15755 C 272.83768,431.26628 273.07555,431.42886 273.27545,431.64528 L 285.02546,445.34568 L 285.36851,436.71968 C 285.38867,436.21229 285.33575,435.82251 285.20978,435.55034 C 285.08375,435.27822 284.86772,435.05787 284.5617,434.8893 C 284.42115,434.81858 284.2356,434.73302 284.00506,434.6326 C 283.10827,434.24512 282.67256,433.73261 282.69794,433.09507 C 282.7212,432.50962 282.93005,432.09116 283.32449,431.83968 C 283.71889,431.58826 284.33243,431.47909 285.16513,431.51218 L 290.08312,431.70776 C 290.91576,431.7409 291.5187,431.89845 291.89194,432.1804 C 292.26511,432.46241 292.44007,432.89614 292.41682,433.48159 C 292.39143,434.11913 291.9164,434.59542 290.99172,434.91046 C 290.75388,434.99224 290.56863,435.06306 290.43597,435.12292 C 290.10446,435.26613 289.86837,435.4685 289.72769,435.73002 C 289.58695,435.99158 289.5065,436.37606 289.48635,436.88345 L 288.58526,459.54132 C 288.57695,459.74949 288.5321,459.8943 288.4507,459.97577 C 288.36925,460.05723 288.23096,460.09408 288.03583,460.08632 L 284.7962,459.95748 C 284.60102,459.94972 284.46609,459.902 284.39141,459.81433 C 284.31669,459.72666 284.28348,459.57874 284.29178,459.37057 L 284.39811,456.6969 C 284.43741,455.7081 283.91492,454.59271 282.83062,453.35072 C 282.71868,453.21596 282.63773,453.12153 282.58778,453.06741 L 269.81252,438.11434 L 269.17842,454.05877 C 269.15772,454.57919 269.20699,454.9786 269.32624,455.25699 C 269.44547,455.53539 269.66461,455.75912 269.98368,455.92818 C 270.09869,455.98488 270.28424,456.07045 270.54032,456.18488 C 271.42407,456.57187 271.85327,457.08412 271.82793,457.72163 C 271.80412,458.32012 271.59813,458.74847 271.20997,459.00669 C 270.82179,459.2649 270.21136,459.37745 269.3787,459.34434 L 263.97282,459.12935 C 263.14014,459.09624 262.53733,458.93543 262.16439,458.64695 C 261.79144,458.35846 261.61687,457.91498 261.64067,457.31649 C 261.66602,456.67898 262.12804,456.20217 263.02673,455.88607 C 263.29108,455.79234 263.47633,455.72152 263.58249,455.67361 C 263.92697,455.53094 264.17633,455.32259 264.33057,455.04855 C 264.48481,454.77452 264.57202,454.38379 264.5922,453.87638 L 265.34738,434.88748 z M 308.26679,460.42199 C 307.43348,460.41426 306.82606,460.27189 306.44451,459.9949 C 306.06294,459.71791 305.87482,459.29297 305.88015,458.72007 C 305.88606,458.08208 306.33985,457.59148 307.24153,457.24827 C 307.50289,457.14653 307.69241,457.07016 307.81008,457.01917 C 308.13703,456.86595 308.36685,456.65649 308.49954,456.39078 C 308.63221,456.12507 308.70091,455.73833 308.70564,455.23053 L 308.86938,438.30022 C 308.87614,437.57111 308.76,437.10777 308.52095,436.91021 C 308.28187,436.71269 307.72616,436.60987 306.85382,436.60175 C 305.73406,436.59138 304.77894,436.73225 303.98844,437.02438 C 303.19793,437.31656 302.25147,437.92628 301.14907,438.85357 C 300.83404,439.12411 300.42691,439.49795 299.92767,439.97509 C 299.00815,440.839 298.35308,441.26914 297.96248,441.26549 C 297.67603,441.26285 297.44583,441.16305 297.27187,440.9661 C 297.09791,440.76918 297.01244,440.50796 297.01546,440.18243 C 297.02054,439.6356 298.10845,437.46462 300.2792,433.66949 L 300.43816,433.37798 C 300.84855,432.65262 301.2213,432.12546 301.55641,431.7965 C 301.8915,431.46759 302.21529,431.30458 302.52779,431.30745 C 302.85329,431.3105 303.24509,431.5355 303.70321,431.98245 C 304.16131,432.42946 304.74191,432.65622 305.44502,432.66272 L 320.48343,432.80235 C 321.22556,432.80927 321.89126,432.6364 322.48052,432.28376 C 323.06973,431.93117 323.44898,431.75565 323.61827,431.75719 C 324.17811,431.76242 324.77751,432.41905 325.41646,433.72709 C 325.53132,433.97559 325.62716,434.1718 325.70398,434.31573 C 326.63726,436.17345 327.30126,437.58593 327.69597,438.55315 C 328.09062,439.52042 328.28627,440.18633 328.28292,440.55088 C 328.28023,440.83734 328.17054,441.08047 327.95387,441.28027 C 327.73713,441.48011 327.47253,441.57857 327.16007,441.57565 C 326.75642,441.57192 326.23218,441.23501 325.58736,440.56491 C 325.36828,440.31549 325.18775,440.12501 325.04577,439.99345 C 323.67792,438.65259 322.5306,437.75649 321.60378,437.30513 C 320.67692,436.85382 319.64061,436.62284 318.49485,436.61217 C 317.50529,436.60301 316.84342,436.71406 316.50925,436.94531 C 316.17503,437.17662 316.00473,437.6373 315.99835,438.32735 L 315.83424,455.29672 C 315.82962,455.79149 315.89441,456.17623 316.02861,456.45092 C 316.16276,456.72562 316.39839,456.94266 316.73548,457.10204 C 316.86506,457.16835 317.04662,457.24817 317.28016,457.34148 C 318.16225,457.70125 318.60034,458.20013 318.59444,458.83812 C 318.5891,459.41102 318.39312,459.83239 318.00651,460.10225 C 317.61985,460.37211 317.00989,460.50317 316.17661,460.49543 L 308.26679,460.42199 z M 365.31316,446.45838 C 365.33609,447.26536 365.54324,447.79354 365.93461,448.04292 C 366.32596,448.29233 367.04877,448.40204 368.10304,448.37206 C 370.26361,448.31064 371.9466,447.7157 373.15202,446.58723 C 374.35739,445.45879 374.9329,443.93791 374.87852,442.02461 C 374.82263,440.05928 374.10245,438.43846 372.71799,437.16216 C 371.33349,435.88591 369.63905,435.27627 367.63467,435.33323 C 366.74959,435.35841 366.10009,435.53645 365.68617,435.86733 C 365.27221,436.19826 365.06185,436.70249 365.05507,437.38001 L 365.31316,446.45838 z M 365.55515,454.97056 C 365.56883,455.45214 365.65105,455.82431 365.80182,456.08705 C 365.95257,456.3498 366.19286,456.55465 366.5227,456.70158 C 366.64131,456.75032 366.83226,456.82304 367.09554,456.91976 C 367.99058,457.24603 368.44717,457.72804 368.46531,458.3658 C 368.48158,458.93848 368.30162,459.36695 367.92545,459.65119 C 367.54925,459.93543 366.94465,460.08939 366.11167,460.11308 L 358.18518,460.33842 C 357.35218,460.3621 356.73982,460.24273 356.34809,459.98032 C 355.95636,459.71791 355.75236,459.30036 355.73608,458.72768 C 355.71795,458.08992 356.15943,457.58237 357.06053,457.20505 C 357.31788,457.09353 357.50439,457.01007 357.62005,456.95467 C 357.94099,456.78924 358.16285,456.57451 358.28561,456.3105 C 358.40836,456.04649 358.4627,455.66719 358.44865,455.17259 L 357.93469,437.09396 C 357.92026,436.58638 357.84092,436.20111 357.69667,435.93815 C 357.55242,435.67524 357.32189,435.47012 357.00508,435.32279 C 356.88645,435.27408 356.69551,435.20135 356.43224,435.1046 C 355.51116,434.77911 355.04155,434.29747 355.02342,433.65968 C 355.00677,433.07401 355.18663,432.64229 355.563,432.36453 C 355.93938,432.08682 356.54406,431.93611 357.37706,431.9124 L 364.30785,431.71537 C 367.06714,431.63695 369.30701,431.72959 371.02745,431.99327 C 372.74786,432.25702 374.3209,432.72032 375.74659,433.38317 C 378.00405,434.43926 379.73947,435.80325 380.95287,437.47515 C 382.1662,439.1471 382.80323,441.05033 382.86394,443.18487 C 382.9431,445.97022 381.96738,448.07561 379.93678,449.50107 C 377.90613,450.92655 374.77579,451.69941 370.54575,451.81966 C 370.14225,451.83114 369.54624,451.82854 368.7577,451.81187 C 367.96913,451.79522 367.37962,451.79244 366.98917,451.80353 C 366.42949,451.81945 366.03817,451.91525 365.81522,452.09092 C 365.59225,452.2666 365.48687,452.5692 365.49909,452.9987 L 365.55515,454.97056 z M 395.65819,445.54621 C 395.60429,445.7194 395.5682,445.8653 395.54989,445.98393 C 395.53157,446.10258 395.52497,446.20088 395.53009,446.27883 C 395.55395,446.64264 395.75226,446.88082 396.12502,446.99337 C 396.49776,447.10594 397.20385,447.12812 398.2433,447.05992 C 399.56856,446.97298 400.60506,446.81038 401.3528,446.57211 C 402.1005,446.33386 402.46414,446.05881 402.4437,445.74697 C 402.4343,445.60406 402.4089,445.46545 402.36749,445.33114 C 402.32603,445.19686 402.25952,445.02833 402.16794,444.82554 L 399.26605,438.18486 C 399.17444,437.98211 399.07587,437.82221 398.97034,437.70515 C 398.86478,437.58813 398.77303,437.53216 398.69509,437.53726 C 398.57814,437.54495 398.46525,437.61434 398.35643,437.74542 C 398.24758,437.87655 398.161,438.0486 398.09669,438.26158 L 395.65819,445.54621 z M 386.24652,459.31688 C 385.70081,459.35268 385.27002,459.25046 384.95414,459.0102 C 384.63825,458.76995 384.46412,458.40296 384.43172,457.90923 C 384.37973,457.11667 384.8368,456.52558 385.80296,456.13597 C 386.0447,456.04182 386.22884,455.9645 386.35536,455.904 C 386.74706,455.70867 387.09732,455.37904 387.40616,454.91512 C 387.71499,454.4512 388.11561,453.59632 388.60803,452.35047 L 396.60985,431.41062 C 396.65499,431.3033 396.70494,431.16953 396.75969,431.00933 C 396.98117,430.40763 397.48821,430.08077 398.28079,430.02874 L 401.71091,429.80371 C 402.26959,429.76708 402.63137,429.81186 402.79625,429.93802 C 402.9611,430.06425 403.18955,430.46356 403.48161,431.13596 L 412.22657,450.76183 C 412.25679,450.8251 412.30259,450.92648 412.36397,451.06599 C 413.14847,452.8805 414.02254,453.97146 414.98619,454.33884 C 415.06667,454.37271 415.16668,454.4053 415.2862,454.4366 C 416.2074,454.75458 416.69146,455.27088 416.73837,455.98548 C 416.76902,456.45323 416.65476,456.8 416.39558,457.02578 C 416.13634,457.25157 415.68191,457.38577 415.03229,457.42839 L 406.20362,458.0076 C 405.37205,458.06215 404.7929,457.98597 404.46618,457.77905 C 404.13941,457.57213 403.95771,457.18933 403.92108,456.63063 C 403.90145,456.3318 403.96518,456.06011 404.11227,455.81558 C 404.25932,455.57106 404.47801,455.37403 404.76834,455.22449 C 404.86886,455.1657 404.99538,455.10521 405.1479,455.043 C 405.65566,454.82701 405.89421,454.48514 405.86355,454.01739 C 405.84562,453.74455 405.71398,453.3291 405.46861,452.77104 C 405.22319,452.213 404.96598,451.77317 404.69698,451.45154 C 404.31546,451.00682 403.90394,450.70107 403.46241,450.5343 C 403.02084,450.36754 402.40378,450.31016 401.61123,450.36215 L 396.95327,450.66773 C 396.21267,450.71633 395.58374,450.82609 395.06649,450.99703 C 394.54922,451.16799 394.15619,451.39277 393.8874,451.67137 C 393.5466,452.04605 393.2431,452.59118 392.97688,453.30675 C 392.71065,454.02233 392.59288,454.61399 392.62357,455.08173 C 392.64573,455.41955 392.93776,455.69399 393.49966,455.90505 C 393.55333,455.92763 393.58709,455.94499 393.60094,455.95713 C 394.06847,456.12219 394.4039,456.31223 394.60722,456.52724 C 394.81052,456.74226 394.92284,457.01218 394.94416,457.337 C 394.97313,457.77876 394.8463,458.13287 394.56367,458.39934 C 394.28102,458.66582 393.87984,458.8161 393.36013,458.85019 L 386.24652,459.31688 z M 429.26204,427.85274 C 429.85746,427.78786 430.32427,427.86468 430.66245,428.08319 C 431.00062,428.30176 431.19581,428.6505 431.24803,429.12941 C 431.32563,429.84136 430.87444,430.38827 429.89444,430.77014 C 429.54328,430.91323 429.32016,431.02924 429.22509,431.11817 C 428.73388,431.53848 428.56102,433.07669 428.70651,435.7328 C 428.73706,436.2534 428.75562,436.66397 428.7622,436.96448 L 429.14003,445.11608 C 429.14825,445.31166 429.16076,445.51659 429.17758,445.73086 C 429.19438,445.94516 429.22537,446.25941 429.27053,446.67361 C 429.51747,448.93884 430.14078,450.51141 431.14048,451.39132 C 432.14015,452.27124 433.65611,452.60043 435.68835,452.37888 C 437.82412,452.14605 439.36945,451.48313 440.32435,450.39013 C 441.27921,449.29715 441.6494,447.76689 441.43493,445.79938 C 441.38129,445.30751 441.32755,444.87459 441.2737,444.50061 C 441.21981,444.12665 441.15948,443.75339 441.09269,443.38082 L 439.69463,435.24221 C 439.69178,435.21634 439.68108,435.17821 439.66251,435.12783 C 439.17696,432.11585 438.66203,430.45616 438.11771,430.14873 C 437.90801,430.02754 437.6049,429.89031 437.20837,429.73704 C 436.38796,429.42047 435.94813,428.99034 435.88888,428.44666 C 435.84088,428.00659 435.92822,427.66634 436.15089,427.42592 C 436.37353,427.18556 436.7308,427.03856 437.22269,426.9849 L 443.61063,426.28852 C 444.15426,426.22928 444.58476,426.30351 444.90213,426.51119 C 445.21945,426.71894 445.40282,427.04932 445.45224,427.50233 C 445.51148,428.04602 445.17184,428.53492 444.43331,428.96905 C 444.22453,429.09662 444.06472,429.19263 443.95389,429.25708 C 443.56224,429.50937 443.30216,429.76694 443.17366,430.02978 C 443.04512,430.29268 443.00344,430.63122 443.04862,431.04541 C 443.06553,431.20076 443.08217,431.32338 443.09854,431.41326 C 443.11487,431.50319 443.13446,431.59274 443.1573,431.68191 L 444.79149,440.36454 C 444.82981,440.59614 444.89309,440.93634 444.98134,441.38513 C 445.46451,444.13544 445.75056,445.91832 445.83949,446.73379 C 446.14003,449.4909 445.42771,451.6675 443.70253,453.26361 C 441.9773,454.85972 439.24427,455.86168 435.50344,456.26949 C 431.21891,456.73657 427.97976,456.33983 425.78596,455.07927 C 423.59216,453.81871 422.32592,451.63514 421.98726,448.52854 C 421.91529,447.8684 421.86478,446.56411 421.83575,444.61566 C 421.83322,443.75148 421.82527,443.07781 421.81189,442.59463 L 421.73939,434.90092 C 421.73987,434.66512 421.73389,434.43001 421.72143,434.19559 C 421.70898,433.9612 421.68793,433.70809 421.6583,433.43624 C 421.60468,432.94438 421.49686,432.58612 421.33484,432.36145 C 421.17282,432.13682 420.86765,431.9507 420.41932,431.80308 C 420.31013,431.76262 420.17434,431.71848 420.01195,431.67066 C 419.15837,431.4101 418.70053,430.99503 418.63844,430.42546 C 418.59329,430.01128 418.69899,429.65921 418.95553,429.36925 C 419.21208,429.07936 419.57335,428.90899 420.03934,428.85816 L 429.26204,427.85274 z M 458.88475,452.54782 C 458.06064,452.67148 457.43837,452.6266 457.01794,452.41319 C 456.5975,452.19978 456.34477,451.80978 456.25976,451.24321 C 456.16508,450.61225 456.54234,450.05532 457.39154,449.57239 C 457.63362,449.43074 457.80874,449.32546 457.9169,449.25656 C 458.21563,449.05374 458.41006,448.8139 458.50018,448.53704 C 458.5903,448.26019 458.59865,447.87711 458.52524,447.38779 L 455.84147,429.50208 C 455.76611,428.99992 455.64103,428.62698 455.46622,428.38327 C 455.2914,428.13961 455.03788,427.96369 454.70565,427.85552 C 454.58204,427.82143 454.38373,427.77219 454.11074,427.70779 C 453.15721,427.4954 452.6331,427.07371 452.53842,426.44273 C 452.45148,425.8633 452.57813,425.41309 452.91838,425.09209 C 453.25864,424.77115 453.84082,424.54884 454.66492,424.42515 L 462.50682,423.24847 C 463.33092,423.12484 463.95271,423.1665 464.37219,423.37344 C 464.79165,423.58044 465.04486,423.97365 465.13182,424.55307 C 465.22648,425.18406 464.85566,425.74003 464.01934,426.22099 C 463.79014,426.36075 463.62146,426.46506 463.5133,426.53393 C 463.21456,426.73678 463.01466,426.98402 462.9136,427.27566 C 462.81253,427.56735 462.79871,427.95784 462.87214,428.44712 L 465.46606,445.73407 C 465.54913,446.28777 465.75727,446.68774 466.09048,446.93399 C 466.42367,447.18025 466.85424,447.26376 467.38219,447.18454 L 471.53492,446.56142 C 472.60367,446.40106 473.55879,446.11949 474.40028,445.71672 C 475.24174,445.31396 476.06229,444.74976 476.86192,444.02411 C 477.16384,443.75498 477.55528,443.38024 478.03622,442.89991 C 478.94139,442.00043 479.60645,441.5188 480.03141,441.45503 C 480.3533,441.40674 480.63691,441.4761 480.88225,441.66311 C 481.12754,441.85014 481.27628,442.11749 481.32847,442.46515 C 481.36129,442.68406 481.35503,442.90554 481.30967,443.12959 C 481.26427,443.35366 481.1463,443.66432 480.95577,444.06157 L 478.532,449.75773 C 478.27125,450.38935 478.03901,450.8159 477.83527,451.03739 C 477.63148,451.25889 477.38152,451.39185 477.08538,451.43629 C 476.85358,451.47107 476.40191,451.26893 475.73039,450.82986 C 475.05882,450.3908 474.38826,450.2215 473.71869,450.32197 L 458.88475,452.54782 z"
       id="text4213"
       sodipodi:nodetypes="cssssscssssscccsssssssssssccssssssssssscssssssssscccsssssssccssscccsssssccsccsccsssssccsssssssssccssssssssscccsssssccsssssccsssssccssssscccsssssccscccsssssccsssssccsccsccscccsssssccssssscccsssssccssssssssccsssccssssssssccsssccssssscccssssssscccsssssccsssssccsssssccssssssssscccsssssssccssscccsssssccsccsccsssssccsssssssssccssssssssscccsssssccssssssscccssssccssssssscccssssscccssssssscccsssssccsssssccsssssccsccsssssssccssscc" />
    <path
       style="opacity:1;fill:#002673;fill-opacity:1;fill-rule:nonzero;stroke:none;stroke-width:0.50000000000000000;stroke-linecap:butt;stroke-linejoin:round;stroke-miterlimit:4;stroke-dasharray:none;stroke-dashoffset:0;stroke-opacity:1"
       d="M 325,274.90374 C 303.45805,274.90374 285.96034,292.40143 285.96037,313.94336 C 285.96037,335.48531 303.45805,352.90877 325,352.90877 C 346.54195,352.90877 364.03966,335.48531 364.03963,313.94336 C 364.03963,292.40143 346.54195,274.90372 325,274.90374 z M 325,284.70075 C 341.10513,284.70078 354.16839,297.83823 354.16839,313.94336 C 354.16837,330.0485 341.10513,343.11176 325,343.11176 C 308.89487,343.11176 295.75739,330.0485 295.75739,313.94336 C 295.75741,297.83823 308.89487,284.70075 325,284.70075 z M 325,287.07579 C 310.17991,287.07579 298.13244,299.12326 298.13242,313.94336 C 298.13242,328.76346 310.17991,340.73672 325,340.73672 C 339.82009,340.73672 351.79333,328.76346 351.79335,313.94336 C 351.79335,299.12326 339.82009,287.07582 325,287.07579 z M 321.88277,291.15787 L 321.88277,304.96277 C 321.53133,305.0853 321.17505,305.17273 320.84369,305.33387 L 311.12089,295.61106 C 314.20034,293.27282 317.87364,291.70272 321.88277,291.15787 z M 328.11723,291.15787 C 332.12636,291.70272 335.79966,293.27282 338.87911,295.61106 L 329.15631,305.33387 C 328.82495,305.17273 328.46867,305.0853 328.11723,304.96277 L 328.11723,291.15787 z M 306.74193,300.06426 L 316.46472,309.78706 C 316.29719,310.12831 316.14584,310.46346 316.0194,310.82612 L 302.21452,310.82612 C 302.76144,306.80171 304.38895,303.15083 306.74193,300.06426 z M 343.25807,300.06426 C 345.61105,303.15083 347.23856,306.80171 347.78548,310.82612 L 333.9806,310.82612 C 333.85697,310.4698 333.69857,310.12281 333.53528,309.78706 L 343.25807,300.06426 z M 302.21452,316.98639 L 315.94518,316.98639 C 316.07847,317.37745 316.28389,317.73325 316.46472,318.09968 L 306.74193,327.82247 C 304.3743,324.72858 302.75174,321.03627 302.21452,316.98639 z M 333.9806,316.98639 L 347.78548,316.98639 C 347.24826,321.03627 345.6257,324.72858 343.25807,327.82247 L 333.53528,318.09968 C 333.70816,317.7458 333.8519,317.36311 333.9806,316.98639 z M 320.84369,322.47864 C 321.17505,322.63978 321.53133,322.72721 321.88277,322.84974 L 321.88277,336.65464 C 317.86476,336.11232 314.20449,334.53646 311.12089,332.20145 L 320.84369,322.47864 z M 329.15631,322.47864 L 338.87911,332.20145 C 335.79551,334.53646 332.13524,336.11232 328.11723,336.65464 L 328.11723,322.84974 C 328.46867,322.72721 328.82495,322.63978 329.15631,322.47864 z"
       id="path4382" />
    <path
       sodipodi:nodetypes="cssccsccssccsccc"
       inkscape:transform-center-y="27.577165"
       inkscape:transform-center-x="58.543377"
       id="path4436"
       d="M 215.0695,226.34375 C 215.53144,226.39705 216.0183,226.62223 216.53825,227 C 225.1248,233.23874 248.68418,233.90728 282.632,235.875 C 305.19532,237.18285 316.88957,250.10996 319.53825,268.96875 C 311.99981,269.79021 305.05046,272.83822 298.757,277 C 294.1404,274.84448 288.03628,274.47907 280.632,274.15625 C 265.00124,273.47479 263.04854,268.53855 259.66325,263.3125 C 269.02748,264.94452 278.31396,260.09694 288.16325,264.0625 C 284.75429,261.19682 280.92877,260.35036 276.91325,260.3125 C 270.88037,260.25563 264.33334,262.086 257.78825,261 C 250.33093,259.76264 244.13225,255.25448 241.28825,247.28125 C 251.63475,249.93673 262.27673,245.31486 273.03825,250.03125 C 264.44362,242.55112 252.71515,246.90704 241.22575,245.1875 C 234.55896,244.18973 228.06792,241.86372 222.20607,238.41497 C 218.07911,235.70055 213.66168,233.10019 213.28825,227.84375 C 213.62728,226.68084 214.29964,226.25491 215.0695,226.34375 z"
       style="fill:#002673;fill-opacity:1;fill-rule:evenodd;stroke:none;stroke-width:1px;stroke-linecap:butt;stroke-linejoin:miter;stroke-opacity:1" />
  </g>
</svg>
