<?xml version="1.0" encoding="UTF-8" standalone="no"?>
<!-- Created with Inkscape (http://www.inkscape.org/) -->

<svg
   xmlns:dc="http://purl.org/dc/elements/1.1/"
   xmlns:cc="http://creativecommons.org/ns#"
   xmlns:rdf="http://www.w3.org/1999/02/22-rdf-syntax-ns#"
   xmlns:svg="http://www.w3.org/2000/svg"
   xmlns="http://www.w3.org/2000/svg"
   version="1.1"
   width="600"
   height="400"
   id="svg2">
  <metadata
     id="metadata8">
    <rdf:RDF>
      <cc:Work
         rdf:about="">
        <dc:format>image/svg+xml</dc:format>
        <dc:type
           rdf:resource="http://purl.org/dc/dcmitype/StillImage" />
        <dc:title></dc:title>
      </cc:Work>
    </rdf:RDF>
  </metadata>
  <defs
     id="defs6" />
  <g
     transform="translate(528.98022,83.783234)"
     id="g3028">
    <rect
       width="600"
       height="400"
       x="-528.98022"
       y="-83.783234"
       id="rect3008"
       style="fill:#ffffff;fill-opacity:1;stroke:none" />
    <rect
       width="600"
       height="160"
       x="-528.98022"
       y="156.21677"
       id="rect3008-1"
       style="fill:#c32148;fill-opacity:1;stroke:none" />
  </g>
  <g
     transform="matrix(0.74069326,0,0,0.74069326,173.73815,5.0687216)"
     id="g3032">
    <path
       d="m 175.57603,27.475049 c -5.77888,-1.529704 -10.8779,0 -10.8779,0 1.35974,14.10727 -1.88757,16.392084 -0.84983,23.115527 1.03774,6.723443 5.4179,14.058808 5.94885,16.656778 0.53095,2.59797 0.48011,10.542618 0.51316,13.325051 1.00724,0 1.18602,0 2.38615,0 0.52318,-3.748806 1.15637,-14.278174 0.67,-16.724394 -0.48638,-2.446221 -2.52902,-6.224274 -2.54951,-12.407599 -0.0205,-6.183325 4.92905,-11.387796 4.75908,-23.965363 z"
       id="path3131"
       style="fill:#c32148;fill-opacity:1;stroke:none" />
    <path
       d="m 143.19609,30.510808 c 0,0 -8.80155,2.353216 -10.16129,3.88292 6.30583,12.69254 4.25799,17.345715 7.62733,23.255802 3.36934,5.910086 9.2295,10.518822 10.65283,12.756116 1.42333,2.237294 5.91139,9.67671 6.93547,12.264043 0.94088,-0.35954 1.10788,-0.423356 2.22895,-0.851748 -0.84944,-3.688593 -5.03627,-14.430191 -6.36379,-16.541646 -1.32753,-2.111453 -3.90433,-4.231615 -6.13064,-10.000278 -2.22632,-5.768661 -0.14046,-13.076903 -4.78886,-24.765209 z"
       id="path3131-1"
       style="fill:#c32148;fill-opacity:1;stroke:none" />
    <path
       d="m 206.0244,33.885981 c 0,0 -9.10189,-2.843003 -10.80156,-2.843003 -3.28225,13.787345 -7.32459,15.370834 -8.5202,22.068005 -1.19561,6.69717 0.35534,13.989389 0.0163,16.619296 -0.33903,2.629907 -2.6742,11.048153 -3.54403,13.691337 0.95295,0.326196 1.12209,0.384094 2.25755,0.772765 1.70905,-3.377336 6.3898,-14.139382 6.72187,-16.611281 0.33205,-2.471905 -0.28998,-5.750328 1.69313,-11.607049 1.98311,-5.856726 8.26443,-10.135303 12.17693,-22.09007 z"
       id="path3131-1-2"
       style="fill:#c32148;fill-opacity:1;stroke:none" />
    <path
       d="m 112.06313,44.358427 c -2.71947,-0.169967 -8.4278,6.594423 -8.4278,6.594423 10.44483,9.579645 11.39521,14.487904 15.47313,18.962878 4.07792,4.474974 10.52273,7.010578 14.52445,8.077243 4.00172,1.066665 12.56254,9.626351 14.44779,11.673022 0.7489,-0.673562 0.88182,-0.793115 1.77413,-1.595668 -2.11791,-3.137148 -10.05428,-13.357064 -15.45108,-15.870416 -5.3968,-2.513352 -5.8438,-2.376434 -9.14413,-7.30004 -3.30034,-4.923606 -4.65922,-11.303524 -13.19649,-20.541442 z"
       id="path3131-1-3"
       style="fill:#c32148;fill-opacity:1;stroke:none" />
    <path
       d="m 235.42933,52.517905 c 0,0 -5.9037,-6.582039 -8.28324,-6.921974 -8.64528,11.230462 -13.11362,12.089797 -17.22106,16.537684 -4.10745,4.447887 -5.2292,11.426926 -7.30728,15.845527 -2.07808,4.418602 -8.50956,10.284928 -10.3864,12.33931 0.7355,0.688159 0.86605,0.810297 1.74241,1.630234 2.94326,-2.380021 12.27232,-8.276987 14.9918,-14.379956 2.71948,-6.102969 1.86473,-6.026625 6.48606,-9.738414 4.62133,-3.711799 11.50874,-6.011839 19.97771,-15.312411 z"
       id="path3131-1-3-6"
       style="fill:#c32148;fill-opacity:1;stroke:none" />
    <path
       d="m 86.359553,67.952939 c -3.940777,4.901284 -7.358437,10.502263 -7.358437,10.502263 14.855949,1.776728 18.284015,4.64634 25.050724,10.232113 6.76671,5.585773 16.06059,5.529896 20.65116,5.842836 4.59057,0.31294 13.9092,3.821895 16.47818,4.89117 0.39808,-0.925243 0.46873,-1.089466 0.94302,-2.191895 -3.23685,-1.962148 -7.7545,-6.900322 -14.89758,-7.772943 -7.14308,-0.87262 -13.10059,-3.280596 -18.15922,-8.069657 C 104.00877,76.597764 94.719475,67.640767 86.359553,67.952939 z"
       id="path3131-1-3-66"
       style="fill:#c32148;fill-opacity:1;stroke:none" />
    <path
       d="m 259.81922,80.653287 c -2.84059,-6.043691 -6.38075,-9.282212 -6.38075,-9.282212 -11.31552,8.428778 -12.176,7.161927 -20.86188,8.404705 -8.6859,1.242774 -14.9017,8.152419 -18.2237,11.336066 -3.32199,3.18365 -12.19034,7.71157 -14.71054,8.891214 0.41613,0.91727 0.49,1.08007 0.98583,2.17299 3.63005,-1.07236 10.32292,-1.08815 15.77724,-5.782354 5.4543,-4.6942 11.24569,-7.478096 18.19252,-7.994283 6.94682,-0.516182 19.82378,-1.35451 25.22128,-7.746126 z"
       id="path3131-1-3-66-9"
       style="fill:#c32148;fill-opacity:1;stroke:none" />
    <path
       d="m 68.516355,102.71708 c -2.648203,5.72285 -2.749208,12.59181 -2.749208,12.59181 8.363922,-3.59627 20.544642,-5.94644 30.805355,-1.91203 10.260718,4.03441 18.994468,1.03717 23.885698,-0.55219 4.89122,-1.58936 15.46987,-2.53257 18.6208,-2.60584 -0.0164,-1.00714 -0.0194,-1.1859 -0.0391,-2.3859 -4.25458,-0.46892 -12.23017,-3.30115 -20.01952,-1.18008 -7.78935,2.12106 -13.53354,1.33665 -20.809721,-2.32824 -7.276184,-3.66488 -21.19498,-5.327018 -29.694324,-1.62749 z"
       id="path3131-1-3-66-3"
       style="fill:#c32148;fill-opacity:1;stroke:none" />
    <path
       d="m 271.26285,116.40703 c 0.19661,-6.25337 -1.79256,-12.25188 -1.79256,-12.25188 -7.99086,3.59627 -16.73884,3.22697 -27.22177,1.5721 -10.48293,-1.65487 -17.97728,0.6625 -22.65034,2.25186 -4.67306,1.58936 -14.77986,2.8725 -17.79025,2.94577 0.0157,1.00714 0.0185,1.1859 0.0374,2.3859 4.06481,0.46892 13.89423,2.28135 21.33615,0.16028 7.44191,-2.12106 13.45331,-1.04916 19.03171,1.13847 5.5784,2.18763 20.64902,5.54941 29.04966,1.7975 z"
       id="path3131-1-3-66-3-8"
       style="fill:#c32148;fill-opacity:1;stroke:none" />
    <path
       d="m 65.98151,154.4376 c -1.742681,-3.9661 -2.884438,-22.95532 -2.884438,-22.95532 0,0 13.573937,-9.56916 23.315872,-10.57627 9.741934,-1.00712 16.224136,3.92452 22.354386,3.24499 6.13025,-0.67953 11.15216,-5.83337 17.18645,-7.09091 6.03429,-1.25754 10.76975,1.41836 18.38828,-0.36055 7.61853,-1.77891 18.85501,-12.16655 25.83976,-12.13868 6.98475,0.0279 23.62337,15.3208 34.85362,16.58552 11.23025,1.26472 15.10634,-1.32087 25.4792,-0.60093 10.37285,0.71995 16.12611,8.27531 23.55624,9.61479 7.43013,1.33949 17.42681,0.72111 18.62866,-0.60092 0,0 1.32203,15.50386 -1.56241,21.5131 -13.70108,6.85054 -26.11187,-6.96687 -36.05547,-6.12943 -9.9436,0.83744 -13.58737,7.46532 -21.99383,7.69183 -8.40646,0.22651 -17.6553,-7.85993 -26.08013,-7.57165 -8.42483,0.28828 -15.13145,7.3244 -21.99383,8.05239 -6.86238,0.72799 -17.98018,-8.04109 -26.68105,-8.05239 -8.70087,-0.0113 -14.96052,7.14433 -23.31587,6.97073 -8.35535,-0.1736 -15.619011,-8.77143 -24.397535,-8.41294 -8.778524,0.35849 -20.972266,8.41294 -24.637905,10.81664 z"
       id="path2991"
       style="fill:#c32148;fill-opacity:1;stroke:none" />
    <path
       d="m 68.986133,161.52851 c 0,0 7.601098,-11.21197 17.306625,-12.7396 9.705528,-1.52763 21.180102,9.89123 30.166412,9.61479 8.98631,-0.27644 13.30116,-8.83582 22.11402,-9.01387 8.81286,-0.17805 18.54463,10.1862 27.28197,9.85516 8.73734,-0.33104 12.70369,-9.22327 21.39291,-9.61479 8.68922,-0.39152 18.54137,9.62812 27.16179,9.37442 8.62042,-0.2537 11.83459,-8.11513 21.27273,-8.7735 9.43814,-0.65837 18.2681,10.45609 32.69029,8.41295 -0.72111,1.32203 -5.77601,7.72112 -15.47638,8.17257 -9.70036,0.45145 -21.46426,-9.27319 -28.39111,-9.13405 -6.92685,0.13914 -10.15115,8.79489 -20.6718,8.41294 -10.52065,-0.38195 -18.13915,-8.12247 -27.0416,-8.05239 -8.90245,0.0701 -12.57546,8.3649 -24.03698,7.57165 -11.46152,-0.79325 -17.22536,-8.57418 -25.59939,-8.53313 -8.37403,0.0411 -10.09682,7.31801 -21.99383,7.57165 -11.897009,0.25364 -23.195688,-15.8644 -36.175657,-3.1248 z"
       id="path2993"
       style="fill:#c32148;fill-opacity:1;stroke:none" />
    <path
       d="m 73.889097,174.2804 c 0,0 6.275348,-7.8498 15.465873,-9.29637 9.190526,-1.44657 19.79268,10.8159 28.5657,9.10461 8.77302,-1.71129 8.51039,-7.97165 20.94059,-8.53557 12.4302,-0.56392 17.5606,9.64569 25.83431,9.33221 8.27372,-0.31347 7.68108,-8.20676 19.33534,-9.1046 11.65425,-0.89784 18.47992,9.11723 26.64292,8.87699 8.163,-0.24024 9.46675,-7.67345 18.56266,-8.30795 9.09591,-0.6345 18.88002,9.90126 32.53693,7.96653 -0.68284,1.25188 -5.2958,6.67352 -15.10642,7.21182 -9.81062,0.53829 -19.87404,-8.25404 -26.43334,-8.12228 -6.55929,0.13176 -10.15948,6.65711 -19.44312,7.17589 -9.28363,0.51878 -17.04486,-7.16438 -25.47492,-7.09802 -8.43007,0.0664 -13.09414,7.13039 -22.8933,6.77456 -9.79915,-0.35583 -16.44311,-7.46034 -24.37279,-7.42147 -7.92968,0.0389 -13.2507,7.19324 -24.51642,7.43342 -11.265727,0.24019 -19.592946,-13.44131 -29.644013,-5.98977 z"
       id="path2993-7"
       style="fill:#c32148;fill-opacity:1;stroke:none" />
    <path
       d="m 82.196397,190.16302 c 0,0 5.317292,-7.80475 13.683665,-9.1216 8.366368,-1.31685 19.071978,9.58244 26.399418,8.68348 7.32744,-0.89896 10.11915,-8.31098 18.00857,-8.16547 7.88943,0.14551 16.77651,8.25363 24.30828,7.96826 7.53178,-0.28536 8.04648,-7.47082 17.46969,-7.76106 9.42321,-0.29024 15.63679,8.29965 23.06778,8.08095 7.43099,-0.21869 9.01314,-6.45825 18.08403,-7.56294 9.07089,-1.10469 17.84583,9.14515 30.93694,6.4615 -0.6216,1.13962 -6.13863,6.86572 -15.06949,7.35575 -8.93086,0.49002 -17.56477,-6.59146 -23.53587,-6.47151 -5.97109,0.11994 -9.64375,6.06013 -18.09489,6.53239 -8.45113,0.47226 -14.98928,-6.91724 -22.66338,-6.85683 -7.67411,0.0605 -12.18349,6.62276 -21.10391,6.29884 -8.92042,-0.32392 -15.49568,-6.79134 -22.71428,-6.75596 -7.21859,0.0354 -8.89989,6.67997 -20.60488,6.63506 -11.704987,-0.0449 -19.153699,-10.65469 -28.171673,-5.32086 z"
       id="path2993-7-4"
       style="fill:#c32148;fill-opacity:1;stroke:none" />
    <path
       d="m 46.402571,277.89691 c -0.264424,8.19714 -8.595252,7.64058 -13.044899,7.64058 -4.449647,0 -21.845291,-2.39236 -21.803618,-20.87184 0.04167,-18.47948 15.899643,-21.4795 22.549041,-21.61726 6.649398,-0.13776 12.299476,2.60898 12.299476,2.60898 l -0.186355,6.89516 c 0,0 -3.485645,-5.73304 -12.113121,-5.96338 -8.627476,-0.23034 -13.210095,10.87558 -13.231256,18.26286 -0.02116,7.38728 4.79345,17.4432 12.672188,17.70379 7.878738,0.26059 12.858544,-4.65889 12.858544,-4.65889 z"
       id="path3031"
       style="fill:#c32148;fill-opacity:1;stroke:none" />
    <path
       d="m 50.65625,244.375 0,40.125 8.8125,0 0,-19.65625 18.125,0 0,19.65625 8.8125,0 0,-40.125 -8.8125,0 0,16.21875 -18.125,0 0,-16.21875 -8.8125,0 z"
       id="rect3033"
       style="fill:#c32148;fill-opacity:1;stroke:none" />
    <path
       d="m 90.196163,273.79708 0,-29.4442 8.945074,0 0,28.88513 c 0,0 0.336771,8.57237 10.063203,8.57237 9.72643,0 11.74041,-8.94508 11.74041,-8.94508 l 0,-28.51242 4.84525,0 0,27.767 c 0,0 -1.45493,13.60397 -17.33108,13.60397 -15.876147,0 -18.262857,-11.92677 -18.262857,-11.92677 z"
       id="path3840"
       style="fill:#c32148;fill-opacity:1;stroke:none" />
    <path
       d="m 130.125,244.15625 0,40.25 6.28125,0 1.875,0 11.5625,0 5.5625,0.1875 0.0625,-0.1875 0.0312,0 0,-0.0937 4.03125,-11.8125 13.96875,0 4.09375,12.09375 10.0625,0 -16.59375,-40.4375 -4.65625,0 -15.03125,36.5625 -13.09375,0 0,-36.5625 -8.15625,0 z m 36.65625,10.625 4.84375,13.8125 L 161,268.75 l 5.78125,-13.96875 z"
       id="rect3842"
       style="fill:#c32148;fill-opacity:1;stroke:none" />
    <path
       d="m 174.125,210.28125 c -2.14428,4.85386 -3.70545,9.32785 -5.75,13.1875 -2.24579,-4.59079 -4.10825,-8.5454 -6.28125,-13.15625 l -6.125,0 0.0312,0.0312 c -6.31023,0.005 -12.5021,0.0625 -18.8125,0.0625 l 0,2.4375 7.25,0 0,24.28125 1.5,0 0,0.0312 4.125,0 0,-24.34375 7.25,0 7.03125,12.96875 0,11.4375 5.84375,0 0,-12 -0.0625,0 7.375,-14.84375 -3.375,-0.0937 z"
       id="rect3842-1"
       style="fill:#c32148;fill-opacity:1;stroke:none" />
    <path
       d="m 308.12486,244.4469 -16.5625,40.25 5.5625,0.1875 4.125,-12.09375 13.96875,0 4.09375,12.09375 10.0625,0 -16.59375,-40.4375 -4.65625,0 z m 0.375,10.625 4.84375,13.8125 -10.625,0.15625 5.78125,-13.96875 z"
       id="path3900-6"
       style="fill:#c32148;fill-opacity:1;stroke:none" />
    <path
       d="m 217.39595,274.44576 c -3.68396,-9.90869 -7.24794,-19.86052 -10.8125,-29.8125 l -10.0625,0 16.59375,40.4375 4.28354,0 16.00449,-40.28137 -4.63178,-0.15613 c -3.17587,10.175 -7.32631,19.96748 -11.375,29.8125 z"
       id="path3900-6-9"
       style="fill:#c32148;fill-opacity:1;stroke:none" />
    <rect
       width="8.3860073"
       height="40.252834"
       x="236.11269"
       y="244.53923"
       id="rect3941"
       style="fill:#c32148;fill-opacity:1;stroke:none" />
    <path
       d="m 263.3125,243.40625 c -7.02674,-0.17551 -13.82714,2.42263 -14.90625,12.125 -1.43881,12.93649 19.48584,12.4552 17.90625,20.5 -1.57959,8.0448 -11.18715,9.50185 -16.21875,-0.375 l -1.875,7.46875 c 0,0 5.74925,3.70362 10.625,2.59375 4.87575,-1.10987 14.41207,-1.07908 14.15625,-14.53125 -0.25582,-13.45218 -19.49964,-9.99882 -17.875,-19 1.56017,-8.64397 10.75026,-5.32478 13.625,-3.5625 0.008,0.005 0.0232,-0.005 0.0312,0 0.10923,0.0675 0.22298,0.12552 0.3125,0.1875 l 0.0625,-0.1875 10.34375,0 0,35.96875 2.21875,0 0,0.0312 6.09375,0 0,-36.0625 10.6875,0 0,-3.65625 c -11.64983,-0.078 -17.51598,0.0798 -28.4375,0.0937 l 0.15625,-0.65625 c -2.18968,-0.51248 -4.564,-0.879 -6.90625,-0.9375 z"
       id="rect3842-1-5"
       style="fill:#c32148;fill-opacity:1;stroke:none" />
    <path
       d="m 126.05227,232.94174 c -0.17507,5.42735 -5.69095,5.05886 -8.63708,5.05886 -2.94613,0 -14.46384,-1.584 -14.43625,-13.81932 0.0276,-12.23532 10.52721,-14.22165 14.9298,-14.31286 4.40259,-0.0912 8.14353,1.72742 8.14353,1.72742 l -0.1234,4.56531 c 0,0 -2.30785,-3.79586 -8.02013,-3.94838 -5.71228,-0.15251 -8.74644,7.20076 -8.76045,12.0919 -0.0141,4.89114 3.17376,11.5492 8.39029,11.72174 5.21654,0.17254 8.51369,-3.08467 8.51369,-3.08467 z"
       id="path3031-2"
       style="fill:#c32148;fill-opacity:1;stroke:none" />
    <rect
       width="5.5826669"
       height="26.796801"
       x="129.25688"
       y="210.64171"
       id="rect3941-7"
       style="fill:#c32148;fill-opacity:1;stroke:none" />
    <path
       d="m 221.96875,210.84375 0,26.3125 5.40625,0 0,-12.75 8.1875,0 0,-2.40625 -8.1875,0 0,-8.75 8.34375,0 0.1875,-2.40625 -13.9375,0 z"
       id="rect3842-6"
       style="fill:#c32148;fill-opacity:1;stroke:none" />
    <path
       d="m 205.40625,209.5 c -8.10558,0 -14.6875,6.24965 -14.6875,13.96875 0,9.95538 6.58192,14 14.6875,14 8.10557,0 14.6875,-4.60369 14.6875,-14 0,-7.7191 -6.58193,-13.96875 -14.6875,-13.96875 z m -0.15625,2.5625 c 4.88156,0 8.84375,5.33693 8.84375,11.90625 0,7.99671 -3.96219,11.875 -8.84375,11.875 -4.88157,0 -8.84375,-3.4025 -8.84375,-11.875 0,-6.56932 3.96218,-11.90625 8.84375,-11.90625 z"
       id="path4057"
       style="fill:#c32148;fill-opacity:1;stroke:none" />
  </g>
</svg>
