<?xml version="1.0" encoding="UTF-8" standalone="no"?>
<svg
   xmlns:dc="http://purl.org/dc/elements/1.1/"
   xmlns:cc="http://creativecommons.org/ns#"
   xmlns:rdf="http://www.w3.org/1999/02/22-rdf-syntax-ns#"
   xmlns:svg="http://www.w3.org/2000/svg"
   xmlns="http://www.w3.org/2000/svg"
   xmlns:xlink="http://www.w3.org/1999/xlink"
   xmlns:sodipodi="http://sodipodi.sourceforge.net/DTD/sodipodi-0.dtd"
   xmlns:inkscape="http://www.inkscape.org/namespaces/inkscape"
   version="1.0"
   width="450"
   height="300"
   id="svg2"
   inkscape:version="0.48.1 r9760"
   sodipodi:docname="20111223222729!Flag_US_Coronado_(Californie).svg">
  <metadata
     id="metadata28">
    <rdf:RDF>
      <cc:Work
         rdf:about="">
        <dc:format>image/svg+xml</dc:format>
        <dc:type
           rdf:resource="http://purl.org/dc/dcmitype/StillImage" />
        <dc:title />
      </cc:Work>
    </rdf:RDF>
  </metadata>
  <defs
     id="defs26" />
  <sodipodi:namedview
     pagecolor="#ffffff"
     bordercolor="#666666"
     borderopacity="1"
     objecttolerance="10"
     gridtolerance="10"
     guidetolerance="10"
     inkscape:pageopacity="0"
     inkscape:pageshadow="2"
     inkscape:window-width="1366"
     inkscape:window-height="694"
     id="namedview24"
     showgrid="false"
     inkscape:zoom="1.0156942"
     inkscape:cx="165.22258"
     inkscape:cy="158.4668"
     inkscape:current-layer="layer2"
     inkscape:snap-global="false"
     inkscape:window-x="0"
     inkscape:window-y="25"
     inkscape:window-maximized="1">
    <inkscape:grid
       type="xygrid"
       id="grid3033" />
  </sodipodi:namedview>
  <rect
     x="150"
     width="150"
     height="300"
     id="rect6"
     y="0"
     style="fill:#ffffff"
     transform="matrix(1.3965375,0,0,1,-89.78207,0)" />
  <rect
     width="150"
     height="300"
     id="rect4"
     x="0"
     y="0"
     transform="scale(0.8,1)"
     style="fill:#225500" />
  <rect
     x="300"
     width="150"
     height="300"
     id="rect8"
     y="0"
     transform="matrix(0.8,0,0,1,90,0)"
     style="fill:#225500" />
  <g
     inkscape:groupmode="layer"
     id="layer1"
     inkscape:label="Flag"
     sodipodi:insensitive="true" />
  <g
     inkscape:groupmode="layer"
     id="layer2"
     inkscape:label="Meubles">
    <g
       inkscape:label="Couronne"
       id="layer3"
       transform="matrix(0.51528022,0,0,0.51528022,140.93211,90.092229)">
      <path
         sodipodi:nodetypes="ccccccccccccccc"
         inkscape:connector-curvature="0"
         id="path4797"
         d="m 60,197.88446 c -10,-20 -20,-40 -30,-60 4.900154,-6.66667 5.652842,-14.71582 14.700461,-20 C 50,107.88446 61.56682,114.47432 70,112.76925 c 10,-4.9616 19.078341,-12.68817 30,-14.88479 12.30415,0.568353 20.92166,11.27496 30,10 7.1275,-8.402454 13.33333,-6.66667 20,-10 10,0 20,0 30,0 10,0 15.85253,-7.373272 30,0 22.90323,-1.029187 29.21659,1.167433 30,5.20737 13.33333,1.59754 29.43165,-0.49155 40,4.79263 11.73579,4.36252 17.4808,12.41167 20,20 -6.66667,16.66667 -13.33333,33.33333 -20,50 -3.33333,3.33333 -6.66667,6.66667 -10,10 -70,3.33333 -140,6.66667 -210,10 z"
         style="fill:#225500;fill-opacity:1;stroke:#225500;stroke-width:1.94069159px;stroke-linecap:butt;stroke-linejoin:miter;stroke-opacity:1" />
      <path
         transform="translate(0,-5.078341)"
         d="m 270,237.88446 a 105,10 0 1 1 -210,0 105,10 0 1 1 210,0 z"
         sodipodi:ry="10"
         sodipodi:rx="105"
         sodipodi:cy="237.88446"
         sodipodi:cx="165"
         id="path4795"
         style="fill:#225500;fill-opacity:1;fill-rule:evenodd;stroke:#225500;stroke-width:1.94069159px;stroke-linecap:butt;stroke-linejoin:miter;stroke-opacity:1"
         sodipodi:type="arc" />
      <path
         inkscape:connector-curvature="0"
         transform="matrix(0.98378412,0,0,2.2473587,-662.54849,-721.93094)"
         style="fill:#225500;fill-opacity:1;stroke:#225500;stroke-width:1.75383353;stroke-linecap:butt;stroke-linejoin:miter;stroke-miterlimit:4;stroke-opacity:1;stroke-dasharray:none;display:inline"
         d="m 823.51391,402.78125 c -11.62268,0 -34.23741,-1.35902 -55.11037,0.18831 -21.06556,1.56159 -41.81646,2.76211 -41.81646,2.76211 0,0 6.02413,9.58854 6.66863,12.23591 0.53471,2.19639 -2.2418,3.05581 -2.2418,3.05581 0,0 18.48292,-1.29761 38.8125,-2.80464 20.52227,-1.52133 42.6868,-2.34375 53.6875,-2.34375 1.80875,-10e-6 32.69557,0 34.5,0 10.63587,-10e-6 33.34457,0.82345 53.6875,2.34375 20.16479,1.50696 39.26662,2.80464 39.26662,2.80464 0,0 -3.07881,-1.51371 -2.67575,-3.83961 0.41021,-2.36719 5.28611,-11.05453 5.28611,-11.05453 0,0 -20.01158,-0.80287 -40.90823,-2.36453 -20.71849,-1.54836 -43.37822,-0.98348 -54.65625,-0.98347 -1.80437,0 -32.68999,-10e-6 -34.5,0 z"
         id="path3755"
         sodipodi:nodetypes="cscscsssscscssc" />
      <path
         sodipodi:nodetypes="csssssssssccssssssssscc"
         id="path5557"
         d="m 474.59714,218.07782 c -2.55328,2.4833 -5.9695,0.96172 -8.03125,1.79718 -6.25793,2.53584 -15.78763,7.12907 -25,9.375 -4.47914,1.09199 -11.84475,2.23164 -18.78125,3.25 -6.9365,1.01836 -13.3144,1.88832 -16.9375,2.78125 -10.14433,2.5001 -15.3355,2.35372 -25.78125,6.625 -9.78826,4.00242 -19.39007,9.88096 -27.40625,16.78125 -6.60026,5.68148 -11.24993,13.12597 -14.5,20.8125 -3.19768,7.56266 -3.80319,17.74296 -3.53125,24.78125 0.16717,4.32674 1.78795,9.27814 3.28125,13.5625 1.49331,4.28436 2.9375,7.71875 2.9375,7.71875 l 7.375,-3.125 c 0,0 -1.38406,-3.21015 -2.78125,-7.21875 -1.39719,-4.0086 -2.72573,-9.00407 -2.8125,-11.25 -0.23596,-6.10704 0.67111,-16.0888 2.90625,-21.375 2.90453,-6.86931 6.96673,-13.21523 12.34375,-17.84375 7.31409,-6.29593 16.28413,-11.81539 25.21875,-15.46875 9.5212,-3.89323 13.88685,-3.55689 24.6875,-6.21875 2.52887,-0.62325 9.18981,-1.60224 16.15625,-2.625 6.96644,-1.02276 14.36624,-2.14704 19.53125,-3.40625 10.40087,-2.53568 20.40932,-7.44656 26.09375,-9.75 4.16199,-1.68652 7.72082,-4.89332 10.59375,-7.6875 7.96918,-3.67538 0.0216,-0.10068 -5.5625,-1.51593 z"
         style="fill:#ffff00;stroke:#225500;stroke-width:2.74333954;stroke-linecap:butt;stroke-linejoin:miter;stroke-miterlimit:4;stroke-opacity:1;stroke-dasharray:none;display:inline"
         transform="matrix(0.98378412,0,0,0.91852291,-310.07219,-163.95026)"
         inkscape:connector-curvature="0" />
      <path
         sodipodi:nodetypes="csssssssssccssssssssscc"
         id="path5648"
         d="m 474.82241,218.5273 c -2.55328,2.4833 -6.19477,2.94308 -8.25652,3.77854 -6.25793,2.53584 -15.78763,4.69823 -25,6.94416 -4.47914,1.09199 -11.84475,2.23164 -18.78125,3.25 -6.9365,1.01836 -13.3144,1.88832 -16.9375,2.78125 -10.14433,2.5001 -15.3355,2.35372 -25.78125,6.625 -9.78826,4.00242 -19.39007,9.88096 -27.40625,16.78125 -6.60026,5.68148 -11.24993,13.12597 -14.5,20.8125 -3.19768,7.56266 -3.80319,17.74296 -3.53125,24.78125 0.16717,4.32674 1.78795,9.27814 3.28125,13.5625 1.49331,4.28436 2.9375,7.71875 2.9375,7.71875 l 7.375,-3.125 c 0,0 -1.38406,-3.21015 -2.78125,-7.21875 -1.39719,-4.0086 -2.72573,-9.00407 -2.8125,-11.25 -0.23596,-6.10704 0.67111,-16.0888 2.90625,-21.375 2.90453,-6.86931 6.96673,-13.21523 12.34375,-17.84375 7.31409,-6.29593 16.28413,-11.81539 25.21875,-15.46875 9.5212,-3.89323 13.88685,-3.55689 24.6875,-6.21875 2.52887,-0.62325 9.18981,-1.60224 16.15625,-2.625 6.96644,-1.02276 14.36624,-2.14704 19.53125,-3.40625 10.40087,-2.53568 20.40932,-7.44656 26.09375,-9.75 4.16199,-1.68652 7.72082,-4.89332 10.59375,-7.6875 10.7791,-2.60331 -2.42669,-1.49968 -5.33723,-1.06645 z"
         style="fill:#ffff00;stroke:#225500;stroke-width:2.74273705;stroke-linecap:butt;stroke-linejoin:miter;stroke-miterlimit:4;stroke-opacity:1;stroke-dasharray:none;display:inline"
         transform="matrix(-0.98378412,0,0,0.91892633,638.77629,-164.0816)"
         inkscape:connector-curvature="0" />
      <path
         style="fill:#ffff00;stroke:#225500;stroke-width:2.74345279;stroke-linecap:butt;stroke-linejoin:miter;stroke-miterlimit:4;stroke-opacity:1;stroke-dasharray:none;display:inline"
         d="m 412.52094,337.35659 c 0,0 -7.9793,-31.00528 -7.32425,-43.00328 0.12971,-2.37572 -0.12555,-4.90705 0.82923,-9.1426 0.79372,-3.52103 2.72859,-8.82968 3.61263,-10.59901 3.18343,-6.37136 11.03129,-12.46688 16.28684,-17.27392 6.53517,-5.97745 15.88099,-13.26869 23.1964,-18.26099 6.52319,-4.45166 15.54104,-9.9973 22.70286,-13.32559 2.42061,-1.12492 8.39019,-2.96124 8.39019,-2.96124 l -0.45412,-7.41735 c 0,0 -13.73383,4.49585 -19.78104,6.9238 -16.20284,6.50544 -41.10736,16.18478 -55.77007,25.6641 -9.05982,5.8571 -16.71473,12.31734 -22.80477,21.22225 -3.33701,4.87941 -5.69774,12.47517 -6.90957,18.26099 -1.09312,5.21905 0.0269,11.65006 1.48062,16.78038 1.39944,4.93885 6.03143,13.87438 9.37727,17.76745 3.75878,4.37354 22.58386,25.92034 22.58386,25.92034 z"
         id="path5574"
         sodipodi:nodetypes="cssssssccsssssscc"
         transform="matrix(0.98378412,0,0,0.91844704,-310.07215,-163.23086)"
         inkscape:connector-curvature="0" />
      <path
         style="fill:#ffff00;stroke:#225500;stroke-width:2.74345279;stroke-linecap:butt;stroke-linejoin:miter;stroke-miterlimit:4;stroke-opacity:1;stroke-dasharray:none;display:inline"
         d="m 413.27798,347.91192 c 0,0 -8.73634,-41.56061 -8.08129,-53.55861 0.12971,-2.37572 -0.12555,-4.90705 0.82923,-9.1426 0.79372,-3.52103 2.72859,-8.82968 3.61263,-10.59901 3.18343,-6.37136 11.03129,-12.46688 16.28684,-17.27392 6.53517,-5.97745 15.88099,-13.26869 23.1964,-18.26099 6.52319,-4.45166 15.54104,-9.9973 22.70286,-13.32559 2.42061,-1.12492 8.39019,-2.96124 8.39019,-2.96124 l 0,-6.44451 c 0,0 -14.18795,3.52301 -20.23516,5.95096 -16.20284,6.50544 -41.10736,16.18478 -55.77007,25.6641 -9.05982,5.8571 -16.71473,12.31734 -22.80477,21.22225 -3.33701,4.87941 -5.69774,12.47517 -6.90957,18.26099 -1.09312,5.21905 0.0269,11.65006 1.48062,16.78038 1.39944,4.93885 6.03143,13.87438 9.37727,17.76745 3.75878,4.37354 18.64034,25.92034 18.64034,25.92034 z"
         id="path5670"
         sodipodi:nodetypes="cssssssccsssssscc"
         transform="matrix(-0.98378412,0,0,0.91844704,638.77633,-163.23086)"
         inkscape:connector-curvature="0" />
      <path
         id="path5747"
         style="fill:#ffff00;stroke:#225500;stroke-width:2.78384042;stroke-linecap:butt;stroke-linejoin:miter;stroke-miterlimit:4;stroke-opacity:1;stroke-dasharray:none;display:inline"
         d="m 843.65606,231.1052 c 0,0 0.8352,3.37313 3.78151,13.09392 4.19528,13.84152 11.29625,33.06158 13.07839,44.91347 0.89218,5.9333 1.07055,14.09628 0,20 -1.16585,6.42927 -5.59159,13.40252 -9.11132,21.92666 -3.38385,8.19509 -8.38583,25.91821 -8.38583,25.91821 l -4.52726,-7.84487 -5.32705,7.84487 c 0,0 -4.20219,-17.72312 -7.58604,-25.91821 -3.51973,-8.52414 -7.94547,-15.49739 -9.11132,-21.92666 -1.07055,-5.90372 -0.89218,-14.0667 0,-20 1.78214,-11.85189 8.88311,-31.07195 13.07839,-44.91347 2.94631,-9.72079 3.46625,-13.09392 3.46625,-13.09392 z"
         sodipodi:nodetypes="csssscccsssscc"
         transform="matrix(0.98378412,0,0,0.89199087,-660.54259,-171.7895)"
         inkscape:connector-curvature="0" />
      <path
         sodipodi:nodetypes="cssssscsssscsssscssssccssssscccssssssccsssssssccssssssscccsssssssccsssssssccsssssscccsssssccsssscsssscsssscsssssscss"
         d="m 2885.9062,785.625 c -1.7672,4.06171 -4.5381,9.60284 -8.7187,13.3125 -5.2708,4.67697 -8.3707,6.97017 -15.4375,9.1875 -4.754,1.49163 -12.5857,3.00563 -18.4688,2.25 -4.3424,-0.55772 -11.2107,-0.6404 -17,-3.0625 -4.7205,-1.97508 -10.4878,-5.42048 -14.4374,-9.1875 -1.0601,-1.01114 -1.939,-2.18056 -2.7813,-3.375 -0.4747,1.13203 -0.9418,2.26765 -1.6875,3.34375 -4.027,5.81095 -10.566,10.0606 -16.375,12.59375 -5.0544,2.20404 -11.368,3.18067 -16.9375,2.40625 -7.1966,-1.00068 -15.3586,-4.45571 -20.9687,-9.3125 -2.3627,-2.04541 -4.2815,-4.77719 -6.0626,-7.5625 -0.573,2.5971 -1.2642,5.16028 -2.2812,7.34375 -2.5482,5.47079 -6.5496,10.61852 -12.25,13.78125 -5.6671,3.14424 -12.7665,3.83219 -18.5,3.3125 -5.0258,-0.45558 -11.151,-1.96362 -15.7188,-5.9375 -1.0601,-0.92232 -1.8941,-1.97962 -2.7812,-3 -1.7557,6.00855 -4.9241,13.0321 -11.7188,16.625 -6.3254,3.34489 -14.9073,4.86332 -22.25,2.375 -8.7998,-2.98208 -14.2601,-9.93339 -18.1864,-16.24803 -1.7716,-2.84907 -3.3896,-7.62153 -4.1886,-10.59572 -0.7989,-2.9742 -1.3124,-5.46875 -1.3124,-5.46875 l 9.3124,-1.90625 c 0,0 0.4721,2.24272 1.1876,4.90625 0.7154,2.66354 2.6731,7.40536 3.0634,8.03322 3.2872,5.28675 9.048,10.8768 13.1866,12.27928 3.2309,1.09493 11.206,0.12401 14.75,-1.75 3.0016,-1.58724 5.8801,-6.66472 7.2187,-11.46875 1.2097,-4.34122 1.9375,-9.625 1.9375,-9.625 l 2.1562,-16.65625 6.875,15.34375 c 1e-4,0 3.3165,6.79531 7,10 1.7104,1.48798 7.051,3.36059 10.3126,3.65625 3.8215,0.34638 10.3089,-0.67708 13.0312,-2.1875 3.4615,-1.92055 6.4055,-5.47295 8.2812,-9.5 0.7241,-1.55456 1.8976,-6.3795 2.5938,-10.375 0.6962,-3.9955 1.0296,-5.11725 1.0938,-7.34375 0.074,-2.57818 -0.7744,-8.56257 -0.7744,-8.56257 l 6.3981,-1.23267 c 0,0 3.7274,9.03819 4.4075,10.32649 0.6801,1.2883 1.6508,3.0591 2.75,4.9375 2.1984,3.7568 5.276,8.09049 6.6875,9.3125 3.5703,3.09089 11.2009,6.42209 16.0313,7.09375 3.065,0.42619 8.9069,-0.40684 11.8437,-1.6875 4.3688,-1.90515 10.0774,-5.99703 12.375,-9.3125 0.2673,-0.38574 1.5178,-3.43046 2.2187,-5.9375 0.701,-2.50704 3.3518,-20.77099 3.3518,-20.77099 l 9.2108,19.42724 c 1.2128,2.55796 3.508,5.31485 4.0624,5.84375 2.4358,2.32316 8.1431,5.85055 11.5626,7.28125 2.9637,1.23997 9.4631,1.75533 14.5312,2.40625 1.8722,0.24046 11.6997,-1.02577 14.4062,-1.875 6.3171,-1.98207 6.7476,-2.5857 11.9688,-7.21875 1.7243,-1.53001 4.9301,-6.82278 6.3125,-10 0.6654,-1.52953 1.353,-7.53219 1.3437,-12.5 -0.01,-4.96781 -0.3437,-9.1875 -0.3437,-9.1875 l 9.7317,-0.78125 9.7318,0.78125 c 0,0 -0.3345,4.21969 -0.3437,9.1875 -0.01,4.96781 0.6783,10.97047 1.3437,12.5 1.3824,3.17722 4.5882,8.46999 6.3125,10 5.2212,4.63305 5.6517,5.23668 11.9688,7.21875 2.7065,0.84923 12.534,2.11546 14.4062,1.875 5.0681,-0.65092 11.5675,-1.16628 14.5312,-2.40625 3.4195,-1.4307 9.1268,-4.95809 11.5626,-7.28125 0.5544,-0.5289 2.8496,-3.28579 4.0624,-5.84375 l 9.2108,-19.42724 c 0,0 2.6508,18.26395 3.3518,20.77099 0.7009,2.50704 1.9514,5.55176 2.2187,5.9375 2.2976,3.31547 8.0062,7.40735 12.375,9.3125 2.9368,1.28066 8.7787,2.11369 11.8437,1.6875 4.8304,-0.67166 12.461,-4.00286 16.0313,-7.09375 1.4115,-1.22201 4.4891,-5.5557 6.6875,-9.3125 1.0992,-1.8784 2.0699,-3.6492 2.75,-4.9375 0.6801,-1.2883 4.4075,-10.32649 4.4075,-10.32649 l 6.3981,1.23267 c 0,0 -0.8488,5.98439 -0.7744,8.56257 0.064,2.2265 0.3976,3.34825 1.0938,7.34375 0.6962,3.9955 1.8697,8.82044 2.5938,10.375 1.8757,4.02705 4.8197,7.57945 8.2812,9.5 2.7223,1.51042 9.2097,2.53388 13.0312,2.1875 3.2616,-0.29566 8.6022,-2.16827 10.3126,-3.65625 3.6835,-3.20469 6.9999,-10 7,-10 l 6.875,-15.34375 2.1562,16.65625 c 0,0 0.7278,5.28378 1.9375,9.625 1.3386,4.80403 4.2171,9.88151 7.2187,11.46875 3.544,1.87401 11.5191,2.84493 14.75,1.75 4.1386,-1.40248 9.8994,-6.99253 13.1866,-12.27928 0.3903,-0.62786 2.348,-5.36968 3.0634,-8.03322 0.7155,-2.66353 1.1876,-4.90625 1.1876,-4.90625 l 9.3124,1.90625 c 0,0 -0.5135,2.49455 -1.3124,5.46875 -0.799,2.97419 -2.417,7.74665 -4.1886,10.59572 -3.9263,6.31464 -9.3866,13.26595 -18.1864,16.24803 -7.3427,2.48832 -15.9246,0.96989 -22.25,-2.375 -6.7947,-3.5929 -9.9631,-10.61645 -11.7188,-16.625 -0.8871,1.02038 -1.7211,2.07768 -2.7812,3 -4.5678,3.97388 -10.693,5.48192 -15.7188,5.9375 -5.7335,0.51969 -12.8329,-0.16826 -18.5,-3.3125 -5.7004,-3.16273 -9.7018,-8.31046 -12.25,-13.78125 -1.017,-2.18347 -1.7082,-4.74665 -2.2812,-7.34375 -1.7811,2.78531 -3.6999,5.51709 -6.0626,7.5625 -5.6101,4.85679 -13.7721,8.31182 -20.9687,9.3125 -5.5695,0.77442 -11.8831,-0.20221 -16.9375,-2.40625 -5.809,-2.53315 -12.348,-6.7828 -16.375,-12.59375 -0.7457,-1.0761 -1.2128,-2.21172 -1.6875,-3.34375 -0.8423,1.19444 -1.7212,2.36386 -2.7813,3.375 -3.9496,3.76702 -9.7169,7.21242 -14.4374,9.1875 -5.7893,2.4221 -12.6576,2.50478 -17,3.0625 -5.8831,0.75563 -13.7148,-0.75837 -18.4688,-2.25 -7.0668,-2.21733 -10.1667,-4.51053 -15.4375,-9.1875 -4.1806,-3.70966 -6.9515,-9.25079 -8.7187,-13.3125 -1.0759,-2.47285 -1.4084,-2.8113 -2.1015,-4.94403 -0.2396,0.84994 -0.4119,1.42451 -0.5549,1.85358 -0.4047,1.21425 -0.5747,1.26326 -1.3697,3.09045 z"
         style="fill:#ffff00;stroke:#225500;stroke-width:5.20479679;stroke-linecap:butt;stroke-linejoin:miter;stroke-miterlimit:4;stroke-opacity:1;stroke-dasharray:none;display:inline"
         id="path9007"
         transform="matrix(0.49189206,0,0,0.51035396,-1256.1924,-243.91148)"
         inkscape:connector-curvature="0" />
      <path
         sodipodi:nodetypes="cscscsssscscssc"
         id="path10512"
         d="m 822.32998,361.84375 c -6.51045,0 -31.35016,0.64043 -55.25,3.625 -23.89988,2.98458 -46.09375,8.25 -46.09375,8.25 0,0 -4.36809,4.85323 -3.86403,7.27161 0.53908,2.58642 6.89528,5.47839 6.89528,5.47839 0,0 21.68046,-5.12692 44.6875,-8 23.007,-2.87307 48.06753,-3.5625 53.625,-3.5625 1.93098,2e-5 34.88753,0 36.8125,0 5.35291,10e-6 29.96487,0.68781 53.03125,3.5625 23.06638,2.8747 45.34375,8 45.34375,8 0,0 5.81599,-2.65891 6.4001,-5.03009 0.60713,-2.46459 -3.4626,-7.71991 -3.4626,-7.71991 0,0 -22.72112,-5.26703 -46.65625,-8.25 -23.93514,-2.98297 -48.31965,-3.62498 -54.65625,-3.625 -1.92503,0 -34.88275,2e-5 -36.8125,0 z"
         style="fill:#ffff00;stroke:#225500;stroke-width:2.6023984;stroke-linecap:butt;stroke-linejoin:miter;stroke-miterlimit:4;stroke-opacity:1;stroke-dasharray:none;display:inline"
         transform="matrix(0.98378412,0,0,1.0207079,-662.54849,-198.35548)"
         inkscape:connector-curvature="0" />
      <path
         sodipodi:nodetypes="cscscsssscscssc"
         id="path10520"
         d="m 823.51391,402.78125 c -11.62268,0 -33.78329,0.82767 -54.65625,2.375 -21.06556,1.56159 -40,4.75 -40,4.75 0,0 -4.42053,5.61275 -3.77603,8.26012 0.53471,2.19639 5.93228,4.64613 5.93228,4.64613 0,0 18.48292,-3.08672 38.8125,-4.59375 20.52227,-1.52133 42.6868,-2.34375 53.6875,-2.34375 1.80875,-10e-6 32.69557,0 34.5,0 10.63587,-10e-6 33.34457,0.82345 53.6875,2.34375 20.16479,1.50696 38.8125,4.59375 38.8125,4.59375 0,0 5.09528,-3.30282 5.49834,-5.62872 0.41021,-2.36719 -3.34209,-7.27753 -3.34209,-7.27753 0,0 -19.10335,-3.18834 -40,-4.75 -20.71849,-1.54836 -43.37822,-2.37501 -54.65625,-2.375 -1.80437,0 -32.68999,-10e-6 -34.5,0 z"
         style="fill:#ffff00;stroke:#225500;stroke-width:2.6023984;stroke-linecap:butt;stroke-linejoin:miter;stroke-miterlimit:4;stroke-opacity:1;stroke-dasharray:none;display:inline"
         transform="matrix(0.98378412,0,0,1.0207079,-662.54849,-198.35548)"
         inkscape:connector-curvature="0" />
      <path
         style="fill:#ffff00;stroke:#225500;stroke-width:2.6023984;stroke-linecap:butt;stroke-linejoin:miter;stroke-miterlimit:4;stroke-opacity:1;stroke-dasharray:none;display:inline"
         d="m 415.733,409.79802 c 0,0 -6.55915,-14.99027 -10.47163,-21.1051 -2.10727,-3.29346 -6.75702,-8.64613 -10.27405,-10.55255 -2.86409,-1.55249 -5.40219,-1.83203 -8.69343,-1.69594 -2.06838,0.0855 -4.32221,0.63725 -5.92733,1.88438 -1.41865,1.10224 -2.37153,3.19529 -2.76609,4.8994 -0.49846,2.15286 -0.46648,4.86041 0.19758,6.97221 0.89728,2.8535 2.6013,5.93334 4.74186,8.10286 1.62481,1.64678 4.14097,3.63685 6.32249,4.52251 2.376,0.96461 7.50797,1.88439 7.50797,1.88439 0,0 -2.5338,-3.21985 -3.35883,-5.27627 -0.40247,-1.00317 -0.60496,-2.67437 0,-3.58034 0.52705,-0.78929 1.98351,-1.36089 2.96367,-1.31906 2.12264,0.0906 3.89336,1.91364 5.53218,3.20345 2.36539,1.86166 4.78865,5.07523 6.71765,7.3491 1.11847,1.31844 3.5564,4.52251 3.5564,4.52251 l 3.95156,0.18845 z"
         id="path11061"
         sodipodi:nodetypes="csssssssscssssscc"
         transform="matrix(0.98378412,0,0,1.0207079,-314.75357,-255.95759)"
         inkscape:connector-curvature="0" />
      <path
         sodipodi:nodetypes="csssssssscsssscc"
         id="path11070"
         d="m 758.61712,359.12858 c 0,0 -3.76046,-12.55051 -4.34671,-18.09007 -0.49418,-4.66976 -0.76394,-11.07897 0.39517,-15.6404 0.51201,-2.01492 1.57058,-4.80537 3.16124,-6.21845 1.63498,-1.45247 4.68244,-2.5577 6.91523,-2.63815 3.35323,-0.12081 8.21954,1.01621 10.66921,3.20345 2.50708,2.23853 3.77233,6.92004 4.14913,10.17568 0.3026,2.61451 -0.52396,6.16865 -1.38305,8.66817 -0.4377,1.27349 -2.42026,3.27906 -3.4311,4.20998 -1.18242,1.08895 -3.6817,2.00848 -3.6817,2.00848 0,0 0.91645,-3.76925 0.39516,-5.27627 -0.68483,-1.97983 -2.18905,-3.81171 -4.34672,-4.14565 -1.02347,-0.1584 -3.4238,0.42397 -4.14914,1.13063 -1.67148,1.62844 -1.89187,3.79744 -2.37092,6.03003 -0.82547,3.84708 0.7903,13.00225 0.7903,13.00225 l -2.7661,3.58032 z"
         style="fill:#ffff00;stroke:#225500;stroke-width:2.6023984;stroke-linecap:butt;stroke-linejoin:miter;stroke-miterlimit:4;stroke-opacity:1;stroke-dasharray:none;display:inline"
         transform="matrix(0.98378412,0,0,1.0207079,-650.32817,-204.43124)"
         inkscape:connector-curvature="0" />
      <path
         style="fill:#ffff00;stroke:#225500;stroke-width:2.6023984;stroke-linecap:butt;stroke-linejoin:miter;stroke-miterlimit:4;stroke-opacity:1;stroke-dasharray:none;display:inline"
         d="m 415.733,409.79802 c 0,0 -6.55915,-14.99027 -10.47163,-21.1051 -2.10727,-3.29346 -6.75702,-8.64613 -10.27405,-10.55255 -2.86409,-1.55249 -5.40219,-1.83203 -8.69343,-1.69594 -2.06838,0.0855 -4.32221,0.63725 -5.92733,1.88438 -1.41865,1.10224 -2.37153,3.19529 -2.76609,4.8994 -0.49846,2.15286 -0.46648,4.86041 0.19758,6.97221 0.89728,2.8535 2.6013,5.93334 4.74186,8.10286 1.62481,1.64678 4.14097,3.63685 6.32249,4.52251 2.376,0.96461 7.50797,1.88439 7.50797,1.88439 0,0 -2.5338,-3.21985 -3.35883,-5.27627 -0.40247,-1.00317 -0.60496,-2.67437 0,-3.58034 0.52705,-0.78929 1.98351,-1.36089 2.96367,-1.31906 2.12264,0.0906 3.89336,1.91364 5.53218,3.20345 2.36539,1.86166 4.78865,5.07523 6.71765,7.3491 1.11847,1.31844 3.5564,4.52251 3.5564,4.52251 l 3.95156,0.18845 z"
         id="path11135"
         sodipodi:nodetypes="csssssssscssssscc"
         transform="matrix(-0.98378412,0,0,1.0207079,643.45774,-255.95759)"
         inkscape:connector-curvature="0" />
      <path
         sodipodi:nodetypes="cssssssssscsssscc"
         id="path11145"
         d="m 897.60041,359.12858 c 0,0 3.76046,-12.55051 4.34671,-18.09007 0.49418,-4.66976 0.76394,-11.07897 -0.39517,-15.6404 -0.51201,-2.01492 -1.57058,-4.80537 -3.16124,-6.21845 -1.63498,-1.45247 -4.68244,-2.5577 -6.91523,-2.63815 -3.35323,-0.12081 -8.21954,1.01621 -10.66921,3.20345 -2.50708,2.23853 -3.77233,6.92004 -4.14913,10.17568 -0.004,0.032 -0.007,0.0641 -0.0106,0.0964 -0.27177,2.60494 0.54507,6.10284 1.39365,8.57177 0.4377,1.27349 2.42026,3.27906 3.4311,4.20998 1.18242,1.08895 3.6817,2.00848 3.6817,2.00848 0,0 -0.91645,-3.76925 -0.39516,-5.27627 0.68483,-1.97983 2.18905,-3.81171 4.34672,-4.14565 1.02347,-0.1584 3.4238,0.42397 4.14914,1.13063 1.67148,1.62844 1.89187,3.79744 2.37092,6.03003 0.82547,3.84708 -0.7903,13.00225 -0.7903,13.00225 l 2.7661,3.58032 z"
         style="fill:#ffff00;stroke:#225500;stroke-width:2.6023984;stroke-linecap:butt;stroke-linejoin:miter;stroke-miterlimit:4;stroke-opacity:1;stroke-dasharray:none;display:inline"
         transform="matrix(0.98378412,0,0,1.0207079,-650.32817,-204.43124)"
         inkscape:connector-curvature="0" />
      <path
         style="fill:#ffff00;stroke:#225500;stroke-width:2.6023984;stroke-linecap:butt;stroke-linejoin:miter;stroke-miterlimit:4;stroke-opacity:1;stroke-dasharray:none;display:inline"
         d="m 602.61873,366.66226 c 0,0 5.97944,-11.05808 10.29639,-16.73103 2.7196,-3.57385 5.40276,-7.90568 8.19383,-11.42399 2.93006,-3.69352 5.84264,-9.33073 9.95059,-14.90569 5.44757,-7.39299 11.84011,-14.44505 11.84011,-14.44505 0,0 -9.81313,0.70797 -13.72933,2.13568 -3.31824,1.20972 -7.51748,3.65895 -10.06818,6.10192 -1.90666,1.82613 -3.52438,5.05775 -4.88154,7.32231 -1.49456,2.49384 -3.46045,5.85802 -4.57645,8.5427 -2.16719,5.21343 -5.49173,18.00069 -5.49173,18.00069 l -5.01067,12.9359 3.47698,2.46656 z"
         id="path11448"
         sodipodi:nodetypes="cssscssssccc"
         transform="matrix(0.98378412,0,0,1.0207079,-309.78998,-197.04995)"
         inkscape:connector-curvature="0" />
      <path
         sodipodi:nodetypes="cssssssscssssc"
         id="path11442"
         d="m 362.89407,362.99638 c 0,0 -10.26988,-12.50216 -12.55006,-20.38874 -1.0426,-3.60611 -1.87999,-9.1015 -0.3051,-12.50895 1.03753,-2.2448 3.9997,-4.62062 6.40703,-5.18663 2.46436,-0.57942 6.16459,0.37748 8.2376,1.83057 1.95445,1.36998 3.86682,4.83384 4.80129,7.03008 1.21682,2.85983 1.64028,6.15002 2.1228,9.22028 0.21792,1.38658 -0.43532,4.82517 -0.95084,6.90297 -0.39464,1.59055 -0.87667,2.60648 -0.87667,2.60648 0,0 -0.94932,-6.79168 -2.65581,-8.80613 -1.29752,-1.53167 -2.98765,-4.49994 -4.88154,-3.83453 -1.22123,0.42907 -0.67317,2.97847 -0.6102,4.27135 0.18791,3.85812 2.65192,8.66692 3.05097,12.50895 0.29328,2.82368 -1.78947,6.3543 -1.78947,6.3543 z"
         style="fill:#ffff00;stroke:#225500;stroke-width:2.6023984;stroke-linecap:butt;stroke-linejoin:miter;stroke-miterlimit:4;stroke-opacity:1;stroke-dasharray:none;display:inline"
         transform="matrix(-0.98378412,0,0,1.0207079,637.03232,-194.75833)"
         inkscape:connector-curvature="0" />
      <path
         style="fill:#ffff00;stroke:#225500;stroke-width:2.6023984;stroke-linecap:butt;stroke-linejoin:miter;stroke-miterlimit:4;stroke-opacity:1;stroke-dasharray:none;display:inline"
         d="m 361.29612,366.66226 c 0,0 -5.97944,-11.05808 -10.29639,-16.73103 -2.7196,-3.57385 -5.40276,-7.90568 -8.19383,-11.42399 -2.93006,-3.69352 -5.84264,-9.33073 -9.95059,-14.90569 -5.44757,-7.39299 -11.84011,-14.44505 -11.84011,-14.44505 0,0 9.81313,0.70797 13.72933,2.13568 3.31824,1.20972 7.51748,3.65895 10.06818,6.10192 1.90666,1.82613 3.52438,5.05775 4.88154,7.32231 1.49456,2.49384 3.46045,5.85802 4.57645,8.5427 2.16719,5.21343 5.49173,18.00069 5.49173,18.00069 l 5.01067,12.9359 -3.47698,2.46656 z"
         id="path11408"
         sodipodi:nodetypes="cssscssssccc"
         transform="matrix(0.98378412,0,0,1.0207079,-309.78998,-197.04995)"
         inkscape:connector-curvature="0" />
      <path
         sodipodi:nodetypes="cssssssscssssc"
         id="path11401"
         d="m 362.89407,362.99638 c 0,0 -10.26988,-12.50216 -12.55006,-20.38874 -1.0426,-3.60611 -1.87999,-9.1015 -0.3051,-12.50895 1.03753,-2.2448 3.9997,-4.62062 6.40703,-5.18663 2.46436,-0.57942 6.16459,0.37748 8.2376,1.83057 1.95445,1.36998 3.86682,4.83384 4.80129,7.03008 1.21682,2.85983 1.64028,6.15002 2.1228,9.22028 0.21792,1.38658 -0.43532,4.82517 -0.95084,6.90297 -0.39464,1.59055 -0.87667,2.60648 -0.87667,2.60648 0,0 -0.94932,-6.79168 -2.65581,-8.80613 -1.29752,-1.53167 -2.98765,-4.49994 -4.88154,-3.83453 -1.22123,0.42907 -0.67317,2.97847 -0.6102,4.27135 0.18791,3.85812 2.65192,8.66692 3.05097,12.50895 0.29328,2.82368 -1.78947,6.3543 -1.78947,6.3543 z"
         style="fill:#ffff00;stroke:#225500;stroke-width:2.6023984;stroke-linecap:butt;stroke-linejoin:miter;stroke-miterlimit:4;stroke-opacity:1;stroke-dasharray:none;display:inline"
         transform="matrix(0.98378412,0,0,1.0207079,-308.32816,-194.75833)"
         inkscape:connector-curvature="0" />
      <path
         style="fill:#ffff00;stroke:#225500;stroke-width:2.6023984;stroke-linecap:butt;stroke-linejoin:miter;stroke-miterlimit:4;stroke-opacity:1;stroke-dasharray:none;display:inline"
         d="m 855.92731,260.79257 c 0,0 0.71679,-11.16877 -0.78386,-16.85296 -1.27688,-4.83657 -4.0878,-13.14607 -7.44665,-16.85295 -0.87363,-0.96416 -1.83322,-2.29431 -3.41292,-3.23108 -1.39087,-0.82479 -3.38774,-1.2945 -4.47963,-1.64105 -1.49168,-0.47344 -5.91685,-0.59853 -9.28264,0.3031 -2.95599,0.79185 -4.89093,2.50309 -6.09176,3.72338 -2.59702,2.63911 -3.66828,6.55399 -3.77616,7.90037 -0.23232,2.89944 -0.10677,6.79559 1.17578,9.4063 1.25501,2.55466 3.64115,5.6878 5.87894,7.44666 2.44055,1.91823 7.5773,3.26608 7.5773,3.26608 0,0 -2.40335,-4.43405 -2.48222,-7.18537 -0.0352,-1.22705 0.23295,-3.65575 1.17578,-4.44186 1.63553,-1.36366 5.14268,-1.72119 7.05473,-0.78386 2.22711,1.09178 4.54139,4.89237 5.48701,7.18536 0.96768,2.34648 1.41671,5.75109 1.95964,8.23052 0.25649,1.17132 0.78386,3.91929 0.78386,3.91929 l 6.6628,-0.39193 z"
         id="path10692"
         sodipodi:nodetypes="cssssssssscssssscc"
         transform="matrix(0.98378412,0,0,1.0207079,-679.14245,-110.28879)"
         inkscape:connector-curvature="0" />
      <path
         style="fill:#ffff00;stroke:#225500;stroke-width:2.6023984;stroke-linecap:butt;stroke-linejoin:miter;stroke-miterlimit:4;stroke-opacity:1;stroke-dasharray:none;display:inline"
         d="m 858.86867,260.79257 c 0,0 -0.71679,-11.16877 0.78386,-16.85296 1.27688,-4.83657 4.0878,-13.14607 7.44665,-16.85295 0.87363,-0.96416 1.83322,-2.29431 3.41292,-3.23108 1.39087,-0.82479 3.38774,-1.2945 4.47963,-1.64105 1.49168,-0.47344 5.91685,-0.59853 9.28264,0.3031 2.95599,0.79185 4.89093,2.50309 6.09176,3.72338 2.59702,2.63911 3.66828,6.55399 3.77616,7.90037 0.23232,2.89944 0.10677,6.79559 -1.17578,9.4063 -1.25501,2.55466 -3.64115,5.6878 -5.87894,7.44666 -2.44055,1.91823 -7.5773,3.26608 -7.5773,3.26608 0,0 2.40335,-4.43405 2.48222,-7.18537 0.0352,-1.22705 -0.23295,-3.65575 -1.17578,-4.44186 -1.63553,-1.36366 -5.14268,-1.72119 -7.05473,-0.78386 -2.22711,1.09178 -4.54139,4.89237 -5.48701,7.18536 -0.96768,2.34648 -1.41671,5.75109 -1.95964,8.23052 -0.25649,1.17132 -0.78386,3.91929 -0.78386,3.91929 l -6.6628,-0.39193 z"
         id="path10694"
         sodipodi:nodetypes="cssssssssscssssscc"
         transform="matrix(0.98378412,0,0,1.0207079,-679.14245,-110.28879)"
         inkscape:connector-curvature="0" />
      <path
         style="fill:#ffff00;fill-opacity:1;fill-rule:evenodd;stroke:#225500;stroke-width:2.6023984;stroke-linejoin:miter;stroke-miterlimit:4;stroke-opacity:1;stroke-dasharray:none;marker:none;visibility:visible;display:inline;overflow:visible;enable-background:accumulate"
         d="m 710.63843,440.79673 c 2.18418,6.52552 2.10887,12.39326 -0.16809,13.09762 -2.27697,0.70437 -4.68053,-4.39655 -6.86471,-10.92207 -2.18419,-6.52552 -3.32596,-12.01676 -1.04899,-12.72112 2.27696,-0.70436 5.89761,4.02005 8.08179,10.54557 z"
         id="path9260"
         sodipodi:nodetypes="csssc"
         transform="matrix(0.98378412,0,0,1.0207079,-639.04372,-243.75704)"
         inkscape:connector-curvature="0" />
      <path
         style="fill:#ffff00;fill-opacity:1;fill-rule:evenodd;stroke:#225500;stroke-width:2.6023984;stroke-linejoin:miter;stroke-miterlimit:4;stroke-opacity:1;stroke-dasharray:none;marker:none;visibility:visible;display:inline;overflow:visible;enable-background:accumulate"
         d="m 710.63843,440.79673 c 2.18418,6.52552 2.10887,12.39326 -0.16809,13.09762 -2.27697,0.70437 -4.68053,-4.39655 -6.86471,-10.92207 -2.18419,-6.52552 -3.32596,-12.01676 -1.04899,-12.72112 2.27696,-0.70436 5.89761,4.02005 8.08179,10.54557 z"
         id="path8739"
         sodipodi:nodetypes="csssc"
         transform="matrix(-0.98378412,0,0,1.0207079,967.74787,-243.75704)"
         inkscape:connector-curvature="0" />
      <path
         sodipodi:nodetypes="ccccccccc"
         id="path9224"
         d="m 2755,830 -5,0 -25,30 0,5 30,30 5,0 25,-30 0,-5 -30,-30 z"
         style="fill:#ffff00;fill-opacity:1;fill-rule:evenodd;stroke:#225500;stroke-width:5.4374094;stroke-linecap:butt;stroke-linejoin:miter;stroke-miterlimit:4;stroke-opacity:1;stroke-dasharray:none;display:inline"
         transform="matrix(0.68675707,-0.0270294,0.01222834,0.33445465,-1803.8239,-13.220262)"
         inkscape:connector-curvature="0" />
      <path
         style="fill:#225500;fill-opacity:1;stroke:#ffff00;stroke-width:4.12879848;stroke-linecap:butt;stroke-linejoin:miter;stroke-miterlimit:4;stroke-opacity:1;stroke-dasharray:none;display:inline"
         d="m 2750,839 6,0 19,20 0,6 -15,20 -6,0 -19,-19 0,-6 15,-21 z"
         id="path9236"
         sodipodi:nodetypes="ccccccccc"
         transform="matrix(0.70477929,-0.02773873,0.01222834,0.33445465,-1853.858,-11.251017)"
         inkscape:connector-curvature="0" />
      <path
         sodipodi:nodetypes="ccccccccc"
         id="path8782"
         d="m 2755,830 -5,0 -25,30 0,5 30,30 5,0 25,-30 0,-5 -30,-30 z"
         style="fill:#ffff00;fill-opacity:1;fill-rule:evenodd;stroke:#ffff00;stroke-width:5.4374094;stroke-linecap:butt;stroke-linejoin:miter;stroke-miterlimit:4;stroke-opacity:1;stroke-dasharray:none;display:inline"
         transform="matrix(-0.68675707,-0.0270294,-0.01222834,0.33445465,2132.5281,-13.220262)"
         inkscape:connector-curvature="0" />
      <path
         style="fill:#225500;fill-opacity:1;stroke:#225500;stroke-width:4.12879848;stroke-linecap:butt;stroke-linejoin:miter;stroke-miterlimit:4;stroke-opacity:1;stroke-dasharray:none;display:inline"
         d="m 2750,839 6,0 19,20 0,6 -15,20 -6,0 -19,-19 0,-6 15,-21 z"
         id="path8794"
         sodipodi:nodetypes="ccccccccc"
         transform="matrix(-0.70477929,-0.02773873,-0.01222834,0.33445465,2182.5621,-11.251017)"
         inkscape:connector-curvature="0" />
      <path
         sodipodi:type="arc"
         style="fill:#338000;fill-opacity:1;fill-rule:evenodd;stroke:none;stroke-width:1.5;marker:none;visibility:visible;display:inline;overflow:visible;enable-background:accumulate"
         id="path7702"
         sodipodi:cx="2689.7012"
         sodipodi:cy="785.0257"
         sodipodi:rx="10.48851"
         sodipodi:ry="10.660453"
         d="m 2700.1897,785.0257 a 10.48851,10.660453 0 1 1 -20.977,0 10.48851,10.660453 0 1 1 20.977,0 z"
         transform="matrix(0.74458311,0,0,0.76409888,-1837.7501,-572.1874)" />
      <path
         transform="matrix(0.74458311,0,0,0.76409888,-1837.7501,-570.61083)"
         inkscape:connector-curvature="0"
         style="fill:#225500;fill-rule:evenodd;stroke:none;display:inline"
         d="m 2680.8443,788.61581 1.995,2.51216 3.8421,2.14272 3.3249,0.14778 3.5466,-0.36944 3.7682,-2.95548 1.6255,-2.51216 1.0345,-3.91602 0,-4.06378 -1.6256,-2.2905 -2.3643,-2.73382 -2.9556,-1.1822 c 0,0 1.536,2.71845 1.9211,3.9899 0.3698,1.22108 0.3941,2.81195 0.1478,4.0638 -0.2379,1.20858 -0.8568,2.73191 -1.6255,3.69435 -0.8515,1.0661 -2.4648,2.36388 -3.6943,2.95548 -1.3729,0.66057 -3.1321,0.84093 -4.6549,0.88664 -1.2898,0.0387 -4.2855,-0.36943 -4.2855,-0.36943 z"
         id="path7704"
         sodipodi:nodetypes="ccccccccccccsssssc" />
      <path
         inkscape:connector-curvature="0"
         transform="matrix(1.235691,0,0,1.2406337,-3158.3385,-940.1337)"
         style="fill:#44aa00;fill-opacity:1;fill-rule:evenodd;stroke:none;stroke-width:1.5;marker:none;visibility:visible;display:inline;overflow:visible;enable-background:accumulate"
         d="m 2690.3018,778.013 c 0,1.89653 -1.5558,3.43575 -3.4727,3.43575 -1.9169,0 -3.4727,-1.53922 -3.4727,-3.43575 0,-0.97409 0.7666,-0.9438 1.4256,-1.56923 0.624,-0.59226 1.6935,-1.68449 2.6259,-1.68449 1.9169,0 2.8939,1.35719 2.8939,3.25372 z"
         id="path7706"
         sodipodi:nodetypes="cssssc" />
      <use
         height="287.88446"
         width="330.81165"
         transform="translate(0,25.205738)"
         id="use4549"
         xlink:href="#path7702"
         y="0"
         x="0" />
      <use
         height="287.88446"
         width="330.81165"
         transform="translate(0,25.205738)"
         id="use4551"
         xlink:href="#path7704"
         y="0"
         x="0" />
      <use
         height="287.88446"
         width="330.81165"
         transform="translate(0,25.205738)"
         id="use4553"
         xlink:href="#path7706"
         y="0"
         x="0" />
      <path
         transform="matrix(0.74458311,0,0,0.76409888,-1750.4994,-508.20361)"
         d="m 2700.1897,785.0257 a 10.48851,10.660453 0 1 1 -20.977,0 10.48851,10.660453 0 1 1 20.977,0 z"
         sodipodi:ry="10.660453"
         sodipodi:rx="10.48851"
         sodipodi:cy="785.0257"
         sodipodi:cx="2689.7012"
         id="use4561"
         style="fill:#338000;fill-opacity:1;fill-rule:evenodd;stroke:none;stroke-width:1.5;marker:none;visibility:visible;display:inline;overflow:visible;enable-background:accumulate"
         sodipodi:type="arc" />
      <path
         sodipodi:nodetypes="ccccccccccccsssssc"
         id="use4563"
         d="m 2680.8443,788.61581 1.995,2.51216 3.8421,2.14272 3.3249,0.14778 3.5466,-0.36944 3.7682,-2.95548 1.6255,-2.51216 1.0345,-3.91602 0,-4.06378 -1.6256,-2.2905 -2.3643,-2.73382 -2.9556,-1.1822 c 0,0 1.536,2.71845 1.9211,3.9899 0.3698,1.22108 0.3941,2.81195 0.1478,4.0638 -0.2379,1.20858 -0.8568,2.73191 -1.6255,3.69435 -0.8515,1.0661 -2.4648,2.36388 -3.6943,2.95548 -1.3729,0.66057 -3.1321,0.84093 -4.6549,0.88664 -1.2898,0.0387 -4.2855,-0.36943 -4.2855,-0.36943 z"
         style="fill:#225500;fill-rule:evenodd;stroke:none;display:inline"
         inkscape:connector-curvature="0"
         transform="matrix(0.74458311,0,0,0.76409888,-1750.4994,-506.62704)" />
      <path
         sodipodi:nodetypes="cssssc"
         id="use4565"
         d="m 2690.3018,778.013 c 0,1.89653 -1.5558,3.43575 -3.4727,3.43575 -1.9169,0 -3.4727,-1.53922 -3.4727,-3.43575 0,-0.97409 0.7666,-0.9438 1.4256,-1.56923 0.624,-0.59226 1.6935,-1.68449 2.6259,-1.68449 1.9169,0 2.8939,1.35719 2.8939,3.25372 z"
         style="fill:#44aa00;fill-opacity:1;fill-rule:evenodd;stroke:none;stroke-width:1.5;marker:none;visibility:visible;display:inline;overflow:visible;enable-background:accumulate"
         transform="matrix(1.235691,0,0,1.2406337,-3071.0879,-876.1499)"
         inkscape:connector-curvature="0" />
      <use
         height="287.88446"
         width="330.81165"
         transform="translate(-12.52692,-15.511223)"
         id="use4567"
         xlink:href="#use4561"
         y="0"
         x="0" />
      <use
         height="287.88446"
         width="330.81165"
         transform="translate(-12.52692,-15.511223)"
         id="use4569"
         xlink:href="#use4563"
         y="0"
         x="0" />
      <use
         height="287.88446"
         width="330.81165"
         transform="translate(-12.52692,-15.511223)"
         id="use4571"
         xlink:href="#use4565"
         y="0"
         x="0" />
      <use
         height="287.88446"
         width="330.81165"
         transform="translate(-15.957975,-10.739915)"
         id="use4573"
         xlink:href="#use4567"
         y="0"
         x="0" />
      <use
         height="287.88446"
         width="330.81165"
         transform="translate(-15.957975,-10.739915)"
         id="use4575"
         xlink:href="#use4569"
         y="0"
         x="0" />
      <use
         height="287.88446"
         width="330.81165"
         transform="translate(-15.957975,-10.739915)"
         id="use4577"
         xlink:href="#use4571"
         y="0"
         x="0" />
      <use
         height="287.88446"
         width="330.81165"
         transform="translate(-16.556624,-12.52692)"
         id="use4579"
         xlink:href="#use4573"
         y="0"
         x="0" />
      <use
         height="287.88446"
         width="330.81165"
         transform="translate(-16.556624,-12.52692)"
         id="use4581"
         xlink:href="#use4575"
         y="0"
         x="0" />
      <use
         height="287.88446"
         width="330.81165"
         transform="translate(-16.556624,-12.52692)"
         id="use4583"
         xlink:href="#use4577"
         y="0"
         x="0" />
      <use
         height="287.88446"
         width="330.81165"
         transform="translate(-19.389029,-11.633418)"
         id="use4585"
         xlink:href="#use4579"
         y="0"
         x="0" />
      <use
         height="287.88446"
         width="330.81165"
         transform="translate(-19.389029,-11.633418)"
         id="use4587"
         xlink:href="#use4581"
         y="0"
         x="0" />
      <use
         height="287.88446"
         width="330.81165"
         transform="translate(-19.389029,-11.633418)"
         id="use4589"
         xlink:href="#use4583"
         y="0"
         x="0" />
      <use
         height="287.88446"
         width="330.81165"
         transform="translate(29.083544,0)"
         id="use4591"
         xlink:href="#use4585"
         y="0"
         x="0" />
      <use
         height="287.88446"
         width="330.81165"
         transform="translate(29.083544,0)"
         id="use4593"
         xlink:href="#use4587"
         y="0"
         x="0" />
      <use
         height="287.88446"
         width="330.81165"
         transform="translate(29.083544,0)"
         id="use4595"
         xlink:href="#use4589"
         y="0"
         x="0" />
      <use
         height="287.88446"
         width="330.81165"
         transform="translate(23.266835,3.8778058)"
         id="use4597"
         xlink:href="#use4591"
         y="0"
         x="0" />
      <use
         height="287.88446"
         width="330.81165"
         transform="translate(23.266835,3.8778058)"
         id="use4599"
         xlink:href="#use4593"
         y="0"
         x="0" />
      <use
         height="287.88446"
         width="330.81165"
         transform="translate(23.266835,3.8778058)"
         id="use4601"
         xlink:href="#use4595"
         y="0"
         x="0" />
      <use
         height="287.88446"
         width="330.81165"
         transform="translate(21.327932,3.8778058)"
         id="use4603"
         xlink:href="#use4597"
         y="0"
         x="0" />
      <use
         height="287.88446"
         width="330.81165"
         transform="translate(21.327932,3.8778058)"
         id="use4605"
         xlink:href="#use4599"
         y="0"
         x="0" />
      <use
         height="287.88446"
         width="330.81165"
         transform="translate(21.327932,3.8778058)"
         id="use4607"
         xlink:href="#use4601"
         y="0"
         x="0" />
      <use
         height="287.88446"
         width="330.81165"
         transform="translate(21.327932,9.6945146)"
         id="use4609"
         xlink:href="#use4603"
         y="0"
         x="0" />
      <use
         height="287.88446"
         width="330.81165"
         transform="translate(21.327932,9.6945146)"
         id="use4611"
         xlink:href="#use4605"
         y="0"
         x="0" />
      <use
         height="287.88446"
         width="330.81165"
         transform="translate(21.327932,9.6945146)"
         id="use4613"
         xlink:href="#use4607"
         y="0"
         x="0" />
      <use
         height="287.88446"
         width="330.81165"
         transform="translate(19.389029,13.57232)"
         id="use4615"
         xlink:href="#use4609"
         y="0"
         x="0" />
      <use
         height="287.88446"
         width="330.81165"
         transform="translate(19.389029,13.57232)"
         id="use4617"
         xlink:href="#use4611"
         y="0"
         x="0" />
      <use
         height="287.88446"
         width="330.81165"
         transform="translate(19.389029,13.57232)"
         id="use4619"
         xlink:href="#use4613"
         y="0"
         x="0" />
      <use
         height="287.88446"
         width="330.81165"
         transform="translate(9.694515,17.450126)"
         id="use4621"
         xlink:href="#use4615"
         y="0"
         x="0" />
      <use
         height="287.88446"
         width="330.81165"
         transform="translate(9.694515,17.450126)"
         id="use4623"
         xlink:href="#use4617"
         y="0"
         x="0" />
      <use
         height="287.88446"
         width="330.81165"
         transform="translate(9.694515,17.450126)"
         id="use4625"
         xlink:href="#use4619"
         y="0"
         x="0" />
      <use
         height="287.88446"
         width="330.81165"
         transform="translate(4.3245577,21.327932)"
         id="use4627"
         xlink:href="#use4621"
         y="0"
         x="0" />
      <use
         height="287.88446"
         width="330.81165"
         transform="translate(4.3245577,21.327932)"
         id="use4629"
         xlink:href="#use4623"
         y="0"
         x="0" />
      <use
         height="287.88446"
         width="330.81165"
         transform="translate(4.3245577,21.327932)"
         id="use4631"
         xlink:href="#use4625"
         y="0"
         x="0" />
      <use
         height="287.88446"
         width="330.81165"
         transform="translate(-304.40776,0)"
         id="use4633"
         xlink:href="#use4627"
         y="0"
         x="0" />
      <use
         height="287.88446"
         width="330.81165"
         transform="translate(-304.40776,0)"
         id="use4635"
         xlink:href="#use4629"
         y="0"
         x="0" />
      <use
         height="287.88446"
         width="330.81165"
         transform="translate(-304.40776,0)"
         id="use4637"
         xlink:href="#use4631"
         y="0"
         x="0" />
      <use
         height="287.88446"
         width="330.81165"
         transform="translate(3.8778058,-19.835781)"
         id="use4639"
         xlink:href="#use4633"
         y="0"
         x="0" />
      <use
         height="287.88446"
         width="330.81165"
         transform="translate(3.8778058,-19.835781)"
         id="use4641"
         xlink:href="#use4635"
         y="0"
         x="0" />
      <use
         height="287.88446"
         width="330.81165"
         transform="translate(3.8778058,-19.835781)"
         id="use4643"
         xlink:href="#use4637"
         y="0"
         x="0" />
      <use
         height="287.88446"
         width="330.81165"
         transform="translate(11.633418,-19.389029)"
         id="use4645"
         xlink:href="#use4639"
         y="0"
         x="0" />
      <use
         height="287.88446"
         width="330.81165"
         transform="translate(11.633418,-19.389029)"
         id="use4647"
         xlink:href="#use4641"
         y="0"
         x="0" />
      <use
         height="287.88446"
         width="330.81165"
         transform="translate(11.633418,-19.389029)"
         id="use4649"
         xlink:href="#use4643"
         y="0"
         x="0" />
      <use
         height="287.88446"
         width="330.81165"
         transform="translate(19.389029,-13.57232)"
         id="use4651"
         xlink:href="#use4645"
         y="0"
         x="0" />
      <use
         height="287.88446"
         width="330.81165"
         transform="translate(19.389029,-13.57232)"
         id="use4653"
         xlink:href="#use4647"
         y="0"
         x="0" />
      <use
         height="287.88446"
         width="330.81165"
         transform="translate(19.389029,-13.57232)"
         id="use4655"
         xlink:href="#use4649"
         y="0"
         x="0" />
      <use
         height="287.88446"
         width="330.81165"
         transform="translate(23.266835,-9.694515)"
         id="use4657"
         xlink:href="#use4651"
         y="0"
         x="0" />
      <use
         height="287.88446"
         width="330.81165"
         transform="translate(23.266835,-9.694515)"
         id="use4659"
         xlink:href="#use4653"
         y="0"
         x="0" />
      <use
         height="287.88446"
         width="330.81165"
         transform="translate(23.266835,-9.694515)"
         id="use4661"
         xlink:href="#use4655"
         y="0"
         x="0" />
      <use
         height="287.88446"
         width="330.81165"
         transform="translate(23.266835,-5.8167088)"
         id="use4663"
         xlink:href="#use4657"
         y="0"
         x="0" />
      <use
         height="287.88446"
         width="330.81165"
         transform="translate(23.266835,-5.8167088)"
         id="use4665"
         xlink:href="#use4659"
         y="0"
         x="0" />
      <use
         height="287.88446"
         width="330.81165"
         transform="translate(23.266835,-5.8167088)"
         id="use4667"
         xlink:href="#use4661"
         y="0"
         x="0" />
      <use
         height="287.88446"
         width="330.81165"
         transform="translate(23.266835,0)"
         id="use4669"
         xlink:href="#use4663"
         y="0"
         x="0" />
      <use
         height="287.88446"
         width="330.81165"
         transform="translate(23.266835,0)"
         id="use4671"
         xlink:href="#use4665"
         y="0"
         x="0" />
      <use
         height="287.88446"
         width="330.81165"
         transform="translate(23.266835,0)"
         id="use4673"
         xlink:href="#use4667"
         y="0"
         x="0" />
      <use
         height="287.88446"
         width="330.81165"
         transform="translate(21.327932,1.9389029)"
         id="use4675"
         xlink:href="#use4669"
         y="0"
         x="0" />
      <use
         height="287.88446"
         width="330.81165"
         transform="translate(21.327932,1.9389029)"
         id="use4677"
         xlink:href="#use4671"
         y="0"
         x="0" />
      <use
         height="287.88446"
         width="330.81165"
         transform="translate(21.327932,1.9389029)"
         id="use4679"
         xlink:href="#use4673"
         y="0"
         x="0" />
      <use
         height="287.88446"
         width="330.81165"
         transform="translate(-14.912575,7.7556117)"
         id="use4681"
         xlink:href="#use4675"
         y="0"
         x="0" />
      <use
         height="287.88446"
         width="330.81165"
         transform="translate(-14.912575,7.7556117)"
         id="use4683"
         xlink:href="#use4677"
         y="0"
         x="0" />
      <use
         height="287.88446"
         width="330.81165"
         transform="translate(-14.912575,7.7556117)"
         id="use4685"
         xlink:href="#use4679"
         y="0"
         x="0" />
      <use
         height="287.88446"
         width="330.81165"
         transform="translate(-17.602024,13.125569)"
         id="use4687"
         xlink:href="#use4681"
         y="0"
         x="0" />
      <use
         height="287.88446"
         width="330.81165"
         transform="translate(-17.602024,13.125569)"
         id="use4689"
         xlink:href="#use4683"
         y="0"
         x="0" />
      <use
         height="287.88446"
         width="330.81165"
         transform="translate(-17.602024,13.125569)"
         id="use4691"
         xlink:href="#use4685"
         y="0"
         x="0" />
      <use
         height="287.88446"
         width="330.81165"
         transform="translate(-17.450126,11.633418)"
         id="use4693"
         xlink:href="#use4687"
         y="0"
         x="0" />
      <use
         height="287.88446"
         width="330.81165"
         transform="translate(-17.450126,11.633418)"
         id="use4695"
         xlink:href="#use4689"
         y="0"
         x="0" />
      <use
         height="287.88446"
         width="330.81165"
         transform="translate(-17.450126,11.633418)"
         id="use4697"
         xlink:href="#use4691"
         y="0"
         x="0" />
      <use
         height="287.88446"
         width="330.81165"
         transform="translate(-9.6945146,17.450126)"
         id="use4699"
         xlink:href="#use4693"
         y="0"
         x="0" />
      <use
         height="287.88446"
         width="330.81165"
         transform="translate(-9.6945146,17.450126)"
         id="use4701"
         xlink:href="#use4695"
         y="0"
         x="0" />
      <use
         height="287.88446"
         width="330.81165"
         transform="translate(-9.6945146,17.450126)"
         id="use4703"
         xlink:href="#use4697"
         y="0"
         x="0" />
      <use
         height="287.88446"
         width="330.81165"
         transform="translate(11.633418,67.861602)"
         id="use4707"
         xlink:href="#use4597"
         y="0"
         x="0" />
      <use
         height="287.88446"
         width="330.81165"
         transform="translate(11.633418,67.861602)"
         id="use4709"
         xlink:href="#use4599"
         y="0"
         x="0" />
      <use
         height="287.88446"
         width="330.81165"
         transform="translate(11.633418,67.861602)"
         id="use4711"
         xlink:href="#use4601"
         y="0"
         x="0" />
      <use
         height="287.88446"
         width="330.81165"
         transform="translate(-7.7556117,21.327932)"
         id="use4713"
         xlink:href="#use4707"
         y="0"
         x="0" />
      <use
         height="287.88446"
         width="330.81165"
         transform="translate(-7.7556117,21.327932)"
         id="use4715"
         xlink:href="#use4709"
         y="0"
         x="0" />
      <use
         height="287.88446"
         width="330.81165"
         transform="translate(-7.7556117,21.327932)"
         id="use4717"
         xlink:href="#use4711"
         y="0"
         x="0" />
      <use
         height="287.88446"
         width="330.81165"
         transform="translate(-79.49502,0)"
         id="use4719"
         xlink:href="#use4713"
         y="0"
         x="0" />
      <use
         height="287.88446"
         width="330.81165"
         transform="translate(-79.49502,0)"
         id="use4721"
         xlink:href="#use4715"
         y="0"
         x="0" />
      <use
         height="287.88446"
         width="330.81165"
         transform="translate(-79.49502,0)"
         id="use4723"
         xlink:href="#use4717"
         y="0"
         x="0" />
      <use
         height="287.88446"
         width="330.81165"
         transform="translate(0,-21.327932)"
         id="use4725"
         xlink:href="#use4719"
         y="0"
         x="0" />
      <use
         height="287.88446"
         width="330.81165"
         transform="translate(0,-21.327932)"
         id="use4727"
         xlink:href="#use4721"
         y="0"
         x="0" />
      <use
         height="287.88446"
         width="330.81165"
         transform="translate(0,-21.327932)"
         id="use4729"
         xlink:href="#use4723"
         y="0"
         x="0" />
      <use
         height="287.88446"
         width="330.81165"
         transform="translate(0,-19.389029)"
         id="use4731"
         xlink:href="#use4725"
         y="0"
         x="0" />
      <use
         height="287.88446"
         width="330.81165"
         transform="translate(0,-19.389029)"
         id="use4733"
         xlink:href="#use4727"
         y="0"
         x="0" />
      <use
         height="287.88446"
         width="330.81165"
         transform="translate(0,-19.389029)"
         id="use4735"
         xlink:href="#use4729"
         y="0"
         x="0" />
      <use
         height="287.88446"
         width="330.81165"
         transform="translate(-87.250632,21.327932)"
         id="use4737"
         xlink:href="#use4731"
         y="0"
         x="0" />
      <use
         height="287.88446"
         width="330.81165"
         transform="translate(-87.250632,21.327932)"
         id="use4739"
         xlink:href="#use4733"
         y="0"
         x="0" />
      <use
         height="287.88446"
         width="330.81165"
         transform="translate(-87.250632,21.327932)"
         id="use4741"
         xlink:href="#use4735"
         y="0"
         x="0" />
      <use
         height="287.88446"
         width="330.81165"
         transform="translate(9.694515,21.327932)"
         id="use4743"
         xlink:href="#use4737"
         y="0"
         x="0" />
      <use
         height="287.88446"
         width="330.81165"
         transform="translate(9.694515,21.327932)"
         id="use4745"
         xlink:href="#use4739"
         y="0"
         x="0" />
      <use
         height="287.88446"
         width="330.81165"
         transform="translate(9.694515,21.327932)"
         id="use4747"
         xlink:href="#use4741"
         y="0"
         x="0" />
      <use
         height="287.88446"
         width="330.81165"
         transform="translate(7.7556117,21.327932)"
         id="use4749"
         xlink:href="#use4743"
         y="0"
         x="0" />
      <use
         height="287.88446"
         width="330.81165"
         transform="translate(7.7556117,21.327932)"
         id="use4751"
         xlink:href="#use4745"
         y="0"
         x="0" />
      <use
         height="287.88446"
         width="330.81165"
         transform="translate(7.7556117,21.327932)"
         id="use4753"
         xlink:href="#use4747"
         y="0"
         x="0" />
      <use
         height="287.88446"
         width="330.81165"
         transform="translate(-46.53367,13.57232)"
         id="use4755"
         xlink:href="#use4749"
         y="0"
         x="0" />
      <use
         height="287.88446"
         width="330.81165"
         transform="translate(-46.53367,13.57232)"
         id="use4757"
         xlink:href="#use4751"
         y="0"
         x="0" />
      <use
         height="287.88446"
         width="330.81165"
         transform="translate(-46.53367,13.57232)"
         id="use4759"
         xlink:href="#use4753"
         y="0"
         x="0" />
      <use
         height="287.88446"
         width="330.81165"
         transform="translate(116.33418,-11.633418)"
         id="use4761"
         xlink:href="#use4755"
         y="0"
         x="0" />
      <use
         height="287.88446"
         width="330.81165"
         transform="translate(116.33418,-11.633418)"
         id="use4763"
         xlink:href="#use4757"
         y="0"
         x="0" />
      <use
         height="287.88446"
         width="330.81165"
         transform="translate(116.33418,-11.633418)"
         id="use4765"
         xlink:href="#use4759"
         y="0"
         x="0" />
      <use
         height="287.88446"
         width="330.81165"
         transform="translate(70.845905,-3.8778058)"
         id="use4767"
         xlink:href="#use4761"
         y="0"
         x="0" />
      <use
         height="287.88446"
         width="330.81165"
         transform="translate(70.845905,-3.8778058)"
         id="use4769"
         xlink:href="#use4763"
         y="0"
         x="0" />
      <use
         height="287.88446"
         width="330.81165"
         transform="translate(70.845905,-3.8778058)"
         id="use4771"
         xlink:href="#use4765"
         y="0"
         x="0" />
      <use
         height="287.88446"
         width="330.81165"
         transform="translate(48.472573,13.57232)"
         id="use4773"
         xlink:href="#use4767"
         y="0"
         x="0" />
      <use
         height="287.88446"
         width="330.81165"
         transform="translate(48.472573,13.57232)"
         id="use4775"
         xlink:href="#use4769"
         y="0"
         x="0" />
      <use
         height="287.88446"
         width="330.81165"
         transform="translate(48.472573,13.57232)"
         id="use4777"
         xlink:href="#use4771"
         y="0"
         x="0" />
      <use
         height="287.88446"
         width="330.81165"
         transform="translate(-52.350379,31.022447)"
         id="use4789"
         xlink:href="#use4591"
         y="0"
         x="0" />
      <use
         height="287.88446"
         width="330.81165"
         transform="translate(-52.350379,31.022447)"
         id="use4791"
         xlink:href="#use4593"
         y="0"
         x="0" />
      <use
         height="287.88446"
         width="330.81165"
         transform="translate(-52.350379,31.022447)"
         id="use4793"
         xlink:href="#use4595"
         y="0"
         x="0" />
    </g>
    <path
       style="fill:none;stroke:none"
       d="m 139.41467,99.059604 c 28.14475,-10.036111 62.83478,-15.49052 85.7433,-15.054167 22.03581,0.218176 55.85314,6.981643 84.43424,15.054167"
       id="path3481"
       inkscape:connector-curvature="0"
       sodipodi:nodetypes="ccc"
       transform="matrix(1.1538461,0,0,1,-33.88446,0)" />
    <g
       transform="translate(4,0)"
       style="font-size:40px;font-style:normal;font-weight:bold;line-height:125%;letter-spacing:0px;word-spacing:0px;fill:#000000;fill-opacity:1;stroke:#225500;stroke-opacity:1;font-family:Times New Roman;-inkscape-font-specification:Sans Bold;stroke-width:0.5;stroke-miterlimit:4;stroke-dasharray:none"
       id="text4251">
      <path
         d="m 141.9795,72.41179 1.89084,7.096155 -0.58883,0.156899 c -0.93639,-1.734016 -2.13993,-2.933319 -3.61061,-3.597912 -1.47071,-0.664548 -2.97103,-0.792999 -4.50097,-0.385353 -1.27832,0.340641 -2.35305,1.020487 -3.2242,2.03954 -0.87115,1.019095 -1.39509,2.188203 -1.57182,3.507329 -0.22914,1.68887 -0.0956,3.464351 0.40056,5.326448 0.48813,1.831926 1.16418,3.438588 2.02816,4.819993 0.86397,1.38142 1.89175,2.32571 3.08335,2.832874 1.19158,0.507173 2.57249,0.551558 4.14271,0.133157 1.28837,-0.343296 2.39344,-0.939597 3.31524,-1.788905 0.92176,-0.849296 1.79279,-2.121671 2.61309,-3.817129 l 0.4707,1.76649 c -0.82832,1.503549 -1.79227,2.690186 -2.89184,3.559915 -1.09962,0.869737 -2.47981,1.525872 -4.1406,1.968404 -2.18422,0.582004 -4.241,0.661119 -6.17036,0.237344 -1.92938,-0.42377 -3.57314,-1.333288 -4.9313,-2.728557 -1.35816,-1.395258 -2.28399,-3.018912 -2.77748,-4.870966 -0.52032,-1.952688 -0.50299,-3.940846 0.052,-5.964478 0.55497,-2.023599 1.57186,-3.749875 3.05068,-5.178831 1.47882,-1.428913 3.19457,-2.403537 5.14728,-2.923876 1.43935,-0.383506 3.04238,-0.476464 4.80909,-0.278873 1.02256,0.115634 1.65966,0.139913 1.91131,0.07284 0.32209,-0.0858 0.56989,-0.278497 0.74341,-0.578088 0.1735,-0.299541 0.22709,-0.71538 0.16078,-1.247519 z"
         style="font-size:32px;fill:#ffff00;stroke:#225500;stroke-opacity:1;stroke-width:0.5;stroke-miterlimit:4;stroke-dasharray:none"
         id="path3139"
         inkscape:connector-curvature="0" />
      <path
         d="m 157.32186,69.464207 c 3.28948,-0.765142 6.1689,-0.320759 8.63828,1.333151 2.46935,1.653954 4.00344,4.025074 4.60229,7.113368 0.51156,2.638372 0.1896,5.109424 -0.9659,7.413163 -1.52971,3.055392 -4.16083,4.944958 -7.89338,5.668705 -3.7428,0.725734 -6.88268,0.01884 -9.41967,-2.120684 -2.00438,-1.691035 -3.27327,-3.911977 -3.80667,-6.662832 -0.59882,-3.088299 -0.0473,-5.866482 1.65466,-8.334559 1.70194,-2.468038 4.09873,-3.938141 7.19039,-4.410312 z m 0.37442,0.946023 c -1.90208,0.368837 -3.16071,1.620902 -3.7759,3.756197 -0.49854,1.751952 -0.45831,4.120942 0.12069,7.106977 0.68805,3.548499 1.82046,6.050561 3.39722,7.506194 1.09923,1.017698 2.43115,1.374855 3.99577,1.071472 1.05329,-0.204233 1.88317,-0.630415 2.48964,-1.278547 0.77299,-0.828965 1.27074,-2.010419 1.49324,-3.544368 0.22247,-1.533932 0.10965,-3.456462 -0.33846,-5.767594 -0.53341,-2.750831 -1.18812,-4.75928 -1.96413,-6.025352 -0.77603,-1.266033 -1.61484,-2.103443 -2.51641,-2.512233 -0.9016,-0.408745 -1.86882,-0.512994 -2.90166,-0.312746 z"
         style="font-size:32px;fill:#ffff00;stroke:#225500;stroke-opacity:1;stroke-width:0.5;stroke-miterlimit:4;stroke-dasharray:none"
         id="path3141"
         inkscape:connector-curvature="0" />
      <path
         d="m 180.89421,77.526019 0.76553,5.887943 c 0.14772,1.136274 0.31045,1.842541 0.48819,2.118804 0.17772,0.276269 0.4536,0.479373 0.82765,0.609313 0.37404,0.129944 1.04139,0.132465 2.00206,0.0076 l 0.0745,0.5733 -10.75324,1.398093 -0.0745,-0.573299 c 0.97099,-0.126244 1.61776,-0.302247 1.94031,-0.52801 0.32254,-0.22576 0.53473,-0.492322 0.63658,-0.799687 0.10184,-0.307361 0.0789,-1.029177 -0.0688,-2.16545 l -1.7728,-13.635237 c -0.14773,-1.13625 -0.31046,-1.842518 -0.48819,-2.118804 -0.17773,-0.276246 -0.45361,-0.47935 -0.82766,-0.609312 -0.37404,-0.129922 -1.04139,-0.132442 -2.00206,-0.0076 l -0.0745,-0.5733 9.76159,-1.269163 c 2.5411,-0.330363 4.42328,-0.396502 5.64654,-0.19842 1.22324,0.198128 2.26818,0.721416 3.13482,1.569865 0.86661,0.848492 1.38252,1.908005 1.54773,3.178542 0.20144,1.549475 -0.18983,2.902883 -1.17381,4.060229 -0.6295,0.733125 -1.56386,1.343059 -2.8031,1.829803 l 5.97591,6.455275 c 0.78061,0.833396 1.32515,1.345587 1.63362,1.536575 0.46513,0.265161 0.97863,0.376972 1.54048,0.335434 l 0.0745,0.5733 -6.61619,0.860211 -8.01612,-8.695299 z m -1.33967,-10.303901 1.19664,9.203785 0.88319,-0.114829 c 1.43582,-0.186669 2.49299,-0.458048 3.1715,-0.814137 0.6785,-0.356064 1.1771,-0.90409 1.49583,-1.64408 0.3187,-0.739961 0.4062,-1.662589 0.26251,-2.767885 -0.20818,-1.601089 -0.73641,-2.735157 -1.58469,-3.402206 -0.8483,-0.667009 -2.10398,-0.89241 -3.76706,-0.676204 z"
         style="font-size:32px;fill:#ffff00;stroke:#225500;stroke-opacity:1;stroke-width:0.5;stroke-miterlimit:4;stroke-dasharray:none"
         id="path3143"
         inkscape:connector-curvature="0" />
      <path
         d="m 207.77099,62.966411 c 3.36253,-0.315481 6.15595,0.512374 8.38028,2.483568 2.22429,1.971233 3.42532,4.527242 3.6031,7.668034 0.15183,2.683216 -0.49976,5.088458 -1.95478,7.215732 -1.92699,2.821727 -4.78847,4.340005 -8.58447,4.55484 -3.80641,0.215423 -6.8226,-0.907608 -9.04857,-3.369097 -1.75857,-1.945402 -2.71702,-4.316907 -2.87535,-7.114521 -0.17775,-3.140794 0.74267,-5.819475 2.76128,-8.036051 2.01859,-2.216539 4.59143,-3.350707 7.71851,-3.402505 z m 0.2437,0.987807 c -1.93441,0.109499 -3.3501,1.180786 -4.24706,3.213864 -0.72979,1.668918 -1.00874,4.021771 -0.83687,7.058564 0.20423,3.608816 0.98961,6.240515 2.35612,7.895107 0.95227,1.156374 2.22401,1.689533 3.81523,1.599477 1.07119,-0.06062 1.95087,-0.371242 2.63906,-0.931857 0.87752,-0.717395 1.52973,-1.821115 1.95665,-3.311163 0.42689,-1.490037 0.57383,-3.41026 0.44083,-5.760675 -0.15835,-2.797592 -0.5368,-4.87588 -1.13536,-6.23487 -0.5986,-1.358955 -1.31707,-2.301634 -2.15543,-2.828039 -0.83839,-0.526365 -1.78278,-0.759834 -2.83317,-0.700408 z"
         style="font-size:32px;fill:#ffff00;stroke:#225500;stroke-opacity:1;stroke-width:0.5;stroke-miterlimit:4;stroke-dasharray:none"
         id="path3145"
         inkscape:connector-curvature="0" />
      <path
         d="m 230.43715,62.886222 9.83411,13.610077 0.42136,-9.099624 c 0.0588,-1.269456 -0.0836,-2.136342 -0.42704,-2.600662 -0.47153,-0.626628 -1.29568,-0.95677 -2.47245,-0.990426 l 0.0267,-0.577506 6.9925,0.323791 -0.0267,0.577506 c -0.90019,0.07304 -1.50798,0.193496 -1.82335,0.361359 -0.31542,0.167901 -0.56848,0.453376 -0.75918,0.856425 -0.19074,0.403086 -0.30923,1.104084 -0.35547,2.102996 l -0.81598,17.621743 -0.53068,-0.02457 -13.49681,-18.284502 -0.62301,13.454333 c -0.0564,1.217448 0.18391,2.052372 0.72085,2.504775 0.53694,0.452405 1.1644,0.69523 1.88238,0.728476 l 0.49947,0.02313 -0.0267,0.577506 -7.50758,-0.347642 0.0267,-0.577506 c 1.1659,0.04356 1.98861,-0.158183 2.46814,-0.605232 0.47952,-0.447046 0.7453,-1.232467 0.79734,-2.356265 l 0.69167,-14.93712 -0.42662,-0.582857 c -0.42142,-0.582597 -0.79973,-0.970302 -1.13491,-1.163117 -0.3352,-0.192773 -0.82488,-0.314513 -1.46906,-0.365218 l 0.0267,-0.577506 z"
         style="font-size:32px;fill:#ffff00;stroke:#225500;stroke-opacity:1;stroke-width:0.5;stroke-miterlimit:4;stroke-dasharray:none"
         id="path3147"
         inkscape:connector-curvature="0" />
      <path
         d="m 258.55574,80.559694 -7.42663,-0.927921 -1.13947,1.936167 c -0.37465,0.646037 -0.58975,1.191284 -0.64527,1.635743 -0.0736,0.58917 0.10987,1.052998 0.55047,1.391485 0.25842,0.20025 0.93028,0.410168 2.0156,0.629754 l -0.0717,0.573665 -6.99251,-0.873678 0.0717,-0.573665 c 0.76875,-0.01942 1.428,-0.254606 1.97773,-0.705555 0.54973,-0.450946 1.28129,-1.432926 2.19468,-2.945944 l 9.61571,-15.836268 0.29458,0.03681 5.42751,18.188237 c 0.51946,1.723538 0.9853,2.826258 1.3975,3.308163 0.31138,0.364334 0.78428,0.612377 1.41869,0.744132 l -0.0717,0.573664 -10.17091,-1.270805 0.0717,-0.573664 0.41862,0.0523 c 0.81656,0.102025 1.40443,0.06 1.76362,-0.126068 0.24804,-0.136969 0.39145,-0.360498 0.43021,-0.670586 0.0232,-0.186053 0.0161,-0.381149 -0.0214,-0.585288 -0.009,-0.09561 -0.11568,-0.502592 -0.31985,-1.220949 z m -0.3838,-1.213194 -2.22722,-7.631892 -4.1296,6.837638 z"
         style="font-size:32px;fill:#ffff00;stroke:#225500;stroke-opacity:1;stroke-width:0.5;stroke-miterlimit:4;stroke-dasharray:none"
         id="path3149"
         inkscape:connector-curvature="0" />
      <path
         d="m 267.95629,87.882035 0.0983,-0.569707 0.69289,0.119553 c 0.60563,0.104499 1.0865,0.08969 1.44262,-0.04442 0.35611,-0.13411 0.63949,-0.352121 0.85015,-0.654034 0.12957,-0.199623 0.28735,-0.838346 0.47332,-1.916171 l 2.36982,-13.734551 c 0.18419,-1.067541 0.24286,-1.744506 0.176,-2.030897 -0.0669,-0.286353 -0.25497,-0.559289 -0.5643,-0.81881 -0.30935,-0.259481 -0.75657,-0.43971 -1.34167,-0.540686 l -0.69289,-0.119553 0.0983,-0.569707 9.34627,1.612643 c 2.49438,0.430411 4.44273,1.115417 5.84507,2.05502 1.71448,1.15206 2.90638,2.652611 3.57571,4.501658 0.66928,1.849072 0.82062,3.836026 0.45401,5.96087 -0.2533,1.467898 -0.72274,2.779572 -1.40834,3.935025 -0.68563,1.155459 -1.47263,2.07144 -2.36099,2.747946 -0.8884,0.676506 -1.8648,1.173979 -2.92922,1.492421 -1.06445,0.318439 -2.32798,0.488894 -3.79058,0.511365 -0.64743,0.01514 -1.6435,-0.0933 -2.9882,-0.325324 z m 11.35847,-18.319839 -2.81083,16.290532 c -0.14879,0.86226 -0.19894,1.397991 -0.15047,1.607194 0.0485,0.209204 0.16136,0.381957 0.33869,0.518259 0.25058,0.201796 0.63763,0.347858 1.16115,0.438188 1.71424,0.295783 3.12398,-0.0635 4.22923,-1.077843 1.50454,-1.368267 2.54374,-3.715326 3.11762,-7.041186 0.46225,-2.679151 0.41067,-4.892016 -0.15474,-6.638601 -0.45115,-1.367438 -1.16127,-2.367323 -2.13035,-2.999657 -0.68419,-0.445721 -1.88429,-0.811349 -3.6003,-1.096886 z"
         style="font-size:32px;fill:#ffff00;stroke:#225500;stroke-opacity:1;stroke-width:0.5;stroke-miterlimit:4;stroke-dasharray:none"
         id="path3151"
         inkscape:connector-curvature="0" />
      <path
         d="m 306.86755,73.277053 c 3.32793,0.575342 5.80742,2.105277 7.43848,4.589809 1.63101,2.484559 2.1214,5.265778 1.47117,8.343664 -0.55554,2.629462 -1.81378,4.780413 -3.77473,6.452859 -2.59818,2.219207 -5.75724,2.935859 -9.4772,2.149958 -3.73017,-0.78806 -6.34743,-2.661174 -7.85178,-5.619349 -1.18827,-2.337769 -1.49281,-4.877438 -0.9136,-7.619014 0.65025,-3.077881 2.2395,-5.422403 4.76777,-7.033572 2.52825,-1.611134 5.30821,-2.032585 8.33989,-1.264355 z m -0.0233,1.01716 c -1.89567,-0.40047 -3.54235,0.263068 -4.94003,1.990618 -1.14105,1.41982 -2.02593,3.61771 -2.65464,6.593675 -0.74716,3.536527 -0.67775,6.282039 0.20822,8.236546 0.61652,1.365255 1.70445,2.2126 3.26379,2.542035 1.04973,0.221774 1.98005,0.152154 2.79095,-0.208861 1.03465,-0.462792 1.95294,-1.357401 2.75487,-2.68383 0.8019,-1.326427 1.44616,-3.141303 1.9328,-5.444632 0.57918,-2.741559 0.75771,-4.846467 0.53559,-6.314729 -0.22216,-1.468236 -0.66894,-2.566067 -1.34036,-3.293497 -0.67145,-0.727397 -1.52184,-1.199838 -2.55119,-1.417325 z"
         style="font-size:32px;fill:#ffff00;stroke:#225500;stroke-opacity:1;stroke-width:0.5;stroke-miterlimit:4;stroke-dasharray:none"
         id="path3153"
         inkscape:connector-curvature="0" />
    </g>
    <g
       id="g3961">
      <path
         d="m 140.22567,224.33313 0,4.76276 -0.46719,0 c -0.27687,-1.09875 -0.58401,-1.88605 -0.92141,-2.36191 -0.33743,-0.48448 -0.80029,-0.86948 -1.3886,-1.155 -0.32877,-0.15572 -0.90411,-0.23358 -1.72601,-0.2336 l -1.31073,0 0,13.57452 c -1e-5,0.89978 0.0476,1.46214 0.14275,1.68708 0.10381,0.22495 0.29847,0.42394 0.58399,0.59697 0.29415,0.16438 0.69212,0.24658 1.19393,0.24658 l 0.58399,0 0,0.48016 -9.21406,0 0,-0.48016 0.58399,0 c 0.51045,0 0.9214,-0.0908 1.23287,-0.27253 0.22494,-0.12113 0.4023,-0.32877 0.53208,-0.62293 0.0952,-0.20764 0.14275,-0.75269 0.14275,-1.63517 l 0,-13.57452 -1.2718,0 c -1.18529,2e-5 -2.04613,0.25092 -2.58253,0.7527 -0.7527,0.7008 -1.22854,1.70007 -1.42753,2.99781 l -0.49315,0 0,-4.76276 15.80666,0"
         style="font-size:26.57802962999999963px;font-style:normal;font-weight:bold;line-height:125%;letter-spacing:0px;word-spacing:0px;fill:#ffff00;fill-opacity:1;stroke:#225500;font-family:Times New Roman;-inkscape-font-specification:Sans Bold;stroke-opacity:1;stroke-width:0.5;stroke-miterlimit:4;stroke-dasharray:none"
         id="path3925"
         inkscape:connector-curvature="0" />
      <path
         d="m 146.92209,235.28248 0,4.28259 c -1e-5,0.70697 0.0374,1.14883 0.11216,1.32557 0.0816,0.17674 0.23452,0.33309 0.45885,0.46904 0.23112,0.12916 0.54042,0.19374 0.9279,0.19374 l 0.45885,0 0,0.37727 -7.22943,0 0,-0.37727 0.45885,0 c 0.40107,0 0.72396,-0.0714 0.96868,-0.21413 0.17674,-0.0952 0.3127,-0.25832 0.40787,-0.48944 0.0748,-0.16315 0.11216,-0.5914 0.11216,-1.28478 l 0,-9.09541 c 0,-0.70695 -0.0374,-1.14881 -0.11216,-1.32556 -0.0748,-0.17673 -0.22773,-0.32968 -0.45885,-0.45885 -0.22433,-0.13594 -0.53023,-0.20392 -0.9177,-0.20393 l -0.45885,0 0,-0.37728 7.22943,0 0,0.37728 -0.45885,0 c -0.40108,1e-5 -0.72397,0.0714 -0.96869,0.21412 -0.17674,0.0952 -0.3161,0.25833 -0.41806,0.48944 -0.0748,0.16316 -0.11217,0.59142 -0.11216,1.28478 l 0,3.91551 4.88419,0 0,-3.91551 c -10e-6,-0.70695 -0.0374,-1.14881 -0.11216,-1.32556 -0.0748,-0.17673 -0.22774,-0.32968 -0.45885,-0.45885 -0.23113,-0.13594 -0.54043,-0.20392 -0.92789,-0.20393 l -0.44866,0 0,-0.37728 7.21923,0 0,0.37728 -0.44865,0 c -0.40788,1e-5 -0.73078,0.0714 -0.96868,0.21412 -0.17676,0.0952 -0.31611,0.25833 -0.41807,0.48944 -0.0748,0.16316 -0.11217,0.59142 -0.11216,1.28478 l 0,9.09541 c -1e-5,0.70697 0.0374,1.14883 0.11216,1.32557 0.0748,0.17674 0.22771,0.33309 0.45885,0.46904 0.23111,0.12916 0.54041,0.19374 0.9279,0.19374 l 0.44865,0 0,0.37727 -7.21923,0 0,-0.37727 0.44866,0 c 0.40785,0 0.73075,-0.0714 0.96868,-0.21413 0.17673,-0.0952 0.31608,-0.25832 0.41806,-0.48944 0.0748,-0.16315 0.11215,-0.5914 0.11216,-1.28478 l 0,-4.28259 -4.88419,0"
         style="font-size:20.88273621px;font-style:normal;font-weight:bold;line-height:125%;letter-spacing:0px;word-spacing:0px;fill:#ffff00;fill-opacity:1;stroke:#225500;stroke-width:0.47460765;stroke-miterlimit:4;stroke-opacity:1;font-family:Times New Roman;-inkscape-font-specification:Sans Bold"
         id="path3927"
         inkscape:connector-curvature="0" />
      <path
         d="m 163.13476,228.89938 0,5.62855 0.27531,0 c 0.8769,1e-5 1.51249,-0.2753 1.90677,-0.82593 0.39427,-0.55061 0.64578,-1.36294 0.75455,-2.437 l 0.38748,0 0,7.23962 -0.38748,0 c -0.0816,-0.78854 -0.25492,-1.43432 -0.52002,-1.93736 -0.25833,-0.50303 -0.56083,-0.83952 -0.90751,-1.00947 -0.34669,-0.17674 -0.84972,-0.26511 -1.5091,-0.26511 l 0,3.89512 c -1e-5,0.76135 0.0306,1.22699 0.0918,1.39694 0.068,0.16994 0.19033,0.3093 0.36708,0.41806 0.17673,0.10876 0.46224,0.16315 0.85652,0.16315 l 0.82593,0 c 1.29156,0 2.32482,-0.2991 3.09978,-0.89731 0.78173,-0.5982 1.34254,-1.5091 1.68244,-2.7327 l 0.37728,0 -0.622,4.39475 -11.95047,0 0,-0.37727 0.45885,0 c 0.40107,0 0.72396,-0.0714 0.96868,-0.21413 0.17674,-0.0952 0.3127,-0.25832 0.40787,-0.48944 0.0748,-0.16315 0.11216,-0.5914 0.11216,-1.28478 l 0,-9.09541 c 0,-0.62538 -0.017,-1.00945 -0.051,-1.15222 -0.068,-0.23791 -0.19374,-0.42145 -0.37728,-0.55062 -0.25831,-0.19032 -0.6118,-0.28549 -1.06045,-0.2855 l -0.45885,0 0,-0.37728 11.5732,0 0,4.08886 -0.38747,0 c -0.19715,-0.99927 -0.47586,-1.71643 -0.83613,-2.1515 -0.35349,-0.43504 -0.85653,-0.75454 -1.5091,-0.95848 -0.38069,-0.12235 -1.09445,-0.18353 -2.1413,-0.18354 l -1.42753,0"
         style="font-size:20.88273621px;font-style:normal;font-weight:bold;line-height:125%;letter-spacing:0px;word-spacing:0px;fill:#ffff00;fill-opacity:1;stroke:#225500;stroke-width:0.47460765;stroke-miterlimit:4;stroke-opacity:1;font-family:Times New Roman;-inkscape-font-specification:Sans Bold"
         id="path3929"
         inkscape:connector-curvature="0" />
      <path
         d="m 194.35505,223.93083 0,6.09945 -0.50613,0 c -0.38069,-1.5919 -1.09013,-2.81179 -2.12832,-3.65967 -1.03822,-0.84785 -2.21485,-1.27179 -3.52989,-1.2718 -1.09878,1e-5 -2.1067,0.3158 -3.02377,0.94736 -0.91709,0.63159 -1.5876,1.45783 -2.01152,2.47871 -0.54507,1.30642 -0.81759,2.75991 -0.81759,4.36046 0,1.57462 0.19899,3.0108 0.59697,4.30855 0.39797,1.2891 1.02089,2.26675 1.86877,2.93292 0.84785,0.65754 1.94662,0.9863 3.2963,0.9863 1.1074,0 2.11965,-0.24225 3.03674,-0.72674 0.92572,-0.4845 1.89904,-1.31939 2.91995,-2.50467 l 0,1.51837 c -0.98631,1.02956 -2.01586,1.77793 -3.08865,2.24512 -1.06418,0.45854 -2.31002,0.68781 -3.73754,0.68781 -1.87743,0 -3.54721,-0.37635 -5.00934,-1.12905 -1.45349,-0.7527 -2.57821,-1.83416 -3.37416,-3.24439 -0.78731,-1.41022 -1.18096,-2.91129 -1.18096,-4.50321 0,-1.67842 0.43691,-3.27033 1.31074,-4.77574 0.88247,-1.50538 2.06775,-2.67336 3.55585,-3.50394 1.49673,-0.83054 3.08432,-1.24582 4.76276,-1.24584 1.23718,2e-5 2.54358,0.26822 3.91922,0.80461 0.79594,0.31147 1.30206,0.4672 1.51837,0.46719 0.27684,1e-5 0.51476,-0.0995 0.71377,-0.29849 0.20762,-0.20762 0.34172,-0.53206 0.4023,-0.97331 l 0.50613,0"
         style="font-size:26.57802962999999963px;font-style:normal;font-weight:bold;line-height:125%;letter-spacing:0px;word-spacing:0px;fill:#ffff00;fill-opacity:1;stroke:#225500;font-family:Times New Roman;-inkscape-font-specification:Sans Bold;stroke-opacity:1;stroke-width:0.5;stroke-miterlimit:4;stroke-dasharray:none"
         id="path3931"
         inkscape:connector-curvature="0" />
      <path
         d="m 201.36849,235.62917 0,3.87472 c -1e-5,0.74776 0.0442,1.2202 0.13255,1.41734 0.0952,0.19033 0.25831,0.34328 0.48944,0.45885 0.23112,0.11556 0.66278,0.17334 1.29498,0.17334 l 0,0.37727 -7.07648,0 0,-0.37727 c 0.63899,0 1.07065,-0.0578 1.29498,-0.17334 0.23112,-0.12236 0.39087,-0.27871 0.47924,-0.46905 0.0952,-0.19034 0.14275,-0.65938 0.14275,-1.40714 l 0,-8.97305 c 0,-0.74774 -0.0476,-1.21679 -0.14275,-1.40714 -0.0884,-0.19712 -0.24812,-0.35347 -0.47924,-0.46904 -0.23113,-0.11555 -0.66279,-0.17333 -1.29498,-0.17334 l 0,-0.37728 6.42389,0 c 1.67224,1e-5 2.89584,0.11557 3.6708,0.34669 0.77493,0.23113 1.40712,0.65939 1.89657,1.28477 0.48943,0.61861 0.73415,1.34597 0.73416,2.18209 -1e-5,1.01967 -0.36709,1.86259 -1.10124,2.52876 -0.46906,0.42147 -1.12504,0.73757 -1.96795,0.94829 l 3.32411,4.68026 c 0.43504,0.60501 0.74434,0.98228 0.92789,1.13183 0.2787,0.21073 0.60159,0.3263 0.96868,0.34669 l 0,0.37727 -4.35397,0 -4.45593,-6.30152 -0.9075,0 m 0,-6.78078 0,6.05681 0.58121,0 c 0.94488,1e-5 1.65185,-0.085 2.1209,-0.25491 0.46904,-0.17674 0.83612,-0.48943 1.10124,-0.93809 0.2719,-0.45545 0.40785,-1.04685 0.40786,-1.77422 -1e-5,-1.05364 -0.24812,-1.83199 -0.74435,-2.33503 -0.48945,-0.50303 -1.28139,-0.75454 -2.37582,-0.75456 l -1.09104,0"
         style="font-size:20.88273621px;font-style:normal;font-weight:bold;line-height:125%;letter-spacing:0px;word-spacing:0px;fill:#ffff00;fill-opacity:1;stroke:#225500;stroke-width:0.47460765;stroke-miterlimit:4;stroke-opacity:1;font-family:Times New Roman;-inkscape-font-specification:Sans Bold"
         id="path3933"
         inkscape:connector-curvature="0" />
      <path
         d="m 218.9781,227.9103 c 2.20247,-0.0816 3.99028,0.56083 5.36344,1.92717 1.37993,1.36636 2.0699,3.076 2.06992,5.12891 -2e-5,1.75383 -0.51325,3.29692 -1.5397,4.62928 -1.35956,1.76742 -3.27993,2.65113 -5.7611,2.65113 -2.48799,0 -4.41176,-0.84292 -5.77131,-2.52877 -1.07404,-1.33236 -1.61107,-2.91284 -1.61107,-4.74144 0,-2.05292 0.69677,-3.76255 2.09032,-5.12891 1.40033,-1.37314 3.12017,-2.01893 5.1595,-1.93737 m 0.12236,0.65259 c -1.26439,1e-5 -2.22627,0.6458 -2.88565,1.93736 -0.53703,1.06046 -0.80554,2.58316 -0.80554,4.5681 0,2.35883 0.41466,4.10245 1.244,5.23088 0.5778,0.78854 1.38673,1.18281 2.4268,1.18281 0.70016,0 1.28477,-0.16994 1.75382,-0.50983 0.59819,-0.43506 1.06384,-1.12843 1.39694,-2.08012 0.33308,-0.95848 0.49963,-2.20587 0.49964,-3.74217 -1e-5,-1.82859 -0.16996,-3.19494 -0.50983,-4.09905 -0.3399,-0.91089 -0.77496,-1.55328 -1.30518,-1.92717 -0.52343,-0.37386 -1.12843,-0.5608 -1.815,-0.56081"
         style="font-size:20.88273621px;font-style:normal;font-weight:bold;line-height:125%;letter-spacing:0px;word-spacing:0px;fill:#ffff00;fill-opacity:1;stroke:#225500;stroke-width:0.47460765;stroke-miterlimit:4;stroke-opacity:1;font-family:Times New Roman;-inkscape-font-specification:Sans Bold"
         id="path3935"
         inkscape:connector-curvature="0" />
      <path
         d="m 247.84481,228.10404 0,0.37728 c -0.25833,0.0204 -0.47586,0.0918 -0.65258,0.21412 -0.17677,0.12238 -0.33311,0.30932 -0.46905,0.56082 -0.0408,0.0816 -0.25494,0.60841 -0.64239,1.58048 l -4.33357,11.41005 -0.39767,0 -3.42608,-8.91187 -3.77276,8.91187 -0.37727,0 -4.54771,-11.28769 c -0.46225,-1.13521 -0.78514,-1.82179 -0.96868,-2.05972 -0.18354,-0.23791 -0.49284,-0.37726 -0.9279,-0.41806 l 0,-0.37728 5.99563,0 0,0.37728 c -0.48264,0.0136 -0.80554,0.0884 -0.96868,0.22432 -0.15635,0.12917 -0.23453,0.29232 -0.23452,0.48944 -1e-5,0.25833 0.16654,0.80555 0.49963,1.64166 l 2.71231,6.7094 2.17189,-5.24108 -0.57101,-1.46832 c -0.31271,-0.80212 -0.55403,-1.33575 -0.72396,-1.60087 -0.16996,-0.2719 -0.36709,-0.46564 -0.59141,-0.58121 -0.21754,-0.11555 -0.54043,-0.17333 -0.96868,-0.17334 l 0,-0.37728 6.6992,0 0,0.37728 c -0.46906,0.007 -0.80555,0.0442 -1.00947,0.11216 -0.14277,0.0476 -0.25493,0.12917 -0.33649,0.24472 -0.0816,0.10878 -0.12237,0.23453 -0.12236,0.37727 -10e-6,0.15637 0.15294,0.63561 0.45885,1.43773 l 2.51857,6.54625 2.25346,-5.92425 c 0.2379,-0.61179 0.38405,-1.02985 0.43846,-1.25419 0.0544,-0.22432 0.0815,-0.43165 0.0816,-0.622 -2e-5,-0.27869 -0.0952,-0.49622 -0.28551,-0.65258 -0.19035,-0.16314 -0.55403,-0.25151 -1.09104,-0.26511 l 0,-0.37728 3.58922,0"
         style="font-size:20.88273621px;font-style:normal;font-weight:bold;line-height:125%;letter-spacing:0px;word-spacing:0px;fill:#ffff00;fill-opacity:1;stroke:#225500;stroke-width:0.47460765;stroke-miterlimit:4;stroke-opacity:1;font-family:Times New Roman;-inkscape-font-specification:Sans Bold"
         id="path3937"
         inkscape:connector-curvature="0" />
      <path
         d="m 253.22864,228.10404 6.82156,8.57538 0,-5.94465 c -1e-5,-0.82931 -0.11897,-1.39013 -0.35688,-1.68244 -0.32631,-0.39426 -0.87353,-0.5846 -1.64166,-0.57101 l 0,-0.37728 4.56809,0 0,0.37728 c -0.58462,0.0748 -0.97889,0.17335 -1.18281,0.2957 -0.19714,0.11557 -0.35349,0.30931 -0.46904,0.58121 -0.10878,0.26512 -0.16316,0.72397 -0.16315,1.37654 l 0,11.51202 -0.34668,0 -9.35033,-11.51202 0,8.78952 c 0,0.79534 0.18014,1.33236 0.54042,1.61107 0.36708,0.2787 0.78514,0.41806 1.25419,0.41806 l 0.32629,0 0,0.37727 -4.90459,0 0,-0.37727 c 0.76135,-0.007 1.29158,-0.16315 1.59068,-0.46905 0.2991,-0.3059 0.44865,-0.82592 0.44865,-1.56008 l 0,-9.7582 -0.2957,-0.36708 c -0.29231,-0.36706 -0.55062,-0.60838 -0.77494,-0.72396 -0.22433,-0.11555 -0.54723,-0.18013 -0.96869,-0.19373 l 0,-0.37728 4.90459,0"
         style="font-size:20.88273621px;font-style:normal;font-weight:bold;line-height:125%;letter-spacing:0px;word-spacing:0px;fill:#ffff00;fill-opacity:1;stroke:#225500;stroke-width:0.47460765;stroke-miterlimit:4;stroke-opacity:1;font-family:Times New Roman;-inkscape-font-specification:Sans Bold"
         id="path3939"
         inkscape:connector-curvature="0" />
      <path
         d="m 286.0804,223.93083 0,6.09945 -0.50613,0 c -0.38069,-1.5919 -1.09013,-2.81179 -2.12832,-3.65967 -1.03822,-0.84785 -2.21485,-1.27179 -3.52989,-1.2718 -1.09878,1e-5 -2.1067,0.3158 -3.02377,0.94736 -0.91709,0.63159 -1.5876,1.45783 -2.01152,2.47871 -0.54507,1.30642 -0.81759,2.75991 -0.81759,4.36046 0,1.57462 0.19898,3.0108 0.59697,4.30855 0.39797,1.2891 1.02089,2.26675 1.86877,2.93292 0.84785,0.65754 1.94662,0.9863 3.2963,0.9863 1.1074,0 2.11965,-0.24225 3.03674,-0.72674 0.92572,-0.4845 1.89903,-1.31939 2.91995,-2.50467 l 0,1.51837 c -0.98631,1.02956 -2.01586,1.77793 -3.08866,2.24512 -1.06417,0.45854 -2.31001,0.68781 -3.73753,0.68781 -1.87743,0 -3.54721,-0.37635 -5.00934,-1.12905 -1.45349,-0.7527 -2.57821,-1.83416 -3.37416,-3.24439 -0.78731,-1.41022 -1.18096,-2.91129 -1.18096,-4.50321 0,-1.67842 0.43691,-3.27033 1.31074,-4.77574 0.88247,-1.50538 2.06775,-2.67336 3.55584,-3.50394 1.49674,-0.83054 3.08433,-1.24582 4.76277,-1.24584 1.23718,2e-5 2.54358,0.26822 3.91922,0.80461 0.79594,0.31147 1.30206,0.4672 1.51837,0.46719 0.27684,1e-5 0.51476,-0.0995 0.71377,-0.29849 0.20762,-0.20762 0.34172,-0.53206 0.4023,-0.97331 l 0.50613,0"
         style="font-size:26.57802962999999963px;font-style:normal;font-weight:bold;line-height:125%;letter-spacing:0px;word-spacing:0px;fill:#ffff00;fill-opacity:1;stroke:#225500;font-family:Times New Roman;-inkscape-font-specification:Sans Bold;stroke-opacity:1;stroke-width:0.5;stroke-miterlimit:4;stroke-dasharray:none"
         id="path3941"
         inkscape:connector-curvature="0" />
      <path
         d="m 295.19434,241.55342 0,0.37727 -7.22943,0 0,-0.37727 0.45885,0 c 0.40107,0 0.72396,-0.0714 0.96869,-0.21413 0.17674,-0.0952 0.31269,-0.25832 0.40786,-0.48944 0.0748,-0.16315 0.11216,-0.5914 0.11216,-1.28478 l 0,-9.09541 c 0,-0.70695 -0.0374,-1.14881 -0.11216,-1.32556 -0.0748,-0.17673 -0.22773,-0.32968 -0.45885,-0.45885 -0.22433,-0.13594 -0.53022,-0.20392 -0.9177,-0.20393 l -0.45885,0 0,-0.37728 7.22943,0 0,0.37728 -0.45885,0 c -0.40108,1e-5 -0.72397,0.0714 -0.96868,0.21412 -0.17675,0.0952 -0.3161,0.25833 -0.41806,0.48944 -0.0748,0.16316 -0.11217,0.59142 -0.11217,1.28478 l 0,9.09541 c 0,0.70697 0.0374,1.14883 0.11217,1.32557 0.0816,0.17674 0.23451,0.33309 0.45884,0.46904 0.23112,0.12916 0.54042,0.19374 0.9279,0.19374 l 0.45885,0"
         style="font-size:20.88273621px;font-style:normal;font-weight:bold;line-height:125%;letter-spacing:0px;word-spacing:0px;fill:#ffff00;fill-opacity:1;stroke:#225500;stroke-width:0.47460765;stroke-miterlimit:4;stroke-opacity:1;font-family:Times New Roman;-inkscape-font-specification:Sans Bold"
         id="path3943"
         inkscape:connector-curvature="0" />
      <path
         d="m 308.83745,228.10404 0,3.74217 -0.36708,0 c -0.21754,-0.86331 -0.45886,-1.4819 -0.72396,-1.85579 -0.26512,-0.38066 -0.6288,-0.68316 -1.09104,-0.9075 -0.25833,-0.12235 -0.71038,-0.18353 -1.35615,-0.18354 l -1.02987,0 0,10.66569 c 0,0.70697 0.0374,1.14883 0.11217,1.32557 0.0816,0.17674 0.23451,0.33309 0.45885,0.46904 0.23111,0.12916 0.54381,0.19374 0.93809,0.19374 l 0.45885,0 0,0.37727 -7.23962,0 0,-0.37727 0.45885,0 c 0.40106,0 0.72395,-0.0714 0.96868,-0.21413 0.17674,-0.0952 0.31609,-0.25832 0.41806,-0.48944 0.0748,-0.16315 0.11216,-0.5914 0.11216,-1.28478 l 0,-10.66569 -0.99927,0 c -0.93129,1e-5 -1.60767,0.19715 -2.02913,0.5914 -0.59141,0.55063 -0.96528,1.33578 -1.12163,2.35543 l -0.38747,0 0,-3.74217 12.41951,0"
         style="font-size:20.88273621px;font-style:normal;font-weight:bold;line-height:125%;letter-spacing:0px;word-spacing:0px;fill:#ffff00;fill-opacity:1;stroke:#225500;stroke-width:0.47460765;stroke-miterlimit:4;stroke-opacity:1;font-family:Times New Roman;-inkscape-font-specification:Sans Bold"
         id="path3945"
         inkscape:connector-curvature="0" />
      <path
         d="m 324.45872,228.10404 0,0.37728 c -0.45546,0.0612 -0.80555,0.19374 -1.05025,0.39766 -0.3399,0.28552 -0.87693,1.06387 -1.61107,2.33504 l -2.99782,5.00655 0,3.3445 c 0,0.71377 0.0374,1.15902 0.11217,1.33576 0.0748,0.16995 0.22092,0.3229 0.43845,0.45885 0.22432,0.12916 0.52002,0.19374 0.88711,0.19374 l 0.77495,0 0,0.37727 -7.75965,0 0,-0.37727 0.72396,0 c 0.40786,0 0.73075,-0.0714 0.96868,-0.21413 0.17674,-0.0952 0.31609,-0.25832 0.41806,-0.48944 0.0748,-0.16315 0.11216,-0.5914 0.11217,-1.28478 l 0,-2.77349 -3.25273,-5.92425 c -0.64579,-1.1692 -1.10124,-1.85578 -1.36636,-2.05972 -0.26511,-0.21072 -0.61859,-0.31948 -1.06045,-0.32629 l 0,-0.37728 6.62783,0 0,0.37728 -0.29571,0 c -0.40107,1e-5 -0.68318,0.0578 -0.84632,0.17334 -0.15635,0.11557 -0.23453,0.23793 -0.23452,0.36708 -10e-6,0.24473 0.2719,0.85993 0.81573,1.84559 l 2.49818,4.5783 2.48798,-4.17043 c 0.61859,-1.01966 0.92788,-1.69603 0.9279,-2.02914 -2e-5,-0.18352 -0.0884,-0.33647 -0.26512,-0.45885 -0.23113,-0.16993 -0.65599,-0.27189 -1.27458,-0.30589 l 0,-0.37728 4.22141,0"
         style="font-size:20.88273621px;font-style:normal;font-weight:bold;line-height:125%;letter-spacing:0px;word-spacing:0px;fill:#ffff00;fill-opacity:1;stroke:#225500;stroke-width:0.47460765;stroke-miterlimit:4;stroke-opacity:1;font-family:Times New Roman;-inkscape-font-specification:Sans Bold"
         id="path3947"
         inkscape:connector-curvature="0" />
    </g>
  </g>
</svg>
