<?xml version="1.0" encoding="utf-8"?>
<!-- Generator: Adobe Illustrator 16.0.4, SVG Export Plug-In . SVG Version: 6.00 Build 0)  -->
<!DOCTYPE svg PUBLIC "-//W3C//DTD SVG 1.1//EN" "http://www.w3.org/Graphics/SVG/1.1/DTD/svg11.dtd">
<svg version="1.1" xmlns="http://www.w3.org/2000/svg" xmlns:xlink="http://www.w3.org/1999/xlink" x="0px" y="0px" width="700px"
	 height="420px" viewBox="0 0 700 420" enable-background="new 0 0 700 420" xml:space="preserve">
<g id="Layer_2">
	<rect x="0" fill="#305080" width="700.001" height="420"/>
</g>
<g id="Layer_1">
	<g>
		<path fill-rule="evenodd" clip-rule="evenodd" fill="#FFFFFF" d="M211.448,212.959c-0.449-0.251-0.733-0.366-0.967-0.547
			c-9.554-7.368-29.19-6.695-35.301,11.216c-2.07,6.067-2.258,12.318-1.733,18.618c0.446,5.363,1.812,10.482,4.569,15.151
			c3.648,6.177,9.049,10.344,15.649,12.849c3.944,1.497,8.053,2.658,12.18,3.544c2.702,0.58,5.568,0.395,8.36,0.558
			c4.391,0.258,8.796,0.371,13.168,0.817c5.328,0.544,10.634,1.315,15.936,2.083c18.823,2.724,37.412,6.58,55.729,11.711
			c19.913,5.579,39.292,12.605,57.979,21.494c16.074,7.647,31.481,16.45,45.787,27.069c5.612,4.166,10.917,8.748,16.359,13.143
			c0.464,0.374,0.914,0.767,1.529,1.284c-0.646,0.472-1.065,0.805-1.51,1.099c-6.235,4.127-12.491,8.222-18.693,12.396
			c-0.996,0.671-1.541,0.7-2.372-0.234c-13.191-14.854-27.732-28.243-43.804-39.931c-19.904-14.474-41.492-25.724-64.785-33.719
			c-14.528-4.987-29.381-8.648-44.509-11.2c-12.15-2.05-24.378-3.565-36.688-4.149c-13.458-0.639-26.93-1.019-40.398-1.442
			c-1.35-0.043-2.337-0.445-3.295-1.346c-6.973-6.543-11.226-14.59-13.173-23.881c-2.367-11.29-1.365-22.272,3.276-32.876
			c5.507-12.579,15.197-19.844,28.555-22.422c8.239-1.59,16.479-1.148,24.714,0.052c0.237,0.035,0.472,0.09,0.709,0.119
			c3.346,0.412,2.8,0.029,2.82,3.178c0.029,4.64,0.004,9.28-0.004,13.92C211.535,211.929,211.486,212.347,211.448,212.959z"/>
		<path fill-rule="evenodd" clip-rule="evenodd" fill="#FFFFFF" d="M668.466,239.519c-0.569,9.962-2.589,19.406-8.196,27.806
			c-5.446,8.157-12.941,13.498-22.435,15.989c-0.666,0.175-1.428,0.138-2.12,0.034c-10.004-1.488-20.006-2.993-30.001-4.536
			c-0.718-0.111-1.448-0.456-2.064-0.858c-8.458-5.519-14.126-13.208-16.899-22.844c-3.889-13.507-3.26-26.89,3.277-39.442
			c7.745-14.871,20.517-21.779,37.181-21.457c8.031,0.155,15.578,2.288,22.39,6.625c9.899,6.303,15.482,15.525,17.575,26.906
			C667.885,231.615,668.05,235.59,668.466,239.519z M646.027,238.383c-0.231-2.171-0.478-6.128-1.113-10.021
			c-0.884-5.413-2.588-10.564-6.06-14.96c-5.994-7.586-16.58-8.207-23.393-1.369c-4.064,4.078-6.204,9.175-7.502,14.648
			c-2.159,9.112-1.426,18.182,0.717,27.195c1.157,4.867,3.186,9.284,6.737,12.913c5.048,5.158,11.934,6.241,18.217,2.715
			c5.089-2.855,8.305-7.266,10.09-12.763C645.469,251.354,645.844,245.777,646.027,238.383z"/>
		<path fill-rule="evenodd" clip-rule="evenodd" fill="#FFFFFF" d="M387.93,281.432c0.678-0.809,1.22-1.377,1.673-2.01
			c1.982-2.769,2.62-5.98,2.897-9.275c0.177-2.109,0.256-4.232,0.259-6.35c0.021-15.158,0.048-30.317-0.01-45.477
			c-0.02-4.915-0.247-9.832-0.459-14.744c-0.135-3.138-1.38-5.802-3.79-7.877c-0.111-0.097-0.183-0.241-0.416-0.559
			c0.505-0.083,0.857-0.191,1.21-0.19c11.038,0.013,22.078-0.039,33.115,0.09c5.546,0.065,11.016,0.857,16.141,3.172
			c7.57,3.419,13.146,9.05,16.696,16.411c7.968,16.515,7.808,33.113-0.479,49.521c-2.147,4.252-5.148,7.909-8.916,10.864
			c-0.639,0.501-1.558,0.813-2.377,0.889c-7.404,0.676-14.827,1.164-22.222,1.931c-10.655,1.104-21.292,2.396-31.938,3.6
			C388.965,281.467,388.608,281.432,387.93,281.432z M413.639,239.171c0,9.152-0.002,18.306,0.002,27.458
			c0,1.618,0.15,1.93,1.752,2.164c1.966,0.287,3.973,0.562,5.945,0.478c4.243-0.182,7.915-1.733,10.692-5.112
			c2.509-3.053,4.151-6.535,5.185-10.311c2.088-7.632,2.222-15.384,1.243-23.181c-0.581-4.631-1.72-9.111-4.018-13.224
			c-2.285-4.089-5.483-7.058-10.207-8.039c-2.988-0.621-5.954-0.218-8.928,0.27c-1.284,0.21-1.702,0.736-1.695,2.039
			C413.662,220.865,413.638,230.019,413.639,239.171z"/>
		<path fill-rule="evenodd" clip-rule="evenodd" fill="#FFFFFF" d="M216.091,240.172c0.228-11.405,2.154-20.656,7.499-28.971
			c5.849-9.098,14.055-14.964,24.628-17.115c13.084-2.662,25.226-0.142,36.016,7.861c6.358,4.716,10.667,11.055,13.012,18.572
			c4.184,13.412,3.513,26.69-1.945,39.638c-2.691,6.382-6.917,11.661-12.479,15.843c-0.915,0.688-1.818,0.898-2.994,0.794
			c-10.869-0.97-21.742-1.916-32.623-2.743c-5.221-0.396-10.464-0.481-15.69-0.813c-0.741-0.047-1.587-0.547-2.144-1.086
			c-6.592-6.385-10.562-14.201-12.211-23.173C216.526,245.532,216.306,242.01,216.091,240.172z M277.602,238.624
			c-0.012-7.26-0.912-14.361-3.88-21.069c-1.701-3.845-4.107-7.163-7.836-9.283c-6.513-3.704-14.508-2.221-19.474,3.523
			c-4.162,4.814-6.25,10.552-7.329,16.703c-1.453,8.292-0.669,16.491,1.282,24.61c0.983,4.087,2.627,7.876,5.306,11.173
			c5.671,6.98,13.791,8.224,21.21,3.145c4.214-2.885,6.927-6.927,8.458-11.754C277.096,250.131,277.63,244.412,277.602,238.624z"/>
		<path fill-rule="evenodd" clip-rule="evenodd" fill="#FFFFFF" d="M362.187,247.507c0.037-0.376,0.106-0.753,0.106-1.13
			c0-11.919,0.002-23.838-0.019-35.758c-0.009-5.316-0.959-10.354-4.514-14.581c-0.118-0.14-0.156-0.347-0.307-0.697
			c7.221,0,14.311,0,21.586,0c-0.25,0.441-0.364,0.738-0.558,0.969c-3.008,3.616-4.21,7.887-4.262,12.471
			c-0.077,6.797-0.013,13.597,0.063,20.394c0.096,8.678,0.267,17.354,0.399,26.031c0.133,8.677,0.259,17.354,0.391,26.031
			c0.025,1.719,0.023,1.679-1.639,1.944c-3.553,0.566-7.103,1.157-10.645,1.788c-0.86,0.153-1.401-0.023-1.911-0.777
			c-8.979-13.287-17.984-26.558-26.984-39.831c-3.412-5.031-6.823-10.063-10.244-15.088c-0.206-0.302-0.497-0.547-0.998-1.087
			c-0.07,0.95-0.152,1.523-0.149,2.097c0.077,16.717,0.157,33.435,0.251,50.151c0.018,3.123-0.042,2.545-2.493,2.063
			c-2.551-0.502-5.108-0.974-7.648-1.521c-2.151-0.462-2.088,0.066-2.083-2.604c0.015-8.158,0.056-16.317,0.08-24.476
			c0.034-11.52,0.082-23.038,0.08-34.557c0-3.797-0.035-7.6-0.237-11.39c-0.235-4.408-1.979-8.197-5.204-11.266
			c-0.333-0.316-0.607-0.694-1.11-1.276c0.717-0.098,1.154-0.208,1.591-0.208c6.839-0.011,13.679,0.005,20.519-0.024
			c0.864-0.003,1.365,0.3,1.835,1.02c10.795,16.545,21.614,33.076,32.433,49.607c0.406,0.621,0.848,1.219,1.272,1.828
			C361.922,247.59,362.055,247.549,362.187,247.507z"/>
		<path fill-rule="evenodd" clip-rule="evenodd" fill="#FFFFFF" d="M506.032,195.072c0.593-0.054,1.007-0.125,1.422-0.125
			c10.397-0.005,20.794-0.057,31.19,0.022c5.249,0.04,10.466,0.527,15.478,2.284c7.734,2.71,13.485,7.847,17.701,14.742
			c5.797,9.481,7.696,19.893,6.906,30.854c-0.61,8.48-3.023,16.408-7.754,23.546c-2.023,3.053-4.447,5.763-7.347,8.008
			c-0.512,0.396-1.301,0.639-1.954,0.621c-14.346-0.39-28.691-0.833-43.037-1.248c-2.357-0.068-4.718-0.083-7.076-0.064
			c-0.958,0.008-1.24-0.314-1.144-1.285c0.174-1.748,0.271-3.51,0.272-5.266c0.021-15.476,0.055-30.951-0.01-46.427
			c-0.024-5.873-0.231-11.748-0.484-17.617c-0.126-2.915-1.409-5.38-3.636-7.319C506.395,195.653,506.293,195.438,506.032,195.072z
			 M531.608,238.809c0,9.074,0.027,18.149-0.029,27.224c-0.009,1.313,0.448,1.981,1.688,2.081c2.261,0.182,4.538,0.528,6.786,0.402
			c4.331-0.244,7.873-2.178,10.511-5.685c2.57-3.416,4.185-7.264,5.113-11.403c1.631-7.266,1.685-14.591,0.618-21.932
			c-0.7-4.824-1.975-9.475-4.709-13.601c-2.511-3.787-5.898-6.403-10.504-6.777c-2.594-0.21-5.241,0.276-7.865,0.418
			c-1.264,0.068-1.642,0.68-1.635,1.928C531.628,220.578,531.608,229.693,531.608,238.809z"/>
		<path fill-rule="evenodd" clip-rule="evenodd" fill="#FFFFFF" d="M415.955,319.473c1.325-0.686,2.296-1.214,3.289-1.697
			c11.526-5.614,23.446-10.241,35.654-14.137c15.527-4.954,31.343-8.746,47.379-11.63c13.151-2.365,26.386-4.084,39.7-5.224
			c16.396-1.403,32.812-1.861,49.25-1.098c11.193,0.521,22.324,1.668,33.314,3.948c0.312,0.064,0.625,0.131,0.93,0.221
			c0.104,0.03,0.185,0.139,0.495,0.387c-0.647,0.077-1.09,0.15-1.536,0.181c-13.967,0.936-27.88,2.384-41.732,4.405
			c-14.766,2.155-29.416,4.913-43.938,8.355c-23.277,5.517-46.061,12.595-68.038,22.067c-9.502,4.096-18.747,8.787-28.082,13.262
			c-0.957,0.459-1.521,0.25-2.218-0.377c-6.1-5.492-12.496-10.609-19.296-15.215C419.514,321.83,417.886,320.761,415.955,319.473z"
			/>
		<path fill-rule="evenodd" clip-rule="evenodd" fill="#FFFFFF" d="M34.769,283.274c0.377-0.446,0.477-0.614,0.62-0.727
			c4.426-3.454,6.124-8.171,6.171-13.588c0.056-6.358,0.011-12.717,0.011-19.075c0-12.239,0.013-24.479-0.01-36.718
			c-0.006-3.155,0.034-6.326-0.24-9.464c-0.267-3.058-1.378-5.838-3.99-7.771c-0.115-0.085-0.174-0.246-0.418-0.606
			c0.734-0.056,1.29-0.133,1.845-0.134c12.319-0.019,24.638-0.016,36.957-0.058c1.553-0.005,3.107-0.215,4.654-0.389
			c0.619-0.07,1.046-0.038,1.045,0.713c-0.012,5.799-0.023,11.598-0.042,17.396c0,0.104-0.088,0.209-0.235,0.534
			c-0.294-0.39-0.537-0.656-0.716-0.96c-1.692-2.866-4.251-4.316-7.522-4.373c-3.156-0.054-6.316,0.092-9.475,0.132
			c-0.72,0.009-0.988,0.346-0.987,1.037c0.007,6.4,0.007,12.799-0.001,19.199c0,0.666,0.205,1.066,0.952,1.062
			c3.719-0.02,7.438-0.016,11.158-0.048c0.513-0.004,1.03-0.141,1.536-0.257c1.696-0.389,1.698-0.396,1.698,1.396
			c0,5.04,0.001,10.08-0.008,15.119c0,0.459-0.073,0.918-0.112,1.377c-0.101,0.034-0.202,0.068-0.303,0.103
			c-0.202-0.288-0.451-0.554-0.598-0.868c-0.923-1.979-2.505-3.222-4.612-3.412c-2.938-0.267-5.903-0.23-8.856-0.312
			c-0.801-0.021-0.854,0.547-0.854,1.15c0.001,2.72-0.004,5.439-0.003,8.159c0,3.8,0.021,7.6-0.006,11.398
			c-0.006,0.832,0.238,1.371,1.068,1.627c5.621,1.729,11.29,2.366,16.965,0.384c4.767-1.665,8.264-4.912,10.784-9.252
			c0.242-0.417,0.53-0.808,0.797-1.21c0.11,0.042,0.22,0.084,0.33,0.126c-0.038,0.364-0.044,0.734-0.118,1.091
			c-1.385,6.737-2.794,13.47-4.152,20.212c-0.197,0.979-0.682,1.285-1.621,1.353c-16.636,1.182-33.214,2.9-49.701,5.451
			C36.231,283.155,35.679,283.185,34.769,283.274z"/>
		<path fill-rule="evenodd" clip-rule="evenodd" fill="#FFFFFF" d="M137.333,212.233c-0.735-0.48-1.326-0.874-1.924-1.257
			c-4.495-2.874-9.247-4.896-14.74-4.625c-4.451,0.22-7.928,2.85-8.652,6.756c-0.599,3.232,0.436,6.026,2.977,8.015
			c1.901,1.488,4.093,2.617,6.202,3.824c3.849,2.202,7.906,4.089,11.562,6.569c5.791,3.929,10.356,9.077,12.133,16.015
			c2.432,9.491,1.048,18.404-5.051,26.345c-0.665,0.865-1.427,1.241-2.533,1.274c-7.435,0.22-14.868,0.502-22.301,0.758
			c-0.619,0.021-1.239,0.003-1.859,0.003c-0.026-0.099-0.053-0.197-0.08-0.296c0.357-0.192,0.711-0.394,1.073-0.576
			c4.409-2.227,8.007-5.283,9.978-9.94c1.853-4.376,0.883-8.665-2.617-11.913c-2.97-2.756-6.559-4.558-10.078-6.447
			c-4.342-2.331-8.626-4.728-12.327-8.04c-5.539-4.957-8.15-11.246-8.465-18.568c-0.265-6.144,1.185-11.817,4.799-16.866
			c3.667-5.121,8.822-7.944,14.817-9.249c8.989-1.956,17.735-0.787,26.227,2.57c0.451,0.178,1.036,0.788,1.042,1.205
			c0.07,4.599,0.039,9.198,0.027,13.798C137.545,211.73,137.455,211.874,137.333,212.233z"/>
		<path fill-rule="evenodd" clip-rule="evenodd" fill="#FFFFFF" d="M192.475,149.398c40.907-90.422,154.462-122.174,235.389-69.958
			c-42.528-18.112-86.095-21.573-130.504-8.366C252.909,84.293,218.246,110.974,192.475,149.398z"/>
		<path fill-rule="evenodd" clip-rule="evenodd" fill="#FFFFFF" d="M467.005,195.094c10.186,0,20.116,0,30.11,0
			c-0.072,0.27-0.065,0.424-0.138,0.487c-3.538,3.095-4.251,7.271-4.414,11.635c-0.072,1.916-0.007,3.836-0.007,5.755
			c0.001,17.23-0.012,34.462,0.015,51.693c0.004,2.753,0.139,5.509,0.307,8.259c0.065,1.08-0.584,0.927-1.213,0.944
			c-5.834,0.161-11.668,0.313-17.502,0.483c-2.899,0.085-2.872,0.103-2.599-2.783c0.121-1.271,0.152-2.554,0.152-3.831
			c0.005-19.99,0.008-39.979-0.018-59.97c-0.004-3.384-0.352-6.734-2.247-9.677C468.815,197.1,467.961,196.25,467.005,195.094z"/>
		<path fill-rule="evenodd" clip-rule="evenodd" fill="#FFFFFF" d="M371.956,296.877c1.695-0.521,3.38-1.088,5.09-1.559
			c17.256-4.752,34.787-8.198,52.455-10.989c11.419-1.804,22.89-3.183,34.429-3.91c8.267-0.521,16.542-0.66,24.813-0.021
			c0.431,0.033,0.856,0.117,1.328,0.456c-0.381,0.091-0.758,0.206-1.143,0.27c-21.316,3.52-42.113,9.147-62.705,15.57
			c-10.003,3.12-19.901,6.56-29.475,10.865c-0.439,0.197-1.112,0.222-1.547,0.031c-4.979-2.184-9.925-4.438-14.894-6.645
			c-2.485-1.104-4.997-2.146-7.494-3.224c-0.285-0.123-0.546-0.301-0.818-0.453C371.982,297.139,371.968,297.008,371.956,296.877z"
			/>
		<path fill-rule="evenodd" clip-rule="evenodd" fill="#FFFFFF" d="M478.228,171.399c-17.305-25.83-39.947-45.383-68.55-57.771
			c-28.591-12.382-58.327-15.57-89.011-10.472c28.328-9.774,56.734-9.936,84.892,0.31
			C439.319,115.751,463.264,138.849,478.228,171.399z"/>
		<path fill-rule="evenodd" clip-rule="evenodd" fill="#FFFFFF" d="M347.702,135.093c-30.711-1.224-56.469,9.464-77.363,32.016
			c-0.048-2.144,4.829-9.718,10.98-16.578c4.495-5.012,9.878-9.006,15.855-12.09C313.513,130.011,330.374,128.951,347.702,135.093z"
			/>
		<path fill-rule="evenodd" clip-rule="evenodd" fill="#FFFFFF" d="M98.488,327.164c0.171-0.348,0.368-0.686,0.51-1.045
			c1.276-3.237,2.55-6.476,3.808-9.719c1.164-3.001,1.155-3.004,0.119-5.973c1.836,0,3.61-0.019,5.381,0.045
			c0.112,0.004,0.373,0.714,0.273,0.989c-0.806,2.217-1.678,4.41-2.539,6.607c-2.274,5.809-4.542,11.62-6.834,17.422
			c-1.133,2.866-2.791,5.3-5.688,6.684c-2.659,1.271-7.263,1.158-9.779-0.449c1.391-0.994,2.666-1.957,4.007-2.815
			c0.225-0.145,0.75,0.134,1.119,0.266c1.927,0.689,3.631,0.391,4.841-1.255c1.003-1.364,1.701-2.961,2.448-4.496
			c0.152-0.312,0.026-0.866-0.153-1.215c-1.111-2.161-2.374-4.249-3.396-6.449c-1.753-3.771-3.352-7.613-5.053-11.409
			c-0.362-0.808-0.885-1.545-1.333-2.314c-0.127,0.033-0.255,0.067-0.383,0.102c-0.084,0.675-0.168,1.351-0.237,1.907
			c-1.792-0.114-3.52-0.212-5.245-0.338c-0.966-0.07-1.365,0.305-1.354,1.309c0.039,3.439,0,6.88,0.027,10.319
			c0.005,0.673,0.119,1.357,0.277,2.014c0.491,2.037,1.797,3.018,3.895,2.991c0.463-0.005,0.927-0.001,1.416-0.001
			c-0.563,2.369-1.72,3.25-3.957,3.104c-3.734-0.245-5.775-2.149-5.93-5.895c-0.163-3.953-0.086-7.917-0.11-11.875
			c-0.011-1.886-0.009-1.848-1.887-1.993c-0.398-0.031-0.767-0.448-1.149-0.688c0.233-0.355,0.401-0.942,0.71-1.03
			c3.289-0.928,4.553-3.405,5.1-6.466c0.084-0.472,0.057-0.979,0.225-1.416c0.115-0.298,0.478-0.502,0.729-0.747
			c0.218,0.274,0.613,0.543,0.625,0.826c0.064,1.518,0.031,3.039,0.036,4.559c0.005,1.618,0.039,1.656,1.705,1.663
			c2.799,0.01,5.603,0.088,8.398-0.022c1.353-0.054,2.051,0.454,2.543,1.639c1.717,4.137,3.486,8.252,5.238,12.375
			c0.399,0.94,0.806,1.878,1.209,2.817C98.231,327.182,98.36,327.173,98.488,327.164z"/>
		<path fill-rule="evenodd" clip-rule="evenodd" fill="#FFFFFF" d="M60.47,327.087c-0.679,1.604-1.342,3.213-2.054,4.802
			c-0.096,0.214-0.412,0.386-0.662,0.466c-6.835,2.169-13.409,1.902-19.216-2.701c-7.277-5.769-7.815-17.188-1.269-24.037
			c5.012-5.244,11.205-6.454,18.067-5.015c3.361,0.705,2.683,0.438,2.747,3.346c0.014,0.598-0.023,1.197-0.053,1.795
			c-0.005,0.108-0.092,0.213-0.212,0.473c-0.499-0.192-1.004-0.361-1.489-0.577c-3.665-1.632-7.398-1.984-11.182-0.485
			c-2.915,1.154-4.987,3.276-5.944,6.221c-1.564,4.809-1.202,9.493,1.778,13.735c2.88,4.1,8.276,5.645,13.676,3.955
			c1.48-0.464,2.891-1.152,4.332-1.741c0.395-0.162,0.784-0.339,1.176-0.509C60.268,326.905,60.369,326.996,60.47,327.087z"/>
		<path fill-rule="evenodd" clip-rule="evenodd" fill="#FFFFFF" d="M200.211,326.983c-0.676,1.608-1.328,3.227-2.051,4.812
			c-0.125,0.276-0.52,0.507-0.838,0.606c-6.254,1.961-12.316,1.812-17.945-1.905c-4.462-2.947-6.536-7.283-6.938-12.524
			c-0.714-9.312,7.322-18.864,19.4-17.85c1.622,0.136,3.219,0.574,4.83,0.859c0.802,0.142,1.146,0.574,1.114,1.408
			c-0.048,1.222-0.012,2.447-0.012,3.937c-0.861-0.345-1.472-0.571-2.07-0.831c-2.75-1.193-5.61-1.617-8.556-1.032
			c-4.758,0.945-7.987,4.198-8.809,8.975c-0.7,4.067-0.256,7.987,2.192,11.467c2.941,4.18,8.056,5.816,13.464,4.252
			c1.64-0.475,3.196-1.239,4.787-1.882c0.395-0.159,0.773-0.359,1.159-0.54C200.029,326.818,200.12,326.9,200.211,326.983z"/>
		<path fill-rule="evenodd" clip-rule="evenodd" fill="#FFFFFF" d="M202.372,332.697c1.735-2.349,1.242-4.922,1.258-7.402
			c0.04-6.316,0.007-12.634,0.014-18.95c0.002-1.921,0.178-3.868-1.442-5.708c1.931-0.21,3.529-0.417,5.133-0.505
			c0.16-0.009,0.512,0.712,0.517,1.098c0.043,3.398,0.025,6.797,0.035,10.194c0.001,0.458,0.059,0.916,0.111,1.66
			c0.68-0.503,1.148-0.833,1.601-1.185c3.964-3.081,9.773-2.578,12.375,1.265c0.83,1.227,1.317,2.845,1.47,4.333
			c0.248,2.415,0.092,4.871,0.102,7.31c0.005,1.359-0.115,2.731,0.036,4.074c0.143,1.271,0.565,2.51,0.887,3.854
			c-2.05,0-4.204,0-6.394,0c1.853-4.428,0.736-8.972,0.977-13.42c0.021-0.394-0.05-0.799-0.122-1.19
			c-0.746-4.076-5.207-6.042-8.663-3.693c-0.842,0.572-1.393,1.696-1.846,2.674c-0.32,0.691-0.324,1.562-0.341,2.354
			c-0.052,2.438-0.053,4.877-0.053,7.315c0,1.99-0.214,4.026,1.385,5.922C206.955,332.697,204.781,332.697,202.372,332.697z"/>
		<path fill-rule="evenodd" clip-rule="evenodd" fill="#FFFFFF" d="M239.324,333.797c-6.858,0.03-11.582-5.294-12.129-10.739
			c-0.626-6.235,3.616-11.833,9.866-13.098c6.614-1.338,12.523,1.804,14.473,7.694c2.085,6.301-1.155,12.961-7.442,15.101
			C242.561,333.276,240.916,333.459,239.324,333.797z M231.858,321.244c0.447,1.599,0.699,3.288,1.383,4.778
			c1.315,2.867,3.651,4.362,6.882,4.269c3.049-0.088,5.083-1.692,6.335-4.365c1.545-3.303,0.85-8.062-1.756-10.62
			c-0.975-0.958-2.345-1.762-3.668-2.071C236.111,312.082,232.09,315.756,231.858,321.244z"/>
		<path fill-rule="evenodd" clip-rule="evenodd" fill="#FFFFFF" d="M132.593,333.555c-6.361,0.031-11.343-4.238-12.102-10.352
			c-0.74-5.968,3.214-11.565,9.247-13.089c6.493-1.64,12.638,1.234,14.868,6.954c3.04,7.797-2.458,16.086-10.935,16.484
			C133.313,333.569,132.952,333.555,132.593,333.555z M140.626,322.012c-0.194-1.099-0.303-2.22-0.597-3.29
			c-0.906-3.296-3.811-5.62-7.048-5.73c-3.141-0.106-5.969,1.728-7.018,4.815c-1.147,3.381-0.754,6.67,1.375,9.587
			c2.329,3.191,6.659,3.925,9.831,1.722C139.617,327.414,140.468,324.899,140.626,322.012z"/>
		<path fill-rule="evenodd" clip-rule="evenodd" fill="#FFFFFF" d="M309.102,328.309c-1.273,1.918-1.722,4.074-4.387,4.655
			c-4.338,0.945-8.499,1.091-12.378-1.38c-5.104-3.252-6.801-9.92-4.076-15.72c2.376-5.061,8.554-7.702,14.122-5.896
			c4.033,1.308,6.08,4.375,6.728,8.422c0.507,3.175,0.433,2.673-2.265,2.685c-4.356,0.019-8.713,0.002-13.069,0.008
			c-1.684,0.002-1.859,0.233-1.509,1.922c1.031,4.965,5.18,7.921,10.289,7.105C304.66,329.773,306.692,328.987,309.102,328.309z
			 M298.46,317.861c1.556,0,3.112-0.018,4.667,0.008c0.938,0.015,1.196-0.395,0.977-1.27c-0.573-2.291-2.769-3.946-5.352-3.999
			c-2.943-0.06-5.317,1.458-5.995,3.833c-0.301,1.052-0.063,1.405,1.034,1.421C295.348,317.878,296.904,317.86,298.46,317.861z"/>
		<path fill-rule="evenodd" clip-rule="evenodd" fill="#FFFFFF" d="M283.048,314.872c-0.472-0.111-0.667-0.134-0.843-0.204
			c-0.221-0.09-0.426-0.219-0.638-0.33c-3.477-1.819-7.031-1.672-9.462,0.393c-2.256,1.916-3.161,5.802-2.115,9.086
			c1.074,3.377,4.106,5.921,7.622,5.966c1.913,0.023,3.842-0.511,5.748-0.874c0.689-0.132,1.333-0.5,2.099-0.66
			c-0.701,1.652-1.169,3.455-2.927,4.352c-4.484,2.286-11.512,0.865-15.167-3.023c-3.477-3.699-4.106-9.358-1.266-14
			c2.218-3.624,5.632-5.664,9.909-5.884c2.017-0.104,4.06,0.216,6.084,0.415c0.338,0.033,0.895,0.419,0.914,0.674
			C283.098,312.081,283.048,313.391,283.048,314.872z"/>
		<path fill-rule="evenodd" clip-rule="evenodd" fill="#FFFFFF" d="M162.22,300.435c-0.635,0.808-1.224,1.657-1.929,2.397
			c-0.247,0.259-0.774,0.324-1.18,0.343c-0.634,0.028-1.275-0.112-1.91-0.086c-1.525,0.062-2.424,0.746-2.646,2.267
			c-0.201,1.373-0.207,2.786-0.155,4.177c0.011,0.297,0.62,0.775,0.993,0.816c1.026,0.114,2.079,0.109,3.111,0.023
			c1.19-0.098,1.609,0.397,1.453,1.522c-0.027,0.196-0.024,0.401-0.004,0.599c0.099,0.955-0.356,1.277-1.27,1.235
			c-1.077-0.049-2.158,0.008-3.237-0.016c-0.762-0.017-1.099,0.338-1.098,1.078c0.01,4.955-0.033,9.911,0.066,14.864
			c0.02,0.981,0.583,1.952,0.934,3.048c-2.125,0-4.3,0-6.726,0c1.827-2.391,1.21-5.012,1.263-7.522
			c0.069-3.236-0.03-6.476,0.042-9.711c0.027-1.235-0.25-1.938-1.628-1.781c-0.137,0.016-0.289-0.088-0.701-0.224
			c0.535-0.714,1.084-1.281,1.431-1.953c0.383-0.745,0.666-1.567,0.838-2.388c0.26-1.245,0.241-2.561,0.599-3.77
			c0.95-3.208,3.384-4.781,6.525-5.221c1.657-0.232,3.373-0.041,5.062-0.041C162.108,300.207,162.164,300.32,162.22,300.435z"/>
		<path fill-rule="evenodd" clip-rule="evenodd" fill="#FFFFFF" d="M261.807,332.745c-2.474,0-4.596,0-6.952,0
			c1.935-2.86,1.141-5.917,1.255-8.854c0.093-2.394,0.013-4.793,0.021-7.189c0.007-2.076,0.168-4.177-1.41-6.205
			c1.937-0.163,3.576-0.334,5.219-0.386c0.158-0.005,0.481,0.729,0.486,1.123c0.04,3.155,0.021,6.311,0.021,9.467
			c0,1.877-0.008,3.754,0.004,5.631C260.465,328.474,260.165,330.671,261.807,332.745z"/>
		<path fill-rule="evenodd" clip-rule="evenodd" fill="#FFFFFF" d="M62.718,310.488c1.983-0.164,3.562-0.336,5.143-0.378
			c0.209-0.005,0.615,0.647,0.624,1.004c0.056,2.235,0.025,4.474,0.025,6.712c-0.001,2.757-0.027,5.514,0.008,8.271
			c0.028,2.21-0.406,4.507,1.385,6.62c-2.469,0-4.612,0-6.992,0c1.859-2.602,1.186-5.422,1.266-8.131
			c0.077-2.595,0.022-5.193,0.015-7.791C64.187,314.687,64.449,312.526,62.718,310.488z"/>
		<path fill-rule="evenodd" clip-rule="evenodd" fill="#FFFFFF" d="M68.909,304.435c-0.003,1.663-1.122,2.774-2.789,2.771
			c-1.611-0.004-2.791-1.169-2.823-2.785c-0.029-1.511,1.28-2.82,2.823-2.822C67.677,301.595,68.912,302.852,68.909,304.435z"/>
		<path fill-rule="evenodd" clip-rule="evenodd" fill="#FFFFFF" d="M258.122,307.211c-1.636,0.026-2.812-1.091-2.865-2.722
			c-0.05-1.563,1.159-2.841,2.734-2.889c1.541-0.047,2.833,1.2,2.868,2.77C260.896,306.004,259.758,307.185,258.122,307.211z"/>
	</g>
</g>
</svg>
