<?xml version="1.0" encoding="UTF-8" standalone="no"?>
<!-- Created with Inkscape (http://www.inkscape.org/) -->
<svg
   xmlns:dc="http://purl.org/dc/elements/1.1/"
   xmlns:cc="http://creativecommons.org/ns#"
   xmlns:rdf="http://www.w3.org/1999/02/22-rdf-syntax-ns#"
   xmlns:svg="http://www.w3.org/2000/svg"
   xmlns="http://www.w3.org/2000/svg"
   xmlns:sodipodi="http://inkscape.sourceforge.net/DTD/sodipodi-0.dtd"
   xmlns:inkscape="http://www.inkscape.org/namespaces/inkscape"
   width="650.00000px"
   height="500.00000px"
   id="svg2"
   sodipodi:version="0.32"
   inkscape:version="0.40+cvs"
   version="1.0"
   sodipodi:docname="Flag of Fresno, California.svg"
   sodipodi:docbase="C:\Documents and Settings\Charles\My Documents\~Projects\City Flags\Fresno Flag">
  <defs
     id="defs4">
    <inkscape:perspective
       sodipodi:type="inkscape:persp3d"
       inkscape:vp_x="0 : 526.18109 : 1"
       inkscape:vp_y="0 : 1000 : 0"
       inkscape:vp_z="744.09448 : 526.18109 : 1"
       inkscape:persp3d-origin="372.04724 : 350.78739 : 1"
       id="perspective10" />
  </defs>
  <sodipodi:namedview
     inkscape:grid-points="true"
     inkscape:guide-points="true"
     id="base"
     pagecolor="#ffffff"
     bordercolor="#666666"
     borderopacity="1.0"
     gridtolerance="10000"
     guidetolerance="10"
     objecttolerance="10"
     inkscape:pageopacity="0.0"
     inkscape:pageshadow="2"
     inkscape:zoom="0.70710678"
     inkscape:cx="403.85063"
     inkscape:cy="175.31993"
     inkscape:document-units="px"
     inkscape:current-layer="layer1"
     showgrid="false"
     width="800px"
     inkscape:window-width="1024"
     inkscape:window-height="721"
     inkscape:window-x="-4"
     inkscape:window-y="-4"
     showguides="false"
     inkscape:guide-bbox="true">
    <inkscape:grid
       type="xygrid"
       id="grid2383"
       visible="true"
       enabled="true" />
    <sodipodi:guide
       orientation="1,0"
       position="0,533.08594"
       id="guide2469" />
    <sodipodi:guide
       orientation="0,1"
       position="650.00000"
       id="guide2473" />
    <sodipodi:guide
       orientation="1,0"
       position="325.00000"
       id="guide2547" />
    <sodipodi:guide
       orientation="horizontal"
       position="499.99732"
       id="guide2914" />
    <sodipodi:guide
       orientation="horizontal"
       position="0.00000000"
       id="guide2916" />
    <sodipodi:guide
       orientation="horizontal"
       position="250.00000"
       id="guide2918" />
    <sodipodi:guide
       id="guide2363"
       position="433.33203"
       orientation="vertical" />
    <sodipodi:guide
       id="guide2365"
       position="216.67188"
       orientation="vertical" />
    <sodipodi:guide
       id="guide2400"
       position="108.32813"
       orientation="vertical" />
    <sodipodi:guide
       id="guide2402"
       position="541.67188"
       orientation="vertical" />
  </sodipodi:namedview>
  <metadata
     id="metadata7">
    <rdf:RDF
       id="RDF2895">
      <cc:Work
         rdf:about=""
         id="Work2897">
        <dc:format
           id="format2899">image/svg+xml</dc:format>
        <dc:type
           rdf:resource="http://purl.org/dc/dcmitype/StillImage"
           id="type2901" />
      </cc:Work>
    </rdf:RDF>
  </metadata>
  <g
     inkscape:label="Layer 1"
     inkscape:groupmode="layer"
     id="layer1">
    <rect
       y="0.0026799999"
       x="0.00000000"
       height="499.99731"
       width="650.00000"
       id="rect3277"
       style="stroke-opacity:1.0000000;stroke-miterlimit:4.0000000;stroke-linejoin:round;stroke-linecap:round;stroke-width:0.25000000;stroke:none;fill-opacity:1.0000000;fill:#8ab9fd" />
    <rect
       y="0.0026799999"
       x="433.33203"
       height="499.99731"
       width="216.66797"
       id="rect3275"
       style="stroke-opacity:1.0000000;stroke-miterlimit:4.0000000;stroke-linejoin:round;stroke-linecap:round;stroke-width:0.25000000;stroke:none;fill-opacity:1.0000000;fill:#809101" />
    <path
       d="M 627.99999 250.00000 A 86.328117 86.328117 0 1 1  455.34376,250.00000 A 86.328117 86.328117 0 1 1  627.99999 250.00000 z"
       sodipodi:ry="86.328117"
       sodipodi:rx="86.328117"
       sodipodi:cy="250.00000"
       sodipodi:cx="541.67188"
       id="path3271"
       style="opacity:1.0000000;fill:#ffffff;fill-opacity:1.0000000;stroke:none;stroke-width:0.25000000;stroke-linecap:round;stroke-linejoin:round;stroke-miterlimit:4.0000000;stroke-opacity:1.0000000"
       sodipodi:type="arc" />
    <path
       sodipodi:nodetypes="ccccccccccccccccccccccssssccsccccccccccccccccccccccc"
       d="M 328.16963,409.49033 L 321.83038,409.49033 L 321.83038,319.68777 C 321.83038,311.96317 317.23087,307.63766 312.24015,305.05974 C 307.24941,302.48183 298.99315,302.06625 295.03445,302.62101 C 280.65597,304.63595 271.11963,301.40579 257.94091,292.92127 C 246.99959,285.87718 233.98237,267.24402 229.81567,257.10882 L 231.55180,255.16428 C 238.49631,258.40518 248.56927,257.29522 257.24647,257.10882 C 276.00007,256.70596 288.02048,267.41459 295.78848,283.27177 C 300.05761,291.98655 306.34810,297.91886 313.58376,300.68168 C 318.84822,302.69182 321.83038,300.27142 321.83038,297.14614 L 321.83038,248.32544 C 321.83038,245.34343 321.82622,241.34533 315.64862,236.15450 C 309.47101,230.96366 299.75633,225.18457 289.19119,225.28902 C 275.91353,225.42028 259.23487,215.93318 252.21171,209.90945 C 245.49851,204.15157 231.89902,188.28377 229.46845,175.43799 L 230.77055,174.28894 C 239.91414,179.29762 252.17811,176.11278 263.49653,178.26641 C 280.24588,181.45341 293.52504,191.52203 300.99685,209.73266 C 304.40477,218.03854 308.40121,226.38643 315.92754,228.91034 C 318.06565,229.62734 321.83038,228.53839 321.83038,223.78381 L 321.83038,195.23698 C 321.83038,189.97125 321.36215,183.38037 318.85355,178.84835 C 314.16869,170.38471 307.96583,155.82911 307.28769,148.53984 C 305.94449,134.10192 306.82247,127.57014 311.50000,116.50000 C 316.82247,103.90348 322.00000,92.916667 324.00000,79.750000 L 327.15901,78.926777 C 340.32568,101.09344 348.11858,124.04577 345.25000,149.75000 C 343.87875,162.03720 335.95166,171.95082 330.83482,182.11849 C 328.89699,185.96915 328.16963,190.49773 328.16963,195.23698 L 328.16963,223.78381 C 328.16963,228.53839 331.93435,229.62734 334.07247,228.91034 C 341.59879,226.38643 345.59524,218.03854 349.00315,209.73266 C 356.47497,191.52203 369.75411,181.45341 386.50347,178.26641 C 397.82190,176.11278 410.08586,179.29762 419.22945,174.28894 L 420.53156,175.43799 C 418.10098,188.28377 404.50149,204.15157 397.78830,209.90945 C 390.76513,215.93318 374.08647,225.42028 360.80881,225.28902 C 350.24368,225.18457 340.52899,230.96366 334.35139,236.15450 C 328.17379,241.34533 328.16963,245.34343 328.16963,248.32544 L 328.16963,297.14614 C 328.16963,300.27142 331.15179,302.69182 336.41624,300.68168 C 343.65191,297.91886 349.94240,291.98655 354.21152,283.27177 C 361.97953,267.41459 373.99993,256.70596 392.75353,257.10882 C 401.43074,257.29522 411.50369,258.40518 418.44821,255.16428 L 420.18433,257.10882 C 416.01764,267.24402 403.00042,285.87718 392.05908,292.92127 C 378.88038,301.40579 369.34403,304.63595 354.96555,302.62101 C 351.00685,302.06625 342.75060,302.48183 337.75985,305.05974 C 332.76912,307.63766 328.16963,311.96317 328.16963,319.68777 L 328.16963,409.49033"
       style="fill:#809101;fill-opacity:1.0000000;fill-rule:evenodd;stroke:none;stroke-width:0.99101025px;stroke-linecap:butt;stroke-linejoin:miter;stroke-opacity:1.0000000"
       id="path2309" />
    <path
       d="M 232.12554,409.46406 L 232.12554,372.77308 L 253.57226,372.77308 L 253.57226,381.66939 L 244.19859,381.66939 L 244.19859,386.97199 L 252.41538,386.97199 L 252.41538,395.61699 L 244.19859,395.61699 L 244.19859,409.46406 L 232.12554,409.46406 M 271.47122,380.38771 L 271.47122,389.13324 C 273.11258,389.09975 274.30900,388.73954 275.06050,388.05261 C 275.81195,387.34898 276.18769,386.25159 276.18771,384.76048 C 276.18769,383.30292 275.83173,382.21392 275.11983,381.49347 C 274.40788,380.75633 273.34989,380.38774 271.94583,380.38771 L 271.47122,380.38771 M 259.36850,409.46406 L 259.36850,372.77308 L 273.28068,372.77308 C 277.98728,372.77312 281.69521,373.78673 284.40450,375.81391 C 287.11374,377.84116 288.46837,380.59717 288.46841,384.08195 C 288.46837,386.22646 287.85532,388.06101 286.62927,389.58559 C 285.42292,391.09346 283.60356,392.29974 281.17118,393.20443 L 289.74394,409.46406 L 276.92929,409.46406 L 271.47122,395.26515 L 271.47122,409.46406 L 259.36850,409.46406 M 294.85792,409.46406 L 294.85792,372.77308 L 316.36396,372.77308 L 316.36396,381.66939 L 307.01996,381.66939 L 307.01996,386.34372 L 315.44439,386.34372 L 315.44439,394.93845 L 307.01996,394.93845 L 307.01996,399.98975 L 316.36396,399.98975 L 316.36396,409.46406 L 294.85792,409.46406M 333.44970,397.27356 C 335.11029,398.42957 336.63728,399.30915 338.03066,399.91228 C 339.44311,400.51542 340.67424,400.81699 341.72406,400.81698 C 342.65932,400.81699 343.42281,400.57406 344.01453,400.08819 C 344.62531,399.60234 344.93071,398.99083 344.93072,398.25365 C 344.93071,397.38247 343.91908,396.10918 341.89584,394.43379 C 341.83856,394.38354 341.80039,394.35003 341.78131,394.33326 C 338.28832,391.50189 336.04557,389.30715 335.05303,387.74903 C 334.06050,386.19095 333.56422,384.50719 333.56422,382.69775 C 333.56422,379.59834 334.75718,377.05177 337.14310,375.05803 C 339.54809,373.04761 342.63069,372.04238 346.39089,372.04235 C 347.86061,372.04238 349.37805,372.21830 350.94323,372.57009 C 352.52745,372.92196 354.15942,373.44970 355.83912,374.15332 L 355.83912,383.67785 C 354.44572,382.70616 353.13824,381.97737 351.91668,381.49148 C 350.69507,380.98890 349.57846,380.73760 348.56685,380.73757 C 347.68882,380.73760 346.98259,380.94702 346.44816,381.36583 C 345.91370,381.76795 345.64648,382.29569 345.64650,382.94906 C 345.64648,383.88730 346.64857,385.04332 348.65274,386.41710 C 348.80543,386.53440 348.91995,386.61817 348.99632,386.66840 C 352.47019,389.11448 354.72249,391.13331 355.75323,392.72490 C 356.78392,394.29977 357.29928,396.15944 357.29930,398.30391 C 357.29928,401.88923 356.01088,404.77088 353.43412,406.94886 C 350.85731,409.11011 347.44069,410.19072 343.18423,410.19072 C 341.54271,410.19072 339.92984,409.96455 338.34560,409.51220 C 336.76134,409.05984 335.12938,408.35619 333.44970,407.40122 L 333.44970,397.27356 M 361.45652,409.46193 L 361.45652,372.77114 L 373.08069,372.77114 L 379.52267,392.07150 L 379.52267,372.77114 L 390.11612,372.77114 L 390.11612,409.46193 L 378.63510,409.46193 L 372.13587,391.09140 L 372.13587,409.46193 L 361.45652,409.46193 M 406.18382,390.89036 C 406.18381,394.71024 406.47012,397.32383 407.04275,398.73113 C 407.61536,400.12171 408.61744,400.81699 410.04900,400.81698 C 411.46145,400.81699 412.44444,400.13008 412.99799,398.75626 C 413.57059,397.36572 413.85691,394.74375 413.85693,390.89036 C 413.85691,387.03701 413.57059,384.41505 412.99799,383.02445 C 412.44444,381.63392 411.46145,380.93864 410.04900,380.93861 C 408.61744,380.93864 407.61536,381.64229 407.04275,383.04959 C 406.47012,384.45693 406.18381,387.07052 406.18382,390.89036 M 394.38786,391.14167 C 394.38786,385.07682 395.75260,380.37738 398.48210,377.04336 C 401.23065,373.70938 405.08629,372.04238 410.04900,372.04235 C 414.99260,372.04238 418.81960,373.70938 421.53003,377.04336 C 424.25948,380.36063 425.62422,385.06007 425.62426,391.14167 C 425.62422,397.20655 424.26902,401.89761 421.55866,405.21485 C 418.84824,408.53210 415.01169,410.19072 410.04900,410.19072 C 405.06720,410.19072 401.21157,408.53210 398.48210,405.21485 C 395.75260,401.88085 394.38786,397.18980 394.38786,391.14167"
       style="font-size:55.917053;font-style:normal;font-variant:normal;font-weight:normal;font-stretch:condensed;fill:#552501;fill-opacity:1.0000000;stroke:none;stroke-width:1.0000000px;stroke-linecap:butt;stroke-linejoin:miter;stroke-opacity:1.0000000;font-family:Futura XBlkCn BT;text-anchor:start;writing-mode:lr-tb"
       id="text2380" />
    <path
       sodipodi:nodetypes="ccccccccccccccccccccccccccccccccccccccccccccccccc"
       d="M 595.55118,250.01116 C 600.91785,246.25454 606.45684,244.48677 613.05652,244.13322 C 608.07730,240.27360 600.18129,236.32558 593.71818,236.06579 C 597.92970,231.04818 602.82243,227.90705 609.10571,225.85742 C 603.29722,223.41803 594.64842,221.64818 588.33830,223.07002 C 591.10767,217.13335 595.02069,212.83292 600.55940,209.22690 C 594.31746,208.37398 585.50530,208.90290 579.77819,211.90947 C 580.91667,205.45833 583.58333,200.29167 588.00000,195.37500 C 581.75000,196.16667 573.37500,198.95833 568.62119,203.34474 C 568.05120,196.81875 569.28976,191.13796 572.28342,185.24570 C 566.45128,187.62802 559.08419,192.49215 555.62765,197.95948 C 553.38803,191.80339 553.11410,185.99560 554.48071,179.52930 C 549.46389,183.33991 543.60675,189.94506 541.70508,196.16267 C 537.92642,190.75403 536.15865,185.21504 535.80510,178.61536 C 531.94548,183.59458 527.99746,191.49059 527.73767,197.95370 C 522.72006,193.74218 519.57893,188.84945 517.52930,182.56617 C 515.08991,188.37466 513.32006,197.02346 514.74190,203.33358 C 508.80523,200.56421 504.50480,196.65119 500.89878,191.11248 C 500.04586,197.35442 500.57478,206.16658 503.58135,211.89369 C 497.13021,210.75521 491.96355,208.08855 487.04688,203.67188 C 487.83855,209.92188 490.63021,218.29688 495.01662,223.05069 C 488.49063,223.62068 482.80984,222.38212 476.91758,219.38846 C 479.29990,225.22060 484.16403,232.58769 489.63136,236.04423 C 483.47527,238.28385 477.66748,238.55778 471.20118,237.19117 C 475.01179,242.20799 481.61694,248.06513 487.83455,249.96680 C 482.42591,253.74546 476.88692,255.51323 470.28724,255.86678 C 475.26646,259.72640 483.16247,263.67442 489.62558,263.93421 C 485.41406,268.95182 480.52133,272.09295 474.23805,274.14258 C 480.04654,276.58197 488.69534,278.35182 495.00546,276.92998 C 492.23609,282.86665 488.32307,287.16708 482.78436,290.77310 C 489.02630,291.62602 497.83846,291.09710 503.56557,288.09053 C 502.42709,294.54167 499.76043,299.70833 495.34376,304.62500 C 501.59376,303.83333 509.96876,301.04167 514.72257,296.65526 C 515.29256,303.18125 514.05400,308.86204 511.06034,314.75430 C 516.89248,312.37198 524.25957,307.50785 527.71611,302.04052 C 529.95573,308.19661 530.22966,314.00440 528.86305,320.47070 C 533.87987,316.66009 539.73701,310.05494 541.63868,303.83733 C 545.41734,309.24597 547.18511,314.78496 547.53866,321.38464 C 551.39828,316.40542 555.34630,308.50941 555.60609,302.04630 C 560.62370,306.25782 563.76483,311.15055 565.81446,317.43383 C 568.25385,311.62534 570.02370,302.97654 568.60186,296.66642 C 574.53853,299.43579 578.83896,303.34881 582.44498,308.88752 C 583.29790,302.64558 582.76898,293.83342 579.76241,288.10631 C 586.21355,289.24479 591.38021,291.91145 596.29688,296.32812 C 595.50521,290.07812 592.71355,281.70312 588.32714,276.94931 C 594.85313,276.37932 600.53392,277.61788 606.42618,280.61154 C 604.04386,274.77940 599.17973,267.41231 593.71240,263.95577 C 599.86849,261.71615 605.67628,261.44222 612.14258,262.80883 C 608.33197,257.79201 601.72682,251.93487 595.55118,250.01116 z "
       style="stroke-opacity:1.0000000;stroke-linejoin:miter;stroke-linecap:butt;stroke-width:1.0000000px;stroke:none;fill-rule:evenodd;fill-opacity:1.0000000;fill:#faca01;opacity:1.0000000"
       id="path3231" />
    <rect
       y="0.0026799999"
       x="0.00000000"
       height="499.99731"
       width="216.67188"
       id="rect3273"
       style="opacity:1.0000000;fill:#552501;fill-opacity:1.0000000;stroke:none;stroke-width:0.25000000;stroke-linecap:round;stroke-linejoin:round;stroke-miterlimit:4.0000000;stroke-opacity:1.0000000" />
    <path
       id="rect2414"
       d="M 102.96875 168.78125 L 102.96875 176.34375 C 100.07399 176.55223 97.199458 176.87358 94.406250 177.40625 L 92.500000 170.15625 L 82.156250 172.93750 L 84.125000 180.21875 C 81.384079 181.17079 78.708864 182.27631 76.125000 183.53125 L 72.375000 177.00000 L 63.062500 182.34375 L 66.812500 188.81250 C 64.431007 190.43204 62.202951 192.24585 60.031250 194.12500 L 54.687500 188.78125 L 47.125000 196.34375 L 52.468750 201.68750 C 50.585596 203.86193 48.778999 206.11504 47.156250 208.50000 L 40.687500 204.75000 L 35.312500 214.03125 L 41.875000 217.78125 C 40.624031 220.35503 39.481669 223.02025 38.531250 225.75000 L 31.281250 223.81250 L 28.500000 234.15625 L 35.750000 236.06250 C 35.212874 238.87373 34.864906 241.74214 34.656250 244.65625 L 27.125000 244.65625 L 27.125000 255.37500 L 34.656250 255.37500 C 34.865342 258.27883 35.214710 261.13588 35.750000 263.93750 L 28.500000 265.84375 L 31.281250 276.18750 L 38.531250 274.25000 C 39.481668 276.97975 40.624032 279.64497 41.875000 282.21875 L 35.312500 285.96875 L 40.687500 295.25000 L 47.156250 291.50000 C 48.775203 293.87937 50.559334 296.14265 52.437500 298.31250 L 47.125000 303.65625 L 54.687500 311.21875 L 60.031250 305.87500 C 62.202950 307.75416 64.431011 309.56796 66.812500 311.18750 L 63.062500 317.65625 L 72.375000 323.00000 L 76.125000 316.46875 C 78.708866 317.72370 81.384079 318.82922 84.125000 319.78125 L 82.156250 327.06250 L 92.500000 329.84375 L 94.406250 322.59375 C 97.199458 323.12642 100.07399 323.44777 102.96875 323.65625 L 102.96875 331.21875 L 113.68750 331.21875 L 113.68750 323.68750 C 116.58575 323.47915 119.45352 323.12705 122.25000 322.59375 L 124.15625 329.84375 L 134.50000 327.06250 L 132.53125 319.78125 C 135.27218 318.82921 137.94739 317.72369 140.53125 316.46875 L 144.28125 323.00000 L 153.59375 317.65625 L 149.84375 311.18750 C 152.22524 309.56796 154.45330 307.75415 156.62500 305.87500 L 161.96875 311.21875 L 169.53125 303.65625 L 164.18750 298.31250 C 166.07065 296.13809 167.87725 293.88496 169.50000 291.50000 L 175.96875 295.25000 L 181.34375 285.96875 L 174.78125 282.21875 C 176.03223 279.64496 177.17458 276.97975 178.12500 274.25000 L 185.37500 276.18750 L 188.15625 265.84375 L 180.90625 263.93750 C 181.44152 261.13587 181.79091 258.27883 182.00000 255.37500 L 189.53125 255.37500 L 189.53125 244.65625 L 182.00000 244.65625 C 181.79135 241.74214 181.44337 238.87372 180.90625 236.06250 L 188.15625 234.15625 L 185.37500 223.81250 L 178.12500 225.75000 C 177.17458 223.02025 176.03222 220.35503 174.78125 217.78125 L 181.34375 214.03125 L 175.96875 204.75000 L 169.50000 208.50000 C 167.88105 206.12061 166.09691 203.85735 164.21875 201.68750 L 169.53125 196.34375 L 161.96875 188.78125 L 156.62500 194.12500 C 154.45330 192.24586 152.22524 190.43204 149.84375 188.81250 L 153.59375 182.34375 L 144.28125 177.00000 L 140.53125 183.53125 C 137.94739 182.27630 135.27217 181.17078 132.53125 180.21875 L 134.50000 172.93750 L 124.15625 170.15625 L 122.25000 177.40625 C 119.45352 176.87295 116.58575 176.52084 113.68750 176.31250 L 113.68750 168.78125 L 102.96875 168.78125 z M 108.31250 203.06250 C 134.21337 203.06250 155.25000 224.09913 155.25000 250.00000 C 155.24999 275.90088 134.21337 296.90625 108.31250 296.90625 C 82.411631 296.90626 61.406250 275.90087 61.406250 250.00000 C 61.406252 224.09913 82.411629 203.06250 108.31250 203.06250 z "
       style="opacity:1.0000000;fill:#fbffff;fill-opacity:1.0000000;stroke:none;stroke-width:0.25000000;stroke-linecap:round;stroke-linejoin:round;stroke-miterlimit:4.0000000;stroke-opacity:1.0000000" />
  </g>
</svg>
