<?xml version="1.0" encoding="UTF-8" standalone="no"?>
<!-- Created with Inkscape (http://www.inkscape.org/) -->

<svg
   xmlns:dc="http://purl.org/dc/elements/1.1/"
   xmlns:cc="http://creativecommons.org/ns#"
   xmlns:rdf="http://www.w3.org/1999/02/22-rdf-syntax-ns#"
   xmlns:svg="http://www.w3.org/2000/svg"
   xmlns="http://www.w3.org/2000/svg"
   xmlns:sodipodi="http://sodipodi.sourceforge.net/DTD/sodipodi-0.dtd"
   xmlns:inkscape="http://www.inkscape.org/namespaces/inkscape"
   id="svg2985"
   version="1.1"
   inkscape:version="0.48.2 r9819"
   width="1067"
   height="650"
   sodipodi:docname="huntington beach flag.svg">
  <metadata
     id="metadata2991">
    <rdf:RDF>
      <cc:Work
         rdf:about="">
        <dc:format>image/svg+xml</dc:format>
        <dc:type
           rdf:resource="http://purl.org/dc/dcmitype/StillImage" />
        <dc:title></dc:title>
      </cc:Work>
    </rdf:RDF>
  </metadata>
  <defs
     id="defs2989" />
  <sodipodi:namedview
     pagecolor="#ffffff"
     bordercolor="#666666"
     borderopacity="1"
     objecttolerance="10"
     gridtolerance="10"
     guidetolerance="10"
     inkscape:pageopacity="0"
     inkscape:pageshadow="2"
     inkscape:window-width="1600"
     inkscape:window-height="838"
     id="namedview2987"
     showgrid="false"
     showguides="true"
     inkscape:guide-bbox="true"
     inkscape:zoom="0.64074752"
     inkscape:cx="391.54828"
     inkscape:cy="340.42203"
     inkscape:window-x="-8"
     inkscape:window-y="-8"
     inkscape:window-maximized="1"
     inkscape:current-layer="g3061" />
  <g
     id="g3061"
     transform="translate(-335.65932,1070.5085)">
    <g
       id="g3091"
       transform="matrix(1.7745504,0,0,1.7745504,552.11551,-1003.4322)">
      <g
         id="g3790" />
    </g>
    <g
       id="g3873">
      <rect
         transform="translate(335.65932,-1070.5085)"
         y="-1.103565"
         x="0"
         height="655.51782"
         width="1072.6655"
         id="rect2995"
         style="fill:#000085;fill-opacity:1;stroke:none" />
      <path
         style="fill:#ffffff;fill-opacity:1;stroke:none"
         d="m 9.4502011,7.5359669 304.7630289,0 c -1.47089,42.0592801 8.46843,96.6309031 -14.84924,122.3703431 -1.28118,1.41424 -4.92135,3.40568 -3.41212,4.37756 38.12796,24.55252 16.9714,80.14743 18.26136,117.99278 l -304.7630289,0 z"
         id="rect3787"
         inkscape:connector-curvature="0"
         sodipodi:nodetypes="ccssccc"
         transform="matrix(1.7745504,0,0,1.7745504,552.11551,-1003.4322)" />
      <path
         style="fill:#0000b3;fill-opacity:1;stroke:none"
         d="m 308.4754,199.41086 c -15.35956,12.601 -35.07963,22.83802 -61.70757,30.13625 -2.60368,0.55224 -4.73514,3.13551 0.62395,2.49576 21.31094,-3.46655 43.4941,-8.9361 62.83064,-22.64899 z"
         id="path5597"
         inkscape:connector-curvature="0"
         sodipodi:nodetypes="ccccc"
         transform="matrix(1.7745504,0,0,1.7745504,552.11551,-1003.4322)" />
      <g
         id="g2996"
         transform="matrix(1.7745504,0,0,1.7745504,552.11551,-1003.4322)">
        <path
           id="path2995"
           d="M 7.875,7.5 7.5,252.4375 l 52.78125,0.125 C 46.155668,219.88297 34.780103,179.50113 35.375,139.09375 L 163.71875,139.25 C 162.09214,180.75982 154.57996,220.10491 139,252.3125 l 183.4375,-0.25 c 21.17723,-29.24006 44.30949,-104.07244 -16.46875,-121.40625 61.05425,-20.03337 36.47083,-96.768881 15.375,-123.125 l -181.96875,0 c 19.14997,38.091468 20.1057,76.177222 23.8652,114.26869 -4.69792,1.63419 -9.85478,1.97129 -13.7402,-1.29994 -3.27966,-2.99908 -5.83125,-6.56465 -7.66605,-10.33211 -1.74584,3.98836 -4.08271,8.94476 -7.67862,11.21599 -3.50884,1.89616 -7.68415,2.0425 -11.53033,-0.88388 -4.04397,-2.82898 -7.28167,-6.78327 -9.09375,-10.08211 -2.35116,3.79277 -5.00368,8.39903 -8.3125,10.67586 -2.4329,1.79904 -8.056968,2.78881 -11.625,-0.40625 -3.083908,-2.86414 -6.328194,-6.8565 -7.729473,-10.39369 -2.180704,3.69928 -5.425743,7.83505 -8.895527,10.36244 -2.181794,1.75257 -5.790173,3.41916 -10.46875,-0.0312 -3.378562,-2.61509 -6.710574,-7.48355 -8.34375,-11.0481 -2.018719,3.61835 -4.763244,8.71867 -8.15625,11.20435 -6.469858,3.96276 -10.652953,3.77848 -14.53125,-0.125 C 38.494902,83.082082 41.323635,45.136671 60,7.5625 z m 242.0625,12.625 c 8.05231,-0.07761 16.51245,0.911758 23.84375,3.34375 14.68851,4.255725 22.85064,13.937402 26.96875,21.21875 17.56346,34.062613 20.17685,61.86034 -11,76.84375 l -97.5,-0.25 0.1875,-45.15625 c 1.88396,-18.958786 9.60552,-39.389118 31.6875,-51.15625 5.78593,-2.873958 15.45953,-4.743963 25.8125,-4.84375 z m 38.875,120.09375 c 31.17685,14.98341 28.53221,42.81239 10.96875,76.875 -4.11811,7.28135 -12.24899,16.96303 -26.9375,21.21875 -16.75726,5.55884 -39.4014,3.60926 -49.6875,-1.5 -22.08198,-11.76713 -29.80354,-32.19746 -31.6875,-51.15625 l -0.15625,-45.1875 z"
           style="fill:#ffc000;fill-opacity:1;stroke:none"
           inkscape:connector-curvature="0"
           sodipodi:nodetypes="ccccccccccccccccccccccccccsccccccsccccccc" />
        <path
           transform="matrix(1.0181309,0,0,1.0181309,-4.4731618,-6.2840038)"
           d="m 95.297345,43.756229 c 0,7.602295 -6.162877,13.765172 -13.765172,13.765172 -7.602294,0 -13.765172,-6.162877 -13.765172,-13.765172 0,-7.602294 6.162878,-13.765172 13.765172,-13.765172 7.602295,0 13.765172,6.162878 13.765172,13.765172 z"
           sodipodi:ry="13.765172"
           sodipodi:rx="13.765172"
           sodipodi:cy="43.756229"
           sodipodi:cx="81.532173"
           id="path3789"
           style="fill:#ff6600;fill-opacity:1;stroke:none"
           sodipodi:type="arc" />
        <path
           sodipodi:nodetypes="cccc"
           inkscape:connector-curvature="0"
           id="path3791"
           d="m 72.127335,104.26462 40.930395,0.058 -0.24958,-50.913412 c -5.71794,17.346789 -12.57727,42.831767 -40.680815,50.855452 z"
           style="fill:#0000b3;fill-opacity:1;stroke:none" />
        <path
           style="fill:#0000b3;fill-opacity:1;stroke:none"
           d="m 118.33128,103.89266 24.07169,0.0341 -0.14678,-29.94283 c -3.36279,10.201869 -7.39686,25.189911 -23.92491,29.90874 z"
           id="path3793"
           inkscape:connector-curvature="0"
           sodipodi:nodetypes="cccc" />
        <path
           sodipodi:nodetypes="cccccccccsscccccccccc"
           inkscape:connector-curvature="0"
           id="path3797"
           d="m 204.97753,93.302026 0.0769,-2.175465 10.59992,-10.839681 0,-13.235743 4.3678,0 0.0441,5.294297 7.76496,-7.235539 24.00082,26.250889 0,1.632408 c -1.3563,-0.272003 -3.50025,-0.419698 -3.31884,0.548857 0.0776,0.414224 0.15721,13.594161 0.21115,13.953711 0.2597,1.73101 3.7353,2.09373 5.49027,3.0576 l 1.50021,0.7943 -0.17678,2.82272 -24.61848,0.13236 -0.0441,-12.00041 -5.60313,0 1e-5,11.86805 -15.26523,0 0.13236,-20.868354 z"
           style="fill:#ff6600;fill-opacity:1;stroke:none" />
        <path
           sodipodi:nodetypes="cccccccccccccccccccccccccccccccccccccccc"
           inkscape:connector-curvature="0"
           id="path3799"
           d="m 248.65548,82.051645 c -6.10131,0.42143 -6.12205,-3.25432 -6.70611,-6.970824 -2.58569,-0.989019 -5.65882,-7.315375 0.0882,-9.970926 -1.80469,-9.511368 5.73418,-8.73788 7.05906,-7.323778 l 1.94124,0.352953 c 1.79089,-8.590017 8.61122,-7.492811 11.55922,-4.235437 l 3.17658,0.176476 c 1.21539,-3.093832 6.25803,-3.922598 7.41201,0.617668 l 5.47078,0.264715 c 3.69814,-2.552922 7.99814,1.583186 8.2944,4.941344 5.39202,-0.253824 7.68148,2.176869 7.67673,5.911965 l 0.44119,5.735488 c 1.17506,1.617702 0.69161,3.235404 0.26471,4.853106 0.3828,2.931057 -1.16278,3.758422 -3.35305,3.882484 0.60834,6.300679 -7.50806,8.2241 -10.05917,1.676528 l -1.05886,0.264715 c -3.43446,4.089607 -9.03652,3.675278 -10.94154,-0.352954 l -1.85301,0.52943 c -0.9491,0.791777 -2.35352,1.446959 -1.05886,2.911864 l 1.94125,3.264816 0.7059,1.323574 2.64715,-0.08824 2.20596,-0.882383 2.82362,-1.676527 2.11772,-1.411813 0.61767,-0.352953 2.11772,1.411813 -2.64715,4.235437 -6.4414,2.735387 0,10.765077 c 3.21868,5.89252 9.16192,6.25697 13.5887,6.44139 l 0,3.17658 -29.64806,-0.0882 0.0882,-2.64715 c 3.63805,-1.53859 6.50911,-3.84419 8.73559,-6.79435 l 0.26471,-9.529733 -2.11772,-2.117719 -6.0002,-4.58839 -1.32358,-2.029481 z"
           style="fill:#005f00;fill-opacity:1;stroke:none" />
      </g>
      <path
         sodipodi:type="arc"
         style="fill:#ff6600;fill-opacity:1;stroke:none"
         id="path3004"
         sodipodi:cx="247.24367"
         sodipodi:cy="160.58371"
         sodipodi:rx="4.7648673"
         sodipodi:ry="4.9413438"
         d="m 252.00853,160.58371 c 0,2.72903 -2.1333,4.94134 -4.76486,4.94134 -2.63157,0 -4.76487,-2.21231 -4.76487,-4.94134 0,-2.72903 2.1333,-4.94134 4.76487,-4.94134 2.63156,0 4.76486,2.21231 4.76486,4.94134 z"
         transform="matrix(2.0374467,0,0,2.059746,485.86338,-1050.6392)" />
      <path
         style="fill:#ff6600;fill-opacity:1;stroke:none"
         d="m 215.30141,161.81905 18.07187,8.62686 c 6.19752,3.1877 11.8371,2.29034 17.05492,-2.02412 3.7011,-4.32039 10.91292,-2.5749 10.93359,-2.72025 l 30.35397,4.58839 c 4.71018,1.32586 3.55577,1.7665 -0.52943,1.76476 l -30.17749,-0.7059 c -5.63491,-0.33968 -4.49089,4.32686 -7.28722,5.58577 -7.42609,5.08257 -12.40412,2.57719 -18.83131,-0.64443 l -20.47128,-12.35336 c -4.32856,-2.99949 -1.04677,-2.87428 0.8102,-2.00455 z"
         id="path3774"
         inkscape:connector-curvature="0"
         sodipodi:nodetypes="cccccccccccc"
         transform="matrix(1.7745504,0,0,1.7745504,552.11551,-1003.4322)" />
      <path
         style="fill:#ff6600;fill-opacity:1;stroke:none"
         d="m 261.69335,173.84973 c 6.95108,-5.57375 10.76785,1.37887 8.66876,5.61697 -3.14834,10.14258 -16.7484,12.411 -14.2946,15.8829 15.82968,3.88248 22.1142,7.88975 31.8817,11.77224 2.20495,1.58427 3.66728,0.32283 5.57415,0.71477 1.8098,0.36723 0.67583,0.73445 0.31013,1.10168 l -11.06725,5.4717 -0.0722,0.0312 c -1.1149,-0.60266 2.82106,-3.86122 2.56334,-4.28897 -0.14425,-0.58865 -0.83447,-0.84353 -1.07538,-0.9399 l -35.35005,-9.62729 c -5.52223,-1.15618 -6.27835,-3.75384 -2.32632,-7.88976 4.75062,-5.99011 8.95924,-11.85543 15.1877,-17.84554 z"
         id="path4827"
         inkscape:connector-curvature="0"
         sodipodi:nodetypes="ccccccccccccc"
         transform="matrix(1.7745504,0,0,1.7745504,552.11551,-1003.4322)" />
      <g
         id="g5633"
         transform="matrix(1.7745504,0,0,1.7745504,-215.82002,-998.41301)">
        <path
           transform="matrix(1.0649571,-0.31922043,0.32884471,1.033789,-99.753762,164.37559)"
           d="m 556.1395,192.44179 c 0,19.1845 -8.5873,34.73662 -19.18027,34.73662 -10.59297,0 -19.18027,-15.55212 -19.18027,-34.73662 0,-19.18451 8.5873,-34.73662 19.18027,-34.73662 10.59297,0 19.18027,15.55211 19.18027,34.73662 z"
           sodipodi:ry="34.736622"
           sodipodi:rx="19.180271"
           sodipodi:cy="192.44179"
           sodipodi:cx="536.95923"
           id="path5599"
           style="fill:none;stroke:#c96800;stroke-width:1.39999998;stroke-miterlimit:4;stroke-opacity:1;stroke-dasharray:none"
           sodipodi:type="arc" />
        <path
           transform="matrix(1.3235295,0,0,1.1842106,-174.16145,-41.271804)"
           d="m 537.22438,224.52676 c 0,1.85499 -1.34547,3.35876 -3.0052,3.35876 -1.65973,0 -3.00521,-1.50377 -3.00521,-3.35876 0,-1.85499 1.34548,-3.35875 3.00521,-3.35875 1.65973,0 3.0052,1.50376 3.0052,3.35875 z"
           sodipodi:ry="3.3587573"
           sodipodi:rx="3.0052037"
           sodipodi:cy="224.52676"
           sodipodi:cx="534.21918"
           id="path5601"
           style="fill:#c96800;fill-opacity:1;stroke:none"
           sodipodi:type="arc" />
        <path
           sodipodi:type="arc"
           style="fill:none;stroke:#1637ff;stroke-width:1.39999998;stroke-miterlimit:4;stroke-opacity:1;stroke-dasharray:none"
           id="path5603"
           sodipodi:cx="536.95923"
           sodipodi:cy="192.44179"
           sodipodi:rx="19.180271"
           sodipodi:ry="34.736622"
           d="m 556.1395,192.44179 c 0,19.1845 -8.5873,34.73662 -19.18027,34.73662 -10.59297,0 -19.18027,-15.55212 -19.18027,-34.73662 0,-19.18451 8.5873,-34.73662 19.18027,-34.73662 10.59297,0 19.18027,15.55211 19.18027,34.73662 z"
           transform="matrix(0.56432302,-0.95790126,0.94378058,0.53491752,50.726967,603.32488)" />
        <path
           transform="matrix(-0.42198315,-1.0285745,0.99661369,-0.42850869,571.40331,827.91443)"
           d="m 556.1395,192.44179 c 0,19.1845 -8.5873,34.73662 -19.18027,34.73662 -10.59297,0 -19.18027,-15.55212 -19.18027,-34.73662 0,-19.18451 8.5873,-34.73662 19.18027,-34.73662 10.59297,0 19.18027,15.55211 19.18027,34.73662 z"
           sodipodi:ry="34.736622"
           sodipodi:rx="19.180271"
           sodipodi:cy="192.44179"
           sodipodi:cx="536.95923"
           id="path5605"
           style="fill:none;stroke:#009579;stroke-width:1.39999998;stroke-miterlimit:4;stroke-opacity:1;stroke-dasharray:none"
           sodipodi:type="arc" />
        <path
           sodipodi:type="arc"
           style="fill:#0000fe;fill-opacity:1;stroke:none"
           id="path5607"
           sodipodi:cx="534.21918"
           sodipodi:cy="224.52676"
           sodipodi:rx="3.0052037"
           sodipodi:ry="3.3587573"
           d="m 537.22438,224.52676 c 0,1.85499 -1.34547,3.35876 -3.0052,3.35876 -1.65973,0 -3.00521,-1.50377 -3.00521,-3.35876 0,-1.85499 1.34548,-3.35875 3.00521,-3.35875 1.65973,0 3.0052,1.50376 3.0052,3.35875 z"
           transform="matrix(1.3235295,0,0,1.1842106,-180.87896,-99.25456)" />
        <path
           transform="matrix(1.3235295,0,0,1.1842106,-135.27057,-89.355065)"
           d="m 537.22438,224.52676 c 0,1.85499 -1.34547,3.35876 -3.0052,3.35876 -1.65973,0 -3.00521,-1.50377 -3.00521,-3.35876 0,-1.85499 1.34548,-3.35875 3.00521,-3.35875 1.65973,0 3.0052,1.50376 3.0052,3.35875 z"
           sodipodi:ry="3.3587573"
           sodipodi:rx="3.0052037"
           sodipodi:cy="224.52676"
           sodipodi:cx="534.21918"
           id="path5609"
           style="fill:#009579;fill-opacity:1;stroke:none"
           sodipodi:type="arc" />
        <path
           transform="matrix(1.3575757,0,0,1.3575757,-194.11956,-69.810499)"
           d="m 541.8206,193.50244 c 0,1.61091 -1.18719,2.91682 -2.65165,2.91682 -1.46447,0 -2.65166,-1.30591 -2.65166,-2.91682 0,-1.61091 1.18719,-2.91681 2.65166,-2.91681 1.46446,0 2.65165,1.3059 2.65165,2.91681 z"
           sodipodi:ry="2.9168155"
           sodipodi:rx="2.6516504"
           sodipodi:cy="193.50244"
           sodipodi:cx="539.16895"
           id="path5611"
           style="fill:#ffcc00;fill-opacity:1;stroke:none"
           sodipodi:type="arc" />
        <path
           sodipodi:type="arc"
           style="fill:#ffcc00;fill-opacity:1;stroke:none"
           id="path5613"
           sodipodi:cx="539.16895"
           sodipodi:cy="193.50244"
           sodipodi:rx="2.6516504"
           sodipodi:ry="2.9168155"
           d="m 541.8206,193.50244 c 0,1.61091 -1.18719,2.91682 -2.65165,2.91682 -1.46447,0 -2.65166,-1.30591 -2.65166,-2.91682 0,-1.61091 1.18719,-2.91681 2.65166,-2.91681 1.46446,0 2.65165,1.3059 2.65165,2.91681 z"
           transform="matrix(1.1151515,0,0,1.1151515,-69.731703,-26.701516)" />
        <path
           transform="matrix(1.1151515,0,0,1.1151515,-56.871199,-18.879147)"
           d="m 541.8206,193.50244 c 0,1.61091 -1.18719,2.91682 -2.65165,2.91682 -1.46447,0 -2.65166,-1.30591 -2.65166,-2.91682 0,-1.61091 1.18719,-2.91681 2.65166,-2.91681 1.46446,0 2.65165,1.3059 2.65165,2.91681 z"
           sodipodi:ry="2.9168155"
           sodipodi:rx="2.6516504"
           sodipodi:cy="193.50244"
           sodipodi:cx="539.16895"
           id="path5615"
           style="fill:#ffcc00;fill-opacity:1;stroke:none"
           sodipodi:type="arc" />
        <path
           sodipodi:type="arc"
           style="fill:#ffcc00;fill-opacity:1;stroke:none"
           id="path5617"
           sodipodi:cx="539.16895"
           sodipodi:cy="193.50244"
           sodipodi:rx="2.6516504"
           sodipodi:ry="2.9168155"
           d="m 541.8206,193.50244 c 0,1.61091 -1.18719,2.91682 -2.65165,2.91682 -1.46447,0 -2.65166,-1.30591 -2.65166,-2.91682 0,-1.61091 1.18719,-2.91681 2.65166,-2.91681 1.46446,0 2.65165,1.3059 2.65165,2.91681 z"
           transform="matrix(1.1151515,0,0,1.1151515,-56.827005,-26.922486)" />
        <path
           transform="matrix(1.1151515,0,0,1.1151515,-63.500325,-30.723186)"
           d="m 541.8206,193.50244 c 0,1.61091 -1.18719,2.91682 -2.65165,2.91682 -1.46447,0 -2.65166,-1.30591 -2.65166,-2.91682 0,-1.61091 1.18719,-2.91681 2.65166,-2.91681 1.46446,0 2.65165,1.3059 2.65165,2.91681 z"
           sodipodi:ry="2.9168155"
           sodipodi:rx="2.6516504"
           sodipodi:cy="193.50244"
           sodipodi:cx="539.16895"
           id="path5619"
           style="fill:#ffcc00;fill-opacity:1;stroke:none"
           sodipodi:type="arc" />
        <path
           transform="matrix(1.1151515,0,0,1.1151515,-69.643316,-18.834952)"
           d="m 541.8206,193.50244 c 0,1.61091 -1.18719,2.91682 -2.65165,2.91682 -1.46447,0 -2.65166,-1.30591 -2.65166,-2.91682 0,-1.61091 1.18719,-2.91681 2.65166,-2.91681 1.46446,0 2.65165,1.3059 2.65165,2.91681 z"
           sodipodi:ry="2.9168155"
           sodipodi:rx="2.6516504"
           sodipodi:cy="193.50244"
           sodipodi:cx="539.16895"
           id="path5621"
           style="fill:#ffcc00;fill-opacity:1;stroke:none"
           sodipodi:type="arc" />
        <path
           sodipodi:type="arc"
           style="fill:#ffcc00;fill-opacity:1;stroke:none"
           id="path5623"
           sodipodi:cx="539.16895"
           sodipodi:cy="193.50244"
           sodipodi:rx="2.6516504"
           sodipodi:ry="2.9168155"
           d="m 541.8206,193.50244 c 0,1.61091 -1.18719,2.91682 -2.65165,2.91682 -1.46447,0 -2.65166,-1.30591 -2.65166,-2.91682 0,-1.61091 1.18719,-2.91681 2.65166,-2.91681 1.46446,0 2.65165,1.3059 2.65165,2.91681 z"
           transform="matrix(1.1151515,0,0,1.1151515,-63.014189,-15.343612)" />
      </g>
      <g
         transform="matrix(1.560233,0,0,1.560233,564.14843,-538.70152)"
         id="g3023">
        <text
           xml:space="preserve"
           x="0.14994407"
           y="13.165354"
           style="font-size:13.79485416px;font-style:normal;font-weight:normal;text-align:start;text-anchor:start;fill:#000000;font-family:Calibri"
           id="text3025"> </text>
        <path
           inkscape:connector-curvature="0"
           style="fill:#ffc000;fill-opacity:1;fill-rule:evenodd;stroke:none"
           d="m 0.01874301,40.524606 c 0,-13.492618 0,-26.966535 0,-40.44980285 2.19293199,0 4.38586399,0 6.58816749,0 0,5.31102355 0,10.61269685 0,15.92371985 4.3015205,0 8.6030405,0 12.9045615,0 0,-5.311023 0,-10.6126963 0,-15.92371985 2.202303,0 4.385864,0 6.588167,0 0,13.48326785 0,26.95718485 0,40.44980285 -2.202303,0 -4.385864,0 -6.588167,0 0,-5.900099 0,-11.790847 0,-17.690945 -4.301521,0 -8.603041,0 -12.9045615,0 0,5.900098 0,11.790846 0,17.690945 -2.2023035,0 -4.3952355,0 -6.58816749,0"
           id="path3027" />
        <path
           inkscape:connector-curvature="0"
           style="fill:#ffc000;fill-opacity:1;fill-rule:evenodd;stroke:none"
           d="m 48.431934,40.524606 c 0,-1.468012 0,-2.926673 0,-4.385335 -0.862178,1.570866 -1.99613,2.767717 -3.392484,3.684055 -1.386983,0.93504 -2.895795,1.355807 -4.451465,1.355807 -1.583784,0 -3.008253,-0.430118 -4.273406,-1.290354 -1.265153,-0.869587 -2.192932,-2.075787 -2.736479,-3.646654 -0.543547,-1.580216 -0.843436,-3.721456 -0.843436,-6.479822 0,-6.18061 0,-12.361221 0,-18.541831 2.080474,0 4.17032,0 6.250794,0 0,4.488189 0,8.976378 0,13.464567 0,4.104823 0.112458,6.64813 0.356117,7.555118 0.215545,0.94439 0.656005,1.683071 1.24641,2.206693 0.599776,0.561024 1.386983,0.832185 2.314762,0.832185 1.068351,0 2.033616,-0.345965 2.877051,-1.103346 0.834064,-0.729331 1.424469,-1.626969 1.733729,-2.711615 0.309259,-1.075295 0.468575,-3.684055 0.468575,-7.882381 0,-4.123524 0,-8.247048 0,-12.361221 2.080474,0 4.170319,0 6.250793,0 0,9.771162 0,19.532972 0,29.304134 -1.93053,0 -3.870431,0 -5.800961,0"
           id="path3029" />
        <path
           inkscape:connector-curvature="0"
           style="fill:#ffc000;fill-opacity:1;fill-rule:evenodd;stroke:none"
           d="m 82.206836,40.524606 c -2.080474,0 -4.160948,0 -6.250794,0 0,-4.99311 0,-9.97687 0,-14.96063 0,-3.169783 -0.140572,-5.208169 -0.393603,-6.152559 -0.271774,-0.906988 -0.702863,-1.617618 -1.293268,-2.15059 -0.599776,-0.532973 -1.340125,-0.766733 -2.18356,-0.766733 -1.096466,0 -2.05236,0.345965 -2.914538,1.103347 -0.862178,0.748031 -1.452583,1.701771 -1.761843,2.917322 -0.328002,1.215552 -0.487318,3.450296 -0.487318,6.732284 0,4.422736 0,8.845472 0,13.277559 -2.089845,0 -4.170319,0 -6.260165,0 0,-9.771162 0,-19.532972 0,-29.304134 1.939902,0 3.879803,0 5.810333,0 0,1.439961 0,2.870571 0,4.310532 2.042988,-3.338091 4.657637,-4.97441 7.797091,-4.97441 1.377612,0 2.652136,0.299213 3.776717,0.916339 1.133952,0.635827 2.014873,1.393209 2.605278,2.365649 0.571662,0.972441 0.984008,2.047737 1.227667,3.253937 0.215544,1.224902 0.328003,2.954725 0.328003,5.21752 0,6.068405 0,12.136811 0,18.214567"
           id="path3031" />
        <path
           inkscape:connector-curvature="0"
           style="fill:#ffc000;fill-opacity:1;fill-rule:evenodd;stroke:none"
           d="m 99.394174,11.220472 c 0,2.057087 0,4.114173 0,6.18061 -1.424468,0 -2.848937,0 -4.273406,0 0,3.936516 0,7.873032 0,11.809548 0,2.403051 0.04686,3.777559 0.131202,4.160925 0.0656,0.420767 0.271773,0.738681 0.56229,0.991141 0.281145,0.252461 0.618519,0.392717 1.040237,0.392717 0.581033,0 1.43384,-0.24311 2.520934,-0.748032 0.168687,2.000985 0.356118,4.011319 0.534176,6.012303 -1.443212,0.785434 -3.092596,1.159449 -4.948154,1.159449 -1.124581,0 -2.136703,-0.215059 -3.045739,-0.71998 -0.909036,-0.47687 -1.565041,-1.065945 -1.986759,-1.813976 -0.412346,-0.748032 -0.730977,-1.739174 -0.880921,-3.010827 -0.131201,-0.906988 -0.206173,-2.730315 -0.206173,-5.46063 0,-4.254429 0,-8.518208 0,-12.772638 -0.955894,0 -1.911787,0 -2.867681,0 0,-2.066437 0,-4.123523 0,-6.18061 0.955894,0 1.911787,0 2.867681,0 0,-1.9448816 0,-3.880413 0,-5.8252949 2.080474,-1.5241142 4.198433,-2.992126 6.278907,-4.5162401 0,3.4409448 0,6.8912401 0,10.341535 1.424469,0 2.848938,0 4.273406,0"
           id="path3033" />
        <path
           inkscape:connector-curvature="0"
           style="fill:#ffc000;fill-opacity:1;fill-rule:evenodd;stroke:none"
           d="m 103.73318,7.246555 c 0,-2.3843503 0,-4.7780511 0,-7.17175185 2.08985,0 4.17032,0 6.25079,0 0,2.39370075 0,4.78740155 0,7.17175185 -2.08047,0 -4.16094,0 -6.25079,0 z m 0,33.278051 c 0,-9.771162 0,-19.532972 0,-29.304134 2.08985,0 4.17032,0 6.25079,0 0,9.771162 0,19.532972 0,29.304134 -2.08047,0 -4.16094,0 -6.25079,0 z"
           id="path3035" />
        <path
           inkscape:connector-curvature="0"
           style="fill:#ffc000;fill-opacity:1;fill-rule:evenodd;stroke:none"
           d="m 137.90169,40.524606 c -2.08985,0 -4.17032,0 -6.26017,0 0,-4.99311 0,-9.97687 0,-14.96063 0,-3.169783 -0.1312,-5.208169 -0.3936,-6.152559 -0.2624,-0.906988 -0.70287,-1.617618 -1.29327,-2.15059 -0.59978,-0.532973 -1.34013,-0.766733 -2.18356,-0.766733 -1.0871,0 -2.05236,0.345965 -2.91454,1.103347 -0.86218,0.748031 -1.45258,1.701771 -1.75247,2.917322 -0.328,1.215552 -0.49669,3.450296 -0.49669,6.732284 0,4.422736 0,8.845472 0,13.277559 -2.08047,0 -4.16095,0 -6.25079,0 0,-9.771162 0,-19.532972 0,-29.304134 1.93053,0 3.87043,0 5.81033,0 0,1.439961 0,2.870571 0,4.310532 2.03362,-3.338091 4.64827,-4.97441 7.78772,-4.97441 1.37761,0 2.65214,0.299213 3.78609,0.916339 1.12458,0.635827 2.01487,1.393209 2.5959,2.365649 0.57167,0.972441 0.98401,2.047737 1.22767,3.253937 0.21555,1.224902 0.33738,2.954725 0.33738,5.21752 0,6.068405 0,12.136811 0,18.214567"
           id="path3037" />
        <path
           inkscape:connector-curvature="0"
           style="fill:#ffc000;fill-opacity:1;fill-rule:evenodd;stroke:none"
           d="m 143.66516,42.450787 c 2.38036,0.364665 4.76072,0.71063 7.14109,1.075295 0.11245,1.019193 0.41234,1.729823 0.82469,2.122539 0.59978,0.561024 1.5463,0.832185 2.81145,0.832185 1.62127,0 2.84894,-0.299212 3.66426,-0.906988 0.55292,-0.430118 0.96526,-1.047244 1.25578,-1.963582 0.18743,-0.635827 0.28115,-1.823327 0.28115,-3.5625 0,-1.42126 0,-2.85187 0,-4.27313 -1.83682,3.188484 -4.22655,4.75 -7.07549,4.75 -3.18631,0 -5.72599,-1.64567 -7.54406,-5.002461 -1.42447,-2.62746 -2.18356,-5.900098 -2.18356,-9.817913 0,-4.908957 0.98401,-8.639764 2.87705,-11.248524 1.86493,-2.61811 4.26403,-3.899114 7.09423,-3.899114 2.91454,0 5.36987,1.580217 7.2348,4.778051 0,-1.374507 0,-2.739665 0,-4.114173 1.94927,0 3.89855,0 5.85719,0 0,8.761319 0,17.522638 0,26.293307 0,3.450295 -0.23429,6.040354 -0.69349,7.751476 -0.4592,1.711122 -1.12458,3.057579 -1.93053,4.03002 -0.81532,0.972441 -1.94927,1.720472 -3.31751,2.290846 -1.40573,0.551674 -3.16757,0.822835 -5.28553,0.822835 -4.00163,0 -6.86931,-0.841535 -8.5187,-2.533957 -1.64938,-1.729822 -2.51156,-3.861712 -2.51156,-6.489173 0,-0.24311 0,-0.579724 0.0187,-0.935039 z m 5.58542,-17.186024 c 0,3.113681 0.50606,5.367126 1.47132,6.816437 0.94653,1.468012 2.15545,2.169292 3.57992,2.169292 1.53692,0 2.83956,-0.729331 3.8798,-2.225394 1.03087,-1.477362 1.57441,-3.674705 1.57441,-6.573327 0,-3.029527 -0.5248,-5.282972 -1.50881,-6.760334 -0.99338,-1.468012 -2.29602,-2.197343 -3.83294,-2.197343 -1.49007,0 -2.74585,0.71063 -3.69238,2.150591 -0.96526,1.468012 -1.47132,3.665354 -1.47132,6.620078 z"
           id="path3039" />
        <path
           inkscape:connector-curvature="0"
           style="fill:#ffc000;fill-opacity:1;fill-rule:evenodd;stroke:none"
           d="m 182.93176,11.220472 c 0,2.057087 0,4.114173 0,6.18061 -1.42447,0 -2.84893,0 -4.28277,0 0,3.936516 0,7.873032 0,11.809548 0,2.403051 0.0469,3.777559 0.14057,4.160925 0.0656,0.420767 0.27177,0.738681 0.55292,0.991141 0.29051,0.252461 0.62789,0.392717 1.04961,0.392717 0.58103,0 1.42446,-0.24311 2.51156,-0.748032 0.17806,2.000985 0.36549,4.011319 0.54355,6.012303 -1.44322,0.785434 -3.10197,1.159449 -4.94816,1.159449 -1.13395,0 -2.14607,-0.215059 -3.05511,-0.71998 -0.89966,-0.47687 -1.55567,-1.065945 -1.97739,-1.813976 -0.41234,-0.748032 -0.73097,-1.739174 -0.89029,-3.010827 -0.1312,-0.906988 -0.1968,-2.730315 -0.1968,-5.46063 0,-4.254429 0,-8.518208 0,-12.772638 -0.96527,0 -1.91179,0 -2.86768,0 0,-2.066437 0,-4.123523 0,-6.18061 0.95589,0 1.90241,0 2.86768,0 0,-1.9448816 0,-3.880413 0,-5.8252949 2.08047,-1.5241142 4.19843,-2.992126 6.26954,-4.5162401 0,3.4409448 0,6.8912401 0,10.341535 1.43384,0 2.8583,0 4.28277,0"
           id="path3041" />
        <path
           inkscape:connector-curvature="0"
           style="fill:#ffc000;fill-opacity:1;fill-rule:evenodd;stroke:none"
           d="m 185.82756,25.451771 c 0,-2.562008 0.5248,-5.067913 1.52755,-7.470964 1.01213,-2.403051 2.48345,-4.226378 4.36712,-5.516732 1.85556,-1.290355 3.95478,-1.907481 6.26954,-1.907481 3.58929,0 6.53194,1.41191 8.79984,4.310532 2.25854,2.917323 3.4206,6.535925 3.4206,10.921259 0,4.441437 -1.18081,8.088091 -3.44871,11.005414 -2.27728,2.954724 -5.2293,4.385334 -8.72487,4.385334 -2.15545,0 -4.23592,-0.589075 -6.18519,-1.813976 -1.96802,-1.234252 -3.4862,-3.010827 -4.49833,-5.357776 -1.00275,-2.346948 -1.52755,-5.180118 -1.52755,-8.55561 z m 6.41011,0.420768 c 0,2.889272 0.57166,5.124016 1.65875,6.666831 1.10584,1.561515 2.49282,2.328248 4.12347,2.328248 1.62127,0 3.01762,-0.766733 4.11409,-2.328248 1.07772,-1.542815 1.64938,-3.777559 1.64938,-6.722933 0,-2.870571 -0.57166,-5.067914 -1.64938,-6.620079 -1.09647,-1.561516 -2.49282,-2.318898 -4.11409,-2.318898 -1.63065,0 -3.01763,0.757382 -4.12347,2.318898 -1.08709,1.552165 -1.65875,3.777559 -1.65875,6.676181 z"
           id="path3043" />
        <path
           inkscape:connector-curvature="0"
           style="fill:#ffc000;fill-opacity:1;fill-rule:evenodd;stroke:none"
           d="m 236.61174,40.524606 c -2.08047,0 -4.17032,0 -6.25079,0 0,-4.99311 0,-9.97687 0,-14.96063 0,-3.169783 -0.14058,-5.208169 -0.40298,-6.152559 -0.2624,-0.906988 -0.69349,-1.617618 -1.29327,-2.15059 -0.5904,-0.532973 -1.33075,-0.766733 -2.17418,-0.766733 -1.09647,0 -2.06174,0.345965 -2.92391,1.103347 -0.85281,0.748031 -1.44322,1.701771 -1.75248,2.917322 -0.328,1.215552 -0.48731,3.450296 -0.48731,6.732284 0,4.422736 0,8.845472 0,13.277559 -2.08985,0 -4.17032,0 -6.26017,0 0,-9.771162 0,-19.532972 0,-29.304134 1.9399,0 3.87043,0 5.81033,0 0,1.439961 0,2.870571 0,4.310532 2.04299,-3.338091 4.65764,-4.97441 7.78772,-4.97441 1.38699,0 2.66151,0.299213 3.78609,0.916339 1.12458,0.635827 2.01488,1.393209 2.60528,2.365649 0.57166,0.972441 0.98401,2.047737 1.2183,3.253937 0.22491,1.224902 0.33737,2.954725 0.33737,5.21752 0,6.068405 0,12.136811 0,18.214567"
           id="path3045" />
        <path
           inkscape:connector-curvature="0"
           style="fill:#ffc000;fill-opacity:1;fill-rule:evenodd;stroke:none"
           d="m 255.69212,0.07480315 c 4.34838,0 8.69676,0 13.04514,0 2.57716,0 4.51706,0.13090551 5.78221,0.38336614 1.26516,0.2898622 2.40848,0.82283461 3.40186,1.68307081 0.99338,0.8695866 1.84619,1.9542323 2.49282,3.3661417 0.66538,1.4119094 1.00275,3.0108267 1.00275,4.7500002 0,1.89813 -0.41234,3.637303 -1.22767,5.208169 -0.80594,1.580216 -1.95864,2.749016 -3.35499,3.5625 1.97738,0.729331 3.53305,1.926181 4.58266,3.674705 1.05898,1.739173 1.60253,3.749507 1.60253,6.087106 0,1.851378 -0.34675,3.609252 -1.02149,5.357775 -0.67475,1.739174 -1.65876,3.132382 -2.8302,4.160925 -1.19018,1.065945 -2.67088,1.683071 -4.42335,1.935532 -1.08709,0.140256 -3.73923,0.24311 -7.94703,0.280512 -3.70175,0 -7.40349,0 -11.10524,0 0,-13.492618 0,-26.966535 0,-40.44980285 z m 6.58817,6.73228335 c 0,3.1136811 0,6.2367125 0,9.3503935 1.43384,0 2.87705,0 4.32026,0 2.54905,0 4.15158,-0.04675 4.77947,-0.140256 1.13395,-0.168307 2.03362,-0.645177 2.67088,-1.458661 0.63726,-0.804134 0.95589,-1.851378 0.95589,-3.141732 0,-1.243603 -0.27177,-2.2627957 -0.82469,-3.0669295 -0.54355,-0.7760827 -1.39635,-1.234252 -2.49282,-1.4025591 -0.63726,-0.084154 -2.53968,-0.1402559 -5.63227,-0.1402559 -1.25579,0 -2.52094,0 -3.77672,0 z m 0,16.0826765 c 0,3.609252 0,7.209154 0,10.818406 2.03362,0 4.05786,0 6.09148,0 2.38036,0 3.8798,-0.08415 4.52643,-0.252461 0.97464,-0.224409 1.78996,-0.766732 2.39911,-1.626968 0.59978,-0.860236 0.90904,-1.982284 0.90904,-3.422244 0,-1.215551 -0.25303,-2.225394 -0.71224,-3.08563 -0.4592,-0.860236 -1.15269,-1.458662 -2.04299,-1.851378 -0.90903,-0.392717 -2.84893,-0.579725 -5.85719,-0.579725 -1.77121,0 -3.54243,0 -5.31364,0 z"
           id="path3047" />
        <path
           inkscape:connector-curvature="0"
           style="fill:#ffc000;fill-opacity:1;fill-rule:evenodd;stroke:none"
           d="m 302.23101,31.192913 c 2.08048,0.448819 4.16095,0.860236 6.24142,1.309055 -0.7872,2.84252 -2.09921,4.974409 -3.78608,6.451772 -1.72436,1.514763 -3.89855,2.225393 -6.50383,2.225393 -4.12346,0 -7.17857,-1.626968 -9.12784,-4.99311 -1.53693,-2.692913 -2.34288,-6.040354 -2.34288,-10.098425 0,-4.843504 1.06835,-8.639764 3.0926,-11.40748 2.0055,-2.749016 4.61078,-4.114173 7.7596,-4.114173 3.50495,0 6.3164,1.42126 8.3219,4.301181 2.0055,2.917323 2.99888,7.312008 2.92391,13.240157 -5.2293,0 -10.4586,0 -15.6879,0 0.0562,2.281496 0.58103,4.076772 1.51818,5.348425 0.93715,1.309055 2.17419,1.944882 3.61741,1.944882 0.97463,0 1.79932,-0.336614 2.47407,-1.009842 0.65601,-0.654528 1.18081,-1.739174 1.49944,-3.197835 z m 0.35612,-7.816929 c -0.0375,-2.244095 -0.5248,-3.945866 -1.40573,-5.142717 -0.86217,-1.159448 -1.96801,-1.739173 -3.24254,-1.739173 -1.34949,0 -2.51156,0.598425 -3.39248,1.851378 -0.86218,1.252953 -1.33075,2.898622 -1.31201,5.030512 3.13008,0 6.24142,0 9.35276,0 z"
           id="path3049" />
        <path
           inkscape:connector-curvature="0"
           style="fill:#ffc000;fill-opacity:1;fill-rule:evenodd;stroke:none"
           d="m 318.57492,20.159449 c -1.89305,-0.430119 -3.78609,-0.822835 -5.67914,-1.271654 0.63727,-2.84252 1.7431,-4.918307 3.29877,-6.283464 1.53693,-1.365158 3.87981,-2.038386 6.93492,-2.038386 2.79271,0 4.89192,0.392716 6.24142,1.215551 1.3495,0.841535 2.34288,1.870079 2.88642,3.123031 0.54355,1.252953 0.8247,3.571851 0.8247,6.937992 -0.0188,3.029528 -0.0375,6.040355 -0.075,9.051181 0,2.562008 0.1312,4.469488 0.31863,5.68504 0.20618,1.234252 0.56229,2.543307 1.12458,3.945866 -2.08047,0 -4.1422,0 -6.20393,0 -0.14995,-0.523622 -0.35612,-1.271654 -0.59978,-2.300197 -0.11246,-0.46752 -0.16868,-0.766732 -0.22491,-0.897638 -1.04961,1.309055 -2.19294,2.244095 -3.41123,2.898622 -1.23704,0.635827 -2.53031,0.95374 -3.89855,0.95374 -2.43659,0 -4.36712,-0.804134 -5.7541,-2.449803 -1.38698,-1.645669 -2.09922,-3.702756 -2.09922,-6.208661 0,-1.645669 0.31863,-3.141732 0.9559,-4.432087 0.63726,-1.309055 1.53692,-2.281496 2.68025,-2.992126 1.14332,-0.691929 2.81145,-1.252952 4.96689,-1.795275 2.92391,-0.691929 4.94816,-1.309055 6.07274,-1.88878 0,-0.261811 0,-0.523622 0,-0.785433 0,-1.477362 -0.28115,-2.543307 -0.88092,-3.197834 -0.59978,-0.635827 -1.72436,-0.93504 -3.37374,-0.93504 -1.10584,0 -1.98676,0.280512 -2.60528,0.804134 -0.59978,0.561024 -1.12458,1.514764 -1.49944,2.861221 z m 8.35938,6.302165 c -0.78721,0.336614 -2.06173,0.71063 -3.80483,1.178149 -1.72436,0.46752 -2.86768,0.897638 -3.39249,1.346457 -0.82469,0.729331 -1.23704,1.626969 -1.23704,2.730315 0,1.084646 0.33738,2.019685 0.97464,2.823819 0.65601,0.804134 1.49944,1.178149 2.49282,1.178149 1.14332,0 2.23042,-0.448818 3.24254,-1.365157 0.74972,-0.71063 1.25578,-1.552165 1.4807,-2.580709 0.14994,-0.654527 0.24366,-1.926181 0.24366,-3.777559 0,-0.504921 0,-1.028543 0,-1.533464 z"
           id="path3051" />
        <path
           inkscape:connector-curvature="0"
           style="fill:#ffc000;fill-opacity:1;fill-rule:evenodd;stroke:none"
           d="m 359.86576,19.878937 c -2.06173,0.48622 -4.12346,0.916338 -6.16645,1.383858 -0.20617,-1.514764 -0.67474,-2.655512 -1.40572,-3.440945 -0.73098,-0.785433 -1.68687,-1.159449 -2.86768,-1.159449 -1.55567,0 -2.81145,0.654528 -3.71112,1.982284 -0.93715,1.365157 -1.40572,3.590551 -1.40572,6.713582 0,3.478347 0.46857,5.909449 1.42447,7.368111 0.9184,1.43996 2.19293,2.15059 3.78608,2.15059 1.16207,0 2.15545,-0.411417 2.90517,-1.271654 0.74972,-0.841535 1.29327,-2.262795 1.6119,-4.301181 2.04299,0.430119 4.08597,0.841536 6.12896,1.290355 -0.61852,3.497047 -1.8743,6.096456 -3.67363,7.910433 -1.78058,1.813976 -4.21717,2.674212 -7.27228,2.674212 -3.44872,0 -6.24143,-1.327756 -8.26567,-4.03937 -2.04299,-2.730315 -3.0926,-6.470472 -3.0926,-11.239173 0,-4.824803 1.04961,-8.583661 3.0926,-11.313976 2.06173,-2.692913 4.85444,-4.020669 8.37812,-4.020669 2.86768,0 5.17307,0.748031 6.87869,2.281496 1.66813,1.570866 2.92391,3.889763 3.65488,7.031496"
           id="path3053" />
        <path
           inkscape:connector-curvature="0"
           style="fill:#ffc000;fill-opacity:1;fill-rule:evenodd;stroke:none"
           d="m 370.83042,0.07480315 c 0,4.95570855 0,9.91141715 0,14.86712585 2.00551,-2.936024 4.4421,-4.375984 7.23481,-4.375984 1.44321,0 2.75522,0.317913 3.89854,0.991141 1.14332,0.673229 2.02425,1.514764 2.62402,2.543308 0.58104,1.028543 0.99338,2.169291 1.19956,3.422244 0.20617,1.234252 0.31863,3.197834 0.31863,5.815944 0,5.722441 0,11.463583 0,17.186024 -2.08048,0 -4.17969,0 -6.26017,0 0,-5.161418 0,-10.322835 0,-15.484252 0,-3.048228 -0.11246,-5.011811 -0.35612,-5.834646 -0.24365,-0.841535 -0.656,-1.496063 -1.23703,-2.000984 -0.59978,-0.46752 -1.36824,-0.71063 -2.26791,-0.71063 -1.04961,0 -1.96801,0.299213 -2.79271,0.93504 -0.82469,0.654527 -1.40572,1.570866 -1.78058,2.823818 -0.37486,1.271654 -0.58104,3.141733 -0.58104,5.591536 0,4.899606 0,9.799212 0,14.680118 -2.08047,0 -4.16094,0 -6.26016,0 0,-13.483268 0,-26.966535 0,-40.44980285 2.09922,0 4.17969,0 6.26016,0"
           id="path3055" />
      </g>
    </g>
  </g>
</svg>
