<?xml version="1.0" encoding="iso-8859-1"?>
<!DOCTYPE svg PUBLIC "-//W3C//DTD SVG 1.0//EN" "http://www.w3.org/TR/2001/REC-SVG-20010904/DTD/svg10.dtd">
<!-- Creator: CorelDRAW -->
<svg xmlns="http://www.w3.org/2000/svg" xmlns:odm="http://product.corel.com/CGS/11/cddns/" xml:space="preserve" width="1023px" height="682px" shape-rendering="geometricPrecision" text-rendering="geometricPrecision" image-rendering="optimizeQuality" fill-rule="evenodd"
     viewBox="0 0 102300 68200">
 <path fill="#FFBB00" d="M0 0l102300 0 0 68200 -102300 0 0 -68200z"/>
 <g id="Layer 1">
  <path fill="#00923F" d="M0 0l29249 0 7009 7578 -7009 7578 7009 7578 -7009 7577 7009 7578 -7009 7578 7009 7578 -7009 7577 7009 7578 -36258 0 0 -68200z"/>
  <path fill="#EE251D" d="M66218 0l7008 7578 -7008 7578 7008 7578 -7008 7577 7008 7578 -7008 7578 7008 7578 -7008 7577 7008 7578 29074 0 0 -68200 -36082 0z"/>
  <g>
   <defs>
    <linearGradient id="id0" gradientUnits="userSpaceOnUse" x1="43364" y1="34490" x2="43364" y2="33559">
     <stop offset="0" stop-color="#009544"/>
     <stop offset="1" stop-color="#7ABB30"/>
     <stop offset="1" stop-color="#7ABB30"/>
    </linearGradient>
    <linearGradient id="id1" gradientUnits="userSpaceOnUse" x1="51155" y1="27065" x2="51145" y2="26673">
     <stop offset="0" stop-color="#322073"/>
     <stop offset="1" stop-color="#9D487C"/>
     <stop offset="1" stop-color="#9D487C"/>
    </linearGradient>
    <linearGradient id="id2" gradientUnits="userSpaceOnUse" x1="51688" y1="27110" x2="51672" y2="26628">
     <stop offset="0" stop-color="#322073"/>
     <stop offset="1" stop-color="#9D487C"/>
     <stop offset="1" stop-color="#9D487C"/>
    </linearGradient>
    <linearGradient id="id3" gradientUnits="userSpaceOnUse" x1="50768" y1="26708" x2="50751" y2="26287">
     <stop offset="0" stop-color="#322073"/>
     <stop offset="1" stop-color="#9D487C"/>
     <stop offset="1" stop-color="#9D487C"/>
    </linearGradient>
    <linearGradient id="id4" gradientUnits="userSpaceOnUse" x1="50583" y1="26302" x2="50570" y2="25864">
     <stop offset="0" stop-color="#322073"/>
     <stop offset="1" stop-color="#9D487C"/>
     <stop offset="1" stop-color="#9D487C"/>
    </linearGradient>
    <linearGradient id="id5" gradientUnits="userSpaceOnUse" x1="51539" y1="26427" x2="51526" y2="26038">
     <stop offset="0" stop-color="#322073"/>
     <stop offset="1" stop-color="#9D487C"/>
     <stop offset="1" stop-color="#9D487C"/>
    </linearGradient>
    <linearGradient id="id6" gradientUnits="userSpaceOnUse" x1="50901" y1="26067" x2="50888" y2="25716">
     <stop offset="0" stop-color="#322073"/>
     <stop offset="1" stop-color="#9D487C"/>
     <stop offset="1" stop-color="#9D487C"/>
    </linearGradient>
    <linearGradient id="id7" gradientUnits="userSpaceOnUse" x1="51223" y1="26666" x2="51206" y2="26183">
     <stop offset="0" stop-color="#322073"/>
     <stop offset="1" stop-color="#9D487C"/>
     <stop offset="1" stop-color="#9D487C"/>
    </linearGradient>
    <linearGradient id="id8" gradientUnits="userSpaceOnUse" x1="50944" y1="26388" x2="50931" y2="25993">
     <stop offset="0" stop-color="#322073"/>
     <stop offset="1" stop-color="#9D487C"/>
     <stop offset="1" stop-color="#9D487C"/>
    </linearGradient>
    <linearGradient id="id9" gradientUnits="userSpaceOnUse" x1="51773" y1="26662" x2="51760" y2="26224">
     <stop offset="0" stop-color="#322073"/>
     <stop offset="1" stop-color="#9D487C"/>
     <stop offset="1" stop-color="#9D487C"/>
    </linearGradient>
    <linearGradient id="id10" gradientUnits="userSpaceOnUse" x1="51453" y1="26875" x2="51439" y2="26437">
     <stop offset="0" stop-color="#322073"/>
     <stop offset="1" stop-color="#9D487C"/>
     <stop offset="1" stop-color="#9D487C"/>
    </linearGradient>
    <linearGradient id="id11" gradientUnits="userSpaceOnUse" x1="51155" y1="25770" x2="51145" y2="25378">
     <stop offset="0" stop-color="#322073"/>
     <stop offset="1" stop-color="#9D487C"/>
     <stop offset="1" stop-color="#9D487C"/>
    </linearGradient>
    <linearGradient id="id12" gradientUnits="userSpaceOnUse" x1="51243" y1="26261" x2="51229" y2="25823">
     <stop offset="0" stop-color="#322073"/>
     <stop offset="1" stop-color="#9D487C"/>
     <stop offset="1" stop-color="#9D487C"/>
    </linearGradient>
    <linearGradient id="id13" gradientUnits="userSpaceOnUse" x1="51540" y1="26028" x2="51524" y2="25588">
     <stop offset="0" stop-color="#322073"/>
     <stop offset="1" stop-color="#9D487C"/>
     <stop offset="1" stop-color="#9D487C"/>
    </linearGradient>
    <linearGradient id="id14" gradientUnits="userSpaceOnUse" x1="43467" y1="35739" x2="43467" y2="34657">
     <stop offset="0" stop-color="#009544"/>
     <stop offset="1" stop-color="#7ABB30"/>
     <stop offset="1" stop-color="#7ABB30"/>
    </linearGradient>
    <linearGradient id="id15" gradientUnits="userSpaceOnUse" x1="51901" y1="26199" x2="51885" y2="25714">
     <stop offset="0" stop-color="#322073"/>
     <stop offset="1" stop-color="#9D487C"/>
     <stop offset="1" stop-color="#9D487C"/>
    </linearGradient>
    <linearGradient id="id16" gradientUnits="userSpaceOnUse" x1="58941" y1="32747" x2="59065" y2="34022">
     <stop offset="0" stop-color="#E07124"/>
     <stop offset="1" stop-color="#D52C27"/>
     <stop offset="1" stop-color="#D52C27"/>
    </linearGradient>
    <linearGradient id="id17" gradientUnits="userSpaceOnUse" x1="59006" y1="33772" x2="59135" y2="35101">
     <stop offset="0" stop-color="#E07124"/>
     <stop offset="1" stop-color="#D52C27"/>
     <stop offset="1" stop-color="#D52C27"/>
    </linearGradient>
    <linearGradient id="id18" gradientUnits="userSpaceOnUse" x1="43135" y1="36194" x2="43135" y2="35468">
     <stop offset="0" stop-color="#009544"/>
     <stop offset="1" stop-color="#7ABB30"/>
     <stop offset="1" stop-color="#7ABB30"/>
    </linearGradient>
    <linearGradient id="id19" gradientUnits="userSpaceOnUse" x1="43178" y1="35301" x2="43178" y2="34337">
     <stop offset="0" stop-color="#009544"/>
     <stop offset="1" stop-color="#7ABB30"/>
     <stop offset="1" stop-color="#7ABB30"/>
    </linearGradient>
   </defs>
   <circle fill="#DFE1E5" stroke="#D22F2A" stroke-width="121" cx="51147" cy="34103" r="12166"/>
   <path fill="#131516" d="M44683 27343c-10,-100 -99,-173 -196,-162 -100,11 -172,100 -162,199 11,97 100,170 200,159 96,-11 169,-99 158,-196l0 0z"/>
   <circle fill="#EEAA18" stroke="#131516" stroke-width="99" cx="51150" cy="34100" r="9452"/>
   <circle fill="#EEAA18" stroke="#131516" stroke-width="129" cx="63316" cy="34103" r="404"/>
   <circle fill="#EEAA18" stroke="#131516" stroke-width="129" cx="63286" cy="34905" r="404"/>
   <circle fill="#EEAA18" stroke="#131516" stroke-width="129" cx="63208" cy="35705" r="404"/>
   <circle fill="#EEAA18" stroke="#131516" stroke-width="129" cx="63076" cy="36496" r="404"/>
   <circle fill="#EEAA18" stroke="#131516" stroke-width="129" cx="62891" cy="37279" r="404"/>
   <circle fill="#EEAA18" stroke="#131516" stroke-width="129" cx="62656" cy="38052" r="404"/>
   <circle fill="#EEAA18" stroke="#131516" stroke-width="129" cx="62368" cy="38803" r="404"/>
   <circle fill="#EEAA18" stroke="#131516" stroke-width="129" cx="62032" cy="39535" r="404"/>
   <circle fill="#EEAA18" stroke="#131516" stroke-width="129" cx="61647" cy="40244" r="404"/>
   <circle fill="#EEAA18" stroke="#131516" stroke-width="129" cx="61219" cy="40922" r="404"/>
   <circle fill="#EEAA18" stroke="#131516" stroke-width="129" cx="60748" cy="41576" r="404"/>
   <circle fill="#EEAA18" stroke="#131516" stroke-width="129" cx="60233" cy="42190" r="404"/>
   <circle fill="#EEAA18" stroke="#131516" stroke-width="129" cx="59676" cy="42774" r="404"/>
   <circle fill="#EEAA18" stroke="#131516" stroke-width="129" cx="59084" cy="43318" r="404"/>
   <circle fill="#EEAA18" stroke="#131516" stroke-width="129" cx="58462" cy="43821" r="404"/>
   <circle fill="#EEAA18" stroke="#131516" stroke-width="129" cx="57802" cy="44284" r="404"/>
   <circle fill="#EEAA18" stroke="#131516" stroke-width="129" cx="57113" cy="44702" r="404"/>
   <circle fill="#EEAA18" stroke="#131516" stroke-width="129" cx="56397" cy="45073" r="404"/>
   <circle fill="#EEAA18" stroke="#131516" stroke-width="129" cx="55662" cy="45396" r="404"/>
   <circle fill="#EEAA18" stroke="#131516" stroke-width="129" cx="54906" cy="45674" r="404"/>
   <circle fill="#EEAA18" stroke="#131516" stroke-width="129" cx="54136" cy="45894" r="404"/>
   <circle fill="#EEAA18" stroke="#131516" stroke-width="129" cx="53347" cy="46064" r="404"/>
   <circle fill="#EEAA18" stroke="#131516" stroke-width="129" cx="52553" cy="46185" r="404"/>
   <circle fill="#EEAA18" stroke="#131516" stroke-width="129" cx="51748" cy="46252" r="404"/>
   <circle fill="#EEAA18" stroke="#131516" stroke-width="129" cx="50943" cy="46266" r="404"/>
   <circle fill="#EEAA18" stroke="#131516" stroke-width="129" cx="50140" cy="46226" r="404"/>
   <circle fill="#EEAA18" stroke="#131516" stroke-width="129" cx="49341" cy="46134" r="404"/>
   <circle fill="#EEAA18" stroke="#131516" stroke-width="129" cx="48549" cy="45986" r="404"/>
   <circle fill="#EEAA18" stroke="#131516" stroke-width="129" cx="47769" cy="45789" r="404"/>
   <circle fill="#EEAA18" stroke="#131516" stroke-width="129" cx="47007" cy="45542" r="404"/>
   <circle fill="#EEAA18" stroke="#131516" stroke-width="129" cx="46258" cy="45240" r="404"/>
   <circle fill="#EEAA18" stroke="#131516" stroke-width="129" cx="45534" cy="44893" r="404"/>
   <circle fill="#EEAA18" stroke="#131516" stroke-width="129" cx="44831" cy="44503" r="404"/>
   <circle fill="#EEAA18" stroke="#131516" stroke-width="129" cx="44158" cy="44061" r="404"/>
   <circle fill="#EEAA18" stroke="#131516" stroke-width="129" cx="43515" cy="43579" r="404"/>
   <circle fill="#EEAA18" stroke="#131516" stroke-width="129" cx="42907" cy="43051" r="404"/>
   <circle fill="#EEAA18" stroke="#131516" stroke-width="129" cx="42330" cy="42486" r="404"/>
   <circle fill="#EEAA18" stroke="#131516" stroke-width="129" cx="41795" cy="41886" r="404"/>
   <circle fill="#EEAA18" stroke="#131516" stroke-width="129" cx="41305" cy="41250" r="404"/>
   <circle fill="#EEAA18" stroke="#131516" stroke-width="129" cx="40852" cy="40588" r="404"/>
   <circle fill="#EEAA18" stroke="#131516" stroke-width="129" cx="40443" cy="39891" r="404"/>
   <circle fill="#EEAA18" stroke="#131516" stroke-width="129" cx="40085" cy="39172" r="404"/>
   <circle fill="#EEAA18" stroke="#131516" stroke-width="129" cx="39776" cy="38429" r="404"/>
   <circle fill="#EEAA18" stroke="#131516" stroke-width="129" cx="39512" cy="37670" r="404"/>
   <circle fill="#EEAA18" stroke="#131516" stroke-width="129" cx="39304" cy="36892" r="404"/>
   <circle fill="#EEAA18" stroke="#131516" stroke-width="129" cx="39146" cy="36100" r="404"/>
   <circle fill="#EEAA18" stroke="#131516" stroke-width="129" cx="39038" cy="35306" r="404"/>
   <circle fill="#EEAA18" stroke="#131516" stroke-width="129" cx="38984" cy="34501" r="404"/>
   <circle fill="#EEAA18" stroke="#131516" stroke-width="129" cx="38984" cy="33699" r="404"/>
   <circle fill="#EEAA18" stroke="#131516" stroke-width="129" cx="39038" cy="32894" r="404"/>
   <circle fill="#EEAA18" stroke="#131516" stroke-width="129" cx="39146" cy="32100" r="404"/>
   <circle fill="#EEAA18" stroke="#131516" stroke-width="129" cx="39304" cy="31308" r="404"/>
   <circle fill="#EEAA18" stroke="#131516" stroke-width="129" cx="39512" cy="30530" r="404"/>
   <circle fill="#EEAA18" stroke="#131516" stroke-width="129" cx="39776" cy="29771" r="404"/>
   <circle fill="#EEAA18" stroke="#131516" stroke-width="129" cx="40085" cy="29028" r="404"/>
   <circle fill="#EEAA18" stroke="#131516" stroke-width="129" cx="40443" cy="28309" r="404"/>
   <circle fill="#EEAA18" stroke="#131516" stroke-width="129" cx="40852" cy="27612" r="404"/>
   <circle fill="#EEAA18" stroke="#131516" stroke-width="129" cx="41305" cy="26950" r="404"/>
   <circle fill="#EEAA18" stroke="#131516" stroke-width="129" cx="41795" cy="26314" r="404"/>
   <circle fill="#EEAA18" stroke="#131516" stroke-width="129" cx="42330" cy="25714" r="404"/>
   <circle fill="#EEAA18" stroke="#131516" stroke-width="129" cx="42907" cy="25149" r="404"/>
   <circle fill="#EEAA18" stroke="#131516" stroke-width="129" cx="43515" cy="24621" r="404"/>
   <circle fill="#EEAA18" stroke="#131516" stroke-width="129" cx="44158" cy="24139" r="404"/>
   <circle fill="#EEAA18" stroke="#131516" stroke-width="129" cx="44831" cy="23697" r="404"/>
   <circle fill="#EEAA18" stroke="#131516" stroke-width="129" cx="45534" cy="23307" r="404"/>
   <circle fill="#EEAA18" stroke="#131516" stroke-width="129" cx="46258" cy="22960" r="404"/>
   <circle fill="#EEAA18" stroke="#131516" stroke-width="129" cx="47007" cy="22658" r="404"/>
   <circle fill="#EEAA18" stroke="#131516" stroke-width="129" cx="47769" cy="22411" r="404"/>
   <circle fill="#EEAA18" stroke="#131516" stroke-width="129" cx="48549" cy="22214" r="404"/>
   <circle fill="#EEAA18" stroke="#131516" stroke-width="129" cx="49341" cy="22066" r="404"/>
   <circle fill="#EEAA18" stroke="#131516" stroke-width="129" cx="50140" cy="21974" r="404"/>
   <circle fill="#EEAA18" stroke="#131516" stroke-width="129" cx="50943" cy="21934" r="404"/>
   <circle fill="#EEAA18" stroke="#131516" stroke-width="129" cx="51748" cy="21948" r="404"/>
   <circle fill="#EEAA18" stroke="#131516" stroke-width="129" cx="52553" cy="22015" r="404"/>
   <circle fill="#EEAA18" stroke="#131516" stroke-width="129" cx="53347" cy="22136" r="404"/>
   <circle fill="#EEAA18" stroke="#131516" stroke-width="129" cx="54136" cy="22306" r="404"/>
   <circle fill="#EEAA18" stroke="#131516" stroke-width="129" cx="54906" cy="22526" r="404"/>
   <circle fill="#EEAA18" stroke="#131516" stroke-width="129" cx="55662" cy="22804" r="404"/>
   <circle fill="#EEAA18" stroke="#131516" stroke-width="129" cx="56397" cy="23127" r="404"/>
   <circle fill="#EEAA18" stroke="#131516" stroke-width="129" cx="57113" cy="23498" r="404"/>
   <circle fill="#EEAA18" stroke="#131516" stroke-width="129" cx="57802" cy="23913" r="404"/>
   <circle fill="#EEAA18" stroke="#131516" stroke-width="129" cx="58462" cy="24379" r="404"/>
   <circle fill="#EEAA18" stroke="#131516" stroke-width="129" cx="59084" cy="24882" r="404"/>
   <circle fill="#EEAA18" stroke="#131516" stroke-width="129" cx="59676" cy="25426" r="404"/>
   <circle fill="#EEAA18" stroke="#131516" stroke-width="129" cx="60233" cy="26010" r="404"/>
   <circle fill="#EEAA18" stroke="#131516" stroke-width="129" cx="60748" cy="26624" r="404"/>
   <circle fill="#EEAA18" stroke="#131516" stroke-width="129" cx="61219" cy="27278" r="404"/>
   <circle fill="#EEAA18" stroke="#131516" stroke-width="129" cx="61647" cy="27956" r="404"/>
   <circle fill="#EEAA18" stroke="#131516" stroke-width="129" cx="62032" cy="28664" r="404"/>
   <circle fill="#EEAA18" stroke="#131516" stroke-width="129" cx="62368" cy="29397" r="404"/>
   <circle fill="#EEAA18" stroke="#131516" stroke-width="129" cx="62656" cy="30148" r="404"/>
   <circle fill="#EEAA18" stroke="#131516" stroke-width="129" cx="62891" cy="30921" r="404"/>
   <circle fill="#EEAA18" stroke="#131516" stroke-width="129" cx="63076" cy="31704" r="404"/>
   <circle fill="#EEAA18" stroke="#131516" stroke-width="129" cx="63208" cy="32495" r="404"/>
   <circle fill="#EEAA18" stroke="#131516" stroke-width="129" cx="63286" cy="33295" r="404"/>
   <path fill="#131516" d="M58063 27437c-10,-100 -99,-170 -196,-162 -100,11 -170,100 -159,200 8,96 97,169 197,158 97,-10 169,-99 158,-196l0 0z"/>
   <circle fill="#EEAA18" stroke="#131516" stroke-width="129" cx="63316" cy="34097" r="404"/>
   <path fill="#FFFFFF" stroke="#131516" stroke-width="99" d="M44253 27267l0 11493c726,3290 5467,2856 6897,4337 1430,-1481 6171,-1047 6897,-4337l0 -11493 -13794 0 0 0z"/>
   <path fill="#D52C27" stroke="#D52C27" stroke-width="99" d="M51150 34100l3131 0 0 7681c-1343,304 -2455,619 -3131,1284l0 -8965 0 0z"/>
   <rect fill="#D52C27" x="51150" y="32544" width="6897" height="1556"/>
   <path fill="#992F2F" stroke="#131516" stroke-width="99" d="M55802 36477c-153,16 -293,-48 -425,-194 218,-48 438,-5 657,30 94,172 64,261 -232,164z"/>
   <rect fill="#978169" stroke="#131516" stroke-width="99" x="53331" y="35578" width="140" height="75"/>
   <path fill="#009544" stroke="#131516" stroke-width="99" d="M46904 39086c-150,-5 -277,-78 -395,-186 -41,-97 16,-164 175,-196 196,94 366,102 530,99 167,-13 331,65 495,124 -266,127 -535,164 -805,159z"/>
   <rect fill="#978169" stroke="#131516" stroke-width="99" x="53511" y="35581" width="140" height="75"/>
   <rect fill="#978169" stroke="#131516" stroke-width="99" x="51985" y="35575" width="140" height="75"/>
   <rect fill="#978169" stroke="#131516" stroke-width="99" x="52165" y="35573" width="140" height="75"/>
   <rect fill="#978169" stroke="#131516" stroke-width="99" x="52574" y="35368" width="207" height="92"/>
   <rect fill="#978169" stroke="#131516" stroke-width="99" x="52859" y="35368" width="207" height="92"/>
   <path fill="#978169" stroke="#131516" stroke-width="99" d="M51836 39412l3 -792 277 -218 0 -1763 1433 0 0 1763 280 218 0 805 -574 -143c68,-1410 -834,-1636 -824,25l-595 105 0 0z"/>
   <rect fill="#D52C27" x="44899" y="29211" width="571" height="4889"/>
   <rect fill="#D52C27" x="45911" y="29211" width="571" height="4889"/>
   <rect fill="#D52C27" x="46939" y="29211" width="571" height="4889"/>
   <rect fill="#D52C27" x="47952" y="29211" width="571" height="4889"/>
   <rect fill="#D52C27" x="49010" y="29211" width="571" height="4889"/>
   <rect fill="#D52C27" x="50065" y="29211" width="571" height="4889"/>
   <rect fill="#322073" x="44247" y="27265" width="6903" height="2008"/>
   <path fill="none" stroke="#131516" stroke-width="99" d="M44255 34100l13792 0"/>
   <path fill="none" stroke="#131516" stroke-width="99" d="M51150 27265l0 15813"/>
   <path fill="#FFFFFF" d="M48172 27536l95 289 301 0 -245 175 94 288 -245 -178 -245 178 95 -288 -245 -175 301 0 94 -289 0 0zm46 143m199 146m27 86m-75 234m-75 54m-243 0m-75 -54m-75 -234m26 -86m200 -146"/>
   <path fill="#FFFFFF" d="M47333 27536l91 289 302 0 -243 175 92 288 -243 -178 -245 178 92 -288 -242 -175 301 0 94 -289 1 0zm45 143m197 146m29 86m-75 234m-75 54m-245 0m-76 -54m-75 -234m29 -86m197 -146"/>
   <path fill="#FFFFFF" d="M46511 27536l95 289 301 0 -245 175 94 288 -245 -178 -242 178 92 -288 -243 -175 302 0 91 -289 0 0zm46 143m199 146m27 86m-75 234m-76 54m-242 0m-75 -54m-76 -234m30 -86m197 -146"/>
   <path fill="#FFFFFF" d="M45682 27536l92 289 301 0 -242 175 91 288 -242 -178 -245 178 94 -288 -245 -175 302 0 94 -289 0 0zm46 143m196 146m30 86m-75 234m-76 54m-245 0m-75 -54m-75 -234m29 -86m197 -146"/>
   <path fill="#FFFFFF" d="M48969 27536l95 289 301 0 -245 175 94 288 -245 -178 -242 178 92 -288 -243 -175 302 0 91 -289 0 0zm49 143m196 146m30 86m-75 234m-76 54m-245 0m-75 -54m-76 -234m30 -86m197 -146"/>
   <path fill="#FFFFFF" d="M49801 27536l92 289 301 0 -242 175 92 288 -243 -178 -245 178 94 -288 -245 -175 302 0 94 -289 0 0zm46 143m197 146m29 86m-75 234m-76 54m-245 0m-75 -54m-75 -234m29 -86m197 -146"/>
   <path fill="#FFFFFF" d="M48579 28150l91 288 302 0 -242 178 91 285 -242 -177 -245 177 94 -285 -245 -178 302 0 94 -288 0 0zm46 146m196 142m30 89m-75 232m-76 54m-245 0m-75 -54m-76 -232m30 -89m197 -142"/>
   <path fill="#FFFFFF" d="M47736 28150l95 288 301 0 -245 178 94 285 -245 -177 -242 177 91 -285 -242 -178 302 0 91 -288 0 0zm49 146m196 142m30 89m-75 232m-76 54m-245 0m-75 -54m-76 -232m30 -89m197 -142"/>
   <path fill="#FFFFFF" d="M46918 28150l94 288 302 0 -245 178 94 285 -245 -177 -245 177 94 -285 -245 -178 302 0 94 -288 0 0zm46 146m199 142m27 89m-76 232m-75 54m-242 0m-76 -54m-75 -232m27 -89m199 -142"/>
   <path fill="#FFFFFF" d="M46089 28150l91 288 302 0 -243 178 92 285 -242 -177 -245 177 94 -285 -245 -178 301 0 95 -288 0 0zm45 146m197 142m30 89m-76 232m-75 54m-245 0m-76 -54m-75 -232m30 -89m196 -142"/>
   <path fill="#FFFFFF" d="M49376 28150l94 288 302 0 -245 178 94 285 -245 -177 -245 177 94 -285 -245 -178 302 0 94 -288 0 0zm46 146m199 142m27 89m-76 232m-75 54m-242 0m-76 -54m-75 -232m27 -89m199 -142"/>
   <path fill="#FFFFFF" d="M50205 28150l94 288 302 0 -245 178 94 285 -245 -177 -242 177 91 -285 -242 -178 302 0 91 -288 0 0zm49 146m196 142m30 89m-76 232m-75 54m-245 0m-76 -54m-75 -232m30 -89m196 -142"/>
   <path fill="#FFFFFF" d="M45241 28150l94 288 301 0 -245 178 95 285 -245 -177 -245 177 94 -285 -245 -178 301 0 95 -288 0 0zm46 146m199 142m27 89m-76 232m-75 54m-242 0m-76 -54m-75 -232m27 -89m199 -142"/>
   <path fill="#D52C27" stroke="#131516" stroke-width="99" d="M52636 28312l167 519 549 0 -444 324 170 519 -442 -320 -444 320 170 -519 -445 -324 549 0 170 -519 0 0zm83 261m359 258m53 162m-137 423m-137 99m-444 0m-138 -99m-134 -423m51 -162m358 -258"/>
   <ellipse fill="#FFFFFF" stroke="#131516" stroke-width="103" cx="53395" cy="29914" rx="97" ry="65"/>
   <path fill="#D52C27" stroke="#131516" stroke-width="103" d="M55172 30694c-78,229 46,512 32,727 -193,3 -387,6 -581,6 59,-62 89,-183 172,-192 -16,-150 -261,-245 -248,-368 175,-167 383,-226 625,-173l0 0z"/>
   <path fill="#D52C27" stroke="#131516" stroke-width="103" d="M54408 29337c174,130 947,251 1456,256 267,35 501,197 703,488 169,568 627,888 508,1321 -177,6 -355,11 -533,17 -40,-103 17,-159 167,-175 54,-30 54,-60 0,-89 -172,21 -344,-43 -517,-191 -88,72 -175,142 -263,215 45,223 5,339 -119,350 -170,0 -342,0 -511,0 5,-127 86,-213 239,-256 -113,-56 -164,-231 -150,-525 -205,0 -410,0 -614,0 -89,140 -240,283 -455,423 -86,83 -165,196 -232,342 -234,8 -471,16 -708,24 27,-186 137,-275 334,-269 11,-59 54,-97 129,-113 30,-156 100,-291 216,-407 -84,-29 -165,-59 -248,-86 -256,-43 -423,3 -549,86 -92,-56 -181,-110 -272,-167 -43,-45 -43,-91 0,-134 102,-154 202,-310 304,-463 371,-178 1023,-620 1115,-647l0 0z"/>
   <path fill="none" stroke="#131516" stroke-width="103" stroke-linecap="round" d="M56195 30961c113,-175 180,-374 202,-595"/>
   <path fill="none" stroke="#131516" stroke-width="103" stroke-linecap="round" d="M55385 30748c56,-116 86,-301 102,-417"/>
   <path fill="none" stroke="#131516" stroke-width="103" stroke-linecap="round" d="M54776 30748c116,-132 130,-264 46,-395"/>
   <path fill="none" stroke="#131516" stroke-width="103" stroke-linecap="round" d="M53778 30649c80,-78 142,-173 191,-283"/>
   <path fill="none" stroke="#131516" stroke-width="103" stroke-linecap="round" d="M53086 30624c45,-37 105,-62 169,-75"/>
   <path fill="none" stroke="#131516" stroke-width="103" stroke-linecap="round" d="M53296 30296l89 -59"/>
   <ellipse fill="#FFFFFF" stroke="#131516" stroke-width="103" cx="53605" cy="29841" rx="100" ry="70"/>
   <path fill="#009544" stroke="#131516" stroke-width="99" d="M43353 36025c-175,425 -753,1147 -175,1723 79,-490 197,-980 458,-1470 -137,-84 -148,-170 -283,-253l0 0z"/>
   <path fill="#009544" stroke="#131516" stroke-width="99" d="M43257 30732c-184,294 -350,622 -396,1185 -832,1338 -504,2272 -372,3273 471,-608 237,-1884 466,-3018 -89,606 -250,1287 237,1403 126,-439 -124,-837 -170,-1263 208,595 418,1193 768,1788 150,-735 -132,-1470 -493,-2205 -129,-390 83,-651 218,-1066 153,51 328,-463 299,-700 -286,162 -450,372 -557,603l0 0z"/>
   <path fill="none" stroke="#131516" stroke-width="99" d="M43119 37032c127,-361 234,-649 296,-778"/>
   <ellipse fill="url(#id0)" stroke="#131516" stroke-width="99" cx="43364" cy="34025" rx="355" ry="466"/>
   <path fill="#009544" stroke="#131516" stroke-width="99" d="M43518 36870c140,-366 247,-759 118,-1351 -118,67 -237,134 -355,202 21,382 124,767 237,1149z"/>
   <circle fill="url(#id1)" stroke="#131516" stroke-width="99" cx="51150" cy="26869" r="191"/>
   <ellipse fill="url(#id2)" stroke="#131516" stroke-width="99" cx="51680" cy="26869" rx="213" ry="234"/>
   <ellipse fill="url(#id3)" stroke="#131516" stroke-width="99" cx="50760" cy="26497" rx="226" ry="202"/>
   <circle fill="url(#id4)" stroke="#131516" stroke-width="99" cx="50577" cy="26083" r="213"/>
   <ellipse fill="url(#id5)" stroke="#131516" stroke-width="99" cx="51532" cy="26232" rx="191" ry="188"/>
   <circle fill="url(#id6)" stroke="#131516" stroke-width="99" cx="50894" cy="25892" r="170"/>
   <circle fill="url(#id7)" stroke="#131516" stroke-width="99" cx="51215" cy="26425" r="234"/>
   <circle fill="url(#id8)" stroke="#131516" stroke-width="99" cx="50937" cy="26190" r="191"/>
   <circle fill="url(#id9)" stroke="#131516" stroke-width="99" cx="51766" cy="26443" r="213"/>
   <circle fill="url(#id10)" stroke="#131516" stroke-width="99" cx="51446" cy="26656" r="213"/>
   <circle fill="url(#id11)" stroke="#131516" stroke-width="99" cx="51150" cy="25574" r="191"/>
   <circle fill="url(#id12)" stroke="#131516" stroke-width="99" cx="51236" cy="26042" r="213"/>
   <circle fill="url(#id13)" stroke="#131516" stroke-width="99" cx="51532" cy="25808" r="213"/>
   <ellipse fill="url(#id14)" stroke="#131516" stroke-width="99" cx="43467" cy="35198" rx="337" ry="541"/>
   <ellipse fill="url(#id15)" stroke="#131516" stroke-width="99" cx="51893" cy="25956" rx="256" ry="234"/>
   <path fill="#009544" stroke="#131516" stroke-width="99" d="M52884 25744c5,-445 385,-256 783,-289 -11,307 -51,582 -309,641 88,178 199,296 328,350 -89,59 -178,108 -267,84 -69,142 -75,288 -21,430 -221,22 -398,-102 -536,-368 -145,91 -288,113 -433,123 -41,-193 0,-385 124,-578 -173,35 -345,-35 -517,-208 320,-404 611,-562 848,-185l0 0z"/>
   <path fill="#009544" stroke="#131516" stroke-width="99" d="M49882 25997c199,-404 441,-754 974,-727 318,334 -8,570 -355,805 -99,261 -213,484 -544,280 -83,379 -446,425 -727,570 52,-234 135,-463 450,-632 -121,-6 -248,-33 -404,-202 140,-78 280,-156 420,-232 -312,-51 -307,-290 -124,-635 237,-92 474,-205 711,108 -135,223 -269,444 -401,665l0 0z"/>
   <path fill="#009544" stroke="#131516" stroke-width="99" d="M53048 25641c-433,-75 -867,-167 -1300,-21 -660,8 -1319,16 -1979,21 -627,100 -1252,312 -1877,579 170,-334 700,-622 1753,-845 665,-8 1333,-17 2000,-22 813,-291 978,-121 1287,148 240,49 482,94 724,140 323,189 649,380 975,568 -331,-178 -520,-169 -571,24 92,-331 -226,-441 -603,-522 -134,-148 -272,-169 -409,-70l0 0z"/>
   <path fill="none" stroke="#131516" stroke-width="99" d="M50081 26013l111 140"/>
   <path fill="none" stroke="#131516" stroke-width="99" d="M49758 25703l-110 -124"/>
   <path fill="none" stroke="#131516" stroke-width="99" d="M50391 25735l264 -32"/>
   <path fill="none" stroke="#131516" stroke-width="99" d="M53131 26508l-231 -573"/>
   <path fill="none" stroke="#131516" stroke-width="99" d="M52434 25859l170 0"/>
   <path fill="none" stroke="#131516" stroke-width="99" d="M53131 25843l62 -170"/>
   <path fill="none" stroke="#131516" stroke-width="99" d="M52666 26430l110 -75"/>
   <path fill="none" stroke="#131516" stroke-width="99" d="M53210 26215l61 62"/>
   <path fill="#009544" stroke="#131516" stroke-width="99" d="M59221 30519c41,154 81,305 119,458 -472,533 -585,1136 -337,1806 -83,68 -170,135 -253,202 -452,-840 105,-1744 471,-2466z"/>
   <path fill="#009544" stroke="#131516" stroke-width="99" d="M58586 37207c654,-302 829,-864 428,-1745 -539,205 -256,875 -428,1745z"/>
   <path fill="none" stroke="#131516" stroke-width="99" d="M58925 36617c78,-296 -40,-627 62,-783"/>
   <path fill="#009544" stroke="#131516" stroke-width="99" d="M58516 34558c-11,309 -38,597 -86,869 183,-124 339,-352 484,-627 -132,-81 -266,-162 -398,-242l0 0z"/>
   <path fill="#009544" stroke="#131516" stroke-width="99" d="M59628 34684c35,205 121,409 228,614 -301,73 -543,-22 -656,-485 142,-43 285,-86 428,-129l0 0z"/>
   <path fill="#009544" stroke="#131516" stroke-width="99" d="M59157 36084c-458,-390 -431,-781 -71,-1171 356,412 426,805 71,1171z"/>
   <ellipse fill="url(#id16)" stroke="#131516" stroke-width="99" cx="59003" cy="33384" rx="641" ry="582"/>
   <ellipse fill="url(#id17)" stroke="#131516" stroke-width="99" cx="59070" cy="34437" rx="641" ry="608"/>
   <path fill="#009544" stroke="#131516" stroke-width="99" d="M59307 32479c649,-460 803,560 286,1379 -827,-999 -889,-1397 -286,-1379z"/>
   <path fill="none" stroke="#131516" stroke-width="99" d="M59539 33185c48,-256 8,-515 -226,-700"/>
   <path fill="none" stroke="#131516" stroke-width="99" d="M43534 34218l-154 135"/>
   <path fill="none" stroke="#131516" stroke-width="99" d="M43534 35484l134 0"/>
   <path fill="none" stroke="#131516" stroke-width="99" d="M43491 35710l35 458"/>
   <ellipse fill="url(#id18)" stroke="#131516" stroke-width="99" cx="43135" cy="35831" rx="312" ry="363"/>
   <path fill="none" stroke="#131516" stroke-width="99" d="M42993 35993l237 -35"/>
   <ellipse fill="url(#id19)" stroke="#131516" stroke-width="99" cx="43178" cy="34819" rx="288" ry="482"/>
   <path fill="none" stroke="#131516" stroke-width="99" d="M43060 35080l221 0"/>
   <path fill="none" stroke="#131516" stroke-width="99" d="M59095 35632c97,-202 -3,-461 13,-603"/>
   <path fill="#009544" stroke="#131516" stroke-width="99" d="M58637 33928c145,124 248,247 81,366 -154,-121 -154,-245 -81,-366z"/>
   <path fill="#009544" stroke="#131516" stroke-width="99" d="M58718 34299c107,156 175,364 -16,434 -119,-156 -87,-337 16,-434z"/>
   <path fill="#978169" stroke="#131516" stroke-width="99" d="M53037 39487l883 0 0 -310 -587 0 0 -263 584 0 3 -264 -587 0 0 -294c-2,-142 -280,-401 -495,-401 -218,0 -493,259 -495,401l0 294 -590 0 3 264 587 0 0 263 -590 0 0 310 883 0 -3 -1023c14,-245 385,-299 418,0l-14 1023z"/>
   <rect fill="#978169" stroke="#131516" stroke-width="99" x="51971" y="36531" width="1701" height="202"/>
   <rect fill="#978169" stroke="#131516" stroke-width="99" x="51893" y="36345" width="1858" height="202"/>
   <rect fill="#978169" stroke="#131516" stroke-width="99" x="51958" y="36087" width="398" height="172"/>
   <rect fill="#978169" stroke="#131516" stroke-width="99" x="53274" y="36087" width="398" height="172"/>
   <rect fill="#978169" stroke="#131516" stroke-width="99" x="52633" y="35632" width="407" height="512"/>
   <rect fill="#978169" stroke="#131516" stroke-width="99" x="52596" y="36087" width="471" height="172"/>
   <rect fill="none" stroke="#D52C27" stroke-width="99" x="53341" y="35828" width="277" height="256"/>
   <rect fill="#978169" stroke="#131516" stroke-width="99" x="53320" y="35667" width="337" height="175"/>
   <rect fill="#978169" stroke="#131516" stroke-width="99" x="53341" y="35828" width="277" height="256"/>
   <rect fill="#978169" stroke="#131516" stroke-width="99" x="51974" y="35661" width="337" height="175"/>
   <rect fill="#978169" stroke="#131516" stroke-width="99" x="51995" y="35823" width="277" height="256"/>
   <rect fill="#978169" stroke="#131516" stroke-width="99" x="52553" y="35451" width="536" height="215"/>
   <path fill="none" stroke="#131516" stroke-width="103" stroke-linecap="round" d="M52835 36006l0 -164"/>
   <path fill="#897864" stroke="#131516" stroke-width="99" d="M52326 37266c11,-374 356,-420 369,0l-369 0z"/>
   <rect fill="#897864" stroke="#131516" stroke-width="99" x="52318" y="37538" width="377" height="159"/>
   <path fill="#131516" stroke="#131516" stroke-width="99" d="M52391 37541c73,0 148,0 224,0 10,-151 -14,-294 -103,-445 -81,135 -126,275 -121,445z"/>
   <path fill="#897864" stroke="#131516" stroke-width="99" d="M52981 37266c13,-374 358,-420 369,0l-369 0z"/>
   <rect fill="#897864" stroke="#131516" stroke-width="99" x="52975" y="37538" width="377" height="159"/>
   <path fill="#131516" stroke="#131516" stroke-width="99" d="M53045 37541c76,0 151,0 224,0 13,-151 -11,-294 -103,-445 -78,135 -126,275 -121,445z"/>
   <rect fill="#978169" stroke="#131516" stroke-width="99" x="51893" y="36221" width="1858" height="167"/>
   <path fill="none" stroke="#131516" stroke-width="99" d="M52862 38278l-91 -145 -95 -146 186 0 186 0 -94 146 -92 145z"/>
   <path fill="#D52C27" stroke="#131516" stroke-width="103" d="M57156 38187c253,-60 401,-191 81,-536 -374,-528 -296,-778 -97,-966 167,-181 302,-221 512,-79 62,68 43,283 88,299 138,33 132,154 65,291 -113,129 -296,48 -312,-78 11,-132 13,-404 -135,-355 -264,191 -183,406 -48,573 188,218 296,450 325,695 -27,398 -250,374 -463,371 -5,-70 -10,-143 -16,-215l0 0z"/>
   <path fill="none" d="M40968 34302c0,-5608 4572,-10179 10177,-10179 5607,0 10179,4571 10179,10179"/>
   <path fill="#131516" d="M40941 29128l391 150 -11 27c-129,-19 -234,-8 -315,30 -78,40 -140,105 -181,194 -35,72 -48,148 -37,226 11,78 48,153 113,226 67,73 161,137 285,194 100,48 197,72 286,75 88,3 167,-21 236,-67 71,-46 127,-113 165,-197 35,-72 48,-142 43,-212 -6,-70 -38,-159 -100,-270l27 -18c76,102 116,202 129,298 11,97 -8,197 -56,299 -86,186 -221,296 -407,334 -137,27 -274,11 -412,-54 -113,-54 -204,-126 -274,-218 -70,-94 -111,-196 -121,-309 -8,-111 10,-218 59,-323 38,-79 94,-151 170,-210 21,-17 37,-33 40,-41 8,-16 8,-29 3,-46 -9,-21 -25,-43 -46,-59l13 -29 0 0z"/>
   <path fill="#131516" d="M42527 28802l30 19 -264 455 -30 -17 22 -37c24,-43 32,-84 16,-119 -8,-21 -46,-51 -111,-89l-689 -398c-54,-30 -91,-48 -113,-51 -16,-3 -32,3 -51,13 -27,16 -46,35 -62,62l-21 38 -30 -16 264 -458 29 16 -21 38c-24,43 -30,83 -16,118 8,22 46,52 110,89l689 399c54,32 92,48 113,51 16,3 33,-3 51,-14 27,-16 46,-35 62,-59l22 -40 0 0z"/>
   <path fill="#131516" d="M42435 26941l235 170 -22 27c-43,-27 -78,-43 -102,-46 -38,-8 -76,-5 -108,8 -32,14 -64,41 -97,81l-107 135 729 592c59,49 102,73 127,70 35,0 67,-21 97,-59l26 -33 27 22 -331 407 -24 -22 27 -35c32,-40 43,-78 32,-116 -5,-21 -35,-54 -89,-97l-732 -595 -94 116c-35,46 -59,81 -67,105 -11,30 -11,65 0,102 13,41 37,78 78,116l-22 27 -215 -194 632 -781z"/>
   <path fill="#131516" d="M43378 25948l315 -293 21 27 -16 16c-11,11 -24,29 -35,62 -13,29 -21,64 -21,99 0,35 8,89 21,156l100 544 212 226c52,57 89,84 116,87 32,2 67,-14 105,-46l30 -27 21 24 -382 358 -24 -27 32 -29c40,-35 57,-70 48,-111 -2,-21 -26,-59 -75,-110l-199 -213 -598 -145c-70,-19 -116,-27 -137,-30 -22,0 -54,6 -102,22 -14,2 -27,13 -46,29l-22 -24 385 -361 25 25 -22 18c-22,19 -35,43 -43,70 -8,25 -3,49 13,68 17,16 57,32 122,48l460 116 -84 -444c-10,-65 -26,-111 -45,-130 -11,-13 -27,-21 -41,-24 -16,-5 -32,-2 -48,3 -19,5 -38,19 -62,40l-24 -24 0 0z"/>
   <path fill="#131516" d="M45173 24554c135,-84 286,-105 450,-65 164,40 293,137 390,293 100,159 132,321 97,488 -35,169 -124,296 -266,385 -143,91 -296,115 -458,72 -161,-40 -293,-142 -396,-304 -102,-167 -132,-336 -83,-511 40,-154 129,-272 266,-358zm22 67c-94,56 -148,140 -162,245 -16,129 27,277 132,444 108,170 226,280 356,326 99,35 196,24 288,-35 97,-62 153,-151 169,-267 16,-116 -27,-256 -129,-422 -110,-178 -229,-288 -355,-334 -100,-35 -199,-19 -299,43l0 0z"/>
   <path fill="#131516" d="M46514 23945l199 444 205 -91c46,-22 75,-46 89,-78 13,-30 8,-78 -11,-143l30 -13 169 382 -29 13c-22,-43 -41,-72 -62,-89 -19,-16 -41,-24 -65,-26 -24,-3 -54,5 -91,21l-205 92 156 355c27,57 46,92 62,108 11,11 30,19 51,19 30,2 59,0 86,-14l41 -19 13 33 -485 215 -13 -32 40 -17c46,-21 76,-51 84,-86 5,-24 -8,-70 -38,-137l-323 -727c-27,-56 -46,-94 -62,-108 -11,-10 -27,-18 -48,-21 -30,-3 -59,3 -86,13l-41 19 -13 -29 837 -375 121 243 -29 13c-38,-46 -70,-78 -100,-94 -32,-16 -62,-22 -97,-22 -32,3 -78,16 -135,41l-250 110z"/>
   <path fill="#131516" d="M49486 23886l30 0 -27 350 -929 213 -8 -33 46 -11c51,-10 83,-35 97,-72 8,-24 5,-68 -11,-137l-181 -773c-16,-76 -34,-121 -56,-137 -30,-19 -67,-25 -110,-14l-46 11 -8 -35 544 -124 8 32c-65,14 -108,30 -132,49 -22,19 -35,37 -41,59 -5,22 0,67 17,137l175 757c10,48 24,81 37,97 8,10 22,16 38,19 16,2 65,-6 140,-22l89 -22c91,-21 156,-43 188,-64 35,-22 62,-54 86,-94 22,-43 41,-105 54,-186z"/>
   <path fill="#131516" d="M50488 22874c161,-11 304,40 428,153 126,113 194,261 207,442 13,185 -35,344 -143,476 -110,132 -247,205 -417,215 -167,11 -315,-37 -439,-150 -124,-113 -191,-264 -204,-455 -14,-194 43,-358 167,-493 107,-113 242,-178 401,-188l0 0zm-11 67c-110,8 -197,54 -256,140 -75,108 -107,261 -94,455 13,202 67,353 161,455 73,78 162,113 270,105 115,-8 207,-59 277,-156 67,-94 97,-240 83,-434 -16,-210 -67,-363 -158,-460 -73,-78 -167,-113 -283,-105l0 0z"/>
   <path fill="#131516" d="M52437 22925l-30 425 -32 -3c-5,-80 -22,-148 -46,-199 -24,-48 -62,-91 -113,-124 -48,-32 -102,-48 -156,-53 -65,-3 -119,10 -162,48 -43,35 -67,78 -70,127 -2,37 8,72 33,105 32,48 118,113 253,199 110,70 186,124 226,159 40,35 70,75 89,124 19,45 27,94 24,142 -5,92 -48,170 -127,232 -75,62 -172,91 -285,83 -35,-3 -67,-8 -100,-16 -18,-5 -56,-19 -113,-40 -59,-25 -94,-36 -110,-38 -16,0 -27,3 -38,11 -8,8 -16,27 -21,56l-35 -3 29 -422 35 3c8,88 25,156 49,201 24,46 62,87 113,119 54,32 113,51 178,56 75,6 137,-10 183,-48 48,-35 72,-81 75,-137 3,-30 -3,-60 -19,-92 -13,-32 -37,-62 -70,-91 -21,-22 -83,-65 -186,-130 -99,-67 -172,-118 -215,-156 -40,-38 -73,-81 -91,-124 -22,-43 -30,-91 -25,-142 6,-89 46,-162 116,-221 73,-59 162,-84 267,-78 64,5 132,27 204,64 33,17 54,27 70,27 16,0 27,-2 38,-10 11,-11 21,-27 30,-57l32 3 0 0z"/>
   <path fill="#131516" d="M54319 24187l-461 -123 -132 166c-32,41 -51,73 -56,95 -6,19 0,37 13,53 14,19 49,38 105,60l-10 32 -375 -102 8 -33c54,6 89,3 108,-8 38,-18 84,-67 145,-145l682 -867 29 8 148 1101c14,89 30,148 51,181 19,29 54,54 103,70l-8 32 -472 -127 11 -32c46,11 81,11 103,3 18,-8 32,-24 37,-43 6,-24 6,-70 -2,-132l-27 -189 0 0zm-8 -72l-73 -536 -334 425 407 111z"/>
   <path fill="#131516" d="M55396 23714l304 134 312 1152 288 -648c32,-70 43,-116 35,-140 -11,-33 -38,-60 -81,-78l-40 -19 13 -30 393 175 -13 30 -40 -19c-49,-19 -89,-22 -122,0 -18,11 -43,48 -70,113l-422 948 -30 -14 -339 -1236 -310 692c-29,70 -43,116 -35,140 11,33 38,60 81,78l40 19 -13 30 -393 -175 16 -30 38 16c48,22 89,25 121,3 22,-11 46,-48 73,-113l347 -783c-13,-52 -27,-89 -40,-108 -11,-19 -30,-43 -60,-67 -13,-11 -35,-25 -67,-41l14 -29 0 0z"/>
   <path fill="#131516" d="M58026 25159l-197 340 -27 -19c30,-100 38,-183 25,-251 -19,-102 -76,-183 -170,-250 -129,-89 -264,-108 -401,-54 -116,49 -215,129 -299,248 -67,97 -110,199 -129,304 -19,105 -11,197 24,277 35,78 83,140 148,186 35,24 75,46 116,59 43,16 86,24 132,30l202 -291c37,-51 56,-86 59,-108 3,-21 0,-43 -11,-61 -11,-19 -35,-44 -75,-70l19 -30 390 275 -19 26 -19 -13c-40,-27 -75,-32 -107,-16 -22,11 -54,43 -92,97l-215 309c-78,-8 -151,-24 -216,-51 -67,-24 -134,-59 -202,-108 -194,-134 -298,-301 -312,-498 -11,-148 27,-282 113,-403 62,-89 143,-159 242,-210 119,-62 240,-89 367,-78 102,8 204,48 306,118 36,27 68,51 95,78 24,27 59,70 99,129 19,30 35,49 46,57 8,5 19,5 32,3 14,-3 30,-19 49,-44l27 19 0 0z"/>
   <path fill="#131516" d="M58731 25881l-334 358 200 183c51,48 91,73 123,73 43,2 89,-22 140,-70l25 21 -294 315 -24 -24c35,-49 54,-84 59,-102 8,-22 6,-46 -5,-73 -8,-24 -33,-57 -70,-92l-199 -183 -278 297c-35,40 -56,64 -62,78 -2,10 -5,24 0,37 6,14 19,32 43,54l154 143c51,48 91,78 121,94 30,13 65,21 105,19 54,0 121,-16 199,-46l27 27 -288 151 -695 -646 25 -25 32 30c19,19 46,32 73,40 21,6 40,6 59,-5 19,-8 48,-35 89,-78l546 -587c54,-57 81,-97 81,-121 0,-32 -19,-67 -54,-102l-32 -30 22 -24 694 649 -172 207 -27 -24c35,-57 54,-100 59,-127 5,-29 3,-59 -11,-89 -13,-21 -40,-56 -86,-97l-245 -231 0 0z"/>
   <path fill="#131516" d="M59609 28051l13 27 -326 129 -600 -741 24 -21 30 35c32,40 70,59 110,56 25,-2 62,-26 116,-70l619 -500c60,-49 92,-86 97,-111 6,-35 -8,-72 -35,-107l-29 -38 27 -22 349 437 -26 18c-41,-51 -73,-80 -100,-94 -27,-13 -51,-16 -73,-11 -21,3 -59,30 -115,76l-604 487c-37,32 -61,57 -69,75 -6,14 -6,30 -3,46 5,14 32,54 83,116l57 70c59,73 108,121 142,140 33,22 76,32 122,35 48,3 110,-8 191,-32l0 0z"/>
   <path fill="#131516" d="M60715 28226l-409 266 148 226c38,60 73,95 102,103 41,10 92,-3 154,-38l16 30 -358 234 -19 -30c46,-40 73,-67 84,-83 10,-22 16,-46 10,-73 -2,-27 -18,-62 -45,-105l-148 -229 -340 221c-46,32 -72,51 -80,62 -9,11 -11,21 -11,35 2,16 11,38 29,65l113 174c38,60 70,100 97,122 25,18 57,35 97,43 51,10 121,13 205,5l21 30 -317 80 -517 -796 27 -19 24 37c16,25 38,44 62,57 19,11 38,13 59,11 19,-6 54,-24 105,-57l671 -436c67,-43 102,-75 110,-100 8,-32 -3,-67 -30,-110l-24 -38 30 -18 517 796 -221 159 -19 -29c48,-46 78,-81 89,-108 13,-27 16,-57 11,-89 -6,-24 -27,-62 -60,-113l-183 -285 0 0z"/>
   <path fill="#131516" d="M61733 29968l-388 180 -13 -32c70,-43 121,-89 153,-135 32,-46 49,-100 54,-159 3,-59 -8,-113 -30,-164 -26,-57 -67,-97 -118,-116 -54,-21 -102,-21 -145,-3 -35,17 -60,43 -78,81 -25,51 -44,159 -52,318 -8,132 -16,223 -29,274 -11,54 -33,100 -65,138 -29,40 -67,70 -113,91 -83,41 -172,41 -264,3 -91,-38 -161,-108 -210,-210 -16,-32 -27,-65 -35,-94 -5,-19 -11,-59 -19,-121 -8,-62 -16,-100 -21,-113 -8,-14 -16,-22 -30,-27 -11,-3 -29,-3 -59,5l-13 -30 382 -177 16 29c-75,52 -126,100 -153,143 -30,41 -46,94 -49,156 -3,62 11,121 38,181 32,70 75,115 129,137 54,24 108,24 156,0 27,-11 51,-32 73,-59 21,-30 38,-65 46,-108 8,-30 13,-105 24,-226 8,-119 19,-207 32,-261 14,-57 35,-103 62,-143 30,-38 67,-67 113,-89 81,-38 164,-40 251,-5 86,35 150,99 196,194 27,59 43,129 43,210 0,37 6,62 11,75 5,13 16,22 29,27 11,5 33,5 62,0l14 30 0 0z"/>
   <path fill="none" d="M41280 34114c0,5435 4434,9866 9867,9866 5436,0 9867,-4431 9867,-9866"/>
   <path fill="#131516" d="M44608 41926l-312 399 183 142c43,35 81,49 116,46 35,-3 78,-30 126,-81l27 22 -267 344 -29 -21c32,-41 48,-73 54,-100 5,-27 2,-51 -8,-72 -11,-25 -33,-49 -65,-73l-186 -145 -250 317c-41,51 -62,89 -70,110 -3,17 -3,36 8,57 11,30 30,54 54,73l38 27 -22 29 -436 -342 21 -27 35 27c43,35 84,46 121,35 25,-5 60,-40 108,-99l512 -657c40,-51 64,-86 70,-108 5,-19 2,-37 -6,-56 -10,-30 -29,-54 -54,-73l-37 -27 21 -30 757 590 -164 232 -27 -22c24,-56 35,-102 35,-137 0,-38 -8,-70 -25,-100 -18,-29 -53,-65 -104,-105l-224 -175 0 0z"/>
   <path fill="#131516" d="M45935 42739c140,92 226,224 261,396 33,175 -2,339 -105,498 -107,164 -247,269 -422,310 -173,40 -334,13 -480,-84 -148,-94 -239,-229 -271,-401 -33,-170 5,-339 113,-509 113,-169 261,-272 449,-304 162,-30 313,3 455,94zm-54 49c-97,-62 -196,-78 -301,-43 -132,40 -253,148 -364,320 -115,178 -164,336 -150,479 10,111 62,197 159,259 99,67 209,80 328,45 116,-37 231,-140 342,-312 118,-183 172,-345 159,-482 -11,-110 -70,-199 -173,-266l0 0z"/>
   <path fill="#131516" d="M47397 43547l14 -32 417 185 -14 30 -45 -19c-46,-21 -89,-16 -132,11 -22,13 -46,51 -76,116l-210 479c-54,116 -105,202 -159,258 -51,54 -123,89 -212,105 -89,16 -191,-2 -310,-54 -129,-56 -215,-123 -264,-196 -45,-76 -67,-156 -62,-243 6,-61 41,-161 103,-304l204 -457c33,-73 43,-124 35,-157 -10,-32 -37,-56 -83,-78l-43 -18 13 -33 509 226 -16 33 -43 -19c-49,-22 -92,-24 -127,-3 -21,16 -48,57 -78,121l-229 515c-18,45 -37,99 -56,161 -19,62 -24,116 -16,159 8,43 27,83 59,124 32,40 78,72 137,99 78,35 154,49 229,41 75,-6 137,-30 183,-73 43,-43 94,-126 151,-250l213 -477c32,-73 43,-124 35,-148 -11,-38 -38,-65 -84,-83l-43 -19 0 0z"/>
   <path fill="#131516" d="M47903 43703l339 92 509 1136 194 -716c19,-79 24,-127 11,-151 -16,-33 -46,-54 -97,-68l-43 -10 11 -35 430 115 -8 35 -43 -13c-54,-13 -94,-8 -126,19 -16,16 -35,59 -54,129l-283 1047 -32 -8 -552 -1222 -205 767c-21,76 -24,127 -13,148 16,33 48,54 97,68l43 13 -8 32 -434 -115 8 -33 46 11c51,14 94,8 124,-19 19,-16 38,-59 57,-126l231 -867c-24,-51 -46,-86 -59,-105 -16,-19 -40,-38 -73,-59 -16,-11 -43,-19 -78,-30l8 -35 0 0z"/>
   <path fill="#131516" d="M49241 45386l6 -35 48 5c54,5 94,-8 121,-40 16,-19 27,-65 35,-138l86 -826c8,-81 6,-132 -10,-154 -22,-29 -57,-48 -105,-54l-49 -5 3 -35 522 57c191,18 334,56 431,110 94,54 167,135 218,242 48,108 67,229 54,361 -19,178 -89,320 -210,431 -135,118 -329,167 -576,140l-574 -59 0 0zm377 -54c78,27 143,40 199,48 146,14 272,-24 380,-116 105,-94 170,-228 188,-403 19,-178 -16,-321 -102,-434 -86,-113 -204,-175 -355,-191 -57,-5 -121,-5 -197,5l-113 1091 0 0z"/>
   <path fill="#131516" d="M51266 44295l11 509 282 -5c73,-3 121,-14 146,-38 32,-30 51,-81 53,-153l35 0 8 446 -35 0c-10,-61 -21,-102 -29,-118 -14,-22 -32,-40 -57,-51 -27,-14 -67,-19 -121,-16l-282 2 8 426c0,56 2,91 8,105 5,11 16,21 27,27 13,8 37,10 72,10l218 -5c73,0 127,-5 159,-16 32,-11 65,-32 94,-62 38,-40 78,-100 119,-180l38 0 -105 325 -994 17 0 -35 46 0c30,-3 59,-8 86,-25 19,-11 32,-27 40,-45 6,-22 9,-62 9,-124l-14 -838c-3,-80 -11,-132 -27,-150 -24,-25 -62,-38 -116,-35l-45 0 0 -35 990 -16 19 280 -35 0c-16,-68 -32,-114 -48,-138 -17,-27 -41,-46 -73,-56 -24,-11 -70,-14 -135,-14l-352 8 0 0z"/>
   <path fill="#131516" d="M52370 45475l-6 -36 49 -8c53,-10 88,-35 105,-72 8,-22 8,-70 -6,-143l-145 -818c-14,-79 -30,-127 -51,-143 -30,-24 -68,-32 -116,-24l-49 10 -5 -35 517 -91c188,-35 337,-38 444,-11 105,24 197,84 275,172 78,89 129,200 153,332 30,177 3,333 -83,471 -97,153 -269,250 -514,296l-568 99 0 1zm344 -157c84,3 151,0 205,-8 145,-27 255,-97 334,-218 78,-118 99,-264 70,-436 -30,-178 -103,-307 -216,-390 -113,-84 -245,-113 -396,-87 -56,11 -118,30 -185,60l188 1079 0 0z"/>
   <path fill="#131516" d="M54502 43789l237 -256 29 -10 391 1015c24,67 43,107 56,121 11,16 27,24 49,27 21,0 59,-8 113,-27l13 32 -452 172 -11 -32c54,-22 89,-40 102,-57 14,-13 22,-29 22,-48 3,-16 -11,-62 -40,-132l-248 -649c-35,-89 -59,-142 -73,-164 -13,-19 -24,-30 -40,-35 -14,-3 -30,-3 -43,3 -22,8 -49,29 -81,62l-24 -22 0 0z"/>
   <path fill="#131516" d="M55457 43245l622 -304 16 32 176 1338 -97 46 -162 -1211 -320 156c-62,32 -105,62 -124,91 -35,49 -54,108 -57,175l-29 3 -25 -326 0 0z"/>
   <path fill="#131516" d="M56925 43175c-132,-16 -224,-37 -275,-67 -51,-27 -91,-62 -121,-108 -43,-72 -54,-150 -32,-237 24,-83 80,-156 169,-212 89,-54 175,-76 259,-62 83,16 145,54 183,116 24,40 35,88 32,150 0,59 -30,148 -86,264 140,14 239,32 296,54 75,30 132,75 170,135 46,78 59,161 35,253 -25,88 -87,164 -181,223 -102,67 -204,84 -304,57 -78,-25 -137,-68 -175,-130 -29,-48 -43,-105 -40,-172 2,-70 27,-156 70,-264l0 0zm72 -164c27,-100 41,-169 35,-215 -2,-43 -19,-86 -45,-130 -35,-56 -78,-91 -130,-102 -51,-13 -105,-2 -158,32 -57,35 -89,79 -105,132 -14,54 -8,100 18,143 17,27 41,51 73,70 32,19 70,35 110,43l202 27 0 0zm-16 172c-21,65 -29,127 -21,183 5,60 24,114 56,165 43,70 97,113 162,132 62,16 124,8 183,-30 56,-35 94,-81 107,-135 17,-53 9,-105 -21,-153 -24,-38 -57,-65 -94,-84 -76,-32 -199,-59 -372,-78l0 0z"/>
   <path fill="#131516" d="M57460 42158l159 -310 24 -19 655 867c43,59 72,94 89,102 16,11 32,16 53,11 22,-3 57,-21 103,-56l21 29 -387 291 -22 -30c48,-37 78,-64 86,-83 8,-16 11,-35 8,-51 -5,-16 -29,-57 -75,-119l-420 -554c-57,-73 -94,-121 -116,-138 -16,-13 -30,-21 -46,-21 -16,0 -29,5 -43,13 -19,14 -37,43 -59,84l-30 -16 0 0z"/>
   <path fill="#D52C27" stroke="#131516" stroke-width="103" d="M56513 36038c210,103 299,256 371,412 89,70 68,154 -62,248 6,62 14,124 19,186 135,89 97,180 -19,269 -166,100 -239,312 -269,576 -113,110 229,269 641,433 65,270 86,504 -207,496 -89,83 -68,151 62,207 226,-91 317,0 269,267 -84,158 -194,274 -331,352 -221,0 -439,0 -660,0 35,-132 151,-207 350,-228 59,-81 78,-154 83,-205 -185,75 -371,108 -557,102 -8,116 -83,234 -226,350 -229,0 -455,0 -681,0 97,-151 221,-221 372,-204 110,-57 110,-111 0,-167 5,-62 13,-124 18,-186 -115,105 -226,145 -315,81 -75,-151 -89,-210 27,-307 146,-97 288,-191 434,-288 164,-14 331,-27 495,-43 -345,-157 -536,-364 -579,-523 -390,78 -783,122 -1174,-75 -24,-156 -13,-315 -83,-474 83,22 151,14 207,-21 173,113 342,129 515,105 -157,-299 -361,-534 -598,-722 -54,-91 -27,-153 83,-186 30,-83 51,-167 0,-247 62,89 111,40 143,-146 162,113 261,245 229,412 24,137 89,275 226,415 102,51 205,86 310,0 5,-146 150,-194 433,-146 94,-70 81,-137 -43,-207 -89,11 -151,-13 -186,-83 103,29 175,8 221,-43 -16,-84 -100,-140 -253,-170 -30,-67 -19,-135 32,-202 207,-67 442,-81 703,-38l0 0z"/>
   <path fill="none" stroke="#131516" stroke-width="99" d="M55942 37193c299,-2 528,-169 724,-409"/>
   <path fill="none" stroke="#131516" stroke-width="99" d="M56583 37546c-234,194 -539,283 -827,320"/>
   <path fill="none" stroke="#131516" stroke-width="99" d="M56217 36157l126 21"/>
   <path fill="#FFFFFF" stroke="#131516" stroke-width="99" d="M56109 38962c0,-197 105,-234 312,-118 -78,105 -183,142 -312,118z"/>
   <path fill="none" stroke="#131516" stroke-width="99" d="M55221 37401c91,-27 191,-60 282,-143"/>
   <path fill="none" stroke="#131516" stroke-width="99" d="M54704 37314l-6 -145"/>
   <path fill="none" stroke="#131516" stroke-width="99" d="M54569 37686l-108 0"/>
   <path fill="none" stroke="#131516" stroke-width="99" d="M54615 36553l-86 -38"/>
   <path fill="#FFFFFF" stroke="#131516" stroke-width="99" d="M56437 36020l19 -445 194 186 121 -132 81 232 250 -19 -45 194 215 145 -455 121 -380 -282z"/>
   <path fill="none" stroke="#131516" stroke-width="99" d="M57038 36240c-162,-167 -348,-320 -582,-452"/>
   <path fill="#F3E400" stroke="#131516" stroke-width="99" d="M47462 36194c-132,-129 -264,-277 -396,-557 -197,-113 -390,-75 -584,108 -684,762 -671,1936 -267,3341 283,-159 501,-385 638,-689 113,207 291,385 609,503 -43,285 -86,568 -132,851 -197,280 -493,428 -776,624 827,141 1632,60 2421,11 -84,-202 -221,-385 -477,-530 124,-326 248,-654 372,-980 78,-347 159,-692 237,-1037 -97,633 88,778 398,956 11,229 108,461 291,689 379,-1410 748,-2743 27,-3661 -229,-232 -458,-261 -689,0 -146,269 -323,393 -531,371 -180,-94 -237,-218 -27,-395 35,-62 73,-121 108,-183 118,-3 223,8 237,129 102,-170 89,-202 -11,-312 -97,-54 -199,-87 -307,-87 -24,-129 -148,-207 -371,-239 -270,-41 -410,64 -423,293 32,264 -83,531 -347,794l0 0z"/>
   <path fill="#807239" d="M49925 36458c46,-118 -280,-543 -482,-576 -175,73 -304,202 -390,391 -8,115 40,201 148,258 242,19 482,-5 724,-73z"/>
   <path fill="#807239" d="M46299 36701c97,99 632,-159 907,-307 86,-57 -248,-380 -361,-372 -258,127 -614,531 -546,679l0 0z"/>
   <path fill="none" stroke="#131516" stroke-width="99" d="M47357 40443c342,-140 681,-345 1023,-584"/>
   <path fill="#807239" d="M47612 37069c-27,-223 38,-414 291,-543 -62,-111 -32,-221 92,-332 110,79 159,170 148,278 132,-84 285,-102 449,-92 -48,234 -97,469 -145,703 -48,132 13,239 92,345 156,-27 298,-87 425,-173 388,46 406,170 51,369 -153,27 -307,54 -463,81 -188,221 -205,441 -145,662 177,-11 352,24 530,108 -67,256 -132,511 -199,767 -350,43 -698,89 -1047,132 5,-189 8,-380 13,-568 3,-199 110,-377 267,-544 64,-118 -240,-563 -359,-1193l0 0z"/>
   <path fill="none" stroke="#131516" stroke-width="99" d="M46242 36870l805 -277"/>
   <path fill="none" stroke="#131516" stroke-width="99" d="M50057 36905c-92,638 -229,1279 -412,1917"/>
   <path fill="none" stroke="#131516" stroke-width="99" d="M49871 36905c-24,571 -121,1142 -269,1713"/>
   <path fill="none" stroke="#131516" stroke-width="99" d="M49602 36865c22,554 -19,1112 -124,1669"/>
   <path fill="none" stroke="#131516" stroke-width="99" d="M49438 36946c27,517 -6,1031 -103,1548"/>
   <path fill="none" stroke="#131516" stroke-width="99" d="M49212 38329c24,-463 16,-923 -22,-1383"/>
   <path fill="none" stroke="#131516" stroke-width="99" d="M48985 38246l-21 -1650"/>
   <path fill="none" stroke="#131516" stroke-width="99" d="M48757 37419c-6,-239 8,-479 62,-721"/>
   <path fill="none" stroke="#131516" stroke-width="99" d="M48800 38370l0 -350"/>
   <path fill="#FFFFFF" d="M48428 36068c-223,-73 -444,-140 -667,-213 97,-169 86,-436 75,-525 54,-212 240,-210 436,-194 156,30 240,89 312,205 17,100 38,205 38,326 -40,126 -240,213 -194,401z"/>
   <path fill="none" stroke="#131516" stroke-width="99" d="M46323 36946c-32,718 43,1375 167,2000"/>
   <path fill="none" stroke="#131516" stroke-width="99" d="M46261 38432c0,-310 -19,-619 -81,-929"/>
   <path fill="none" stroke="#131516" stroke-width="99" d="M46840 36946l0 764"/>
   <path fill="none" stroke="#131516" stroke-width="99" d="M46447 36967c-11,759 54,1314 167,1731"/>
   <path fill="none" stroke="#131516" stroke-width="99" d="M46861 38039c-191,-78 -274,-436 -247,-1072"/>
   <path fill="#807239" d="M47376 36658c40,385 21,770 61,1155 130,99 97,279 41,473 89,-142 183,-269 331,-288 148,191 108,385 40,576 -97,124 -191,248 -288,372 -10,-178 -80,-355 -557,-536 35,-597 54,-1195 186,-1793 62,-81 124,-67 186,41l0 0z"/>
   <path fill="#009544" d="M49758 39256c135,153 178,309 124,462 -135,84 -269,41 -404,-123 -124,-146 -248,-208 -371,-186 -159,113 -321,207 -480,280 -223,13 -444,29 -665,46 -212,-11 -425,-22 -635,-33 -135,-40 -269,-80 -404,-123 -29,-81 -19,-165 33,-248 -73,11 -146,-19 -219,-92 108,-118 248,-212 606,-123 108,-41 216,-84 323,-124 218,62 434,83 652,62 272,21 546,40 821,62 205,-57 412,-11 619,140l0 0z"/>
   <path fill="none" stroke="#131516" stroke-width="99" d="M47004 37565l-22 -886"/>
   <path fill="#009544" d="M47026 34673c180,148 339,157 522,119 196,124 401,234 503,78 167,-124 334,-111 501,43 253,404 175,837 86,1271 -358,525 -832,824 -1314,1098 -745,434 -519,867 -541,1300 81,92 162,105 243,44 -9,-262 -3,-525 86,-787 237,-242 533,-484 955,-727 321,-161 558,-427 757,-742 145,-334 196,-665 156,-999 14,-302 -81,-525 -285,-671 -218,-110 -439,-145 -657,-99 -159,21 -288,-3 -385,-73 -396,-202 -603,-180 -627,145l0 0z"/>
   <path fill="#F3E400" stroke="#131516" stroke-width="99" d="M48679 39457c97,-67 193,-148 290,-242 -99,-129 -202,-143 -301,-140 43,129 46,256 11,382z"/>
   <path fill="none" stroke="#131516" stroke-width="99" d="M47273 34533l103 0"/>
   <path fill="none" stroke="#131516" stroke-width="99" d="M48315 35328l154 51"/>
   <path fill="none" stroke="#131516" stroke-width="99" d="M47026 34668l-372 0"/>
   <ellipse fill="#009544" stroke="#131516" stroke-width="99" cx="46471" cy="39880" rx="172" ry="261"/>
   <path fill="#009544" stroke="#131516" stroke-width="99" d="M45682 39810c70,32 162,-21 207,-121 46,-100 30,-205 -37,-237 -70,-32 -162,24 -208,121 -45,100 -29,208 38,237z"/>
   <path fill="#009544" stroke="#131516" stroke-width="99" d="M45968 39622c86,35 204,-25 261,-132 59,-108 37,-224 -49,-256 -86,-35 -204,24 -264,132 -56,105 -35,221 52,256z"/>
   <ellipse fill="#009544" stroke="#131516" stroke-width="99" cx="46584" cy="39428" rx="358" ry="304"/>
   <path fill="none" stroke="#131516" stroke-width="99" d="M48576 39694l-323 -199"/>
   <path fill="none" stroke="#131516" stroke-width="99" d="M46942 39347l323 0"/>
   <path fill="#F3E400" d="M48633 35352c94,19 191,43 285,78 68,105 89,213 35,320 -105,-134 -188,-156 -291,-99 0,-94 -32,-205 -29,-299l0 0z"/>
   <path fill="none" stroke="#131516" stroke-width="99" d="M48622 35346c291,38 423,138 366,412 -83,-72 -210,-153 -331,-129"/>
   <path fill="#F3E400" stroke="#131516" stroke-width="99" d="M48452 39339c81,-318 353,-229 714,43 3,-218 -81,-404 -358,-528 -116,-80 -202,-164 -256,-245 -285,224 -218,474 -100,730z"/>
   <path fill="#131516" d="M60707 36313c51,-215 -83,-433 -299,-485 -218,-48 -433,87 -484,302 -51,215 83,433 299,484 218,52 433,-86 484,-301z"/>
   <path fill="#131516" d="M55560 42696c48,-215 -86,-433 -302,-484 -215,-49 -433,86 -484,301 -52,215 86,433 301,485 216,51 434,-84 485,-302z"/>
   <path fill="#131516" d="M47357 42656c48,-216 -86,-434 -302,-482 -215,-51 -433,83 -484,299 -52,218 83,433 301,484 215,51 434,-83 485,-301l0 0z"/>
   <path fill="#131516" d="M42274 36219c48,-218 -86,-434 -302,-485 -215,-51 -433,84 -484,302 -51,215 86,433 301,482 216,51 434,-84 485,-299l0 0z"/>
   <path fill="#131516" d="M44140 28228c51,-215 -87,-433 -302,-484 -215,-51 -433,86 -485,301 -48,216 87,434 302,485 215,48 433,-86 485,-302z"/>
   <path fill="#131516" d="M51548 24707c52,-215 -86,-433 -301,-485 -216,-48 -434,87 -485,302 -48,215 86,433 302,485 215,51 433,-87 484,-302z"/>
   <path fill="#131516" d="M58920 28306c51,-218 -84,-433 -299,-484 -218,-51 -434,83 -485,301 -51,216 84,434 302,482 215,51 433,-83 482,-299l0 0z"/>
   <path fill="#131516" d="M60739 33088c-10,-97 -99,-170 -196,-159 -100,11 -170,100 -162,196 11,100 100,173 200,162 97,-11 169,-100 158,-199l0 0z"/>
   <path fill="#131516" d="M60785 33796c-8,-100 -97,-173 -196,-162 -97,11 -170,100 -159,200 11,96 100,169 196,158 100,-10 170,-99 159,-196l0 0z"/>
   <path fill="#131516" d="M60780 34501c-11,-97 -97,-169 -197,-159 -99,11 -169,100 -158,197 8,100 96,172 196,161 97,-10 170,-99 159,-199l0 0z"/>
   <path fill="#131516" d="M60723 35206c-10,-96 -99,-169 -199,-158 -97,10 -169,99 -159,196 11,100 100,170 197,159 99,-8 172,-97 161,-197l0 0z"/>
   <path fill="#131516" d="M60236 37269c-8,-97 -97,-170 -196,-159 -97,11 -170,100 -159,196 11,100 99,173 196,162 100,-11 170,-100 159,-199l0 0z"/>
   <path fill="#131516" d="M59972 37923c-11,-97 -97,-170 -196,-159 -100,11 -170,100 -159,197 8,99 97,172 196,161 97,-11 170,-99 159,-199l0 0z"/>
   <path fill="#131516" d="M59663 38564c-11,-100 -100,-173 -197,-162 -99,11 -172,100 -161,199 10,97 99,170 199,159 97,-11 169,-99 159,-196l0 0z"/>
   <path fill="#131516" d="M59302 39172c-11,-100 -100,-172 -199,-161 -97,10 -170,99 -159,199 11,97 99,169 196,159 100,-11 173,-100 162,-197l0 0z"/>
   <path fill="#131516" d="M58901 39756c-11,-99 -100,-172 -197,-161 -99,11 -169,99 -161,199 10,97 99,169 199,159 97,-11 170,-100 159,-197l0 0z"/>
   <path fill="#131516" d="M58457 40303c-11,-97 -100,-170 -197,-159 -100,11 -170,99 -159,196 8,100 97,173 197,162 97,-11 169,-100 159,-199l0 0z"/>
   <path fill="#131516" d="M57969 40817c-10,-97 -99,-170 -196,-159 -100,11 -173,100 -162,197 11,99 100,169 199,158 97,-8 170,-96 159,-196l0 0z"/>
   <path fill="#131516" d="M57450 41299c-11,-100 -100,-172 -197,-162 -99,11 -172,100 -161,200 10,97 99,169 199,158 97,-10 169,-99 159,-196l0 0z"/>
   <path fill="#131516" d="M56892 41735c-8,-100 -97,-172 -196,-162 -97,11 -170,100 -159,197 11,100 97,172 197,162 99,-11 169,-100 158,-197z"/>
   <path fill="#131516" d="M56305 42128c-10,-97 -99,-170 -199,-159 -97,11 -169,100 -159,197 11,99 100,172 197,161 100,-10 172,-99 161,-199l0 0z"/>
   <path fill="#131516" d="M54389 43033c-11,-97 -100,-170 -197,-159 -99,11 -172,99 -161,196 10,100 99,173 199,162 97,-11 169,-100 159,-199l0 0z"/>
   <path fill="#131516" d="M53710 43237c-8,-97 -97,-169 -196,-159 -97,11 -170,100 -159,197 11,100 99,170 196,161 100,-10 170,-99 159,-199l0 0z"/>
   <path fill="#131516" d="M53021 43391c-11,-97 -100,-170 -196,-159 -100,8 -173,99 -162,196 11,100 100,170 199,159 97,-8 170,-97 159,-196l0 0z"/>
   <path fill="#131516" d="M52321 43493c-11,-100 -100,-170 -196,-162 -100,11 -173,100 -162,200 11,97 100,169 199,159 97,-11 170,-100 159,-197l0 0z"/>
   <path fill="#131516" d="M51610 43539c-10,-97 -99,-170 -196,-159 -100,11 -170,100 -159,196 8,100 97,170 197,162 96,-11 169,-100 158,-199l0 0z"/>
   <path fill="#131516" d="M50905 43533c-11,-97 -100,-169 -199,-158 -97,10 -170,99 -159,196 11,100 100,170 196,159 100,-8 170,-97 162,-197l0 0z"/>
   <path fill="#131516" d="M50200 43474c-11,-97 -100,-169 -200,-159 -96,11 -169,100 -158,197 10,99 99,172 196,161 100,-10 172,-99 162,-199l0 0z"/>
   <path fill="#131516" d="M49500 43364c-8,-97 -97,-170 -197,-159 -99,11 -169,100 -159,196 8,100 97,170 197,162 99,-11 170,-100 159,-199l0 0z"/>
   <path fill="#131516" d="M48813 43205c-11,-100 -99,-172 -196,-162 -100,11 -173,100 -162,200 11,97 100,169 199,158 97,-10 170,-99 159,-196l0 0z"/>
   <path fill="#131516" d="M48137 42990c-10,-97 -99,-170 -199,-159 -97,11 -169,99 -159,196 11,100 100,173 197,162 100,-11 170,-100 161,-199l0 0z"/>
   <path fill="#131516" d="M46234 42055c-11,-99 -100,-172 -196,-161 -100,11 -170,99 -159,199 8,97 97,170 196,159 97,-11 170,-100 159,-197l0 0z"/>
   <path fill="#131516" d="M45650 41654c-11,-99 -100,-169 -197,-159 -99,8 -169,97 -161,197 11,100 99,170 199,159 97,-8 170,-97 159,-197l0 0z"/>
   <path fill="#131516" d="M45101 41210c-8,-97 -97,-170 -197,-159 -100,11 -170,100 -159,197 11,99 97,169 197,159 99,-9 169,-97 159,-197z"/>
   <path fill="#131516" d="M44589 40723c-11,-100 -99,-170 -199,-162 -97,11 -170,100 -159,199 11,97 100,170 197,159 99,-10 172,-99 161,-196l0 0z"/>
   <path fill="#131516" d="M44107 40203c-8,-99 -97,-169 -196,-161 -100,10 -170,99 -159,199 8,97 97,169 196,159 100,-11 170,-100 159,-197l0 0z"/>
   <path fill="#131516" d="M43671 39646c-8,-97 -97,-170 -196,-159 -100,11 -170,100 -159,197 8,99 97,169 196,161 100,-11 170,-100 159,-199l0 0z"/>
   <path fill="#131516" d="M43278 39059c-11,-100 -100,-172 -199,-162 -97,11 -170,100 -159,200 11,97 100,169 197,159 99,-11 169,-100 161,-197l0 0z"/>
   <path fill="#131516" d="M42925 38440c-8,-97 -97,-170 -196,-159 -97,11 -170,100 -159,196 11,100 100,170 197,159 99,-8 169,-97 158,-196z"/>
   <path fill="#131516" d="M42627 37802c-11,-100 -100,-170 -197,-162 -100,11 -172,100 -162,199 11,97 100,170 200,159 97,-11 169,-99 159,-196l0 0z"/>
   <path fill="#131516" d="M42374 37142c-11,-99 -100,-172 -200,-161 -97,10 -169,99 -159,199 11,97 100,169 197,159 100,-11 170,-100 162,-197l0 0z"/>
   <path fill="#131516" d="M41919 35075c-11,-100 -100,-173 -200,-162 -97,11 -169,100 -159,199 11,97 100,170 197,159 100,-11 170,-100 162,-196l0 0z"/>
   <path fill="#131516" d="M41867 34364c-10,-97 -99,-170 -199,-159 -97,11 -169,100 -159,197 11,99 100,169 197,158 99,-8 172,-97 161,-196l0 0z"/>
   <path fill="#131516" d="M41873 33656c-11,-97 -100,-170 -199,-159 -97,11 -170,100 -159,196 11,100 99,173 196,162 100,-11 172,-100 162,-199l0 0z"/>
   <path fill="#131516" d="M41929 32953c-8,-99 -97,-172 -196,-161 -100,10 -170,99 -159,199 11,97 97,169 196,159 100,-11 170,-100 159,-197l0 0z"/>
   <path fill="#131516" d="M42042 32253c-10,-97 -99,-169 -199,-159 -97,11 -169,100 -159,197 11,99 100,170 197,161 100,-10 172,-99 161,-199l0 0z"/>
   <path fill="#131516" d="M42201 31567c-11,-100 -100,-170 -196,-162 -100,11 -170,100 -159,199 8,97 97,170 196,159 97,-11 170,-99 159,-196l0 0z"/>
   <path fill="#131516" d="M42417 30888c-11,-97 -100,-169 -200,-159 -97,11 -169,100 -158,197 10,100 99,172 196,161 100,-10 172,-99 162,-199l0 0z"/>
   <path fill="#131516" d="M42680 30234c-10,-97 -99,-170 -199,-159 -97,11 -169,100 -159,197 11,99 100,172 197,161 99,-11 172,-99 161,-199l0 0z"/>
   <path fill="#131516" d="M42990 29596c-11,-100 -100,-170 -197,-159 -99,8 -172,97 -161,197 11,99 100,169 199,158 97,-8 170,-96 159,-196l0 0z"/>
   <path fill="#131516" d="M43351 28988c-11,-100 -100,-170 -197,-159 -99,10 -169,97 -159,196 8,100 97,170 197,159 97,-8 170,-97 159,-196z"/>
   <path fill="#131516" d="M45203 26861c-11,-97 -100,-170 -197,-159 -99,11 -172,100 -161,196 11,100 100,170 199,162 97,-11 170,-100 159,-199l0 0z"/>
   <path fill="#131516" d="M45760 26425c-11,-97 -99,-170 -199,-159 -97,11 -170,99 -159,196 11,100 100,170 197,162 99,-11 172,-100 161,-199l0 0z"/>
   <path fill="#131516" d="M46347 26029c-11,-97 -97,-170 -196,-159 -100,11 -170,100 -159,197 8,99 97,172 196,161 100,-11 170,-100 159,-199l0 0z"/>
   <path fill="#131516" d="M46966 25679c-10,-97 -99,-170 -199,-159 -97,11 -169,100 -159,197 11,99 100,169 197,161 99,-11 172,-99 161,-199l0 0z"/>
   <path fill="#131516" d="M47604 25380c-10,-100 -99,-172 -196,-162 -100,11 -172,100 -162,200 11,97 100,169 200,159 96,-11 169,-100 158,-197l0 0z"/>
   <path fill="#131516" d="M48264 25124c-11,-97 -100,-169 -197,-159 -99,11 -169,100 -161,197 11,100 100,172 199,162 97,-11 170,-100 159,-200l0 0z"/>
   <path fill="#131516" d="M48942 24922c-10,-99 -99,-172 -199,-161 -97,11 -169,99 -159,199 11,97 100,170 197,159 99,-11 172,-100 161,-197l0 0z"/>
   <path fill="#131516" d="M49632 24769c-11,-100 -100,-172 -197,-162 -100,11 -170,100 -161,200 10,97 99,169 199,158 97,-10 169,-99 159,-196l0 0z"/>
   <path fill="#131516" d="M50332 24669c-11,-97 -97,-169 -197,-159 -100,11 -170,100 -159,197 8,100 97,172 197,162 97,-11 169,-100 159,-200l0 0z"/>
   <path fill="#131516" d="M52453 24683c-11,-97 -97,-170 -197,-159 -99,11 -169,100 -158,196 8,100 97,170 196,162 100,-11 170,-100 159,-199l0 0z"/>
   <path fill="#131516" d="M53153 24793c-11,-97 -100,-169 -199,-159 -97,11 -170,100 -159,197 11,100 100,172 196,161 100,-10 173,-99 162,-199l0 0z"/>
   <path fill="#131516" d="M53839 24955c-10,-97 -99,-170 -196,-159 -100,11 -170,99 -162,196 11,100 100,170 200,159 97,-8 169,-97 158,-196l0 0z"/>
   <path fill="#131516" d="M54518 25167c-11,-97 -100,-169 -199,-158 -97,10 -170,99 -159,196 11,100 100,172 196,162 100,-11 170,-100 162,-200l0 0z"/>
   <path fill="#131516" d="M55172 25434c-11,-100 -100,-172 -199,-162 -97,11 -170,100 -159,200 11,97 100,169 197,158 99,-10 169,-99 161,-196l0 0z"/>
   <path fill="#131516" d="M55810 25744c-11,-100 -99,-170 -196,-162 -100,11 -173,100 -162,199 11,97 100,170 199,159 97,-11 170,-100 159,-197l0 1z"/>
   <path fill="#131516" d="M56419 26104c-11,-99 -100,-169 -197,-159 -100,11 -172,97 -161,197 10,100 99,170 199,159 97,-8 169,-97 159,-197l0 0z"/>
   <path fill="#131516" d="M57003 26505c-11,-99 -100,-172 -197,-161 -99,11 -172,99 -161,199 10,97 99,170 199,159 97,-11 169,-100 159,-197l0 0z"/>
   <path fill="#131516" d="M57552 26950c-11,-100 -100,-173 -199,-162 -97,11 -170,100 -159,199 11,97 99,170 196,159 100,-11 173,-99 162,-196l0 0z"/>
   <path fill="#131516" d="M59377 29101c-10,-97 -99,-170 -199,-159 -97,11 -170,99 -159,196 11,100 100,170 197,159 99,-8 169,-97 161,-196l0 0z"/>
   <path fill="#131516" d="M59727 29720c-11,-100 -99,-172 -199,-162 -97,11 -170,100 -159,200 11,96 100,169 197,158 99,-10 172,-99 161,-196l0 0z"/>
   <path fill="#131516" d="M60026 30358c-11,-100 -100,-170 -196,-162 -100,11 -170,100 -162,200 11,96 100,169 199,158 97,-10 170,-99 159,-196l0 0z"/>
   <path fill="#131516" d="M60282 31017c-11,-99 -100,-169 -199,-158 -97,8 -170,97 -159,196 11,97 99,170 196,159 100,-11 170,-97 162,-197l0 0z"/>
   <path fill="#131516" d="M60484 31693c-8,-97 -97,-169 -197,-159 -99,11 -169,100 -159,197 9,99 97,172 197,161 100,-10 170,-99 159,-199l0 0z"/>
   <path fill="#131516" d="M60637 32385c-11,-100 -99,-170 -196,-159 -100,8 -170,97 -162,197 11,97 100,169 199,159 97,-11 170,-97 159,-197l0 0z"/>
   <path fill="#131516" d="M60739 33085c-10,-100 -99,-170 -196,-159 -100,8 -172,97 -162,197 11,97 100,169 200,159 97,-11 169,-97 158,-197l0 0z"/>
  </g>
 </g>
</svg>
