<?xml version="1.0" encoding="UTF-8" standalone="no"?>
<svg xmlns="http://www.w3.org/2000/svg" xmlns:dc="http://purl.org/dc/elements/1.1/" xmlns:cc="http://creativecommons.org/ns#" xmlns:rdf="http://www.w3.org/1999/02/22-rdf-syntax-ns#" height="510" width="880">
  <title>City of Morgan Hill flag</title>
  <metadata id="metadata6">
    <rdf:RDF>
      <cc:Work rdf:about="">
        <dc:format>image/svg+xml</dc:format>
        <dc:type rdf:resource="http://purl.org/dc/dcmitype/StillImage" />
        <dc:title>City of Morgan Hill flag</dc:title>
        <dc:creator>
          <cc:Agent>
            <dc:title>Hydrargyrum</dc:title>
          </cc:Agent>
        </dc:creator>
        <dc:description>City Flag for City of Morgan Hill, California</dc:description>
        <dc:date>2010-12-16</dc:date>
        <cc:license rdf:resource="http://creativecommons.org/licenses/by-sa/3.0/" />
      </cc:Work>
      <cc:License rdf:about="http://creativecommons.org/licenses/by-sa/3.0/">
        <cc:permits rdf:resource="http://creativecommons.org/ns#Reproduction" />
        <cc:permits rdf:resource="http://creativecommons.org/ns#Distribution" />
        <cc:requires rdf:resource="http://creativecommons.org/ns#Notice" />
        <cc:requires rdf:resource="http://creativecommons.org/ns#Attribution" />
        <cc:permits rdf:resource="http://creativecommons.org/ns#DerivativeWorks" />
        <cc:requires rdf:resource="http://creativecommons.org/ns#ShareAlike" />
      </cc:License>
    </rdf:RDF>
  </metadata>
  <g transform="scale(5)">
    <path fill="#fff" d="m0 0h176v102h-176z"/>
    <g transform="matrix(.03257935 0 0 .03257935 .00870274 -.58441066)">
      <g transform="matrix(11.50275,0,0,11.948484,-3362.5194,-1149.7802)">
        <path d="m527.12595 176.4411c-56.38468 0-102.91515 36.96599-109.41337 84.58214h9.29734c6.46608-44.95901 50.5273-79.77918 103.86695-79.77918 53.33963 0 97.40085 34.82017 103.86695 79.77918h1.7955c-6.49821-47.61615-53.02869-84.58214-109.41337-84.58214z" fill-rule="evenodd" stroke="#0e720e" stroke-width=".08977507" fill="#0e720e"/>
        <g fill="#0e720e">
          <path d="m428.87399 260.1612c-0.0613-0.026-0.11014-0.1197-0.1086-0.20828 0.002-0.0886 0.054-0.20067 0.11659-0.24909 0.0626-0.0484 1.05099-0.54116 2.19648-1.09499 2.54734-1.23158 3.1007-1.51693 4.51151-2.32639 1.45042-0.8322 5.71663-3.58831 7.10216-4.58823 2.33645-1.61451 4.57489-3.35917 6.81477-5.10329 3.89809-3.02494 7.57488-6.32042 11.19604-9.669 2.51582-2.36097 3.34061-3.06751 5.54659-4.75139 2.91297-2.22354 4.22574-3.0955 8.0942-5.37628 2.16187-1.2746 6.98664-3.61435 9.40223-4.55955 1.94299-0.76028 5.60157-1.87776 6.63484-2.02655 0.19804-0.0285 0.68453-0.12199 1.08109-0.20771 1.03912-0.22463 1.60523-0.18965 1.40674 0.0869-0.0346 0.0482-0.87847 0.51271-1.87521 1.03217-1.9446 1.01344-5.01945 2.9546-7.36122 4.64717-1.34623 0.90292-2.61854 1.89883-3.90401 2.88227-0.75359 0.5295-3.1219 2.37842-3.82323 2.98474-1.91982 1.55967-3.81304 3.15039-5.69482 4.75624-1.67078 1.42073-5.00112 4.51262-8.12283 7.54122-4.34301 4.21347-7.62504 6.86571-11.2433 9.08584-1.69466 1.03426-3.35978 2.11704-5.08645 3.098-1.62684 1.00973-3.47212 1.593-5.17204 2.44186-1.4423 0.57979-2.95683 0.94798-4.46641 1.3051-0.92749 0.21934-3.81167 0.41882-5.51812 0.38165-0.88857-0.0194-1.66572-0.0564-1.727-0.0824z"/>
          <path d="m462.85832 260.7447c-1.44792-0.0452-1.78272-0.0798-1.87389-0.19365-0.15708-0.19615-0.0224-0.29069 0.55335-0.38846 0.27068-0.046 1.26394-0.31905 2.20726-0.60686 3.04719-0.92973 5.62266-2.33199 9.69958-5.2811 1.40084-1.01332 2.57088-1.91331 3.32189-2.55516 0.37599-0.32134 0.89837-0.74657 1.16086-0.94496s0.79222-0.63097 1.17719-0.96128c3.93355-3.2142 7.46787-6.87 11.25375-10.24822 1.74851-1.52827 4.55071-4.08273 6.42699-5.85877 2.27051-2.14201 4.73885-4.29095 6.96826-6.25337 2.22942-1.96242 4.0261-3.55135 6.26459-5.67806s5.48975-5.02761 7.43366-6.78794c1.9439-1.76034 2.87748-2.44533 4.33035-3.65125 3.01637-2.78857 6.19625-4.39285 9.84717-6.02073 1.43458-0.67916 4.8371-1.30951 6.87635-1.27391 3.01234 0.0526 6.1441 1.27481 8.18851 3.19575 0.3481 0.32707 0.78395 0.71036 0.96856 0.85178 0.34587 0.26492 0.50552 0.57031 0.36771 0.70339-0.0437 0.0422-0.45341-0.0499-0.92561-0.20821-3.38515-1.13475-7.25104-1.29585-10.36219-0.43182-1.93692 0.53793-4.87106 2.17257-7.07229 3.94005-3.74294 3.53059-3.4645 3.20887-11.15403 10.68025-3.45123 3.69204-6.0037 5.5639-15.556 14.37342-9.48153 8.74425-7.13671 7.03584-13.46013 12.59827-6.39009 5.62109-6.25182 4.97516-8.18642 6.37792-1.16518 0.84484-1.48355 1.03542-2.85821 1.71088-0.62264 0.30595-1.45827 0.72572-1.85695 0.93283-0.39869 0.20712-1.25281 0.52855-1.89804 0.7143s-1.28385 0.37823-1.41915 0.42772c-0.48956 0.17908-2.31192 0.51055-3.85319 0.70086-1.6705 0.20627-3.26822 0.23943-6.56993 0.13633z"/>
          <path d="m444.80384 260.35224c-0.1161-0.12022 0.13339-0.37764 0.4151-0.42832 0.5815-0.10461 1.73905-0.54659 3.23982-1.23706 2.49696-1.14879 3.79448-1.92779 6.34417-3.80895 2.34399-1.70668 4.68678-3.41056 6.9598-5.21149 3.50356-2.73587 6.75379-5.77034 10.16192-8.62059 9.85835-8.71742 19.13348-18.06179 28.9317-26.84985 2.79393-2.31594 5.48803-4.73339 8.13269-7.21758 3.51485-3.30735 7.04905-5.86296 9.76332-7.05993 1.18616-0.52308 4.65567-1.28209 6.80171-1.48799 2.38578-0.27558 4.78813-0.361 7.18799-0.28027 2.59419 0.16705 4.90225 0.65128 6.08336 1.27628 0.6787 0.35913 2.32296 1.83765 2.27909 2.04934-0.0383 0.18463-0.50344 0.21907-1.04221 0.0771-2.81677-0.68068-5.60447-0.67119-8.45312-0.22785-2.25659 0.39037-4.73063 1.19495-6.63715 2.15846-4.20117 2.03781-7.47897 5.43067-11.0173 8.40103-3.26073 2.60422-6.21329 5.55623-9.34218 8.31014-3.33243 3.01537-6.63847 6.05988-9.92414 9.12661-1.6938 1.56243-4.08128 3.81707-5.30549 5.01031-1.22422 1.19325-3.56833 3.47947-5.20914 5.08049-2.5171 2.51716-5.20847 4.84756-7.8132 7.27103-1.36186 1.27748-2.18166 1.99555-4.46796 3.91349-2.22055 1.86279-5.00432 3.95281-7.09652 5.32799-1.92629 1.27316-4.04239 2.24477-6.2037 3.04614-2.60988 0.84981-5.34378 1.33293-8.15392 1.44092-1.86618 0.0717-5.54546 0.0329-5.63464-0.0595z"/>
        </g>
        <g fill="#1ada1a">
          <path d="m479.1641 261.03056c-0.44534-0.0517-0.62554-0.18581-0.47887-0.35639 0.0572-0.0665 0.17711-0.11968 0.26647-0.11812 0.32264 0.006 2.25342-0.50009 3.39013-0.88797 1.42696-0.48692 3.44702-1.44231 4.81268-2.27618 1.16762-0.71294 1.3839-0.86727 4.1964-2.99442 1.86198-1.33083 3.61144-2.80784 5.37637-4.26302 4.02543-3.17367 7.9974-6.41607 11.79969-9.85667 4.66819-4.1784 9.22085-8.48135 13.65521-12.9073 4.41052-4.35345 8.77312-8.76223 13.45172-12.83239 0.96847-0.78787 2.87504-2.10911 3.68708-2.5551 2.62649-1.44255 5.77379-1.91924 8.3842-1.26989 1.40232 0.34883 2.71361 0.91259 3.86867 1.66325 0.85177 0.55356 2.4375 1.81573 2.43536 1.93844-0.004 0.20189-0.22854 0.22502-0.68838 0.0708-1.38733-0.46533-4.50015-0.70101-5.80202-0.43927-1.82661 0.36722-2.709 0.61628-3.93806 1.11152-3.95368 1.67864-7.28462 4.51486-10.05802 7.75179-3.61831 4.22469-7.42785 8.2937-11.34988 12.23763-3.97989 3.96033-7.93142 7.93877-12.02029 11.78724-3.88767 3.65643-5.28421 4.85809-8.83131 7.59895-2.7271 2.10725-3.63588 2.74688-6.48745 4.56615-0.93584 0.59706-3.40522 1.35807-5.3384 1.64517-1.65407 0.32842-3.32372 0.39947-5.00536 0.41427-1.25116 0.003-2.88095 0.007-3.62174 0.009-0.7408 0.002-1.50769-0.0145-1.7042-0.0374z"/>
          <path d="m499.83995 260.77719c-0.15301-0.15845 0.13986-0.32854 0.96306-0.55935 1.61223-0.45203 2.95994-0.94094 4.26027-1.54548 2.09729-0.97505 3.13977-1.70068 7.46868-5.19862 0.97528-0.78807 5.30365-4.90567 7.24039-6.88781 2.90589-2.97401 3.9913-4.072 4.75483-4.80993 1.71696-1.6594 5.62629-5.62578 6.69747-6.7952 3.1549-3.44427 7.73705-7.99777 11.22296-11.15278 4.12821-3.73634 5.32343-4.64493 7.49946-5.70099 2.43607-1.26193 5.20036-1.54117 7.87417-1.01169 1.3815 0.39973 1.47386 0.44358 3.76239 1.78643 0.44218 0.25946 0.68785 0.45951 0.68611 0.55874-0.004 0.20546-0.13654 0.23675-0.62556 0.1472-0.22455-0.0411-0.96642-0.0869-1.64861-0.10176-1.67437-0.0525-3.34311 0.38665-4.91241 0.94566-4.86377 1.14268-7.57779 4.20613-11.1882 7.46895-4.49127 4.72526-5.53557 5.99174-10.49183 11.02568-2.95812 3.3614-7.37268 8.18245-10.56043 11.33099-4.22689 4.01522-5.90785 5.47072-7.79519 6.7496-1.53078 1.03727-2.75127 1.60102-5.0579 2.33625-2.34527 0.74754-4.10067 1.11002-6.75852 1.39561-0.99762 0.10718-3.2934 0.11971-3.39114 0.0185z"/>
          <path d="m519.29692 260.80227c-0.10196-0.17159 0.25436-0.39911 1.00447-0.64138 3.78739-1.22321 8.90481-5.38442 15.89372-12.92389 3.86637-4.16213 7.69343-8.36078 11.53242-12.54863 3.28329-3.60265 7.41204-7.11416 10.66359-9.06938 2.6732-1.48305 5.80859-2.83104 8.93311-2.35778 1.46044 0.23511 2.5388 0.61389 3.87915 1.36254 1.23412 0.68931 1.41437 0.84856 1.19224 1.05329-0.11648 0.10737-0.23501 0.10551-0.85123-0.0134-1.86234-0.35943-2.67475-0.38766-4.71105-0.16371-2.15911 0.23747-4.08055 0.93539-6.17415 2.24264-1.97776 1.23492-3.28741 2.35445-5.43804 4.64863-1.84401 1.92952-3.65996 3.88525-5.48693 5.83084-2.6516 2.8241-5.2442 5.70337-7.81788 8.5985-1.61115 1.82856-7.14849 7.40683-8.96939 9.03566-2.17691 1.9473-3.84299 2.93786-6.15855 3.66154-0.75081 0.20783-1.45441 0.56951-2.22323 0.71116-0.89596 0.1908-1.78763 0.36602-2.7015 0.44904-0.56866 0.0428-1.29715 0.11108-1.61885 0.15184-0.75889 0.0962-0.87644 0.0928-0.9479-0.0275z"/>
        </g>
        <g fill="#ce9812">
          <path d="m536.41088 260.59544c-0.74568-0.10084-0.51462-0.32767 0.65218-0.64022 1.25657-0.33659 1.94869-0.60871 2.88053-1.13253 1.90721-1.07211 3.24768-1.98661 5.15931-3.5198 1.57609-1.26408 4.69682-4.25309 5.93994-5.68925 4.60174-5.14735 9.00828-10.46725 13.71011-15.52426 2.20508-2.35362 3.66404-3.59878 5.22067-4.45562 1.74307-0.95948 4.40963-1.45044 6.82093-1.25585 1.52047 0.12269 3.94388 0.79282 4.28691 1.18542 0.2075 0.2375-0.0314 0.39819-0.47345 0.31842-1.83608-0.33128-4.18794-0.35868-5.33619-0.0622-3.61994 0.94511-6.34807 3.38672-8.58377 6.25883-1.36711 1.78025-2.82055 3.49202-4.24054 5.22998-1.94928 2.43632-4.0337 4.7563-6.1149 7.07886-3.06704 3.47201-4.2115 4.6531-6.37141 6.57533-1.97918 1.76138-2.78407 2.57598-3.8549 3.16228-3.26173 1.78584-1.98383 1.13041-5.74081 2.24697-0.99447 0.29555-3.2525 0.32064-3.55152 0.27859-0.0493-0.007-0.23065-0.0317-0.40309-0.055z"/>
          <path d="m554.41699 260.53022c-0.10278-0.17297 0.0239-0.23828 1.10116-0.56766 1.29-0.39445 3.79241-1.57269 4.96306-2.33683 2.65921-1.7358 3.86078-2.88255 6.64199-6.33899 1.11484-1.38863 2.24238-2.76701 3.35697-4.15583 2.21048-2.76232 3.75037-4.60957 4.73549-5.68066 1.39733-1.60381 2.85376-3.15326 4.45159-4.56071 2.39099-1.87611 4.30013-2.90417 7.42259-3.06452 2.37051-0.0203 3.33896 0.23074 5.76087 1.49307 1.52062 0.79256 2.00558 1.14032 1.83132 1.3132-0.0839 0.0833-0.28085 0.0333-0.89392-0.22699-1.99637-0.84747-5.14809-1.08446-7.27435-0.54698-2.32463 0.67544-4.5031 1.82706-6.28648 3.45948-1.36408 1.27184-2.1577 2.20284-4.687 5.49832-2.70229 3.52088-4.30752 5.55295-5.28211 6.68667-1.37338 1.5976-4.82213 4.94013-5.88004 5.69893-1.43486 1.02917-3.49002 2.07242-5.01137 2.54388-2.20407 0.68305-4.76885 1.09012-4.94977 0.78562z"/>
          <path d="m571.61283 260.60816c-0.13874-0.17326 0.0807-0.38328 0.68197-0.65269 3.81708-1.71028 4.65092-2.24341 7.85222-5.02045 2.71264-2.64191 5.17512-5.53761 7.57816-8.46272 1.79958-2.21201 3.63275-4.06206 5.00365-5.04973 2.13409-1.53752 4.58554-2.09925 6.99915-1.6038 1.79353 0.36816 4.49324 1.31819 4.60297 1.61979 0.10255 0.28184-0.13541 0.28549-0.9209 0.0142-3.074-1.06192-6.61457-0.70878-9.08124 0.90578-2.04908 1.34123-4.50295 3.81464-7.35756 7.41616-1.01544 1.27847-2.09015 2.50673-3.06923 3.81402-0.38402 0.52343-2.49615 2.78672-3.62172 3.88093-1.61725 1.63109-3.66931 2.32914-5.84039 2.86564-1.84225 0.43374-2.63685 0.51044-2.82708 0.27292z"/>
        </g>
        <g fill="#dede4f">
          <path d="m588.35411 260.85758c-0.0853-0.14356 0.0416-0.32563 0.34311-0.49222 0.67304-0.37188 2.14938-1.33115 2.70198-1.75563 1.04894-0.80575 2.62452-2.57659 3.85179-4.32913 2.00377-2.86139 4.49745-5.45998 6.43919-6.71008 1.31578-0.84712 3.02915-1.57026 4.01791-1.6958 1.74822-0.22196 1.99535-0.22371 3.06616-0.0217 1.41693 0.26728 2.85346 0.80826 2.84884 1.07284-0.004 0.22265-0.12501 0.228-0.81489 0.0359-0.49542-0.13793-0.97307-0.19064-1.88113-0.20764-1.74046-0.0326-2.80898 0.23101-4.79439 1.18272-1.57353 0.75428-2.28747 1.25912-4.53668 3.20798-2.41061 1.82117-3.7206 4.6013-5.70002 6.80216-0.91298 0.94583-3.09191 2.28403-4.45104 2.73362-0.84993 0.28115-1.01319 0.30763-1.09083 0.17697z"/>
          <path d="m615.46855 260.85552c-0.18409-0.13961-0.13572-0.19552 0.78604-0.90854 0.21788-0.16854 0.7291-0.56813 1.13606-0.888 1.37204-1.0784 2.60102-1.52898 3.92552-1.43918 0.88008 0.0597 1.70004 0.35714 1.69553 0.61513-0.002 0.12253-0.18696 0.13791-1.251 0.10405-1.89286-0.0602-2.75715 0.25792-4.50132 1.65693-0.49625 0.39804-0.91565 0.72349-0.93201 0.7232-0.0163-0.00028-0.17879 0.0587-0.36096 0.13113-0.27468 0.10918-0.35966 0.11008-0.49786 0.005z"/>
          <path d="m602.81098 260.78124c0.001-0.0744 0.26607-0.34182 0.58839-0.59422 0.32231-0.2524 0.8782-0.69109 1.23532-0.97486 0.35712-0.28376 1.25546-1.21904 1.99634-2.07838 2.74977-3.18946 4.70194-4.43768 7.3889-4.72444 0.76758-0.0819 1.08632-0.0751 1.75651 0.0378 1.13102 0.19047 2.51587 0.77468 2.63908 1.11333 0.0744 0.2045-0.0819 0.24154-0.51568 0.12224-1.33712-0.36771-1.61963-0.40661-2.84293-0.39146-1.10872 0.0137-1.34788 0.0473-2.13232 0.29936-1.00716 0.32362-2.02822 0.83324-2.8455 1.42019-0.74023 0.53162-2.95543 2.7111-3.5777 3.52003-0.56598 0.73573-1.00339 1.13735-1.82103 1.67199-1.00188 0.6551-1.87544 0.9254-1.86938 0.57842z"/>
        </g>
      </g>
      <g fill="#0e720e">
        <path d="m1469.2452 2210.1886c7.0072-0.0003 13.9457-0.4831 20.8155-1.4483 6.8699-0.9659 12.297-2.3338 16.2815-4.1037 1.7859-0.8046 2.9537-1.6093 3.5036-2.4139 0.6867-0.9656 1.305-2.4944 1.8549-4.5864 0.5493-2.0921 1.0988-4.8278 1.6487-8.2073 0.5493-3.3795 1.0302-6.598 1.4427-9.6557 0.4119-3.2185 0.7554-6.1957 1.0304-8.9318 0.2746-2.7354 0.4119-4.5056 0.4122-5.3102-0.0003-2.4139-0.6185-3.6209-1.8548-3.6209-0.8247 0-1.443 0.3219-1.8549 0.9656-0.275 0.6437-0.5498 1.9311-0.8243 3.8622-0.4125 2.4139-1.3056 5.1497-2.6793 8.2073-1.2368 3.0576-2.6795 5.6325-4.328 7.7245-3.9845 5.3106-8.862 8.9315-14.6327 10.8623-5.6332 1.7705-13.3274 2.6556-23.0825 2.6553-7.1447 0.0003-14.5641-1.8503-22.2583-5.552-7.5567-3.701-14.564-9.1725-21.0216-16.4143-6.4576-7.2417-11.6787-16.2536-15.6632-27.0361-3.9845-10.9427-5.9767-23.2536-5.9767-36.9325 0-13.196 1.374-25.0241 4.1219-35.4844 2.8853-10.4603 7.8316-19.4722 14.8388-27.0358 4.6715-4.9888 10.0986-8.6901 16.2814-11.104 6.3203-2.5748 13.8084-3.8622 22.4643-3.8622 9.2056 0 17.5868 1.4483 25.1436 4.345 7.6942 2.7358 13.2587 6.2762 16.6936 10.6212 2.4732 3.0576 4.3964 6.598 5.7707 10.6212 1.3736 3.8622 2.1293 7.7245 2.267 11.5864-0.0003 3.5408 0.6867 5.311 2.061 5.311 1.511 0 2.3354-1.8507 2.4731-5.552 0.1371-1.4484 0.2745-5.552 0.4122-12.311-0.0003-6.2761 0.068-10.8626 0.2061-13.7596 0.1371-3.701 0.4119-7.1609 0.8244-10.3798 0.1371-1.448 0.2058-2.4136 0.206-2.8967-0.0002-1.7699-1.0307-2.7354-3.0914-2.8967-2.1986-0.3215-5.5648-0.9652-10.0986-1.9311-4.6715-1.1262-8.1751-1.8503-10.5108-2.1722-5.2211-0.8046-10.03-1.3679-14.4266-1.6897-4.3967-0.4828-9.5491-0.7242-15.4571-0.7245-14.7014 0.0003-27.2732 2.1728-37.7153 6.5175-10.4421 4.3454-19.579 10.702-27.4106 19.0702-4.6715 4.9888-8.5872 10.4603-11.7474 16.4146-3.1601 5.7934-5.6332 11.6672-7.4194 17.6216-1.7861 5.9543-3.0914 11.6672-3.9158 17.1387-0.6869 5.3106-1.0304 10.2994-1.0304 14.9663 0 13.3569 1.9235 26.1506 5.7706 38.3808 3.8471 12.2308 10.4421 23.1738 19.7851 32.8295 9.0681 9.1728 19.4416 15.8513 31.1203 20.0351 11.6786 4.1841 24.8687 6.2762 39.5701 6.2765"/>
        <path d="m1560.4998 2136.8054c0 14.8057-0.069 26.151-0.2058 34.0361-0.1377 7.7249-0.4125 13.9206-0.8244 18.5875-0.6872 7.2417-2.6795 11.2649-5.977 12.0695-2.4731 0.6437-4.9463 0.9656-7.4191 0.9656-2.1986 0-3.2978 0.6437-3.2978 1.9311 0 1.6093 1.374 2.4136 4.1222 2.4139 2.885-0.0003 8.3122-0.1612 16.2812-0.4828 5.3584-0.1612 8.5872-0.2413 9.6864-0.2413 1.9235 0 5.0837 0.08 9.4806 0.2413 9.3427 0.3216 16.8995 0.4825 22.6701 0.4828 2.6106-0.0003 3.9158-0.8046 3.9161-2.4139-0.0003-1.2874-1.0994-1.9311-3.2975-1.9311-1.649 0-3.4352-0.081-5.3587-0.2414-1.9236-0.3219-3.641-0.5632-5.1524-0.7242-2.8853-0.4828-4.8776-1.6092-5.9765-3.3798-1.0994-1.9308-1.8551-4.747-2.2673-8.4487-0.4122-4.6665-0.687-10.8622-0.8241-18.5867-0.0003-7.8855-0.0003-19.3113 0-34.2779v-42.4845c-0.0003-19.4722-0.0003-31.8636 0-37.1742-0.0003-5.3106 0.1371-9.9775 0.4122-14.0006 0.2745-4.3451 0.8928-7.5636 1.8549-9.6557 1.0988-2.092 3.0224-3.4599 5.7706-4.104 2.4729-0.4824 4.5338-0.7238 6.1826-0.7238 2.1983 0 3.2975-0.8046 3.2975-2.4139 0-1.2874-1.4427-1.9311-4.3277-1.9311-2.8856 0-7.9006 0.1609-15.0452 0.4828-5.0837 0.1609-8.4499 0.2413-10.0986 0.2413-2.061 0-5.9768-0.08-11.7474-0.2413-7.4194-0.3219-12.4344-0.4828-15.0446-0.4828-3.2978 0-4.9466 0.6437-4.9466 1.9311 0 1.6093 1.0992 2.4139 3.2978 2.4139 2.885 0 5.3582 0.3219 7.4191 0.9656 4.2593 1.1265 6.595 5.6324 7.0072 13.5179 0.2748 4.0231 0.4122 8.69 0.4122 14.0006v37.1742 42.4845"/>
        <path d="m1680.8945 2136.8054c0 14.3229-0.069 25.3464-0.2061 33.0706-0.1374 7.5639-0.4122 13.6791-0.8244 18.346-0.4122 4.0232-1.0304 7.1613-1.8548 9.4143-0.8244 2.092-2.1984 3.3794-4.1219 3.8622-2.4732 0.6437-4.9463 0.9656-7.4194 0.9656-2.1984 0-3.2975 0.6437-3.2975 1.9311 0 1.6093 1.3739 2.4136 4.1219 2.4139 2.8853-0.0003 8.3124-0.1612 16.2814-0.4828 5.3585-0.1612 8.5873-0.2413 9.6865-0.2413 1.9235 0 5.221 0.08 9.8925 0.2413 9.3429 0.3216 16.831 0.4825 22.4643 0.4828 2.6105-0.0003 3.9158-0.8046 3.9158-2.4139 0-1.2874-1.0992-1.9311-3.2975-1.9311-1.6488 0-3.4349-0.081-5.3585-0.2414-1.9235-0.3219-3.641-0.5632-5.1523-0.7242-2.8854-0.4828-4.8776-1.7702-5.9768-3.8622-0.9618-2.253-1.6487-5.3106-2.0609-9.1729-0.4122-4.8278-0.687-11.0235-0.8244-18.5874-0.1374-7.7242-0.2061-18.7477-0.2061-33.0706v-98.9703l25.9679 0.7245c8.3812 0.161 14.4266 1.5288 18.1363 4.1033 3.8471 2.5752 5.9081 5.7133 6.1829 9.4143l0.2061 2.6556c0.1374 3.2186 0.893 4.8278 2.267 4.8275 0.9618 0.0003 1.5801-1.2871 1.8548-3.8622 0-2.4136 0.1374-7.5633 0.4122-15.4487 0.1374-6.9199 0.2061-11.104 0.2061-12.5524 0-3.3794-0.5496-5.0692-1.6487-5.0692-0.4122 0-1.5114 0.2414-3.2975 0.7242l-2.2671 0.4828h-0.2061c-4.9462 0.8046-9.6177 1.2069-14.0144 1.2069h-81.6134c-3.4349 0-7.0072-0.08-10.7169-0.2413-3.7097-0.3219-7.0072-0.6438-9.8926-0.9656-2.0609-0.1609-4.2592-0.8851-6.595-2.1725-1.0992-0.4828-1.8548-0.7242-2.267-0.7245-1.0992 0.0003-1.9236 1.5291-2.4732 4.5864 0 0.1613-0.2748 1.5291-0.8243 4.104-0.4122 2.4139-0.9618 5.4715-1.6488 9.1725-0.5496 3.7017-1.0305 6.8397-1.4427 9.4142-0.2747 2.5752-0.4121 4.2649-0.4121 5.0696 0 2.5748 0.6182 3.8622 1.8548 3.8622 1.0992 0 1.8549-0.9655 2.267-2.8967 0.5496-2.4139 1.7175-5.2301 3.5037-8.4486 1.5113-2.5749 3.641-4.2646 6.3889-5.0696 2.8853-0.9652 7.4194-1.6089 13.6022-1.9311l30.7081-0.9656v98.9703"/>
        <path d="m1831.4945 2164.0829c0 3.5404-0.069 7.4027-0.2061 11.5868 0 4.1841-0.1374 8.3682-0.4122 12.5523-0.2748 3.7014-0.9618 6.759-2.061 9.1729-0.9617 2.253-2.4044 3.6208-4.3279 4.1036-2.4732 0.6437-4.8776 0.9656-7.2134 0.9656-2.1983 0-3.2975 0.6437-3.2975 1.9311 0 1.6093 1.5114 2.4136 4.5341 2.4139 2.7479-0.0003 7.8316-0.1612 15.251-0.4828 5.3585-0.1612 8.8621-0.2413 10.5108-0.2413 1.9236 0 5.1524 0.08 9.6865 0.2413 9.2055 0.3216 16.4875 0.4825 21.846 0.4828 2.8853-0.0003 4.328-0.8046 4.328-2.4139 0-1.2874-1.0992-1.9311-3.2975-1.9311-1.5114 0-3.2289-0.081-5.1524-0.2414-1.9236-0.3219-3.641-0.5632-5.1524-0.7242-2.8853-0.4828-4.9462-1.8506-6.1828-4.1036s-1.9923-5.3106-2.267-9.1729c-0.2748-4.1841-0.4809-8.3682-0.6183-12.5523v-11.5868-19.794c0-5.3106 0.1374-9.6557 0.4122-13.0355 0.4121-3.54 1.3052-7.2414 2.6792-11.1036 0.9618-2.5749 3.1601-7.4831 6.595-14.7249 3.4349-7.2417 7.4194-15.2881 11.9535-24.1394 4.6715-9.0116 8.8621-16.9775 12.5718-23.8974 3.8471-7.0808 6.595-11.7477 8.2437-14.0006 2.4732-3.5404 4.3967-6.1153 5.7707-7.7246 1.5113-1.6092 3.2975-2.9771 5.3584-4.1036 1.5114-0.9656 3.0915-1.6897 4.7402-2.1729 1.7862-0.4824 3.2285-0.7238 4.328-0.7238 2.6102 0 3.9155-0.8046 3.9158-2.4139-0.0003-1.2874-1.2369-1.9311-3.7097-1.9311-1.0995 0-4.5341 0.08-10.3047 0.2414-6.1829 0.3218-10.0987 0.4827-11.7474 0.4827-1.9236 0-4.9463-0.08-9.0682-0.2413-4.3967-0.3219-7.8316-0.4828-10.3047-0.4828-2.3357 0-3.5036 0.7241-3.5036 2.1722 0 0.644 0.2748 1.1268 0.8244 1.4486 0.687 0.3219 1.6487 0.6437 2.8853 0.9656 1.6487 0.4828 2.7479 1.2874 3.2975 2.4136 0.687 0.9659 1.0305 2.1728 1.0305 3.6212 0 3.3794-0.9618 7.5636-2.8853 12.5523-0.5496 1.6093-2.4045 5.7129-5.5646 12.3109-3.1601 6.5981-6.5263 13.6789-10.0986 21.2424-3.8471 8.2073-7.282 15.4491-10.3048 21.7252-2.8853 6.1153-4.534 9.8166-4.9462 11.104l-4.1219-8.4487c-2.6105-5.1496-5.0837-10.0579-7.4194-14.7252-2.1984-4.6665-5.5646-11.5864-10.0986-20.7596-4.3967-9.1725-7.5568-15.6901-9.4804-19.5523-1.9235-4.0232-3.2288-6.9199-3.9158-8.6904-1.6487-3.8619-2.4731-6.5977-2.4731-8.207 0-2.4139 0.9618-3.8622 2.8853-4.345 0.2748-0.1609 0.6183-0.2414 1.0305-0.2414 2.3357-0.8046 3.5036-1.6093 3.5036-2.4142 0-1.4481-1.0305-2.1722-3.0914-2.1722-3.9845 0-8.9995 0.1609-15.0449 0.4828-3.4349 0.1609-5.7707 0.2413-7.0072 0.2413-2.3358 0-7.8316-0.1609-16.4876-0.4827-5.6332-0.161-8.7934-0.2414-9.4803-0.2414-2.6106 0-3.9158 0.7241-3.9158 2.1722 0 1.4486 1.0304 2.1728 3.0914 2.1728 1.2365 0 2.6792 0.3219 4.328 0.9656 1.5113 0.6437 2.954 1.3679 4.3279 2.1725 4.3967 3.0576 9.1369 8.9315 14.2206 17.6215 1.9235 3.2186 4.6714 8.2878 8.2437 15.2077 3.7097 6.9198 7.6255 14.403 11.7474 22.4493 4.2593 8.0464 7.969 15.1272 11.1291 21.2424 3.1601 6.1153 4.8776 9.6557 5.1524 10.6209 1.6487 4.5063 2.8166 8.449 3.5036 11.8285 0.8244 3.2185 1.2366 7.7245 1.2366 13.5179v19.794"/>
        <path d="m2067.5062 2020.9375c-14.7014 0.0004-27.5395 2.8054-38.5312 8.4375-10.8542 5.6328-19.7239 13.1931-26.5938 22.6875-6.8697 9.3342-11.9523 19.5523-15.25 30.6563-3.16 10.943-4.7187 21.9007-4.7187 32.8437 0 11.2651 1.5586 22.4588 4.7187 33.5625 3.2977 11.1042 8.3302 21.3225 15.0626 30.6562 6.8698 9.1731 15.5767 16.5554 26.1562 22.1876 10.5796 5.4715 22.9731 8.2184 37.125 8.2187 12.7779-0.0004 24.4518-2.4803 35.0312-7.4687 10.5795-4.9889 19.5807-11.9882 27-21 7.5569-9.173 13.328-19.716 17.3126-31.625 3.9844-12.0691 5.9687-25.0352 5.9687-38.875 0-13.6788-1.9342-26.0836-5.7813-37.1876-3.847-11.2649-9.4054-20.8329-16.6874-28.7187-7.1446-7.8851-15.8828-13.9097-26.1876-18.0937-10.3047-4.1843-21.8471-6.281-34.625-6.2813zm-5.9687 11.5937c8.3812 0 16.218 2.0082 23.5 6.0313 7.4193 4.0232 13.8792 9.9005 19.375 17.625 5.4959 7.5636 9.7585 16.807 12.7813 27.75 3.1601 10.7821 4.75 22.8618 4.75 36.2187-0.0001 16.2535-1.7214 29.6917-5.1563 40.3126-3.2975 10.6216-7.5101 18.6533-12.5937 24.125-5.0838 5.3104-10.2164 8.9438-15.4376 10.875-5.0834 1.7701-9.9535 2.6566-14.625 2.6562-9.6177 0.0004-18.4372-2.244-26.4062-6.75-7.8316-4.6669-14.4729-11.1052-19.9688-19.3125-5.4958-8.2073-9.7084-17.8069-12.5937-28.75-2.8853-10.9429-4.3125-22.6663-4.3125-35.2187 0-14.3224 1.4272-26.4019 4.3125-36.2188 2.8853-9.9772 6.7536-17.7739 11.5625-23.4062 4.9463-5.7935 10.3732-9.8986 16.2812-12.3126 5.9081-2.4139 12.0736-3.625 18.5313-3.625z"/>
        <path d="m2220.0247 2117.2531c0-1.4484 0.4809-2.1725 1.4427-2.1725h14.6327c3.572 0.1609 6.8008 0.3218 9.6864 0.4827 3.0225 0 5.0834 0.081 6.1829 0.2414 2.885 0.4828 5.2207 1.6093 7.0072 3.3795 1.7858 1.6093 2.9537 3.3795 3.5036 5.3106 0.8241 2.8967 1.2363 5.3911 1.2365 7.4831-0.0002 2.253 0.5493 3.3795 1.6488 3.3795 0.9615 0 1.5111-0.4023 1.6488-1.2073 0.2745-0.8043 0.4119-1.9308 0.4121-3.3791-0.0002-1.4484 0.069-4.2646 0.2061-8.4487 0.2745-4.1841 0.4806-7.2417 0.6183-9.1729 0.2745-2.7357 0.6867-6.3566 1.2366-10.8626 0.2745-2.2529 0.4119-3.6208 0.4122-4.1039-0.0003-1.448-0.4125-2.1722-1.2366-2.1722-0.6873 0-1.4429 0.5632-2.267 1.6897l-0.4122 0.7242c-1.7865 2.5748-4.7405 4.0232-8.8621 4.345-1.9238 0.161-5.0152 0.2414-9.2742 0.2411l-26.3801 0.2417c-0.9618 0-1.4427-0.7242-1.4427-2.1728v-60.3478c0-2.2526 0.6183-3.3791 1.8549-3.3791l31.7385 0.7242c3.572 0.1609 6.5261 0.9655 8.8621 2.4139 2.3354 1.2874 3.9155 2.8967 4.7402 4.8274 0.5493 1.4487 0.8927 2.9775 1.0304 4.5868 0.1371 1.4484 0.2058 2.9772 0.2061 4.5864 0.2745 2.5749 0.9615 3.8623 2.061 3.8623 1.0988 0 1.7858-1.1265 2.0609-3.3795 0.1371-0.8046 0.2745-2.4139 0.4122-4.8281 0.1371-2.5745 0.2745-5.3103 0.4122-8.207 0.1371-3.7013 0.2058-5.8738 0.2061-6.5175 0.2745-2.414 0.6867-5.0693 1.2365-7.9663 0.2746-1.448 0.412-2.4136 0.4122-2.8963-0.0002-1.4484-0.4811-2.1726-1.4426-2.1726-0.4125 0-1.0308 0.2414-1.8549 0.7242-0.6872 0.3219-1.1681 0.5633-1.4426 0.7242-1.0995 0.3218-3.2291 0.5632-6.389 0.7242-0.4124 0.1609-1.0994 0.2414-2.0609 0.2414-3.1604 0.1609-21.2967 0.2413-54.409 0.2413-1.3739 0-4.9462-0.08-10.7169-0.2413-8.7933-0.3219-15.1136-0.4828-18.9607-0.4828-3.1601 0-4.7401 0.8046-4.7401 2.4139 0 1.2874 1.1678 1.9311 3.5036 1.9311 3.7097 0 6.3889 0.2414 8.0377 0.7238 3.2975 0.805 5.4958 2.2534 6.595 4.3454 1.2366 1.9311 1.9922 5.0692 2.267 9.4143 0.2748 4.0231 0.4122 8.69 0.4122 14.0006v37.1742 42.4845c0 14.6447-0.069 25.7487-0.2061 33.3123-0.1374 7.4027-0.4122 13.4374-0.8244 18.1043-0.5495 4.1841-1.2365 7.3222-2.0609 9.4143-0.687 2.092-1.9923 3.3794-3.9158 3.8622-2.4731 0.6437-4.9463 0.9656-7.4194 0.9656-2.0609 0-3.0914 0.6437-3.0914 1.9311 0 1.6093 1.4426 2.4136 4.328 2.4139 2.7479-0.0003 7.9003-0.1612 15.4571-0.4828 5.3584-0.1612 8.9307-0.2413 10.7169-0.2413 1.7861 0 4.8775 0.08 9.2742 0.2413 9.2056 0.3216 16.556 0.4825 22.0521 0.4828 3.0225-0.0003 4.5338-0.8046 4.5341-2.4139-0.0003-1.2874-1.1682-1.9311-3.5036-1.9311-1.5116 0-3.2291-0.081-5.1524-0.2414-1.9238-0.3219-3.641-0.5632-5.1523-0.7242-2.8853-0.4828-4.8776-1.7702-5.9768-3.8622-0.9617-2.253-1.6487-5.3911-2.0609-9.4143-0.4122-4.6669-0.687-10.7016-0.8244-18.1043-0.1374-7.5636-0.2061-18.6676-0.2061-33.3123v-19.5523"/>
        <path d="m2367.6723 2182.67c-0.687 5.3106-1.6487 9.6557-2.8853 13.0351-1.0992 3.3795-2.954 5.3911-5.5646 6.0348-2.0609 0.4828-4.1219 0.7242-6.1828 0.7242-2.1983 0-3.2975 0.5632-3.2975 1.6897 0 1.7702 1.2366 2.655 3.7097 2.6553 2.1983-0.0003 6.3889-0.1612 12.5718-0.4828 4.2592-0.1612 6.8698-0.2413 7.8315-0.2413 1.2366 0 3.4349 0.08 6.5951 0.2413 6.4576 0.3216 11.4726 0.4825 15.0449 0.4828 3.2975-0.0003 4.9462-0.8851 4.9462-2.6553 0-1.1265-1.0304-1.6897-3.0914-1.6897-2.6105 0-5.4958-0.4023-8.656-1.207-1.9235-0.4827-3.4349-1.3678-4.534-2.6553-1.0992-1.2874-1.6488-2.9771-1.6488-5.0695 0-3.2182 0.2061-7 0.6183-11.3454l10.7169-96.0732h0.8244c1.2366 3.0576 2.4731 6.1152 3.7097 9.1728s3.2975 8.2073 6.1828 15.449c1.0992 2.5749 3.0914 7.5636 5.9768 14.9663 2.8853 7.2417 4.7401 11.9086 5.5645 14.0003 0.5496 1.6096 1.8549 4.9086 3.9158 9.8974 2.1981 4.8278 4.6712 10.4602 7.4194 16.8973 2.7476 6.2762 6.8695 15.61 12.3657 28.0011 0.1371 0.3221 0.3432 0.8049 0.6183 1.4486 3.2972 7.0808 5.4955 10.6209 6.595 10.6209 0.9615 0 1.8545-0.8043 2.6792-2.4136 0.8241-1.6092 2.4729-5.3106 4.9463-11.104l44.9286-109.5914h0.8244l12.3656 106.2116c0.2745 1.9315 0.4119 3.7017 0.4122 5.311-0.0003 3.0576-0.4812 4.7473-1.4426 5.0688-1.5117 0.805-2.2674 1.6901-2.2671 2.6557-0.0003 0.8046 0.4119 1.3679 1.2366 1.6897 0.8241 0.3219 2.4041 0.6437 4.7402 0.9656 2.198 0.1609 4.8772 0.3218 8.0376 0.4828 3.1599 0.1609 7.8313 0.3215 14.0145 0.4827 10.167 0.3216 16.762 0.4825 19.785 0.4828 3.5721-0.0003 5.3582-0.8851 5.3585-2.6553-0.0003-1.1265-1.0995-1.6897-3.2975-1.6897-4.1222 0-8.3815-0.8046-12.7779-2.4143-3.023-1.1261-5.2213-3.4596-6.595-7-1.3743-3.5404-2.5421-9.3337-3.5036-17.3801l-18.7546-149.1799c-0.5499-4.9885-1.7864-7.4828-3.7097-7.4832-1.5117 0.0004-3.023 1.9315-4.5341 5.7938l-56.0577 137.8342-56.2638-136.1448c-1.2365-2.8964-2.267-4.8275-3.0914-5.7931-0.8244-1.1265-1.6488-1.6897-2.4731-1.6901-1.6488 0.0004-2.8167 2.0924-3.5036 6.2765l-20.4034 157.3869"/>
        <path d="m2656.8438 2020.9375c-14.7015 0.0004-27.5396 2.8054-38.5313 8.4375-10.8542 5.6328-19.7239 13.1931-26.5937 22.6875-6.8698 9.3342-11.9525 19.5523-15.25 30.6563-3.1601 10.943-4.7504 21.9007-4.75 32.8437-0.0004 11.2651 1.5898 22.4588 4.75 33.5625 3.2976 11.1042 8.2985 21.3225 15.0312 30.6562 6.8697 9.1731 15.6077 16.5554 26.1875 22.1876 10.5793 5.4715 22.9417 8.2184 37.0937 8.2187 12.7777-0.0004 24.4518-2.4803 35.0313-7.4687 10.5795-4.9889 19.5806-11.9882 27-21 7.5569-9.173 13.328-19.716 17.3125-31.625 3.9845-12.0691 5.9684-25.0352 5.9688-38.875-0.0003-13.6788-1.9033-26.0836-5.75-37.1876-3.8474-11.2649-9.4055-20.8329-16.6876-28.7187-7.1445-7.8851-15.8828-13.9097-26.1874-18.0937-10.3047-4.1843-21.8471-6.281-34.625-6.2813zm-5.9688 11.5937c8.3812 0 16.2177 2.0082 23.5 6.0313 7.4191 4.0232 13.8789 9.9005 19.375 17.625 5.4957 7.5636 9.7269 16.807 12.75 27.75 3.1597 10.7821 4.75 22.8618 4.75 36.2187-0.0001 16.2535-1.7213 29.6917-5.1562 40.3126-3.2976 10.6216-7.4788 18.6533-12.5626 24.125-5.0836 5.3104-10.2479 8.9438-15.4687 10.875-5.0839 1.7701-9.9538 2.6566-14.625 2.6562-9.6179 0.0004-18.4063-2.244-26.375-6.75-7.8318-4.6669-14.5042-11.1052-20-19.3125-5.496-8.2073-9.6772-17.8069-12.5625-28.75-2.8854-10.9429-4.3438-22.6663-4.3438-35.2187 0.0001-14.3224 1.4585-26.4019 4.3438-36.2188 2.8852-9.9772 6.722-17.7739 11.5312-23.4062 4.946-5.7935 10.3732-9.8986 16.2813-12.3126 5.9079-2.4139 12.1048-3.625 18.5625-3.625z"/>
        <path d="m2767.0938 2024.3125c-3.0227 0-4.5313 0.7394-4.5313 2.1875 0 1.4487 1.1642 2.1562 3.5 2.1562 3.7096 0.0001 6.3825 0.2364 8.0313 0.7188 3.2975 0.805 5.4945 2.2517 6.5937 4.3438 1.2366 1.931 2.0065 5.0923 2.2813 9.4374 0.2747 4.0231 0.4062 8.6895 0.4062 14v37.1563 42.5c0 14.3229-0.05 25.3383-0.1875 33.0625-0.1374 7.5639-0.4316 13.6769-0.8437 18.3438-0.5495 4.1841-1.2381 7.3141-2.0626 9.4062-0.687 2.0921-1.9827 3.3922-3.9062 3.875-2.4732 0.6437-4.9332 0.9688-7.4062 0.9688-2.1984-0.0001-3.3126 0.65-3.3126 1.9374 0.0001 1.6093 1.3771 2.406 4.125 2.4063 3.7096-0.0003 9.2681-0.1784 16.6876-0.5 4.5339-0.1613 7.3695-0.2187 8.4687-0.2187 0.9619 0 3.1588 0.057 6.5937 0.2187 7.0074 0.1605 12.0086 0.25 15.0313 0.25 3.0228 0.1609 5.9084 0.2497 8.6563 0.25 2.7479-0.0003 4.125-0.797 4.125-2.4063-0.0001-1.2874-0.82-1.9374-2.4688-1.9374-1.3738-0.0001-3.0452-0.089-4.9688-0.25-1.7862-0.3219-3.4761-0.5578-5.125-0.7188-2.8854-0.4828-4.9009-1.783-6-3.875-0.9618-2.2529-1.6503-5.383-2.0624-9.4062-0.4122-4.6669-0.6751-10.8693-0.8126-18.5938-0.1374-7.7246-0.2187-18.74-0.2187-33.0625v-3.375c-0.0001-1.2871 0.557-1.9371 1.6563-1.9375l17.9374 0.5c1.6488-0.0001 2.8945 0.561 3.7188 1.6875 0.6869 0.9655 1.5069 2.3236 2.4688 4.0937 1.099 1.6095 3.5591 5.5363 7.4062 11.8126 4.2593 7.2416 7.7833 13.0612 10.5312 17.4062 6.4577 10.4602 11.7219 18.3456 15.8438 23.6562 4.1218 5.3106 8.2531 9.2378 12.375 11.8126 2.748 1.7702 5.6336 2.9812 8.6562 3.625 3.1602 0.6433 7.6354 0.9684 13.4063 0.9687h19.5625c2.6103-0.0003 3.9372-0.797 3.9375-2.4063-0.0002-1.2874-0.8515-1.9374-2.5-1.9374-1.5116-0.0001-3.4145-0.236-5.75-0.7188h-0.2187c-3.0232-0.6438-6.3844-2.033-10.0938-4.125-3.5727-2.2529-7.8353-6.3582-12.7812-12.3125-7.0074-8.6899-19.5011-26.2907-37.5-52.8437l-7.2188-10.625c10.03-9.4944 17.0467-18.5021 21.0312-27.0313 4.1219-8.5291 6.1876-17.5365 6.1876-27.0313-0.0001-7.4025-1.5397-14.1082-4.5626-20.0624-2.8853-5.9544-6.0338-10.2956-9.4687-13.0313-5.0838-4.0232-10.7735-6.7389-17.0937-8.1875-6.1829-1.448-13.1184-2.1875-20.8126-2.1875-1.9235 0-6.5304 0.089-13.8124 0.25-7.6943 0.3218-12.7769 0.4687-15.25 0.4687-0.6871 0-3.4411-0.058-8.25-0.2187-5.3584-0.161-9.3582-0.25-11.9688-0.25-2.4732-0.161-5.1459-0.25-8.0312-0.25zm53.375 11.3437c3.2976 0.0001 6.7402 0.7395 10.3124 2.1876 3.7096 1.4487 7.1525 3.9287 10.3126 7.4687 3.2974 3.3799 5.8888 7.9566 7.8124 13.75 2.061 5.7933 3.0938 12.7348 3.0938 20.7813-0.0001 9.1728-1.1643 16.7332-3.5 22.6874-2.1984 5.9542-5.0839 10.4428-8.6562 13.5-1.9236 1.6096-3.8265 2.7626-5.75 3.4063-1.9235 0.4829-4.8906 0.7187-8.875 0.7187-2.7479-0.0001-5.5522-0.1782-8.4376-0.5-2.748-0.4827-5.1577-1.1016-7.2187-1.9062-1.2366-0.6436-1.875-2.1217-1.875-4.375v-73.375c-0.0001-1.7703 0.6384-2.8922 1.875-3.375 1.7862-0.6437 5.4104-0.9688 10.9063-0.9688z"/>
        <path d="m3063.0511 2164.0829c-0.0003-14.4834 0.068-24.1391 0.2061-28.9669 0.1371-4.345 0.7554-7.5636 1.8549-9.6556 1.2363-2.0921 3.2285-3.46 5.9767-4.1037 2.4729-0.4828 4.3277-0.7241 5.5646-0.7241 1.7858 0 2.6789-0.6438 2.6792-1.9312-0.0003-1.6092-1.3743-2.4139-4.1219-2.4139-2.7482 0-6.8701 0.081-12.3657 0.2414-6.1831 0.3219-10.0989 0.4828-11.7474 0.4825-1.3742 0.0003-5.0836-0.08-11.1291-0.2411-8.7933-0.3219-15.0449-0.4828-18.7546-0.4828-2.8853 0-4.3279 0.8047-4.3279 2.4139 0 1.2874 1.0304 1.9312 3.0914 1.9312 3.7097 0 6.3889 0.2413 8.0377 0.7241 3.2975 0.8047 5.5645 2.253 6.8011 4.3451 1.2366 2.092 1.9235 5.2301 2.0609 9.4142 0.1374 4.8278 0.2061 14.3225 0.2061 28.4841v22.6908c0 4.506-1.3052 7.4831-3.9158 8.9315-2.1983 1.1265-4.7401 1.8506-7.6255 2.1725-2.7479 0.3218-6.0454 0.4828-9.8925 0.4828-10.7169 0-20.5408-2.253-29.4715-6.759-8.7934-4.5059-16.3502-10.8626-22.6704-19.0699s-11.1978-17.8629-14.6327-28.9669c-3.2975-11.104-4.9463-23.0931-4.9463-35.9672 0-14.3226 1.6488-26.2312 4.9463-35.7259 3.2975-9.6556 7.969-17.4606 14.0144-23.4149 6.4576-6.2762 12.984-10.2994 19.579-12.0699 6.595-1.9308 13.6709-2.8964 21.2277-2.8964 10.5795 0 19.9225 2.0116 28.0289 6.0348 8.2437 3.8623 14.2205 8.1268 17.9302 12.7937 2.3354 2.8967 3.9842 6.0348 4.9463 9.4143 0.9614 3.2185 1.6484 6.7589 2.0609 10.6209 0.2745 2.0923 0.9615 3.1384 2.0609 3.1384 1.5111 0 2.2668-1.6898 2.2671-5.0696-0.0003-10.299 0.1371-18.104 0.4122-23.4146 0.2745-5.4715 0.5493-9.9775 0.8244-13.5179 0.1371-1.2874 0.2058-2.1725 0.206-2.6556-0.0002-1.7699-0.962-2.7354-2.8853-2.8967-2.0612-0.1606-4.603-0.4824-7.6255-0.9655-3.023-0.4825-5.908-1.0457-8.6559-1.6894-1.0992-0.3219-2.8854-0.6438-5.3585-0.9656-2.4731-0.4828-5.6332-0.9656-9.4803-1.4484-3.8471-0.4827-7.5568-0.8046-11.1291-0.9655-3.5724-0.3219-7.076-0.4828-10.5109-0.4831-10.4421 0.0003-20.0598 1.0463-28.8532 3.1384-8.7934 2.092-17.6554 6.2761-26.5862 12.5523-10.3047 7.2417-18.892 17.702-25.7618 31.3805-6.7324 13.6792-10.0986 29.5305-10.0986 47.5543 0 16.0928 2.4731 30.1739 7.4194 42.2435 5.0836 12.0695 12.0222 21.9665 20.8155 29.6911 8.7934 7.7245 18.892 13.4374 30.2959 17.1387 11.4039 3.701 23.6322 5.5517 36.6848 5.552 9.0682-0.0003 18.0676-0.8854 26.9984-2.6556 8.9308-1.7699 16.4873-4.5057 22.6704-8.207 1.2363-0.8046 1.992-1.6093 2.267-2.4139 0.2745-0.9656 0.4119-3.0576 0.4122-6.2765v-26.5527"/>
        <path d="m3157.5938 2019c-0.9618 0.0004-1.8633 0.7391-2.6876 2.1875-0.8243 1.2875-1.8574 3.7675-3.0937 7.4687l-51.7187 151.5938c-2.3358 6.9201-4.7456 12.1471-7.2188 15.6875-2.4731 3.3795-5.9161 5.3879-10.3125 6.0313-2.1984 0.3222-4.3141 0.5-6.375 0.5-1.6487-0.0001-2.4687 0.65-2.4687 1.9374-0.0001 1.6093 1.296 2.406 3.9062 2.4063 3.5726-0.0003 7.2278-0.089 10.9375-0.25 3.8467-0.1609 6.7825-0.2503 8.8437-0.25 2.6102-0.1613 4.1188-0.2187 4.5313-0.2187 1.7857 0 5.3603 0.1468 10.7187 0.4687 4.8089 0.1609 8.5145 0.2497 11.125 0.25 2.3356-0.0003 3.4998-0.797 3.5-2.4063-0.0004-1.2874-1.0328-1.9374-3.0937-1.9374h-3.0625c-3.0229-0.0001-5.1699-0.6502-6.4062-1.9376-1.2368-1.2874-1.8438-3.1485-1.8438-5.5624 0-3.8623 1.0325-8.7642 3.0938-14.7188l11.125-34.5c0.4122-1.2875 1.0191-1.9375 1.8437-1.9375h45.9687c0.9618-0.0001 1.6504 0.561 2.0626 1.6875l16.4687 51.1562c0.2749 0.6438 0.4375 1.2939 0.4375 1.9376 0 1.9311-0.7703 3.1422-2.2812 3.625-1.9238 0.1609-2.875 0.9-2.875 2.1874 0 0.9656 1.7711 1.5845 5.3437 1.9063h0.8437c8.1062 0.3215 15.042 0.4997 20.8126 0.5 5.9081-0.0003 11.9418-0.0003 18.125 0 3.8466-0.0003 6.3885-0.1784 7.625-0.5 1.2366-0.3219 1.8437-0.9407 1.8437-1.9063 0-1.2874-0.8701-1.9374-2.6563-1.9374-3.0227-0.0001-5.9086-0.3251-8.6562-0.9688-2.8855-0.8046-5.7709-2.9909-8.6562-6.5312-2.8853-3.5404-6.0655-10.1256-9.5-19.7813-2.6108-7.2418-5.0706-14.2411-7.4063-21-2.3358-6.9198-4.1888-12.2362-5.5625-15.9375-1.2369-3.8624-7.778-22.9991-19.5938-57.4375-5.0839-14.9662-9.1836-27.135-12.3437-36.4687-3.16-9.3339-5.226-15.2112-6.1875-17.625-1.9237-5.1497-3.6449-7.7184-5.1562-7.7188zm-5.1563 49.5c0.4122-0.0001 0.7562 0.6501 1.0313 1.9375v0.2187l18.5624 59.625c-0.0003 0.966-0.3442 1.4688-1.0312 1.4688h-37.9375c-0.5496-0.0001-0.8125-0.5922-0.8125-1.7188l18.9375-59.375c0.2749-1.4482 0.7004-2.1562 1.25-2.1562z"/>
        <path d="m3279.479 2072.5958h0.6183c0.1374 0.1609 1.6487 2.092 4.5341 5.793 0.9617 1.2878 3.5036 4.5868 7.6255 9.8974 4.2592 5.3106 8.175 10.2189 11.7473 14.7245 3.7097 4.5063 7.7629 9.495 12.1596 14.9662 4.3967 5.4719 8.7247 10.6216 12.984 15.4494 4.9462 5.6324 14.0831 16.3341 27.4105 32.105 7.4194 8.69 14.0145 16.495 19.7851 23.4149 5.9078 6.7589 10.4418 11.9086 13.6022 15.449 1.5111 1.7699 2.8164 3.0573 3.9158 3.8623 1.0989 0.9652 2.1294 1.448 3.0915 1.4483 1.7858-0.0003 2.6789-2.4947 2.6792-7.4831l2.267-152.3177c0.1371-6.7589 0.6867-11.5868 1.6488-14.4834 1.0989-3.0577 3.0911-5.0693 5.9767-6.0352 1.6485-0.4824 3.7094-0.7238 6.1829-0.7238 2.4728 0 3.7094-0.7242 3.7097-2.1728-0.0003-0.8043-0.4125-1.3676-1.2366-1.6894-0.6873-0.3219-1.8551-0.4828-3.5036-0.4828-4.5344 0-10.0302 0.1609-16.4876 0.4828-2.0612 0.1609-3.2978 0.2413-3.7097 0.2413-1.3742 0-3.7787-0.08-7.2133-0.2413-7.2823-0.3219-13.19-0.4828-17.7241-0.4828-1.7862 0-3.1601 0.1609-4.1219 0.4828-0.8244 0.3218-1.2366 0.8851-1.2366 1.6894 0 1.4486 1.0992 2.1728 3.2975 2.1728 2.3358 0 4.3967 0.08 6.1829 0.2414 1.9235 0.1609 3.5036 0.5632 4.7402 1.207 2.4728 1.2874 4.1903 3.4599 5.1523 6.5175 1.0989 2.8967 1.7172 7.9659 1.8549 15.2076l2.0609 108.3846h-1.0305c-0.6872-0.8047-2.1986-2.5749-4.534-5.3106-2.3361-2.8967-5.7707-7.1613-10.3048-12.7937-9.8925-12.0696-16.6936-20.2769-20.4033-24.6219-3.5723-4.506-6.9385-8.6096-10.0986-12.311-7.1447-8.2073-14.5641-16.8973-22.2583-26.0702-7.6941-9.3338-14.1518-17.2192-19.3728-23.6563-5.2211-6.598-10.2361-12.7937-15.0449-18.5874-4.6715-5.954-7.0759-9.0116-7.2133-9.1726-0.5496-0.6437-1.1679-1.4483-1.8549-2.4139-2.6105-3.3794-4.5341-5.0692-5.7706-5.0692-1.7862 0-2.6793 2.7358-2.6793 8.207l-1.8548 142.9038c-0.1374 10.943-0.6183 18.4261-1.4427 22.4493-0.687 4.0232-2.3357 6.5176-4.9462 7.4831-2.3358 0.8047-5.4272 1.207-9.2743 1.207-2.1983 0-3.2975 0.6437-3.2975 1.9311 0 1.6093 1.5114 2.4136 4.5341 2.4139 3.2975-0.0003 6.7324-0.081 10.3047-0.2417 3.7097-0.1609 6.5263-0.2414 8.4499-0.2411 1.7861-0.1612 2.954-0.2413 3.5036-0.2413 1.2365 0 3.1601 0.08 5.7706 0.2413 7.4194 0.3216 14.0144 0.4825 19.7851 0.4828 3.1601-0.0003 4.7402-0.8046 4.7402-2.4139 0-1.2874-1.1679-1.9311-3.5036-1.9311-4.3967 0-7.969-0.5633-10.717-1.6897-2.1983-0.9656-3.9157-3.46-5.1523-7.4832-1.2366-4.0231-1.9236-10.4602-2.061-19.3112l-2.267-101.3842"/>
        <path d="m3549.0188 2101.0796c-0.8244 0.0003-1.2366-0.563-1.2366-1.6894v-5.0693-37.1742c0-5.3106 0.1374-9.9775 0.4122-14.0006 0.2748-4.3451 0.8931-7.5636 1.8548-9.6557 1.0992-2.092 3.0228-3.4599 5.7707-4.104 2.4731-0.4824 4.4651-0.7238 5.9767-0.7238 2.4729 0 3.7094-0.7242 3.7097-2.1728-0.0003-1.4481-1.4429-2.1722-4.328-2.1722-2.6105 0-7.9002 0.1609-15.8692 0.4828-5.6333 0.1609-8.9995 0.2413-10.0987 0.2413-1.6487 0-5.0149-0.08-10.0986-0.2413-8.3812-0.3219-14.9075-0.4828-19.579-0.4828-2.8853 0-4.3279 0.7241-4.3279 2.1722 0 1.4486 1.1678 2.1728 3.5036 2.1728 3.7097 0 6.3889 0.2414 8.0376 0.7238 3.2976 0.805 5.4959 2.2534 6.5951 4.3454 1.2365 1.9311 1.9922 5.0692 2.267 9.4143 0.2748 4.0231 0.4122 8.69 0.4122 14.0006v37.1742 42.4845c0 14.3229-0.069 25.3464-0.2061 33.0706-0.1374 7.5639-0.4122 13.6791-0.8244 18.346-0.5496 4.1841-1.2365 7.3222-2.0609 9.4143-0.687 2.092-1.9923 3.3794-3.9158 3.8622-2.4731 0.6437-4.9463 0.9656-7.4194 0.9656-2.1984 0-3.2975 0.6437-3.2975 1.9311 0 1.6093 1.3739 2.4136 4.1219 2.4139 2.8853-0.0003 8.3124-0.1612 16.2814-0.4828 5.3585-0.1612 8.5873-0.2413 9.6865-0.2413 1.9235 0 5.221 0.08 9.8925 0.2413 9.343 0.3216 16.7621 0.4825 22.2582 0.4828 2.7476-0.0003 4.1216-0.8046 4.1219-2.4139-0.0003-1.2874-1.0995-1.9311-3.2975-1.9311-1.6491 0-3.4352-0.081-5.3585-0.2414-1.9238-0.3219-3.641-0.5632-5.1523-0.7242-2.8854-0.4828-4.8776-1.7702-5.9768-3.8622-0.9617-2.253-1.6487-5.3106-2.0609-9.1729-0.4122-4.8278-0.687-11.0235-0.8244-18.5874-0.1374-7.7242-0.2061-18.7477-0.2061-33.0706v-21.2421c0-0.9655 0.4122-1.4483 1.2366-1.4483h78.7281c0.8241 0 1.2362 0.4828 1.2365 1.4483v21.2421c-0.0003 14.3229-0.069 25.3464-0.2061 33.0706-0.1376 7.5639-0.4124 13.6791-0.8243 18.346-0.5499 4.1841-1.2369 7.3222-2.061 9.4143-0.6873 2.092-1.9925 3.3794-3.9158 3.8622-2.4734 0.6437-4.9465 0.9656-7.4194 0.9656-2.1986 0-3.2978 0.6437-3.2975 1.9311-0.0003 1.6093 1.4424 2.4136 4.328 2.4139 2.7476-0.0003 8.1061-0.1612 16.0754-0.4828 5.3581-0.1612 8.5869-0.2413 9.6864-0.2413 1.9233 0 5.2208 0.08 9.8925 0.2413 9.3427 0.3216 16.7621 0.4825 22.2582 0.4828 2.7477-0.0003 4.1216-0.8046 4.1219-2.4139-0.0003-1.2874-1.0994-1.9311-3.2975-1.9311-1.649 0-3.4352-0.081-5.3584-0.2414-1.9239-0.3219-3.6413-0.5632-5.1524-0.7242-2.8856-0.4828-4.8779-1.7702-5.9767-3.8622-0.9621-2.253-1.6491-5.3106-2.061-9.1729-0.4125-4.8278-0.6873-11.0235-0.8244-18.5874-0.1376-7.7242-0.2063-18.7477-0.2061-33.0706v-42.4845c-0.0002-19.4722-0.0002-31.8636 0-37.1742-0.0002-5.3106 0.1372-9.9775 0.4122-14.0006 0.2745-4.3451 0.8928-7.5636 1.8549-9.6557 1.0989-2.092 3.0224-3.4599 5.7706-4.104 2.4729-0.4824 4.4651-0.7238 5.9768-0.7238 2.4728 0 3.7094-0.7242 3.7097-2.1728-0.0003-1.4481-1.443-2.1722-4.328-2.1722-2.6108 0-7.9006 0.1609-15.8693 0.4828-5.6335 0.1609-8.9997 0.2413-10.0986 0.2413-1.6491 0-5.0153-0.08-10.0986-0.2413-8.3815-0.3219-14.9078-0.4828-19.579-0.4828-2.8856 0-4.3283 0.7241-4.328 2.1722-0.0003 1.4486 1.1676 2.1728 3.5036 2.1728 3.7094 0 6.3886 0.2414 8.0377 0.7238 3.2972 0.805 5.4955 2.2534 6.595 4.3454 1.2363 1.9311 1.992 5.0692 2.267 9.4143 0.2746 4.0231 0.4119 8.69 0.4122 14.0006-0.0003 5.3106-0.0003 17.702 0 37.1742v5.0693c-0.0003 1.1264-0.4124 1.6897-1.2365 1.6894h-78.7281"/>
        <path d="m3722.4793 2136.8054c0 14.8057-0.069 26.151-0.2061 34.0361-0.1373 7.7249-0.4121 13.9206-0.8243 18.5875-0.687 7.2417-2.6793 11.2649-5.9768 12.0695-2.4731 0.6437-4.9462 0.9656-7.4194 0.9656-2.1983 0-3.2975 0.6437-3.2975 1.9311 0 1.6093 1.374 2.4136 4.1219 2.4139 2.8853-0.0003 8.3125-0.1612 16.2815-0.4828 5.3584-0.1612 8.5872-0.2413 9.6864-0.2413 1.9236 0 5.0837 0.08 9.4804 0.2413 9.3429 0.3216 16.8997 0.4825 22.6704 0.4828 2.6105-0.0003 3.9157-0.8046 3.9157-2.4139 0-1.2874-1.0991-1.9311-3.2975-1.9311-1.6487 0-3.4349-0.081-5.3584-0.2414-1.9236-0.3219-3.641-0.5632-5.1524-0.7242-2.8853-0.4828-4.8776-1.6092-5.9767-3.3798-1.0992-1.9308-1.8549-4.747-2.2671-8.4487-0.4122-4.6665-0.6869-10.8622-0.8243-18.5867v-34.2779-42.4845-37.1742c0-5.3106 0.1374-9.9775 0.4121-14.0006 0.2748-4.3451 0.8931-7.5636 1.8549-9.6557 1.0992-2.092 3.0227-3.4599 5.7706-4.104 2.4732-0.4824 4.5341-0.7238 6.1829-0.7238 2.1983 0 3.2975-0.8046 3.2975-2.4139 0-1.2874-1.4427-1.9311-4.328-1.9311s-7.9003 0.1609-15.0449 0.4828c-5.0837 0.1609-8.4499 0.2413-10.0986 0.2413-2.061 0-5.9768-0.08-11.7474-0.2413-7.4194-0.3219-12.4344-0.4828-15.0449-0.4828-3.2975 0-4.9463 0.6437-4.9463 1.9311 0 1.6093 1.0992 2.4139 3.2975 2.4139 2.8854 0 5.3585 0.3219 7.4194 0.9656 4.2593 1.1265 6.5951 5.6324 7.0073 13.5179 0.2747 4.0231 0.4121 8.69 0.4121 14.0006v37.1742 42.4845"/>
        <path d="m3841.2253 2094.3209v-37.1742c0-5.3106 0.1374-9.9775 0.4121-14.0006 0.2748-4.3451 0.8931-7.5636 1.8549-9.6557 1.0992-2.092 3.0227-3.4599 5.7706-4.104 2.4732-0.4824 5.1524-0.7238 8.0377-0.7238 2.4732 0 3.7097-0.7242 3.7097-2.1728 0-1.4481-1.4426-2.1722-4.328-2.1722-2.6105 0-8.3124 0.1609-17.1058 0.4828-6.1828 0.1609-9.8238 0.2413-10.923 0.2413-1.2366 0-4.7402-0.08-10.5108-0.2413-8.5186-0.3219-14.4266-0.4828-17.7241-0.4828-3.0228 0-4.5341 0.7241-4.5341 2.1722 0 1.4486 1.1678 2.1728 3.5036 2.1728 2.8853 0 5.1523 0.2414 6.8011 0.7238 3.2975 0.805 5.4959 2.2534 6.595 4.3454 1.2366 1.9311 1.9923 5.0692 2.2671 9.4143 0.2748 4.0231 0.4121 8.69 0.4121 14.0006v37.1742 42.4845c0 14.3229-0.069 25.3464-0.206 33.0706-0.1374 7.5639-0.4122 13.6791-0.8244 18.346-0.5496 4.1841-1.2366 7.3222-2.061 9.4143-0.6869 2.092-1.9922 3.3794-3.9158 3.8622-2.4731 0.6437-4.9462 0.9656-7.4194 0.9656-2.1983 0-3.2975 0.6437-3.2975 1.9311 0 1.6093 1.374 2.4136 4.1219 2.4139 2.8853-0.0003 8.3125-0.1612 16.2815-0.4828 5.3584-0.1612 8.5872-0.2413 9.6864-0.2413 4.9463 0 12.0222 0.1605 21.2278 0.4824 7.4194 0.3219 13.877 0.5632 19.3728 0.7245 5.4959 0.1606 11.9535 0.2411 19.3729 0.2411 5.2211 0 8.5186-0.4024 9.8925-1.2067 1.374-0.8046 2.4045-2.5748 3.0915-5.3109 0.4122-1.6089 0.7556-3.701 1.0304-6.2758 0.4122-2.7358 0.7557-5.7934 1.0305-9.1729 0.4122-3.3794 0.687-6.0348 0.8244-7.9659 0.1374-2.092 0.2061-3.5404 0.2061-4.345 0-2.7358-0.5496-4.1037-1.6488-4.1037-1.2365 0-1.9922 1.207-2.267 3.6206-0.1374 2.4142-0.7557 5.0695-1.8549 7.9662-1.0991 2.7358-2.267 4.9083-3.5036 6.5176-2.3357 2.8967-5.2897 4.7473-8.862 5.552-3.5723 0.8046-8.656 1.2069-15.251 1.2069-7.6942 0-13.3275-0.4023-16.8998-1.2069-3.4349-0.8047-6.1141-2.1726-8.0377-4.104-1.9235-1.9308-3.1601-6.5172-3.7097-13.759-0.4121-7.2417-0.6182-19.955-0.6182-38.1401v-42.4845"/>
        <path d="m3966.0089 2094.3209v-37.1742c0-5.3106 0.1374-9.9775 0.4125-14.0006 0.2745-4.3451 0.8928-7.5636 1.8545-9.6557 1.0992-2.092 3.0227-3.4599 5.7707-4.104 2.4731-0.4824 5.1523-0.7238 8.0377-0.7238 2.4731 0 3.7097-0.7242 3.7097-2.1728 0-1.4481-1.4427-2.1722-4.3277-2.1722-2.6109 0-8.3128 0.1609-17.1062 0.4828-6.1828 0.1609-9.8238 0.2413-10.9227 0.2413-1.2368 0-4.7404-0.08-10.5108-0.2413-8.5189-0.3219-14.4269-0.4828-17.7241-0.4828-3.023 0-4.5344 0.7241-4.5344 2.1722 0 1.4486 1.1679 2.1728 3.5039 2.1728 2.885 0 5.1521 0.2414 6.8011 0.7238 3.2972 0.805 5.4956 2.2534 6.5947 4.3454 1.2366 1.9311 1.9923 5.0692 2.2674 9.4143 0.2745 4.0231 0.4119 8.69 0.4119 14.0006v37.1742 42.4845c0 14.3229-0.069 25.3464-0.2061 33.0706-0.1374 7.5639-0.4122 13.6791-0.8244 18.346-0.5496 4.1841-1.2366 7.3222-2.0607 9.4143-0.6872 2.092-1.9925 3.3794-3.9157 3.8622-2.4735 0.6437-4.9466 0.9656-7.4195 0.9656-2.1986 0-3.2977 0.6437-3.2977 1.9311 0 1.6093 1.3739 2.4136 4.1221 2.4139 2.8851-0.0003 8.3122-0.1612 16.2815-0.4828 5.3582-0.1612 8.587-0.2413 9.6864-0.2413 4.946 0 12.0219 0.1605 21.2275 0.4824 7.4194 0.3219 13.877 0.5632 19.3729 0.7245 5.4958 0.1606 11.9534 0.2411 19.3728 0.2411 5.2211 0 8.5186-0.4024 9.8929-1.2067 1.3736-0.8046 2.4041-2.5748 3.0911-5.3109 0.4122-1.6089 0.7557-3.701 1.0308-6.2758 0.4119-2.7358 0.7553-5.7934 1.0301-9.1729 0.4122-3.3794 0.687-6.0348 0.8244-7.9659 0.1374-2.092 0.2061-3.5404 0.2061-4.345 0-2.7358-0.5496-4.1037-1.6487-4.1037-1.2366 0-1.9923 1.207-2.2671 3.6206-0.1374 2.4142-0.7557 5.0695-1.8548 7.9662-1.0992 2.7358-2.2671 4.9083-3.5034 6.5176-2.336 2.8967-5.29 4.7473-8.862 5.552-3.5726 0.8046-8.6563 1.2069-15.251 1.2069-7.6945 0-13.3277-0.4023-16.8998-1.2069-3.4352-0.8047-6.1144-2.1726-8.0376-4.104-1.9239-1.9308-3.1604-6.5172-3.71-13.759-0.4122-7.2417-0.6183-19.955-0.6183-38.1401v-42.4845"/>
      </g>
    </g>
  </g>
</svg>
