<?xml version="1.0" encoding="UTF-8" standalone="no"?>
<!-- Created with Inkscape (http://www.inkscape.org/) -->
<svg
   xmlns:dc="http://purl.org/dc/elements/1.1/"
   xmlns:cc="http://creativecommons.org/ns#"
   xmlns:rdf="http://www.w3.org/1999/02/22-rdf-syntax-ns#"
   xmlns:svg="http://www.w3.org/2000/svg"
   xmlns="http://www.w3.org/2000/svg"
   xmlns:sodipodi="http://sodipodi.sourceforge.net/DTD/sodipodi-0.dtd"
   xmlns:inkscape="http://www.inkscape.org/namespaces/inkscape"
   width="800"
   height="533.33002"
   id="svg2"
   sodipodi:version="0.32"
   inkscape:version="0.46"
   version="1.0"
   sodipodi:docname="Flag of Oakland, California.svg"
   sodipodi:docbase="F:\"
   inkscape:output_extension="org.inkscape.output.svg.inkscape">
  <defs
     id="defs4">
    <inkscape:perspective
       sodipodi:type="inkscape:persp3d"
       inkscape:vp_x="0 : 526.18109 : 1"
       inkscape:vp_y="0 : 1000 : 0"
       inkscape:vp_z="744.09448 : 526.18109 : 1"
       inkscape:persp3d-origin="372.04724 : 350.78739 : 1"
       id="perspective10" />
    <inkscape:perspective
       id="perspective2470"
       inkscape:persp3d-origin="372.04724 : 350.78739 : 1"
       inkscape:vp_z="744.09448 : 526.18109 : 1"
       inkscape:vp_y="0 : 1000 : 0"
       inkscape:vp_x="0 : 526.18109 : 1"
       sodipodi:type="inkscape:persp3d" />
  </defs>
  <sodipodi:namedview
     id="base"
     pagecolor="#ffffff"
     bordercolor="#666666"
     borderopacity="1.0"
     gridtolerance="10000"
     guidetolerance="10"
     objecttolerance="10"
     inkscape:pageopacity="0.0"
     inkscape:pageshadow="2"
     inkscape:zoom="0.5"
     inkscape:cx="529.35202"
     inkscape:cy="140.01512"
     inkscape:document-units="px"
     inkscape:current-layer="layer1"
     showgrid="false"
     width="800px"
     inkscape:window-width="1280"
     inkscape:window-height="952"
     inkscape:window-x="-4"
     inkscape:window-y="-4"
     showguides="false"
     inkscape:guide-bbox="true">
    <inkscape:grid
       type="xygrid"
       id="grid2383"
       visible="true"
       enabled="true" />
    <sodipodi:guide
       orientation="1,0"
       position="0,533.08594"
       id="guide2469" />
    <sodipodi:guide
       orientation="1,0"
       position="800,-0.234375"
       id="guide2471" />
    <sodipodi:guide
       orientation="1,0"
       position="400,277.33594"
       id="guide2547" />
    <sodipodi:guide
       orientation="horizontal"
       position="533.33203"
       id="guide2914" />
    <sodipodi:guide
       orientation="horizontal"
       position="0.00000000"
       id="guide2916" />
    <sodipodi:guide
       orientation="horizontal"
       position="266.66797"
       id="guide2918" />
  </sodipodi:namedview>
  <metadata
     id="metadata7">
    <rdf:RDF>
      <cc:Work
         rdf:about="">
        <dc:format>image/svg+xml</dc:format>
        <dc:type
           rdf:resource="http://purl.org/dc/dcmitype/StillImage" />
      </cc:Work>
    </rdf:RDF>
  </metadata>
  <g
     inkscape:label="Layer 1"
     inkscape:groupmode="layer"
     id="layer1">
    <path
       style="fill:#f5dc0f;fill-opacity:1;fill-rule:nonzero;stroke:none;stroke-width:2;stroke-linecap:round;stroke-linejoin:round;stroke-miterlimit:4;stroke-dashoffset:0;stroke-opacity:1"
       d="M 0,-0.0020129101 L 800,-0.0020129101 L 800,533.33002 L 0,533.33002 L 0,-0.0020129101 z"
       id="rect3828" />
    <path
       style="fill:#005e00;fill-rule:evenodd;stroke:none;stroke-width:1px;stroke-linecap:butt;stroke-linejoin:miter;stroke-opacity:1;fill-opacity:1"
       d="M 399 157.75 C 397.99166 157.75447 396.98347 157.90287 395.90625 158.3125 L 384.09375 162.8125 C 381.4592 163.81432 379.72315 166.5065 380.59375 170.8125 L 381.71875 176.28125 C 382.40661 179.68335 377.55998 178.7233 376.875 177.125 L 373.90625 170.21875 C 373.0459 168.21128 372.18448 165.52786 366.0625 169.75 C 355.98975 176.69687 354.36646 183.23044 350.8125 190.40625 C 347.41749 197.26112 344.46318 195.97671 342.6875 195 C 338.64153 192.77452 340.98861 187.83311 339.1875 184.3125 C 336.13932 178.35422 332.21658 182.48329 328.75 186.1875 C 320.9857 194.48405 318.70403 202.10411 314.625 212.0625 C 312.54843 217.13218 308.08191 217.32894 306.3125 214.46875 C 303.89507 210.56108 304.88968 205.30223 305.15625 200.6875 C 305.34505 197.41905 303.14025 197.99201 301.8125 197.96875 C 296.33011 197.87268 287.30911 204.25311 288.21875 223.1875 C 283.94458 226.61372 282.90685 230.1073 283.71875 238.125 C 284.01862 241.08621 283.96977 245.34983 280.0625 246.3125 L 268.0625 249.28125 C 261.42694 250.9161 258.82359 261.82057 263.1875 263 L 269.625 264.75 C 276.278 266.54811 272.58778 277.19148 267 276.9375 L 259.34375 276.59375 C 252.01745 276.26074 251.30886 281.0954 253.625 287.375 C 254.47148 289.67 256.26477 290.75512 253.4375 292.9375 C 250.78125 294.98787 251.72822 298.9802 253.28125 300.0625 C 256.968 302.63176 258.25635 305.04753 254.125 309.625 C 251.1296 312.94388 245.64827 316.20768 240.75 320.25 C 238.76059 321.89177 237.22079 328.32769 243.1875 328.0625 L 251 327.71875 C 255.12212 327.53554 254.99337 332.73111 250.125 333.46875 L 238.65625 335.1875 C 234.22192 335.85937 233.62501 338.1926 233.625 340.40625 L 233.625 350.15625 C 233.625 353.27598 236.23666 354.27785 238.53125 353.90625 L 247.09375 352.5 C 260.61941 350.30965 267.67565 339.05997 281.65625 336.875 C 290.22259 335.34986 300.1357 336.97311 307.5625 332.65625 C 311.75863 329.27702 315.15936 324.31897 322.25 323.71875 C 329.59464 322.64581 338.43345 323.27122 344.0625 318.9375 C 352.34915 311.80077 362.90582 310.34031 374.8125 310.375 C 383.64246 310.40072 384.60377 316.73004 384 323.96875 C 383.02648 335.64062 383.69843 345.4714 383.03125 358.4375 C 382.6231 366.36959 372.6766 371.42009 366.21875 374.53125 C 363.35759 375.90966 357.4405 376.1546 354.21875 376.65625 C 338.41159 380.73759 321.93526 380.3589 305.90625 382.5 C 294.25576 384.4653 276.25272 382.17532 266.3125 389.125 C 262.31738 391.91818 264.92196 396.24999 272.21875 396.25 L 517.84375 396.25 C 523.91415 396.25 524.54427 393.45187 523.15625 390.75 C 521.39465 387.7631 517.34438 387.27719 514 386.84375 C 506.80581 386.69354 499.0163 386.36823 493 382.1875 C 486.66432 379.05411 479.28475 380.66322 472.53125 379.28125 C 463.64725 376.53924 449.75899 376.11091 445.3125 376.125 C 440.86602 376.13908 434.6875 374.40624 434.6875 374.40625 C 425.46451 372.92094 421.69554 369.30798 420.90625 364.09375 C 420.47931 361.27325 420.06544 354.36392 418.6875 352.53125 C 418.82561 341.95321 418.85358 331.37817 418.1875 320.78125 C 417.84542 315.3391 416.58393 312.61399 423.21875 309.25 C 425.32623 308.18147 442.06978 305.91322 455.40625 313.125 C 463.81668 317.67299 470.88595 321.64744 477.125 319.0625 C 479.46438 318.09326 481.87736 321.34081 483.9375 323.90625 C 492.67084 334.78173 506.93238 343.13348 510.6875 336.8125 C 514.32367 330.69175 530.82811 331.67013 536.4375 341.84375 C 538.67716 345.90575 547.67683 352.32192 550.5625 342 L 555.0625 325.8125 C 557.30626 317.78671 554.34362 311.47241 548.96875 312.25 C 539.60501 313.13267 545.80771 305.26604 550.71875 302.5 C 552.34109 300.96072 552.89576 298.08659 552.28125 295.03125 C 551.38628 290.58137 551.00826 286.17957 551.9375 281.8125 C 554.40228 270.22916 549.34632 270.02545 545.6875 267.53125 C 542.46416 265.33394 537.2429 263.60815 535.0625 260.9375 C 531.4082 256.46149 527.48437 254.14281 520.96875 255.375 C 518.10789 255.91603 515.23957 253.3279 516.625 250.3125 L 519.59375 243.875 C 520.54122 241.20778 521.55086 238.46128 520.46875 235.875 C 518.18427 230.41502 512.83726 225.8314 492.8125 225.78125 C 489.16789 225.77213 488.26116 220.32612 490.53125 218.46875 L 498.1875 212.21875 C 500.24144 210.53825 501.32275 207.74424 497.15625 204.21875 L 488.09375 196.5625 C 485.56727 194.42471 482.54237 194.70461 480.78125 197.25 L 475.9375 204.3125 C 474.3535 206.60189 471.25467 206.61553 468.625 204.90625 L 461.65625 200.40625 C 458.3939 198.28572 460.36304 195.61718 461.65625 194.125 L 466.1875 188.90625 C 468.16893 186.61999 468.30577 183.57097 465.125 181.59375 L 452.28125 173.59375 C 449.79154 172.04609 445.74115 171.69332 443.5625 175.6875 L 439.40625 183.34375 C 438.09475 185.74817 434.95737 186.20442 432.4375 185.4375 L 424.4375 183 C 421.72714 182.17511 421.65513 179.4378 422 177.4375 L 423.75 167.34375 C 424.27353 164.30726 421.03376 163.03049 418.875 162.46875 L 404.25 158.65625 C 402.34422 158.16034 400.68056 157.74254 399 157.75 z M 377.03125 202.625 C 378.8833 202.66282 380.76489 203.51393 382.34375 205.5 C 386.77794 213.91387 373.43743 214.91818 369.875 220.25 C 366.74151 230.43189 354.34667 216.89579 364.5625 215.5 C 366.16572 214.35631 367.11631 212.56759 367.90625 210.8125 C 368.90898 206.41102 372.95673 202.5418 377.03125 202.625 z M 446 208.65625 C 446.82985 208.60175 447.5871 209.06367 448.15625 210.40625 C 449.95012 215.15105 446.33916 219.89798 447.21875 224.71875 C 447.2879 227.60096 448.68588 233.46545 443.46875 232.3125 C 439.30022 232.54271 436.21494 230.01086 433.25 227.6875 C 431.82359 226.81776 429.19593 225.79971 429.65625 224.25 C 431.11709 219.33193 437.46594 216.85927 440.84375 212.6875 C 442.03037 211.39502 444.17434 208.77615 446 208.65625 z M 394.6875 228.96875 C 396.72844 228.82025 398.83909 230.31296 398.5625 232.5625 C 398.72843 234.71342 398.30371 237.38566 396.0625 238.3125 C 394.31766 239.10788 392.34706 238.53551 390.5 238.75 C 389.09422 238.80422 387.68893 238.94383 386.34375 239.375 C 384.38215 238.30416 386.89897 236.53144 387.6875 235.65625 C 389.39091 233.24213 390.63943 229.94507 393.8125 229.15625 C 394.09307 229.06591 394.39594 228.98996 394.6875 228.96875 z M 296.84375 244.15625 C 297.04728 244.16051 297.24516 244.16783 297.4375 244.1875 C 298.62962 244.30614 299.84366 244.4694 301 244.78125 C 302.19107 245.16847 302.48417 246.54535 302.40625 247.65625 C 302.36745 248.92404 302.12848 250.21379 302.40625 251.46875 C 302.57073 252.53647 301.82096 253.64436 300.6875 253.65625 C 299.28909 253.84248 297.85351 253.4198 296.46875 253.75 C 294.05878 255.55097 293.82549 259.06954 291.3125 260.78125 C 289.19165 262.16652 286.27038 261.66153 284.3125 260.21875 C 282.71773 259.10417 281.81366 256.98865 282.4375 255.09375 C 282.57556 254.07457 283.29513 253.01752 284.375 252.875 C 288.31623 252.38619 291.73803 249.53998 293.25 245.84375 C 293.79497 244.51147 295.41906 244.12644 296.84375 244.15625 z M 449 249.90625 C 450.88943 250.00374 452.84246 250.72466 454.71875 250.84375 C 458.35422 251.0745 455.89408 255.94544 455.53125 258.25 C 454.62847 260.42921 453.46984 266.06016 449.65625 263.875 C 447.80852 261.92286 447.30705 259.26427 446.09375 256.96875 C 445.54754 255.01893 444.10414 252.47521 445.71875 250.65625 C 446.76504 250.0035 447.86634 249.84776 449 249.90625 z M 492.6875 256.75 C 494.24803 256.5494 495.73876 258.32769 495.1875 259.84375 C 494.89447 262.39507 493.05527 264.3974 491.1875 266 C 490.38213 267.26611 491.27752 269.01691 492.59375 269.5 C 493.9117 270.37097 494.84914 272.31068 493.875 273.75 C 492.76023 275.53889 490.4371 275.87201 488.5 275.78125 C 484.60567 275.95205 480.46347 275.66538 477.09375 273.5 C 475.88282 272.75099 474.62762 271.92428 473.84375 270.71875 C 473.47757 269.38337 474.73561 268.31784 475.84375 267.875 C 477.39552 266.97652 478.76848 265.78352 480.25 264.78125 C 484.11231 261.86035 488.13239 259.15126 492.375 256.8125 C 492.47903 256.78094 492.58346 256.76337 492.6875 256.75 z M 430.1875 274.4375 C 433.26443 274.37647 436.09112 276.3453 437.84375 278.78125 C 439.91386 280.76604 440.83734 283.77985 440.40625 286.59375 C 440.57399 288.76555 438.95696 290.60967 437.09375 291.5 C 435.73529 292.13583 434.24123 292.73209 432.71875 292.59375 C 428.98068 292.3658 425.08655 293.40192 421.90625 295.1875 C 421.06937 295.65737 419.90237 294.59497 419.21875 293.8125 C 417.80644 292.14901 418.0412 289.76595 418.46875 287.78125 C 419.06524 285.90825 419.37589 283.95759 419.75 282.03125 C 420.12242 280.04653 420.94448 278.11249 422.375 276.65625 C 424.21178 274.71649 427.03793 274.42781 429.5625 274.46875 C 429.76967 274.4463 429.98237 274.44157 430.1875 274.4375 z M 376.15625 279 C 379.91771 278.9718 383.6746 280.85708 386 283.8125 C 387.98577 286.03558 388.39119 289.14154 388.53125 292 C 388.86371 293.65759 388.58485 295.68952 387.09375 296.71875 C 385.29612 297.43032 383.2767 297.38932 381.375 297.1875 C 379.5186 296.95391 378.70503 295.01945 377.375 293.96875 C 375.09045 292.34871 372.14839 292.76212 369.53125 293.03125 C 368.1462 293.19341 366.38792 293.33889 365.4375 292.09375 C 364.49897 290.1954 365.23101 288.06336 365.625 286.125 C 366.59086 282.97241 369.47405 280.82613 372.4375 279.6875 C 373.63419 279.22143 374.90243 279.0094 376.15625 279 z M 319.71875 284.71875 C 320.29751 284.69942 320.87644 284.79453 321.4375 285 C 322.49875 285.59563 322.89904 286.88055 322.84375 288.03125 C 322.80359 289.35155 322.46643 290.64002 322.25 291.9375 C 321.94331 293.30964 320.71588 294.23301 319.40625 294.5625 C 318.36244 294.8566 317.26712 294.93356 316.1875 294.9375 C 314.86379 295.5893 313.28004 295.95501 311.84375 295.46875 C 311.10838 295.20717 310.47873 294.53277 310.40625 293.75 C 310.42004 293.66352 310.45495 293.55522 310.46875 293.46875 C 311.60342 291.03245 313.9388 289.48527 315.28125 287.1875 C 316.27606 285.7659 317.98246 284.77675 319.71875 284.71875 z M 478.125 287.0625 C 478.45803 287.04328 478.77481 287.07923 479.09375 287.1875 C 484.00808 289.06052 489.42933 288.75388 494.4375 290.25 C 495.69188 290.88431 496.04097 292.57457 495.5625 293.8125 C 495.34595 295.79348 493.19317 297.28741 491.25 296.78125 C 489.63088 296.65689 487.74737 296.73556 486.625 298.09375 C 485.31294 299.38673 484.11097 301.15423 482.125 301.375 C 479.75135 301.48246 477.85228 298.80774 478.65625 296.59375 C 478.85567 294.85489 477.52106 293.2594 475.96875 292.65625 C 474.03922 291.26442 474.82982 287.72845 477.15625 287.25 C 477.47102 287.14824 477.79197 287.08172 478.125 287.0625 z "
       id="path2506" />
    <path
       style="font-size:62.01147842px;font-style:normal;font-variant:normal;font-weight:bold;font-stretch:normal;text-align:center;line-height:125%;writing-mode:lr-tb;text-anchor:middle;fill:#005e00;fill-opacity:1;stroke:none;stroke-width:1px;stroke-linecap:butt;stroke-linejoin:miter;stroke-opacity:1;font-family:Futura Md BT;-inkscape-font-specification:Futura Md BT Bold"
       d="M 317.33454,463.99545 L 317.33454,420.08783 L 328.35611,420.09084 L 328.35611,463.99545 L 317.33454,463.99545 z M 364.70938,436.71404 C 366.32424,436.71406 367.60605,436.25988 368.55482,435.35148 C 369.50354,434.44314 369.97791,433.2017 369.97793,431.62716 C 369.97791,430.05268 369.51363,428.82133 368.5851,427.93311 C 367.65652,427.04497 366.36461,426.60087 364.70938,426.60084 C 363.09448,426.60087 361.82276,427.05001 360.89422,427.94825 C 359.96565,428.84657 359.50137,430.07287 359.50138,431.62716 C 359.50137,433.18151 359.97069,434.4179 360.90936,435.33634 C 361.84799,436.25483 363.11466,436.71406 364.70938,436.71404 L 364.70938,436.71404 z M 364.70938,456.30458 C 366.60684,456.30458 368.10565,455.77975 369.20582,454.73007 C 370.30593,453.6804 370.856,452.2371 370.85602,450.40016 C 370.856,448.60362 370.30593,447.18555 369.20582,446.14596 C 368.10565,445.1064 366.60684,444.58661 364.70938,444.58659 C 362.83206,444.58661 361.34839,445.1064 360.25836,446.14596 C 359.1683,447.18555 358.62328,448.60362 358.62329,450.40016 C 358.62328,452.21692 359.17335,453.65517 360.2735,454.71493 C 361.37362,455.7747 362.85225,456.30458 364.70938,456.30458 L 364.70938,456.30458 z M 372.52137,440.31724 C 375.40794,440.8421 377.64859,442.10877 379.24332,444.11726 C 380.83798,446.12579 381.63533,448.68437 381.63536,451.793 C 381.63533,455.9917 380.14661,459.27193 377.1692,461.63369 C 374.19174,463.99545 370.03846,465.17633 364.70938,465.17634 C 359.40044,465.17633 355.26231,463.99545 352.29497,461.63369 C 349.32762,459.27193 347.84395,455.9917 347.84395,451.793 C 347.84395,448.68437 348.6413,446.12579 350.236,444.11726 C 351.83069,442.10877 354.07133,440.8421 356.95794,440.31724 C 354.61635,439.75206 352.80971,438.67715 351.53799,437.09252 C 350.26627,435.50795 349.63041,433.54486 349.63041,431.20325 C 349.63041,427.4285 350.95764,424.48639 353.61211,422.37691 C 356.26656,420.26751 359.96565,419.21279 364.70938,419.21275 C 369.47326,419.21279 373.18748,420.27256 375.85207,422.39205 C 378.51659,424.51162 379.84886,427.44869 379.8489,431.20325 C 379.84886,433.54486 379.21301,435.50795 377.94132,437.09252 C 376.66957,438.67715 374.86292,439.75206 372.52137,440.31724 L 372.52137,440.31724 z M 429.41016,420.09084 L 429.41016,429.14428 L 412.60529,429.14428 L 411.7272,434.83674 C 412.63556,434.6349 413.54897,434.48351 414.46746,434.38255 C 415.3859,434.28165 416.28922,434.23118 417.17743,434.23115 C 421.67889,434.23118 425.23163,435.5786 427.83565,438.27341 C 430.43962,440.96826 431.74161,444.62698 431.74165,449.24956 C 431.74161,454.17496 430.12169,458.06077 426.88186,460.90699 C 423.64198,463.75322 419.2061,465.17633 413.57422,465.17634 C 410.88947,465.17633 408.3864,464.87354 406.06502,464.26796 C 403.74362,463.66238 401.70483,462.78429 399.94865,461.63369 L 400.73591,450.91491 L 401.67456,451.09658 C 402.7646,452.73166 404.21799,454.01852 406.03474,454.95716 C 407.85147,455.89582 409.80952,456.36514 411.90888,456.36513 C 414.71472,456.36514 416.88471,455.69396 418.41887,454.35158 C 419.95298,453.00922 420.72005,451.11678 420.72008,448.67426 C 420.72005,446.3327 419.89243,444.41503 418.2372,442.92124 C 416.58192,441.4275 414.43211,440.68061 411.78776,440.68059 C 410.01138,440.68061 408.40659,440.97836 406.97339,441.57382 C 405.54018,442.16933 404.24827,443.07266 403.09767,444.2838 L 401.614,443.4057 L 405.27777,420.09084 L 429.41016,420.09084 z M 482.24156,463.99545 L 448.38959,463.99545 L 468.28292,440.43836 C 469.49406,439.00518 470.38729,437.70822 470.96261,436.5475 C 471.53789,435.38683 471.82554,434.30184 471.82556,433.2925 C 471.82554,431.73821 471.33603,430.47154 470.35703,429.49248 C 469.37799,428.5135 468.09113,428.02399 466.49645,428.02395 C 464.59895,428.02399 463.14051,428.62957 462.12113,429.84069 C 461.10172,431.05189 460.59203,432.80807 460.59204,435.10925 L 460.59204,435.65427 L 449.93382,435.65427 L 449.93382,435.35148 C 449.93381,430.32519 451.40235,426.36873 454.33942,423.48209 C 457.27647,420.59554 461.28844,419.15224 466.37534,419.15219 C 471.34108,419.15224 475.29753,420.43405 478.24472,422.99763 C 481.19185,425.56129 482.66543,428.97273 482.66546,433.23195 C 482.66543,435.31114 482.20115,437.33478 481.27263,439.30289 C 480.34404,441.27105 478.8099,443.42591 476.67021,445.76747 L 468.67654,454.57867 L 482.24156,454.57867 L 482.24156,463.99545 z"
       id="text3749"
       sodipodi:nodetypes="ccccccssssssscccssssssscccssssssscsssssssccccccssssssscccssssssscccccccsssssccccssssscccc" />
    <path
       id="path3795"
       style="font-size:80px;font-style:normal;font-variant:normal;font-weight:bold;font-stretch:normal;text-align:center;line-height:125%;writing-mode:lr-tb;text-anchor:middle;fill:#005e00;fill-opacity:1;stroke:none;stroke-width:1px;stroke-linecap:butt;stroke-linejoin:miter;stroke-opacity:1;font-family:Futura Md BT;-inkscape-font-specification:Futura Md BT Bold"
       d="M 200.84356,113.15864 C 199.84637,113.12656 198.85565,113.15951 197.84281,113.22436 C 193.79139,113.4839 189.9121,114.47922 186.25162,116.24119 C 182.56767,118.0146 179.39069,120.40865 176.6843,123.40211 C 173.9779,126.39569 171.9584,129.76811 170.62062,133.5334 C 169.2003,137.36744 168.57011,141.26221 168.76179,145.17279 C 168.9535,149.08344 169.94485,152.86074 171.71816,156.54466 C 173.48021,160.20517 175.81285,163.35377 178.75555,165.95457 C 181.69825,168.5554 185.13149,170.48815 189.01417,171.76943 C 192.79168,173.07245 196.69073,173.59579 200.71868,173.3476 C 204.7466,173.09945 208.59465,172.10383 212.27863,170.33048 C 215.9156,168.57975 219.09622,166.19971 221.81441,163.20052 C 224.53251,160.20136 226.59546,156.80716 228.00367,153.0079 C 229.37702,149.19653 229.9659,145.3234 229.76817,141.43013 C 229.57035,137.53695 228.59666,133.73447 226.81208,130.02702 C 225.03871,126.34313 222.65485,123.2174 219.7122,120.61652 C 216.76946,118.01577 213.41107,116.06365 209.61012,114.77187 C 206.75937,113.80314 203.83515,113.25492 200.84356,113.15864 z M 197.77947,126.69311 C 199.72825,126.64375 201.69003,127.02018 203.67524,127.84199 C 207.64563,129.48573 210.66985,132.48472 212.74817,136.80216 C 214.84903,141.16662 215.32898,145.38399 214.1611,149.47216 C 212.99316,153.5604 210.44089,156.55768 206.54579,158.43265 C 202.58024,160.34155 198.66904,160.45351 194.79163,158.82284 C 190.9142,157.19223 187.90556,154.1809 185.78208,149.76952 C 183.69249,145.4286 183.23813,141.19978 184.4004,137.0998 C 185.56265,132.99992 188.08932,130.01408 191.98445,128.13902 C 193.89682,127.2185 195.83068,126.74246 197.77947,126.69311 z M 263.97288,89.317912 L 251.13116,92.38556 L 244.11799,155.11198 L 258.60185,150.21768 L 259.53888,139.09115 L 280.68719,133.351 L 286.82245,142.31497 L 301.47922,138.98301 L 263.97288,89.317912 z M 261.99549,106.95645 L 273.71522,123.62918 L 260.43047,127.28647 L 261.99549,106.95645 z M 309.93351,137.45305 L 303.37908,79.612862 L 318.71443,77.909349 L 321.09831,98.772622 L 337.92719,75.924135 L 355.62667,73.915429 L 335.43075,101.11894 L 365.39281,130.66939 L 345.79937,132.46112 L 326.1042,113.53356 L 323.14732,117.81503 L 325.02822,134.74725 L 309.93351,137.45305 z M 377.55521,130.2287 L 377.61047,72.687697 L 393.1964,72.701857 L 393.15327,116.8835 L 416.41718,116.93744 L 416.40505,130.29681 L 397.65605,129.9104 L 377.55521,130.2287 z M 496.5981,139.35332 L 511.60139,83.036798 L 526.13314,86.909999 L 542.09634,125.079 L 551.15794,93.579953 L 565.6142,97.433034 L 550.70012,153.662 L 536.42724,149.1035 L 519.94793,110.44987 L 511.49,142.52275 L 496.5981,139.35332 z M 594.2519,108.08421 L 568.54089,160.173 L 579.3353,164.93124 C 585.26602,167.54554 591.08771,170.30941 597.37367,171.99117 C 600.91352,172.8191 604.3545,172.97255 607.68222,172.46251 C 612.04538,171.79453 615.93062,170.09567 619.35518,167.38385 C 622.7796,164.67201 625.60104,161.0579 627.83201,156.52508 C 630.06287,151.99226 631.20934,147.5494 631.26933,143.18161 C 631.32917,138.81384 630.29798,134.70447 628.16576,130.83958 C 626.52811,127.85676 624.24112,125.18127 621.30302,122.80635 C 618.3648,120.43151 612.92071,117.2621 604.95325,113.34068 L 594.2519,108.08421 z M 602.4566,126.34917 L 604.82069,127.52756 C 610.31144,130.23 613.74355,133.34267 615.14006,136.87438 C 616.53646,140.40614 616.0305,144.61027 613.61562,149.51694 C 611.20064,154.4236 608.16528,157.38844 604.53221,158.40121 C 600.89903,159.41398 596.32727,158.56931 590.83654,155.86688 L 588.50341,154.72004 L 602.4566,126.34917 z M 467.20811,76.780749 L 454.12466,75.007773 L 425.09666,130.69573 L 440.33894,131.6395 L 445.11218,121.60045 L 466.90692,123.87842 L 469.39251,134.62911 L 484.18221,136.91526 L 467.20811,76.780749 z M 458.99908,92.517333 L 463.91282,112.29579 L 450.20341,110.91286 L 458.99908,92.517333 z"
       inkscape:transform-center-x="-199.6942"
       inkscape:transform-center-y="-50.375415" />
  </g>
</svg>
