<?xml version="1.0" encoding="utf-8"?>
<!-- Generator: Adobe Illustrator 12.0.0, SVG Export Plug-In . SVG Version: 6.00 Build 51448)  -->
<!DOCTYPE svg PUBLIC "-//W3C//DTD SVG 1.1//EN" "http://www.w3.org/Graphics/SVG/1.1/DTD/svg11.dtd" [
	<!ENTITY ns_svg "http://www.w3.org/2000/svg">
	<!ENTITY ns_xlink "http://www.w3.org/1999/xlink">
]>
<svg  version="1.1"
	 id="svg2" xmlns:sodipodi="http://sodipodi.sourceforge.net/DTD/sodipodi-0.dtd" xmlns:rdf="http://www.w3.org/1999/02/22-rdf-syntax-ns#" xmlns:cc="http://web.resource.org/cc/" xmlns:inkscape="http://www.inkscape.org/namespaces/inkscape" xmlns:svg="http://www.w3.org/2000/svg" sodipodi:version="0.32" inkscape:version="0.45.1" sodipodi:docbase="C:\Documents and Settings\Owner\Desktop\SVG\Download" sodipodi:docname="Flag_of_Sacramento_CA.svg" inkscape:output_extension="org.inkscape.output.svg.inkscape" xmlns:dc="http://purl.org/dc/elements/1.1/"
	 xmlns="&ns_svg;" xmlns:xlink="&ns_xlink;" width="900" height="500" viewBox="-350.5 -150.5 900 500"
	 overflow="visible" enable-background="new -350.5 -150.5 900 500" xml:space="preserve">
<rect x="-350.5" y="-150.5" fill="#FFFFFF" width="900" height="500"/>
<sodipodi:namedview  borderopacity="1.0" inkscape:cy="42.434694" inkscape:cx="104.51862" inkscape:zoom="2.2743067" bordercolor="#666666" pagecolor="#ffffff" id="base" inkscape:pageopacity="0.0" objecttolerance="10" inkscape:pageshadow="2" inkscape:window-x="60" inkscape:window-y="-17" inkscape:current-layer="layer1" gridtolerance="10000" inkscape:window-width="878" guidetolerance="10" inkscape:window-height="692" inkscape:document-units="px">
	</sodipodi:namedview>
<path id="path2033" sodipodi:nodetypes="csss" fill="#000066" d="M547.876-21.275C230.622-44.322,258.344,71.957,258.344,71.957
	c4.107,51.332-13.349,83.805-13.349,83.805C150.538,302.422-350.5,221.76-350.5,221.76V349.5h900V-21.056L547.876-21.275z"/>
<path id="path2035" fill="#3200C4" d="M-349.286,138.758c113.358,7.982,229.346,10.833,340.563-16.614
	c34.15-9.95,70.985-22.253,94.509-50.763c17.039-40.307-16.67-82.388,1.071-122.883c12.312-32.348,50.702-34.447,78.367-44.929
	c124.867-33.897,255.891-39.438,384.275-29.995V-150.5h-899.981v289.272L-349.286,138.758z"/>
<path id="path2038" sodipodi:nodetypes="css" fill="#FBCB00" d="M548.049,231.352c-41.383-17.037-82.038-78.52-82.038-78.52
	C396.315,39.499,549.5,43.203,549.5,43.203v188.379L548.049,231.352z"/>
<path id="path2040" sodipodi:nodetypes="cs" fill="#005E00" d="M-350.5,31.351c0,0,159.805-33.771,70.481-181.476H-350.5V31.351z"/>
<g>
	<path fill="#FFFFFF" d="M-264.988,297.777l-3.278,2.516c-1.81-2.357-3.983-4.146-6.519-5.362c-2.536-1.217-5.322-1.825-8.357-1.825
		c-3.318,0-6.392,0.795-9.22,2.385c-2.828,1.591-5.02,3.727-6.575,6.408s-2.333,5.697-2.333,9.047c0,5.062,1.739,9.286,5.218,12.674
		c3.479,3.387,7.867,5.08,13.165,5.08c5.826,0,10.699-2.281,14.621-6.844l3.278,2.486c-2.073,2.643-4.66,4.686-7.761,6.129
		s-6.564,2.166-10.39,2.166c-7.276,0-13.015-2.419-17.218-7.257c-3.525-4.085-5.287-9.017-5.287-14.796
		c0-6.08,2.134-11.195,6.404-15.346c4.269-4.15,9.617-6.227,16.045-6.227c3.883,0,7.388,0.769,10.517,2.305
		C-269.549,292.854-266.986,295.007-264.988,297.777z"/>
	<path fill="#FFFFFF" d="M-245.663,290.043h4.156v41.563h-4.156V290.043z"/>
	<path fill="#FFFFFF" d="M-224.53,294.105v-4.063h22.813v4.063h-9.281v37.5h-4.25v-37.5H-224.53z"/>
	<path fill="#FFFFFF" d="M-187.463,290.043h4.773l10.649,17.194l10.462-17.194h4.803l-13.156,21.696v19.866h-4.094v-19.866
		L-187.463,290.043z"/>
	<path fill="#FFFFFF" d="M-90.936,289.012c6.293,0,11.56,2.1,15.8,6.297c4.239,4.197,6.359,9.365,6.359,15.502
		c0,6.08-2.115,11.238-6.345,15.473c-4.23,4.236-9.389,6.354-15.475,6.354c-6.162,0-11.363-2.107-15.602-6.324
		c-4.24-4.217-6.359-9.318-6.359-15.305c0-3.99,0.965-7.689,2.897-11.097c1.931-3.407,4.564-6.075,7.9-8.005
		C-98.426,289.977-94.817,289.012-90.936,289.012z M-90.752,293.043c-3.071,0-5.982,0.801-8.732,2.402
		c-2.751,1.603-4.898,3.76-6.443,6.475c-1.545,2.713-2.317,5.738-2.317,9.074c0,4.938,1.709,9.107,5.129,12.509
		c3.419,3.401,7.541,5.103,12.364,5.103c3.222,0,6.203-0.781,8.944-2.346s4.88-3.703,6.416-6.418
		c1.535-2.713,2.303-5.729,2.303-9.046c0-3.298-0.768-6.28-2.303-8.947c-1.536-2.667-3.698-4.801-6.486-6.403
		C-84.667,293.844-87.625,293.043-90.752,293.043z"/>
	<path fill="#FFFFFF" d="M-48.857,290.043h20.813v4.063h-16.656v13.031h16.656v4.063h-16.656v20.406h-4.156V290.043z"/>
	<path fill="#FFFFFF" d="M14.077,323.85l3.532-2.119c2.487,4.584,5.361,6.875,8.622,6.875c1.395,0,2.705-0.324,3.93-0.975
		c1.225-0.648,2.158-1.52,2.798-2.611s0.961-2.25,0.961-3.475c0-1.393-0.471-2.758-1.414-4.096
		c-1.301-1.846-3.676-4.068-7.125-6.669c-3.469-2.618-5.627-4.513-6.475-5.681c-1.471-1.957-2.206-4.073-2.206-6.35
		c0-1.807,0.433-3.453,1.3-4.939s2.087-2.658,3.66-3.515s3.284-1.284,5.13-1.284c1.959,0,3.792,0.484,5.497,1.454
		s3.509,2.753,5.413,5.349l-3.391,2.572c-1.563-2.075-2.894-3.443-3.995-4.104c-1.101-0.66-2.301-0.99-3.599-0.99
		c-1.675,0-3.044,0.509-4.108,1.525c-1.063,1.018-1.595,2.27-1.595,3.758c0,0.904,0.188,1.779,0.565,2.627s1.064,1.771,2.063,2.769
		c0.546,0.527,2.335,1.911,5.369,4.152c3.598,2.655,6.065,5.018,7.403,7.089c1.337,2.07,2.006,4.15,2.006,6.24
		c0,3.014-1.146,5.63-3.436,7.852s-5.075,3.332-8.354,3.332c-2.526,0-4.816-0.674-6.871-2.02
		C17.705,329.27,15.811,327.014,14.077,323.85z"/>
	<path fill="#FFFFFF" d="M75.766,290.043l19.375,41.563h-4.479l-6.506-13.688H66.208l-6.464,13.688h-4.634l19.625-41.563H75.766z
		 M75.233,298.803l-7.137,15.115h14.247L75.233,298.803z"/>
	<path fill="#FFFFFF" d="M151.914,297.777l-3.279,2.516c-1.809-2.357-3.982-4.146-6.518-5.362c-2.537-1.217-5.322-1.825-8.357-1.825
		c-3.318,0-6.391,0.795-9.219,2.385c-2.828,1.591-5.02,3.727-6.576,6.408c-1.555,2.682-2.332,5.697-2.332,9.047
		c0,5.062,1.738,9.286,5.217,12.674c3.479,3.387,7.867,5.08,13.164,5.08c5.826,0,10.699-2.281,14.621-6.844l3.279,2.486
		c-2.074,2.643-4.66,4.686-7.762,6.129c-3.1,1.443-6.564,2.166-10.391,2.166c-7.275,0-13.014-2.419-17.217-7.257
		c-3.525-4.085-5.287-9.017-5.287-14.796c0-6.08,2.133-11.195,6.402-15.346s9.617-6.227,16.045-6.227
		c3.883,0,7.389,0.769,10.518,2.305C147.352,292.854,149.916,295.007,151.914,297.777z"/>
	<path fill="#FFFFFF" d="M172.051,290.043h8.281c4.615,0,7.742,0.188,9.383,0.565c2.467,0.565,4.475,1.776,6.02,3.634
		c1.545,1.855,2.316,4.141,2.316,6.855c0,2.262-0.531,4.25-1.596,5.965s-2.586,3.012-4.564,3.888s-4.709,1.324-8.195,1.343
		l14.949,19.313h-5.129l-14.949-19.313h-2.359v19.313h-4.156V290.043z M176.207,294.105v14.125l7.154,0.057
		c2.771,0,4.82-0.264,6.15-0.791c1.328-0.527,2.365-1.37,3.109-2.528s1.117-2.452,1.117-3.884c0-1.395-0.377-2.66-1.131-3.801
		c-0.754-1.139-1.744-1.953-2.969-2.443c-1.227-0.489-3.262-0.734-6.107-0.734H176.207z"/>
	<path fill="#FFFFFF" d="M235.51,290.043l19.375,41.563h-4.479l-6.506-13.688h-17.949l-6.463,13.688h-4.635l19.625-41.563H235.51z
		 M234.979,298.803l-7.139,15.115h14.248L234.979,298.803z"/>
	<path fill="#FFFFFF" d="M271.033,331.605l5.924-41.563h0.695l16.896,34.094l16.762-34.094h0.664l5.965,41.563h-4.059l-4.113-29.75
		l-14.719,29.75h-1.086l-14.852-29.969l-4.066,29.969H271.033z"/>
	<path fill="#FFFFFF" d="M337.742,290.043h23.813v4.063h-19.656v13.031h19.5v4.063h-19.5v16.344h19.5v4.063h-23.656V290.043z"/>
	<path fill="#FFFFFF" d="M380.354,331.605v-41.563h0.9l27.631,31.832v-31.832h4.094v41.563h-0.932l-27.412-31.486v31.486H380.354z"
		/>
	<path fill="#FFFFFF" d="M430.596,294.105v-4.063h22.813v4.063h-9.281v37.5h-4.25v-37.5H430.596z"/>
	<path fill="#FFFFFF" d="M490.754,289.012c6.293,0,11.559,2.1,15.799,6.297s6.359,9.365,6.359,15.502
		c0,6.08-2.115,11.238-6.346,15.473c-4.23,4.236-9.389,6.354-15.475,6.354c-6.162,0-11.361-2.107-15.602-6.324
		s-6.359-9.318-6.359-15.305c0-3.99,0.965-7.689,2.896-11.097s4.564-6.075,7.9-8.005S486.871,289.012,490.754,289.012z
		 M490.938,293.043c-3.072,0-5.982,0.801-8.732,2.402c-2.752,1.603-4.898,3.76-6.443,6.475c-1.545,2.713-2.318,5.738-2.318,9.074
		c0,4.938,1.709,9.107,5.129,12.509s7.541,5.103,12.365,5.103c3.221,0,6.203-0.781,8.943-2.346c2.742-1.564,4.881-3.703,6.416-6.418
		c1.535-2.713,2.303-5.729,2.303-9.046c0-3.298-0.768-6.28-2.303-8.947s-3.697-4.801-6.486-6.403
		C497.021,293.844,494.064,293.043,490.938,293.043z"/>
</g>
</svg>
