<?xml version="1.0" encoding="UTF-8" standalone="no"?>
<!-- Created with Inkscape (http://www.inkscape.org/) -->

<svg
   xmlns:dc="http://purl.org/dc/elements/1.1/"
   xmlns:cc="http://creativecommons.org/ns#"
   xmlns:rdf="http://www.w3.org/1999/02/22-rdf-syntax-ns#"
   xmlns:svg="http://www.w3.org/2000/svg"
   xmlns="http://www.w3.org/2000/svg"
   xmlns:sodipodi="http://sodipodi.sourceforge.net/DTD/sodipodi-0.dtd"
   xmlns:inkscape="http://www.inkscape.org/namespaces/inkscape"
   version="1.0"
   width="1024"
   height="642.93866"
   id="svg2"
   inkscape:version="0.48.4 r9939"
   sodipodi:docname="20140323042733!Flag_of_San_Luis_Obispo,_California.svg">
  <metadata
     id="metadata14">
    <rdf:RDF>
      <cc:Work
         rdf:about="">
        <dc:format>image/svg+xml</dc:format>
        <dc:type
           rdf:resource="http://purl.org/dc/dcmitype/StillImage" />
      </cc:Work>
    </rdf:RDF>
  </metadata>
  <sodipodi:namedview
     pagecolor="#ffffff"
     bordercolor="#666666"
     borderopacity="1"
     objecttolerance="10"
     gridtolerance="10"
     guidetolerance="10"
     inkscape:pageopacity="0"
     inkscape:pageshadow="2"
     inkscape:window-width="1920"
     inkscape:window-height="1096"
     id="namedview12"
     showgrid="false"
     inkscape:zoom="0.36397669"
     inkscape:cx="921.81769"
     inkscape:cy="175.85723"
     inkscape:window-x="-8"
     inkscape:window-y="-8"
     inkscape:window-maximized="1"
     inkscape:current-layer="svg2"
     fit-margin-top="0"
     fit-margin-left="0"
     fit-margin-right="0"
     fit-margin-bottom="0" />
  <defs
     id="defs4" />
  <g
     transform="matrix(1.6680207,0,0,1.6680207,-413.78507,-452.87614)"
     id="layer1">
    <g
       transform="matrix(5.071711,0,0,5.071711,-1386.823,-2424.135)"
       id="g1882">
      <path
         d="m 322.35715,569.50507 0,-38 60.5,0 60.5,0 0,38 0,38 -60.5,0 -60.5,0 0,-38 z"
         style="fill:#fdfdfd"
         id="path1898"
         inkscape:connector-curvature="0" />
      <path
         d="m 322.35715,593.66006 c 0,-17.41948 -0.0244,-17.38654 13.31874,-17.97012 10.33059,-0.45183 32.60251,1.94992 40.19243,4.33425 2.74386,0.86196 6.23533,1.75255 7.75884,1.97907 5.50789,0.81894 8.20976,2.80598 8.54526,6.28446 l 0.31528,3.26874 15.18472,-0.2757 15.18473,-0.27569 0.31646,-2.75038 c 0.37021,-3.21751 1.66237,-3.99007 9.48279,-5.66962 5.04009,-1.08243 6.12008,-1.03527 8.25,0.36031 2.36537,1.54985 2.45075,2.00566 2.45075,13.08274 l 0,11.47695 -60.5,0 -60.5,0 0,-13.84501 z m 73.34799,-9.69051 c -0.32408,-0.84454 0.59005,-4.16331 2.03139,-7.37505 1.44134,-3.21174 2.62062,-7.0412 2.62062,-8.50993 0,-3.3465 4.10134,-7.5795 7.34376,-7.5795 3.95655,0 6.55937,2.98482 7.62963,8.74938 0.53603,2.88715 1.66131,6.57731 2.50061,8.20034 0.8393,1.62303 1.526,4.09831 1.526,5.50062 l 0,2.54966 -11.53139,0 c -9.44619,0 -11.63793,-0.27766 -12.12062,-1.53552 z m 27.95967,-7.65553 c -0.56929,-0.71992 -1.33217,-3.9546 -1.69529,-7.18818 -1.35037,-12.025 -10.24842,-17.57323 -20.75154,-12.93927 -4.04677,1.78543 -7.86083,7.94025 -7.86083,12.68516 0,4.30406 -2.15092,4.95456 -8.65379,2.61718 -9.48482,-3.40922 -29.60358,-10.18374 -32.84621,-11.0602 -1.65,-0.44598 -4.575,-1.25516 -6.5,-1.79819 -1.925,-0.54302 -6.91008,-1.86112 -11.07795,-2.92912 -12.3611,-3.16746 -11.92205,-2.64336 -11.92205,-14.23151 l 0,-9.96482 60.52114,0 60.52114,0 -0.27114,19.75 -0.27114,19.75 -5,2.64645 c -6.19825,3.28067 -12.73395,4.50677 -14.19234,2.6625 z"
         style="fill:#fffffe;fill-opacity:1"
         id="path1896"
         inkscape:connector-curvature="0" />
      <path
         d="m 322.37246,594.25507 c 0.008,-7.2875 0.34592,-13.74513 0.75,-14.3503 1.81768,-2.72222 5.60414,-3.39905 18.91895,-3.38176 14.3,0.0186 28.50982,1.72557 36.31574,4.36255 2.475,0.8361 6.4125,2.00988 8.75,2.60839 3.71126,0.95026 4.25,1.43826 4.25,3.84966 0,4.76721 1.26626,5.16146 16.57756,5.16146 15.07602,0 15.92021,-0.25463 16.57662,-5 0.31067,-2.24587 1.09425,-2.64941 7.7086,-3.96983 7.32734,-1.46276 7.37187,-1.45861 9.25,0.86078 1.57897,1.94995 1.88722,4.02754 1.88722,12.71983 l 0,10.38922 -60.5,0 -60.5,0 0.0153,-13.25 z m 73.98469,-11.53856 c 0,-0.9837 0.9,-3.55385 2,-5.71144 1.1,-2.15759 2,-4.88558 2,-6.06222 0,-6.60483 4.67104,-11.21339 9.5399,-9.41228 2.96165,1.09559 4.10521,2.93854 4.85007,7.81627 0.36466,2.38797 1.55109,6.08254 2.63652,8.21016 3.50308,6.8666 3.39137,6.94807 -9.52649,6.94807 -10.38016,0 -11.5,-0.17416 -11.5,-1.78856 z m 27.30766,-6.40249 c -0.56929,-0.71992 -1.33217,-3.9546 -1.69529,-7.18818 -1.35037,-12.025 -10.24842,-17.57323 -20.75154,-12.93927 -4.04677,1.78543 -7.86083,7.94025 -7.86083,12.68516 0,4.30406 -2.15092,4.95456 -8.65379,2.61718 -9.48482,-3.40922 -29.60358,-10.18374 -32.84621,-11.0602 -1.65,-0.44598 -4.575,-1.25516 -6.5,-1.79819 -1.925,-0.54302 -6.91008,-1.86112 -11.07795,-2.92912 -12.3611,-3.16746 -11.92205,-2.64336 -11.92205,-14.23151 l 0,-9.96482 60.52114,0 60.52114,0 -0.27114,19.75 -0.27114,19.75 -5,2.64645 c -6.19825,3.28067 -12.73395,4.50677 -14.19234,2.6625 z"
         style="fill:#ffffff;fill-opacity:1"
         id="path1894"
         inkscape:connector-curvature="0" />
      <path
         d="m 322.37246,594.25507 c 0.008,-7.2875 0.34592,-13.74513 0.75,-14.3503 1.81768,-2.72222 5.60414,-3.39905 18.91895,-3.38176 14.3,0.0186 28.50982,1.72557 36.31574,4.36255 2.475,0.8361 6.4125,2.00988 8.75,2.60839 3.71126,0.95026 4.25,1.43826 4.25,3.84966 0,4.76721 1.26626,5.16146 16.57756,5.16146 15.07602,0 15.92021,-0.25463 16.57662,-5 0.31067,-2.24587 1.09425,-2.64941 7.7086,-3.96983 7.32734,-1.46276 7.37187,-1.45861 9.25,0.86078 1.57897,1.94995 1.88722,4.02754 1.88722,12.71983 l 0,10.38922 -60.5,0 -60.5,0 0.0153,-13.25 z m 73.98469,-11.53856 c 0,-0.9837 0.9,-3.55385 2,-5.71144 1.1,-2.15759 2,-4.88558 2,-6.06222 0,-6.60483 4.67104,-11.21339 9.5399,-9.41228 2.96165,1.09559 4.10521,2.93854 4.85007,7.81627 0.36466,2.38797 1.55109,6.08254 2.63652,8.21016 3.50308,6.8666 3.39137,6.94807 -9.52649,6.94807 -10.38016,0 -11.5,-0.17416 -11.5,-1.78856 z m 27.59503,-7.35213 c -0.23435,-0.74762 -0.68047,-3.82793 -0.99138,-6.84513 -1.24313,-12.06402 -12.1216,-18.36172 -22.53809,-13.04763 -4.17489,2.12987 -8.06556,8.54079 -8.06556,13.29016 0,1.44389 -0.38797,2.86504 -0.86216,3.1581 -0.47418,0.29306 -6.66168,-1.52866 -13.75,-4.04828 -13.80203,-4.90608 -30.93459,-10.16862 -43.88784,-13.48087 -11.13026,-2.8461 -11.5,-3.29752 -11.5,-14.04065 l 0,-8.84501 60.5,0 60.5,0 0,18.06574 c 0,9.93616 -0.43204,18.87302 -0.96009,19.85969 -1.94568,3.63554 -17.5879,8.66778 -18.44488,5.93388 z"
         style="fill:#ffe642;fill-opacity:1"
         id="path1892"
         inkscape:connector-curvature="0" />
      <path
         d="m 322.37246,594.25507 c 0.008,-7.2875 0.34592,-13.74513 0.75,-14.3503 1.81768,-2.72222 5.60414,-3.39905 18.91895,-3.38176 14.3,0.0186 28.50982,1.72557 36.31574,4.36255 2.475,0.8361 6.4125,2.00988 8.75,2.60839 3.71126,0.95026 4.25,1.43826 4.25,3.84966 0,4.76721 1.26626,5.16146 16.57756,5.16146 15.07602,0 15.92021,-0.25463 16.57662,-5 0.31067,-2.24587 1.09425,-2.64941 7.7086,-3.96983 7.32734,-1.46276 7.37187,-1.45861 9.25,0.86078 1.57897,1.94995 1.88722,4.02754 1.88722,12.71983 l 0,10.38922 -60.5,0 -60.5,0 0.0153,-13.25 z m 73.98469,-11.53856 c 0,-0.9837 0.9,-3.55385 2,-5.71144 1.1,-2.15759 2,-4.88558 2,-6.06222 0,-6.60483 4.67104,-11.21339 9.5399,-9.41228 2.96165,1.09559 4.10521,2.93854 4.85007,7.81627 0.36466,2.38797 1.55109,6.08254 2.63652,8.21016 3.50308,6.8666 3.39137,6.94807 -9.52649,6.94807 -10.38016,0 -11.5,-0.17416 -11.5,-1.78856 z m 28.61806,-7.92672 c -0.33993,-0.33993 -0.62057,-2.00555 -0.62364,-3.70139 -0.0248,-13.70547 -11.47163,-22.04233 -23.41384,-17.05255 -4.32791,1.80831 -9.58058,9.36255 -9.58058,13.7785 0,2.64199 -0.25988,2.86872 -2.75,2.39924 -1.5125,-0.28517 -9.5,-2.8713 -17.75,-5.74697 -8.25,-2.87566 -16.35,-5.59305 -18,-6.03863 -1.65,-0.44558 -4.575,-1.25444 -6.5,-1.79747 -1.925,-0.54302 -7.02001,-1.88794 -11.32224,-2.9887 -12.29181,-3.14498 -12.67776,-3.56083 -12.67776,-13.6598 l 0,-8.47695 60.5,0 60.5,0 -0.0318,17.75 c -0.0222,12.39749 -0.39915,18.21599 -1.25,19.2953 -2.40847,3.05517 -15.50558,7.83399 -17.10014,6.23942 z"
         style="fill:#ffe642;fill-opacity:1"
         id="path1890"
         inkscape:connector-curvature="0" />
      <path
         d="m 322.37246,594.25507 c 0.008,-7.2875 0.34592,-13.74513 0.75,-14.3503 1.81768,-2.72222 5.60414,-3.39905 18.91895,-3.38176 14.3,0.0186 28.50982,1.72557 36.31574,4.36255 2.475,0.8361 6.4125,2.00988 8.75,2.60839 3.71126,0.95026 4.25,1.43826 4.25,3.84966 0,4.76721 1.26626,5.16146 16.57756,5.16146 15.07602,0 15.92021,-0.25463 16.57662,-5 0.31067,-2.24587 1.09425,-2.64941 7.7086,-3.96983 7.32734,-1.46276 7.37187,-1.45861 9.25,0.86078 1.57897,1.94995 1.88722,4.02754 1.88722,12.71983 l 0,10.38922 -60.5,0 -60.5,0 0.0153,-13.25 z m 73.98469,-11.53856 c 0,-0.9837 0.9,-3.55385 2,-5.71144 1.1,-2.15759 2,-4.88558 2,-6.06222 0,-6.60483 4.67104,-11.21339 9.5399,-9.41228 2.96165,1.09559 4.10521,2.93854 4.85007,7.81627 0.36466,2.38797 1.55109,6.08254 2.63652,8.21016 3.50308,6.8666 3.39137,6.94807 -9.52649,6.94807 -10.38016,0 -11.5,-0.17416 -11.5,-1.78856 z"
         style="fill:#0052a5;fill-opacity:1"
         id="path1888"
         inkscape:connector-curvature="0" />
    </g>
  </g>
</svg>
