<?xml version="1.0" encoding="UTF-8" standalone="no"?>
<!-- Created with Inkscape (http://www.inkscape.org/) -->

<svg
   xmlns:dc="http://purl.org/dc/elements/1.1/"
   xmlns:cc="http://creativecommons.org/ns#"
   xmlns:rdf="http://www.w3.org/1999/02/22-rdf-syntax-ns#"
   xmlns:svg="http://www.w3.org/2000/svg"
   xmlns="http://www.w3.org/2000/svg"
   xmlns:sodipodi="http://sodipodi.sourceforge.net/DTD/sodipodi-0.dtd"
   xmlns:inkscape="http://www.inkscape.org/namespaces/inkscape"
   version="1.0"
   width="1024"
   height="682.66748"
   viewBox="0 0 819.2 546.13398"
   id="svg2"
   inkscape:version="0.48.4 r9939"
   sodipodi:docname="Flag_of_San_Francisco.svg">
  <metadata
     id="metadata35">
    <rdf:RDF>
      <cc:Work
         rdf:about="">
        <dc:format>image/svg+xml</dc:format>
        <dc:type
           rdf:resource="http://purl.org/dc/dcmitype/StillImage" />
      </cc:Work>
    </rdf:RDF>
  </metadata>
  <sodipodi:namedview
     pagecolor="#ffffff"
     bordercolor="#666666"
     borderopacity="1"
     objecttolerance="10"
     gridtolerance="10"
     guidetolerance="10"
     inkscape:pageopacity="0"
     inkscape:pageshadow="2"
     inkscape:window-width="1920"
     inkscape:window-height="1096"
     id="namedview33"
     showgrid="false"
     fit-margin-top="0"
     fit-margin-left="0"
     fit-margin-right="0"
     fit-margin-bottom="0"
     inkscape:zoom="0.74465776"
     inkscape:cx="375.12267"
     inkscape:cy="-23.397298"
     inkscape:window-x="-8"
     inkscape:window-y="-8"
     inkscape:window-maximized="1"
     inkscape:current-layer="g2438" />
  <defs
     id="defs61" />
  <g
     id="g2438"
     transform="translate(-0.25390657,262.46878)">
    <g
       transform="matrix(1.9266364,0,0,1.9266364,0.253906,-262.46878)"
       id="g4"
       style="fill:#feca00;fill-rule:evenodd;stroke:none">
      <path
         d="m 0,0 c 0,0 425.197,0 425.197,0 0,0 0,283.465 0,283.465 0,0 -425.197,0 -425.197,0 C 0,283.465 0,0 0,0 z"
         id="path6"
         style="fill:#feca00;fill-opacity:1;stroke:none"
         inkscape:connector-curvature="0" />
    </g>
    <g
       transform="matrix(1.9266364,0,0,1.9266364,49.405663,-213.317)"
       id="g8"
       style="fill:#ffffff;fill-rule:evenodd;stroke:none">
      <path
         d="m 0,0 c 0,0 374.173,0 374.173,0 0,0 0,232.44 0,232.44 0,0 -374.173,0 -374.173,0 C 0,232.44 0,0 0,0 z"
         id="path10"
         inkscape:connector-curvature="0" />
    </g>
    <g
       transform="matrix(1.9266364,0,0,1.9266364,157.54564,-188.0299)"
       id="g12"
       style="fill:#161413;fill-rule:nonzero;stroke:none">
      <path
         d="m 95.5355,119.491 c 0,0 -9.561,-23.7379 -9.561,-23.7379 0,0 -0.351,-0.871 -0.351,-0.871 0,0 0.794,0.502 0.794,0.502 0,0 12.838,10.6799 12.838,10.6799 0,0 -0.525,-11.2839 -0.525,-11.2839 -4.126,-0.944 -5.681,-4.512 -5.233,-8.397 -2.367,0.826 -4.458,1.088 -6.274,0.785 -1.92,-0.32 -3.525,-1.265 -4.815,-2.835 -3.519,-0.403 -6.114,-1.201 -7.784,-2.395 -1.684,-1.203 -2.44,-2.794 -2.266,-4.771 -2.133,-1.021 -3.742,-2.147 -4.526,-3.438 -0.792,-1.302 -0.763,-2.746 0.376,-4.378 -3.494,-1.497 -5.425,-3.482 -5.792,-5.957 -0.074,-0.498 -0.083,-1.017 -0.028,-1.555 0.046,-0.451 0.137,-0.9133 0.273,-1.386 -2.435,-0.999 -3.695,-2.2754 -4.273,-3.7109 -0.566,-1.4082 -0.465,-2.9434 -0.173,-4.5146 -2.566,-1.0372 -3.948,-2.3506 -4.644,-3.8243 -0.68,-1.4384 -0.695,-3.0058 -0.52,-4.6103 -2.662,-0.71 -4.659,-1.6524 -5.988,-2.8252 -1.33,-1.1738 -1.993,-2.5713 -1.992,-4.1934 -3.088,-0.375 -5.155,-1.1699 -6.475,-2.2724 -1.327,-1.1094 -1.897,-2.5176 -1.982,-4.1162 -2.262,-0.6211 -3.983,-1.5245 -5.105,-2.7354 -1.114,-1.2012 -1.637,-2.6934 -1.519,-4.5019 -2.876,-0.1133 -4.599,-0.7588 -5.65,-1.712 -1.049,-0.9521 -1.42,-2.1875 -1.591,-3.5048 -3.115,-0.6338 -5.3247,-1.5049 -6.6294,-2.6114 C 14.792,14.1934 14.3799,12.8369 14.8809,11.252 13.3028,10.5694 11.3526,10.1094 9.4034,9.6494 5.1748,8.6543 0.9463,7.6572 0.1358,4.334 0.0176,3.8467 0,3.4053 0.0694,3.0078 0.253,1.9649 1.0127,1.2383 2.1104,0.7666 3.1534,0.3194 4.5078,0.1026 5.9502,0.0645 8.3916,0 11.1094,0.4483 12.9825,1.1445 c 8.082,1.7471 15.925,3.1749 23.677,4.585 14.614,2.6602 28.911,5.2617 43.641,9.7744 12.622,3.8662 17.828,15.209 22.7325,25.8926 3.645,7.9453 7.123,15.5215 13.359,19.2744 0.546,-1.5459 1.094,-3.0918 1.642,-4.6387 -0.822,0.7325 -1.967,0.8213 -3.293,0.5489 3.374,-2.1182 1.606,-4.1582 5.026,-6.8428 -1.043,0.0625 -1.772,-0.126 -2.281,-0.5654 3.801,-3.0996 0.59,-8.3028 4.39,-10.7012 -0.78,-3.6592 -0.78,-7.3174 0,-10.9756 -4.63,-2.0127 -1.064,-10.4355 -9.33,-6.0371 0.887,-8.6016 6.026,-7.7217 11.525,-6.0371 11.792,-5.2676 12.744,4.2031 20.305,5.2139 -0.364,2.8466 -1.775,5.0312 -5.487,5.7627 -1.169,3.2636 1.298,5.0732 0.274,7.957 -1.389,4.9853 2.029,7.0703 -0.548,11.5244 0.462,4.8643 0.413,5.6279 3.841,9.0547 -0.371,0.7246 -0.963,0.8672 -1.824,0.6318 -0.013,1.5586 1.197,3.543 2.589,5.2178 6.356,-3.7119 9.866,-11.3613 13.552,-19.3877 4.901,-10.6836 10.109,-22.0264 22.729,-25.8926 14.731,-4.5127 29.029,-7.1142 43.642,-9.7744 7.753,-1.4101 15.596,-2.8379 23.678,-4.585 1.873,-0.6962 4.591,-1.1445 7.031,-1.08 1.443,0.0381 2.798,0.2549 3.841,0.7021 1.097,0.4717 1.856,1.1983 2.041,2.2412 0.068,0.3975 0.053,0.8389 -0.067,1.3262 -0.81,3.3232 -5.039,4.3203 -9.267,5.3154 -1.949,0.46 -3.899,0.92 -5.478,1.6026 0.502,1.5849 0.089,2.9414 -1.24,4.0683 -1.304,1.1065 -3.515,1.9776 -6.628,2.6114 -0.173,1.3173 -0.541,2.5527 -1.592,3.5048 -1.05,0.9532 -2.773,1.5987 -5.649,1.712 0.118,1.8085 -0.405,3.3007 -1.519,4.5019 -1.124,1.2109 -2.843,2.1143 -5.105,2.7354 -0.084,1.5986 -0.654,3.0068 -1.983,4.1162 -1.32,1.1025 -3.387,1.8974 -6.474,2.2724 0.002,1.6221 -0.663,3.0196 -1.993,4.1934 -1.329,1.1728 -3.324,2.1152 -5.988,2.8252 0.176,1.6045 0.161,3.1719 -0.519,4.6103 -0.697,1.4737 -2.079,2.7871 -4.645,3.8243 0.292,1.5712 0.393,3.1064 -0.172,4.5146 -0.578,1.4355 -1.839,2.7119 -4.274,3.7109 0.137,0.4727 0.228,0.935 0.274,1.386 0.055,0.538 0.045,1.057 -0.029,1.555 -0.366,2.475 -2.298,4.46 -5.791,5.957 1.14,1.632 1.168,3.076 0.375,4.378 -0.783,1.291 -2.392,2.417 -4.526,3.438 0.175,1.977 -0.58,3.568 -2.265,4.771 -1.67,1.194 -4.265,1.992 -7.784,2.395 -1.29,1.57 -2.894,2.515 -4.814,2.835 -1.818,0.303 -3.909,0.041 -6.274,-0.785 0.364,3.172 -1.142,7.956 -3.846,10.496 0,0 -0.729,0.431 -0.729,0.431 0,0 -0.149,10.2989 -0.149,10.2989 0,0 13.012,-12.8709 13.012,-12.8709 0,0 0.784,-0.59 0.784,-0.59 0,0 -0.313,0.929 -0.313,0.929 0,0 -8.235,24.3979 -8.235,24.3979 0,0 -0.072,0.208 -0.072,0.208 0,0 -0.217,0 -0.217,0 0,0 -70.7265,0 -70.7265,0 0,0 -0.204,0 -0.204,0 0,0 -0.077,-0.192 -0.077,-0.192 z m 59.6855,18.284 c -1.5,2.385 -2.427,4.55 -2.841,6.51 -0.45,2.131 -0.298,4.02 0.365,5.687 0.663,1.66 1.832,3.089 3.423,4.309 2.33,1.784 5.572,3.121 9.455,4.075 6.105,1.502 11.533,1.211 17.418,0.895 7.613,-0.408 16,-0.859 27.591,2.514 0,0 -0.089,0.154 -0.089,0.154 0,0 -0.104,0.186 -0.104,0.186 0,0 -0.101,0.187 -0.101,0.187 0,0 -0.098,0.184 -0.098,0.184 0,0 -0.096,0.187 -0.096,0.187 0,0 -0.091,0.187 -0.091,0.187 0,0 -0.089,0.184 -0.089,0.184 0,0 -0.084,0.185 -0.084,0.185 0,0 -0.082,0.185 -0.082,0.185 0,0 -0.079,0.185 -0.079,0.185 0,0 -0.075,0.183 -0.075,0.183 0,0 -0.072,0.183 -0.072,0.183 0,0 -0.07,0.183 -0.07,0.183 0,0 -0.065,0.183 -0.065,0.183 0,0 -0.062,0.182 -0.062,0.182 0,0 -0.06,0.181 -0.06,0.181 0,0 -0.058,0.18 -0.058,0.18 0,0 -0.053,0.181 -0.053,0.181 0,0 -0.051,0.18 -0.051,0.18 0,0 -0.054,0.199 -0.054,0.199 0,0 -0.051,0.199 -0.051,0.199 0,0 -0.046,0.198 -0.046,0.198 0,0 -0.043,0.197 -0.043,0.197 0,0 -0.041,0.197 -0.041,0.197 0,0 -0.034,0.196 -0.034,0.196 0,0 -0.033,0.195 -0.033,0.195 0,0 -0.029,0.194 -0.029,0.194 0,0 -0.026,0.192 -0.026,0.192 0,0 -0.024,0.192 -0.024,0.192 0,0 -0.02,0.191 -0.02,0.191 0,0 -0.016,0.189 -0.016,0.189 0,0 -0.012,0.189 -0.012,0.189 0,0 -0.01,0.187 -0.01,0.187 0,0 -0.007,0.187 -0.007,0.187 0,0 -0.003,0.184 -0.003,0.184 0,0 -0.002,0.183 -0.002,0.183 0,0 0.002,0.183 0.002,0.183 0,0 0.005,0.181 0.005,0.181 0,0 0.007,0.18 0.007,0.18 0,0 0.012,0.178 0.012,0.178 0,0 0.012,0.176 0.012,0.176 0,0 0.015,0.177 0.015,0.177 0,0 0.021,0.174 0.021,0.174 0,0 0.02,0.172 0.02,0.172 0,0 0.024,0.171 0.024,0.171 0,0 0.028,0.17 0.028,0.17 0,0 0.029,0.168 0.029,0.168 0,0 0.032,0.166 0.032,0.166 0,0 0.033,0.165 0.033,0.165 0,0 0.036,0.164 0.036,0.164 0,0 0.041,0.165 0.041,0.165 0,0 0.087,0.328 0.087,0.328 0,0 0.098,0.325 0.098,0.325 0,0 0.108,0.319 0.108,0.319 0,0 0.118,0.309 0.118,0.309 0,0 0.125,0.302 0.125,0.302 0,0 0.135,0.293 0.135,0.293 0,0 0.142,0.285 0.142,0.285 0,0 0.149,0.277 0.149,0.277 0,0 0.158,0.267 0.158,0.267 0,0 0.164,0.259 0.164,0.259 0,0 0.171,0.25 0.171,0.25 0,0 0.177,0.239 0.177,0.239 0,0 0.183,0.23 0.183,0.23 0,0 0.188,0.22 0.188,0.22 0,0 0.192,0.211 0.192,0.211 0,0 0.199,0.198 0.199,0.198 0,0 0.137,0.131 0.137,0.131 0,0 0.139,0.125 0.139,0.125 0,0 0.142,0.12 0.142,0.12 0,0 0.144,0.117 0.144,0.117 0,0 0.145,0.111 0.145,0.111 0,0 0.147,0.106 0.147,0.106 0,0 0.149,0.101 0.149,0.101 0,0 0.151,0.098 0.151,0.098 0,0 0.152,0.09 0.152,0.09 0,0 0.156,0.087 0.156,0.087 0,0 0.156,0.081 0.156,0.081 0,0 0.157,0.078 0.157,0.078 0,0 0.158,0.07 0.158,0.07 0,0 0.158,0.066 0.158,0.066 0,0 0.162,0.06 0.162,0.06 0,0 0.16,0.055 0.16,0.055 0,0 0.172,0.052 0.172,0.052 0,0 0.168,0.049 0.168,0.049 0,0 0.168,0.044 0.168,0.044 0,0 0.171,0.041 0.171,0.041 0,0 0.168,0.035 0.168,0.035 0,0 0.168,0.032 0.168,0.032 0,0 0.169,0.029 0.169,0.029 0,0 0.168,0.024 0.168,0.024 0,0 0.17,0.021 0.17,0.021 0,0 0.166,0.015 0.166,0.015 0,0 0.166,0.013 0.166,0.013 0,0 0.17,0.008 0.17,0.008 0,0 0.164,0.003 0.164,0.003 0,0 0.164,0 0.164,0 0,0 0.165,-0.004 0.165,-0.004 0,0 0.166,-0.008 0.166,-0.008 0,0 0.236,-0.02 0.236,-0.02 0,0 0.236,-0.028 0.236,-0.028 0,0 0.235,-0.036 0.235,-0.036 0,0 0.233,-0.045 0.233,-0.045 0,0 0.231,-0.055 0.231,-0.055 0,0 0.229,-0.061 0.229,-0.061 0,0 0.226,-0.071 0.226,-0.071 0,0 0.223,-0.079 0.223,-0.079 0,0 0.221,-0.088 0.221,-0.088 0,0 0.217,-0.097 0.217,-0.097 0,0 0.216,-0.106 0.216,-0.106 0,0 0.211,-0.113 0.211,-0.113 0,0 0.207,-0.123 0.207,-0.123 0,0 0.204,-0.13 0.204,-0.13 0,0 0.2,-0.139 0.2,-0.139 0,0 0.195,-0.148 0.195,-0.148 0,0 0.194,-0.159 0.194,-0.159 0,0 0.188,-0.168 0.188,-0.168 0,0 0.183,-0.177 0.183,-0.177 0,0 0.175,-0.183 0.175,-0.183 0,0 0.171,-0.194 0.171,-0.194 0,0 0.163,-0.2 0.163,-0.2 0,0 0.154,-0.208 0.154,-0.208 0,0 0.151,-0.217 0.151,-0.217 0,0 0.14,-0.225 0.14,-0.225 0,0 0.135,-0.234 0.135,-0.234 0,0 0.125,-0.239 0.125,-0.239 0,0 0.117,-0.248 0.117,-0.248 0,0 0.109,-0.255 0.109,-0.255 0,0 0.098,-0.262 0.098,-0.262 0,0 0.092,-0.269 0.092,-0.269 0,0 0.081,-0.275 0.081,-0.275 0,0 0.045,-0.168 0.045,-0.168 0,0 0.039,-0.166 0.039,-0.166 0,0 0.038,-0.167 0.038,-0.167 0,0 0.034,-0.17 0.034,-0.17 0,0 0.031,-0.172 0.031,-0.172 0,0 0.027,-0.173 0.027,-0.173 0,0 0.024,-0.176 0.024,-0.176 0,0 0.019,-0.177 0.019,-0.177 0,0 0.017,-0.179 0.017,-0.179 0,0 0.014,-0.18 0.014,-0.18 0,0 0.01,-0.182 0.01,-0.182 0,0 0.007,-0.183 0.007,-0.183 0,0 10e-4,-0.186 10e-4,-0.186 0,0 0,-0.186 0,-0.186 0,0 -0.005,-0.189 -0.005,-0.189 0,0 -0.01,-0.205 -0.01,-0.205 0,0 -0.031,-0.295 -0.031,-0.295 0,0 -0.058,-0.299 -0.058,-0.299 0,0 -0.086,-0.287 -0.086,-0.287 0,0 -0.109,-0.273 -0.109,-0.273 0,0 -0.134,-0.258 -0.134,-0.258 0,0 -0.154,-0.241 -0.154,-0.241 0,0 -0.176,-0.224 -0.176,-0.224 0,0 -0.192,-0.204 -0.192,-0.204 0,0 -0.211,-0.184 -0.211,-0.184 0,0 -0.226,-0.161 -0.226,-0.161 0,0 -0.241,-0.137 -0.241,-0.137 0,0 -0.253,-0.113 -0.253,-0.113 0,0 -0.266,-0.086 -0.266,-0.086 0,0 -0.274,-0.057 -0.274,-0.057 0,0 -0.282,-0.029 -0.282,-0.029 0,0 -0.288,0.003 -0.288,0.003 0,0 -0.286,0.034 -0.286,0.034 0,0 -0.279,0.063 -0.279,0.063 0,0 -0.264,0.093 -0.264,0.093 0,0 -0.255,0.118 -0.255,0.118 0,0 -0.238,0.144 -0.238,0.144 0,0 -0.226,0.167 -0.226,0.167 0,0 -0.207,0.188 -0.207,0.188 0,0 -0.189,0.209 -0.189,0.209 0,0 -0.169,0.227 -0.169,0.227 0,0 -0.151,0.244 -0.151,0.244 0,0 -0.127,0.259 -0.127,0.259 0,0 -0.104,0.274 -0.104,0.274 0,0 -0.079,0.285 -0.079,0.285 0,0 -0.055,0.297 -0.055,0.297 0,0 -0.027,0.304 -0.027,0.304 0,0 0.004,0.285 0.004,0.285 0,0 0.006,0.151 0.006,0.151 0,0 0,0.116 0,0.116 0,0 -0.003,0.11 -0.003,0.11 0,0 -0.005,0.097 -0.005,0.097 0,0 -0.009,0.09 -0.009,0.09 0,0 -0.012,0.081 -0.012,0.081 0,0 -0.015,0.072 -0.015,0.072 0,0 -0.014,0.057 -0.014,0.057 0,0 -0.022,0.072 -0.022,0.072 0,0 -0.024,0.062 -0.024,0.062 0,0 -0.026,0.053 -0.026,0.053 0,0 -0.025,0.046 -0.025,0.046 0,0 -0.026,0.038 -0.026,0.038 0,0 -0.028,0.034 -0.028,0.034 0,0 -0.029,0.028 -0.029,0.028 0,0 -0.025,0.023 -0.025,0.023 0,0 -0.036,0.025 -0.036,0.025 0,0 -0.043,0.025 -0.043,0.025 0,0 -0.053,0.025 -0.053,0.025 0,0 -0.062,0.024 -0.062,0.024 0,0 -0.072,0.021 -0.072,0.021 0,0 -0.08,0.017 -0.08,0.017 0,0 -0.088,0.014 -0.088,0.014 0,0 -0.097,0.009 -0.097,0.009 0,0 -0.088,0.003 -0.088,0.003 0,0 -0.09,0 -0.09,0 0,0 -0.093,-0.006 -0.093,-0.006 0,0 -0.092,-0.01 -0.092,-0.01 0,0 -0.094,-0.014 -0.094,-0.014 0,0 -0.093,-0.019 -0.093,-0.019 0,0 -0.096,-0.024 -0.096,-0.024 0,0 -0.087,-0.025 -0.087,-0.025 0,0 -0.017,-0.006 -0.017,-0.006 0,0 -0.016,-0.008 -0.016,-0.008 0,0 -0.025,-0.013 -0.025,-0.013 0,0 -0.031,-0.02 -0.031,-0.02 0,0 -0.038,-0.026 -0.038,-0.026 0,0 -0.041,-0.033 -0.041,-0.033 0,0 -0.046,-0.039 -0.046,-0.039 0,0 -0.048,-0.045 -0.048,-0.045 0,0 -0.053,-0.054 -0.053,-0.054 0,0 -0.053,-0.059 -0.053,-0.059 0,0 -0.053,-0.062 -0.053,-0.062 0,0 -0.052,-0.067 -0.052,-0.067 0,0 -0.051,-0.072 -0.051,-0.072 0,0 -0.051,-0.076 -0.051,-0.076 0,0 -0.05,-0.079 -0.05,-0.079 0,0 -0.048,-0.084 -0.048,-0.084 0,0 -0.045,-0.09 -0.045,-0.09 0,0 -0.046,-0.093 -0.046,-0.093 0,0 -0.043,-0.096 -0.043,-0.096 0,0 -0.041,-0.101 -0.041,-0.101 0,0 -0.039,-0.104 -0.039,-0.104 0,0 -0.034,-0.109 -0.034,-0.109 0,0 -0.033,-0.112 -0.033,-0.112 0,0 -0.031,-0.116 -0.031,-0.116 0,0 -0.032,-0.132 -0.032,-0.132 0,0 -0.026,-0.135 -0.026,-0.135 0,0 -0.022,-0.139 -0.022,-0.139 0,0 -0.017,-0.143 -0.017,-0.143 0,0 -0.014,-0.147 -0.014,-0.147 0,0 -0.009,-0.15 -0.009,-0.15 0,0 -0.003,-0.153 -0.003,-0.153 0,0 0,-0.159 0,-0.159 0,0 0.005,-0.163 0.005,-0.163 0,0 0.012,-0.165 0.012,-0.165 0,0 0.017,-0.169 0.017,-0.169 0,0 0.024,-0.173 0.024,-0.173 0,0 0.029,-0.176 0.029,-0.176 0,0 0.036,-0.18 0.036,-0.18 0,0 0.041,-0.183 0.041,-0.183 0,0 0.048,-0.187 0.048,-0.187 0,0 0.06,-0.202 0.06,-0.202 0,0 0.067,-0.204 0.067,-0.204 0,0 0.075,-0.208 0.075,-0.208 0,0 0.084,-0.212 0.084,-0.212 0,0 0.091,-0.215 0.091,-0.215 0,0 0.101,-0.218 0.101,-0.218 0,0 0.108,-0.222 0.108,-0.222 0,0 0.12,-0.224 0.12,-0.224 0,0 0.128,-0.229 0.128,-0.229 0,0 0.139,-0.23 0.139,-0.23 0,0 0.149,-0.234 0.149,-0.234 0,0 0.158,-0.237 0.158,-0.237 0,0 0.169,-0.238 0.169,-0.238 0,0 0.178,-0.242 0.178,-0.242 0,0 0.154,-0.197 0.154,-0.197 1.99,0.734 4.067,1.576 6.245,2.543 0,0 0.387,0.173 0.387,0.173 0,0 0.089,-0.443 0.089,-0.443 2.091,-10.386 -5.96,-15.453 -16.868,-18.007 -9.248,-2.164 -20.55,-2.52 -29.375,-2.796 -8.108,-0.255 -14.079,-0.443 -14.189,-1.666 -0.164,-1.83 1.439,-2.271 3.418,-2.815 3.072,-0.846 6.949,-1.912 7.432,-8.191 0.51,-6.615 -10.557,-8.862 -22.298,-9.915 -3.752,-0.336 -7.611,-0.553 -11.164,-0.755 -7.449,-0.421 -11.494,-0.421 -18.942,0 -3.552,0.202 -7.411,0.419 -11.163,0.755 -11.7405,1.053 -22.8095,3.3 -22.2995,9.915 0.484,6.279 4.361,7.345 7.434,8.191 1.977,0.544 3.581,0.985 3.417,2.815 -0.109,1.223 -6.08,1.411 -14.19,1.666 -8.825,0.276 -20.126,0.632 -29.374,2.796 -10.908,2.554 -18.96,7.621 -16.869,18.007 0,0 0.089,0.443 0.089,0.443 0,0 0.388,-0.173 0.388,-0.173 2.177,-0.967 4.256,-1.809 6.246,-2.543 0,0 0.152,0.197 0.152,0.197 0,0 0.18,0.242 0.18,0.242 0,0 0.169,0.238 0.169,0.238 0,0 0.158,0.237 0.158,0.237 0,0 0.148,0.234 0.148,0.234 0,0 0.138,0.23 0.138,0.23 0,0 0.129,0.229 0.129,0.229 0,0 0.119,0.224 0.119,0.224 0,0 0.11,0.222 0.11,0.222 0,0 0.1,0.218 0.1,0.218 0,0 0.092,0.215 0.092,0.215 0,0 0.083,0.212 0.083,0.212 0,0 0.075,0.208 0.075,0.208 0,0 0.066,0.204 0.066,0.204 0,0 0.06,0.202 0.06,0.202 0,0 0.048,0.187 0.048,0.187 0,0 0.043,0.183 0.043,0.183 0,0 0.035,0.18 0.035,0.18 0,0 0.029,0.176 0.029,0.176 0,0 0.024,0.173 0.024,0.173 0,0 0.016,0.169 0.016,0.169 0,0 0.012,0.165 0.012,0.165 0,0 0.006,0.163 0.006,0.163 0,0 10e-4,0.159 10e-4,0.159 0,0 -0.004,0.153 -0.004,0.153 0,0 -0.009,0.15 -0.009,0.15 0,0 -0.013,0.147 -0.013,0.147 0,0 -0.018,0.143 -0.018,0.143 0,0 -0.022,0.139 -0.022,0.139 0,0 -0.027,0.135 -0.027,0.135 0,0 -0.03,0.132 -0.03,0.132 0,0 -0.03,0.116 -0.03,0.116 0,0 -0.035,0.112 -0.035,0.112 0,0 -0.035,0.109 -0.035,0.109 0,0 -0.039,0.104 -0.039,0.104 0,0 -0.04,0.101 -0.04,0.101 0,0 -0.043,0.096 -0.043,0.096 0,0 -0.045,0.093 -0.045,0.093 0,0 -0.047,0.09 -0.047,0.09 0,0 -0.047,0.084 -0.047,0.084 0,0 -0.049,0.079 -0.049,0.079 0,0 -0.051,0.076 -0.051,0.076 0,0 -0.052,0.072 -0.052,0.072 0,0 -0.052,0.067 -0.052,0.067 0,0 -0.052,0.062 -0.052,0.062 0,0 -0.053,0.059 -0.053,0.059 0,0 -0.055,0.054 -0.055,0.054 0,0 -0.047,0.045 -0.047,0.045 0,0 -0.045,0.039 -0.045,0.039 0,0 -0.042,0.033 -0.042,0.033 0,0 -0.038,0.026 -0.038,0.026 0,0 -0.031,0.02 -0.031,0.02 0,0 -0.024,0.013 -0.024,0.013 0,0 -0.018,0.008 -0.018,0.008 0,0 -0.015,0.006 -0.015,0.006 0,0 -0.087,0.025 -0.087,0.025 0,0 -0.096,0.024 -0.096,0.024 0,0 -0.094,0.019 -0.094,0.019 0,0 -0.094,0.014 -0.094,0.014 0,0 -0.091,0.01 -0.091,0.01 0,0 -0.093,0.006 -0.093,0.006 0,0 -0.091,0 -0.091,0 0,0 -0.088,-0.003 -0.088,-0.003 0,0 -0.097,-0.009 -0.097,-0.009 0,0 -0.087,-0.014 -0.087,-0.014 0,0 -0.081,-0.017 -0.081,-0.017 0,0 -0.071,-0.021 -0.071,-0.021 0,0 -0.061,-0.024 -0.061,-0.024 0,0 -0.054,-0.025 -0.054,-0.025 0,0 -0.044,-0.025 -0.044,-0.025 0,0 -0.035,-0.025 -0.035,-0.025 0,0 -0.026,-0.023 -0.026,-0.023 0,0 -0.029,-0.028 -0.029,-0.028 0,0 -0.027,-0.034 -0.027,-0.034 0,0 -0.027,-0.038 -0.027,-0.038 0,0 -0.025,-0.046 -0.025,-0.046 0,0 -0.025,-0.053 -0.025,-0.053 0,0 -0.025,-0.062 -0.025,-0.062 0,0 -0.022,-0.072 -0.022,-0.072 0,0 -0.015,-0.057 -0.015,-0.057 0,0 -0.014,-0.072 -0.014,-0.072 0,0 -0.011,-0.081 -0.011,-0.081 0,0 -0.01,-0.09 -0.01,-0.09 0,0 -0.006,-0.097 -0.006,-0.097 0,0 -0.003,-0.11 -0.003,-0.11 0,0 10e-4,-0.116 10e-4,-0.116 0,0 0.006,-0.151 0.006,-0.151 0,0 0.003,-0.285 0.003,-0.285 0,0 -0.026,-0.304 -0.026,-0.304 0,0 -0.054,-0.297 -0.054,-0.297 0,0 -0.08,-0.285 -0.08,-0.285 0,0 -0.104,-0.274 -0.104,-0.274 0,0 -0.128,-0.259 -0.128,-0.259 0,0 -0.149,-0.244 -0.149,-0.244 0,0 -0.17,-0.227 -0.17,-0.227 0,0 -0.188,-0.209 -0.188,-0.209 0,0 -0.207,-0.188 -0.207,-0.188 0,0 -0.226,-0.167 -0.226,-0.167 0,0 -0.239,-0.144 -0.239,-0.144 0,0 -0.253,-0.118 -0.253,-0.118 0,0 -0.267,-0.093 -0.267,-0.093 0,0 -0.277,-0.063 -0.277,-0.063 0,0 -0.286,-0.034 -0.286,-0.034 0,0 -0.288,-0.003 -0.288,-0.003 0,0 -0.282,0.029 -0.282,0.029 0,0 -0.275,0.057 -0.275,0.057 0,0 -0.265,0.086 -0.265,0.086 0,0 -0.254,0.113 -0.254,0.113 0,0 -0.241,0.137 -0.241,0.137 0,0 -0.225,0.161 -0.225,0.161 0,0 -0.21,0.184 -0.21,0.184 0,0 -0.194,0.204 -0.194,0.204 0,0 -0.175,0.224 -0.175,0.224 0,0 -0.155,0.241 -0.155,0.241 0,0 -0.134,0.258 -0.134,0.258 0,0 -0.11,0.273 -0.11,0.273 0,0 -0.085,0.287 -0.085,0.287 0,0 -0.059,0.299 -0.059,0.299 0,0 -0.03,0.295 -0.03,0.295 0,0 -0.01,0.205 -0.01,0.205 0,0 -0.004,0.189 -0.004,0.189 0,0 -10e-4,0.186 -10e-4,0.186 0,0 0.003,0.186 0.003,0.186 0,0 0.005,0.183 0.005,0.183 0,0 0.01,0.182 0.01,0.182 0,0 0.014,0.18 0.014,0.18 0,0 0.016,0.179 0.016,0.179 0,0 0.021,0.177 0.021,0.177 0,0 0.023,0.176 0.023,0.176 0,0 0.028,0.173 0.028,0.173 0,0 0.03,0.172 0.03,0.172 0,0 0.034,0.17 0.034,0.17 0,0 0.037,0.167 0.037,0.167 0,0 0.041,0.166 0.041,0.166 0,0 0.044,0.168 0.044,0.168 0,0 0.081,0.275 0.081,0.275 0,0 0.091,0.269 0.091,0.269 0,0 0.1,0.262 0.1,0.262 0,0 0.108,0.255 0.108,0.255 0,0 0.118,0.248 0.118,0.248 0,0 0.125,0.239 0.125,0.239 0,0 0.133,0.234 0.133,0.234 0,0 0.142,0.225 0.142,0.225 0,0 0.149,0.217 0.149,0.217 0,0 0.155,0.208 0.155,0.208 0,0 0.163,0.2 0.163,0.2 0,0 0.17,0.194 0.17,0.194 0,0 0.176,0.183 0.176,0.183 0,0 0.183,0.177 0.183,0.177 0,0 0.188,0.168 0.188,0.168 0,0 0.194,0.159 0.194,0.159 0,0 0.196,0.148 0.196,0.148 0,0 0.199,0.139 0.199,0.139 0,0 0.203,0.13 0.203,0.13 0,0 0.208,0.123 0.208,0.123 0,0 0.211,0.113 0.211,0.113 0,0 0.215,0.106 0.215,0.106 0,0 0.218,0.097 0.218,0.097 0,0 0.221,0.088 0.221,0.088 0,0 0.224,0.079 0.224,0.079 0,0 0.226,0.071 0.226,0.071 0,0 0.228,0.061 0.228,0.061 0,0 0.232,0.055 0.232,0.055 0,0 0.233,0.045 0.233,0.045 0,0 0.233,0.036 0.233,0.036 0,0 0.237,0.028 0.237,0.028 0,0 0.236,0.02 0.236,0.02 0,0 0.166,0.008 0.166,0.008 0,0 0.164,0.004 0.164,0.004 0,0 0.164,0 0.164,0 0,0 0.166,-0.003 0.166,-0.003 0,0 0.167,-0.008 0.167,-0.008 0,0 0.167,-0.013 0.167,-0.013 0,0 0.168,-0.015 0.168,-0.015 0,0 0.168,-0.021 0.168,-0.021 0,0 0.169,-0.024 0.169,-0.024 0,0 0.168,-0.029 0.168,-0.029 0,0 0.169,-0.032 0.169,-0.032 0,0 0.168,-0.035 0.168,-0.035 0,0 0.17,-0.041 0.17,-0.041 0,0 0.17,-0.044 0.17,-0.044 0,0 0.168,-0.049 0.168,-0.049 0,0 0.172,-0.052 0.172,-0.052 0,0 0.16,-0.055 0.16,-0.055 0,0 0.161,-0.06 0.161,-0.06 0,0 0.159,-0.066 0.159,-0.066 0,0 0.158,-0.07 0.158,-0.07 0,0 0.158,-0.078 0.158,-0.078 0,0 0.155,-0.081 0.155,-0.081 0,0 0.154,-0.087 0.154,-0.087 0,0 0.153,-0.09 0.153,-0.09 0,0 0.151,-0.098 0.151,-0.098 0,0 0.149,-0.101 0.149,-0.101 0,0 0.147,-0.106 0.147,-0.106 0,0 0.145,-0.111 0.145,-0.111 0,0 0.145,-0.117 0.145,-0.117 0,0 0.141,-0.12 0.141,-0.12 0,0 0.139,-0.125 0.139,-0.125 0,0 0.138,-0.131 0.138,-0.131 0,0 0.197,-0.198 0.197,-0.198 0,0 0.193,-0.211 0.193,-0.211 0,0 0.189,-0.22 0.189,-0.22 0,0 0.183,-0.23 0.183,-0.23 0,0 0.176,-0.239 0.176,-0.239 0,0 0.171,-0.25 0.171,-0.25 0,0 0.164,-0.259 0.164,-0.259 0,0 0.157,-0.267 0.157,-0.267 0,0 0.15,-0.277 0.15,-0.277 0,0 0.142,-0.285 0.142,-0.285 0,0 0.135,-0.293 0.135,-0.293 0,0 0.125,-0.302 0.125,-0.302 0,0 0.117,-0.309 0.117,-0.309 0,0 0.109,-0.319 0.109,-0.319 0,0 0.098,-0.325 0.098,-0.325 0,0 0.088,-0.328 0.088,-0.328 0,0 0.039,-0.165 0.039,-0.165 0,0 0.038,-0.164 0.038,-0.164 0,0 0.033,-0.165 0.033,-0.165 0,0 0.032,-0.166 0.032,-0.166 0,0 0.029,-0.168 0.029,-0.168 0,0 0.027,-0.17 0.027,-0.17 0,0 0.023,-0.171 0.023,-0.171 0,0 0.022,-0.172 0.022,-0.172 0,0 0.019,-0.174 0.019,-0.174 0,0 0.017,-0.177 0.017,-0.177 0,0 0.012,-0.176 0.012,-0.176 0,0 0.01,-0.178 0.01,-0.178 0,0 0.008,-0.18 0.008,-0.18 0,0 0.005,-0.181 0.005,-0.181 0,0 0.002,-0.183 0.002,-0.183 0,0 0,-0.183 0,-0.183 0,0 -0.005,-0.184 -0.005,-0.184 0,0 -0.007,-0.187 -0.007,-0.187 0,0 -0.01,-0.187 -0.01,-0.187 0,0 -0.013,-0.189 -0.013,-0.189 0,0 -0.016,-0.189 -0.016,-0.189 0,0 -0.02,-0.191 -0.02,-0.191 0,0 -0.023,-0.192 -0.023,-0.192 0,0 -0.025,-0.192 -0.025,-0.192 0,0 -0.03,-0.194 -0.03,-0.194 0,0 -0.032,-0.195 -0.032,-0.195 0,0 -0.036,-0.196 -0.036,-0.196 0,0 -0.04,-0.197 -0.04,-0.197 0,0 -0.043,-0.197 -0.043,-0.197 0,0 -0.047,-0.198 -0.047,-0.198 0,0 -0.05,-0.199 -0.05,-0.199 0,0 -0.053,-0.199 -0.053,-0.199 0,0 -0.051,-0.18 -0.051,-0.18 0,0 -0.054,-0.181 -0.054,-0.181 0,0 -0.058,-0.18 -0.058,-0.18 0,0 -0.059,-0.181 -0.059,-0.181 0,0 -0.063,-0.182 -0.063,-0.182 0,0 -0.066,-0.183 -0.066,-0.183 0,0 -0.069,-0.183 -0.069,-0.183 0,0 -0.073,-0.183 -0.073,-0.183 0,0 -0.074,-0.183 -0.074,-0.183 0,0 -0.079,-0.185 -0.079,-0.185 0,0 -0.082,-0.185 -0.082,-0.185 0,0 -0.085,-0.185 -0.085,-0.185 0,0 -0.088,-0.184 -0.088,-0.184 0,0 -0.092,-0.187 -0.092,-0.187 0,0 -0.094,-0.187 -0.094,-0.187 0,0 -0.099,-0.184 -0.099,-0.184 0,0 -0.101,-0.187 -0.101,-0.187 0,0 -0.105,-0.186 -0.105,-0.186 0,0 -0.089,-0.154 -0.089,-0.154 11.593,-3.373 19.98,-2.922 27.593,-2.514 5.885,0.316 11.312,0.607 17.418,-0.895 3.883,-0.954 7.1255,-2.291 9.4545,-4.075 1.592,-1.22 2.762,-2.649 3.423,-4.309 0.664,-1.667 0.813,-3.556 0.364,-5.687 -0.414,-1.96 -1.34,-4.125 -2.841,-6.51 17.495,-0.877 31.883,-0.877 49.376,0 z"
         id="path14"
         inkscape:connector-curvature="0" />
    </g>
    <g
       transform="matrix(1.9266364,0,0,1.9266364,324.94626,-12.580567)"
       id="g16"
       style="fill:#feca00;fill-rule:nonzero;stroke:none">
      <path
         d="m 0,5.333 c 3.05,7.572 6.212,15.104 9.134,22.676 0,0 70.306,0 70.306,0 2.483,-7.758 5.229,-15.493 7.851,-23.261 0,0 -13.331,13.51 -13.331,13.51 0,0 -0.093,-18.258 -0.093,-18.258 0,0 -9.265,15.172 -9.265,15.172 0,0 -3.322,-14.468 -3.322,-14.468 0,0 -6.203,13.497 -6.203,13.497 0,0 -5.765,-13.569 -5.765,-13.569 0,0 -6.296,12.166 -6.296,12.166 0,0 -5.575,-12.517 -5.575,-12.517 0,0 -6.096,12.22 -6.096,12.22 0,0 -5.742,-12.024 -5.742,-12.024 0,0 -3.768,12.919 -3.768,12.919 0,0 -9.554,-12.442 -9.554,-12.442 0,0 0.779,15.492 0.779,15.492 C 13.06,16.446 0,5.333 0,5.333 z"
         id="path18"
         inkscape:connector-curvature="0" />
    </g>
    <g
       transform="matrix(1.9266364,0,0,1.9266364,158.72532,-186.85388)"
       id="g20"
       style="fill:#6e291e;fill-rule:nonzero;stroke:none">
      <path
         d="m 115.167,67.5477 c -1.795,3.018 -1.701,6.187 0.28,9.507 0.804,-2.253 1.986,-4.09 3.492,-5.568 1.639,-1.611 3.657,-2.793 5.981,-3.63 0,0 0.5,-0.18 0.5,-0.18 0,0 -0.1,0.523 -0.1,0.523 -0.881,4.603 0.777,8.258 4.974,10.965 4.281,-1.92 6.503,-5.43 6.663,-10.532 0,0 0.02,-0.638 0.02,-0.638 0,0 0.483,0.418 0.483,0.418 1.725,1.499 3.054,3.133 4.003,4.895 0.838,1.558 1.379,3.217 1.634,4.971 2.395,-3.001 3.061,-6.14 1.994,-9.417 0,0 0.577,-0.188 0.577,-0.188 1.2,3.689 0.347,7.2 -2.559,10.534 0,0 -0.459,0.527 -0.459,0.527 0,0 -0.07,-0.697 -0.07,-0.697 -0.195,-1.932 -0.74,-3.749 -1.652,-5.443 -0.826,-1.535 -1.954,-2.97 -3.395,-4.302 -0.334,5.068 -2.716,8.566 -7.144,10.493 0,0 -0.148,0.065 -0.148,0.065 0,0 -0.135,-0.086 -0.135,-0.086 -4.367,-2.76 -6.19,-6.478 -5.472,-11.151 -2.038,0.793 -3.814,1.875 -5.27,3.304 -1.569,1.542 -2.774,3.494 -3.544,5.934 0,0 -0.193,0.609 -0.193,0.609 0,0 -0.351,-0.535 -0.351,-0.535 -2.442,-3.727 -2.652,-7.29 -0.632,-10.686 0,0 0.523,0.308 0.523,0.308 z m 61.148,15.786 c -1.194,1.455 -2.676,2.33 -4.447,2.626 -1.796,0.299 -3.897,0.007 -6.301,-0.877 0,0 -4.867,-6.151 -4.867,-6.151 0.163,-0.041 0.326,-0.087 0.486,-0.137 1.955,-0.604 3.657,-1.811 4.864,-3.852 0.265,-0.449 0.506,-0.937 0.72,-1.467 0,0 9.545,9.858 9.545,9.858 z m 10.027,-7.215 c 0,0 -0.16,0.075 -0.16,0.075 0,0 0.026,0.216 0.026,0.216 0.222,1.843 -0.443,3.318 -1.992,4.424 -1.553,1.11 -3.983,1.863 -7.289,2.261 0,0 -9.922,-10.248 -9.922,-10.248 0.246,-0.714 0.446,-1.498 0.597,-2.356 2.355,-0.162 4.371,-0.777 5.977,-2.121 0,0 12.763,7.749 12.763,7.749 z m 4.076,-7.129 c 1.044,1.447 1.097,2.702 0.422,3.814 -0.668,1.1 -2.029,2.087 -3.846,2.999 0,0 -12.944,-7.859 -12.944,-7.859 1.407,-1.379 2.459,-3.406 3.097,-6.292 0,0 13.271,7.338 13.271,7.338 z m 5.393,-9.4057 c 0.182,0.5546 0.328,1.1127 0.389,1.7057 0.05,0.486 0.041,0.954 -0.025,1.407 -0.344,2.319 -2.256,4.189 -5.735,5.612 0,0 -13.164,-7.279 -13.164,-7.279 0.033,-0.174 0.066,-0.351 0.097,-0.5307 1.758,-1.251 3.022,-3.2354 3.675,-6.2422 0,0 14.763,5.3272 14.763,5.3272 z m 4.54,-7.9981 c 0.295,1.5254 0.417,3.0059 -0.111,4.3203 -0.503,1.249 -1.605,2.374 -3.726,3.2861 0,0 -15.346,-5.5371 -15.346,-5.5371 0.075,-0.416 0.14,-0.8505 0.194,-1.3037 1.182,-0.959 2.147,-2.3027 2.867,-4.1357 0,0 -0.005,0.0224 -0.005,0.0224 0,0 16.127,3.3477 16.127,3.3477 z m 5.171,-8.4619 c 0.18,1.5537 0.186,3.0635 -0.451,4.4101 -0.633,1.3409 -1.914,2.5469 -4.311,3.5166 0,0 -16.327,-3.3876 -16.327,-3.3876 0.321,-0.919 0.584,-1.9512 0.789,-3.1084 1.461,-0.7403 2.679,-1.8868 3.617,-3.5762 0,0 16.683,2.1455 16.683,2.1455 z m 7.99,-6.9092 c -0.014,1.4209 -0.609,2.6514 -1.786,3.6895 -1.246,1.0996 -3.142,1.9922 -5.687,2.6757 0,0 -16.904,-2.1738 -16.904,-2.1738 0.616,-1.2734 1.092,-2.8222 1.415,-4.6943 2.175,0.0664 4.193,-0.0869 5.978,-0.583 0,0 16.984,1.0859 16.984,1.0859 z m 8.445,-6.2783 c -0.11,1.3564 -0.624,2.5478 -1.751,3.4902 -1.27,1.0606 -3.317,1.8203 -6.43,2.166 0,0 -0.159,0.0186 -0.159,0.0186 0,0 -15.61,-0.9981 -15.61,-0.9981 2.101,-0.8984 3.79,-2.415 4.909,-4.8095 0,0 19.041,0.1328 19.041,0.1328 z m 6.64,-7.3594 c 0.105,1.6338 -0.364,2.9756 -1.359,4.0498 -1.077,1.1631 -2.774,2.0274 -5.032,2.6201 0,0 -0.222,0.0586 -0.222,0.0586 0,0 -0.001,0.0235 -0.001,0.0235 0,0 -18.805,-0.1309 -18.805,-0.1309 0.385,-0.9551 0.688,-2.0361 0.901,-3.2578 1.167,-0.1064 2.28,-0.291 3.33,-0.5684 1.25,-0.3291 2.407,-0.789 3.456,-1.4043 0,0 17.732,-1.3906 17.732,-1.3906 z m 7.236,-5.2744 c -0.159,1.1699 -0.491,2.2568 -1.391,3.0732 -0.899,0.8155 -2.378,1.3829 -4.828,1.5332 0,0 -0.002,-0.0234 -0.002,-0.0234 0,0 -0.675,0.0527 -0.675,0.0527 -0.023,10e-4 -0.048,0.002 -0.072,0.002 0,0 -0.329,0.0088 -0.329,0.0088 0,0 0.003,0.0205 0.003,0.0205 0,0 -16.627,1.3037 -16.627,1.3037 1.329,-0.9922 2.444,-2.292 3.298,-3.9639 0,0 20.623,-2.0068 20.623,-2.0068 z m 7.875,-6.5566 c 0.455,1.3662 0.112,2.5322 -1.028,3.5009 -1.13,0.958 -3.021,1.7364 -5.67,2.333 0,0 -21.495,2.0909 -21.495,2.0909 0.547,-1.2237 0.966,-2.6299 1.243,-4.2412 0.509,-0.252 0.986,-0.5264 1.427,-0.8252 0,0 25.523,-2.8584 25.523,-2.8584 z M 221.617,5.9013 c 0.341,-0.0615 0.682,-0.124 1.022,-0.1865 7.789,-1.417 15.667,-2.8506 23.713,-4.5898 0,0 0.016,-0.0039 0.016,-0.0039 0,0 0.025,-0.0098 0.025,-0.0098 1.806,-0.6768 4.45,-1.1113 6.833,-1.0488 1.371,0.0361 2.649,0.2363 3.615,0.6523 0.912,0.3906 1.54,0.9727 1.682,1.7871 0.057,0.3194 0.041,0.6787 -0.056,1.0791 -0.722,2.961 -4.77,3.9141 -8.817,4.8672 -1.989,0.4688 -3.978,0.9385 -5.613,1.6504 0,0 -24.924,2.791 -24.924,2.791 1.841,-1.6142 2.799,-3.8437 2.504,-6.9883 z M 120.819,39.0146 c 0,0 -0.193,0.2334 -0.193,0.2334 0,0 -0.167,0.2451 -0.167,0.2451 0,0 -0.145,0.2569 -0.145,0.2569 0,0 -0.123,0.2705 -0.123,0.2705 0,0 -0.106,0.2832 -0.106,0.2832 0,0 -0.089,0.2969 -0.089,0.2969 0,0 -0.075,0.3095 -0.075,0.3095 0,0 -0.062,0.3223 -0.062,0.3223 0,0 -0.051,0.334 -0.051,0.334 0,0 -0.041,0.3437 -0.041,0.3437 0,0 -0.035,0.3535 -0.035,0.3535 0,0 -0.03,0.3623 -0.03,0.3623 0,0 -0.028,0.3682 -0.028,0.3682 0,0 -0.028,0.376 -0.028,0.376 0,0 -0.031,0.3808 -0.031,0.3808 0,0 -0.037,0.3858 -0.037,0.3858 0,0 -0.045,0.3887 -0.045,0.3887 0,0 -0.057,0.3916 -0.057,0.3916 0,0 -0.07,0.3935 -0.07,0.3935 0,0 -0.088,0.3945 -0.088,0.3945 0,0 -0.109,0.3926 -0.109,0.3926 0,0 -0.132,0.3926 -0.132,0.3926 0,0 -0.158,0.3887 -0.158,0.3887 0,0 -0.189,0.3838 -0.189,0.3838 0,0 -0.22,0.3759 -0.22,0.3759 0,0 -0.256,0.3682 -0.256,0.3682 0,0 -0.293,0.3555 -0.293,0.3555 0,0 -0.062,0.0644 -0.062,0.0644 0,0 0.063,0.0176 0.063,0.0176 0,0 0.116,0.0254 0.116,0.0254 0,0 0.123,0.0225 0.123,0.0225 0,0 0.132,0.0166 0.132,0.0166 0,0 0.139,0.0127 0.139,0.0127 0,0 0.149,0.0078 0.149,0.0078 0,0 0.157,0.0029 0.157,0.0029 0,0 0.165,-0.0029 0.165,-0.0029 0,0 0.856,-0.0401 0.856,-0.0401 1.585,-0.5693 2.893,-1.3076 3.927,-2.2138 1.432,-1.2559 2.108,-2.752 2.728,-4.4854 0.188,0.9473 0.34,1.8037 0.636,2.7656 0.163,0.5313 0.35,1.0371 0.561,1.5157 1.003,2.2851 2.522,3.958 4.423,5.0693 0.414,-3.6279 2.379,-4.3311 3.901,-4.875 1.217,-0.4346 1.378,-0.9941 1.887,-2.0527 0,0 0.147,-0.3545 0.147,-0.3545 0,0 0.12,-0.3409 0.12,-0.3409 0,0 0.093,-0.33 0.093,-0.33 0,0 0.071,-0.3203 0.071,-0.3203 0,0 0.05,-0.3125 0.05,-0.3125 0,0 0.03,-0.3067 0.03,-0.3067 0,0 0.013,-0.3017 0.013,-0.3017 0,0 -0.002,-0.2989 -0.002,-0.2989 0,0 -0.017,-0.2988 -0.017,-0.2988 0,0 -0.029,-0.2979 -0.029,-0.2979 0,0 -0.04,-0.2998 -0.04,-0.2998 0,0 -0.05,-0.3017 -0.05,-0.3017 0,0 -0.058,-0.3067 -0.058,-0.3067 0,0 -0.063,-0.3115 -0.063,-0.3115 0,0 -0.069,-0.3154 -0.069,-0.3154 0,0 -0.07,-0.3223 -0.07,-0.3223 0,0 -0.065,-0.3086 -0.065,-0.3086 -4.288,-0.7324 -5.086,-2.332 -5.975,-4.1172 -0.451,-0.9043 -0.927,-1.8603 -1.96,-2.7558 0.22,3.0469 -1.202,3.3691 -3.29,3.8428 -2.041,0.4619 -4.381,1.6523 -5.879,3.1601 z M 82.2642,83.3337 c 1.195,1.455 2.677,2.33 4.447,2.626 1.797,0.299 3.897,0.007 6.301,-0.877 0,0 4.868,-6.151 4.868,-6.151 -0.164,-0.041 -0.326,-0.087 -0.488,-0.137 -1.955,-0.604 -3.656,-1.811 -4.863,-3.852 -0.265,-0.449 -0.506,-0.937 -0.721,-1.467 0,0 -9.544,9.858 -9.544,9.858 z m -10.027,-7.215 c 0,0 0.159,0.075 0.159,0.075 0,0 -0.025,0.216 -0.025,0.216 -0.221,1.843 0.443,3.318 1.992,4.424 1.553,1.11 3.983,1.863 7.289,2.261 0,0 9.922,-10.248 9.922,-10.248 -0.245,-0.714 -0.446,-1.498 -0.598,-2.356 -2.354,-0.162 -4.371,-0.777 -5.976,-2.121 0,0 -12.763,7.749 -12.763,7.749 z m -4.075,-7.129 c -1.044,1.447 -1.098,2.702 -0.422,3.814 0.667,1.1 2.027,2.087 3.846,2.999 0,0 12.943,-7.859 12.943,-7.859 -1.407,-1.379 -2.458,-3.406 -3.098,-6.292 0,0 -13.269,7.338 -13.269,7.338 z m -5.395,-9.4057 c -0.18,0.5546 -0.328,1.1127 -0.388,1.7057 -0.05,0.486 -0.041,0.954 0.025,1.407 0.345,2.319 2.256,4.189 5.735,5.612 0,0 13.165,-7.279 13.165,-7.279 -0.035,-0.174 -0.067,-0.351 -0.097,-0.5307 -1.759,-1.251 -3.024,-3.2354 -3.675,-6.2422 0,0 -14.765,5.3272 -14.765,5.3272 z m -4.54,-7.9981 c -0.295,1.5254 -0.416,3.0059 0.113,4.3203 0.502,1.249 1.604,2.374 3.724,3.2861 0,0 15.347,-5.5371 15.347,-5.5371 -0.075,-0.416 -0.141,-0.8505 -0.194,-1.3037 -1.182,-0.959 -2.147,-2.3027 -2.868,-4.1357 0,0 0.005,0.0224 0.005,0.0224 0,0 -16.127,3.3477 -16.127,3.3477 z m -5.171,-8.4619 c -0.178,1.5537 -0.184,3.0635 0.452,4.4101 0.633,1.3409 1.915,2.5469 4.311,3.5166 0,0 16.326,-3.3876 16.326,-3.3876 -0.319,-0.919 -0.584,-1.9512 -0.789,-3.1084 -1.461,-0.7403 -2.678,-1.8868 -3.616,-3.5762 0,0 -16.684,2.1455 -16.684,2.1455 z m -7.989,-6.9092 c 0.014,1.4209 0.609,2.6514 1.785,3.6895 1.246,1.0996 3.143,1.9922 5.688,2.6757 0,0 16.905,-2.1738 16.905,-2.1738 -0.617,-1.2734 -1.093,-2.8222 -1.416,-4.6943 -2.176,0.0664 -4.193,-0.0869 -5.978,-0.583 0,0 -16.984,1.0859 -16.984,1.0859 z m -8.445,-6.2783 c 0.11,1.3564 0.625,2.5478 1.752,3.4902 1.269,1.0606 3.315,1.8203 6.429,2.166 0,0 0.159,0.0186 0.159,0.0186 0,0 15.611,-0.9981 15.611,-0.9981 -2.102,-0.8984 -3.791,-2.415 -4.91,-4.8095 0,0 -19.041,0.1328 -19.041,0.1328 z m -6.639,-7.3594 c -0.106,1.6338 0.363,2.9756 1.358,4.0498 1.078,1.1631 2.775,2.0274 5.033,2.6201 0,0 0.221,0.0586 0.221,0.0586 0,0 0.001,0.0235 0.001,0.0235 0,0 18.805,-0.1309 18.805,-0.1309 -0.385,-0.9551 -0.688,-2.0361 -0.901,-3.2578 -1.166,-0.1064 -2.28,-0.291 -3.33,-0.5684 -1.249,-0.3291 -2.407,-0.789 -3.456,-1.4043 0,0 -17.731,-1.3906 -17.731,-1.3906 z m -7.236,-5.2744 c 0.159,1.1699 0.49,2.2568 1.39,3.0732 0.899,0.8155 2.377,1.3829 4.828,1.5332 0,0 0.002,-0.0234 0.002,-0.0234 0,0 0.674,0.0527 0.674,0.0527 0.025,10e-4 0.048,0.002 0.073,0.002 0,0 0.329,0.0088 0.329,0.0088 0,0 -0.002,0.0205 -0.002,0.0205 0,0 16.627,1.3037 16.627,1.3037 -1.33,-0.9922 -2.446,-2.292 -3.299,-3.9639 0,0 -20.622,-2.0068 -20.622,-2.0068 z m -7.8761,-6.5566 c -0.455,1.3662 -0.1123,2.5322 1.0284,3.5009 1.1298,0.958 3.0207,1.7364 5.6707,2.333 0,0 21.493,2.0909 21.493,2.0909 -0.547,-1.2237 -0.966,-2.6299 -1.241,-4.2412 -0.51,-0.252 -0.987,-0.5264 -1.429,-0.8252 0,0 -25.5221,-2.8584 -25.5221,-2.8584 z M 36.9622,5.9013 c -0.34,-0.0615 -0.681,-0.124 -1.022,-0.1865 -7.789,-1.417 -15.668,-2.8506 -23.7126,-4.5898 0,0 -0.0156,-0.0039 -0.0156,-0.0039 0,0 -0.0264,-0.0098 -0.0264,-0.0098 C 10.3799,0.4345 7.7364,0 5.3526,0.0625 3.9815,0.0986 2.7051,0.2988 1.7383,0.7148 0.8262,1.1054 0.1983,1.6875 0.0557,2.5019 0,2.8213 0.0147,3.1806 0.1123,3.581 0.834,6.542 4.8819,7.4951 8.9287,8.4482 c 1.9893,0.4688 3.9795,0.9385 5.6133,1.6504 0,0 24.9252,2.791 24.9252,2.791 -1.842,-1.6142 -2.8,-3.8437 -2.505,-6.9883 z M 116.109,60.9487 C 109.308,57.2412 105.679,49.3388 101.868,41.0371 97.0212,30.4756 91.8742,19.2617 79.5132,15.4746 65.3442,11.1338 51.5882,8.5654 37.5632,6.0107 c -0.634,7.2354 6.039,9.294 14.696,10.3731 2.213,0.2753 4.506,0.4843 6.842,0.6962 8.919,0.8106 18.432,1.6748 24.113,6.1983 0,0 0.004,0.0019 0.004,0.0019 5.978,4.7637 9.932,13.1758 13.775,21.3506 4.6808,9.9571 9.1948,19.5599 16.9298,21.5699 0,0 -0.152,0.587 -0.152,0.587 -8.009,-2.083 -12.584,-11.8121 -17.3258,-21.901 -3.812,-8.1094 -7.735,-16.4541 -13.604,-21.1299 0,0 -0.004,-0.002 -0.004,-0.002 -5.54,-4.414 -14.959,-5.2705 -23.79,-6.0722 -2.37,-0.2158 -4.7,-0.4268 -6.862,-0.6963 -3.713,-0.4629 -7.073,-1.1045 -9.69,-2.2432 1.14,5.9444 4.378,8.8682 8.829,10.043 4.641,1.2246 10.616,0.5762 16.924,-0.542 0,0 0.104,0.5986 0.104,0.5986 -4.719,0.836 -9.259,1.4112 -13.226,1.1465 1.879,10.2813 10.758,9.8926 20.912,8.2031 1.365,-0.2265 2.687,-0.4648 4.018,-0.705 0.793,-0.1426 1.617,-0.291 1.89,-0.3389 0,0 0.105,0.5977 0.105,0.5977 -0.988,0.1757 -1.424,0.2539 -1.887,0.3379 -1.376,0.247 -2.744,0.4941 -4.026,0.707 -2.611,0.4346 -5.14,0.7842 -7.498,0.8965 1.799,10.1992 8.496,10.2011 17.798,8.6533 1.275,-0.2119 2.538,-0.4414 3.841,-0.6777 0.859,-0.1553 1.74,-0.3165 2.283,-0.4122 0,0 0.105,0.5987 0.105,0.5987 -1.003,0.1767 -1.644,0.2939 -2.281,0.4092 -1.343,0.2441 -2.646,0.4804 -3.847,0.6806 -5.006,0.833 -9.284,1.2295 -12.508,-0.0771 1.913,9.7578 8.549,9.7363 17.716,8.2119 1.273,-0.2119 2.537,-0.4414 3.84,-0.6787 0.858,-0.1553 1.74,-0.3155 2.284,-0.4121 0,0 0.104,0.5986 0.104,0.5986 -1.003,0.1777 -1.643,0.2939 -2.281,0.4092 -1.343,0.2441 -2.645,0.4814 -3.847,0.6806 -5.794,0.9639 -10.615,1.3438 -13.952,-0.8271 1.241,8.506 6.968,9.536 14.873,8.613 2.459,-0.287 5.14,-0.763 7.9608,-1.2654 0.301,-0.0527 0.605,-0.1074 0.909,-0.1611 0,0 0.104,0.5985 0.104,0.5985 -0.304,0.054 -0.606,0.108 -0.908,0.161 -2.8238,0.502 -5.5088,0.98 -7.9968,1.27 -4.418,0.516 -8.185,0.442 -10.932,-1.116 1.909,9.771 8.547,9.751 17.719,8.225 1.2728,-0.212 2.5368,-0.441 3.8398,-0.679 0.858,-0.155 1.74,-0.315 2.283,-0.412 0,0 0.104,0.599 0.104,0.599 -1.002,0.178 -1.642,0.294 -2.28,0.409 -1.344,0.244 -2.646,0.482 -3.8478,0.681 -2.991,0.498 -5.722,0.84 -8.125,0.756 0.307,1.657 0.805,3.013 1.454,4.11 1.123,1.898 2.703,3.021 4.518,3.582 1.837,0.567 3.9208,0.567 6.0238,0.217 2.484,-0.412 4.991,-1.314 7.154,-2.345 0,0 -0.284,0.801 -0.284,0.801 -2.08,0.945 -4.434,1.754 -6.77,2.143 -1.765,0.293 -3.524,0.349 -5.1528,0.045 0,0 -4.994,6.311 -4.994,6.311 -0.577,3.766 0.693,6.958 4.165,7.801 0,0 0.324,-2.485 0.324,-2.485 0,0 0.082,-0.626 0.082,-0.626 0,0 0.437,0.455 0.437,0.455 0,0 9.2508,11.9203 9.2508,11.9203 0,0 2.754,-10.6143 2.754,-10.6143 -2.433,-1.617 -3.951,-3.413 -4.799,-5.34 -0.858,-1.943 -1.03,-4.009 -0.773,-6.152 0,0 0.603,0.071 0.603,0.071 -0.244,2.041 -0.083,4.003 0.725,5.837 0.761,1.728 2.103,3.353 4.228,4.837 0.377,-2.733 1.376,-4.751 2.834,-6.239 1.542,-1.574 3.589,-2.546 5.95,-3.142 0,0 0.277,-0.069 0.277,-0.069 0,0 0.086,0.272 0.086,0.272 0.654,2.062 1.662,3.969 3.24,5.628 1.555,1.636 3.668,3.037 6.544,4.115 2.215,-1.549 3.914,-3.146 5.173,-4.778 1.278,-1.655 2.106,-3.349 2.57,-5.076 0,0 0.089,-0.335 0.089,-0.335 0,0 0.32,0.133 0.32,0.133 2.65,1.101 4.489,2.444 5.738,3.959 1.144,1.388 1.788,2.917 2.104,4.537 4.436,-3.21 6.264,-6.551 5.484,-10.023 0,0 0.591,-0.132 0.591,-0.132 0.863,3.838 -1.176,7.482 -6.115,10.931 0,0 -0.4,0.279 -0.4,0.279 0,0 -0.074,-0.482 -0.074,-0.482 -0.263,-1.698 -0.878,-3.294 -2.058,-4.725 -1.136,-1.38 -2.803,-2.615 -5.188,-3.65 -0.498,1.686 -1.334,3.339 -2.581,4.954 -1.322,1.713 -3.106,3.381 -5.438,4.997 0,0 -0.13,0.09 -0.13,0.09 0,0 -0.147,-0.054 -0.147,-0.054 -3.044,-1.12 -5.277,-2.593 -6.922,-4.322 -1.578,-1.659 -2.608,-3.55 -3.289,-5.588 -2.144,0.575 -3.996,1.481 -5.392,2.906 -1.316,1.343 -2.234,3.156 -2.622,5.599 0,0 0.412,-0.629 0.412,-0.629 0,0 0.23,-0.351 0.23,-0.351 0,0 0.262,0.329 0.262,0.329 0,0 5.536,11.4463 5.536,11.4463 0,0 5.861,-11.6153 5.861,-11.6153 0,0 0.242,-0.294 0.242,-0.294 0,0 0.232,0.301 0.232,0.301 0,0 5.324,12.0863 5.324,12.0863 0,0 6.064,-11.7553 6.064,-11.7553 0,0 0.247,-0.324 0.247,-0.324 0,0 0.24,0.329 0.24,0.329 0,0 5.534,13.2513 5.534,13.2513 0,0 6.016,-13.2603 6.016,-13.2603 0,0 0.31,-0.393 0.31,-0.393 0,0 0.205,0.457 0.205,0.457 0,0 3.23,13.8113 3.23,13.8113 0,0 8.952,-14.7023 8.952,-14.7023 0,0 0.412,-0.509 0.412,-0.509 0,0 0.121,0.644 0.121,0.644 0,0 0.384,6.107 0.384,6.107 0.677,-0.725 1.646,-1.531 2.22,-2.533 1.47,-2.561 2.128,-5.811 1.811,-7.885 0,0 -4.994,-6.311 -4.994,-6.311 -1.63,0.304 -3.388,0.248 -5.153,-0.045 -3.017,-0.502 -6.061,-1.703 -8.509,-2.997 0,0 -0.053,-0.253 -0.053,-0.253 0,0 -0.108,-0.522 -0.108,-0.522 2.469,1.357 5.637,2.652 8.769,3.173 2.104,0.35 4.188,0.35 6.024,-0.217 1.815,-0.561 3.395,-1.684 4.518,-3.582 0.65,-1.097 1.148,-2.453 1.453,-4.11 -2.401,0.084 -5.133,-0.258 -8.124,-0.756 -1.202,-0.199 -2.505,-0.437 -3.847,-0.681 -0.639,-0.115 -1.279,-0.231 -2.282,-0.409 0,0 0.105,-0.599 0.105,-0.599 0.543,0.097 1.426,0.257 2.283,0.412 1.303,0.238 2.567,0.467 3.841,0.679 9.171,1.526 15.808,1.546 17.719,-8.225 -2.748,1.558 -6.515,1.632 -10.933,1.116 -2.488,-0.29 -5.173,-0.768 -7.997,-1.27 -0.301,-0.053 -0.604,-0.107 -0.908,-0.161 0,0 0.104,-0.5985 0.104,-0.5985 0.305,0.0537 0.608,0.1084 0.908,0.1611 2.822,0.5024 5.502,0.9784 7.962,1.2654 7.906,0.923 13.632,-0.107 14.872,-8.613 -3.336,2.1709 -8.156,1.791 -13.951,0.8271 -1.201,-0.1992 -2.504,-0.4365 -3.847,-0.6806 -0.638,-0.1153 -1.279,-0.2315 -2.281,-0.4092 0,0 0.105,-0.5986 0.105,-0.5986 0.543,0.0966 1.425,0.2568 2.283,0.4121 1.303,0.2373 2.566,0.4668 3.84,0.6787 9.167,1.5244 15.803,1.5459 17.716,-8.2119 -3.224,1.3066 -7.502,0.9101 -12.507,0.0771 -1.202,-0.2002 -2.505,-0.4365 -3.848,-0.6806 -0.637,-0.1153 -1.278,-0.2325 -2.281,-0.4092 0,0 0.104,-0.5987 0.104,-0.5987 0.543,0.0957 1.426,0.2569 2.284,0.4122 1.302,0.2363 2.567,0.4658 3.84,0.6777 9.303,1.5478 15.999,1.5459 17.798,-8.6533 -2.357,-0.1123 -4.886,-0.4619 -7.497,-0.8965 -1.282,-0.2129 -2.649,-0.46 -4.026,-0.707 -0.463,-0.084 -0.899,-0.1622 -1.887,-0.3379 0,0 0.105,-0.5977 0.105,-0.5977 0.273,0.0479 1.097,0.1963 1.889,0.3389 1.331,0.2402 2.655,0.4785 4.019,0.705 10.154,1.6895 19.033,2.0782 20.913,-8.2031 -3.967,0.2647 -8.508,-0.3105 -13.227,-1.1465 0,0 0.105,-0.5986 0.105,-0.5986 6.307,1.1182 12.282,1.7666 16.923,0.542 4.451,-1.1748 7.689,-4.0986 8.83,-10.043 -2.618,1.1387 -5.979,1.7803 -9.692,2.2432 -2.161,0.2695 -4.49,0.4805 -6.861,0.6963 -8.831,0.8017 -18.249,1.6582 -23.79,6.0713 0,0 -0.004,0.0039 -0.004,0.0039 -5.868,4.6748 -9.791,13.0195 -13.603,21.1289 -4.744,10.0889 -9.317,19.818 -17.327,21.901 0,0 -0.152,-0.587 -0.152,-0.587 7.734,-2.01 12.249,-11.6128 16.93,-21.5699 3.843,-8.1748 7.798,-16.5869 13.775,-21.3496 0,0 0.004,-0.0039 0.004,-0.0039 5.681,-4.5225 15.193,-5.3867 24.112,-6.1973 2.336,-0.2119 4.63,-0.4209 6.843,-0.6962 8.656,-1.0791 15.33,-3.1377 14.695,-10.3731 -14.023,2.5547 -27.779,5.1231 -41.949,9.4639 -12.361,3.7871 -17.508,15.001 -22.355,25.5625 -3.811,8.3017 -7.44,16.2041 -14.24,19.9116 0,0 -0.137,-0.158 -0.137,-0.158 0,0 -0.181,-0.214 -0.181,-0.214 0,0 -0.179,-0.2174 -0.179,-0.2174 0,0 -0.176,-0.2207 -0.176,-0.2207 0,0 -0.174,-0.2236 -0.174,-0.2236 0,0 -0.17,-0.2256 -0.17,-0.2256 0,0 -0.168,-0.2295 -0.168,-0.2295 0,0 -0.163,-0.2304 -0.163,-0.2304 0,0 -0.158,-0.2334 -0.158,-0.2334 0,0 -0.155,-0.2344 -0.155,-0.2344 0,0 -0.148,-0.2354 -0.148,-0.2354 0,0 -0.143,-0.2363 -0.143,-0.2363 0,0 -0.136,-0.2383 -0.136,-0.2383 0,0 -0.129,-0.2383 -0.129,-0.2383 0,0 -0.123,-0.2392 -0.123,-0.2392 0,0 -0.116,-0.2393 -0.116,-0.2393 0,0 -0.107,-0.2402 -0.107,-0.2402 0,0 -0.098,-0.2393 -0.098,-0.2393 0,0 -0.088,-0.2392 -0.088,-0.2392 0,0 -0.08,-0.2393 -0.08,-0.2393 0,0 -0.069,-0.2392 -0.069,-0.2392 0,0 -0.058,-0.2383 -0.058,-0.2383 0,0 -0.045,-0.2383 -0.045,-0.2383 0,0 -0.034,-0.2383 -0.034,-0.2383 0,0 -0.019,-0.2373 -0.019,-0.2373 0,0 -0.023,-1.0137 -0.023,-1.0137 0,0 0.917,0.2315 0.917,0.2315 0,0 0.121,0.0244 0.121,0.0244 0,0 0.111,0.0156 0.111,0.0156 0,0 0.098,0.0078 0.098,0.0078 0,0 0.088,0.001 0.088,0.001 0,0 0.077,-0.0058 0.077,-0.0058 0,0 0.065,-0.0098 0.065,-0.0098 0,0 0.057,-0.0156 0.057,-0.0156 0,0 0.049,-0.0196 0.049,-0.0196 0,0 0.046,-0.0224 0.046,-0.0224 0,0 0.011,-0.0078 0.011,-0.0078 0,0 -0.232,-0.2373 -0.232,-0.2373 0,0 -0.278,-0.292 -0.278,-0.292 0,0 -0.26,-0.2813 -0.26,-0.2813 0,0 -0.244,-0.2705 -0.244,-0.2705 0,0 -0.228,-0.2637 -0.228,-0.2637 0,0 -0.214,-0.2568 -0.214,-0.2568 0,0 -0.198,-0.251 -0.198,-0.251 0,0 -0.185,-0.247 -0.185,-0.247 0,0 -0.172,-0.2442 -0.172,-0.2442 0,0 -0.159,-0.2432 -0.159,-0.2432 0,0 -0.146,-0.2431 -0.146,-0.2431 0,0 -0.136,-0.2432 -0.136,-0.2432 0,0 -0.123,-0.2451 -0.123,-0.2451 0,0 -0.113,-0.2471 -0.113,-0.2471 0,0 -0.102,-0.25 -0.102,-0.25 0,0 -0.094,-0.2539 -0.094,-0.2539 0,0 -0.083,-0.2597 -0.083,-0.2597 0,0 -0.075,-0.2637 -0.075,-0.2637 0,0 -0.067,-0.2705 -0.067,-0.2705 0,0 -0.061,-0.2783 -0.061,-0.2783 0,0 -0.056,-0.2862 -0.056,-0.2862 0,0 -0.049,-0.2968 -0.049,-0.2968 0,0 -0.046,-0.3067 -0.046,-0.3067 0,0 -0.042,-0.3183 -0.042,-0.3183 0,0 -0.041,-0.3331 -0.041,-0.3331 0,0 -0.038,-0.3476 -0.038,-0.3476 0,0 -0.038,-0.3652 -0.038,-0.3652 0,0 -0.038,-0.3809 -0.038,-0.3809 0,0 -0.033,-0.3486 -0.033,-0.3486 -0.347,0.25 -0.802,0.4121 -1.303,0.5918 -1.423,0.5087 -3.278,1.1709 -3.542,4.8154 0,0 -0.034,0.4648 -0.034,0.4648 0,0 -0.411,-0.2177 -0.411,-0.2177 -2.21,-1.17 -3.966,-3.0088 -5.097,-5.587 -0.219,-0.499 -0.415,-1.0253 -0.586,-1.58 -0.081,-0.2657 -0.157,-0.5362 -0.227,-0.8125 -0.515,1.0644 -1.234,2.0009 -2.158,2.8105 -1.012,0.8877 -2.267,1.6192 -3.766,2.1953 0,0 -1.116,0.9131 -1.116,0.9131 0,0 -0.258,0.2295 -0.258,0.2295 0,0 -0.231,0.2246 -0.231,0.2246 0,0 -0.207,0.2188 -0.207,0.2188 0,0 -0.185,0.2148 -0.185,0.2148 0,0 -0.164,0.21 -0.164,0.21 0,0 -0.147,0.207 -0.147,0.207 0,0 -0.131,0.2041 -0.131,0.2041 0,0 -0.117,0.2021 -0.117,0.2021 0,0 -0.107,0.2012 -0.107,0.2012 0,0 -0.097,0.2012 -0.097,0.2012 0,0 -0.088,0.2002 -0.088,0.2002 0,0 -0.083,0.2012 -0.083,0.2012 0,0 -0.08,0.2041 -0.08,0.2041 0,0 -0.077,0.205 -0.077,0.205 0,0 -0.076,0.208 -0.076,0.208 0,0 -0.078,0.211 -0.078,0.211 0,0 -0.081,0.2139 -0.081,0.2139 0,0 -0.087,0.2167 -0.087,0.2167 0,0 -0.095,0.2188 -0.095,0.2188 0,0 -0.103,0.2217 -0.103,0.2217 0,0 -0.116,0.2246 -0.116,0.2246 0,0 -0.13,0.2246 -0.13,0.2246 0,0 -0.146,0.2256 -0.146,0.2256 0,0 -0.163,0.2256 -0.163,0.2256 0,0 -0.182,0.2236 -0.182,0.2236 0,0 -0.201,0.2236 -0.201,0.2236 0,0 -0.09,0.0879 -0.09,0.0879 0,0 0.154,-0.0176 0.154,-0.0176 0,0 0.169,-0.0293 0.169,-0.0293 0,0 0.159,-0.038 0.159,-0.038 0,0 0.152,-0.0479 0.152,-0.0479 0,0 0.145,-0.0576 0.145,-0.0576 0,0 0.137,-0.0664 0.137,-0.0664 0,0 0.131,-0.0772 0.131,-0.0772 0,0 0.126,-0.0879 0.126,-0.0879 0,0 1.83,-1.5087 1.83,-1.5087 0,0 -0.833,2.3525 -0.833,2.3525 -0.269,2.4863 -0.058,4.2979 0.442,5.7026 0.496,1.393 1.285,2.393 2.173,3.259 0.58,-2.502 1.453,-4.291 2.543,-5.5524 1.177,-1.3643 2.603,-2.1084 4.182,-2.4639 0,0 0.418,-0.0947 0.418,-0.0947 0,0 -0.05,0.4248 -0.05,0.4248 -0.256,2.1914 0.139,4.1782 1.085,5.9892 0.851,1.631 2.148,3.125 3.816,4.506 -0.332,-2.338 -0.174,-4.392 0.405,-6.199 0.644,-2.015 1.807,-3.722 3.39,-5.18 0,0 0.42,-0.3867 0.42,-0.3867 0,0 0.086,0.5664 0.086,0.5664 0.338,2.2637 1.151,3.6914 2.325,4.4823 0.8,0.539 1.777,0.791 2.895,0.817 0,0 0.134,0.608 0.134,0.608 -1.293,-0.009 -2.431,-0.289 -3.369,-0.921 -1.21,-0.816 -2.073,-2.2041 -2.488,-4.3281 -1.299,1.2978 -2.26,2.793 -2.814,4.5241 -0.613,1.916 -0.73,4.128 -0.26,6.689 0,0 0.143,0.777 0.143,0.777 0,0 -0.626,-0.483 -0.626,-0.483 -2.034,-1.568 -3.602,-3.287 -4.596,-5.192 -0.938,-1.798 -1.365,-3.7565 -1.191,-5.905 -1.295,0.3604 -2.466,1.0293 -3.447,2.1661 -1.099,1.2729 -1.969,3.1339 -2.524,5.8049 0,0 -0.107,0.521 -0.107,0.521 0,0 -0.393,-0.358 -0.393,-0.358 -1.106,-1.008 -2.112,-2.157 -2.722,-3.869 -0.374,-1.047 -0.594,-2.3021 -0.594,-3.8577 0,0 -0.486,1.3711 -0.486,1.3711 0,0 -0.437,1.2356 -0.437,1.2356 0,0 -0.137,0.384 -0.137,0.384 z m 15.014,-46.9995 c 0,0 -0.633,-0.0811 -0.633,-0.0811 0,0 -0.672,-0.0322 -0.672,-0.0322 0,0 -0.715,0.0215 -0.715,0.0215 0,0 -0.761,0.0791 -0.761,0.0791 0,0 -0.812,0.1406 -0.812,0.1406 0,0 -0.866,0.21 -0.866,0.21 0,0 -0.925,0.2812 -0.925,0.2812 0,0 -0.984,0.3584 -0.984,0.3584 0,0 -0.886,0.3721 -0.886,0.3721 2.931,2.9551 1.711,4.6387 0.178,6.7559 -0.883,1.2177 -1.878,2.5927 -2.123,4.4824 0,0 0.029,0.0146 0.029,0.0146 0,0 -0.064,0.3086 -0.064,0.3086 0,0.001 0,0.002 0,0.0039 0,0 -0.1,0.4834 -0.1,0.4834 0,0 -0.065,0.335 -0.065,0.335 0,0 -0.06,0.3349 -0.06,0.3349 0,0 -0.056,0.336 -0.056,0.336 0,0 -0.051,0.3349 -0.051,0.3349 0,0 -0.047,0.335 -0.047,0.335 0,0 -0.042,0.3359 -0.042,0.3359 0,0 -0.038,0.335 -0.038,0.335 0,0 -0.034,0.334 -0.034,0.334 0,0 -0.029,0.3349 -0.029,0.3349 0,0 -0.024,0.336 -0.024,0.336 0,0 -0.02,0.334 -0.02,0.334 0,0 -0.016,0.3349 -0.016,0.3349 0,0 -0.01,0.335 -0.01,0.335 0,0 -0.007,0.3359 -0.007,0.3359 0,0 -0.003,0.334 -0.003,0.334 0,0 0.003,0.335 0.003,0.335 0,0 0.007,0.3349 0.007,0.3349 0,0 0.01,0.335 0.01,0.335 0,0 0.016,0.335 0.016,0.335 0,0 0.02,0.3349 0.02,0.3349 0,0 0.024,0.335 0.024,0.335 0,0 0.029,0.3349 0.029,0.3349 0,0 0.034,0.335 0.034,0.335 0,0 0.038,0.335 0.038,0.335 0,0 0.042,0.3359 0.042,0.3359 0,0 0.047,0.335 0.047,0.335 0,0 0.051,0.3349 0.051,0.3349 0,0 0.056,0.335 0.056,0.335 0,0 0.06,0.3349 0.06,0.3349 0,0 0.057,0.2969 0.057,0.2969 1.701,-1.3984 3.397,-1.7822 4.783,-2.0967 1.916,-0.4345 3.175,-0.7197 2.748,-3.8916 0,0 -0.093,-0.6914 -0.093,-0.6914 0,0 0.569,0.4043 0.569,0.4043 1.555,1.1045 2.147,2.2949 2.704,3.4121 0.8,1.6075 1.521,3.0518 5.305,3.7491 0,0 -0.013,-0.0674 -0.013,-0.0674 0,0 -0.059,-0.3574 -0.059,-0.3574 0,0 -0.05,-0.3672 -0.05,-0.3672 0,0 -0.039,-0.378 -0.039,-0.378 0,0 -0.028,-0.3896 -0.028,-0.3896 0,0 -0.011,-0.4033 -0.011,-0.4033 0,0 0.005,-0.4151 0.005,-0.4151 0,0 0.026,-0.4287 0.026,-0.4287 0,0 0.046,-0.4424 0.046,-0.4424 0,0 0.071,-0.457 0.071,-0.457 0,0 0.096,-0.4707 0.096,-0.4707 0,0 0.125,-0.4922 0.125,-0.4922 0,0 0.086,-0.2676 0.086,-0.2676 0,0 0.057,-0.2255 0.057,-0.2255 0,0 0.042,-0.2198 0.042,-0.2198 0,0 0.029,-0.2148 0.029,-0.2148 0,0 0.013,-0.2119 0.013,-0.2119 0,0 0.003,-0.21 0.003,-0.21 0,0 -0.008,-0.208 -0.008,-0.208 0,0 -0.017,-0.209 -0.017,-0.209 0,0 -0.029,-0.209 -0.029,-0.209 0,0 -0.035,-0.2099 -0.035,-0.2099 0,0 -0.044,-0.2129 -0.044,-0.2129 0,0 -0.049,-0.2139 -0.049,-0.2139 0,0 -0.055,-0.2178 -0.055,-0.2178 0,0 -0.06,-0.2216 -0.06,-0.2216 0,0 -0.062,-0.2237 -0.062,-0.2237 0,0 -0.064,-0.2285 -0.064,-0.2285 0,0 -0.065,-0.2334 -0.065,-0.2334 0,0 -0.064,-0.2373 -0.064,-0.2373 0,0 -0.061,-0.2432 -0.061,-0.2432 0,0 -0.058,-0.249 -0.058,-0.249 0,0 -0.053,-0.2558 -0.053,-0.2558 0,0 -0.045,-0.2618 -0.045,-0.2618 0,0 -0.038,-0.2685 -0.038,-0.2685 0,0 -0.026,-0.2764 -0.026,-0.2764 0,0 -0.015,-0.2822 -0.015,-0.2822 0,0 -0.001,-0.291 -0.001,-0.291 0,0 0.013,-0.2969 0.013,-0.2969 0,0 0.03,-0.3057 0.03,-0.3057 0,0 0.048,-0.3115 0.048,-0.3115 0,0 0.069,-0.3193 0.069,-0.3193 0,0 0.088,-0.3252 0.088,-0.3252 0,0 0.212,-0.6504 0.212,-0.6504 0,0 0.673,-0.1426 0.673,-0.1426 0,0 0.309,-0.0762 0.309,-0.0762 0,0 0.295,-0.0839 0.295,-0.0839 0,0 0.281,-0.0909 0.281,-0.0909 0,0 0.269,-0.0966 0.269,-0.0966 0,0 0.255,-0.1045 0.255,-0.1045 0,0 0.242,-0.1104 0.242,-0.1104 0,0 0.231,-0.1172 0.231,-0.1172 0,0 0.219,-0.123 0.219,-0.123 0,0 0.207,-0.1289 0.207,-0.1289 0,0 0.196,-0.1338 0.196,-0.1338 0,0 0.187,-0.1406 0.187,-0.1406 0,0 0.175,-0.1455 0.175,-0.1455 0,0 0.166,-0.1504 0.166,-0.1504 0,0 0.157,-0.1573 0.157,-0.1573 0,0 0.147,-0.1621 0.147,-0.1621 0,0 0.139,-0.1679 0.139,-0.1679 0,0 0.131,-0.1729 0.131,-0.1729 0,0 0.122,-0.1787 0.122,-0.1787 0,0 0.115,-0.1846 0.115,-0.1846 0,0 0.107,-0.1904 0.107,-0.1904 0,0 0.1,-0.1963 0.1,-0.1963 0,0 0.093,-0.2012 0.093,-0.2012 0,0 0.086,-0.208 0.086,-0.208 0,0 0.078,-0.2119 0.078,-0.2119 0,0 0.072,-0.2187 0.072,-0.2187 0,0 0.067,-0.2246 0.067,-0.2246 0,0 0.059,-0.2286 0.059,-0.2286 0,0 0.053,-0.2343 0.053,-0.2343 0,0 0.031,-0.1602 0.031,-0.1602 0,0 -0.121,-0.0215 -0.121,-0.0215 0,0 -0.698,-0.1748 -0.698,-0.1748 0,0 -0.663,-0.2187 -0.663,-0.2187 0,0 -0.631,-0.2578 -0.631,-0.2578 0,0 -0.6,-0.2901 -0.6,-0.2901 0,0 -0.573,-0.3193 -0.573,-0.3193 0,0 -0.548,-0.3418 -0.548,-0.3418 0,0 -0.527,-0.3594 -0.527,-0.3594 0,0 -0.509,-0.3721 -0.509,-0.3721 0,0 -0.495,-0.3818 -0.495,-0.3818 0,0 -0.484,-0.3848 -0.484,-0.3848 0,0 -0.477,-0.3857 -0.477,-0.3857 0,0 -0.472,-0.3799 -0.472,-0.3799 0,0 -0.47,-0.3711 -0.47,-0.3711 0,0 -0.472,-0.3584 -0.472,-0.3584 0,0 -0.477,-0.3418 -0.477,-0.3418 0,0 -0.484,-0.3203 -0.484,-0.3203 0,0 -0.495,-0.2959 -0.495,-0.2959 0,0 -0.508,-0.2676 -0.508,-0.2676 0,0 -0.525,-0.2383 -0.525,-0.2383 0,0 -0.546,-0.2031 -0.546,-0.2031 0,0 -0.572,-0.165 -0.572,-0.165 0,0 -0.599,-0.125 -0.599,-0.125 z"
         id="path22"
         inkscape:connector-curvature="0" />
    </g>
    <g
       transform="matrix(1.9266364,0,0,1.9266364,375.83836,-159.26387)"
       id="g24"
       style="fill:#feca00;fill-rule:nonzero;stroke:none">
      <path
         d="M 8.971,4.6582 C 8.26,3.3408 7.439,2.6523 8.319,2.3467 9.199,2.042 9.346,3.9463 8.971,4.6582 z m 1.345,-3.669 c 0,0 -0.235,-0.0703 -0.235,-0.0703 0,0 -0.505,-0.1465 -0.505,-0.1465 0,0 -0.5,-0.1386 -0.5,-0.1386 0,0 -0.493,-0.1299 -0.493,-0.1299 0,0 -0.487,-0.1172 -0.487,-0.1172 0,0 -0.479,-0.1055 -0.479,-0.1055 0,0 -0.47,-0.0898 -0.47,-0.0898 0,0 -0.461,-0.0752 -0.461,-0.0752 0,0 -0.45,-0.0576 -0.45,-0.0576 0,0 -0.439,-0.0391 -0.439,-0.0391 C 5.797,0.0195 5.371,0 5.371,0 c 0,0 -0.413,0.001 -0.413,0.001 0,0 -0.397,0.0234 -0.397,0.0234 0,0 -0.384,0.0459 -0.384,0.0459 0,0 -0.368,0.0693 -0.368,0.0693 0,0 -0.352,0.0938 -0.352,0.0938 0,0 -0.336,0.1201 -0.336,0.1201 0,0 -0.321,0.1455 -0.321,0.1455 0,0 -0.306,0.1738 -0.306,0.1738 0,0 -0.293,0.2041 -0.293,0.2041 0,0 -0.279,0.2364 -0.279,0.2364 0,0 -0.266,0.2705 -0.266,0.2705 0,0 -0.254,0.3105 -0.254,0.3105 0,0 -0.242,0.3496 -0.242,0.3496 0,0 -0.226,0.3936 -0.226,0.3936 0,0 -0.211,0.4404 -0.211,0.4404 0,0 -0.194,0.4883 -0.194,0.4883 0,0 -0.177,0.5371 -0.177,0.5371 0,0 -0.158,0.5908 -0.158,0.5908 0,0 -0.137,0.6436 -0.137,0.6436 0,0 -0.057,0.3418 -0.057,0.3418 0,0 0.426,-0.1914 0.426,-0.1914 0,0 0.648,-0.2491 0.648,-0.2491 0,0 0.599,-0.1845 0.599,-0.1845 0,0 0.555,-0.1221 0.555,-0.1221 0,0 0.515,-0.0605 0.515,-0.0605 0,0 0.481,0.0019 0.481,0.0019 0,0 0.448,0.0645 0.448,0.0645 0,0 0.413,0.1279 0.413,0.1279 0,0 0.371,0.1885 0.371,0.1885 0,0 0.326,0.2382 0.326,0.2382 0,0 0.282,0.2784 0.282,0.2784 0,0 0.239,0.3086 0.239,0.3086 0,0 0.203,0.33 0.203,0.33 0,0 0.176,0.3467 0.176,0.3467 0,0 0.154,0.3594 0.154,0.3594 0,0 0.139,0.3701 0.139,0.3701 0,0 0.128,0.377 0.128,0.377 0,0 0.123,0.3818 0.123,0.3818 0,0 0.119,0.3828 0.119,0.3828 0,0 0.123,0.3809 0.123,0.3809 0,0 0.127,0.3759 0.127,0.3759 0,0 0.137,0.3672 0.137,0.3672 0,0 0.148,0.3545 0.148,0.3545 0,0 0.162,0.3399 0.162,0.3399 0,0 0.18,0.3222 0.18,0.3222 0,0 0.198,0.3008 0.198,0.3008 0,0 0.22,0.2774 0.22,0.2774 0,0 0.245,0.2539 0.245,0.2539 0,0 0.274,0.2285 0.274,0.2285 0,0 0.308,0.2021 0.308,0.2021 0,0 0.192,0.0967 0.192,0.0967 0.305,-1.9248 1.311,-3.3144 2.207,-4.5498 1.429,-1.9736 2.552,-3.5234 -0.55,-6.3887 z"
         id="path26"
         inkscape:connector-curvature="0" />
    </g>
    <g
       transform="matrix(1.9266364,0,0,1.9266364,327.29868,-9.7869442)"
       id="g28"
       style="fill:none;stroke:none">
      <path
         d="m 0,5.579 c 0,0 8.027,19.514 8.027,19.514 0,0 70.117,0 70.117,0 0,0 6.763,-19.906 6.763,-19.906 0,0 -11.812,11.971 -11.812,11.971 0,0 -0.85,0.86 -0.85,0.86 0,0 -0.006,-1.208 -0.006,-1.208 0,0 -0.084,-16.499 -0.084,-16.499 0,0 -8.348,13.672 -8.348,13.672 0,0 -0.639,1.045 -0.639,1.045 0,0 -0.275,-1.193 -0.275,-1.193 0,0 -2.993,-13.041 -2.993,-13.041 0,0 -5.59,12.165 -5.59,12.165 0,0 -0.472,1.025 -0.472,1.025 0,0 -0.441,-1.037 -0.441,-1.037 0,0 -5.35,-12.594 -5.35,-12.594 0,0 -5.809,11.225 -5.809,11.225 0,0 -0.477,0.922 -0.477,0.922 0,0 -0.421,-0.947 -0.421,-0.947 0,0 -5.145,-11.553 -5.145,-11.553 0,0 -5.626,11.274 -5.626,11.274 0,0 -0.457,0.917 -0.457,0.917 0,0 -0.441,-0.925 -0.441,-0.925 0,0 -5.177,-10.845 -5.177,-10.845 0,0 -3.401,11.664 -3.401,11.664 0,0 -0.276,0.945 -0.276,0.945 0,0 -0.599,-0.781 -0.599,-0.781 0,0 -8.578,-11.17 -8.578,-11.17 0,0 0.699,13.893 0.699,13.893 0,0 0.058,1.156 0.058,1.156 0,0 -0.882,-0.751 -0.882,-0.751 C 11.515,15.377 0,5.579 0,5.579 z"
         id="path30"
         style="fill:none"
         inkscape:connector-curvature="0" />
    </g>
    <g
       transform="matrix(1.9266364,0,0,1.9266364,329.65111,-7.5347063)"
       id="g32"
       style="fill:#e20010;fill-rule:nonzero;stroke:none">
      <path
         d="m 0,6.105 c 0,0 7.142,17.353 7.142,17.353 0,0 69.331,0 69.331,0 0,0 6.049,-17.55 6.049,-17.55 0,0 -10.293,10.43 -10.293,10.43 0,0 -0.849,0.861 -0.849,0.861 0,0 -0.85,0.861 -0.85,0.861 0,0 -0.006,-1.209 -0.006,-1.209 0,0 -0.006,-1.208 -0.006,-1.208 0,0 -0.075,-14.74 -0.075,-14.74 0,0 -7.432,12.171 -7.432,12.171 0,0 -0.638,1.045 -0.638,1.045 0,0 -0.639,1.046 -0.639,1.046 0,0 -0.273,-1.195 -0.273,-1.195 0,0 -0.275,-1.193 -0.275,-1.193 0,0 -2.665,-11.614 -2.665,-11.614 0,0 -4.979,10.834 -4.979,10.834 0,0 -0.472,1.025 -0.472,1.025 0,0 -0.472,1.026 -0.472,1.026 0,0 -0.44,-1.038 -0.44,-1.038 0,0 -0.441,-1.037 -0.441,-1.037 0,0 -4.936,-11.618 -4.936,-11.618 0,0 -5.32,10.282 -5.32,10.282 0,0 -0.478,0.922 -0.478,0.922 0,0 -0.477,0.922 -0.477,0.922 0,0 -0.421,-0.947 -0.421,-0.947 0,0 -0.422,-0.947 -0.422,-0.947 0,0 -4.714,-10.587 -4.714,-10.587 0,0 -5.153,10.328 -5.153,10.328 0,0 -0.457,0.917 -0.457,0.917 0,0 -0.459,0.917 -0.459,0.917 0,0 -0.44,-0.925 -0.44,-0.925 0,0 -0.441,-0.925 -0.441,-0.925 0,0 -4.614,-9.664 -4.614,-9.664 0,0 -3.035,10.406 -3.035,10.406 0,0 -0.275,0.946 -0.275,0.946 0,0 -0.276,0.944 -0.276,0.944 0,0 -0.599,-0.78 -0.599,-0.78 0,0 -0.6,-0.782 -0.6,-0.782 0,0 -7.6,-9.897 -7.6,-9.897 0,0 0.618,12.295 0.618,12.295 0,0 0.058,1.156 0.058,1.156 0,0 0.058,1.155 0.058,1.155 0,0 -0.882,-0.751 -0.882,-0.751 0,0 -0.883,-0.751 -0.883,-0.751 C 9.969,14.589 0,6.105 0,6.105 z"
         id="path34"
         inkscape:connector-curvature="0" />
    </g>
    <g
       transform="matrix(1.9266364,0,0,1.9266364,228.76857,47.285805)"
       id="g36"
       style="fill:#ffffff;fill-rule:nonzero;stroke:none">
      <path
         d="m 71.22,14.758 c -2.868,0.145 -5.36,0.217 -8.276,0.959 -1.787,0.454 -3.524,1.075 -5.197,1.907 C 54.986,16.846 51.753,15.658 51.336,10.245 50.876,4.267 61.61,2.171 72.99,1.151 76.78,0.812 80.607,0.595 84.131,0.396 91.148,0 96.111,0.007 103,0.396 c 3.526,0.199 7.352,0.416 11.143,0.755 11.379,1.02 22.113,3.116 21.652,9.094 -0.417,5.413 -3.649,6.601 -6.411,7.379 -1.673,-0.832 -3.409,-1.453 -5.195,-1.907 -2.917,-0.742 -5.409,-0.814 -8.277,-0.959 -15.066,-0.754 -29.655,-0.754 -44.692,0 z M 58.849,17.93 c 2.009,0.571 3.534,1.199 3.333,3.453 -0.012,0.13 -0.053,0.252 -0.12,0.367 2.719,-0.542 4.749,-1.212 5.968,-2.032 0.895,-0.603 1.309,-1.298 1.18,-2.099 -0.353,-0.65 -0.755,-1.32 -1.205,-2.009 -1.675,0.171 -3.313,0.442 -4.902,0.847 -1.456,0.37 -2.877,0.852 -4.254,1.473 z m 1.121,4.885 c -2.558,0.605 -7.132,0.749 -12.657,0.923 -8.799,0.275 -20.066,0.63 -29.245,2.778 C 7.702,28.942 0,33.662 1.655,43.177 19.766,35.21 31.092,35.816 41.091,36.353 c 5.842,0.314 11.229,0.604 17.232,-0.873 3.794,-0.934 6.951,-2.23 9.201,-3.954 1.487,-1.139 2.574,-2.464 3.183,-3.992 0.607,-1.521 0.741,-3.255 0.326,-5.221 -0.232,-1.094 -0.632,-2.259 -1.215,-3.499 -0.24,0.562 -0.717,1.077 -1.417,1.548 -1.612,1.084 -4.498,1.909 -8.421,2.523 0,0 -0.01,-0.07 -0.01,-0.07 z M 2.205,47.457 c 0.07,-1.259 1.072,-2.219 2.238,-2.146 1.167,0.074 2.057,1.154 1.989,2.412 -0.023,0.413 0.008,0.749 0.081,1.014 0.093,0.336 0.258,0.587 0.466,0.751 0.226,0.178 0.54,0.28 0.902,0.304 0.321,0.02 0.656,-0.022 0.985,-0.127 0.159,-0.052 0.339,-0.172 0.525,-0.353 0.399,-0.388 0.744,-0.985 0.933,-1.742 0.206,-0.831 0.214,-1.839 -0.097,-2.967 -0.286,-1.035 -0.837,-2.164 -1.738,-3.354 1.469,-0.529 2.89,-0.996 4.266,-1.411 0.716,1.185 1.208,2.349 1.517,3.465 0.554,2.006 0.521,3.863 0.13,5.442 -0.411,1.653 -1.223,3.014 -2.188,3.95 -0.652,0.634 -1.389,1.089 -2.143,1.332 C 9.242,54.293 8.415,54.399 7.633,54.349 6.489,54.277 5.4,53.876 4.486,53.156 3.554,52.421 2.838,51.378 2.468,50.037 2.251,49.253 2.155,48.389 2.205,47.457 z M 128.283,17.93 c -2.009,0.571 -3.535,1.199 -3.332,3.453 0.01,0.13 0.051,0.252 0.12,0.367 -2.72,-0.542 -4.75,-1.212 -5.969,-2.032 -0.896,-0.603 -1.31,-1.298 -1.181,-2.099 0.354,-0.65 0.755,-1.32 1.206,-2.009 1.674,0.171 3.313,0.442 4.902,0.847 1.456,0.37 2.877,0.852 4.254,1.473 z m -1.122,4.885 c 2.558,0.605 7.132,0.749 12.658,0.923 8.798,0.275 20.066,0.63 29.245,2.778 10.365,2.426 18.068,7.146 16.413,16.661 -18.111,-7.967 -29.438,-7.361 -39.437,-6.824 -5.841,0.314 -11.227,0.604 -17.231,-0.873 -3.795,-0.934 -6.951,-2.23 -9.201,-3.954 -1.488,-1.139 -2.574,-2.464 -3.184,-3.992 -0.605,-1.521 -0.74,-3.255 -0.325,-5.221 0.231,-1.094 0.632,-2.259 1.216,-3.499 0.238,0.562 0.716,1.077 1.416,1.548 1.611,1.084 4.498,1.909 8.421,2.523 0,0 0.009,-0.07 0.009,-0.07 z m 57.765,24.642 c -0.068,-1.259 -1.07,-2.219 -2.237,-2.146 -1.167,0.074 -2.058,1.154 -1.989,2.412 0.022,0.413 -0.008,0.749 -0.082,1.014 -0.092,0.336 -0.256,0.587 -0.465,0.751 -0.226,0.178 -0.54,0.28 -0.902,0.304 -0.322,0.02 -0.656,-0.022 -0.985,-0.127 -0.158,-0.052 -0.339,-0.172 -0.525,-0.353 -0.4,-0.388 -0.745,-0.985 -0.933,-1.742 -0.206,-0.831 -0.215,-1.839 0.097,-2.967 0.286,-1.035 0.837,-2.164 1.738,-3.354 -1.47,-0.529 -2.891,-0.996 -4.267,-1.411 -0.716,1.185 -1.208,2.349 -1.516,3.465 -0.554,2.006 -0.522,3.863 -0.13,5.442 0.411,1.653 1.223,3.014 2.187,3.95 0.653,0.634 1.39,1.089 2.144,1.332 0.828,0.266 1.655,0.372 2.437,0.322 1.145,-0.072 2.234,-0.473 3.148,-1.193 0.931,-0.735 1.647,-1.778 2.017,-3.119 0.217,-0.784 0.314,-1.648 0.263,-2.58 z"
         id="path38"
         inkscape:connector-curvature="0" />
    </g>
    <g
       transform="matrix(1.9266364,0,0,1.9266364,245.69985,55.759151)"
       id="g40"
       style="fill:none;stroke:none">
      <path
         d="m 170.691,32.628 c 0.63,0.315 1.26,0.631 1.889,0.945 0,0 -0.893,1.887 -0.893,1.887 -0.63,-0.314 -1.26,-0.63 -1.89,-0.945 0.298,-0.628 0.596,-1.258 0.894,-1.887 z m -3.107,0.813 c 0,0 -0.022,-1.308 -0.022,-1.308 0,0 -1.333,-0.53 -1.333,-0.53 0,0 -0.834,0.967 -0.834,0.967 -1.297,-0.515 -2.464,-0.843 -3.82,-1.202 0,0 -0.598,-1.591 -0.598,-1.591 0,0 0,-0.003 0,-0.003 -0.082,-0.219 -0.225,-0.859 -0.486,-0.974 0,0 -0.5,2.148 -0.5,2.148 -0.699,-0.184 -1.397,-0.369 -2.094,-0.553 0,0 0.005,-0.021 0.005,-0.021 -0.808,-0.111 -1.614,-0.224 -2.421,-0.336 0,0 -0.786,-1.514 -0.786,-1.514 -0.111,-0.212 -0.325,-0.822 -0.595,-0.911 0,0 -0.232,2.202 -0.232,2.202 -0.713,-0.099 -1.427,-0.198 -2.14,-0.297 0,0 0.674,-6.388 0.674,-6.388 1.021,0.142 2.05,0.263 3.067,0.43 1.05,0.172 1.957,0.651 2.136,1.735 0.139,0.841 -0.231,1.772 -1.041,2.152 0.551,0.842 0.942,1.853 1.378,2.756 0,0 1.406,-6.044 1.406,-6.044 0,0 2.758,0.73 2.758,0.73 0,0 0.003,0.001 0.003,0.001 0.063,0.016 0.143,0.039 0.237,0.066 0.786,0.23 1.524,0.58 1.808,1.395 0,0 0.002,0.003 0.002,0.003 0.065,0.189 0.102,0.383 0.111,0.581 0.032,0.77 -0.54,1.763 -1.3,2.003 0.153,0.308 0.268,0.638 0.377,0.963 0,0 0.423,1.235 0.423,1.235 0,0 4.047,-4.473 4.047,-4.473 0.583,0.232 1.167,0.464 1.751,0.696 0,0 0.222,6.957 0.222,6.957 -0.735,-0.292 -1.468,-0.583 -2.203,-0.875 z m -6.654,-6.532 c 0.287,0.075 0.574,0.156 0.866,0.213 0.217,0.061 0.347,-0.211 -0.052,-0.286 -0.254,-0.048 -0.5,-0.136 -0.749,-0.202 0,0 -0.065,0.275 -0.065,0.275 z m -6.626,-1.231 c 0,0 0.284,0.04 0.284,0.04 0.222,0.03 0.421,0.052 0.597,0.064 0.267,0.038 0.276,-0.221 0.009,-0.264 -0.125,-0.022 -0.314,-0.05 -0.566,-0.084 0,0 -0.294,-0.041 -0.294,-0.041 0,0 -0.03,0.285 -0.03,0.285 z m -8.316,-2.872 c 0,0 5.053,0.258 5.053,0.258 -0.011,0.661 -0.023,1.322 -0.035,1.983 0,0 -2.897,-0.149 -2.897,-0.149 0,0 -0.002,0.116 -0.002,0.116 0,0 2.696,0.138 2.696,0.138 -0.012,0.659 -0.023,1.319 -0.034,1.977 0,0 -2.696,-0.138 -2.696,-0.138 0,0 -0.007,0.388 -0.007,0.388 0,0 3,0.153 3,0.153 0,0 -0.035,1.979 -0.035,1.979 0,0 -5.156,-0.264 -5.156,-0.264 0,0 0.113,-6.441 0.113,-6.441 z m -3.356,4.412 c -0.165,0.214 -0.654,0.188 -0.816,0.072 0,0 0,-0.002 0,-0.002 -0.055,-0.039 -0.096,-0.087 -0.122,-0.141 0,0 -0.002,-0.002 -0.002,-0.002 -0.004,-0.008 -0.009,-0.02 -0.015,-0.036 -0.005,-0.013 -0.01,-0.028 -0.014,-0.044 -0.284,-1.331 -0.178,-2.891 -0.248,-4.218 -0.718,0.013 -1.438,0.028 -2.156,0.041 0,0 0.179,3.419 0.179,3.419 0.025,0.489 0.063,1.008 0.198,1.481 0.248,0.861 1.007,1.425 1.929,1.547 0.633,0.084 1.392,0.072 1.986,-0.189 1.26,-0.558 1.299,-1.737 1.233,-3.017 0,0 -0.175,-3.342 -0.175,-3.342 -0.719,0.014 -1.438,0.028 -2.156,0.04 0.074,1.432 0.365,2.923 0.188,4.349 0,0 0,0.002 0,0.002 -0.001,0.013 -0.005,0.027 -0.009,0.04 z m -7.466,-1.737 c 0,0 0.557,-0.01 0.557,-0.01 0,0 0.683,-0.013 0.683,-0.013 -0.028,-0.078 -0.049,-0.157 -0.088,-0.229 -0.142,-0.259 -0.405,-0.347 -0.684,-0.342 -0.44,0.009 -0.768,0.203 -0.879,0.634 0,0 -0.003,0.002 -0.003,0.002 -0.109,0.427 -0.051,1.144 0.194,1.553 0.077,0.129 0.19,0.243 0.32,0.318 0,0 -0.1,-1.913 -0.1,-1.913 z m 2.884,-0.027 c 0,0 0.525,-0.013 0.525,-0.013 0,0 0.15,2.865 0.15,2.865 -0.501,0.521 -1.057,0.853 -1.757,1.053 -0.903,0.258 -1.938,0.211 -2.776,-0.232 0,0 -0.002,-0.002 -0.002,-0.002 -0.263,-0.14 -0.495,-0.311 -0.698,-0.515 -1.02,-1.02 -1.26,-2.82 -0.645,-4.106 0,0 0.002,-0.002 0.002,-0.002 0.131,-0.27 0.297,-0.511 0.499,-0.722 0.199,-0.208 0.434,-0.385 0.702,-0.533 0.024,-0.014 0.038,-0.021 0.043,-0.024 0.554,-0.29 1.208,-0.363 1.827,-0.33 0.866,0.047 1.67,0.381 2.169,1.111 0.288,0.421 0.392,0.825 0.519,1.309 0,0 -0.558,0.141 -0.558,0.141 z m -2.65,2.002 c 0.257,0.094 0.55,0.076 0.804,-0.015 0,0 -0.804,0.015 -0.804,0.015 z m -10.311,-5.171 c 0.628,0.087 1.256,0.174 1.883,0.261 0,0 1.121,2.389 1.121,2.389 0,0 0.233,-2.201 0.233,-2.201 0.687,0.095 1.375,0.191 2.062,0.287 0,0 -0.674,6.387 -0.674,6.387 -0.638,-0.089 -1.278,-0.177 -1.917,-0.266 0,0 -1.094,-2.312 -1.094,-2.312 0,0 -0.225,2.129 -0.225,2.129 -0.688,-0.096 -1.375,-0.191 -2.063,-0.286 0,0 0.674,-6.388 0.674,-6.388 z m -5.041,-1.253 c 0,0 4.916,1.301 4.916,1.301 -0.148,0.641 -0.298,1.281 -0.447,1.921 0,0 -2.823,-0.747 -2.823,-0.747 0,0 -0.026,0.109 -0.026,0.109 0,0 2.627,0.695 2.627,0.695 -0.148,0.639 -0.297,1.278 -0.445,1.917 0,0 -2.628,-0.696 -2.628,-0.696 0,0 -0.086,0.371 -0.086,0.371 0,0 2.923,0.774 2.923,0.774 -0.148,0.639 -0.297,1.278 -0.446,1.918 0,0 -5.015,-1.327 -5.015,-1.327 0,0 1.45,-6.236 1.45,-6.236 z M 68.218,0.1 c 1.585,0 3.17,0 4.755,0 0,0 0,1.98 0,1.98 0,0 -2.598,0 -2.598,0 0,0 0,0.199 0,0.199 0,0 2.243,0 2.243,0 0,0.661 0,1.321 0,1.982 0,0 -2.243,0 -2.243,0 0,0 0,2.282 0,2.282 -0.718,0 -1.438,0 -2.157,0 0,0 0,-6.443 0,-6.443 z m 5.565,0 c 0.718,0 1.437,0 2.156,0 0,0 0,6.443 0,6.443 -0.719,0 -1.438,0 -2.156,0 0,0 0,-6.443 0,-6.443 z m 3.139,0 c 1.685,0 3.369,0 5.054,0 0,0 0,1.98 0,1.98 0,0 -2.897,0 -2.897,0 0,0 0,0.119 0,0.119 0,0 2.696,0 2.696,0 0,0.658 0,1.318 0,1.976 0,0 -2.696,0 -2.696,0 0,0 0,0.39 0,0.39 0,0 3,0 3,0 0,0 0,1.978 0,1.978 -1.719,0 -3.438,0 -5.157,0 0,0 0,-6.443 0,-6.443 z m 6.029,0 c 0,0 2.819,0 2.819,0 0,0 0.012,0 0.012,0 0.299,0 0.566,0.013 0.797,0.041 0.634,0.073 1.156,0.294 1.52,0.867 0,0 0,0.002 0,0.002 0.105,0.168 0.186,0.347 0.238,0.539 0.053,0.191 0.079,0.389 0.079,0.592 0,0 0,0.003 0,0.003 0,0.26 -0.041,0.504 -0.121,0.728 0,0 0,0.002 0,0.002 -0.012,0.037 -0.027,0.074 -0.044,0.111 -0.138,0.325 -0.365,0.599 -0.655,0.797 -0.022,0.015 -0.046,0.03 -0.069,0.044 0.219,0.264 0.405,0.558 0.586,0.849 0,0 0.002,-10e-4 0.002,-10e-4 0,0 1.171,1.869 1.171,1.869 -0.85,0 -1.701,0 -2.55,0 0,0 -0.945,-1.408 -0.945,-1.408 -0.128,-0.194 -0.404,-0.717 -0.628,-0.804 0,0 0,-0.001 -10e-4,-0.001 -0.001,0 -0.003,-0.001 -0.004,-0.001 -0.013,-0.005 -0.03,-0.008 -0.049,-0.012 0,0 0,2.226 0,2.226 -0.72,0 -1.439,0 -2.158,0 0,0 0,-6.443 0,-6.443 z m 2.158,2.27 c 0.288,0 0.577,0.003 0.865,-0.015 0.301,0.004 0.278,-0.247 0.075,-0.266 -0.313,-0.012 -0.628,-0.009 -0.94,-0.009 0,0 0,0.29 0,0.29 z M 89.391,0.1 c 1.203,0 2.431,-0.1 3.627,0.041 0.635,0.073 1.157,0.294 1.52,0.867 0,0 0,0.002 0,0.002 0.214,0.337 0.318,0.733 0.318,1.131 0,0 0,0.003 0,0.003 0,0.26 -0.04,0.504 -0.12,0.728 0,0 0,0.002 0,0.002 -0.014,0.037 -0.028,0.074 -0.044,0.111 -0.151,0.351 -0.404,0.64 -0.726,0.841 0.221,0.264 0.406,0.558 0.587,0.849 0,0 0.002,-10e-4 0.002,-10e-4 0,0 1.17,1.869 1.17,1.869 -0.85,0 -1.699,0 -2.549,0 0,0 -0.944,-1.408 -0.944,-1.408 -0.139,-0.207 -0.252,-0.372 -0.34,-0.495 0,0 -0.002,0.001 -0.002,0.001 -0.074,-0.103 -0.161,-0.26 -0.286,-0.31 0,0 0,0 0,0 -0.001,0 -0.001,0 -0.001,-0.001 -10e-4,0 -10e-4,0 -10e-4,0 0,0 0,0 0,0 -0.001,0 -0.001,0 -0.002,0 0,0 0,0 0,0 0,-0.001 0,-0.001 -10e-4,-0.001 0,0 0,0 0,0 0,0 -0.001,0 -0.001,0 0,0 0,0 0,0 -0.014,-0.004 -0.03,-0.008 -0.05,-0.012 0,0 0,2.226 0,2.226 -0.719,0 -1.438,0 -2.157,0 0,0 0,-6.443 0,-6.443 z m 2.213,4.231 c 0,0 0,0 0,0 -0.001,0 -0.001,0 -0.001,-0.001 -10e-4,0 -10e-4,0 -10e-4,0 0,0 0,0 0,0 -0.001,0 -0.001,0 -0.002,0 0,0 0,0 0,0 0,0 0,-0.001 -10e-4,-0.001 0,0 0,0 0,0 0,0 -0.001,0 -0.001,0 0,0 0,0 0,0 0,0 0,0 0,0 0,0 0.006,0.002 0.006,0.002 z M 91.548,2.37 c 0.289,0 0.578,0.003 0.866,-0.015 C 92.712,2.372 92.631,2.081 92.49,2.089 92.176,2.077 91.862,2.08 91.548,2.08 c 0,0 0,0.29 0,0.29 z m 4.061,0.985 c 0,-1.901 1.17,-3.347 3.133,-3.347 1.892,0 3.148,1.411 3.148,3.32 0,1.122 -0.402,2.22 -1.394,2.843 -0.524,0.328 -1.129,0.463 -1.742,0.463 -0.465,0 -0.886,-0.073 -1.264,-0.219 0,0 -0.003,-0.002 -0.003,-0.002 -0.069,-0.026 -0.13,-0.052 -0.183,-0.077 0,0 -0.002,0 -0.002,0 -1.16,-0.541 -1.693,-1.711 -1.693,-2.981 z m 3.144,1.281 c 0.764,0 0.944,-0.693 0.944,-1.333 0,0 0,-0.004 0,-0.004 0,-0.258 -0.027,-0.476 -0.079,-0.652 0,0 0,-0.003 0,-0.003 -0.005,-0.02 -0.014,-0.045 -0.025,-0.076 -0.252,-0.695 -1.318,-0.75 -1.64,-0.102 -0.366,0.734 -0.256,2.17 0.8,2.17 z M 0.411,30.766 C 0,29.253 0.4,27.689 1.884,26.931 3.788,25.96 5.89,26.784 6.471,28.933 c 0.501,1.855 -0.281,3.495 -2.154,4.064 0,0 -0.016,0.005 -0.016,0.005 0,0 -0.002,0 -0.002,0 -1.871,0.562 -3.388,-0.389 -3.888,-2.236 z m 2.632,0.244 c 0.451,0.277 1.074,0.055 1.301,-0.405 0.059,-0.121 0.09,-0.263 0.095,-0.428 0.02,-0.771 -0.365,-1.896 -1.323,-1.605 -0.349,0.106 -0.612,0.359 -0.675,0.708 -0.091,0.491 0.152,1.451 0.602,1.73 z m 4.211,-5.093 c 0,0 -0.081,-0.511 -0.081,-0.511 0.918,-0.177 2.744,-0.744 3.846,-0.687 0.734,0.037 1.372,0.391 1.696,1.094 0.289,0.626 0.272,1.404 -0.1,1.991 0,0 -0.003,0.004 -0.003,0.004 -0.094,0.146 -0.209,0.279 -0.339,0.394 0.079,0.068 0.165,0.147 0.258,0.238 0,0 0,0.003 0,0.003 0.137,0.137 0.288,0.296 0.45,0.478 0,0 1.442,1.603 1.442,1.603 -0.831,0.162 -1.663,0.324 -2.494,0.486 0,0 -1.16,-1.208 -1.16,-1.208 0,0 -0.002,-0.002 -0.002,-0.002 -0.167,-0.175 -0.304,-0.314 -0.41,-0.417 0,0 -0.002,-0.002 -0.002,-0.002 -0.096,-0.093 -0.164,-0.154 -0.204,-0.184 -0.029,-0.02 -0.054,-0.036 -0.075,-0.045 -0.014,-0.005 -0.03,-0.01 -0.048,-0.013 -0.013,-10e-4 -0.037,0 -0.073,0.002 0,0 0.349,2.185 0.349,2.185 -0.707,0.138 -1.415,0.276 -2.122,0.413 0,0 -0.928,-5.822 -0.928,-5.822 z m 2.396,1.307 c 0.281,-0.054 0.562,-0.106 0.839,-0.178 0.382,-0.065 0.207,-0.296 0.064,-0.279 -0.317,0.049 -0.633,0.116 -0.947,0.177 0,0 0.044,0.28 0.044,0.28 z m 4.698,0.134 c -0.02,-0.293 -0.016,-0.576 0.013,-0.848 0,0 0,-0.002 0,-0.002 0.086,-0.81 0.457,-1.567 1.086,-2.096 0.133,-0.113 0.28,-0.213 0.439,-0.298 0.76,-0.414 1.783,-0.537 2.612,-0.31 1.335,0.364 2.024,1.552 2.118,2.905 0.079,1.129 -0.255,2.25 -1.189,2.963 -0.645,0.492 -1.602,0.721 -2.433,0.649 -1.618,-0.141 -2.537,-1.399 -2.646,-2.963 z m 2.187,-0.2 c 0.033,0.447 0.164,0.98 0.643,1.133 0.407,0.131 0.896,-0.063 1.1,-0.433 0.015,-0.028 0.033,-0.064 0.051,-0.109 0.164,-0.408 0.13,-1.094 -0.027,-1.514 -0.05,-0.13 -0.112,-0.236 -0.189,-0.315 -0.251,-0.154 -0.37,-0.251 -0.7,-0.217 -0.79,0.084 -0.926,0.762 -0.878,1.455 z m 7.31,-3.85 c 0,0 5.055,-0.184 5.055,-0.184 0,0.661 0,1.322 0,1.982 0,0 -2.898,0.106 -2.898,0.106 0,0 0,0.117 0,0.117 0,0 2.697,-0.098 2.697,-0.098 0,0.66 0,1.319 0,1.978 0,0 -2.697,0.098 -2.697,0.098 0,0 0,0.388 0,0.388 0,0 3,-0.108 3,-0.108 0,0.659 0,1.319 0,1.978 -1.718,0.063 -3.438,0.125 -5.157,0.188 0,0 0,-6.445 0,-6.445 z m 6.26,-0.227 c 0.627,-0.023 1.255,-0.046 1.882,-0.068 0,0 0.164,0.261 0.164,0.261 0,0 1.208,1.928 1.208,1.928 0,0 0,-2.24 0,-2.24 0,0 0.517,-0.019 0.517,-0.019 0,0 1.008,-0.036 1.008,-0.036 0,0 0.555,-0.02 0.555,-0.02 0,0 0,6.445 0,6.445 -0.637,0.024 -1.275,0.046 -1.911,0.069 0,0 -1.343,-2.123 -1.343,-2.123 0,0 0,2.172 0,2.172 -0.693,0.026 -1.387,0.051 -2.08,0.075 0,0 0,-6.444 0,-6.444 z m 8.533,-0.384 c 0,0 2.255,-0.16 2.255,-0.16 0,0 0.002,0 0.002,0 0.043,-0.003 0.1,-0.007 0.184,-0.013 0.523,-0.032 1.098,-0.084 1.595,0.116 1.135,0.454 1.528,1.93 1.019,2.986 -0.027,0.057 -0.254,0.413 -0.253,0.414 -0.611,0.786 -1.588,0.854 -2.494,0.918 0,0 0.071,2.023 0.071,2.023 -0.718,0.05 -1.437,0.102 -2.154,0.153 0,0 -0.225,-6.437 -0.225,-6.437 z m 2.238,2.275 c 0.175,-0.012 0.351,-0.024 0.523,-0.053 0.377,-0.042 0.43,-0.443 -0.068,-0.419 -0.103,0.003 -0.258,0.012 -0.462,0.025 0,0 0.007,0.447 0.007,0.447 z m 7.537,3.116 c 0,0 -0.615,-1.132 -0.615,-1.132 0,0 -1.398,0.223 -1.398,0.223 0,0 -0.291,1.275 -0.291,1.275 -0.767,0.122 -1.533,0.244 -2.3,0.366 0,0 1.706,-6.765 1.706,-6.765 0.618,-0.098 1.237,-0.197 1.856,-0.295 0,0 2.972,5.293 2.972,5.293 0,0 0.375,0.669 0.375,0.669 -0.767,0.122 -1.536,0.244 -2.305,0.366 z m 1.978,-2.074 c 0,0 1.489,-3.249 1.489,-3.249 0,0 -1.842,0.526 -1.842,0.526 -0.161,-0.638 -0.321,-1.275 -0.482,-1.913 0,0 4.846,-1.384 4.846,-1.384 0.128,0.51 0.257,1.02 0.385,1.529 0,0 -1.572,3.413 -1.572,3.413 0,0 2.149,-0.614 2.149,-0.614 0,0 -0.075,-0.203 -0.075,-0.203 0,0 1.961,-0.785 1.961,-0.785 0.242,0.653 0.482,1.306 0.723,1.958 -0.643,0.257 -1.284,0.515 -1.926,0.772 0,0 0.026,0.102 0.026,0.102 0,0 -5.265,1.504 -5.265,1.504 0,0 -0.417,-1.656 -0.417,-1.656 z"
         id="path42"
         style="fill:none"
         inkscape:connector-curvature="0" />
    </g>
    <g
       transform="matrix(1.9266364,0,0,1.9266364,247.13712,56.807241)"
       id="g44"
       style="fill:#feca00;fill-rule:evenodd;stroke:none">
      <path
         d="m 169.759,33.727 c 0,0 0.435,-0.919 0.435,-0.919 0,0 0.932,0.466 0.932,0.466 0,0 -0.434,0.918 -0.434,0.918 0,0 -0.933,-0.465 -0.933,-0.465 z m -2.431,-3.473 c 0,0 -0.014,-2.127 -0.014,-2.127 0,0 -1.363,1.579 -1.363,1.579 0,0 1.377,0.548 1.377,0.548 z m 1.15,2.719 c 0,0 -1.109,-0.442 -1.109,-0.442 0,0 -0.024,-1.307 -0.024,-1.307 0,0 -2.017,-0.803 -2.017,-0.803 0,0 -0.834,0.967 -0.834,0.967 0,0 -1.081,-0.43 -1.081,-0.43 0,0 3.803,-4.203 3.803,-4.203 0,0 1.078,0.429 1.078,0.429 0,0 0.184,5.789 0.184,5.789 z m -8.933,-6.224 c 0,0 0.782,0.207 0.782,0.207 0.506,0.134 0.828,0.197 0.965,0.189 0.134,-0.01 0.25,-0.058 0.347,-0.143 0.095,-0.085 0.161,-0.204 0.197,-0.36 0.041,-0.176 0.027,-0.329 -0.043,-0.461 -0.068,-0.132 -0.185,-0.236 -0.35,-0.31 -0.083,-0.033 -0.339,-0.107 -0.768,-0.221 0,0 -0.823,-0.217 -0.823,-0.217 0,0 -0.307,1.316 -0.307,1.316 z m -1.754,2.717 c 0,0 1.208,-5.193 1.208,-5.193 0,0 2.224,0.589 2.224,0.589 0.56,0.148 0.955,0.303 1.187,0.462 0.231,0.16 0.396,0.38 0.493,0.659 0.097,0.28 0.109,0.572 0.038,0.878 -0.091,0.39 -0.282,0.682 -0.571,0.875 -0.289,0.192 -0.673,0.261 -1.148,0.204 0.198,0.195 0.354,0.389 0.466,0.587 0.111,0.198 0.246,0.532 0.404,1.002 0,0 0.405,1.183 0.405,1.183 0,0 -1.264,-0.335 -1.264,-0.335 0,0 -0.501,-1.332 -0.501,-1.332 -0.178,-0.477 -0.305,-0.779 -0.38,-0.911 -0.075,-0.131 -0.165,-0.231 -0.268,-0.301 -0.103,-0.067 -0.275,-0.134 -0.519,-0.198 0,0 -0.213,-0.057 -0.213,-0.057 0,0 -0.505,2.168 -0.505,2.168 0,0 -1.056,-0.28 -1.056,-0.28 z m -4.819,-3.873 c 0,0 0.797,0.11 0.797,0.11 0.518,0.072 0.843,0.096 0.978,0.07 0.131,-0.025 0.241,-0.086 0.325,-0.183 0.084,-0.097 0.135,-0.224 0.151,-0.384 0.02,-0.18 -0.014,-0.33 -0.098,-0.454 -0.084,-0.123 -0.212,-0.212 -0.384,-0.266 -0.086,-0.023 -0.348,-0.066 -0.786,-0.127 0,0 -0.84,-0.116 -0.84,-0.116 0,0 -0.143,1.35 -0.143,1.35 z m -1.404,2.923 c 0,0 0.561,-5.324 0.561,-5.324 0,0 2.272,0.315 2.272,0.315 0.571,0.08 0.98,0.185 1.228,0.316 0.249,0.132 0.439,0.33 0.569,0.596 0.13,0.268 0.177,0.557 0.144,0.872 -0.043,0.398 -0.195,0.713 -0.458,0.94 -0.262,0.227 -0.633,0.343 -1.109,0.345 0.22,0.169 0.396,0.344 0.531,0.528 0.135,0.183 0.309,0.499 0.523,0.949 0,0 0.543,1.129 0.543,1.129 0,0 -1.289,-0.179 -1.289,-0.179 0,0 -0.659,-1.267 -0.659,-1.267 -0.233,-0.453 -0.395,-0.739 -0.486,-0.861 -0.09,-0.122 -0.19,-0.21 -0.301,-0.268 -0.11,-0.054 -0.288,-0.099 -0.537,-0.134 0,0 -0.218,-0.031 -0.218,-0.031 0,0 -0.234,2.223 -0.234,2.223 0,0 -1.08,-0.149 -1.08,-0.149 z m -5.894,-0.323 c 0,0 0.094,-5.367 0.094,-5.367 0,0 3.982,0.203 3.982,0.203 0,0 -0.016,0.909 -0.016,0.909 0,0 -2.897,-0.148 -2.897,-0.148 0,0 -0.021,1.189 -0.021,1.189 0,0 2.696,0.138 2.696,0.138 0,0 -0.015,0.904 -0.015,0.904 0,0 -2.697,-0.138 -2.697,-0.138 0,0 -0.025,1.461 -0.025,1.461 0,0 3,0.154 3,0.154 0,0 -0.017,0.904 -0.017,0.904 0,0 -4.084,-0.209 -4.084,-0.209 z m -6.596,-5.324 c 0,0 1.083,-0.02 1.083,-0.02 0,0 0.151,2.91 0.151,2.91 0.024,0.462 0.055,0.762 0.088,0.897 0.058,0.22 0.178,0.395 0.358,0.524 0.182,0.131 0.424,0.192 0.727,0.186 0.307,-0.005 0.536,-0.072 0.685,-0.202 0.15,-0.127 0.236,-0.284 0.257,-0.468 0.023,-0.184 0.022,-0.488 0,-0.914 0,0 -0.156,-2.972 -0.156,-2.972 0,0 1.083,-0.021 1.083,-0.021 0,0 0.147,2.823 0.147,2.823 0.035,0.646 0.03,1.102 -0.015,1.369 -0.045,0.268 -0.141,0.494 -0.288,0.68 -0.149,0.186 -0.352,0.337 -0.609,0.45 -0.257,0.114 -0.599,0.174 -1.024,0.182 -0.512,0.01 -0.903,-0.042 -1.174,-0.155 -0.271,-0.115 -0.488,-0.265 -0.651,-0.451 -0.163,-0.186 -0.276,-0.383 -0.335,-0.589 -0.087,-0.307 -0.146,-0.761 -0.177,-1.363 0,0 -0.15,-2.866 -0.15,-2.866 z m -4.045,3.5 c 0,0 -0.048,-0.906 -0.048,-0.906 0,0 2.335,-0.043 2.335,-0.043 0,0 0.111,2.141 0.111,2.141 -0.216,0.224 -0.534,0.423 -0.956,0.599 -0.422,0.175 -0.853,0.267 -1.294,0.275 -0.561,0.01 -1.056,-0.098 -1.486,-0.326 -0.43,-0.228 -0.761,-0.558 -0.993,-0.994 -0.234,-0.435 -0.363,-0.91 -0.39,-1.426 -0.029,-0.559 0.062,-1.059 0.272,-1.499 0.213,-0.438 0.538,-0.779 0.977,-1.019 0.335,-0.185 0.759,-0.281 1.271,-0.291 0.666,-0.013 1.193,0.118 1.582,0.39 0.388,0.273 0.65,0.655 0.783,1.147 0,0 -1.065,0.222 -1.065,0.222 -0.09,-0.263 -0.243,-0.469 -0.46,-0.618 -0.216,-0.149 -0.48,-0.22 -0.793,-0.214 -0.472,0.008 -0.84,0.166 -1.105,0.471 -0.264,0.307 -0.379,0.755 -0.348,1.347 0.033,0.637 0.199,1.113 0.5,1.427 0.299,0.314 0.678,0.466 1.136,0.457 0.228,-0.004 0.452,-0.053 0.677,-0.147 0.222,-0.092 0.413,-0.205 0.569,-0.335 0,0 -0.035,-0.681 -0.035,-0.681 0,0 -1.24,0.023 -1.24,0.023 z m -10.778,1.301 c 0,0 0.562,-5.323 0.562,-5.323 0,0 1.05,0.145 1.05,0.145 0,0 1.811,3.859 1.811,3.859 0,0 0.375,-3.555 0.375,-3.555 0,0 1.003,0.14 1.003,0.14 0,0 -0.561,5.322 -0.561,5.322 0,0 -1.083,-0.151 -1.083,-0.151 0,0 -1.787,-3.769 -1.787,-3.769 0,0 -0.367,3.471 -0.367,3.471 0,0 -1.003,-0.139 -1.003,-0.139 z m -5.764,-1.33 c 0,0 1.208,-5.194 1.208,-5.194 0,0 3.881,1.027 3.881,1.027 0,0 -0.205,0.879 -0.205,0.879 0,0 -2.824,-0.747 -2.824,-0.747 0,0 -0.267,1.151 -0.267,1.151 0,0 2.627,0.695 2.627,0.695 0,0 -0.203,0.874 -0.203,0.874 0,0 -2.628,-0.695 -2.628,-0.695 0,0 -0.329,1.414 -0.329,1.414 0,0 2.923,0.773 2.923,0.773 0,0 -0.203,0.876 -0.203,0.876 0,0 -3.98,-1.053 -3.98,-1.053 z M 68.008,5.463 c 0,0 0,-5.371 0,-5.371 0,0 3.683,0 3.683,0 0,0 0,0.908 0,0.908 0,0 -2.598,0 -2.598,0 0,0 0,1.271 0,1.271 0,0 2.242,0 2.242,0 0,0 0,0.91 0,0.91 0,0 -2.242,0 -2.242,0 0,0 0,2.282 0,2.282 0,0 -1.085,0 -1.085,0 z m 5.565,0 c 0,0 0,-5.371 0,-5.371 0,0 1.084,0 1.084,0 0,0 0,5.371 0,5.371 0,0 -1.084,0 -1.084,0 z m 3.139,0 c 0,0 0,-5.371 0,-5.371 0,0 3.982,0 3.982,0 0,0 0,0.908 0,0.908 0,0 -2.898,0 -2.898,0 0,0 0,1.191 0,1.191 0,0 2.697,0 2.697,0 0,0 0,0.905 0,0.905 0,0 -2.697,0 -2.697,0 0,0 0,1.462 0,1.462 0,0 3,0 3,0 0,0 0,0.905 0,0.905 0,0 -4.084,0 -4.084,0 z m 6.029,0 c 0,0 0,-5.371 0,-5.371 0,0 2.283,0 2.283,0 0.575,0 0.991,0.048 1.251,0.144 0.261,0.097 0.47,0.268 0.625,0.514 0.157,0.248 0.234,0.529 0.234,0.847 0,0.403 -0.119,0.737 -0.355,1 -0.237,0.26 -0.591,0.427 -1.063,0.495 0.236,0.137 0.429,0.287 0.581,0.451 0.154,0.164 0.358,0.454 0.618,0.872 0,0 0.656,1.048 0.656,1.048 0,0 -1.297,0 -1.297,0 0,0 -0.784,-1.17 -0.784,-1.17 C 85.21,3.876 85.021,3.613 84.918,3.504 84.816,3.396 84.707,3.321 84.591,3.28 84.477,3.24 84.295,3.221 84.045,3.221 c 0,0 -0.218,0 -0.218,0 0,0 0,2.242 0,2.242 0,0 -1.086,0 -1.086,0 z m 1.086,-3.101 c 0,0 0.801,0 0.801,0 0.52,0 0.845,-0.021 0.976,-0.065 0.128,-0.043 0.229,-0.119 0.304,-0.228 0.072,-0.107 0.109,-0.241 0.109,-0.402 0,-0.182 -0.049,-0.326 -0.144,-0.438 C 85.776,1.118 85.64,1.048 85.463,1.018 85.375,1.007 85.112,1 84.671,1 c 0,0 -0.844,0 -0.844,0 0,0 0,1.362 0,1.362 z m 5.354,3.101 c 0,0 0,-5.371 0,-5.371 0,0 2.283,0 2.283,0 0.575,0 0.992,0.048 1.251,0.144 0.26,0.097 0.469,0.268 0.625,0.514 0.157,0.248 0.235,0.529 0.235,0.847 0,0.403 -0.119,0.737 -0.356,1 -0.236,0.26 -0.592,0.427 -1.063,0.495 0.235,0.137 0.429,0.287 0.582,0.451 0.152,0.164 0.357,0.454 0.616,0.872 0,0 0.657,1.048 0.657,1.048 0,0 -1.297,0 -1.297,0 0,0 -0.785,-1.17 -0.785,-1.17 C 91.651,3.876 91.46,3.613 91.358,3.504 91.255,3.396 91.147,3.321 91.032,3.28 90.917,3.24 90.736,3.221 90.485,3.221 c 0,0 -0.219,0 -0.219,0 0,0 0,2.242 0,2.242 0,0 -1.085,0 -1.085,0 z m 1.085,-3.101 c 0,0 0.802,0 0.802,0 0.52,0 0.846,-0.021 0.975,-0.065 0.129,-0.043 0.231,-0.119 0.304,-0.228 0.073,-0.107 0.111,-0.241 0.111,-0.402 0,-0.182 -0.049,-0.326 -0.146,-0.438 C 92.216,1.118 92.08,1.048 91.904,1.018 91.816,1.007 91.552,1 91.112,1 c 0,0 -0.846,0 -0.846,0 0,0 0,1.362 0,1.362 z m 5.132,0.449 c 0,-0.548 0.081,-1.007 0.245,-1.379 C 95.766,1.159 95.932,0.913 96.144,0.695 96.355,0.479 96.586,0.317 96.837,0.213 97.172,0.07 97.558,0 97.996,0 c 0.792,0 1.424,0.245 1.9,0.736 0.475,0.491 0.713,1.173 0.713,2.048 0,0.868 -0.237,1.546 -0.708,2.036 -0.472,0.49 -1.103,0.734 -1.89,0.734 -0.8,0 -1.434,-0.243 -1.906,-0.73 -0.472,-0.488 -0.707,-1.16 -0.707,-2.013 z m 1.117,-0.038 c 0,0.609 0.142,1.07 0.421,1.384 0.282,0.314 0.639,0.47 1.071,0.47 0.432,0 0.786,-0.154 1.065,-0.468 0.276,-0.311 0.415,-0.777 0.415,-1.4 0,-0.615 -0.136,-1.074 -0.404,-1.378 -0.271,-0.303 -0.629,-0.454 -1.076,-0.454 -0.448,0 -0.808,0.154 -1.082,0.46 -0.272,0.306 -0.41,0.768 -0.41,1.386 z M 0.182,30.084 C 0.04,29.56 0,29.097 0.062,28.693 0.11,28.396 0.207,28.112 0.354,27.842 c 0.148,-0.27 0.33,-0.491 0.546,-0.666 0.287,-0.235 0.641,-0.415 1.063,-0.544 0.765,-0.233 1.44,-0.184 2.026,0.146 0.587,0.329 0.993,0.912 1.219,1.749 0.224,0.83 0.171,1.548 -0.157,2.156 C 4.722,31.289 4.177,31.709 3.416,31.94 2.644,32.176 1.967,32.129 1.385,31.802 0.804,31.474 0.403,30.9 0.182,30.084 z m 1.069,-0.363 c 0.158,0.581 0.414,0.981 0.765,1.199 0.354,0.218 0.738,0.262 1.156,0.135 0.417,-0.126 0.72,-0.379 0.908,-0.76 0.186,-0.379 0.199,-0.866 0.038,-1.462 -0.16,-0.588 -0.409,-0.988 -0.747,-1.199 -0.339,-0.211 -0.725,-0.25 -1.157,-0.118 -0.432,0.13 -0.74,0.383 -0.925,0.757 -0.185,0.373 -0.198,0.855 -0.038,1.448 z m 6.625,0.843 c 0,0 -0.839,-5.275 -0.839,-5.275 0,0 2.255,-0.438 2.255,-0.438 0.567,-0.111 0.986,-0.143 1.257,-0.099 0.273,0.045 0.506,0.173 0.699,0.385 0.193,0.213 0.314,0.474 0.364,0.786 0.062,0.396 -0.003,0.747 -0.195,1.05 -0.193,0.302 -0.517,0.534 -0.973,0.691 0.255,0.09 0.469,0.199 0.645,0.331 0.176,0.132 0.424,0.377 0.745,0.737 0,0 0.813,0.904 0.813,0.904 0,0 -1.281,0.249 -1.281,0.249 0,0 -0.957,-0.997 -0.957,-0.997 C 10.068,28.531 9.839,28.31 9.72,28.222 9.602,28.136 9.484,28.084 9.364,28.065 c -0.12,-0.017 -0.303,-0.002 -0.55,0.046 0,0 -0.216,0.042 -0.216,0.042 0,0 0.351,2.202 0.351,2.202 0,0 -1.073,0.209 -1.073,0.209 z m 0.587,-3.252 c 0,0 0.792,-0.155 0.792,-0.155 0.514,-0.1 0.832,-0.183 0.954,-0.252 0.121,-0.067 0.208,-0.162 0.264,-0.281 0.055,-0.12 0.071,-0.259 0.046,-0.417 -0.028,-0.179 -0.099,-0.311 -0.212,-0.402 -0.112,-0.091 -0.258,-0.133 -0.436,-0.129 -0.089,0.006 -0.35,0.051 -0.785,0.135 0,0 -0.836,0.163 -0.836,0.163 0,0 0.213,1.338 0.213,1.338 z m 5.675,-0.534 c -0.038,-0.545 0.011,-1.009 0.149,-1.397 0.103,-0.284 0.252,-0.547 0.448,-0.786 0.195,-0.238 0.415,-0.422 0.658,-0.554 0.324,-0.177 0.704,-0.288 1.141,-0.334 0.79,-0.084 1.438,0.093 1.946,0.531 0.509,0.438 0.793,1.092 0.854,1.962 0.061,0.863 -0.127,1.564 -0.564,2.101 -0.437,0.537 -1.048,0.847 -1.834,0.93 -0.797,0.085 -1.448,-0.089 -1.952,-0.524 -0.505,-0.436 -0.786,-1.078 -0.846,-1.929 z m 1.112,-0.154 c 0.042,0.605 0.215,1.049 0.517,1.332 0.303,0.282 0.669,0.399 1.101,0.355 0.43,-0.046 0.774,-0.239 1.029,-0.579 0.254,-0.339 0.36,-0.818 0.316,-1.438 -0.043,-0.612 -0.21,-1.054 -0.499,-1.328 -0.291,-0.273 -0.659,-0.385 -1.105,-0.338 -0.446,0.048 -0.794,0.239 -1.046,0.572 -0.251,0.334 -0.356,0.808 -0.313,1.424 z m 8.385,2.028 c 0,0 0,-5.371 0,-5.371 0,0 3.983,-0.144 3.983,-0.144 0,0 0,0.909 0,0.909 0,0 -2.898,0.105 -2.898,0.105 0,0 0,1.191 0,1.191 0,0 2.697,-0.098 2.697,-0.098 0,0 0,0.904 0,0.904 0,0 -2.697,0.098 -2.697,0.098 0,0 0,1.462 0,1.462 0,0 3,-0.109 3,-0.109 0,0 0,0.906 0,0.906 0,0 -4.085,0.147 -4.085,0.147 z m 6.26,-0.226 c 0,0 0,-5.372 0,-5.372 0,0 1.056,-0.038 1.056,-0.038 0,0 2.198,3.506 2.198,3.506 0,0 0,-3.586 0,-3.586 0,0 1.009,-0.037 1.009,-0.037 0,0 0,5.372 0,5.372 0,0 -1.09,0.04 -1.09,0.04 0,0 -2.165,-3.425 -2.165,-3.425 0,0 0,3.503 0,3.503 0,0 -1.008,0.037 -1.008,0.037 z m 8.738,-0.412 c 0,0 -0.187,-5.361 -0.187,-5.361 0,0 1.738,-0.124 1.738,-0.124 0.658,-0.047 1.09,-0.05 1.292,-0.01 0.31,0.057 0.575,0.213 0.792,0.468 0.217,0.255 0.332,0.596 0.348,1.022 0.01,0.33 -0.039,0.611 -0.152,0.843 -0.112,0.233 -0.256,0.419 -0.437,0.561 -0.18,0.141 -0.364,0.239 -0.553,0.294 -0.257,0.069 -0.631,0.122 -1.122,0.157 0,0 -0.706,0.051 -0.706,0.051 0,0 0.07,2.022 0.07,2.022 0,0 -1.083,0.077 -1.083,0.077 z m 0.928,-4.531 c 0,0 0.053,1.52 0.053,1.52 0,0 0.593,-0.042 0.593,-0.042 0.427,-0.03 0.712,-0.078 0.854,-0.145 0.142,-0.066 0.251,-0.161 0.329,-0.287 0.077,-0.126 0.114,-0.267 0.109,-0.425 -0.007,-0.196 -0.071,-0.352 -0.19,-0.471 -0.118,-0.118 -0.267,-0.188 -0.443,-0.206 -0.131,-0.017 -0.392,-0.009 -0.782,0.018 0,0 -0.523,0.038 -0.523,0.038 z m 9.569,3.288 c 0,0 -1.172,0.186 -1.172,0.186 0,0 -0.615,-1.133 -0.615,-1.133 0,0 -2.131,0.34 -2.131,0.34 0,0 -0.291,1.275 -0.291,1.275 0,0 -1.141,0.182 -1.141,0.182 0,0 1.422,-5.638 1.422,-5.638 0,0 1.138,-0.181 1.138,-0.181 0,0 2.79,4.969 2.79,4.969 z m -2.242,-1.785 c 0,0 -0.977,-1.853 -0.977,-1.853 0,0 -0.477,2.085 -0.477,2.085 0,0 1.454,-0.232 1.454,-0.232 z m 3.558,1.474 c 0,0 -0.237,-0.94 -0.237,-0.94 0,0 1.895,-4.133 1.895,-4.133 0,0 -2.428,0.693 -2.428,0.693 0,0 -0.219,-0.873 -0.219,-0.873 0,0 3.814,-1.09 3.814,-1.09 0,0 0.204,0.811 0.204,0.811 0,0 -1.978,4.299 -1.978,4.299 0,0 2.965,-0.847 2.965,-0.847 0,0 0.219,0.87 0.219,0.87 0,0 -4.235,1.21 -4.235,1.21 z m 5.132,-1.627 c 0,0 -0.353,-0.955 -0.353,-0.955 0,0 0.967,-0.387 0.967,-0.387 0,0 0.352,0.954 0.352,0.954 0,0 -0.966,0.388 -0.966,0.388 z"
         id="path46"
         inkscape:connector-curvature="0" />
    </g>
    <g
       transform="matrix(1.9266364,0,0,1.9266364,405.31204,-152.08233)"
       id="g48"
       style="fill:#161413;fill-rule:nonzero;stroke:none">
      <path
         d="m 0,0 c 0,0 1.242,2.1983 1.242,2.1983 0,0 6.212,-0.1914 6.212,-0.1914 C 7.454,2.0069 0,0 0,0 z"
         id="path50"
         inkscape:connector-curvature="0" />
    </g>
    <g
       transform="matrix(1.9266364,0,0,1.9266364,405.31204,-152.08233)"
       id="g52"
       style="fill:none;stroke:#161413;stroke-width:0.21600001;stroke-linecap:butt;stroke-linejoin:miter;stroke-dasharray:none">
      <path
         d="m 0,0 c 0,0 1.242,2.1983 1.242,2.1983 0,0 6.212,-0.1914 6.212,-0.1914 C 7.454,2.0069 0,0 0,0 z"
         id="path54"
         inkscape:connector-curvature="0" />
    </g>
    <g
       transform="matrix(1.9266364,0,0,1.9266364,116.58401,165.86835)"
       id="g56"
       style="fill:#092782;fill-rule:evenodd;stroke:none">
      <path
         d="m 0,18.582 c 0,0 5.1846,0 5.1846,0 0.0234,1.05 0.4257,2.004 1.206,2.874 0.7793,0.871 2.2022,1.302 4.2656,1.302 3.6065,0 5.4063,-1.116 5.4063,-3.347 0,-0.918 -0.3721,-1.584 -1.1104,-1.998 -0.7373,-0.415 -1.9316,-0.823 -3.5761,-1.212 0,0 -2.7715,-0.643 -2.7715,-0.643 C 6.75,15.121 5.2861,14.688 4.2119,14.256 3.1387,13.825 2.2324,13.104 1.5,12.108 0.7627,11.106 0.3965,9.726 0.3965,7.956 0.3965,6.756 0.6728,5.562 1.2187,4.369 1.7646,3.174 2.7783,2.149 4.2598,1.29 5.7422,0.432 7.7646,0 10.332,0 c 1.878,0 3.4746,0.264 4.7881,0.798 1.3145,0.534 2.3584,1.231 3.1318,2.082 0.7686,0.859 1.3204,1.758 1.6504,2.718 0.336,0.954 0.5039,1.872 0.5157,2.754 0,0 -5.1895,0 -5.1895,0 C 15.1562,7.758 15,7.182 14.7539,6.624 14.5088,6.073 13.998,5.575 13.2363,5.124 12.4678,4.68 11.3701,4.458 9.9307,4.458 8.7246,4.458 7.6738,4.71 6.7744,5.208 5.8799,5.706 5.4307,6.487 5.4307,7.554 c 0,0.888 0.2519,1.513 0.7617,1.872 0.5039,0.361 1.164,0.636 1.9795,0.834 0,0 6.3007,1.548 6.3007,1.548 2.1358,0.522 3.7979,1.284 4.9854,2.28 1.1943,1.002 1.7881,2.556 1.7881,4.662 0,1.812 -0.3897,3.294 -1.1699,4.453 -0.7803,1.151 -1.7276,2.015 -2.8496,2.58 -1.1163,0.569 -2.2198,0.948 -3.3125,1.145 -1.086,0.193 -2.0401,0.288 -2.8614,0.288 -2.208,0 -4.0566,-0.282 -5.5439,-0.84 C 4.0264,25.819 2.8867,25.098 2.1006,24.222 1.3086,23.34 0.7627,22.416 0.456,21.445 0.1504,20.472 0,19.518 0,18.582 z m 30.8164,2.617 c 0,0 -1.7998,5.334 -1.7998,5.334 0,0 -5.6885,0 -5.6885,0 0,0 9.21,-25.849 9.21,-25.849 0,0 6.2344,0 6.2344,0 0,0 9.1017,25.849 9.1017,25.849 0,0 -5.862,0 -5.862,0 0,0 -1.662,-5.334 -1.662,-5.334 0,0 -9.5338,0 -9.5338,0 z M 35.5683,6.522 c 0,0 -3.3125,10.219 -3.3125,10.219 0,0 6.5831,0 6.5831,0 0,0 -3.1983,-10.219 -3.1983,-10.219 0,0 -0.0723,0 -0.0723,0 z m 31.5419,12.162 c 0,0 0,-18 0,-18 0,0 5.034,0 5.034,0 0,0 0,25.849 0,25.849 0,0 -5.394,0 -5.394,0 0,0 -10.554,-18.433 -10.554,-18.433 0,0 -0.072,0 -0.072,0 0,0 0,18.433 0,18.433 0,0 -5.034,0 -5.034,0 0,0 0,-25.849 0,-25.849 0,0 5.682,0 5.682,0 0,0 10.266,18 10.266,18 0,0 0.072,0 0.072,0 z m 33.6118,-3.023 c 0,0 0,10.872 0,10.872 0,0 -5.3938,0 -5.3938,0 0,0 0,-25.849 0,-25.849 0,0 18.3958,0 18.3958,0 0,0 0,4.566 0,4.566 0,0 -13.002,0 -13.002,0 0,0 0,5.844 0,5.844 0,0 11.382,0 11.382,0 0,0 0,4.567 0,4.567 0,0 -11.382,0 -11.382,0 z m 16.608,10.872 c 0,0 0,-25.849 0,-25.849 0,0 13.068,0 13.068,0 2.082,0 3.739,0.421 4.95,1.255 1.218,0.834 2.052,1.811 2.502,2.928 0.456,1.122 0.684,2.166 0.684,3.131 0,1.447 -0.354,2.73 -1.056,3.846 -0.708,1.116 -1.686,1.884 -2.94,2.305 0.81,0.353 1.434,0.725 1.884,1.127 0.45,0.396 0.792,1.009 1.032,1.837 0.24,0.827 0.36,2.021 0.36,3.582 0,1.469 0.018,2.502 0.054,3.101 0.036,0.601 0.126,1.056 0.282,1.368 0.156,0.312 0.426,0.541 0.816,0.684 0,0 0,0.685 0,0.685 0,0 -5.976,0 -5.976,0 -0.378,-1.29 -0.57,-3.031 -0.57,-5.221 0,-1.332 -0.077,-2.321 -0.24,-2.97 -0.162,-0.654 -0.54,-1.134 -1.134,-1.452 -0.588,-0.317 -1.542,-0.474 -2.844,-0.474 0,0 -5.586,0 -5.586,0 0,0 0,10.117 0,10.117 0,0 -5.286,0 -5.286,0 z m 5.286,-14.473 c 0,0 6.342,0 6.342,0 1.429,0 2.484,-0.275 3.156,-0.821 0.678,-0.553 1.021,-1.452 1.021,-2.706 0,-0.901 -0.277,-1.687 -0.829,-2.37 -0.552,-0.679 -1.536,-1.021 -2.958,-1.021 0,0 -6.732,0 -6.732,0 0,0 0,6.918 0,6.918 z m 26.178,9.139 c 0,0 -1.8,5.334 -1.8,5.334 0,0 -5.688,0 -5.688,0 0,0 9.21,-25.849 9.21,-25.849 0,0 6.234,0 6.234,0 0,0 9.102,25.849 9.102,25.849 0,0 -5.862,0 -5.862,0 0,0 -1.662,-5.334 -1.662,-5.334 0,0 -9.534,0 -9.534,0 z m 4.752,-14.677 c 0,0 -3.312,10.219 -3.312,10.219 0,0 6.582,0 6.582,0 0,0 -3.198,-10.219 -3.198,-10.219 0,0 -0.072,0 -0.072,0 z m 31.542,12.162 c 0,0 0,-18 0,-18 0,0 5.034,0 5.034,0 0,0 0,25.849 0,25.849 0,0 -5.394,0 -5.394,0 0,0 -10.554,-18.433 -10.554,-18.433 0,0 -0.072,0 -0.072,0 0,0 0,18.433 0,18.433 0,0 -5.034,0 -5.034,0 0,0 0,-25.849 0,-25.849 0,0 5.682,0 5.682,0 0,0 10.266,18 10.266,18 0,0 0.072,0 0.072,0 z M 217.2,9.144 c 0,0 -5.406,0 -5.406,0 -0.342,-1.248 -0.894,-2.31 -1.661,-3.174 -0.769,-0.863 -2.124,-1.296 -4.063,-1.296 -1.662,0 -3.149,0.691 -4.452,2.071 -1.302,1.374 -1.956,3.702 -1.956,6.971 0,1.626 0.222,3.109 0.672,4.441 0.45,1.332 1.152,2.399 2.112,3.191 0.954,0.798 2.166,1.194 3.624,1.194 1.002,0 1.897,-0.185 2.676,-0.551 0.786,-0.372 1.434,-0.924 1.956,-1.662 0.522,-0.733 0.888,-1.621 1.092,-2.653 0,0 5.406,0 5.406,0 -0.372,1.908 -1.032,3.582 -1.98,5.01 -0.954,1.435 -2.208,2.545 -3.762,3.343 -1.56,0.792 -3.39,1.187 -5.49,1.187 -2.316,0 -4.368,-0.515 -6.15,-1.553 -1.782,-1.033 -3.174,-2.575 -4.17,-4.621 -0.996,-2.045 -1.494,-4.511 -1.494,-7.391 0,-2.923 0.516,-5.406 1.554,-7.465 1.032,-2.058 2.448,-3.6 4.254,-4.632 C 201.762,0.516 203.79,0 206.04,0 c 1.83,0 3.45,0.283 4.854,0.846 1.404,0.559 2.55,1.296 3.451,2.208 0.893,0.906 1.578,1.891 2.04,2.952 0.467,1.056 0.737,2.1 0.815,3.138 z m 9.061,-8.46 c 0,0 0,25.849 0,25.849 0,0 -5.395,0 -5.395,0 0,0 0,-25.849 0,-25.849 0,0 5.395,0 5.395,0 z m 3.713,17.898 c 0,0 5.184,0 5.184,0 0.024,1.05 0.426,2.004 1.206,2.874 0.78,0.871 2.202,1.302 4.266,1.302 3.606,0 5.406,-1.116 5.406,-3.347 0,-0.918 -0.372,-1.584 -1.11,-1.998 -0.738,-0.415 -1.932,-0.823 -3.576,-1.212 0,0 -2.772,-0.643 -2.772,-0.643 -1.854,-0.437 -3.317,-0.87 -4.392,-1.302 -1.074,-0.431 -1.98,-1.152 -2.712,-2.148 -0.738,-1.002 -1.104,-2.382 -1.104,-4.152 0,-1.2 0.276,-2.394 0.822,-3.587 0.546,-1.195 1.56,-2.22 3.042,-3.079 1.483,-0.858 3.504,-1.29 6.072,-1.29 1.878,0 3.474,0.264 4.789,0.798 1.313,0.534 2.357,1.231 3.131,2.082 0.768,0.859 1.321,1.758 1.65,2.718 0.336,0.954 0.504,1.872 0.516,2.754 0,0 -5.19,0 -5.19,0 -0.072,-0.594 -0.228,-1.17 -0.474,-1.728 -0.246,-0.551 -0.756,-1.049 -1.518,-1.5 -0.768,-0.444 -1.865,-0.666 -3.306,-0.666 -1.206,0 -2.256,0.252 -3.156,0.75 -0.894,0.498 -1.344,1.279 -1.344,2.346 0,0.888 0.252,1.513 0.762,1.872 0.504,0.361 1.164,0.636 1.98,0.834 0,0 6.3,1.548 6.3,1.548 2.136,0.522 3.798,1.284 4.986,2.28 1.194,1.002 1.788,2.556 1.788,4.662 0,1.812 -0.39,3.294 -1.169,4.453 -0.781,1.151 -1.729,2.015 -2.851,2.58 -1.116,0.569 -2.22,0.948 -3.312,1.145 -1.086,0.193 -2.04,0.288 -2.862,0.288 -2.208,0 -4.056,-0.282 -5.544,-0.84 -1.482,-0.557 -2.622,-1.278 -3.408,-2.154 -0.792,-0.882 -1.338,-1.806 -1.644,-2.777 -0.306,-0.973 -0.456,-1.927 -0.456,-2.863 z m 47.238,-9.438 c 0,0 -5.406,0 -5.406,0 -0.341,-1.248 -0.894,-2.31 -1.662,-3.174 -0.768,-0.863 -2.124,-1.296 -4.062,-1.296 -1.662,0 -3.15,0.691 -4.452,2.071 -1.302,1.374 -1.956,3.702 -1.956,6.971 0,1.626 0.222,3.109 0.672,4.441 0.45,1.332 1.152,2.399 2.112,3.191 0.954,0.798 2.166,1.194 3.624,1.194 1.002,0 1.896,-0.185 2.676,-0.551 0.786,-0.372 1.434,-0.924 1.957,-1.662 0.521,-0.733 0.887,-1.621 1.091,-2.653 0,0 5.406,0 5.406,0 -0.371,1.908 -1.032,3.582 -1.98,5.01 -0.954,1.435 -2.208,2.545 -3.762,3.343 -1.56,0.792 -3.39,1.187 -5.49,1.187 -2.316,0 -4.368,-0.515 -6.15,-1.553 -1.781,-1.033 -3.174,-2.575 -4.17,-4.621 -0.996,-2.045 -1.494,-4.511 -1.494,-7.391 0,-2.923 0.516,-5.406 1.554,-7.465 1.032,-2.058 2.448,-3.6 4.254,-4.632 1.8,-1.038 3.829,-1.554 6.079,-1.554 1.829,0 3.449,0.283 4.853,0.846 1.404,0.559 2.55,1.296 3.45,2.208 0.894,0.906 1.578,1.891 2.04,2.952 0.468,1.056 0.739,2.1 0.816,3.138 z m 2.946,4.471 c 0,-2.832 0.444,-5.166 1.338,-7.009 0.894,-1.842 2.016,-3.239 3.354,-4.188 1.344,-0.948 2.682,-1.589 4.014,-1.92 1.338,-0.33 2.574,-0.498 3.714,-0.498 1.146,0 2.382,0.168 3.708,0.498 1.326,0.331 2.664,0.966 4.002,1.909 1.345,0.947 2.467,2.34 3.36,4.187 0.894,1.848 1.344,4.189 1.344,7.021 0,2.819 -0.45,5.159 -1.344,7.007 -0.893,1.848 -2.022,3.247 -3.372,4.188 -1.35,0.948 -2.694,1.584 -4.026,1.914 -1.338,0.33 -2.562,0.492 -3.672,0.492 -1.11,0 -2.334,-0.168 -3.678,-0.498 -1.338,-0.33 -2.688,-0.971 -4.038,-1.92 -1.35,-0.948 -2.472,-2.345 -3.366,-4.188 -0.894,-1.842 -1.338,-4.176 -1.338,-6.995 z m 5.395,0 c 0,1.71 0.215,3.156 0.647,4.343 0.433,1.182 0.996,2.119 1.692,2.802 0.696,0.685 1.453,1.17 2.262,1.458 0.81,0.288 1.614,0.433 2.418,0.433 0.81,0 1.614,-0.145 2.424,-0.427 0.805,-0.282 1.56,-0.773 2.256,-1.458 0.702,-0.689 1.266,-1.626 1.698,-2.808 0.432,-1.187 0.648,-2.633 0.648,-4.343 0,-1.717 -0.216,-3.168 -0.648,-4.357 -0.432,-1.187 -0.996,-2.124 -1.691,-2.807 -0.697,-0.691 -1.453,-1.177 -2.263,-1.458 -0.81,-0.283 -1.614,-0.426 -2.424,-0.426 -0.804,0 -1.614,0.143 -2.424,0.431 -0.81,0.289 -1.566,0.768 -2.261,1.453 -0.697,0.683 -1.254,1.62 -1.687,2.807 -0.432,1.189 -0.647,2.64 -0.647,4.357 z"
         id="path58"
         inkscape:connector-curvature="0" />
    </g>
  </g>
</svg>
