<?xml version="1.0" encoding="UTF-8" standalone="no"?>
<!-- Created with Inkscape (http://www.inkscape.org/) -->
<svg
   xmlns:svg="http://www.w3.org/2000/svg"
   xmlns="http://www.w3.org/2000/svg"
   version="1.0"
   width="324"
   height="216"
   id="svg1923">
  <defs
      id="defs1926" />
  <rect x="0" y="0" width="324" height="216" fill="#FFFFFF"/>
  <rect x="0" y="108" width="324" height="108" fill="#FFFF00"/>
  <path
     d="M 0,107.5 L 0,72 L 162,72 L 324,72 L 324,107.5 L 324,143 L 162,143 L 0,143 L 0,107.5 z M 35,45.478561 C 35,30.959447 34.9996,30.95694 32.5,29.818046 C 30.142799,28.744034 30,28.231182 30,20.839485 L 30,13 L 33.433578,13 C 36.435924,13 36.906896,13.345379 37.183578,15.75 C 37.434677,17.932287 38.016102,18.5 40,18.5 C 41.983898,18.5 42.565323,17.932287 42.816422,15.75 C 43.062242,13.613603 43.661024,13 45.5,13 C 47.338976,13 47.937758,13.613603 48.183578,15.75 C 48.434677,17.932287 49.016102,18.5 51,18.5 C 52.983898,18.5 53.565323,17.932287 53.816422,15.75 C 54.062242,13.613603 54.661024,13 56.5,13 C 58.338976,13 58.937758,13.613603 59.183578,15.75 C 59.434677,17.932287 60.016102,18.5 62,18.5 C 63.983898,18.5 64.565323,17.932287 64.816422,15.75 C 65.093104,13.345379 65.564076,13 68.566422,13 L 72,13 L 72,20.839485 C 72,28.231182 71.857201,28.744034 69.5,29.818046 C 67.0004,30.95694 67,30.959447 67,45.478561 L 67,60 L 61.063358,60 L 55.126717,60 L 54.813358,56.75 C 54.525268,53.762068 54.217773,53.5 51,53.5 C 47.782227,53.5 47.474732,53.762068 47.186642,56.75 L 46.873283,60 L 40.936642,60 L 35,60 L 35,45.478561 z M 64.816422,48.25 C 64.565323,46.067713 63.983898,45.5 62,45.5 C 60.016102,45.5 59.434677,46.067713 59.183578,48.25 C 58.897976,50.732137 59.172309,51 62,51 C 64.827691,51 65.102024,50.732137 64.816422,48.25 z M 53.816422,40.25 C 53.565323,38.067713 52.983898,37.5 51,37.5 C 49.016102,37.5 48.434677,38.067713 48.183578,40.25 C 47.897976,42.732137 48.172309,43 51,43 C 53.827691,43 54.102024,42.732137 53.816422,40.25 z M 42.816422,32.25 C 42.565323,30.067713 41.983898,29.5 40,29.5 C 38.016102,29.5 37.434677,30.067713 37.183578,32.25 C 36.897976,34.732137 37.172309,35 40,35 C 42.827691,35 43.102024,34.732137 42.816422,32.25 z "
     style="fill:#d40000;fill-opacity:1"
     id="path2290" />
</svg>
