<?xml version="1.0" encoding="UTF-8" standalone="no"?>
<!-- Created with Inkscape (http://www.inkscape.org/) -->

<svg
   xmlns:dc="http://purl.org/dc/elements/1.1/"
   xmlns:cc="http://creativecommons.org/ns#"
   xmlns:rdf="http://www.w3.org/1999/02/22-rdf-syntax-ns#"
   xmlns:svg="http://www.w3.org/2000/svg"
   xmlns="http://www.w3.org/2000/svg"
   xmlns:sodipodi="http://sodipodi.sourceforge.net/DTD/sodipodi-0.dtd"
   xmlns:inkscape="http://www.inkscape.org/namespaces/inkscape"
   width="800"
   height="600"
   id="svg2"
   version="1.1"
   inkscape:version="0.47 r22583"
   sodipodi:docname="Flag of Woodland 2x3 - FOR WIKI.svg">
  <title
     id="title2862">Flag of Woodland, California</title>
  <defs
     id="defs4">
    <inkscape:perspective
       sodipodi:type="inkscape:persp3d"
       inkscape:vp_x="0 : 526.18109 : 1"
       inkscape:vp_y="0 : 1000 : 0"
       inkscape:vp_z="744.09448 : 526.18109 : 1"
       inkscape:persp3d-origin="372.04724 : 350.78739 : 1"
       id="perspective10" />
    <inkscape:perspective
       id="perspective2824"
       inkscape:persp3d-origin="0.5 : 0.33333333 : 1"
       inkscape:vp_z="1 : 0.5 : 1"
       inkscape:vp_y="0 : 1000 : 0"
       inkscape:vp_x="0 : 0.5 : 1"
       sodipodi:type="inkscape:persp3d" />
    <inkscape:perspective
       id="perspective2853"
       inkscape:persp3d-origin="0.5 : 0.33333333 : 1"
       inkscape:vp_z="1 : 0.5 : 1"
       inkscape:vp_y="0 : 1000 : 0"
       inkscape:vp_x="0 : 0.5 : 1"
       sodipodi:type="inkscape:persp3d" />
    <inkscape:perspective
       id="perspective2907"
       inkscape:persp3d-origin="0.5 : 0.33333333 : 1"
       inkscape:vp_z="1 : 0.5 : 1"
       inkscape:vp_y="0 : 1000 : 0"
       inkscape:vp_x="0 : 0.5 : 1"
       sodipodi:type="inkscape:persp3d" />
    <inkscape:perspective
       id="perspective2828"
       inkscape:persp3d-origin="0.5 : 0.33333333 : 1"
       inkscape:vp_z="1 : 0.5 : 1"
       inkscape:vp_y="0 : 1000 : 0"
       inkscape:vp_x="0 : 0.5 : 1"
       sodipodi:type="inkscape:persp3d" />
    <inkscape:perspective
       id="perspective2936"
       inkscape:persp3d-origin="0.5 : 0.33333333 : 1"
       inkscape:vp_z="1 : 0.5 : 1"
       inkscape:vp_y="0 : 1000 : 0"
       inkscape:vp_x="0 : 0.5 : 1"
       sodipodi:type="inkscape:persp3d" />
    <inkscape:perspective
       id="perspective2961"
       inkscape:persp3d-origin="0.5 : 0.33333333 : 1"
       inkscape:vp_z="1 : 0.5 : 1"
       inkscape:vp_y="0 : 1000 : 0"
       inkscape:vp_x="0 : 0.5 : 1"
       sodipodi:type="inkscape:persp3d" />
    <inkscape:perspective
       id="perspective2988"
       inkscape:persp3d-origin="0.5 : 0.33333333 : 1"
       inkscape:vp_z="1 : 0.5 : 1"
       inkscape:vp_y="0 : 1000 : 0"
       inkscape:vp_x="0 : 0.5 : 1"
       sodipodi:type="inkscape:persp3d" />
    <inkscape:perspective
       id="perspective3015"
       inkscape:persp3d-origin="0.5 : 0.33333333 : 1"
       inkscape:vp_z="1 : 0.5 : 1"
       inkscape:vp_y="0 : 1000 : 0"
       inkscape:vp_x="0 : 0.5 : 1"
       sodipodi:type="inkscape:persp3d" />
    <inkscape:perspective
       id="perspective3015-2"
       inkscape:persp3d-origin="0.5 : 0.33333333 : 1"
       inkscape:vp_z="1 : 0.5 : 1"
       inkscape:vp_y="0 : 1000 : 0"
       inkscape:vp_x="0 : 0.5 : 1"
       sodipodi:type="inkscape:persp3d" />
    <inkscape:perspective
       id="perspective3053"
       inkscape:persp3d-origin="0.5 : 0.33333333 : 1"
       inkscape:vp_z="1 : 0.5 : 1"
       inkscape:vp_y="0 : 1000 : 0"
       inkscape:vp_x="0 : 0.5 : 1"
       sodipodi:type="inkscape:persp3d" />
    <inkscape:perspective
       id="perspective3053-7"
       inkscape:persp3d-origin="0.5 : 0.33333333 : 1"
       inkscape:vp_z="1 : 0.5 : 1"
       inkscape:vp_y="0 : 1000 : 0"
       inkscape:vp_x="0 : 0.5 : 1"
       sodipodi:type="inkscape:persp3d" />
    <inkscape:perspective
       id="perspective3053-2"
       inkscape:persp3d-origin="0.5 : 0.33333333 : 1"
       inkscape:vp_z="1 : 0.5 : 1"
       inkscape:vp_y="0 : 1000 : 0"
       inkscape:vp_x="0 : 0.5 : 1"
       sodipodi:type="inkscape:persp3d" />
    <inkscape:perspective
       id="perspective3053-1"
       inkscape:persp3d-origin="0.5 : 0.33333333 : 1"
       inkscape:vp_z="1 : 0.5 : 1"
       inkscape:vp_y="0 : 1000 : 0"
       inkscape:vp_x="0 : 0.5 : 1"
       sodipodi:type="inkscape:persp3d" />
    <inkscape:perspective
       id="perspective3913"
       inkscape:persp3d-origin="0.5 : 0.33333333 : 1"
       inkscape:vp_z="1 : 0.5 : 1"
       inkscape:vp_y="0 : 1000 : 0"
       inkscape:vp_x="0 : 0.5 : 1"
       sodipodi:type="inkscape:persp3d" />
    <inkscape:perspective
       id="perspective3938"
       inkscape:persp3d-origin="0.5 : 0.33333333 : 1"
       inkscape:vp_z="1 : 0.5 : 1"
       inkscape:vp_y="0 : 1000 : 0"
       inkscape:vp_x="0 : 0.5 : 1"
       sodipodi:type="inkscape:persp3d" />
    <inkscape:perspective
       id="perspective3985"
       inkscape:persp3d-origin="0.5 : 0.33333333 : 1"
       inkscape:vp_z="1 : 0.5 : 1"
       inkscape:vp_y="0 : 1000 : 0"
       inkscape:vp_x="0 : 0.5 : 1"
       sodipodi:type="inkscape:persp3d" />
    <inkscape:perspective
       id="perspective4032"
       inkscape:persp3d-origin="0.5 : 0.33333333 : 1"
       inkscape:vp_z="1 : 0.5 : 1"
       inkscape:vp_y="0 : 1000 : 0"
       inkscape:vp_x="0 : 0.5 : 1"
       sodipodi:type="inkscape:persp3d" />
    <inkscape:perspective
       id="perspective4054"
       inkscape:persp3d-origin="0.5 : 0.33333333 : 1"
       inkscape:vp_z="1 : 0.5 : 1"
       inkscape:vp_y="0 : 1000 : 0"
       inkscape:vp_x="0 : 0.5 : 1"
       sodipodi:type="inkscape:persp3d" />
    <inkscape:perspective
       id="perspective2841"
       inkscape:persp3d-origin="0.5 : 0.33333333 : 1"
       inkscape:vp_z="1 : 0.5 : 1"
       inkscape:vp_y="0 : 1000 : 0"
       inkscape:vp_x="0 : 0.5 : 1"
       sodipodi:type="inkscape:persp3d" />
    <inkscape:perspective
       id="perspective4105"
       inkscape:persp3d-origin="0.5 : 0.33333333 : 1"
       inkscape:vp_z="1 : 0.5 : 1"
       inkscape:vp_y="0 : 1000 : 0"
       inkscape:vp_x="0 : 0.5 : 1"
       sodipodi:type="inkscape:persp3d" />
    <inkscape:perspective
       id="perspective2844"
       inkscape:persp3d-origin="0.5 : 0.33333333 : 1"
       inkscape:vp_z="1 : 0.5 : 1"
       inkscape:vp_y="0 : 1000 : 0"
       inkscape:vp_x="0 : 0.5 : 1"
       sodipodi:type="inkscape:persp3d" />
    <inkscape:perspective
       id="perspective2859"
       inkscape:persp3d-origin="0.5 : 0.33333333 : 1"
       inkscape:vp_z="1 : 0.5 : 1"
       inkscape:vp_y="0 : 1000 : 0"
       inkscape:vp_x="0 : 0.5 : 1"
       sodipodi:type="inkscape:persp3d" />
  </defs>
  <sodipodi:namedview
     id="base"
     pagecolor="#ffffff"
     bordercolor="#666666"
     borderopacity="1.0"
     inkscape:pageopacity="0.0"
     inkscape:pageshadow="2"
     inkscape:zoom="0.45373585"
     inkscape:cx="325.75419"
     inkscape:cy="171.11457"
     inkscape:document-units="px"
     inkscape:current-layer="layer1"
     showgrid="true"
     inkscape:snap-nodes="false"
     inkscape:snap-bbox="true"
     inkscape:window-width="1366"
     inkscape:window-height="706"
     inkscape:window-x="-8"
     inkscape:window-y="-8"
     inkscape:window-maximized="1">
    <inkscape:grid
       type="xygrid"
       id="grid2830"
       empspacing="5"
       visible="true"
       enabled="true"
       snapvisiblegridlinesonly="true" />
  </sodipodi:namedview>
  <metadata
     id="metadata7">
    <rdf:RDF>
      <cc:Work
         rdf:about="">
        <dc:format>image/svg+xml</dc:format>
        <dc:type
           rdf:resource="http://purl.org/dc/dcmitype/StillImage" />
        <dc:title>Flag of Woodland, California</dc:title>
        <dc:rights>
          <cc:Agent>
            <dc:title>Public Domain</dc:title>
          </cc:Agent>
        </dc:rights>
        <dc:publisher>
          <cc:Agent>
            <dc:title>Devin Cook</dc:title>
          </cc:Agent>
        </dc:publisher>
        <dc:description>This is the flag of the City of Woodland, California.</dc:description>
        <dc:contributor>
          <cc:Agent>
            <dc:title>Devin Cook (wikipedia@devincook.com)</dc:title>
          </cc:Agent>
        </dc:contributor>
      </cc:Work>
    </rdf:RDF>
  </metadata>
  <g
     inkscape:label="Layer 1"
     inkscape:groupmode="layer"
     id="layer1"
     transform="translate(-60,-452.36218)">
    <rect
       style="color:#000000;fill:#ffffff;fill-opacity:1;fill-rule:evenodd;stroke:none;stroke-width:2;marker:none;visibility:visible;display:inline;overflow:visible;enable-background:accumulate"
       id="rect4095"
       width="800"
       height="600"
       x="60"
       y="452.36218" />
    <rect
       style="color:#000000;fill:#da0000;fill-opacity:1;fill-rule:evenodd;stroke:none;stroke-width:2;marker:none;visibility:visible;display:inline;overflow:visible;enable-background:accumulate"
       id="rect2897"
       width="800"
       height="120"
       x="60"
       y="932.36218" />
    <g
       id="g3955"
       style="fill:#ffffff;fill-opacity:1"
       transform="translate(18.395701,0.20425966)">
      <g
         id="text2922"
         style="font-size:95.18378448px;font-style:normal;font-variant:normal;font-weight:normal;font-stretch:normal;text-align:start;line-height:100%;writing-mode:lr-tb;text-anchor:start;fill:#ffffff;fill-opacity:1;stroke:none;font-family:Gloucester MT Extra Condensed;-inkscape-font-specification:'Gloucester MT Extra Condensed,'"
         transform="matrix(0.91558588,0,0,1.0921967,2.0044973e-5,2.3652512e-6)">
        <path
           style="fill:#ffffff;fill-opacity:1;stroke:none"
           sodipodi:nodetypes="ccccccccccccccccccccccccccc"
           id="path3131"
           d="m 169.29049,912.25525 3.27659,-34.79226 -3.27659,-2.74676 0,-2.74676 15.29075,0 0,2.74676 -3.27659,2.74676 -9.82977,67.75336 -5.46098,0 -7.52919,-42.99071 -6.66937,42.99071 -5.55394,0 -10.82901,-67.75336 -3.27659,-2.74676 0,-2.74676 17.47514,0 0,2.74676 -3.27659,2.74676 4.27584,36.33529 4.46174,-36.33529 -3.27659,-2.74676 -0.0233,-2.74676 15.31404,0 1e-5,2.74676 -3.27659,2.74676 5.46098,34.79226 1e-5,0 z" />
      </g>
      <g
         id="text2922-9"
         style="font-size:88.4332428px;font-style:normal;font-variant:normal;font-weight:normal;font-stretch:normal;text-align:start;line-height:100%;writing-mode:lr-tb;text-anchor:start;fill:#ffffff;fill-opacity:1;stroke:none;font-family:Gloucester MT Extra Condensed;-inkscape-font-specification:'Gloucester MT Extra Condensed,'"
         transform="scale(0.86198668,1.1601107)">
        <path
           id="path3128"
           style="fill:#ffffff;fill-opacity:1"
           d="m 273.101,889.88243 c -6.01646,0 -10.50001,-3.02262 -13.45066,-9.06786 -2.95065,-6.04523 -4.42598,-14.4078 -4.42598,-25.08775 0,-10.67988 1.48972,-19.15041 4.46916,-25.4116 2.97943,-6.26108 7.30466,-9.39165 12.97568,-9.39172 5.32555,7e-5 9.55001,2.88595 12.67342,8.65765 3.12334,5.77182 4.68502,14.31431 4.68506,25.62751 -4e-5,11.54355 -1.54733,20.20839 -4.64188,25.99453 -3.09462,5.78617 -7.18955,8.67924 -12.2848,8.67924 z m -0.47498,-4.66347 c 1.29539,10e-6 2.48285,-0.83481 3.56238,-2.50446 1.07948,-1.66963 1.84953,-6.24673 2.31014,-13.73133 0.46056,-7.48456 0.69086,-14.35022 0.69089,-20.597 -3e-5,-5.64218 -0.34547,-10.28406 -1.03633,-13.92564 -0.69091,-3.64148 -1.43937,-5.98761 -2.24538,-7.03839 -0.80605,-1.05066 -1.84238,-1.57602 -3.10898,-1.57608 -1.06513,6e-5 -2.02229,0.40308 -2.87149,1.20904 -0.84923,0.8061 -1.51132,2.25264 -1.98629,4.33962 -0.475,2.08711 -0.89241,6.16764 -1.25223,12.24162 -0.35985,6.07407 -0.53977,12.37838 -0.53975,18.91297 -2e-5,8.1467 0.53254,13.96164 1.59767,17.44484 1.0651,3.48321 2.69155,5.22482 4.87937,5.22481 z" />
      </g>
      <g
         id="text2922-9-8"
         style="font-size:88.4332428px;font-style:normal;font-variant:normal;font-weight:normal;font-stretch:normal;text-align:start;line-height:100%;writing-mode:lr-tb;text-anchor:start;fill:#ffffff;fill-opacity:1;stroke:none;font-family:Gloucester MT Extra Condensed;-inkscape-font-specification:'Gloucester MT Extra Condensed,'"
         transform="scale(0.8619867,1.1601107)">
        <path
           id="path3125"
           style="fill:#ffffff;fill-opacity:1"
           d="m 371.71041,889.88249 c -6.01647,0 -10.50002,-3.02261 -13.45066,-9.06786 -2.95066,-6.04522 -4.42598,-14.4078 -4.42598,-25.08775 0,-10.67988 1.48971,-19.15041 4.46916,-25.4116 2.97943,-6.26108 7.30465,-9.39165 12.97568,-9.39172 5.32554,7e-5 9.55001,2.88595 12.67341,8.65765 3.12334,5.77182 4.68503,14.31432 4.68507,25.62751 -4e-5,11.54355 -1.54733,20.20839 -4.64189,25.99454 -3.09461,5.78616 -7.18954,8.67923 -12.28479,8.67923 z m -0.47498,-4.66347 c 1.29538,10e-6 2.48284,-0.83481 3.56237,-2.50445 1.07948,-1.66963 1.84953,-6.24674 2.31015,-13.73134 0.46056,-7.48456 0.69085,-14.35022 0.69088,-20.597 -3e-5,-5.64218 -0.34547,-10.28405 -1.03633,-13.92564 -0.69091,-3.64148 -1.43936,-5.98761 -2.24537,-7.03839 -0.80606,-1.05066 -1.84238,-1.57602 -3.10898,-1.57608 -1.06514,6e-5 -2.0223,0.40308 -2.87149,1.20905 -0.84923,0.80609 -1.51133,2.25263 -1.9863,4.33962 -0.47499,2.0871 -0.8924,6.16763 -1.25222,12.24161 -0.35985,6.07407 -0.53977,12.37838 -0.53976,18.91297 -10e-6,8.1467 0.53255,13.96164 1.59767,17.44484 1.0651,3.48321 2.69156,5.22482 4.87938,5.22481 z" />
      </g>
      <g
         id="text2922-9-4-5"
         style="font-size:89.67521667px;font-style:normal;font-variant:normal;font-weight:normal;font-stretch:normal;text-align:start;line-height:100%;writing-mode:lr-tb;text-anchor:start;fill:#ffffff;fill-opacity:1;stroke:none;font-family:Gloucester MT Extra Condensed;-inkscape-font-specification:'Gloucester MT Extra Condensed,'"
         transform="matrix(0.85110384,0,0,1.1749435,8.2096369e-4,0)">
        <path
           sodipodi:nodetypes="ccsssscccccccccssssssc"
           id="path3119"
           d="m 860.0586,810.55998 15.91648,4e-5 c 6.42204,6e-5 11.83699,2.61997 16.24488,7.85971 4.40783,5.23987 6.61176,13.74178 6.61179,25.50577 -3e-5,6.07179 -0.66413,11.87353 -1.99229,17.40523 -1.32823,5.53173 -3.45918,9.80093 -6.39286,12.80761 -2.93374,3.00669 -7.87434,4.51004 -14.82181,4.51004 l -15.56619,-2e-5 0,-2.55331 4.61951,-2.17564 0.17514,-58.49907 -4.79465,-2.30705 0,-2.55331 z m 16.35435,5.21066 0,57.79848 c 2.9191,0 5.18141,-0.70059 6.78694,-2.10177 1.60549,-1.40116 2.77314,-4.46623 3.50294,-9.19521 0.72975,-4.72894 1.09464,-10.15849 1.09467,-16.28866 -3e-5,-6.62635 -0.27734,-11.88076 -0.83195,-15.76322 -0.55466,-3.88237 -1.24794,-6.80878 -2.07987,-8.77924 -0.83197,-1.97035 -1.86096,-3.36422 -3.08696,-4.18163 -1.22605,-0.81729 -3.0213,-1.31354 -5.38577,-1.48875 z"
           style="fill:#ffffff;fill-opacity:1" />
      </g>
      <g
         id="text2922-9-4-1"
         style="font-size:86.69428253px;font-style:normal;font-variant:normal;font-weight:normal;font-stretch:normal;text-align:start;line-height:100%;writing-mode:lr-tb;text-anchor:start;fill:#ffffff;fill-opacity:1;stroke:none;font-family:Gloucester MT Extra Condensed;-inkscape-font-specification:'Gloucester MT Extra Condensed,'"
         transform="matrix(0.9636511,0,0,1.2106725,-98.332884,0)">
        <path
           sodipodi:nodetypes="cccccccccccccccccccccc"
           style="fill:#ffffff;fill-opacity:1"
           id="path3116"
           d="m 693.54239,786.63898 5.1886,0 11.41492,61.12305 3.11316,2.47796 0,2.47797 -14.52808,0 0,-2.47797 3.11316,-2.47796 c -3e-5,-0.2822 -0.6559,-2.59316 -0.7124,-2.96004 l -1.72952,-7.77779 -8.973,0 -1.03772,10.73783 3.11316,2.47796 0,2.47797 -13.49036,0 0,-2.47797 3.11316,-2.47796 11.41492,-61.12305 z m 1.66481,24.6109 -3.74025,20.8184 7.26404,0 -3.52379,-20.8184 z" />
      </g>
      <g
         id="text2922-9-4-7"
         style="font-size:89.69717407px;font-style:normal;font-variant:normal;font-weight:normal;font-stretch:normal;text-align:start;line-height:100%;writing-mode:lr-tb;text-anchor:start;fill:#ffffff;fill-opacity:1;stroke:none;font-family:Gloucester MT Extra Condensed;-inkscape-font-specification:'Gloucester MT Extra Condensed,'"
         transform="matrix(0.99766968,0,0,1.1693922,-107.5003,-8.0695744e-5)">
        <path
           sodipodi:nodetypes="ccccccccccccccccccccccccccc"
           style="fill:#ffffff;fill-opacity:1"
           id="path3113"
           d="m 776.30801,851.12672 -1.001,-31.58794 -3.007,-2.56543 0,-2.56544 14.03235,0 3.5e-4,2.56544 -3.00701,2.56543 0,63.28074 -7.01714,0 -13.02958,-48.74327 0,43.6124 3.00656,2.56544 4.5e-4,2.56543 -13.03036,0 -4.5e-4,-2.56543 3.00745,-2.56544 0,-55.58443 c 0,-1.45214 0.28828,-2.35702 -0.63917,-3.09742 l -3.37073,-2.03346 5.6e-4,-2.56543 14.0327,0 1.13491,0.23491 0.58575,1.13186 8.30192,35.35204 3.4e-4,0 -4.5e-4,0 -4.5e-4,0 z" />
      </g>
      <g
         id="text2922-9-4-4"
         style="font-size:98.29533386px;font-style:normal;font-variant:normal;font-weight:normal;font-stretch:normal;text-align:start;line-height:100%;writing-mode:lr-tb;text-anchor:start;fill:#ffffff;fill-opacity:1;stroke:none;font-family:Gloucester MT Extra Condensed;-inkscape-font-specification:'Gloucester MT Extra Condensed,'"
         transform="matrix(0.93291789,0,0,1.0719055,7.1737168e-5,0)">
        <path
           sodipodi:nodetypes="ccccccccccccccc"
           id="path3110"
           style="fill:#ffffff;fill-opacity:1"
           d="m 512.37085,895.0063 -3.21572,-3.73167 0,-2.79875 18.2224,0 0,2.79875 -3.21572,3.73167 0,62.50551 4.28762,0 7.50334,-21.45711 3.21572,0 0,27.05462 -30.01336,0 0,-3.26372 3.21572,-2.33379 0,-62.50551 z" />
      </g>
      <g
         id="text2922-9-4-5-2"
         style="font-size:89.67521667px;font-style:normal;font-variant:normal;font-weight:normal;font-stretch:normal;text-align:start;line-height:100%;writing-mode:lr-tb;text-anchor:start;fill:#ffffff;fill-opacity:1;stroke:none;font-family:Gloucester MT Extra Condensed;-inkscape-font-specification:'Gloucester MT Extra Condensed,'"
         transform="matrix(0.85110384,0,0,1.1749435,-344.99915,1.3887029e-7)">
        <path
           sodipodi:nodetypes="ccsssscccccccccssssssc"
           id="path3119-1"
           d="m 860.0586,810.55998 15.91648,4e-5 c 6.42204,6e-5 11.83699,2.61997 16.24488,7.85971 4.40783,5.23987 6.61176,13.74178 6.61179,25.50577 -3e-5,6.07179 -0.66413,11.87353 -1.99229,17.40523 -1.32823,5.53173 -3.45918,9.80093 -6.39286,12.80761 -2.93374,3.00669 -7.87434,4.51004 -14.82181,4.51004 l -15.56619,-2e-5 0,-2.55331 4.61951,-2.17564 0.17514,-58.49907 -4.79465,-2.30705 0,-2.55331 z m 16.35435,5.21066 0,57.79848 c 2.9191,0 5.18141,-0.70059 6.78694,-2.10177 1.60549,-1.40116 2.77314,-4.46623 3.50294,-9.19521 0.72975,-4.72894 1.09464,-10.15849 1.09467,-16.28866 -3e-5,-6.62635 -0.27734,-11.88076 -0.83195,-15.76322 -0.55466,-3.88237 -1.24794,-6.80878 -2.07987,-8.77924 -0.83197,-1.97035 -1.86096,-3.36422 -3.08696,-4.18163 -1.22605,-0.81729 -3.0213,-1.31354 -5.38577,-1.48875 z"
           style="fill:#ffffff;fill-opacity:1" />
      </g>
    </g>
    <path
       sodipodi:type="star"
       style="color:#000000;fill:#da0000;fill-opacity:1;fill-rule:evenodd;stroke:none;stroke-width:2;marker:none;visibility:visible;display:inline;overflow:visible;enable-background:accumulate"
       id="path4093"
       sodipodi:sides="5"
       sodipodi:cx="-275"
       sodipodi:cy="-50"
       sodipodi:r1="19.094765"
       sodipodi:r2="50.249378"
       sodipodi:arg1="1.670465"
       sodipodi:arg2="2.2987835"
       inkscape:flatsided="false"
       inkscape:rounded="0"
       inkscape:randomized="0"
       d="m -276.9,-30.999999 -31.53435,18.511923 14.77714,-33.447609 -27.35053,-24.270447 36.37695,3.718016 L -270,-100 l 7.70505,35.745469 36.39286,3.558963 -31.61497,18.373899 7.86124,35.7114448 L -276.9,-30.999999 z"
       transform="matrix(0.79297057,-0.07864218,0.07934524,0.78594434,343.94961,536.92116)" />
    <g
       id="g2884"
       style="fill:#025f0b;fill-opacity:1">
      <g
         transform="matrix(0.97222201,0,0,1,27.638909,-3.00006)"
         id="g4068"
         style="fill:#025f0b;fill-opacity:1">
        <path
           id="path4014"
           style="font-size:72px;font-style:normal;font-variant:normal;font-weight:normal;font-stretch:normal;text-align:start;line-height:125%;writing-mode:lr-tb;text-anchor:start;fill:#025f0b;fill-opacity:1;stroke:none;font-family:Microsoft Sans Serif;-inkscape-font-specification:Microsoft Sans Serif"
           d="m 404.89969,893.53237 c 2.73352,2.10819 4.10029,4.95647 4.10031,8.54485 -2e-5,2.76606 -0.59826,5.00506 -1.79473,6.71702 -1.19649,1.71196 -2.76715,2.56794 -4.712,2.56794 -1.93589,0 -3.50207,-0.85598 -4.69854,-2.56794 C 396.59824,907.08228 396,904.84328 396,902.07722 c 0,-3.58838 1.36678,-6.43666 4.10031,-8.54485 -2.22269,-2.13807 -3.33401,-4.8144 -3.33401,-8.02904 0,-2.37727 0.52653,-4.32846 1.5796,-5.85355 1.0531,-1.52504 2.43553,-2.28757 4.14737,-2.2876 1.72078,3e-5 3.10549,0.76256 4.15409,2.2876 1.04859,1.52509 1.5729,3.47628 1.57291,5.85355 -1e-5,3.21464 -1.10686,5.89097 -3.32058,8.02904 z m -2.40642,-1.74935 c 2.07929,-1.55495 3.11892,-3.64816 3.11893,-6.27969 -10e-6,-1.51007 -0.2756,-2.69126 -0.82678,-3.54352 -0.5512,-0.85221 -1.31524,-1.27834 -2.29215,-1.27837 -0.96793,3e-5 -1.7275,0.42616 -2.27869,1.27837 -0.5512,0.85226 -0.82679,2.03345 -0.82678,3.54352 -1e-5,2.63153 1.03516,4.72474 3.10547,6.27969 z m 3.88523,10.2942 c -3e-5,-1.4204 -0.30922,-2.6427 -0.92762,-3.66688 -0.61841,-1.02418 -1.60429,-2.03715 -2.95761,-3.03892 -1.34436,1.00177 -2.32575,2.01474 -2.94415,3.03892 -0.61841,1.02418 -0.92763,2.24648 -0.92763,3.66688 0,1.85401 0.35404,3.31179 1.06207,4.37335 0.70802,1.06158 1.64459,1.59235 2.80971,1.59235 1.16513,0 2.10392,-0.53077 2.81645,-1.59235 0.7125,-1.06156 1.06875,-2.51934 1.06878,-4.37335 z" />
        <path
           id="path4016"
           style="font-size:72px;font-style:normal;font-variant:normal;font-weight:normal;font-stretch:normal;text-align:start;line-height:125%;writing-mode:lr-tb;text-anchor:start;fill:#025f0b;fill-opacity:1;stroke:none;font-family:Microsoft Sans Serif;-inkscape-font-specification:Microsoft Sans Serif"
           d="m 482.38501,893.06139 c 1.20707,-2.3773 2.59315,-3.56594 4.15819,-3.56597 1.53171,3e-5 2.82411,0.99804 3.87721,2.99407 1.05304,1.99606 1.57958,4.53409 1.57959,7.61411 -10e-6,3.12491 -0.52238,5.78255 -1.56711,7.97297 -1.04476,2.19041 -2.4329,3.28561 -4.16442,3.28561 -1.98128,0 -3.52133,-1.3718 -4.62018,-4.11544 -1.09886,-2.7436 -1.6483,-6.6871 -1.64829,-11.83047 -10e-6,-12.03603 2.15608,-18.05406 6.46826,-18.05409 1.37357,3e-5 2.53485,0.68781 3.48387,2.06332 0.949,1.3756 1.52757,3.41648 1.73571,6.12269 l -2.42249,0 c -0.20813,-3.24448 -1.18211,-4.86673 -2.92196,-4.86676 -1.12384,3e-5 -2.03331,1.06533 -2.72841,3.19592 -0.69511,2.13062 -1.1051,5.19197 -1.22997,9.18404 z m -0.025,3.27439 c 0.0333,3.76784 0.39542,6.66096 1.08637,8.67944 0.69095,2.01848 1.61498,3.02771 2.77211,3.02771 1.0156,0 1.82726,-0.73265 2.43496,-2.19791 0.60769,-1.46525 0.91154,-3.28934 0.91155,-5.47228 -10e-6,-2.21283 -0.3101,-4.02947 -0.93028,-5.44987 -0.62019,-1.4204 -1.45058,-2.1306 -2.49115,-2.13062 -1.29032,2e-5 -2.55151,1.18119 -3.78356,3.54353 z" />
        <path
           id="path4012-5"
           style="font-size:72px;font-style:normal;font-variant:normal;font-weight:normal;font-stretch:normal;text-align:start;line-height:125%;writing-mode:lr-tb;text-anchor:start;fill:#025f0b;fill-opacity:1;stroke:none;font-family:Microsoft Sans Serif;-inkscape-font-specification:Microsoft Sans Serif"
           d="m 504,911.36218 -5,0 1,-2 0,-27 -3,0.0414 4,-5.04142 2,0 0,32 1,2 0,2e-5 z"
           sodipodi:nodetypes="cccccccccc" />
        <path
           id="path4012-5-7"
           style="font-size:72px;font-style:normal;font-variant:normal;font-weight:normal;font-stretch:normal;text-align:start;line-height:125%;writing-mode:lr-tb;text-anchor:start;fill:#025f0b;fill-opacity:1;stroke:none;font-family:Microsoft Sans Serif;-inkscape-font-specification:Microsoft Sans Serif"
           d="m 390,911.36218 -5,0 1,-2 0,-27 -3,0.0414 4,-5.04142 2,0 0,32 1,2 0,2e-5 z"
           sodipodi:nodetypes="cccccccccc" />
      </g>
      <path
         id="path2849"
         d="m 409.04265,921.53072 c 0.0152,-0.9997 17.99698,-10.0952 19.95817,-10.0952 l 1.37844,0 1.23782,-3.5425 c 0.68079,-1.9483 1.11387,-3.9717 0.96239,-4.4964 -0.15149,-0.5246 0.52969,-1.867 1.51374,-2.9831 l 1.78915,-2.0292 -1.57899,-5.7368 -1.57898,-5.7367 0.41178,-3.07684 0.41178,-3.07684 3.73356,-5.45206 3.73356,-5.45208 -0.32895,-2.30828 -0.32893,-2.30827 -6.9026,-4.72349 -6.9026,-4.72349 -6.48358,-6.96616 -6.48358,-6.96614 -4.66677,-0.52773 c -2.56672,-0.29024 -6.52872,-0.55167 -8.80443,-0.58092 l -4.13767,-0.0532 -3.24259,1.7211 -3.24259,1.7211 2.33605,1.94158 c 1.28483,1.06786 2.33605,2.42359 2.33605,3.01272 0,1.23654 -2.52282,2.39437 -5.2171,2.39437 l -1.85758,0 -1.42083,2.72497 -1.42083,2.72497 -1.52564,0 -1.52566,0 -3.1551,-2.72497 -3.1551,-2.72497 -4.16628,0 -4.16627,0 0,2.17998 0,2.17997 1.06194,0 1.06193,0 0,2.26658 0,2.26657 -3.4513,-0.71297 c -1.89821,-0.39213 -4.28757,-0.95465 -5.30969,-1.25004 l -1.85839,-0.53708 0,1.98735 0,1.98735 -2.92033,1.2465 c -4.39701,1.87682 -11.92771,3.41926 -18.58811,3.80724 l -2.92451,0.17035 -1.18778,1.46899 -1.18778,1.46898 -2.8195,0 -2.8195,0 -2.42517,1.74352 -2.42518,1.74353 -1.87699,-1.74353 -1.877,-1.74352 -3.36768,0 -3.36768,0 0,-0.67187 c 0,-0.36953 1.91149,-2.51965 4.24775,-4.77806 2.33626,-2.25841 4.24775,-4.64443 4.24775,-5.30228 l 0,-1.19611 -2.67447,-0.68897 -2.67446,-0.68898 -2.90071,0.57692 -2.90071,0.57691 -1.77596,-1.63605 -1.77598,-1.63606 -4.06468,-0.55635 -4.0647,-0.55636 -4.77872,2.79468 c -2.6283,1.53708 -6.69021,3.7802 -9.02647,4.98474 l -4.24776,2.19005 -3.71678,0.0586 -3.71678,0.0586 -2.06136,1.60031 -2.06136,1.60032 -3.15698,0 -3.15699,0 -4.07361,1.84475 -4.07362,1.84474 -0.11754,1.15272 c -0.0647,0.63399 -0.0408,2.17588 0.0532,3.42643 l 0.17072,2.27371 -1.52644,1.30029 -1.52643,1.30028 -7.33427,-3.77803 -7.33428,-3.77803 -7.05215,-1.33373 -7.05215,-1.33373 -4.81718,1.88828 -4.81719,1.88829 -3.32904,3.19194 -3.32905,3.19193 -7.2497,0 -7.24969,0 -0.64059,-2.07162 -0.64059,-2.07161 -2.61678,-0.67412 -2.61683,-0.67419 0,-1.53073 0,-1.53073 -3.70976,-4.98842 -3.70978,-4.98843 2.91333,-0.0148 c 1.60231,-0.009 3.98852,-0.31065 5.30267,-0.67213 l 2.38936,-0.65723 0,-2.15489 0,-2.15489 -2.05042,-0.55036 -2.05042,-0.55036 -0.60787,-1.62593 -0.60787,-1.62593 0.59708,-0.99163 c 0.3284,-0.54539 1.40517,-0.99346 2.39281,-0.9957 0.98765,-0.002 3.36072,-0.98345 5.27349,-2.18047 l 3.47776,-2.1764 0.95412,-2.57581 0.95412,-2.57581 1.76111,-0.69365 c 0.96861,-0.38151 3.75298,-0.69548 6.1875,-0.69772 l 4.42638,-0.004 3.38352,-2.11758 3.38353,-2.11757 1.16707,-2.23829 1.16708,-2.2383 2.88296,-0.0167 c 1.58563,-0.009 3.54232,-0.44533 4.34819,-0.96924 l 1.46522,-0.95254 -0.49823,-3.48431 -0.49823,-3.48433 2.68249,0.52633 c 1.47536,0.28949 3.31011,0.27914 4.07722,-0.023 l 1.39472,-0.54914 4e-5,-1.79086 3e-5,-1.79086 3.45127,-2.82649 3.45126,-2.8265 -0.048,-3.16843 -0.048,-3.16843 -2.42766,-4.7626 -2.42766,-4.76261 -4.95792,0.5403 c -2.72686,0.29718 -6.39154,1.14782 -8.14374,1.89032 l -3.18581,1.35001 -5.84066,0.22659 c -3.21236,0.12463 -6.91587,0.59186 -8.23002,1.03827 l -2.38936,0.81168 0,1.01653 0,1.01653 3.11668,0 c 1.71418,0 4.37563,-0.4913 5.91436,-1.09176 l 2.79767,-1.09177 2.54309,0.65513 2.5431,0.65514 0.64058,2.07161 0.64059,2.07161 4.17619,0 c 2.2969,0 4.17619,0.16989 4.17619,0.37753 0,1.11545 -3.43099,7.1943 -4.64355,8.22722 l -1.41367,1.20423 -3.54984,-1.27017 -3.54984,-1.27017 -0.41264,1.27062 -0.41265,1.27062 -1.60239,0 c -0.88132,0 -2.82055,0.9835 -4.30939,2.18555 l -2.70698,2.18556 -1.44278,-1.22903 -1.44279,-1.22903 0,-1.61813 0,-1.61814 -1.67976,0.66161 c -0.92383,0.36389 -2.13532,0.66161 -2.69217,0.66161 l -1.01245,0 1.0993,2.10832 c 1.58782,3.04521 1.61924,3.01806 -4.47587,3.86635 l -5.57518,0.77593 -3.11259,1.84918 c -1.71193,1.01705 -3.27738,2.3566 -3.4788,2.97679 l -0.3662,1.12763 2.71215,1.26837 2.71214,1.26838 0.56989,1.52433 0.56989,1.52432 -2.56669,2.63449 c -1.41168,1.44896 -2.77189,3.26636 -3.02271,4.03867 l -0.45602,1.40419 -3.68312,-2.19949 -3.68313,-2.19948 -5.12927,-0.76597 -5.12927,-0.76597 -2.57729,-2.64537 -2.57729,-2.64535 1.8659,-2.63347 c 1.02625,-1.44841 2.21203,-2.64888 2.63508,-2.66772 0.42306,-0.0189 1.49827,-1.48137 2.38936,-3.25008 l 1.62018,-3.21583 0,-2.7791 0,-2.77909 1.8053,0 1.80529,0 -1.19387,-1.22541 -1.19386,-1.22539 -3.38827,1.21234 -3.38825,1.21235 -0.81097,-0.51444 -0.81096,-0.51445 -3.45253,1.76784 -3.45252,1.76784 -0.48154,1.75712 -0.48152,1.75712 -3.70214,2.45247 c -2.03617,1.34886 -4.21154,2.45247 -4.83414,2.45247 -0.62261,0 -2.14635,-1.10361 -3.38609,-2.45247 -1.23974,-1.34886 -4.10581,-3.95702 -6.36905,-5.79591 l -4.11498,-3.34345 1.24043,-2.37898 1.24043,-2.37898 1.35531,0 c 0.74542,0 2.44346,-1.04055 3.77342,-2.31232 l 2.41812,-2.31231 -0.63972,-3.49999 -0.6397,-3.49998 2.13862,-1.98654 c 1.17623,-1.09259 2.13861,-2.40721 2.13861,-2.92134 l 0,-0.93479 -5.84065,-2.65124 -5.84066,-2.65124 0,-3.77805 0,-3.77803 3.26728,-2.82187 3.2673,-2.82185 2.94119,0 2.94117,0 3.4179,-1.75011 3.4179,-1.7501 0.94218,-2.54357 0.94217,-2.54357 2.35613,-1.29426 2.35612,-1.29426 1.26308,1.77298 c 0.69469,0.97513 1.80774,1.77298 2.47343,1.77298 l 1.21035,0 0,-1.63498 0,-1.63498 1.55555,0 1.55554,0 1.10207,-2.11361 1.10205,-2.11361 4.86042,-0.74812 4.86042,-0.74811 0.56013,-1.49822 0.56013,-1.49822 2.54122,0 2.54123,0 0,-1.08998 0,-1.08999 2.1925,0 c 1.20587,0 4.54149,-1.0372 7.41249,-2.3049 l 5.21999,-2.30488 1.87947,0.82511 c 1.03371,0.45381 4.02989,1.22324 6.65819,1.70985 2.6283,0.48661 7.16808,1.43174 10.08841,2.10029 l 5.30969,1.21554 3.18582,-0.26474 c 5.50058,-0.4571 14.62177,-0.0859 21.23876,0.86437 l 6.37163,0.91502 4.77872,-0.94234 4.77872,-0.94233 1.5297,-1.49953 1.52969,-1.49953 -0.76943,-0.78975 -0.76941,-0.78975 -10.31772,-0.14826 -10.31772,-0.14827 -5.30969,-1.2534 -5.30969,-1.2534 -5.30969,0.11096 c -2.92033,0.061 -6.86277,-0.24643 -8.76099,-0.68322 l -3.4513,-0.79417 0,-1.08289 0,-1.08289 -1.49312,0.5881 -1.49314,0.5881 -1.88177,-2.13425 -1.88176,-2.13424 3.90586,-4.10562 3.90587,-4.10563 -0.0236,-2.13401 -0.0236,-2.13402 -1.83478,-2.22546 c -1.00913,-1.22399 -3.07712,-2.86154 -4.59554,-3.63898 l -2.76076,-1.41354 -4.67281,0.94436 -4.6728,0.94436 -0.32471,2.14964 -0.32471,2.14963 -4.28282,2.72497 -4.28281,2.72497 1.62669,0.34045 1.62669,0.34046 1.22828,3.82002 1.22828,3.82002 -0.59946,0.61531 c -0.32971,0.33841 -5.27553,1.31615 -10.99071,2.17275 l -10.39123,1.55744 -2.65485,2.90546 c -1.46016,1.59801 -2.65484,3.30302 -2.65484,3.7889 0,0.4859 -0.71681,1.34853 -1.59291,1.91698 l -1.59291,1.03354 -3.40133,0.0167 -3.40133,0.0167 -2.63304,-1.23138 -2.63303,-1.23138 -1.17872,-2.92084 -1.17873,-2.92085 -3.03917,-1.8427 -3.03916,-1.8427 -2.16758,0 -2.16756,0 -1.43386,-2.99746 -1.43387,-2.99746 -2.36994,0.26493 -2.36996,0.26494 -1.00657,-2.71741 -1.00664,-2.71737 -3.68041,0 -3.68039,0 -0.68506,-1.13773 -0.68506,-1.13773 1.28338,-1.58723 1.2834,-1.58724 2.02717,0 2.02718,0 0.59017,-1.57861 0.59019,-1.5786 -2.21642,-2.44188 c -2.95943,-3.26047 -2.85864,-3.63242 1.76586,-6.51682 6.6427,-4.14321 6.82843,-5.72544 0.80817,-6.88468 l -3.7285,-0.71795 0,-0.82259 c 0,-0.45243 0.52383,-1.36027 1.16407,-2.01742 l 1.16408,-1.19482 -1.77707,-3.84381 -1.77707,-3.8438 -1.51088,-0.59509 -1.51089,-0.5951 0,-2.14986 0,-2.14985 1.06194,-0.67365 1.06194,-0.67364 0,-2.16123 0,-2.16122 1.85839,-1.98658 c 2.75555,-2.94563 5.50589,-4.15819 11.41584,-5.03294 l 5.30969,-0.7859 1.8627,-1.67459 1.8627,-1.67459 2.70051,1.26294 2.7005,1.26292 5.25972,0 5.25972,0 0,1.1858 0,1.18579 4.2506,-0.7371 c 7.78594,-1.35018 10.03433,-1.5676 17.35036,-1.67782 l 7.26479,-0.10944 3.35459,-2.09951 3.35459,-2.09951 4.43738,-0.004 4.43738,-0.004 1.62364,-1.66652 1.62364,-1.66653 -0.59946,-1.60343 -0.59947,-1.60344 2.2375,-0.13625 c 3.56305,-0.21696 4.13596,-0.35904 4.99239,-1.2381 l 0.80802,-0.82936 4.85566,0.63977 4.85565,0.63976 3.98226,-1.73251 3.98227,-1.73251 0,-1.05419 c 0,-0.57981 -1.67255,-3.73788 -3.71678,-7.01793 -2.04423,-3.28005 -3.71678,-6.54048 -3.71678,-7.24538 l 0,-1.28166 -4.51324,0.90463 c -2.48228,0.49755 -7.69811,0.92811 -11.59073,0.9568 -3.89262,0.0287 -7.26923,0.29742 -7.50358,0.59716 -0.23436,0.29975 -0.87246,2.45922 -1.41801,4.79883 l -0.99193,4.25385 -6.53693,2.07609 -6.53693,2.0761 -3.76432,3.75244 -3.76434,3.75243 -3.41064,0 -3.41062,0 -4.72667,-2.84316 -4.72665,-2.84318 -2.40818,1.32287 -2.40819,1.32286 -2.25042,-0.73312 -2.25041,-0.73312 0,-1.42806 c 0,-0.78544 0.7168,-2.03867 1.5929,-2.78498 l 1.59291,-1.35691 0,-2.54904 0,-2.54904 2.35208,-2.24917 2.35207,-2.24918 1.49963,0.59067 1.49964,0.59066 1.4242,-1.92641 c 0.78332,-1.05952 1.43941,-2.80758 1.45799,-3.88458 l 0.0338,-1.95817 -3.1791,-1.85678 -3.17909,-1.85678 -0.006,-1.85332 -0.006,-1.85331 -1.4538,-0.87165 c -0.79959,-0.47941 -1.77155,-1.92358 -2.15992,-3.20927 l -0.70612,-2.33762 1.7048,-1.74983 1.70481,-1.74983 2.51632,0 2.51633,0 0.59469,0.98766 0.5947,0.98766 2.38831,-0.62182 c 1.31356,-0.342 3.38295,-1.27917 4.59863,-2.0826 l 2.21034,-1.46079 9.85647,-0.14062 9.85649,-0.14063 4.45528,-2.55587 c 2.4504,-1.40572 6.33883,-4.2431 8.64096,-6.30526 l 4.18571,-3.7494 -1.4721,-2.49204 -1.4721,-2.49203 1.20661,-0.41284 c 0.66295,-0.22649 1.20593,-0.86188 1.20593,-1.41141 l 0,-0.99916 -1.92091,0 -1.92091,0 -2.06136,1.60032 -2.06136,1.60031 -3.91959,0.0347 -3.9196,0.0347 -0.65631,1.08999 -0.65631,1.08998 -2.2013,0 -2.2013,0 -3.64469,3.96657 -3.64469,3.96657 -3.94291,-1.21252 -3.94291,-1.21252 -3.7374,0.62251 -3.73741,0.62251 -1.42471,-1.76203 -1.42472,-1.76202 1.73946,-1.97286 c 0.9567,-1.08506 1.73947,-2.54734 1.73947,-3.2495 l 0,-1.27665 1.32742,-0.0167 c 0.73008,-0.009 1.98632,-0.44504 2.79163,-0.9686 l 1.46421,-0.95188 -1.62638,-3.34627 -1.62638,-3.34626 3.74749,-2.26947 3.7475,-2.26947 -0.5722,-4.37874 -0.5722,-4.37873 2.29657,-0.90171 c 1.26311,-0.49594 3.2069,-1.93898 4.31955,-3.20677 l 2.02298,-2.30507 5.1451,0 5.1451,0 0,-2.68662 0,-2.68661 -1.85839,-1.02085 c -1.02212,-0.56147 -2.33627,-1.05719 -2.92033,-1.10158 -0.58407,-0.0444 -2.37609,-0.377 -3.98227,-0.73909 l -2.92033,-0.65835 0,-0.96503 c 0,-0.53077 0.95575,-1.49005 2.12388,-2.13172 l 2.12387,-1.16669 0,-2.68661 0,-2.68662 4.21039,0 4.21039,0 1.13666,-2.17997 1.13667,-2.17997 3.52435,0 3.52435,0 2.65741,-2.52785 c 1.46157,-1.39032 2.90253,-3.22967 3.20213,-4.08744 l 0.54473,-1.55961 2.24822,1.36248 c 1.23651,0.74937 3.0156,1.36248 3.95351,1.36248 l 1.70531,0 2.63087,-2.12411 2.63089,-2.12411 2.64995,1.03413 c 1.45748,0.56876 4.21734,1.03412 6.13302,1.03412 l 3.48306,0 1.86153,2.11129 1.86152,2.11129 -0.66877,1.11069 -0.66878,1.11069 1.47353,3.59043 1.47354,3.59044 4.34342,4.57289 4.34341,4.57288 -1.09042,3.60201 c -0.59973,1.98111 -1.36286,4.525 -1.69585,5.65309 l -0.60544,2.05107 2.5498,2.01214 2.5498,2.01214 2.68751,0.0242 2.68751,0.0242 1.25608,-3.41562 1.25607,-3.41562 4.42087,0.7256 4.42087,0.7256 2.51001,-1.68805 2.50999,-1.68806 3.2833,0.25678 3.2833,0.25679 1.01222,1.94132 1.01223,1.94131 2.88296,-0.0506 2.88297,-0.0506 6.29115,-3.49185 c 3.46013,-1.92051 6.43551,-3.98234 6.61196,-4.58183 l 0.32082,-1.08999 -1.99858,-2.67124 -1.99858,-2.67124 -1.66914,1.42185 -1.66914,1.42185 -7.56104,-0.77938 -7.56105,-0.77939 -1.50359,-3.69366 -1.5036,-3.69364 -2.25804,0 -2.25803,0 -1.4445,1.90747 -1.44449,1.90749 -1.32743,-1.63498 -1.32742,-1.63498 -5.84066,-1.87953 c -3.21236,-1.03374 -6.7964,-2.02284 -7.96453,-2.19798 l -2.12388,-0.31845 0.0431,-4.88693 0.0431,-4.88693 1.54981,0.49247 c 0.85239,0.27085 4.60549,0.6837 8.34022,0.91745 l 6.79043,0.42501 2.50153,-1.37415 2.50154,-1.37415 0,-3.62153 0,-3.62152 -2.12387,-1.36142 -2.12388,-1.36141 0,-2.24479 0,-2.24477 1.22932,-1.26179 1.22932,-1.26179 -1.34892,-1.66828 -1.34892,-1.66827 1.44703,-0.51589 c 0.79583,-0.28373 3.11954,-0.65741 5.16377,-0.83038 l 3.71678,-0.3145 -0.31144,-4.08745 -0.31145,-4.08745 4.02823,-0.12184 c 6.67585,-0.20193 10.92185,-0.88652 13.17504,-2.12424 l 2.13642,-1.17358 -0.29916,-2.37762 -0.29916,-2.37762 0.82636,-1.36248 0.82636,-1.36249 3.9196,-0.004 3.91959,-0.004 3.63175,-2.27251 3.63175,-2.27251 4.14769,2.3927 4.14769,2.39271 4.10509,-3.38608 c 2.25781,-1.86242 4.62282,-3.38616 5.25559,-3.38616 l 1.15049,0 1.00937,2.72497 1.00938,2.72496 1.54333,0 c 0.84884,0 2.29867,-0.77528 3.22186,-1.72285 l 1.67852,-1.72285 -0.58983,-0.97959 -0.58985,-0.97959 1.14842,-2.20249 1.14841,-2.2025 1.48323,0 1.48323,0 2.21069,3.18661 2.21068,3.18663 3.21447,0.72467 3.21448,0.72466 2.61169,-1.75644 2.61169,-1.75645 0,-1.25152 c 0,-0.68835 -0.80265,-2.16187 -1.78366,-3.2745 l -1.78365,-2.02298 3.64204,-3.19634 3.64205,-3.19634 3.35739,-1.18666 3.35739,-1.18665 0.62833,-1.68062 c 0.34558,-0.92434 0.39737,-2.06416 0.1151,-2.53294 l -0.5132,-0.85233 4.85885,-0.56213 4.85884,-0.56212 3.16179,-3.93712 3.16181,-3.93712 2.04656,0 2.04656,0 0,2.04372 0,2.04373 3.38493,0.69487 3.38493,0.69486 1.07521,-1.10361 1.07521,-1.10361 2.44246,0 2.44246,0 0,1.44498 0,1.44498 2.64158,2.54719 2.64159,2.54718 -1.20728,1.49311 -1.20729,1.49312 1.41769,4.4091 1.4177,4.40912 -1.94527,3.70755 -1.94528,3.70755 -2.23414,0.77379 c -1.22878,0.4256 -2.84128,0.88446 -3.58333,1.01972 -1.45261,0.26475 -5.45999,4.77465 -5.51808,6.21004 l -0.0354,0.87286 4.43681,-0.42443 4.43681,-0.42444 2.46579,2.20061 2.46579,2.2006 0,1.48442 c 0,1.40913 -0.76073,2.59084 -4.11762,6.39625 l -1.46278,1.65823 -5.7884,-0.74231 c -3.18362,-0.40828 -6.98836,-0.74232 -8.45497,-0.74232 l -2.66656,0 -1.76358,1.84155 -1.76358,1.84154 2.50701,2.10966 2.50701,2.10965 2.50117,0 2.50117,0 3.75171,1.83633 3.75173,1.83632 4.26199,-2.45864 4.26198,-2.45864 1.82479,0.3607 1.8248,0.36071 0.0205,2.71407 0.0204,2.71409 6.2015,-0.22025 6.20149,-0.22027 1.31227,-1.11785 1.31227,-1.11785 4.5896,0.8042 4.58959,0.8042 1.13533,1.8474 1.13533,1.84741 -2.53894,2.77396 -2.53893,2.77395 -1.37043,0 -1.37043,0 -1.07187,2.05569 -1.07186,2.05569 -3.94163,2.57675 c -2.16789,1.41722 -5.07811,3.2317 -6.46715,4.03221 -1.38904,0.8005 -2.80925,2.21433 -3.15601,3.14184 l -0.63047,1.6864 1.26551,2.07992 1.2655,2.07992 -0.62961,1.04566 -0.62962,1.04565 -2.13102,0 c -1.17206,0 -3.01622,-0.48627 -4.09815,-1.08058 l -1.96713,-1.08058 -3.29448,0.67629 -3.2945,0.6763 3.6859,3.67425 3.68589,3.67424 1.3901,0 1.39009,0 1.27718,2.0991 1.27718,2.0991 6.67732,-0.0935 6.67731,-0.0935 4.47093,2.35431 4.47093,2.35432 2.58354,0 2.58353,0 0.61127,-1.63498 0.61125,-1.63498 -1.02861,0 -1.02861,0 0,-1.40892 0,-1.4089 4.8541,-1.33257 4.85411,-1.33256 0.98655,0.62583 c 0.54261,0.3442 0.98656,1.34952 0.98656,2.23402 l 0,1.6082 5.57517,-0.63679 c 5.5888,-0.63834 10.74097,-1.40917 15.61956,-2.33687 l 2.61082,-0.49646 2.45042,1.34607 2.45043,1.34607 3.69975,-1.81089 3.69975,-1.81088 0,-1.23475 0,-1.23475 1.95766,0.52547 1.95766,0.52546 1.23716,-2.03332 1.23714,-2.03331 -1.57624,0 c -0.86693,0 -3.05655,-0.92401 -4.86581,-2.05335 l -3.28958,-2.05335 -3.56573,1.12326 -3.56575,1.12327 -3.14662,-2.71766 -3.14663,-2.71764 -7.74051,-0.73841 -7.74052,-0.7384 -5.11488,-1.86463 c -2.81318,-1.02545 -5.11488,-2.18395 -5.11488,-2.57437 0,-0.3904 1.66166,-2.36643 3.69256,-4.39114 l 3.69256,-3.68131 7.98876,-2.54534 7.98876,-2.54532 0,-1.95596 0,-1.95595 -1.67976,-0.66161 c -0.92387,-0.36389 -3.28103,-0.66161 -5.23813,-0.66161 l -3.55836,0 -0.60689,-1.96262 -0.60689,-1.96263 -3.52234,-1.30733 c -1.93728,-0.71904 -4.27356,-1.30734 -5.19172,-1.30734 l -1.66938,0 -0.58844,-1.57396 -0.58845,-1.57396 -4.30389,-1.32354 c -4.88411,-1.50196 -4.98002,-1.67496 -2.49264,-4.49608 l 1.81125,-2.05427 -1.16964,-1.92237 -1.16965,-1.92236 0.54413,-2.9216 0.54412,-2.9216 1.20364,-0.12573 c 0.66199,-0.0691 1.92043,-0.19292 2.79652,-0.27503 0.8761,-0.0821 4.0898,0.71022 7.14156,1.76071 3.05176,1.05051 6.66152,1.91001 8.0217,1.91001 l 2.47306,0 3.60445,-3.81708 3.60446,-3.81707 1.06399,1.09211 1.06401,1.09211 3.43283,0 3.43284,0 0.70277,2.27271 0.70277,2.27269 -2.22412,2.43 c -2.89085,3.15844 -2.80958,4.03118 0.69622,7.47676 l 2.92033,2.87016 4.77872,-0.36195 c 2.6283,-0.19907 6.09287,-0.71632 7.69905,-1.14942 l 2.92033,-0.78747 0,-2.06181 0,-2.06181 -1.5929,0 -1.59291,0 0,-2.13796 0,-2.13796 4.51324,-1.29698 c 5.01682,-1.44171 11.90894,-2.29749 18.26452,-2.26788 l 4.19384,0.0195 1.23292,1.73064 1.23292,1.73065 2.19081,0 2.19081,0 3.15511,-2.72496 3.1551,-2.72497 4.89091,0 4.89091,0 0,-1.63498 0,-1.63498 -1.06194,0 -1.06194,0 0,-1.36827 0,-1.36827 -3.98226,-1.52569 -3.98227,-1.52569 -12.21229,-0.34391 c -6.71676,-0.18914 -12.9291,-0.43517 -13.8052,-0.54673 -0.8761,-0.11155 -4.29476,0.14866 -7.59703,0.57826 l -6.00412,0.78107 -0.61595,-1.02294 -0.61594,-1.02294 1.62586,-3.34519 1.62586,-3.34519 1.9746,-0.64327 1.9746,-0.64326 1.73597,-4.4532 1.73596,-4.45319 5.5314,0.81886 c 3.04226,0.45038 7.92075,0.87179 10.84108,0.93648 l 5.30969,0.11762 2.12388,-0.95346 c 1.16813,-0.5244 3.03148,-1.05403 4.14077,-1.17695 l 2.01689,-0.22348 1.28599,-1.80514 1.286,-1.80516 3.80252,0 3.80253,0 0.66701,1.10776 0.66703,1.10776 0.86374,-0.54791 0.86374,-0.54793 2.69353,2.17469 2.69353,2.1747 3.53743,0.66742 3.53743,0.66743 4.58424,2.68162 4.58423,2.68161 1.72032,-0.67759 1.72033,-0.67757 5.50206,2.29209 5.50206,2.29212 1.16601,2.6267 1.166,2.6267 2.73376,0.70424 2.73375,0.70425 1.99275,-1.85103 1.99274,-1.85105 2.03407,1.11736 c 1.11873,0.61454 2.65062,1.87987 3.40418,2.81183 l 1.37012,1.6945 4.18754,0 4.18753,0 2.15297,-1.18267 2.15297,-1.18267 2.55594,0.65844 2.55594,0.65844 0,2.53526 0,2.53528 2.08431,1.9361 2.08433,1.93611 1.67393,-0.65931 1.67392,-0.65931 3.66218,2.43459 3.66217,2.43459 0.0132,1.84315 c 0.007,1.01373 -0.43618,2.12819 -0.98536,2.47657 l -0.99852,0.63341 1.17137,3.51836 c 0.64425,1.9351 2.25147,5.17076 3.5716,7.19035 l 2.40024,3.67199 -0.56283,1.50545 c -0.30958,0.828 -0.98959,1.50544 -1.51117,1.50544 l -0.94832,0 0,1.59095 0,1.59094 4.22992,4.42935 4.22991,4.42933 2.93817,-0.72995 c 1.61598,-0.40148 4.01337,-1.13649 5.32752,-1.63337 l 2.38936,-0.9034 0,-1.63683 0,-1.63683 2.92033,-1.88588 c 1.60618,-1.03723 4.27115,-3.01051 5.92214,-4.38507 l 3.00181,-2.4992 2.40878,0 2.40877,0 1.59608,1.90748 c 0.87786,1.04911 1.88519,2.74584 2.23853,3.7705 l 0.64243,1.86303 3.50125,0.99535 3.50124,0.99536 2.352,-1.4959 c 1.2936,-0.82274 3.29235,-1.4959 4.44168,-1.4959 l 2.08967,0 0.67409,2.17998 0.6741,2.17997 2.2245,0 2.22449,0 4.60654,2.77091 c 2.53359,1.524 4.66971,3.11811 4.74693,3.54245 0.0772,0.42436 0.24173,3.28433 0.36559,6.35552 0.12386,3.07117 0.50626,6.33575 0.84979,7.25462 l 0.6246,1.67066 3.25856,0.73461 3.25857,0.7346 0.6451,2.63814 0.64509,2.63813 2.50235,0 2.50236,0 1.173,2.24965 1.173,2.24965 -1.25444,1.55144 -1.25444,1.55142 0.60145,1.60876 0.60146,1.60876 -2.34104,1.94757 -2.34104,1.94758 0,5.39838 0,5.39836 -2.98234,1.68655 -2.98233,1.68653 -2.56421,-3.26996 c -1.41032,-1.79847 -3.25844,-4.09191 -4.10694,-5.09654 l -1.54272,-1.82658 -2.23632,0.60025 -2.23631,0.60026 -1.19685,2.31631 c -0.65825,1.27397 -2.07673,2.95725 -3.15218,3.7406 l -1.95535,1.4243 0,1.45656 0,1.45655 1.59291,0.6274 1.59291,0.6274 0,1.20205 c 0,0.66113 0.71681,1.9378 1.59291,2.83704 0.87609,0.89924 1.5929,2.31842 1.5929,3.15374 l 0,1.51878 -2.29483,1.26059 -2.29484,1.26059 -4.87325,0.50368 c -2.68029,0.27702 -8.21835,0.62245 -12.30681,0.76761 l -7.43357,0.26393 -0.32147,2.23009 -0.32147,2.23008 4.03826,2.06226 4.03825,2.06226 5.30969,-0.24775 c 2.92033,-0.13626 9.28204,-0.96669 14.13714,-1.8454 l 8.82744,-1.59765 1.52645,-1.3003 c 0.83955,-0.71516 1.52646,-1.82175 1.52646,-2.45906 0,-0.63733 0.91025,-2.17138 2.02278,-3.409 1.11252,-1.23763 2.9453,-3.96695 4.07284,-6.06518 l 2.05006,-3.81495 1.85182,-0.36902 c 1.01849,-0.20296 2.99156,-0.0754 4.3846,0.28346 l 2.5328,0.65249 1.14092,4.34898 1.14093,4.34898 2.27998,0 2.27999,0 2.29271,-2.21079 2.29273,-2.21079 1.70662,0.6722 1.70663,0.67219 1.18085,3.67251 1.18086,3.67253 3.67922,2.33393 3.67921,2.33395 1.82841,-1.47041 c 1.00563,-0.80872 2.21055,-2.08352 2.67763,-2.83288 l 0.84922,-1.36249 2.5394,0 2.53941,0 0.65631,1.08999 0.65631,1.08999 3.59145,0 3.59144,0 0.6131,1.01822 0.6131,1.01821 3.48109,-0.57982 3.48111,-0.57983 1.28132,1.58469 1.28134,1.58468 -2.5674,3.88319 c -1.41206,2.13577 -2.33052,4.12633 -2.04101,4.42349 0.28952,0.29717 -0.0506,1.64708 -0.75603,2.99983 l -1.28243,2.45954 1.83058,1.3739 1.83058,1.37391 1.48968,-0.58674 1.48969,-0.58675 0,-2.09848 0,-2.09849 2.37632,-0.90228 2.37633,-0.90227 1.80241,1.15535 1.80241,1.15536 -0.59469,3.052 -0.5947,3.052 4.3805,0 4.38049,0 0,2.01251 c 0,1.10688 -0.66433,3.43673 -1.47628,5.17744 -0.81195,1.7407 -1.77837,4.94421 -2.14759,7.11888 l -0.67132,3.95395 2.37117,0.63646 2.37118,0.63646 -2.50975,2.74207 -2.50975,2.74206 0.0913,3.29555 0.0913,3.29554 -1.98305,1.08933 -1.98307,1.08933 -3.1261,0 -3.1261,0 -1.4592,2.25572 -1.4592,2.25572 -2.65259,-1.01717 c -1.45892,-0.55945 -4.94728,-1.36314 -7.75189,-1.786 l -5.0993,-0.76882 -3.47161,3.89023 -3.47161,3.89021 -2.91474,0 c -1.60311,0 -3.83907,0.50775 -4.9688,1.12833 l -2.05414,1.12835 0,1.40662 0,1.40663 -2.38936,2.21899 c -2.44106,2.26699 -7.64988,4.49269 -12.58006,5.37538 l -2.75713,0.49364 -3.08353,-3.21567 -3.08353,-3.21567 -6.34836,-2.18808 -6.34837,-2.18807 -2.94359,1.78475 c -3.44147,2.08662 -3.46468,2.20374 -1.06159,5.35808 l 1.83478,2.40837 6.17325,2.78578 c 3.39529,1.53218 7.4572,2.9312 9.02647,3.10892 l 2.85323,0.32314 3.07539,2.93011 3.07541,2.9301 4.56098,0 4.56098,0 0.65631,-1.08998 0.65631,-1.08999 2.87339,0 2.87338,0 3.99949,-2.20023 3.99951,-2.20021 2.0211,1.11023 c 1.11161,0.61063 3.1587,1.11024 4.54909,1.11024 l 2.52797,0 1.78984,3.85246 1.78983,3.85245 5.57493,-0.72855 c 3.06621,-0.40072 6.37979,-1.15333 7.36351,-1.67249 0.98372,-0.51916 2.98143,-0.94393 4.43938,-0.94393 l 2.6508,0 0.33934,-2.45247 0.33934,-2.45247 3.17151,0 3.1715,0 1.44508,3.09468 1.44507,3.09468 3.29235,1.4209 c 1.81079,0.78148 3.79524,1.23693 4.40989,1.0121 l 1.11755,-0.40879 2.58551,2.0447 2.58551,2.04468 -1.69048,2.64817 c -1.66093,2.60184 -2.40436,5.78736 -1.85268,7.9386 0.15372,0.59949 0.32822,2.07097 0.38776,3.26996 l 0.10826,2.17997 -2.13819,2.43579 -2.13818,2.43579 -3.93665,-1.11566 -3.93665,-1.11568 -1.52167,-2.22986 -1.52167,-2.22987 -4.08482,-1.49489 -4.08481,-1.49487 -4.34865,-0.0479 -4.34865,-0.0478 -1.67575,1.90748 -1.67575,1.90747 1.32233,2.52783 1.32234,2.52782 2.56878,1.3145 2.56878,1.31451 0.33529,1.78697 0.33528,1.78697 -1.91878,0.63649 -1.91879,0.63647 -1.2979,2.87971 -1.29791,2.87972 0.56412,0.93688 0.56413,0.93688 2.99929,0 2.99929,0 0.5554,-2.17997 0.5554,-2.17998 2.7876,0 2.78759,0 0.57974,1.55071 c 0.31887,0.85289 1.28633,1.829 2.14992,2.16914 l 1.57015,0.61844 3.78711,-1.62416 c 4.83643,-2.07415 5.29688,-2.04423 5.91566,0.3845 l 0.51176,2.00862 2.53242,-0.22869 2.53244,-0.22869 1.59291,1.3775 c 0.87609,0.75761 2.54865,1.56852 3.71678,1.80202 l 2.12387,0.42454 -0.3154,1.88304 -0.31542,1.88304 1.64284,2.40742 c 0.90355,1.32409 1.64283,2.78878 1.64283,3.25489 l 0,0.84745 -2.52516,0 c -1.38884,0 -4.25607,0.74233 -6.37163,1.64961 l -3.84647,1.64962 0,0.9419 c 0,0.51804 0.69444,1.53344 1.54319,2.25645 l 1.5432,1.31456 -0.0407,2.90635 c -0.0224,1.5985 0.30514,4.31169 0.72786,6.02934 l 0.76857,3.12299 -6.78429,-0.59853 c -3.73135,-0.3292 -7.74901,-0.90372 -8.9281,-1.27673 l -2.14382,-0.6782 -3.69684,2.75836 c -5.07324,3.78533 -8.1526,5.05029 -14.04828,5.77083 l -5.04173,0.61618 -5.04668,-4.82438 -5.04667,-4.82439 -3.71679,-1.53055 c -2.04423,-0.84181 -4.09893,-2.17247 -4.566,-2.95705 l -0.84926,-1.42648 -3.31492,0 -3.31491,0 -1.70856,1.58705 -1.70854,1.58705 -9.25994,0.18725 -9.25993,0.18724 0,2.58565 0,2.58565 2.12388,0 2.12387,0 0,2.11564 0,2.11565 1.23254,0.78187 1.23254,0.78187 6.06789,-0.22476 6.0679,-0.22475 0.63078,1.68719 0.63077,1.68718 1.67897,0 c 0.92343,0 3.16556,-0.78904 4.98249,-1.75344 l 3.30351,-1.75343 3.54635,1.73579 3.54635,1.73581 0,1.10762 0,1.10762 -1.13248,0 -1.13247,0 0.33602,2.99746 0.33602,2.99747 5.46471,0.32552 5.46471,0.32552 2.76214,-2.62746 2.76213,-2.62747 2.59833,0.50982 2.59833,0.50982 0.6908,3.22826 0.69079,3.22825 1.54921,0.61019 1.54919,0.61018 5.87338,-1.21069 5.87337,-1.2107 2.53233,1.88935 2.53233,1.88934 0.0333,1.27165 c 0.0184,0.6994 0.59585,1.46409 1.28332,1.6993 l 1.24996,0.42766 -0.78166,1.29816 -0.78165,1.29815 -2.37979,0 -2.37979,0 -1.27432,1.30799 -1.27433,1.30798 0,1.93983 0,1.93981 4.17054,2.18386 4.17054,2.18384 0.57354,1.92575 c 0.31545,1.05916 0.42789,2.88034 0.24985,4.04705 l -0.32367,2.12128 -1.74969,1.13283 -1.74967,1.13281 -3.46717,-1.78369 c -5.73163,-2.94865 -12.37872,-5.26952 -15.09217,-5.26952 l -2.55559,0 -1.62844,3.35051 -1.62844,3.35051 0.62724,3.21899 0.62723,3.219 -1.896,2.15039 c -1.04281,1.18271 -2.30216,2.15039 -2.79856,2.15039 -0.4964,0 -3.37901,1.22623 -6.40579,2.72496 l -5.50323,2.72497 -9.19411,0 -9.1941,0 -1.88629,-2.13937 -1.88629,-2.13938 0.5459,-1.46016 0.54589,-1.46017 -1.45738,-3.55765 -1.4574,-3.55766 -1.88004,0.31446 -1.88005,0.31445 -4.22877,-2.96714 -4.22879,-2.96714 -2.40833,0 -2.40833,0 0,-1.41698 c 0,-0.77934 0.5318,-1.96283 1.1818,-2.62999 l 1.1818,-1.21302 -0.74021,-1.22929 -0.74019,-1.22929 -2.3,0.65783 c -2.30983,0.66066 -6.23496,2.26206 -9.20258,3.75454 l -1.59291,0.80111 -0.32177,2.73592 -0.32177,2.73592 3.5703,1.73896 3.57031,1.73897 2.06115,-0.52176 2.06116,-0.52176 5.06072,4.65683 c 5.58857,5.14255 5.82254,5.76366 3.2643,8.66513 -2.22261,2.52085 -1.95006,2.76271 3.88727,3.44943 2.62829,0.30921 6.6535,1.05505 8.94488,1.65744 l 4.16617,1.09527 0.90613,1.66192 0.90612,1.66192 1.57303,-0.61955 1.57301,-0.61957 2.8451,1.91341 c 1.5648,1.05238 3.83101,1.98455 5.03601,2.07148 l 2.19091,0.15807 -0.18681,1.04582 c -0.10269,0.5752 -0.51326,1.90686 -0.91229,2.95924 l -0.72548,1.91342 3.56713,1.58656 3.56714,1.58655 2.47111,2.73577 2.47111,2.73576 -0.58888,0.978 -0.58889,0.978 -5.38058,0.73261 -5.38058,0.73262 -1.78186,2.13602 c -2.26505,2.71526 -2.63381,2.68613 -6.32204,-0.49928 l -3.05129,-2.63529 -5.4715,-1.02074 -5.47149,-1.02075 -0.55184,1.47607 -0.55185,1.47607 -1.46165,0 -1.46164,0 -1.8684,2.11908 -1.86839,2.11908 -2.27847,0.33338 -2.27846,0.3334 -0.0163,1.08999 c -0.008,0.59949 -0.39555,1.7031 -0.85912,2.45246 l -0.84286,1.36249 -2.95856,0 -2.95855,0 -1.80678,-2.0492 -1.80678,-2.04919 -6.05687,-0.53513 -6.05686,-0.53514 -6.90259,1.10896 c -3.79643,0.60992 -8.40864,1.15976 -10.24935,1.22184 l -3.34674,0.11289 -2.79968,3.09822 -2.79966,3.09822 -1.63949,-0.64575 c -0.90172,-0.35516 -3.98978,-0.64575 -6.86234,-0.64575 l -5.22284,0 0,-0.96567 c 0,-0.53113 1.76646,-2.72676 3.92547,-4.87919 l 3.92547,-3.9135 -2.52584,-2.75965 -2.52584,-2.75964 2.31715,-3.2169 c 2.8371,-3.93873 2.86343,-4.63985 0.2649,-7.05361 l -2.05226,-1.90632 0.50768,-1.35794 0.50768,-1.35793 -1.64123,-1.39809 -1.64124,-1.39808 0,-2.36965 0,-2.36965 -2.92033,0.18259 c -1.60618,0.10039 -3.52332,0.24584 -4.2603,0.32314 l -1.33998,0.14055 0.65692,4.21662 0.65691,4.21662 -2.38273,1.71302 -2.38274,1.71301 0.65034,3.33753 0.65032,3.33752 -4.04641,2.74851 -4.04641,2.74852 -7.72992,0.0743 -7.72993,0.0743 -3.86114,1.36385 -3.86115,1.36384 -1.254,2.54483 -1.25401,2.54482 -2.46278,1.40254 -2.46278,1.40254 -9.23725,0.0386 -9.23724,0.0386 -2.83909,-2.70067 -2.83908,-2.70067 -9.16243,-2.92183 c -5.03934,-1.607 -9.99871,-3.45265 -11.02083,-4.10143 l -1.85839,-1.17962 0,-2.37194 0,-2.37194 1.32742,-0.45416 1.32743,-0.45417 0,-3.67618 0,-3.67619 4.77872,-1.41197 4.77872,-1.41198 1.31888,-1.82977 1.3189,-1.82977 -1.6266,-1.84485 -1.6266,-1.84484 -5.00199,0.5773 c -2.75108,0.31751 -6.57201,1.24991 -8.49096,2.07199 l -3.48899,1.49468 -0.93282,2.51833 -0.93283,2.51832 -3.25026,2.80715 -3.25026,2.80715 -4.00925,1.3257 c -2.20508,0.72914 -4.48711,1.68464 -5.07118,2.12335 -0.58406,0.4387 -2.35579,1.11463 -3.93718,1.50208 l -2.87522,0.70444 -2.90563,2.76395 -2.90562,2.76397 -2.18367,-0.32064 -2.18369,-0.32068 0.33389,-2.93794 0.33388,-2.93794 -1.1238,-2.15529 -1.12379,-2.15529 -5.58172,-0.91193 -5.58171,-0.91195 0,-1.62473 0,-1.62474 3.47947,-1.78385 3.47947,-1.78385 3.13428,-4.44104 3.13429,-4.44103 3.33351,1.43866 3.3335,1.43866 4.90029,-1.90925 4.90028,-1.90924 2.432,-3.9442 2.43198,-3.94419 -6.12919,0.72749 -6.12918,0.72749 -2.4174,1.60899 -2.41739,1.609 -4.70728,-0.66225 -4.70729,-0.66224 0.60118,1.60801 0.60118,1.60803 -4.89619,0 -4.89618,0 -3.9627,2.17997 -3.96269,2.17997 -2.34487,0 -2.34487,0 -1.38764,1.91605 c -0.7632,1.05382 -3.91842,3.8695 -7.01159,6.25707 l -5.62394,4.34104 -2.64926,4.64 -2.64924,4.64001 0.25466,4.43004 0.25466,4.43005 1.11594,0.75017 c 0.61377,0.41259 1.95893,1.77739 2.98925,3.03288 l 1.8733,2.28272 -1.62207,3.98471 -1.62208,3.98465 -1.04768,0 -1.04769,0 0,2.11566 0,2.11568 1.13433,0.7196 1.13434,0.7195 -0.53631,1.4345 -0.53632,1.4346 1.61043,0.6343 1.61042,0.6343 -0.70923,3.3144 -0.70922,3.3143 2.56122,3.499 c 1.40867,1.9244 2.86945,4.3572 3.24618,5.4063 l 0.68495,1.9075 1.99262,0 1.99261,0 1.77212,2.01 1.77211,2.0098 5.79343,1.3307 5.79344,1.3308 2.42197,2.0249 2.42196,2.0248 -7.96453,-0.2746 -7.96454,-0.2748 -1.94202,-0.8804 -1.94202,-0.8804 -8.67736,0.8243 c -4.77255,0.4533 -10.07922,0.7512 -11.79259,0.662 l -3.11522,-0.1623 -1.39191,-1.1857 -1.39192,-1.1857 -2.92642,0.7095 c -1.60954,0.3903 -4.77471,0.9296 -7.03372,1.1985 l -4.10728,0.4889 -5.33828,-1.7922 -5.3383,-1.7922 -1.44327,2.026 -1.44327,2.0259 -1.27036,-1.3039 -1.27034,-1.304 -3.3274,0 c -1.83008,0 -3.66635,0.3479 -4.08061,0.7731 l -0.7532,0.7732 -4.13033,-0.3062 -4.13033,-0.3061 -1.93058,1.0186 c -1.06181,0.5602 -3.96152,1.3369 -6.4438,1.7259 l -4.51324,0.7073 0.0126,-0.8304 z m 65.30604,-75.23864 c 0.58927,-0.44044 2.26182,-2.65483 3.71678,-4.92088 l 2.64537,-4.1201 4.91647,-3.26682 4.91648,-3.26682 6.94029,-1.49044 c 3.81716,-0.81975 8.77283,-2.10127 11.0126,-2.84782 l 4.0723,-1.35737 3.43999,-3.3901 3.43999,-3.39011 0.0112,-2.99746 0.0114,-2.99746 -1.54014,0 -1.54014,0 -0.9267,-1.69966 -0.9267,-1.69965 -3.63931,-0.70939 c -2.00161,-0.39016 -5.55079,-0.63427 -7.88705,-0.54246 -2.33627,0.0918 -7.6674,0.22793 -11.84695,0.30248 l -7.59921,0.13557 -1.85734,2.10655 -1.85735,2.10656 -1.98557,0 -1.98557,0 -1.114,2.99746 c -0.61269,1.6486 -1.48918,5.05058 -1.94776,7.55996 l -0.83376,4.5625 -3.33565,3.42374 c -1.83461,1.88306 -3.39068,3.99914 -3.45793,4.70239 -0.24118,2.52166 0.3464,5.65976 1.27863,6.82886 l 0.9491,1.19028 -0.75649,0.77646 -0.75648,0.77647 1.56215,1.01403 c 1.87115,1.2146 5.39544,1.32381 6.88133,0.21323 z m -42.69652,-19.0142 2.9763,-1.17343 2.13077,-4.28698 2.13077,-4.28697 -1.19053,-1.47238 -1.19052,-1.47239 -7.10236,-0.72011 c -3.9063,-0.39607 -8.91959,-1.19347 -11.14065,-1.77201 l -4.03827,-1.05188 -2.1066,-2.16224 -2.1066,-2.16224 0.63238,-1.05022 0.63237,-1.05024 4.05295,0 4.05294,0 5.9728,-2.71122 5.97279,-2.71122 0,-1.48319 0,-1.48318 -3.98227,-1.72067 c -2.19024,-0.94636 -4.69907,-1.70596 -5.57517,-1.688 -0.8761,0.018 -4.74175,-0.24506 -8.59033,-0.58451 l -6.99742,-0.6172 -2.29453,3.1855 -2.29454,3.18549 0,2.03412 0,2.03411 -2.65485,2.55997 c -1.46016,1.40799 -2.65485,2.91179 -2.65485,3.3418 0,0.43 1.19469,1.08958 2.65485,1.46574 l 2.65485,0.68392 0,1.06922 c 0,0.58807 -0.83628,1.92759 -1.8584,2.9767 l -1.85839,1.90748 -5.0442,-0.33222 -5.04421,-0.33222 0.0162,2.51219 c 0.0249,3.83476 1.01533,4.74175 8.47924,7.7643 8.41391,3.40727 11.76495,3.87455 23.36264,3.2577 l 9.02648,-0.48008 2.9763,-1.17344 z"
         style="fill:#025f0b;fill-opacity:1" />
    </g>
  </g>
</svg>
