<?xml version="1.0" encoding="iso-8859-1"?>
<!DOCTYPE svg PUBLIC "-//W3C//DTD SVG 1.0//EN" "http://www.w3.org/TR/2001/REC-SVG-20010904/DTD/svg10.dtd">
<!-- Creator: CorelDRAW -->
<svg xmlns="http://www.w3.org/2000/svg" xmlns:odm="http://product.corel.com/CGS/11/cddns/" xml:space="preserve" width="600px" height="401px" style="shape-rendering:geometricPrecision; text-rendering:geometricPrecision; image-rendering:optimizeQuality; fill-rule:evenodd"
     viewBox="0 0 600 402">
 <defs>
  <style type="text/css">
   <![CDATA[
    .str0 {stroke:#006bb9;stroke-width:8}
    .str1 {stroke:#FFFFFF;stroke-width:8}
    .str2 {stroke:#FFFFFF;stroke-width:8;stroke-linejoin:round}
    .fil4 {fill:#006bb9}
    .fil5 {fill:#FF0000}
    .fil3 {fill:#FFEE00}
    .fil1 {fill:#FFFFFF}
   ]]>
  </style>
 </defs>
 <g id="Layer 1">
  <rect class="fil1" x="0" y="0" width="600" height="402"/>
  <circle class="fil1 str0" cx="292" cy="153" r="119"/>
  <path class="fil3 str1" d="M261 65c-7,96 -48,155 -99,203 26,-9 45,-3 60,8 22,14 47,5 54,-26 16,-73 8,-133 -15,-185z"/>
  <path class="fil4 str2" d="M336 17c-10,129 -65,208 -134,272 35,-12 60,-4 80,11 30,18 64,7 72,-34 23,-99 12,-179 -18,-249z"/>
  <path class="fil5 str2" d="M404 68c-8,105 -52,170 -108,222 28,-9 49,-3 65,9 24,15 52,6 59,-28 18,-81 9,-146 -16,-203z"/>
  <path class="fil4" d="M185 360l0 -32 -1 0c-1,0 -2,0 -2,-1 -1,-1 -1,-2 -1,-3 0,-1 0,-2 1,-3 0,-1 1,-1 2,-1l13 0c3,0 6,1 8,4 2,3 3,6 3,9 0,2 -1,4 -1,5 -1,2 -1,3 -2,5 1,1 3,3 4,5 0,2 1,4 1,7 0,2 -1,4 -1,6 -1,1 -1,2 -2,3 -1,1 -2,2 -3,3 -1,0 -3,1 -5,1l-15 0c-1,0 -2,-1 -2,-2 -1,0 -1,-1 -1,-2 0,-2 0,-3 1,-3 0,-1 1,-1 2,-1l1 0zm5 -20l6 0c2,0 4,-1 5,-3 1,-1 1,-2 1,-4 0,-1 0,-2 -1,-3 -1,-2 -2,-2 -4,-2l-7 0 0 12zm0 20l9 0c2,0 4,-1 5,-2 0,-1 1,-2 1,-3 0,-2 -1,-3 -2,-5 -2,-1 -3,-2 -6,-2l-7 0 0 12z"/>
  <path class="fil4" d="M239 354l-21 0c1,2 2,4 3,5 2,1 3,2 6,2 2,0 4,-1 7,-2 2,-1 3,-1 3,-1 1,0 1,0 2,1 0,1 0,2 0,3 0,1 0,2 0,3 -1,1 -3,2 -5,3 -3,0 -5,1 -8,1 -4,0 -7,-2 -10,-6 -2,-3 -3,-8 -3,-13 0,-6 1,-10 4,-14 2,-3 6,-5 9,-5 2,0 4,0 6,1 1,2 3,3 4,4 1,2 2,5 3,7 0,2 0,5 0,7l0 4zm-5 -8c-1,-3 -2,-4 -3,-5 -2,-2 -3,-2 -5,-2 -2,0 -3,0 -4,2 -2,1 -3,2 -4,5l16 0z"/>
  <path class="fil4" d="M252 332l0 3c1,-2 2,-3 3,-3 1,-1 3,-1 4,-1 3,0 5,1 7,4 2,3 2,6 2,10l0 15c1,0 2,0 3,1 0,0 0,1 0,3 0,1 0,2 0,2 -1,1 -2,2 -3,2l-5 0c-1,0 -2,-1 -2,-2 -1,0 -1,-1 -1,-2 0,-2 0,-3 1,-3 0,-1 1,-1 2,-1l0 -16c0,-1 0,-3 -1,-4 -1,-1 -2,-1 -3,-1 -2,0 -3,0 -3,1 -1,1 -2,2 -4,5l0 15c1,0 2,0 3,0 1,1 1,2 1,4 0,1 0,2 -1,2 0,1 -1,2 -2,2l-6 0c-2,0 -2,-1 -3,-2 -1,0 -1,-1 -1,-2 0,-2 1,-3 1,-4 1,0 2,0 3,0l0 -20c-1,0 -2,0 -2,-1 -1,-1 -1,-2 -1,-3 0,-1 0,-2 1,-3 0,-1 1,-1 2,-1l5 0z"/>
  <path class="fil4" d="M282 316l0 19c1,-2 2,-3 4,-3 1,-1 2,-1 3,-1 4,0 7,2 10,6 2,3 3,8 3,14 0,5 -1,9 -3,13 -3,3 -6,5 -10,5 -1,0 -2,0 -4,-1 -1,0 -2,-1 -3,-2l0 2 -6 0c-2,0 -2,-1 -3,-2 0,0 -1,-1 -1,-2 0,-2 1,-3 1,-3 1,-1 1,-1 3,-1l1 0 0 -35 -1 0c-2,0 -2,-1 -3,-2 0,0 -1,-1 -1,-2 0,-2 1,-3 1,-3 1,-1 1,-2 3,-2l6 0zm15 35c0,-4 -1,-6 -2,-9 -2,-2 -3,-3 -6,-3 -2,0 -4,1 -5,3 -2,3 -2,5 -2,9 0,3 0,5 2,7 1,2 3,3 5,3 3,0 5,-1 6,-3 1,-2 2,-4 2,-7z"/>
  <path class="fil4" d="M318 332l0 5c2,-3 4,-4 5,-5 1,-1 3,-1 4,-1 1,0 3,1 4,3 2,1 2,2 2,4 0,1 0,2 -1,3 0,0 -1,1 -2,1 0,0 -1,-1 -2,-2 0,-1 -1,-1 -1,-1 -1,0 -2,1 -4,2 -1,1 -3,4 -5,6l0 13 7 0c2,0 2,0 3,1 0,0 1,1 1,3 0,1 -1,2 -1,2 -1,1 -1,2 -3,2l-15 0c-1,0 -2,-1 -3,-2 0,0 -1,-1 -1,-2 0,-2 1,-3 1,-3 1,-1 2,-1 3,-1l3 0 0 -20 -2 0c-1,0 -2,0 -3,-1 0,-1 0,-2 0,-3 0,-1 0,-2 0,-3 1,-1 2,-1 3,-1l7 0z"/>
  <path class="fil4" d="M363 350c0,3 0,6 -1,9 -1,3 -3,6 -5,7 -2,2 -5,3 -7,3 -2,0 -5,-1 -7,-3 -2,-1 -4,-4 -5,-7 -1,-2 -1,-6 -1,-9 0,-3 0,-6 1,-9 1,-3 3,-6 5,-8 2,-1 5,-2 7,-2 2,0 5,1 7,2 2,2 3,5 5,8 1,3 1,6 1,9zm-5 0c0,-2 0,-5 -2,-7 -1,-3 -3,-4 -6,-4 -2,0 -4,1 -6,3 -1,3 -2,5 -2,8 0,3 1,5 2,8 2,2 4,3 6,3 2,0 4,-1 6,-3 1,-3 2,-5 2,-8z"/>
  <path class="fil4" d="M394 350c0,3 0,6 -2,9 -1,3 -2,6 -4,7 -3,2 -5,3 -7,3 -3,0 -5,-1 -7,-3 -2,-1 -4,-4 -5,-7 -1,-2 -2,-6 -2,-9 0,-3 1,-6 2,-9 1,-3 3,-6 5,-8 2,-1 4,-2 7,-2 2,0 4,1 7,2 2,2 3,5 4,8 2,3 2,6 2,9zm-5 0c0,-2 -1,-5 -2,-7 -1,-3 -4,-4 -6,-4 -3,0 -4,1 -6,3 -2,3 -2,5 -2,8 0,3 0,5 2,8 2,2 3,3 6,3 2,0 4,-1 6,-3 1,-3 2,-5 2,-8z"/>
  <path class="fil4" d="M407 354l0 14 -6 0c-1,0 -2,-1 -2,-2 -1,0 -1,-1 -1,-2 0,-2 0,-3 1,-3 0,-1 1,-1 2,-1l1 0 0 -35 -1 0c-1,0 -2,-1 -2,-2 -1,0 -1,-1 -1,-2 0,-2 0,-3 1,-3 0,-1 1,-2 2,-2l6 0 0 28 4 -5c0,-1 0,-2 0,-3 0,-1 0,-2 1,-3 0,-1 1,-1 2,-1l6 0c1,0 2,0 3,1 0,1 0,2 0,3 0,1 0,2 0,3 -1,1 -2,1 -3,1l-1 0 -7 8 9 12 1 0c1,0 2,0 3,1 0,0 1,1 1,3 0,1 -1,2 -1,2 -1,1 -2,2 -3,2l-6 0c-1,0 -2,-1 -2,-2 -1,0 -1,-1 -1,-2 0,-1 0,-2 1,-3l-6 -8 -1 1z"/>
 </g>
</svg>
