<?xml version="1.0" encoding="iso-8859-1"?>
<!DOCTYPE svg PUBLIC "-//W3C//DTD SVG 1.0//EN" "http://www.w3.org/TR/2001/REC-SVG-20010904/DTD/svg10.dtd">
<!-- Creator: CorelDRAW -->
<svg xmlns="http://www.w3.org/2000/svg" xmlns:odm="http://product.corel.com/CGS/11/cddns/" xml:space="preserve" width="600px" height="367px" style="shape-rendering:geometricPrecision; text-rendering:geometricPrecision; image-rendering:optimizeQuality; fill-rule:evenodd"
     viewBox="0 0 600 366">
 <defs>
  <style type="text/css">
   <![CDATA[
    .fil1 {fill:#064183}
    .fil2 {fill:#067D2D}
    .fil0 {fill:#FFFFFF}
   ]]>
  </style>
 </defs>
 <path class="fil0" d="M0 0l600 0 0 366 -600 0 0 -366z"/>
 <g id="Layer 1">
  <path class="fil1" d="M386 151c-24,8 -47,16 -71,25 -25,9 -45,-11 -47,-32 -2,-16 12,-35 36,-37 -9,-10 -18,-19 -26,-29 70,-15 103,13 108,73z"/>
  <path class="fil2" d="M420 198c-15,51 -63,88 -118,88 -68,0 -124,-56 -124,-124 0,-69 56,-125 124,-125 61,0 112,45 122,103l-38 11c-5,-42 -41,-75 -84,-75 -47,0 -85,39 -85,86 0,46 38,85 85,85 38,0 70,-26 81,-60l37 11z"/>
  <circle class="fil1" cx="278" cy="100" r="6"/>
  <path class="fil1" d="M214 312c-3,-4 -7,-7 -12,-7 -8,0 -14,7 -14,15 0,9 5,16 14,16 5,0 9,-2 12,-6l4 0c-3,6 -9,10 -16,10 -10,0 -18,-9 -18,-20 0,-9 8,-18 18,-18 7,0 13,3 16,10l-4 0z"/>
  <path class="fil1" d="M198 336l-4 0 31 -35 4 0 -1 38 -3 0 0 -16 -14 0 -13 13zm27 -16l0 -14 -12 14 12 0z"/>
  <path class="fil1" d="M236 339l-3 0 0 -38 9 0c2,0 3,1 5,1 4,1 7,6 7,11 0,6 -3,11 -8,11l8 15 -4 0 -8 -15 -6 0 0 -3 8 0c4,0 7,-3 7,-8 0,-3 -2,-7 -5,-8 -1,0 -3,0 -5,0l-5 0 0 34z"/>
  <path class="fil1" d="M284 321c0,8 6,16 15,16 9,0 15,-8 15,-17 0,-8 -7,-15 -15,-15 -8,0 -15,7 -15,16zm-4 0c0,-11 9,-20 19,-20 11,0 19,9 19,20 0,10 -8,19 -19,19 -11,0 -19,-9 -19,-19z"/>
  <path class="fil1" d="M340 339l-20 0 0 -38 4 0 0 34 16 0 0 4z"/>
  <path class="fil1" d="M347 339l-4 0 0 -34 -7 0 0 -4 19 0 0 4 -8 0 0 34z"/>
  <path class="fil1" d="M414 334l-1 -33 4 0 0 38 -4 0 -19 -33 1 33 -4 0 0 -38 4 0 19 33z"/>
  <path class="fil1" d="M354 321c0,8 7,16 16,16 9,0 15,-8 15,-17 0,-8 -7,-15 -15,-15 -9,0 -16,7 -16,16zm-3 0c0,-11 8,-20 19,-20 10,0 19,9 19,20 0,10 -9,19 -19,19 -11,0 -19,-9 -19,-19z"/>
  <path class="fil1" d="M340 334l-15 0 0 -32 4 0 0 29 11 0 0 3z"/>
  <path class="fil1" d="M260 339l-3 0 0 -38 9 0c2,0 3,1 4,1 5,1 8,6 8,11 0,6 -3,11 -8,11l8 15 -4 0 -8 -15 -6 0 0 -3 7 0c4,0 7,-3 7,-8 0,-3 -1,-7 -4,-8 -1,0 -3,0 -5,0l-5 0 0 34z"/>
 </g>
</svg>
