<?xml version="1.0" encoding="UTF-8" standalone="no"?>
<!-- Created with Inkscape (http://www.inkscape.org/) -->
<svg
   xmlns:dc="http://purl.org/dc/elements/1.1/"
   xmlns:cc="http://web.resource.org/cc/"
   xmlns:rdf="http://www.w3.org/1999/02/22-rdf-syntax-ns#"
   xmlns:svg="http://www.w3.org/2000/svg"
   xmlns="http://www.w3.org/2000/svg"
   xmlns:xlink="http://www.w3.org/1999/xlink"
   xmlns:sodipodi="http://sodipodi.sourceforge.net/DTD/sodipodi-0.dtd"
   xmlns:inkscape="http://www.inkscape.org/namespaces/inkscape"
   id="svg1890"
   sodipodi:version="0.32"
   inkscape:version="0.44"
   width="325"
   height="217"
   version="1.0"
   sodipodi:docbase="C:\Documents and Settings\다니엘\바탕 화면"
   sodipodi:docname="cc.svg">
  <metadata
     id="metadata1895">
    <rdf:RDF>
      <cc:Work
         rdf:about="">
        <dc:format>image/svg+xml</dc:format>
        <dc:type
           rdf:resource="http://purl.org/dc/dcmitype/StillImage" />
      </cc:Work>
    </rdf:RDF>
  </metadata>
  <defs
     id="defs1893" />
  <sodipodi:namedview
     inkscape:window-height="579"
     inkscape:window-width="847"
     inkscape:pageshadow="2"
     inkscape:pageopacity="0.0"
     guidetolerance="10.0"
     gridtolerance="10.0"
     objecttolerance="10.0"
     borderopacity="1.0"
     bordercolor="#666666"
     pagecolor="#ffffff"
     id="base"
     width="1800px"
     height="1200px"
     inkscape:zoom="0.31416667"
     inkscape:cx="900"
     inkscape:cy="211.11671"
     inkscape:window-x="262"
     inkscape:window-y="79"
     inkscape:current-layer="svg1890" />
  <rect
     style="opacity:1;fill:#1081de;fill-opacity:1;stroke:none;stroke-width:1;stroke-linecap:round;stroke-linejoin:miter;stroke-miterlimit:4;stroke-dasharray:none;stroke-opacity:1"
     id="rect2834"
     width="325"
     height="217"
     x="-5.5146154e-007"
     y="0" />
  <path
     style="fill:white"
     d="M 135.5,175.75499 C 148.74336,163.86097 161.57129,151.62864 173.27069,138.17327 C 176.36572,134.40078 176.84984,129.54409 174.57028,125.1359 C 173.2626,122.60713 156.82396,117.03997 156.90111,114.72798 C 160.8308,111.09258 169.49643,110.91576 174.64921,110.71121 C 182.49578,110.52396 183.4679,110.69318 183.21705,112.20258 C 183.01211,113.43576 184.03436,114.20144 186.92483,114.97976 C 191.67032,116.25759 192.46884,117.25544 190.97685,120.04326 C 189.30797,123.16159 191.37358,125.02104 196.37244,124.90032 C 198.6426,124.8455 201.5859,124.49694 202.91311,124.12575 C 205.18969,123.48904 205.09195,123.34521 201.1855,121.58365 C 198.9081,120.55669 196.76696,118.84112 196.42741,117.77128 C 195.5748,115.08497 196.69886,109.68169 199.70833,102 C 203.99772,91.051346 206.30293,89.391539 223.29617,85.016144 C 235.04533,81.990988 260.57602,71.08624 266.51493,66.556411 C 269.64029,64.172583 276,53.285069 276,50.318435 C 276,49.569268 271.19915,52.570804 265.33145,56.988515 C 259.07937,61.695612 252.97329,65.466861 250.58145,66.098435 C 239.89989,68.918935 234.71977,70.665196 225.15691,74.669253 C 215.96999,78.5159 213.94665,79 207.05613,79 C 198.61877,79 195.84067,79.698461 186,84.293862 C 181.19315,86.538566 177.41612,89.459185 171.5,95.506087 C 162.25688,104.95354 162.12689,105 144.93555,105 C 135.20516,105 130.95396,104.4708 120.83564,102 C 107.53061,98.751032 106,98.534399 106,99.900259 C 106,100.3954 108.25139,101.34062 111.00308,102.00074 C 119.48331,104.03511 118.26672,105.34207 108.63929,104.54011 C 103.16694,104.08427 100,104.1802 100,104.80182 C 100,106.00048 102.5875,106.66628 110.75,107.56793 C 117.59396,108.32394 119.22206,109.95608 113.25,110.07412 C 111.1875,110.11489 107.475,110.54096 105,111.02094 C 101.7795,111.64549 104.12423,112.83542 112.71222,112.53511 C 119.31222,112.30432 129.44056,111.37964 135.47903,111.77719 C 146.36962,112.49418 146.46603,112.52276 147.44855,115.32529 C 148.27761,117.69011 147.95507,119.04526 145.46952,123.64009 C 143.10667,128.00811 142.49368,130.39323 142.46907,135.3148 C 142.43962,141.2047 142.16554,141.88759 136.72826,149.61809 C 130.11702,159.45147 129.09955,164.05166 122.08966,173.63469 C 118.5903,178.19372 110.56327,186.32102 111.29121,189.68349 C 111.6694,191.43042 130.13255,181.22044 135.5,175.75499 z "
     id="path1919"
     sodipodi:nodetypes="cssssssssssssssssssssssssssssssssssssssc" />
  <path
     style="fill:white"
     d="M 222,132.72084 C 222,132.01731 220.46015,129.85633 218.57811,127.91868 C 216.31372,125.58738 215.04524,123.2294 214.82811,120.94784 C 214.53581,117.87626 213.89978,117.20339 209,114.7821 C 205.975,113.28725 202.45899,112.04975 201.18664,112.0321 C 199.17481,112.00418 198.91413,112.4227 199.18664,115.24305 C 199.50546,118.54257 201.24711,119.9247 207,121.44353 C 209.2793,122.04529 209.34551,121.97891 207.75,120.69154 C 205.35754,118.76113 205.55359,118 208.4433,118 C 210.95023,118 214.92105,122.19298 213.01561,122.82813 C 211.20947,123.43018 211.91924,124.95707 216.12736,129.52234 C 220.34047,134.09303 222,134.99688 222,132.72084 z "
     id="path1913" />
  <path
     style="fill:white"
     d="M 189.06111,123.62223 C 188.21222,121.82278 188.20283,119.56609 188.99733,118.88667 C 191.17013,117.02861 180.20045,115.12617 176.5474,113.03934 C 172.45875,110.99791 167.92646,113.03463 166.28809,117 C 166.45586,117 170.13995,119.38217 175.04656,120.4817 L 189.06111,123.62223 z "
     id="path1911"
     sodipodi:nodetypes="cssssc" />
  <path
     sodipodi:type="star"
     style="opacity:1;fill:white;fill-opacity:1;stroke:none;stroke-width:1;stroke-linecap:round;stroke-linejoin:miter;stroke-miterlimit:4;stroke-dasharray:none;stroke-opacity:1"
     id="path2818"
     sodipodi:sides="5"
     sodipodi:cx="215.27321"
     sodipodi:cy="54.681698"
     sodipodi:r1="16.692308"
     sodipodi:r2="6.0485874"
     sodipodi:arg1="-1.5707963"
     sodipodi:arg2="-0.9424778"
     inkscape:flatsided="false"
     inkscape:rounded="0"
     inkscape:randomized="0"
     d="M 215.27321,37.989389 L 218.82848,49.788288 L 231.14854,49.523491 L 221.02576,56.550814 L 225.0847,68.186059 L 215.27321,60.730285 L 205.46172,68.186059 L 209.52066,56.550814 L 199.39788,49.52349 L 211.71794,49.788288 L 215.27321,37.989389 z " />
  <use
     x="0"
     y="0"
     xlink:href="#path2818"
     id="use2820"
     transform="translate(23.59947,52.95491)"
     width="325"
     height="217" />
  <use
     x="0"
     y="0"
     xlink:href="#path2818"
     id="use2822"
     transform="translate(-55.83289,-19.57029)"
     width="325"
     height="217" />
  <use
     x="0"
     y="0"
     xlink:href="#use2822"
     id="use2824"
     transform="translate(-55.25729,19.57029)"
     width="325"
     height="217" />
  <use
     x="0"
     y="0"
     xlink:href="#use2824"
     id="use2826"
     transform="translate(-21.87268,52.95491)"
     width="325"
     height="217" />
  <use
     x="0"
     y="0"
     xlink:href="#use2826"
     id="use2828"
     transform="translate(23.02387,50.65252)"
     width="325"
     height="217" />
  <use
     x="0"
     y="0"
     xlink:href="#use2828"
     id="use2830"
     transform="translate(55.25729,23.29709)"
     width="325"
     height="217" />
  <use
     x="0"
     y="0"
     xlink:href="#use2830"
     id="use2832"
     transform="translate(55.83289,-23.02387)"
     width="325"
     height="217" />
</svg>
