<!-- Generator: Adobe Illustrator 12.0.0, SVG Export Plug-In . SVG Version: 6.00 Build 51448)  -->
<svg xmlns:rdf="http://www.w3.org/1999/02/22-rdf-syntax-ns#" xmlns="http://www.w3.org/2000/svg" xml:space="preserve" overflow="visible" height="300" width="450" version="1.1" enable-background="new 25 0 450 300" xmlns:cc="http://creativecommons.org/ns#" xmlns:dc="http://purl.org/dc/elements/1.1/" viewBox="25 0 450 300"><metadata><rdf:RDF><cc:Work rdf:about=""><dc:format>image/svg+xml</dc:format><dc:type rdf:resource="http://purl.org/dc/dcmitype/StillImage"/><dc:title/></cc:Work></rdf:RDF></metadata><defs>
	</defs>
<rect height="300" width="450" y="0" x="25" fill="#000191"/><rect height="150" width="450" y="0" x="25" fill="#be001c"/><rect height="10" width="450" y="145" x="25" fill="#FFF"/><polygon points="200.27,177.76,169.25,272.38,249.5,213.74,329.75,272.38,298.73,177.76,377.9,119.9,279.76,119.9,249.5,27.615,219.24,119.9,121.1,119.9" fill="#FFF" transform="matrix(1.143931,0,0,1.143931,-35.410784,-21.58965)"/>
<path d="m277.96,167.25a50.319,53.195,0,1,1,-100.64,0,50.319,53.195,0,1,1,100.64,0z" fill-rule="evenodd" transform="matrix(1.1650793,0,0,1.102102,-15.213744,-20.591193)" fill="#FFF"/><circle d="m 298,163.832 c 0,26.78581 -21.71419,48.5 -48.5,48.5 -26.78581,0 -48.5,-21.71419 -48.5,-48.5 0,-26.78581 21.71419,-48.5 48.5,-48.5 26.78581,0 48.5,21.71419 48.5,48.5 z" cx="249.5" transform="matrix(1.1217587,0,0,1.1217587,-29.878795,-20.041965)" cy="163.83" r="48.5" fill="#d5a735"/><polygon transform="matrix(1.1217587,0,0,1.1217587,-29.878795,-20.041965)" stroke="#000" points="260.65,167.5,278.58,154.4,256.35,154.4,249.5,133.5,242.65,154.4,220.42,154.4,238.35,167.5,231.33,188.93,249.5,175.65,267.68,188.93" stroke-width="0.95099998" fill="none"/><circle stroke-width="0.951" d="m 294.513,164.149 c 0,24.86 -20.15301,45.013 -45.013,45.013 -24.85999,0 -45.013,-20.153 -45.013,-45.013 0,-24.85999 20.15301,-45.013 45.013,-45.013 24.85999,0 45.013,20.15301 45.013,45.013 z" cx="249.5" stroke="#000" transform="matrix(1.1217587,0,0,1.1217587,-29.878795,-20.041965)" cy="164.15" r="45.013" fill="none"/><g transform="matrix(1.1217587,0,0,1.1217587,-29.878795,-20.041965)">
			<path d="m250.44,132.59c-0.388-0.011-0.654-0.326-0.644-0.736,0.013-0.411,0.304-0.711,0.704-0.7,0.399,0.011,0.664,0.314,0.654,0.737-0.014,0.411-0.296,0.711-0.704,0.7l-0.01-0.001z"/>
			<path d="m252.78,132.74c-0.387-0.039-0.629-0.373-0.588-0.782,0.041-0.408,0.355-0.686,0.753-0.646,0.397,0.04,0.642,0.362,0.599,0.781-0.041,0.409-0.344,0.688-0.753,0.648l-0.011-0.001z"/>
			<path d="m255.11,133.07c-0.383-0.066-0.601-0.417-0.527-0.822,0.068-0.404,0.404-0.659,0.799-0.589,0.392,0.068,0.611,0.409,0.536,0.825-0.068,0.405-0.394,0.661-0.799,0.59l-0.009-0.004z"/>
			<path d="m257.41,133.57c-0.376-0.095-0.565-0.461-0.465-0.858,0.101-0.398,0.453-0.627,0.841-0.529,0.387,0.098,0.579,0.453,0.476,0.862-0.099,0.398-0.441,0.631-0.84,0.53l-0.012-0.005z"/>
			<path d="m259.65,134.23c-0.368-0.123-0.531-0.501-0.401-0.891,0.131-0.39,0.497-0.592,0.877-0.466,0.38,0.127,0.545,0.495,0.413,0.895-0.13,0.39-0.488,0.595-0.878,0.466l-0.011-0.004z"/>
			<path d="m261.86,135.06c-0.358-0.15-0.492-0.539-0.333-0.918,0.158-0.379,0.539-0.554,0.908-0.399,0.37,0.155,0.507,0.535,0.343,0.923-0.159,0.379-0.53,0.558-0.909,0.398l-0.009-0.004z"/>
			<path d="m263.99,136.06c-0.347-0.176-0.45-0.574-0.265-0.94,0.187-0.366,0.58-0.511,0.937-0.331,0.356,0.18,0.466,0.569,0.274,0.946-0.187,0.366-0.572,0.516-0.936,0.331l-0.01-0.006z"/>
			<path d="m266.05,137.21c-0.331-0.201-0.407-0.607-0.192-0.958,0.212-0.352,0.615-0.467,0.957-0.261,0.342,0.208,0.422,0.604,0.203,0.965-0.212,0.352-0.606,0.474-0.957,0.259l-0.011-0.005z"/>
			<path d="m268.01,138.5c-0.315-0.225-0.36-0.634-0.123-0.972,0.238-0.335,0.65-0.42,0.976-0.189,0.325,0.232,0.377,0.633,0.132,0.976-0.239,0.335-0.64,0.427-0.976,0.189l-0.009-0.004z"/>
			<path d="m269.87,139.94c-0.299-0.248-0.313-0.659-0.052-0.976,0.263-0.317,0.679-0.372,0.985-0.117,0.308,0.255,0.33,0.658,0.06,0.983-0.261,0.317-0.669,0.38-0.985,0.118l-0.008-0.008z"/>
			<path d="m271.62,141.5c-0.281-0.268-0.265-0.68,0.02-0.976,0.286-0.298,0.703-0.322,0.993-0.045,0.289,0.277,0.28,0.681-0.013,0.985-0.284,0.297-0.694,0.33-0.992,0.045l-0.008-0.009z"/>
			<path d="m273.26,143.2c-0.258-0.29-0.215-0.698,0.093-0.973,0.305-0.275,0.727-0.269,0.993,0.028,0.268,0.297,0.229,0.699-0.085,0.982-0.306,0.274-0.718,0.277-0.992-0.029l-0.009-0.008z"/>
			<path d="m274.76,145.01c-0.238-0.306-0.162-0.712,0.161-0.963,0.327-0.252,0.745-0.215,0.99,0.101,0.243,0.316,0.179,0.714-0.156,0.973-0.325,0.252-0.736,0.224-0.988-0.101l-0.007-0.01z"/>
			<path d="m276.12,146.92c-0.215-0.323-0.109-0.722,0.233-0.949,0.341-0.227,0.757-0.16,0.977,0.173s0.124,0.725-0.226,0.958c-0.342,0.228-0.751,0.169-0.978-0.172l-0.006-0.01z"/>
			<path d="m277.35,148.93c-0.189-0.337-0.057-0.729,0.302-0.929,0.358-0.202,0.769-0.104,0.963,0.244,0.196,0.349,0.072,0.732-0.297,0.939-0.358,0.202-0.762,0.114-0.964-0.245l-0.004-0.009z"/>
			<path d="m278.42,151.04c-0.163-0.352,0-0.73,0.373-0.904,0.372-0.174,0.773-0.046,0.94,0.315,0.17,0.362,0.018,0.736-0.366,0.914-0.374,0.175-0.768,0.058-0.941-0.315l-0.006-0.01z"/>
			<path d="m279.34,153.21c-0.139-0.362,0.053-0.729,0.437-0.874,0.385-0.146,0.773,0.011,0.916,0.384,0.141,0.374-0.038,0.734-0.433,0.885-0.384,0.146-0.77,0-0.916-0.385l-0.004-0.01z"/>
			<path d="m280.08,155.43c-0.11-0.372,0.106-0.723,0.5-0.839,0.394-0.117,0.771,0.067,0.886,0.451,0.113,0.383-0.095,0.73-0.497,0.852-0.394,0.117-0.769-0.059-0.886-0.452l-0.003-0.012z"/>
			<path d="m280.66,157.7c-0.083-0.378,0.158-0.713,0.561-0.8,0.402-0.088,0.765,0.125,0.849,0.516,0.085,0.39-0.145,0.721-0.558,0.811-0.401,0.09-0.762-0.113-0.85-0.515l-0.002-0.012z"/>
			<path d="m281.08,160.03c-0.055-0.383,0.213-0.698,0.618-0.756,0.406-0.058,0.752,0.182,0.809,0.577,0.057,0.394-0.199,0.708-0.616,0.768-0.407,0.058-0.75-0.171-0.809-0.578l-0.002-0.011z"/>
			<path d="m281.31,162.37c-0.025-0.387,0.263-0.682,0.672-0.708,0.412-0.027,0.736,0.235,0.764,0.634s-0.251,0.693-0.67,0.721c-0.411,0.027-0.734-0.225-0.764-0.635l-0.002-0.012z"/>
			<path d="m281.38,164.72c0.007-0.388,0.317-0.655,0.731-0.651,0.411,0.007,0.713,0.299,0.707,0.696-0.008,0.399-0.308,0.668-0.73,0.66-0.411-0.007-0.715-0.285-0.708-0.694v-0.011z"/>
			<path d="m281.28,167.07c0.029-0.386,0.358-0.635,0.77-0.604,0.409,0.031,0.693,0.34,0.662,0.738-0.03,0.397-0.349,0.649-0.769,0.614-0.412-0.032-0.697-0.331-0.665-0.738l0.002-0.01z"/>
			<path d="m281,169.4c0.061-0.383,0.406-0.609,0.813-0.546,0.405,0.062,0.667,0.39,0.607,0.786-0.062,0.394-0.396,0.619-0.813,0.557-0.404-0.062-0.669-0.379-0.607-0.784v-0.013z"/>
			<path d="m280.56,171.72c0.087-0.377,0.447-0.576,0.849-0.484,0.402,0.091,0.638,0.439,0.548,0.828-0.092,0.39-0.44,0.59-0.852,0.494-0.399-0.092-0.639-0.426-0.548-0.828l0.003-0.01z"/>
			<path d="m279.94,173.98c0.114-0.371,0.49-0.54,0.883-0.419,0.392,0.12,0.603,0.484,0.485,0.865-0.119,0.382-0.484,0.557-0.887,0.431-0.393-0.12-0.606-0.474-0.486-0.866l0.005-0.011z"/>
			<path d="m279.16,176.19c0.141-0.362,0.53-0.503,0.91-0.354,0.382,0.149,0.567,0.528,0.419,0.899-0.146,0.372-0.521,0.519-0.915,0.364-0.382-0.149-0.569-0.519-0.417-0.9l0.003-0.009z"/>
			<path d="m278.21,178.36c0.169-0.349,0.564-0.462,0.933-0.284,0.373,0.179,0.525,0.569,0.351,0.929-0.175,0.36-0.559,0.479-0.939,0.296-0.37-0.179-0.529-0.56-0.35-0.93l0.005-0.011z"/>
			<path d="m277.11,180.43c0.192-0.337,0.596-0.42,0.952-0.215,0.357,0.205,0.481,0.605,0.282,0.951-0.2,0.346-0.594,0.437-0.96,0.224-0.354-0.205-0.487-0.596-0.281-0.952l0.007-0.008z"/>
			<path d="m275.85,182.42c0.218-0.32,0.626-0.375,0.967-0.144,0.339,0.23,0.435,0.642,0.211,0.972-0.223,0.333-0.622,0.392-0.973,0.153-0.34-0.23-0.441-0.63-0.211-0.971l0.006-0.01z"/>
			<path d="m274.46,184.31c0.24-0.305,0.652-0.328,0.974-0.072,0.319,0.256,0.387,0.67,0.139,0.981-0.247,0.314-0.651,0.344-0.981,0.083-0.321-0.256-0.393-0.661-0.139-0.983l0.007-0.009z"/>
			<path d="m272.92,186.1c0.262-0.285,0.675-0.278,0.978,0,0.302,0.278,0.337,0.697,0.064,0.991-0.27,0.294-0.674,0.294-0.984,0.009-0.302-0.277-0.343-0.688-0.065-0.99l0.007-0.01z"/>
			<path d="m271.27,187.77c0.282-0.265,0.693-0.229,0.975,0.07,0.281,0.3,0.284,0.72-0.008,0.992-0.291,0.274-0.693,0.246-0.982-0.063-0.281-0.297-0.293-0.712,0.007-0.993l0.008-0.006z"/>
			<path d="m269.5,189.3c0.301-0.245,0.707-0.178,0.966,0.142,0.258,0.319,0.23,0.737-0.079,0.99-0.31,0.251-0.71,0.192-0.975-0.137-0.258-0.318-0.241-0.732,0.078-0.989l0.01-0.006z"/>
			<path d="m267.62,190.71c0.318-0.22,0.72-0.125,0.953,0.212,0.235,0.338,0.179,0.754-0.15,0.982-0.328,0.227-0.722,0.141-0.964-0.207-0.234-0.337-0.186-0.745,0.151-0.979l0.01-0.008z"/>
			<path d="m265.63,191.98c0.334-0.198,0.728-0.072,0.936,0.281,0.208,0.354,0.121,0.765-0.224,0.969-0.343,0.204-0.73,0.088-0.944-0.276-0.21-0.353-0.131-0.758,0.223-0.968l0.009-0.006z"/>
			<path d="m263.56,193.1c0.347-0.174,0.73-0.019,0.912,0.352,0.181,0.367,0.063,0.771-0.295,0.947-0.358,0.178-0.735,0.031-0.925-0.346-0.18-0.369-0.073-0.768,0.298-0.947l0.01-0.006z"/>
			<path d="m261.41,194.06c0.358-0.146,0.729,0.035,0.884,0.416s0.006,0.773-0.365,0.925c-0.369,0.15-0.734-0.021-0.894-0.414-0.154-0.381-0.017-0.77,0.364-0.924l0.011-0.003z"/>
			<path d="m259.18,194.86c0.371-0.118,0.726,0.092,0.852,0.482,0.125,0.391-0.053,0.772-0.432,0.894s-0.734-0.076-0.86-0.479c-0.126-0.39,0.041-0.769,0.431-0.893l0.009-0.004z"/>
			<path d="m256.93,195.48c0.376-0.091,0.717,0.144,0.812,0.543s-0.108,0.767-0.496,0.858c-0.388,0.094-0.725-0.131-0.822-0.539-0.097-0.399,0.098-0.764,0.495-0.859l0.011-0.003z"/>
			<path d="m254.62,195.95c0.383-0.062,0.703,0.196,0.771,0.602,0.065,0.408-0.166,0.758-0.56,0.821-0.396,0.063-0.714-0.184-0.78-0.602-0.067-0.405,0.154-0.754,0.559-0.819l0.01-0.002z"/>
			<path d="m252.28,196.24c0.387-0.034,0.687,0.248,0.724,0.657,0.035,0.408-0.219,0.74-0.617,0.775-0.397,0.035-0.696-0.236-0.732-0.655-0.037-0.41,0.209-0.74,0.616-0.776l0.009-0.001z"/>
			<path d="m249.93,196.36c0.389-0.006,0.667,0.299,0.674,0.707,0.007,0.412-0.273,0.725-0.673,0.73-0.399,0.007-0.677-0.285-0.685-0.707-0.007-0.411,0.262-0.724,0.673-0.73h0.011z"/>
			<path d="m247.57,196.3c0.388,0.021,0.644,0.345,0.62,0.756-0.022,0.411-0.325,0.7-0.725,0.678-0.398-0.021-0.655-0.335-0.631-0.756,0.022-0.41,0.314-0.701,0.724-0.68l0.012,0.002z"/>
			<path d="m245.26,196.08c0.385,0.05,0.616,0.391,0.563,0.799-0.053,0.407-0.376,0.676-0.772,0.623-0.396-0.051-0.629-0.38-0.574-0.799,0.053-0.409,0.364-0.678,0.772-0.624l0.011,0.001z"/>
			<path d="m242.92,195.68c0.379,0.078,0.586,0.435,0.502,0.838-0.083,0.401-0.425,0.646-0.816,0.565-0.391-0.082-0.599-0.427-0.514-0.841,0.083-0.403,0.414-0.649,0.816-0.566l0.012,0.004z"/>
			<path d="m240.64,195.12c0.373,0.104,0.552,0.478,0.438,0.873-0.113,0.394-0.472,0.613-0.856,0.502-0.384-0.11-0.566-0.471-0.45-0.877,0.113-0.395,0.461-0.615,0.855-0.502l0.013,0.004z"/>
			<path d="m238.41,194.38c0.364,0.135,0.515,0.518,0.373,0.902-0.142,0.387-0.515,0.576-0.891,0.439-0.375-0.139-0.529-0.511-0.383-0.907,0.142-0.386,0.504-0.581,0.891-0.438l0.01,0.004z"/>
			<path d="m236.24,193.48c0.354,0.161,0.476,0.555,0.305,0.929-0.17,0.376-0.557,0.537-0.922,0.372-0.363-0.165-0.489-0.549-0.315-0.931,0.17-0.376,0.546-0.541,0.921-0.373l0.011,0.003z"/>
			<path d="m234.14,192.43c0.34,0.186,0.433,0.587,0.236,0.947s-0.595,0.494-0.945,0.301c-0.351-0.189-0.449-0.582-0.245-0.954,0.198-0.36,0.585-0.499,0.946-0.3l0.008,0.006z"/>
			<path d="m232.12,191.22c0.325,0.21,0.388,0.617,0.164,0.963-0.223,0.345-0.63,0.45-0.966,0.231-0.335-0.219-0.403-0.614-0.173-0.97,0.223-0.345,0.62-0.456,0.965-0.231l0.01,0.007z"/>
			<path d="m230.2,189.86c0.31,0.234,0.341,0.646,0.094,0.973-0.248,0.326-0.662,0.401-0.98,0.159-0.317-0.241-0.357-0.645-0.103-0.979,0.249-0.329,0.652-0.408,0.979-0.16l0.01,0.007z"/>
			<path d="m228.38,188.38c0.292,0.257,0.294,0.667,0.022,0.976-0.271,0.309-0.688,0.351-0.989,0.087-0.301-0.263-0.31-0.665-0.032-0.983,0.272-0.308,0.681-0.358,0.989-0.088l0.01,0.008z"/>
			<path d="m226.67,186.74c0.272,0.277,0.243,0.688-0.05,0.976s-0.713,0.3-0.993,0.015c-0.28-0.284-0.26-0.688,0.042-0.983,0.294-0.288,0.705-0.308,0.993-0.015l0.008,0.007z"/>
			<path d="m225.08,184.99c0.25,0.297,0.191,0.704-0.122,0.97-0.313,0.265-0.733,0.247-0.991-0.06-0.258-0.305-0.208-0.705,0.114-0.978,0.314-0.265,0.726-0.256,0.991,0.061l0.008,0.007z"/>
			<path d="m223.64,183.14c0.228,0.313,0.14,0.718-0.192,0.959-0.333,0.241-0.75,0.191-0.985-0.132-0.234-0.323-0.156-0.719,0.186-0.968,0.333-0.241,0.742-0.2,0.984,0.131l0.007,0.01z"/>
			<path d="m222.33,181.19c0.205,0.33,0.086,0.727-0.263,0.941-0.349,0.217-0.761,0.137-0.971-0.204-0.211-0.338-0.103-0.729,0.256-0.951,0.349-0.217,0.755-0.145,0.972,0.204l0.006,0.01z"/>
			<path d="m221.18,179.16c0.18,0.344,0.033,0.729-0.331,0.92-0.364,0.189-0.77,0.079-0.954-0.274-0.185-0.354-0.049-0.732,0.325-0.93,0.364-0.191,0.764-0.092,0.954,0.273l0.006,0.011z"/>
			<path d="m220.16,177.01c0.154,0.356-0.021,0.73-0.397,0.892-0.377,0.163-0.773,0.022-0.931-0.344-0.159-0.366,0.006-0.734,0.394-0.902,0.376-0.163,0.768-0.031,0.931,0.344l0.003,0.01z"/>
			<path d="m219.32,174.83c0.126,0.367-0.075,0.727-0.463,0.86-0.388,0.134-0.773-0.033-0.904-0.412-0.131-0.377,0.06-0.734,0.459-0.872,0.388-0.135,0.77,0.022,0.904,0.413l0.004,0.011z"/>
			<path d="m218.64,172.58c0.099,0.375-0.128,0.719-0.525,0.824-0.397,0.103-0.769-0.094-0.871-0.479s0.115-0.728,0.523-0.834c0.396-0.104,0.765,0.08,0.87,0.478l0.003,0.011z"/>
			<path d="m218.13,170.28c0.071,0.382-0.182,0.707-0.586,0.783-0.404,0.074-0.759-0.148-0.832-0.541s0.168-0.716,0.583-0.793c0.404-0.075,0.757,0.138,0.832,0.539l0.003,0.012z"/>
			<path d="m217.79,167.96c0.042,0.386-0.233,0.692-0.642,0.736-0.409,0.046-0.746-0.204-0.79-0.602-0.044-0.396,0.22-0.701,0.64-0.748,0.408-0.045,0.745,0.193,0.791,0.602l0.001,0.012z"/>
			<path d="m217.62,165.6c0.015,0.388-0.283,0.672-0.694,0.688-0.411,0.017-0.729-0.257-0.744-0.656-0.014-0.399,0.272-0.685,0.693-0.698,0.411-0.017,0.729,0.247,0.744,0.655l0.001,0.011z"/>
			<path d="m217.62,163.26c-0.013,0.389-0.331,0.652-0.742,0.637s-0.708-0.31-0.694-0.709,0.319-0.662,0.741-0.648c0.411,0.015,0.71,0.297,0.694,0.709v0.011z"/>
			<path d="m217.8,160.91c-0.042,0.386-0.377,0.624-0.787,0.581-0.409-0.046-0.684-0.361-0.641-0.759,0.043-0.397,0.368-0.638,0.788-0.593,0.408,0.046,0.685,0.352,0.641,0.76l-0.001,0.011z"/>
			<path d="m218.14,158.58c-0.07,0.381-0.423,0.595-0.827,0.521s-0.655-0.411-0.583-0.805c0.072-0.392,0.415-0.608,0.829-0.531,0.405,0.074,0.657,0.399,0.583,0.804l-0.002,0.011z"/>
			<path d="m218.66,156.28c-0.099,0.377-0.466,0.562-0.864,0.457-0.397-0.104-0.623-0.458-0.521-0.845,0.101-0.387,0.457-0.576,0.866-0.469,0.397,0.104,0.626,0.447,0.522,0.845l-0.003,0.012z"/>
			<path d="m219.35,154.03c-0.125,0.367-0.506,0.526-0.895,0.393-0.389-0.136-0.587-0.504-0.457-0.884,0.13-0.376,0.499-0.539,0.898-0.402,0.389,0.134,0.591,0.494,0.458,0.883l-0.004,0.01z"/>
			<path d="m220.19,151.85c-0.153,0.356-0.544,0.487-0.922,0.325-0.377-0.161-0.548-0.545-0.392-0.912,0.157-0.367,0.538-0.502,0.926-0.335,0.377,0.161,0.553,0.535,0.392,0.911l-0.004,0.011z"/>
			<path d="m221.21,149.71c-0.179,0.345-0.578,0.445-0.943,0.256-0.366-0.189-0.507-0.585-0.323-0.939,0.185-0.355,0.574-0.46,0.949-0.266,0.364,0.189,0.512,0.574,0.322,0.938l-0.005,0.011z"/>
			<path d="m222.38,147.66c-0.204,0.33-0.61,0.401-0.959,0.185-0.35-0.216-0.461-0.621-0.252-0.96,0.21-0.339,0.607-0.417,0.965-0.195,0.35,0.216,0.468,0.612,0.252,0.96l-0.006,0.01z"/>
			<path d="m223.7,145.71c-0.228,0.314-0.637,0.354-0.971,0.114-0.333-0.241-0.415-0.653-0.18-0.976s0.635-0.371,0.977-0.124c0.333,0.24,0.421,0.644,0.181,0.977l-0.007,0.009z"/>
			<path d="m225.15,143.87c-0.25,0.296-0.662,0.307-0.976,0.042-0.315-0.264-0.366-0.681-0.109-0.987,0.258-0.305,0.662-0.324,0.984-0.051,0.314,0.264,0.374,0.673,0.108,0.987l-0.007,0.009z"/>
			<path d="m226.72,142.14c-0.271,0.278-0.683,0.258-0.977-0.029s-0.314-0.706-0.036-0.992c0.279-0.285,0.683-0.274,0.985,0.02,0.294,0.288,0.322,0.698,0.036,0.992l-0.008,0.009z"/>
			<path d="m228.43,140.52c-0.291,0.257-0.7,0.208-0.972-0.1-0.271-0.308-0.262-0.727,0.037-0.992,0.3-0.264,0.701-0.224,0.981,0.092,0.271,0.308,0.271,0.72-0.037,0.992l-0.009,0.008z"/>
			<path d="m230.26,139.03c-0.309,0.235-0.713,0.156-0.962-0.171-0.248-0.327-0.208-0.745,0.109-0.987,0.318-0.241,0.715-0.171,0.971,0.165,0.249,0.327,0.218,0.738-0.11,0.987l-0.008,0.006z"/>
			<path d="m232.18,137.68c-0.325,0.212-0.723,0.103-0.947-0.241-0.223-0.345-0.153-0.758,0.182-0.976,0.334-0.218,0.725-0.119,0.956,0.236,0.224,0.344,0.163,0.752-0.182,0.976l-0.009,0.005z"/>
			<path d="m234.21,136.47c-0.339,0.188-0.728,0.049-0.926-0.311-0.198-0.359-0.097-0.768,0.252-0.959,0.35-0.193,0.733-0.065,0.937,0.305,0.198,0.359,0.106,0.762-0.254,0.96l-0.009,0.005z"/>
			<path d="m236.3,135.42c-0.353,0.162-0.73-0.004-0.901-0.378s-0.04-0.772,0.323-0.938,0.735-0.011,0.911,0.374c0.171,0.374,0.05,0.768-0.324,0.939l-0.009,0.003z"/>
			<path d="m238.48,134.53c-0.364,0.135-0.728-0.059-0.871-0.444s0.018-0.773,0.393-0.912,0.734,0.044,0.881,0.44c0.143,0.385-0.007,0.77-0.392,0.912l-0.011,0.004z"/>
			<path d="m240.72,133.8c-0.373,0.108-0.721-0.113-0.834-0.508-0.114-0.395,0.075-0.77,0.458-0.88,0.384-0.11,0.729,0.099,0.846,0.504,0.114,0.395-0.063,0.767-0.458,0.881l-0.012,0.003z"/>
			<path d="m242.99,133.24c-0.38,0.08-0.711-0.166-0.795-0.568-0.085-0.402,0.132-0.762,0.522-0.845,0.391-0.082,0.72,0.152,0.807,0.566,0.084,0.402-0.122,0.76-0.523,0.845l-0.011,0.002z"/>
			<path d="m245.33,132.85c-0.384,0.051-0.696-0.218-0.75-0.626-0.054-0.407,0.188-0.75,0.584-0.802,0.396-0.053,0.707,0.205,0.762,0.624,0.054,0.407-0.177,0.75-0.584,0.803l-0.012,0.001z"/>
			<path d="m247.67,132.63c-0.388,0.023-0.679-0.269-0.703-0.679s0.242-0.734,0.641-0.758c0.398-0.023,0.689,0.258,0.715,0.678,0.023,0.41-0.231,0.733-0.642,0.758l-0.011,0.001z"/>
		</g><path d="m290.44,179.13c-1.5099,4.0451-3.6109,7.8052-6.1955,11.175h1.474c2.497-3.3911,4.5274-7.1445,5.9823-11.175h-1.2609zm-82.141,0c1.456,4.0282,3.4876,7.7828,5.9823,11.175h1.4751c-2.5845-3.3686-4.6867-7.1288-6.1955-11.175h-1.262z"/><g transform="matrix(1.1217587,0,0,1.1217587,-29.878795,-20.041965)">
			<path d="m207.24,159.92-0.862-0.444,0.017-0.445,3.549-0.013-0.021,0.55c-1.028,0.132-1.799,0.425-2.312,0.881-0.514,0.455-0.782,0.986-0.806,1.596-0.025,0.67,0.271,1.235,0.891,1.699,0.62,0.462,1.618,0.721,2.991,0.772,1.454,0.058,2.541-0.142,3.265-0.597,0.569-0.366,0.868-0.926,0.897-1.679,0.03-0.753-0.223-1.398-0.756-1.934-0.387-0.385-0.97-0.668-1.748-0.847l0.02-0.536c1,0.167,1.781,0.582,2.34,1.247s0.82,1.466,0.785,2.4c-0.047,1.209-0.514,2.209-1.399,2.994-0.886,0.785-1.996,1.154-3.329,1.101-1.48-0.058-2.644-0.574-3.491-1.554-0.721-0.834-1.061-1.792-1.019-2.871,0.017-0.426,0.099-0.819,0.248-1.179,0.148-0.356,0.398-0.736,0.74-1.141z"/>
			<path d="m207.27,155.6,1.152-4.377,0.535,0.141-0.208,0.792c-0.044,0.17-0.042,0.302,0.004,0.396,0.048,0.096,0.137,0.161,0.268,0.194l6.625,1.743c0.154,0.041,0.275,0.029,0.362-0.034,0.112-0.082,0.194-0.221,0.246-0.416l0.186-0.705,0.535,0.139-1.151,4.378-0.536-0.14,0.177-0.67c0.061-0.23,0.066-0.403,0.013-0.519-0.052-0.115-0.153-0.191-0.304-0.232l-6.55-1.725c-0.162-0.043-0.293-0.028-0.393,0.036-0.1,0.065-0.175,0.192-0.222,0.377l-0.201,0.764-0.538-0.142z"/>
			<path d="m209.3,148.42,3.479-6.895,3.091,1.336-0.244,0.483c-0.699-0.209-1.274-0.315-1.725-0.315-0.452,0-0.813,0.078-1.082,0.235-0.27,0.157-0.474,0.373-0.614,0.651-0.081,0.16-0.106,0.295-0.079,0.402,0.027,0.108,0.104,0.194,0.229,0.257l6.11,3.083c0.118,0.06,0.232,0.071,0.343,0.036,0.112-0.035,0.193-0.104,0.246-0.207l0.453-0.896,0.497,0.25-2.129,4.221-0.497-0.251,0.431-0.854c0.064-0.128,0.079-0.248,0.043-0.359-0.035-0.112-0.113-0.198-0.235-0.259l-6.078-3.067c-0.142-0.072-0.266-0.086-0.373-0.043-0.107,0.042-0.201,0.146-0.284,0.309-0.458,0.908,0.063,1.942,1.566,3.102l-0.236,0.468-2.912-1.687z"/>
			<path d="m214.3,139.17,2.921-3.291,0.417,0.369-0.405,0.456c-0.143,0.161-0.22,0.29-0.236,0.388-0.015,0.099,0.01,0.177,0.076,0.235,0.075,0.067,0.184,0.115,0.327,0.146l3.593,0.722-1.06-2.676c-0.086-0.221-0.196-0.391-0.331-0.511-0.149-0.132-0.313-0.184-0.493-0.156-0.179,0.029-0.363,0.149-0.553,0.361l-0.18,0.203-0.417-0.369,2.268-2.556,0.417,0.369c-0.256,0.3-0.407,0.589-0.454,0.867s-0.002,0.59,0.134,0.935l1.445,3.658,2.079,1.845c0.123,0.108,0.243,0.156,0.363,0.142,0.119-0.014,0.241-0.093,0.369-0.236l0.608-0.684,0.417,0.369-3.21,3.618-0.417-0.369,0.603-0.68c0.138-0.154,0.205-0.29,0.203-0.403-0.003-0.114-0.067-0.227-0.192-0.337l-1.845-1.638-4.648-0.934c-0.297-0.061-0.537-0.06-0.721,0.003s-0.36,0.19-0.53,0.382l-0.126,0.143-0.422-0.371z"/>
			<path d="m230.03,125.72c0.744-0.375,1.521-0.539,2.331-0.496s1.545,0.289,2.208,0.733c0.663,0.445,1.19,1.058,1.583,1.837,0.596,1.186,0.705,2.368,0.328,3.548s-1.139,2.058-2.286,2.634c-0.763,0.383-1.536,0.546-2.32,0.491-0.785-0.056-1.505-0.302-2.161-0.737-0.655-0.435-1.187-1.057-1.593-1.865-0.603-1.199-0.717-2.381-0.343-3.546,0.373-1.164,1.124-2.031,2.253-2.599zm0.289,0.496c-0.424,0.213-0.733,0.515-0.928,0.905-0.194,0.39-0.252,0.891-0.174,1.503s0.343,1.369,0.798,2.274c0.477,0.951,0.924,1.628,1.339,2.033,0.416,0.404,0.845,0.642,1.287,0.714,0.443,0.072,0.879,0,1.311-0.217,0.637-0.32,1.009-0.85,1.116-1.588,0.106-0.738-0.18-1.783-0.86-3.136-0.476-0.947-0.915-1.617-1.318-2.01s-0.826-0.625-1.267-0.694c-0.441-0.071-0.876,0.001-1.304,0.216z"/>
			<path d="m237.71,122.78,7.674-1.44,0.65,2.978-0.527,0.099c-0.268-0.904-0.604-1.502-1.009-1.792-0.406-0.29-0.961-0.369-1.668-0.237l-1.289,0.242c-0.188,0.035-0.317,0.1-0.39,0.195-0.071,0.095-0.094,0.214-0.067,0.358l0.545,2.907,0.47-0.088c0.934-0.175,1.37-0.833,1.305-1.975l0.521-0.098,0.753,4.012-0.521,0.098c-0.097-0.427-0.231-0.753-0.402-0.979-0.172-0.225-0.381-0.387-0.629-0.486-0.247-0.099-0.516-0.122-0.804-0.067l-0.593,0.112,0.595,3.166c0.031,0.169,0.1,0.284,0.204,0.346,0.151,0.089,0.315,0.118,0.492,0.083l0.825-0.155,0.103,0.549-4.606,0.864-0.103-0.549,0.772-0.145c0.181-0.034,0.311-0.107,0.392-0.222,0.08-0.115,0.106-0.244,0.079-0.389l-1.245-6.636c-0.032-0.169-0.102-0.277-0.211-0.326-0.109-0.048-0.312-0.044-0.61,0.012l-0.601,0.113-0.105-0.55z"/>
			<path d="m253.24,121.24,4.672,0.914c0.85,0.167,1.56,0.493,2.129,0.978,0.571,0.485,0.971,1.096,1.209,1.832,0.233,0.736,0.269,1.521,0.105,2.354-0.171,0.864-0.483,1.584-0.939,2.159-0.458,0.574-1.055,0.987-1.791,1.237-0.735,0.25-1.482,0.301-2.24,0.152l-4.842-0.947,0.105-0.542,0.723,0.141c0.177,0.034,0.318,0.012,0.428-0.066,0.106-0.078,0.178-0.204,0.214-0.375l1.28-6.542c0.034-0.176,0.012-0.313-0.066-0.412-0.077-0.099-0.229-0.169-0.451-0.213l-0.64-0.125,0.104-0.545zm2.676,8.971c0.536,0.104,1.037,0.063,1.505-0.126s0.839-0.5,1.114-0.932,0.51-1.14,0.702-2.124c0.202-1.034,0.249-1.848,0.139-2.441s-0.327-1.042-0.653-1.348-0.85-0.53-1.568-0.67c-0.394-0.077-0.649-0.092-0.762-0.045-0.112,0.047-0.186,0.159-0.221,0.335l-1.286,6.576c-0.039,0.196-0.025,0.345,0.037,0.447s0.183,0.17,0.358,0.205l0.635,0.123z"/>
			<path d="m269.77,126.14-0.724,8.57c-0.019,0.243,0.003,0.425,0.063,0.548s0.175,0.227,0.337,0.311l0.286,0.148-0.256,0.491-3.676-1.916,0.255-0.491,0.345,0.179c0.271,0.142,0.474,0.209,0.608,0.203,0.135-0.007,0.228-0.061,0.278-0.159,0.041-0.078,0.066-0.18,0.078-0.304l0.151-1.774-2.94-1.531-0.626,0.518c-0.26,0.216-0.425,0.391-0.495,0.526-0.12,0.23-0.133,0.461-0.037,0.693,0.095,0.232,0.289,0.425,0.583,0.578l0.25,0.13-0.256,0.491-2.979-1.553,0.256-0.491,0.17,0.089c0.191,0.099,0.391,0.126,0.6,0.082,0.296-0.063,0.568-0.198,0.818-0.405l6.316-5.245,0.595,0.312zm-1.889,1.538-2.813,2.332,2.503,1.304,0.31-3.636z"/>
			<path d="m275.39,130.46,0.377-0.409,3.344,3.08-0.376,0.409-0.563-0.518c-0.161-0.148-0.301-0.22-0.422-0.219-0.121,0.002-0.244,0.073-0.373,0.21l-4.454,4.836c-0.18,0.195-0.265,0.35-0.254,0.461s0.133,0.273,0.362,0.484l0.941,0.867c0.35,0.322,0.828,0.458,1.438,0.406s1.329-0.368,2.161-0.947l0.387,0.356-2.448,2.359-5.733-5.284,0.377-0.409,0.577,0.533c0.128,0.118,0.255,0.174,0.377,0.17,0.125-0.004,0.242-0.064,0.35-0.182l4.579-4.972c0.11-0.12,0.158-0.238,0.141-0.354s-0.106-0.25-0.27-0.398l-0.518-0.479z"/>
			<path d="m283.22,138.23,0.468-0.299,2.444,3.826-0.468,0.299-0.412-0.645c-0.119-0.185-0.236-0.292-0.355-0.32-0.116-0.028-0.256,0.006-0.414,0.107l-5.543,3.542c-0.224,0.144-0.345,0.271-0.363,0.381-0.019,0.11,0.06,0.296,0.223,0.558l0.688,1.072c0.257,0.399,0.683,0.65,1.285,0.753,0.602,0.102,1.377-0.02,2.329-0.369l0.292,0.454-2.97,1.657-4.187-6.553,0.468-0.299,0.416,0.654c0.093,0.144,0.199,0.229,0.321,0.257,0.121,0.026,0.249-0.003,0.382-0.09l5.699-3.641c0.14-0.089,0.214-0.189,0.227-0.305,0.014-0.115-0.039-0.265-0.156-0.45l-0.374-0.589z"/>
			<path d="m290.9,151.77-6.582,5.538c-0.185,0.156-0.297,0.3-0.341,0.431-0.043,0.131-0.036,0.283,0.018,0.458l0.099,0.308-0.527,0.165-1.239-3.96,0.528-0.165,0.116,0.371c0.091,0.294,0.186,0.484,0.286,0.574,0.101,0.091,0.201,0.119,0.309,0.086,0.083-0.025,0.173-0.08,0.268-0.16l1.359-1.139-0.987-3.158-0.807-0.076c-0.337-0.033-0.575-0.027-0.721,0.019-0.248,0.076-0.418,0.23-0.517,0.462-0.097,0.23-0.096,0.505,0.004,0.821l0.083,0.27-0.527,0.164-1.003-3.209,0.527-0.165,0.059,0.183c0.064,0.207,0.185,0.368,0.365,0.485,0.253,0.165,0.539,0.265,0.862,0.298l8.17,0.759,0.198,0.64zm-2.424-0.25-3.641-0.343,0.841,2.693,2.8-2.35z"/>
			<path d="m291.91,164.33,0.816,0.518,0.02,0.424-3.05,0.197-0.024-0.535c0.862-0.321,1.499-0.749,1.912-1.283,0.412-0.536,0.604-1.115,0.573-1.737-0.023-0.531-0.188-0.954-0.493-1.273-0.304-0.318-0.656-0.469-1.058-0.451-0.237,0.012-0.454,0.088-0.646,0.228-0.19,0.14-0.352,0.361-0.479,0.66-0.128,0.299-0.251,0.818-0.365,1.561-0.139,0.863-0.271,1.463-0.4,1.797-0.206,0.529-0.494,0.931-0.86,1.21-0.365,0.276-0.823,0.427-1.366,0.454-0.816,0.038-1.482-0.211-1.994-0.75-0.616-0.648-0.95-1.473-0.997-2.472-0.044-0.92,0.236-1.776,0.84-2.566l-0.902-0.656-0.021-0.446,3.269-0.156,0.025,0.528c-1.838,0.611-2.718,1.716-2.643,3.312,0.031,0.653,0.205,1.153,0.522,1.502,0.317,0.348,0.7,0.512,1.149,0.491,0.314-0.017,0.575-0.108,0.779-0.277,0.205-0.171,0.365-0.423,0.48-0.766,0.062-0.187,0.154-0.646,0.274-1.378,0.169-0.986,0.356-1.691,0.566-2.119s0.474-0.745,0.797-0.958c0.324-0.212,0.724-0.327,1.201-0.35,0.803-0.038,1.47,0.201,2.001,0.717,0.534,0.516,0.82,1.229,0.864,2.138,0.041,0.869-0.222,1.682-0.79,2.436z"/>
		</g><g transform="matrix(1.1217587,0,0,1.1217587,-29.878795,-20.041965)">
			<path d="m229.82,193.21,6.345,3.408-1.318,2.844-0.446-0.239c0.211-0.644,0.322-1.176,0.333-1.596s-0.054-0.756-0.194-1.011c-0.139-0.255-0.337-0.451-0.593-0.587-0.147-0.079-0.271-0.105-0.372-0.083-0.102,0.022-0.183,0.094-0.244,0.208l-3.017,5.614c-0.058,0.107-0.072,0.216-0.042,0.319s0.092,0.182,0.188,0.234l0.824,0.442-0.244,0.453-3.878-2.082,0.243-0.454,0.785,0.421c0.118,0.061,0.229,0.079,0.334,0.05,0.104-0.03,0.187-0.101,0.246-0.214l3.002-5.585c0.07-0.133,0.086-0.247,0.049-0.347-0.037-0.099-0.131-0.19-0.281-0.271-0.835-0.45-1.81,0.011-2.925,1.378l-0.431-0.232,1.636-2.67z"/>
			<path d="m237.16,197.04,6.976,1.69-0.523,2.838-0.475-0.115c0.047-0.689,0.022-1.198-0.075-1.527-0.098-0.332-0.265-0.603-0.502-0.813-0.238-0.211-0.578-0.37-1.019-0.476l-1.094-0.266c-0.17-0.041-0.301-0.036-0.393,0.012-0.092,0.049-0.153,0.133-0.182,0.252l-0.671,2.771,0.374,0.091c0.429,0.103,0.791,0.062,1.087-0.127,0.296-0.188,0.532-0.548,0.707-1.083l0.491,0.118-0.904,3.73-0.491-0.119c0.118-0.625,0.087-1.094-0.089-1.407-0.177-0.31-0.505-0.523-0.984-0.641l-0.308-0.074-0.718,2.962c-0.031,0.131-0.016,0.231,0.046,0.304,0.096,0.108,0.253,0.188,0.47,0.24l0.964,0.233c0.66,0.16,1.25,0.08,1.771-0.24,0.521-0.319,0.935-0.894,1.243-1.72l0.491,0.119-0.857,3.018-7.273-1.764,0.123-0.504,0.72,0.176c0.163,0.039,0.296,0.026,0.4-0.035,0.105-0.061,0.175-0.164,0.209-0.305l1.492-6.159c0.032-0.131,0.013-0.236-0.058-0.317-0.07-0.082-0.215-0.15-0.436-0.206l-0.634-0.151,0.122-0.505z"/>
			<path d="m245,198.99,4.079-0.066,0.008,0.521-0.301,0.005c-0.275,0.005-0.457,0.031-0.544,0.081-0.09,0.05-0.132,0.115-0.131,0.197,0.001,0.098,0.08,0.252,0.235,0.458l1.4,1.854,1.06-1.327c0.234-0.289,0.349-0.562,0.343-0.818-0.002-0.155-0.055-0.274-0.152-0.356-0.101-0.082-0.245-0.121-0.434-0.119l-0.257,0.006-0.011-0.521,3.247-0.054,0.008,0.521-0.244,0.004c-0.204,0.004-0.383,0.05-0.539,0.137-0.156,0.09-0.335,0.253-0.53,0.49l-2.085,2.555,2.787,3.593c0.132,0.174,0.252,0.289,0.36,0.341,0.108,0.058,0.232,0.085,0.374,0.08l0.271-0.004,0.009,0.521-4.021,0.064-0.008-0.52,0.421-0.008c0.199-0.003,0.342-0.038,0.431-0.104,0.088-0.065,0.133-0.15,0.131-0.251-0.002-0.085-0.063-0.193-0.183-0.325l-0.059-0.074-1.563-2.053-1.258,1.583c-0.171,0.219-0.256,0.449-0.251,0.69,0.003,0.181,0.053,0.316,0.15,0.405,0.129,0.111,0.282,0.168,0.461,0.165l0.313-0.006,0.009,0.521-3.395,0.056-0.009-0.521,0.212-0.003c0.171-0.003,0.35-0.06,0.537-0.171,0.309-0.19,0.548-0.392,0.715-0.604l2.116-2.619-2.648-3.391c-0.14-0.178-0.259-0.293-0.356-0.343-0.098-0.051-0.225-0.076-0.38-0.072l-0.312,0.003-0.006-0.521z"/>
			<path d="m258.33,197.42,4.938,6.31c0.14,0.177,0.271,0.288,0.393,0.332,0.12,0.043,0.262,0.043,0.426-0.003l0.293-0.08,0.137,0.498-3.729,1.026-0.137-0.496,0.347-0.098c0.276-0.075,0.457-0.158,0.545-0.247,0.087-0.092,0.116-0.186,0.09-0.287-0.021-0.079-0.068-0.164-0.139-0.257l-1.019-1.304-2.973,0.818-0.099,0.749c-0.041,0.313-0.043,0.536-0.007,0.672,0.064,0.233,0.204,0.399,0.416,0.497s0.468,0.104,0.765,0.023l0.253-0.07,0.139,0.496-3.016,0.831-0.14-0.496,0.173-0.048c0.193-0.054,0.347-0.162,0.46-0.323,0.162-0.229,0.262-0.496,0.302-0.796l0.979-7.588,0.603-0.159zm-0.313,2.251-0.438,3.377,2.531-0.697-2.093-2.68z"/>
			<path d="m267.72,194.14,0.087-0.896,0.341-0.194,1.451,2.448-0.438,0.248c-0.63-0.58-1.254-0.929-1.872-1.045-0.615-0.117-1.176-0.032-1.683,0.254-0.429,0.245-0.712,0.562-0.849,0.949-0.138,0.387-0.112,0.743,0.074,1.07,0.109,0.192,0.264,0.341,0.462,0.441,0.197,0.101,0.449,0.142,0.751,0.121,0.303-0.02,0.785-0.138,1.447-0.351,0.775-0.247,1.329-0.388,1.661-0.422,0.53-0.054,0.984,0.017,1.369,0.203,0.385,0.188,0.704,0.503,0.957,0.944,0.377,0.659,0.448,1.319,0.217,1.97-0.28,0.787-0.824,1.411-1.637,1.873-0.746,0.424-1.574,0.552-2.488,0.381l-0.164,1.029-0.357,0.202-1.51-2.65,0.423-0.243c1.286,1.278,2.576,1.545,3.868,0.811,0.53-0.3,0.871-0.656,1.026-1.067,0.154-0.412,0.13-0.799-0.079-1.164-0.145-0.256-0.332-0.433-0.56-0.533-0.226-0.099-0.504-0.126-0.838-0.078-0.181,0.026-0.603,0.144-1.26,0.352-0.89,0.274-1.556,0.417-2,0.422-0.442,0.006-0.819-0.079-1.131-0.259-0.312-0.179-0.576-0.462-0.799-0.851-0.372-0.652-0.456-1.308-0.251-1.969,0.204-0.659,0.674-1.2,1.411-1.62,0.718-0.403,1.505-0.529,2.371-0.376z"/>
		</g><g stroke="#000" stroke-width="0.47549999" fill="none" transform="matrix(1.1217587,0,0,1.1217587,-29.878795,-20.041965)">
				<polygon points="243.18,166.18,239.51,177.38,239.47,177.51,249.18,170.42,249.2,170.4,258.93,177.51,255.19,166.09,255.17,166.04,264.72,159.06,264.77,159.02,252.87,159.02,252.86,158.99,249.18,147.77,245.53,159.02,245.52,159.02,233.73,159.02,233.63,159.02,243.23,166.04"/>
				<polyline points="233.59,158.98,233.73,159.02,249.11,164.05,249.16,164.06"/>
				<polyline points="264.76,159.05,264.72,159.06,249.39,164.05,249.23,164.1"/>
				<polyline points="239.44,177.48,239.51,177.38,249.09,164.29,249.13,164.23,249.18,164.16,249.21,164.12,249.23,164.1"/>
				<polyline points="249.18,147.77,249.18,164.14,249.18,164.15"/>
				<polyline points="258.93,177.51,249.34,164.29,249.28,164.21,249.21,164.12,249.19,164.1"/>
				<polyline points="245.47,158.95,245.52,159.02,249.11,164.05,249.18,164.14,249.18,164.14"/>
				<polyline points="252.88,158.95,252.86,158.99,249.39,164.05,249.28,164.21,249.24,164.26,249.24,164.26"/>
				<line y2="164.26" x2="249.05" y1="166.18" x1="243.18"/>
				<polyline points="249.05,164.2,249.13,164.23,249.18,164.24,249.24,164.26,249.34,164.29,255.11,166.12"/>
				<polyline points="249.18,170.44,249.18,170.42,249.18,164.26"/>
		</g></svg>
