<?xml version="1.0" encoding="UTF-8" standalone="no"?>
<!-- Created with Inkscape (http://www.inkscape.org/) -->
<svg
   xmlns:dc="http://purl.org/dc/elements/1.1/"
   xmlns:cc="http://creativecommons.org/ns#"
   xmlns:rdf="http://www.w3.org/1999/02/22-rdf-syntax-ns#"
   xmlns:svg="http://www.w3.org/2000/svg"
   xmlns="http://www.w3.org/2000/svg"
   xmlns:sodipodi="http://sodipodi.sourceforge.net/DTD/sodipodi-0.dtd"
   xmlns:inkscape="http://www.inkscape.org/namespaces/inkscape"
   width="800"
   height="480"
   id="svg2"
   sodipodi:version="0.32"
   inkscape:version="0.46"
   version="1.0"
   sodipodi:docname="Flag of El Paso, Texas.svg"
   inkscape:output_extension="org.inkscape.output.svg.inkscape">
  <defs
     id="defs4">
    <inkscape:perspective
       sodipodi:type="inkscape:persp3d"
       inkscape:vp_x="0 : 526.18109 : 1"
       inkscape:vp_y="0 : 1000 : 0"
       inkscape:vp_z="744.09448 : 526.18109 : 1"
       inkscape:persp3d-origin="372.04724 : 350.78739 : 1"
       id="perspective10" />
  </defs>
  <sodipodi:namedview
     id="base"
     pagecolor="#ffffff"
     bordercolor="#666666"
     borderopacity="1.0"
     gridtolerance="10000"
     guidetolerance="10"
     objecttolerance="10"
     inkscape:pageopacity="0.0"
     inkscape:pageshadow="2"
     inkscape:zoom="0.70710678"
     inkscape:cx="309.96678"
     inkscape:cy="281.63764"
     inkscape:document-units="px"
     inkscape:current-layer="layer1"
     showgrid="false"
     width="800px"
     inkscape:window-width="1280"
     inkscape:window-height="952"
     inkscape:window-x="-4"
     inkscape:window-y="-4"
     showguides="false"
     inkscape:guide-bbox="true">
    <inkscape:grid
       type="xygrid"
       id="grid2383"
       visible="true"
       enabled="true" />
    <sodipodi:guide
       orientation="1,0"
       position="0,533.08594"
       id="guide2469" />
    <sodipodi:guide
       orientation="1,0"
       position="800,-0.234375"
       id="guide2471" />
    <sodipodi:guide
       orientation="0,1"
       position="800.58203,0"
       id="guide2473" />
    <sodipodi:guide
       orientation="1,0"
       position="400,277.33594"
       id="guide2547" />
    <sodipodi:guide
       orientation="0,1"
       position="0.21875,480"
       id="guide3732" />
    <sodipodi:guide
       orientation="0,1"
       position="-177.30078,240"
       id="guide3734" />
  </sodipodi:namedview>
  <metadata
     id="metadata7">
    <rdf:RDF>
      <cc:Work
         rdf:about="">
        <dc:format>image/svg+xml</dc:format>
        <dc:type
           rdf:resource="http://purl.org/dc/dcmitype/StillImage" />
      </cc:Work>
    </rdf:RDF>
  </metadata>
  <g
     inkscape:label="Layer 1"
     inkscape:groupmode="layer"
     id="layer1">
    <rect
       style="opacity:1;fill:#160055;fill-opacity:1;fill-rule:nonzero;stroke:none;stroke-width:0.76200002000000000;stroke-linecap:round;stroke-linejoin:round;stroke-miterlimit:4;stroke-dasharray:none;stroke-dashoffset:0;stroke-opacity:1"
       id="rect3240"
       width="800"
       height="480"
       x="0"
       y="0" />
    <g
       id="g3300"
       transform="translate(0,8.709545)">
      <path
         inkscape:transform-center-y="-158"
         inkscape:transform-center-x="-197.69"
         sodipodi:nodetypes="ccscccc"
         id="path3543"
         d="M 605.96875,116.8125 L 554.46875,147.59375 C 570.67751,174.61349 580,206.21929 580,240 C 580,267.34099 573.89057,293.25283 562.96875,316.46875 C 577.6746,309.76843 591.26824,301.15489 604.51879,287.87798 C 611.75001,304.8128 616.1779,323.59115 617.28125,341.9375 C 652.30276,267.29323 648.28439,187.57734 605.96875,116.8125 z"
         style="opacity:1;fill:#560001;fill-opacity:1;fill-rule:nonzero;stroke:none;stroke-width:0.76200002;stroke-linecap:round;stroke-linejoin:round;stroke-miterlimit:4;stroke-dasharray:none;stroke-dashoffset:0;stroke-opacity:1" />
      <path
         style="opacity:1;fill:#560001;fill-opacity:1;fill-rule:nonzero;stroke:none;stroke-width:0.76200002;stroke-linecap:round;stroke-linejoin:round;stroke-miterlimit:4;stroke-dasharray:none;stroke-dashoffset:0;stroke-opacity:1"
         d="M 194.03126,116.8125 L 245.53126,147.59375 C 229.3225,174.61349 220.00001,206.21929 220.00001,240 C 220.00001,267.34099 226.10944,293.25283 237.03126,316.46875 C 222.32541,309.76843 208.73177,301.15489 195.48122,287.87798 C 188.25,304.8128 183.82211,323.59115 182.71876,341.9375 C 147.69725,267.29323 151.71562,187.57734 194.03126,116.8125 z"
         id="path3559"
         sodipodi:nodetypes="ccscccc"
         inkscape:transform-center-x="197.69"
         inkscape:transform-center-y="-158" />
      <path
         id="path3528"
         d="M 399.875,23.65625 C 297.37521,23.656249 211.49677,92.277701 188.875,192.25 L 235.15625,202.71875 C 232.45163,214.71521 231,227.19022 231,240 C 231,333.28799 306.71201,408.99998 400,409 C 493.28799,409 568.99998,333.28799 569,240 C 569,227.16915 567.55702,214.67085 564.84375,202.65625 L 610.875,192.25 C 588.25323,92.2777 502.3748,23.65625 399.875,23.65625 z"
         style="opacity:1;fill:#ffffff;fill-opacity:1;fill-rule:nonzero;stroke:none;stroke-width:0.76200002;stroke-linecap:round;stroke-linejoin:round;stroke-miterlimit:4;stroke-dasharray:none;stroke-dashoffset:0;stroke-opacity:1" />
      <path
         d="M 563.89555,240 A 163.89555,163.89555 0 1 1 236.10445,240 A 163.89555,163.89555 0 1 1 563.89555,240 z"
         sodipodi:ry="163.89555"
         sodipodi:rx="163.89555"
         sodipodi:cy="240"
         sodipodi:cx="400"
         id="path3526"
         style="opacity:1;fill:#560001;fill-opacity:1;fill-rule:nonzero;stroke:none;stroke-width:0.76200002;stroke-linecap:round;stroke-linejoin:round;stroke-miterlimit:4;stroke-dasharray:none;stroke-dashoffset:0;stroke-opacity:1"
         sodipodi:type="arc" />
      <path
         style="opacity:1;fill:#2c7008;fill-opacity:1;fill-rule:nonzero;stroke:none;stroke-width:3;stroke-linecap:butt;stroke-linejoin:round;stroke-miterlimit:4;stroke-dasharray:none;stroke-dashoffset:0;stroke-opacity:1"
         d="M 296.375,139.53125 C 297.02012,147.69272 292.51245,155.3535 285.34375,156.375 C 282.91223,159.70657 280.66304,163.12767 278.5625,166.59375 C 282.30752,164.81549 286.59355,164.80485 290.9375,165.53125 C 286.50834,172.46205 280.41563,176.41552 273.96875,174.71875 C 271.8922,178.71718 270.0395,182.78461 268.375,186.90625 C 271.7925,184.53983 276.05422,183.85086 280.46875,183.875 C 277.20153,191.42479 271.79263,196.30453 265.15625,195.65625 C 263.75313,199.92436 262.57647,204.24882 261.59375,208.59375 C 264.59154,205.70086 268.66097,204.36927 273.03125,203.6875 C 271.01059,211.66101 266.46618,217.33018 259.8125,217.75 C 259.11553,222.16973 258.65121,226.6172 258.375,231.0625 C 260.87337,227.74952 264.68417,225.77171 268.875,224.40625 C 268.15269,232.59561 264.58862,238.92589 258.09375,240.40625 C 258.11024,244.85339 258.35077,249.2991 258.78125,253.71875 C 260.72346,250.07376 264.15924,247.53955 268.0625,245.53125 C 268.65474,253.71488 266.14906,260.52165 260,263.03125 C 260.71921,267.40781 261.62497,271.76645 262.75,276.0625 C 264.08386,272.14882 267.08865,269.10786 270.625,266.5 C 272.51918,274.50088 271.13698,281.64336 265.4375,285.09375 C 266.848,289.31838 268.44013,293.47173 270.25,297.5625 C 270.92724,293.45845 273.44002,289.96769 276.53125,286.8125 C 279.67833,294.41046 279.42318,301.65365 274.34375,305.96875 C 276.41129,309.91566 278.67168,313.76789 281.125,317.53125 C 281.13892,313.37185 283.01429,309.5141 285.5625,305.90625 C 289.8855,312.91146 290.80879,320.11658 286.46875,325.1875 C 289.13902,328.74426 291.9951,332.16994 295.03125,335.5 C 294.38177,331.39198 295.59142,327.28035 297.53125,323.3125 C 302.90442,329.52437 304.97415,336.49618 301.53125,342.1875 C 305.48482,345.98897 309.68276,349.60179 314.15625,353 C 327.36907,363.03687 339.92444,369.63139 355.6875,374.8125 L 354.75,377.65625 C 338.71685,372.38637 325.78296,365.58385 312.34375,355.375 C 307.76057,351.89347 303.45476,348.17803 299.40625,344.28125 C 293.47692,347.52548 286.56369,345.04661 280.625,339.25 C 284.62796,337.58319 288.727,336.59439 292.71875,337.40625 C 289.64395,334.02553 286.73737,330.51549 284.03125,326.90625 C 277.66861,329.14454 271.24378,325.59843 266.3125,318.9375 C 270.52156,317.93269 274.72628,317.60299 278.53125,319.03125 C 276.04635,315.20847 273.75191,311.28917 271.65625,307.28125 C 265.0155,308.47966 259.24413,303.95833 255.4375,296.59375 C 259.7658,296.27237 263.96511,296.65456 267.5,298.6875 C 265.65795,294.51419 264.02913,290.24704 262.59375,285.9375 C 255.83049,286.07882 250.83704,280.70254 248.25,272.8125 C 252.58578,273.18676 256.70623,274.19512 259.875,276.78125 C 258.7241,272.38029 257.76533,267.92107 257.03125,263.4375 C 250.33187,262.49818 246.26393,256.38936 244.96875,248.1875 C 249.19867,249.25105 253.09612,250.92852 255.8125,254 C 255.37097,249.46336 255.13957,244.90859 255.125,240.34375 C 248.66034,238.3482 245.62634,231.64778 245.65625,223.34375 C 249.64665,225.06177 253.21242,227.3385 255.40625,230.78125 C 255.69063,226.24101 256.19219,221.70129 256.90625,217.1875 C 250.85245,214.18267 248.92785,207.12486 250.28125,198.9375 C 253.93427,201.26238 257.0974,204.0513 258.71875,207.78125 C 259.71997,203.37258 260.94989,198.98699 262.375,194.65625 C 256.87948,190.72384 256.108,183.42836 258.75,175.5625 C 261.98864,178.44332 264.68435,181.71001 265.6875,185.65625 C 267.38082,181.47412 269.26602,177.33854 271.375,173.28125 C 266.57711,168.52247 266.98066,161.21868 270.84375,153.875 C 273.57543,157.22839 275.69504,160.86095 276.0625,164.90625 C 278.20133,161.38463 280.5262,157.9162 283,154.53125 C 281.5655,146.16284 288.38286,141.21427 296.375,139.53125 z"
         id="path3298"
         inkscape:transform-center-x="99.671875"
         inkscape:transform-center-y="155.56349" />
      <path
         inkscape:transform-center-y="155.56349"
         inkscape:transform-center-x="-99.671875"
         id="path3265"
         d="M 503.625,139.53125 C 502.97988,147.69272 507.48755,155.3535 514.65625,156.375 C 517.08777,159.70657 519.33696,163.12767 521.4375,166.59375 C 517.69248,164.81549 513.40645,164.80485 509.0625,165.53125 C 513.49166,172.46205 519.58437,176.41552 526.03125,174.71875 C 528.1078,178.71718 529.9605,182.78461 531.625,186.90625 C 528.2075,184.53983 523.94578,183.85086 519.53125,183.875 C 522.79847,191.42479 528.20737,196.30453 534.84375,195.65625 C 536.24687,199.92436 537.42353,204.24882 538.40625,208.59375 C 535.40846,205.70086 531.33903,204.36927 526.96875,203.6875 C 528.98941,211.66101 533.53382,217.33018 540.1875,217.75 C 540.88447,222.16973 541.34879,226.6172 541.625,231.0625 C 539.12663,227.74952 535.31583,225.77171 531.125,224.40625 C 531.84731,232.59561 535.41138,238.92589 541.90625,240.40625 C 541.88976,244.85339 541.64923,249.2991 541.21875,253.71875 C 539.27654,250.07376 535.84076,247.53955 531.9375,245.53125 C 531.34526,253.71488 533.85094,260.52165 540,263.03125 C 539.28079,267.40781 538.37503,271.76645 537.25,276.0625 C 535.91614,272.14882 532.91135,269.10786 529.375,266.5 C 527.48082,274.50088 528.86302,281.64336 534.5625,285.09375 C 533.152,289.31838 531.55987,293.47173 529.75,297.5625 C 529.07276,293.45845 526.55998,289.96769 523.46875,286.8125 C 520.32167,294.41046 520.57682,301.65365 525.65625,305.96875 C 523.58871,309.91566 521.32832,313.76789 518.875,317.53125 C 518.86108,313.37185 516.98571,309.5141 514.4375,305.90625 C 510.1145,312.91146 509.19121,320.11658 513.53125,325.1875 C 510.86098,328.74426 508.0049,332.16994 504.96875,335.5 C 505.61823,331.39198 504.40858,327.28035 502.46875,323.3125 C 497.09558,329.52437 495.02585,336.49618 498.46875,342.1875 C 494.51518,345.98897 490.31724,349.60179 485.84375,353 C 472.63093,363.03687 460.07556,369.63139 444.3125,374.8125 L 445.25,377.65625 C 461.28315,372.38637 474.21704,365.58385 487.65625,355.375 C 492.23943,351.89347 496.54524,348.17803 500.59375,344.28125 C 506.52308,347.52548 513.43631,345.04661 519.375,339.25 C 515.37204,337.58319 511.273,336.59439 507.28125,337.40625 C 510.35605,334.02553 513.26263,330.51549 515.96875,326.90625 C 522.33139,329.14454 528.75622,325.59843 533.6875,318.9375 C 529.47844,317.93269 525.27372,317.60299 521.46875,319.03125 C 523.95365,315.20847 526.24809,311.28917 528.34375,307.28125 C 534.9845,308.47966 540.75587,303.95833 544.5625,296.59375 C 540.2342,296.27237 536.03489,296.65456 532.5,298.6875 C 534.34205,294.51419 535.97087,290.24704 537.40625,285.9375 C 544.16951,286.07882 549.16296,280.70254 551.75,272.8125 C 547.41422,273.18676 543.29377,274.19512 540.125,276.78125 C 541.2759,272.38029 542.23467,267.92107 542.96875,263.4375 C 549.66813,262.49818 553.73607,256.38936 555.03125,248.1875 C 550.80133,249.25105 546.90388,250.92852 544.1875,254 C 544.62903,249.46336 544.86043,244.90859 544.875,240.34375 C 551.33966,238.3482 554.37366,231.64778 554.34375,223.34375 C 550.35335,225.06177 546.78758,227.3385 544.59375,230.78125 C 544.30937,226.24101 543.80781,221.70129 543.09375,217.1875 C 549.14755,214.18267 551.07215,207.12486 549.71875,198.9375 C 546.06573,201.26238 542.9026,204.0513 541.28125,207.78125 C 540.28003,203.37258 539.05011,198.98699 537.625,194.65625 C 543.12052,190.72384 543.892,183.42836 541.25,175.5625 C 538.01136,178.44332 535.31565,181.71001 534.3125,185.65625 C 532.61918,181.47412 530.73398,177.33854 528.625,173.28125 C 533.42289,168.52247 533.01934,161.21868 529.15625,153.875 C 526.42457,157.22839 524.30496,160.86095 523.9375,164.90625 C 521.79867,161.38463 519.4738,157.9162 517,154.53125 C 518.4345,146.16284 511.61714,141.21427 503.625,139.53125 z"
         style="opacity:1;fill:#2c7008;fill-opacity:1;fill-rule:nonzero;stroke:none;stroke-width:3;stroke-linecap:butt;stroke-linejoin:round;stroke-miterlimit:4;stroke-dasharray:none;stroke-dashoffset:0;stroke-opacity:1" />
      <path
         inkscape:transform-center-y="-73"
         inkscape:transform-center-x="-85.48431"
         sodipodi:nodetypes="ccccc"
         id="path3561"
         d="M 537.12837,389.68237 C 508.6746,415.74969 478.28638,431.23118 440.47194,438.92466 L 433.84025,406.32905 L 481.88601,387.35444 C 498.24746,389.66992 517.84314,390.18472 537.12837,389.68237 z"
         style="fill:#560001;fill-opacity:1;fill-rule:nonzero;stroke:none;stroke-width:0.76200002;stroke-linecap:round;stroke-linejoin:round;stroke-miterlimit:4;stroke-dashoffset:0;stroke-opacity:1" />
      <path
         style="fill:#560001;fill-opacity:1;fill-rule:nonzero;stroke:none;stroke-width:0.76200002;stroke-linecap:round;stroke-linejoin:round;stroke-miterlimit:4;stroke-dashoffset:0;stroke-opacity:1"
         d="M 262.87163,389.68237 C 291.3254,415.74969 321.71362,431.23118 359.52806,438.92466 L 366.15975,406.32905 L 318.11399,387.35444 C 301.75254,389.66992 282.15686,390.18472 262.87163,389.68237 z"
         id="path3564"
         sodipodi:nodetypes="ccccc"
         inkscape:transform-center-x="85.48431"
         inkscape:transform-center-y="-73" />
      <path
         id="path3212"
         d="M 400,117.25 C 332.23972,117.25 277.25,172.23972 277.25,240 C 277.25,289.5043 306.60451,332.18391 348.84375,351.59375 L 323.28125,407.3125 C 348.55968,418.90485 372.19026,424.06249 400,424.0625 C 427.80974,424.0625 451.44033,418.90484 476.71875,407.3125 L 451.15625,351.59375 C 493.39549,332.18391 522.74998,289.5043 522.75,240 C 522.75,172.23972 467.76028,117.25 400,117.25 z"
         style="opacity:1;fill:#ffffff;fill-opacity:1;fill-rule:nonzero;stroke:none;stroke-width:0.76047677;stroke-linecap:round;stroke-linejoin:round;stroke-miterlimit:4;stroke-dasharray:none;stroke-dashoffset:0;stroke-opacity:1" />
      <path
         d="M 517.67052,240 A 117.67052,117.67052 0 1 1 282.32948,240 A 117.67052,117.67052 0 1 1 517.67052,240 z"
         sodipodi:ry="117.67052"
         sodipodi:rx="117.67052"
         sodipodi:cy="240"
         sodipodi:cx="400"
         id="path3503"
         style="opacity:1;fill:#560001;fill-opacity:1;fill-rule:nonzero;stroke:none;stroke-width:0.76200002;stroke-linecap:round;stroke-linejoin:round;stroke-miterlimit:4;stroke-dasharray:none;stroke-dashoffset:0;stroke-opacity:1"
         sodipodi:type="arc" />
      <path
         id="path3357"
         d="M 400,137.46987 C 398.0016,137.45883 395.99174,137.5151 393.99531,137.68003 L 395.91681,170.55574 C 394.34265,170.64709 392.77761,170.81158 391.23314,171.00608 L 387.08991,138.31051 C 385.09719,138.51525 383.13763,138.83318 381.17527,139.21121 C 379.21294,139.58925 377.23125,140.0466 375.29072,140.53224 L 383.24692,172.47722 C 381.70545,172.85876 380.18241,173.28574 378.68335,173.76822 L 368.62545,142.42373 C 366.70426,142.99114 364.81052,143.67308 362.95103,144.40529 C 361.09157,145.13747 359.245,145.91319 357.42672,146.74712 L 371.11742,176.71055 C 369.6906,177.36336 368.28729,178.06763 366.91414,178.81216 L 351.24189,149.83954 C 349.45765,150.75027 347.71109,151.75047 346.01781,152.81185 C 344.32455,153.87323 342.668,155.02064 341.03392,156.17449 L 359.9787,183.10552 C 358.70003,184.00714 357.43906,184.94415 356.22579,185.92772 L 335.5096,160.34774 C 333.92309,161.57081 332.38539,162.86634 330.916,164.22076 C 329.44658,165.57522 328.01688,166.9896 326.62263,168.42404 L 350.22109,191.45208 C 349.12722,192.5735 348.05542,193.71181 347.0386,194.90474 L 321.96901,173.55805 C 320.63426,175.05183 319.38159,176.6103 318.18604,178.21169 C 316.99053,179.81309 315.84028,181.46935 314.73335,183.13555 L 342.14478,201.41983 C 341.27433,202.72196 340.4358,204.05097 339.65282,205.41296 L 311.07049,189.02015 C 310.03292,190.73374 309.09921,192.51049 308.21826,194.30428 C 307.33733,196.09808 306.5082,197.92728 305.72632,199.76856 L 336.02002,212.67862 C 335.40459,214.1171 334.82794,215.5758 334.30866,217.06206 L 303.23436,206.22359 C 302.52932,208.09866 301.90926,210.00296 301.37291,211.92806 C 300.83656,213.85318 300.36207,215.82911 299.93179,217.78262 L 332.08692,224.92821 C 331.75155,226.44472 331.42073,227.96999 331.1862,229.52181 L 298.67081,224.56794 C 298.32229,226.54063 298.09368,228.55173 297.92021,230.54261 C 297.74674,232.53348 297.62393,234.54794 297.55992,236.5473 L 330.49569,237.65819 C 330.46972,238.43855 330.43563,239.21335 330.43563,240 C 330.43563,240.78665 330.46972,241.56145 330.49569,242.34181 L 297.55992,243.4527 C 297.62393,245.45206 297.74674,247.46652 297.92021,249.45739 C 298.09368,251.44827 298.32229,253.45937 298.67081,255.43205 L 331.1862,250.47819 C 331.42073,252.03001 331.75155,253.55528 332.08692,255.07179 L 299.93179,262.21738 C 300.36207,264.1709 300.83656,266.14682 301.37291,268.07194 C 301.90926,269.99705 302.52932,271.90134 303.23436,273.77641 L 334.30866,262.93794 C 334.82794,264.4242 335.40459,265.8829 336.02002,267.32138 L 305.72632,280.23144 C 306.5082,282.07272 307.33733,283.90192 308.21826,285.69572 C 309.09921,287.4895 310.03292,289.26626 311.07049,290.97984 L 339.65282,274.58704 C 340.4358,275.94903 341.27433,277.27804 342.14478,278.58017 L 314.73335,296.86444 C 315.84028,298.53064 316.99053,300.18691 318.18604,301.78831 C 319.38159,303.38968 320.63426,304.94817 321.96901,306.44195 L 347.0386,285.09525 C 348.05542,286.28819 349.12722,287.4265 350.22109,288.54792 L 326.62263,311.57596 C 328.01688,313.01039 329.44658,314.42478 330.916,315.77924 C 332.38539,317.13366 333.92309,318.42919 335.5096,319.65226 L 356.22579,294.07228 C 357.43906,295.05585 358.70003,295.99286 359.9787,296.89448 L 341.03392,323.82551 C 342.668,324.97936 344.32455,326.12677 346.01781,327.18815 C 347.71109,328.24953 349.45765,329.24973 351.24189,330.16046 L 366.91414,301.18783 C 368.28729,301.93237 369.6906,302.63664 371.11742,303.28945 L 357.42672,333.25288 C 359.245,334.08683 361.09157,334.86253 362.95103,335.59471 C 364.81052,336.32691 366.70426,337.00886 368.62545,337.57627 L 378.68335,306.23178 C 380.18241,306.71426 381.70545,307.14124 383.24692,307.52278 L 375.29072,339.46776 C 377.23125,339.9534 379.21294,340.41075 381.17527,340.78879 C 383.13763,341.16682 385.09719,341.48475 387.08991,341.68949 L 391.23314,308.99392 C 392.77761,309.18842 394.34265,309.35291 395.91681,309.44426 L 393.99531,342.31997 C 395.99174,342.4849 398.0016,342.54117 400,342.53013 C 401.9984,342.51912 404.00796,342.4408 406.00469,342.31997 L 404.08319,309.44426 C 405.65735,309.35291 407.22239,309.18842 408.76686,308.99392 L 412.91009,341.68949 C 414.90281,341.48475 416.86237,341.16682 418.82473,340.78879 C 420.78706,340.41075 422.76875,339.9534 424.70928,339.46776 L 416.75308,307.52278 C 418.29455,307.14124 419.81759,306.71426 421.31665,306.23178 L 431.37455,337.57627 C 433.29574,337.00886 435.18948,336.32691 437.04896,335.59471 C 438.90843,334.86253 440.755,334.08683 442.57328,333.25288 L 428.88258,303.28945 C 430.3094,302.63664 431.71271,301.93237 433.08586,301.18783 L 448.75811,330.16046 C 450.54235,329.24973 452.28891,328.24953 453.98219,327.18815 C 455.67545,326.12677 457.332,324.97936 458.96608,323.82551 L 440.0213,296.89448 C 441.29997,295.99286 442.56094,295.05585 443.77421,294.07228 L 464.4904,319.65226 C 466.07691,318.42919 467.61461,317.13366 469.084,315.77924 C 470.55342,314.42478 471.98312,313.01039 473.37737,311.57596 L 449.7789,288.54792 C 450.87278,287.4265 451.94458,286.28819 452.9614,285.09525 L 478.03099,306.44195 C 479.36574,304.94817 480.61841,303.38968 481.81396,301.78831 C 483.00947,300.18691 484.15972,298.53064 485.26665,296.86444 L 457.85522,278.58017 C 458.72567,277.27804 459.5642,275.94903 460.34718,274.58704 L 488.92951,290.97984 C 489.96708,289.26626 490.90079,287.4895 491.78174,285.69572 C 492.66267,283.90192 493.4918,282.07272 494.27368,280.23144 L 463.97998,267.32138 C 464.59541,265.8829 465.17206,264.4242 465.69134,262.93794 L 496.76564,273.77641 C 497.47068,271.90134 498.09074,269.99705 498.62709,268.07194 C 499.16344,266.14682 499.63793,264.1709 500.06821,262.21738 L 467.91308,255.07179 C 468.24845,253.55528 468.57927,252.03001 468.8138,250.47819 L 501.32919,255.43205 C 501.67771,253.45937 501.90632,251.44827 502.07979,249.45739 C 502.25326,247.46652 502.37607,245.45206 502.44008,243.4527 L 469.50431,242.34181 C 469.53028,241.56145 469.56437,240.78665 469.56437,240 C 469.56437,239.21335 469.53028,238.43855 469.50431,237.65819 L 502.44008,236.5473 C 502.37607,234.54794 502.25326,232.53348 502.07979,230.54261 C 501.90632,228.55173 501.67771,226.54063 501.32919,224.56794 L 468.8138,229.52181 C 468.57927,227.96999 468.24845,226.44472 467.91308,224.92821 L 500.06821,217.78262 C 499.63793,215.82911 499.16344,213.85318 498.62709,211.92806 C 498.09074,210.00296 497.47068,208.09866 496.76564,206.22359 L 465.69134,217.06206 C 465.17206,215.5758 464.59541,214.1171 463.97998,212.67862 L 494.27368,199.76856 C 493.4918,197.92728 492.66267,196.09808 491.78174,194.30428 C 490.90079,192.51049 489.96708,190.73374 488.92951,189.02015 L 460.34718,205.41296 C 459.5642,204.05097 458.72567,202.72196 457.85522,201.41983 L 485.26665,183.13555 C 484.15972,181.46935 483.00947,179.81309 481.81396,178.21169 C 480.61841,176.6103 479.36574,175.05183 478.03099,173.55805 L 452.9614,194.90474 C 451.94458,193.71181 450.87278,192.5735 449.7789,191.45208 L 473.37737,168.42404 C 471.98312,166.9896 470.55342,165.57522 469.084,164.22076 C 467.61461,162.86634 466.07691,161.57081 464.4904,160.34774 L 443.77421,185.92772 C 442.56094,184.94415 441.29997,184.00714 440.0213,183.10552 L 458.96608,156.17449 C 457.332,155.02064 455.67545,153.87323 453.98219,152.81185 C 452.28891,151.75047 450.54235,150.75027 448.75811,149.83954 L 433.08586,178.81216 C 431.71271,178.06763 430.3094,177.36336 428.88258,176.71055 L 442.57328,146.74712 C 440.755,145.91319 438.90843,145.13747 437.04896,144.40529 C 435.18948,143.67308 433.29574,142.99114 431.37455,142.42373 L 421.31665,173.76822 C 419.81759,173.28574 418.29455,172.85876 416.75308,172.47722 L 424.70928,140.53224 C 422.76875,140.0466 420.78706,139.58925 418.82473,139.21121 C 416.86237,138.83318 414.90281,138.51525 412.91009,138.31051 L 408.76686,171.00608 C 407.22239,170.81158 405.65735,170.64709 404.08319,170.55574 L 406.00469,137.68003 C 404.00796,137.5592 401.9984,137.48088 400,137.46987 z"
         style="fill:#fbcb00;fill-opacity:1;fill-rule:evenodd;stroke:none;stroke-width:1px;stroke-linecap:butt;stroke-linejoin:miter;stroke-opacity:1" />
      <path
         id="path3484"
         d="M 400,187.25 L 411.84417,223.6979 L 450.16823,223.69935 L 419.16427,246.22685 L 431.00567,282.67565 L 400,260.1505 L 368.99433,282.67565 L 380.83573,246.22685 L 349.83177,223.69935 L 388.15583,223.6979 L 400,187.25 z"
         style="fill:#808080;fill-opacity:1;fill-rule:nonzero;stroke:#000000;stroke-width:2;stroke-linecap:round;stroke-linejoin:round;stroke-miterlimit:4;stroke-dasharray:none;stroke-dashoffset:0;stroke-opacity:1" />
      <path
         inkscape:transform-center-y="-26.375"
         inkscape:transform-center-x="5.922085"
         sodipodi:nodetypes="cccc"
         style="fill:#000000;fill-opacity:1;fill-rule:nonzero;stroke:none;stroke-width:0.76200002;stroke-linecap:round;stroke-linejoin:round;stroke-miterlimit:4;stroke-dashoffset:0;stroke-opacity:1"
         d="M 400,187.25 L 400,240 L 388.15583,223.6979 L 400,187.25 z"
         id="path3491" />
      <path
         id="path3493"
         d="M 349.83177,223.69935 L 400,240 L 380.83573,246.22685 L 349.83177,223.69935 z"
         style="fill:#000000;fill-opacity:1;fill-rule:nonzero;stroke:none;stroke-width:0.76200002;stroke-linecap:round;stroke-linejoin:round;stroke-miterlimit:4;stroke-dashoffset:0;stroke-opacity:1"
         sodipodi:nodetypes="cccc"
         inkscape:transform-center-x="25.084115"
         inkscape:transform-center-y="-5.0369" />
      <path
         inkscape:transform-center-y="21.33782"
         inkscape:transform-center-x="15.50284"
         sodipodi:nodetypes="cccc"
         style="fill:#000000;fill-opacity:1;fill-rule:nonzero;stroke:none;stroke-width:0.76200002;stroke-linecap:round;stroke-linejoin:round;stroke-miterlimit:4;stroke-dashoffset:0;stroke-opacity:1"
         d="M 368.99432,282.67564 L 400,240 L 400,260.15051 L 368.99432,282.67564 z"
         id="path3495" />
      <path
         id="path3497"
         d="M 431.00566,282.67565 L 400,240 L 419.16427,246.22685 L 431.00566,282.67565 z"
         style="fill:#000000;fill-opacity:1;fill-rule:nonzero;stroke:none;stroke-width:0.76200002;stroke-linecap:round;stroke-linejoin:round;stroke-miterlimit:4;stroke-dashoffset:0;stroke-opacity:1"
         sodipodi:nodetypes="cccc"
         inkscape:transform-center-x="-15.50283"
         inkscape:transform-center-y="21.337825" />
      <path
         inkscape:transform-center-y="-8.15105"
         inkscape:transform-center-x="-25.084115"
         sodipodi:nodetypes="cccc"
         style="fill:#000000;fill-opacity:1;fill-rule:nonzero;stroke:none;stroke-width:0.76200002;stroke-linecap:round;stroke-linejoin:round;stroke-miterlimit:4;stroke-dashoffset:0;stroke-opacity:1"
         d="M 450.16823,223.69937 L 400,240 L 411.84417,223.6979 L 450.16823,223.69937 z"
         id="path3499" />
      <path
         id="text3566"
         d="M 234.72576,155.87347 C 238.30444,157.61497 240.654,160.21943 241.77442,163.68684 C 242.89482,167.15432 242.61081,170.96982 240.92239,175.13335 C 238.97831,179.92731 235.97139,183.04831 231.90162,184.49635 C 227.83185,185.9444 223.09945,185.57451 217.70442,183.38667 C 212.19212,181.1513 208.51986,178.083 206.68761,174.18177 C 204.85542,170.28058 204.9708,165.7864 207.03375,160.69921 C 208.71032,156.56502 211.04251,153.70814 214.03033,152.12859 C 217.01819,150.54912 220.39955,150.3882 224.17442,151.64584 L 221.508,158.22103 C 219.56251,157.75646 217.8629,157.93786 216.40918,158.76523 C 214.95549,159.59267 213.8095,161.03993 212.97121,163.10701 C 211.7822,166.03912 211.82413,168.65096 213.097,170.94255 C 214.36991,173.23418 216.82424,175.11719 220.46001,176.59158 C 223.97851,178.01843 227.00568,178.36259 229.54151,177.62404 C 232.07735,176.88553 233.91304,175.11619 235.04857,172.31604 C 235.869,170.29292 236.02403,168.42673 235.51365,166.71746 C 235.00326,165.00823 233.85777,163.57064 232.07718,162.40468 L 234.72576,155.87347 z M 250.34211,153.65052 L 220.45704,135.5208 L 224.18637,129.37337 L 254.07144,147.50309 L 250.34211,153.65052 z M 263.71546,133.83121 L 241.44557,115.70646 L 234.89969,123.74939 L 230.05921,119.80988 L 247.6447,98.202561 L 252.48518,102.14207 L 245.98424,110.12979 L 268.25413,128.25453 L 263.71546,133.83121 z M 291.15053,105.83001 L 285.67901,110.49492 L 277.22675,100.58119 L 253.34015,92.132493 L 260.0396,86.420671 L 275.50411,93.037721 L 270.98263,77.090849 L 277.23063,71.763921 L 282.69827,95.916275 L 291.15053,105.83001 z M 316.40257,68.865457 C 317.91326,72.400463 319.87225,74.810549 322.27953,76.095724 C 324.68679,77.380924 327.30151,77.420483 330.1237,76.214402 C 332.97494,74.995912 334.77532,73.069539 335.52483,70.435276 C 336.27429,67.801051 335.89369,64.716436 334.38301,61.181423 C 332.8723,57.646464 330.90604,55.239486 328.48424,53.960481 C 326.0624,52.681545 323.42586,52.651311 320.5746,53.869779 C 317.75243,55.075882 315.97232,56.989294 315.23427,59.610018 C 314.49623,62.230801 314.88566,65.315944 316.40257,68.865457 L 316.40257,68.865457 z M 309.65991,71.74697 C 307.4405,66.553613 307.0943,61.828511 308.6213,57.57165 C 310.14832,53.314852 313.31213,50.160657 318.11273,48.109055 C 322.91332,46.057535 327.38839,45.951521 331.53793,47.791012 C 335.68744,49.630584 338.86881,53.139764 341.08203,58.31856 C 343.29521,63.497417 343.63258,68.221991 342.09416,72.492295 C 340.55568,76.762631 337.38615,79.923571 332.58557,81.975125 C 327.78495,84.026693 323.31716,84.129599 319.18219,82.283844 C 315.0472,80.438101 311.87311,76.925814 309.65991,71.74697 L 309.65991,71.74697 z M 355.58002,72.665179 L 348.78476,38.377742 L 372.71381,33.635365 L 373.89479,39.594349 L 356.92565,42.957378 L 358.46646,50.73199 L 373.34065,47.78415 L 374.52163,53.743134 L 359.64744,56.690974 L 362.53992,71.28583 L 355.58002,72.665179 z M 402.12723,66.830682 L 404.99976,31.994603 L 430.28134,34.07928 L 429.78211,40.133616 L 411.5718,38.632024 L 410.95947,46.058045 L 427.60889,47.430929 L 427.11746,53.390665 L 410.46804,52.017781 L 409.72894,60.981036 L 428.79064,62.552832 L 428.2602,68.985563 L 402.12723,66.830682 z M 435.65133,70.611052 L 444.90204,36.903069 L 451.83586,38.805965 L 444.29336,66.289528 L 460.74688,70.804981 L 459.03867,77.029401 L 435.65133,70.611052 z M 495.06972,73.649623 L 501.003,77.274396 C 502.60948,78.255853 503.98548,78.628384 505.13101,78.39199 C 506.27648,78.155608 507.31109,77.281411 508.23484,75.769398 C 509.1008,74.351902 509.39872,73.06009 509.12862,71.893959 C 508.85844,70.727852 508.01462,69.711799 506.59715,68.845798 L 500.33987,65.023086 L 495.06972,73.649623 z M 491.7261,79.031654 L 485.24358,89.642699 L 479.1078,85.894214 L 497.33063,56.065836 L 510.59444,64.168997 C 513.72641,66.082433 515.60214,68.345306 516.22161,70.957622 C 516.841,73.569965 516.18989,76.448885 514.26826,79.594391 C 512.3878,82.672406 510.14855,84.562561 507.55051,85.264862 C 504.95241,85.967161 502.18862,85.423459 499.25914,83.633754 L 491.7261,79.031654 z M 536.65537,93.052551 L 522.97394,100.64396 L 530.07761,107.25728 L 536.65537,93.052551 z M 538.36853,85.083044 L 544.44747,90.742367 L 529.85242,124.91201 L 524.32927,119.77011 L 527.49179,112.89054 L 517.57444,103.65776 L 510.99035,107.35194 L 505.44983,102.19387 L 538.36853,85.083044 z M 541.1534,121.86736 L 545.27737,127.64108 C 543.876,128.97252 543.17577,130.43501 543.17668,132.02854 C 543.17757,133.62206 543.89063,135.41651 545.31588,137.41189 C 546.52961,139.11116 547.74704,140.17598 548.96817,140.60634 C 550.18927,141.03668 551.392,140.82888 552.57637,139.98295 C 554.30138,138.7508 553.96028,135.25203 551.55307,129.48662 C 551.51995,129.41306 551.49144,129.34593 551.46756,129.28525 C 551.40133,129.13812 551.30387,128.9064 551.17516,128.59009 C 549.86026,125.5244 549.1587,123.16766 549.07046,121.51988 C 548.9969,120.05601 549.31553,118.67168 550.02635,117.36688 C 550.73714,116.0621 551.83276,114.88099 553.31322,113.82355 C 556.08097,111.84663 558.87309,111.27151 561.6896,112.09817 C 564.50604,112.92487 567.18319,115.11473 569.72106,118.66777 C 572.09334,121.98911 573.16316,125.14721 572.93053,128.14208 C 572.69782,131.13695 571.18932,133.70652 568.40503,135.85082 L 564.39139,130.23159 C 565.69525,129.14473 566.36743,127.86752 566.40794,126.39997 C 566.44838,124.93242 565.83876,123.31682 564.57908,121.55316 C 563.48483,120.02124 562.34188,119.05389 561.15022,118.65112 C 559.9585,118.24837 558.8091,118.44237 557.70202,119.23314 C 556.19581,120.30896 556.22336,122.72914 557.78469,126.49366 C 558.20395,127.51617 558.53037,128.3134 558.76395,128.88534 C 559.71651,131.33495 560.3551,133.09997 560.67971,134.18042 C 561.00425,135.26085 561.21619,136.25163 561.31552,137.15277 C 561.49937,138.77112 561.26718,140.24924 560.61893,141.58715 C 559.97062,142.92502 558.90627,144.12268 557.42586,145.18013 C 554.46496,147.29497 551.45766,147.9363 548.40397,147.10412 C 545.35024,146.2719 542.52689,144.04065 539.9339,140.41038 C 537.37767,136.83157 536.20348,133.43209 536.41134,130.21195 C 536.61918,126.99179 538.19987,124.21027 541.1534,121.86736 L 541.1534,121.86736 z M 571.15759,156.47416 C 567.62184,157.98311 565.21078,159.9409 563.92442,162.34754 C 562.63803,164.75417 562.59717,167.36887 563.80186,170.19165 C 565.01894,173.0435 566.94442,174.84483 569.57831,175.59564 C 572.21217,176.3464 575.29697,175.96732 578.83273,174.4584 C 582.36844,172.94943 584.77639,170.98437 586.05659,168.56319 C 587.33672,166.14199 587.36826,163.50547 586.1512,160.65361 C 584.94649,157.83084 583.03396,156.04978 580.4136,155.31044 C 577.79319,154.5711 574.70785,154.959 571.15759,156.47416 L 571.15759,156.47416 z M 568.27941,149.73007 C 573.47386,147.51323 578.19914,147.16937 582.45524,148.69848 C 586.71128,150.2276 589.86391,153.39297 591.91314,158.19458 C 593.96229,162.99619 594.06609,167.4713 592.22455,171.61994 C 590.38292,175.76854 586.87217,178.94817 581.69228,181.15884 C 576.51233,183.36945 571.78759,183.70448 567.51805,182.16395 C 563.24847,180.62336 560.0891,177.45227 558.03992,172.65068 C 555.99073,167.84905 555.89003,163.38121 557.73783,159.24714 C 559.58561,155.11307 563.09947,151.94071 568.27941,149.73007 L 568.27941,149.73007 z"
         style="font-size:48.59906769px;font-style:normal;font-variant:normal;font-weight:bold;font-stretch:normal;text-align:center;line-height:125%;writing-mode:lr-tb;text-anchor:middle;fill:#000000;fill-opacity:1;stroke:none;stroke-width:1px;stroke-linecap:butt;stroke-linejoin:miter;stroke-opacity:1;font-family:Swis721 BT;-inkscape-font-specification:Swis721 BT Bold" />
      <path
         id="text3221"
         d="M 348.06967,366.89111 L 349.81721,361.51283 L 367.47031,367.24877 L 365.72278,372.62705 L 359.75263,370.6872 L 349.40954,402.51939 L 343.67099,400.65479 L 354.01409,368.8226 L 348.06967,366.89111 z M 364.56107,406.59783 L 371.13263,368.02819 L 386.62984,370.66863 L 385.68001,376.24336 L 376.13095,374.61637 L 374.40853,384.72557 L 381.29025,385.89809 L 380.34042,391.47281 L 373.4587,390.30029 L 371.49541,401.82317 L 381.04446,403.45016 L 380.05827,409.23827 L 364.56107,406.59783 z M 388.12427,410.10931 L 395.4427,390.28568 L 388.57771,370.98631 L 394.82781,371.04146 L 398.40581,382.60007 L 398.67638,382.60246 L 402.64719,371.11045 L 408.81611,371.16489 L 401.83262,389.82794 L 409.06613,410.29409 L 402.76193,410.23846 L 398.9241,397.45991 L 398.70765,397.458 L 394.32025,410.16398 L 388.12427,410.10931 z M 415.81314,409.79127 L 416.14986,370.1408 L 423.9297,368.92806 L 436.29204,406.59898 L 430.16976,407.55333 L 427.66227,399.37286 L 421.64692,400.31054 L 421.66807,408.87859 L 415.81314,409.79127 z M 421.54117,394.7132 L 426.08609,394.00473 L 421.53708,378.1736 L 421.1628,378.23195 L 421.54117,394.7132 z M 441.1691,395.17029 L 446.36647,392.53351 C 447.09407,394.38271 447.91516,395.65446 448.82975,396.34878 C 449.74432,397.04312 450.80083,397.19145 451.99929,396.7938 C 453.04364,396.44728 453.78175,395.83651 454.21364,394.96149 C 454.6455,394.08649 454.6825,393.10968 454.32463,392.03107 C 453.68269,390.09646 451.31245,388.10811 447.2139,386.06603 C 446.89467,385.90589 446.65526,385.78577 446.49565,385.70567 C 442.48261,383.69227 439.77967,382.01862 438.3868,380.68474 C 436.99395,379.3509 435.99644,377.77657 435.39427,375.96176 C 434.52513,373.34233 434.65405,370.8526 435.78103,368.49254 C 436.90803,366.13256 438.71276,364.5407 441.19525,363.71696 C 443.60926,362.91602 445.86079,363.08596 447.94984,364.2268 C 450.03888,365.36771 451.66335,367.31368 452.82324,370.0647 L 447.48895,372.7184 C 446.83519,371.09182 446.14505,369.99993 445.41852,369.44273 C 444.69199,368.8856 443.82367,368.7746 442.81355,369.10972 C 441.88904,369.41652 441.25225,369.97466 440.90317,370.78415 C 440.5541,371.59371 440.55282,372.52065 440.89935,373.56498 C 441.61512,375.72221 444.34726,377.94208 449.09578,380.22459 C 449.27819,380.31613 449.4264,380.39049 449.54041,380.44767 C 453.02909,382.14095 455.45416,383.66448 456.81563,385.01824 C 458.17708,386.37205 459.19297,388.05905 459.86331,390.07927 C 460.76085,392.78435 460.65901,395.2841 459.5578,397.57855 C 458.45655,399.87301 456.62189,401.44629 454.05381,402.2984 C 451.21178,403.2414 448.65506,403.08244 446.38364,401.82152 C 444.11222,400.56061 442.37404,398.34353 441.1691,395.17029 L 441.1691,395.17029 z"
         style="font-size:55.41422653px;font-style:normal;font-variant:normal;font-weight:normal;font-stretch:normal;text-align:center;line-height:125%;writing-mode:lr-tb;text-anchor:middle;fill:#000000;fill-opacity:1;stroke:none;stroke-width:1px;stroke-linecap:butt;stroke-linejoin:miter;stroke-opacity:1;font-family:AlternateGothic2 BT;-inkscape-font-specification:AlternateGothic2 BT" />
    </g>
  </g>
</svg>
