<?xml version="1.0" encoding="UTF-8" standalone="no"?>
<!-- Created with Inkscape (http://www.inkscape.org/) -->
<svg
   xmlns:dc="http://purl.org/dc/elements/1.1/"
   xmlns:cc="http://creativecommons.org/ns#"
   xmlns:rdf="http://www.w3.org/1999/02/22-rdf-syntax-ns#"
   xmlns:svg="http://www.w3.org/2000/svg"
   xmlns="http://www.w3.org/2000/svg"
   xmlns:sodipodi="http://sodipodi.sourceforge.net/DTD/sodipodi-0.dtd"
   xmlns:inkscape="http://www.inkscape.org/namespaces/inkscape"
   width="800"
   height="400"
   id="svg2"
   sodipodi:version="0.32"
   inkscape:version="0.46"
   version="1.0"
   sodipodi:docname="Flag of Irving, Texas.svg"
   inkscape:output_extension="org.inkscape.output.svg.inkscape">
  <defs
     id="defs4">
    <inkscape:perspective
       sodipodi:type="inkscape:persp3d"
       inkscape:vp_x="0 : 526.18109 : 1"
       inkscape:vp_y="0 : 1000 : 0"
       inkscape:vp_z="744.09448 : 526.18109 : 1"
       inkscape:persp3d-origin="372.04724 : 350.78739 : 1"
       id="perspective10" />
    <inkscape:perspective
       id="perspective2470"
       inkscape:persp3d-origin="372.04724 : 350.78739 : 1"
       inkscape:vp_z="744.09448 : 526.18109 : 1"
       inkscape:vp_y="0 : 1000 : 0"
       inkscape:vp_x="0 : 526.18109 : 1"
       sodipodi:type="inkscape:persp3d" />
  </defs>
  <sodipodi:namedview
     id="base"
     pagecolor="#ffffff"
     bordercolor="#666666"
     borderopacity="1.0"
     gridtolerance="10000"
     guidetolerance="10"
     objecttolerance="10"
     inkscape:pageopacity="0.0"
     inkscape:pageshadow="2"
     inkscape:zoom="0.35355339"
     inkscape:cx="285.42639"
     inkscape:cy="404.34651"
     inkscape:document-units="px"
     inkscape:current-layer="layer1"
     showgrid="false"
     width="800px"
     inkscape:window-width="1280"
     inkscape:window-height="952"
     inkscape:window-x="-4"
     inkscape:window-y="-4"
     showguides="true"
     inkscape:guide-bbox="true">
    <inkscape:grid
       type="xygrid"
       id="grid2383"
       visible="true"
       enabled="true" />
    <sodipodi:guide
       orientation="1,0"
       position="0,533.08594"
       id="guide2469" />
    <sodipodi:guide
       orientation="1,0"
       position="800,-0.234375"
       id="guide2471" />
    <sodipodi:guide
       orientation="0,1"
       position="800.58203,0"
       id="guide2473" />
    <sodipodi:guide
       orientation="0,1"
       position="-0.16015625,400"
       id="guide3314" />
    <sodipodi:guide
       orientation="1,0"
       position="400,510.1737"
       id="guide3316" />
  </sodipodi:namedview>
  <metadata
     id="metadata7">
    <rdf:RDF>
      <cc:Work
         rdf:about="">
        <dc:format>image/svg+xml</dc:format>
        <dc:type
           rdf:resource="http://purl.org/dc/dcmitype/StillImage" />
      </cc:Work>
    </rdf:RDF>
  </metadata>
  <g
     inkscape:label="Layer 1"
     inkscape:groupmode="layer"
     id="layer1">
    <rect
       style="opacity:1;fill:#ffffff;fill-opacity:1;stroke:none;stroke-width:14;stroke-miterlimit:4;stroke-dasharray:none;stroke-opacity:1"
       id="rect3338"
       width="800"
       height="400"
       x="0"
       y="0" />
    <path
       transform="matrix(1.0235988,0,0,1.0235988,2.0065985,-23.650497)"
       style="fill:#ffffff;fill-opacity:1;stroke:#002673;stroke-width:13.6772337;stroke-miterlimit:4;stroke-opacity:1"
       d="M 334.4615,193.17126 C 334.4615,259.331 280.76664,313.02586 214.6069,313.02586 C 148.44716,313.02586 94.752304,259.331 94.752304,193.17126 C 94.752304,127.01153 148.44716,73.316666 214.6069,73.316666 C 280.76664,73.316666 334.4615,127.01153 334.4615,193.17126 z"
       id="path3310" />
    <path
       sodipodi:nodetypes="ccccccccccc"
       style="opacity:1;fill:#002673;fill-opacity:1;fill-rule:evenodd;stroke:none;stroke-width:10;stroke-linecap:butt;stroke-linejoin:miter;stroke-miterlimit:4;stroke-dasharray:none;stroke-opacity:1"
       d="M 151.5,118.5625 C 159.59055,114.48123 169.30715,111.63406 179.1875,112.33429 C 190.99036,113.17075 201.09479,119.627 210.8125,130.76444 C 221.66605,143.20365 234.56952,151.77985 249.6875,152.85126 C 260.5782,153.62307 269.60041,151.84173 277.5,148.54475 L 277.5,189.81756 C 270.5768,193.72072 259.92116,196.07467 249.8125,195.35827 C 238.00964,194.52181 227.90521,188.06556 218.1875,176.92812 C 207.33395,164.48889 194.43048,155.91269 179.3125,154.8413 C 168.45443,154.07178 159.12261,156.63452 151.5,159.86153 L 151.5,118.5625 z"
       id="path3300" />
    <path
       id="path3302"
       d="M 151.5,171.0599 C 159.59055,166.97863 169.30715,164.13146 179.1875,164.83169 C 190.99036,165.66815 201.09479,172.1244 210.8125,183.26184 C 221.66605,195.70105 234.56952,204.27725 249.6875,205.34866 C 260.5782,206.12047 269.60041,204.33913 277.5,201.04215 L 277.5625,201.06846 L 277.5,242.31496 C 270.5768,246.21812 259.92116,248.57207 249.8125,247.85567 C 238.00964,247.01921 227.90521,240.56296 218.1875,229.42552 C 207.33395,216.98629 194.43048,208.41009 179.3125,207.3387 C 168.45443,206.56918 159.12261,209.13192 151.5,212.35893 L 151.5,171.0599 z"
       style="opacity:1;fill:#002673;fill-opacity:1;fill-rule:evenodd;stroke:none;stroke-width:10;stroke-linecap:butt;stroke-linejoin:miter;stroke-miterlimit:4;stroke-dasharray:none;stroke-opacity:1"
       sodipodi:nodetypes="cccccccccccc" />
    <path
       style="fill:#002673;fill-opacity:1;stroke:none;stroke-width:10;stroke-miterlimit:4;stroke-opacity:1"
       d="M 279,118.5 C 279,132.852 267.352,144.5 253,144.5 C 238.648,144.5 227,132.852 227,118.5 C 227,104.148 238.648,92.5 253,92.5 C 267.352,92.5 279,104.148 279,118.5 z"
       id="path3308" />
    <path
       id="path3318"
       style="fill:#c70f2e;fill-rule:evenodd;stroke:none;stroke-width:1px;stroke-linecap:butt;stroke-linejoin:miter;stroke-opacity:1;fill-opacity:1"
       d="M 800,85.40934 L 621.31469,85.40934 C 532.67503,85.40934 468.79535,116.97722 400,210.36228 C 331.20465,303.74734 267.32497,335.31522 178.68531,335.31522 L 0,335.31522 L 0,400 L 800,400 L 800,85.40934 z"
       sodipodi:nodetypes="cszsc" />
  </g>
</svg>
