<?xml version="1.0" encoding="iso-8859-1"?>
<svg xmlns="http://www.w3.org/2000/svg" width="7.9330in" height="4.9330in" viewBox="0 0 7933 4933">
<path style="fill:#ffffff" d="M0,0 L7933,0 7933,4933 0,4933 0,0z"/>
<path style="fill:#b2b2b2" d="M7939,0 L7933,-6 0,-6 0,6 7933,6 7927,0 7939,0 7939,-6 7933,-6z"/>
<path style="fill:#b2b2b2" d="M7933,4939 L7939,4933 7939,0 7927,0 7927,4933 7933,4927 7933,4939 7939,4939 7939,4933z"/>
<path style="fill:#b2b2b2" d="M-6,4933 L0,4939 7933,4939 7933,4927 0,4927 6,4933 -6,4933 -6,4939 0,4939z"/>
<path style="fill:#b2b2b2" d="M0,-6 L-6,0 -6,4933 6,4933 6,0 0,6 0,-6 -6,-6 -6,0z"/>
<path style="fill:#ffea2c" d="M2381,0 L3224,0 3224,4933 2381,4933 2381,0z"/>
<path style="fill:#006633" d="M3224,4933 L3264,4933 3264,0 3184,0 3184,4933 3224,4933z"/>
<path style="fill:#006633" d="M2381,0 L2341,0 2341,4933 2421,4933 2421,0 2381,0z"/>
<path style="fill:#006633" d="M2551,0 L3053,0 3053,4933 2551,4933 2551,0z"/>
<path style="fill:#ffea2c" d="M0,2887 L0,2044 7933,2044 7933,2887 0,2887z"/>
<path style="fill:#003399" d="M7933,2044 L7933,2004 0,2004 0,2084 7933,2084 7933,2044z"/>
<path style="fill:#003399" d="M0,2887 L0,2927 7933,2927 7933,2847 0,2847 0,2887z"/>
<path style="fill:#003399" d="M0,2717 L0,2215 7933,2215 7933,2717 0,2717z"/>
<circle style="fill:#ffea2c" cx="2802" cy="2465" r="1130"/>
<path style="fill:#336699" d="M1677,2665 L3948,2665 3820,3100 3469,3489 3103,3627 2486,3591 1931,3402 1764,3029 1677,2665z"/>
<path d="M3958,2668 L3948,2655 1677,2655 1677,2675 3948,2675 3938,2662 3948,2675 3955,2672 3958,2665 3955,2658 3948,2655z"/>
<path d="M3828,3107 L3830,3103 3958,2668 3938,2662 3810,3097 3812,3093 3810,3097 3811,3105 3817,3110 3825,3109 3830,3103z"/>
<path d="M3473,3499 L3477,3496 3828,3107 3812,3093 3461,3482 3465,3479 3461,3482 3458,3490 3462,3496 3469,3499 3477,3496z"/>
<path d="M3102,3637 L3107,3637 3473,3499 3465,3479 3099,3617 3104,3617 3099,3617 3093,3623 3093,3631 3098,3637 3107,3637z"/>
<path d="M2483,3601 L2485,3601 3102,3637 3104,3617 2487,3581 2489,3581 2487,3581 2479,3584 2476,3590 2478,3597 2485,3601z"/>
<path d="M1922,3406 L1928,3412 2483,3601 2489,3581 1934,3392 1940,3398 1934,3392 1926,3393 1921,3399 1922,3407 1928,3412z"/>
<path d="M1754,3031 L1755,3033 1922,3406 1940,3398 1773,3025 1774,3027 1773,3025 1767,3019 1760,3020 1755,3025 1755,3033z"/>
<path d="M1677,2655 L1667,2667 1754,3031 1774,3027 1687,2663 1677,2675 1687,2663 1683,2656 1676,2655 1669,2659 1667,2667z"/>
<path style="fill:#000066" d="M3619,2714 L3606,2708 3594,2702 3581,2698 3568,2694 3556,2692 3543,2690 3530,2689 3517,2688 3504,2689 3491,2690 3478,2693 3465,2695 3452,2699 3439,2703 3425,2708 3412,2714 3421,2717 3430,2719 3440,2721 3450,2723 3461,2724 3473,2725 3485,2726 3497,2726 3510,2726 3524,2725 3538,2725 3553,2723 3569,2722 3585,2719 3602,2717 3619,2714z"/>
<ellipse style="fill:#000066" cx="2106" cy="2722" rx="103" ry="19"/>
<path style="fill:#6699ff" d="M1981,2729 L1968,2723 1956,2717 1943,2713 1930,2709 1918,2707 1905,2705 1892,2704 1879,2703 1866,2704 1853,2705 1840,2708 1827,2710 1814,2714 1801,2718 1787,2723 1774,2729 1783,2732 1792,2734 1802,2736 1812,2738 1823,2739 1835,2740 1847,2741 1859,2741 1872,2741 1886,2740 1900,2740 1915,2738 1931,2737 1947,2734 1964,2732 1981,2729z"/>
<ellipse style="fill:#6699ff" cx="2341" cy="2728" rx="103" ry="19"/>
<path style="fill:#6699ff" d="M2255,2791 L2242,2785 2230,2779 2217,2775 2204,2771 2192,2769 2179,2767 2166,2766 2153,2765 2140,2766 2127,2767 2114,2770 2101,2772 2088,2776 2075,2780 2061,2785 2048,2791 2057,2794 2066,2796 2076,2798 2086,2800 2097,2801 2109,2802 2121,2803 2133,2803 2146,2803 2160,2802 2174,2802 2189,2800 2205,2799 2221,2796 2238,2794 2255,2791z"/>
<path style="fill:#6699ff" d="M3446,2750 L3433,2744 3421,2738 3408,2734 3395,2730 3383,2728 3370,2726 3357,2725 3344,2724 3331,2725 3318,2726 3305,2729 3292,2731 3279,2735 3266,2739 3252,2744 3239,2750 3248,2753 3257,2755 3267,2757 3277,2759 3288,2760 3300,2761 3312,2762 3324,2762 3337,2762 3351,2761 3365,2761 3380,2759 3396,2758 3412,2755 3429,2753 3446,2750z"/>
<path style="fill:#6699ff" d="M3843,2719 L3830,2713 3818,2707 3805,2703 3792,2699 3780,2697 3767,2695 3754,2694 3741,2693 3728,2694 3715,2695 3702,2698 3689,2700 3676,2704 3663,2708 3649,2713 3636,2719 3645,2722 3654,2724 3664,2726 3674,2728 3685,2729 3697,2730 3709,2731 3721,2731 3734,2731 3748,2730 3762,2730 3777,2728 3793,2727 3809,2724 3826,2722 3843,2719z"/>
<path style="fill:#000066" d="M2045,2801 L2029,2793 2013,2786 1997,2780 1980,2776 1964,2772 1947,2770 1931,2769 1914,2768 1897,2769 1880,2771 1864,2774 1847,2777 1830,2782 1812,2787 1795,2794 1778,2801 1790,2805 1802,2808 1814,2810 1828,2813 1842,2814 1857,2816 1872,2816 1888,2817 1905,2817 1923,2816 1941,2815 1960,2813 1980,2811 2001,2808 2023,2805 2045,2801z"/>
<path style="fill:#000066" d="M2173,2914 L2153,2904 2133,2896 2113,2888 2093,2883 2072,2878 2052,2876 2032,2874 2011,2873 1991,2874 1970,2877 1949,2880 1928,2884 1907,2890 1886,2897 1865,2905 1844,2914 1858,2918 1873,2922 1889,2925 1906,2928 1923,2930 1941,2932 1960,2933 1980,2933 2001,2933 2022,2932 2045,2931 2069,2929 2093,2926 2119,2923 2145,2919 2173,2914z"/>
<path style="fill:#000066" d="M3858,2781 L3845,2775 3833,2769 3820,2764 3807,2761 3795,2758 3782,2756 3769,2755 3756,2755 3743,2755 3730,2757 3717,2759 3704,2762 3691,2766 3678,2770 3664,2775 3651,2781 3660,2784 3669,2786 3679,2788 3689,2790 3700,2791 3712,2792 3724,2792 3736,2793 3749,2792 3763,2792 3777,2791 3792,2790 3808,2788 3824,2786 3841,2784 3858,2781z"/>
<path style="fill:#000066" d="M3721,2841 L3704,2832 3687,2825 3670,2819 3652,2814 3635,2810 3617,2808 3600,2806 3582,2806 3565,2807 3547,2809 3529,2812 3512,2816 3494,2820 3476,2826 3458,2833 3440,2841 3452,2845 3465,2848 3478,2851 3492,2853 3507,2855 3523,2856 3539,2857 3556,2857 3573,2857 3592,2857 3611,2855 3632,2854 3653,2851 3674,2848 3697,2845 3721,2841z"/>
<path style="fill:#cc6633" d="M1910,3001 L2013,2917 2061,2864 2105,2836 2149,2768 2213,2740 2277,2760 2353,2736 2433,2732 2454,2691 2505,2652 2505,2575 2533,2502 2585,2426 2585,2402 2618,2382 2657,2378 2701,2334 2833,2326 2918,2343 2962,2393 2987,2457 3011,2437 3039,2438 3081,2450 3121,2452 3181,2520 3197,2688 3285,2707 3317,2756 3394,2764 3449,2820 3509,2828 3541,2896 3613,2933 3662,2933 3722,3090 3233,3503 2757,3535 2358,3487 2030,3243 1885,3085 1910,3001z"/>
<path d="M2005,2910 L2007,2909 1904,2993 1916,3009 2019,2925 2021,2924 2019,2925 2023,2918 2021,2911 2015,2907 2007,2909z"/>
<path d="M2056,2855 L2053,2857 2005,2910 2021,2924 2069,2871 2066,2873 2069,2871 2072,2863 2068,2856 2061,2854 2053,2857z"/>
<path d="M2096,2830 L2100,2827 2056,2855 2066,2873 2110,2845 2114,2842 2110,2845 2115,2839 2114,2831 2108,2826 2100,2827z"/>
<path d="M2145,2759 L2140,2762 2096,2830 2114,2842 2158,2774 2153,2777 2158,2774 2160,2765 2155,2759 2147,2757 2140,2762z"/>
<path d="M2216,2730 L2209,2731 2145,2759 2153,2777 2217,2749 2210,2750 2217,2749 2223,2743 2222,2736 2217,2731 2209,2731z"/>
<path d="M2274,2750 L2280,2750 2216,2730 2210,2750 2274,2770 2280,2770 2274,2770 2282,2769 2287,2763 2286,2755 2280,2750z"/>
<path d="M2353,2726 L2350,2726 2274,2750 2280,2770 2356,2746 2353,2746 2356,2746 2362,2741 2363,2733 2358,2727 2350,2726z"/>
<path d="M2424,2727 L2433,2722 2353,2726 2353,2746 2433,2742 2442,2737 2433,2742 2440,2739 2443,2732 2440,2725 2433,2722z"/>
<path d="M2448,2683 L2445,2686 2424,2727 2442,2737 2463,2696 2460,2699 2463,2696 2464,2688 2459,2682 2451,2681 2445,2686z"/>
<path d="M2495,2652 L2499,2644 2448,2683 2460,2699 2511,2660 2515,2652 2511,2660 2515,2653 2513,2646 2507,2642 2499,2644z"/>
<path d="M2495,2571 L2495,2575 2495,2652 2515,2652 2515,2575 2515,2579 2515,2575 2512,2568 2505,2565 2498,2568 2495,2575z"/>
<path d="M2525,2496 L2523,2498 2495,2571 2515,2579 2543,2506 2541,2508 2543,2506 2543,2497 2537,2492 2529,2492 2523,2498z"/>
<path d="M2575,2426 L2577,2420 2525,2496 2541,2508 2593,2432 2595,2426 2593,2432 2595,2424 2591,2418 2584,2416 2577,2420z"/>
<path d="M2580,2393 L2575,2402 2575,2426 2595,2426 2595,2402 2590,2411 2595,2402 2592,2395 2585,2392 2578,2395 2575,2402z"/>
<path d="M2617,2372 L2613,2373 2580,2393 2590,2411 2623,2391 2619,2392 2623,2391 2628,2385 2627,2377 2621,2372 2613,2373z"/>
<path d="M2650,2371 L2656,2368 2617,2372 2619,2392 2658,2388 2664,2385 2658,2388 2665,2384 2667,2377 2664,2371 2656,2368z"/>
<path d="M2700,2324 L2694,2327 2650,2371 2664,2385 2708,2341 2702,2344 2708,2341 2711,2334 2708,2327 2701,2324 2694,2327z"/>
<path d="M2835,2316 L2832,2316 2700,2324 2702,2344 2834,2336 2831,2336 2834,2336 2841,2332 2843,2325 2840,2319 2832,2316z"/>
<path d="M2926,2336 L2920,2333 2835,2316 2831,2336 2916,2353 2910,2350 2916,2353 2924,2351 2928,2344 2927,2337 2920,2333z"/>
<path d="M2972,2389 L2970,2386 2926,2336 2910,2350 2954,2400 2952,2397 2954,2400 2962,2403 2969,2400 2973,2394 2970,2386z"/>
<path d="M2980,2449 L2997,2453 2972,2389 2952,2397 2977,2461 2994,2465 2977,2461 2983,2467 2991,2467 2997,2462 2997,2453z"/>
<path d="M3011,2427 L3004,2429 2980,2449 2994,2465 3018,2445 3011,2447 3017,2445 3021,2438 3019,2431 3013,2427 3005,2429z"/>
<path d="M3042,2428 L3039,2428 3011,2427 3011,2447 3039,2448 3036,2448 3039,2448 3046,2445 3049,2438 3046,2431 3039,2428z"/>
<path d="M3081,2440 L3084,2440 3042,2428 3036,2448 3078,2460 3081,2460 3078,2460 3086,2459 3091,2453 3090,2445 3084,2440z"/>
<path d="M3129,2445 L3121,2442 3081,2440 3081,2460 3121,2462 3113,2459 3120,2462 3128,2459 3131,2453 3129,2446 3122,2442z"/>
<path d="M3191,2519 L3189,2513 3129,2445 3113,2459 3173,2527 3171,2521 3173,2527 3181,2530 3188,2527 3192,2521 3189,2513z"/>
<path d="M3199,2678 L3207,2687 3191,2519 3171,2521 3187,2689 3195,2698 3187,2689 3191,2696 3198,2698 3204,2695 3207,2687z"/>
<path d="M3294,2701 L3287,2697 3199,2678 3195,2698 3283,2717 3276,2713 3283,2717 3291,2715 3295,2708 3294,2701 3287,2697z"/>
<path d="M3318,2746 L3326,2750 3294,2701 3276,2713 3308,2762 3316,2766 3308,2762 3315,2767 3323,2765 3328,2759 3326,2750z"/>
<path d="M3401,2757 L3395,2754 3318,2746 3316,2766 3393,2774 3387,2771 3393,2774 3401,2771 3404,2765 3402,2758 3395,2754z"/>
<path d="M3450,2810 L3456,2813 3401,2757 3387,2771 3442,2827 3448,2830 3442,2827 3449,2830 3456,2827 3459,2820 3456,2813z"/>
<path d="M3518,2824 L3510,2818 3450,2810 3448,2830 3508,2838 3500,2832 3508,2838 3516,2835 3519,2829 3517,2822 3510,2818z"/>
<path d="M3546,2887 L3550,2892 3518,2824 3500,2832 3532,2900 3536,2905 3532,2900 3538,2905 3545,2905 3550,2900 3550,2892z"/>
<path d="M3613,2923 L3618,2924 3546,2887 3536,2905 3608,2942 3613,2943 3608,2942 3616,2943 3622,2937 3623,2930 3618,2924z"/>
<path d="M3672,2929 L3662,2923 3613,2923 3613,2943 3662,2943 3652,2937 3662,2943 3669,2940 3672,2933 3669,2926 3662,2923z"/>
<path d="M3729,3098 L3732,3086 3672,2929 3652,2937 3712,3094 3715,3082 3712,3094 3718,3100 3726,3100 3732,3095 3732,3086z"/>
<path d="M3234,3513 L3240,3511 3729,3098 3715,3082 3226,3495 3232,3493 3226,3495 3223,3503 3226,3510 3232,3514 3240,3511z"/>
<path d="M2756,3545 L2758,3545 3234,3513 3232,3493 2756,3525 2758,3525 2756,3525 2749,3529 2747,3536 2750,3542 2758,3545z"/>
<path d="M2352,3495 L2357,3497 2756,3545 2758,3525 2359,3477 2364,3479 2359,3477 2351,3480 2348,3486 2350,3493 2357,3497z"/>
<path d="M2022,3250 L2024,3251 2352,3495 2364,3479 2036,3235 2038,3236 2036,3235 2029,3233 2023,3237 2020,3244 2024,3251z"/>
<path d="M1875,3082 L1877,3092 2022,3250 2038,3236 1893,3078 1895,3088 1893,3078 1885,3075 1878,3077 1874,3084 1877,3092z"/>
<path d="M1904,2993 L1900,2998 1875,3082 1895,3088 1920,3004 1916,3009z"/>
<path d="M2691,2439 L2749,2389 2800,2438 2799,2474 2856,2541 2812,2553 2760,2488 2733,2483 2691,2439z"/>
<path d="M2834,2338 L2918,2348 2877,2404 2837,2373 2834,2338z"/>
<path d="M3377,2808 L3448,2805 3494,2854 3479,2890 3427,2859 3382,2903 3432,2961 3432,3005 3394,3049 3405,3148 3374,3156 3366,3046 3334,3018 3379,2941 3348,2887 3290,2887 3257,2898 3249,2862 3287,2859 3241,2805 3290,2764 3344,2783 3298,2808 3344,2852 3389,2833 3377,2808z"/>
<path style="fill:#000000;fill-rule:evenodd" d="M3494,3162 L3518,3102 3490,3088 3518,3050 3560,3062 3568,3024 3616,3048 3610,3086 3642,3212 3246,3542 2714,3558 2266,3506 2034,3304 1926,3188 1866,3020 1938,2984 1970,3008 2070,2992 2158,2900 2178,2810 2238,2802 2238,2870 2322,2884 2322,2916 2306,2956 2346,2976 2446,2886 2490,2858 2454,2806 2398,2814 2390,2762 2450,2742 2482,2786 2558,2766 2570,2698 2474,2678 2510,2638 2510,2574 2562,2446 2594,2392 2642,2408 2674,2454 2586,2558 2570,2622 2626,2630 2682,2550 2710,2574 2634,2678 2654,2774 2738,2738 2792,2674 2842,2698 2854,2754 2726,2814 2646,2884 2650,2926 2730,2926 2794,2858 2814,2900 2746,2956 2726,2996 2590,2992 2570,3032 2614,3028 2662,3084 2702,3204 2734,3196 2802,3080 2794,3048 2838,3000 2906,2980 2910,3020 2850,3052 2846,3112 2906,3112 2922,3036 2974,3040 2934,3164 2858,3144 2882,3216 2818,3256 2830,3296 2954,3318 3026,3334 3046,3370 3110,3350 3122,3296 3058,3256 3014,3208 3042,3152 3106,3096 3056,3042 3054,3040 3058,2976 3067,2960 3055,2916 3089,2892 3083,2864 3059,2844 3035,2844 3017,2874 2987,2884 2951,2884 2931,2866 2929,2830 2927,2804 2899,2780 2909,2738 2941,2682 2945,2653 2927,2620 2938,2570 2932,2521 2963,2515 2978,2501 2984,2481 2998,2480 3004,2507 2976,2556 2973,2581 2995,2610 2989,2680 3003,2716 3030,2721 3073,2600 3099,2604 3117,2712 3073,2726 3077,2768 3111,2800 3119,2834 3143,2832 3153,2764 3195,2780 3175,2852 3144,2904 3153,2937 3156,2953 3188,2974 3194,3023 3177,3041 3180,3065 3214,3088 3266,2996 3302,3040 3242,3120 3310,3176 3310,3220 3266,3256 3286,3294 3382,3264 3494,3162z M2350,3052 L2422,3032 2450,3128 2394,3180 2350,3052z "/>
<path style="fill:#ffea2c;fill-rule:evenodd" d="M2801,1458 L2853,1459 2904,1463 2954,1470 3004,1479 3053,1490 3100,1503 3147,1519 3193,1537 3238,1557 3281,1580 3323,1604 3364,1630 3404,1658 3442,1688 3478,1720 3514,1753 3547,1788 3579,1825 3609,1863 3637,1902 3663,1943 3687,1986 3709,2029 3730,2074 3748,2119 3764,2166 3777,2214 3788,2262 3797,2312 3804,2362 3808,2413 3809,2465 3808,2517 3804,2568 3797,2618 3788,2668 3777,2716 3764,2764 3748,2811 3730,2856 3709,2901 3687,2944 3663,2987 3637,3028 3609,3067 3579,3105 3547,3142 3514,3177 3478,3210 3442,3242 3404,3272 3364,3300 3323,3326 3281,3350 3238,3373 3193,3393 3147,3411 3100,3427 3053,3440 3004,3451 2954,3460 2904,3467 2853,3471 2801,3472 2749,3471 2698,3467 2648,3460 2599,3451 2550,3440 2502,3427 2456,3411 2410,3393 2366,3373 2322,3350 2280,3326 2239,3300 2200,3272 2162,3242 2125,3210 2090,3177 2057,3142 2025,3105 1995,3067 1967,3028 1941,2987 1917,2944 1894,2901 1874,2856 1856,2811 1840,2764 1827,2716 1816,2668 1807,2618 1800,2568 1796,2517 1795,2465 1796,2413 1800,2362 1807,2312 1816,2262 1827,2214 1840,2166 1856,2119 1874,2074 1894,2029 1917,1986 1941,1943 1967,1902 1995,1863 2025,1825 2057,1788 2090,1753 2125,1720 2162,1688 2200,1658 2239,1630 2280,1604 2322,1580 2366,1557 2410,1537 2456,1519 2502,1503 2550,1490 2599,1479 2648,1470 2698,1463 2749,1459 2801,1458z M2801,989 L2877,991 2952,997 3026,1006 3098,1019 3170,1036 3240,1056 3308,1079 3375,1105 3441,1135 3504,1168 3566,1203 3626,1242 3684,1283 3740,1327 3793,1373 3845,1422 3894,1473 3940,1527 3984,1583 4025,1641 4064,1701 4099,1762 4132,1826 4162,1891 4188,1958 4211,2027 4231,2097 4248,2168 4261,2241 4270,2314 4276,2389 4278,2465 4276,2541 4270,2616 4261,2689 4248,2762 4231,2833 4211,2903 4188,2972 4162,3039 4132,3104 4099,3168 4064,3229 4025,3289 3984,3347 3940,3403 3894,3457 3845,3508 3793,3557 3740,3603 3684,3647 3626,3688 3566,3727 3504,3762 3441,3795 3375,3825 3308,3851 3240,3874 3170,3894 3098,3911 3026,3924 2952,3933 2877,3939 2801,3941 2725,3939 2651,3933 2577,3924 2504,3911 2433,3894 2363,3874 2295,3851 2228,3825 2163,3795 2099,3762 2037,3727 1977,3688 1920,3647 1864,3603 1810,3557 1759,3508 1710,3457 1664,3403 1620,3347 1579,3289 1540,3229 1505,3168 1472,3104 1442,3039 1416,2972 1393,2903 1373,2833 1356,2762 1343,2689 1334,2616 1328,2541 1326,2465 1328,2389 1334,2314 1343,2241 1356,2168 1373,2097 1393,2027 1416,1958 1442,1891 1472,1826 1505,1762 1540,1701 1579,1641 1620,1583 1664,1527 1710,1473 1759,1422 1810,1373 1864,1327 1920,1283 1977,1242 2037,1203 2099,1168 2163,1135 2228,1105 2295,1079 2363,1056 2433,1036 2504,1019 2577,1006 2651,997 2725,991 2801,989z "/>
<path d="M3824,2465 L3824,2465 3823,2412 3819,2360 3812,2310 3803,2259 3792,2210 3778,2162 3762,2114 3744,2068 3722,2022 3700,1979 3676,1935 3649,1894 3621,1854 3590,1815 3558,1778 3525,1742 3488,1709 3452,1677 3413,1646 3372,1618 3331,1591 3288,1567 3245,1544 3199,1523 3152,1505 3104,1489 3057,1475 3007,1464 2956,1455 2906,1448 2854,1444 2801,1443 2801,1473 2852,1474 2902,1478 2952,1485 3001,1494 3049,1505 3096,1517 3142,1533 3187,1551 3231,1570 3274,1593 3315,1617 3356,1642 3395,1670 3432,1699 3468,1731 3503,1764 3536,1798 3568,1835 3597,1872 3625,1910 3650,1951 3674,1993 3696,2036 3716,2080 3734,2124 3750,2170 3762,2218 3773,2265 3782,2314 3789,2364 3793,2414 3794,2465 3794,2465z"/>
<path d="M2801,3487 L2801,3487 2854,3486 2906,3482 2956,3475 3007,3466 3057,3455 3104,3441 3152,3425 3199,3407 3245,3386 3288,3363 3331,3339 3372,3312 3413,3284 3452,3253 3488,3221 3525,3188 3558,3152 3590,3115 3621,3076 3649,3036 3676,2995 3700,2951 3722,2908 3744,2862 3762,2816 3778,2768 3792,2720 3803,2671 3812,2620 3819,2570 3823,2518 3824,2465 3794,2465 3793,2516 3789,2566 3782,2616 3773,2665 3762,2712 3750,2760 3734,2806 3716,2850 3696,2894 3674,2937 3650,2979 3625,3020 3597,3058 3568,3095 3536,3132 3503,3166 3468,3199 3432,3231 3395,3260 3356,3288 3315,3313 3274,3337 3231,3360 3187,3379 3142,3397 3096,3413 3049,3425 3001,3436 2952,3445 2902,3452 2852,3456 2801,3457 2801,3457z"/>
<path d="M1780,2465 L1780,2465 1781,2518 1785,2570 1792,2620 1801,2671 1812,2720 1826,2768 1842,2816 1860,2862 1881,2908 1904,2951 1928,2995 1955,3036 1983,3076 2014,3115 2046,3152 2079,3188 2115,3221 2152,3253 2191,3284 2231,3312 2272,3339 2315,3363 2359,3386 2404,3407 2451,3425 2498,3441 2546,3455 2596,3466 2646,3475 2696,3482 2748,3486 2801,3487 2801,3457 2750,3456 2700,3452 2650,3445 2602,3436 2554,3425 2506,3413 2461,3397 2416,3379 2373,3360 2329,3337 2288,3313 2247,3288 2209,3260 2172,3231 2135,3199 2101,3166 2068,3132 2036,3095 2007,3058 1979,3020 1954,2979 1930,2937 1907,2894 1888,2850 1870,2806 1854,2760 1842,2712 1831,2665 1822,2616 1815,2566 1811,2516 1810,2465 1810,2465z"/>
<path d="M2801,1443 L2801,1443 2748,1444 2696,1448 2646,1455 2596,1464 2546,1475 2498,1489 2451,1505 2404,1523 2359,1544 2315,1567 2272,1591 2231,1618 2191,1646 2152,1677 2115,1709 2079,1742 2046,1778 2014,1815 1983,1854 1955,1894 1928,1935 1904,1979 1881,2022 1860,2068 1842,2114 1826,2162 1812,2210 1801,2259 1792,2310 1785,2360 1781,2412 1780,2465 1810,2465 1811,2414 1815,2364 1822,2314 1831,2265 1842,2218 1854,2170 1870,2124 1888,2080 1907,2036 1930,1993 1954,1951 1979,1910 2007,1872 2036,1835 2068,1798 2101,1764 2135,1731 2172,1699 2209,1670 2247,1642 2288,1617 2329,1593 2373,1570 2416,1551 2461,1533 2506,1517 2554,1505 2602,1494 2650,1485 2700,1478 2750,1474 2801,1473 2801,1473z"/>
<path d="M4293,2465 L4293,2465 4291,2388 4285,2313 4276,2239 4263,2165 4245,2093 4225,2023 4202,1953 4176,1885 4145,1819 4112,1755 4077,1693 4037,1633 3996,1574 3952,1518 3905,1463 3856,1411 3803,1362 3749,1315 3693,1271 3634,1230 3574,1190 3511,1155 3448,1122 3381,1091 3313,1065 3244,1042 3174,1022 3101,1004 3028,991 2953,982 2878,976 2801,974 2801,1004 2876,1006 2951,1012 3024,1021 3095,1034 3166,1050 3236,1070 3303,1093 3369,1119 3434,1148 3497,1181 3558,1216 3618,1254 3675,1295 3731,1339 3783,1384 3834,1433 3883,1483 3928,1536 3972,1592 4013,1649 4051,1709 4086,1769 4119,1833 4148,1897 4174,1963 4197,2031 4217,2101 4233,2171 4246,2243 4255,2315 4261,2390 4263,2465 4263,2465z"/>
<path d="M2801,3956 L2801,3956 2878,3954 2953,3948 3028,3939 3101,3926 3174,3908 3244,3888 3313,3865 3381,3839 3448,3808 3511,3775 3574,3740 3634,3700 3693,3659 3749,3615 3803,3568 3856,3519 3905,3467 3952,3412 3996,3356 4037,3297 4077,3237 4112,3175 4145,3111 4176,3045 4202,2977 4225,2907 4245,2837 4263,2765 4276,2691 4285,2617 4291,2542 4293,2465 4263,2465 4261,2540 4255,2615 4246,2687 4233,2759 4217,2829 4197,2899 4174,2967 4148,3033 4119,3097 4086,3161 4051,3221 4013,3281 3972,3338 3928,3394 3883,3447 3834,3497 3783,3546 3731,3591 3675,3635 3618,3676 3558,3714 3497,3749 3434,3782 3369,3811 3303,3837 3236,3860 3166,3880 3095,3896 3024,3909 2951,3918 2876,3924 2801,3926 2801,3926z"/>
<path d="M1311,2465 L1311,2465 1313,2542 1319,2617 1328,2691 1341,2765 1359,2837 1379,2907 1402,2977 1428,3045 1459,3111 1492,3175 1527,3237 1567,3297 1608,3356 1652,3412 1699,3467 1748,3519 1800,3568 1855,3615 1911,3659 1969,3700 2029,3740 2092,3775 2156,3808 2222,3839 2290,3865 2359,3888 2429,3908 2501,3926 2575,3939 2650,3948 2724,3954 2801,3956 2801,3926 2726,3924 2652,3918 2579,3909 2507,3896 2437,3880 2367,3860 2300,3837 2234,3811 2170,3782 2106,3749 2045,3714 1985,3676 1929,3635 1873,3591 1820,3546 1770,3497 1721,3447 1676,3394 1632,3338 1591,3281 1553,3221 1518,3161 1485,3097 1456,3033 1430,2967 1407,2899 1387,2829 1371,2759 1358,2687 1349,2615 1343,2540 1341,2465 1341,2465z"/>
<path d="M2801,974 L2801,974 2724,976 2650,982 2575,991 2501,1004 2429,1022 2359,1042 2290,1065 2222,1091 2156,1122 2092,1155 2029,1190 1969,1230 1911,1271 1855,1315 1800,1362 1748,1411 1699,1463 1652,1518 1608,1574 1567,1633 1527,1693 1492,1755 1459,1819 1428,1885 1402,1953 1379,2023 1359,2093 1341,2165 1328,2239 1319,2313 1313,2388 1311,2465 1341,2465 1343,2390 1349,2315 1358,2243 1371,2171 1387,2101 1407,2031 1430,1963 1456,1897 1485,1833 1518,1769 1553,1709 1591,1649 1632,1592 1676,1536 1721,1483 1770,1433 1820,1384 1873,1339 1929,1295 1985,1254 2045,1216 2106,1181 2170,1148 2234,1119 2300,1093 2367,1070 2437,1050 2507,1034 2579,1021 2652,1012 2726,1006 2801,1004 2801,1004z"/>
<path d="M1718,2465 L1718,2465 1719,2520 1724,2576 1730,2630 1740,2683 1752,2735 1767,2787 1785,2837 1804,2886 1826,2935 1849,2981 1875,3026 1903,3070 1934,3113 1966,3154 2001,3193 2036,3231 2074,3266 2113,3301 2154,3333 2197,3364 2241,3392 2286,3418 2332,3441 2381,3463 2430,3482 2480,3500 2532,3515 2584,3527 2637,3537 2691,3543 2747,3548 2802,3549 2802,3537 2747,3536 2693,3531 2639,3525 2586,3515 2534,3503 2484,3488 2434,3472 2385,3453 2338,3431 2292,3408 2247,3382 2203,3354 2162,3323 2121,3291 2082,3258 2044,3223 2009,3185 1976,3146 1944,3105 1913,3064 1885,3020 1859,2975 1836,2929 1814,2882 1795,2833 1779,2783 1764,2733 1752,2681 1742,2628 1736,2574 1731,2520 1730,2465 1730,2465z"/>
<path d="M2802,1381 L2802,1381 2747,1382 2691,1387 2637,1393 2584,1403 2532,1415 2480,1430 2430,1448 2381,1467 2332,1489 2286,1512 2241,1538 2197,1566 2154,1597 2113,1629 2074,1664 2036,1699 2001,1737 1966,1776 1934,1817 1903,1860 1875,1904 1849,1949 1826,1995 1804,2044 1785,2093 1767,2143 1752,2195 1740,2247 1730,2300 1724,2354 1719,2410 1718,2465 1730,2465 1731,2410 1736,2356 1742,2302 1752,2249 1764,2197 1779,2147 1795,2097 1814,2048 1836,2001 1859,1955 1885,1910 1913,1866 1944,1825 1976,1784 2009,1745 2044,1707 2082,1672 2121,1639 2162,1607 2203,1576 2247,1548 2292,1522 2338,1499 2385,1477 2434,1458 2484,1442 2534,1427 2586,1415 2639,1405 2693,1399 2747,1394 2802,1393 2802,1393z"/>
<path d="M3886,2465 L3886,2465 3885,2410 3880,2354 3874,2300 3864,2247 3852,2195 3837,2143 3819,2093 3800,2044 3778,1995 3755,1949 3729,1904 3701,1860 3670,1817 3638,1776 3603,1737 3568,1699 3530,1664 3491,1629 3450,1597 3407,1566 3363,1538 3318,1512 3272,1489 3223,1467 3174,1448 3124,1430 3072,1415 3020,1403 2967,1393 2913,1387 2857,1382 2802,1381 2802,1393 2857,1394 2911,1399 2965,1405 3018,1415 3070,1427 3120,1442 3170,1458 3219,1477 3266,1499 3312,1522 3357,1548 3401,1576 3442,1607 3483,1639 3522,1672 3560,1707 3595,1745 3628,1784 3660,1825 3691,1866 3719,1910 3745,1955 3768,2001 3790,2048 3809,2097 3825,2147 3840,2197 3852,2249 3862,2302 3868,2356 3873,2410 3874,2465 3874,2465z"/>
<path d="M2802,3549 L2802,3549 2857,3548 2913,3543 2967,3537 3020,3527 3072,3515 3124,3500 3174,3482 3223,3463 3272,3441 3318,3418 3363,3392 3407,3364 3450,3333 3491,3301 3530,3266 3568,3231 3603,3193 3638,3154 3670,3113 3701,3070 3729,3026 3755,2981 3778,2935 3800,2886 3819,2837 3837,2787 3852,2735 3864,2683 3874,2630 3880,2576 3885,2520 3886,2465 3874,2465 3873,2520 3868,2574 3862,2628 3852,2681 3840,2733 3825,2783 3809,2833 3790,2882 3768,2929 3745,2975 3719,3020 3691,3064 3660,3105 3628,3146 3595,3185 3560,3223 3522,3258 3483,3291 3442,3323 3401,3354 3357,3382 3312,3408 3266,3431 3219,3453 3170,3472 3120,3488 3070,3503 3018,3515 2965,3525 2911,3531 2857,3536 2802,3537 2802,3537z"/>
<path d="M1391,2465 L1391,2465 1393,2537 1398,2609 1407,2680 1420,2749 1435,2816 1454,2884 1477,2949 1503,3013 1531,3076 1562,3137 1596,3196 1632,3253 1672,3309 1713,3362 1759,3413 1805,3462 1854,3508 1905,3554 1958,3595 2014,3635 2071,3671 2130,3705 2191,3736 2254,3764 2318,3790 2383,3813 2451,3832 2518,3847 2587,3860 2658,3869 2730,3874 2802,3876 2802,3864 2730,3862 2660,3857 2589,3848 2520,3835 2453,3820 2387,3801 2322,3780 2258,3754 2197,3726 2136,3695 2077,3661 2020,3625 1966,3585 1913,3544 1862,3500 1813,3454 1767,3405 1723,3354 1682,3301 1642,3247 1606,3190 1572,3131 1541,3070 1513,3009 1487,2945 1466,2880 1447,2814 1432,2747 1419,2678 1410,2607 1405,2537 1403,2465 1403,2465z"/>
<path d="M2802,1054 L2802,1054 2730,1056 2658,1061 2587,1070 2518,1083 2451,1098 2383,1117 2318,1140 2254,1166 2191,1194 2130,1225 2071,1259 2014,1295 1958,1335 1905,1376 1854,1422 1805,1468 1759,1517 1713,1568 1672,1621 1632,1677 1596,1734 1562,1793 1531,1854 1503,1917 1477,1981 1454,2046 1435,2114 1420,2181 1407,2250 1398,2321 1393,2393 1391,2465 1403,2465 1405,2393 1410,2323 1419,2252 1432,2183 1447,2116 1466,2050 1487,1985 1513,1921 1541,1860 1572,1799 1606,1740 1642,1683 1682,1629 1723,1576 1767,1525 1813,1476 1862,1430 1913,1386 1966,1345 2020,1305 2077,1269 2136,1235 2197,1204 2258,1176 2322,1150 2387,1129 2453,1110 2520,1095 2589,1082 2660,1073 2730,1068 2802,1066 2802,1066z"/>
<path d="M4213,2465 L4213,2465 4211,2393 4206,2321 4197,2250 4184,2181 4169,2114 4150,2046 4127,1981 4101,1917 4073,1854 4042,1793 4008,1734 3972,1677 3932,1621 3891,1568 3845,1517 3799,1468 3750,1422 3699,1376 3646,1335 3590,1295 3533,1259 3474,1225 3413,1194 3350,1166 3286,1140 3221,1117 3153,1098 3086,1083 3017,1070 2946,1061 2874,1056 2802,1054 2802,1066 2874,1068 2944,1073 3015,1082 3084,1095 3151,1110 3217,1129 3282,1150 3346,1176 3407,1204 3468,1235 3527,1269 3584,1305 3638,1345 3691,1386 3742,1430 3791,1476 3837,1525 3881,1576 3922,1629 3962,1683 3998,1740 4032,1799 4063,1860 4091,1921 4117,1985 4138,2050 4157,2116 4172,2183 4185,2252 4194,2323 4199,2393 4201,2465 4201,2465z"/>
<path d="M2802,3876 L2802,3876 2874,3874 2946,3869 3017,3860 3086,3847 3153,3832 3221,3813 3286,3790 3350,3764 3413,3736 3474,3705 3533,3671 3590,3635 3646,3595 3699,3554 3750,3508 3799,3462 3845,3413 3891,3362 3932,3309 3972,3253 4008,3196 4042,3137 4073,3076 4101,3013 4127,2949 4150,2884 4169,2816 4184,2749 4197,2680 4206,2609 4211,2537 4213,2465 4201,2465 4199,2537 4194,2607 4185,2678 4172,2747 4157,2814 4138,2880 4117,2945 4091,3009 4063,3070 4032,3131 3998,3190 3962,3247 3922,3301 3881,3354 3837,3405 3791,3454 3742,3500 3691,3544 3638,3585 3584,3625 3527,3661 3468,3695 3407,3726 3346,3754 3282,3780 3217,3801 3151,3820 3084,3835 3015,3848 2944,3857 2874,3862 2802,3864 2802,3864z"/>
<path style="fill:#000000;fill-rule:evenodd" d="M1818,1772 L1822,1775 1828,1779 1834,1784 1839,1788 1844,1793 1848,1798 1851,1804 1853,1809 1855,1815 1856,1821 1857,1827 1856,1833 1855,1839 1854,1845 1851,1851 1848,1857 1845,1863 1842,1868 1837,1874 1833,1879 1828,1883 1823,1887 1818,1890 1813,1892 1808,1894 1804,1895 1800,1896 1796,1896 1791,1896 1786,1895 1781,1894 1776,1893 1771,1892 1765,1890 1759,1887 1753,1883 1745,1880 1737,1875 1729,1870 1719,1865 1709,1859 1702,1855 1696,1850 1690,1846 1685,1842 1679,1838 1674,1835 1670,1832 1666,1829 1660,1823 1655,1816 1650,1809 1647,1803 1644,1797 1642,1790 1642,1782 1642,1775 1642,1771 1643,1767 1644,1763 1645,1759 1647,1755 1649,1751 1651,1747 1653,1743 1657,1737 1662,1732 1666,1727 1671,1723 1676,1720 1681,1717 1686,1715 1691,1714 1697,1713 1703,1713 1709,1714 1716,1715 1722,1717 1729,1719 1735,1722 1742,1726 1726,1752 1723,1750 1715,1746 1707,1743 1700,1742 1694,1742 1688,1743 1682,1746 1677,1750 1673,1756 1670,1761 1668,1765 1667,1769 1666,1773 1666,1778 1667,1782 1669,1786 1670,1790 1672,1794 1676,1798 1680,1803 1686,1807 1689,1810 1694,1813 1698,1816 1704,1820 1710,1825 1718,1829 1725,1835 1734,1840 1744,1846 1754,1851 1762,1856 1771,1860 1778,1863 1784,1866 1790,1867 1795,1868 1799,1868 1804,1868 1808,1867 1812,1865 1815,1863 1819,1860 1822,1856 1825,1852 1828,1845 1830,1838 1830,1831 1828,1825 1825,1818 1820,1812 1813,1806 1805,1800 1802,1798 1818,1772z M1899,1780 L1728,1641 1747,1618 1918,1756 1899,1780z M1967,1698 L1825,1561 1788,1600 1772,1584 1866,1486 1882,1502 1846,1540 1988,1676 1967,1698z M2068,1600 L2008,1532 1881,1473 1906,1451 2005,1502 1970,1395 1992,1376 2032,1514 2090,1581 2068,1600z M2288,1332 L2292,1340 2295,1347 2298,1354 2301,1360 2304,1366 2306,1372 2308,1377 2310,1381 2311,1385 2312,1389 2313,1393 2314,1397 2314,1401 2315,1404 2315,1408 2315,1411 2315,1415 2314,1419 2313,1423 2312,1427 2311,1430 2309,1434 2307,1438 2305,1441 2299,1447 2292,1453 2284,1459 2276,1463 2269,1467 2261,1469 2254,1471 2247,1472 2240,1473 2234,1472 2227,1471 2221,1469 2214,1466 2208,1461 2202,1456 2196,1450 2193,1446 2189,1440 2185,1434 2181,1428 2177,1420 2172,1412 2167,1403 2162,1394 2158,1386 2154,1378 2151,1371 2148,1364 2145,1358 2143,1353 2141,1347 2139,1343 2136,1335 2135,1327 2134,1320 2134,1314 2135,1306 2137,1299 2140,1291 2145,1285 2150,1278 2157,1271 2164,1266 2173,1261 2180,1258 2188,1255 2195,1253 2202,1252 2209,1251 2216,1252 2222,1253 2229,1255 2235,1259 2242,1264 2248,1269 2254,1276 2257,1280 2261,1285 2265,1291 2269,1298 2273,1305 2278,1314 2283,1323 2288,1333 2288,1332z M2260,1344 L2254,1332 2248,1322 2242,1312 2237,1304 2232,1297 2228,1292 2224,1287 2220,1284 2216,1282 2212,1280 2208,1279 2203,1279 2198,1279 2193,1280 2188,1281 2183,1283 2179,1286 2176,1288 2173,1291 2170,1294 2168,1298 2166,1302 2165,1306 2164,1310 2164,1315 2164,1321 2165,1327 2167,1333 2168,1337 2170,1341 2172,1346 2174,1352 2177,1358 2180,1365 2184,1373 2188,1381 2192,1388 2196,1394 2199,1400 2202,1405 2204,1410 2206,1414 2208,1418 2210,1421 2214,1426 2217,1431 2221,1435 2224,1438 2229,1441 2234,1444 2239,1446 2243,1447 2248,1447 2253,1445 2259,1444 2264,1441 2273,1436 2279,1429 2283,1422 2284,1413 2284,1408 2283,1401 2281,1394 2279,1386 2275,1376 2271,1366 2266,1356 2260,1344z M2372,1412 L2300,1205 2400,1171 2408,1193 2336,1218 2359,1285 2427,1261 2435,1284 2367,1308 2399,1403 2372,1412z M2575,1352 L2536,1136 2565,1131 2598,1322 2672,1309 2677,1335 2575,1352z M2702,1335 L2683,1116 2713,1113 2732,1332 2702,1335z M2811,1331 L2814,1134 2760,1133 2760,1111 2896,1113 2896,1135 2844,1135 2840,1332 2811,1331z M2953,1342 L2977,1146 2924,1140 2926,1117 3061,1134 3058,1156 3006,1150 2982,1346 2953,1342z M3056,1359 L3113,1146 3140,1154 3090,1341 3163,1361 3156,1386 3056,1359z M3180,1395 L3259,1190 3361,1229 3353,1252 3277,1223 3252,1288 3325,1317 3317,1340 3243,1312 3216,1383 3291,1412 3282,1434 3180,1395z M3466,1396 L3484,1408 3489,1411 3494,1413 3498,1415 3503,1416 3507,1417 3511,1418 3514,1418 3518,1418 3525,1416 3531,1412 3537,1406 3543,1399 3547,1392 3549,1385 3550,1379 3549,1373 3547,1367 3543,1362 3538,1357 3532,1352 3504,1335 3466,1396z M3541,1331 L3548,1336 3555,1340 3560,1345 3565,1350 3569,1355 3573,1359 3575,1364 3577,1368 3579,1373 3579,1378 3579,1383 3579,1389 3577,1394 3575,1400 3572,1405 3569,1411 3563,1420 3557,1426 3550,1432 3543,1436 3539,1437 3535,1438 3531,1439 3527,1439 3522,1439 3518,1439 3513,1438 3509,1436 3515,1442 3520,1448 3523,1454 3524,1460 3524,1463 3523,1467 3522,1471 3521,1475 3519,1479 3517,1484 3515,1488 3512,1493 3511,1495 3510,1498 3508,1501 3506,1504 3504,1506 3503,1508 3501,1510 3500,1512 3497,1517 3494,1522 3491,1527 3489,1532 3487,1537 3485,1543 3483,1548 3482,1553 3456,1537 3457,1533 3459,1529 3461,1524 3463,1518 3466,1513 3469,1506 3473,1500 3477,1493 3480,1488 3483,1484 3485,1480 3487,1477 3491,1470 3494,1463 3495,1457 3495,1452 3494,1448 3491,1443 3487,1439 3482,1435 3453,1417 3400,1502 3375,1486 3492,1300 3541,1331z M3686,1587 L3680,1594 3675,1600 3669,1605 3664,1610 3660,1615 3655,1619 3652,1623 3648,1626 3642,1631 3635,1636 3629,1639 3623,1641 3619,1643 3615,1644 3611,1645 3607,1645 3603,1645 3599,1645 3595,1645 3591,1644 3587,1642 3583,1641 3579,1639 3575,1636 3571,1634 3567,1631 3564,1628 3560,1625 3554,1620 3549,1614 3544,1608 3540,1602 3537,1596 3535,1589 3534,1583 3533,1576 3533,1573 3534,1569 3534,1565 3535,1561 3537,1557 3538,1553 3541,1549 3543,1545 3546,1541 3549,1536 3553,1530 3557,1524 3562,1517 3568,1510 3575,1502 3582,1494 3588,1487 3593,1481 3599,1475 3604,1469 3608,1464 3613,1460 3616,1456 3620,1453 3627,1448 3633,1444 3639,1440 3645,1438 3649,1437 3653,1436 3657,1435 3661,1434 3664,1434 3668,1434 3672,1435 3676,1436 3680,1437 3684,1439 3689,1441 3693,1443 3697,1445 3701,1448 3704,1451 3708,1454 3714,1460 3719,1465 3724,1471 3728,1477 3731,1483 3733,1490 3734,1497 3734,1504 3734,1507 3733,1511 3733,1515 3732,1519 3730,1523 3729,1527 3727,1531 3725,1535 3722,1540 3719,1545 3715,1551 3710,1557 3705,1564 3699,1572 3692,1580 3685,1588 3686,1587z M3664,1566 L3673,1556 3681,1547 3687,1538 3693,1530 3698,1523 3701,1517 3704,1511 3705,1506 3706,1502 3706,1497 3705,1493 3704,1488 3702,1484 3699,1480 3696,1476 3692,1472 3688,1470 3684,1468 3680,1466 3676,1464 3672,1463 3668,1463 3663,1463 3659,1463 3654,1465 3650,1468 3645,1472 3640,1476 3637,1478 3633,1481 3629,1485 3625,1489 3620,1494 3615,1500 3610,1506 3604,1513 3599,1519 3594,1525 3589,1530 3586,1535 3582,1539 3579,1542 3576,1545 3574,1548 3571,1554 3568,1559 3566,1564 3564,1568 3562,1573 3562,1579 3562,1584 3563,1589 3565,1593 3568,1597 3571,1602 3575,1606 3579,1609 3584,1612 3588,1614 3593,1616 3597,1616 3601,1616 3606,1616 3610,1614 3614,1612 3620,1609 3626,1604 3632,1599 3639,1592 3647,1585 3655,1576 3664,1566z M3772,1753 L3768,1757 3762,1761 3756,1765 3750,1768 3744,1771 3738,1773 3732,1774 3726,1774 3720,1774 3714,1773 3708,1772 3703,1770 3697,1767 3692,1763 3687,1760 3682,1755 3677,1750 3673,1744 3670,1738 3667,1732 3664,1727 3662,1721 3661,1715 3660,1710 3660,1705 3661,1701 3662,1697 3663,1692 3665,1688 3667,1684 3669,1679 3672,1675 3675,1671 3679,1666 3683,1661 3689,1656 3695,1650 3701,1644 3709,1637 3717,1630 3726,1622 3732,1617 3738,1612 3744,1608 3750,1604 3755,1600 3760,1597 3764,1594 3768,1592 3772,1590 3776,1588 3780,1586 3784,1585 3788,1583 3792,1582 3795,1582 3799,1581 3806,1580 3813,1581 3820,1583 3827,1586 3834,1589 3841,1594 3847,1600 3853,1607 3858,1613 3861,1618 3864,1624 3867,1630 3868,1636 3869,1642 3869,1647 3869,1653 3868,1659 3866,1664 3863,1670 3860,1675 3856,1681 3852,1686 3847,1691 3841,1696 3821,1672 3823,1671 3830,1664 3836,1658 3839,1652 3841,1646 3842,1640 3841,1633 3838,1627 3834,1621 3831,1617 3827,1614 3824,1612 3820,1610 3816,1609 3812,1608 3808,1608 3804,1608 3799,1609 3794,1610 3788,1613 3782,1617 3779,1619 3774,1622 3769,1626 3764,1630 3758,1635 3751,1640 3744,1646 3736,1652 3727,1660 3719,1667 3711,1674 3705,1680 3699,1686 3695,1691 3691,1696 3689,1700 3687,1704 3687,1708 3686,1713 3687,1717 3688,1721 3689,1726 3691,1730 3694,1734 3700,1739 3706,1743 3712,1746 3719,1746 3722,1746 3726,1745 3730,1744 3734,1742 3738,1740 3742,1738 3746,1735 3750,1731 3753,1730 3772,1753z M3741,1827 L3927,1710 3941,1734 3863,1783 3976,1789 3993,1816 3872,1809 3809,1937 3792,1909 3851,1790 3755,1850 3741,1827z "/>
<path style="fill:#000000;fill-rule:evenodd" d="M2133,3553 L2186,3584 2215,3478 2133,3553z M2166,3664 L2180,3611 2113,3571 2073,3609 2046,3593 2218,3439 2248,3458 2193,3681 2166,3664z M2320,3600 L2340,3608 2345,3610 2350,3611 2355,3612 2359,3613 2364,3613 2368,3613 2371,3613 2375,3612 2381,3609 2387,3603 2392,3596 2396,3587 2398,3580 2399,3573 2398,3567 2396,3561 2393,3556 2389,3551 2383,3547 2376,3544 2346,3532 2320,3600z M2380,3521 L2388,3524 2395,3528 2402,3532 2408,3536 2413,3540 2418,3544 2421,3548 2424,3552 2426,3556 2428,3561 2428,3566 2429,3572 2429,3577 2428,3583 2426,3589 2424,3595 2420,3605 2415,3612 2409,3619 2403,3624 2399,3626 2396,3628 2392,3630 2388,3631 2383,3632 2379,3632 2374,3632 2369,3631 2376,3635 2382,3640 2386,3646 2388,3652 2389,3655 2389,3659 2389,3663 2389,3667 2388,3671 2387,3676 2386,3681 2384,3686 2383,3689 2382,3691 2381,3694 2380,3697 2379,3700 2377,3703 2376,3705 2375,3707 2373,3712 2371,3718 2370,3724 2369,3729 2367,3735 2366,3740 2366,3746 2366,3751 2337,3740 2337,3736 2338,3731 2339,3726 2340,3720 2342,3714 2344,3707 2347,3700 2350,3693 2352,3687 2353,3682 2355,3678 2356,3675 2359,3667 2360,3660 2360,3654 2359,3649 2357,3645 2354,3641 2350,3638 2344,3635 2311,3623 2276,3716 2248,3706 2327,3501 2380,3521z M2439,3773 L2492,3560 2519,3567 2497,3657 2583,3583 2614,3590 2522,3669 2566,3805 2533,3797 2494,3670 2466,3780 2439,3773z M2658,3736 L2720,3742 2699,3634 2658,3736z M2736,3822 L2726,3768 2648,3761 2628,3813 2597,3811 2685,3598 2719,3601 2768,3825 2736,3822z M2948,3789 L2947,3784 2947,3779 2946,3775 2946,3770 2945,3765 2945,3760 2944,3756 2944,3751 2930,3596 2957,3594 2976,3813 2936,3817 2835,3625 2836,3632 2837,3638 2839,3644 2839,3650 2840,3654 2841,3658 2841,3662 2842,3666 2855,3824 2829,3826 2810,3607 2851,3603 2948,3789z M3030,3740 L3060,3733 3061,3737 3064,3746 3068,3754 3071,3760 3075,3765 3081,3768 3087,3769 3094,3769 3102,3768 3109,3766 3116,3762 3122,3758 3126,3754 3130,3748 3132,3741 3132,3735 3131,3728 3130,3724 3127,3719 3123,3715 3117,3710 3110,3706 3102,3702 3093,3698 3082,3694 3079,3693 3076,3692 3073,3691 3071,3690 3062,3687 3055,3684 3047,3681 3041,3678 3036,3675 3031,3672 3028,3670 3025,3667 3019,3662 3015,3655 3011,3647 3008,3639 3007,3633 3007,3627 3007,3621 3008,3616 3009,3610 3011,3605 3014,3600 3017,3595 3021,3590 3025,3586 3029,3582 3034,3579 3040,3576 3046,3573 3052,3571 3059,3569 3066,3568 3073,3567 3079,3567 3086,3567 3092,3568 3097,3569 3102,3571 3107,3573 3111,3576 3116,3580 3119,3584 3123,3588 3126,3593 3129,3599 3131,3605 3132,3612 3134,3616 3104,3623 3104,3619 3101,3611 3098,3604 3094,3599 3090,3595 3084,3592 3077,3590 3070,3590 3063,3591 3056,3593 3051,3596 3045,3600 3041,3605 3039,3610 3037,3616 3037,3622 3037,3628 3039,3633 3042,3638 3047,3643 3053,3648 3060,3653 3069,3657 3079,3662 3090,3666 3095,3668 3099,3670 3102,3671 3104,3672 3111,3675 3118,3677 3124,3680 3129,3682 3134,3685 3138,3687 3141,3690 3144,3692 3149,3697 3153,3703 3157,3710 3159,3717 3161,3724 3161,3730 3161,3736 3161,3742 3159,3748 3158,3754 3155,3759 3152,3764 3148,3768 3144,3773 3139,3776 3134,3780 3128,3783 3121,3786 3115,3789 3107,3791 3099,3792 3092,3793 3085,3794 3079,3793 3073,3793 3067,3792 3062,3790 3057,3787 3052,3784 3048,3780 3044,3776 3041,3772 3038,3766 3035,3761 3033,3755 3031,3748 3030,3747 3030,3746 3030,3745 3030,3744 3030,3743 3030,3742 3030,3741 3030,3740z M3252,3662 L3309,3639 3243,3552 3252,3662z M3360,3705 L3326,3661 3253,3688 3259,3743 3230,3755 3215,3525 3247,3513 3389,3694 3360,3705z M3403,3611 L3430,3595 3432,3598 3437,3606 3443,3613 3449,3618 3454,3621 3460,3622 3466,3621 3473,3620 3481,3616 3487,3612 3492,3607 3496,3601 3499,3595 3501,3588 3501,3581 3499,3575 3497,3569 3494,3565 3489,3562 3484,3559 3477,3556 3469,3554 3460,3553 3450,3552 3439,3551 3436,3551 3433,3551 3430,3551 3427,3551 3418,3550 3410,3550 3402,3549 3396,3548 3390,3546 3384,3545 3380,3543 3376,3542 3369,3538 3363,3533 3358,3527 3353,3519 3350,3514 3348,3508 3347,3503 3346,3498 3345,3492 3346,3487 3346,3481 3348,3475 3350,3470 3353,3465 3356,3460 3360,3455 3364,3450 3369,3446 3374,3442 3380,3438 3387,3435 3393,3432 3399,3430 3406,3428 3411,3427 3417,3427 3423,3427 3428,3428 3433,3429 3438,3432 3443,3435 3447,3438 3452,3442 3456,3447 3459,3452 3463,3457 3466,3461 3440,3477 3438,3473 3433,3466 3428,3460 3423,3456 3418,3454 3412,3453 3405,3453 3398,3455 3391,3459 3385,3463 3381,3467 3377,3472 3375,3478 3373,3484 3373,3490 3375,3496 3377,3501 3380,3505 3385,3509 3391,3513 3398,3516 3407,3518 3416,3520 3428,3522 3440,3523 3444,3523 3448,3523 3451,3523 3454,3524 3462,3524 3469,3525 3475,3525 3481,3526 3486,3527 3491,3528 3495,3530 3498,3531 3504,3535 3510,3539 3515,3545 3520,3551 3523,3557 3525,3563 3527,3569 3528,3575 3529,3581 3529,3587 3528,3592 3527,3598 3525,3603 3522,3608 3518,3613 3514,3618 3510,3623 3504,3627 3498,3632 3492,3636 3485,3640 3478,3643 3472,3645 3465,3647 3459,3648 3453,3649 3448,3649 3443,3648 3438,3646 3432,3644 3427,3641 3423,3637 3418,3633 3414,3628 3410,3623 3406,3617 3405,3617 3405,3616 3405,3615 3404,3614 3403,3613 3403,3612 3403,3611 3403,3611z "/>
<circle cx="1670" cy="1948" r="35"/>
<circle cx="3926" cy="1948" r="35"/>
<circle cx="2044" cy="3449" r="35"/>
<circle cx="3587" cy="3449" r="35"/>
<path d="M3028,1706 L2680,1708 2572,1704 2586,1846 2577,2072 2591,2083 2608,2080 2623,2085 2623,2152 2927,2155 2935,2137 2933,2110 2925,2090 2930,2065 2942,2042 2950,2021 2965,1999 2975,1977 2987,1971 2996,1944 3005,1920 3018,1910 3021,1891 3039,1878 3035,1860 3039,1839 3061,1819 3052,1805 3076,1790 3080,1778 3069,1770 3007,1770 3023,1745 3038,1733 3036,1716 3029,1716 3028,1706z"/>
<path d="M2680,1718 L2680,1718 3028,1716 3028,1696 2680,1698 2680,1698 2680,1698 2673,1701 2670,1708 2673,1715 2680,1718z"/>
<path d="M2582,1703 L2572,1714 2680,1718 2680,1698 2572,1694 2562,1705 2572,1694 2565,1697 2562,1704 2565,1711 2572,1714z"/>
<path d="M2596,1846 L2596,1845 2582,1703 2562,1705 2576,1847 2576,1846 2576,1847 2580,1854 2587,1856 2593,1853 2596,1845z"/>
<path d="M2583,2064 L2587,2072 2596,1846 2576,1846 2567,2072 2571,2080 2567,2072 2570,2079 2577,2082 2584,2079 2587,2072z"/>
<path d="M2589,2073 L2597,2075 2583,2064 2571,2080 2585,2091 2593,2093 2585,2091 2593,2093 2599,2089 2601,2082 2597,2075z"/>
<path d="M2611,2070 L2606,2070 2589,2073 2593,2093 2610,2090 2605,2090 2610,2090 2617,2086 2618,2078 2614,2072 2606,2070z"/>
<path d="M2633,2085 L2626,2075 2611,2070 2605,2090 2620,2095 2613,2085 2620,2095 2628,2094 2633,2088 2632,2080 2626,2075z"/>
<path d="M2623,2142 L2633,2152 2633,2085 2613,2085 2613,2152 2623,2162 2613,2152 2616,2159 2623,2162 2630,2159 2633,2152z"/>
<path d="M2918,2151 L2927,2145 2623,2142 2623,2162 2927,2165 2936,2159 2927,2165 2934,2162 2937,2155 2934,2148 2927,2145z"/>
<path d="M2925,2138 L2926,2133 2918,2151 2936,2159 2944,2141 2945,2136 2944,2141 2944,2133 2939,2128 2932,2127 2926,2133z"/>
<path d="M2923,2114 L2923,2111 2925,2138 2945,2136 2943,2109 2943,2106 2943,2109 2939,2102 2932,2100 2926,2103 2923,2111z"/>
<path d="M2915,2088 L2915,2094 2923,2114 2943,2106 2935,2086 2935,2092 2935,2086 2929,2080 2921,2080 2915,2085 2915,2094z"/>
<path d="M2921,2060 L2920,2063 2915,2088 2935,2092 2940,2067 2939,2070 2940,2067 2938,2059 2932,2055 2924,2056 2920,2063z"/>
<path d="M2932,2038 L2933,2037 2921,2060 2939,2070 2951,2047 2952,2046 2951,2047 2952,2039 2947,2033 2939,2032 2933,2037z"/>
<path d="M2942,2015 L2940,2017 2932,2038 2952,2046 2960,2025 2958,2027 2960,2025 2960,2016 2954,2011 2946,2011 2940,2017z"/>
<path d="M2956,1995 L2957,1993 2942,2015 2958,2027 2973,2005 2974,2003 2973,2005 2975,1997 2971,1991 2964,1989 2957,1993z"/>
<path d="M2970,1968 L2966,1973 2956,1995 2974,2003 2984,1981 2980,1986 2984,1981 2984,1973 2979,1968 2972,1967 2966,1973z"/>
<path d="M2977,1968 L2982,1962 2970,1968 2980,1986 2992,1980 2997,1974 2992,1980 2997,1974 2996,1966 2990,1961 2982,1962z"/>
<path d="M2986,1940 L2986,1941 2977,1968 2997,1974 3006,1947 3006,1948 3006,1947 3005,1939 2999,1934 2991,1935 2986,1941z"/>
<path d="M2999,1912 L2995,1916 2986,1940 3006,1948 3015,1924 3011,1928 3015,1924 3015,1915 3009,1910 3001,1910 2995,1916z"/>
<path d="M3008,1908 L3012,1902 2999,1912 3011,1928 3024,1918 3028,1912 3024,1918 3028,1911 3026,1904 3020,1900 3012,1902z"/>
<path d="M3015,1883 L3011,1889 3008,1908 3028,1912 3031,1893 3027,1899 3031,1893 3029,1885 3023,1881 3015,1882 3011,1889z"/>
<path d="M3029,1880 L3033,1870 3015,1883 3027,1899 3045,1886 3049,1876 3045,1886 3049,1879 3047,1872 3041,1868 3033,1870z"/>
<path d="M3025,1858 L3025,1862 3029,1880 3049,1876 3045,1858 3045,1862 3045,1858 3041,1851 3034,1850 3027,1854 3025,1862z"/>
<path d="M3032,1831 L3029,1837 3025,1858 3045,1862 3049,1841 3046,1847 3049,1841 3047,1833 3041,1829 3033,1830 3029,1837z"/>
<path d="M3052,1825 L3054,1811 3032,1831 3046,1847 3068,1827 3070,1813 3068,1827 3071,1819 3069,1812 3062,1808 3054,1811z"/>
<path d="M3047,1796 L3043,1811 3052,1825 3070,1813 3061,1799 3057,1814 3061,1799 3054,1794 3046,1796 3041,1802 3043,1811z"/>
<path d="M3066,1787 L3071,1781 3047,1796 3057,1814 3081,1799 3086,1793 3081,1799 3086,1793 3085,1785 3079,1780 3071,1781z"/>
<path d="M3074,1786 L3070,1775 3066,1787 3086,1793 3090,1781 3086,1770 3090,1781 3089,1773 3083,1768 3075,1769 3070,1775z"/>
<path d="M3069,1780 L3063,1778 3074,1786 3086,1770 3075,1762 3069,1760 3075,1762 3068,1760 3062,1764 3059,1771 3063,1778z"/>
<path d="M2998,1765 L3007,1780 3069,1780 3069,1760 3007,1760 3016,1775 3007,1760 3000,1763 2997,1770 3000,1777 3007,1780z"/>
<path d="M3017,1737 L3014,1740 2998,1765 3016,1775 3032,1750 3029,1753 3032,1751 3034,1742 3029,1736 3021,1734 3014,1739z"/>
<path d="M3028,1734 L3032,1725 3017,1737 3029,1753 3044,1741 3048,1732 3044,1741 3048,1734 3046,1727 3040,1723 3032,1725z"/>
<path d="M3036,1726 L3026,1717 3028,1734 3048,1732 3046,1715 3036,1706 3046,1715 3042,1708 3035,1706 3029,1709 3026,1717z"/>
<path d="M3019,1717 L3029,1726 3036,1726 3036,1706 3029,1706 3039,1715 3029,1706 3022,1709 3019,1716 3022,1723 3029,1726z"/>
<path d="M3028,1716 L3018,1707 3019,1717 3039,1715 3038,1705 3028,1696 3038,1705 3034,1698 3027,1696 3021,1699 3018,1707z"/>
<path style="fill:#df2424" d="M3018,1692 L2670,1694 2562,1690 2577,1833 2567,2059 2581,2069 2598,2067 2613,2071 2613,2139 2917,2142 2925,2123 2923,2097 2915,2077 2920,2051 2932,2029 2941,2008 2956,1985 2965,1963 2977,1958 2986,1930 2995,1906 3008,1897 3011,1878 3029,1865 3025,1847 3029,1826 3051,1805 3042,1792 3066,1777 3070,1764 3059,1757 2997,1757 3013,1731 3028,1720 3026,1703 3019,1703 3018,1692z"/>
<path d="M2670,1704 L2670,1704 3018,1702 3018,1682 2670,1684 2670,1684 2670,1684 2663,1687 2660,1694 2663,1701 2670,1704z"/>
<path d="M2572,1689 L2562,1700 2670,1704 2670,1684 2562,1680 2552,1691 2562,1680 2555,1683 2552,1690 2555,1697 2562,1700z"/>
<path d="M2587,1833 L2587,1832 2572,1689 2552,1691 2567,1834 2567,1833 2567,1834 2571,1841 2578,1843 2584,1840 2587,1832z"/>
<path d="M2573,2051 L2577,2059 2587,1833 2567,1833 2557,2059 2561,2067 2557,2059 2560,2066 2567,2069 2574,2066 2577,2059z"/>
<path d="M2580,2059 L2587,2061 2573,2051 2561,2067 2575,2077 2582,2079 2575,2077 2583,2079 2589,2075 2591,2068 2587,2061z"/>
<path d="M2601,2057 L2597,2057 2580,2059 2582,2079 2599,2077 2595,2077 2599,2077 2606,2073 2608,2066 2605,2060 2597,2057z"/>
<path d="M2623,2071 L2616,2061 2601,2057 2595,2077 2610,2081 2603,2071 2610,2081 2618,2080 2623,2074 2622,2066 2616,2061z"/>
<path d="M2613,2129 L2623,2139 2623,2071 2603,2071 2603,2139 2613,2149 2603,2139 2606,2146 2613,2149 2620,2146 2623,2139z"/>
<path d="M2908,2138 L2917,2132 2613,2129 2613,2149 2917,2152 2926,2146 2917,2152 2924,2149 2927,2142 2924,2135 2917,2132z"/>
<path d="M2915,2124 L2916,2119 2908,2138 2926,2146 2934,2127 2935,2122 2934,2127 2934,2119 2929,2114 2922,2113 2916,2119z"/>
<path d="M2913,2101 L2913,2098 2915,2124 2935,2122 2933,2096 2933,2093 2933,2096 2929,2089 2922,2087 2916,2090 2913,2098z"/>
<path d="M2905,2075 L2905,2081 2913,2101 2933,2093 2925,2073 2925,2079 2925,2073 2919,2067 2911,2067 2905,2072 2905,2081z"/>
<path d="M2911,2046 L2910,2049 2905,2075 2925,2079 2930,2053 2929,2056 2930,2053 2928,2045 2922,2041 2914,2042 2910,2049z"/>
<path d="M2923,2025 L2923,2024 2911,2046 2929,2056 2941,2034 2941,2033 2941,2034 2942,2026 2937,2020 2929,2019 2923,2024z"/>
<path d="M2932,2002 L2932,2004 2923,2025 2941,2033 2950,2012 2950,2014 2950,2012 2950,2004 2945,1999 2938,1998 2932,2004z"/>
<path d="M2947,1981 L2947,1979 2932,2002 2950,2014 2965,1991 2965,1989 2965,1991 2967,1982 2962,1976 2954,1974 2947,1979z"/>
<path d="M2961,1954 L2956,1959 2947,1981 2965,1989 2974,1967 2969,1972 2974,1967 2974,1959 2969,1954 2962,1953 2956,1959z"/>
<path d="M2967,1955 L2973,1949 2961,1954 2969,1972 2981,1967 2987,1961 2981,1967 2987,1961 2986,1954 2981,1949 2973,1949z"/>
<path d="M2976,1926 L2976,1927 2967,1955 2987,1961 2996,1933 2996,1934 2996,1933 2995,1925 2989,1920 2981,1921 2976,1927z"/>
<path d="M2989,1898 L2985,1902 2976,1926 2996,1934 3005,1910 3001,1914 3005,1910 3005,1901 2999,1896 2991,1896 2985,1902z"/>
<path d="M2998,1895 L3002,1889 2989,1898 3001,1914 3014,1905 3018,1899 3014,1905 3018,1898 3016,1891 3010,1887 3002,1889z"/>
<path d="M3005,1870 L3001,1876 2998,1895 3018,1899 3021,1880 3017,1886 3021,1880 3019,1872 3013,1868 3005,1869 3001,1876z"/>
<path d="M3019,1867 L3023,1857 3005,1870 3017,1886 3035,1873 3039,1863 3035,1873 3039,1866 3037,1859 3031,1855 3023,1857z"/>
<path d="M3015,1845 L3015,1849 3019,1867 3039,1863 3035,1845 3035,1849 3035,1845 3031,1838 3024,1837 3017,1841 3015,1849z"/>
<path d="M3022,1819 L3019,1824 3015,1845 3035,1849 3039,1828 3036,1833 3039,1828 3037,1820 3031,1816 3023,1817 3019,1824z"/>
<path d="M3043,1811 L3044,1798 3022,1819 3036,1833 3058,1812 3059,1799 3058,1812 3061,1805 3058,1798 3051,1795 3044,1798z"/>
<path d="M3037,1783 L3034,1798 3043,1811 3059,1799 3050,1786 3047,1801 3050,1786 3043,1782 3036,1784 3032,1790 3034,1798z"/>
<path d="M3056,1774 L3061,1768 3037,1783 3047,1801 3071,1786 3076,1780 3071,1786 3076,1780 3075,1772 3069,1767 3061,1768z"/>
<path d="M3065,1773 L3060,1761 3056,1774 3076,1780 3080,1767 3075,1755 3080,1767 3079,1759 3073,1754 3065,1755 3060,1761z"/>
<path d="M3059,1767 L3054,1766 3065,1773 3075,1755 3064,1748 3059,1747 3065,1748 3056,1746 3050,1751 3048,1759 3053,1766z"/>
<path d="M2988,1752 L2997,1767 3059,1767 3059,1747 2997,1747 3006,1762 2997,1747 2990,1750 2987,1757 2990,1764 2997,1767z"/>
<path d="M3007,1723 L3004,1726 2988,1752 3006,1762 3022,1736 3019,1739 3022,1736 3023,1728 3018,1722 3010,1721 3004,1726z"/>
<path d="M3018,1721 L3022,1712 3007,1723 3019,1739 3034,1728 3038,1719 3034,1728 3038,1721 3036,1714 3030,1710 3022,1712z"/>
<path d="M3026,1713 L3016,1704 3018,1721 3038,1719 3036,1702 3026,1693 3036,1702 3032,1695 3025,1693 3019,1696 3016,1704z"/>
<path d="M3009,1704 L3019,1713 3026,1713 3026,1693 3019,1693 3029,1702 3019,1693 3012,1696 3009,1703 3012,1710 3019,1713z"/>
<path d="M3018,1702 L3008,1693 3009,1704 3029,1702 3028,1691 3018,1682 3028,1691 3024,1684 3017,1682 3011,1685 3008,1693z"/>
<path style="fill:#ffea2c" d="M2668,1888 L2768,1888 2799,1794 2831,1888 2931,1888 2849,1948 2879,2043 2799,1984 2718,2043 2750,1948 2668,1888z"/>
<path d="M1578,2525 L1594,2528 1569,2473 1551,2481 1576,2536 1592,2539 1576,2536 1582,2541 1589,2541 1594,2536 1594,2528z"/>
<path d="M1606,2519 L1589,2512 1578,2525 1592,2539 1603,2526 1586,2519 1603,2525 1605,2518 1602,2512 1596,2510 1589,2513z"/>
<path d="M1616,2582 L1617,2583 1614,2580 1611,2574 1608,2568 1608,2560 1607,2549 1606,2540 1606,2529 1606,2519 1586,2519 1586,2529 1586,2540 1587,2551 1588,2562 1590,2572 1593,2582 1598,2592 1607,2599 1608,2600z"/>
<path d="M1669,2560 L1653,2550 1648,2556 1642,2562 1636,2569 1631,2575 1626,2579 1621,2582 1618,2582 1616,2582 1608,2600 1618,2602 1627,2600 1636,2595 1643,2589 1650,2583 1656,2576 1662,2570 1667,2564 1651,2554 1667,2564 1670,2557 1667,2550 1660,2547 1653,2550z"/>
<path d="M1658,2577 L1660,2587 1669,2560 1651,2554 1642,2581 1644,2591 1642,2581 1643,2589 1648,2593 1655,2593 1660,2587z"/>
<path d="M1670,2596 L1668,2587 1658,2577 1644,2591 1654,2601 1652,2592 1654,2601 1661,2604 1668,2601 1671,2594 1668,2587z"/>
<path d="M1659,2672 L1659,2672 1658,2670 1657,2664 1658,2655 1658,2645 1661,2633 1664,2621 1667,2608 1670,2596 1652,2592 1649,2604 1646,2617 1643,2629 1640,2641 1638,2653 1637,2664 1640,2676 1645,2686 1645,2686z"/>
<path d="M1734,2639 L1719,2628 1704,2641 1692,2651 1680,2660 1672,2665 1664,2670 1659,2671 1658,2671 1659,2672 1645,2686 1654,2691 1663,2691 1672,2688 1682,2683 1692,2676 1704,2667 1716,2657 1731,2644 1716,2633 1731,2644 1734,2637 1732,2630 1726,2626 1719,2628z"/>
<path d="M1709,2674 L1718,2687 1734,2639 1716,2633 1700,2681 1709,2694 1700,2681 1701,2689 1706,2693 1713,2693 1718,2687z"/>
<path d="M1735,2689 L1727,2673 1709,2674 1709,2694 1727,2693 1719,2677 1727,2693 1734,2690 1737,2683 1734,2676 1727,2673z"/>
<path d="M1693,2777 L1693,2777 1693,2770 1696,2761 1700,2751 1705,2740 1711,2728 1718,2715 1726,2702 1735,2689 1719,2677 1710,2692 1702,2705 1695,2718 1687,2730 1682,2743 1678,2755 1675,2766 1673,2777 1673,2777z"/>
<path d="M1752,2768 L1738,2756 1729,2762 1719,2769 1709,2776 1701,2781 1694,2783 1693,2784 1694,2784 1693,2777 1673,2777 1676,2792 1685,2802 1698,2803 1709,2799 1719,2792 1729,2785 1739,2778 1748,2772 1734,2760 1748,2772 1752,2766 1751,2759 1745,2755 1738,2756z"/>
<path d="M1741,2784 L1741,2791 1752,2768 1734,2760 1723,2783 1723,2790 1723,2783 1723,2791 1728,2796 1735,2796 1741,2791z"/>
<path d="M1742,2803 L1744,2794 1741,2784 1723,2790 1726,2800 1728,2791 1726,2800 1731,2806 1738,2807 1743,2802 1744,2794z"/>
<path d="M1709,2860 L1707,2858 1709,2860 1709,2856 1713,2849 1717,2840 1723,2829 1730,2820 1737,2811 1742,2803 1728,2791 1721,2799 1714,2808 1707,2819 1701,2830 1695,2841 1691,2850 1689,2860 1693,2872 1691,2870z"/>
<path d="M1743,2853 L1729,2841 1722,2846 1716,2851 1711,2855 1707,2858 1706,2858 1705,2858 1708,2859 1709,2860 1691,2870 1696,2875 1703,2878 1710,2878 1717,2874 1721,2871 1728,2867 1734,2862 1741,2855 1727,2843 1741,2855 1744,2848 1742,2841 1736,2838 1729,2841z"/>
<path d="M1729,2865 L1729,2875 1743,2853 1727,2843 1713,2865 1713,2875 1713,2865 1712,2872 1717,2877 1723,2879 1729,2875z"/>
<path d="M1736,2888 L1736,2877 1729,2865 1713,2875 1720,2887 1720,2876 1720,2887 1726,2892 1733,2891 1737,2885 1736,2877z"/>
<path d="M1693,2939 L1690,2946 1697,2939 1703,2931 1708,2924 1714,2917 1719,2910 1726,2903 1731,2895 1736,2888 1720,2876 1715,2883 1710,2891 1705,2898 1700,2905 1694,2912 1689,2919 1683,2925 1676,2932 1673,2939 1676,2932 1673,2939 1676,2946 1683,2949 1690,2946z"/>
<path d="M1676,2972 L1693,2965 1693,2939 1673,2939 1673,2965 1690,2958 1673,2965 1676,2972 1683,2975 1690,2972 1693,2965z"/>
<path d="M1665,2955 L1657,2952 1676,2972 1690,2958 1671,2938 1663,2935 1671,2938 1664,2935 1657,2938 1654,2945 1657,2952z"/>
<path d="M1558,2925 L1558,2945 1571,2948 1585,2950 1599,2953 1612,2954 1625,2956 1639,2956 1652,2956 1665,2955 1663,2935 1652,2936 1639,2936 1627,2936 1614,2934 1601,2933 1589,2930 1575,2928 1562,2925 1562,2945 1562,2925 1555,2927 1551,2933 1552,2941 1558,2945z"/>
<path d="M1573,2913 L1572,2912 1572,2913 1570,2916 1565,2922 1558,2925 1562,2945 1577,2938 1586,2928 1592,2915 1588,2900 1587,2899z"/>
<path d="M1500,2877 L1506,2882 1517,2885 1527,2887 1536,2890 1546,2893 1554,2897 1560,2901 1567,2906 1573,2913 1587,2899 1579,2892 1572,2885 1562,2879 1552,2875 1542,2872 1533,2867 1521,2865 1510,2862 1516,2867 1510,2862 1503,2864 1499,2870 1500,2878 1506,2882z"/>
<path d="M1500,2872 L1494,2867 1500,2877 1516,2867 1510,2857 1504,2852 1510,2857 1504,2853 1498,2854 1493,2860 1494,2867z"/>
<path d="M1473,2846 L1474,2866 1500,2872 1504,2852 1478,2846 1479,2866 1478,2846 1471,2848 1467,2854 1468,2862 1474,2866z"/>
<path d="M1533,2819 L1533,2819 1534,2819 1531,2821 1528,2825 1521,2828 1511,2833 1501,2838 1488,2842 1473,2846 1479,2866 1494,2860 1507,2856 1519,2851 1529,2846 1538,2841 1545,2835 1550,2829 1553,2819 1553,2819z"/>
<path d="M1453,2727 L1451,2746 1469,2757 1486,2766 1500,2777 1512,2787 1522,2797 1528,2805 1532,2813 1533,2819 1553,2819 1550,2807 1544,2795 1536,2783 1524,2773 1512,2761 1496,2750 1479,2739 1461,2728 1459,2747 1461,2728 1454,2727 1449,2732 1447,2740 1451,2746z"/>
<path d="M1465,2738 L1469,2722 1453,2727 1459,2747 1475,2742 1479,2726 1475,2742 1481,2737 1481,2729 1477,2723 1469,2722z"/>
<path d="M1436,2673 L1425,2688 1465,2738 1479,2726 1439,2676 1428,2691 1439,2676 1432,2672 1426,2674 1423,2680 1425,2688z"/>
<path d="M1525,2693 L1526,2693 1520,2695 1512,2696 1501,2695 1488,2692 1476,2688 1462,2685 1449,2679 1436,2673 1428,2691 1441,2697 1456,2703 1470,2708 1484,2712 1499,2715 1512,2716 1524,2715 1536,2709 1537,2709z"/>
<path d="M1484,2611 L1480,2628 1491,2639 1502,2651 1512,2661 1519,2672 1524,2681 1527,2689 1527,2692 1525,2693 1537,2709 1545,2698 1545,2685 1542,2673 1535,2662 1526,2649 1516,2637 1505,2625 1494,2614 1490,2631 1494,2614 1487,2611 1480,2614 1477,2621 1480,2628z"/>
<path d="M1492,2622 L1497,2607 1484,2611 1490,2631 1503,2627 1508,2612 1503,2627 1509,2622 1509,2614 1505,2608 1497,2607z"/>
<path d="M1477,2565 L1464,2578 1492,2622 1508,2612 1480,2568 1467,2581 1480,2568 1474,2564 1468,2565 1463,2571 1464,2578z"/>
<path d="M1533,2593 L1533,2594 1529,2596 1526,2596 1520,2595 1513,2591 1505,2585 1495,2578 1486,2571 1477,2565 1467,2581 1474,2587 1483,2594 1493,2601 1503,2609 1514,2613 1526,2616 1537,2614 1547,2606 1547,2607z"/>
<path d="M1534,2520 L1524,2533 1527,2541 1530,2550 1533,2559 1536,2568 1537,2575 1537,2582 1536,2588 1533,2593 1547,2607 1554,2596 1557,2584 1557,2573 1554,2562 1551,2553 1548,2544 1545,2535 1542,2527 1532,2540 1542,2527 1537,2521 1530,2521 1525,2525 1524,2533z"/>
<path d="M1541,2529 L1551,2521 1534,2520 1532,2540 1549,2541 1559,2533 1550,2541 1557,2538 1560,2532 1557,2525 1550,2521z"/>
<path d="M1569,2473 L1551,2475 1541,2529 1559,2533 1569,2479 1551,2481 1569,2479 1567,2471 1562,2467 1555,2468 1551,2475z"/>
<path d="M1592,2712 L1584,2700 1575,2688 1567,2677 1559,2666 1550,2656 1541,2646 1532,2637 1523,2629 1534,2641 1544,2653 1553,2667 1563,2681 1571,2695 1580,2710 1588,2724 1596,2739 1598,2749 1601,2759 1603,2768 1606,2778 1609,2788 1612,2797 1614,2807 1617,2816 1605,2805 1592,2795 1579,2785 1567,2775 1554,2766 1541,2757 1527,2749 1514,2741 1529,2751 1543,2763 1557,2774 1571,2787 1585,2799 1598,2812 1611,2826 1624,2839 1626,2846 1629,2853 1631,2859 1633,2865 1635,2871 1638,2877 1640,2883 1643,2889 1631,2884 1619,2879 1607,2874 1596,2870 1584,2867 1573,2864 1562,2862 1551,2861 1564,2865 1577,2870 1590,2876 1602,2881 1615,2888 1627,2895 1638,2903 1650,2911 1655,2922 1660,2933 1666,2943 1671,2954 1676,2964 1682,2974 1687,2984 1693,2994 1698,3004 1704,3014 1710,3024 1716,3033 1722,3043 1728,3052 1734,3062 1740,3071 1757,3060 1744,3045 1731,3029 1719,3011 1706,2991 1694,2971 1683,2949 1671,2926 1661,2902 1666,2891 1671,2880 1675,2868 1680,2857 1685,2845 1690,2833 1696,2821 1703,2809 1697,2817 1690,2826 1684,2837 1677,2847 1671,2857 1665,2867 1659,2877 1654,2885 1651,2878 1649,2872 1646,2865 1644,2858 1641,2852 1639,2845 1637,2838 1635,2831 1640,2816 1646,2801 1651,2785 1656,2769 1661,2753 1667,2737 1673,2722 1680,2707 1672,2719 1664,2732 1658,2746 1652,2760 1646,2773 1641,2787 1635,2799 1628,2810 1625,2802 1623,2793 1620,2784 1617,2775 1614,2766 1611,2757 1609,2748 1606,2739 1612,2722 1617,2705 1620,2689 1623,2673 1626,2657 1629,2641 1633,2624 1637,2607 1631,2622 1627,2636 1623,2650 1620,2664 1617,2678 1614,2692 1609,2705 1603,2719 1600,2709 1598,2698 1595,2688 1593,2677 1591,2667 1589,2657 1587,2646 1585,2636 1583,2626 1582,2616 1580,2606 1579,2596 1578,2586 1577,2576 1576,2566 1575,2556 1575,2575 1576,2594 1577,2613 1579,2632 1582,2652 1585,2672 1588,2692 1592,2712z"/>
<path d="M4032,2525 L4016,2528 4041,2473 4059,2481 4034,2536 4018,2539 4034,2536 4028,2541 4021,2541 4016,2536 4016,2528z"/>
<path d="M4004,2519 L4021,2512 4032,2525 4018,2539 4007,2526 4024,2519 4007,2525 4005,2518 4008,2512 4014,2510 4021,2513z"/>
<path d="M3994,2582 L3993,2583 3996,2580 3999,2574 4002,2568 4002,2560 4003,2549 4004,2540 4004,2529 4004,2519 4024,2519 4024,2529 4024,2540 4023,2551 4022,2562 4020,2572 4017,2582 4012,2592 4003,2599 4002,2600z"/>
<path d="M3941,2560 L3957,2550 3962,2556 3968,2562 3974,2569 3979,2575 3984,2579 3989,2582 3992,2582 3994,2582 4002,2600 3992,2602 3983,2600 3974,2595 3967,2589 3960,2583 3954,2576 3948,2570 3943,2564 3959,2554 3943,2564 3940,2557 3943,2550 3950,2547 3957,2550z"/>
<path d="M3952,2577 L3950,2587 3941,2560 3959,2554 3968,2581 3966,2591 3968,2581 3967,2589 3962,2593 3955,2593 3950,2587z"/>
<path d="M3940,2596 L3942,2587 3952,2577 3966,2591 3956,2601 3958,2592 3956,2601 3949,2604 3942,2601 3939,2594 3942,2587z"/>
<path d="M3951,2672 L3951,2672 3952,2670 3953,2664 3952,2655 3952,2645 3949,2633 3946,2621 3943,2608 3940,2596 3958,2592 3961,2604 3964,2617 3967,2629 3970,2641 3972,2653 3973,2664 3970,2676 3965,2686 3965,2686z"/>
<path d="M3876,2639 L3891,2628 3906,2641 3918,2651 3929,2660 3939,2665 3946,2670 3951,2671 3952,2671 3951,2672 3965,2686 3956,2691 3947,2691 3938,2688 3929,2683 3919,2676 3906,2667 3894,2657 3879,2644 3894,2633 3879,2644 3876,2637 3878,2630 3884,2626 3891,2628z"/>
<path d="M3901,2674 L3892,2687 3876,2639 3894,2633 3910,2681 3901,2694 3910,2681 3909,2689 3904,2693 3897,2693 3892,2687z"/>
<path d="M3875,2689 L3883,2673 3901,2674 3901,2694 3883,2693 3891,2677 3883,2693 3876,2690 3873,2683 3876,2676 3883,2673z"/>
<path d="M3917,2777 L3917,2777 3917,2770 3914,2761 3910,2751 3905,2740 3899,2728 3892,2715 3884,2702 3875,2689 3891,2677 3900,2692 3908,2705 3915,2718 3923,2730 3928,2743 3932,2755 3935,2766 3937,2777 3937,2777z"/>
<path d="M3858,2768 L3872,2756 3881,2762 3891,2769 3901,2776 3909,2781 3916,2783 3917,2784 3916,2784 3917,2777 3937,2777 3934,2792 3925,2802 3912,2803 3901,2799 3891,2792 3881,2785 3871,2778 3862,2772 3876,2760 3862,2772 3858,2766 3860,2759 3865,2755 3872,2756z"/>
<path d="M3869,2784 L3869,2791 3858,2768 3876,2760 3887,2783 3887,2790 3887,2783 3887,2791 3882,2796 3875,2796 3869,2791z"/>
<path d="M3868,2803 L3866,2794 3869,2784 3887,2790 3884,2800 3882,2791 3884,2800 3879,2806 3872,2807 3867,2802 3866,2794z"/>
<path d="M3901,2860 L3903,2858 3901,2860 3901,2856 3897,2849 3893,2840 3887,2829 3880,2820 3873,2811 3868,2803 3882,2791 3889,2799 3896,2808 3903,2819 3909,2830 3915,2841 3919,2850 3921,2860 3917,2872 3919,2870z"/>
<path d="M3867,2853 L3881,2841 3888,2846 3894,2851 3899,2855 3904,2858 3905,2858 3905,2858 3902,2859 3901,2860 3919,2870 3914,2875 3907,2878 3899,2878 3894,2874 3889,2871 3882,2867 3876,2862 3869,2855 3883,2843 3869,2855 3866,2848 3868,2841 3874,2838 3881,2841z"/>
<path d="M3881,2865 L3881,2875 3867,2853 3883,2843 3897,2865 3897,2875 3897,2865 3898,2872 3894,2877 3887,2879 3881,2875z"/>
<path d="M3874,2888 L3874,2877 3881,2865 3897,2875 3890,2887 3890,2876 3890,2887 3884,2892 3878,2891 3873,2885 3874,2877z"/>
<path d="M3917,2939 L3920,2946 3913,2939 3907,2931 3902,2924 3896,2917 3891,2910 3884,2903 3879,2895 3874,2888 3890,2876 3895,2883 3900,2891 3905,2898 3910,2905 3916,2912 3921,2919 3927,2925 3934,2932 3937,2939 3934,2932 3937,2939 3934,2946 3927,2949 3920,2946z"/>
<path d="M3934,2972 L3917,2965 3917,2939 3937,2939 3937,2965 3920,2958 3937,2965 3934,2972 3927,2975 3920,2972 3917,2965z"/>
<path d="M3945,2955 L3953,2952 3934,2972 3920,2958 3939,2938 3947,2935 3939,2938 3946,2935 3953,2938 3956,2945 3953,2952z"/>
<path d="M4052,2925 L4052,2945 4039,2948 4025,2950 4011,2953 3998,2954 3985,2956 3971,2956 3958,2956 3945,2955 3947,2935 3958,2936 3971,2936 3983,2936 3996,2934 4009,2933 4021,2930 4035,2928 4048,2925 4048,2945 4048,2925 4055,2927 4059,2933 4058,2941 4052,2945z"/>
<path d="M4037,2913 L4038,2912 4038,2913 4040,2916 4045,2922 4052,2925 4048,2945 4033,2938 4024,2928 4018,2915 4022,2900 4023,2899z"/>
<path d="M4110,2877 L4104,2882 4093,2885 4083,2887 4074,2890 4064,2893 4056,2897 4050,2901 4043,2906 4037,2913 4023,2899 4031,2892 4038,2885 4048,2879 4058,2875 4068,2872 4077,2867 4089,2865 4100,2862 4094,2867 4100,2862 4107,2864 4111,2870 4110,2878 4104,2882z"/>
<path d="M4110,2872 L4116,2867 4110,2877 4094,2867 4100,2857 4106,2852 4100,2857 4106,2853 4113,2854 4117,2860 4116,2867z"/>
<path d="M4137,2846 L4136,2866 4110,2872 4106,2852 4132,2846 4131,2866 4132,2846 4139,2848 4143,2854 4142,2862 4136,2866z"/>
<path d="M4077,2819 L4077,2819 4076,2819 4079,2821 4082,2825 4089,2828 4099,2833 4109,2838 4122,2842 4137,2846 4131,2866 4116,2860 4103,2856 4091,2851 4081,2846 4072,2841 4065,2835 4060,2829 4057,2819 4057,2819z"/>
<path d="M4157,2727 L4159,2746 4141,2757 4124,2766 4111,2777 4098,2788 4088,2797 4082,2805 4078,2813 4077,2819 4057,2819 4060,2807 4066,2795 4074,2783 4086,2772 4099,2761 4114,2750 4131,2739 4149,2728 4151,2747 4149,2728 4156,2727 4162,2732 4163,2740 4159,2746z"/>
<path d="M4145,2738 L4141,2722 4157,2727 4151,2747 4135,2742 4131,2726 4135,2742 4129,2737 4129,2729 4133,2723 4141,2722z"/>
<path d="M4174,2673 L4185,2688 4145,2738 4131,2726 4171,2676 4182,2691 4171,2676 4178,2672 4184,2674 4187,2680 4185,2688z"/>
<path d="M4085,2693 L4084,2693 4090,2695 4098,2696 4109,2695 4122,2692 4134,2688 4148,2685 4161,2679 4174,2673 4182,2691 4169,2697 4154,2703 4140,2708 4126,2712 4111,2715 4098,2716 4086,2715 4074,2709 4073,2709z"/>
<path d="M4126,2611 L4130,2628 4119,2639 4108,2651 4098,2661 4091,2672 4086,2681 4083,2689 4083,2692 4085,2693 4073,2709 4065,2698 4065,2685 4068,2673 4075,2662 4084,2649 4094,2637 4105,2625 4116,2614 4120,2631 4116,2614 4123,2611 4130,2614 4133,2621 4130,2628z"/>
<path d="M4118,2622 L4113,2607 4126,2611 4120,2631 4107,2627 4102,2612 4107,2627 4101,2622 4101,2614 4105,2608 4113,2607z"/>
<path d="M4133,2565 L4146,2578 4118,2622 4102,2612 4130,2568 4143,2581 4130,2568 4136,2564 4143,2565 4147,2571 4146,2578z"/>
<path d="M4077,2593 L4077,2594 4081,2596 4084,2596 4090,2595 4097,2591 4105,2585 4115,2578 4124,2571 4133,2565 4143,2581 4136,2587 4127,2594 4117,2601 4107,2609 4096,2613 4084,2616 4073,2614 4063,2606 4063,2607z"/>
<path d="M4076,2520 L4086,2533 4083,2541 4080,2550 4077,2559 4074,2568 4073,2575 4073,2582 4074,2588 4077,2593 4063,2607 4056,2596 4053,2584 4053,2573 4056,2562 4059,2553 4062,2544 4065,2535 4068,2527 4078,2540 4068,2527 4073,2521 4080,2521 4085,2525 4086,2533z"/>
<path d="M4069,2529 L4059,2521 4076,2520 4078,2540 4061,2541 4051,2533 4060,2541 4053,2538 4050,2532 4053,2525 4060,2521z"/>
<path d="M4041,2473 L4059,2475 4069,2529 4051,2533 4041,2479 4059,2481 4041,2479 4043,2471 4049,2467 4055,2468 4059,2475z"/>
<path d="M4018,2712 L4026,2700 4035,2688 4043,2677 4051,2666 4060,2656 4069,2646 4078,2637 4087,2629 4076,2641 4066,2653 4057,2667 4048,2681 4039,2695 4030,2710 4022,2724 4014,2739 4012,2749 4009,2759 4007,2768 4004,2778 4001,2788 3998,2797 3996,2807 3993,2816 4005,2805 4018,2795 4031,2785 4043,2775 4056,2766 4069,2757 4083,2749 4096,2741 4081,2751 4067,2763 4053,2774 4039,2787 4025,2799 4012,2812 3999,2826 3986,2839 3984,2846 3981,2853 3979,2859 3977,2865 3975,2871 3972,2877 3970,2883 3967,2889 3979,2884 3991,2879 4003,2874 4014,2870 4026,2867 4037,2864 4048,2862 4059,2861 4046,2865 4033,2870 4020,2876 4008,2881 3995,2888 3983,2895 3972,2903 3960,2911 3955,2922 3950,2933 3944,2943 3939,2954 3934,2964 3928,2974 3923,2984 3917,2994 3912,3004 3906,3014 3900,3024 3894,3033 3888,3043 3882,3052 3876,3062 3870,3071 3853,3060 3866,3045 3879,3029 3891,3011 3904,2991 3916,2971 3927,2949 3939,2926 3949,2902 3944,2891 3939,2880 3935,2868 3930,2857 3925,2845 3920,2833 3914,2821 3907,2809 3913,2817 3920,2826 3926,2837 3933,2847 3939,2857 3945,2867 3951,2877 3956,2885 3959,2878 3961,2872 3964,2865 3966,2858 3969,2852 3971,2845 3973,2838 3975,2831 3970,2816 3964,2801 3959,2785 3954,2769 3949,2753 3943,2737 3937,2722 3930,2707 3938,2719 3946,2732 3952,2746 3958,2760 3964,2773 3969,2787 3975,2799 3982,2810 3985,2802 3987,2793 3990,2784 3993,2775 3996,2766 3999,2757 4001,2748 4004,2739 3998,2722 3993,2705 3990,2689 3987,2673 3984,2657 3981,2641 3977,2624 3973,2607 3979,2622 3983,2636 3987,2650 3990,2664 3993,2678 3996,2692 4001,2705 4007,2719 4010,2709 4012,2698 4015,2688 4017,2677 4019,2667 4021,2657 4023,2646 4025,2636 4027,2626 4028,2616 4030,2606 4031,2596 4032,2586 4033,2576 4034,2566 4035,2556 4035,2575 4034,2594 4033,2613 4031,2632 4028,2652 4025,2672 4022,2692 4018,2712z"/>
</svg>