<?xml version="1.0" encoding="UTF-8" standalone="no"?>
<!-- Created with Inkscape (http://www.inkscape.org/) -->

<svg
   xmlns:svg="http://www.w3.org/2000/svg"
   xmlns="http://www.w3.org/2000/svg"
   xmlns:xlink="http://www.w3.org/1999/xlink"
   version="1.0"
   width="1800"
   height="900"
   id="svg1">
  <defs
     id="defs3">
    <linearGradient
       id="linearGradient1108">
      <stop
         id="stop1109"
         style="stop-color:#000000;stop-opacity:1"
         offset="0" />
      <stop
         id="stop1110"
         style="stop-color:#ffffff;stop-opacity:1"
         offset="1" />
    </linearGradient>
    <linearGradient
       id="linearGradient1111"
       xlink:href="#linearGradient1108" />
    <linearGradient
       id="linearGradient1112"
       xlink:href="#linearGradient1108" />
    <linearGradient
       id="linearGradient1113"
       xlink:href="#linearGradient1108" />
    <linearGradient
       id="linearGradient1114"
       xlink:href="#linearGradient1108" />
    <linearGradient
       id="linearGradient1115"
       xlink:href="#linearGradient1108" />
    <linearGradient
       id="linearGradient1116"
       xlink:href="#linearGradient1108" />
    <linearGradient
       id="linearGradient1117"
       xlink:href="#linearGradient1108" />
    <linearGradient
       id="linearGradient1118"
       xlink:href="#linearGradient1108" />
    <linearGradient
       id="linearGradient1119"
       xlink:href="#linearGradient1108" />
    <linearGradient
       id="linearGradient1120"
       xlink:href="#linearGradient1108" />
    <linearGradient
       id="linearGradient1121"
       xlink:href="#linearGradient1108" />
    <linearGradient
       id="linearGradient1122"
       xlink:href="#linearGradient1108" />
    <linearGradient
       id="linearGradient1123"
       xlink:href="#linearGradient1108" />
    <linearGradient
       id="linearGradient1124"
       xlink:href="#linearGradient1108" />
    <linearGradient
       id="linearGradient1125"
       xlink:href="#linearGradient1108" />
    <linearGradient
       id="linearGradient1126"
       xlink:href="#linearGradient1108" />
    <linearGradient
       id="linearGradient1127"
       xlink:href="#linearGradient1108" />
    <linearGradient
       id="linearGradient1128"
       xlink:href="#linearGradient1108" />
    <linearGradient
       id="linearGradient1129"
       xlink:href="#linearGradient1108" />
    <linearGradient
       id="linearGradient1130"
       xlink:href="#linearGradient1108" />
    <linearGradient
       id="linearGradient1131"
       xlink:href="#linearGradient1108" />
    <linearGradient
       id="linearGradient1132"
       xlink:href="#linearGradient1108" />
    <linearGradient
       id="linearGradient1133"
       xlink:href="#linearGradient1108" />
    <linearGradient
       id="linearGradient1134"
       xlink:href="#linearGradient1108" />
    <linearGradient
       id="linearGradient1135"
       xlink:href="#linearGradient1108" />
    <linearGradient
       id="linearGradient1136"
       xlink:href="#linearGradient1108" />
    <linearGradient
       id="linearGradient1137"
       xlink:href="#linearGradient1108" />
    <linearGradient
       id="linearGradient1138"
       xlink:href="#linearGradient1108" />
    <linearGradient
       id="linearGradient1139"
       xlink:href="#linearGradient1108" />
    <linearGradient
       id="linearGradient1140"
       xlink:href="#linearGradient1108" />
    <linearGradient
       id="linearGradient1141"
       xlink:href="#linearGradient1108" />
    <linearGradient
       id="linearGradient1142"
       xlink:href="#linearGradient1108" />
    <linearGradient
       id="linearGradient1143"
       xlink:href="#linearGradient1108" />
    <linearGradient
       id="linearGradient1144"
       xlink:href="#linearGradient1108" />
    <linearGradient
       id="linearGradient1145"
       xlink:href="#linearGradient1108" />
    <linearGradient
       id="linearGradient1146"
       xlink:href="#linearGradient1108" />
    <linearGradient
       id="linearGradient1147"
       xlink:href="#linearGradient1108" />
    <linearGradient
       id="linearGradient1148"
       xlink:href="#linearGradient1108" />
    <linearGradient
       id="linearGradient1149"
       xlink:href="#linearGradient1108" />
    <linearGradient
       id="linearGradient1150"
       xlink:href="#linearGradient1108" />
    <linearGradient
       id="linearGradient1151"
       xlink:href="#linearGradient1108" />
    <linearGradient
       id="linearGradient1152"
       xlink:href="#linearGradient1108" />
    <linearGradient
       id="linearGradient1153"
       xlink:href="#linearGradient1108" />
    <linearGradient
       id="linearGradient1154"
       xlink:href="#linearGradient1108" />
    <linearGradient
       id="linearGradient1155"
       xlink:href="#linearGradient1108" />
    <linearGradient
       id="linearGradient1156"
       xlink:href="#linearGradient1108" />
    <linearGradient
       id="linearGradient1157"
       xlink:href="#linearGradient1108" />
    <linearGradient
       id="linearGradient1158"
       xlink:href="#linearGradient1108" />
    <linearGradient
       id="linearGradient1159"
       xlink:href="#linearGradient1108" />
    <linearGradient
       id="linearGradient1160"
       xlink:href="#linearGradient1108" />
    <linearGradient
       id="linearGradient1161"
       xlink:href="#linearGradient1108" />
    <linearGradient
       id="linearGradient1162"
       xlink:href="#linearGradient1108" />
    <linearGradient
       id="linearGradient1163"
       xlink:href="#linearGradient1108" />
    <linearGradient
       id="linearGradient1164"
       xlink:href="#linearGradient1108" />
    <linearGradient
       id="linearGradient1165"
       xlink:href="#linearGradient1108" />
    <linearGradient
       id="linearGradient1166"
       xlink:href="#linearGradient1108" />
    <linearGradient
       id="linearGradient1167"
       xlink:href="#linearGradient1108" />
    <linearGradient
       id="linearGradient1168"
       xlink:href="#linearGradient1108" />
    <linearGradient
       id="linearGradient1169"
       xlink:href="#linearGradient1108" />
    <linearGradient
       id="linearGradient1170"
       xlink:href="#linearGradient1108" />
    <linearGradient
       id="linearGradient1171"
       xlink:href="#linearGradient1108" />
    <linearGradient
       id="linearGradient1172"
       xlink:href="#linearGradient1108" />
  </defs>
  <rect
     width="1800"
     height="900"
     x="0"
     y="0"
     id="rect1356"
     style="fill:#002b7f" />
  <path
     d="m -1075.7573,559.45135 a 112.35687,114.74744 0 1 1 -224.7137,0 112.35687,114.74744 0 1 1 224.7137,0 z"
     transform="matrix(1.7800424,0,0,1.7429583,3464.8935,-525.10038)"
     id="path2844"
     style="fill:#ffe300;fill-opacity:1;fill-rule:evenodd;stroke:none" />
  <path
     d="m 1383.3639,525.83151 c -3.3485,-0.89969 -8.8933,-4.38942 -12.0155,-7.56212 -1.1119,-1.12987 -2.3013,-2.05431 -2.6432,-2.05431 -0.3419,0 -2.0022,0.38814 -3.6894,0.86253 -5.1374,1.44444 -17.6503,4.14831 -25.3461,5.47697 -6.6576,1.14943 -7.8191,1.25612 -13.5478,1.24448 -9.943,-0.0202 -24.3626,-2.33221 -30.3133,-4.86034 -6.705,-2.84861 -14.6088,-6.86917 -18.1908,-9.25345 -3.3611,-2.23724 -8.9191,-7.83837 -11.3332,-11.42108 -4.1775,-6.19968 -6.9728,-13.56735 -8.2626,-21.77771 -0.5448,-3.46813 -0.2098,-11.21703 0.6737,-15.5797 1.4151,-6.98846 2.966,-11.13267 6.5491,-17.50087 6.9691,-12.38573 14.0753,-21.35569 31.3209,-39.53544 14.3483,-15.12544 17.0147,-19.45359 17.1266,-27.80013 0.038,-2.82361 -0.085,-3.93318 -0.5528,-4.9865 -1.1644,-2.62297 -3.3547,-4.2337 -5.7571,-4.2337 -1.3918,0 -2.9893,1.0328 -6.0421,3.90632 -2.7111,2.55182 -6.1557,4.32266 -9.8358,5.05655 -1.4358,0.28634 -2.9284,0.52062 -3.3168,0.52062 -1.1421,0 -3.9513,2.91635 -5.1855,5.38342 -0.6173,1.23383 -1.3241,3.19454 -1.5709,4.35713 -0.4995,2.35399 -0.8564,2.55102 -2.8807,1.59044 -2.2904,-1.08688 -2.5199,-3.50506 -1.0306,-10.86043 1.0198,-5.03641 1.025,-5.24063 0.1696,-6.64358 -2.0581,-3.37567 0.7792,-12.06788 5.548,-16.99673 6.0235,-6.22549 15.3697,-9.52791 24.4254,-8.63049 11.193,1.10924 17.9617,5.51419 22.0414,14.34427 2.1009,4.54704 2.6154,7.1061 2.6242,13.05292 0.012,8.06714 -1.3081,14.36143 -4.2268,20.15241 -2.1497,4.26528 -7.2303,11.93146 -13.6922,20.66046 -4.975,6.72045 -8.9017,12.50704 -10.9169,16.08806 -2.556,4.54174 -4.8293,11.8455 -5.4829,17.61506 -0.6519,5.75494 0.9054,15.92183 2.7206,17.76174 0.8343,0.84558 2.7742,0.86831 3.6859,0.0432 0.3752,-0.3395 0.9457,-1.30741 1.2678,-2.15092 0.615,-1.61048 0.6616,-2.78991 0.4781,-12.10058 -0.1121,-5.68678 0.2821,-8.17062 2.0062,-12.64147 2.0037,-5.19577 9.1702,-15.70846 13.8941,-20.38139 3.796,-3.75513 11.5984,-9.45724 17.6587,-12.90531 2.3002,-1.30872 4.4333,-2.63644 4.7401,-2.95047 0.3068,-0.31404 0.7965,-1.41332 1.0882,-2.44284 0.7283,-2.57014 3.8962,-8.93225 6.0263,-12.10248 2.4822,-3.69429 6.2835,-8.68948 10.3716,-13.62938 3.124,-3.7748 7.6397,-10.48192 10.4322,-15.495 0.5447,-0.9778 1.1047,-1.77797 1.2444,-1.77816 0.1397,-1.9e-4 0.254,0.88767 0.254,1.97301 0,2.35743 0.619,8.76381 0.9769,10.11017 0.157,0.59082 0.5164,0.99498 0.9404,1.05756 0.5645,0.0833 0.8881,-0.36782 1.8222,-2.54022 1.3292,-3.09123 1.993,-4.22129 2.3501,-4.00061 0.1416,0.0876 0.3664,1.8379 0.4993,3.88963 0.3571,5.50864 1.3904,6.42156 3.4027,3.00615 1.151,-1.95355 2.8625,-4.2445 5.6149,-7.51568 1.0392,-1.23497 2.7085,-3.62934 3.7098,-5.32082 1.0012,-1.69148 1.9652,-3.16489 2.1421,-3.27423 0.5384,-0.33273 0.023,3.47492 -1.1436,8.44262 -1.8033,7.68179 -1.4293,7.89416 7.3662,4.1819 3.1752,-1.3401 4.1906,-1.96398 6.151,-3.77902 1.298,-1.20176 3.132,-3.39607 4.1012,-4.90682 0.9641,-1.50309 1.8376,-2.64838 1.9409,-2.54508 0.2313,0.23139 -0.4599,4.7542 -1.1356,7.43002 -0.2743,1.08637 -1.0203,3.0893 -1.6578,4.45095 -1.4558,3.1094 -1.7954,4.94532 -1.0321,5.57885 0.4693,0.38942 0.9105,0.31726 2.996,-0.49001 3.5271,-1.36528 5.0189,-2.31141 8.0895,-5.13055 2.9247,-2.6852 4.009,-3.446 4.009,-2.81285 0,0.48237 -8.6257,14.98805 -9.8887,16.62954 -0.5222,0.6788 -0.9495,1.56649 -0.9495,1.97266 0,0.73697 0.011,0.73799 5.1651,0.5003 7.234,-0.33358 10.2566,-1.18046 15.0398,-4.21391 0.8823,-0.55955 1.8024,-1.01736 2.0445,-1.01736 0.2422,0 -0.4823,1.24436 -1.6099,2.76524 -3.8818,5.23539 -6.5011,11.9804 -4.8921,12.59783 0.7116,0.27307 2.7011,-0.23972 5.1753,-1.33391 2.0375,-0.90107 2.4473,-0.98326 2.4473,-0.49085 0,0.37165 -3.9144,5.60778 -5.6416,7.5465 -1.2398,1.39175 -1.4564,2.5208 -0.5503,2.86853 0.9451,0.36266 6.7901,-1.87217 10.0776,-3.85316 1.6714,-1.00717 3.2592,-1.78848 3.5282,-1.73623 0.7935,0.15405 0.7809,0.7495 -0.04,1.86952 -3.3714,4.60256 -7.0378,9.32811 -8.2691,10.65804 -2.4516,2.64798 -1.84,3.73524 1.9252,3.42211 l 2.1872,-0.18189 -1.1273,1.0595 c -0.62,0.58272 -1.0653,1.24771 -0.9895,1.47774 0.084,0.2548 1.0539,0.48443 2.482,0.5876 1.3731,0.0992 2.169,0.28286 1.921,0.44336 -0.651,0.42132 -0.502,1.51821 0.2381,1.75312 1.2932,0.41043 4.9215,-0.54437 8.0478,-2.11781 1.7164,-0.86386 3.2259,-1.46551 3.3544,-1.337 0.3106,0.31058 -5.0291,7.32189 -7.9947,10.49739 -1.2952,1.38687 -3.4645,3.40462 -4.8207,4.48389 -4.6339,3.6876 -5.4394,5.24242 -3.0586,5.90361 1.7989,0.49958 4.3089,0.44029 5.684,-0.13426 0.9208,-0.38474 1.1746,-0.3975 1.1746,-0.0591 0,0.48934 -5.009,7.94619 -7.8031,11.61632 -1.0174,1.33636 -2.3637,3.27966 -2.9919,4.31847 -1.874,3.09894 -1.3454,3.26477 9.2709,2.90839 l 6.7739,-0.2274 7.4513,-3.6311 c 11.2586,-5.48647 24.3864,-10.92997 25.0054,-10.36861 0.3998,0.36263 -1.0699,3.1073 -3.3542,6.264 -7.1041,9.817 -10.752,16.63155 -10.1617,18.98326 0.2582,1.02881 0.8714,1.0465 2.5613,0.0739 0.7229,-0.4161 1.4145,-0.65647 1.5369,-0.53415 0.6667,0.66675 -5.9214,8.72096 -11.6639,14.25952 -2.2773,2.19636 -4.0772,4.17773 -3.9999,4.40304 0.151,0.43993 1.629,0.4767 2.8703,0.0714 1.2138,-0.39629 0.9502,0.47055 -0.9882,3.24872 -2.3331,3.34381 -5.1246,6.04733 -11.6282,11.26146 -9.374,7.51543 -17.831,12.76056 -25.7678,15.98141 -3.3659,1.36592 -10.9467,3.54691 -12.3285,3.54691 -1.2268,0 -2.1335,0.71482 -1.8486,1.45737 0.3946,1.02821 3.1997,2.39814 6.3293,3.09106 1.5947,0.35308 1.0311,0.79398 -1.5241,1.19219 -1.3505,0.21047 -4.8942,1.13816 -7.8747,2.06153 -2.9874,0.92551 -6.707,1.83139 -8.2891,2.01879 -4.229,0.5009 -11.6756,0.39129 -13.8931,-0.20451 z m -93.6518,-162.69705 c 2.2129,-1.06589 3.9765,-2.47252 5.3377,-4.25746 1.3618,-1.7857 1.8008,-2.88394 1.4833,-3.71112 -0.3788,-0.98717 -5.0093,-0.48185 -6.2633,0.68351 -0.3847,0.35756 -0.3711,0.72585 0.085,2.29384 0.798,2.74482 0.6927,2.89832 -0.9092,1.32611 -0.7988,-0.78391 -1.693,-1.4253 -1.9872,-1.4253 -0.6459,0 -2.2641,2.35344 -2.529,3.67814 -0.3998,1.9987 2.0585,2.72455 4.783,1.41228 z"
     id="path2820"
     style="fill:#000000" />
  <rect
     width="900"
     height="449.99954"
     x="6.7741703e-06"
     y="0.00044999999"
     id="rect1359"
     style="fill:#002b7f" />
  <g
     transform="matrix(0.6,0,0,0.5999994,6.7741704e-6,4.5e-4)"
     id="upper_half">
    <polygon
       points="0,0 167.7051,0 625,228.64745 625,0 675,0 750,325 0,300 0,250 332.2949,250 0,83.852549 0,0 "
       id="upper_left_white"
       style="fill:#ffffff" />
    <use
       transform="matrix(-1,0,0,1,1500,0)"
       id="use1363"
       x="0"
       y="0"
       width="1000"
       height="500"
       xlink:href="#upper_left_white" />
    <path
       d="M 0,0 500,250 388.1966,250 0,55.901699 0,0 z m 1500,0 -500,250 -111.8034,0 500,-250 L 1500,0 z"
       id="upper_red_diagonals"
       style="fill:#ce1126" />
  </g>
  <use
     transform="matrix(-1,0,0,-1,900.00001,450.00045)"
     id="use1366"
     x="0"
     y="0"
     width="1000"
     height="500"
     xlink:href="#upper_half" />
  <path
     d="m 405.00001,4.5e-4 90,0 0,179.99982 405,0 0,89.99991 -405,0 0,179.99982 -90,0 0,-179.99982 -405.0000032258296,0 0,-89.99991 405.0000032258296,0 0,-179.99982 z"
     id="path1368"
     style="fill:#ce1126" />
</svg>
