<?xml version="1.0" encoding="UTF-8" standalone="no"?>
<!-- Created with Inkscape (http://www.inkscape.org/) -->
<svg
   xmlns:dc="http://purl.org/dc/elements/1.1/"
   xmlns:cc="http://creativecommons.org/ns#"
   xmlns:rdf="http://www.w3.org/1999/02/22-rdf-syntax-ns#"
   xmlns:svg="http://www.w3.org/2000/svg"
   xmlns="http://www.w3.org/2000/svg"
   xmlns:sodipodi="http://sodipodi.sourceforge.net/DTD/sodipodi-0.dtd"
   xmlns:inkscape="http://www.inkscape.org/namespaces/inkscape"
   sodipodi:docbase="F:\Cincinnati flag"
   sodipodi:docname="cincy2.svg"
   version="1.0"
   inkscape:version="0.46"
   sodipodi:version="0.32"
   id="svg2"
   height="533.33002"
   width="800"
   inkscape:output_extension="org.inkscape.output.svg.inkscape">
  <defs
     id="defs4">
    <inkscape:perspective
       id="perspective10"
       inkscape:persp3d-origin="372.04724 : 350.78739 : 1"
       inkscape:vp_z="744.09448 : 526.18109 : 1"
       inkscape:vp_y="0 : 1000 : 0"
       inkscape:vp_x="0 : 526.18109 : 1"
       sodipodi:type="inkscape:persp3d" />
    <inkscape:perspective
       sodipodi:type="inkscape:persp3d"
       inkscape:vp_x="0 : 526.18109 : 1"
       inkscape:vp_y="0 : 1000 : 0"
       inkscape:vp_z="744.09448 : 526.18109 : 1"
       inkscape:persp3d-origin="372.04724 : 350.78739 : 1"
       id="perspective2487" />
  </defs>
  <sodipodi:namedview
     inkscape:grid-bbox="false"
     inkscape:grid-points="true"
     inkscape:guide-bbox="true"
     showguides="false"
     inkscape:window-y="-4"
     inkscape:window-x="-4"
     inkscape:window-height="952"
     inkscape:window-width="1280"
     width="800px"
     showgrid="false"
     inkscape:current-layer="layer1"
     inkscape:document-units="px"
     inkscape:cy="175.5686"
     inkscape:cx="370.18803"
     inkscape:zoom="0.70710678"
     inkscape:pageshadow="2"
     inkscape:pageopacity="0.0"
     objecttolerance="10"
     guidetolerance="10"
     gridtolerance="10000"
     borderopacity="1.0"
     bordercolor="#666666"
     pagecolor="#ffffff"
     id="base">
    <inkscape:grid
       enabled="true"
       visible="true"
       id="grid2383"
       type="xygrid" />
    <sodipodi:guide
       id="guide2469"
       position="0,533.08594"
       orientation="1,0" />
    <sodipodi:guide
       id="guide2471"
       position="800,-0.234375"
       orientation="1,0" />
    <sodipodi:guide
       id="guide2473"
       position="800.58203,0"
       orientation="0,1" />
    <sodipodi:guide
       id="guide2547"
       position="400,277.33594"
       orientation="1,0" />
    <sodipodi:guide
       id="guide3732"
       position="-0.44140625,533.32812"
       orientation="0,1" />
    <sodipodi:guide
       id="guide3734"
       position="-239.44531,266.67188"
       orientation="0,1" />
  </sodipodi:namedview>
  <metadata
     id="metadata7">
    <rdf:RDF>
      <cc:Work
         rdf:about="">
        <dc:format>image/svg+xml</dc:format>
        <dc:type
           rdf:resource="http://purl.org/dc/dcmitype/StillImage" />
      </cc:Work>
    </rdf:RDF>
  </metadata>
  <g
     id="layer1"
     inkscape:groupmode="layer"
     inkscape:label="Layer 1">
    <rect
       style="opacity:1;fill:#ffffff;fill-opacity:1;stroke:none;stroke-width:6;stroke-linecap:round;stroke-linejoin:round;stroke-miterlimit:4;stroke-dasharray:none;stroke-dashoffset:0;stroke-opacity:1"
       id="rect3662"
       width="800"
       height="533.32812"
       x="0"
       y="0.0018970899" />
    <g
       id="g3648"
       transform="translate(0,112.48529)">
      <path
         id="path3627"
         d="M 400,-27.0625 C 395.67924,-21.536454 390.89471,-11.579629 389.625,-1.6874999 C 382.3996,-6.2953189 373.6498,-8.9430899 367.6875,-9.4687499 C 368.36303,-5.1640469 370.24885,0.55234705 373.1875,6.0000001 C 367.73317,6.3821481 362.56318,7.7164521 359.0625,9.2812501 C 363.40494,14.783323 373.07791,22.228629 382.5625,23.625 C 386.04668,24.13996 388.85253,23.257542 391.03125,21.9375 C 394.47351,22.313405 397.60774,21.409974 399.8125,20.53125 C 399.8595,20.385303 399.89124,20.215965 399.9375,20.0625 C 399.95747,20.07196 399.98013,20.084396 400,20.09375 C 400.01987,20.084396 400.04253,20.07196 400.0625,20.0625 C 400.10876,20.215965 400.1405,20.385303 400.1875,20.53125 C 402.39226,21.409974 405.5265,22.313405 408.96875,21.9375 C 411.14747,23.257542 413.95332,24.13996 417.4375,23.625 C 426.92209,22.228629 436.59506,14.783323 440.9375,9.2812501 C 437.43682,7.7164521 432.26683,6.3821481 426.8125,6.0000001 C 429.75115,0.55234705 431.63696,-5.1640469 432.3125,-9.4687499 C 426.3502,-8.9430899 417.6004,-6.2953189 410.375,-1.6874999 C 409.10529,-11.579629 404.32076,-21.536455 400,-27.0625 z"
         style="fill:#ffffff;fill-rule:evenodd;stroke:#c70f2e;stroke-width:6;stroke-linecap:butt;stroke-linejoin:miter;stroke-miterlimit:4;stroke-dasharray:none;stroke-dashoffset:0;stroke-opacity:1" />
      <g
         transform="translate(5e-6,-63.247451)"
         id="g3638">
        <path
           id="path3415"
           style="fill:#ffffff;fill-rule:evenodd;stroke:#c70f2e;stroke-width:1.99999976;stroke-linecap:butt;stroke-linejoin:miter;stroke-miterlimit:4;stroke-dasharray:none;stroke-dashoffset:0;stroke-opacity:1"
           d="M 404.72133,81.421074 C 405.39567,78.086122 407.27622,72.849797 413.43066,70.714956 C 422.48245,67.569387 434.52854,69.6794 440.94167,72.546055 C 436.59924,78.048128 426.91479,85.482743 417.4302,86.879114 C 410.98329,87.831966 406.8746,84.063177 404.72133,81.421074 z"
           sodipodi:nodetypes="ccccc" />
        <path
           sodipodi:nodetypes="ccccc"
           d="M 400.2028,83.796786 C 398.96835,79.96342 397.87491,73.471842 402.9683,67.726027 C 410.4562,59.269355 424.06053,54.519987 432.31096,53.792597 C 431.02693,61.974887 425.36785,75.226652 416.42386,82.125131 C 410.34655,86.818024 403.94385,85.287808 400.2028,83.796786 z"
           style="fill:#ffffff;fill-rule:evenodd;stroke:#c70f2e;stroke-width:1.99999988;stroke-linecap:butt;stroke-linejoin:miter;stroke-miterlimit:4;stroke-dasharray:none;stroke-dashoffset:0;stroke-opacity:1"
           id="path3409" />
        <path
           sodipodi:nodetypes="ccccc"
           d="M 395.27867,81.421074 C 394.60432,78.086122 392.72378,72.849797 386.56933,70.714956 C 377.51755,67.569387 365.47145,69.6794 359.05832,72.546055 C 363.40076,78.048128 373.08521,85.482743 382.5698,86.879114 C 389.01671,87.831966 393.1254,84.063177 395.27867,81.421074 z"
           style="fill:#ffffff;fill-rule:evenodd;stroke:#c70f2e;stroke-width:1.99999976;stroke-linecap:butt;stroke-linejoin:miter;stroke-miterlimit:4;stroke-dasharray:none;stroke-dashoffset:0;stroke-opacity:1"
           id="path3439" />
        <path
           id="path3445"
           style="fill:#ffffff;fill-rule:evenodd;stroke:#c70f2e;stroke-width:1.99999988;stroke-linecap:butt;stroke-linejoin:miter;stroke-miterlimit:4;stroke-dasharray:none;stroke-dashoffset:0;stroke-opacity:1"
           d="M 399.7972,83.796786 C 401.03165,79.96342 402.12508,73.471842 397.0317,67.726027 C 389.54379,59.269355 375.93946,54.519987 367.68903,53.792597 C 368.97306,61.974887 374.63214,75.226652 383.57613,82.125131 C 389.65344,86.818024 396.05615,85.287808 399.7972,83.796786 z"
           sodipodi:nodetypes="ccccc" />
        <path
           id="path3325"
           style="fill:#ffffff;fill-rule:evenodd;stroke:#c70f2e;stroke-width:1.99999988;stroke-linecap:butt;stroke-linejoin:miter;stroke-miterlimit:4;stroke-dasharray:none;stroke-dashoffset:0;stroke-opacity:1"
           d="M 400,83.340503 C 396.08947,81.499517 390.19781,77.600092 389.42448,69.3957 C 388.28006,57.327189 394.5247,43.179045 400,36.176405 C 405.47529,43.179045 411.71994,57.327189 410.57551,69.3957 C 409.80219,77.600092 403.91052,81.499517 400,83.340503 z"
           sodipodi:nodetypes="ccccc" />
        <path
           style="fill:#c70f2e;fill-opacity:1;fill-rule:evenodd;stroke:#c70f2e;stroke-width:0.75;stroke-linecap:butt;stroke-linejoin:miter;stroke-miterlimit:4;stroke-dasharray:none;stroke-opacity:1"
           d="M 400,39.193979 C 399.9413,41.104543 399.88419,43.018679 399.82945,44.931426 L 396.646,43.46948 C 397.65009,44.815717 398.7229,45.360525 399.80509,45.81411 C 399.76403,47.279566 399.72647,48.742867 399.6914,50.209141 C 397.72201,50.112134 396.16206,49.846579 393.81987,49.510349 C 395.47412,50.524651 397.64302,50.940513 399.67515,51.073436 C 399.64115,52.558049 399.60225,54.038607 399.5777,55.523635 C 396.86635,55.290042 394.34654,55.506435 391.79773,55.753501 C 394.34652,56.101181 397.03009,56.2849 399.56146,56.535044 C 399.5403,57.962559 399.53015,59.392236 399.52086,60.81974 C 396.71106,60.624204 393.99561,60.996662 391.36731,61.840343 C 394.08169,61.678877 396.79836,61.643154 399.51273,61.821954 C 399.50706,63.136096 399.50584,64.452636 399.51273,65.766449 C 394.52848,65.659204 392.66989,66.48495 391.15616,67.522623 C 393.85297,66.76737 396.64179,66.457005 399.52086,66.575576 C 399.53088,67.931574 399.55176,69.284274 399.5777,70.639601 C 395.46378,70.588683 393.27843,71.399094 391.58658,73.094566 C 393.82091,72.075789 396.43433,71.375825 399.59395,71.411949 C 399.61811,72.533142 399.6466,73.656654 399.68328,74.777183 C 397.75288,74.751362 395.83996,74.794958 393.84423,77.232148 C 395.46648,76.119481 397.34724,75.432762 399.70764,75.558726 C 399.73868,76.433329 399.77372,77.3051 399.81321,78.179194 C 398.38701,78.251131 397.17359,78.740553 396.75157,80.01812 C 397.56494,79.119471 398.65411,78.869957 399.84569,78.877986 C 399.89223,79.849974 399.94207,80.821443 400,81.792682 C 400.08299,80.820126 400.15722,79.851926 400.21926,78.877986 C 401.38516,78.879423 402.44995,79.135922 403.24842,80.01812 C 402.8329,78.760246 401.64921,78.271963 400.25175,78.188389 C 400.30359,77.309009 400.35292,76.429856 400.38981,75.549531 C 402.70479,75.447172 404.55576,76.134748 406.15576,77.232148 C 404.19365,74.836008 402.31142,74.745606 400.41417,74.767988 C 400.45574,73.651023 400.49039,72.530117 400.51163,71.411949 C 403.62395,71.392492 406.20399,72.087146 408.41342,73.094566 C 406.73606,71.413632 404.57372,70.603859 400.52787,70.639601 C 400.54849,69.284405 400.555,67.931985 400.55223,66.575576 C 403.40539,66.465317 406.16988,66.773768 408.84384,67.522623 C 407.33667,66.489449 405.48786,65.667698 400.55223,65.766449 C 400.5457,64.451873 400.52551,63.137112 400.5035,61.821954 C 403.21249,61.644372 405.92369,61.679197 408.63269,61.840343 C 406.00939,60.998268 403.29946,60.626768 400.49538,60.81974 C 400.46823,59.396409 400.42699,57.967559 400.38981,56.544239 C 402.93542,56.291632 405.63713,56.103411 408.20227,55.753501 C 405.63546,55.50469 403.09879,55.291124 400.36544,55.532829 C 400.32517,54.046222 400.27746,52.559235 400.2355,51.073436 C 402.29307,50.946976 404.50176,50.539433 406.18012,49.510349 C 403.79893,49.852178 402.2278,50.125781 400.21115,50.218335 C 400.17054,48.760968 400.13902,47.306729 400.10557,45.850889 C 401.2178,45.389709 402.32241,44.85257 403.35399,43.46948 L 400.08121,44.977399 C 400.03989,43.046692 400.0113,41.120505 400,39.193979 z"
           id="path3346" />
        <path
           style="fill:#c70f2e;fill-opacity:1;fill-rule:evenodd;stroke:#c70f2e;stroke-width:0.75;stroke-linecap:butt;stroke-linejoin:miter;stroke-miterlimit:4;stroke-dasharray:none;stroke-opacity:1"
           d="M 369.75,55.82803 C 371.05435,57.061311 372.3369,58.290404 373.625,59.54678 L 370.53125,60.82803 C 372.12908,61.005628 373.19721,60.604322 374.21875,60.14053 C 375.18856,61.089457 376.15869,62.029513 377.125,62.98428 C 375.77907,64.298288 374.59129,65.174432 372.84375,66.57803 C 374.61204,66.090113 376.29247,64.867072 377.6875,63.54678 C 378.67231,64.520548 379.63856,65.479882 380.625,66.45303 C 378.72159,68.16006 377.27602,70.047321 375.8125,71.95303 C 377.68257,70.429347 379.52109,68.681567 381.3125,67.10928 C 382.25781,68.040055 383.20453,68.997826 384.15625,69.92178 C 382.24102,71.707967 380.75182,73.787704 379.65625,76.10928 C 381.26991,74.16255 382.96824,72.278021 384.8125,70.54678 C 385.69383,71.398417 386.57797,72.268542 387.46875,73.10928 C 384.26164,76.406519 383.66169,78.175972 383.40625,79.85928 C 384.59754,77.562518 386.14109,75.481495 388.03125,73.60928 C 388.12294,73.695316 388.22074,73.773418 388.3125,73.85928 C 388.29553,73.805225 388.26639,73.757375 388.25,73.70303 C 388.13718,73.212429 388.05914,72.726431 387.96875,72.23428 C 387.13698,71.450062 386.30737,70.667426 385.46875,69.89053 C 386.10324,69.115091 386.76082,68.377104 387.4375,67.64053 C 387.42027,67.297966 387.41388,66.951884 387.40625,66.60928 C 386.4621,67.40196 385.58001,68.281925 384.78125,69.26553 C 383.80352,68.363731 382.79779,67.440512 381.8125,66.54678 C 383.25258,64.664356 384.86524,62.721867 386.25,60.76553 C 384.46033,62.343522 382.69084,63.927353 381.125,65.92178 C 380.09841,64.993768 379.06356,64.093092 378.03125,63.17178 C 379.23353,61.703788 380.32565,59.943213 380.6875,58.17178 C 379.42637,59.980186 378.6243,61.206856 377.4375,62.60928 C 376.41698,61.700366 375.39876,60.794852 374.375,59.89053 C 374.75466,58.86525 375.05896,57.805522 374.78125,56.26553 L 373.75,59.35928 C 372.41302,58.179719 371.08801,57.003505 369.75,55.82803 z M 430.25,55.82803 C 428.91198,57.003505 427.58698,58.179719 426.25,59.35928 L 425.21875,56.26553 C 424.94104,57.805522 425.24535,58.86525 425.625,59.89053 C 424.60124,60.794852 423.58302,61.700366 422.5625,62.60928 C 421.37569,61.206856 420.57363,59.980186 419.3125,58.17178 C 419.67437,59.943213 420.76647,61.703788 421.96875,63.17178 C 420.93644,64.093092 419.90159,64.993768 418.875,65.92178 C 417.30915,63.927353 415.53967,62.343522 413.75,60.76553 C 415.13476,62.721867 416.74742,64.664356 418.1875,66.54678 C 417.20221,67.440512 416.19648,68.363731 415.21875,69.26553 C 414.49635,68.375953 413.71687,67.560855 412.875,66.82803 C 412.87704,67.195153 412.86198,67.556815 412.84375,67.92178 C 413.4266,68.565193 413.98056,69.217512 414.53125,69.89053 C 413.75749,70.60735 412.987,71.323686 412.21875,72.04678 C 412.04768,72.694241 411.82696,73.327285 411.59375,73.95303 C 411.71786,73.837019 411.84477,73.725609 411.96875,73.60928 C 413.8589,75.481495 415.40247,77.562518 416.59375,79.85928 C 416.3383,78.175972 415.73836,76.406519 412.53125,73.10928 C 413.42202,72.268542 414.30617,71.398417 415.1875,70.54678 C 417.03175,72.278021 418.73009,74.16255 420.34375,76.10928 C 419.24817,73.787704 417.75899,71.707967 415.84375,69.92178 C 416.79546,68.997826 417.74218,68.040055 418.6875,67.10928 C 420.4789,68.681567 422.31743,70.429347 424.1875,71.95303 C 422.72398,70.047321 421.27841,68.16006 419.375,66.45303 C 420.36143,65.479882 421.32769,64.520548 422.3125,63.54678 C 423.70756,64.867072 425.38796,66.090113 427.15625,66.57803 C 425.40871,65.174432 424.22094,64.298288 422.875,62.98428 C 423.84131,62.029513 424.81143,61.089457 425.78125,60.14053 C 426.80279,60.604322 427.87092,61.005628 429.46875,60.82803 L 426.375,59.54678 C 427.6631,58.290404 428.94566,57.061311 430.25,55.82803 z M 410.0625,77.17178 C 409.93173,77.394052 409.79535,77.610883 409.65625,77.82803 C 411.04715,79.571643 411.94353,81.357695 412.53125,83.10928 C 412.59887,81.174435 411.95979,79.412323 410.0625,77.17178 z M 389.84375,77.29678 C 388.02801,79.4785 387.40238,81.210391 387.46875,83.10928 C 388.04681,81.3865 388.92948,79.638106 390.28125,77.92178 C 390.14104,77.71197 389.97448,77.512804 389.84375,77.29678 z M 392.3125,80.45303 C 391.78265,81.377748 391.49445,82.528006 391.71875,84.20303 C 391.88798,83.085926 392.23554,82.007554 392.84375,80.98428 C 392.66691,80.813419 392.48273,80.629919 392.3125,80.45303 z M 407.65625,80.45303 C 407.49317,80.634338 407.32604,80.808894 407.15625,80.98428 C 407.16092,80.992136 407.15161,81.007667 407.15625,81.01553 C 407.75572,82.031841 408.11332,83.094503 408.28125,84.20303 C 408.50656,82.520457 408.19059,81.379852 407.65625,80.45303 z M 395.21875,82.98428 C 395.22447,83.324485 395.28394,83.677408 395.46875,84.01553 C 395.4456,83.739329 395.45432,83.454065 395.5,83.20303 C 395.40206,83.134277 395.31563,83.054488 395.21875,82.98428 z M 404.78125,83.07803 C 404.68554,83.149441 404.59713,83.227056 404.5,83.29678 C 404.53395,83.521402 404.55175,83.771011 404.53125,84.01553 C 404.70028,83.706272 404.76334,83.389347 404.78125,83.07803 z"
           id="path3588" />
        <path
           id="path3617"
           style="fill:#c70f2e;fill-opacity:1;fill-rule:evenodd;stroke:#c70f2e;stroke-width:0.75;stroke-linecap:butt;stroke-linejoin:miter;stroke-miterlimit:4;stroke-dasharray:none;stroke-opacity:1"
           d="M 429.53125,70.319751 C 429.06511,71.774829 429.15532,73.522976 429.4375,75.101001 C 428.29095,75.35438 427.14509,75.590319 426,75.851001 C 425.94053,75.473438 425.85883,75.121507 425.78125,74.757251 C 425.57582,75.059801 425.36766,75.365247 425.15625,75.663501 C 425.17457,75.787052 425.20099,75.915705 425.21875,76.038501 C 425.08275,76.069705 424.94849,76.100793 424.8125,76.132251 C 424.60217,76.422374 424.40346,76.72146 424.1875,77.007251 C 424.58609,76.898381 424.97709,76.772041 425.375,76.663501 C 426.05035,78.561385 426.71498,80.61275 427.46875,82.507251 C 427.17446,80.498807 426.85872,78.519413 426.15625,76.476001 C 427.2903,76.165482 428.39815,75.850144 429.53125,75.538501 C 430.01744,77.087152 430.76733,78.699504 431.875,79.788501 C 431.16222,78.033057 430.63992,76.874763 430.1875,75.351001 C 431.29902,75.045735 432.41954,74.744264 433.53125,74.444751 C 434.09573,75.207963 434.71152,75.947899 435.96875,76.476001 L 434.1875,74.257251 C 435.6624,73.86237 437.14763,73.472155 438.625,73.101001 C 437.14667,73.415658 435.66677,73.751655 434.1875,74.069751 L 434.71875,71.351001 C 433.87475,72.37168 433.6437,73.313614 433.5,74.226001 C 432.36683,74.470383 431.22642,74.695645 430.09375,74.944751 C 429.79583,73.421441 429.71593,72.172985 429.53125,70.319751 z M 422.53125,79.101001 C 422.34515,79.34868 422.13463,79.580876 421.9375,79.819751 C 422.30129,81.191548 422.61661,82.578909 422.875,83.976001 C 422.98936,82.333652 422.88455,80.712376 422.53125,79.101001 z M 419,82.757251 C 418.83723,82.889399 418.66652,83.005065 418.5,83.132251 C 418.54891,83.82237 418.55328,84.501963 418.53125,85.194751 C 418.78548,84.521638 418.99222,83.786583 419,82.757251 z M 414.34375,85.632251 C 414.3012,85.651219 414.26142,85.676081 414.21875,85.694751 C 414.20611,85.766967 414.20106,85.841939 414.1875,85.913501 C 414.24585,85.817732 414.29092,85.729736 414.34375,85.632251 z M 370.46875,70.319751 C 370.93489,71.774829 370.84468,73.522976 370.5625,75.101001 C 371.70905,75.35438 372.85491,75.590319 374,75.851001 C 374.05947,75.473438 374.14117,75.121507 374.21875,74.757251 C 374.42418,75.059801 374.63234,75.365247 374.84375,75.663501 C 374.82543,75.787052 374.79901,75.915705 374.78125,76.038501 C 374.91725,76.069705 375.05151,76.100793 375.1875,76.132251 C 375.39783,76.422374 375.59654,76.72146 375.8125,77.007251 C 375.41391,76.898381 375.02291,76.772041 374.625,76.663501 C 373.94965,78.561385 373.28502,80.61275 372.53125,82.507251 C 372.82554,80.498807 373.14128,78.519413 373.84375,76.476001 C 372.7097,76.165482 371.60185,75.850144 370.46875,75.538501 C 369.98256,77.087152 369.23267,78.699504 368.125,79.788501 C 368.83778,78.033057 369.36008,76.874763 369.8125,75.351001 C 368.70098,75.045735 367.58046,74.744264 366.46875,74.444751 C 365.90427,75.207963 365.28848,75.947899 364.03125,76.476001 L 365.8125,74.257251 C 364.3376,73.86237 362.85237,73.472155 361.375,73.101001 C 362.85333,73.415658 364.33323,73.751655 365.8125,74.069751 L 365.28125,71.351001 C 366.12525,72.37168 366.3563,73.313614 366.5,74.226001 C 367.63317,74.470383 368.77358,74.695645 369.90625,74.944751 C 370.20417,73.421441 370.28407,72.172985 370.46875,70.319751 z M 377.46875,79.101001 C 377.65485,79.34868 377.86537,79.580876 378.0625,79.819751 C 377.69871,81.191548 377.38339,82.578909 377.125,83.976001 C 377.01064,82.333652 377.11545,80.712376 377.46875,79.101001 z M 381,82.757251 C 381.16277,82.889399 381.33348,83.005065 381.5,83.132251 C 381.45109,83.82237 381.44672,84.501963 381.46875,85.194751 C 381.21452,84.521638 381.00778,83.786583 381,82.757251 z M 385.65625,85.632251 C 385.6988,85.651219 385.73858,85.676081 385.78125,85.694751 C 385.79389,85.766967 385.79894,85.841939 385.8125,85.913501 C 385.75415,85.817732 385.70908,85.729736 385.65625,85.632251 z" />
      </g>
    </g>
    <path
       style="fill:#002673;fill-opacity:1;fill-rule:evenodd;stroke:none;stroke-width:0.49999997;stroke-linecap:butt;stroke-linejoin:miter;stroke-miterlimit:4;stroke-opacity:1"
       d="M 80.21875,240.11029 C 66.714734,240.11029 53.486209,243.37117 40.25,246.64154 C 27.01379,249.9119 13.50396,253.17279 0,253.17279 L 0,297.67279 C 13.50396,297.67279 27.013789,294.41191 40.25,291.14154 C 53.48621,287.87117 66.714735,284.6103 80.21875,284.61029 C 93.722765,284.61029 106.95129,287.87118 120.1875,291.14154 C 133.42371,294.4119 146.65228,297.67279 160.15625,297.67279 C 173.66022,297.67279 186.88879,294.41191 200.125,291.14154 C 213.36121,287.87117 226.58974,284.6103 240.09375,284.61029 C 246.8355,284.61029 253.51544,285.41825 260.15625,286.64154 C 259.84764,282.8461 259.6875,279.01602 259.6875,275.14154 C 259.6875,264.01534 260.98586,253.17892 263.4375,242.79779 C 255.71713,241.23008 247.94336,240.11029 240.09375,240.11029 C 226.58974,240.11029 213.36121,243.37117 200.125,246.64154 C 186.88879,249.9119 173.66022,253.17279 160.15625,253.17279 C 146.65228,253.17279 133.42371,249.9119 120.1875,246.64154 C 106.95129,243.37117 93.722766,240.11029 80.21875,240.11029 z M 559.90625,240.11029 C 546.40223,240.11029 533.14249,243.37117 519.90625,246.64154 C 512.3779,248.50162 504.85801,250.35194 497.28125,251.61029 C 499.10185,259.15236 500.0625,267.04062 500.0625,275.14154 C 500.0625,282.29974 499.30655,289.28247 497.875,296.01654 C 505.25191,294.76084 512.57404,292.95317 519.90625,291.14154 C 533.14246,287.87117 546.40223,284.6103 559.90625,284.61029 C 573.41027,284.61029 586.63877,287.87118 599.875,291.14154 C 613.11121,294.4119 626.33977,297.67279 639.84375,297.67279 C 653.34773,297.67279 666.5763,294.41191 679.8125,291.14154 C 693.04871,287.87117 706.27722,284.6103 719.78125,284.61029 C 733.28527,284.61029 746.51382,287.87118 759.75,291.14154 C 772.98621,294.4119 786.49603,297.67279 800,297.67279 L 800,253.17279 C 786.49603,253.17279 772.98624,249.9119 759.75,246.64154 C 746.51379,243.37117 733.28526,240.11029 719.78125,240.11029 C 706.27723,240.11029 693.04872,243.37117 679.8125,246.64154 C 666.57629,249.9119 653.34772,253.17279 639.84375,253.17279 C 626.33978,253.17279 613.11119,249.9119 599.875,246.64154 C 586.63879,243.37117 573.41027,240.11029 559.90625,240.11029 z"
       id="path3190" />
    <path
       style="fill:#002673;fill-opacity:1;fill-rule:evenodd;stroke:none;stroke-width:0.49999997;stroke-linecap:butt;stroke-linejoin:miter;stroke-miterlimit:4;stroke-opacity:1"
       d="M 80.21875,329.11029 C 66.714734,329.11029 53.486209,332.37118 40.25,335.64154 C 27.01379,338.9119 13.50396,342.17279 0,342.17279 L 0,386.67279 C 13.50396,386.67279 27.013789,383.41191 40.25,380.14154 C 53.48621,376.87117 66.714735,373.6103 80.21875,373.61029 C 93.722765,373.61029 106.95129,376.87118 120.1875,380.14154 C 133.42371,383.4119 146.65228,386.67279 160.15625,386.67279 C 173.66022,386.67279 186.88879,383.41191 200.125,380.14154 C 213.36121,376.87117 226.58974,373.6103 240.09375,373.61029 C 253.59776,373.61029 266.85753,376.87118 280.09375,380.14154 C 291.58326,382.98033 303.05472,385.81674 314.71875,386.51654 C 296.71323,372.70247 282.13998,354.62644 272.53125,333.79779 C 261.80655,331.24559 251.02821,329.1103 240.09375,329.11029 C 226.58974,329.11029 213.36121,332.37118 200.125,335.64154 C 186.88879,338.9119 173.66022,342.17279 160.15625,342.17279 C 146.65228,342.17279 133.42371,338.91191 120.1875,335.64154 C 106.95129,332.37117 93.722766,329.1103 80.21875,329.11029 z M 559.90625,329.11029 C 546.40223,329.11029 533.14249,332.37118 519.90625,335.64154 C 506.67004,338.9119 493.44148,342.17279 479.9375,342.17279 C 478.09329,342.17279 476.2723,342.1302 474.4375,342.01654 L 485.40625,386.51654 C 497.0278,385.80417 508.45739,382.9703 519.90625,380.14154 C 533.14246,376.87117 546.40223,373.6103 559.90625,373.61029 C 573.41027,373.61029 586.63877,376.87118 599.875,380.14154 C 613.11121,383.4119 626.33977,386.67279 639.84375,386.67279 C 653.34773,386.67279 666.5763,383.41191 679.8125,380.14154 C 693.04871,376.87117 706.27722,373.6103 719.78125,373.61029 C 733.28527,373.61029 746.51382,376.87118 759.75,380.14154 C 772.98621,383.4119 786.49603,386.67279 800,386.67279 L 800,342.17279 C 786.49603,342.17279 772.98624,338.91191 759.75,335.64154 C 746.51379,332.37117 733.28526,329.1103 719.78125,329.11029 C 706.27723,329.11029 693.04872,332.37118 679.8125,335.64154 C 666.57629,338.9119 653.34772,342.17279 639.84375,342.17279 C 626.33978,342.17279 613.11119,338.91191 599.875,335.64154 C 586.63879,332.37117 573.41027,329.1103 559.90625,329.11029 z"
       id="path3192" />
    <path
       style="fill:#002673;fill-opacity:1;fill-rule:evenodd;stroke:none;stroke-width:0.49999997;stroke-linecap:butt;stroke-linejoin:miter;stroke-miterlimit:4;stroke-opacity:1"
       d="M 80.21875,151.11029 C 66.714734,151.11029 53.486209,154.37117 40.25,157.64154 C 27.01379,160.9119 13.50396,164.17279 0,164.17279 L 0,208.67279 C 13.50396,208.67279 27.013789,205.4119 40.25,202.14154 C 53.48621,198.87117 66.714735,195.61029 80.21875,195.61029 C 93.722765,195.61029 106.95129,198.87117 120.1875,202.14154 C 133.42371,205.4119 146.65228,208.67279 160.15625,208.67279 C 173.66022,208.67279 186.88879,205.4119 200.125,202.14154 C 213.36121,198.87117 226.58974,195.61029 240.09375,195.61029 C 253.59776,195.61029 266.85753,198.87117 280.09375,202.14154 C 280.11349,202.14642 280.13651,202.13666 280.15625,202.14154 C 289.14091,187.43002 300.78187,174.51075 314.375,164.01654 C 302.82778,163.28255 291.47153,160.45272 280.09375,157.64154 C 266.85754,154.37117 253.59776,151.11029 240.09375,151.11029 C 226.58974,151.11029 213.36121,154.37117 200.125,157.64154 C 186.88879,160.9119 173.66022,164.17279 160.15625,164.17279 C 146.65228,164.17279 133.42371,160.9119 120.1875,157.64154 C 106.95129,154.37117 93.722766,151.11029 80.21875,151.11029 z M 559.90625,151.11029 C 546.40223,151.11029 533.14249,154.37117 519.90625,157.64154 C 508.48784,160.46276 497.08969,163.29484 485.5,164.01654 L 474.53125,208.42279 C 474.5607,208.45565 474.5956,208.48364 474.625,208.51654 C 476.39823,208.62293 478.15547,208.67279 479.9375,208.67279 C 493.44147,208.67279 506.67007,205.4119 519.90625,202.14154 C 533.14246,198.87117 546.40223,195.61029 559.90625,195.61029 C 573.41027,195.61029 586.63877,198.87117 599.875,202.14154 C 613.11121,205.4119 626.33977,208.67279 639.84375,208.67279 C 653.34773,208.67279 666.5763,205.4119 679.8125,202.14154 C 693.04871,198.87117 706.27722,195.61029 719.78125,195.61029 C 733.28527,195.61029 746.51382,198.87117 759.75,202.14154 C 772.98621,205.4119 786.49603,208.67279 800,208.67279 L 800,164.17279 C 786.49603,164.17279 772.98624,160.9119 759.75,157.64154 C 746.51379,154.37117 733.28526,151.11029 719.78125,151.11029 C 706.27723,151.11029 693.04872,154.37117 679.8125,157.64154 C 666.57629,160.9119 653.34772,164.17279 639.84375,164.17279 C 626.33978,164.17279 613.11119,160.9119 599.875,157.64154 C 586.63879,154.37117 573.41027,151.11029 559.90625,151.11029 z"
       id="path3209" />
    <path
       style="fill:#c70f2e;fill-opacity:1;stroke:none;stroke-width:0.5042038;stroke-linecap:round;stroke-linejoin:miter;stroke-miterlimit:4;stroke-opacity:1"
       d="M 400,134.82904 C 322.5495,134.82904 259.68751,197.69415 259.6875,275.14154 C 259.6875,352.58894 322.54949,415.45404 400,415.45404 C 432.20147,415.45404 461.7257,404.76884 485.41406,386.50483 L 474.44922,342.00482 C 456.12155,362.49173 429.62742,375.20404 400,375.20404 C 344.76986,375.20405 299.9375,330.36949 299.9375,275.14154 C 299.9375,219.91359 344.76985,175.07904 400,175.07904 C 429.62743,175.07904 456.18405,188.02182 474.51172,208.50873 L 485.48828,164.00482 C 461.79991,145.74081 432.20147,134.82904 400,134.82904 z"
       id="path2417"
       sodipodi:nodetypes="cssccsssccc" />
    <g
       id="g3934"
       transform="matrix(0.5980287,0.6310928,-0.6310928,0.5980287,430.77026,-441.48344)"
       inkscape:transform-center-x="55.547065"
       inkscape:transform-center-y="-58.500682">
      <path
         sodipodi:nodetypes="ccccc"
         d="M 532.35582,653.97331 L 644.22889,652.91252 C 647.77783,652.87887 653.3917,651.90735 656.06082,650.31113 C 653.3917,648.71491 647.77783,647.74339 644.22889,647.70974 L 532.35582,646.64895 L 532.35582,653.97331 z"
         style="fill:#ffffff;fill-rule:evenodd;stroke:#002673;stroke-width:1.72525918;stroke-linecap:butt;stroke-linejoin:miter;stroke-miterlimit:4;stroke-dasharray:none;stroke-opacity:1"
         id="path3926" />
      <path
         id="path3932"
         style="fill:#002673;fill-opacity:1;fill-rule:evenodd;stroke:none;stroke-width:1.00000012px;stroke-linecap:butt;stroke-linejoin:miter;stroke-opacity:1"
         d="M 532.3558,649.81111 L 625.00893,649.95593 L 634.80811,650.3111 L 625.00893,650.66627 L 532.3558,650.8111 L 532.3558,649.81111 z"
         sodipodi:nodetypes="cccccc" />
      <path
         id="path3894"
         d="M 525.4375,631.5625 C 522.81326,631.63407 520.58805,633.356 520.125,635.3125 C 519.66697,637.24771 520.54282,638.55259 522.28125,639.25 C 523.80007,639.85934 526.40468,638.25671 526.375,636 C 527.26401,636.93628 527.33397,637.40451 527.625,638.34375 C 528.29198,640.49626 528.42375,643.36773 528.34375,646.1875 C 525.02649,644.83908 522.35572,645.49159 522.09375,646.59375 C 517.74953,644.87434 515.44605,646.03544 515.3125,646.9375 C 511.91286,645.31571 509.06376,645.9685 508.65625,647.21875 C 506.6515,645.65079 502.84454,646.03298 502.8125,647.375 C 501.2775,646.40595 500.06699,646.25813 499.125,646.53125 C 498.23239,645.74341 497.06451,645.24999 495.78125,645.25 C 492.98657,645.25 490.71875,647.51781 490.71875,650.3125 C 490.71875,653.10718 492.98659,655.37501 495.78125,655.375 C 497.4035,655.375 498.82324,654.59412 499.75,653.40625 C 501.80727,655.29763 505.51596,654.9221 505.75,653.6875 C 508.45209,655.71774 512.14612,654.87406 512.8125,654.03125 C 515.71907,655.43835 518.87696,655.90131 519.3125,654.3125 C 523.7814,656.58345 524.64614,655.56346 525.875,654.625 C 526.70552,655.05782 527.32094,655.27042 527.84375,655.40625 C 527.76586,660.01902 528.40141,664.24196 531.5,667.125 C 535.62956,670.96732 540.91537,668.4429 541.65625,665.3125 C 542.11428,663.3773 541.23843,662.04116 539.5,661.34375 C 537.98118,660.73441 535.37657,662.36829 535.40625,664.625 C 534.51724,663.68873 534.41603,663.22049 534.125,662.28125 C 533.12082,659.04044 533.37051,654.15885 533.65625,650.3125 C 534.14144,643.78113 534.49702,637.42251 530.28125,633.5 C 528.73266,632.05913 527.01204,631.51956 525.4375,631.5625 z"
         style="fill:#002673;fill-opacity:1;fill-rule:evenodd;stroke:none;stroke-width:1px;stroke-linecap:butt;stroke-linejoin:miter;stroke-opacity:1" />
    </g>
    <path
       style="fill:#002673;fill-opacity:1;stroke:none;stroke-width:0.25;stroke-linecap:round;stroke-linejoin:miter;stroke-miterlimit:4;stroke-dasharray:none;stroke-opacity:1"
       d="M 485.06445,261.79194 C 483.9386,260.60427 482.03946,260.55349 480.85181,261.67935 C 480.20172,262.29558 479.90587,263.13965 479.9437,263.96992 C 478.2818,263.29203 476.28028,263.5933 474.89372,264.90769 C 473.7328,266.00817 473.30199,267.55886 473.52261,269.03024 L 471.21193,268.87437 L 470.94365,272.57472 C 470.13778,272.49471 469.29818,272.74146 468.66476,273.34189 C 467.84203,274.12178 467.59726,275.27491 467.90832,276.29519 L 467.41411,275.77386 C 466.84894,275.17765 466.42016,275.27969 466.121,275.56992 L 458.54682,282.93307 C 457.20452,281.60623 456.42464,280.04201 456.68825,278.53601 C 457.12901,276.01787 458.80485,274.26626 461.73114,274.34222 C 466.73551,274.47211 466.46512,268.26227 465.75781,264.51295 C 465.10511,261.05316 465.58399,258.39546 466.28088,256.20856 C 466.61396,255.16331 463.75856,255.45671 463.40018,256.95963 C 463.02143,255.97128 460.60496,257.09534 460.38554,258.49757 C 459.65366,257.93741 457.60672,259.05672 457.61811,260.64435 C 456.38308,260.53911 455.00609,261.86934 455.23907,263.04617 C 453.42535,263.67655 452.76591,264.71562 453.16216,266.11476 C 451.75161,266.59447 451.00385,267.71771 451.52956,269.45871 C 449.71348,270.34758 449.83214,271.85809 450.37084,273.3799 C 448.97965,274.07783 449.00478,275.96136 449.80489,277.65571 C 448.83865,278.25957 448.59827,279.43137 450.18449,282.46492 C 449.21365,283.09702 450.01646,286.00513 451.99702,289.28851 L 433.70027,307.03595 C 432.95703,304.06285 432.42381,300.41386 432.66752,297.09027 C 433.01537,292.34649 434.52417,288.61647 438.92542,286.86896 C 439.27979,288.30444 440.49209,289.90449 442.07589,290.81124 C 443.87256,291.83985 447.19087,291.51644 448.56721,289.46032 C 449.94356,287.40421 449.08035,285.61581 447.55099,283.82485 C 445.86758,281.85346 441.15048,280.77374 437.70404,281.86788 C 430.79705,284.06066 428.00045,290.69654 427.5582,296.72788 C 427.27047,300.65193 427.80713,304.5575 428.61572,307.85987 C 427.90326,307.67439 427.1529,307.50898 426.38831,307.40512 C 423.59652,307.02589 420.29521,307.38868 417.78081,309.77221 C 415.2501,312.17118 414.65466,315.54487 414.83947,318.42602 C 414.90384,319.42955 415.04559,320.39051 415.25203,321.29766 C 414.6534,321.19424 414.04891,321.115 413.41303,321.09795 C 410.95188,321.03199 408.195,321.75512 406.01942,323.81743 C 403.79273,325.92819 403.04579,328.74413 403.03601,331.228 C 403.03255,332.11168 403.12814,332.96027 403.26957,333.75609 C 402.74898,333.65621 402.21209,333.58352 401.65624,333.56242 C 399.56719,333.48314 397.22124,334.10051 395.36546,335.85969 C 393.47351,337.65314 392.84745,340.06005 392.84426,342.17224 C 392.84304,342.97778 392.92726,343.74178 393.06554,344.45536 C 392.58484,344.37058 392.07994,344.30876 391.56405,344.30231 C 389.77367,344.27993 387.78475,344.84206 386.18302,346.36042 C 384.56575,347.89348 383.93806,349.90026 383.87602,351.70006 C 383.85275,352.375 383.91352,353.01416 384.01282,353.62335 C 381.22077,352.76509 378.18941,352.93184 377.13472,356.77062 C 379.02569,354.72831 381.14319,354.86097 383.38931,355.82743 L 379.06106,360.04032 L 381.27582,362.3767 L 385.69559,358.26037 C 386.54914,360.56395 386.58563,362.68975 384.43794,364.47494 C 388.32756,363.62681 388.65602,360.6087 387.94813,357.77479 C 388.55113,357.90648 389.18615,358.0013 389.86135,358.01412 C 391.66191,358.0483 393.69933,357.52869 395.3166,355.99564 C 396.91835,354.4773 397.5859,352.52122 397.6592,350.73223 C 397.68033,350.21673 397.64556,349.70924 397.58658,349.2247 C 398.29213,349.40109 399.04965,349.52579 399.85461,349.56761 C 401.96394,349.67723 404.40089,349.18064 406.29283,347.38721 C 408.14861,345.62802 408.89042,343.31841 408.92284,341.22813 C 408.93147,340.67193 408.88755,340.13192 408.81562,339.60676 C 409.60274,339.79048 410.44502,339.93126 411.32763,339.97501 C 413.80848,340.09792 416.66029,339.50244 418.88699,337.3917 C 421.06256,335.32938 421.9319,332.61504 421.99751,330.1539 C 422.01446,329.51802 421.96762,328.91015 421.89632,328.30686 C 422.79113,328.56147 423.74316,328.75434 424.74182,328.87222 C 427.60896,329.21065 431.00967,328.79628 433.54039,326.39731 C 436.0548,324.01381 436.59343,320.73662 436.36387,317.92856 C 436.30049,317.15324 436.17766,316.40676 436.02875,315.68004 C 439.28321,316.66387 443.15455,317.40838 447.08835,317.33066 C 453.13472,317.2112 459.91049,314.77303 462.4691,307.99304 C 463.74576,304.60999 462.91953,299.84193 461.04089,298.05562 C 459.33418,296.43278 457.59442,295.47527 455.46774,296.73984 C 453.34105,298.00439 452.84085,301.30067 453.77203,303.14973 C 454.59288,304.77973 456.12588,306.07573 457.54038,306.50628 C 455.56029,310.80791 451.75498,312.1153 446.9994,312.20928 C 443.66754,312.27511 440.05225,311.54773 437.12309,310.64674 L 455.82251,293.3241 C 458.99543,295.47724 461.85651,296.43421 462.53956,295.49854 C 465.48403,297.24456 466.66702,297.0671 467.32162,296.13448 C 468.97082,297.02396 470.85033,297.14963 471.62155,295.79773 C 473.1124,296.41697 474.61446,296.61614 475.59904,294.85012 C 477.30947,295.46809 478.47104,294.78139 479.02541,293.39847 C 480.4014,293.86886 481.47423,293.26587 482.20057,291.48842 C 483.36325,291.78394 484.76515,290.48 484.72603,289.24108 C 486.3108,289.33727 487.53785,287.35305 487.01758,286.59226 C 488.42952,286.44807 489.69936,284.11437 488.73265,283.68339 C 490.25256,283.40583 490.67977,280.55085 489.61823,280.82761 C 487.39723,281.40671 484.71773,281.74297 481.29773,280.90635 C 477.59158,279.99977 471.40505,279.39809 471.26741,284.40225 C 471.18695,287.32843 469.34832,288.90827 466.81025,289.21392 C 465.29231,289.39671 463.77199,288.53439 462.51874,287.12315 L 470.27595,279.95309 C 470.58174,279.66983 470.70657,279.24713 470.14138,278.65091 L 469.66549,278.14888 C 470.66236,278.50834 471.81394,278.31184 472.63669,277.53196 C 473.26023,276.94088 473.54938,276.13156 473.52348,275.33491 L 477.23388,275.22706 L 477.20066,272.94896 C 478.66166,273.25272 480.22732,272.86607 481.39157,271.7624 C 482.77814,270.44802 483.1859,268.46547 482.59774,266.76974 C 483.4248,266.85183 484.28348,266.60152 484.93354,265.98527 C 486.12121,264.85943 486.19029,262.97959 485.06445,261.79194 z M 428.15556,312.40198 L 419.71248,320.5888 C 419.5081,319.79552 419.34225,318.96351 419.28884,318.13089 C 419.15548,316.05158 419.57503,314.23024 420.85586,313.01613 C 422.15298,311.78654 423.78585,311.5762 425.79901,311.84968 C 426.57895,311.95562 427.37447,312.16491 428.15556,312.40198 z M 431.45024,315.87762 C 431.64799,316.67744 431.82943,317.48762 431.89418,318.27959 C 432.05971,320.30448 431.76248,321.92381 430.46535,323.1534 C 429.18455,324.36752 427.34342,324.6892 425.27418,324.44497 C 424.43773,324.34623 423.61161,324.12104 422.82412,323.87134 L 431.45024,315.87762 z M 418.01918,328.31615 C 418.11397,328.88757 418.17655,329.46731 418.16098,330.05137 C 418.11604,331.73864 417.6074,333.32561 416.25123,334.61119 C 414.94615,335.84834 413.26367,336.2276 411.50541,336.14051 C 410.93295,336.11214 410.37648,336.01154 409.83716,335.8889 L 418.01918,328.31615 z M 414.99804,325.16777 L 407.03767,332.897 C 406.94769,332.36268 406.87233,331.8157 406.87454,331.25531 C 406.88146,329.49486 407.35008,327.83507 408.65516,326.59792 C 410.01135,325.31236 411.62322,324.88924 413.31049,324.93446 C 413.88207,324.94979 414.44364,325.04716 414.99804,325.16777 z M 402.84559,336.94414 L 396.14133,343.44602 C 396.0769,343.02881 396.0244,342.5952 396.02507,342.16316 C 396.02737,340.65234 396.44161,339.23873 397.56191,338.17678 C 398.71837,337.08053 400.08841,336.70366 401.53318,336.75851 C 401.97963,336.77545 402.41275,336.84731 402.84559,336.94414 z M 405.59117,339.84051 C 405.66719,340.28496 405.73179,340.72588 405.72475,341.18029 C 405.70232,342.6259 405.25282,343.97386 404.09637,345.07013 C 402.97609,346.13208 401.54237,346.47025 400.03359,346.39184 C 399.58924,346.36875 399.1455,346.29693 398.72117,346.20622 L 405.59117,339.84051 z M 392.54684,346.96336 L 386.48077,352.82359 C 386.43997,352.47447 386.4213,352.12766 386.43368,351.76842 C 386.47873,350.46211 386.88491,349.21442 387.94018,348.2141 C 389.01098,347.19904 390.26164,346.8451 391.5333,346.86099 C 391.87204,346.86523 392.21979,346.90701 392.54684,346.96336 z M 395.05445,349.6087 C 395.09325,349.93829 395.1164,350.28777 395.10253,350.62626 C 395.05048,351.89695 394.63023,353.1269 393.55944,354.14197 C 392.50417,355.14231 391.23655,355.48124 389.92971,355.45645 C 389.56193,355.44947 389.21418,355.39557 388.86027,355.33376 L 395.05445,349.6087 z"
       id="path3697"
       inkscape:transform-center-y="51.479578"
       inkscape:transform-center-x="54.844597" />
    <path
       style="fill:#002673;fill-opacity:1;fill-rule:evenodd;stroke:#002673;stroke-width:0.5;stroke-linecap:butt;stroke-linejoin:miter;stroke-miterlimit:4;stroke-dasharray:none;stroke-opacity:1"
       d="M 396.36263,224.43191 C 395.41958,224.38968 394.84755,225.05281 395.03532,225.98515 C 395.36093,226.88476 396.83104,227.3924 397.46402,225.98515 C 399.11664,227.53373 398.317,229.81399 397.04041,231.09671 C 395.76382,232.37942 393.06071,232.51257 392.2395,231.5768 C 393.25367,230.89752 393.15622,230.07833 392.66311,229.62819 C 391.502,228.56831 390.36594,229.7789 390.51681,230.70134 C 390.76357,232.21005 391.67876,233.13792 392.86079,233.58189 L 377.2437,233.97725 C 375.94833,231.49214 374.34667,229.77344 371.00251,229.7694 C 369.01846,229.76701 366.46948,230.57454 365.80623,233.55364 C 364.22838,233.82103 363.01041,235.1796 363.01041,236.82956 C 363.01041,238.29626 363.97574,239.54652 365.2979,239.99252 L 365.2979,241.34807 C 363.65446,241.40384 362.12902,241.60401 360.63819,241.91288 L 360.63819,242.53418 C 362.44714,242.91159 364.30789,243.12723 366.37105,243.12723 C 368.43422,243.12723 370.29494,242.91159 372.1039,242.53418 L 372.1039,241.91288 C 370.61906,241.60524 369.08006,241.40466 367.44419,241.34807 L 367.44419,239.99252 C 368.75906,239.54652 369.70344,238.29625 369.70344,236.82956 C 369.70345,235.38491 368.78471,234.15762 367.50067,233.69485 C 368.01649,231.86723 369.47061,231.42613 371.03076,231.43559 C 373.7602,231.45214 375.58591,233.98091 375.94463,236.51891 L 398.84781,237.53558 L 398.84781,240.98094 C 397.13803,241.43959 395.88254,242.9945 395.88254,244.84991 C 395.88254,247.06621 397.67642,248.88833 399.89272,248.88833 C 402.10902,248.88833 403.90289,247.06621 403.90289,244.84991 C 403.90289,242.98477 402.63289,241.43036 400.90938,240.98094 L 400.90938,237.53558 L 423.8408,236.51891 C 424.19952,233.98091 426.02523,231.45214 428.75468,231.43559 C 430.31482,231.42613 431.76894,231.86723 432.28476,233.69485 C 431.00073,234.15762 430.08198,235.38491 430.08199,236.82956 C 430.08199,238.29625 431.02637,239.54652 432.34124,239.99252 L 432.34124,241.34807 C 430.70537,241.40466 429.16638,241.60524 427.68153,241.91288 L 427.68153,242.53418 C 429.49049,242.91159 431.35121,243.12723 433.41439,243.12723 C 435.47755,243.12723 437.33829,242.91159 439.14724,242.53418 L 439.14724,241.91288 C 437.65641,241.60401 436.13098,241.40384 434.48753,241.34807 L 434.48753,239.99252 C 435.80969,239.54652 436.77503,238.29626 436.77503,236.82956 C 436.77503,235.1796 435.55705,233.82103 433.9792,233.55364 C 433.31595,230.57454 430.76697,229.76701 428.78292,229.7694 C 425.43876,229.77344 423.8371,231.49214 422.54173,233.97725 L 406.92464,233.58189 C 408.10667,233.13792 409.02186,232.21005 409.26862,230.70134 C 409.41949,229.7789 408.25518,228.56831 407.09409,229.62819 C 406.60097,230.07833 406.53176,230.89752 407.54594,231.5768 C 406.72472,232.51257 403.99337,232.37942 402.71678,231.09671 C 401.4402,229.81399 400.64056,227.53373 402.29317,225.98515 C 402.92615,227.3924 404.39627,226.88476 404.72187,225.98515 C 404.97223,224.74203 403.88061,223.99436 402.34965,224.74256 C 401.24672,225.28158 400.34756,226.29833 399.89272,227.4819 C 399.4392,226.29379 398.54199,225.28318 397.43578,224.74256 C 397.05304,224.55551 396.67699,224.44599 396.36263,224.43191 z M 399.89272,230.78606 C 400.11891,231.32999 400.46924,231.85286 400.96586,232.3393 C 401.45117,232.81465 402.06796,233.20436 402.74502,233.46892 L 399.89272,233.3842 L 397.04041,233.46892 C 397.71747,233.20436 398.33426,232.81465 398.81957,232.3393 C 399.31619,231.85286 399.66652,231.32999 399.89272,230.78606 z M 366.37105,234.9092 C 367.43602,234.9092 368.29141,235.7646 368.29141,236.82956 C 368.29141,237.89454 367.43601,238.74993 366.37105,238.74993 C 365.30607,238.74993 364.42242,237.89454 364.42244,236.82956 C 364.42244,235.76459 365.30607,234.9092 366.37105,234.9092 z M 433.41439,234.9092 C 434.47936,234.9092 435.36299,235.76459 435.36299,236.82956 C 435.36301,237.89454 434.47936,238.74993 433.41439,238.74993 C 432.34942,238.74993 431.49402,237.89454 431.49402,236.82956 C 431.49402,235.7646 432.34941,234.9092 433.41439,234.9092 z M 399.89272,242.53418 C 401.17279,242.53419 402.20845,243.56984 402.20845,244.84991 C 402.20845,246.12999 401.17279,247.16565 399.89272,247.16565 C 398.61264,247.16565 397.57698,246.12999 397.57698,244.84991 C 397.57699,243.56984 398.61264,242.53418 399.89272,242.53418 z"
       id="path3951" />
    <rect
       style="fill:#002673;fill-opacity:1;stroke:none;stroke-width:1;stroke-linecap:round;stroke-linejoin:miter;stroke-miterlimit:4;stroke-dasharray:none;stroke-opacity:1"
       id="rect4004"
       width="2.5756431"
       height="42.526146"
       x="398.60489"
       y="179.26541" />
    <g
       id="g4012"
       inkscape:transform-center-x="-37.105495"
       inkscape:transform-center-y="-10.87306"
       transform="matrix(0.9037013,0,0,0.9112171,234.17649,74.82379)">
      <path
         sodipodi:nodetypes="css"
         id="path3967"
         d="M 231.81728,202.72218 C 231.81728,206.07787 226.73591,208.80135 220.47494,208.80135 C 214.21396,208.80135 209.13259,206.07787 209.13259,202.72218 L 231.81728,202.72218 z"
         style="fill:#002673;fill-opacity:1;stroke:#002673;stroke-width:1.10198736;stroke-linecap:round;stroke-linejoin:round;stroke-miterlimit:4;stroke-dasharray:none;stroke-opacity:1" />
      <path
         id="path3965"
         d="M 231.81728,202.72219 C 231.81728,203.66808 226.73591,204.43578 220.47494,204.43578 C 214.21396,204.43578 209.13259,203.66808 209.13259,202.72219 C 209.13259,201.77628 214.21396,201.00859 220.47494,201.00859 C 226.73591,201.00859 231.81728,201.77628 231.81728,202.72219 z"
         style="fill:#ffffff;fill-opacity:1;stroke:#002673;stroke-width:1.10198736;stroke-linecap:round;stroke-linejoin:miter;stroke-miterlimit:4;stroke-dasharray:none;stroke-opacity:1" />
      <path
         sodipodi:nodetypes="cc"
         id="path4006"
         d="M 220.47494,184.63417 L 220.47494,204.54115"
         style="fill:none;fill-rule:evenodd;stroke:#002673;stroke-width:1.10198736px;stroke-linecap:butt;stroke-linejoin:miter;stroke-opacity:1" />
      <path
         style="fill:none;fill-rule:evenodd;stroke:#002673;stroke-width:1.10198736px;stroke-linecap:butt;stroke-linejoin:miter;stroke-opacity:1"
         d="M 220.47494,184.63417 L 212.22494,201.54115"
         id="path4008"
         sodipodi:nodetypes="cc" />
      <path
         inkscape:transform-center-y="5.171875"
         inkscape:transform-center-x="-4.125"
         sodipodi:nodetypes="cc"
         id="path4010"
         d="M 220.47494,184.63417 L 228.72494,201.54115"
         style="fill:none;fill-rule:evenodd;stroke:#002673;stroke-width:1.10198736px;stroke-linecap:butt;stroke-linejoin:miter;stroke-opacity:1" />
    </g>
    <g
       inkscape:transform-center-y="-10.87306"
       inkscape:transform-center-x="37.105495"
       id="g4019"
       transform="matrix(-0.9037013,0,0,0.9112171,565.59889,74.82379)">
      <path
         style="fill:#002673;fill-opacity:1;stroke:#002673;stroke-width:1.10198736;stroke-linecap:round;stroke-linejoin:round;stroke-miterlimit:4;stroke-dasharray:none;stroke-opacity:1"
         d="M 231.81728,202.72218 C 231.81728,206.07787 226.73591,208.80135 220.47494,208.80135 C 214.21396,208.80135 209.13259,206.07787 209.13259,202.72218 L 231.81728,202.72218 z"
         id="path4021"
         sodipodi:nodetypes="css" />
      <path
         style="fill:#ffffff;fill-opacity:1;stroke:#002673;stroke-width:1.10198736;stroke-linecap:round;stroke-linejoin:miter;stroke-miterlimit:4;stroke-dasharray:none;stroke-opacity:1"
         d="M 231.81728,202.72219 C 231.81728,203.66808 226.73591,204.43578 220.47494,204.43578 C 214.21396,204.43578 209.13259,203.66808 209.13259,202.72219 C 209.13259,201.77628 214.21396,201.00859 220.47494,201.00859 C 226.73591,201.00859 231.81728,201.77628 231.81728,202.72219 z"
         id="path4023" />
      <path
         style="fill:none;fill-rule:evenodd;stroke:#002673;stroke-width:1.10198736px;stroke-linecap:butt;stroke-linejoin:miter;stroke-opacity:1"
         d="M 220.47494,184.63417 L 220.47494,204.54115"
         id="path4025"
         sodipodi:nodetypes="cc" />
      <path
         sodipodi:nodetypes="cc"
         id="path4027"
         d="M 220.47494,184.63417 L 212.22494,201.54115"
         style="fill:none;fill-rule:evenodd;stroke:#002673;stroke-width:1.10198736px;stroke-linecap:butt;stroke-linejoin:miter;stroke-opacity:1" />
      <path
         style="fill:none;fill-rule:evenodd;stroke:#002673;stroke-width:1.10198736px;stroke-linecap:butt;stroke-linejoin:miter;stroke-opacity:1"
         d="M 220.47494,184.63417 L 228.72494,201.54115"
         id="path4029"
         sodipodi:nodetypes="cc"
         inkscape:transform-center-x="-4.125"
         inkscape:transform-center-y="5.171875" />
    </g>
    <path
       style="font-size:40px;font-style:normal;font-variant:normal;font-weight:normal;font-stretch:normal;text-align:center;line-height:100%;writing-mode:lr-tb;text-anchor:middle;fill:#002673;fill-opacity:1;stroke:#002673;stroke-width:0.5;stroke-linecap:butt;stroke-linejoin:miter;stroke-miterlimit:4;stroke-dasharray:none;stroke-opacity:1;font-family:Swis721 Cn BT;-inkscape-font-specification:Swis721 Cn BT"
       inkscape:transform-center-x="-0.31225509"
       inkscape:transform-center-y="-60.579626"
       d="M 336.09156,242.07266 L 337.03356,240.5023 L 338.4431,241.34783 C 339.12423,241.75641 339.71987,241.92504 340.23004,241.85372 C 340.74022,241.78241 341.15797,241.47557 341.48332,240.93319 C 341.87676,240.2773 341.94733,239.70216 341.69504,239.20776 C 341.44273,238.71338 340.61654,238.04626 339.21646,237.2064 L 329.00909,231.08341 L 329.95109,229.51305 L 341.26528,236.29998 C 342.48247,237.03013 343.21787,237.84861 343.47147,238.75542 C 343.72508,239.66224 343.50761,240.68956 342.81909,241.83737 C 342.19865,242.87168 341.42052,243.46833 340.48468,243.62734 C 339.54885,243.78636 338.47864,243.50457 337.27406,242.78199 L 336.09156,242.07266 z M 332.76464,225.33189 L 333.98475,223.87879 L 342.73718,231.22786 C 343.95374,232.24936 344.94539,232.78672 345.71215,232.83995 C 346.47892,232.89319 347.21225,232.50302 347.91217,231.66945 C 348.62153,230.82463 348.8822,229.98236 348.69419,229.14266 C 348.50615,228.30298 347.85174,227.41258 346.73093,226.47148 L 337.9785,219.12241 L 339.17025,217.70309 L 347.66078,224.83226 C 348.75906,225.75445 349.48287,226.46784 349.83223,226.97243 C 350.18157,227.47705 350.40789,228.02239 350.51117,228.60846 C 350.63565,229.31798 350.58758,230.02426 350.36698,230.7273 C 350.14637,231.43036 349.75705,232.11419 349.19901,232.77878 C 348.62679,233.46028 347.99681,233.97324 347.30908,234.31766 C 346.62134,234.6621 345.92822,234.80995 345.22971,234.7612 C 344.75241,234.73495 344.24522,234.57557 343.70817,234.28308 C 343.17112,233.99059 342.35345,233.38325 341.25517,232.46106 L 332.76464,225.33189 z M 353.83419,226.98388 L 343.04755,213.85916 L 345.00774,212.24817 L 358.81148,219.76616 L 349.42243,208.61993 L 350.83717,207.45722 L 361.62379,220.58196 L 359.74884,222.1229 L 345.60375,214.32856 L 355.24893,225.82117 L 353.83419,226.98388 z M 367.57576,209.94619 L 369.21723,209.03926 C 370.24,210.93602 370.64473,212.5924 370.43143,214.00839 C 370.21811,215.42439 369.39372,216.52895 367.95823,217.32206 C 366.42619,218.16853 364.94221,218.16294 363.50629,217.30526 C 362.07036,216.44759 360.6233,214.69915 359.16509,212.05991 C 357.64287,209.30481 356.90653,207.10907 356.95605,205.47268 C 357.00558,203.8363 357.84465,202.5682 359.47325,201.66836 C 360.83148,200.91794 362.09697,200.73338 363.26971,201.11468 C 364.44245,201.49602 365.43071,202.41408 366.23451,203.86886 L 366.33586,204.05232 L 364.73301,204.93791 C 364.17107,203.92086 363.49188,203.25424 362.69544,202.93807 C 361.89899,202.62193 361.08879,202.69147 360.26484,203.1467 C 359.25421,203.70511 358.798,204.59783 358.89622,205.82488 C 358.99443,207.05197 359.67306,208.80488 360.93209,211.08362 C 362.16267,213.31088 363.267,214.76977 364.24509,215.46029 C 365.22316,216.15082 366.23683,216.20622 367.28609,215.62649 C 368.12935,215.16058 368.58672,214.45626 368.65821,213.51352 C 368.7297,212.57079 368.41156,211.45893 367.7038,210.17792 L 367.57576,209.94619 z M 377.17668,212.66987 L 372.14569,198.27835 L 368.05316,199.70901 L 367.47798,198.06368 L 377.24589,194.64901 L 377.82107,196.29434 L 373.97847,197.63764 L 379.00946,212.02916 L 377.17668,212.66987 z M 385.21345,203.5103 L 389.67127,202.74566 L 385.93732,194.35369 L 385.21345,203.5103 z M 382.79881,210.64005 L 384.49328,193.11276 L 386.8744,192.70433 L 394.37825,208.65384 L 392.4864,208.97835 L 390.38624,204.36907 L 385.08035,205.27917 L 384.69066,210.31554 L 382.79881,210.64005 z M 406.13168,203.56117 L 407.94314,203.82954 L 407.70225,205.45549 C 407.58583,206.24118 407.65831,206.85598 407.91967,207.29989 C 408.18102,207.74379 408.62452,208.01209 409.25017,208.10479 C 410.00676,208.21688 410.56505,208.06169 410.92503,207.63921 C 411.285,207.21673 411.58462,206.19797 411.82391,204.58293 L 413.56836,192.80845 L 415.37982,193.07683 L 413.44621,206.12806 C 413.23818,207.53212 412.76395,208.52501 412.02353,209.10673 C 411.28309,209.68845 410.25086,209.88123 408.92683,209.68506 C 407.73374,209.5083 406.88446,209.01818 406.379,208.2147 C 405.87353,207.41122 405.72372,206.31473 405.92959,204.92521 L 406.13168,203.56117 z M 420.0328,194.00141 L 421.84386,194.56734 L 418.4351,205.47578 C 417.96129,206.99202 417.84756,208.11417 418.09392,208.84222 C 418.34027,209.57028 418.98289,210.09663 420.02179,210.42128 C 421.07473,210.75031 421.95239,210.66628 422.65479,210.1692 C 423.35718,209.67212 423.92662,208.72513 424.36315,207.32823 L 427.77191,196.41978 L 429.54084,196.97255 L 426.23409,207.5546 C 425.80633,208.92341 425.42696,209.86624 425.09596,210.38305 C 424.76493,210.89987 424.34892,211.31885 423.84791,211.64001 C 423.24116,212.02828 422.5709,212.25609 421.83715,212.32345 C 421.10337,212.3908 420.32234,212.29506 419.49403,212.03622 C 418.64465,211.7708 417.92854,211.38715 417.3457,210.88526 C 416.76285,210.38336 416.35933,209.80074 416.13514,209.1374 C 415.97544,208.68683 415.92706,208.1574 415.99001,207.54911 C 416.05296,206.94082 416.2983,205.95227 416.72604,204.58344 L 420.0328,194.00141 z M 429.30242,215.53337 L 432.87654,198.26094 L 434.7098,199.20682 L 431.38958,213.96622 L 441.59186,202.75768 L 443.27806,203.62769 L 431.33174,216.58042 L 429.30242,215.53337 z M 441.89639,215.31199 L 445.51256,218.02863 L 449.0516,209.55262 L 441.89639,215.31199 z M 435.05435,218.45053 L 448.96266,207.65071 L 450.89422,209.10179 L 444.44758,225.50715 L 442.91292,224.35423 L 444.8229,219.66295 L 440.51877,216.42949 L 436.58903,219.60344 L 435.05435,218.45053 z M 445.07388,226.16923 L 457.50245,214.58733 L 459.23222,216.44355 L 452.58715,230.68807 L 463.12795,220.62407 L 464.37639,221.96378 L 451.94782,233.54568 L 450.29326,231.77017 L 457.19292,217.16778 L 446.32232,227.50894 L 445.07388,226.16923 z M 454.88823,237.83773 L 467.6029,229.4256 L 465.21074,225.80993 L 466.66437,224.84819 L 472.3739,233.47798 L 470.92027,234.43971 L 468.6742,231.04484 L 455.95953,239.45697 L 454.88823,237.83773 z"
       id="text4039" />
  </g>
</svg>
