<?xml version="1.0" encoding="UTF-8" standalone="no"?>
<svg
   xmlns:dc="http://purl.org/dc/elements/1.1/"
   xmlns:cc="http://creativecommons.org/ns#"
   xmlns:rdf="http://www.w3.org/1999/02/22-rdf-syntax-ns#"
   xmlns:svg="http://www.w3.org/2000/svg"
   xmlns="http://www.w3.org/2000/svg"
   xmlns:sodipodi="http://sodipodi.sourceforge.net/DTD/sodipodi-0.dtd"
   xmlns:inkscape="http://www.inkscape.org/namespaces/inkscape"
   width="900"
   height="600"
   viewBox="0 0 900 600"
   id="svg2253"
   sodipodi:version="0.32"
   inkscape:version="0.47 r22583"
   sodipodi:docname="Flag_of_Cleveland,_Ohio.svg"
   inkscape:output_extension="org.inkscape.output.svg.inkscape"
   version="1.1"
   style="display:inline">
  <metadata
     id="metadata2260">
    <rdf:RDF>
      <cc:Work
         rdf:about="">
        <dc:format>image/svg+xml</dc:format>
        <dc:type
           rdf:resource="http://purl.org/dc/dcmitype/StillImage" />
      </cc:Work>
    </rdf:RDF>
  </metadata>
  <defs
     id="defs2258">
    <inkscape:perspective
       sodipodi:type="inkscape:persp3d"
       inkscape:vp_x="0 : 166 : 1"
       inkscape:vp_y="0 : 1000 : 0"
       inkscape:vp_z="500 : 166 : 1"
       inkscape:persp3d-origin="250 : 110.66667 : 1"
       id="perspective2848" />
    <inkscape:perspective
       id="perspective3646"
       inkscape:persp3d-origin="0.5 : 0.33333333 : 1"
       inkscape:vp_z="1 : 0.5 : 1"
       inkscape:vp_y="0 : 1000 : 0"
       inkscape:vp_x="0 : 0.5 : 1"
       sodipodi:type="inkscape:persp3d" />
    <inkscape:perspective
       id="perspective3716"
       inkscape:persp3d-origin="0.5 : 0.33333333 : 1"
       inkscape:vp_z="1 : 0.5 : 1"
       inkscape:vp_y="0 : 1000 : 0"
       inkscape:vp_x="0 : 0.5 : 1"
       sodipodi:type="inkscape:persp3d" />
    <inkscape:perspective
       id="perspective3770"
       inkscape:persp3d-origin="0.5 : 0.33333333 : 1"
       inkscape:vp_z="1 : 0.5 : 1"
       inkscape:vp_y="0 : 1000 : 0"
       inkscape:vp_x="0 : 0.5 : 1"
       sodipodi:type="inkscape:persp3d" />
    <inkscape:perspective
       id="perspective3792"
       inkscape:persp3d-origin="0.5 : 0.33333333 : 1"
       inkscape:vp_z="1 : 0.5 : 1"
       inkscape:vp_y="0 : 1000 : 0"
       inkscape:vp_x="0 : 0.5 : 1"
       sodipodi:type="inkscape:persp3d" />
    <inkscape:perspective
       id="perspective3792-4"
       inkscape:persp3d-origin="0.5 : 0.33333333 : 1"
       inkscape:vp_z="1 : 0.5 : 1"
       inkscape:vp_y="0 : 1000 : 0"
       inkscape:vp_x="0 : 0.5 : 1"
       sodipodi:type="inkscape:persp3d" />
    <inkscape:perspective
       id="perspective4190"
       inkscape:persp3d-origin="0.5 : 0.33333333 : 1"
       inkscape:vp_z="1 : 0.5 : 1"
       inkscape:vp_y="0 : 1000 : 0"
       inkscape:vp_x="0 : 0.5 : 1"
       sodipodi:type="inkscape:persp3d" />
    <inkscape:perspective
       id="perspective4213"
       inkscape:persp3d-origin="0.5 : 0.33333333 : 1"
       inkscape:vp_z="1 : 0.5 : 1"
       inkscape:vp_y="0 : 1000 : 0"
       inkscape:vp_x="0 : 0.5 : 1"
       sodipodi:type="inkscape:persp3d" />
    <inkscape:perspective
       id="perspective4235"
       inkscape:persp3d-origin="0.5 : 0.33333333 : 1"
       inkscape:vp_z="1 : 0.5 : 1"
       inkscape:vp_y="0 : 1000 : 0"
       inkscape:vp_x="0 : 0.5 : 1"
       sodipodi:type="inkscape:persp3d" />
    <inkscape:perspective
       id="perspective4328"
       inkscape:persp3d-origin="0.5 : 0.33333333 : 1"
       inkscape:vp_z="1 : 0.5 : 1"
       inkscape:vp_y="0 : 1000 : 0"
       inkscape:vp_x="0 : 0.5 : 1"
       sodipodi:type="inkscape:persp3d" />
    <inkscape:perspective
       id="perspective2861"
       inkscape:persp3d-origin="0.5 : 0.33333333 : 1"
       inkscape:vp_z="1 : 0.5 : 1"
       inkscape:vp_y="0 : 1000 : 0"
       inkscape:vp_x="0 : 0.5 : 1"
       sodipodi:type="inkscape:persp3d" />
    <inkscape:perspective
       id="perspective2886"
       inkscape:persp3d-origin="0.5 : 0.33333333 : 1"
       inkscape:vp_z="1 : 0.5 : 1"
       inkscape:vp_y="0 : 1000 : 0"
       inkscape:vp_x="0 : 0.5 : 1"
       sodipodi:type="inkscape:persp3d" />
    <inkscape:perspective
       id="perspective3022"
       inkscape:persp3d-origin="0.5 : 0.33333333 : 1"
       inkscape:vp_z="1 : 0.5 : 1"
       inkscape:vp_y="0 : 1000 : 0"
       inkscape:vp_x="0 : 0.5 : 1"
       sodipodi:type="inkscape:persp3d" />
    <inkscape:perspective
       id="perspective3808"
       inkscape:persp3d-origin="0.5 : 0.33333333 : 1"
       inkscape:vp_z="1 : 0.5 : 1"
       inkscape:vp_y="0 : 1000 : 0"
       inkscape:vp_x="0 : 0.5 : 1"
       sodipodi:type="inkscape:persp3d" />
    <inkscape:perspective
       id="perspective3830"
       inkscape:persp3d-origin="0.5 : 0.33333333 : 1"
       inkscape:vp_z="1 : 0.5 : 1"
       inkscape:vp_y="0 : 1000 : 0"
       inkscape:vp_x="0 : 0.5 : 1"
       sodipodi:type="inkscape:persp3d" />
    <inkscape:perspective
       id="perspective3852"
       inkscape:persp3d-origin="0.5 : 0.33333333 : 1"
       inkscape:vp_z="1 : 0.5 : 1"
       inkscape:vp_y="0 : 1000 : 0"
       inkscape:vp_x="0 : 0.5 : 1"
       sodipodi:type="inkscape:persp3d" />
    <inkscape:perspective
       id="perspective3874"
       inkscape:persp3d-origin="0.5 : 0.33333333 : 1"
       inkscape:vp_z="1 : 0.5 : 1"
       inkscape:vp_y="0 : 1000 : 0"
       inkscape:vp_x="0 : 0.5 : 1"
       sodipodi:type="inkscape:persp3d" />
    <inkscape:perspective
       id="perspective3896"
       inkscape:persp3d-origin="0.5 : 0.33333333 : 1"
       inkscape:vp_z="1 : 0.5 : 1"
       inkscape:vp_y="0 : 1000 : 0"
       inkscape:vp_x="0 : 0.5 : 1"
       sodipodi:type="inkscape:persp3d" />
    <inkscape:perspective
       id="perspective3918"
       inkscape:persp3d-origin="0.5 : 0.33333333 : 1"
       inkscape:vp_z="1 : 0.5 : 1"
       inkscape:vp_y="0 : 1000 : 0"
       inkscape:vp_x="0 : 0.5 : 1"
       sodipodi:type="inkscape:persp3d" />
    <inkscape:perspective
       id="perspective3940"
       inkscape:persp3d-origin="0.5 : 0.33333333 : 1"
       inkscape:vp_z="1 : 0.5 : 1"
       inkscape:vp_y="0 : 1000 : 0"
       inkscape:vp_x="0 : 0.5 : 1"
       sodipodi:type="inkscape:persp3d" />
    <inkscape:perspective
       id="perspective3962"
       inkscape:persp3d-origin="0.5 : 0.33333333 : 1"
       inkscape:vp_z="1 : 0.5 : 1"
       inkscape:vp_y="0 : 1000 : 0"
       inkscape:vp_x="0 : 0.5 : 1"
       sodipodi:type="inkscape:persp3d" />
    <inkscape:perspective
       id="perspective3984"
       inkscape:persp3d-origin="0.5 : 0.33333333 : 1"
       inkscape:vp_z="1 : 0.5 : 1"
       inkscape:vp_y="0 : 1000 : 0"
       inkscape:vp_x="0 : 0.5 : 1"
       sodipodi:type="inkscape:persp3d" />
    <inkscape:perspective
       id="perspective4006"
       inkscape:persp3d-origin="0.5 : 0.33333333 : 1"
       inkscape:vp_z="1 : 0.5 : 1"
       inkscape:vp_y="0 : 1000 : 0"
       inkscape:vp_x="0 : 0.5 : 1"
       sodipodi:type="inkscape:persp3d" />
    <inkscape:perspective
       id="perspective4028"
       inkscape:persp3d-origin="0.5 : 0.33333333 : 1"
       inkscape:vp_z="1 : 0.5 : 1"
       inkscape:vp_y="0 : 1000 : 0"
       inkscape:vp_x="0 : 0.5 : 1"
       sodipodi:type="inkscape:persp3d" />
    <inkscape:perspective
       id="perspective4050"
       inkscape:persp3d-origin="0.5 : 0.33333333 : 1"
       inkscape:vp_z="1 : 0.5 : 1"
       inkscape:vp_y="0 : 1000 : 0"
       inkscape:vp_x="0 : 0.5 : 1"
       sodipodi:type="inkscape:persp3d" />
    <inkscape:perspective
       id="perspective4072"
       inkscape:persp3d-origin="0.5 : 0.33333333 : 1"
       inkscape:vp_z="1 : 0.5 : 1"
       inkscape:vp_y="0 : 1000 : 0"
       inkscape:vp_x="0 : 0.5 : 1"
       sodipodi:type="inkscape:persp3d" />
    <inkscape:perspective
       id="perspective4094"
       inkscape:persp3d-origin="0.5 : 0.33333333 : 1"
       inkscape:vp_z="1 : 0.5 : 1"
       inkscape:vp_y="0 : 1000 : 0"
       inkscape:vp_x="0 : 0.5 : 1"
       sodipodi:type="inkscape:persp3d" />
    <inkscape:perspective
       id="perspective4116"
       inkscape:persp3d-origin="0.5 : 0.33333333 : 1"
       inkscape:vp_z="1 : 0.5 : 1"
       inkscape:vp_y="0 : 1000 : 0"
       inkscape:vp_x="0 : 0.5 : 1"
       sodipodi:type="inkscape:persp3d" />
    <inkscape:perspective
       id="perspective4138"
       inkscape:persp3d-origin="0.5 : 0.33333333 : 1"
       inkscape:vp_z="1 : 0.5 : 1"
       inkscape:vp_y="0 : 1000 : 0"
       inkscape:vp_x="0 : 0.5 : 1"
       sodipodi:type="inkscape:persp3d" />
    <inkscape:perspective
       id="perspective4160"
       inkscape:persp3d-origin="0.5 : 0.33333333 : 1"
       inkscape:vp_z="1 : 0.5 : 1"
       inkscape:vp_y="0 : 1000 : 0"
       inkscape:vp_x="0 : 0.5 : 1"
       sodipodi:type="inkscape:persp3d" />
    <inkscape:perspective
       id="perspective4182"
       inkscape:persp3d-origin="0.5 : 0.33333333 : 1"
       inkscape:vp_z="1 : 0.5 : 1"
       inkscape:vp_y="0 : 1000 : 0"
       inkscape:vp_x="0 : 0.5 : 1"
       sodipodi:type="inkscape:persp3d" />
    <inkscape:perspective
       id="perspective4204"
       inkscape:persp3d-origin="0.5 : 0.33333333 : 1"
       inkscape:vp_z="1 : 0.5 : 1"
       inkscape:vp_y="0 : 1000 : 0"
       inkscape:vp_x="0 : 0.5 : 1"
       sodipodi:type="inkscape:persp3d" />
    <inkscape:perspective
       id="perspective2902"
       inkscape:persp3d-origin="0.5 : 0.33333333 : 1"
       inkscape:vp_z="1 : 0.5 : 1"
       inkscape:vp_y="0 : 1000 : 0"
       inkscape:vp_x="0 : 0.5 : 1"
       sodipodi:type="inkscape:persp3d" />
    <inkscape:perspective
       id="perspective2924"
       inkscape:persp3d-origin="0.5 : 0.33333333 : 1"
       inkscape:vp_z="1 : 0.5 : 1"
       inkscape:vp_y="0 : 1000 : 0"
       inkscape:vp_x="0 : 0.5 : 1"
       sodipodi:type="inkscape:persp3d" />
    <inkscape:perspective
       id="perspective2946"
       inkscape:persp3d-origin="0.5 : 0.33333333 : 1"
       inkscape:vp_z="1 : 0.5 : 1"
       inkscape:vp_y="0 : 1000 : 0"
       inkscape:vp_x="0 : 0.5 : 1"
       sodipodi:type="inkscape:persp3d" />
    <inkscape:perspective
       id="perspective2946-9"
       inkscape:persp3d-origin="0.5 : 0.33333333 : 1"
       inkscape:vp_z="1 : 0.5 : 1"
       inkscape:vp_y="0 : 1000 : 0"
       inkscape:vp_x="0 : 0.5 : 1"
       sodipodi:type="inkscape:persp3d" />
    <inkscape:perspective
       id="perspective2946-8"
       inkscape:persp3d-origin="0.5 : 0.33333333 : 1"
       inkscape:vp_z="1 : 0.5 : 1"
       inkscape:vp_y="0 : 1000 : 0"
       inkscape:vp_x="0 : 0.5 : 1"
       sodipodi:type="inkscape:persp3d" />
    <inkscape:perspective
       id="perspective3760"
       inkscape:persp3d-origin="0.5 : 0.33333333 : 1"
       inkscape:vp_z="1 : 0.5 : 1"
       inkscape:vp_y="0 : 1000 : 0"
       inkscape:vp_x="0 : 0.5 : 1"
       sodipodi:type="inkscape:persp3d" />
    <inkscape:perspective
       id="perspective3805"
       inkscape:persp3d-origin="0.5 : 0.33333333 : 1"
       inkscape:vp_z="1 : 0.5 : 1"
       inkscape:vp_y="0 : 1000 : 0"
       inkscape:vp_x="0 : 0.5 : 1"
       sodipodi:type="inkscape:persp3d" />
    <inkscape:perspective
       id="perspective3699"
       inkscape:persp3d-origin="0.5 : 0.33333333 : 1"
       inkscape:vp_z="1 : 0.5 : 1"
       inkscape:vp_y="0 : 1000 : 0"
       inkscape:vp_x="0 : 0.5 : 1"
       sodipodi:type="inkscape:persp3d" />
    <inkscape:perspective
       id="perspective3735"
       inkscape:persp3d-origin="0.5 : 0.33333333 : 1"
       inkscape:vp_z="1 : 0.5 : 1"
       inkscape:vp_y="0 : 1000 : 0"
       inkscape:vp_x="0 : 0.5 : 1"
       sodipodi:type="inkscape:persp3d" />
    <inkscape:perspective
       id="perspective3760-4"
       inkscape:persp3d-origin="0.5 : 0.33333333 : 1"
       inkscape:vp_z="1 : 0.5 : 1"
       inkscape:vp_y="0 : 1000 : 0"
       inkscape:vp_x="0 : 0.5 : 1"
       sodipodi:type="inkscape:persp3d" />
    <inkscape:perspective
       id="perspective3784"
       inkscape:persp3d-origin="0.5 : 0.33333333 : 1"
       inkscape:vp_z="1 : 0.5 : 1"
       inkscape:vp_y="0 : 1000 : 0"
       inkscape:vp_x="0 : 0.5 : 1"
       sodipodi:type="inkscape:persp3d" />
    <inkscape:perspective
       id="perspective3806"
       inkscape:persp3d-origin="0.5 : 0.33333333 : 1"
       inkscape:vp_z="1 : 0.5 : 1"
       inkscape:vp_y="0 : 1000 : 0"
       inkscape:vp_x="0 : 0.5 : 1"
       sodipodi:type="inkscape:persp3d" />
    <inkscape:perspective
       id="perspective3806-8"
       inkscape:persp3d-origin="0.5 : 0.33333333 : 1"
       inkscape:vp_z="1 : 0.5 : 1"
       inkscape:vp_y="0 : 1000 : 0"
       inkscape:vp_x="0 : 0.5 : 1"
       sodipodi:type="inkscape:persp3d" />
    <inkscape:perspective
       id="perspective3837"
       inkscape:persp3d-origin="0.5 : 0.33333333 : 1"
       inkscape:vp_z="1 : 0.5 : 1"
       inkscape:vp_y="0 : 1000 : 0"
       inkscape:vp_x="0 : 0.5 : 1"
       sodipodi:type="inkscape:persp3d" />
    <inkscape:perspective
       id="perspective3837-4"
       inkscape:persp3d-origin="0.5 : 0.33333333 : 1"
       inkscape:vp_z="1 : 0.5 : 1"
       inkscape:vp_y="0 : 1000 : 0"
       inkscape:vp_x="0 : 0.5 : 1"
       sodipodi:type="inkscape:persp3d" />
    <inkscape:perspective
       id="perspective3868"
       inkscape:persp3d-origin="0.5 : 0.33333333 : 1"
       inkscape:vp_z="1 : 0.5 : 1"
       inkscape:vp_y="0 : 1000 : 0"
       inkscape:vp_x="0 : 0.5 : 1"
       sodipodi:type="inkscape:persp3d" />
    <inkscape:perspective
       id="perspective3868-1"
       inkscape:persp3d-origin="0.5 : 0.33333333 : 1"
       inkscape:vp_z="1 : 0.5 : 1"
       inkscape:vp_y="0 : 1000 : 0"
       inkscape:vp_x="0 : 0.5 : 1"
       sodipodi:type="inkscape:persp3d" />
    <inkscape:perspective
       id="perspective3868-11"
       inkscape:persp3d-origin="0.5 : 0.33333333 : 1"
       inkscape:vp_z="1 : 0.5 : 1"
       inkscape:vp_y="0 : 1000 : 0"
       inkscape:vp_x="0 : 0.5 : 1"
       sodipodi:type="inkscape:persp3d" />
    <inkscape:perspective
       id="perspective3868-7"
       inkscape:persp3d-origin="0.5 : 0.33333333 : 1"
       inkscape:vp_z="1 : 0.5 : 1"
       inkscape:vp_y="0 : 1000 : 0"
       inkscape:vp_x="0 : 0.5 : 1"
       sodipodi:type="inkscape:persp3d" />
    <inkscape:perspective
       id="perspective3948"
       inkscape:persp3d-origin="0.5 : 0.33333333 : 1"
       inkscape:vp_z="1 : 0.5 : 1"
       inkscape:vp_y="0 : 1000 : 0"
       inkscape:vp_x="0 : 0.5 : 1"
       sodipodi:type="inkscape:persp3d" />
    <inkscape:perspective
       id="perspective3948-2"
       inkscape:persp3d-origin="0.5 : 0.33333333 : 1"
       inkscape:vp_z="1 : 0.5 : 1"
       inkscape:vp_y="0 : 1000 : 0"
       inkscape:vp_x="0 : 0.5 : 1"
       sodipodi:type="inkscape:persp3d" />
    <inkscape:perspective
       id="perspective3948-6"
       inkscape:persp3d-origin="0.5 : 0.33333333 : 1"
       inkscape:vp_z="1 : 0.5 : 1"
       inkscape:vp_y="0 : 1000 : 0"
       inkscape:vp_x="0 : 0.5 : 1"
       sodipodi:type="inkscape:persp3d" />
    <inkscape:perspective
       id="perspective3948-5"
       inkscape:persp3d-origin="0.5 : 0.33333333 : 1"
       inkscape:vp_z="1 : 0.5 : 1"
       inkscape:vp_y="0 : 1000 : 0"
       inkscape:vp_x="0 : 0.5 : 1"
       sodipodi:type="inkscape:persp3d" />
    <inkscape:perspective
       id="perspective3948-61"
       inkscape:persp3d-origin="0.5 : 0.33333333 : 1"
       inkscape:vp_z="1 : 0.5 : 1"
       inkscape:vp_y="0 : 1000 : 0"
       inkscape:vp_x="0 : 0.5 : 1"
       sodipodi:type="inkscape:persp3d" />
    <inkscape:perspective
       id="perspective4006-2"
       inkscape:persp3d-origin="0.5 : 0.33333333 : 1"
       inkscape:vp_z="1 : 0.5 : 1"
       inkscape:vp_y="0 : 1000 : 0"
       inkscape:vp_x="0 : 0.5 : 1"
       sodipodi:type="inkscape:persp3d" />
    <inkscape:perspective
       id="perspective4006-9"
       inkscape:persp3d-origin="0.5 : 0.33333333 : 1"
       inkscape:vp_z="1 : 0.5 : 1"
       inkscape:vp_y="0 : 1000 : 0"
       inkscape:vp_x="0 : 0.5 : 1"
       sodipodi:type="inkscape:persp3d" />
    <inkscape:perspective
       id="perspective3711"
       inkscape:persp3d-origin="0.5 : 0.33333333 : 1"
       inkscape:vp_z="1 : 0.5 : 1"
       inkscape:vp_y="0 : 1000 : 0"
       inkscape:vp_x="0 : 0.5 : 1"
       sodipodi:type="inkscape:persp3d" />
    <inkscape:perspective
       id="perspective3733"
       inkscape:persp3d-origin="0.5 : 0.33333333 : 1"
       inkscape:vp_z="1 : 0.5 : 1"
       inkscape:vp_y="0 : 1000 : 0"
       inkscape:vp_x="0 : 0.5 : 1"
       sodipodi:type="inkscape:persp3d" />
    <inkscape:perspective
       id="perspective3755"
       inkscape:persp3d-origin="0.5 : 0.33333333 : 1"
       inkscape:vp_z="1 : 0.5 : 1"
       inkscape:vp_y="0 : 1000 : 0"
       inkscape:vp_x="0 : 0.5 : 1"
       sodipodi:type="inkscape:persp3d" />
    <inkscape:perspective
       id="perspective3777"
       inkscape:persp3d-origin="0.5 : 0.33333333 : 1"
       inkscape:vp_z="1 : 0.5 : 1"
       inkscape:vp_y="0 : 1000 : 0"
       inkscape:vp_x="0 : 0.5 : 1"
       sodipodi:type="inkscape:persp3d" />
    <inkscape:perspective
       id="perspective3806-9"
       inkscape:persp3d-origin="0.5 : 0.33333333 : 1"
       inkscape:vp_z="1 : 0.5 : 1"
       inkscape:vp_y="0 : 1000 : 0"
       inkscape:vp_x="0 : 0.5 : 1"
       sodipodi:type="inkscape:persp3d" />
    <inkscape:perspective
       id="perspective3834"
       inkscape:persp3d-origin="0.5 : 0.33333333 : 1"
       inkscape:vp_z="1 : 0.5 : 1"
       inkscape:vp_y="0 : 1000 : 0"
       inkscape:vp_x="0 : 0.5 : 1"
       sodipodi:type="inkscape:persp3d" />
    <inkscape:perspective
       id="perspective3834-8"
       inkscape:persp3d-origin="0.5 : 0.33333333 : 1"
       inkscape:vp_z="1 : 0.5 : 1"
       inkscape:vp_y="0 : 1000 : 0"
       inkscape:vp_x="0 : 0.5 : 1"
       sodipodi:type="inkscape:persp3d" />
    <inkscape:perspective
       id="perspective3875"
       inkscape:persp3d-origin="0.5 : 0.33333333 : 1"
       inkscape:vp_z="1 : 0.5 : 1"
       inkscape:vp_y="0 : 1000 : 0"
       inkscape:vp_x="0 : 0.5 : 1"
       sodipodi:type="inkscape:persp3d" />
    <inkscape:perspective
       id="perspective3916"
       inkscape:persp3d-origin="0.5 : 0.33333333 : 1"
       inkscape:vp_z="1 : 0.5 : 1"
       inkscape:vp_y="0 : 1000 : 0"
       inkscape:vp_x="0 : 0.5 : 1"
       sodipodi:type="inkscape:persp3d" />
    <inkscape:perspective
       id="perspective3942"
       inkscape:persp3d-origin="0.5 : 0.33333333 : 1"
       inkscape:vp_z="1 : 0.5 : 1"
       inkscape:vp_y="0 : 1000 : 0"
       inkscape:vp_x="0 : 0.5 : 1"
       sodipodi:type="inkscape:persp3d" />
    <inkscape:perspective
       id="perspective3764"
       inkscape:persp3d-origin="0.5 : 0.33333333 : 1"
       inkscape:vp_z="1 : 0.5 : 1"
       inkscape:vp_y="0 : 1000 : 0"
       inkscape:vp_x="0 : 0.5 : 1"
       sodipodi:type="inkscape:persp3d" />
    <inkscape:perspective
       id="perspective3786"
       inkscape:persp3d-origin="0.5 : 0.33333333 : 1"
       inkscape:vp_z="1 : 0.5 : 1"
       inkscape:vp_y="0 : 1000 : 0"
       inkscape:vp_x="0 : 0.5 : 1"
       sodipodi:type="inkscape:persp3d" />
    <inkscape:perspective
       id="perspective3924"
       inkscape:persp3d-origin="0.5 : 0.33333333 : 1"
       inkscape:vp_z="1 : 0.5 : 1"
       inkscape:vp_y="0 : 1000 : 0"
       inkscape:vp_x="0 : 0.5 : 1"
       sodipodi:type="inkscape:persp3d" />
  </defs>
  <sodipodi:namedview
     inkscape:window-height="750"
     inkscape:window-width="1280"
     inkscape:pageshadow="2"
     inkscape:pageopacity="0.0"
     guidetolerance="10.0"
     gridtolerance="10.0"
     objecttolerance="10.0"
     borderopacity="1.0"
     bordercolor="#666666"
     pagecolor="#ffffff"
     id="base"
     inkscape:zoom="0.83833333"
     inkscape:cx="450"
     inkscape:cy="300"
     inkscape:window-x="-8"
     inkscape:window-y="-8"
     inkscape:current-layer="layer2"
     showgrid="false"
     inkscape:window-maximized="1"
     showguides="true"
     inkscape:guide-bbox="true">
    <sodipodi:guide
       orientation="0,1"
       position="373.35984,299.40358"
       id="guide3781" />
  </sodipodi:namedview>
  <g
     style="font-size:19.21345711px;font-style:normal;font-variant:normal;font-weight:normal;font-stretch:normal;text-align:start;line-height:100%;writing-mode:lr-tb;text-anchor:start;fill:#000000;fill-opacity:1;stroke:none;font-family:Arial Narrow;-inkscape-font-specification:Arial Narrow"
     id="text3632-1"
     transform="matrix(-0.76274586,0,0,0.76274586,785.94836,125.73834)" />
  <g
     inkscape:groupmode="layer"
     id="layer1"
     inkscape:label="Background"
     style="display:inline"
     sodipodi:insensitive="true">
    <g
       id="g3627"
       transform="translate(0.55601993,269.13337)">
      <path
         style="fill:#ffffff;fill-opacity:1;stroke:none"
         d="m 300,-268 300,0 0,600 -300,0 0,-600 z"
         id="rect2243" />
      <path
         style="fill:#eb2d2e;fill-opacity:1;stroke:#000000;stroke-width:0;stroke-miterlimit:4;stroke-opacity:1"
         d="m 0,-268 300,0 0,600 -300,0 0,-600 z"
         id="rect2262" />
      <path
         style="fill:#000080;fill-opacity:1;stroke:#000000;stroke-width:0;stroke-miterlimit:4;stroke-opacity:1"
         d="m 600,-268 300,0 0,600 -300,0 0,-600 z"
         id="rect3235" />
    </g>
  </g>
  <g
     inkscape:groupmode="layer"
     id="layer2"
     inkscape:label="Text"
     style="display:inline"
     sodipodi:insensitive="true">
    <g
       style="fill:#000000;fill-opacity:1;stroke:none;display:inline"
       id="g2998">
      <g
         transform="scale(0.96877818,1.032228)"
         style="font-size:21.51752281px;font-style:normal;font-variant:normal;font-weight:normal;font-stretch:normal;text-align:start;line-height:125%;writing-mode:lr-tb;text-anchor:start;fill:#000000;fill-opacity:1;stroke:none;font-family:Century Gothic;-inkscape-font-specification:Century Gothic"
         id="text2849">
        <path
           d="m 344.81143,423.26229 3.07843,0 c 1.76511,10e-6 2.95585,0.0771 3.57225,0.23114 0.88254,0.21715 1.604,0.66368 2.16436,1.33959 0.56034,0.67594 0.84052,1.52522 0.84053,2.54785 -10e-6,1.02966 -0.27319,1.87894 -0.81952,2.54786 -0.54635,0.66892 -1.29932,1.11896 -2.25892,1.35009 -0.70045,0.16812 -2.01027,0.25217 -3.92947,0.25216 l -1.10319,0 0,7.18652 -1.54447,0 z m 1.54447,1.50244 0,5.2533 2.61614,0.0315 c 1.05766,10e-6 1.83165,-0.0963 2.32196,-0.28893 0.4903,-0.19261 0.87554,-0.50431 1.15573,-0.93509 0.28017,-0.43076 0.42025,-0.91231 0.42026,-1.44466 -10e-6,-0.51831 -0.14009,-0.99286 -0.42026,-1.42364 -0.28019,-0.43076 -0.64967,-0.7372 -1.10845,-0.91933 -0.45879,-0.1821 -1.21001,-0.27316 -2.25366,-0.27317 z"
           id="path4090"
           style="fill:#000000;fill-opacity:1;stroke:none" />
        <path
           d="m 357.63999,423.26229 3.07844,0 c 1.71607,10e-6 2.8788,0.0701 3.48819,0.21013 0.91757,0.21015 1.66353,0.66018 2.2379,1.3501 0.57435,0.68994 0.86153,1.53923 0.86155,2.54785 -2e-5,0.84054 -0.19789,1.5795 -0.59363,2.21689 -0.39576,0.63741 -0.96136,1.11896 -1.69681,1.44466 -0.73547,0.32571 -1.75111,0.49207 -3.04692,0.49906 l 5.55799,7.18652 -1.9122,0 -5.54748,-7.18652 -0.88256,0 0,7.18652 -1.54447,0 z m 1.54447,1.51295 0,5.2533 2.65817,0.021 c 1.02964,1e-5 1.79137,-0.0981 2.28519,-0.29418 0.4938,-0.19612 0.87904,-0.50956 1.15573,-0.94034 0.27666,-0.43076 0.415,-0.91232 0.41501,-1.44466 -10e-6,-0.51832 -0.1401,-0.98936 -0.42027,-1.41314 -0.28018,-0.42375 -0.64791,-0.72669 -1.10319,-0.90882 -0.4553,-0.1821 -1.21177,-0.27316 -2.26943,-0.27317 z"
           id="path4092"
           style="fill:#000000;fill-opacity:1;stroke:none" />
        <path
           d="m 377.99128,422.87354 c 2.33946,2e-5 4.29719,0.78101 5.87319,2.34297 1.57598,1.562 2.36397,3.4847 2.36399,5.76813 -2e-5,2.26243 -0.78626,4.18163 -2.35873,5.75762 -1.5725,1.57599 -3.48996,2.36398 -5.75237,2.36398 -2.29044,0 -4.22366,-0.78449 -5.79964,-2.35348 -1.576,-1.56898 -2.36399,-3.46717 -2.36399,-5.69457 0,-1.48493 0.35898,-2.86129 1.07693,-4.1291 0.71795,-1.26778 1.69681,-2.26066 2.93659,-2.97862 1.23978,-0.71794 2.58112,-1.07691 4.02403,-1.07693 z m 0.0735,1.51295 c -1.14173,2e-5 -2.22391,0.2977 -3.24654,0.89306 -1.02265,0.59539 -1.82115,1.39739 -2.39551,2.40602 -0.57436,1.00864 -0.86154,2.13284 -0.86154,3.37262 0,1.83515 0.63565,3.38488 1.90695,4.64917 1.27129,1.26429 2.8035,1.89644 4.59664,1.89644 1.19774,0 2.30619,-0.29068 3.32534,-0.87205 1.01913,-0.58136 1.81412,-1.37636 2.385,-2.385 0.57084,-1.00863 0.85627,-2.12933 0.85629,-3.36211 -2e-5,-1.22576 -0.28545,-2.33421 -0.85629,-3.32534 -0.57088,-0.99111 -1.37463,-1.78436 -2.41127,-2.37975 -1.03666,-0.59536 -2.13635,-0.89304 -3.29907,-0.89306 z"
           id="path4094"
           style="fill:#000000;fill-opacity:1;stroke:none" />
        <path
           d="m 404.23678,425.85742 -1.19776,1.13471 c -0.86155,-0.84752 -1.8054,-1.49017 -2.83153,-1.92796 -1.02615,-0.43776 -2.02603,-0.65665 -2.99963,-0.65666 -1.21177,10e-6 -2.36575,0.2977 -3.46193,0.89306 -1.09619,0.59538 -1.94547,1.40264 -2.54785,2.42177 -0.60238,1.01915 -0.90357,2.09607 -0.90357,3.23078 0,1.16274 0.3117,2.26768 0.93509,3.31483 0.62339,1.04716 1.48493,1.87018 2.58463,2.46905 1.09968,0.59888 2.30443,0.89832 3.61427,0.89832 1.58998,0 2.93483,-0.44828 4.03453,-1.34485 1.09968,-0.89656 1.75109,-2.05929 1.95423,-3.48819 l -4.9276,0 0,-1.49194 6.66119,0 c -0.014,2.38851 -0.72322,4.28495 -2.12759,5.68933 -1.40439,1.40438 -3.28332,2.10657 -5.63679,2.10657 -2.8578,0 -5.12022,-0.97361 -6.78727,-2.92083 -1.2818,-1.49894 -1.92271,-3.23253 -1.9227,-5.20077 -10e-6,-1.46391 0.36773,-2.82627 1.10319,-4.08707 0.73546,-1.26078 1.74409,-2.24665 3.0259,-2.95761 1.2818,-0.71093 2.73171,-1.0664 4.34973,-1.06642 1.30982,2e-5 2.54259,0.23642 3.69833,0.7092 1.15571,0.47281 2.28342,1.23103 3.38313,2.27468 z"
           id="path4096"
           style="fill:#000000;fill-opacity:1;stroke:none" />
        <path
           d="m 408.19777,423.26229 3.07843,0 c 1.71607,10e-6 2.8788,0.0701 3.48819,0.21013 0.91757,0.21015 1.66354,0.66018 2.23791,1.3501 0.57435,0.68994 0.86153,1.53923 0.86154,2.54785 -10e-6,0.84054 -0.19788,1.5795 -0.59362,2.21689 -0.39576,0.63741 -0.96137,1.11896 -1.69682,1.44466 -0.73547,0.32571 -1.75111,0.49207 -3.04691,0.49906 l 5.55799,7.18652 -1.9122,0 -5.54749,-7.18652 -0.88255,0 0,7.18652 -1.54447,0 z m 1.54447,1.51295 0,5.2533 2.65817,0.021 c 1.02964,1e-5 1.79137,-0.0981 2.28518,-0.29418 0.49381,-0.19612 0.87905,-0.50956 1.15573,-0.94034 0.27666,-0.43076 0.415,-0.91232 0.41501,-1.44466 -10e-6,-0.51832 -0.1401,-0.98936 -0.42026,-1.41314 -0.28019,-0.42375 -0.64792,-0.72669 -1.1032,-0.90882 -0.45529,-0.1821 -1.21176,-0.27316 -2.26942,-0.27317 z"
           id="path4098"
           style="fill:#000000;fill-opacity:1;stroke:none" />
        <path
           d="m 421.19443,423.26229 8.85707,0 0,1.52345 -7.3126,0 0,4.83304 7.24956,0 0,1.51295 -7.24956,0 0,6.06231 7.24956,0 0,1.52346 -8.79403,0 z"
           id="path4100"
           style="fill:#000000;fill-opacity:1;stroke:none" />
        <path
           d="m 431.14419,435.83869 1.31333,-0.788 c 0.92457,1.70208 1.99274,2.55311 3.20451,2.55311 0.51832,0 1.00513,-0.12083 1.46042,-0.36248 0.45528,-0.24165 0.80199,-0.5656 1.04015,-0.97186 0.23814,-0.40625 0.35722,-0.83702 0.35723,-1.29231 -1e-5,-0.51832 -0.17512,-1.02614 -0.52533,-1.52346 -0.48332,-0.68642 -1.36587,-1.51294 -2.64767,-2.47956 -1.28881,-0.9736 -2.09082,-1.67754 -2.40601,-2.11182 -0.54635,-0.72845 -0.81952,-1.51645 -0.81952,-2.36399 0,-0.67241 0.1611,-1.28529 0.48331,-1.83866 0.3222,-0.55333 0.77573,-0.98935 1.3606,-1.30807 0.58487,-0.31868 1.22052,-0.47803 1.90695,-0.47805 0.72845,2e-5 1.40963,0.18038 2.04354,0.54109 0.63389,0.36074 1.30456,1.02441 2.01201,1.991 l -1.26079,0.9561 c -0.58137,-0.77047 -1.07694,-1.27829 -1.48669,-1.52345 -0.40976,-0.24514 -0.85629,-0.36772 -1.33959,-0.36773 -0.62339,10e-6 -1.13296,0.18913 -1.52871,0.56735 -0.39575,0.37825 -0.59363,0.84405 -0.59362,1.39738 -10e-6,0.33622 0.07,0.66193 0.21013,0.97711 0.14008,0.31521 0.39575,0.65843 0.76698,1.02965 0.20313,0.19613 0.86854,0.71096 1.99626,1.54447 1.33783,0.98763 2.25541,1.86668 2.75273,2.63716 0.4973,0.77049 0.74596,1.54447 0.74597,2.32196 -1e-5,1.12071 -0.42553,2.09432 -1.27656,2.92083 -0.85104,0.82652 -1.88594,1.23978 -3.1047,1.23978 -0.93859,0 -1.78963,-0.2504 -2.5531,-0.75122 -0.76348,-0.50081 -1.46743,-1.33959 -2.11183,-2.51633 z"
           id="path4102"
           style="fill:#000000;fill-opacity:1;stroke:none" />
        <path
           d="m 441.86092,435.83869 1.31332,-0.788 c 0.92458,1.70208 1.99275,2.55311 3.20452,2.55311 0.51832,0 1.00512,-0.12083 1.46042,-0.36248 0.45527,-0.24165 0.80199,-0.5656 1.04015,-0.97186 0.23814,-0.40625 0.35722,-0.83702 0.35722,-1.29231 0,-0.51832 -0.17511,-1.02614 -0.52533,-1.52346 -0.48331,-0.68642 -1.36586,-1.51294 -2.64766,-2.47956 -1.28881,-0.9736 -2.09082,-1.67754 -2.40601,-2.11182 -0.54635,-0.72845 -0.81952,-1.51645 -0.81952,-2.36399 0,-0.67241 0.1611,-1.28529 0.48331,-1.83866 0.3222,-0.55333 0.77573,-0.98935 1.3606,-1.30807 0.58487,-0.31868 1.22051,-0.47803 1.90695,-0.47805 0.72845,2e-5 1.40963,0.18038 2.04353,0.54109 0.63389,0.36074 1.30457,1.02441 2.01202,1.991 l -1.26079,0.9561 c -0.58138,-0.77047 -1.07694,-1.27829 -1.48669,-1.52345 -0.40976,-0.24514 -0.85629,-0.36772 -1.33959,-0.36773 -0.6234,10e-6 -1.13297,0.18913 -1.52871,0.56735 -0.39575,0.37825 -0.59363,0.84405 -0.59362,1.39738 -1e-5,0.33622 0.07,0.66193 0.21013,0.97711 0.14008,0.31521 0.39574,0.65843 0.76698,1.02965 0.20312,0.19613 0.86854,0.71096 1.99625,1.54447 1.33784,0.98763 2.25541,1.86668 2.75273,2.63716 0.49731,0.77049 0.74596,1.54447 0.74597,2.32196 -1e-5,1.12071 -0.42552,2.09432 -1.27655,2.92083 -0.85104,0.82652 -1.88594,1.23978 -3.1047,1.23978 -0.93859,0 -1.78963,-0.2504 -2.5531,-0.75122 -0.76349,-0.50081 -1.46743,-1.33959 -2.11183,-2.51633 z"
           id="path4104"
           style="fill:#000000;fill-opacity:1;stroke:none" />
      </g>
      <g
         transform="scale(0.96877821,1.032228)"
         style="font-size:21.51752281px;font-style:normal;font-variant:normal;font-weight:normal;font-stretch:normal;text-align:start;line-height:125%;writing-mode:lr-tb;text-anchor:start;fill:#000000;fill-opacity:1;stroke:none;font-family:Century Gothic;-inkscape-font-specification:Century Gothic"
         id="text2849-1">
        <path
           d="m 474.94424,422.993 3.07844,0 c 1.7651,1e-5 2.95585,0.0771 3.57224,0.23114 0.88255,0.21716 1.604,0.66369 2.16436,1.3396 0.56034,0.67593 0.84052,1.52522 0.84053,2.54785 -10e-6,1.02965 -0.27318,1.87894 -0.81952,2.54785 -0.54635,0.66893 -1.29932,1.11896 -2.25892,1.3501 -0.70044,0.16811 -2.01026,0.25216 -3.92946,0.25216 l -1.1032,0 0,7.18651 -1.54447,0 z m 1.54447,1.50244 0,5.2533 2.61615,0.0315 c 1.05765,1e-5 1.83164,-0.0963 2.32196,-0.28893 0.49029,-0.19261 0.87554,-0.5043 1.15572,-0.93508 0.28017,-0.43077 0.42026,-0.91232 0.42027,-1.44466 -1e-5,-0.51832 -0.1401,-0.99286 -0.42027,-1.42365 -0.28018,-0.43076 -0.64967,-0.7372 -1.10844,-0.91933 -0.4588,-0.1821 -1.21002,-0.27315 -2.25367,-0.27317 z"
           id="path4107"
           style="fill:#000000;fill-opacity:1;stroke:none" />
        <path
           d="m 487.7728,422.993 3.07844,0 c 1.71607,1e-5 2.8788,0.0701 3.48819,0.21013 0.91757,0.21015 1.66354,0.66018 2.23791,1.3501 0.57435,0.68995 0.86153,1.53923 0.86154,2.54785 -10e-6,0.84054 -0.19789,1.5795 -0.59362,2.21689 -0.39576,0.63741 -0.96137,1.11896 -1.69682,1.44466 -0.73547,0.32571 -1.75111,0.49207 -3.04692,0.49907 l 5.558,7.18651 -1.9122,0 -5.54749,-7.18651 -0.88256,0 0,7.18651 -1.54447,0 z m 1.54447,1.51295 0,5.2533 2.65818,0.021 c 1.02964,10e-6 1.79136,-0.0981 2.28518,-0.29418 0.4938,-0.19611 0.87904,-0.50956 1.15573,-0.94034 0.27666,-0.43076 0.415,-0.91231 0.41501,-1.44466 -10e-6,-0.51831 -0.1401,-0.98936 -0.42027,-1.41314 -0.28018,-0.42375 -0.64791,-0.72669 -1.10319,-0.90882 -0.45529,-0.1821 -1.21177,-0.27316 -2.26943,-0.27317 z"
           id="path4109"
           style="fill:#000000;fill-opacity:1;stroke:none" />
        <path
           d="m 508.1241,422.60425 c 2.33945,2e-5 4.29718,0.78101 5.87319,2.34298 1.57597,1.56199 2.36396,3.4847 2.36398,5.76812 -2e-5,2.26243 -0.78626,4.18163 -2.35873,5.75762 -1.5725,1.57599 -3.48996,2.36399 -5.75237,2.36399 -2.29044,0 -4.22366,-0.7845 -5.79964,-2.35348 -1.57599,-1.56899 -2.36399,-3.46718 -2.36399,-5.69458 0,-1.48493 0.35898,-2.86129 1.07693,-4.1291 0.71795,-1.26778 1.69681,-2.26065 2.9366,-2.97862 1.23977,-0.71793 2.58111,-1.07691 4.02403,-1.07693 z m 0.0735,1.51296 c -1.14172,10e-6 -2.2239,0.2977 -3.24654,0.89306 -1.02265,0.59538 -1.82115,1.39739 -2.3955,2.40601 -0.57437,1.00864 -0.86155,2.13285 -0.86155,3.37262 0,1.83516 0.63565,3.38488 1.90695,4.64917 1.2713,1.2643 2.80351,1.89644 4.59664,1.89644 1.19774,0 2.30619,-0.29068 3.32534,-0.87205 1.01913,-0.58136 1.81413,-1.37636 2.385,-2.385 0.57084,-1.00862 0.85627,-2.12933 0.85629,-3.36211 -2e-5,-1.22576 -0.28545,-2.3342 -0.85629,-3.32534 -0.57087,-0.99111 -1.37463,-1.78436 -2.41127,-2.37974 -1.03666,-0.59536 -2.13635,-0.89305 -3.29907,-0.89306 z"
           id="path4111"
           style="fill:#000000;fill-opacity:1;stroke:none" />
        <path
           d="m 517.86371,435.5694 1.31333,-0.78799 c 0.92458,1.70207 1.99275,2.5531 3.20451,2.5531 0.51832,0 1.00513,-0.12082 1.46042,-0.36248 0.45528,-0.24165 0.802,-0.5656 1.04016,-0.97186 0.23814,-0.40625 0.35721,-0.83702 0.35722,-1.29231 -10e-6,-0.51832 -0.17512,-1.02614 -0.52533,-1.52346 -0.48331,-0.68642 -1.36586,-1.51294 -2.64766,-2.47955 -1.28882,-0.97361 -2.09082,-1.67755 -2.40602,-2.11183 -0.54634,-0.72845 -0.81951,-1.51644 -0.81951,-2.36399 0,-0.67241 0.1611,-1.28529 0.4833,-1.83865 0.3222,-0.55334 0.77574,-0.98936 1.36061,-1.30808 0.58486,-0.31868 1.22051,-0.47803 1.90695,-0.47805 0.72845,2e-5 1.40963,0.18038 2.04353,0.54109 0.63389,0.36075 1.30456,1.02441 2.01201,1.99101 l -1.26079,0.9561 c -0.58137,-0.77047 -1.07693,-1.27829 -1.48668,-1.52346 -0.40977,-0.24514 -0.8563,-0.36772 -1.33959,-0.36773 -0.6234,1e-5 -1.13297,0.18913 -1.52871,0.56735 -0.39576,0.37826 -0.59363,0.84405 -0.59363,1.39738 0,0.33623 0.07,0.66193 0.21013,0.97712 0.14009,0.31521 0.39575,0.65842 0.76699,1.02964 0.20312,0.19614 0.86854,0.71096 1.99625,1.54447 1.33783,0.98763 2.25541,1.86668 2.75273,2.63716 0.4973,0.77049 0.74596,1.54448 0.74597,2.32196 -10e-6,1.12071 -0.42553,2.09432 -1.27655,2.92084 -0.85104,0.82652 -1.88594,1.23978 -3.1047,1.23978 -0.9386,0 -1.78963,-0.25041 -2.55311,-0.75123 -0.76348,-0.50081 -1.46742,-1.33959 -2.11183,-2.51633 z"
           id="path4113"
           style="fill:#000000;fill-opacity:1;stroke:none" />
        <path
           d="m 530.16695,422.993 3.07843,0 c 1.7651,1e-5 2.95585,0.0771 3.57225,0.23114 0.88254,0.21716 1.60399,0.66369 2.16436,1.3396 0.56034,0.67593 0.84051,1.52522 0.84053,2.54785 -2e-5,1.02965 -0.27319,1.87894 -0.81952,2.54785 -0.54635,0.66893 -1.29933,1.11896 -2.25892,1.3501 -0.70045,0.16811 -2.01027,0.25216 -3.92947,0.25216 l -1.10319,0 0,7.18651 -1.54447,0 z m 1.54447,1.50244 0,5.2533 2.61614,0.0315 c 1.05766,1e-5 1.83165,-0.0963 2.32196,-0.28893 0.4903,-0.19261 0.87554,-0.5043 1.15573,-0.93508 0.28016,-0.43077 0.42025,-0.91232 0.42026,-1.44466 -10e-6,-0.51832 -0.1401,-0.99286 -0.42026,-1.42365 -0.28019,-0.43076 -0.64967,-0.7372 -1.10845,-0.91933 -0.4588,-0.1821 -1.21002,-0.27315 -2.25367,-0.27317 z"
           id="path4115"
           style="fill:#000000;fill-opacity:1;stroke:none" />
        <path
           d="m 542.92197,422.993 8.85706,0 0,1.52346 -7.31259,0 0,4.83303 7.24955,0 0,1.51295 -7.24955,0 0,6.06231 7.24955,0 0,1.52346 -8.79402,0 z"
           id="path4117"
           style="fill:#000000;fill-opacity:1;stroke:none" />
        <path
           d="m 554.55277,422.993 3.07843,0 c 1.71608,1e-5 2.87881,0.0701 3.4882,0.21013 0.91756,0.21015 1.66353,0.66018 2.2379,1.3501 0.57435,0.68995 0.86153,1.53923 0.86155,2.54785 -2e-5,0.84054 -0.19789,1.5795 -0.59363,2.21689 -0.39576,0.63741 -0.96136,1.11896 -1.69681,1.44466 -0.73548,0.32571 -1.75111,0.49207 -3.04692,0.49907 l 5.55799,7.18651 -1.9122,0 -5.54748,-7.18651 -0.88256,0 0,7.18651 -1.54447,0 z m 1.54447,1.51295 0,5.2533 2.65817,0.021 c 1.02964,10e-6 1.79137,-0.0981 2.28519,-0.29418 0.4938,-0.19611 0.87904,-0.50956 1.15572,-0.94034 0.27667,-0.43076 0.415,-0.91231 0.41501,-1.44466 -10e-6,-0.51831 -0.14009,-0.98936 -0.42026,-1.41314 -0.28018,-0.42375 -0.64792,-0.72669 -1.10319,-0.90882 -0.4553,-0.1821 -1.21177,-0.27316 -2.26943,-0.27317 z"
           id="path4119"
           style="fill:#000000;fill-opacity:1;stroke:none" />
        <path
           d="m 567.31829,422.993 1.54447,0 0,15.45521 -1.54447,0 z"
           id="path4121"
           style="fill:#000000;fill-opacity:1;stroke:none" />
        <path
           d="m 570.88004,424.49544 0,-1.50244 8.47882,0 0,1.50244 -3.44616,0 0,13.95277 -1.57599,0 0,-13.95277 z"
           id="path4123"
           style="fill:#000000;fill-opacity:1;stroke:none" />
        <path
           d="m 580.35699,422.993 1.78612,0 3.95049,6.367 3.88744,-6.367 1.78612,0 -4.89607,8.06907 0,7.38614 -1.52346,0 0,-7.38614 z"
           id="path4125"
           style="fill:#000000;fill-opacity:1;stroke:none" />
      </g>
      <g
         style="fill:#000000;fill-opacity:1;stroke:none"
         transform="matrix(1.1727782,0,0,1.1727782,-74.185791,-82.977803)"
         id="g3744">
        <g
           id="text3632"
           style="font-size:19.21345711px;font-style:normal;font-variant:normal;font-weight:normal;font-stretch:normal;text-align:start;line-height:100%;writing-mode:lr-tb;text-anchor:start;fill:#000000;fill-opacity:1;stroke:none;font-family:Arial Narrow;-inkscape-font-specification:Arial Narrow" />
        <g
           style="fill:#000000;fill-opacity:1;stroke:none"
           id="g3739"
           transform="matrix(0.96670561,0,0,0.96670561,13.796619,14.807307)">
          <path
             id="path3737"
             d="m 445.51526,455.45083 1.03158,0 0,1.89674 -1.03158,0 0,-1.89674 z"
             style="fill:#000000;fill-opacity:1;fill-rule:evenodd;stroke:none" />
          <path
             id="path3735"
             d="m 445.56138,442.86166 1.03159,0 0,1.9944 -1.03159,0 0,-1.9944 z"
             style="fill:#000000;fill-opacity:1;fill-rule:evenodd;stroke:none" />
          <path
             id="rect3706-4"
             d="m 448.81639,452.55803 -1.05906,-0.17174 c -0.21944,1.3739 -0.7752,2.06085 -1.66729,2.06085 -0.48181,0 -0.89923,-0.20393 -1.25226,-0.61181 -0.35301,-0.40788 -0.52952,-0.93621 -0.52952,-1.585 0,-0.61062 0.1622,-1.10199 0.48659,-1.47408 0.3244,-0.3721 0.72274,-0.55815 1.19502,-0.55815 0.20035,0 0.44842,0.0477 0.74419,0.14311 l -0.12165,-1.13061 -0.16458,0.0143 c -0.51998,1e-5 -0.94217,-0.1598 -1.26657,-0.47943 -0.32438,-0.31962 -0.48658,-0.74658 -0.48659,-1.28088 1e-5,-0.49136 0.13597,-0.88611 0.40788,-1.18428 0.27192,-0.29815 0.60347,-0.44722 0.99465,-0.44723 0.4055,1e-5 0.74778,0.15624 1.02685,0.4687 0.27908,0.31247 0.45677,0.78595 0.5331,1.42041 l 1.0519,-0.22898 c -0.13357,-0.89684 -0.43411,-1.57425 -0.90163,-2.03223 -0.4675,-0.45796 -1.03281,-0.68694 -1.69591,-0.68696 -0.69649,2e-5 -1.28803,0.25762 -1.77463,0.77282 -0.48658,0.51523 -0.72988,1.16401 -0.72989,1.94637 1e-5,0.47706 0.10377,0.89925 0.31128,1.26657 0.20752,0.36733 0.49733,0.65595 0.86942,0.86585 -0.34347,0.0954 -0.62731,0.25284 -0.85153,0.47227 -0.2242,0.21945 -0.40549,0.51284 -0.54383,0.88017 -0.13834,0.36733 -0.20752,0.77759 -0.20752,1.23079 0,0.96363 0.28385,1.75196 0.85153,2.36497 0.56769,0.61301 1.24749,0.91952 2.03939,0.91952 0.73466,0 1.35721,-0.26716 1.86765,-0.80145 0.51044,-0.5343 0.80145,-1.25225 0.87301,-2.15388 z"
             style="fill:#000000;fill-opacity:1;fill-rule:evenodd;stroke:none" />
        </g>
      </g>
    </g>
    <g
       style="font-size:35.55239105px;font-style:normal;font-variant:normal;font-weight:bold;font-stretch:normal;text-align:start;line-height:125%;writing-mode:lr-tb;text-anchor:start;fill:#000080;fill-opacity:1;stroke:none;display:inline;font-family:Century Gothic;-inkscape-font-specification:Century Gothic Bold"
       id="text3754"
       transform="translate(0,-30.06533)">
      <path
         d="m 377.78055,277.60251 -3.40247,3.24624 c -2.31463,-2.44189 -4.91856,-3.66285 -7.81181,-3.66287 -2.44192,2e-5 -4.49903,0.83328 -6.17132,2.49978 -1.67231,1.66653 -2.50847,3.72075 -2.50846,6.16264 -10e-6,1.70125 0.37033,3.21153 1.11101,4.53085 0.74067,1.31933 1.78803,2.35512 3.14208,3.10736 1.35404,0.75225 2.85853,1.12838 4.51349,1.12837 1.4119,10e-6 2.70229,-0.26328 3.87118,-0.78986 1.16886,-0.52656 2.45347,-1.48423 3.85383,-2.873 l 3.29832,3.43719 c -1.88644,1.84012 -3.66868,3.11604 -5.34675,3.82778 -1.67811,0.71175 -3.59345,1.06762 -5.74602,1.06762 -3.96956,0 -7.21869,-1.25857 -9.74739,-3.77571 -2.52872,-2.51713 -3.79307,-5.74311 -3.79307,-9.67796 0,-2.54605 0.57576,-4.80858 1.72728,-6.78759 1.15151,-1.97897 2.80067,-3.57026 4.94747,-4.77388 2.14679,-1.20357 4.45851,-1.80537 6.93515,-1.80539 2.10628,2e-5 4.13445,0.44559 6.08453,1.33668 1.95003,0.89115 3.63102,2.1584 5.04295,3.80175 z"
         id="path4071" />
      <path
         d="m 382.01629,273.10638 4.86068,0 0,20.90092 7.0827,0 0,4.635 -11.94338,0 z"
         id="path4073" />
      <path
         d="m 397.65725,273.10638 13.93974,0 0,4.75652 -9.11378,0 0,4.61765 9.11378,0 0,4.66972 -9.11378,0 0,6.71815 9.11378,0 0,4.77388 -13.93974,0 z"
         id="path4075" />
      <path
         d="m 414.1662,273.10638 4.99956,0 6.42304,18.14075 6.50984,-18.14075 4.99955,0 -9.20057,25.53592 -4.68708,0 z"
         id="path4077" />
      <path
         d="m 441.05617,273.10638 13.93973,0 0,4.75652 -9.11377,0 0,4.61765 9.11377,0 0,4.66972 -9.11377,0 0,6.71815 9.11377,0 0,4.77388 -13.93973,0 z"
         id="path4079" />
      <path
         d="m 459.50939,273.10638 4.86067,0 0,20.90092 7.08271,0 0,4.635 -11.94338,0 z"
         id="path4081" />
      <path
         d="m 482.91008,273.10638 4.93012,0 9.82551,25.53592 -5.05163,0 -1.99635,-5.25995 -10.41574,0 -2.08315,5.25995 -5.05163,0 z m 2.49978,6.77023 -3.40247,8.76658 6.78759,0 z"
         id="path4083" />
      <path
         d="m 501.46746,273.10638 4.65236,0 10.95389,16.80406 0,-16.80406 4.86068,0 0,25.53592 -4.66973,0 -10.93652,-16.75198 0,16.75198 -4.86068,0 z"
         id="path4085" />
      <path
         d="m 527.78457,273.10638 5.76337,0 c 3.71494,3e-5 6.47511,0.46006 8.28052,1.38009 1.80537,0.92008 3.29251,2.41589 4.4614,4.48745 1.16886,2.07159 1.7533,4.49035 1.75332,7.25629 -2e-5,1.96743 -0.32696,3.77572 -0.98082,5.42487 -0.65389,1.64916 -1.55659,3.01767 -2.70809,4.10554 -1.15153,1.08786 -2.39853,1.84011 -3.74098,2.25674 -1.34249,0.41663 -3.66867,0.62494 -6.97855,0.62494 l -5.85017,0 z m 4.84332,4.68708 0,16.09232 2.25674,0 c 2.22201,10e-6 3.83356,-0.2546 4.83464,-0.76382 1.00105,-0.50921 1.81984,-1.36561 2.45638,-2.56921 0.6365,-1.20359 0.95475,-2.68494 0.95477,-4.44405 -2e-5,-2.70808 -0.75805,-4.80859 -2.2741,-6.30153 -1.36563,-1.34245 -3.55872,-2.01368 -6.57928,-2.01371 z"
         id="path4087" />
    </g>
  </g>
  <g
     inkscape:groupmode="layer"
     id="layer3"
     inkscape:label="Shield"
     style="display:inline"
     sodipodi:insensitive="true">
    <path
       style="fill:none;stroke:#eb2d2e;stroke-width:6;stroke-linecap:butt;stroke-linejoin:miter;stroke-miterlimit:4;stroke-opacity:1;stroke-dasharray:none;display:inline"
       d="m 355.04826,277.35826 192.2134,0 c -0.7074,62.04467 -27.4742,112.06596 -96.8564,142.64174 -82.2951,-33.5058 -98.8414,-85.28955 -95.357,-142.64174 z"
       id="path3752"
       sodipodi:nodetypes="cccc" />
    <path
       id="path3760-8-8-2"
       style="fill:none;stroke:#000080;stroke-width:6;stroke-linecap:butt;stroke-linejoin:miter;stroke-miterlimit:4;stroke-opacity:1;stroke-dasharray:none;display:inline"
       d="m 451.06699,234.58252 -96.4497,0.10782 0.3815,-19.92145 c -0.20728,-6.66549 1.27055,-16.68085 8.9112,-18.63241 25.3507,-6.20721 24.7306,-10.94131 31.1753,-16.97183 31.9366,19.51503 40.8363,14.99162 55.9817,16.98547 27.811,0.25246 36.99388,-8.97518 52.00478,-17.00517 8.02541,7.61122 13.04357,13.21117 35.15232,16.17642 6.95848,1.40788 9.13627,12.70193 8.9112,19.42781 l 0.3815,19.92146 -96.4498,-0.0881 0,-2e-5 z"
       sodipodi:nodetypes="cccccccccccc" />
    <g
       style="display:inline"
       id="g3717"
       transform="matrix(1.0736342,0,0,1.0736342,-33.540847,-59.061757)">
      <path
         sodipodi:nodetypes="csccccccccccscccccccccsccccccccccscccccscccccscc"
         d="m 444.14833,419.82187 c -0.85435,-0.0464 -3.19994,1.90677 -4.79991,2.86016 -0.9631,0.59248 -1.90216,3.32167 0.63367,5.95905 2.2788,2.2752 6.11272,3.89976 3.88819,8.05921 l -1.03117,2.72096 -0.95237,-2.17135 -3.25763,0.49149 2.55995,-2.40595 c 2.03847,-2.23533 -1.5478,-4.58399 -3.11015,-5.83651 -5.72069,-4.29491 -3.82807,-6.31862 -0.86223,-8.01349 l 0,0 5.8991,-2.74581 c 0.16418,-0.22551 1.56366,-0.84167 0.0296,-1.30975 -4.97009,-1.51662 -5.97193,-2.14176 -7.94292,-3.49516 -3.33295,-2.65326 -2.93369,-6.16347 -0.99288,-8.38836 l 0,0 c 3.8218,-2.90128 5.51238,-2.82679 8.43935,-1.99723 4.60114,2.07993 5.64537,6.58822 7.23704,11.37861 1.5917,-4.60182 2.63595,-9.11012 7.23707,-11.19003 2.92699,-0.82958 4.61755,-0.90408 8.43934,1.99721 l 0,0 c 1.94083,2.22488 2.34009,5.7351 -0.99288,8.38836 -1.97096,1.35341 -2.97284,1.97851 -7.94288,3.49518 -1.53393,0.46806 -0.13441,1.08424 0.0296,1.30974 l 5.89915,2.74579 0,0 c 2.96581,1.69488 4.85843,3.71859 -0.86223,8.01351 -1.56238,1.25252 -5.14864,3.60118 -3.11017,5.8365 l 2.55996,2.40595 -3.25765,-0.49148 -0.95237,2.17135 -1.03115,-2.72095 c -2.22455,-4.15947 1.60938,-5.784 3.88819,-8.05923 2.53581,-2.63738 1.59678,-5.36657 0.63367,-5.95905 -1.59999,-0.95338 -3.94558,-2.90666 -4.79994,-2.86015 -3.80812,0.55024 -7.66276,0.49754 -11.47564,-0.18857 z m 8.13469,-4.69983 c 1.08285,-0.0398 2.21842,0.17436 3.41828,0.69916 2.71525,-0.50341 5.34193,-1.18165 6.75858,-2.99597 2.66012,-3.66051 1.9386,-5.45813 0.37233,-6.69072 -1.44793,-0.99779 -2.89587,-1.33645 -4.34381,-0.2996 -3.8001,2.69762 -4.54576,6.09744 -6.20538,9.28713 z m -4.79371,-0.18856 c -1.08288,-0.04 -2.21844,0.17436 -3.4183,0.69916 -2.71526,-0.50341 -5.34192,-1.18166 -6.75857,-2.99599 -2.66013,-3.66052 -1.9386,-5.45811 -0.37233,-6.69071 1.44795,-0.9978 2.89586,-1.33646 4.34379,-0.29958 3.80013,2.6976 4.54576,6.09743 6.20541,9.28712 z"
         style="fill:#eb2d2e;fill-opacity:1;fill-rule:evenodd;stroke:none"
         id="path2890-1" />
      <g
         transform="matrix(0.85371804,0,0,0.85371804,66.791407,50.394901)"
         id="g3823">
        <path
           d="m 460.16406,420.09428 c 3.13474,-2.43382 6.51687,-4.47839 10.12818,-6.13611 -2.5221,2.12834 -5.63943,4.58516 -9.53204,6.44172 l -16.84176,17.30589 -0.48296,-0.13497 16.31756,-16.98878 0.41102,-0.48774 0,10e-6 0,-2e-5 z m 14.43258,2.78821 c -4.46768,0.19054 -10.10017,0.0635 -15.46757,-1.56127 0.009,-5.31873 0.6022,-9.99262 1.26317,-13.17314 0.50474,2.85115 0.85755,6.10922 -0.0832,12.06067 5.23882,0.54394 10.0192,1.54935 14.28758,2.67374 l 0,0 2e-5,0 z m -7.07552,-6.07017 c 5.66324,-4.8949 10.15603,-2.63498 15.02965,-2.7031 -4.98554,1.90489 -9.916,6.08017 -15.02965,2.7031 z m -2.72537,-1.89823 c 2.04022,-5.57637 5.87591,-6.07464 9.1274,-8.22522 -2.6638,3.3727 -4.47115,8.17243 -9.1274,8.22522 z m 6.77929,-2.37975 c 3.8917,-4.30442 7.61058,-3.1828 11.38571,-3.82669 -3.67315,2.01388 -7.07016,5.69766 -11.38571,3.82669 z m 12.26406,-4.02127 c 4.02163,-5.25145 8.18912,-4.29056 12.30916,-5.35101 -3.92278,2.61648 -7.43776,7.11652 -12.30916,5.35101 z m -3.8467,-1.04985 c 2.03816,-5.57719 5.87367,-6.07708 9.12438,-8.22903 -2.66257,3.37381 -4.46814,8.1743 -9.12438,8.22903 z m -9.869,-81.79793 c -5.53848,0.87019 -7.84513,-2.44577 -11.20336,-4.39965 4.05887,0.80191 8.85142,0.10048 11.20336,4.39965 z m 17.27843,78.20216 c 2.00568,-6.31688 6.716,-6.37844 10.54628,-8.47537 -2.9864,3.62376 -4.77635,9.05379 -10.54628,8.47537 z m 10.10117,-5.45392 c 2.63368,-6.75149 6.18262,-7.58221 9.43376,-10.33946 -2.88977,4.17244 -5.20313,9.98686 -9.43376,10.33946 z m -4.43841,-2.7054 c 0.30705,-6.61803 3.91479,-8.24003 6.44856,-11.48761 -1.58694,4.40605 -1.90147,10.11684 -6.44856,11.48761 z m 12.50991,-11.01092 c -1.1511,-7.98428 1.79997,-10.68255 3.41628,-15.10081 -0.49908,5.60585 0.4488,12.50601 -3.41628,15.10081 z m -5.14252,5.39026 c -1.37221,-6.84222 1.50217,-9.27761 2.99479,-13.14691 -0.34307,4.85216 0.79594,10.76709 -2.99479,13.14691 z m -0.25035,-7.4081 c -3.02243,-6.20623 -0.85631,-9.37109 -0.37845,-13.52556 0.87451,4.77525 3.44179,10.1538 0.37845,13.52556 z m 4.33441,-6.22693 c -4.68098,-5.79979 -2.6788,-11.58938 -2.85117,-17.38229 1.88387,5.57087 5.8789,10.6369 2.85117,17.38229 z m -4.17816,-11.44581 c -5.73327,-3.36994 -5.57239,-7.28858 -7.32936,-11.02869 3.20408,3.45404 8.12944,6.40545 7.32936,11.02869 z m 7.04331,1.03609 c -4.35897,-5.63713 -3.39362,-9.38367 -4.16071,-13.74534 2.10613,4.6786 5.83904,9.57611 4.16071,13.74534 z m -4.83883,-8.24703 c -6.84168,-2.41842 -7.74948,-5.67097 -10.58801,-8.65209 4.254,2.65108 10.14698,4.77532 10.58801,8.65209 z m 0.17145,-6.84063 c -5.81556,-3.36981 -6.13225,-8.49169 -8.23815,-13.04348 3.43788,3.92492 8.44065,6.89313 8.23815,13.04348 z m -7.49208,-2.03018 c -6.36308,-1.62437 -7.17861,-5.44857 -9.79921,-8.55698 3.94513,2.42239 9.4255,3.8722 9.79921,8.55698 z m -1.35323,-6.6517 c -6.20976,-0.61653 -7.36194,-5.5026 -10.15976,-8.99946 3.98956,2.2636 9.34285,2.86209 10.15976,8.99946 z m -10.03376,-6.72524 c -5.69807,0.35536 -7.36344,-3.87414 -10.34096,-6.61184 3.89881,1.45284 8.81953,1.20675 10.34096,6.61184 z m 1.72975,-2.671 c -5.24273,-2.35469 -5.86238,-5.49058 -7.98631,-8.37225 3.23007,2.5691 7.74478,4.63688 7.98631,8.37225 z m -6.45795,-3.40458 c -6.17633,-0.50379 -7.59644,-4.40472 -10.56409,-7.20029 4.07535,1.81377 9.40369,2.30152 10.56409,7.20029 z m -5.20007,-6.30131 c -5.65425,-0.64273 -7.09061,-3.45561 -9.89939,-5.56236 3.7842,1.46716 8.66405,2.05903 9.89939,5.56236 z m -7.73258,-2.82819 c -5.35617,1.74076 -8.09776,-1.17182 -11.69008,-2.57031 4.12519,0.14792 8.76715,-1.30731 11.69008,2.57031 z m -29.1147,99.30351 c -3.13474,-2.43382 -6.51687,-4.47839 -10.12818,-6.13611 2.5221,2.12834 5.63943,4.58516 9.53204,6.44172 l 17.69796,17.78155 0.38783,-0.32523 -17.07863,-17.27418 -0.41102,-0.48774 0,10e-6 0,-2e-5 z m -14.43258,2.78821 c 5.57466,-0.0309 10.01148,-0.0235 15.37403,-1.64731 -0.009,-5.31873 0.0153,-9.25163 -0.64567,-12.43215 -0.50474,2.85115 -1.38151,5.45427 -0.44076,11.40572 -5.23882,0.54394 -10.0192,1.54935 -14.28758,2.67374 l 0,0 -2e-5,0 z m 7.07552,-6.07017 c -5.66324,-4.8949 -10.15603,-2.63498 -15.02965,-2.7031 4.98554,1.90489 9.916,6.08017 15.02965,2.7031 z m 2.72537,-1.89823 c -2.04022,-5.57637 -5.87591,-6.07464 -9.1274,-8.22522 2.6638,3.3727 4.47115,8.17243 9.1274,8.22522 z m -6.77929,-2.37975 c -3.8917,-4.30442 -7.61058,-3.1828 -11.38571,-3.82669 3.67315,2.01388 7.07016,5.69766 11.38571,3.82669 z m -12.26406,-4.02127 c -4.02163,-5.25145 -8.18912,-4.29056 -12.30916,-5.35101 3.92278,2.61648 7.43776,7.11652 12.30916,5.35101 z m 3.8467,-1.04985 c -2.03816,-5.57719 -5.87367,-6.07708 -9.12438,-8.22903 2.66257,3.37381 4.46814,8.1743 9.12438,8.22903 z m 9.869,-81.79793 c 5.53848,0.87019 7.84513,-2.44577 11.20336,-4.39965 -4.05887,0.80191 -8.85142,0.10048 -11.20336,4.39965 z m -17.27843,78.20216 c -2.00568,-6.31688 -6.716,-6.37844 -10.54628,-8.47537 2.9864,3.62376 4.77635,9.05379 10.54628,8.47537 z m -10.10117,-5.45392 c -2.63368,-6.75149 -6.18262,-7.58221 -9.43376,-10.33946 2.88977,4.17244 5.20313,9.98686 9.43376,10.33946 z m 4.43841,-2.7054 c -0.30705,-6.61803 -3.91479,-8.24003 -6.44856,-11.48761 1.58694,4.40605 1.90147,10.11684 6.44856,11.48761 z M 391.64875,384.2493 c 1.1511,-7.98428 -1.79997,-10.68255 -3.41628,-15.10081 0.49908,5.60585 -0.4488,12.50601 3.41628,15.10081 z m 5.14252,5.39026 c 1.37221,-6.84222 -1.50217,-9.27761 -2.99479,-13.14691 0.34307,4.85216 -0.79594,10.76709 2.99479,13.14691 z m 0.25035,-7.4081 c 3.02243,-6.20623 0.85631,-9.37109 0.37845,-13.52556 -0.87451,4.77525 -3.44179,10.1538 -0.37845,13.52556 z m -4.33441,-6.22693 c 4.68098,-5.79979 2.6788,-11.58938 2.85117,-17.38229 -1.88387,5.57087 -5.8789,10.6369 -2.85117,17.38229 z m 4.17816,-11.44581 c 5.73327,-3.36994 5.57239,-7.28858 7.32936,-11.02869 -3.20408,3.45404 -8.12944,6.40545 -7.32936,11.02869 z m -7.04331,1.03609 c 4.35897,-5.63713 3.39362,-9.38367 4.16071,-13.74534 -2.10613,4.6786 -5.83904,9.57611 -4.16071,13.74534 z m 4.83883,-8.24703 c 6.84168,-2.41842 7.74948,-5.67097 10.58801,-8.65209 -4.254,2.65108 -10.14698,4.77532 -10.58801,8.65209 z m -0.17145,-6.84063 c 5.81556,-3.36981 6.13225,-8.49169 8.23815,-13.04348 -3.43788,3.92492 -8.44065,6.89313 -8.23815,13.04348 z m 7.49208,-2.03018 c 6.36308,-1.62437 7.17861,-5.44857 9.79921,-8.55698 -3.94513,2.42239 -9.4255,3.8722 -9.79921,8.55698 z m 1.35323,-6.6517 c 6.20976,-0.61653 7.36194,-5.5026 10.15976,-8.99946 -3.98956,2.2636 -9.34285,2.86209 -10.15976,8.99946 z m 10.03376,-6.72524 c 5.69807,0.35536 7.36344,-3.87414 10.34096,-6.61184 -3.89881,1.45284 -8.81953,1.20675 -10.34096,6.61184 z m -1.72975,-2.671 c 5.24273,-2.35469 5.86238,-5.49058 7.98631,-8.37225 -3.23007,2.5691 -7.74478,4.63688 -7.98631,8.37225 z m 6.45795,-3.40458 c 6.17633,-0.50379 7.59644,-4.40472 10.56409,-7.20029 -4.07535,1.81377 -9.40369,2.30152 -10.56409,7.20029 z m 5.20007,-6.30131 c 5.65425,-0.64273 7.09061,-3.45561 9.89939,-5.56236 -3.7842,1.46716 -8.66405,2.05903 -9.89939,5.56236 z m 7.73258,-2.82819 c 5.35617,1.74076 8.09776,-1.17182 11.69008,-2.57031 -4.12519,0.14792 -8.76715,-1.30731 -11.69008,2.57031 z"
           style="fill:#048204;fill-opacity:1;stroke:none"
           id="path2978-4-5"
           sodipodi:nodetypes="cccccccccccccccccccccccccccccccccccccccccccccccccccccccccccccccccccccccccccccccccccccccccccccccccccccccccccccccccccccccccccccccccccccccccccccccccccccccccccccccccccccccccccccccc" />
      </g>
      <g
         style="font-size:33.98419571px;font-style:normal;font-variant:normal;font-weight:bold;font-stretch:normal;text-align:start;line-height:125%;writing-mode:lr-tb;text-anchor:start;fill:#eb2d2e;fill-opacity:1;stroke:none;font-family:Perpetua;-inkscape-font-specification:Perpetua Bold"
         id="text3819">
        <path
           d="m 422.49299,377.53293 0,-0.44804 c 0.7965,-0.12168 1.34686,-0.35953 1.65109,-0.71353 0.30421,-0.354 0.45632,-1.08966 0.45633,-2.20698 l 0,-11.93098 c -1e-5,-0.54205 -0.0304,-0.89052 -0.0913,-1.04541 -0.0609,-0.15486 -0.20189,-0.2323 -0.42314,-0.23231 -0.0885,1e-5 -0.29316,0.0332 -0.61397,0.0996 -0.8297,0.16595 -1.52111,0.25446 -2.07423,0.2655 l 0,-0.39825 c 1.53769,-0.43142 3.67829,-1.69255 6.42181,-3.7834 l 0.48123,0 0,17.02529 c -1e-5,1.05094 0.12721,1.75895 0.38165,2.12401 0.25443,0.36507 0.80756,0.63057 1.65939,0.7965 l 0,0.44804 z"
           id="path4033" />
        <path
           d="m 437.97505,378.04734 8.3633,-16.79297 -8.3633,0 c -0.63057,1e-5 -1.10349,0.14383 -1.41878,0.43144 -0.31528,0.28764 -0.67758,0.92373 -1.08689,1.90829 l -0.48122,0 1.64279,-6.65413 0.43144,0 c 0.0332,0.28764 0.0996,0.47847 0.19912,0.57248 0.0996,0.0941 0.27103,0.14107 0.51441,0.14105 l 11.25063,0 -6.80348,20.39384 z"
           id="path4035" />
        <path
           d="m 452.04663,378.04734 0,-0.44804 c 2.28995,-0.37612 4.13463,-1.45472 5.53405,-3.2358 1.3994,-1.78106 2.2208,-4.06548 2.46418,-6.85325 -1.55983,0.7412 -2.97583,1.11179 -4.24802,1.11178 -1.49345,1e-5 -2.74629,-0.5144 -3.75851,-1.54322 -1.01222,-1.02881 -1.51833,-2.301 -1.51833,-3.81659 0,-1.73681 0.64162,-3.18047 1.92488,-4.33099 1.28326,-1.15049 2.88733,-1.72574 4.81222,-1.72576 2.14613,2e-5 3.88848,0.72738 5.22706,2.18209 1.33855,1.45474 2.00784,3.34367 2.00785,5.6668 -10e-6,2.23464 -0.5642,4.37525 -1.69257,6.42181 -1.12839,2.04658 -2.6412,3.65342 -4.53841,4.82052 -1.89724,1.1671 -3.9687,1.75065 -6.2144,1.75065 z m 2.17379,-15.56503 c 0,1.33858 0.29039,2.40889 0.87118,3.21091 0.58078,0.80205 1.35792,1.20306 2.33144,1.20305 0.99562,10e-6 1.93593,-0.37611 2.82095,-1.12838 0.0885,-0.53099 0.13274,-1.03987 0.13275,-1.52663 -10e-6,-1.83637 -0.2987,-3.29663 -0.89607,-4.38078 -0.59738,-1.08411 -1.39942,-1.62617 -2.4061,-1.62619 -0.78545,2e-5 -1.4575,0.41486 -2.01616,1.24453 -0.55866,0.82971 -0.83799,1.83088 -0.83799,3.00349 z"
           id="path4037" />
        <path
           d="m 478.5636,357.20547 0,0.44803 c -2.35634,0.36509 -4.25633,1.49347 -5.69999,3.38515 -1.44367,1.89171 -2.20975,4.12634 -2.29825,6.70391 1.52663,-0.74118 2.93157,-1.11178 4.21484,-1.11179 1.5045,1e-5 2.76563,0.51166 3.7834,1.53493 1.01774,1.0233 1.52662,2.28719 1.52663,3.7917 -1e-5,1.74789 -0.64164,3.19985 -1.92488,4.35588 -1.28327,1.15604 -2.89841,1.73406 -4.84541,1.73406 -2.13508,0 -3.86913,-0.72737 -5.20217,-2.18209 -1.33304,-1.45473 -1.99956,-3.34366 -1.99956,-5.6668 0,-2.32313 0.55866,-4.48309 1.67598,-6.4799 1.11732,-1.99677 2.64671,-3.58149 4.5882,-4.75413 1.94147,-1.17262 4.00187,-1.75893 6.18121,-1.75895 z m -2.1738,15.53184 c -10e-6,-1.21688 -0.29317,-2.25676 -0.87947,-3.11965 -0.58633,-0.86287 -1.37177,-1.29431 -2.35633,-1.29432 -1.0067,1e-5 -1.94701,0.3872 -2.82095,1.16157 -0.0664,0.37614 -0.0996,0.88502 -0.0996,1.52664 -1e-5,1.83639 0.29868,3.29664 0.89606,4.38077 0.59738,1.08413 1.38835,1.6262 2.37292,1.6262 0.7965,0 1.47685,-0.41761 2.04105,-1.25284 0.56418,-0.83522 0.84627,-1.84467 0.84628,-3.02837 z"
           id="path4039" />
      </g>
      <path
         sodipodi:nodetypes="ccccccccccccc"
         id="path3714"
         d="m 446.02976,415.10618 7.71109,0.12573 0.48194,0.0629 -2.73987,4.97633 -0.94804,0.0732 -1.25725,0.0209 -0.33526,0.005 -3.43641,-5.20169 0.5238,-0.0629 0,2e-5 0,2e-5 0,4.7e-4 0,2e-5 z"
         style="fill:#eb2d2e;fill-opacity:1;stroke:none" />
    </g>
  </g>
  <g
     inkscape:groupmode="layer"
     id="layer5"
     inkscape:label="Anchor, oars and windlass"
     style="display:inline"
     sodipodi:insensitive="true">
    <g
       id="g3873"
       transform="matrix(1.2111422,0,0,1.2111422,-132.73585,-83.071892)">
      <g
         transform="matrix(1.0094278,0,0,1.1400645,-2.9779877,-35.889459)"
         id="g3891">
        <path
           style="fill:#000080;fill-opacity:1;stroke:none;display:inline"
           d="m 486.27899,254.71662 26.8978,-9.4973 0.9628,-1.95144 16.13829,-6.64679 1.23387,2.28459 -15.67512,6.25294 -2.25661,0.48146 -26.91,9.59116 -0.39102,-0.5147 -10e-6,8e-5 z"
           id="path3863"
           sodipodi:nodetypes="cccccccccc" />
        <path
           style="fill:#000080;fill-opacity:1;stroke:none;display:inline"
           d="m 530.72049,254.40586 -24.80467,-9.00309 -0.9628,-1.95144 -16.13829,-6.64679 -1.28321,1.89145 15.87247,6.73345 1.91126,0.30673 25.01421,9.18431 0.39102,-0.5147 1e-5,8e-5 z"
           id="path3863-1"
           sodipodi:nodetypes="cccccccccc" />
      </g>
      <path
         sodipodi:nodetypes="ccccccccccccc"
         id="path3889"
         d="m 507.89097,255.28562 6.52297,-0.039 0.0925,-10.51856 1.63135,-2.84392 0.12418,-5.98973 -10.14116,0.007 0.0389,6.35496 c 0.60249,0.87221 0.78674,0.90794 1.8164,2.63451 l -0.0852,10.39439 0,3.1e-4 0,4e-5 -1e-5,0 7e-5,0 z"
         style="fill:#000080;fill-opacity:1;stroke:none;display:inline" />
      <g
         transform="matrix(1.3692476,0,0,1.4957229,-187.47874,-126.82613)"
         id="g3965">
        <path
           style="fill:#000080;fill-opacity:1;fill-rule:evenodd;stroke:none;display:inline"
           d="m 509.08087,254.39719 c -0.73458,1.18133 -2.29539,0.99616 -4.6795,0.30158 -2.03156,-0.59186 -2.67008,-2.58448 -1.70624,-4.27846 0.96384,-1.69398 1.60727,-1.40863 0.71819,0.15397 -0.88909,1.56261 -0.42785,2.90348 1.38369,3.60428 1.67028,0.64615 3.03555,1.04233 3.92464,-0.3977 -1.30097,1.6057 1.84662,-2.57067 0.35922,0.61633 z"
           id="path3905"
           sodipodi:nodetypes="csccscc" />
        <path
           style="fill:#000080;fill-opacity:1;stroke:none;display:inline"
           d="m 508.27013,248.1137 0.52577,0.25139 -4.18743,6.4864 c -0.70954,0.32466 -0.82986,0.15832 -0.5475,-0.3436 l 4.20916,-6.39419 z"
           id="path3863-0"
           sodipodi:nodetypes="ccccc" />
      </g>
      <path
         sodipodi:nodetypes="cccc"
         id="path3932"
         d="m 500.71806,246.51235 2.23093,1.30371 0.1239,-2.85978 -2.35483,1.55607 z"
         style="fill:#000080;fill-opacity:1;stroke:none;display:inline" />
      <path
         sodipodi:nodetypes="ccccc"
         d="m 516.18961,239.15392 c 1.94741,-4.56953 -0.23286,-4.96895 -0.68685,-3.235 l 0.493,0.009 c 0.18181,-0.26223 0.6707,-0.56649 0.16726,2.2009 l 0.0266,1.0251 z"
         style="fill:#000080;fill-opacity:1;stroke:none;display:inline"
         id="path3743" />
      <path
         sodipodi:nodetypes="ccccc"
         d="m 514.45963,250.81435 -0.0493,1.23265 c -0.37785,1.84076 0.88176,3.68152 -1.13404,5.52228 -0.38699,0.98848 -1.10521,1.69836 0.29583,1.28196 2.95336,-4.43783 0.67405,-5.243 0.88751,-8.03689 z"
         style="fill:#000080;fill-opacity:1;stroke:none"
         id="path3802" />
      <path
         sodipodi:nodetypes="cccc"
         d="m 510.68918,235.95361 c -0.68038,-1.07864 -1.62256,-1.85945 -3.60265,-0.0523 l 0.73019,-7.9e-4 c 0.69372,-0.65249 1.71433,-0.86618 2.35,0.0174"
         style="fill:#000080;fill-opacity:1;stroke:none;display:inline"
         id="path3740" />
      <path
         id="path3795-4-1"
         style="fill:#000080;fill-opacity:1;stroke:none;display:inline"
         d="m 505.98583,254.90496 2.32752,0.78955 c 4.38785,0.33043 8.84459,-0.23891 11.11752,-0.97263 7.22005,-2.42693 11.96625,0.83658 9.04471,-0.79778 -3.67567,-1.54345 -6.65118,0.0153 -9.56396,-0.16194 -2.59925,1.43202 -5.14503,1.24702 -7.77776,1.2447 -3.12078,0.0796 -1.98964,-0.099 -4.69067,-0.43917 l -0.45736,0.33727 z"
         sodipodi:nodetypes="cccccccc" />
    </g>
  </g>
  <g
     inkscape:groupmode="layer"
     id="layer4"
     inkscape:label="Anvil, hammer and wheel"
     style="display:inline"
     sodipodi:insensitive="true">
    <g
       id="g4000"
       transform="translate(0,-30.06533)">
      <path
         id="path3725"
         d="m 414.02748,240.79162 c 0,7.51531 -6.09237,13.60768 -13.60768,13.60768 -7.51531,0 -13.60767,-6.09237 -13.60767,-13.60768 0,-7.51531 6.09236,-13.60767 13.60767,-13.60767 7.51531,0 13.60768,6.09236 13.60768,13.60767 z"
         style="fill:#000080;fill-opacity:1;fill-rule:evenodd;stroke:none" />
      <path
         id="rect3749"
         d="m 398.96537,225.38025 1.9346,0 0,1.885 -1.9346,0 0,-1.885 z"
         style="fill:#000080;fill-opacity:1;fill-rule:evenodd;stroke:none" />
      <path
         id="rect3749-0"
         d="m 402.97938,225.54362 1.87715,0.46794 -0.45594,1.82902 -1.87716,-0.46794 0.45595,-1.82902 z"
         inkscape:transform-center-y="0.98151973"
         inkscape:transform-center-x="-0.018413589"
         style="fill:#000080;fill-opacity:1;fill-rule:evenodd;stroke:none" />
      <path
         id="rect3749-4"
         d="m 406.97249,226.76392 1.68448,0.95146 -0.92705,1.64127 -1.68448,-0.95146 0.92705,-1.64127 z"
         style="fill:#000080;fill-opacity:1;fill-rule:evenodd;stroke:none" />
      <path
         id="rect3749-8"
         d="m 410.51729,229.06008 1.37637,1.35951 -1.32467,1.34109 -1.37636,-1.35951 1.32466,-1.34109 z"
         style="fill:#000080;fill-opacity:1;fill-rule:evenodd;stroke:none" />
      <path
         id="rect3749-8-2"
         d="m 413.12011,232.15259 0.98978,1.66222 -1.61963,0.96441 -0.98977,-1.66222 1.61962,-0.96441 z"
         style="fill:#000080;fill-opacity:1;fill-rule:evenodd;stroke:none" />
      <path
         id="rect3749-8-5"
         d="m 415.04382,235.75512 0.51457,1.8649 -1.81711,0.5014 -0.51457,-1.8649 1.81711,-0.5014 z"
         style="fill:#000080;fill-opacity:1;fill-rule:evenodd;stroke:none" />
      <path
         id="rect3749-8-5-5"
         d="m 415.84946,239.65997 -0.037,1.93423 -1.88466,-0.0361 0.037,-1.93423 1.88467,0.0361 z"
         style="fill:#000080;fill-opacity:1;fill-rule:evenodd;stroke:none" />
      <path
         id="rect3749-8-5-7"
         d="m 415.60666,243.54614 -0.51086,1.86593 -1.81812,-0.49775 0.51085,-1.86593 1.81813,0.49775 z"
         style="fill:#000080;fill-opacity:1;fill-rule:evenodd;stroke:none" />
      <path
         id="rect3749-8-5-52"
         d="m 414.38773,247.33624 -0.90246,1.71121 -1.66737,-0.87931 0.90246,-1.7112 1.66737,0.8793 z"
         style="fill:#000080;fill-opacity:1;fill-rule:evenodd;stroke:none" />
      <path
         id="rect3749-8-5-6"
         d="m 396.75889,225.72358 0.59423,1.84107 -1.79389,0.57903 -0.59423,-1.84107 1.79389,-0.57903 z"
         style="fill:#000080;fill-opacity:1;fill-rule:evenodd;stroke:none" />
      <path
         id="rect3749-8-5-6-2"
         d="m 392.99886,227.23505 1.03884,1.63201 -1.59018,1.01225 -1.03884,-1.63201 1.59018,-1.01225 z"
         style="fill:#000080;fill-opacity:1;fill-rule:evenodd;stroke:none" />
      <path
         id="rect3749-8-5-6-1"
         d="m 389.74937,229.54917 1.41675,1.31738 -1.28362,1.38046 -1.41674,-1.31738 1.28361,-1.38046 z"
         style="fill:#000080;fill-opacity:1;fill-rule:evenodd;stroke:none" />
      <path
         id="rect3749-8-5-6-8"
         d="m 387.29327,232.48023 1.7058,0.91263 -0.88923,1.6621 -1.7058,-0.91263 0.88923,-1.6621 z"
         style="fill:#000080;fill-opacity:1;fill-rule:evenodd;stroke:none" />
      <path
         id="rect3749-8-5-6-7"
         d="m 385.71581,235.93642 1.87359,0.48193 -0.46955,1.82561 -1.87359,-0.48194 0.46955,-1.8256 z"
         style="fill:#000080;fill-opacity:1;fill-rule:evenodd;stroke:none" />
      <path
         sodipodi:nodetypes="ccccc"
         id="rect3749-8-5-6-89"
         d="m 384.94175,239.97986 1.93423,-0.0373 0.0362,1.88467 -1.93424,0.0373 -0.0362,-1.88468 z"
         style="fill:#000080;fill-opacity:1;fill-rule:evenodd;stroke:none" />
      <path
         sodipodi:nodetypes="ccccc"
         id="rect3749-8-5-6-89-7"
         d="m 385.28722,244.23555 1.85882,-0.53611 0.52228,1.81123 -1.85882,0.53611 -0.52228,-1.81123 z"
         style="fill:#000080;fill-opacity:1;fill-rule:evenodd;stroke:none" />
      <path
         sodipodi:nodetypes="ccccc"
         id="rect3749-8-5-6-89-5"
         d="m 386.69823,248.04944 1.63805,-1.02929 1.00283,1.59615 -1.63806,1.02928 -1.00282,-1.59614 z"
         style="fill:#000080;fill-opacity:1;fill-rule:evenodd;stroke:none" />
      <path
         sodipodi:nodetypes="ccccccccccccc"
         id="rect4029"
         d="m 392.44336,249.04887 15.2406,0 0,9.38697 -7.35718,0.59999 -3.45246,-0.0493 -2.55928,-0.64938 -1.7965,-0.37083 -0.0753,-8.91752 3e-5,0 0,7e-5 0,3e-5 3e-5,1e-5 10e-6,0 z"
         style="fill:#000080;fill-opacity:1;fill-rule:evenodd;stroke:none" />
      <path
         sodipodi:nodetypes="cccccccccc"
         id="path2927"
         d="m 401.66598,259.44119 -3.06055,-0.1194 0,-12.50906 c 0.49735,-7.0758 -3.73693,-6.84032 -6.89496,-7.21672 l -0.27823,-2.70299 16.92864,0.11942 0,5.49769 c -4.0689,-0.34375 -6.98773,-0.68458 -6.79059,4.30251 l 0.0957,12.62855 -4e-5,0 z"
         style="fill:#ffffff;fill-opacity:1;stroke:none" />
      <path
         sodipodi:nodetypes="cccccc"
         id="path3701"
         d="m 392.93006,235.14647 2.58479,-1.9243 2.21921,3.53309 -1.49097,-0.006 c -1.31566,-0.87047 -1.84307,-1.28981 -3.31303,-1.60242 l 0,-6e-5 z"
         style="fill:#ffffff;fill-opacity:1;stroke:none" />
      <path
         sodipodi:nodetypes="cccccc"
         id="path3701-7"
         d="m 406.25751,234.97813 -2.69425,-1.76779 -1.85568,3.57934 1.35986,-7.1e-4 c 1.26179,-0.94687 1.74122,-1.41173 3.19007,-1.81088 l 0,4e-5 z"
         style="fill:#ffffff;fill-opacity:1;stroke:none" />
      <path
         sodipodi:nodetypes="ccccc"
         id="path3701-7-4"
         d="m 404.91928,247.7579 2.15438,-2.39639 -3.77834,-2.30209 -0.44439,0.39723 c 0.74546,1.3903 1.89258,2.80874 2.06835,4.30125 z"
         style="fill:#ffffff;fill-opacity:1;stroke:none" />
      <path
         sodipodi:nodetypes="ccccc"
         id="path3701-7-4-0"
         d="m 395.75469,247.24123 -2.15438,-2.3964 3.77834,-2.30209 0.4444,0.39723 c -0.74547,1.3903 -1.89258,2.80874 -2.06836,4.30126 z"
         style="fill:#ffffff;fill-opacity:1;stroke:none" />
      <path
         sodipodi:nodetypes="cccccccccc"
         d="m 418.44666,259.93708 c 3.67567,1.54346 -7.75543,-1.75848 -7.96597,-1.75047 l -0.63194,0.0244 -8.22258,1.12061 c -4.38785,0.1534 -6.23873,-0.55583 -8.51166,-1.28956 0,0 -11.71289,4.29423 -8.79137,1.80808 3.67567,-1.54345 6.39783,-2.16803 9.31061,-2.34523 2.54389,1.70881 5.21283,1.54186 7.8834,1.35035 l 8.13507,-0.98857 c 2.92361,0.17101 5.11877,0.52701 8.79444,2.07046 z"
         style="fill:#000080;fill-opacity:1;stroke:none"
         id="path3795-4" />
      <path
         sodipodi:nodetypes="ccccc"
         id="rect3821"
         d="m 398.46391,245.04383 7.65158,4.70006 c -0.76797,1.6508 -1.25632,2.67358 -2.99093,4.86919 l -7.65158,-4.70004 c 0.41592,-2.04114 1.32711,-3.936 2.99093,-4.86921 z"
         style="fill:#000080;fill-opacity:1;fill-rule:evenodd;stroke:none" />
      <path
         sodipodi:nodetypes="cccccccccc"
         id="path3824"
         d="m 408.47633,258.25801 1.50418,-7.8374 -0.59303,0.40385 -1.00193,5.07307 -1.05347,-0.39073 -0.0389,0.65922 1.03547,0.46188 -0.30727,1.6375 0.30914,-0.007 0.14579,-2.9e-4 z"
         style="fill:#000080;fill-opacity:1;stroke:none" />
      <path
         id="rect3749-8-5-52-8"
         d="m 412.25072,250.61637 -1.26348,1.46501 -1.42749,-1.23107 1.26348,-1.46501 1.42749,1.23107 z"
         style="fill:#000080;fill-opacity:1;fill-rule:evenodd;stroke:none" />
      <path
         id="rect3749-8-5-52-2"
         d="m 409.52951,253.27324 -1.6876,0.94587 -0.92166,-1.64433 1.6876,-0.94587 0.92166,1.64433 z"
         style="fill:#000080;fill-opacity:1;fill-rule:evenodd;stroke:none" />
      <path
         sodipodi:nodetypes="ccccc"
         id="rect3749-8-5-6-89-5-4"
         d="m 389.07295,251.36739 1.33858,-1.39672 1.36087,1.30438 -1.3386,1.39671 -1.36085,-1.30437 z"
         style="fill:#000080;fill-opacity:1;fill-rule:evenodd;stroke:none;display:inline" />
    </g>
  </g>
</svg>
