<svg xmlns="http://www.w3.org/2000/svg" viewBox="0 0 1000 666.667">
<path fill="#FCDD09" d="M0 .003h1000V666.67H0z"/>
<path fill="#DA121A" d="M0 518.521h1000v74.074H0z"/>
<path fill="#FBEA0E" d="M0 444.448h1000v74.073H0z"/>
<path fill="#DA121A" d="M0 370.373h1000v74.075H0z"/>
<path fill="#FBEA0E" d="M0 296.3h1000v74.073H0z"/>
<path fill="#DA121A" d="M0 222.226h1000V296.3H0z"/>
<path fill="#FBEA0E" d="M0 148.151h1000v74.074H0z"/>
<path fill="#DA121A" d="M0 74.078h1000v74.074H0z"/>
<path d="M222.61 369.106l-.121-112.2h99.626l.245 112.445" fill="#eac102" stroke="#000" stroke-width=".336"/>
<path d="M321.878 369.11l-.121-112.2h99.034l.243 112.444" fill="#0071bc" stroke="#000" stroke-width=".335"/>
<path d="M222.533 368.759l198.497.446s.432 42.172-.821 56.794c-.126 16.958-20.916 93.196-100.481 93.185-80.911.446-97.093-68.638-97.195-97.203-.101-8.926 0-53.222 0-53.222z" fill="#eac102" stroke="#000" stroke-width=".328"/>
<path d="M321.794 519.112c-18.527.553-35.515-2.348-46.555-8.38-9.151-5.003-17.693-9.356-25.252-17.87-5.7-6.422-11.381-13.954-15.516-21.822-1.305-2.482-2.49-5.036-3.448-7.645-3.117-8.484-8.034-22.243-8.355-37.108-.492-22.854-.232-48.427-.075-57.455 17.422-.01 99.202.158 99.202.158" fill="#e3e4e5" stroke="#000" stroke-width=".327"/>
<path d="M311.246 503.245c-.99-.383-.79-2.655-.127-2.544 1.861-.01 1.585 2.508 1.7 3.033-.53.18-.973-.09-1.573-.49zm-8.768-6.115c-.614-.587-2.012.445-2.673-.574-.661-1.02 3.822-6.293 4.165-6.82.654-1.153.349-3.27.524-3.838 1.06-1.525 2.697-3.388 3.673-4.182 1.462.774 2.583 1.401 3.211 1.906.351 1.765-1.816 4.521-1.89 5.037-.227 1.61-1.44 2.782-2.619 4.177-1.222 1.448-3.181 2.556-4.391 4.295z" fill="#999" stroke="#000" stroke-width=".374"/>
<g fill="#999" stroke="#000" stroke-width=".374">
<path d="M307.675 462.527c.268.584.524 1.278.593 2.172.068.894.408 2.172 1.597 2.614.956.381 1.785.917 1.92 1.707.134.79.184 1.786.186 1.77l1.76-1.991c.015-.29.08-.994.17-1.815.115-1.197-.739-1.585-1.58-2.01-.84-.425-1.777-.94-1.997-1.464-.22-.523-.825-1.448-1.172-1.818-.347-.37-1.477.835-1.477.835z"/>
<path d="M308.17 472.871c.68 1.614.54 3.71.729 5.204.789.113 1.878-1.915 2.941-2.45.183-1.136.645-2.682 1.028-3.138 1.841-2.14.87-3.586.87-3.586-1.792 1.689-1.992 3.015-5.565 3.967l-.003.003z"/>
</g>
<path d="M216.871 216.35c-2.875-.015-2.927 10.337 1.826 10.173 2.36-.081 52.328-5.054 102.932-5.028 51.446.027 103.976 3.712 105.135 3.63 2.141-.151 4.228-8.867 2.544-8.98-.277-.019-15.23 12.946-27.578-1.724-12.034 8.792-16.29 5.69-26.78-.548-11.37 5.186-13.578 8.13-26.336-1.177-13.493 7.831-15.934 7.187-27.085-1.109-8.309 8.767-17.77 6.359-24.93 1.21-13.142 7.974-18.875 6.88-28.356 1.286-11.804 6.16-13.189 8.371-25.954.224-14.335 13.847-24.81 2.047-25.418 2.043z" fill="#eac102" stroke="#000" stroke-width=".262"/>
<path d="M218.41 224.998c-2.874-.015-4.266 3.64.485 3.476 2.36-.081 52.552-4.16 103.157-4.135 51.445.026 103.306 4.159 104.466 4.076 2.142-.151 2.218-3.286.534-3.4-.85-.056-52.997-4.792-105.1-4.78-51.075.012-102.117 4.77-103.542 4.763z" fill="#eac102" stroke="#000" stroke-width=".262"/>
<path d="M272.899 286.55c-3.446-.088-5.568-2.233-25.192-2.233-11.998 0-13.854 14.72-8.56 18.214 1.874 1.237 9.312 3.076 14.737 5.594 4.768 2.213 7.473 5.256 10.465 4.682 4.847-.931 6.646-1.322 11.405-.634 8.29 1.2 18.643-1.83 22.789-6.079 1.192-1.221-.15-14.047-.706-15.582-.52-1.437-5.627-3.207-7.346-3.95-5.21-2.253-14.417-1.35-17.592-.012z" fill="#008f4c"/>
<path d="M273.928 298.955c.305-.26-2.148 0-4.465 0-1.417 0-1.347 1.682-1.116 2.473.218.742 3.486.92 4.241.76 1.57-.335 1.462-1.026 2.232-1.902.674-.763.331-.705-.892-1.331z" fill="#008f4c" stroke="#000" stroke-width=".242"/>
<path d="M269.523 311.69l4.394-6.667s.86 16.725.86 25.147c0 8.422-1.586 8.842-.175 14.857.353 1.507 1.397 4.285 4.165 5.38 3.916 1.55 10.198 1.743 13.967 3.58 3.77 1.838 4.322 5.164 3.505 6.22-1.234-.946-2.314-2.697-5.231-3.206-2.15-.375-2.57-.077-5.271-.204-1.114-.052-1.006 1.696-.372 4.433-3.745-2.887-7.316-4.436-8.425-4.061-.974.329.608 4.571.554 6.222-1.19-2.477-3.172-3.664-3.725-3.591-.549.072-1.469 3.82-1.908 4.338-1.002-1.052-1.12-5.481-1.628-5.47-1.112.026-1.914.421-5.613 3.392.198-2.565 2-5.548 1.047-5.534-1.04.016-4.9 3.286-7.344 4.623-.008-2.002 2.806-4.533 1.8-4.516-.818.013-2.207-.516-3.936-.218-2.504.43-5.721 1.861-8.944 3.042.036-1.547 2.968-4.257 5.296-5.425 2.524-1.265 5.5-.467 9.024-2.738 3.523-2.272 4.245-5.168 5.5-12.592 1.257-7.425-1.765-6.444-.975-14.867.79-8.421 3.435-12.146 3.435-12.146z" fill="#784421" stroke="#000" stroke-width=".277"/>
<path d="M217.541 228.405c-.642 4.896 3.5 21.243 4.797 24.847 8.57.436 57.933-3.427 101.077-3.405 51.446.026 96.163 3.042 97.322 2.96 2.141-.15 6.907-24.494 5.222-24.607-.849-.057-49.648-4.347-101.752-4.334-51.072.012-105.24 4.547-106.666 4.54z" fill="#eac102" stroke="#000" stroke-width=".262"/>
<path d="M263.618 237.015c0-2.965 2.581-5.358 5.763-5.358 3.181 0 5.774 2.392 5.774 5.358 0 2.968-2.583 5.369-5.774 5.369-3.182 0-5.763-2.4-5.763-5.369z" fill="#ed1c24" stroke="#000" stroke-width=".329" stroke-linejoin="round"/>
<path d="M338.861 271.461l12.656.09-1.36 13.162 12.064-3.325v15.785l-12.135-3.268s.227 10.024.448 15.451c.221 5.427.943 6.088.943 6.088l-3.87-.932-2.366 15.721-2.56-15.789-3.87 1s.676-1.005 1.072-6.256c.395-5.25 1.022-15.259 1.022-15.259l-11.607 3.569-.03-16.08 10.777 3.217-1.184-13.174z" fill="#e3e4e5" stroke="#000" stroke-width=".655"/>
<path d="M316.463 235.04c0-2.965 2.582-5.358 5.763-5.358 3.182 0 5.774 2.393 5.774 5.358 0 2.969-2.581 5.369-5.774 5.369-3.18 0-5.763-2.4-5.763-5.369zm52.011.703c0-2.965 2.58-5.358 5.763-5.358 3.18 0 5.772 2.393 5.772 5.358 0 2.968-2.58 5.368-5.772 5.368-3.182.001-5.763-2.4-5.763-5.368z" fill="#ed1c24" stroke="#000" stroke-width=".329" stroke-linejoin="round"/>
<path fill="#008f4c" stroke="#000" stroke-width=".262" stroke-linecap="square" d="M243.879 244.286l-7.133-5.71 5.711-7.133 7.132 5.71zm155.841-.336l-5.908-6.97 6.97-5.909 5.908 6.97zm-51.897-2.1l-6.035-6.86 6.86-6.036 6.035 6.86zm-52.227.007l-6.541-6.38 6.38-6.541 6.54 6.38z"/>
<path d="M238.015 402.791c-.516-.91-1.03-3.816-1.664-5.227-1.58-.426-4.34-.073-6.25-1.146-2.134-1.344.807-3.966.598-4.96-.134-.069-.564-.543-.707-.74-.068-.352.299-1.032.552-1.143l.003-.008c-.328-.225-.767-1.537.653-1.504.48-.179.584-.486.757-.799-.182-.1-.626-.353-.688-.392-1.154-.65-.59-1.313.186-1.922.52-.392 2.34-1.756 3.316-2.29.424-.217.52-.39.54-.833.02-.443.4-.99.74-1.33.34-.34 1.637-1.32 1.56-1.59-.076-.27.303-.815.425-.898.121-.084.283-.373.347-.489.064-.115.283-.37.52-.39.239-.02.58-.36.528-.54-.05-.18.573-.892.779-.853.205.04.616.116 1.015-.191.297-.582 1.106-.98 1.53-1.117l1.036-.392c.065.012.801-.326 1.27-.215.469.11 1.652.162 1.652.162l1.439.271s.558.084.995.251c.436.168 1.935.74 1.913.8.032.03.655.026 1.431.534.777.508 1.509 1.37 1.861 1.415.354.046.45.554.45.554s.384.667.846.926l.7.919s.7.78 1.008 1.178l1.095 2.112s.552.475.39 1.202l.112 2.788s.02.238.122.597l-.24 1.381s-.063.116-.167.437c-.103.321-.375 1.626-1.12 1.874.045.328-.325.66-.822 1.2-.577.46-1.81 1.044-1.61 1.23.198.187-.16.092-.435-.056-.199-.187-.518-.311-.576.104-.084.558-.023.891-.614.865-.59-.026-1.589.78-1.55 1.255l-1.252.514s-.172.132-.044.582c.128.45-.397 1.492-.484 1.55-.06.132-.056 3.28-.117 3.41-3.206-.133-9.009.24-12.03.914z" fill="#e4d8cc" stroke="#000" stroke-width=".262"/>
<path d="M246.69 395.097c-1.703-1.357 3.476-4.526 3.611-3.937.06.264 3.423 2.561 3.32 2.809-.141.383-.954 1.054-2.78 3.818-.55.411-1.819-1.07-4.15-2.69z"/>
<path d="M238.54 377.23c.67-.298.32.07.929-.538.163-.745-.032-.356.343-.64.896-.673 2.711-1.607 4.017-2.02 1.343-.426 2.718-.063 4.18.221.848.195 2.596.509 4.238 1.523.763.47 1.51.926 2.208 1.594.911.868 1.744 1.988 2.432 2.857.161.203 1.024 1.85 1.825 3.324.344.633.096 1.72.133 2.483.055 1.094.359 2.073-.358 3.669-.46 1.024-.52 1.469-.892 1.587-.369 1.622-2.456 2.084-3.412 2.614l-.54.024c-.343-.725-1.636-2.109-2.19-2.695-1.591-1.734-2.034-3.596-4.113-4.284-1.796-2.151-6.924-5.286-9.052-7.1-1.076-1.056-.748-.663-.62-1.266l.872-1.352z"/>
<path d="M240.42 375.882c-.546.075-.914.21-.738.686a9.06 9.06 0 0 0 .528 1.193s-.834-.787-1.138-.579c-.306.208-.877.435-.614.7.16.277.884 1.099.884 1.099s-1.36-.973-1.097-.764c-.36.305-.643 1.056-.034 1.773.61.718 2.533 2.926 2.832 3.408.3.482 1.182 1.162 1.664 1.43.481.268 2.208 1.356 1.92 1.195l-1.22-.301c-.191-.082 1.74 2.025 2.13 2.148.428-.33 4.119-1.253 3.912 2.29a5.748 5.748 0 0 0-.227 1.198s.701.327.829.776c.128.45.85.853 1.31 1.045.46.193 1.278.438 1.036.303-.24-.134.686.789.947.998.262.21 1.041-.56.327-1.714-.266-.654-1.265-2.03-1.34-2.577-.073-.545-1.5-2.576-2.05-3.222-.077-.37.034-.573-.441-.963-.476-.392-1.28-1.383-1.702-1.871-.422-.487-.855-.73-1.433-1.05-.577-.322-3.888-3.397-4.52-4.513-.588-.642 2.889 2.872 3.344 3.187.75.577 1.1.557.114-.843-.39-.658-2.487-3.795-4.231-5.505l-.992.473z" fill="#999" stroke="#000" stroke-width=".155"/>
<path d="M246.95 389.818a.293.293 0 0 1 .108.149.988.988 0 0 1 .016.277c-.03.102-.046.194-.11.272a.633.633 0 0 1-.242.133 1.044 1.044 0 0 1-.274.07c-.095-.006-.206.023-.287.018-.054.024-.149.012-.212.038-.076.034-.125.044-.176.124-.074.067-.14.164-.2.245-.07.088-.143.166-.2.245a.3.3 0 0 1-.254.038 1.725 1.725 0 0 1-.253-.12c-.022-.074-.076-.171-.094-.253l.076-.135" stroke-miterlimit="4.1" fill="none" stroke="#010101" stroke-width=".201" stroke-linecap="round"/>
<path d="M245.808 388.684c.788-.437 4.072-.216 2.112 1.816-.285.172-.074.432.099.29 2.237-2.445-1.288-2.87-2.153-2.38-.351.206-.068.292-.058.274z"/>
<path d="M238.697 379.4c.986.524 1.986 1.153 2.498 2.1.513.949 1.137 1.485 1.985 1.959.85.472 1.273.733 1.273.733" fill="none" stroke="#000" stroke-width=".212" stroke-linecap="round"/>
<path d="M249.885 387.549c1.278 1.538 1.464 1.884 1.905 2.714.44.829.652 1.044 1.025 1.738.287.5.379.94.379.94.205.504-.97-2.048-2.422-2.467-.47-.263-.543-.303-.71-1.028a5.045 5.045 0 0 0-1.004-2.115c-.558-.7-1.558-1.89-1.558-1.89" fill="none" stroke="#000" stroke-width=".212"/>
<path d="M243.568 392.02c.098.054.406.687.535.828.128.096.34.21.721.176.642-.194 1.715-1.154 2.312-1.302.942.1 1.686-.252 2.021-.44" fill="none" stroke="#000" stroke-width=".21" stroke-linecap="round"/>
<path d="M237.421 382.51c.419 1.215.804 2.122 1.687 2.895-.16.228-2.142-.643-3.067-.606 0 0 .04-.658.384-1.23.345-.572.996-1.06.996-1.06z" stroke="#000" stroke-width=".224"/>
<g stroke="#000" stroke-width=".374" fill="#999">
<path d="M253.065 395.328c.021.643-.012 1.381-.297 2.23-.285.852-.467 2.16.457 3.03.732.724 1.288 1.537 1.105 2.318-.183.781-.524 1.717-.515 1.703l2.395-1.15c.126-.262.46-.885.862-1.606.57-1.06-.066-1.748-.674-2.466-.61-.718-1.273-1.557-1.273-2.124.001-.568-.198-1.655-.374-2.131-.177-.477-1.686.196-1.686.196z"/>
<path d="M237.468 407.803c.667 1.995 1.275 5.688.868 7.139 1.093-.713 6.36-2.236 7.633-2.747 3.823-1.51 7.482-5.4 8.013-5.672 2.527-1.256 2.194-2.966 2.194-2.966-2.306.86-3.694 2.004-6.668 2.869l-4.045 1.291-3.439.344-4.556-.258z"/>
<path d="M235.05 411.074c-.223.31.056 2.976.778 3.446.711.463 1.558 1.123 2.334.545 0 0 .435-.8.306-2.859-.068-1.11-.302-1.595-.302-1.595l-3.116.463zm27.19-14.474c-.767-2.006-3.68-2.002-6.29-2.376-.7-.328-.887-.558-.887-.558l-.398 1.166c.406 1.516 1.214 1.12 2.218 2.354 1.037 1.273 2.04 7.986.236 10.289-1.826 2.334-9.77 3.183-11.887 3.414 1.092 1.588 2.247 4.385 2.271 6.351 3.065.16 8.214-1.491 11.215-3.926.675-.552 1.559-3.198 2.167-4.369 2.057-3.952 1.98-10.715 1.356-12.344z"/>
</g>
<path d="M254.112 393.648c.08-.491.302-.367.607.046.44.78-.622 1.55-1.487 1.36-.512-.042-.466-.648.253-.54.638.16.648-.904.627-.866l.038.02-.038-.02z" fill="#999" stroke="#000" stroke-width=".187"/>
<path d="M255.4 402.686l-.028.05c.076-.137.035-.068-.076.221-.151.273-.259.514-.383.777-.117.21-.226.346-.345.532m.32-1.536c-.017.03-.034.06-.05.092.094-.17.063-.125-.04.158-.13.267-.153.432-.285.685-.141.253-.28.432-.42.669m-10.497 7.778l.037.021c-.03.03-.13.233-.204.367-.11.2-.223.393-.329.502m-.199-.689l-.041.074.041-.074-.041.074.041-.074c-.145.279-.199.447-.355.727-.047.085-.067.158-.14.163m-.181-.935c-.152.307-.211.531-.373.843-.085.154-.126.154-.21.291m-.111-.912l-.025.046c.07-.127.031-.063-.068.208-.122.235-.16.375-.302.631-.144.24-.255.313-.388.522m.004-1.024a8.8 8.8 0 0 0-.231.504l-.29.52a2.135 2.135 0 0 1-.38.42l-.062.111m15.936-11.455c-.03.076-.123.373-.283.507-.084.151-.145.219-.225.317" fill="none" stroke="#000" stroke-width=".234"/>
<path d="M255.014 394.17c.44.379 1.712.953 2.395.865l.684-.087" fill="#999" stroke="#000" stroke-width=".355"/>
<path d="M254.88 394.415c.375.445 1.539 1.211 2.228 1.232l.69.023" fill="none" stroke="#000" stroke-width=".355"/>
<path d="M254.478 395.043c.085.448.177.701.027 1.152l-.151.451m-.268-1.621c.064.605.184.871.044 1.364l-.14.49" fill="none" stroke="#000" stroke-width=".187"/>
<path d="M253.674 395.164c-.242.734-.429 2.272-.273 2.893l.156.623" fill="none" stroke="#000" stroke-width=".355"/>
<path d="M237.834 412.762c-.239-.178-.508-.873-.538-1.085-.03-.212-.002-.28-.002-.28m-.094 1.483c-.242-.224-.531-.982-.566-1.204a3.081 3.081 0 0 1-.038-.277" fill="none" stroke="#000" stroke-width=".224"/>
<path d="M236.751 413.346c-.277-.198-.63-.997-.678-1.244l-.05-.245" fill="none" stroke="#000" stroke-width=".253"/>
<path d="M257.915 412.957c.24-.265.661-.823.81-1.258l.15-.434m-3.292-15.683c.167.203.475.478.667.533l.192.055" fill="none" stroke="#000" stroke-width=".187"/>
<path d="M260.299 396.446c.638.868.828 3.925.759 4.283l-.07.359" fill="none" stroke="#000" stroke-width=".246"/>
<path d="M243.973 190.547c-1.45-.79-2.786-.833-4.841.047-.79-1.204-5.625-6.848-7.529-8.85.28-2.908 6.352-7.574 9.335-7.525 2.933.05 8.64 2.676 9.909 7.635-2.524 3.077-5.868 7.132-6.874 8.693zm-4.777 6.286c2.563 1.244 2.953.738 4.952-.124.782 1.209 5.243 6.495 7.133 8.51-.347 1.623-3.945 6.6-8.607 6.736-2.259.067-8.675-1.732-9.91-6.7 2.545-3.06 5.415-6.867 6.432-8.422z" fill="#eac102" stroke="#000" stroke-width=".262"/>
<path d="M244.114 196.59c.92-1.15 1.617-3.78-.03-6.002.812-1.148 4.728-6.787 6.862-8.54 1.596.451 4.053 6.264 3.88 10.924-.082 2.259.153 8.693-3.488 12.222-2.887-2.74-5.795-7.207-7.224-8.603zm-4.892-6.043c-.886 1.176-1.845 3.992-.138 6.167-.78 1.17-4.368 6.582-6.453 8.394-1.608-.408-4.225-6.15-4.183-10.813.02-2.26-.395-8.685 3.147-12.314 2.962 2.658 6.16 7.21 7.627 8.566zm4.567 7.909a5.05 4.855 0 1 1 .026-.01m53.443-10.02c-1.449-.791-2.786-.833-4.84.046-.792-1.204-5.626-6.847-7.53-8.85.28-2.908 6.352-7.573 9.335-7.524 2.933.049 8.639 2.676 9.908 7.634-2.524 3.078-5.867 7.133-6.873 8.694zm-4.778 6.286c2.564 1.244 2.954.737 4.953-.125.783 1.21 5.242 6.496 7.132 8.511-.347 1.622-3.944 6.6-8.605 6.736-2.26.065-8.676-1.733-9.911-6.7 2.544-3.06 5.414-6.868 6.432-8.422z" fill="#eac102" stroke="#000" stroke-width=".262"/>
<path d="M297.4 194.47c.919-1.151 1.616-3.782-.03-6.004.812-1.148 4.726-6.788 6.86-8.54 1.596.451 4.053 6.264 3.882 10.925-.083 2.258.152 8.692-3.49 12.222-2.886-2.74-5.794-7.208-7.222-8.604zm-4.893-6.045c-.887 1.176-1.845 3.991-.139 6.167-.778 1.17-4.367 6.582-6.453 8.393-1.608-.407-4.225-6.149-4.183-10.812.02-2.26-.393-8.686 3.148-12.314 2.96 2.658 6.16 7.21 7.627 8.566zm4.567 7.91a5.05 4.855 0 1 1 .025-.01m53.937-7.796c-1.413-.853-2.747-.953-4.838-.163-.738-1.237-5.324-7.084-7.14-9.166.405-2.893 6.672-7.293 9.65-7.115 2.928.176 8.517 3.046 9.57 8.055-2.653 2.966-6.17 6.873-7.242 8.389zm-5.044 6.074c2.507 1.354 2.918.864 4.953.09.73 1.242 4.957 6.716 6.758 8.81-.416 1.606-4.225 6.424-8.888 6.358-2.26-.032-8.592-2.105-9.612-7.12 2.673-2.949 5.705-6.629 6.789-8.138z" fill="#eac102" stroke="#000" stroke-width=".262"/>
<path d="M350.916 194.573c.968-1.11 1.779-3.708.23-6 .86-1.11 5.014-6.576 7.223-8.236 1.575.52 3.779 6.433 3.407 11.083-.181 2.253-.224 8.691-4.014 12.06-2.766-2.863-5.479-7.45-6.846-8.907zm-4.626-6.251c-.938 1.137-2.016 3.91-.405 6.156-.83 1.135-4.648 6.387-6.81 8.107-1.587-.476-3.955-6.326-3.712-10.983.117-2.257-.02-8.693 3.677-12.167 2.843 2.785 5.842 7.47 7.25 8.887zm4.092 8.244a5.05 4.855 2.473 1 1 .026-.008m54.604-6.05c-1.384-.9-2.713-1.047-4.83-.33-.694-1.262-5.075-7.265-6.817-9.409.505-2.877 6.922-7.056 9.892-6.776 2.92.278 8.405 3.341 9.284 8.383-2.755 2.872-6.404 6.653-7.53 8.132zm-5.252 5.895c2.46 1.44 2.887.966 4.948.261.685 1.267 4.72 6.885 6.447 9.04-.47 1.59-4.446 6.274-9.104 6.046-2.258-.11-8.514-2.403-9.36-7.45 2.776-2.853 5.934-6.426 7.07-7.897z" fill="#eac102" stroke="#000" stroke-width=".262"/>
<path d="M404.683 196.544c1.006-1.076 1.906-3.643.439-5.987.898-1.081 5.24-6.399 7.504-7.98 1.556.574 3.553 6.56 3.019 11.193-.258 2.246-.525 8.678-4.431 11.913-2.664-2.956-5.216-7.636-6.531-9.139zm-4.407-6.406c-.975 1.103-2.15 3.836-.618 6.137-.868 1.106-4.867 6.222-7.088 7.866-1.57-.532-3.733-6.46-3.329-11.106.197-2.252.284-8.69 4.098-12.032 2.745 2.882 5.58 7.67 6.937 9.135zm3.701 8.496a5.05 4.855 4.465 1 1 .026-.007m-139.915-19.765c2.41-.093 4.034-.118 6.447-.12.691 0 4.629.583 6.58 4.306 2.037 1.027 2.33 1.139 4.305 2.949-.002 2.453.014 8.622-1.509 12.657-.139.495-1.25 1.515-2.494 1.876-.113 6.302-6.545 12.02-9.303 12.3-3.166-.002-10.504-6.385-9.309-12.646-1.625-.602-2.422-1.994-2.614-2.877-.599-2.753-1.967-7.79-1.717-11.435 2.073-1.772 2.998-1.403 4.275-2.364 1.724-2.541 3.342-4.569 5.34-4.646z" fill="#eac102" stroke="#000" stroke-width=".262"/>
<path d="M277.28 159.81c-2.037 1.592-6.184 5.21-6.226 8.123-.042 2.912-.042 4.15.11 6.65.15 2.502 1.309 8.41 1.325 10.093.015 1.683.318 3.84.372 5.681.055 1.842-.47 4.006-2.027 5.009-1.634 1.052-4.726.778-6.012-.223-1.341-1.045-1.63-3.387-1.871-5.019-.244-1.652.193-3.176.21-4.89.016-1.714.868-8.26 1.35-10.591.482-2.331.109-4.279.092-6.598-.022-2.93-3.073-5.08-6.56-7.788 1.379-1.311 2.339-2.221 4.703-2.88.887-3 2.816-4.766 5.085-7.09 2.162 2.105 4.022 4.744 4.396 7.169 1.649-.072 3.678 1.325 5.053 2.354zm40.236 17.768c2.41-.093 4.035-.117 6.447-.12.691 0 4.629.583 6.579 4.306 2.037 1.027 2.33 1.139 4.306 2.949-.002 2.453.014 8.622-1.51 12.656-.138.495-1.25 1.516-2.495 1.876-.111 6.303-6.543 12.02-9.3 12.3-3.169-.002-10.505-6.385-9.31-12.646-1.624-.602-2.423-1.994-2.614-2.878-.598-2.752-1.967-7.79-1.717-11.435 2.071-1.772 2.998-1.403 4.275-2.364 1.724-2.539 3.342-4.566 5.339-4.644z" fill="#eac102" stroke="#000" stroke-width=".262"/>
<path d="M330.533 157.933c-2.037 1.592-6.184 5.212-6.226 8.123-.043 2.912-.042 4.15.108 6.65.152 2.502 1.31 8.41 1.325 10.093.016 1.682.319 3.84.373 5.681.055 1.841-.47 4.006-2.026 5.009-1.636 1.052-4.727.778-6.013-.224-1.34-1.044-1.63-3.386-1.871-5.018-.244-1.652.193-3.176.21-4.89.017-1.715.87-8.26 1.35-10.591.482-2.331.11-4.279.092-6.598-.023-2.93-3.074-5.08-6.56-7.788 1.38-1.312 2.34-2.221 4.704-2.88.886-3 2.816-4.766 5.084-7.09 2.162 2.105 4.024 4.744 4.396 7.169 1.649-.071 3.68 1.325 5.054 2.354zm41.231 20.984c2.41-.093 4.034-.116 6.446-.12.692.001 4.63.584 6.58 4.307 2.038 1.028 2.33 1.138 4.305 2.949-.002 2.453.015 8.622-1.509 12.657-.138.494-1.25 1.514-2.494 1.875-.112 6.303-6.543 12.02-9.302 12.3-3.167-.002-10.504-6.386-9.309-12.646-1.626-.602-2.423-1.995-2.615-2.877-.598-2.753-1.967-7.79-1.716-11.436 2.072-1.771 2.998-1.402 4.274-2.364 1.725-2.54 3.343-4.567 5.34-4.645z" fill="#eac102" stroke="#000" stroke-width=".262"/>
<path d="M384.11 160.613c-2.037 1.591-6.184 5.21-6.226 8.122-.042 2.912-.042 4.15.11 6.65.15 2.502 1.309 8.41 1.325 10.092.015 1.683.318 3.84.373 5.682.054 1.842-.47 4.006-2.028 5.008-1.634 1.053-4.726.778-6.012-.222-1.341-1.045-1.63-3.387-1.871-5.02-.244-1.651.193-3.176.21-4.89.016-1.713.868-8.26 1.35-10.59.482-2.332.109-4.28.092-6.599-.022-2.93-3.073-5.08-6.56-7.787 1.379-1.311 2.34-2.222 4.703-2.88.887-3 2.816-4.766 5.085-7.09 2.163 2.106 4.023 4.745 4.396 7.169 1.65-.072 3.678 1.325 5.053 2.355z" fill="#eac102" stroke="#000" stroke-width=".262"/>
<path d="M237.161 391.053c.468.002.937.002 1.405.002 2.04-.005-.492.022.014-.056.492-.044.956-.036 1.41-.225l1.792-.421c-.451.282-1.112.864-1.65.868-1.026.172-2.077.05-3.115.078-.476 0-.952 0-1.429.002l1.573-.248z"/>
<path d="M245.527 373.865c-.546.074-.922.078-1.764.303-.747.16-2.37.798-2.107 1.007-.36.304 1.292 1.686 1.9 2.405.61.717 2.06 3.043 2.36 3.525.299.481.945 1.952 1.426 2.22l1.41 1.17c-.19-.083 1.228 1.553 1.617 1.675.586 1.21.29.76 1.267 2.013.862 1.259 1.037 2.382 1.037 2.382s1.483 2.81 1.242 2.676c-.241-.133.646.106.907.315.262.209 1.897-1.049 2.458-1.939.15-.28 1.083-1.037 1.401-2.98.291-1.772-.022-4.742-.057-5.003-.074-.545-1.461-3.208-2.012-3.577-.55-.371-1.72-1.873-2.142-2.36-.422-.488-1.33-1.164-1.907-1.485-.578-.321-.787-.49-2.168-1.024-1.298-.62-2.487-.756-3.205-1.006l-1.663-.317z" fill="#999" stroke="#000" stroke-width=".023"/>
<path d="M249.466 383.237c.885.681 1.766 1.464 2.115 2.485.349 1.02.876 1.654 1.634 2.26.76.606 1.134.932 1.134.932m-9.461-11.4c.885.681 2.595 1.071 3.102 2.486.35 1.02.875 1.653 1.635 2.26.759.606 1.132.932 1.132.932m-6.264-8.124c.885.68 3.149 1.663 3.497 2.682" fill="none" stroke="#000" stroke-width=".212" stroke-linecap="round"/>
<path d="M251.486 379.148c.662.686 1.31 1.461 1.49 2.383.182.92.553 1.525 1.117 2.134.565.608.841.932.841.932" fill="none" stroke="#000" stroke-width=".181" stroke-linecap="round"/>
<path d="M229.533 393.926c.307.078 1.015 1.217 1.276 1.455.522.408.593.484 1.166.695 1.682.295 1.73.24 3.089.149 1.082-.018 1.475.093 2.568-.203.88-.26 2.258-.755 2.62-1.024.205-.137.74-.877.92-1.074.209-.305 3.307-7.476 3.443-6.887.06.263.977.62.873.868-.14.383-3.11 6.634-3.314 6.953a2.95 2.95 0 0 1-.574.542c-.362.266-.72.548-1.078.829-.799.542-3.27 1.355-4.135 1.519-2.045.147-5.434.49-7.513-.036-.144-1.629.66-3.786.66-3.786z"/>
<path d="M292.348 403.736c-.517-.91-1.03-3.816-1.665-5.227-1.579-.426-4.34-.072-6.248-1.146-2.134-1.343.806-3.964.597-4.96-.134-.07-.564-.544-.706-.741-.07-.351.299-1.03.552-1.142l.003-.008c-.329-.225-.767-1.537.653-1.505.479-.177.584-.484.757-.798a21.319 21.319 0 0 1-.688-.393c-1.155-.648-.59-1.313.186-1.922.52-.39 2.339-1.755 3.315-2.289.425-.217.522-.39.54-.834.02-.443.4-.988.74-1.328.342-.34 1.637-1.32 1.56-1.59-.077-.27.304-.815.425-.9.122-.083.284-.37.348-.487.064-.116.282-.372.52-.391.237-.019.578-.359.528-.54-.052-.18.572-.891.778-.853.206.04.616.117 1.015-.191.298-.582 1.106-.98 1.53-1.116l1.036-.392c.066.012.802-.326 1.271-.215.469.11 1.65.161 1.65.161l1.44.272s.558.084.994.25c.437.169 1.935.74 1.914.8.031.03.654.026 1.431.534s1.508 1.371 1.862 1.416c.352.045.449.553.449.553s.384.668.846.926l.7.92s.7.78 1.008 1.178l1.094 2.113s.554.474.39 1.201l.114 2.788s.019.237.121.598l-.239 1.38s-.064.116-.168.437c-.102.32-.374 1.625-1.119 1.874.044.327-.326.66-.823 1.198-.576.46-1.81 1.045-1.61 1.232.2.186-.161.092-.434-.056-.198-.187-.519-.313-.576.103-.085.559-.023.891-.615.866-.59-.028-1.589.779-1.55 1.255l-1.252.514s-.172.131-.044.582c.128.45-.398 1.493-.484 1.55-.061.13-.056 3.28-.117 3.41-3.207-.133-9.01.24-12.03.913z" fill="#e4d8cc" stroke="#000" stroke-width=".262"/>
<path d="M292.91 378.164c.669-.299.32.068.928-.539.163-.744-.032-.356.344-.638.896-.674 2.712-1.608 4.017-2.021 1.344-.427 2.718-.063 4.18.22.85.196 2.596.509 4.237 1.523.764.472 1.51.926 2.21 1.594.91.868 1.743 1.989 2.431 2.857.162.204 1.024 1.851 1.826 3.326.344.633.095 1.718.133 2.483.054 1.093.358 2.072-.359 3.668-.46 1.024-.52 1.469-.891 1.588-.37 1.622-2.456 2.084-3.412 2.613l-.54.023c-.343-.724-1.637-2.108-2.19-2.695-1.592-1.732-2.034-3.595-4.114-4.283-1.795-2.15-6.923-5.285-9.052-7.099-1.075-1.056-.747-.664-.618-1.267l.87-1.353z"/>
<path d="M301.185 395.772c-1.704-1.358 3.474-4.526 3.609-3.936.06.262 3.424 2.559 3.32 2.808-.141.383-.955 1.054-2.78 3.818-.549.411-1.818-1.07-4.15-2.69z"/>
<path d="M299.884 374.813c-.546.075-.923.078-1.764.304-.747.16-2.37.797-2.107 1.006-.36.305 1.29 1.688 1.9 2.404.61.719 2.06 3.043 2.359 3.525.3.483.945 1.951 1.425 2.22l1.411 1.171c-.191-.082 1.228 1.553 1.617 1.675.585 1.21.291.759 1.268 2.013.86 1.259 1.036 2.383 1.036 2.383s1.483 2.81 1.243 2.676c-.241-.134.644.105.906.314.263.21 1.898-1.048 2.46-1.94.149-.278 1.082-1.036 1.4-2.978.292-1.772-.022-4.742-.057-5.002-.074-.546-1.46-3.21-2.011-3.58-.55-.369-1.72-1.87-2.143-2.36-.423-.486-1.329-1.161-1.907-1.484-.577-.322-.787-.492-2.167-1.023-1.297-.62-2.487-.757-3.206-1.008l-1.663-.316z" fill="#999" stroke="#000" stroke-width=".023"/>
<path d="M294.752 376.828c-.546.074-.914.21-.738.686.219.626.528 1.194.528 1.194s-.833-.788-1.138-.58c-.305.208-.877.436-.614.7.16.278.884 1.1.884 1.1s-1.36-.973-1.098-.764c-.359.305-.642 1.056-.032 1.774.61.717 2.533 2.923 2.832 3.406.299.482 1.181 1.162 1.663 1.43.48.27 2.208 1.357 1.92 1.196l-1.22-.302c-.191-.082 1.74 2.027 2.13 2.149.428-.33 4.119-1.252 3.912 2.289-.204.707-.226 1.2-.226 1.2s.7.326.829.776c.127.45.849.853 1.309 1.045.46.193 1.278.436 1.038.301-.24-.133.684.734.947.943.262.209 1.209-.224.328-1.66-.267-.652-1.267-2.029-1.341-2.574-.074-.547-1.5-2.579-2.05-3.225-.078-.369.035-.571-.442-.963-.476-.39-1.28-1.382-1.701-1.87-.422-.487-.856-.728-1.433-1.05-.578-.322-3.888-3.396-4.52-4.513-.588-.642 2.889 2.871 3.342 3.187.751.576 1.1.558.116-.843-.391-.658-2.488-3.796-4.232-5.504l-.993.472z" fill="#999" stroke="#000" stroke-width=".155"/>
<path d="M293.03 380.346c.986.524 1.985 1.152 2.498 2.1.514.949 1.138 1.485 1.986 1.959.85.472 1.272.732 1.272.732" fill="none" stroke="#000" stroke-width=".212" stroke-linecap="round"/>
<path d="M291.754 383.456c.418 1.214.804 2.122 1.686 2.896-.16.227-2.141-.644-3.066-.608 0 0 .038-.656.382-1.228.347-.573.998-1.06.998-1.06z" stroke="#000" stroke-width=".224"/>
<path d="M313.442 413.082c-.232.96-1.566-3.105-.512-3.243.963.18 1.836 1.9 1.85 2.597-.807-.063-.738-.432-1.338.646z" fill="#999" stroke="#000" stroke-width=".328"/>
<g fill="#999" stroke="#000" stroke-width=".374">
<path d="M316.655 411.012c-.235.055-1.267.281-1.294.178-.169-.577-.326-.967-.903-1.4-.577-.432-1.603-1.462-.518-2.287.624-.434 1.057.34 1.118.76.074.412.486 1.015.752 1.664.264.648.736.86.665.956l.18.129zm-2.193 3.021c.064.085.71.438 1.388.11.443-.399-.316 1.557-.916 1.253-.445-.428-.58-1.386-.472-1.363z"/>
<path d="M316.118 409.399c.11-.024 1.103-.182 1.325-.196.1.33.388 1.31.093 1.576-1.061.944-1.97-1.231-1.814-1.309l.396-.071zm-2.614-1.487l-4.703 2.125s-3.368 1.303-4.652-1c-.165-.755-.568-1.515-.568-1.515l-.695.906c-.96 1.242-.596 1.858-.08 2.73.515.872.55.906.893 1.357.344.452 1.978.907 2.426.919 1.16.048 3.482.438 8.503 1.892-.021-.39-.637-2.863-.661-3.03-.146-.066-.849-.368-1.19-.938-.37-.63.278-1.703 1.05-.82.372.432.242 2.064 1.063 1.916.712-.144.488-1.194.37-1.621-.116-.43-.694-.958-1.005-1.192-.699-.523-.922-1.37-.75-1.729z"/>
<path d="M299.567 408.53c-.849.288-2.001.937-2.132 2.199-.131 1.021-.442 1.956-1.174 2.284-.731.328-1.684.624-1.666.622l2.365 1.208c.285-.057.983-.17 1.8-.288 1.188-.188 1.351-1.111 1.553-2.031.202-.92.466-1.956.919-2.3.45-.343 1.195-1.161 1.467-1.589.149-.235-.279-.701-.641-.963-.3-.219-1.643.568-2.491.857z"/>
<path d="M286.66 412.866c1.228.437 2.435.954 3.22 1.85 1.144-.106 2.756-.044 3.294.212 2.531 1.248 3.69-.054 3.69-.054-2.083-1.311-4.36-1.739-5.403-4.44-1.216.696-3.402 1.877-4.802 2.432z"/>
<path d="M285.826 408.573c-.382.011-1.403 1.735-1.338 2.595.063.846 1.163 1.665 1.938 1.71l3.412-1.558-3.453-2.187-.559-.56z"/>
</g>
<path d="M303.798 384.182c.886.681 1.767 1.466 2.117 2.486.348 1.02.875 1.653 1.633 2.26.76.606 1.134.931 1.134.931m-9.461-11.399c.885.681 2.595 1.072 3.101 2.485.35 1.02.877 1.653 1.635 2.26.758.608 1.134.933 1.134.933m-6.265-8.124c.885.68 3.148 1.662 3.496 2.681" fill="none" stroke="#000" stroke-width=".212" stroke-linecap="round"/>
<path d="M305.818 380.094c.662.686 1.31 1.462 1.492 2.383.18.92.55 1.525 1.116 2.135.566.608.84.932.84.932" fill="none" stroke="#000" stroke-width=".181" stroke-linecap="round"/>
<path d="M283.866 394.871c.306.078 1.016 1.217 1.276 1.455.523.41.592.486 1.167.696 1.682.295 1.73.24 3.089.148 1.082-.016 1.475.095 2.568-.203.88-.258 2.257-.754 2.62-1.023.204-.137.74-.878.92-1.073.207-.306 3.307-7.477 3.442-6.888.06.263.978.62.873.868-.141.383-3.11 6.633-3.313 6.954-.179.207-.364.4-.574.54-.362.267-.72.549-1.078.829-.8.542-3.27 1.355-4.135 1.52-2.045.146-3.976 1.827-7.027.087-1.36-1.874.172-3.91.172-3.91z"/>
<path d="M292.348 470.039c-.517-.91-1.03-3.816-1.665-5.227-1.579-.426-4.34-.073-6.248-1.146-2.134-1.343.806-3.965.597-4.96-.134-.07-.564-.544-.706-.741-.07-.352.299-1.03.552-1.142l.003-.009c-.329-.224-.767-1.537.653-1.502.479-.18.584-.487.757-.8a24.161 24.161 0 0 1-.688-.393c-1.155-.65-.59-1.312.186-1.921.52-.39 2.339-1.755 3.315-2.29.425-.217.522-.39.54-.834.02-.443.4-.989.74-1.329.342-.34 1.637-1.32 1.56-1.59-.077-.27.304-.815.425-.9.122-.082.284-.372.348-.487.064-.115.282-.372.52-.391.237-.018.578-.359.528-.54-.052-.18.572-.89.778-.853.206.04.616.116 1.015-.191.298-.582 1.106-.98 1.53-1.116l1.036-.392c.066.013.802-.325 1.271-.215.47.11 1.65.162 1.65.162l1.44.27s.558.085.994.253c.437.167 1.935.739 1.914.8.031.029.654.025 1.431.533s1.508 1.37 1.862 1.416c.352.045.449.553.449.553s.384.667.846.926l.7.918s.7.782 1.008 1.18l1.094 2.111s.554.475.39 1.202l.114 2.788s.019.238.121.598l-.239 1.38s-.064.116-.168.437c-.102.32-.374 1.625-1.119 1.874.044.327-.326.66-.823 1.198-.576.46-1.81 1.046-1.61 1.232.2.187-.161.092-.434-.056-.198-.187-.519-.313-.576.102-.085.559-.023.892-.615.865-.59-.026-1.589.78-1.55 1.256l-1.252.515s-.172.13-.044.581c.128.449-.398 1.492-.484 1.55-.061.13-.056 3.28-.117 3.41-3.207-.132-9.01.241-12.03.915z" fill="#e4d8cc" stroke="#000" stroke-width=".262"/>
<path d="M292.91 444.467c.669-.3.32.068.928-.54.163-.744-.032-.356.344-.64.896-.672 2.712-1.607 4.017-2.02 1.344-.427 2.718-.063 4.18.22.85.197 2.596.51 4.237 1.523.764.472 1.51.926 2.21 1.594.91.869 1.743 1.99 2.431 2.858.162.204 1.024 1.85 1.826 3.325.344.632.095 1.719.133 2.483.054 1.094.358 2.072-.359 3.668-.46 1.024-.52 1.468-.891 1.586-.37 1.623-2.456 2.085-3.412 2.615l-.54.023c-.343-.725-1.637-2.108-2.19-2.695-1.592-1.733-2.034-3.595-4.114-4.283-1.795-2.151-6.923-5.286-9.052-7.1-1.075-1.056-.747-.664-.618-1.266l.87-1.351z"/>
<path d="M301.306 461.95c-1.704-1.357 3.475-4.525 3.61-3.936.06.263 3.423 2.56 3.319 2.808-.141.383-.955 1.054-2.78 3.818-.548.412-1.818-1.07-4.15-2.69z"/>
<path d="M299.829 441.148c-.546.074-.923.078-1.765.304-.747.16-2.37.797-2.108 1.006-.359.305 1.292 1.688 1.901 2.405.61.718 2.06 3.043 2.358 3.525.3.482.945 1.952 1.426 2.22l1.41 1.17c-.19-.081 1.228 1.554 1.617 1.675.586 1.21.291.76 1.268 2.013.86 1.26 1.036 2.383 1.036 2.383s1.484 2.81 1.242 2.677c-.24-.135.646.104.907.313.263.21 1.898-1.048 2.46-1.938.149-.281 1.082-1.037 1.4-2.98.292-1.772-.022-4.742-.057-5.003-.075-.546-1.462-3.208-2.011-3.577-.55-.37-1.72-1.872-2.144-2.36-.422-.488-1.328-1.163-1.907-1.485-.577-.321-.787-.49-2.166-1.024-1.298-.62-2.488-.757-3.207-1.006l-1.66-.318z" fill="#999" stroke="#000" stroke-width=".023"/>
<path d="M294.752 443.13c-.546.075-.914.21-.738.687.219.626.528 1.194.528 1.194s-.833-.789-1.138-.58c-.305.209-.877.435-.614.7.16.278.884 1.098.884 1.098s-1.36-.973-1.098-.764c-.359.305-.642 1.057-.032 1.775.61.717 2.533 2.923 2.832 3.406.299.481 1.181 1.162 1.663 1.43.48.268 2.208 1.357 1.92 1.196l-1.22-.3c-.191-.084 1.74 2.024 2.13 2.147.428-.33 4.119-1.253 3.912 2.29-.204.705-.226 1.199-.226 1.199s.7.327.829.776c.128.45.849.852 1.309 1.045.46.193 1.278.436 1.038.303-.241-.135.684.843.947 1.052.262.21 1.153-.447.328-1.77-.267-.653-1.267-2.03-1.341-2.575-.074-.546-1.5-2.577-2.05-3.224-.078-.37.035-.571-.442-.963-.476-.39-1.28-1.383-1.701-1.87-.422-.487-.856-.728-1.433-1.05-.578-.321-3.888-3.396-4.52-4.513-.588-.642 2.889 2.872 3.342 3.188.751.576 1.1.557.116-.843-.391-.658-2.488-3.795-4.232-5.506l-.993.473z" fill="#999" stroke="#000" stroke-width=".155"/>
<path d="M293.03 446.648c.986.525 1.985 1.153 2.498 2.102.514.948 1.138 1.485 1.986 1.957.85.473 1.272.733 1.272.733" fill="none" stroke="#000" stroke-width=".212" stroke-linecap="round"/>
<path d="M291.754 449.759c.418 1.214.804 2.122 1.686 2.894-.16.229-2.141-.642-3.066-.606 0 0 .038-.657.382-1.23.347-.572.998-1.058.998-1.058z" stroke="#000" stroke-width=".224"/>
<path d="M314.568 503.087c-.241-.024-1.29-.147-1.282-.252.027-.6.006-1.022-.399-1.617-.406-.596-1.04-1.905.253-2.332.732-.207.89.666.81 1.083-.064.412.13 1.118.17 1.816.04.7.418 1.052.32 1.12l.128.182zm-3.057 2.144c.033.102.53.645 1.276.555.549-.233-.803 1.37-1.272.889-.283-.551-.098-1.5-.004-1.444z" fill="#999" stroke="#000" stroke-width=".374"/>
<path d="M314.583 501.385a25.33 25.33 0 0 1 1.317.246c-.014.346-.059 1.367-.424 1.52-1.31.55-1.463-1.803-1.29-1.827l.397.061zm-1.511-2.471l-5.616.698s-3.34-.34-3.806-1.89c-.03-.619.46-1.299.04-1.406a21.602 21.602 0 0 1-1.025-.304l-1.22-.273c-.312.205.03 2.229.185 2.986.203.992.018 1.034.196 1.572.177.54 1.574 1.5 1.995 1.658 1.082.422 3.15 1.546 7.427 4.552.106-.375.328-2.913.36-3.08-.118-.11-.684-.624-.823-1.275-.144-.714.818-1.52 1.261-.433.212.53-.442 2.03.383 2.157.72.095.85-.97.877-1.413.028-.444-.345-1.13-.564-1.453-.491-.722-.426-1.596-.148-1.88l.478-.216z" fill="#999" stroke="#000" stroke-width=".374"/>
<g fill="#999" stroke="#000" stroke-width=".374">
<path d="M296.461 491.284c-.787.428-2.522.717-3.539-.042-.84-.594-1.798-1.537-2.535-1.221-.737.316-1.6.815-1.587.804l.715-2.558c.236-.17.792-.608 1.432-1.13.943-.745 1.733-.24 2.546.235.813.476 1.755.983 2.313.883.558-.1.829-.808 1.329-.718l2.605.74s-2.49 2.579-3.279 3.007z"/>
<path d="M289.115 495.146c-1.725.307-3.373 1.397-4.73 2.05.512-1.2.553-2.453.425-3.636.854-.77 1.901-1.998 2.077-2.567.797-2.707 2.539-2.677 2.539-2.677-.446 2.421-1.451 3.31-.31 6.827v.003z"/>
<path d="M286.402 499.311c-.266.274-1.612.714-2.202.083-.578-.619-.382-1.408.11-2.007l2.249-1.284-.157 3.208z"/>
</g>
<path d="M303.798 450.485c.886.681 1.767 1.466 2.117 2.485.348 1.02.875 1.653 1.633 2.26.76.607 1.134.933 1.134.933m-9.461-11.4c.885.68 2.595 1.07 3.101 2.485.35 1.02.877 1.652 1.635 2.26.759.606 1.134.933 1.134.933m-6.265-8.125c.885.681 3.148 1.662 3.496 2.683" fill="none" stroke="#000" stroke-width=".212" stroke-linecap="round"/>
<path d="M305.818 446.397c.662.686 1.31 1.462 1.492 2.383.18.92.55 1.525 1.116 2.134.566.61.84.932.84.932" fill="none" stroke="#000" stroke-width=".181" stroke-linecap="round"/>
<path d="M283.866 461.174c.306.078 1.016 1.217 1.276 1.455.523.409.592.486 1.167.696 1.682.295 1.73.24 3.089.148 1.082-.017 1.475.095 2.568-.204.88-.258 2.257-.753 2.62-1.022.204-.138.74-.878.92-1.074.207-.305 3.307-7.477 3.442-6.887.06.263.978.62.873.868-.141.382-3.11 6.633-3.313 6.952a2.966 2.966 0 0 1-.574.541c-.362.268-.72.55-1.078.83-.8.542-3.27 1.355-4.135 1.52-2.045.146-5.434.49-7.513-.035-.145-1.631.658-3.788.658-3.788z"/>
<path d="M244.462 466.133c-.515-.91-1.029-3.817-1.664-5.227-1.58-.426-4.34-.073-6.248-1.148-2.134-1.342.806-3.964.597-4.958-.134-.07-.564-.544-.706-.742-.07-.352.298-1.03.552-1.142l.003-.008c-.329-.224-.767-1.537.652-1.503.48-.18.584-.486.757-.8a22.04 22.04 0 0 1-.688-.392c-1.154-.649-.59-1.313.185-1.921.522-.392 2.34-1.756 3.317-2.29.424-.217.52-.391.541-.835.02-.442.399-.988.74-1.328.34-.34 1.636-1.32 1.56-1.59-.077-.27.302-.816.424-.899.123-.083.283-.372.347-.488.065-.115.284-.372.52-.39.24-.02.58-.36.528-.54-.05-.179.574-.892.779-.853.206.04.617.116 1.016-.191.297-.582 1.106-.98 1.53-1.116l1.035-.392c.066.012.803-.326 1.272-.215.468.11 1.65.162 1.65.162l1.438.271s.559.084.995.252c.437.167 1.936.738 1.914.799.032.03.654.025 1.432.534.776.508 1.508 1.37 1.86 1.415.353.046.45.552.45.552s.384.67.847.926l.698.92s.7.781 1.008 1.18l1.095 2.111s.554.475.39 1.202l.112 2.788s.02.238.122.597l-.239 1.381s-.064.116-.168.437c-.102.321-.375 1.626-1.12 1.875.045.327-.325.66-.822 1.198-.576.46-1.81 1.045-1.61 1.232.198.186-.161.091-.434-.057-.2-.187-.519-.311-.577.104-.083.558-.023.891-.614.865-.59-.026-1.588.78-1.55 1.256l-1.252.513s-.171.132-.043.582c.127.45-.399 1.493-.484 1.55-.062.13-.056 3.28-.117 3.41-3.207-.134-9.01.238-12.03.913z" fill="#e4d8cc" stroke="#000" stroke-width=".262"/>
<path d="M253.186 458.363c-1.703-1.357 3.475-4.525 3.61-3.936.06.263 3.423 2.56 3.32 2.808-.142.383-.955 1.054-2.78 3.818-.549.412-1.818-1.07-4.15-2.69z"/>
<path d="M245.025 440.56c.669-.299.32.07.928-.538.164-.745-.032-.357.345-.64.895-.674 2.71-1.608 4.016-2.021 1.343-.427 2.718-.062 4.18.221.848.196 2.597.508 4.238 1.522.763.471 1.51.926 2.208 1.593.911.87 1.744 1.99 2.432 2.858.161.204 1.024 1.851 1.825 3.325.344.634.096 1.72.133 2.483.055 1.094.359 2.073-.358 3.67-.46 1.023-.52 1.468-.892 1.586-.369 1.622-2.455 2.085-3.412 2.614l-.54.024c-.342-.725-1.636-2.109-2.19-2.695-1.591-1.734-2.034-3.596-4.113-4.283-1.795-2.152-6.924-5.287-9.052-7.1-1.075-1.057-.748-.664-.62-1.267l.872-1.352z"/>
<path d="M252.055 437.242c-.546.074-.923.078-1.765.303-.748.16-2.37.798-2.108 1.007-.359.304 1.292 1.687 1.901 2.404.61.717 2.06 3.043 2.358 3.525.3.482.945 1.951 1.426 2.22l1.41 1.17c-.19-.083 1.228 1.552 1.618 1.675.585 1.21.29.759 1.267 2.013.861 1.259 1.036 2.381 1.036 2.381s1.484 2.81 1.242 2.677c-.24-.134.646.106.907.315.263.209 1.898-1.049 2.46-1.94.149-.279 1.082-1.036 1.4-2.98.292-1.77-.022-4.74-.057-5.001-.074-.546-1.46-3.209-2.011-3.58-.55-.37-1.72-1.871-2.143-2.359-.423-.487-1.329-1.163-1.907-1.484-.577-.323-.787-.492-2.167-1.025-1.298-.619-2.487-.755-3.206-1.006l-1.661-.315z" fill="#999" stroke="#000" stroke-width=".023"/>
<path d="M246.867 439.223c-.546.075-.914.21-.738.687.219.626.528 1.193.528 1.193s-.833-.788-1.138-.58c-.306.209-.876.437-.614.7.16.28.884 1.1.884 1.1s-1.36-.973-1.098-.764c-.359.305-.642 1.056-.033 1.774.61.717 2.533 2.925 2.833 3.406.299.482 1.18 1.163 1.662 1.43.482.27 2.209 1.357 1.92 1.196l-1.22-.3c-.19-.083 1.741 2.024 2.13 2.148.428-.33 4.12-1.253 3.912 2.289-.204.706-.227 1.198-.227 1.198s.702.327.83.777c.127.45.849.852 1.309 1.045.46.193 1.278.436 1.038.302-.241-.134.907.787 1.17.996.262.21.873-.67.104-1.713-.267-.654-1.267-2.03-1.34-2.576-.075-.545-1.5-2.578-2.051-3.223-.078-.37.034-.573-.442-.963-.475-.391-1.279-1.383-1.701-1.87-.423-.488-.855-.73-1.433-1.05-.578-.323-3.889-3.397-4.52-4.514-.588-.643 2.889 2.872 3.343 3.187.75.576 1.1.558.114-.842-.39-.66-2.487-3.796-4.232-5.506l-.99.473z" fill="#999" stroke="#000" stroke-width=".155"/>
<path d="M245.145 442.741c.985.526 1.985 1.152 2.497 2.1.513.949 1.137 1.486 1.986 1.958.849.473 1.272.733 1.272.733" fill="none" stroke="#000" stroke-width=".212" stroke-linecap="round"/>
<path d="M243.87 445.852c.416 1.215.803 2.122 1.686 2.895-.162.229-2.142-.644-3.067-.607 0 0 .038-.657.383-1.23.345-.57.997-1.058.997-1.058z" stroke="#000" stroke-width=".224"/>
<path d="M246.422 470.699c.243.016 1.297.064 1.306-.041.07-.597.158-1.01.654-1.533.496-.523 1.333-1.712.125-2.342-.688-.321-.985.514-.974.939-.003.418-.309 1.082-.46 1.766-.152.683-.582.97-.494 1.054l-.157.157zm2.994 2.139c-.034.102-.532.643-1.28.55-.547-.233.801 1.374 1.272.893.284-.55.101-1.498.008-1.443z" fill="#999" stroke="#000" stroke-width=".374"/>
<path d="M246.65 469.082a22.974 22.974 0 0 0-1.338-.028c-.058.34-.223 1.349.104 1.574 1.17.806 1.801-1.466 1.637-1.524l-.402-.022zm3.64 1.69c.087-.335 1.097-1.882.184-2.39-1.095-.902-1.971 3.078-1.813 3.15 0 0 1.406-.767 1.629-.76z" fill="#999" stroke="#000" stroke-width=".374"/>
<path d="M248.85 466.821l5.076.935s3.583.456 4.277-2.087c-.021-.773.804-3.112.804-3.112l1.057 1.106c.432 1.107-.313 1.15-.235 1.576.08.427.478 1.197.187 2.167-.291.97-.318 1.01-.543 1.532-.225.52-1.702 1.355-2.134 1.473-1.115.325-3.276 1.26-7.802 3.876-.072-.384-.068-2.931-.085-3.101.127-.099.736-.56.931-1.196.207-.698-.68-1.586-1.217-.543-.257.509.26 2.061-.573 2.115-.725.031-.76-1.041-.75-1.485.012-.444.446-1.096.693-1.397.554-.675.567-1.552.315-1.859zm12.256-9.499c-1.4.245.755 2.005-.303 3.196 0 0 .907 1.376 1.23 1.245 1.853-.758-.03-4.407-.927-4.441z" fill="#999" stroke="#000" stroke-width=".374"/>
<g fill="#999" stroke="#000" stroke-width=".374">
<path d="M259.513 458.67c.02.641-.013 1.38-.297 2.23-.285.851-.468 2.16.456 3.03.732.723 1.288 1.537 1.105 2.318-.182.781-.523 1.718-.515 1.702l2.395-1.15c.126-.261.46-.884.862-1.606.57-1.058-.065-1.748-.674-2.466-.61-.717-1.273-1.556-1.273-2.124.001-.567-.198-1.654-.374-2.13-.175-.477-1.685.196-1.685.196z"/>
<path d="M255.951 468.393c0 1.753-.787 3.565-1.194 5.015 1.093-.713 2.32-.971 3.506-1.052.61-.975 1.637-2.22 2.166-2.492 2.527-1.255 2.194-2.966 2.194-2.966-2.305.86-3.006 2.004-6.668 1.494h-.004z"/>
<path d="M252.322 471.79c-.222.31-.421 1.712.302 2.183.711.462 1.453.13 1.958-.458l.873-2.438-3.133.712z"/>
</g>
<path d="M255.914 446.578c.884.681 1.766 1.465 2.116 2.486.348 1.02.875 1.653 1.634 2.26.759.606 1.134.932 1.134.932m-9.462-11.401c.885.682 2.595 1.072 3.102 2.486.349 1.02.876 1.653 1.634 2.26.76.607 1.133.932 1.133.932m-6.265-8.123c.886.68 3.149 1.662 3.498 2.682" fill="none" stroke="#000" stroke-width=".212" stroke-linecap="round"/>
<path d="M257.933 442.49c.662.686 1.31 1.462 1.49 2.382.182.921.553 1.527 1.118 2.135.565.608.841.931.841.931" fill="none" stroke="#000" stroke-width=".181" stroke-linecap="round"/>
<path d="M235.98 457.268c.308.077 1.015 1.217 1.277 1.455.522.408.592.484 1.166.695 1.682.295 1.73.24 3.089.148 1.082-.016 1.475.095 2.569-.203.879-.258 2.256-.754 2.619-1.022.204-.138.74-.878.919-1.074.209-.306 3.308-7.477 3.443-6.888.06.263.978.62.873.868-.14.383-3.109 6.633-3.312 6.954-.18.207-.365.4-.576.54-.362.268-.72.55-1.076.83-.8.542-3.272 1.355-4.136 1.52-2.045.145-5.435.49-7.513-.036-.145-1.63.659-3.787.659-3.787z"/>
<path d="M298.026 393.05c.1.055.407.687.536.829.127.095.338.208.72.175.642-.193 1.716-1.154 2.312-1.302.943.1 1.686-.251 2.021-.44m-5.811 67.041c.098.055.407.687.535.827.128.096.34.21.721.176.642-.193 1.715-1.154 2.312-1.301.942.098 1.686-.252 2.021-.44m-53.252-3.168c.1.054.407.687.537.828.127.095.338.208.72.175.641-.193 1.715-1.154 2.31-1.302.943.1 1.687-.25 2.023-.439" fill="none" stroke="#000" stroke-width=".21" stroke-linecap="round"/>
<path d="M301.284 390.886c.018.012.087.07.108.15.015.101.027.192.016.276-.03.103-.046.194-.11.273a.612.612 0 0 1-.243.132.995.995 0 0 1-.273.07c-.096-.006-.206.024-.287.018-.054.025-.149.01-.212.038-.076.034-.125.044-.177.124-.073.068-.14.163-.2.245-.069.088-.142.166-.2.244a.29.29 0 0 1-.253.038 1.468 1.468 0 0 1-.253-.12c-.024-.073-.076-.171-.094-.251l.076-.137" stroke-miterlimit="4.1" fill="none" stroke="#010101" stroke-width=".201" stroke-linecap="round"/>
<path d="M300.142 389.753c.788-.436 4.072-.215 2.112 1.816-.285.173-.074.432.098.29 2.238-2.445-1.287-2.87-2.152-2.38-.351.205-.068.293-.058.274z"/>
<path d="M301.396 457.077c.017.013.087.07.108.15.015.102.026.192.015.276-.03.104-.045.195-.109.274a.602.602 0 0 1-.243.13 1 1 0 0 1-.273.072c-.095-.007-.206.022-.288.018-.052.024-.148.012-.211.038-.076.034-.125.044-.176.125-.074.066-.14.163-.2.244-.07.088-.143.166-.2.245a.294.294 0 0 1-.255.036 1.59 1.59 0 0 1-.253-.118c-.022-.074-.076-.172-.093-.253l.076-.136" stroke-miterlimit="4.1" fill="none" stroke="#010101" stroke-width=".201" stroke-linecap="round"/>
<path d="M300.253 455.945c.788-.438 4.074-.217 2.113 1.815-.286.172-.074.432.099.291 2.237-2.445-1.288-2.871-2.153-2.382-.352.206-.069.293-.059.276z"/>
<path d="M253.51 453.394c.019.012.088.07.109.15.016.102.026.192.016.276-.03.103-.046.195-.11.273a.62.62 0 0 1-.243.132.994.994 0 0 1-.273.07c-.096-.007-.206.022-.287.018-.054.024-.149.01-.212.038-.076.034-.125.044-.176.125-.074.066-.14.163-.2.244-.07.088-.144.166-.2.245a.29.29 0 0 1-.254.038 1.66 1.66 0 0 1-.253-.12c-.023-.073-.076-.171-.094-.252l.076-.136" stroke-miterlimit="4.1" fill="none" stroke="#010101" stroke-width=".201" stroke-linecap="round"/>
<path d="M252.368 452.26c.788-.437 4.072-.216 2.113 1.816-.285.172-.074.432.098.291 2.238-2.445-1.288-2.871-2.152-2.382-.351.207-.068.293-.059.276z"/>
<path d="M302.617 407.266c-.198.298-.254 1.22.083 1.343.47.172 1.674 1.79 2.588 1.445.999-.377 4.697-1.917 4.697-2.73 0-.482 3.544-3.318 4.787-5.682.568-1.082 1.457-5.108-.415-6.134-1.843-1.012-4.886-1.333-5.06-.975-.22.451-.147-.078-1.4 2.778-.821 1.87-3.117 7.489-3.75 8.043-.884.775-1.304 1.568-1.53 1.912z" fill="#999" stroke="#000" stroke-width=".328"/>
<path d="M310.116 397.336c-.071-.578-.626-1.857-1.19-2.252l-.565-.396" fill="none" stroke="#000" stroke-width=".255"/>
<path d="M308.612 394.581c.08-.49.302-.366.606.046.44.78-.62 1.55-1.487 1.36-.512-.042-.466-.648.253-.54.64.162.65-.903.628-.866l.038.02-.038-.02z" fill="#999" stroke="#000" stroke-width=".187"/>
<g fill="#999" stroke="#000" stroke-width=".374">
<path d="M308.036 462.397c.519.38 1.08.86 1.573 1.609.494.748 1.413 1.7 2.667 1.508 1.02-.131 2.005-.067 2.507.558.502.626 1.03 1.472 1.023 1.455l.57-2.593a44.478 44.478 0 0 1-.733-1.67c-.482-1.102-1.417-1.027-2.357-.988-.94.037-2.01.042-2.457-.31-.446-.349-1.425-.862-1.908-1.018-.483-.155-.885 1.449-.885 1.449z"/>
<path d="M316.663 475.389c.744-.286.711-2.587 1.38-3.57-.392-1.083-.74-2.658-.628-3.244.57-2.763-.983-3.555-.983-3.555-.401 1.266-3.066 6.22-3.109 7.132-.089 1.948 2.93 2.678 3.34 3.237z"/>
</g>
<path d="M308.5 460.995c.08-.49.302-.367.606.046.441.78-.62 1.55-1.486 1.36-.512-.041-.466-.648.252-.54.64.161.65-.903.628-.866l.037.02-.037-.02zm-47.829-3.906c.08-.492.302-.367.606.046.441.78-.62 1.55-1.486 1.36-.512-.043-.466-.649.252-.54.64.161.65-.903.628-.866l.037.02-.037-.02z" fill="#999" stroke="#000" stroke-width=".187"/>
<path d="M290.242 391.976c.469.003.937.002 1.405.002 2.04-.004-.493.022.013-.056.494-.043.897-.217 1.35-.406l1.792-.604c-.451.281-1.051 1.23-1.59 1.232-1.025.172-2.077.05-3.114.08-.476 0-.952-.001-1.428.001l1.572-.249zm-47.356 62.511c.469.003.937.002 1.405.002 2.04-.005-.493.022.013-.056.493-.044.958-.036 1.41-.225l1.792-.42c-.45.282-1.112.864-1.65.867-1.026.172-2.078.052-3.115.08-.476 0-.952 0-1.427.002l1.572-.25zm47.673 4.42c.468.003.935.002 1.404.002 2.04-.005-.493.022.013-.056.494-.044.958-.036 1.412-.225l1.79-.42c-.451.282-1.112.864-1.65.867-1.026.172-2.078.052-3.115.08-.476 0-.952-.002-1.427.002l1.573-.25z"/>
<path d="M257.848 291.723l-2.233-.67c-1.094-.329-2.3-.205-3.125 0-1.022.255-.67 2.235-.67 3.126 0 1.34 3.215 1.34 4.242 1.34 1.515 0 1.971.037 2.678-.67.712-.712-.67-2.847-.892-3.126zm4.13 8.148c.305-.305-2.148 0-4.465 0-1.417 0-1.347 1.975-1.116 2.902.218.871 3.486 1.082 4.243.893 1.57-.393 1.46-1.204 2.232-2.232.671-.897.33-.829-.894-1.563z" fill="#008f4c" stroke="#000" stroke-width=".262"/>
<path d="M254.164 290.941c-.408-.416-.531-1.333-.335-2.12.158-.626.855-.67 1.451-.67 1.048 0 2.165-.016 3.127.225.85.211 1.927.062 2.566.222.576.145.763.296 1.005.782.281.562.223 1.449.223 2.12 0 .534-.02 1.199-.112 1.563-.061.246-1.454.111-1.674.111-.612 0-1.209.034-1.786-.111-.305-.076-.681-.695-.78-.893-.18-.358-.75-.487-1.117-.67-.412-.207-1.058-.25-1.45-.447-.298-.148-.654-.112-1.118-.112zm21.99 11.051c-.345-.173-2.066.064-3.014.335-1.09.311-1.077 1.422-.893 2.344.14.698 1.519.77 2.01.893.733.183 1.305.113 1.897.558.701.526 1.611 1.004 2.678 1.004 1.917 0 1.477-.416 2.232-1.674.23-.38 1.244-.796 1.564-1.116.654-.656-.122-1.349-.447-1.674-.424-.424-1.463-.562-1.897-.67-.686-.172-1.409-.111-2.12-.111-.685 0-1.339-.023-2.01.111zm18.529-4.018c-1.098-.275-3.475-.112-5.024-.112-.737 0-1.339.407-1.339 1.117 0 1.14.38 1.295 1.451 1.562.895.224 1.481.183 2.233.558.57.286 1.51.335 2.12.335.767 0 1.175-.393 1.674-.893.468-.469-.016-1.313-.11-1.786-.106-.526-.405-.661-1.005-.781z" fill="#008f4c" stroke="#000" stroke-width=".262"/>
<path d="M296.915 297.08c-.135-.68-3.308 1.733-5.023.447-.768-.576-.73-1.4-1.45-2.121-.492-.49.773-1.447 1.003-1.562l1.563-.782c.43-.215 2.05-.548 2.456-.447.679.17 1.607 1.028 2.232 1.34.777.389.335 1.521.335 2.232 0 .346-.7.727-1.116.893zm1.451-3.795c0 .26-2.415-1.264-2.791-1.45-.664-.333-.414-.974-.223-1.452.42-1.053 1.042-1.004 2.455-1.004 1.132 0 1.52.46 1.898-.67.35-1.052.687-1.123 1.786-1.562.447-.18 1.393 0 1.897 0 .813 0 .81 1.226.67 1.786-.215.859-.405 1.297-1.005 1.897-.384.385-.78.668-1.005 1.116-.21.42-.939.681-1.339.781-.907.228-1.485.273-2.343.558zm2.455 0c-.594.15 1.19-.594 1.786-.445.634.158.96.512 1.34.893.43.43.42 1.24.558 1.785.117.47.581.666.446 1.34-.118.592-1.14.558-1.674.558-.866 0-1.583-.111-2.456-.111-.558 0-1.242-.228-1.673-.337-.53-.133-.782-.699-.782-1.227 0-.714-.19-1.347.223-1.897.097-.129 2.419-.485 2.232-.559zm-2.567 7.591c0-.187 3.462.625 4.243.781.658.132 1.373.515 1.674 1.116.386.774-.283 1.563-.893 1.563-1.232 0-1.614-.211-2.791-.447-.744-.149-1.489-.309-2.233-.557-1.237-.413-1.071-.4-.781-1.564.061-.245.732-.842.781-.892z" fill="#008f4c" stroke="#000" stroke-width=".262"/>
<path d="M267.788 300.584c.305-.312-2.146 0-4.465 0-1.416 0-1.347 2.027-1.116 2.98.22.894 3.488 1.109 4.243.915 1.57-.402 1.462-1.236 2.232-2.291.672-.92.331-.85-.894-1.604z" fill="#008f4c" stroke="#000" stroke-width=".266"/>
<path d="M262.32 303.032c.304-.305-2.148 0-4.465 0-1.417 0-1.349 1.976-1.116 2.902.217.873 3.486 1.081 4.24.894 1.571-.393 1.463-1.206 2.233-2.233.673-.896.331-.828-.893-1.563z" fill="#008f4c" stroke="#000" stroke-width=".262"/>
<path d="M256.068 305.71c.305-.304-2.148 0-4.464 0-1.417 0-1.348 1.976-1.117 2.903.218.87 3.487 1.082 4.242.893 1.57-.393 1.462-1.204 2.232-2.233.673-.895.33-.827-.893-1.562zm26.12-14.733c.305-.305-2.148 0-4.465 0-1.417 0-1.347 1.975-1.116 2.902.218.872 3.486 1.082 4.241.893 1.57-.392 1.462-1.204 2.232-2.232.673-.895.331-.828-.892-1.563zm-13.506-6.139c.305-.305-2.148 0-4.465 0-1.417 0-1.347 1.975-1.116 2.902.218.87 3.486 1.082 4.241.892 1.57-.392 1.463-1.204 2.233-2.232.672-.895.33-.828-.893-1.562zm25.226 17.748c.305-.305-2.147 0-4.464 0-1.417 0-1.35 1.975-1.116 2.902.217.871 3.486 1.082 4.24.893 1.571-.393 1.463-1.206 2.233-2.233.672-.896.33-.827-.893-1.562zm-56.878-7.738c-.38-.102-1.27-.046-1.897.112-.59.147-.842.392-1.283.502-.465.116-.777.608-1.005.836-.433.433-.51.195.781.67.608.223.966.478 1.284.558.492.123.805 0 1.507 0 .535 0 1.238-.061 1.562-.223.658-.33.67-.54.67-1.34 0-.76-.216-.833-.781-1.117-.167-.08-.651.002-.838.002z" fill="#008f4c" stroke="#000" stroke-width=".262"/>
<path d="M238.4 296.856c-.38-.102-1.27-.046-1.897.112-.59.147-.841.392-1.284.502-.464.116-.775.608-1.004.837-.432.432-.51.195.781.67.607.223.967.478 1.284.558.493.123.807 0 1.506 0 .537 0 1.24-.062 1.564-.223.658-.33.67-.54.67-1.34 0-.762-.216-.833-.782-1.117-.167-.083-.652 0-.837 0z" fill="#008f4c" stroke="#000" stroke-width=".262"/>
<path d="M239.74 299.088c-.382-.102-1.27-.045-1.898.111-.59.149-.841.393-1.284.503-.464.116-.776.608-1.004.837-.432.433-.511.195.78.67.608.223.967.478 1.285.558.492.123.807 0 1.506 0 .536 0 1.24-.061 1.563-.223.658-.33.67-.54.67-1.34 0-.762-.215-.833-.781-1.117-.167-.082-.651.001-.837.001z" fill="#008f4c" stroke="#000" stroke-width=".262"/>
<path d="M241.638 301.432c-.382-.102-1.271-.046-1.898.112-.59.147-.841.392-1.284.502-.464.116-.776.608-1.004.836-.432.433-.51.195.782.67.606.223.966.478 1.283.558.493.124.807 0 1.507 0 .536 0 1.24-.061 1.563-.223.659-.33.67-.54.67-1.34 0-.76-.216-.833-.782-1.117-.166-.08-.652.002-.837.002z" fill="#008f4c" stroke="#000" stroke-width=".262"/>
<path d="M244.533 303.344c-.393-.042-1.261.157-1.856.41-.56.24-.77.52-1.188.7-.44.189-.67.723-.86.985-.358.496-.472.273.879.538.635.124 1.029.32 1.355.347.506.044.797-.128 1.489-.239.528-.084 1.213-.256 1.508-.467.597-.43.575-.64.449-1.429-.122-.752-.345-.788-.949-.978-.178-.055-.644.104-.827.133zm55.979-12.404c.382-.102 1.27-.046 1.897.112.591.147.842.391 1.284.502.464.116.776.608 1.004.836.433.433.511.196-.78.67-.607.224-.967.479-1.284.559-.492.123-.807 0-1.507 0-.535 0-1.24-.062-1.562-.224-.66-.329-.67-.54-.67-1.339 0-.761.215-.833.781-1.117.166-.081.651 0 .837 0zm-62.222-1.452c-.383-.101-1.272-.045-1.898.112-.59.148-.842.392-1.284.503-.464.115-.777.608-1.005.836-.432.432-.51.195.783.67.606.223.966.478 1.283.558.492.123.807 0 1.507 0 .535 0 1.24-.062 1.562-.223.66-.33.67-.54.67-1.34 0-.761-.215-.833-.781-1.117-.167-.08-.652.001-.838.001z" fill="#008f4c" stroke="#000" stroke-width=".262"/>
<path d="M240.23 287.252c-.362-.158-1.25-.231-1.893-.168-.606.059-.89.264-1.344.31-.476.045-.856.487-1.116.679-.491.365-.534.118.675.777.568.31.885.615 1.188.74.469.195.798.12 1.49.22.53.08 1.236.122 1.58.01.699-.229.74-.436.858-1.227.112-.753-.09-.855-.608-1.219-.154-.106-.646-.094-.83-.122z" fill="#008f4c" stroke="#000" stroke-width=".262"/>
<path d="M243.587 285.397c-.347-.19-1.225-.342-1.871-.337-.609.004-.91.183-1.366.187-.48.004-.897.41-1.173.578-.522.318-.542.07.602.833.538.36.827.692 1.117.844.45.236.785.19 1.465.353.52.127 1.22.233 1.571.15.718-.166.777-.367.965-1.144.18-.74-.013-.86-.497-1.269-.142-.12-.632-.153-.813-.195zm3.025 19.515c-.394-.004-1.24.275-1.809.585-.534.291-.715.59-1.116.809-.42.23-.598.784-.762 1.064-.309.526-.445.316.925.45.644.064 1.055.221 1.382.218.508-.004.781-.202 1.459-.379.518-.133 1.183-.37 1.456-.608.555-.484.513-.691.311-1.465-.191-.737-.416-.751-1.036-.884-.18-.039-.63.163-.81.21z" fill="#008f4c" stroke="#000" stroke-width=".262"/>
<path d="M247.193 306.898c-.394-.002-1.24.276-1.808.586-.535.291-.717.59-1.117.81-.42.228-.598.782-.762 1.062-.31.527-.446.316.924.45.644.065 1.056.221 1.383.22.508-.005.78-.204 1.46-.38.517-.135 1.183-.37 1.455-.609.555-.484.513-.69.312-1.465-.192-.736-.417-.752-1.037-.883-.182-.038-.63.164-.81.21zm19.869 4.689c-.395-.002-1.241.275-1.809.585-.534.291-.716.59-1.116.81-.42.229-.599.784-.762 1.062-.31.527-.445.317.924.452.645.063 1.056.22 1.383.217.508-.004.781-.203 1.46-.378.518-.135 1.183-.37 1.455-.609.555-.484.513-.69.312-1.464-.192-.738-.417-.754-1.036-.884-.183-.04-.632.163-.811.21z" fill="#008f4c" stroke="#000" stroke-width=".262"/>
<path d="M263.043 310.918c-.395-.004-1.24.275-1.809.584-.534.29-.716.59-1.116.809-.42.23-.598.785-.762 1.062-.309.528-.445.317.925.453.644.062 1.055.22 1.383.217.507-.004.78-.202 1.458-.379.519-.134 1.184-.37 1.457-.608.554-.484.512-.69.312-1.464-.192-.738-.419-.753-1.037-.885-.182-.039-.63.164-.811.211z" fill="#008f4c" stroke="#000" stroke-width=".262"/>
<path d="M259.248 310.248c-.394-.004-1.24.275-1.809.584-.534.291-.715.592-1.116.809-.42.23-.598.785-.761 1.064-.31.526-.445.316.924.452.644.062 1.055.22 1.382.217.508-.004.781-.202 1.459-.378.518-.135 1.183-.371 1.456-.609.555-.484.513-.691.311-1.464-.19-.738-.416-.753-1.036-.885-.182-.04-.63.163-.81.21z" fill="#008f4c" stroke="#000" stroke-width=".262"/>
<path d="M256.904 308.238c-.394-.003-1.24.275-1.808.585-.535.291-.716.59-1.117.81-.42.228-.598.783-.762 1.062-.31.526-.445.317.924.451.644.064 1.056.22 1.383.218.508-.005.78-.202 1.46-.379.517-.135 1.183-.37 1.455-.61.555-.483.513-.69.312-1.464-.192-.737-.417-.752-1.036-.883-.183-.038-.63.164-.81.21zm-7.106-1.053c-.355.172-.99.797-1.363 1.326-.349.497-.38.846-.641 1.22-.275.392-.189.968-.212 1.29-.044.61-.259.482 1.03-.004.603-.229 1.042-.27 1.335-.418.452-.23.61-.528 1.138-.985.405-.352.897-.858 1.036-1.192.283-.68.154-.847-.37-1.45-.499-.577-.708-.491-1.321-.335-.18.046-.491.427-.632.548zm51.607-7.204c.381-.102 1.27-.046 1.898.112.59.147.84.392 1.283.502.465.116.777.608 1.005.836.432.434.51.195-.781.67-.608.223-.966.478-1.284.558-.493.124-.806 0-1.507 0-.536 0-1.238-.061-1.563-.223-.658-.33-.67-.54-.67-1.34 0-.76.216-.833.782-1.115.166-.082.65 0 .837 0z" fill="#008f4c" stroke="#000" stroke-width=".262"/>
<path d="M301.132 302.719c.393.025 1.217.367 1.761.717.51.33.67.642 1.053.89.402.258.54.826.681 1.115.27.549.421.35-.956.383-.646.016-1.068.141-1.395.114-.506-.042-.763-.26-1.426-.485-.507-.173-1.154-.458-1.408-.715-.517-.524-.46-.727-.201-1.484.245-.721.472-.72 1.098-.805.184-.025.617.209.793.27zm-26.163 8.468c.384.09 1.142.559 1.622.993.45.408.557.742.895 1.048.355.32.398.902.492 1.211.178.584.36.413-1.005.223-.64-.089-1.076-.033-1.394-.112-.493-.123-.712-.38-1.33-.71-.472-.251-1.064-.636-1.273-.93-.426-.603-.337-.794.04-1.5.359-.671.582-.632 1.215-.615.186.004.574.306.738.392z" fill="#008f4c" stroke="#000" stroke-width=".262"/>
<path d="M299.508 305.115c.38-.102 1.27-.045 1.897.112.59.148.841.392 1.284.502.464.116.776.608 1.004.837.432.433.511.195-.78.67-.608.223-.967.478-1.285.558-.492.124-.807 0-1.506 0-.536 0-1.239-.061-1.563-.223-.658-.33-.67-.54-.67-1.34 0-.76.216-.833.781-1.117.167-.08.651.001.838.001z" fill="#008f4c" stroke="#000" stroke-width=".262"/>
<path d="M296.364 306.237c.393.028 1.215.373 1.756.728.508.332.667.644 1.048.894.401.262.534.83.676 1.12.266.55.418.35-.959.377-.646.012-1.07.136-1.395.107-.506-.045-.762-.263-1.423-.493-.506-.175-1.15-.464-1.404-.723-.514-.526-.456-.73-.194-1.485.25-.72.476-.717 1.104-.799.184-.023.615.214.791.274z" fill="#008f4c" stroke="#000" stroke-width=".262"/>
<path d="M294.122 307.882c.395.028 1.216.373 1.757.728.51.332.667.644 1.049.894.4.262.533.83.675 1.12.267.55.419.351-.958.377-.647.012-1.07.137-1.396.107-.506-.045-.761-.263-1.423-.493-.506-.175-1.15-.464-1.403-.723-.515-.526-.457-.73-.195-1.485.25-.72.476-.717 1.104-.799.184-.024.614.213.79.274z" fill="#008f4c" stroke="#000" stroke-width=".262"/>
<path d="M290.104 308.217c.394.028 1.215.373 1.756.727.51.333.667.646 1.049.895.4.261.534.83.675 1.12.267.55.419.352-.957.378-.648.012-1.07.135-1.397.106-.504-.045-.761-.265-1.423-.493-.506-.176-1.15-.464-1.403-.723-.514-.527-.457-.73-.195-1.484.25-.721.476-.717 1.104-.8.185-.025.616.213.791.274z" fill="#008f4c" stroke="#000" stroke-width=".262"/>
<path d="M287.984 309.891c.393.028 1.215.373 1.757.727.508.334.666.646 1.048.895.4.262.534.83.675 1.12.267.55.418.351-.957.377-.646.012-1.07.136-1.396.107-.506-.045-.762-.264-1.423-.494-.506-.175-1.15-.462-1.403-.723-.515-.526-.456-.729-.195-1.484.25-.721.476-.717 1.104-.799.183-.024.614.213.79.274zm-9.042 1.339c.394.028 1.215.374 1.756.727.51.333.667.647 1.049.895.4.262.534.83.675 1.121.267.549.419.351-.957.377-.648.012-1.07.136-1.397.106-.504-.045-.761-.264-1.423-.492-.506-.176-1.15-.464-1.403-.723-.514-.528-.457-.73-.195-1.485.25-.72.476-.717 1.104-.799.185-.025.616.213.791.274z" fill="#008f4c" stroke="#000" stroke-width=".262"/>
<path d="M284.407 308.808c.349.184.96.833 1.311 1.375.331.51.348.86.596 1.242.261.403.152.975.164 1.298.02.611.24.49-1.028-.043-.597-.251-1.033-.31-1.32-.468-.444-.246-.59-.55-1.101-1.028-.392-.365-.865-.89-.991-1.23-.257-.69-.122-.851.424-1.435.52-.557.726-.463 1.332-.284.18.054.477.445.613.573z" fill="#008f4c" stroke="#000" stroke-width=".262"/>
<path d="M281.973 309.646c.35.184.963.83 1.315 1.372.333.509.35.86.6 1.242.261.4.155.974.168 1.297.022.611.242.49-1.029-.042-.597-.247-1.034-.304-1.32-.462-.445-.244-.591-.549-1.105-1.026-.393-.363-.867-.887-.994-1.226-.26-.69-.124-.851.42-1.437.518-.558.724-.465 1.331-.287.18.052.478.442.614.57zm20.102-12.232c.382-.102 1.27-.045 1.898.112.59.148.841.392 1.284.502.464.117.776.61 1.004.837.432.432.51.195-.781.67-.608.223-.966.478-1.284.558-.492.123-.807 0-1.507 0-.535 0-1.239-.062-1.562-.224-.658-.328-.67-.538-.67-1.339 0-.763.215-.833.781-1.116.166-.083.65 0 .837 0zm-66.577-5.246c-.38-.102-1.27-.045-1.898.112-.59.147-.841.392-1.283.502-.464.117-.776.61-1.005.837-.432.432-.51.195.782.67.607.223.966.479 1.283.558.493.123.807 0 1.508 0 .536 0 1.238-.062 1.563-.224.658-.328.67-.538.67-1.339 0-.762-.216-.833-.783-1.116-.166-.084-.65 0-.837 0z" fill="#008f4c" stroke="#000" stroke-width=".262"/>
<path d="M238.847 292.168c-.38-.102-1.27-.045-1.897.112-.59.147-.842.392-1.284.502-.464.117-.776.61-1.004.837-.433.432-.511.195.78.67.608.223.967.479 1.284.558.493.123.807 0 1.508 0 .536 0 1.238-.062 1.563-.224.658-.328.67-.538.67-1.339 0-.762-.216-.833-.783-1.116-.167-.084-.65 0-.837 0z" fill="#008f4c" stroke="#000" stroke-width=".262"/>
<path d="M265.406 289.644c.239-.247-1.682 0-3.496 0-1.11 0-1.056 1.614-.875 2.37.17.711 2.73.883 3.322.73 1.23-.321 1.144-.984 1.748-1.823.526-.731.26-.677-.7-1.277z" fill="#008f4c" stroke="#000" stroke-width=".21"/>
<path d="M268.203 290.606c-.38-.104-1.27-.045-1.897.111-.591.148-.842.392-1.284.502-.464.116-.776.61-1.004.838-.433.432-.511.195.78.67.607.223.967.478 1.284.557.493.124.807 0 1.507 0 .536 0 1.24-.061 1.562-.223.66-.329.67-.54.67-1.34 0-.761-.215-.832-.781-1.115-.166-.085-.651 0-.837 0z" fill="#008f4c" stroke="#000" stroke-width=".262"/>
<path d="M268.092 287.926c-.382-.102-1.27-.045-1.899.112-.59.147-.84.392-1.283.502-.464.116-.776.608-1.005.837-.431.433-.51.195.782.67.607.223.966.478 1.284.558.492.123.806 0 1.506 0 .536 0 1.24-.061 1.563-.223.658-.33.67-.54.67-1.34 0-.762-.215-.833-.782-1.117-.166-.081-.65 0-.836 0z" fill="#008f4c" stroke="#000" stroke-width=".262"/>
<path d="M266.633 304.322c.24-.248-1.682 0-3.496 0-1.11 0-1.056 1.614-.874 2.37.171.712 2.73.883 3.322.73 1.23-.321 1.144-.985 1.748-1.824.525-.73.26-.676-.7-1.276zm-2.233-17.58c.24-.247-1.68 0-3.496 0-1.11 0-1.055 1.614-.874 2.37.171.712 2.73.883 3.322.73 1.23-.321 1.144-.985 1.748-1.824.526-.731.26-.676-.7-1.276zm-8.817 8.148c.239-.247-1.682 0-3.497 0-1.11 0-1.056 1.614-.874 2.37.17.713 2.73.884 3.322.73 1.23-.32 1.144-.984 1.748-1.822.527-.733.26-.677-.699-1.277z" fill="#008f4c" stroke="#000" stroke-width=".21"/>
<path d="M260.048 294.668c.238-.25-1.682 0-3.497 0-1.11 0-1.056 1.612-.875 2.37.171.71 2.73.882 3.322.728 1.23-.32 1.145-.982 1.748-1.822.527-.732.26-.676-.698-1.276z" fill="#008f4c" stroke="#000" stroke-width=".21"/>
<path d="M262.391 291.988c.24-.248-1.681 0-3.495 0-1.11 0-1.056 1.614-.875 2.37.17.712 2.73.883 3.322.73 1.23-.321 1.144-.985 1.748-1.824.526-.73.259-.676-.7-1.276zm-5.691 5.135c.238-.248-1.682 0-3.498 0-1.11 0-1.056 1.614-.874 2.37.17.712 2.73.883 3.322.729 1.23-.32 1.144-.983 1.748-1.822.527-.732.26-.677-.699-1.277zm-5.136 7.257c.239-.25-1.681 0-3.496 0-1.11 0-1.055 1.611-.874 2.368.17.712 2.73.883 3.322.73 1.23-.321 1.144-.983 1.748-1.823.526-.732.258-.676-.7-1.276z" fill="#008f4c" stroke="#000" stroke-width=".21"/>
<path d="M298.819 292.205c.305-.305-2.147 0-4.464 0-1.417 0-1.35 1.975-1.117 2.902.218.871 3.487 1.082 4.242.893 1.57-.393 1.462-1.204 2.232-2.233.672-.896.33-.827-.893-1.562zm-47.775 4.131c-.38-.104-1.27-.046-1.897.111-.59.148-.841.392-1.284.502-.464.116-.776.61-1.004.838-.432.432-.511.193.78.67.608.223.967.478 1.285.557.492.123.805 0 1.506 0 .536 0 1.238-.06 1.563-.223.658-.329.67-.54.67-1.34 0-.761-.216-.832-.781-1.115-.167-.084-.651 0-.838 0zm-6.407-8.962c-.381-.102-1.27-.045-1.898.112-.59.147-.84.39-1.283.502-.465.116-.777.608-1.005.837-.432.433-.51.195.782.67.607.223.966.478 1.284.558.492.123.805 0 1.506 0 .536 0 1.238-.06 1.563-.223.658-.33.67-.54.67-1.34 0-.761-.216-.833-.782-1.116-.166-.083-.65 0-.837 0zm24.719 22.853c-.381-.103-1.271-.046-1.898.11-.59.15-.841.394-1.284.503-.464.117-.775.61-1.004.838-.432.431-.51.194.782.67.607.222.966.478 1.283.557.493.124.807 0 1.507 0 .536 0 1.239-.061 1.563-.223.658-.329.67-.54.67-1.34 0-.76-.215-.832-.782-1.115-.167-.083-.651 0-.837 0zm-20.522-8.051c-.38-.103-1.27-.046-1.897.111-.59.149-.841.393-1.284.503-.464.116-.776.608-1.004.837-.432.432-.511.195.78.67.608.222.967.478 1.285.558.492.123.805 0 1.506 0 .536 0 1.238-.062 1.563-.224.658-.329.67-.54.67-1.34 0-.76-.216-.832-.781-1.115-.167-.083-.651 0-.838 0z" fill="#008f4c" stroke="#000" stroke-width=".262"/>
<path d="M271.578 307.68c.239-.25-1.682 0-3.496 0-1.11 0-1.056 1.612-.875 2.369.171.712 2.73.883 3.322.73 1.23-.321 1.144-.984 1.748-1.824.526-.73.26-.676-.7-1.275zm6.314.316c.239-.25-1.682 0-3.496 0-1.11 0-1.056 1.612-.875 2.37.17.71 2.73.882 3.322.728 1.23-.32 1.144-.983 1.748-1.822.526-.733.26-.676-.7-1.276z" fill="#008f4c" stroke="#000" stroke-width=".21"/>
<path d="M278.05 304.838c.238-.248-1.682 0-3.498 0-1.11 0-1.055 1.613-.874 2.37.171.712 2.73.883 3.322.73 1.23-.322 1.145-.985 1.748-1.824.527-.73.26-.676-.698-1.276z" fill="#008f4c" stroke="#000" stroke-width=".21"/>
<path d="M273.156 304.838c.239-.248-1.681 0-3.497 0-1.11 0-1.054 1.613-.874 2.37.171.712 2.73.883 3.322.73 1.23-.322 1.144-.985 1.748-1.824.527-.73.26-.676-.699-1.276zm4.42-23.204c.239-.249-1.681 0-3.497 0-1.11 0-1.054 1.612-.874 2.37.171.711 2.73.883 3.322.729 1.23-.32 1.144-.985 1.748-1.822.527-.733.259-.677-.699-1.277zm5.13 3.323c.24-.25-1.68 0-3.496 0-1.11 0-1.056 1.612-.874 2.37.171.71 2.73.882 3.322.728 1.23-.32 1.144-.982 1.749-1.822.525-.732.258-.676-.7-1.276z" fill="#008f4c" stroke="#000" stroke-width=".21"/>
<path d="M281.207 283.213c.239-.25-1.681 0-3.497 0-1.11 0-1.056 1.612-.874 2.37.17.71 2.73.882 3.322.728 1.23-.32 1.144-.983 1.748-1.822.527-.733.259-.676-.699-1.276z" fill="#008f4c" stroke="#000" stroke-width=".21"/>
<path d="M285.943 284.475c.238-.248-1.682 0-3.496 0-1.11 0-1.056 1.613-.875 2.37.17.711 2.73.882 3.322.729 1.23-.321 1.144-.984 1.748-1.823.526-.731.259-.677-.7-1.276zm-22.573-1.105c.238-.249-1.682 0-3.497 0-1.11 0-1.055 1.613-.875 2.37.172.711 2.73.883 3.323.729 1.23-.32 1.144-.983 1.748-1.822.526-.733.259-.677-.7-1.277z" fill="#008f4c" stroke="#000" stroke-width=".21"/>
<path d="M258.16 283.055c.239-.25-1.682 0-3.497 0-1.11 0-1.056 1.612-.874 2.37.17.71 2.73.882 3.322.728 1.23-.32 1.144-.982 1.748-1.822.527-.732.26-.676-.699-1.276zm30.15 24.467c.24-.248-1.681 0-3.497 0-1.11 0-1.055 1.613-.874 2.37.171.711 2.73.882 3.322.73 1.23-.322 1.145-.985 1.749-1.824.526-.732.259-.677-.7-1.276z" fill="#008f4c" stroke="#000" stroke-width=".21"/>
<path d="M253.91 283.344c.305-.305-2.148 0-4.465 0-1.417 0-1.348 1.975-1.116 2.902.218.871 3.486 1.082 4.241.893 1.57-.393 1.463-1.204 2.233-2.233.671-.895.33-.828-.893-1.562zm-2.526 9.787c.305-.305-2.146 0-4.465 0-1.416 0-1.347 1.975-1.116 2.902.218.871 3.486 1.082 4.243.893 1.569-.393 1.46-1.204 2.232-2.232.671-.897.33-.829-.894-1.563zm16.89 1.894c.305-.305-2.147 0-4.464 0-1.417 0-1.348 1.975-1.116 2.902.217.871 3.486 1.082 4.242.893 1.57-.393 1.46-1.205 2.232-2.232.672-.896.33-.828-.894-1.563zm9.946 1.737c.305-.305-2.148 0-4.465 0-1.417 0-1.348 1.975-1.116 2.902.218.871 3.486 1.082 4.241.893 1.57-.393 1.463-1.206 2.233-2.233.671-.896.33-.828-.893-1.562zm1.736-10.103c.305-.305-2.148 0-4.464 0-1.417 0-1.35 1.975-1.117 2.901.218.873 3.487 1.083 4.242.894 1.57-.393 1.462-1.204 2.232-2.233.672-.895.33-.827-.893-1.562z" fill="#008f4c" stroke="#000" stroke-width=".262"/>
<path d="M284.85 287.607c.304-.306-2.148 0-4.465 0-1.417 0-1.349 1.974-1.116 2.901.217.873 3.486 1.082 4.24.894 1.571-.393 1.463-1.204 2.233-2.233.672-.896.331-.828-.893-1.562z" fill="#008f4c" stroke="#000" stroke-width=".262"/>
<path d="M281.377 294.512c.305-.26-2.148 0-4.464 0-1.417 0-1.35 1.682-1.117 2.473.218.742 3.486.92 4.241.76 1.57-.335 1.463-1.026 2.233-1.901.672-.764.33-.706-.893-1.332z" fill="#008f4c" stroke="#000" stroke-width=".242"/>
<path d="M285.797 297.71c.305-.306-2.148 0-4.464 0-1.417 0-1.35 1.974-1.117 2.901.218.871 3.486 1.082 4.241.893 1.57-.393 1.463-1.205 2.233-2.232.672-.897.33-.828-.893-1.563zm-10.61-13.529c.38-.102 1.27-.046 1.897.111.59.148.842.392 1.283.503.465.115.777.608 1.005.836.433.434.51.195-.781.67-.608.223-.966.478-1.284.558-.492.123-.805 0-1.507 0-.535 0-1.238-.062-1.562-.223-.658-.33-.67-.54-.67-1.34 0-.761.216-.833.783-1.116.165-.082.649.001.836.001zm.473 5.209c.38-.103 1.27-.046 1.897.111.59.147.841.391 1.284.503.464.115.776.608 1.004.836.433.433.511.195-.78.67-.608.224-.967.479-1.285.558-.492.123-.805 0-1.507 0-.535 0-1.238-.06-1.562-.223-.658-.33-.67-.54-.67-1.34 0-.761.216-.832.781-1.116.168-.082.652 0 .838 0zm22.397 6.462c.38-.103 1.27-.046 1.897.111.59.148.841.392 1.284.502.464.116.776.61 1.004.838.433.432.51.194-.78.67-.608.222-.967.478-1.285.557-.492.123-.805 0-1.507 0-.535 0-1.238-.061-1.562-.223-.658-.33-.67-.54-.67-1.34 0-.761.216-.832.782-1.115.166-.084.65 0 .837 0z" fill="#008f4c" stroke="#000" stroke-width=".262"/>
<path d="M294.82 296.633c.381-.102 1.27-.045 1.897.111.59.148.841.393 1.284.502.464.118.775.61 1.004.838.432.432.51.195-.782.67-.606.223-.966.478-1.283.558-.492.123-.807 0-1.507 0-.535 0-1.239-.062-1.562-.224-.66-.329-.67-.54-.67-1.339 0-.763.215-.833.781-1.116.167-.084.652 0 .837 0zm-.224 8.148c.381-.103 1.27-.045 1.898.112.59.147.84.392 1.283.502.465.116.777.61 1.005.838.432.431.51.194-.781.67-.608.222-.966.478-1.284.557-.493.123-.806 0-1.507 0-.536 0-1.238-.062-1.563-.223-.658-.33-.67-.54-.67-1.34 0-.762.216-.832.782-1.116.167-.083.651 0 .837 0z" fill="#008f4c" stroke="#000" stroke-width=".262"/>
<path d="M296.159 302.771c.38-.101 1.27-.045 1.897.112.59.148.841.392 1.284.502.464.116.776.609 1.004.837.432.433.51.196-.78.67-.608.223-.967.479-1.284.559-.493.123-.807 0-1.508 0-.536 0-1.238-.063-1.563-.224-.658-.329-.67-.54-.67-1.339 0-.763.216-.834.783-1.117.166-.082.65 0 .837 0zm1.563-4.576c.38-.102 1.27-.045 1.897.112.59.148.842.392 1.284.502.464.117.776.61 1.004.837.433.432.511.195-.78.67-.608.223-.967.479-1.285.558-.492.124-.805 0-1.506 0-.536 0-1.24-.062-1.564-.224-.658-.328-.669-.538-.669-1.338 0-.762.215-.834.781-1.117.167-.083.652 0 .838 0z" fill="#008f4c" stroke="#000" stroke-width=".262"/>
<path d="M294.596 300.316c.381-.102 1.27-.045 1.898.112.59.147.84.392 1.283.502.465.116.777.61 1.005.837.432.432.51.195-.781.67-.608.223-.966.479-1.284.558-.493.123-.806 0-1.507 0-.536 0-1.238-.062-1.563-.224-.658-.329-.67-.539-.67-1.34 0-.76.216-.832.782-1.115.167-.084.651 0 .837 0zm-4.799 5.804c.38-.102 1.27-.045 1.897.113.59.146.842.391 1.284.502.464.116.776.608 1.004.837.433.432.51.194-.78.67-.608.223-.967.478-1.285.557-.492.123-.805 0-1.507 0-.535 0-1.238-.06-1.562-.223-.658-.33-.67-.54-.67-1.34 0-.761.216-.832.783-1.116.165-.083.65 0 .836 0zm6.585-18.864c.382-.101 1.27-.045 1.898.112.59.148.841.391 1.284.503.464.115.775.607 1.004.836.432.432.51.195-.781.67-.607.223-.966.478-1.284.558-.492.123-.806 0-1.506 0-.536 0-1.24-.062-1.563-.223-.658-.33-.67-.54-.67-1.34 0-.761.215-.833.781-1.117.167-.08.651.001.837.001zm-13.172 8.261c.382-.103 1.272-.046 1.898.111.59.148.842.392 1.284.503.464.115.776.608 1.004.837.433.432.51.194-.781.669-.606.223-.966.478-1.283.558-.493.124-.807 0-1.507 0-.536 0-1.24-.061-1.562-.222-.66-.33-.67-.541-.67-1.34 0-.762.215-.834.78-1.116.167-.083.652 0 .838 0z" fill="#008f4c" stroke="#000" stroke-width=".262"/>
<path d="M289.07 291.431c.238-.25-1.682 0-3.498 0-1.11 0-1.056 1.612-.874 2.37.171.711 2.73.883 3.322.729 1.23-.32 1.144-.983 1.749-1.822.526-.733.259-.677-.7-1.277zm1.673-4.577c.24-.249-1.681 0-3.496 0-1.11 0-1.055 1.613-.874 2.37.17.711 2.73.883 3.322.73 1.23-.321 1.144-.985 1.748-1.823.526-.733.26-.677-.7-1.277zm3.795 2.79c.24-.247-1.682 0-3.496 0-1.11 0-1.056 1.614-.874 2.37.171.711 2.73.883 3.322.73 1.229-.321 1.144-.984 1.747-1.823.527-.731.26-.677-.699-1.277zm-7.701 14.176c.239-.247-1.682 0-3.497 0-1.11 0-1.056 1.614-.874 2.37.17.712 2.73.883 3.321.73 1.23-.321 1.146-.984 1.75-1.823.526-.732.258-.677-.7-1.276z" fill="#008f4c" stroke="#000" stroke-width=".21"/>
<path d="M287.452 297.414c.382-.102 1.27-.045 1.899.112.59.148.84.392 1.283.502.464.117.777.61 1.005.837.432.432.51.195-.782.67-.607.223-.966.478-1.283.558-.493.123-.807 0-1.507 0-.536 0-1.24-.062-1.563-.224-.658-.328-.67-.538-.67-1.339 0-.763.215-.833.782-1.116.166-.083.65 0 .836 0zm-4.465-4.242c.382-.102 1.271-.045 1.9.112.589.147.84.392 1.282.502.465.116.777.608 1.005.837.432.432.51.195-.781.67-.608.223-.966.478-1.284.558-.492.123-.807 0-1.507 0-.535 0-1.238-.062-1.562-.223-.658-.33-.67-.54-.67-1.34 0-.761.215-.833.781-1.117.167-.081.65 0 .836 0zm3.015-4.018c.381-.102 1.27-.045 1.898.112.59.147.84.391 1.283.502.465.117.777.61 1.005.837.432.432.51.195-.782.67-.607.223-.966.478-1.284.558-.492.123-.806 0-1.506 0-.536 0-1.238-.062-1.563-.224-.658-.329-.67-.538-.67-1.339 0-.763.216-.833.782-1.116.166-.084.65 0 .837 0z" fill="#008f4c" stroke="#000" stroke-width=".262"/>
<path d="M288.235 293.842c.38-.101 1.269-.045 1.897.112.59.148.84.392 1.283.502.465.116.777.609 1.005.837.432.433.51.196-.781.67-.608.223-.966.479-1.284.558-.492.124-.807 0-1.507 0-.535 0-1.238-.062-1.562-.223-.659-.329-.67-.54-.67-1.339 0-.763.215-.834.78-1.117.167-.083.652 0 .839 0zm-.113-8.93c.383-.101 1.271-.045 1.898.112.59.149.841.392 1.284.502.464.116.775.609 1.004.837.432.433.51.196-.781.67-.607.223-.966.479-1.284.559-.492.123-.806 0-1.506 0-.536 0-1.24-.062-1.563-.224-.66-.329-.67-.54-.67-1.339 0-.763.215-.833.782-1.117.165-.083.65 0 .836 0z" fill="#008f4c" stroke="#000" stroke-width=".262"/>
<path d="M292.922 285.47c.38-.101 1.27-.044 1.897.112.59.149.842.393 1.284.502.464.118.776.61 1.004.838.433.432.51.194-.78.67-.607.223-.967.478-1.284.557-.492.124-.807 0-1.507 0-.536 0-1.24-.061-1.562-.223-.66-.328-.67-.54-.67-1.34 0-.762.215-.832.781-1.115.166-.084.651 0 .837 0zm-49.013 11.018c-.346-.19-1.224-.342-1.87-.337-.608.005-.91.183-1.367.187-.478.004-.896.41-1.173.578-.522.319-.542.07.602.834.538.36.827.692 1.118.843.449.237.783.19 1.464.355.522.126 1.219.231 1.572.15.717-.166.778-.368.965-1.145.179-.74-.014-.86-.497-1.269-.143-.12-.633-.153-.814-.196zm3.571-11.943c-.346-.19-1.223-.342-1.87-.337-.609.004-.91.183-1.366.187-.478.004-.897.41-1.173.578-.522.318-.542.07.602.833.538.36.827.692 1.116.844.45.236.785.19 1.465.354.52.126 1.22.232 1.571.15.718-.165.779-.367.966-1.144.18-.74-.013-.861-.498-1.27-.14-.119-.632-.152-.812-.195z" fill="#008f4c" stroke="#000" stroke-width=".262"/>
<path d="M247.704 299.167c-.347-.188-1.224-.342-1.871-.337-.608.005-.91.184-1.365.188-.48.004-.898.409-1.174.578-.522.318-.542.068.602.834.538.359.827.691 1.118.843.449.235.783.19 1.464.353.52.126 1.22.232 1.571.15.717-.165.778-.368.965-1.145.18-.741-.014-.86-.497-1.269-.142-.118-.632-.15-.813-.195z" fill="#008f4c" stroke="#000" stroke-width=".262"/>
<path d="M253.062 298.943c-.347-.189-1.224-.342-1.871-.336-.608.004-.91.183-1.365.187-.479.004-.898.409-1.174.578-.521.318-.542.07.603.833.537.36.826.693 1.116.845.45.235.784.189 1.465.354.52.125 1.219.23 1.57.149.718-.165.78-.368.967-1.146.179-.74-.014-.859-.498-1.267-.141-.12-.633-.153-.813-.197zm1.116 3.014c-.347-.188-1.224-.341-1.871-.336-.608.004-.91.184-1.365.187-.479.004-.898.409-1.174.578-.521.319-.542.07.603.835.537.36.826.691 1.116.843.45.235.784.19 1.465.354.52.125 1.219.23 1.57.15.718-.166.78-.37.967-1.146.179-.74-.014-.86-.498-1.268-.141-.12-.633-.153-.813-.197zm-1.675-12.724c-.346-.189-1.224-.342-1.87-.336-.608.003-.91.182-1.367.186-.478.004-.896.41-1.173.578-.521.319-.542.07.603.834.538.36.826.692 1.117.844.449.235.783.189 1.465.354.52.125 1.218.23 1.57.15.718-.166.778-.369.966-1.146.179-.74-.014-.86-.497-1.268-.142-.12-.633-.152-.814-.196z" fill="#008f4c" stroke="#000" stroke-width=".262"/>
<path d="M253.619 286.666c-.345-.19-1.224-.343-1.87-.338-.608.006-.91.184-1.366.188-.479.003-.897.41-1.174.578-.521.318-.542.069.603.833.538.36.826.692 1.117.844.45.236.783.19 1.465.353.52.126 1.218.231 1.571.15.717-.166.777-.367.965-1.144.179-.742-.014-.861-.497-1.27-.142-.118-.632-.151-.814-.194zm-9.152 6.139c-.347-.19-1.224-.342-1.871-.337-.608.004-.91.183-1.365.187-.479.004-.898.41-1.174.578-.521.319-.542.07.602.835.538.359.827.692 1.118.843.45.235.783.189 1.464.353.52.126 1.22.232 1.571.15.718-.165.779-.367.966-1.144.18-.74-.013-.861-.498-1.27-.141-.12-.632-.152-.813-.195z" fill="#008f4c" stroke="#000" stroke-width=".262"/>
<path d="M245.918 295.26c-.347-.189-1.224-.342-1.871-.336-.608.004-.91.183-1.365.186-.479.004-.898.41-1.173.578-.523.32-.543.07.601.835.538.36.827.692 1.118.844.45.235.784.189 1.464.353.52.125 1.22.23 1.571.15.718-.166.778-.369.966-1.146.18-.74-.013-.86-.498-1.268-.142-.119-.632-.151-.813-.196zm24.713 7.74c-.39-.054-1.267.11-1.87.344-.567.218-.787.49-1.212.655-.446.173-.695.7-.894.954-.376.483-.483.256.857.568.63.148 1.018.358 1.343.397.504.062.8-.098 1.495-.185.532-.065 1.223-.213 1.523-.413.614-.408.599-.618.5-1.412-.093-.756-.314-.8-.911-1.012-.175-.061-.647.08-.83.104z" fill="#008f4c" stroke="#000" stroke-width=".262"/>
<path d="M269.581 301.176c-.346-.189-1.223-.342-1.87-.336-.608.004-.91.183-1.366.187-.479.004-.897.409-1.173.578-.522.318-.542.07.602.833.537.36.826.693 1.116.845.45.235.785.189 1.465.353.52.126 1.219.231 1.57.15.719-.165.78-.368.967-1.146.179-.74-.014-.859-.497-1.267-.142-.12-.633-.153-.814-.197z" fill="#008f4c" stroke="#000" stroke-width=".262"/>
<path d="M269.197 263.033v5.7h-7.419v4.143h7.17l-.004 19.999 5.06.084.248-20.083h7.228l-.058-4.143-7.506-.014.088-5.686h-4.807z" fill="#ed1c24"/>
<path d="M258.978 286.33c-.347-.189-1.225-.341-1.872-.336-.608.004-.91.183-1.365.187-.478.004-.897.409-1.173.578-.522.319-.542.07.602.835.538.359.827.691 1.117.843.45.235.785.19 1.465.353.52.126 1.219.231 1.57.15.719-.165.778-.369.967-1.146.179-.74-.014-.859-.498-1.267-.142-.12-.633-.152-.813-.197zm-14.288 13.953c-.346-.189-1.224-.342-1.87-.336-.609.004-.911.183-1.367.186-.479.004-.897.41-1.173.578-.522.32-.542.07.602.835.538.36.826.693 1.117.844.45.235.784.189 1.465.353.52.126 1.22.232 1.571.15.717-.166.778-.367.965-1.145.179-.74-.014-.86-.497-1.269-.141-.12-.632-.152-.813-.196zm17.989 6.758c-.394-.023-1.254.212-1.836.492-.548.264-.745.554-1.156.752-.432.207-.636.752-.814 1.023-.337.51-.461.293.9.498.64.095 1.043.273 1.37.287.507.02.79-.163 1.476-.305.524-.108 1.201-.31 1.485-.534.578-.456.547-.664.385-1.447-.154-.746-.38-.773-.99-.935-.18-.049-.638.131-.82.17z" fill="#008f4c" stroke="#000" stroke-width=".262"/>
<path d="M266.121 308.767c-.346-.19-1.223-.343-1.87-.337-.609.005-.91.184-1.366.188-.478.002-.897.408-1.173.577-.522.32-.542.07.602.835.537.36.827.691 1.116.843.45.235.784.19 1.465.354.52.125 1.22.23 1.571.15.718-.166.779-.37.966-1.145.18-.741-.014-.86-.498-1.27-.14-.119-.632-.151-.813-.195zm1.005-10.157c-.347-.19-1.224-.343-1.871-.339-.608.006-.91.184-1.365.188-.479.004-.898.41-1.174.578-.522.318-.542.07.602.834.538.359.827.692 1.118.843.449.237.784.19 1.464.353.52.126 1.22.232 1.571.15.718-.165.778-.367.965-1.144.18-.741-.012-.861-.497-1.269-.142-.118-.632-.152-.813-.194zm-5.916-2.01c-.347-.19-1.224-.343-1.871-.337-.609.004-.91.183-1.366.186-.478.004-.897.41-1.173.578-.522.32-.542.07.602.835.538.36.827.693 1.117.844.45.235.784.19 1.465.353.52.126 1.22.232 1.571.15.718-.166.777-.367.966-1.145.18-.74-.014-.86-.498-1.267-.14-.12-.632-.154-.813-.198zm14.911 5.551c.36.162 1.246.248 1.891.195.607-.052.894-.252 1.348-.291.476-.04.863-.476 1.126-.665.495-.357.535-.11-.664-.786-.564-.319-.877-.627-1.178-.757-.467-.2-.796-.13-1.487-.241-.53-.086-1.233-.138-1.579-.03-.702.22-.747.425-.875 1.215-.122.752.08.856.592 1.227.15.108.642.103.826.133zm-9.888-9.681c-.346-.189-1.224-.342-1.87-.337-.608.005-.91.183-1.367.187-.478.004-.897.41-1.173.578-.521.319-.542.069.603.834.536.36.826.692 1.116.844.45.235.784.189 1.465.353.52.126 1.219.231 1.572.15.717-.166.777-.368.965-1.146.179-.74-.014-.86-.497-1.269-.142-.117-.634-.15-.814-.194zm13.883 16.205c.36.162 1.246.248 1.89.195.607-.052.894-.252 1.348-.291.478-.04.864-.477 1.126-.665.497-.358.536-.11-.664-.786-.563-.319-.876-.627-1.177-.757-.467-.2-.796-.13-1.487-.241-.529-.086-1.233-.14-1.579-.03-.703.219-.747.425-.876 1.215-.122.753.08.856.593 1.227.15.108.643.102.826.133zm5.47-5.246c.36.162 1.246.247 1.89.194.607-.051.894-.251 1.348-.29.477-.04.864-.477 1.126-.666.495-.357.536-.11-.664-.786-.563-.318-.876-.627-1.177-.757-.467-.2-.796-.13-1.487-.24-.53-.087-1.234-.14-1.58-.031-.701.22-.746.426-.874 1.215-.122.753.08.857.592 1.228.15.107.643.103.826.133zm-15.739-4.465c.36.162 1.247.248 1.891.195.606-.052.893-.252 1.348-.291.476-.04.863-.477 1.124-.665.496-.358.536-.11-.664-.786-.563-.319-.876-.627-1.176-.757-.467-.2-.797-.13-1.488-.241-.529-.086-1.233-.14-1.579-.03-.702.219-.747.425-.875 1.215-.122.753.078.856.592 1.227.152.108.643.103.827.133z" fill="#008f4c" stroke="#000" stroke-width=".262"/>
<path d="M272.861 297.402c.36.162 1.246.247 1.891.193.607-.05.894-.252 1.348-.29.476-.04.863-.477 1.125-.666.496-.357.536-.11-.663-.785-.564-.319-.877-.628-1.178-.757-.467-.2-.797-.13-1.488-.242-.529-.085-1.232-.139-1.578-.03-.702.22-.748.426-.875 1.215-.122.752.079.857.591 1.228.152.108.644.103.827.134zM248.708 287c-.345-.189-1.224-.342-1.87-.336-.608.004-.91.182-1.366.186-.479.004-.898.41-1.173.578-.522.319-.542.07.602.834.537.36.826.692 1.116.844.45.235.785.189 1.465.354.52.125 1.219.23 1.572.15.717-.166.777-.369.965-1.146.179-.74-.014-.86-.497-1.268-.142-.119-.633-.152-.814-.196zm-5.022 3.35c-.347-.19-1.225-.343-1.871-.339-.609.006-.91.184-1.366.188-.478.004-.897.409-1.173.578-.522.318-.542.07.602.834.538.359.827.692 1.117.843.45.235.785.19 1.465.353.52.126 1.22.232 1.571.15.718-.165.777-.368.966-1.144.18-.741-.014-.861-.498-1.27-.141-.117-.632-.15-.813-.193z" fill="#008f4c" stroke="#000" stroke-width=".262"/>
<path d="M248.597 290.572c-.347-.189-1.224-.342-1.872-.336-.608.004-.909.183-1.365.186-.478.004-.897.41-1.173.578-.522.32-.542.07.602.835.538.36.827.692 1.117.844.45.235.784.189 1.464.353.52.126 1.22.231 1.571.15.718-.166.779-.367.966-1.145.18-.74-.013-.86-.498-1.269-.14-.12-.631-.153-.812-.196zm47.003-.637c.383-.102 1.271-.045 1.898.112.59.147.841.392 1.284.502.464.117.775.61 1.004.837.433.432.51.195-.781.67-.607.223-.966.479-1.284.558-.492.123-.806 0-1.506 0-.536 0-1.24-.062-1.563-.224-.66-.329-.67-.539-.67-1.338 0-.763.215-.834.782-1.117.166-.084.651 0 .837 0zm-20.733 1.37c-1.481.14-1.173-.69-3.126.557-.524.335-.79 1.417-.558 2.345.218.871 3.486 1.081 4.241.893 1.57-.393 1.462-1.205 2.232-2.232.673-.897-1.119-1.052-2.789-1.563z" fill="#008f4c" stroke="#000" stroke-width=".262"/>
<path d="M274.48 359.7c-.935-.56-.894-2.105-.894-3.795 0-1.067-.04-2.397-.222-3.125-.146-.58-.234-.467-.447-.893" fill="none" stroke="#2d3235" stroke-width=".262"/>
<path d="M268.675 359.03c-.285-1.142 2.376-.957 2.902-2.009.33-.662-.298-2.306-.446-2.902-.114-.455-.447-.592-.447-1.34" fill="none" stroke="#2d3235" stroke-width=".328"/>
<path d="M269.902 331.46c-.933-.56-.892-2.104-.892-3.796 0-1.066-.042-2.397-.224-3.125-.145-.58-.233-.467-.446-.893m-17.805 34.126c.335-1.037 1.847-1.346 3.496-1.727 1.038-.24 2.326-.582 2.993-.924.533-.271.403-.332.77-.636m14.788-11.194c-.934-.56-.893-2.102-.893-3.794 0-1.067-.041-2.397-.223-3.125-.145-.58-.234-.467-.447-.893m2.456-14.735c-.933-.56-.893-2.103-.893-3.794 0-1.067-.041-2.397-.223-3.125-.145-.58-.234-.468-.447-.894" fill="none" stroke="#2d3235" stroke-width=".262"/>
<path d="M296.013 208.796c-3.515 2.74-11.429 8.881-15.211 8.998-3.756.116-8.576-3.977-12.486-6.63-6.402 4.36-11.096 8.198-14.073 8.06-2.902-.134-8.326-4.935-11.865-7.59-4.242 3.03-10.264 9.867-13.16 9.515-2.941-.358-5.633-2.081-10.607-5.778l-2.672 2.055c1.321.791 9.034 6.806 13.312 6.6 4.633-.224 9.835-6.138 13.28-8.364 2.93 1.883 7 6.828 12.271 6.782 3.4-.03 9.392-4.847 13.442-7.902 2.495 1.55 10.116 6.712 12.782 6.668 4.55-.073 11.659-6.197 14.896-8.152 2.062 2.317 9.895 7.176 13.156 7.176 3.93 0 9.193-4.524 12.286-7.064 2.865 3.038 9.565 7.227 13.563 7.236 3.216.007 11.02-5.547 13.117-7.11 2.101 2.01 11.05 7.414 12.798 7.537 3.484.245 11.337-4.909 13.97-6.776 2.377 2.191 10.15 8.037 13.746 8.053 3.627.016 11.14-5.207 13.034-7.37 2.452 2.08 9.032 9.066 13.06 9.226 5.181.207 13.176-7.12 14.909-8.019l-3.412-.715c-1.897.983-6.786 5.85-11.324 5.924-2.831.046-11.486-8.033-12.969-10.23-1.594 2.044-10.06 8.391-13.409 8.374-2.795-.015-11.331-6.638-13.39-8.389-2.334 1.634-10.599 6.778-13.819 6.777-2.718 0-10.831-5.975-12.86-8.095-1.698 1.674-10.323 7.628-13.497 7.622-3.175-.007-10.348-5.728-13.517-7.86-2.61 1.776-9.072 7.697-12.172 7.65-3.55-.057-11.083-6.23-13.179-8.209z" fill="#eac102" stroke="#000" stroke-width=".262"/>
<path d="M427.234 182.047c-2.41-.093-1.604-1.116-4.66.082-3.458 1.816-4.066 5.558-4.147 7.21-1.261 1.507-2.067.888-2.121 6.5.138 3.968 5.195 6.41 6.44 6.77.075 4.218-1.028 13.081 4.124 13.71 4.227.516 5.01-2.308 5.335-5.514.065-3.43.122-11.094-.53-15.95-1.057-7.886-3.205-12.76-4.44-12.808z" fill="#eac102" stroke="#000" stroke-width=".262"/>
<path d="M444.612 154.506c-2.065 1.554-11.096 9.427-11.99 12.796-.746 2.815-.932 5.554-1.32 8.996-.279 2.49.523 8.419.508 10.102-.016 1.683.247 3.846.268 5.688.02 1.842-.544 3.997-2.12 4.97-1.654 1.023-4.74.69-6.006-.334-1.323-1.07-2.057-3.427-1.78-5.053.419-2.444 1.853-4.192 2.353-5.832.521-1.713 2.027-7.559 1.862-9.933-.106-1.533-1.24-3.866-2.634-6.133-1.91-3.1-4.566-4.207-7.668-8.077 4.707-.593 6.706-.06 10.092-.887 3.897-1.893 17.08-7.359 18.435-6.303zm-228.513 28.376c2.41-.093 1.603-1.115 4.66.082 3.457 1.817 4.066 5.56 4.146 7.211 1.261 1.506 2.067.888 2.122 6.5-.138 3.968-5.196 6.409-6.44 6.77-.075 4.219 1.028 13.081-4.124 13.71-4.227.516-5.01-2.308-5.335-5.514-.064-3.43-.121-11.094.53-15.95 1.056-7.886 3.205-12.76 4.44-12.809z" fill="#eac102" stroke="#000" stroke-width=".262"/>
<path d="M199.7 154.753c2.064 1.554 9.99 9.428 10.884 12.796.746 2.815.933 5.554 1.32 8.996.28 2.49-.524 8.42-.508 10.103.016 1.683-.247 3.845-.267 5.687-.02 1.843.542 4.787 2.119 5.76 1.654 1.022 4.897.217 6.164-.807 1.322-1.07 1.9-3.743 1.62-5.369-.418-2.445-1.852-4.192-2.351-5.832-.522-1.713-2.029-7.558-1.862-9.933.106-1.533 1.19-3.896 2.634-6.133 1.593-2.469 5.197-3.101 8.299-6.972-4.708-.593-10.968-3.216-14.198-5.939-3.42-2.21-12.5-3.412-13.855-2.357zm23.198 97.786c-2.875-.015-4.265 4.587.486 4.423 2.36-.081 48.449-3.845 99.052-3.819 51.445.026 94.747 3.438 97.836 3.445 3.246.007 3.64-4.865.85-4.978-2.633-.107-46.999-2.899-99.102-2.887-51.074.013-97.695 3.824-99.122 3.816z" fill="#eac102" stroke="#000" stroke-width=".262"/>
<path d="M421.05 241.007c-.353 1.825-.3 5.845 1.42 6.314 1.74.474 4.622-3.149 5.13-5.525.493-2.3.016-6.277-1.814-6.63-1.845-.356-4.384 4.015-4.737 5.84zm-198.123.245c.257 1.84-.005 5.853-1.748 6.232-1.762.382-4.452-3.385-4.837-5.785-.372-2.324.312-6.27 2.16-6.527 1.86-.259 4.167 4.239 4.425 6.08z" fill="#ed1c24" stroke="#000" stroke-width=".262"/>
<path d="M333.163 369.152l10.894.06.03 147.235c-3.175.568-7.143 1.594-10.924 1.859V369.152z" fill="#ed1c24"/>
<path d="M243.845 413.709c-.223.311.177 2.005.9 2.716.603.596 1.07 1.246 2.576.85 0 0 .25-.58-.727-3.711l-2.749.145z" fill="#999" stroke="#000" stroke-width=".374"/>
<path d="M255.133 408.717c.667-.176 2.395-.37 3.833-.846 1.534-.508 2.459-1.357 3.037-1.89" fill="none" stroke="#000" stroke-width=".328"/>
<path d="M258.447 406.52l-.05.093c.094-.17.061-.125-.04.158-.13.268-.153.432-.285.685-.141.253-.28.432-.421.669m1.282-1.605l-.05.093c.095-.17.062-.125-.04.158-.13.268-.153.432-.285.685-.14.253-.28.432-.42.669m1.524-1.968l-.05.091c.095-.17.062-.125-.04.158-.13.268-.152.432-.284.686-.141.252-.281.432-.421.668m-9.844 7.758l-.05.091c.095-.17.062-.123-.04.16-.13.266-.152.43-.285.684-.14.253-.28.432-.42.67m1.464-1.727c-.016.03-.034.06-.05.092.095-.17.062-.125-.04.158-.13.268-.152.432-.284.686-.141.251-.28.432-.421.668" fill="none" stroke="#000" stroke-width=".234"/>
<path d="M245.77 416.028c-.275-.198-.628-.997-.678-1.242l-.048-.246" fill="none" stroke="#000" stroke-width=".253"/>
<path d="M300.606 407.951c-.197.3 1.083-.42 1.421-.297.471.172.762 1.242.945.594.293-1.028 2.023-1.188 2.023-2 0-.484 3.02-3.108 2.842-3.555-.074-.184 1.134-7.018.497-6.683-.327.173-.447-.297-.926-.245-.5.057-.877 4.057-2.13 6.912-.822 1.871-2.51 2.808-3.142 3.364-.883.774-1.303 1.569-1.53 1.91z" fill="#999" stroke="#000" stroke-width=".328"/>
<path d="M298.448 413.086l-.052.092c.096-.17.064-.124-.04.16-.129.266-.152.43-.283.684-.141.253-.28.432-.422.668m.249-1.544c-.016.032-.034.063-.05.092.095-.17.062-.124-.04.16-.13.267-.152.431-.285.684-.14.253-.28.432-.42.669m1.891-1.665l-.052.092c.095-.17.063-.124-.04.16-.13.266-.153.43-.284.684-.14.253-.28.432-.42.668m-12.601-5.022c.135-.255.272-.438.408-.675m-.135 1.157c.136-.256.455-.742.591-.98m-.043.919c.136-.255.272-.438.408-.677m16.86.85l-.055-.09c.102.166.078.116-.12-.111-.17-.244-.302-.344-.46-.582-.15-.246-.24-.456-.377-.694m1.881-.878l-.102.027c.189-.048.134-.041-.143.08-.282.09-.418.185-.691.265-.281.073-.507.094-.776.156m6.005-12.665c.01.033.018.067.027.101-.049-.188-.04-.133.081.143.092.283.188.417.268.692.073.279.095.506.157.773m-1.473-1.436l-.02.102c.038-.19.022-.137.011.164-.042.295-.014.456-.062.739-.055.284-.133.497-.195.765" fill="none" stroke="#000" stroke-width=".234"/>
<path d="M311.849 396.51c-.297-.502-1.316-1.453-1.993-1.589l-.676-.136" fill="none" stroke="#000" stroke-width=".255"/>
<path d="M312.936 399.127c.081 1.074-1.375 3.768-1.624 4.035l-.248.269" fill="none" stroke="#000" stroke-width=".246"/>
<path d="M296.194 389.118c.287.002.574.002.862.002 1.251-.004-.302.021.007-.056.303-.044.55-.218.83-.407l1.097-.604c-.276.281-.644 1.23-.974 1.232-.63.172-1.274.052-1.91.08-.292 0-.585-.001-.877.002l.965-.25z"/>
<path d="M256.965 471.262a8.69 8.69 0 0 0-.232.503l-.29.52a2.14 2.14 0 0 1-.38.42l-.062.112m1.505-1.638c-.037.066-.16.335-.231.502l-.29.52a2.122 2.122 0 0 1-.38.42l-.062.112m3.439-14.298c.002.076.032.37.055.551l.015.594c-.019.2-.057.412-.114.556l.002.127m.43-1.759c.03.07.167.332.256.492l.233.547c.055.191.1.404.098.558l.05.118m-6.157 8.445c-.076.001-.37.028-.552.05l-.594.005a2.196 2.196 0 0 1-.553-.121l-.128.001m2.277 1.329c-.075.01-1.226.22-1.403.262l-.59.074c-.2.001-.416-.016-.564-.058l-.126.016" fill="none" stroke="#000" stroke-width=".234"/>
<path d="M252.861 473.26c-.188-.231-.006-1.006.018-1.22.024-.212.066-.272.066-.272m.485 1.389c-.19-.23-.007-1.006.017-1.22.024-.211.066-.27.066-.27" fill="none" stroke="#000" stroke-width=".224"/>
<g fill="#999" stroke="#000" stroke-width=".374">
<path d="M308.43 477.254c-.84-.596-1.26-1.24-1.997-.924-.738.316-.765.637-.752.626 0 0-.003-1.9-.537-3.215.419-.898 1.383-1.452 2.592-1.443.559-.1 1.711 5.715.695 4.956z"/>
<path d="M300.747 488.495c-1.282.536-1.584-.513-3.06-.813.511-1.2 3.792-5.518 4.134-6.045.656-1.154.767-3.807.943-4.376.797-2.707 1.53-1.697 2.529-1.86.829-.5.818-1.039 1.162-.572.335.456 1.376 4.677 1.303 5.193-.228 1.61-1.44 2.782-2.618 4.176-1.224 1.45-3.11 3.76-4.393 4.297z"/>
</g>
<path d="M305.054 475.253c.086-.063.568-.643.252-1.325-.39-.451 1.432.28 1.12.876-.437.439-1.397.556-1.372.449zm-3.594 22.262c-.068-.356.288-.997.21-1.661-1.114-.656-1.955.769-1.801.853 0 0 1.369.785 1.59.808zm12.499-15.771c-.948.402-1.12 1.257-1.24 2.051-.119.793-.29 1.652-1.21 1.86-1.1-.388-2.62-2.52-2.62-2.52-.02-.29.795-1.051.689-1.87-.14-1.194.707-1.6 1.538-2.043.832-.44 4.023 2.056 2.843 2.522z" fill="#999" stroke="#000" stroke-width=".374"/>
<path d="M317.7 475.534c-.05.896-.717 2.524-1.897 2.988-.948.402-.881 2.75-1 3.543-.12.792-3.244-1.83-3.35-2.65-.14-1.194.528-2.972 1.358-3.413.833-.442 1.758-.976 1.968-1.503.21-.527-.252-1.13.088-1.508 0 0 2.883 1.648 2.833 2.543z" stroke="#000" stroke-width=".374" fill="#999"/>
<path d="M313.428 472.882c-.39-.45 1.58-.583 1.596.787-.052 1.129-1.447 2.031-1.37 1.81.216-.627-.058-2.231-.226-2.597zm-3.892 9.072c-.008 1.112-.773 1.37-1.028.658-.363-1.07-.509-.905-.073-1.023.292-.08.85.238 1.101.365z" fill="#999" stroke="#000" stroke-width=".374"/>
<path d="M321.894 368.914l-.047 150.305" fill="none" stroke="#000" stroke-width=".328"/>
<path d="M266.148 369.04l-.12 51.485-43.345-.058c.154 4.462-.029 7.625.559 12.5l42.786-.059-.06 72.544c4.122 2.49 8.15 4.633 12.8 6.904v-79.448l42.92-.06v-12.381l-42.92.058-.06-51.484h-12.56zm88.832.173h10.923V508.5c-2.935 1.504-7.231 3.519-10.893 4.73l-.03-144.016zm21.846.064h10.924v123.47c-2.035 1.982-7.184 6.706-10.88 9.135l-.044-132.605zm21.847.06h10.924v92.69c-1.319 3.332-7.776 14.523-10.924 18.094V369.337z" fill="#ed1c24"/>
<path d="M309.22 461.821c.061.043.318.191.479.279l.49.338c.149.131.3.288.382.418l.104.072m-1.362 1.716a8.488 8.488 0 0 0-.264-.486l-.243-.543a2.217 2.217 0 0 1-.108-.556l-.052-.116m-22.232 34.408a8.375 8.375 0 0 0-.51.215l-.564.19c-.196.04-.41.065-.564.053a2.447 2.447 0 0 0-.121.04m1.862.048c-.072.025-.16.14-.326.215l-.564.19c-.196.04-.411.065-.565.053l-.12.04m12.041-9.027c-.072.024-1.266.729-1.432.804l-.564.188c-.195.04-.41.067-.564.054-.04.014-.67-.12-.71-.107m11.34 11.289c-.056-.05-1.248-.76-1.394-.869l-.435-.404a2.184 2.184 0 0 1-.319-.469c-.031-.028-.217-.644-.248-.673m.773-20.099c-.017.074-.043 1.46-.065 1.64l-.135.58a2.23 2.23 0 0 1-.25.509c-.01.04-.454.506-.464.548" fill="none" stroke="#000" stroke-width=".234"/>
<path d="M306.598 473.648c.069-.03.33-.17.488-.26l.544-.24a2.17 2.17 0 0 1 .557-.103l.117-.052" fill="#e3e4e5" stroke="#000" stroke-width=".234"/>
<path d="M306.598 474.304c.069-.032.33-.17.488-.261l.544-.24c.191-.057.403-.103.557-.104l.117-.051" fill="none" stroke="#000" stroke-width=".234"/>
</svg>
