<svg xmlns="http://www.w3.org/2000/svg" viewBox="0 0 900 600">
<path fill="#06f" d="M0 0h900v600H0z"/>
<g fill="#f7d417">
<path d="M214.56 311.24l2.118 4.763-14.914 26.812-4.5 5.115h14.648l-2.382-5.733 2.824-5.115 10.148 8.996 10.06-8.996 2.824 5.115-2.383 5.733h14.649l-4.413-5.115-15.002-26.812 2.207-4.763h-15.885zm7.942 7.761l6.354 11.465-6.354 5.733-6.442-5.733 6.442-11.465z"/>
<path d="M272.58 297.07c2.564 4.686 6.176 8.642 10.487 11.503l-1.69 158.79c-1.948.361-14.939 13.609-15.498 15.825-.233 1.095-.408 2.252-.408 3.347 0 7.426 5.768 13.451 12.936 13.451 3.728 0 7.341-1.704 9.788-4.686 3.263 3.043 7.458 4.686 11.77 4.686a17.03 17.03 0 0 0 11.77-4.686c2.447 2.982 6.06 4.686 9.788 4.686 7.167 0 12.935-6.025 12.935-13.45 0-1.096-.115-2.253-.407-3.287-.323-1.369-13.982-15.605-15.499-15.886l-1.69-158.79c4.37-2.921 7.983-6.878 10.546-11.503l88.448-.73c.641 5.446 11.638 20.085 17.072 20.085 5.768 0 10.429-4.93 10.429-10.895 0-3.53-1.573-6.756-4.311-8.825-2.39-1.826-1.166-5.783 1.806-5.783 1.048 0 2.039.548 2.621 1.522a11.05 11.05 0 0 0 2.798.365c4.194 0 7.924-2.556 9.614-6.512.698-1.765 1.106-3.652 1.106-5.54s-.408-3.712-1.106-5.477c-1.69-3.956-5.42-6.573-9.614-6.573-.933 0-1.865.183-2.798.426-1.63 2.739-5.651 1.522-5.651-1.704 0-.974.466-1.948 1.224-2.557 2.738-2.069 4.311-5.356 4.311-8.825 0-6.025-4.662-10.895-10.429-10.895-5.426 0-16.433 14.655-17.072 20.086l-88.437-.762c-2.786-5.115-6.813-9.36-11.71-12.276l-.827-109.32c4.945-.635 19.17-12.67 19.17-17.833 0-5.965-4.662-10.895-10.43-10.895-3.32 0-6.467 1.705-8.39 4.504-1.748 2.496-5.535 1.218-5.535-1.886 0-1.096.524-2.131 1.399-2.678.29-.974.407-2.009.407-2.983 0-4.321-2.448-8.277-6.235-9.982a12.454 12.454 0 0 0-5.302-1.156c-1.806 0-3.612.365-5.244 1.156-3.846 1.705-6.293 5.661-6.293 9.982 0 1.035.117 2.01.408 2.983.875.547 1.457 1.582 1.457 2.678 0 1.765-1.399 3.225-3.088 3.225-.99 0-1.865-.486-2.447-1.339-1.981-2.799-5.127-4.504-8.45-4.504-5.768 0-10.428 4.93-10.428 10.895 0 5.663 14.029 17.249 19.228 17.833l-.874 109.31c-4.836 2.921-8.856 7.121-11.653 12.233l-88.507.792c-.603-5.126-12.17-20.086-17.072-20.086-5.768 0-10.429 4.87-10.429 10.895 0 3.47 1.631 6.756 4.312 8.825a3.343 3.343 0 0 1 1.223 2.557c0 1.765-1.34 3.226-3.03 3.226a2.89 2.89 0 0 1-2.564-1.522c-.932-.243-1.922-.426-2.855-.426-4.136 0-7.923 2.617-9.555 6.573-.758 1.704-1.107 3.591-1.107 5.478 0 1.948.35 3.774 1.107 5.54 1.632 3.955 5.419 6.511 9.555 6.511.933 0 1.923-.122 2.855-.426 1.632-2.678 5.594-1.46 5.594 1.704 0 1.035-.466 2.01-1.223 2.618-2.68 2.008-4.312 5.295-4.312 8.825 0 5.965 4.661 10.895 10.43 10.895 4.879 0 16.471-14.987 17.071-20.086l88.507.731z"/>
<path d="M219.63 296.66l5.706.065V311.2h-5.706zm151.53 17.22c1.573 1.218 2.564 3.043 2.739 5.113.115.791.174 1.582.174 2.434a23.72 23.72 0 0 1-2.68 10.956c-2.681 5.295-9.965 4.93-12.178-.548a19.328 19.328 0 0 1-1.34-7.486c.232-5.6 3.321-10.712 8.157-13.147H352.98c.7.67 1.049 1.522 1.049 2.496 0 .304 0 .608-.116.913a46.451 46.451 0 0 0-1.573 12.051c0 2.008.117 3.956.408 5.964.815 6.696 6.35 11.747 12.877 11.747 5.128 0 9.789-3.165 11.828-8.034 2.097 4.93 6.759 8.034 11.886 8.034 6.526 0 12.06-5.05 12.878-11.807.232-2.009.407-3.957.407-5.904 0-4.078-.582-8.095-1.631-12.05-.291-1.219.059-2.558.932-3.41h-13.007c4.835 2.496 7.923 7.547 8.098 13.147v.61c0 2.311-.408 4.685-1.281 6.876-2.215 5.478-9.498 5.843-12.178.61-2.156-4.14-3.03-8.826-2.564-13.513.233-2.009 1.224-3.834 2.797-5.052h-12.644z"/>
<path d="M374.61 296.72l5.772-.065v17.217h-5.772z"/>
</g>
</svg>
