<svg xmlns="http://www.w3.org/2000/svg" xmlns:xlink="http://www.w3.org/1999/xlink" viewBox="0 0 650 500">
<path fill="#da121a" d="M0 0h650v500H0z"/>
<path fill="#fff" d="M0 250h325v250H0zM325 0h325v250H325z"/>
<g transform="translate(-895.63 -1494.677)">
<g id="a">
<path d="M1027.309 1822.828c-4.527-6.298-14.082-10.582-11.431-19.752-1.245 0-.751-8.936-1.06-9.76l-5.54-3.291.354 5.879-8.726-1.885-.112 8.704-2.357 2.94 2.946 6.054c.118-.059.118 1.823 4.007 1.705 0 0-.707 1.906 1.886 5.433-.849 6.751 4.366 9.718 7.188 14.554 3.11-3.815 5.24-7.96 12.845-10.581z" fill="#742c64" stroke="#192e2e" transform="translate(58.636 111.27) scale(.9439)"/>
<path d="M1064.606 1772.77c-3.83-3.157-12.354 2.15-6.5 3.992-1.23 1.163-.665 2.327 0 3.491l8.833 4.822c-1.273 1.954-.923 4.043 1.666 6.318-1.089 3.153-3.302 2.38-6.166-.665h-5.166c-3.764 1.774-2.623 3.548-1 5.321-3.647 3.818-.617 7.524 4.166 2.494l3.167 2.993c-.586 6.539-16.876 9.462-10.666.832-9.571-3.336-8.52 4.08-4.637 9.946-5.08.602-15.461 3.016-8.695-5.125-11.324 1.158-10.73 9.612-2.667 13.801-7.847 1.547-15.926 1.247-22.498 12.97-6.748 5.964-9.75-.055-8.618 1.763 1.882 3.025 5.881 10.046 11.34 1.78-1.8 20.07-8.173 20.305-8.825 18.92-.68-1.44 2.405 11.067 9.35-1.781 4.718 13.453-1.067 11.46-2.421 12.026-1.452.607 2.61 7.164 10.173-1.615l5.666-7.483c-7.498 7.182-11.347 24.9-23.348 20.647l-3.5 1.663 1.35 4.46 6 2.328c-5.55-1.038-8.442.046-7.333 4.323 2.627 4.874 7.164 10.71 7 1.164-.099 6.196 2.901 7.533 5.832 8.979 3.994.876 3.701-5.88 1-5.986-.105-3.664 1.029-6.171 4.333-6.65 3.306 3.803 4.058-.596 5.333-3.16 4.523.477 4.167-1.023 5-5.32l8.832-2.827c6.467 10.322 18.401 10.513 30.998 9.477 3.472 1.552 4.27 3.104 4 4.656-20.942 8.357-14.047-11.326-42.33 6.318-.945.271-1.89.664-2.833-.831-1.159 2.188-2.323 4.07 1.5 6.65 1.375 4.215.496 7.702-5.167 9.645 3.831 7.143 7.054 4.894 10-1.663.869 4.855 4.73 10.408-.667 13.8 2.532 2.012 5.067 3.51 7.166.333l-.094 4.889c-13.92 10.85-14.039-6.215-16.832-2.827-.83 1.862-1.03 4.626-3.573 3.924-5.798 3.371 2.75 5.236 4.5 7.815l-6.833-4.49-3.666.167c.52 1.53 1.046 3.06-.167 4.156.226 3.047-.226 6.431 6 6.485 2.242 1.588 4.43 3.198 4.5 5.653 9.362-.713 8.364-4.01 11.332-6.318 1.438 7.588 4.706-3.696 7.085-5.933 1.462.619 1.798 3.298 1.085 5.223 4.167-5.81 9.837-12.882 11.785-19.59-1.85-1.41-2.663-2.955-3.623-6.138-3.998-12.364 7.26-14.743 21.331-17.79-6.744 5.39-16.745 16.787-10.499 25.772.487 3.13 1.336 6.465-1.753 7.573 3.555 2.452 5.22-1.879 6.074-4.518 2.099 3.51 9.39 9.153 8.632 13.511.91.907 6.667-2.075 4.5-7.316 4.456-.863 6.42-1.95 13.05-4.262 5.918 1.018 13.752 18.494-.172 12.47-1.879-1.559-4.126-2.138-7.333-.166.617 1.244.635 3.069-.166 4.988-.131 5.154 7.53-.751 9.166-.499-12.36 4.03-5.29 1.672-3.833 8.647 3.173 4.609 5.288-1.934 12.832-6.319l-2.333 2.162.333 8.313c10.423.662 8.982-10.08 12.548-15.198.809-1.16 2.648-1.903 3.608-2.727-5.365-.36-10.163-8.286-5.686-12.035-3.317-2.978-10.199-5.565-6.354-10.13-5.421-4.665-4.475-6.53-13.665-.666-3.425-2.26-8.04-4.762-5.283-8.128 7.783-5.587 8.245-11.785 10.999-17.791 47.437-17.19-24.843-69.233 6.925-72.54.632 5.351-.56 10.823 1.575 16.173 3.78 1.458 6.34 2.156 7.666 5.654l2.65 6.818c-.147-3.896 2.128-8.654-.335-11.687-2.773-3.414-2.184-6.029-2.173-8.409 1.765-4.253-.273-6.08-.689-8.06-7.144-8.092-10.229-6.361-13.201-5.131-10.51 4.35-10.866 17.602-3.666 28.08 15.144 22.04 21.943 40.993.102 42.631-6.16-7.987-22.246-8.045-26.185-38.59.4-3.706 2.916-3.72 5-4.489l3-2.327c-8.326-5.117 2.058-20.791 9.332-11.972-.357-6.208-.843-16.463 2.482-21.76.715-1.424 2.665.862 4.129 1.686-2.063-2.257-2.96-16.304 4.721-11.352 2.7-.744 2.391-3.5 1.89-2.62-1.278 2.246-5.323-.638-5.627-8.392-3.005-6.216-8.658-13.109-12.928-16.423-3.697-.513-7.134-2.322-11.666 1.33h-3.666l-1.5 1.164c-.28-1.605-2.532-1.636-5-1.496z" fill="#742c64" stroke="#192e2e" transform="translate(58.636 111.27) scale(.9439)"/>
<path d="M1000.904 1802.508c3.918 1.451 6.773 3.809 8.61 7.034m-.117-13.638c-.146 2.665-1.743 5.33 1.178 7.995m65.797-29.783s3.366 3.492 3.667 9.145" fill="none" stroke="#192e2e" transform="translate(58.636 111.27) scale(.9439)"/>
<path d="M1076.868 1775.52s-7.52 6.059 2.646 6.225c1.26-2.377-2.646-6.225-2.646-6.225z" fill="#e7e7e7" stroke="#192e2e" transform="translate(58.636 111.27) scale(.9439)"/>
<path d="M1059.207 1774.947c.427 2.66 2.707 3.326 2.833 3.326m27.165 11.307s4.528 3.218 1.862 7.54m-19.798-11.2c.203 2.057 3.42 5.77 6.103 6.818m-8.999 27.102c-3.206 6.338 1.152 5.363 3.439 4.544 1.57-.562 1.339 7.57-8.105 4.602-4.127-2.943-2.616-8.169-.25-10.891" fill="none" stroke="#192e2e" transform="translate(58.636 111.27) scale(.9439)"/>
<path d="M1063.373 1828.653c-.726 9.068-4.93 20.672-14.332 11.806 8.917 1.067 4.503-10.724 5.589-17.322 0 0-3.637 11.796-12.255 10.67-7.174-.936-4.087-8.161-4.167-8.146 0 0 6.347 4.042 8-.666 1.832-5.215 5.333-9.81 5.333-9.81m26.242 5.956c1.02 3.308.828 6.023-1.91 7.845m-46.33 7.316s-5.406 9.62-.573 11.782m14.905-3.801s-.833 8.646 1.666 8.979c2.5.332-7 2.827-7.166-9.976m75.995-7.483c.921 1.275.492 3.515 0 3.824m-37.71 51.628c3.032 2.867.013 4.846-.827 5.515m-2.627-55.979c.064 2.021-.098 4.127 3.5 4.822" fill="none" stroke="#192e2e" transform="translate(58.636 111.27) scale(.9439)"/>
<path d="M1061.873 1789.745s-3-4.821-11.499-.665c-8.5 4.157-11.007-1.995-11.007-4.822 0-2.826 4.341-3.491 4.341-3.491s-1.833 7.15 6.833 4.988 11.999 1.33 11.999 1.33l2.508 5.392-3.175-2.731z" fill="#da121a" stroke="#192e2e" transform="translate(58.636 111.27) scale(.9439)"/>
<path d="M1078.397 1776.98c-.182.1-3.62 3.075 1.164 2.684" fill="#192e2e" stroke="#192e2e" transform="translate(58.636 111.27) scale(.9439)"/>
<path d="M1040.205 1877.17c7.994-3.263 9.508-8.674 7.517-14.891m-34.672 36.854l4.713 1.88m6.128 30.541c2.25.303 3.304-1.385 4.243-3.263m-10.842 7.054c.73 1.125 2.246 1.858.471 4.233m71.177 4.232c1.873 1.28 2.18 3.007.943 5.173m1.942 3.097c3.855 1.79 2.889 3.58 2.967 5.369m11.669-.969c2.756-.113 3.59 1.21 4.633 2.38" fill="none" stroke="#192e2e" transform="translate(58.636 111.27) scale(.9439)"/>
<path d="M1102.037 1776.974l-2.764.215s-2.714 1.92-1.333 3.991c1.37 2.056 2.31 1.347 3.14.183.675-.949.802-2.462.802-2.462l5.724 1.115-2.5 4.49c-1.326-.206-2.336-.957-2.858-.645.142.02-3.808.43-2.309 1.926 1.5 1.496 6.756.458 6.756.458l2.195 4.777c0-.666-7.643-2.929-9.273-1.731-.17-2.376-11.107-16.368-13.16-17.296l1.552-8.939 3.44 3.75c0 .024-1.116 1.3-1.995 2.006-.927.743-1.178 2.394.06 2.758 1.059.31 2.326.387 2.808-.193.808-.972.659-2.93.659-2.93l3.861-1.068.334 4.49-3 .831s-.879 1.163.333 2.827c1.327 1.821 2.863 1.472 3.307.475.412-.924.526-2.304.526-2.304s3.498-.772 4.164-1.27c-.026.859-.688 4.766-.469 4.546z" fill="#fcdd09" stroke="#192e2e" transform="translate(58.636 111.27) scale(.9439)"/>
<path d="M1005.001 1880.197c-.265-.236-2.75.567-3.669 1.853-.418.586 1.32 1.157 4 2.192 1.23-2.095 1.45-2.543-.33-4.045zm-.5 10.099l-1.92 4.852s4.306.386 4.971.379c1.358-.014-1.204-6.322-3.05-5.231zm8.775 8.843l.02 4.821 3.813-2.992c-.616-2.597-2.215-2.24-3.833-1.83zm10.833 32.423s3.978-1.071 4-3.492c.032-3.724.701 1.356-3.372-.85-3.645-1.973-.796 4.687-.628 4.342zm-6.956 8.193c1.965-1.214.91-2.765 1.036-4.184-2.213.75-4.42 1.504-4.854 3.589 1.33.43 2.705 1.034 3.818.595zm7.479 6.991c2.378 1.239 2.638 2.742 3.283 4.198l-4.5.831 1.217-5.03zm65.015-2.701c1.248.48 2.04 5.415 0 5.174-1.404-.166-3.3-.706-3.3-.706s2.593-5.878 3.3-4.468zm2.801 8.23c-.074-1.339 4.528 3.286 2.952 5.312-1.102 1.416-7.167-1.784-7.167-1.784l4.215-3.528zm13.074 3.763c0-.642 6.515 1.157 6.28 3.292-.158 1.422-6.17 2.158-6.17 2.158l-.11-5.45zm-95.351-160.379s2.33.826 4.098-2.584l-4.884-2.57.786 5.154zm-8.97 3.014c3.927.297 3.883-1.595 4.322-3.567l-4.835-.998.513 4.565zm-2.852 6.875l-3.061 4.7 5.892.822c-.352-1.697.155-2.948-2.831-5.522z" fill="#da121a" stroke="#192e2e" transform="translate(58.636 111.27) scale(.9439)"/>
<path d="M1085.131 1799.031c1.465 2.165 1.024 4.33 0 6.494 0 0-6.49 5.81.171 7.776 0 0-6.661 3.247-8.027-6.58 0 0-6.49 9.913-12.554 2.137 0 0 5.722-.342 6.063-5.469m-45.617 61.913s-1.352-10.13 2.576-10.472" fill="none" stroke="#121f1f" transform="translate(58.636 111.27) scale(.9439)"/>
<path d="M1024.07 1945.823s1.11-1.367 1.793-1.367" fill="#da121a" stroke="#000" transform="translate(58.636 111.27) scale(.9439)"/>
</g>
<g id="b" stroke="#000">
<path d="M1041.844 1521.295l31.268.107 6.168 5.546v14.93l-3.403 2.56-.106 34.34h8.189l.319-17.704-2.233-3.306-.107-10.771 4.36-5.332 18.294.106 4.68 5.44.105 10.45-2.765 4.373-.106 21.649 11.912 6.292-.213 16.21-3.829 5.972v64.415l10.104 8.638.106 20.796-20.314 13.437h-93.272l-20.314-13.33v-20.903l9.466-7.572.425-65.267-3.616-5.936v-16.247l11.274-6.825.106-21.756-3.616-3.732-.213-10.238 4.999-5.866h18.93l4.787 5.333v10.984l-2.872 3.52.107 17.596 9.146-.107-.213-34.126-3.616-3.413-.319-13.864 6.382-6.399z" fill="#fcdd09" transform="translate(59.511 89.632) scale(.9439)"/>
<path d="M1042.269 1718.91l.213-34.553s14.038-22.823 30.204.213l.475 34.766m-82.261-33.913l20.1 8.212 31.375.106m81.576-8.237l-20.072 8.055-31.055.214m-82.031-1.311l19.995 9.296 31.292.019m-51.45-2.564l20.004 11.311 31.134.151m-40.76-21.115l-.301 7.39m-4.813-2.111l-.15 7.39m10.076-3.167v8.446m-4.812-2.715l-.15 7.843m-3.761-105.876l18.35-7.24 83.476-.15 19.102 6.787" fill="none" transform="translate(59.511 89.632) scale(.9439)"/>
<path d="M1000.707 1612.34l18.65-5.73 76.709.15 18.35 5.43m-114.01 10.708l18.65-3.921 77.16.15 18.049 3.922m-113.708 11.462l18.951-2.413h75.805l18.952 2.262m-114.274 9.804l19.323 1.563 76.124.033 19.428-1.597m-114.288 11.186l18.825 3.093 76.469.106 18.505-2.773m-114.012 10.878l19.57 4.266h75.511l18.931-4.692m-114.012 11.091l18.931 5.759 23.718.053m28.708-.267l23.8.088 19.493-6.7m-106.248-93.208l6.967-4.212m-10.583-21.383l3.935-3.733 18.719-.106 5.211 4.266m-24.674 10.771l4.148-3.2h13.188l4.786 3.307m-21.909 7.145l5.211-4.053 11.805.107 5.212 4.266m75.192 6.985l-6.7-4.053m-57.431-57.535l.212 15.997 2.765 4.266v36.9m28.291-57.269l-.213 15.996-2.765 4.266v36.9" fill="none" transform="translate(59.511 89.632) scale(.9439)"/>
<path d="M1035.994 1541.558l5.637-4.16 31.162.32 6.275 4.267m-39.458 2.879l4.786-2.773 25.791.16 5.584 2.826m-36.161 9.492l4.892-3.093 25.419.32 5.743 2.986m-36.373 8.638l5.424-2.88 25.312.214 5.637 2.986m-35.948 9.065l4.361-2.56 26.163.214 5.105 2.986m30.875-11.465l-4.892-3.305h-12.656l-4.254 3.732m21.909 6.826l-4.148-3.2h-13.188l-4.786 3.306m21.909 7.145l-5.211-4.052-11.805.107-4.893 3.306m40.169 115.977l-20.42 10.025h-30.417m-.213 8.531h30.524l20.633-11.518m-10.104-9.278l.106 6.825m-4.998 2.987l.106 7.785m9.785-13.118l.106 7.466m-5.212 3.093l.24 7.838m-26.296-18.93l-.106 8.105m-7.445.107v8.638m14.996-8.638v8.638m-7.551.213l.106 8.852m-62.536-25.808v7.892m-7.338.106v8.852m16.165-8.745l.106 8.958m-8.721-.107v8.532m-25.1-29.861l8.51-9.171m-4.893-1.707l-.106-10.984m9.89 2.026v11.731m-4.466-12.264v-12.477m-5.105-.427l.212-11.731m9.678 1.172l-.106 11.839m-4.574-24.209l-.105 11.624m-4.786-23.035l-.107 12.37m9.678-13.863l.107 12.37m-5.105-22.821v11.09m100.47 57.378l-.106-11.091m-9.359 2.133v11.73m4.679-12.37l.013-11.768m4.826-.55v-11.891m-9.665.747l-.066 12.797m4.892-24.955l.013 11.707m4.583-22.478l.084 11.624m-9.678-13.864l-.031 12.673m5.029-23.071v11.038m-79.672 72.898l6.769-10.407m50.236-.151l5.866 10.708m16.545-14.026l9.174 9.803m-75.805-19.003l.044 12.518m19.146-12.411l.062 3.362m19.553-3.318v12.216m-7.219-24.433l.15 11.916m-25.269-12.217l-.15 12.518m12.183-25.337l-.125 12.819m-24.692-12.819v12.517m38.328-25.337l-.125 12.82m-.3-38.61l-.018 12.216m-25.401-12.669l-.018 12.82m12.758.363l.044 12.306m-12.634.603v12.82m-12.484.301v12.82m51.138-12.67v13.122m-80.043-72.292v7.998m6.275-11.838v9.172m4.998-49.964l.053 4.906m4.733-4.853v4.906m4.786-4.799v4.692m66.472-4.692v4.906m5.105-4.799v4.905m4.892-4.799v4.793" fill="none" transform="translate(59.511 89.632) scale(.9439)"/>
<path d="M1010.788 1719.123l.425-25.382 8.509-10.877-.426-76.359-3.403-6.612-.013-21.217 10.857-.022-.03 10.361 3.915.075-.084-10.35 10.252.061.044 10.373h3.775l-.106-10.348 11.167.053v10.349h3.776l.053-10.433 10.36-.01-.045 10.439h3.777l-.047-10.524 11 .122.054 10.349 3.643-.053-.089-10.394 11.282.076-.053 20.129-3.616 7.678-.106 76.305 8.083 10.452.319 25.968m-94.443-177.774v12.158l3.616 4.479.107 21.329" fill="none" transform="translate(59.511 89.632) scale(.9439)"/>
<path d="M1028.337 1541.451l.106 12.371-2.446 4.586-.213 20.69" fill="none" transform="translate(59.511 89.632) scale(.9439)"/>
<path d="M1008.448 1561.394l4.893-3.306h12.656l4.254 3.733m74.799-19.676v12.157l-3.615 4.48-.107 21.328m-14.996-38.072l-.106 12.37 2.446 4.587.213 20.689" fill="none" transform="translate(59.511 89.632) scale(.9439)"/>
<path d="M1082.302 1557.56l3.616-3.2 18.718-.106 4.786 3.626m-59.815-36.371l-.069 6.612m7.408-6.7l-.044 6.593m8.233-6.404v6.75m40.521 54.79l.106 8.958m6.382-5.546l-.107 7.999" fill="none" transform="translate(59.511 89.632) scale(.9439)"/>
<path d="M1054.232 1570.647l-.097-15.195s2.674-6.927 6.265 0l.024 15.206-6.192-.01zm-21.362 74.913l-.134-21.84s3.67-9.958 8.596 0l.033 21.857-8.495-.016zm40.966-.106l-.132-21.842s3.624-9.957 8.49 0l.033 21.858-8.39-.016zm-25.709 41.316s3.323-7.17 9.72-7.326c0 0 5.416-.184 9.161 7.014v32.78l-19.037-.078.156-32.389z" fill="#0f47af" transform="translate(59.511 89.632) scale(.9439)"/>
</g>
<use xlink:href="#a" transform="translate(325 -250)"/>
<use xlink:href="#b" transform="translate(325 250)"/>
</g>
</svg>
