<svg xmlns="http://www.w3.org/2000/svg" viewBox="0 0 1000 500">
<path fill="#a21c1c" d="M0 0h500v500H0z"/>
<path fill="#fff" d="M500 0h500v500H500z"/>
<g fill-rule="evenodd" stroke="#000">
<g fill="#fc0">
<path d="M145.329 128.344h12.857v11.786h14.428v-11.786h13.191v11.786H199.9v-11.786h13.286v25.714h-67.857v-25.714zm8.75 25.714v112.143h50.357V154.058M178.9 231.51v-77.922m-25 26.72h50.179M153.9 205.201h50.179m-50.179 26h50.179m7.936-168.461h14.46v13.256h16.228V62.741h14.835v13.255h15.853V62.741h14.942v28.92h-76.318v-28.92zm12.98 29.586v172.277h50.358V92.326m-25.536 100.85v-75.367m-25 .5h50.178M224.817 143.2h50.178m-50.178 26h50.178m-50.178 24h50.178m-50.178 26h50.178m-25.178 46.051V219.11m-8 .277v-26.49m18.505 26.49v-26.49m-18.505-74.5v-26.49m18.148 26.49l.357-26.49m26.796 36.437h12.857v11.786h14.429v-11.786h13.19v11.786h14.095v-11.786h13.286v25.714h-67.857v-25.714zm8.75 25.714v112.143h50.357V154.058M320.69 231.51v-77.922m-25 26.72h50.18m-50.18 24.893h50.18m-50.18 26h50.18"/>
<path d="M146.22 247.826v35.355l47.477-15.152v-36.113l-14.142 5.05v16.92l-20.456 7.071v-17.93l-12.88 4.799zm24.37 9.217v8.713m-24.37 8.182l47.477-15.152-47.477 15.152zm12.433-3.716v8.713m20.897-15.342v8.713m-22.471 7.592l-4.04 97.985-30.558 14.9 44.952 44.194 17.677-27.275 8.713-141.547m-40.737 110.174l31.494 31.906m-30.766-48.158l32.311 25.148M154.4 344.963l33.474 18.654m-32.707-35.831l34.087 11.277m-33.318-27.29l34.885 3.274m-34.556-20.507l35.805-2.79m-18.45 1.532v19.825m-2.147 20.455v20.708m-2.267 19.739v20.708m-6.584-6.63l-24.601 19.335m36.657-7.258l-21.856 22.306m201.262-174.644v35.355l-47.477-15.152v-36.113l14.142 5.05v16.92l20.456 7.071v-17.93l12.88 4.799zm-24.37 9.217v8.713m24.37 8.182l-47.477-15.152 47.477 15.152zm-12.433-3.716v8.713m-20.897-15.342v8.713m22.471 7.592l4.04 97.985 30.558 14.9-44.952 44.194-17.677-27.275-8.713-141.547m40.737 110.174l-31.494 31.906m30.766-48.158l-32.311 25.148m31.725-42.262l-33.474 18.654m32.707-35.831l-34.087 11.277m33.318-27.29l-34.885 3.274m34.556-20.507l-35.805-2.79m18.45 1.532v19.825m2.147 20.455v20.708m2.267 19.739v20.708m6.584-6.63l24.601 19.335m-36.657-7.258l21.856 22.306"/>
<path d="M223.537 250.538v8.713m53.242-8.713v8.713m-83.65-.314h113.446m-113.446 8.947h113.446m-69.038-8.433v8.087m-28-8.087v8.087m53.357-8.087v8.087m28-8.087v8.087m-98.565 24.257h115.537m-117.13 23.375H309.46m-119.787 24h120.85m-122.267 24.446H311.94m-125.1 24h126.517m-128.998 22.75h131.479M223.75 267.808v23.75m52.982-23.75v23.75M223.75 315.63v23.75m52.982-23.75v23.75m-72.714-47.768v23.75m92.536-23.75v23.75m-46.268-23.75v23.75m-46.268 24.25v23.75m92.536-23.75v23.75m-92.536 24.228v22.722m92.536-22.722v22.722m-7.963-.048l10.927 26.75m-36.336-26.396l3.565 26.577m-54.816-26.931l-10.927 26.75m36.335-26.396l-3.565 26.577m99.097-.218l-165.35.282-.044-.141 17.633-27.416 8.65-141.61-.063-36.176H213.9v18.435h20.96v-18.435h30.053v18.435h21.213v-18.435h20.616l-.261 36.239 8.713 141.547 17.677 27.275z"/>
<path d="M222.417 410.273s-.38-26.108 0-46.362c.378-20.243 13.566-26.453 27.685-26.16 14.118.294 27.108 5.2 27.724 26.654.616 21.446 0 45.89 0 45.89l-55.41-.022zm.28-19.702h54.606m-54.607-24h54.607m-48-22.085l20.87 24.242 20.872-24.242" stroke-linejoin="round"/>
</g>
<path d="M213.884 324.108s-.332-16.46-.198-29.23c.133-12.764 4.987-16.679 9.97-16.494 4.984.185 9.63 3.279 9.848 16.805.217 13.521-.062 28.933-.062 28.933l-19.558-.014zm53.108 0s-.333-16.46-.2-29.23c.135-12.764 4.988-16.679 9.972-16.494 4.983.185 9.63 3.279 9.847 16.805.217 13.521-.061 28.933-.061 28.933l-19.558-.014zm-94.148-112.843s-.22-16.02-.131-28.449c.088-12.422 3.285-16.233 6.568-16.052 3.283.18 6.344 3.19 6.487 16.355.144 13.16-.04 28.16-.04 28.16l-12.884-.014zm69.457-27.609s-.269-19.414-.16-34.475c.108-15.054 4.032-19.671 8.062-19.453 4.03.218 7.787 3.867 7.963 19.82.176 15.947-.05 34.124-.05 34.124l-15.815-.016zm72.332 27.609s-.22-16.02-.131-28.449c.088-12.422 3.286-16.233 6.568-16.052 3.283.18 6.344 3.19 6.488 16.355.143 13.16-.04 28.16-.04 28.16l-12.885-.014zM238.36 410.281s-.404-19.414-.242-34.475c.162-15.054 6.052-19.671 12.1-19.453 6.047.218 11.686 3.867 11.95 19.82.264 15.947-.075 34.124-.075 34.124l-23.734-.016z" fill="#1d4bba" stroke-linejoin="round"/>
</g>
</svg>
