<svg xmlns="http://www.w3.org/2000/svg" viewBox="0 0 750 500">
<path fill="#fc0" d="M0 0h750v500H0z"/>
<path fill="#0768a9" d="M0 500V0h500v500z"/>
<path fill="#fff" d="M0-24.464h250V500H0z"/>
<path style="marker:none" d="M333.65 229.93c.035 20.936-.071 41.875.054 62.81.665 18.788 15.01 35.949 33.326 39.917 16.946 4.139 35.916-3.3 45.48-17.967 5.729-8.204 7.838-18.356 7.366-28.238V229.93H333.65z" color="#000" overflow="visible" fill="none"/>
<g transform="matrix(.17294 0 0 .1734 308.812 151.325)">
<g fill="#eac102" stroke="#010101" stroke-width="2.489">
<path d="M3613.782 1143.324c-3.134 5.464-7.256 10.737-14.061 15.655l-60.134-62.663c6.571-9.399 8.381-14.169 7.837-25.014-2.069-41.231-88.01-93.988-199.128-112.533-110.838-18.497-299.394-119.1-356.209-99.125l22.025-36.33c21.567 1.277 75.001 34.328 103.18 40.94 14.592 5.106 29.452 10.404 44.911 16.17 37.373 13.938 76.364 29.1 113.009 41.913 18.322 6.406 36.067 12.197 52.669 16.997 8.3 2.4 16.354 4.558 24.032 6.391 7.678 1.834 15.002 3.385 21.93 4.542 13.89 2.318 27.349 5.192 40.32 8.606a429.958 429.958 0 0 1 37.31 11.675c11.829 4.298 23.008 8.94 33.47 13.91 10.461 4.97 20.164 10.244 29.034 15.675 8.87 5.431 16.895 11.016 23.948 16.695 7.054 5.68 13.17 11.453 18.184 17.169 5.013 5.716 8.917 11.41 11.665 16.951 1.374 2.77 2.495 5.525 3.26 8.212a34.78 34.78 0 0 1 1.32 7.854c.272 5.423-.046 9.33-1.245 13.05-1.198 3.72-3.306 7.265-6.592 11.964l49.266 51.296z" transform="matrix(-.41158 -.00392 .00086 .39233 1614.022 -145.774)"/>
<path d="M3613.782 1143.324l-49.265-51.296c3.286-4.7 5.394-8.243 6.592-11.964 1.199-3.72 1.517-7.627 1.245-13.05a34.78 34.78 0 0 0-1.32-7.854c-.765-2.687-1.886-5.442-3.26-8.212-2.748-5.54-6.652-11.235-11.665-16.951-5.013-5.716-11.13-11.49-18.184-17.169-7.053-5.679-15.078-11.264-23.948-16.695-8.87-5.43-18.573-10.705-29.035-15.675-10.461-4.97-21.64-9.612-33.47-13.91a429.958 429.958 0 0 0-37.309-11.675c-12.971-3.414-26.43-6.288-40.32-8.606-6.928-1.157-14.252-2.708-21.93-4.542-7.678-1.833-15.731-3.99-24.032-6.39-16.602-4.801-34.347-10.592-52.67-16.998-36.644-12.813-75.635-27.975-113.008-41.913-15.459-5.766-30.319-11.064-44.91-16.17 88.112 20.677 198.86 60.242 271.156 73.769 118.332 22.139 232.053 93.256 232.331 165.256.063 14.799-.124 28.062-6.998 40.045z" transform="matrix(-.41158 -.00392 .00086 .39233 1614.022 -145.774)"/>
</g>
<circle r="24.123" cy="-135.392" cx="2959.047" style="marker:none" transform="matrix(.43118 .00432 .00091 .43977 -931.646 211.798)" overflow="visible" fill="#e3e4e5" fill-rule="evenodd" stroke="#000" stroke-width="2.296" stroke-linecap="round" stroke-linejoin="round"/>
<circle r="24.123" cy="-135.392" cx="2959.047" transform="matrix(.43118 .00432 .00091 .43977 -961.495 221.623)" style="marker:none" overflow="visible" fill="#e3e4e5" fill-rule="evenodd" stroke="#000" stroke-width="2.296" stroke-linecap="round" stroke-linejoin="round"/>
<circle r="24.123" cy="-135.392" cx="2959.047" style="marker:none" transform="matrix(.43118 .00432 .00091 .43977 -992.657 230.4)" overflow="visible" fill="#e3e4e5" fill-rule="evenodd" stroke="#000" stroke-width="2.296" stroke-linecap="round" stroke-linejoin="round"/>
<circle r="24.123" cy="-135.392" cx="2959.047" transform="matrix(.43118 .00432 .00091 .43977 -1025.309 238.547)" style="marker:none" overflow="visible" fill="#e3e4e5" fill-rule="evenodd" stroke="#000" stroke-width="2.296" stroke-linecap="round" stroke-linejoin="round"/>
<circle r="24.123" cy="-135.392" cx="2959.047" style="marker:none" transform="matrix(.43118 .00432 .00091 .43977 -1057.141 246.076)" overflow="visible" fill="#e3e4e5" fill-rule="evenodd" stroke="#000" stroke-width="2.296" stroke-linecap="round" stroke-linejoin="round"/>
<circle r="24.123" cy="-135.392" cx="2959.047" transform="matrix(.43118 .00432 .00091 .43977 -1089.538 255.303)" style="marker:none" overflow="visible" fill="#e3e4e5" fill-rule="evenodd" stroke="#000" stroke-width="2.296" stroke-linecap="round" stroke-linejoin="round"/>
<circle r="24.123" cy="-135.392" cx="2959.047" style="marker:none" transform="matrix(.43118 .00432 .00091 .43977 -1121.971 269.363)" overflow="visible" fill="#e3e4e5" fill-rule="evenodd" stroke="#000" stroke-width="2.296" stroke-linecap="round" stroke-linejoin="round"/>
<circle r="24.123" cy="-135.392" cx="2959.047" transform="matrix(.43118 .00432 .00091 .43977 -1147.421 291.26)" style="marker:none" overflow="visible" fill="#e3e4e5" fill-rule="evenodd" stroke="#000" stroke-width="2.296" stroke-linecap="round" stroke-linejoin="round"/>
</g>
<g transform="matrix(-.17294 0 0 .1734 440.99 151.325)">
<g fill="#eac102" stroke="#010101" stroke-width="2.489">
<path d="M3613.782 1143.324c-3.134 5.464-7.256 10.737-14.061 15.655l-60.134-62.663c6.571-9.399 8.381-14.169 7.837-25.014-2.069-41.231-88.01-93.988-199.128-112.533-110.838-18.497-299.394-119.1-356.209-99.125l22.025-36.33c21.567 1.277 75.001 34.328 103.18 40.94 14.592 5.106 29.452 10.404 44.911 16.17 37.373 13.938 76.364 29.1 113.009 41.913 18.322 6.406 36.067 12.197 52.669 16.997 8.3 2.4 16.354 4.558 24.032 6.391 7.678 1.834 15.002 3.385 21.93 4.542 13.89 2.318 27.349 5.192 40.32 8.606a429.958 429.958 0 0 1 37.31 11.675c11.829 4.298 23.008 8.94 33.47 13.91 10.461 4.97 20.164 10.244 29.034 15.675 8.87 5.431 16.895 11.016 23.948 16.695 7.054 5.68 13.17 11.453 18.184 17.169 5.013 5.716 8.917 11.41 11.665 16.951 1.374 2.77 2.495 5.525 3.26 8.212a34.78 34.78 0 0 1 1.32 7.854c.272 5.423-.046 9.33-1.245 13.05-1.198 3.72-3.306 7.265-6.592 11.964l49.266 51.296z" transform="matrix(-.41158 -.00392 .00086 .39233 1614.022 -145.774)"/>
<path d="M3613.782 1143.324l-49.265-51.296c3.286-4.7 5.394-8.243 6.592-11.964 1.199-3.72 1.517-7.627 1.245-13.05a34.78 34.78 0 0 0-1.32-7.854c-.765-2.687-1.886-5.442-3.26-8.212-2.748-5.54-6.652-11.235-11.665-16.951-5.013-5.716-11.13-11.49-18.184-17.169-7.053-5.679-15.078-11.264-23.948-16.695-8.87-5.43-18.573-10.705-29.035-15.675-10.461-4.97-21.64-9.612-33.47-13.91a429.958 429.958 0 0 0-37.309-11.675c-12.971-3.414-26.43-6.288-40.32-8.606-6.928-1.157-14.252-2.708-21.93-4.542-7.678-1.833-15.731-3.99-24.032-6.39-16.602-4.801-34.347-10.592-52.67-16.998-36.644-12.813-75.635-27.975-113.008-41.913-15.459-5.766-30.319-11.064-44.91-16.17 88.112 20.677 198.86 60.242 271.156 73.769 118.332 22.139 232.053 93.256 232.331 165.256.063 14.799-.124 28.062-6.998 40.045z" transform="matrix(-.41158 -.00392 .00086 .39233 1614.022 -145.774)"/>
</g>
<circle r="24.123" cy="-135.392" cx="2959.047" transform="matrix(.43118 .00432 .00091 .43977 -931.646 211.798)" style="marker:none" overflow="visible" fill="#e3e4e5" fill-rule="evenodd" stroke="#000" stroke-width="2.296" stroke-linecap="round" stroke-linejoin="round"/>
<circle r="24.123" cy="-135.392" cx="2959.047" style="marker:none" transform="matrix(.43118 .00432 .00091 .43977 -961.495 221.623)" overflow="visible" fill="#e3e4e5" fill-rule="evenodd" stroke="#000" stroke-width="2.296" stroke-linecap="round" stroke-linejoin="round"/>
<circle r="24.123" cy="-135.392" cx="2959.047" transform="matrix(.43118 .00432 .00091 .43977 -992.657 230.4)" style="marker:none" overflow="visible" fill="#e3e4e5" fill-rule="evenodd" stroke="#000" stroke-width="2.296" stroke-linecap="round" stroke-linejoin="round"/>
<circle r="24.123" cy="-135.392" cx="2959.047" style="marker:none" transform="matrix(.43118 .00432 .00091 .43977 -1025.309 238.547)" overflow="visible" fill="#e3e4e5" fill-rule="evenodd" stroke="#000" stroke-width="2.296" stroke-linecap="round" stroke-linejoin="round"/>
<circle r="24.123" cy="-135.392" cx="2959.047" transform="matrix(.43118 .00432 .00091 .43977 -1057.141 246.076)" style="marker:none" overflow="visible" fill="#e3e4e5" fill-rule="evenodd" stroke="#000" stroke-width="2.296" stroke-linecap="round" stroke-linejoin="round"/>
<circle r="24.123" cy="-135.392" cx="2959.047" style="marker:none" transform="matrix(.43118 .00432 .00091 .43977 -1089.538 255.303)" overflow="visible" fill="#e3e4e5" fill-rule="evenodd" stroke="#000" stroke-width="2.296" stroke-linecap="round" stroke-linejoin="round"/>
<circle r="24.123" cy="-135.392" cx="2959.047" transform="matrix(.43118 .00432 .00091 .43977 -1121.971 269.363)" style="marker:none" overflow="visible" fill="#e3e4e5" fill-rule="evenodd" stroke="#000" stroke-width="2.296" stroke-linecap="round" stroke-linejoin="round"/>
<circle r="24.123" cy="-135.392" cx="2959.047" style="marker:none" transform="matrix(.43118 .00432 .00091 .43977 -1147.421 291.26)" overflow="visible" fill="#e3e4e5" fill-rule="evenodd" stroke="#000" stroke-width="2.296" stroke-linecap="round" stroke-linejoin="round"/>
</g>
<g fill-rule="evenodd" stroke="#000" stroke-width="1.303">
<path style="marker:none" d="M345.73 1.41c-5.851 0-10.595 4.725-10.595 10.554 0 5.828 4.744 10.566 10.596 10.566 5.851 0 10.609-4.738 10.609-10.566 0-5.829-4.758-10.554-10.61-10.554zm-19.847 12.667c-5.851 0-10.596 4.725-10.596 10.554 0 5.828 4.745 10.566 10.596 10.566 5.852 0 10.61-4.738 10.61-10.566 0-5.829-4.758-10.554-10.61-10.554zm-21.139 12.404c-5.851 0-10.609 4.725-10.609 10.554 0 5.828 4.758 10.566 10.61 10.566 5.851 0 10.595-4.738 10.595-10.566 0-5.829-4.744-10.554-10.596-10.554zm-21.02 10.081c-5.852 0-10.609 4.725-10.609 10.554 0 5.828 4.757 10.566 10.609 10.566s10.596-4.738 10.596-10.566c0-5.829-4.744-10.554-10.596-10.554zm-21.666 10.081c-5.852 0-10.61 4.725-10.61 10.554 0 5.828 4.758 10.553 10.61 10.553 5.852 0 10.596-4.725 10.596-10.553 0-5.829-4.744-10.554-10.596-10.554zm-21.666 10.974c-5.852 0-10.61 4.738-10.61 10.566 0 5.829 4.758 10.554 10.61 10.554 5.852 0 10.596-4.725 10.596-10.554 0-5.828-4.744-10.566-10.596-10.566zM219.24 70.809c-5.852 0-10.61 4.725-10.61 10.553 0 5.828 4.758 10.554 10.61 10.554 5.851 0 10.595-4.726 10.595-10.554S225.091 70.81 219.24 70.81zm-18.688 19.899c-5.852 0-10.596 4.725-10.596 10.553 0 5.829 4.744 10.567 10.596 10.567s10.609-4.738 10.609-10.567c0-5.828-4.757-10.553-10.61-10.553z" overflow="visible" fill="#e3e4e5" stroke-linecap="round" stroke-linejoin="round" transform="matrix(.1216 .00224 -.0013 .14523 328.395 179.589)"/>
<path d="M371.438-6.813c-6.234.084-12.282 1.885-12.282 5.625-97.228 79.468-146.623 65.594-172.562 117.032 11.169 15.273.058 38.155 12.219 69l10.937 1.406c-.462-23.088-3.481-47.54 13.969-60.875 8.276-43.992 73.139-50.505 147.531-113.438l.188-18.75z" fill="#eac102" transform="matrix(.1216 .00224 -.0013 .14523 328.395 179.589)"/>
</g>
<g fill-rule="evenodd" stroke="#000" stroke-width="1.303">
<path d="M345.73 1.41c-5.851 0-10.595 4.725-10.595 10.554 0 5.828 4.744 10.566 10.596 10.566 5.851 0 10.609-4.738 10.609-10.566 0-5.829-4.758-10.554-10.61-10.554zm-19.847 12.667c-5.851 0-10.596 4.725-10.596 10.554 0 5.828 4.745 10.566 10.596 10.566 5.852 0 10.61-4.738 10.61-10.566 0-5.829-4.758-10.554-10.61-10.554zm-21.139 12.404c-5.851 0-10.609 4.725-10.609 10.554 0 5.828 4.758 10.566 10.61 10.566 5.851 0 10.595-4.738 10.595-10.566 0-5.829-4.744-10.554-10.596-10.554zm-21.02 10.081c-5.852 0-10.609 4.725-10.609 10.554 0 5.828 4.757 10.566 10.609 10.566s10.596-4.738 10.596-10.566c0-5.829-4.744-10.554-10.596-10.554zm-21.666 10.081c-5.852 0-10.61 4.725-10.61 10.554 0 5.828 4.758 10.553 10.61 10.553 5.852 0 10.596-4.725 10.596-10.553 0-5.829-4.744-10.554-10.596-10.554zm-21.666 10.974c-5.852 0-10.61 4.738-10.61 10.566 0 5.829 4.758 10.554 10.61 10.554 5.852 0 10.596-4.725 10.596-10.554 0-5.828-4.744-10.566-10.596-10.566zM219.24 70.809c-5.852 0-10.61 4.725-10.61 10.553 0 5.828 4.758 10.554 10.61 10.554 5.851 0 10.595-4.726 10.595-10.554S225.091 70.81 219.24 70.81zm-18.688 19.899c-5.852 0-10.596 4.725-10.596 10.553 0 5.829 4.744 10.567 10.596 10.567s10.609-4.738 10.609-10.567c0-5.828-4.757-10.553-10.61-10.553z" style="marker:none" overflow="visible" fill="#e3e4e5" stroke-linecap="round" stroke-linejoin="round" transform="matrix(-.1216 .00224 .0013 .14523 421.407 179.589)"/>
<path d="M371.438-6.813c-6.234.084-12.282 1.885-12.282 5.625-97.228 79.468-146.623 65.594-172.562 117.032 11.169 15.273.058 38.155 12.219 69l10.937 1.406c-.462-23.088-3.481-47.54 13.969-60.875 8.276-43.992 73.139-50.505 147.531-113.438l.188-18.75z" fill="#eac102" transform="matrix(-.1216 .00224 .0013 .14523 421.407 179.589)"/>
</g>
<path d="M381.367 350.666c31.3 0 75.101 9.431 89.369 18.946 14.267 9.515 26.15 13.444 39.595 16.324 13.444 2.88 21.05 2.614 32.278 1.824 11.228-.79 33.035 6.71 50.024 18.733 16.988 12.022 16.182 24.227 24.713 37.094l-63.869 122.08H210.808l-63.869-122.08c8.57-12.867 8.753-25.072 25.723-37.094 16.97-12.023 38.795-19.524 50.019-18.733 11.223.79 18.836 1.056 32.283-1.824 13.446-2.88 25.327-6.81 39.595-16.324 14.267-9.515 55.507-18.946 86.808-18.946z" font-size="12" fill="#ed1c24" stroke="#000" transform="matrix(.17294 0 0 .1734 308.812 126.317)"/>
<g transform="matrix(.05543 0 0 .05557 210.913 192.81)" fill-rule="evenodd" stroke="#000" stroke-linecap="round" stroke-linejoin="round">
<circle r="63.356" cy="-282.327" cx="2965.13" style="marker:none" transform="translate(-215.73 19.127) scale(1.07054)" overflow="visible" fill="#0071bc" stroke-width="2.915"/>
<path style="marker:none" d="M2949.885-447.688v26.282h-24.718v17.375h24.718v54.656h17.344v-54.656h24.719v-17.375h-24.719v-26.281h-17.344z" overflow="visible" fill="#eac102" stroke-width="3.12"/>
<path style="marker:none" d="M2945.938-355.156v49.812c-50.94 1.029-59.054 8.196-60.063 9.406a2.434 2.434 0 0 0-.125-.062v25.5l.156-.094c.336.372 1.813 1.76 6.813 3.438-.186-.77-.434-1.502-.594-2.281a67.69 67.69 0 0 1-.625-3.532c8.483-2.881 27.782-7.25 67.063-7.25 39.48 0 58.646 4.337 67.062 7.219-.18 1.2-.385 2.388-.625 3.563-.162.789-.405 1.533-.594 2.312 5.021-1.686 6.481-3.093 6.813-3.469.023.016.156.094.156.094V-296s-.097.045-.125.063c-.976-1.212-8.917-8.38-60.063-9.407v-49.812h-25.25z" overflow="visible" fill="#eac102" stroke-width="3.12"/>
</g>
<g fill="#eac102" stroke="#010101" stroke-width=".904">
<path d="M2040.53-9.342c.316 5.403.422 12.814-1.84 16.998-2.796 5.172-2.643 5.524-6.07 9.05l-14.872-31.749c2.137-2.283 3.36-.53 3.402-7.108.099-15.848-25.088-22.134-46.926-27.7-27.042-6.892-61.909-44.24-73.06-30.866 3.708-7.763 11.54-8.444 21.34-6.033.247.136.449.19.699.33 3.476 1.95 7.187 4.198 11 6.586 3.813 2.39 7.728 4.915 11.7 7.359 3.971 2.443 7.969 4.801 11.92 6.916 3.952 2.115 7.873 3.97 11.626 5.372a51.583 51.583 0 0 0 5.482 1.729c1.793.451 3.573.767 5.261.92 3.427.31 6.799.88 10.08 1.655a73.424 73.424 0 0 1 9.493 2.944c3.048 1.172 5.957 2.507 8.683 4.01a61.238 61.238 0 0 1 7.579 4.93 48.727 48.727 0 0 1 6.217 5.629c1.813 1.962 3.377 3.979 4.6 6.07 1.221 2.092 2.105 4.248 2.648 6.402.543 2.154.74 4.326.515 6.475-.802 11.374-1.38 5.223-5.092 8.83l9.838 16.299c1.376-1.57 2.477-3.43 3.348-5.519.871-2.088 1.536-4.385 2.024-6.733.192-.924.259-1.86.405-2.796z" transform="matrix(.25706 .04376 -.03654 .1366 -119.685 108.322)"/>
<path d="M2040.53-9.342c-.146.937-.213 1.872-.405 2.796-.488 2.348-1.153 4.645-2.024 6.733-.87 2.088-1.972 3.949-3.348 5.519l-10.357-17.093c5.435 1.429 6.372-9.208 5.096-14.51-.543-2.155-1.426-4.31-2.649-6.402-1.222-2.092-2.786-4.109-4.599-6.071a48.727 48.727 0 0 0-6.217-5.629 61.238 61.238 0 0 0-7.58-4.93c-2.725-1.503-5.634-2.838-8.682-4.01a73.424 73.424 0 0 0-9.492-2.944 72.298 72.298 0 0 0-10.08-1.655 34.538 34.538 0 0 1-5.262-.92 51.583 51.583 0 0 1-5.482-1.73c-3.753-1.401-7.674-3.256-11.626-5.37-3.951-2.116-7.949-4.474-11.92-6.917-3.972-2.444-7.887-4.97-11.7-7.359-3.813-2.388-7.524-4.636-11-6.585-.25-.14-.452-.195-.7-.331 17.434 4.288 41.127 18.51 59.308 21.044 27.792 3.874 63.655 19.345 58.719 55.96-.016.119-.01.282 0 .404z" transform="matrix(.25706 .04376 -.03654 .1366 -119.685 108.322)"/>
</g>
<g fill="#e3e4e5" fill-rule="evenodd" stroke="#000" stroke-width="2.254" stroke-linecap="round" stroke-linejoin="round" transform="matrix(-.07111 -.00603 -.00658 .07506 584.224 214.678)">
<circle r="24.123" cy="-135.392" cx="2959.047" transform="translate(-206.546 -89.83) scale(1.04762)" style="marker:none" overflow="visible"/>
<circle r="24.123" cy="-135.392" cx="2959.047" style="marker:none" transform="translate(-460.543 -22.949) scale(1.04762)" overflow="visible"/>
<circle r="24.123" cy="-135.392" cx="2959.047" transform="translate(-512.693 -6.357) scale(1.04762)" style="marker:none" overflow="visible"/>
<circle r="24.123" cy="-135.392" cx="2959.047" style="marker:none" transform="translate(-553.636 27.865) scale(1.04762)" overflow="visible"/>
<circle r="24.123" cy="-135.392" cx="2959.047" style="marker:none" transform="translate(-256.013 -73.325) scale(1.04762)" overflow="visible"/>
<circle r="24.123" cy="-135.392" cx="2959.047" transform="translate(-305.38 -56.043) scale(1.04762)" style="marker:none" overflow="visible"/>
<circle r="24.123" cy="-135.392" cx="2959.047" style="marker:none" transform="translate(-355.976 -44.71) scale(1.04762)" overflow="visible"/>
<circle r="24.123" cy="-135.392" cx="2959.047" transform="translate(-406.68 -33.944) scale(1.04762)" style="marker:none" overflow="visible"/>
</g>
<g fill="#eac102" stroke="#010101" stroke-width=".904">
<path d="M2040.53-9.342c.316 5.403.422 12.814-1.84 16.998-2.796 5.172-2.643 5.524-6.07 9.05l-14.872-31.749c2.137-2.283 3.36-.53 3.402-7.108.099-15.848-25.088-22.134-46.926-27.7-27.042-6.892-61.909-44.24-73.06-30.866 3.708-7.763 11.54-8.444 21.34-6.033.247.136.449.19.699.33 3.476 1.95 7.187 4.198 11 6.586 3.813 2.39 7.728 4.915 11.7 7.359 3.971 2.443 7.969 4.801 11.92 6.916 3.952 2.115 7.873 3.97 11.626 5.372a51.583 51.583 0 0 0 5.482 1.729c1.793.451 3.573.767 5.261.92 3.427.31 6.799.88 10.08 1.655a73.424 73.424 0 0 1 9.493 2.944c3.048 1.172 5.957 2.507 8.683 4.01a61.238 61.238 0 0 1 7.579 4.93 48.727 48.727 0 0 1 6.217 5.629c1.813 1.962 3.377 3.979 4.6 6.07 1.221 2.092 2.105 4.248 2.648 6.402.543 2.154.74 4.326.515 6.475-.802 11.374-1.38 5.223-5.092 8.83l9.838 16.299c1.376-1.57 2.477-3.43 3.348-5.519.871-2.088 1.536-4.385 2.024-6.733.192-.924.259-1.86.405-2.796z" transform="matrix(-.25706 .04376 .03654 .1366 869.487 108.322)"/>
<path d="M2040.53-9.342c-.146.937-.213 1.872-.405 2.796-.488 2.348-1.153 4.645-2.024 6.733-.87 2.088-1.972 3.949-3.348 5.519l-10.357-17.093c5.435 1.429 6.372-9.208 5.096-14.51-.543-2.155-1.426-4.31-2.649-6.402-1.222-2.092-2.786-4.109-4.599-6.071a48.727 48.727 0 0 0-6.217-5.629 61.238 61.238 0 0 0-7.58-4.93c-2.725-1.503-5.634-2.838-8.682-4.01a73.424 73.424 0 0 0-9.492-2.944 72.298 72.298 0 0 0-10.08-1.655 34.538 34.538 0 0 1-5.262-.92 51.583 51.583 0 0 1-5.482-1.73c-3.753-1.401-7.674-3.256-11.626-5.37-3.951-2.116-7.949-4.474-11.92-6.917-3.972-2.444-7.887-4.97-11.7-7.359-3.813-2.388-7.524-4.636-11-6.585-.25-.14-.452-.195-.7-.331 17.434 4.288 41.127 18.51 59.308 21.044 27.792 3.874 63.655 19.345 58.719 55.96-.016.119-.01.282 0 .404z" transform="matrix(-.25706 .04376 .03654 .1366 869.487 108.322)"/>
</g>
<g fill="#e3e4e5" fill-rule="evenodd" stroke="#000" stroke-width="2.254" stroke-linecap="round" stroke-linejoin="round" transform="matrix(.07111 -.00603 .00658 .07506 165.577 214.678)">
<circle r="24.123" cy="-135.392" cx="2959.047" style="marker:none" transform="translate(-206.546 -89.83) scale(1.04762)" overflow="visible"/>
<circle r="24.123" cy="-135.392" cx="2959.047" transform="translate(-460.543 -22.949) scale(1.04762)" style="marker:none" overflow="visible"/>
<circle r="24.123" cy="-135.392" cx="2959.047" style="marker:none" transform="translate(-512.693 -6.357) scale(1.04762)" overflow="visible"/>
<circle r="24.123" cy="-135.392" cx="2959.047" transform="translate(-553.636 27.865) scale(1.04762)" style="marker:none" overflow="visible"/>
<circle r="24.123" cy="-135.392" cx="2959.047" transform="translate(-256.013 -73.325) scale(1.04762)" style="marker:none" overflow="visible"/>
<circle r="24.123" cy="-135.392" cx="2959.047" style="marker:none" transform="translate(-305.38 -56.043) scale(1.04762)" overflow="visible"/>
<circle r="24.123" cy="-135.392" cx="2959.047" transform="translate(-355.976 -44.71) scale(1.04762)" style="marker:none" overflow="visible"/>
<circle r="24.123" cy="-135.392" cx="2959.047" style="marker:none" transform="translate(-406.68 -33.944) scale(1.04762)" overflow="visible"/>
</g>
<g font-size="12" fill="#eac102" stroke="#000" stroke-width="1.033">
<path d="M1883.548-88.13c-4.335 2.062-7.706 5.138-8.793 8.951-1.247 5.825-2.033 12.476-2.17 19.54-.022.734.036 1.45.036 2.171 0 .836-.2 1.734-.22 2.587-.356 14.821-2.977 27.916-6.77 35.927l28.586 21.651 28.293-21.65c-3.772-8.012-6.414-21.107-6.733-35.928-.016-.853-.23-1.75-.257-2.587 0-.722.089-1.437.073-2.171-.175-7.064-.93-13.715-2.171-19.54-1.112-3.859-4.467-6.982-8.793-9.04.297 2.607.677 5.103.736 8 .01.47-.037.934-.037 1.397.014.537.102 32.524.11 33.072.083 4.756.49 9.244 1.104 13.175.614 3.931 1.44 7.303 2.428 9.874l-14.827 13.918L1879.17-22.7c.994-2.571 1.85-5.943 2.465-9.874.616-3.931.974-8.419 1.067-13.175.011-.548.147-32.535.147-33.072 0-.463-.048-.926-.037-1.398.046-2.865.443-5.328.736-7.91z" transform="matrix(.16851 0 0 .1669 55.727 194.572)"/>
<path d="M1883.548-88.13c-.293 2.582-.69 5.045-.736 7.91-.01.472.037.935.037 1.398 0 .537-.136 32.524-.147 33.072-.093 4.756-.451 9.244-1.067 13.175-.616 3.931-1.471 7.303-2.465 9.874l14.974 13.918L1908.97-22.7c-.988-2.571-1.814-5.943-2.428-9.874-.615-3.931-1.02-8.419-1.104-13.175-.01-.548-.097-32.535-.11-33.072 0-.463.045-.926.037-1.398-.06-2.896-.44-5.392-.736-8-3.06-1.456-6.529-2.439-10.375-2.439h-.037c-3.905 0-7.514 1.027-10.67 2.528z" transform="matrix(.16851 0 0 .1669 55.727 194.572)"/>
</g>
<g transform="matrix(.07971 0 0 .08578 139.083 200.564)" fill="#e3e4e5" fill-rule="evenodd" stroke="#000" stroke-width="1.999" stroke-linecap="round" stroke-linejoin="round">
<circle r="24.123" cy="-135.392" cx="2959.047" transform="translate(-141.625 -91.48) scale(1.04762)" style="marker:none" overflow="visible"/>
<circle r="24.123" cy="-135.392" cx="2959.047" style="marker:none" transform="translate(-141.625 -76.546) scale(1.04762)" overflow="visible"/>
<circle r="24.123" cy="-135.392" cx="2959.047" transform="translate(-141.625 -63.623) scale(1.04762)" style="marker:none" overflow="visible"/>
<circle r="24.123" cy="-135.392" cx="2959.047" style="marker:none" transform="translate(-141.625 -55.87) scale(1.04762)" overflow="visible"/>
<circle r="24.123" cy="-135.392" cx="2959.047" transform="translate(-141.625 -49.265) scale(1.04762)" style="marker:none" overflow="visible"/>
<circle r="24.123" cy="-135.392" cx="2959.047" style="marker:none" transform="translate(-141.625 -41.224) scale(1.04762)" overflow="visible"/>
<circle r="24.123" cy="-135.392" cx="2959.047" transform="translate(-141.625 -27.44) scale(1.04762)" style="marker:none" overflow="visible"/>
<circle r="24.123" cy="-135.392" cx="2959.047" style="marker:none" transform="translate(-141.625 4.437) scale(1.04762)" overflow="visible"/>
</g>
<g fill="#eac102" fill-rule="evenodd" stroke="#000" stroke-width="2.615">
<path d="M2417.103 230.144c20.676 40.491 45.406 92.369 64.518 86.024 4.122-1.736 5.463-11.816-.705-44.423l-37.37-73.684c-5.172-8.376-19.862-2.033-20.802 6.699l-5.64 25.384z" transform="matrix(.0679 0 0 .06459 174.116 200.806)"/>
<path d="M2448.75 274.906l6.813-19.969c-13.815-17.774-35.164-50.18-58.032-90.468-4.728-8.337-20.926-3.418-17.062 5.844 30.869 58.46 52.805 89.216 68.281 104.593zM3496.761 230.144c-20.675 40.491-45.405 92.369-64.518 86.024-4.122-1.736-5.463-11.816.706-44.423l37.37-73.684c5.171-8.376 19.861-2.033 20.801 6.699l5.641 25.384z" transform="matrix(.0679 0 0 .06459 174.116 200.806)"/>
<path d="M3458.094 255.188l6.812 19.968c15.488-15.3 37.482-46.1 68.5-104.844 3.864-9.26-12.335-14.18-17.062-5.843-22.975 40.476-44.443 73-58.25 90.719z" transform="matrix(.0679 0 0 .06459 174.116 200.806)"/>
</g>
<g stroke="#000">
<path d="M2259.22-21.284l13.513-10.7c38.725-10.031 73.254 26.828 73.025 42.667 9.68-8.806 19.36-5.788 29.039-5.28-5.725 18.92-.138 33.015-6.864 53.325 8.969 2.784 15.989 6.738 17.95 13.727l8.976-5.808 11.088-.528c2.121 52.754-15.08 41.16-11.616 60.717l18.48-22.703 20.062 2.112c9.82 1.864 12.627 13.462 23.23 14.783-7.483 10.116-12.038 27.91-19.006 40.126-8.556 6.212-16.076 5.173-23.23 1.583 23.333 8.588 29.448 28.738 38.54 39.598-9.559.528-18.141 1.584-22.174 2.112 14.738 21.028 23.153 37.859 37.486 49.629l-8.448 1.584-43.821-21.647-36.958-38.014-45.405-70.22-1.584-110.872c-23.15-11.794-19.606-39.16-72.283-36.19z" fill="#eac102" fill-rule="evenodd" stroke-width="2.702" stroke-linecap="round" stroke-linejoin="round" transform="matrix(.0679 0 0 .06048 174.114 201.708)"/>
<path d="M2257.836-20.617c63.056 6.588 63.012 95.73 75.586 148.407l40.318 68.267c25.497 24.638 41.98 55.29 57.75 58.903 15.277 3.5 14.219-3.019 29.759.658-30.425-13.526-16.494-44.747-79.72-63.685 20.445-11.326 20.444 19.878 61.393 10.996-11.231-28.088-35.37-29.443-46.274-39.86 16.707-5.397 18.54 5.342 30.697.458 13.499-5.423 10.385-26.335 21.075-40.318-13.993-6.174-25.367-24.565-42.609-15.578-5.991 4.969-14.814 21.736-24.74 25.657-4.177-22.38 9.867-24.388 12.828-35.736 2.934-11.245-1.755-14.662.916-30.697-45.422 16.762-28.28 47.084-49.031 60.368-.213-32.214 8.898-18.514 25.665-53.954-6.33-9.421-10.793-7.643-16.036-10.538 8.33-18.001.796-28.962 9.622-54.063-16.68-5.572-22.356 3.466-27.032 9.163-1.695-15.592-38.161-65.956-80.167-38.448z" fill="#eac102" fill-rule="evenodd" stroke-width="2.702" stroke-linejoin="round" transform="matrix(.0679 0 0 .06048 174.114 201.708)"/>
<path d="M2348.03 39.813c-13.443 30.095-12.093 60.189-11.112 90.283m32.64-15.973c-2.704 15.12-12.25 23.4-22.223 31.251m69.448-9.028c-23.958 1.777-25.712 17.052-61.114 22.223m6.945 9.723c17.158 3.444 34.118 7.087 45.835 15.973m-36.807 5.556c23.369 28.197 42.978 30.734 50.002 45.14" fill="none" stroke-width="1.351" transform="matrix(.0679 0 0 .06048 174.114 201.708)"/>
<g stroke-width="2.433">
<path style="marker:none" d="M2069.063 730.688c.223.008.43.093.656.093 12.758 0 23.094-12.766 23.094-28.5s-10.336-28.5-23.094-28.5c-.226 0-.433.086-.656.094v56.812z" overflow="visible" fill="#e3e4e5" transform="matrix(-.063 .03692 .04145 .05611 435.151 95.695)"/>
<path style="marker:none" d="M2066.286 668.732h6.95v66.529h-6.95c-2.458-25.69-2.862-50.125 0-66.53z" overflow="visible" fill="#eac102" transform="matrix(-.063 .03692 .04145 .05611 435.151 95.695)"/>
</g>
<path d="M2259.22-21.284l13.513-10.7c38.725-10.031 73.254 26.828 73.025 42.667 9.68-8.806 19.36-5.788 29.039-5.28-5.725 18.92-.138 33.015-6.864 53.325 8.969 2.784 15.989 6.738 17.95 13.727l8.976-5.808 11.088-.528c2.121 52.754-15.08 41.16-11.616 60.717l18.48-22.703 20.062 2.112c9.82 1.864 12.627 13.462 23.23 14.783-7.483 10.116-12.038 27.91-19.006 40.126-8.556 6.212-16.076 5.173-23.23 1.583 23.333 8.588 29.448 28.738 38.54 39.598-9.559.528-18.141 1.584-22.174 2.112 14.738 21.028 23.153 37.859 37.486 49.629l-8.448 1.584-43.821-21.647-36.958-38.014-45.405-70.22-1.584-110.872c-23.15-11.794-19.606-39.16-72.283-36.19z" fill="#eac102" fill-rule="evenodd" stroke-width="2.702" stroke-linecap="round" stroke-linejoin="round" transform="matrix(-.0679 0 0 .06048 575.688 201.708)"/>
<path d="M2257.836-20.617c63.056 6.588 63.012 95.73 75.586 148.407l40.318 68.267c25.497 24.638 41.98 55.29 57.75 58.903 15.277 3.5 14.219-3.019 29.759.658-30.425-13.526-16.494-44.747-79.72-63.685 20.445-11.326 20.444 19.878 61.393 10.996-11.231-28.088-35.37-29.443-46.274-39.86 16.707-5.397 18.54 5.342 30.697.458 13.499-5.423 10.385-26.335 21.075-40.318-13.993-6.174-25.367-24.565-42.609-15.578-5.991 4.969-14.814 21.736-24.74 25.657-4.177-22.38 9.867-24.388 12.828-35.736 2.934-11.245-1.755-14.662.916-30.697-45.422 16.762-28.28 47.084-49.031 60.368-.213-32.214 8.898-18.514 25.665-53.954-6.33-9.421-10.793-7.643-16.036-10.538 8.33-18.001.796-28.962 9.622-54.063-16.68-5.572-22.356 3.466-27.032 9.163-1.695-15.592-38.161-65.956-80.167-38.448z" fill="#eac102" fill-rule="evenodd" stroke-width="2.702" stroke-linejoin="round" transform="matrix(-.0679 0 0 .06048 575.688 201.708)"/>
<path d="M2348.03 39.813c-13.443 30.095-12.093 60.189-11.112 90.283m32.64-15.973c-2.704 15.12-12.25 23.4-22.223 31.251m69.448-9.028c-23.958 1.777-25.712 17.052-61.114 22.223m6.945 9.723c17.158 3.444 34.118 7.087 45.835 15.973m-36.807 5.556c23.369 28.197 42.978 30.734 50.002 45.14" fill="none" stroke-width="1.351" transform="matrix(-.0679 0 0 .06048 575.688 201.708)"/>
<g stroke-width="2.433">
<path d="M2069.063 730.688c.223.008.43.093.656.093 12.758 0 23.094-12.766 23.094-28.5s-10.336-28.5-23.094-28.5c-.226 0-.433.086-.656.094v56.812z" style="marker:none" overflow="visible" fill="#e3e4e5" transform="matrix(.063 .03692 -.04145 .05611 314.65 95.695)"/>
<path d="M2066.286 668.732h6.95v66.529h-6.95c-2.458-25.69-2.862-50.125 0-66.53z" style="marker:none" overflow="visible" fill="#eac102" transform="matrix(.063 .03692 -.04145 .05611 314.65 95.695)"/>
</g>
</g>
<path d="M382.192 459.305c-1.369.017-2.752.88-2.798 2.526-1.26 16.304-7.932 41.716-32.699 46.318-24.564 4.565-46.222-30.134-47.14-43.931.014-2.06-1.653-2.86-3.337-2.77-1.91.1-3.847 1.339-3.374 3.165 3.663 18.838-.172 42.833-17.178 47.121-16.935 4.27-35.436-15.77-48.625-40.753-1.221-4.724-8.253-2.873-6.908.594 10.747 25.974 7.116 44.255-.626 48.11-9.402 2.865-29.013-20.002-40.023-40.16-1.873-2.728-8.768-1.311-7.13 2.188 8.014 15.486 15.972 30.97 16.344 46.714-.92-.913-2.11-2.276-3.41-3.865l-2.676 7.439c6.46 6.09 10.052 5.697 11.853 4.086 3.603-3.224 3.674-9.891-1.153-24.748 8.887 8.97 22.857 19.972 31.852 13.91 8.994-6.062 9.823-16.99 9.006-30.219 11.003 13.663 27.733 27.759 42.747 24.26 15.212-3.547 21.852-16.952 23.89-34.003 8.382 15.455 25.655 33.124 46.944 30.417 20.451-2.6 32.2-25.414 34.392-32.92 2.192 7.506 13.952 30.32 34.404 32.92 21.288 2.707 38.55-14.962 46.932-30.417 2.038 17.05 8.677 30.456 23.889 34.002 15.014 3.5 31.744-10.596 42.748-24.259-.818 13.23.01 24.157 9.006 30.22 8.994 6.061 22.965-4.942 31.852-13.911-4.828 14.857-4.757 21.524-1.154 24.748 1.793 1.604 5.362 2.01 11.767-3.993l-2.675-7.438c-1.27 1.545-2.423 2.876-3.325 3.771.372-15.745 8.33-31.228 16.343-46.714 1.639-3.5-5.244-4.916-7.116-2.188-11.01 20.158-30.622 43.025-40.024 40.16-7.741-3.855-11.385-22.136-.638-48.11 1.346-3.467-5.686-5.318-6.908-.594-13.189 24.983-31.678 45.024-48.612 40.753-17.006-4.288-20.854-28.283-17.19-47.12.889-3.439-6.729-4.79-6.7-.396-.917 13.797-22.588 48.496-47.152 43.931-24.766-4.602-31.426-30.014-32.687-46.318.012-1.714-1.343-2.542-2.711-2.526z" fill="#eac102" fill-rule="evenodd" stroke="#000" transform="matrix(.17294 0 0 .1734 308.812 126.317)"/>
<g fill-rule="evenodd" stroke="#000" stroke-width="2.607">
<g transform="matrix(.0679 0 0 .06496 174.171 113.865)">
<circle r="29.463" cy="1390.381" cx="3168.588" style="marker:none" transform="translate(5.774 34.306)" overflow="visible" fill="#e3e4e5" stroke-linecap="round" stroke-linejoin="round"/>
<path d="M3153.871 1446.208c10.772 4.059 21.975 5.422 35.221 4.384-.746 7.615-7.852 4.525-6.792 11.03 1.06 6.506-27.318 4.333-24.724-2.545 2.594-6.877-5.077-5.295-3.705-12.869z" fill="#eac102"/>
</g>
<g transform="matrix(-.0679 0 0 .06496 575.63 113.865)">
<circle r="29.463" cy="1390.381" cx="3168.588" transform="translate(5.774 34.306)" style="marker:none" overflow="visible" fill="#e3e4e5" stroke-linecap="round" stroke-linejoin="round"/>
<path d="M3153.871 1446.208c10.772 4.059 21.975 5.422 35.221 4.384-.746 7.615-7.852 4.525-6.792 11.03 1.06 6.506-27.318 4.333-24.724-2.545 2.594-6.877-5.077-5.295-3.705-12.869z" fill="#eac102"/>
</g>
</g>
<g fill-rule="evenodd" stroke="#000" stroke-width="2.626">
<g transform="matrix(-.06396 .02166 .02239 .06041 510.195 54.419)">
<circle r="29.463" cy="1390.381" cx="3168.588" style="marker:none" transform="translate(5.774 34.306)" overflow="visible" fill="#e3e4e5" stroke-linecap="round" stroke-linejoin="round"/>
<path d="M3153.871 1446.208c10.772 4.059 21.975 5.422 35.221 4.384-.746 7.615-7.852 4.525-6.792 11.03 1.06 6.506-27.318 4.333-24.724-2.545 2.594-6.877-5.077-5.295-3.705-12.869z" fill="#eac102"/>
</g>
<g transform="matrix(.06396 .02166 -.02239 .06041 239.606 54.419)">
<circle r="29.463" cy="1390.381" cx="3168.588" transform="translate(5.774 34.306)" style="marker:none" overflow="visible" fill="#e3e4e5" stroke-linecap="round" stroke-linejoin="round"/>
<path d="M3153.871 1446.208c10.772 4.059 21.975 5.422 35.221 4.384-.746 7.615-7.852 4.525-6.792 11.03 1.06 6.506-27.318 4.333-24.724-2.545 2.594-6.877-5.077-5.295-3.705-12.869z" fill="#eac102"/>
</g>
</g>
<g stroke="#000">
<path d="M2841.494 4.13s28.878-5.15 44.492 18.175c15.341 22.918 52.763 20.519 52.763 20.519l-15.829 51.59-102.009-38.693c-.71 0 6.26-9.734 19.346-8.793 13.088.94 20.5 17.833 40.452 9.966l-39.215-52.763zm235.02 0s-28.88-5.15-44.492 18.175c-15.342 22.918-52.764 20.519-52.764 20.519l15.83 51.59 102.008-38.693c.71 0-6.259-9.734-19.346-8.793-13.087.94-20.5 17.833-40.452 9.966l39.216-52.763z" fill="#eac102" fill-rule="evenodd" stroke-width="2.512" transform="matrix(.068 0 0 .0699 173.674 198.409)"/>
<path d="M2958.754-131.547c-17.55 18.957-35.44 40.264-36.406 68.266-14.07-14.666-28.149-4.41-42.219-1.782 7.069 9.515-.2 35.592 9.375 53.376-10.242.805-14.866 9.842-21.094 15.218 4.193 15.598 52.046 17.806 60.375 46.313-52.1-5.196-35.6-42.887-87.937-45.719-8.366 43.102 24.965 34.57 27.562 58.031-15.913 2.984-19.887-13.09-33.75-12.437-19.43.914-27.838 22.164-40.125 29.437 18.94 5.16 26.056 23.196 45.063 27.563 10.272 2.36 15.109-15.806 31.156-7.625-15.738 21.825-31.438 15.412-23.469 46.312 59.57 5.258 35.224-35.333 75.063-29.312-60.173 37.023-27.113 51.093-42.219 79.75 30.998-12.638 42.149-3.991 78.875-30.313 36.726 26.322 47.877 17.674 78.875 30.313-15.106-28.657 17.954-42.727-42.219-79.75 39.838-6.021 15.493 34.57 75.063 29.312 7.969-30.9-7.73-24.487-23.469-46.312 16.047-8.18 20.884 9.984 31.156 7.625 19.007-4.367 26.122-22.403 45.063-27.563-12.287-7.273-20.695-28.523-40.125-29.437-13.863-.653-17.837 15.421-33.75 12.437 2.597-23.462 35.928-14.93 27.562-58.031-52.337 2.832-35.836 40.523-87.937 45.719 8.329-28.507 56.182-30.715 60.375-46.313-6.228-5.376-10.852-14.413-21.094-15.219 9.576-17.783 2.306-43.86 9.375-53.374-14.07-2.629-28.148-12.885-42.219 1.78-.967-28-18.856-49.308-36.406-68.265l-.25-.25-.25.25z" fill="#eac102" fill-rule="evenodd" stroke-width="2.512" transform="matrix(.068 0 0 .0699 173.674 198.409)"/>
<path d="M2959.407 53.36c-1.814-3.266 0-157.772 0-157.772m-9.51 213.064c-4.702 18.528-21.422 48.188-41.035 58.707m20.596-75.341c-15.562.789-44.36 16.442-55.877 23.786m53.156-30.846c-55.011 4.998-77.46-17.22-94.48-10.296m96.758-5.716s-13.507-3.94-29.346-8.27c-10.178-2.784-16.34-15.242-22.838-22.088m75.034 11.418s-.815-10.302-13.14-39.172c-11.945-27.98-27.474-42.901-27.474-42.901m56.86 140.72c4.702 18.527 21.421 48.187 41.035 58.706m-20.596-75.341c15.562.789 44.36 16.442 55.877 23.786m-53.156-30.846c55.011 4.998 77.46-17.22 94.48-10.296m-96.758-5.716s13.507-3.94 29.346-8.27c10.178-2.784 16.34-15.242 22.838-22.088m-75.034 11.418s.815-10.302 13.14-39.172c11.945-27.98 27.474-42.901 27.474-42.901" fill="none" stroke-width="1.256" stroke-linecap="round" transform="matrix(.068 0 0 .0699 173.674 198.409)"/>
<g fill-rule="evenodd" stroke-linecap="round" stroke-linejoin="round" transform="matrix(.068 0 0 .0699 173.674 198.409)">
<circle r="27.554" cy="81.517" cx="2962.368" transform="matrix(1.31145 0 0 1.2234 -925.15 -19.09)" style="marker:none" overflow="visible" fill="#eac102" stroke-width="1.983"/>
<circle r="27.554" cy="81.517" cx="2962.368" style="marker:none" transform="matrix(1.04255 0 0 .97231 -128.572 1.378)" overflow="visible" fill="#e3e4e5" stroke-width="2.495"/>
</g>
</g>
<path d="M381.968 514.308c-56.612.564-113.875.617-169.475 11.94-12.407 3.74-30.146 5.827-34.803 19.07-1.528 11.062 12.5 15.75 21.263 18.79 41.745 11.963 85.853 12.976 129.105 14.846 67.29 1.289 135.015 1.812 201.807-7.122 18.247-3.365 38.34-5.442 53.344-16.78 8.96-8.379-.958-20.095-10.862-22.504-33.977-12.447-71.036-13.783-106.972-16.317-27.773-1.447-55.595-1.905-83.407-1.923z" fill="#eac102" fill-rule="evenodd" stroke="#000" transform="matrix(.17294 0 0 .1734 308.812 126.317)"/>
<path d="M382.143 527.905c-30.857 0-56.88.574-78.813 1.571-4.386.2-8.62.422-12.687.652-48.771 2.767-74.923 7.658-88.938 12.126a89.559 89.559 0 0 0-3.28 1.097c-5.012 1.822-8.094 3.565-9.97 4.981-.368.279-.686.546-.968.8a10.34 10.34 0 0 0-.75.742c-1.253 1.383-1.22 2.223-1.22 2.223l10.657 36.734h371.938l10.656-36.734s.034-.84-1.219-2.223a10.32 10.32 0 0 0-.75-.741c-1.714-1.55-4.922-3.596-10.937-5.782-.01-.003-.023.003-.032 0-13.071-4.744-39.35-10.225-92.187-13.223h-.031c-4.066-.23-8.27-.452-12.657-.652-21.933-.997-47.953-1.571-78.812-1.571z" fill="#eac102" fill-rule="evenodd" stroke="#000" transform="matrix(.17294 0 0 .1734 308.812 126.317)"/>
<g transform="matrix(.07161 0 0 .06812 260.68 173.08)" fill-rule="evenodd" stroke="#000" stroke-linecap="round" stroke-linejoin="round">
<circle r="23.066" cy="707.071" cx="1773.282" style="marker:none" transform="matrix(1.33459 0 0 1.44733 -589.588 -320.197)" overflow="visible" fill="#eac102" stroke-width="1.784"/>
<circle r="23.066" cy="707.071" cx="1773.282" transform="matrix(1.30451 0 0 1.44733 -532.96 -320.197)" style="marker:none" overflow="visible" fill="#eac102" stroke-width="1.804"/>
<circle r="23.066" cy="707.071" cx="1773.282" style="marker:none" transform="matrix(1.15414 0 0 1.25188 -265.608 -181.999)" overflow="visible" fill="#e3e4e5" stroke-width="2.063"/>
</g>
<g transform="matrix(-.07161 0 0 .06812 489.122 173.08)" fill-rule="evenodd" stroke="#000" stroke-linecap="round" stroke-linejoin="round">
<circle r="23.066" cy="707.071" cx="1773.282" transform="matrix(1.33459 0 0 1.44733 -589.588 -320.197)" style="marker:none" overflow="visible" fill="#eac102" stroke-width="1.784"/>
<circle r="23.066" cy="707.071" cx="1773.282" style="marker:none" transform="matrix(1.30451 0 0 1.44733 -532.96 -320.197)" overflow="visible" fill="#eac102" stroke-width="1.804"/>
<circle r="23.066" cy="707.071" cx="1773.282" transform="matrix(1.15414 0 0 1.25188 -265.608 -181.999)" style="marker:none" overflow="visible" fill="#e3e4e5" stroke-width="2.063"/>
</g>
<g stroke="#000" stroke-linecap="round" stroke-linejoin="round">
<path d="M1880.996 701.453l50.396-34.397h3.228l-48.065 34.397h-5.56zm0 0l50.396 34.398h3.228l-48.065-34.398h-5.56z" fill="none" stroke-width="2.503" transform="matrix(-.07006 .01276 0 .06831 486.702 149.303)"/>
<path d="M1934.694 735.732l45.26-33.397-45.157-35.103" style="marker:none" overflow="visible" fill="none" stroke-width="2.503" transform="matrix(-.07006 .01276 0 .06831 486.702 149.303)"/>
<path d="M1897.048 701.806l36.161 26.636 35.632-26.812-35.808-26.107-35.985 26.283z" fill="#008f4c" fill-rule="evenodd" stroke-width="2.503" transform="matrix(-.07006 .01276 0 .06831 486.562 149.328)"/>
<path d="M1921.365 701.89l19.128 14.028 18.849-14.121-18.942-13.75-19.035 13.843zm11.668 26.376l7.497-12.348m27.782-14.288l-9.04.132m-37.882.044h-23.637m42.732-13.626l-7.452-12.657" fill="none" stroke-width="1.502" transform="matrix(-.07006 .01276 0 .06831 486.562 149.328)"/>
</g>
<g stroke="#000" stroke-linecap="round" stroke-linejoin="round">
<path d="M1880.996 701.453l50.396-34.397h3.228l-48.065 34.397h-5.56zm0 0l50.396 34.398h3.228l-48.065-34.398h-5.56z" fill="none" stroke-width="2.503" transform="matrix(.07006 .01276 0 .06831 263.1 149.303)"/>
<path style="marker:none" d="M1934.694 735.732l45.26-33.397-45.157-35.103" overflow="visible" fill="none" stroke-width="2.503" transform="matrix(.07006 .01276 0 .06831 263.1 149.303)"/>
<path d="M1897.048 701.806l36.161 26.636 35.632-26.812-35.808-26.107-35.985 26.283z" fill="#008f4c" fill-rule="evenodd" stroke-width="2.503" transform="matrix(.07006 .01276 0 .06831 263.24 149.328)"/>
<path d="M1921.365 701.89l19.128 14.028 18.849-14.121-18.942-13.75-19.035 13.843zm11.668 26.376l7.497-12.348m27.782-14.288l-9.04.132m-37.882.044h-23.637m42.732-13.626l-7.452-12.657" fill="none" stroke-width="1.252" transform="matrix(.07006 .01276 0 .06831 263.24 149.328)"/>
</g>
<g transform="matrix(.07161 0 0 .06812 260.646 172.823)" stroke="#000" stroke-width="2.479">
<rect style="marker:none" width="127.299" height="67.836" x="1531.773" y="669.169" ry="33.918" rx="32.551" overflow="visible" fill="#eac102"/>
<rect rx="29.29" ry="29.29" y="673.797" x="1538.15" height="58.579" width="114.544" style="marker:none" overflow="visible" fill="#ed1c24"/>
</g>
<path d="M340.718 217.33l-.467.981a7.6 7.6 0 0 0 .355.335l.309-1.165c-.051-.07-.13-.163-.197-.152zm68.373-.004c-.084.002-.089.004-.233.184l.361 1.116c.094-.081.189-.172.28-.266l-.408-1.034z" fill="#eac102" fill-rule="evenodd"/>
<g stroke="#000">
<path d="M2485.233-95.278l11.52-4.942c34.563-5.265 51.21 33.927 54.428 56.04 13.283-4.463 30.967-9.576 50.873-4.77-4.993 21.105-1.248 24.198-9.142 52.065 19.665 3.835 20.27 10.421 25.834 14.308-24 19.994-59.525 25.641-61.206 50.872l38.552-6.756c18.415-15.235 18.265-45.167 55.244-45.706 3.84 43.714-20.93 30.607-30.205 62.001 29.278 2.385 90.045-2.076 87.835 7.154-27.16 17.734-25.226 23.34-39.347 32.988l-9.141.795c-9.232-4.17-14.687-18.918-28.616-9.936 0 0 7.697 5.73 29.41 14.705 21.037 8.696 17.09 31.795 17.09 31.795-30.985 4.79-43.31-3.592-56.834-11.128 36.392 26.298 26.453 43.16 46.899 64.386l-5.167-.398c-41.173 2.097-62.115-15.727-89.027-25.039 3.505 11.09-14.967 30.073-20.27 41.334h-3.974l-23.052-54.052c-2.888 7.312-7.28 5.602-11.128 7.154l-24.642-66.373c-16.182-5.513-13.597-17.282-14.705-27.82 3.78.466 3.842-1.299 12.32 1.986l-11.128-27.82-1.987-19.475c4.462 3.016 12.749.93 11.526 11.526 3.02 12.11 7.547 21.206 11.526 31.398l13.115-43.719-24.641-75.514 13.91-5.564c-5.251-17.168 21.44-36.617-15.87-51.495z" fill="#eac102" fill-rule="evenodd" stroke-width="2.615" transform="matrix(.0679 0 0 .06459 173.895 199.993)"/>
<path d="M2483.464-94.74c35.63-12.751 57.505 21.597 59.308 50.034 17.087-4.869 34.218-9.218 52.216-3.165-10.992 24.11-.948 37.544-13.186 55.381 21.613 1.835 16.767 6.632 28.482 11.076-33.123 28.566-62.148 22.564-64.347 53.799 53.509-16.48 32.025-29.108 56.963-43.777 11.482-6.978 25.28-11.64 43.25-12.131 3.893 46.68-25.426 32.156-33.229 61.71 26.957-3.66 30.53-19.008 46.752-21.425 16.223-2.417 31.334 15.412 48.714 26.172-31.156 12.186-34.468 37.355-49.906 35.169-14.215-1.735-15.949-12.717-32.902-5.105 15.024 13.4 40.8 11.435 47.997 40.612-37.247 12.563-63.258-16.926-100.213-17.933 90.783 25.053 57.734 52.674 90.192 72.787-24.847-2.768-45.19 4.394-91.247-22.153 1.294 12.655-15.446 22.542-23.207 38.503-4.803-25.18-29.578-37.667-24.79-77.006-9.42 1.128 5.443 28.681-10.02 29.537-13.066-11.267-14.008-26.456-14.241-36.92-7.56-9.143 2.847 16.595-29.01-24.263-2.817-4.24 1.736-30.704 5.275-32.7 2.6 6.578 5.058 13.442 11.076 13.185-2.102-9.734-4.318-19.391-10.549-26.372-3.305-2.083-2.755-20.071-1.055-31.646 11.325 13.9 3.374 35.375 22.153 39.03-1.119-35.233-31.164-24.405-14.241-58.018-2.285-18.108-2.798-75.551 9.494-53.27-1.063-30.3 12.947-51.708-9.729-61.11z" fill="#eac102" fill-rule="evenodd" stroke-width="2.615" stroke-linecap="round" stroke-linejoin="round" transform="matrix(.0679 0 0 .06459 173.895 199.993)"/>
<path d="M2515.242 74.655c-15.628-89.021 10.802-115.664-7.005-158.61m58.444 70.377c-33.827 29.411-41.893 58.822-44.513 88.233m32.59 27.82c43.182 2.934 63.327-17.898 108.104-19.077m-111.283 7.95c34.863-4.958 43.855-24.441 54.847-39.745m-50.078 59.616c28.658.681 53.223 8.826 65.975 18.283m-78.693 5.564c28.69 32.747 46.906 30.587 69.95 44.513m-75.515-45.308c-4.251 25.578 5.818 42.191 8.744 54.847m-31.795-59.616c-3.143 4.54-5.335 10.032-6.36 16.692m-3.974-32.59c-13.095 5.147-11.494-1.485-26.23 1.59m26.23-21.462c-5.299-.841-10.598-3.465-15.897-12.718m21.462-3.18c-3.918-22.834-8.42-46.546-20.667-81.873" fill="none" stroke-width="1.307" stroke-linecap="round" stroke-linejoin="round" transform="matrix(.0679 0 0 .06459 173.895 199.993)"/>
<g transform="matrix(-.0508 .03279 .03269 .05704 412.946 108.32)" fill-rule="evenodd" stroke-linecap="round" stroke-linejoin="round">
<circle r="23.066" cy="707.071" cx="1773.282" style="marker:none" transform="matrix(1.33459 0 0 1.44733 -589.588 -320.197)" overflow="visible" fill="#eac102" stroke-width="1.978"/>
<circle r="23.066" cy="707.071" cx="1773.282" transform="matrix(1.30451 0 0 1.44733 -532.96 -320.197)" style="marker:none" overflow="visible" fill="#eac102" stroke-width="2"/>
<circle r="23.066" cy="707.071" cx="1773.282" style="marker:none" transform="matrix(1.15414 0 0 1.25188 -265.608 -181.999)" overflow="visible" fill="#e3e4e5" stroke-width="2.287"/>
</g>
<path d="M2485.233-95.278l11.52-4.942c34.563-5.265 51.21 33.927 54.428 56.04 13.283-4.463 30.967-9.576 50.873-4.77-4.993 21.105-1.248 24.198-9.142 52.065 19.665 3.835 20.27 10.421 25.834 14.308-24 19.994-59.525 25.641-61.206 50.872l38.552-6.756c18.415-15.235 18.265-45.167 55.244-45.706 3.84 43.714-20.93 30.607-30.205 62.001 29.278 2.385 90.045-2.076 87.835 7.154-27.16 17.734-25.226 23.34-39.347 32.988l-9.141.795c-9.232-4.17-14.687-18.918-28.616-9.936 0 0 7.697 5.73 29.41 14.705 21.037 8.696 17.09 31.795 17.09 31.795-30.985 4.79-43.31-3.592-56.834-11.128 36.392 26.298 26.453 43.16 46.899 64.386l-5.167-.398c-41.173 2.097-62.115-15.727-89.027-25.039 3.505 11.09-14.967 30.073-20.27 41.334h-3.974l-23.052-54.052c-2.888 7.312-7.28 5.602-11.128 7.154l-24.642-66.373c-16.182-5.513-13.597-17.282-14.705-27.82 3.78.466 3.842-1.299 12.32 1.986l-11.128-27.82-1.987-19.475c4.462 3.016 12.749.93 11.526 11.526 3.02 12.11 7.547 21.206 11.526 31.398l13.115-43.719-24.641-75.514 13.91-5.564c-5.251-17.168 21.44-36.617-15.87-51.495z" fill="#eac102" fill-rule="evenodd" stroke-width="2.615" transform="matrix(-.0679 0 0 .06459 575.906 199.993)"/>
<path d="M2483.464-94.74c35.63-12.751 57.505 21.597 59.308 50.034 17.087-4.869 34.218-9.218 52.216-3.165-10.992 24.11-.948 37.544-13.186 55.381 21.613 1.835 16.767 6.632 28.482 11.076-33.123 28.566-62.148 22.564-64.347 53.799 53.509-16.48 32.025-29.108 56.963-43.777 11.482-6.978 25.28-11.64 43.25-12.131 3.893 46.68-25.426 32.156-33.229 61.71 26.957-3.66 30.53-19.008 46.752-21.425 16.223-2.417 31.334 15.412 48.714 26.172-31.156 12.186-34.468 37.355-49.906 35.169-14.215-1.735-15.949-12.717-32.902-5.105 15.024 13.4 40.8 11.435 47.997 40.612-37.247 12.563-63.258-16.926-100.213-17.933 90.783 25.053 57.734 52.674 90.192 72.787-24.847-2.768-45.19 4.394-91.247-22.153 1.294 12.655-15.446 22.542-23.207 38.503-4.803-25.18-29.578-37.667-24.79-77.006-9.42 1.128 5.443 28.681-10.02 29.537-13.066-11.267-14.008-26.456-14.241-36.92-7.56-9.143 2.847 16.595-29.01-24.263-2.817-4.24 1.736-30.704 5.275-32.7 2.6 6.578 5.058 13.442 11.076 13.185-2.102-9.734-4.318-19.391-10.549-26.372-3.305-2.083-2.755-20.071-1.055-31.646 11.325 13.9 3.374 35.375 22.153 39.03-1.119-35.233-31.164-24.405-14.241-58.018-2.285-18.108-2.798-75.551 9.494-53.27-1.063-30.3 12.947-51.708-9.729-61.11z" fill="#eac102" fill-rule="evenodd" stroke-width="2.615" stroke-linecap="round" stroke-linejoin="round" transform="matrix(-.0679 0 0 .06459 575.906 199.993)"/>
<path d="M2515.242 74.655c-15.628-89.021 10.802-115.664-7.005-158.61m58.444 70.377c-33.827 29.411-41.893 58.822-44.513 88.233m32.59 27.82c43.182 2.934 63.327-17.898 108.104-19.077m-111.283 7.95c34.863-4.958 43.855-24.441 54.847-39.745m-50.078 59.616c28.658.681 53.223 8.826 65.975 18.283m-78.693 5.564c28.69 32.747 46.906 30.587 69.95 44.513m-75.515-45.308c-4.251 25.578 5.818 42.191 8.744 54.847m-31.795-59.616c-3.143 4.54-5.335 10.032-6.36 16.692m-3.974-32.59c-13.095 5.147-11.494-1.485-26.23 1.59m26.23-21.462c-5.299-.841-10.598-3.465-15.897-12.718m21.462-3.18c-3.918-22.834-8.42-46.546-20.667-81.873" fill="none" stroke-width="1.307" stroke-linecap="round" stroke-linejoin="round" transform="matrix(-.0679 0 0 .06459 575.906 199.993)"/>
<g transform="matrix(.0508 .03279 -.03269 .05704 336.855 108.32)" fill-rule="evenodd" stroke-linecap="round" stroke-linejoin="round">
<circle r="23.066" cy="707.071" cx="1773.282" transform="matrix(1.33459 0 0 1.44733 -589.588 -320.197)" style="marker:none" overflow="visible" fill="#eac102" stroke-width="1.978"/>
<circle r="23.066" cy="707.071" cx="1773.282" style="marker:none" transform="matrix(1.30451 0 0 1.44733 -532.96 -320.197)" overflow="visible" fill="#eac102" stroke-width="2"/>
<circle r="23.066" cy="707.071" cx="1773.282" transform="matrix(1.15414 0 0 1.25188 -265.608 -181.999)" style="marker:none" overflow="visible" fill="#e3e4e5" stroke-width="2.287"/>
</g>
</g>
<path d="M293.445 474.442c2.972.323 6.495.05 9.323-.978m168.195.978c-2.973.323-6.495.05-9.323-.978m126.132 17.48c-2.9-.696-6.093-2.136-8.353-4.047m-403.008 4.047c2.9-.696 6.093-2.136 8.353-4.047" fill="none" stroke="#000" stroke-width=".5" transform="matrix(.17294 0 0 .1734 308.812 126.317)"/>
<g stroke="#000">
<g stroke-width="2.181">
<path d="M2069.063 730.688c.223.008.43.093.656.093 12.758 0 23.094-12.766 23.094-28.5s-10.336-28.5-23.094-28.5c-.226 0-.433.086-.656.094v56.812z" style="marker:none" overflow="visible" fill="#ed1c24" transform="matrix(-.07755 .02353 .02474 .07376 484.998 124.677)"/>
<path d="M2066.286 668.732h6.95v66.529h-6.95c-2.458-25.69-2.862-50.125 0-66.53z" style="marker:none" overflow="visible" fill="#eac102" transform="matrix(-.07755 .02353 .02474 .07376 484.998 124.677)"/>
</g>
<g transform="matrix(-.07862 .02004 .02107 .07479 489.718 129.999)" fill-rule="evenodd" stroke-linecap="round" stroke-linejoin="round">
<path d="M2030.156 670.594c-6.01 1.755-10.687 15.383-10.687 31.906 0 16.522 4.678 30.119 10.687 31.875l.25.063c.352.083.703.125 1.063.125l10.843-.024v-18.352c.739-4.16 1.157-8.779 1.157-13.687 0-4.908-.418-9.558-1.157-13.719v-18.178l-12.156-.01z" style="marker:none" overflow="visible" fill="#eac102" stroke-width="2.181"/>
<ellipse ry="32.089" rx="6.069" cy="702.486" cx="2042.31" transform="matrix(1.97872 0 0 .9941 -1999.373 4.335)" style="marker:none" overflow="visible" fill="#eac102" stroke-width="1.555"/>
<path d="M2042.955 674.4c25.153 7.781 23.558 49.664 0 57.98-16.346-3.472-14.067-57.719 0-57.98z" style="marker:none" overflow="visible" fill="#e3e4e5" stroke-width="2.181"/>
</g>
<g stroke-width="2.181">
<path style="marker:none" d="M2069.063 730.688c.223.008.43.093.656.093 12.758 0 23.094-12.766 23.094-28.5s-10.336-28.5-23.094-28.5c-.226 0-.433.086-.656.094v56.812z" overflow="visible" fill="#ed1c24" transform="matrix(.07755 .02353 -.02474 .07376 264.804 124.677)"/>
<path style="marker:none" d="M2066.286 668.732h6.95v66.529h-6.95c-2.458-25.69-2.862-50.125 0-66.53z" overflow="visible" fill="#eac102" transform="matrix(.07755 .02353 -.02474 .07376 264.804 124.677)"/>
</g>
<g transform="matrix(.07862 .02004 -.02107 .07479 260.084 129.999)" fill-rule="evenodd" stroke-linecap="round" stroke-linejoin="round">
<path style="marker:none" d="M2030.156 670.594c-6.01 1.755-10.687 15.383-10.687 31.906 0 16.522 4.678 30.119 10.687 31.875l.25.063c.352.083.703.125 1.063.125l10.843-.024v-18.352c.739-4.16 1.157-8.779 1.157-13.687 0-4.908-.418-9.558-1.157-13.719v-18.178l-12.156-.01z" overflow="visible" fill="#eac102" stroke-width="2.181"/>
<ellipse ry="32.089" rx="6.069" cy="702.486" cx="2042.31" style="marker:none" transform="matrix(1.97872 0 0 .9941 -1999.373 4.335)" overflow="visible" fill="#eac102" stroke-width="1.555"/>
<path style="marker:none" d="M2042.955 674.4c25.153 7.781 23.558 49.664 0 57.98-16.346-3.472-14.067-57.719 0-57.98z" overflow="visible" fill="#e3e4e5" stroke-width="2.181"/>
</g>
</g>
<g stroke="#000">
<path d="M1146.982 293.415s40.214-20.435 186.113-20.435c145.417 0 186.114 20.435 186.114 20.435s-34.014 20.436-186.114 20.436c-152.583 0-186.113-20.436-186.113-20.436z" fill="#ed1c24" fill-rule="evenodd" stroke-width="1.114" transform="matrix(.15939 0 0 .1516 162.422 184.212)"/>
<g font-size="12" fill="none">
<path d="M1103.773 494.662v-47.28" stroke-width=".579" transform="matrix(.15939 0 0 .1516 191.423 157.294)"/>
<path d="M1095.22 494.662v-47.28" stroke-width=".853" transform="matrix(.15939 0 0 .1516 191.423 157.294)"/>
<path d="M1087.147 494.662v-47.28" stroke-width="1.143" transform="matrix(.15939 0 0 .1516 191.423 157.294)"/>
<path d="M1079.144 494.662v-47.28" stroke-width="1.432" transform="matrix(.15939 0 0 .1516 191.423 157.294)"/>
<path d="M1072.012 494.662v-47.28" stroke-width="1.722" transform="matrix(.15939 0 0 .1516 191.423 157.294)"/>
<path d="M1058.412 492.113l-.189-43.034m6.636 43.6v-45.013" stroke-width="2.012" transform="matrix(.15939 0 0 .1516 191.423 157.294)"/>
<path d="M1045.855 490.178V450.53m6.362 40.78l-.189-42.194" stroke-width="2.285" transform="matrix(.15939 0 0 .1516 191.423 157.294)"/>
<path d="M1029.009 487.914v-34.835m5.527 35.4v-36.532m5.695 37.665v-37.95" stroke-width="2.575" transform="matrix(.15939 0 0 .1516 191.423 157.294)"/>
<path d="M1023.105 487.629V453.93" stroke-width="2.865" transform="matrix(.15939 0 0 .1516 191.423 157.294)"/>
<path d="M1017.599 485.93v-31.434" stroke-width="3.154" transform="matrix(.15939 0 0 .1516 191.423 157.294)"/>
<path d="M1011.694 485.08v-29.17" stroke-width="3.444" transform="matrix(.15939 0 0 .1516 191.423 157.294)"/>
<path d="M999.606 482.534l-.188-23.224m6.383 24.356v-26.055" stroke-width="3.718" transform="matrix(.15939 0 0 .1516 191.423 157.294)"/>
<path d="M993.411 480.55v-20.393" stroke-width="3.927" transform="matrix(.15939 0 0 .1516 191.423 157.294)"/>
<path d="M987.738 478.897v-16.983" stroke-width="4.217" transform="matrix(.15939 0 0 .1516 191.423 157.294)"/>
<path d="M981.543 476.633V463.33" stroke-width="4.49" transform="matrix(.15939 0 0 .1516 191.423 157.294)"/>
<path d="M975.176 475.5v-9.904" stroke-width="4.764" transform="matrix(.15939 0 0 .1516 191.423 157.294)"/>
<path d="M968.437 473.238v-4.813" stroke-width="5.617" transform="matrix(.15939 0 0 .1516 191.423 157.294)"/>
<path d="M1137.799 492.113v-43.315m-14.49 44.732l.19-45.864m-10.75 46.43v-46.715" stroke-width=".29" transform="matrix(.15939 0 0 .1516 191.423 157.294)"/>
<path d="M1198.514 494.662v-47.28" stroke-width=".579" transform="matrix(.15939 0 0 .1516 191.423 157.294)"/>
<path d="M1207.066 494.662v-47.28" stroke-width=".853" transform="matrix(.15939 0 0 .1516 191.423 157.294)"/>
<path d="M1215.14 494.662v-47.28" stroke-width="1.143" transform="matrix(.15939 0 0 .1516 191.423 157.294)"/>
<path d="M1223.143 494.662v-47.28" stroke-width="1.432" transform="matrix(.15939 0 0 .1516 191.423 157.294)"/>
<path d="M1230.274 494.662v-47.28" stroke-width="1.722" transform="matrix(.15939 0 0 .1516 191.423 157.294)"/>
<path d="M1243.875 492.113l.188-43.034m-6.636 43.6v-45.013" stroke-width="2.012" transform="matrix(.15939 0 0 .1516 191.423 157.294)"/>
<path d="M1256.432 490.178V450.53m-6.362 40.78l.188-42.194" stroke-width="2.285" transform="matrix(.15939 0 0 .1516 191.423 157.294)"/>
<path d="M1273.278 487.914v-34.835m-5.528 35.4v-36.532m-5.694 37.665v-37.95" stroke-width="2.575" transform="matrix(.15939 0 0 .1516 191.423 157.294)"/>
<path d="M1279.182 487.629V453.93" stroke-width="2.865" transform="matrix(.15939 0 0 .1516 191.423 157.294)"/>
<path d="M1284.688 485.93v-31.434" stroke-width="3.154" transform="matrix(.15939 0 0 .1516 191.423 157.294)"/>
<path d="M1290.592 485.08v-29.17" stroke-width="3.444" transform="matrix(.15939 0 0 .1516 191.423 157.294)"/>
<path d="M1302.68 482.534l.19-23.224m-6.384 24.356v-26.055" stroke-width="3.718" transform="matrix(.15939 0 0 .1516 191.423 157.294)"/>
<path d="M1308.876 480.55v-20.393" stroke-width="3.927" transform="matrix(.15939 0 0 .1516 191.423 157.294)"/>
<path d="M1314.548 478.897v-16.983" stroke-width="4.217" transform="matrix(.15939 0 0 .1516 191.423 157.294)"/>
<path d="M1320.743 476.633V463.33" stroke-width="4.49" transform="matrix(.15939 0 0 .1516 191.423 157.294)"/>
<path d="M1327.11 475.5v-9.904" stroke-width="4.764" transform="matrix(.15939 0 0 .1516 191.423 157.294)"/>
<path d="M1333.85 473.238v-4.813" stroke-width="5.617" transform="matrix(.15939 0 0 .1516 191.423 157.294)"/>
<path d="M1164.488 492.113v-43.315m14.489 44.732l-.188-45.864m10.748 46.43v-46.715" stroke-width=".29" transform="matrix(.15939 0 0 .1516 191.423 157.294)"/>
</g>
<path d="M1332.929 258.951c-56.613.595-113.87.658-169.469 12.594-12.408 3.94-30.155 6.135-34.812 20.094-1.528 11.659 12.487 16.608 21.25 19.812 41.744 12.61 85.872 13.685 129.124 15.656 67.291 1.359 134.99 1.886 201.782-7.53 18.247-3.548 38.338-5.738 53.343-17.688 8.96-8.832-.939-21.18-10.843-23.72-33.977-13.119-71.033-14.516-106.969-17.187-27.773-1.525-55.595-2.012-83.406-2.03zm.156 14.031c145.416 0 186.125 20.438 186.125 20.438s-34.025 20.437-186.125 20.437c-152.584 0-186.094-20.437-186.094-20.437s40.194-20.438 186.094-20.438z" fill="#eac102" fill-rule="evenodd" stroke-width="1.114" transform="matrix(.15939 0 0 .1516 162.422 184.212)"/>
</g>
<path style="marker:none" d="M81.98 346.22c.204 120.744-.411 241.502.312 362.238 3.847 108.357 86.787 207.327 192.7 230.21 97.983 23.87 207.672-19.027 262.977-103.621 33.122-47.31 45.32-105.86 42.59-162.853V346.22H81.978z" transform="matrix(.17294 0 0 .1734 317.582 169.898)" color="#000" overflow="visible" fill="#0071bc" fill-rule="evenodd" stroke="#000" stroke-width="3"/>
<path d="M-129.008 503.49H13.096s-4.284-3.259-6.877-9.947c-2.593-6.688-4.283-10.854-8.071-13.83-3.934-2.777-10.723-4.421-13.666-8.587-3.088-4.166-6.818-11.308-10.81-15.474-5.477-5.866-12.092-6.574-14.015-9.21-3.438-4.45-9.411-12.498-11.655-12.498-2.01 0-4.603 2.182-9.703 8.049-5.128 5.81-9.411 6.971-11.101 9.975-1.748 2.75-3.438 6.915-6.527 9.097-2.943 1.984-11.975 3.684-13.665 5.867-1.749 1.983-13.2 11.137-17.104 14.453-3.788 3.372-11.51 4.988-13.2 9.154-1.748 4.166-6.876 12.951-6.876 12.951m-6.818 143.542H13.94s.845-3.345-.35-5.328c-1.398-2.183-2.592-3.345-5.127-6.348-2.594-2.778-3.439-6.122-5.682-7.822-2.04-1.644-13.666-.482-16.259-3.288-2.535-3.004-11.101-16.38-15.355-20.801-4.284-4.676-8.042-7.142-10.286-7.142-2.04 0-15.355-14.51-15.355-14.51s-5.129-.822-6.41 0c-1.312.85-7.635 8.304-7.635 8.304s-7.372 5.044-10.314 5.328c-3.09.51-2.157 4.166-3.905 5.838-1.69 1.643-5.1 8.813-8.1 9.607-2.972.907-9.849 3.684-11.86 6.206-2.272 2.466-4.865 7.454-7.72 8.814-3.09 1.162-8.217 1.644-11.16 3.344-3.089 1.644-8.217 6.122-8.567 7.765-.495 1.729-6.789 10.033-6.789 10.033M88.358 503.49h148.047s-2.505-18.28-14.51-21.623c-12.005-3.344-14.598-4.62-16.259-7.142-1.748-2.465-3.438-9.154-7.721-11.676-4.283-2.466-17.133-6.632-19.726-11.931-2.506-5.498-4.254-14.992-11.044-14.992-6.876 0-13.665-2.437-15.792 0-2.156 2.522-9.382 15.502-17.949 19.98-5.594 2.777-5.944 11.307-9.877 14.113-4.633 3.344-5.187 7.51-11.51 7.51-6.527 0-16.258 4.506-19.697 11.988-3.38 7.51-3.933 13.773-3.933 13.773m-.029 143.201H237.25s-4.254-9.692-10.227-12.47c-5.973-3.003-9.76-16.663-12.354-18.845-2.535-1.956-11.073-12.81-14.51-12.81-3.439 0-8.217-1.615-12.821-11.307 0 0-3.905-3.6-6.527-3.6-2.593 0-10.227 1.616-10.227-1.388 0-2.777-2.943-9.466-9.47-9.466-6.323 0-5.973-.822-7.634 2.523-1.748 3.344-7.226 2.805-13.2 13.631 0 0-3.088.794-6.526 3.798-3.438 2.805-8.537 6.688-11.13 12.498-2.536 5.78-11.102 10.825-14.045 12.81-3.089 2.181-10.227 7.99-12.005 9.606-1.66 1.729-2.506 4.506-2.506 4.506s-5.099 3.826-5.099 6.348c0 2.523-.553 4.166-.553 4.166m-231.44 139.036H15.281s-1.34-3.344-4.779-7.17c-3.438-3.684-10.577-12.47-12.005-15.332-1.165-3.004-3.7-8.785-9.731-9.947-5.974-1.36-24.476-10.033-24.476-14.68 0-4.478-5.973-16.976-11.101-16.976-5.187 0-5.507 2.862-8.013 2.862-2.623 0-10.81-8.332-12.85-8.332-2.243 0-6.031 4.648-6.527 8.332-.35 3.826-1.69 7.17-4.283 9.976-2.506 3.004-10.227 10.457-12.82 10.457-2.535 0-5.478-.793-9.412-.793-3.788 0-13.17 2.465-15.763 9.154-2.535 6.631-11.655 16.068-13.345 16.947-1.661.822-4.283.482-6.265 2.466-2.243 2.182-6.876 13.036-6.876 13.036m233.915 0h154.022s1.398-4.166-.845-6.348c-2.04-1.984-9.382-10.316-12.325-12.838-3.089-2.522-5.973-8.304-10.752-8.304-4.633 0-10.664.822-11.975-.453-1.166-1.162-3.672-7.029-4.604-14.199-.554-2.777-1.749-4.165-4.284-4.165-2.593 0-7.72-.312-10.314-2.438-2.506-2.068-5.624-8.332-8.217-9.494-2.506-1.36-6.294-2.182-8.887-4.166-2.535-2.182-7.372-5.044-7.372-5.044l-4.283-.482-6.323 6.688-6.497.822s-9.762 7.992-11.102 12.158c-1.165 4.138-3.438 6.632-5.099 7.794-1.748 1.303-3.788 1.643-5.449 4.987-1.748 3.344-6.876 7.17-10.314 7.992-3.439.822-14.51 6.688-16.26 9.126-1.689 2.55-4.282 7.028-5.972 8.672-1.72 1.643-3.089 9.692-3.089 9.692M-24.58 917.196h170.805s-.496-6.632-5.128-6.632c-4.779 0-5.682-1.7-7.372-3.344-1.69-1.644-2.01-5.81-4.633-5.81-2.506 0-6.498-.51-7.343-3.882-.845-3.26-5.128-6.915-6.818-6.915-1.748 0-6.381 0-7.226-3.344-.816-3.344-9.353-4.988-11.597-7.51-2.04-2.466-12.354-16.296-19.988-16.636-7.722-.482-12.5-1.304-12.5-1.304s-8.625-12.016-11.16-11.676c-2.593.482-8.887 4.648-12.82 7.51-3.788 3.005-7.722 2.466-11.51 9.154-3.933 6.66-17.599 31.288-31.643 31.288-14.19 0-11.772 1.502-13.666 3.344-2.068 1.785-7.371 4.449-7.371 15.785" transform="matrix(.17294 0 0 .1734 366.048 164.345)" fill="#e3e4e5" stroke="#000" font-size="12" stroke-width="1.2"/>
<g fill="#e3e4e5" fill-rule="evenodd" stroke="#000" stroke-width="1.128">
<path d="M-324.804 88.489s64.963 2.2 112.67-22.84c47.5-24.931 63.95-29.278 65.343-34.854 6.336-9.443-25.726-38.79-38.59-58.185 0 0-27.973 20.734-56.823 34.08-28.85 13.348-92.512 20.793-92.512 20.793 11.047 15.657 26.812 19.323 43.773 26.346-2.29 9.75-25.41 28.853-33.861 34.66z" transform="matrix(.13603 0 0 .1734 367.83 166.05)"/>
<path d="M526.487 120.496c1.81 5.59 25.971-17.738 25.95-3.752 3.38-28.388-25.422-38.145-38.143-57.213l9.067 56.588 3.126 4.377z" transform="matrix(.13603 0 0 .1734 272.779 151.13)"/>
<path d="M-324.804 88.489s64.963 2.2 112.67-22.84c47.5-24.931 63.95-29.278 65.343-34.854 6.336-9.443-25.726-38.79-38.59-58.185 0 0-27.973 20.734-56.823 34.08-28.85 13.348-92.512 20.793-92.512 20.793 11.047 15.657 26.812 19.323 43.773 26.346-2.29 9.75-25.41 28.853-33.861 34.66z" transform="matrix(-.13603 0 0 .1734 381.97 166.05)"/>
<path transform="matrix(-.13603 0 0 .1734 477.022 151.13)" d="M526.487 120.496c1.81 5.59 25.971-17.738 25.95-3.752 3.38-28.388-25.422-38.145-38.143-57.213l9.067 56.588 3.126 4.377z"/>
<path d="M-220.736-150.998c-27.122-78.099 564.132-78.695 543.046 0l-46.656 55.07c38.467-46.287-486.927-45.224-447.44 0l-48.95-55.07z" transform="matrix(.13603 0 0 .1734 367.83 188.742)"/>
</g>
<path style="line-height:100%;text-align:start" d="M347.036 157.381c1.428-.371 2.69-.208 3.786.488 1.096.697 1.792 1.718 2.088 3.063.252 1.15.139 2.234-.34 3.255-.634 1.355-1.762 2.21-3.384 2.569-1.626.36-3.004.084-4.135-.824-.894-.718-1.473-1.676-1.736-2.874-.295-1.346-.085-2.568.63-3.667.716-1.099 1.747-1.769 3.091-2.01zm.174.41c-.826.183-1.362.745-1.607 1.686-.198.772-.155 1.809.131 3.11.34 1.545.862 2.628 1.566 3.248.491.433 1.077.574 1.756.424.458-.1.816-.296 1.073-.587.328-.371.533-.894.613-1.568.08-.674.01-1.514-.211-2.52-.264-1.199-.572-2.07-.924-2.616-.353-.546-.729-.903-1.127-1.072a2.047 2.047 0 0 0-1.27-.105zm15.568-2.65l.315 3.2-.265.027c-.281-.816-.716-1.419-1.303-1.81a2.85 2.85 0 0 0-1.912-.485 2.74 2.74 0 0 0-1.534.654 2.913 2.913 0 0 0-.924 1.404c-.218.714-.286 1.49-.203 2.33a7.73 7.73 0 0 0 .534 2.226c.275.658.652 1.139 1.13 1.442.477.304 1.07.42 1.776.35a3.38 3.38 0 0 0 1.555-.538c.457-.302.922-.79 1.395-1.465l.078.797c-.463.59-.962 1.035-1.497 1.334-.535.298-1.176.484-1.923.558-.983.097-1.875-.014-2.677-.334a4.198 4.198 0 0 1-1.933-1.527 4.783 4.783 0 0 1-.853-2.302 4.931 4.931 0 0 1 .443-2.573 4.89 4.89 0 0 1 1.68-2.022 5.057 5.057 0 0 1 2.424-.9c.647-.064 1.345.009 2.092.22.433.121.706.177.819.166a.517.517 0 0 0 .361-.197c.096-.118.148-.294.157-.528l.265-.026zm5.304.573l.089 3.775.184-.004c.587-.014 1.008-.209 1.263-.584.255-.376.41-.925.466-1.647l.26-.006.114 4.856-.26.006c-.067-.527-.192-.958-.375-1.291-.183-.334-.392-.556-.626-.666-.235-.111-.573-.161-1.014-.151l.061 2.613c.012.51.041.822.087.935a.562.562 0 0 0 .249.275c.12.07.312.102.576.096l.552-.013c.864-.02 1.552-.238 2.063-.651.512-.414.871-1.033 1.08-1.86l.252-.005-.347 2.957-7.995.189-.006-.253.307-.008c.268-.006.483-.059.644-.158a.623.623 0 0 0 .266-.335c.047-.11.065-.399.054-.864l-.143-6.1c-.01-.42-.027-.677-.052-.773a.655.655 0 0 0-.261-.363c-.176-.124-.414-.182-.714-.175l-.307.007-.006-.253 7.743-.182.064 2.742-.26.006c-.147-.667-.343-1.143-.589-1.43-.246-.286-.588-.492-1.028-.619-.257-.076-.735-.105-1.435-.089l-.956.023zm11.634 6.178l-3.267-.11-.42.89c-.136.296-.208.542-.215.739-.009.26.09.454.294.584.12.078.421.142.902.195l-.008.253-3.076-.104.008-.253c.334-.039.611-.167.832-.386.222-.218.501-.675.838-1.371l3.556-7.287.13.004 3.08 7.716c.294.731.54 1.193.738 1.387.15.147.366.236.647.268l-.009.253-4.473-.15.008-.253.184.006c.36.012.613-.03.762-.125a.366.366 0 0 0 .16-.31.84.84 0 0 0-.032-.254 6.408 6.408 0 0 0-.187-.52l-.452-1.172zm-.215-.514l-1.27-3.24-1.526 3.146 2.796.094zm8.705-5.646l4.035 6.138.355-3.973c.05-.554.003-.936-.138-1.145-.194-.283-.547-.443-1.06-.48l.022-.252 3.045.273-.022.252c-.394.015-.662.056-.803.124a.784.784 0 0 0-.347.36c-.09.173-.155.477-.194.914l-.687 7.693-.23-.02-5.547-8.253-.524 5.874c-.047.531.042.901.268 1.109.225.208.495.326.807.354l.218.02-.023.252-3.269-.294.023-.252c.507.041.87-.031 1.088-.218.217-.187.348-.525.392-1.016l.582-6.521-.175-.263c-.173-.263-.331-.44-.474-.53-.143-.09-.354-.153-.634-.187l.023-.253 3.269.294zm12.695 1.412c1.462.197 2.569.825 3.321 1.885.753 1.06 1.013 2.27.78 3.627-.2 1.16-.714 2.121-1.542 2.885-1.097 1.014-2.464 1.38-4.1 1.097-1.641-.283-2.814-1.06-3.52-2.33-.556-1.003-.73-2.109-.523-3.318.233-1.358.888-2.41 1.965-3.156 1.077-.747 2.283-.977 3.619-.69zm.006.445c-.833-.144-1.541.173-2.123.952-.474.64-.824 1.616-1.05 2.929-.268 1.56-.193 2.76.226 3.6.291.588.78.94 1.466 1.059.462.08.867.034 1.215-.137.444-.22.83-.626 1.158-1.22.328-.594.58-1.398.754-2.414.208-1.21.251-2.133.13-2.772-.12-.639-.334-1.112-.639-1.419a2.05 2.05 0 0 0-1.137-.578z" font-weight="700" font-size="80.806" font-family="Times New Roman"/>
<g>
<path d="M-421.858 736.88s25.49 31.54 54.247 43.844c9.491 4.195 20.858 15.015 20.858 20.31 0 21.513-20.858 32.769-20.858 50.317 0 15.757 30.548 40.16 35.35 44.33 3.893 3.428 6.365 4.477 8.895 4.477 9.974 0 19.152 2.711 19.152 8.262 0 0-5-1.023-6.65.486 0 0 9.18 0 9.18 8.979 0 5.55-2.189 8.262-5.002 8.262-3.012 0-6.365-.435-6.365-2.711 0-2.226 0-7.521-2.785-7.521 0 0 2.785 2.277 2.785 7.52 0 5.296 0-3.76 0 0s-4.518 3.76-6.962 3.76c-2.5 0-15.857-2.966-20.006-11.587-4.177-8.672-33.957-36.017-53.906-36.017-2.557 0-9.576-15.015-9.576-16.218 0-5.244 13.384-14.299 13.384-33.075 0-10.77-28.928-20.26-36.714-20.26-14.237 0-40.92-12.022-40.92-12.022l-4.49-28.369 36.856-41.823 13.527 9.055" font-size="12" fill="#d68f54" stroke="#000" stroke-width="1.235" stroke-linecap="round" stroke-linejoin="round" transform="matrix(.16988 0 0 .17032 365.547 162.842)"/>
<path d="M-318.848 557.332s4.973 2.225 11.338 2.225c21.142 0 37.027-6.472 43.364-10.232 1.79-1.1 4.12-2.046 7.473-4.323-.284-2.763-.483-5.397-.483-9.158 0-9.03-7.445-21.794-24.154-32.64-16.68-10.948-31.258-21.769-31.258-39.521 0-8.979-.796-30.032-.796-34.84 0-13.225 15.516-27.448 22.563-29.75 5.797-1.765 6.621-5.219 16.965-12.304 3.353-2.277 3.893-2.277 6.706-3.454 2.984-1.049 23.87-8.237 23.87-17.599 0-9.413-.483 2.277-.483-1.177 0-3.325-1.705-7.085-1.705-7.085s6.678-5.193 6.678-10.488c0-5.244-.341-18.29-2.53-27.038-.767-3.454-4.518-5.73-8.325-5.73-17.505 0-23.643 12.022-42.085 12.022-15.772 0-13.328-6.292-28.02-6.292-15.799 0-41.033 7.52-48.705 10.513-9.69 3.76-11.338 4.067-13.867 6.293-2.473 2.25-25.519 27.32-38.732 38.037-4.149 3.25-6.621 9.721-6.621 19.825 0 10.207 4.177 10.948 4.177 19.953 0 9.055-1.705 13.532-1.705 24.07 0 10.54 4.973 8.238 4.973 21.002 0 12.79-3.808 25.12-3.808 33.075 0 7.802 2.984 35.326 2.984 51.826 0 16.576-4.831 26.27-6.309 30.798-11.167 33.331-24.154 88.2-115.968 134.45-10.06 4.988-23.728 23.585-31.741 48.398-4.49 13.966-14.208 33.817-41.233 33.817-27.217 0-45.887-25.069-45.887-48.833 0-14.606 6.138-27.038 6.138-28.573 0-1.484-.255-7.777-4.973-7.777-4.518 0-13.696 12.33-13.696 33.817 0 46.556 34.554 67.916 61.772 67.916 27.564 0 46.233-18.341 46.233-18.341-.199-2.277.427-6.65.483-8.749.341-12.61 5.854-34.124 5.854-34.124s-5.513 21.513-5.854 34.124c-.824 21.795 16.681 54.563 16.681 67.353 0 5.551-1.279 9.746-3.353 11.537-2.103 1.97-17.505 13.967-20.517 16.985-2.785 3.019-8.667 17.6-8.667 24.813 0 7.06 5.541 15.015 7.502 24.736.796 4.067 10.855 4.553 16.197 34.584 2.53 14.3 1.62 17.267 2.189 21.002.34 3.76 2.784 4.067 4.972 4.809 1.99.793 7.872 3.504 10.344 5.295 2.53 1.97 5.882 4.195 7.53 5.244 1.649 1.202 6.707 0 6.707 0s6.62 6.779 13.327 6.779c3.808 0 8.81-2.277 8.81-4.068 0-1.97.34-7.213-5.457-9.746 0 0 5.456 2.533 5.456 9.746 0 7.035 0 0 0 0s2.53 1.51 4.973 1.51c2.53 0 5.342-4.963 5.342-7.265 0-2.2-4.432-9.286-11.139-9.286 0 0 11.14 1.535 12.02 3.326 0 0 0-11.997-20.374-11.997h-14.663c-3.353 0-21.227-22.537-21.227-64.667 0-38.294 72.66-46.863 75.446-81.882 3.353-40.699 8.354-47.298 40.92-84.415 32.565-37.27 95.934-54.077 115.967-75.564 20.063-21.36 30.605-26.604 39.755-38.677 7.673-10.104 16.14-28.625 19.153-54.614 3.495-2.302 7.246-4.4 11.225-5.91 23.033-35.862 47.357-32.81 48.421-54.843v-18.29l-4.177 4.81 4.177-7.086v-13.532s-6.706 3.018-8.354 6.343c-1.705 3.428 8.837-7.827 8.837-7.827s0-4.502-5.54-4.502c-5.343 0-17.164 11.716-22.848 33.075-3.012 10.77-3.012 13.48-7.53 17.983-3.296 3.249-13.867 11.127-22.023 16.806-3.353 2.277-6.223 4.195-8.013 5.295-6.337 3.76-22.222 10.232-43.364 10.232-6.365 0-11.338-2.225-11.338-2.225z" font-size="12" fill="#d68f54" stroke="#000" stroke-width="1.235" stroke-linecap="round" stroke-linejoin="round" transform="matrix(.16988 0 0 .17032 365.547 162.842)"/>
<path d="M293.882 288.347s4.33 5.372 9.215 7.468c1.613.714 3.544 2.557 3.544 3.46 0 2.13-1.198 3.663-2.197 5.162-1.93 0-1.723-1.638-2.433-4.017-.705-2.348-2.264-5.036-6.087-6.187-3.833-1.154-5.02-3.15-5.02-3.15l.675-2.187 2.303-.549" font-size="12" fill="#4a311c" fill-opacity=".436"/>
<path d="M316.213 248.84l3.814 1.555s1.636-.723 2.066-2.235c1.28-4.858 3.288-7.93 4.451-11.768.57-1.865.792-2.13 1.93-2.684 1.14-.588 3.457-2.047 3.457-2.047s.28-.898.28-1.277c0 0-.135-.388-1.337-.209l2.419-.514s-.71-.941-1.497-.941c-.767 0-1.472.64-1.472.64l1.694-.902s-.371-.252-.85-.252c-.511 0-1.419.514-2.128 1.28-.705.767-2.496 1.613-4.9 4.601-1.337 1.67-1.42 1.974-1.767 2.876-.362.893-.676 2.33-3.196 4.94-1.906 1.957-1.989 2.684-3.186 3.451-1.221.763-1.419.763-1.419.763l1.641 2.723" font-size="12" fill="#d68f54"/>
<path d="M-290.403 504.918l22.449 9.132s9.633-4.246 12.162-13.122c7.53-28.522 19.352-46.556 26.2-69.093 3.354-10.948 4.66-12.508 11.367-15.757 6.706-3.453 20.346-12.023 20.346-12.023s1.648-5.27 1.648-7.495c0 0-.795-2.276-7.871-1.228l14.237-3.018s-4.178-5.525-8.81-5.525c-4.518 0-8.667 3.76-8.667 3.76l9.975-5.295s-2.189-1.484-5.002-1.484c-3.012 0-8.354 3.019-12.531 7.52-4.15 4.503-14.692 9.465-28.843 27.013-7.872 9.798-8.355 11.588-10.4 16.883-2.132 5.244-3.979 13.686-18.812 29.008-11.225 11.486-11.708 15.758-18.755 20.26-7.19 4.476-8.355 4.476-8.355 4.476l9.662 15.988" font-size="12" fill="none" stroke="#000" stroke-width="1.235" stroke-linecap="round" stroke-linejoin="round" transform="matrix(.16988 0 0 .17032 365.547 162.842)"/>
<path d="M318.55 249.775l1.477.62s1.636-.723 2.066-2.235c1.28-4.858 3.288-7.93 4.451-11.768l-1.048.388c-.704 0-2.264 3.703-2.833 4.784-.57 1.102-.942 1.529-2.13 3.019-1.216 1.46-2.495 4.091-2.495 4.091l-.36.681" font-size="12" fill="#4a311c" fill-opacity=".436"/>
<path d="M318.096 250.09l1.931.305s1.636-.723 2.066-2.235c1.28-4.858 3.288-7.93 4.451-11.768l-1.048.388c-.704 0-2.264 3.703-2.833 4.784-.57 1.102-.942 1.529-2.13 3.019-1.216 1.46-2.495 4.091-2.495 4.091l.058 1.416" font-size="12" fill="none"/>
<path d="M-245.448 357.448s-6.99 2.584-12.532 4.067c-5.342 1.484-8.354 2.277-12.503 4.196-4.177 1.841-11.168 7.52-15.317 8.569-4.177 1.228-10.514 1.228-10.514 1.228m28.36 138.542s9.633-4.246 12.162-13.122c7.53-28.522 19.352-46.556 26.2-69.093 3.354-10.948 4.66-12.508 11.367-15.757 6.706-3.453 20.375-12.023 20.375-12.023s1.648-5.27 1.648-7.495c0 0-.824-2.276-7.872-1.228l14.237-3.018s-4.177-5.525-8.838-5.525c-4.518 0-8.667 3.76-8.667 3.76l9.975-5.295s-2.189-1.484-5.002-1.484c-3.012 0-8.354 3.019-12.531 7.52-4.15 4.503-14.692 9.465-28.843 27.013-7.872 9.798-8.355 11.588-10.4 16.883-2.132 5.244-3.979 13.686-18.812 29.008-11.197 11.486-11.68 15.758-18.755 20.26-7.161 4.476-8.326 4.476-8.326 4.476m-86.472-124.396c0 2.711.54 7.213-3.268 13.992-3.723 6.702-12.873 23.253-12.873 33.05 0 9.746 3.268 14.53 6.65 18.776 3.325 4.016 9.49 13.506 10.372 15.783.824 2.2 3.836 3.248 5.484 3.248 1.648 0 5.343-.23 7.872-1.79 2.444-1.458 14.151-7.495 18.328-10.207 4.178-2.532 12.163-13.071 12.163-24.327 0-11.28-7.985-28.573-7.985-35.351 0-11.256 6.336-18.776 6.336-18.776" font-size="12" fill="none" stroke="#000" stroke-width="1.235" stroke-linecap="round" stroke-linejoin="round" transform="matrix(.16988 0 0 .17032 365.547 162.842)"/>
<path d="M311.091 222.694c0-.71.705-1.99.942-2.17.193-.208 1.043-.714 1.043-.714l-.276-.436s.415-.461.705-.461c.28 0 1.7.209 1.7 1.228 0 .514-.479 1.155-.99 1.333-.488.205-1.415.079-2.757 1.22h-.367m13.859-1.969c-.033-1.037-.14-2.392-.395-3.398-.13-.584-.767-.972-1.414-.972h-.276c-.99 0-.907 1.229-.907 1.865 0 .636 1.043 2.305 2.752 2.305l.24.2" font-size="12"/>
<path d="M304.7 262.938c.917.092 1.564.27 2.23.449.908.261 7.994 1.921 9.216 1.921 1.182 0 1.834-.64 2.264-1.145.42-.515 2.544-3.072 5.16-4.048l8.226-9.345v-3.115l-.71.819.71-1.207v-2.3s-1.14.514-1.42 1.076c-.289.583 1.502-1.33 1.502-1.33s0-.766-.941-.766c-.908 0-2.916 1.995-3.881 5.633-.512 1.835-.512 2.296-1.28 3.063-.56.553-2.355 1.891-3.74 2.863-.57.383-1.058.71-1.362.897-1.077.64-3.775 1.743-7.367 1.743-1.081 0-1.926-.38-1.926-.38" font-size="12" fill="none"/>
<path d="M321.895 255.03c-.024-.274.009-.581-.034-.923-.419-3.358-2.347-4.167-5.674-5.28-1.432-3.16-3.734-3.987-3.734-7.01 0-1.53-.14-5.115-.14-5.935 0-1.738 1.583-3.594 2.848-4.518 0 0-.521.04-1.231.04-.71 0-1.834 1.333-2.742 2.683-.941 1.33-2.36 4.1-2.36 5.555 0 1.482.28 5.246.511 5.886.198.64 1.106 1.05 1.477 2.767.57 2.74 2.124 6.274 3.404 7.341 1.264 1.103 1.463 1.764 1.941 2.064.676.425 3.86-.9 5.734-2.139m-14.115 63.232c-.71-1.477-5.769-6.135-9.158-6.135-.434 0-1.627-2.557-1.627-2.766 0-.628 1.15-1.59 1.81-3.237 0 0 .464 3.825 4.567 5.794 4.113 2 4.683 4.353 4.683 6.657l-.275-.313" font-size="12" fill="#4a311c" fill-opacity=".436"/>
<path d="M307.78 318.793c-.71-1.477-5.769-6.135-9.158-6.135-.434 0-1.627-2.557-1.627-2.766 0-.628 1.15-1.59 1.81-3.237 0 0 .464 3.825 4.567 5.794 4.113 2 4.683 4.353 4.683 6.657l-.275-.313" font-size="12" fill="none"/>
<path d="M269.836 310.802c-.733.597-1.462 1.216-1.709 1.469-.468.514-1.467 2.997-1.467 4.226 0 1.207.936 2.557 1.27 4.217.14.693 1.848.776 2.756 5.886.43 2.436.275 2.941.372 3.577.058.64.473.693.845.82.212.082.666.291 1.086.505 0 0-1.318-2.466-1.318-3.882v-3.394c0-3.377-2.974-4.353-2.974-7.99 0-2.297 1.56-3.451 1.56-4.218 0-.767-.479-.976-.479-.976l.058-.24" font-size="12" fill="#4a311c" fill-opacity=".436"/>
<path d="M269.836 310.802c-.733.597-1.462 1.216-1.709 1.469-.468.514-1.467 2.997-1.467 4.226 0 1.207.936 2.557 1.27 4.217.14.693 1.848.776 2.756 5.886.43 2.436.275 2.941.372 3.577.058.64.473.693.845.82.212.082.666.291 1.086.505 0 0-1.318-2.466-1.318-3.882v-3.394c0-3.377-2.974-4.353-2.974-7.99 0-2.297 1.56-3.451 1.56-4.218 0-.767-.479-.976-.479-.976l.058-.24" font-size="12" fill="none"/>
<path d="M293.602 239.128s5.237 1.49 8.704 1.49c5.749 0 10.06-1.79 10.06-1.79s.232 3.964.232 4.213c0 .261-3.124 2.182-10.292 2.182-4.606 0-8.424-1.542-8.424-1.542s.019-1.35.135-2.043c.198-1.482-.415-2.51-.415-2.51" font-size="12" fill="#8a9199"/>
<path d="M-423.506 447.9s30.831 8.748 51.235 8.748c33.844 0 59.22-10.513 59.22-10.513s1.364 23.278 1.364 24.736c0 1.535-18.386 12.815-60.584 12.815-27.11 0-49.587-9.055-49.587-9.055s.113-7.93.795-11.997c1.165-8.697-2.443-14.734-2.443-14.734z" font-size="12" fill="#0071bc" stroke="#000" stroke-width="1.235" stroke-linecap="round" stroke-linejoin="round" transform="matrix(.16988 0 0 .17032 365.547 162.842)"/>
<path d="M-389.15 468.134c0-3.377-3.041-6.088-6.764-6.088-3.75 0-6.763 2.711-6.763 6.088 0 3.35 3.012 6.062 6.763 6.062 3.723 0 6.763-2.711 6.763-6.062m33.873 1.79c0-3.35-3.012-6.088-6.763-6.088-3.694 0-6.735 2.737-6.735 6.088s3.04 6.088 6.735 6.088c3.75 0 6.763-2.737 6.763-6.088m31.23-3.3c0-3.376-3.041-6.088-6.763-6.088-3.751 0-6.764 2.712-6.764 6.088 0 3.351 3.013 6.088 6.764 6.088 3.722 0 6.763-2.737 6.763-6.088" font-size="12" fill="#fff" stroke="#000" stroke-width="1.222" transform="matrix(.16988 0 0 .17032 365.547 162.842)"/>
<path d="M-420.844 469.124c-3.808 0-6.82-2.712-6.82-6.037 0-3.453 3.012-6.165 6.82-6.165v12.202zm108.587-15.366c3.694 0 6.706 2.711 6.706 6.037 0 3.453-3.012 6.164-6.706 6.164v-12.201z" font-size="12" fill="#fff" stroke="#000" stroke-width="1.222" stroke-linecap="round" stroke-linejoin="round" transform="matrix(.16988 0 0 .17032 365.547 162.842)"/>
<path d="M273.394 314.924c3.124-3.974 11.224-5.851 11.605-10.666.575-6.931 1.42-8.055 6.952-14.377 5.532-6.348 16.302-9.21 19.705-12.87 3.404-3.638 5.195-4.527 6.749-6.588 1.303-1.716 2.742-4.87 3.254-9.297.593-.397 1.221-.754 1.892-1.007l3.466-3.951s-3.452.06-5.72 2.37c-2.274 2.296-4.823 2.165-6.097 2.165-1.28 0-6.01-.836-6.522-1.015-.483-.209-1.984-.636-2.457-.85-.512-.178-1.28-.94-1.71-.94-.429 0-.569.378-.569.378s1.14 1.917 2.834 2.305c1.709.388 2.838 1.795 2.838 1.795-1.419.122-4.914.562-4.914.562-.372-.03-.792-.052-1.27-.052-1.612 0-3.311-2.004-3.311-2.004s-.43 0-.43 1.28c0 1.277 2.617 2.558 3.833 3.146 1.188.567 3.036 1.15 3.036 3.586 0 3.377-3.972 6.008-7.149 8.117-1.42.945-5.252 1.917-7.598 2.505-2.322.558-2.892 1.333-4.311 5.172-1.42 3.838-2.974 4.552-3.91 4.552-.908 0-.908-.387-3.606-.387-2.694 0-3.766 1.594-3.766 2.557 0 3.838 5.185 4.279 5.185 8.317 0 5.255-8.516 7.511-8.516 14.23 0 .514.512.967.512.967" font-size="12" fill="#4a311c" fill-opacity=".436"/>
<path d="M440.766 662.972s-19.001 11.525-28.346 13.394c-9.345 1.87-15.575 6.542-15.575 6.542s-28.557 8.164-35.445 7.705c-6.888-.46-19.517-3.674-19.517-3.674" transform="matrix(.16988 0 0 .17032 246.84 148.187)" fill="none" stroke="#000" stroke-width="1.018"/>
<path d="M-421.858 736.88s25.49 31.54 54.247 43.844c9.491 4.195 20.858 15.015 20.858 20.31 0 21.513-20.858 32.769-20.858 50.317 0 15.757 30.548 40.16 35.35 44.33 3.893 3.428 6.365 4.477 8.895 4.477 9.974 0 19.152 2.711 19.152 8.262 0 0-5-1.023-6.65.486 0 0 9.18 0 9.18 8.979 0 5.55-2.189 8.262-5.002 8.262-3.012 0-6.365-.435-6.365-2.711 0-2.226 0-7.521-2.785-7.521 0 0 2.785 2.277 2.785 7.52 0 5.296 0-3.76 0 0s-4.518 3.76-6.962 3.76c-2.5 0-15.857-2.966-20.006-11.587-4.177-8.672-33.957-36.017-53.906-36.017-2.557 0-9.576-15.015-9.576-16.218 0-5.244 13.384-14.299 13.384-33.075 0-10.77-28.928-20.26-36.714-20.26-14.237 0-40.92-12.022-40.92-12.022l-4.49-28.369 36.856-41.823 13.527 9.055" font-size="12" fill="#d68f54" stroke="#000" stroke-width="1.235" stroke-linecap="round" stroke-linejoin="round" transform="matrix(-.16988 0 0 .17032 384.254 162.842)"/>
<path d="M-318.848 557.332s4.973 2.225 11.338 2.225c21.142 0 37.027-6.472 43.364-10.232 1.79-1.1 4.12-2.046 7.473-4.323-.284-2.763-.483-5.397-.483-9.158 0-9.03-7.445-21.794-24.154-32.64-16.68-10.948-31.258-21.769-31.258-39.521 0-8.979-.796-30.032-.796-34.84 0-13.225 15.516-27.448 22.563-29.75 5.797-1.765 6.621-5.219 16.965-12.304 3.353-2.277 3.893-2.277 6.706-3.454 2.984-1.049 23.87-8.237 23.87-17.599 0-9.413-.483 2.277-.483-1.177 0-3.325-1.705-7.085-1.705-7.085s6.678-5.193 6.678-10.488c0-5.244-.341-18.29-2.53-27.038-.767-3.454-4.518-5.73-8.325-5.73-17.505 0-23.643 12.022-42.085 12.022-15.772 0-13.328-6.292-28.02-6.292-15.799 0-41.033 7.52-48.705 10.513-9.69 3.76-11.338 4.067-13.867 6.293-2.473 2.25-25.519 27.32-38.732 38.037-4.149 3.25-6.621 9.721-6.621 19.825 0 10.207 4.177 10.948 4.177 19.953 0 9.055-1.705 13.532-1.705 24.07 0 10.54 4.973 8.238 4.973 21.002 0 12.79-3.808 25.12-3.808 33.075 0 7.802 2.984 35.326 2.984 51.826 0 16.576-4.831 26.27-6.309 30.798-11.167 33.331-24.154 88.2-115.968 134.45-10.06 4.988-23.728 23.585-31.741 48.398-4.49 13.966-14.208 33.817-41.233 33.817-27.217 0-45.887-25.069-45.887-48.833 0-14.606 6.138-27.038 6.138-28.573 0-1.484-.255-7.777-4.973-7.777-4.518 0-13.696 12.33-13.696 33.817 0 46.556 34.554 67.916 61.772 67.916 27.564 0 46.233-18.341 46.233-18.341-.199-2.277.427-6.65.483-8.749.341-12.61 5.854-34.124 5.854-34.124s-5.513 21.513-5.854 34.124c-.824 21.795 16.681 54.563 16.681 67.353 0 5.551-1.279 9.746-3.353 11.537-2.103 1.97-17.505 13.967-20.517 16.985-2.785 3.019-8.667 17.6-8.667 24.813 0 7.06 5.541 15.015 7.502 24.736.796 4.067 10.855 4.553 16.197 34.584 2.53 14.3 1.62 17.267 2.189 21.002.34 3.76 2.784 4.067 4.972 4.809 1.99.793 7.872 3.504 10.344 5.295 2.53 1.97 5.882 4.195 7.53 5.244 1.649 1.202 6.707 0 6.707 0s6.62 6.779 13.327 6.779c3.808 0 8.81-2.277 8.81-4.068 0-1.97.34-7.213-5.457-9.746 0 0 5.456 2.533 5.456 9.746 0 7.035 0 0 0 0s2.53 1.51 4.973 1.51c2.53 0 5.342-4.963 5.342-7.265 0-2.2-4.432-9.286-11.139-9.286 0 0 11.14 1.535 12.02 3.326 0 0 0-11.997-20.374-11.997h-14.663c-3.353 0-21.227-22.537-21.227-64.667 0-38.294 72.66-46.863 75.446-81.882 3.353-40.699 8.354-47.298 40.92-84.415 32.565-37.27 95.934-54.077 115.967-75.564 20.063-21.36 30.605-26.604 39.755-38.677 7.673-10.104 16.14-28.625 19.153-54.614 3.495-2.302 7.246-4.4 11.225-5.91 23.033-35.862 47.357-32.81 48.421-54.843v-18.29l-4.177 4.81 4.177-7.086v-13.532s-6.706 3.018-8.354 6.343c-1.705 3.428 8.837-7.827 8.837-7.827s0-4.502-5.54-4.502c-5.343 0-17.164 11.716-22.848 33.075-3.012 10.77-3.012 13.48-7.53 17.983-3.296 3.249-13.867 11.127-22.023 16.806-3.353 2.277-6.223 4.195-8.013 5.295-6.337 3.76-22.222 10.232-43.364 10.232-6.365 0-11.338-2.225-11.338-2.225z" font-size="12" fill="#d68f54" stroke="#000" stroke-width="1.235" stroke-linecap="round" stroke-linejoin="round" transform="matrix(-.16988 0 0 .17032 384.254 162.842)"/>
<path d="M455.92 288.347s-4.33 5.372-9.216 7.468c-1.613.714-3.544 2.557-3.544 3.46 0 2.13 1.198 3.663 2.197 5.162 1.93 0 1.723-1.638 2.433-4.017.705-2.348 2.264-5.036 6.087-6.187 3.833-1.154 5.02-3.15 5.02-3.15l-.675-2.187-2.303-.549" font-size="12" fill="#4a311c" fill-opacity=".436"/>
<path d="M433.588 248.84l-3.814 1.555s-1.636-.723-2.066-2.235c-1.28-4.858-3.288-7.93-4.451-11.768-.57-1.865-.792-2.13-1.93-2.684-1.14-.588-3.457-2.047-3.457-2.047s-.28-.898-.28-1.277c0 0 .135-.388 1.337-.209l-2.419-.514s.71-.941 1.497-.941c.767 0 1.472.64 1.472.64l-1.694-.902s.371-.252.85-.252c.511 0 1.419.514 2.128 1.28.705.767 2.496 1.613 4.9 4.601 1.337 1.67 1.42 1.974 1.767 2.876.362.893.676 2.33 3.196 4.94 1.906 1.957 1.989 2.684 3.186 3.451 1.221.763 1.419.763 1.419.763l-1.641 2.723" font-size="12" fill="#d68f54"/>
<path d="M-290.403 504.918l22.449 9.132s9.633-4.246 12.162-13.122c7.53-28.522 19.352-46.556 26.2-69.093 3.354-10.948 4.66-12.508 11.367-15.757 6.706-3.453 20.346-12.023 20.346-12.023s1.648-5.27 1.648-7.495c0 0-.795-2.276-7.871-1.228l14.237-3.018s-4.178-5.525-8.81-5.525c-4.518 0-8.667 3.76-8.667 3.76l9.975-5.295s-2.189-1.484-5.002-1.484c-3.012 0-8.354 3.019-12.531 7.52-4.15 4.503-14.692 9.465-28.843 27.013-7.872 9.798-8.355 11.588-10.4 16.883-2.132 5.244-3.979 13.686-18.812 29.008-11.225 11.486-11.708 15.758-18.755 20.26-7.19 4.476-8.355 4.476-8.355 4.476l9.662 15.988" font-size="12" fill="none" stroke="#000" stroke-width="1.235" stroke-linecap="round" stroke-linejoin="round" transform="matrix(-.16988 0 0 .17032 384.254 162.842)"/>
<path d="M431.251 249.775l-1.477.62s-1.636-.723-2.066-2.235c-1.28-4.858-3.288-7.93-4.451-11.768l1.048.388c.704 0 2.264 3.703 2.833 4.784.57 1.102.942 1.529 2.13 3.019 1.216 1.46 2.495 4.091 2.495 4.091l.36.681" font-size="12" fill="#4a311c" fill-opacity=".436"/>
<path d="M431.705 250.09l-1.931.305s-1.636-.723-2.066-2.235c-1.28-4.858-3.288-7.93-4.451-11.768l1.048.388c.704 0 2.264 3.703 2.833 4.784.57 1.102.942 1.529 2.13 3.019 1.216 1.46 2.495 4.091 2.495 4.091l-.058 1.416" font-size="12" fill="none"/>
<path d="M-245.448 357.448s-6.99 2.584-12.532 4.067c-5.342 1.484-8.354 2.277-12.503 4.196-4.177 1.841-11.168 7.52-15.317 8.569-4.177 1.228-10.514 1.228-10.514 1.228m28.36 138.542s9.633-4.246 12.162-13.122c7.53-28.522 19.352-46.556 26.2-69.093 3.354-10.948 4.66-12.508 11.367-15.757 6.706-3.453 20.375-12.023 20.375-12.023s1.648-5.27 1.648-7.495c0 0-.824-2.276-7.872-1.228l14.237-3.018s-4.177-5.525-8.838-5.525c-4.518 0-8.667 3.76-8.667 3.76l9.975-5.295s-2.189-1.484-5.002-1.484c-3.012 0-8.354 3.019-12.531 7.52-4.15 4.503-14.692 9.465-28.843 27.013-7.872 9.798-8.355 11.588-10.4 16.883-2.132 5.244-3.979 13.686-18.812 29.008-11.197 11.486-11.68 15.758-18.755 20.26-7.161 4.476-8.326 4.476-8.326 4.476m-86.472-124.396c0 2.711.54 7.213-3.268 13.992-3.723 6.702-12.873 23.253-12.873 33.05 0 9.746 3.268 14.53 6.65 18.776 3.325 4.016 9.49 13.506 10.372 15.783.824 2.2 3.836 3.248 5.484 3.248 1.648 0 5.343-.23 7.872-1.79 2.444-1.458 14.151-7.495 18.328-10.207 4.178-2.532 12.163-13.071 12.163-24.327 0-11.28-7.985-28.573-7.985-35.351 0-11.256 6.336-18.776 6.336-18.776" font-size="12" fill="none" stroke="#000" stroke-width="1.235" stroke-linecap="round" stroke-linejoin="round" transform="matrix(-.16988 0 0 .17032 384.254 162.842)"/>
<path d="M438.71 222.694c0-.71-.705-1.99-.942-2.17-.193-.208-1.043-.714-1.043-.714l.276-.436s-.415-.461-.705-.461c-.28 0-1.7.209-1.7 1.228 0 .514.479 1.155.99 1.333.488.205 1.415.079 2.757 1.22h.367m-13.86-1.969c.034-1.037.14-2.392.396-3.398.13-.584.767-.972 1.414-.972h.276c.99 0 .907 1.229.907 1.865 0 .636-1.043 2.305-2.752 2.305l-.24.2" font-size="12"/>
<path d="M445.101 262.938c-.917.092-1.564.27-2.23.449-.908.261-7.994 1.921-9.216 1.921-1.182 0-1.834-.64-2.264-1.145-.42-.515-2.544-3.072-5.16-4.048l-8.226-9.345v-3.115l.71.819-.71-1.207v-2.3s1.14.514 1.42 1.076c.289.583-1.502-1.33-1.502-1.33s0-.766.941-.766c.908 0 2.916 1.995 3.881 5.633.512 1.835.512 2.296 1.28 3.063.56.553 2.355 1.891 3.74 2.863.57.383 1.058.71 1.362.897 1.077.64 3.775 1.743 7.367 1.743 1.081 0 1.926-.38 1.926-.38" font-size="12" fill="none"/>
<path d="M427.906 255.03c.024-.274-.009-.581.034-.923.419-3.358 2.347-4.167 5.674-5.28 1.432-3.16 3.734-3.987 3.734-7.01 0-1.53.14-5.115.14-5.935 0-1.738-1.583-3.594-2.848-4.518 0 0 .521.04 1.231.04.71 0 1.834 1.333 2.742 2.683.941 1.33 2.36 4.1 2.36 5.555 0 1.482-.28 5.246-.511 5.886-.198.64-1.106 1.05-1.477 2.767-.57 2.74-2.124 6.274-3.404 7.341-1.264 1.103-1.463 1.764-1.941 2.064-.676.425-3.86-.9-5.734-2.139m14.115 63.232c.71-1.477 5.769-6.135 9.158-6.135.434 0 1.627-2.557 1.627-2.766 0-.628-1.15-1.59-1.81-3.237 0 0-.464 3.825-4.567 5.794-4.113 2-4.683 4.353-4.683 6.657l.275-.313" font-size="12" fill="#4a311c" fill-opacity=".436"/>
<path d="M442.021 318.793c.71-1.477 5.769-6.135 9.158-6.135.434 0 1.627-2.557 1.627-2.766 0-.628-1.15-1.59-1.81-3.237 0 0-.464 3.825-4.567 5.794-4.113 2-4.683 4.353-4.683 6.657l.275-.313" font-size="12" fill="none"/>
<path d="M479.965 310.802c.733.597 1.462 1.216 1.709 1.469.468.514 1.467 2.997 1.467 4.226 0 1.207-.936 2.557-1.27 4.217-.14.693-1.848.776-2.756 5.886-.43 2.436-.275 2.941-.372 3.577-.058.64-.473.693-.845.82-.212.082-.666.291-1.086.505 0 0 1.318-2.466 1.318-3.882v-3.394c0-3.377 2.974-4.353 2.974-7.99 0-2.297-1.56-3.451-1.56-4.218 0-.767.479-.976.479-.976l-.058-.24" font-size="12" fill="#4a311c" fill-opacity=".436"/>
<path d="M479.965 310.802c.733.597 1.462 1.216 1.709 1.469.468.514 1.467 2.997 1.467 4.226 0 1.207-.936 2.557-1.27 4.217-.14.693-1.848.776-2.756 5.886-.43 2.436-.275 2.941-.372 3.577-.058.64-.473.693-.845.82-.212.082-.666.291-1.086.505 0 0 1.318-2.466 1.318-3.882v-3.394c0-3.377 2.974-4.353 2.974-7.99 0-2.297-1.56-3.451-1.56-4.218 0-.767.479-.976.479-.976l-.058-.24" font-size="12" fill="none"/>
<path d="M456.2 239.128s-5.238 1.49-8.705 1.49c-5.749 0-10.06-1.79-10.06-1.79s-.232 3.964-.232 4.213c0 .261 3.124 2.182 10.292 2.182 4.606 0 8.424-1.542 8.424-1.542s-.019-1.35-.135-2.043c-.198-1.482.415-2.51.415-2.51" font-size="12" fill="#8a9199"/>
<path d="M-423.506 447.9s30.831 8.748 51.235 8.748c33.844 0 59.22-10.513 59.22-10.513s1.364 23.278 1.364 24.736c0 1.535-18.386 12.815-60.584 12.815-27.11 0-49.587-9.055-49.587-9.055s.113-7.93.795-11.997c1.165-8.697-2.443-14.734-2.443-14.734z" font-size="12" fill="#0071bc" stroke="#000" stroke-width="1.235" stroke-linecap="round" stroke-linejoin="round" transform="matrix(-.16988 0 0 .17032 384.254 162.842)"/>
<path d="M-389.15 468.134c0-3.377-3.041-6.088-6.764-6.088-3.75 0-6.763 2.711-6.763 6.088 0 3.35 3.012 6.062 6.763 6.062 3.723 0 6.763-2.711 6.763-6.062m33.873 1.79c0-3.35-3.012-6.088-6.763-6.088-3.694 0-6.735 2.737-6.735 6.088s3.04 6.088 6.735 6.088c3.75 0 6.763-2.737 6.763-6.088m31.23-3.3c0-3.376-3.041-6.088-6.763-6.088-3.751 0-6.764 2.712-6.764 6.088 0 3.351 3.013 6.088 6.764 6.088 3.722 0 6.763-2.737 6.763-6.088" font-size="12" fill="#fff" stroke="#000" stroke-width="1.222" transform="matrix(-.16988 0 0 .17032 384.254 162.842)"/>
<path d="M-420.844 469.124c-3.808 0-6.82-2.712-6.82-6.037 0-3.453 3.012-6.165 6.82-6.165v12.202zm108.587-15.366c3.694 0 6.706 2.711 6.706 6.037 0 3.453-3.012 6.164-6.706 6.164v-12.201z" font-size="12" fill="#fff" stroke="#000" stroke-width="1.222" stroke-linecap="round" stroke-linejoin="round" transform="matrix(-.16988 0 0 .17032 384.254 162.842)"/>
<path d="M476.407 314.924c-3.124-3.974-11.224-5.851-11.605-10.666-.575-6.931-1.42-8.055-6.952-14.377-5.532-6.348-16.302-9.21-19.705-12.87-3.404-3.638-5.195-4.527-6.749-6.588-1.303-1.716-2.742-4.87-3.254-9.297-.593-.397-1.221-.754-1.892-1.007l-3.466-3.951s3.452.06 5.72 2.37c2.274 2.296 4.823 2.165 6.097 2.165 1.28 0 6.01-.836 6.522-1.015.483-.209 1.984-.636 2.457-.85.512-.178 1.28-.94 1.71-.94.429 0 .569.378.569.378s-1.14 1.917-2.834 2.305c-1.709.388-2.838 1.795-2.838 1.795 1.419.122 4.914.562 4.914.562.372-.03.792-.052 1.27-.052 1.612 0 3.311-2.004 3.311-2.004s.43 0 .43 1.28c0 1.277-2.617 2.558-3.833 3.146-1.188.567-3.036 1.15-3.036 3.586 0 3.377 3.972 6.008 7.149 8.117 1.42.945 5.252 1.917 7.598 2.505 2.322.558 2.892 1.333 4.311 5.172 1.42 3.838 2.974 4.552 3.91 4.552.908 0 .908-.387 3.606-.387 2.694 0 3.766 1.594 3.766 2.557 0 3.838-5.185 4.279-5.185 8.317 0 5.255 8.516 7.511 8.516 14.23 0 .514-.512.967-.512.967" font-size="12" fill="#4a311c" fill-opacity=".436"/>
<path transform="matrix(-.16988 0 0 .17032 502.96 148.187)" d="M440.766 662.972s-19.001 11.525-28.346 13.394c-9.345 1.87-15.575 6.542-15.575 6.542s-28.557 8.164-35.445 7.705c-6.888-.46-19.517-3.674-19.517-3.674" fill="none" stroke="#000" stroke-width="1.018"/>
</g>
</svg>
