<svg xmlns="http://www.w3.org/2000/svg" viewBox="0 0 750 500">
<path fill="#00ab39" d="M0-.001h750.002v166.666H-.001z"/>
<path d="M0 333.334h750.002V500H-.001z"/>
<path fill="#fff" d="M0 166.668h750.002v166.666H-.001z"/>
<g stroke="#000">
<g transform="translate(100.602 139.96) scale(.24134)" fill-rule="evenodd" stroke-width=".91">
<path d="M462.013 206.042l90.376 15.203h146.966l87.841-16.048-75.172-19.426h-171.46l-78.55 20.27z" fill="#ed1c24"/>
<path d="M510.875 82.188L489.5 107.25l-33.906-5.906-20.656 19.187-31.688-5.906c12.874 35.11 33.587 55.538 42.75 92.906l93.625-20.656h171.781l93.625 20.656c9.163-37.368 29.877-57.797 42.75-92.906l-31.718 5.906-20.625-19.187-33.907 5.906-21.375-25.063-25.812 19.907-32.438-17.688-28.75 11.781-20.656-7.906v-5.344l-7 2.688-7-2.688v5.344l-20.625 7.906-28.781-11.78-32.407 17.687-25.812-19.906z" fill="#eac102"/>
<path d="M795.46 200.063a8.5 8.5 0 0 0-1.438.156c-110.295 19.064-222.881 16.663-337.125-.031A8.5 8.5 0 1 0 454.46 217c115.593 16.891 230.023 19.404 342.469-.031a8.5 8.5 0 0 0-1.47-16.906z" style="marker:none" fill="#eac102" stroke-linecap="round" stroke-linejoin="round" overflow="visible"/>
<path d="M625.253 173.156c-66.37-.002-132.605 9.17-179.562 27.531a8.5 8.5 0 1 0 6.187 15.813c87.132-34.07 259.204-34.086 347.688.031a8.508 8.508 0 0 0 6.125-15.875c-47.558-18.337-114.068-27.497-180.438-27.5zm-.241-62.656c-76.776 0-153.288 11.015-207.125 33.75a6.5 6.5 0 1 0 5.062 11.969c51.127-21.59 126.548-32.719 202.063-32.719 75.515 0 151.292 11.14 203.187 32.75a6.5 6.5 0 1 0 5-12c-54.547-22.715-131.411-33.75-208.187-33.75z" style="marker:none" fill="#eac102" stroke-linecap="round" stroke-linejoin="round" overflow="visible"/>
<path d="M625.5-26.094l-.469.782c-5.787 8.952-29.377 9.426-30.312 21.968-1.024 13.73 22.794 16.478 18.062 24.5-4.468 7.576-10.437-14.895-26.031-10.593-15.8 3.86-2.4 20.492-16.219 29.687 12.098 6.106 9.696 29.633 24.813 23.594 8.771-6.417 18.059-15.875 24.5-8.469 1.523 6.848.098 14.06-2.688 21.438-6.746 6.04-13.44 8.981-19.875 9.28-7.354.343-15.186-2.544-23.781-10.718a7.525 7.525 0 0 0-6.156-2 7.49 7.49 0 0 0-5.407 3.531c-4.403 7.228-11.847 13.761-19.312 15.25-7.465 1.49-16.089-.535-26.906-14.437-.024-.03-.04-.064-.063-.094-2.637-6.024-2.094-11.843-1.593-15.656 13.77-5.508 18.102 14.64 30.968 8.093 13.797-7.019 2.417-22.581 16.5-30.687-9.96-3.043-8.965-31.585-21.968-28.344-13.085 3.262-13.288 28.625-25.657 22.688-8.424-5.758 12.626-10.645 12.157-26.688-.386-13.19-24.635-3.573-28.563-20.375-4.027 15.114-29.036 13.23-25.906 29.657 2.626 13.782 21.616 17.4 16.812 23.656-7.664 7.737-21.519-14.475-28.812-10.75-7.294 3.724-2.45 31.3-10.281 35.781 11.44 2.959 16.98 22.749 29.156 16.75 12.302-6.062 10.36-20.155 21.281-16.75.764 6.775 2.68 12.971 1.563 20.688-3.935 8.26-19.628 21.65-42.657 4.874a7.519 7.519 0 0 0-7.594-.75 7.498 7.498 0 0 0-4.312 6.282c-.677 9.538-7.269 15.34-15.875 16.594-8.3 1.209-18.227-2.027-25.594-13.938 1.106-2.344 2.977-4.402 6.25-6.031 5.104-1.912 10.187 2.397 18.75 1.812 9.661-1.929-2.19-20.657 5.438-29.906-13.531-3.227-11.647-20.38-33.031-15.375-11.058 8.397-1.205 20.852-7.532 21.594-6.288.737-4.971-15.1-13.531-21.313-8.767-6.363-30.41-8.91-27.563 16.375 24.684-6.605 27.849 17.89 36.407 34.563a7.505 7.505 0 0 0 .969 4.375c10.016 17.543 26.875 24.832 41.593 22.687 11.178-1.628 21.224-8.836 25.938-19.406 23.296 11.534 45.018 2.713 53.969-11.656 10.775 9.313 22.358 12.454 32.625 10.406 10.1-2.015 18.224-8.098 24.218-15.281 8.96 6.54 18.573 9.947 28.188 9.5 9.835-.458 19.131-4.684 27.437-11.594 8.299 6.91 17.57 11.136 27.407 11.594 9.613.447 19.227-2.962 28.187-9.5 5.995 7.19 14.112 13.265 24.219 15.281 10.267 2.048 21.849-1.093 32.625-10.406 8.95 14.37 30.672 23.19 53.968 11.656 4.714 10.57 14.76 17.778 25.938 19.406 14.719 2.145 31.577-5.144 41.594-22.687a7.466 7.466 0 0 0 1.187-4.375c8.563-16.674 11.748-41.17 36.438-34.563 2.846-25.285-18.796-22.738-27.563-16.375-8.56 6.213-7.243 22.05-13.531 21.313-6.327-.742 3.495-13.197-7.563-21.594-21.384-5.004-19.5 12.148-33.03 15.375 7.626 9.249-4.193 27.977 5.468 29.906 8.563.585 13.615-3.724 18.719-1.812 3.188 1.586 5.07 3.574 6.187 5.844-7.378 12.06-17.377 15.34-25.718 14.124-8.607-1.253-15.23-7.055-15.907-16.593a7.498 7.498 0 0 0-4.312-6.281 7.519 7.519 0 0 0-7.594.75c-22.434 16.34-37.89 4.063-42.313-4.22-1.325-8.019.652-14.38 1.438-21.343 10.92-3.405 8.979 10.688 21.281 16.75C784.706 87.749 790.28 67.959 801.72 65c-7.832-4.48-2.988-32.057-10.282-35.781-7.293-3.725-21.148 18.487-28.812 10.75-4.804-6.256 14.186-9.874 16.813-23.657 3.13-16.425-21.88-14.542-25.907-29.656-3.927 16.802-28.208 7.186-28.593 20.375-.47 16.043 20.611 20.93 12.187 26.688-12.369 5.937-12.572-19.426-25.656-22.688-13.004-3.241-12.01 25.301-21.969 28.344 14.083 8.106 2.703 23.668 16.5 30.688 12.866 6.545 17.167-13.602 30.938-8.094.487 3.713 1.062 9.333-1.344 15.187-.176.185-.373.358-.532.563-10.817 13.902-19.44 15.926-26.906 14.437-7.465-1.489-14.908-8.022-19.312-15.25a7.49 7.49 0 0 0-5.407-3.531 7.525 7.525 0 0 0-6.156 2c-8.595 8.174-16.395 11.061-23.75 10.719-6.357-.296-12.93-3.169-19.593-9.063-2.832-7.453-4.32-14.74-2.782-21.656 6.441-7.406 15.729 2.052 24.5 8.469 15.117 6.04 12.715-17.488 24.813-23.594-13.82-9.195-.45-25.827-16.25-29.688-15.594-4.301-21.564 18.17-26.032 10.594-4.731-8.022 19.118-10.77 18.094-24.5-.935-12.542-24.525-13.016-30.312-21.968l-.469-.782z" fill="#eac102" stroke-linecap="round" stroke-linejoin="round"/>
<path d="M462.832 89.467c0 6.031-4.89 10.92-10.921 10.92s-10.92-4.889-10.92-10.92 4.889-10.92 10.92-10.92 10.92 4.889 10.92 10.92zm347.199 0c0 6.031-4.89 10.92-10.92 10.92-6.032 0-10.921-4.889-10.921-10.92s4.89-10.92 10.92-10.92c6.032 0 10.921 4.889 10.921 10.92zM693.294 71.391c0 6.032-4.89 10.921-10.92 10.921-6.032 0-10.921-4.89-10.921-10.92 0-6.032 4.889-10.921 10.92-10.921s10.92 4.89 10.92 10.92zm-113.725 0c0 6.032-4.89 10.921-10.92 10.921-6.032 0-10.921-4.89-10.921-10.92 0-6.032 4.889-10.921 10.92-10.921 6.032 0 10.92 4.89 10.92 10.92z" style="marker:none" fill="#e3e4e5" stroke-linecap="round" stroke-linejoin="round" overflow="visible"/>
<path d="M636.431 35.906c0 6.032-4.889 10.921-10.92 10.921-6.032 0-10.92-4.89-10.92-10.92 0-6.032 4.888-10.921 10.92-10.921 6.031 0 10.92 4.89 10.92 10.92zm-120.643 13.78c0 6.032-4.889 10.92-10.92 10.92s-10.92-4.888-10.92-10.92c0-6.031 4.889-10.92 10.92-10.92s10.92 4.889 10.92 10.92zm219.445 0c0 6.032 4.89 10.92 10.92 10.92 6.032 0 10.921-4.888 10.921-10.92 0-6.031-4.89-10.92-10.92-10.92-6.032 0-10.921 4.889-10.921 10.92zM385.377 79.882c-4.102 1.572-7.062 5.471-7.062 10.125 0 6.028 4.91 10.937 10.938 10.937 1.644 0 3.163-.442 4.562-1.094-.013-.242.017-.476 0-.718-.172-2.396-.53-4.798-1.219-7.188a28.436 28.436 0 0 0-1.281-3.562 27.688 27.688 0 0 0-1.875-3.5 29.108 29.108 0 0 0-2.5-3.438c-.454-.534-1.051-1.037-1.563-1.562zm480.267 0c4.103 1.572 7.063 5.471 7.063 10.125 0 6.028-4.91 10.937-10.938 10.937-1.644 0-3.163-.442-4.562-1.094.013-.242-.018-.476 0-.718.171-2.396.53-4.798 1.218-7.188a28.436 28.436 0 0 1 1.282-3.562 27.688 27.688 0 0 1 1.875-3.5 29.108 29.108 0 0 1 2.5-3.438c.453-.534 1.051-1.037 1.562-1.562z" style="marker:none" fill="#ed1c24" stroke-linecap="round" stroke-linejoin="round" overflow="visible"/>
<path d="M596.298 148.15l29.213 16.912 29.212-16.912-29.212-16.912-29.213 16.912zm-166.503 20.663l.368 14.745 12.902 11.058 17.324-25.065-30.594-.738z" fill="#ed1c24"/>
<path d="M482.505 155.36a8.662 8.662 0 1 1-17.324 0 8.662 8.662 0 0 1 17.324 0zm9.953 21.01a8.662 8.662 0 1 1-17.325 0 8.662 8.662 0 0 1 17.325 0zm86.166-35.96a8.662 8.662 0 1 1-17.013-3.27 8.662 8.662 0 0 1 17.013 3.27zm1.338 24.28a8.662 8.662 0 1 1-17.013-3.27 8.662 8.662 0 0 1 17.013 3.27z" style="marker:none" fill="#eac102" stroke-linecap="round" stroke-linejoin="round" overflow="visible"/>
<rect width="49.025" height="26.171" rx="9.584" ry="9.584" x="475.132" y="208.624" transform="rotate(-7.376)" style="marker:none" fill="#008f4c" stroke-linecap="round" stroke-linejoin="round" overflow="visible"/>
<path d="M820.82 168.813l-.37 14.745-12.9 11.058-17.325-25.065 30.594-.738z" fill="#ed1c24"/>
<path d="M768.109 155.36a8.662 8.662 0 1 0 17.324 0 8.662 8.662 0 0 0-17.324 0zm-9.953 21.01a8.662 8.662 0 1 0 17.325 0 8.662 8.662 0 0 0-17.325 0zm-86.166-35.96a8.662 8.662 0 1 0 17.013-3.27 8.662 8.662 0 0 0-17.013 3.27zm-1.338 24.28a8.662 8.662 0 1 0 17.013-3.27 8.662 8.662 0 0 0-17.013 3.27z" style="marker:none" fill="#eac102" stroke-linecap="round" stroke-linejoin="round" overflow="visible"/>
<rect width="49.025" height="26.171" rx="9.584" ry="9.584" x="-765.133" y="48.063" transform="scale(-1 1) rotate(-7.376)" style="marker:none" fill="#008f4c" stroke-linecap="round" stroke-linejoin="round" overflow="visible"/>
</g>
<path d="M251.56 133.663l-.114.188c-1.396 2.16-7.09 2.275-7.315 5.302-.248 3.314 5.5 3.977 4.359 5.913-1.079 1.828-2.52-3.595-6.283-2.557-3.813.932-.579 4.946-3.914 7.165 2.92 1.474 2.34 7.152 5.988 5.694 2.117-1.548 4.359-3.83 5.913-2.044.368 1.653.024 3.394-.648 5.174-1.628 1.458-3.244 2.168-4.797 2.24-1.53.071-3.148-.44-4.895-1.848.387-.458.619-1.05.619-1.697a2.643 2.643 0 0 0-2.64-2.64 2.637 2.637 0 0 0-1.923 4.435c-1.082 1.552-2.713 2.886-4.352 3.213-1.801.36-3.883-.129-6.493-3.484-.006-.007-.01-.016-.015-.023-.637-1.454-.506-2.858-.385-3.778 3.323-1.33 4.369 3.533 7.474 1.953 3.33-1.694.583-5.45 3.982-7.406-2.404-.734-2.164-7.623-5.302-6.84-3.158.787-3.207 6.908-6.192 5.475-2.033-1.39 3.047-2.57 2.934-6.44-.093-3.184-5.945-.863-6.893-4.918-.972 3.647-7.008 3.193-6.252 7.157.634 3.326 5.217 4.2 4.057 5.71-1.85 1.867-5.193-3.494-6.953-2.595-1.76.899-.592 7.554-2.482 8.635 2.761.714 4.099 5.49 7.037 4.043 2.969-1.463 2.5-4.865 5.136-4.043.184 1.635.647 3.13.377 4.993-.9 1.888-4.345 4.882-9.427 1.757.09-.265.135-.549.135-.844a2.637 2.637 0 0 0-2.632-2.64 2.643 2.643 0 0 0-2.64 2.64c0 .965.524 1.803 1.298 2.262-.396 1.907-1.864 3.069-3.733 3.341-2.003.292-4.4-.489-6.177-3.364.267-.565.718-1.062 1.508-1.455 1.232-.461 2.459.578 4.525.437 2.332-.465-.528-4.985 1.313-7.217-3.266-.779-2.811-4.919-7.972-3.71-2.669 2.026-.29 5.032-1.818 5.21-1.517.179-1.2-3.643-3.265-5.143-2.116-1.536-7.34-2.15-6.652 3.952 3.863-1.034 5.536 1.092 6.803 3.809a2.584 2.584 0 0 0-.95 2.006 2.643 2.643 0 0 0 2.933 2.624c-.01.324.061.656.234.958.935 1.639 2.112 2.908 3.416 3.816.854 2.083 1.81 3.967 2.798 5.77a1.572 1.572 0 0 0-.822 1.176 1.573 1.573 0 0 0 2.21 1.637l.158-.068a129.12 129.12 0 0 1 1.72 3.115l-.226-.008.09 3.56 2.813 2.413c.214.603.416 1.223.604 1.863a2.051 2.051 0 0 0 1.825 3.673c.018-.007.035-.016.053-.022.179.074.367.122.565.143 27.897 4.076 55.514 4.683 82.651-.008.182-.027.36-.08.52-.15l.121.045a2.053 2.053 0 0 0 1.735-3.71c.2-.678.413-1.334.641-1.97l2.662-2.277.09-3.56h-.12c.556-1.048 1.13-2.08 1.712-3.107.062.026.127.05.189.075a1.565 1.565 0 0 0 1.568-.188 1.561 1.561 0 0 0-.211-2.632c.998-1.82 1.968-3.723 2.828-5.83 1.27-.904 2.42-2.155 3.334-3.756a1.8 1.8 0 0 0 .279-.958c.1.014.197.015.302.015a2.643 2.643 0 0 0 2.64-2.64c0-.811-.37-1.527-.951-2.005 1.268-2.717 2.947-4.843 6.81-3.809.687-6.102-4.536-5.488-6.652-3.952-2.065 1.5-1.748 5.322-3.265 5.144-1.527-.18.843-3.185-1.825-5.212-5.161-1.208-4.706 2.932-7.972 3.71 1.84 2.233-1.012 6.753 1.32 7.218 2.066.141 3.286-.898 4.517-.437.77.383 1.224.863 1.494 1.41-1.781 2.911-4.194 3.702-6.207 3.41-1.857-.271-3.332-1.42-3.741-3.304a2.635 2.635 0 0 0 1.35-2.3 2.643 2.643 0 0 0-2.64-2.64 2.637 2.637 0 0 0-2.504 3.454c-4.969 3.087-8.377.327-9.39-1.569-.32-1.935.158-3.47.348-5.15 2.635-.823 2.167 2.579 5.136 4.042 2.938 1.448 4.283-3.329 7.044-4.043-1.89-1.081-.721-7.736-2.482-8.635-1.76-.899-5.103 4.462-6.953 2.594-1.16-1.51 3.424-2.383 4.057-5.709.756-3.964-5.28-3.51-6.252-7.157-.948 4.055-6.807 1.734-6.9 4.917-.114 3.872 4.974 5.051 2.94 6.44-2.984 1.434-3.033-4.687-6.191-5.474-3.138-.783-2.898 6.106-5.302 6.84 3.399 1.956.652 5.712 3.982 7.406 3.105 1.58 4.143-3.283 7.466-1.953.118.896.257 2.252-.324 3.665-.042.045-.09.086-.128.136-2.61 3.355-4.692 3.844-6.494 3.484-1.624-.324-3.247-1.64-4.329-3.175.46-.474.74-1.12.74-1.833a2.637 2.637 0 0 0-2.633-2.64 2.643 2.643 0 0 0-2.64 2.64c0 .635.23 1.212.604 1.667-1.76 1.43-3.383 1.95-4.925 1.878-1.534-.071-3.12-.765-4.728-2.187-.684-1.799-1.043-3.558-.672-5.227 1.555-1.787 3.796.496 5.913 2.044 3.648 1.458 3.069-4.22 5.988-5.694-3.335-2.219-.108-6.233-3.921-7.165-3.764-1.038-5.204 4.385-6.283 2.557-1.142-1.936 4.614-2.6 4.367-5.913-.226-3.027-5.919-3.141-7.316-5.302l-.113-.188z" fill="none" stroke-width=".659"/>
</g>
<path d="M196.496 201.398c.045 26.525-.09 53.053.069 79.576.845 23.804 19.065 45.545 42.332 50.572 21.525 5.244 45.621-4.18 57.77-22.763 7.277-10.393 9.956-23.255 9.356-35.775v-71.61H196.496z" style="marker:none" fill="none" overflow="visible"/>
<path d="M223.02 325.046c.259.16.508.333.769.488-.246-.165-.441-.324-.741-.474l-.028-.014zm44.23 5.444c-.029 0-.052.014-.081.014a4.67 4.67 0 0 1-1.181-.151 5.162 5.162 0 0 1-.989-.378 7.357 7.357 0 0 1-.824-.48c-.247-.165-.468-.325-.665-.467a8.918 8.918 0 0 0-.927-.604c-.236-.127-.41-.185-.556-.185-.146 0-.319.058-.556.185-.238.127-.54.32-.934.604-.197.142-.419.302-.666.467a7.363 7.363 0 0 1-.824.48c-.302.15-.627.284-.988.378a4.672 4.672 0 0 1-2.355 0 5.224 5.224 0 0 1-.995-.378 7.26 7.26 0 0 1-.817-.48c-.247-.165-.47-.325-.666-.467a8.699 8.699 0 0 0-.934-.604c-.237-.127-.41-.185-.556-.185-.145 0-.318.058-.556.185-.237.127-.54.32-.934.604-.197.142-.419.302-.665.467a7.26 7.26 0 0 1-.817.48c-.301.15-.635.284-.996.378a4.613 4.613 0 0 1-2.348 0 5.225 5.225 0 0 1-.995-.378 7.263 7.263 0 0 1-.817-.48 22.282 22.282 0 0 1-.666-.467 8.692 8.692 0 0 0-.934-.604c-.237-.127-.41-.185-.556-.185-.145 0-.318.058-.556.185a8.58 8.58 0 0 0-.933.604c-.197.142-.419.302-.666.467a7.357 7.357 0 0 1-.824.48c-.302.15-.627.284-.989.378a4.672 4.672 0 0 1-2.354 0 5.223 5.223 0 0 1-.996-.378 7.257 7.257 0 0 1-.817-.48 23.516 23.516 0 0 1-.665-.467 8.699 8.699 0 0 0-.934-.604c-.238-.127-.41-.185-.556-.185-.145 0-.319.058-.556.185-.119.063-.313.201-.467.302 4.951 2.123 10.208 3.54 15.645 3.995 7.232.761 14.55-.08 21.467-2.23zm5.61-2.066c-.234-.124-.406-.185-.55-.185-.145 0-.318.058-.556.185a8.58 8.58 0 0 0-.933.604c-.197.142-.42.302-.666.467.91-.339 1.813-.686 2.705-1.071z" style="marker:none" fill="#0071bc" fill-rule="evenodd" stroke="#000" stroke-width=".219" overflow="visible"/>
<path d="M276.78 326.543a8.546 8.546 0 0 1-.817-.529c-.395-.283-.881-.654-1.483-.954a5.208 5.208 0 0 0-.996-.377 4.583 4.583 0 0 0-1.174-.151c-.424 0-.813.056-1.174.15-.36.095-.694.228-.995.378-.602.3-1.089.671-1.483.954-.394.284-.696.48-.933.604-.238.125-.411.179-.556.179-.146 0-.319-.054-.557-.179a8.434 8.434 0 0 1-.933-.604c-.394-.283-.88-.654-1.483-.954a5.207 5.207 0 0 0-.995-.377 4.641 4.641 0 0 0-2.355 0 5.145 5.145 0 0 0-.989.377 7.44 7.44 0 0 0-.823.48c-.248.166-.47.333-.666.474-.395.284-.696.48-.934.604-.237.125-.41.179-.556.179-.145 0-.319-.054-.556-.179a8.43 8.43 0 0 1-.934-.604c-.394-.283-.88-.654-1.483-.954a5.207 5.207 0 0 0-.995-.377 4.583 4.583 0 0 0-1.174-.151c-.425 0-.813.056-1.174.15-.36.095-.694.228-.995.378-.602.3-1.089.671-1.483.954-.394.284-.696.48-.934.604-.237.125-.41.179-.556.179-.145 0-.318-.054-.556-.179a8.434 8.434 0 0 1-.933-.604c-.395-.283-.881-.654-1.483-.954a5.209 5.209 0 0 0-.996-.377 4.641 4.641 0 0 0-2.355 0 5.145 5.145 0 0 0-.988.377c-.302.15-.576.315-.824.48-.247.166-.469.333-.666.474-.394.284-.696.48-.933.604-.238.125-.41.179-.556.179-.146 0-.319-.054-.556-.179a8.43 8.43 0 0 1-.934-.604c-.394-.283-.88-.654-1.483-.954a5.206 5.206 0 0 0-.995-.377 4.583 4.583 0 0 0-1.174-.151c-.425 0-.814.056-1.174.15-.36.095-.694.228-.995.378-.603.3-1.09.671-1.483.954-.394.284-.696.48-.934.604a1.223 1.223 0 0 1-.501.158 53.81 53.81 0 0 0 4.064 1.95c.154-.1.348-.239.467-.302.237-.127.41-.185.556-.185.145 0 .318.058.556.185.237.127.54.32.934.604.197.142.419.302.665.467.247.165.516.331.817.48.301.15.635.284.996.378a4.672 4.672 0 0 0 2.355 0c.36-.094.686-.228.988-.378.302-.149.577-.315.824-.48.247-.165.469-.325.666-.467a8.84 8.84 0 0 1 .933-.604c.238-.127.411-.185.556-.185.146 0 .319.058.556.185.238.127.54.32.934.604.197.142.42.302.666.467.247.165.516.331.817.48.301.15.635.284.995.378a4.612 4.612 0 0 0 2.348 0c.36-.094.695-.228.996-.378.3-.149.57-.315.817-.48.246-.165.468-.325.665-.467.395-.283.697-.477.934-.604.238-.127.41-.185.556-.185.146 0 .319.058.556.185.238.127.54.32.934.604.197.142.42.302.666.467.246.165.516.331.817.48.3.15.635.284.995.378a4.672 4.672 0 0 0 2.355 0c.36-.094.686-.228.988-.378.302-.149.577-.315.824-.48.247-.165.469-.325.666-.467a8.73 8.73 0 0 1 .934-.604c.237-.127.41-.185.556-.185.145 0 .32.058.556.185.236.127.532.32.927.604.197.142.418.302.665.467.248.165.522.331.824.48.302.15.628.284.989.378a4.67 4.67 0 0 0 1.18.151c.03 0 .053-.013.083-.014a56.52 56.52 0 0 0 2.883-.981c.008-.003.013-.011.02-.014.247-.165.47-.325.667-.467a8.84 8.84 0 0 1 .933-.604c.238-.127.411-.185.556-.185.144 0 .316.061.55.185h.006a56.563 56.563 0 0 0 3.913-1.881z" style="marker:none" fill="#e3e4e5" fill-rule="evenodd" stroke="#000" stroke-width=".219" overflow="visible"/>
<path d="M284.537 321.614c-.157-.11-.32-.226-.453-.323a8.446 8.446 0 0 0-.934-.604c-.237-.125-.41-.178-.556-.178-.145 0-.318.053-.556.178-.238.125-.54.321-.934.604-.394.284-.88.655-1.482.955a5.21 5.21 0 0 1-.996.377 4.621 4.621 0 0 1-2.348.001 5.21 5.21 0 0 1-.995-.378c-.602-.3-1.089-.671-1.483-.955a8.449 8.449 0 0 0-.934-.604c-.237-.125-.41-.178-.556-.178-.145 0-.318.053-.556.178a8.43 8.43 0 0 0-.933.604c-.394.284-.881.655-1.483.955a5.21 5.21 0 0 1-.996.377 4.643 4.643 0 0 1-2.355 0 5.147 5.147 0 0 1-.988-.377 7.386 7.386 0 0 1-.824-.481c-.247-.166-.468-.332-.665-.474a8.65 8.65 0 0 0-.927-.604c-.236-.125-.41-.178-.556-.178-.146 0-.319.053-.556.178-.238.125-.54.321-.934.604-.197.142-.419.308-.666.474-.247.166-.522.33-.824.48-.302.15-.627.283-.988.378a4.643 4.643 0 0 1-2.355 0 5.21 5.21 0 0 1-.995-.377c-.602-.3-1.089-.671-1.483-.955a8.446 8.446 0 0 0-.934-.604c-.237-.125-.41-.178-.556-.178-.145 0-.318.053-.556.178-.237.125-.54.321-.934.604-.394.284-.88.655-1.482.955-.301.15-.635.282-.996.377a4.627 4.627 0 0 1-2.348.001 5.21 5.21 0 0 1-.995-.378c-.602-.3-1.089-.671-1.483-.955a8.44 8.44 0 0 0-.934-.604c-.237-.125-.41-.178-.556-.178-.145 0-.318.053-.556.178a8.43 8.43 0 0 0-.933.604c-.197.142-.419.308-.666.474-.247.166-.522.33-.824.48-.302.15-.627.283-.989.378a4.643 4.643 0 0 1-2.354 0 5.209 5.209 0 0 1-.996-.377c-.602-.3-1.088-.671-1.482-.955a8.446 8.446 0 0 0-.934-.604c-.238-.125-.41-.178-.556-.178-.145 0-.319.053-.556.178-.238.125-.54.321-.934.604-.394.284-.88.655-1.483.955a5.21 5.21 0 0 1-.995.377 4.621 4.621 0 0 1-2.348.001 5.21 5.21 0 0 1-.995-.378c-.602-.3-1.089-.671-1.483-.955a8.446 8.446 0 0 0-.934-.604c-.237-.125-.41-.178-.556-.178-.145 0-.318.053-.556.178-.237.125-.54.321-.934.604-.248.179-.605.396-.933.604a56.213 56.213 0 0 0 4.565 3.151l.028.014c.3.15.495.309.74.474.747.443 1.521.835 2.287 1.242.136-.01.287-.045.501-.158.238-.124.54-.32.934-.604.394-.283.88-.654 1.483-.954.3-.15.635-.283.995-.377a4.621 4.621 0 0 1 2.348-.001c.36.095.694.228.995.378.602.3 1.089.671 1.483.954.394.284.696.48.934.604.237.125.41.179.556.179.145 0 .318-.054.556-.179.237-.124.54-.32.933-.604.197-.141.42-.308.666-.473.248-.166.522-.33.824-.48.302-.15.628-.284.989-.378a4.641 4.641 0 0 1 2.354 0c.36.094.695.227.996.377.602.3 1.088.671 1.483.954.394.284.696.48.933.604.238.125.41.179.556.179.146 0 .319-.054.556-.179.238-.124.54-.32.934-.604.394-.283.88-.654 1.483-.954.3-.15.635-.283.995-.377.36-.095.75-.151 1.174-.151.425 0 .814.056 1.174.15.36.095.694.228.995.378.603.3 1.09.671 1.483.954.394.284.696.48.934.604.237.125.41.179.556.179.145 0 .319-.054.556-.179.238-.124.54-.32.934-.604.197-.141.418-.308.666-.473.247-.166.521-.33.823-.48.302-.15.628-.284.989-.378a4.641 4.641 0 0 1 2.355 0c.36.094.694.227.995.377.602.3 1.089.671 1.483.954.394.284.696.48.933.604.238.125.411.179.557.179.145 0 .318-.054.556-.179.237-.124.54-.32.933-.604.394-.283.881-.654 1.483-.954.301-.15.635-.283.995-.377.36-.095.75-.151 1.174-.151.425 0 .814.056 1.174.15.36.095.695.228.996.378.602.3 1.088.671 1.483.954.344.248.595.404.816.529a56.078 56.078 0 0 0 7.758-4.93z" style="marker:none" fill="#0071bc" fill-rule="evenodd" stroke="#000" stroke-width=".219" overflow="visible"/>
<path d="M287.688 319.046a1.233 1.233 0 0 1-.501-.164 8.7 8.7 0 0 1-.934-.604c-.197-.142-.419-.309-.666-.474a7.386 7.386 0 0 0-.824-.48 5.147 5.147 0 0 0-.988-.378 4.643 4.643 0 0 0-2.355 0 5.21 5.21 0 0 0-.995.377c-.602.3-1.089.671-1.483.955a8.697 8.697 0 0 1-.934.604c-.237.126-.41.185-.556.185-.145 0-.318-.059-.556-.185a8.703 8.703 0 0 1-.933-.604c-.395-.284-.881-.655-1.483-.955a5.21 5.21 0 0 0-.996-.377 4.584 4.584 0 0 0-1.174-.151c-.424 0-.813.056-1.174.15a5.21 5.21 0 0 0-.995.378c-.602.3-1.089.671-1.483.955a8.7 8.7 0 0 1-.933.604c-.238.126-.411.185-.556.185-.146 0-.319-.059-.557-.185a8.703 8.703 0 0 1-.933-.604c-.394-.284-.88-.655-1.483-.955a5.21 5.21 0 0 0-.995-.377 4.643 4.643 0 0 0-2.355 0 5.147 5.147 0 0 0-.989.377 7.44 7.44 0 0 0-.823.48c-.248.166-.47.333-.666.475a8.703 8.703 0 0 1-.934.604c-.237.126-.41.185-.556.185-.145 0-.319-.059-.556-.185a8.7 8.7 0 0 1-.934-.604c-.394-.284-.88-.655-1.483-.955a5.21 5.21 0 0 0-.995-.377 4.584 4.584 0 0 0-1.174-.151c-.425 0-.813.056-1.174.15a5.21 5.21 0 0 0-.995.378c-.602.3-1.089.671-1.483.955a8.7 8.7 0 0 1-.934.604c-.237.126-.41.185-.556.185-.145 0-.318-.059-.556-.185a8.703 8.703 0 0 1-.933-.604c-.395-.284-.881-.655-1.483-.955a5.21 5.21 0 0 0-.996-.377 4.643 4.643 0 0 0-2.355 0 5.148 5.148 0 0 0-.988.377c-.302.15-.576.315-.824.48-.247.166-.469.333-.666.475a8.7 8.7 0 0 1-.933.604c-.238.126-.41.185-.556.185-.146 0-.319-.059-.556-.185a8.7 8.7 0 0 1-.934-.604c-.394-.284-.88-.655-1.483-.955a5.208 5.208 0 0 0-.995-.377 4.584 4.584 0 0 0-1.174-.151c-.425 0-.814.056-1.174.15a5.21 5.21 0 0 0-.995.378c-.603.3-1.09.671-1.483.955a8.697 8.697 0 0 1-.934.604c-.237.126-.41.185-.556.185-.145 0-.319-.059-.556-.185a8.697 8.697 0 0 1-.934-.604c-.394-.284-.88-.655-1.482-.955a5.211 5.211 0 0 0-.996-.377 4.642 4.642 0 0 0-2.355 0 5.147 5.147 0 0 0-.988.377c-.302.15-.577.315-.824.48-.247.166-.469.333-.666.475a8.926 8.926 0 0 1-.927.604c-.235.126-.41.185-.556.185-.145 0-.318-.059-.556-.185a8.703 8.703 0 0 1-.933-.604l-.337-.24a57.287 57.287 0 0 0 4.545 3.857c.328-.208.685-.425.933-.604.395-.283.697-.479.934-.604.238-.125.41-.178.556-.178.146 0 .319.053.556.178.238.125.54.321.934.604.394.284.88.655 1.483.955.3.15.635.282.995.377a4.621 4.621 0 0 0 2.348.001 5.21 5.21 0 0 0 .995-.378c.602-.3 1.089-.671 1.483-.955.394-.283.696-.479.934-.604.237-.125.41-.178.556-.178.145 0 .318.053.556.178.237.125.54.321.934.604.394.284.88.655 1.482.955.301.15.635.282.996.377a4.643 4.643 0 0 0 2.355 0 5.25 5.25 0 0 0 .988-.377c.302-.15.577-.315.824-.481.247-.166.469-.332.666-.474.394-.283.696-.479.933-.604.238-.125.411-.178.556-.178.146 0 .319.053.556.178.238.125.54.321.934.604.394.284.88.655 1.483.955.301.15.635.282.995.377.36.095.75.151 1.174.151.425 0 .814-.056 1.174-.15.36-.096.695-.229.996-.378.602-.3 1.088-.671 1.482-.955.395-.283.697-.479.934-.604.238-.125.41-.178.556-.178.146 0 .319.053.556.178.238.125.54.321.934.604.394.284.88.655 1.483.955.3.15.635.282.995.377a4.643 4.643 0 0 0 2.355 0 5.25 5.25 0 0 0 .988-.377c.302-.15.577-.315.824-.481.247-.166.469-.332.666-.474.394-.283.696-.479.934-.604.237-.125.41-.178.556-.178.145 0 .32.053.556.178.236.125.532.321.927.604.197.142.418.308.665.474.248.166.522.33.824.48.302.15.628.283.989.378a4.643 4.643 0 0 0 2.354 0 5.21 5.21 0 0 0 .996-.377c.602-.3 1.089-.671 1.483-.955.394-.283.696-.479.933-.604.238-.125.411-.178.556-.178.146 0 .319.053.556.178.238.125.54.321.934.604.394.284.88.655 1.483.955.301.15.635.282.995.377.36.095.75.151 1.174.151.425 0 .814-.056 1.174-.15a5.21 5.21 0 0 0 .996-.378c.602-.3 1.088-.671 1.482-.955.395-.283.696-.479.934-.604.238-.125.41-.178.556-.178.146 0 .319.053.556.178.238.125.54.321.934.604.134.097.296.213.453.323a54.777 54.777 0 0 0 3.15-2.568z" style="marker:none" fill="#e3e4e5" fill-rule="evenodd" stroke="#000" stroke-width=".219" overflow="visible"/>
<path d="M293.537 313.019c-.026-.014-.072-.049-.096-.062-.238-.126-.41-.185-.556-.185-.146 0-.319.059-.556.185a8.73 8.73 0 0 0-.934.604c-.197.142-.42.302-.666.467a7.258 7.258 0 0 1-.817.48c-.3.15-.635.284-.995.378a4.67 4.67 0 0 1-2.355 0 5.162 5.162 0 0 1-.989-.377 7.355 7.355 0 0 1-.823-.48c-.248-.166-.47-.326-.666-.468a8.694 8.694 0 0 0-.934-.604c-.237-.126-.41-.185-.556-.185-.145 0-.318.059-.556.185a8.73 8.73 0 0 0-.934.604c-.197.142-.419.302-.666.467a7.258 7.258 0 0 1-.816.48c-.301.15-.635.284-.996.378a4.612 4.612 0 0 1-2.348 0 5.225 5.225 0 0 1-.995-.377 7.259 7.259 0 0 1-.817-.48 24.182 24.182 0 0 1-.666-.468 8.697 8.697 0 0 0-.934-.604c-.237-.126-.41-.185-.556-.185-.145 0-.318.059-.556.185a8.69 8.69 0 0 0-.933.604c-.197.142-.42.302-.666.467a7.259 7.259 0 0 1-.817.48c-.301.15-.635.284-.996.378a4.67 4.67 0 0 1-2.355 0 5.162 5.162 0 0 1-.988-.377 7.353 7.353 0 0 1-.824-.48c-.247-.166-.468-.326-.665-.468a8.913 8.913 0 0 0-.927-.604c-.236-.126-.41-.185-.556-.185-.146 0-.319.059-.556.185a8.73 8.73 0 0 0-.934.604c-.197.142-.419.302-.666.467a7.358 7.358 0 0 1-.824.48c-.302.15-.627.284-.988.378a4.67 4.67 0 0 1-2.355 0 5.224 5.224 0 0 1-.995-.377 7.256 7.256 0 0 1-.817-.48c-.247-.166-.47-.326-.666-.468a8.694 8.694 0 0 0-.934-.604c-.237-.126-.41-.185-.556-.185-.145 0-.318.059-.556.185-.237.127-.54.321-.934.604-.197.142-.419.302-.665.467a7.256 7.256 0 0 1-.817.48c-.301.15-.635.284-.996.378a4.612 4.612 0 0 1-2.348 0 5.225 5.225 0 0 1-.995-.377 7.259 7.259 0 0 1-.817-.48 24.182 24.182 0 0 1-.666-.468 8.688 8.688 0 0 0-.934-.604c-.237-.126-.41-.185-.556-.185-.145 0-.318.059-.556.185-.237.127-.54.321-.933.604-.197.142-.419.302-.666.467a7.353 7.353 0 0 1-.824.48c-.302.15-.627.284-.989.378a4.67 4.67 0 0 1-2.354 0 5.223 5.223 0 0 1-.996-.377 7.253 7.253 0 0 1-.817-.48 25.646 25.646 0 0 1-.665-.468 8.694 8.694 0 0 0-.934-.604c-.238-.126-.41-.185-.556-.185-.145 0-.319.059-.556.185a8.69 8.69 0 0 0-.934.604c-.197.142-.42.302-.666.467a7.262 7.262 0 0 1-.817.48c-.3.15-.635.284-.995.378a4.612 4.612 0 0 1-2.348 0 5.225 5.225 0 0 1-.995-.377 7.262 7.262 0 0 1-.817-.48 24.182 24.182 0 0 1-.666-.468 8.694 8.694 0 0 0-.934-.604c-.237-.126-.41-.185-.556-.185-.145 0-.318.059-.556.185-.237.127-.54.321-.934.604-.197.142-.419.302-.665.467a7.256 7.256 0 0 1-.817.48c-.301.15-.635.284-.996.378a4.67 4.67 0 0 1-2.355 0 5.161 5.161 0 0 1-.988-.377 7.355 7.355 0 0 1-.824-.48 24.182 24.182 0 0 1-.666-.468 8.69 8.69 0 0 0-.933-.604c-.238-.126-.411-.185-.556-.185-.146 0-.319.059-.556.185-.157.084-.398.249-.618.398 1.399 1.652 2.92 3.198 4.496 4.682l.337.24c.394.284.696.478.933.605.238.126.41.185.556.185.146 0 .32-.059.556-.185.236-.127.533-.321.927-.604.197-.142.419-.309.666-.474.247-.166.522-.33.824-.48.302-.15.627-.283.988-.378a4.642 4.642 0 0 1 2.355 0c.36.095.694.227.996.377.602.3 1.088.671 1.482.955.394.283.696.477.934.604.237.126.41.185.556.185.145 0 .319-.059.556-.185a8.73 8.73 0 0 0 .934-.604c.394-.284.88-.655 1.483-.955a5.21 5.21 0 0 1 .995-.377 4.621 4.621 0 0 1 2.348-.001c.36.096.694.228.995.378.602.3 1.089.671 1.483.955a8.7 8.7 0 0 0 .934.604c.237.126.41.185.556.185.145 0 .318-.059.556-.185a8.7 8.7 0 0 0 .933-.604c.197-.142.42-.309.666-.474.248-.166.522-.33.824-.48.302-.15.628-.283.989-.378a4.643 4.643 0 0 1 2.354 0c.36.095.695.227.996.377.602.3 1.088.671 1.483.955.394.283.696.477.933.604.238.126.41.185.556.185.146 0 .319-.059.556-.185a8.7 8.7 0 0 0 .934-.604c.394-.284.88-.655 1.483-.955a5.21 5.21 0 0 1 .995-.377c.36-.095.75-.151 1.174-.151.425 0 .814.056 1.174.15.36.096.694.228.995.378.603.3 1.09.671 1.483.955a8.7 8.7 0 0 0 .934.604c.237.126.41.185.556.185.145 0 .319-.059.556-.185a8.73 8.73 0 0 0 .934-.604c.197-.142.418-.309.666-.474.247-.166.521-.33.823-.48.302-.15.628-.283.989-.378a4.643 4.643 0 0 1 2.355 0c.36.095.694.227.995.377.602.3 1.089.671 1.483.955.394.283.696.477.933.604.238.126.411.185.557.185.145 0 .318-.059.556-.185a8.7 8.7 0 0 0 .933-.604c.394-.284.881-.655 1.483-.955a5.21 5.21 0 0 1 .995-.377c.36-.095.75-.151 1.174-.151.425 0 .814.056 1.174.15.36.096.695.228.996.378.602.3 1.088.671 1.483.955.394.283.696.477.933.604.238.126.41.185.556.185.146 0 .319-.059.556-.185a8.73 8.73 0 0 0 .934-.604c.394-.284.88-.655 1.483-.955a5.21 5.21 0 0 1 .995-.377 4.643 4.643 0 0 1 2.355 0c.36.095.687.227.988.377.302.15.577.315.824.48.247.166.469.333.666.475a8.7 8.7 0 0 0 .934.604c.214.114.364.154.5.164a53.12 53.12 0 0 0 5.85-6.027zm-96.988-44.924c.039 5.141.074 10.279.165 15.418.804 9.808 4.606 19.085 10.407 26.911.365-.264.771-.569 1.297-.83a5.21 5.21 0 0 1 .996-.378 4.642 4.642 0 0 1 2.355 0c.36.095.686.227.988.377.302.15.576.315.824.481.247.166.469.332.666.474.394.283.696.479.933.604.238.125.41.178.556.178.146 0 .32-.053.556-.178.236-.125.533-.321.927-.604.197-.142.419-.308.666-.474a7.39 7.39 0 0 1 .824-.48c.302-.15.627-.283.988-.378a4.642 4.642 0 0 1 2.355 0c.36.095.694.227.996.377.602.3 1.088.671 1.482.955.394.283.696.479.934.604.237.125.41.178.556.178.145 0 .319-.053.556-.178.238-.125.54-.321.934-.604.394-.284.88-.655 1.483-.955a5.21 5.21 0 0 1 .995-.377 4.621 4.621 0 0 1 2.348-.001c.36.096.694.228.995.378.602.3 1.089.671 1.483.955.394.283.696.479.934.604.237.125.41.178.556.178.145 0 .318-.053.556-.178a8.43 8.43 0 0 0 .933-.604c.197-.142.42-.308.666-.474.248-.166.522-.33.824-.48.302-.15.628-.283.989-.378a4.643 4.643 0 0 1 2.354 0c.36.095.695.227.996.377.602.3 1.088.671 1.483.955.394.283.696.479.933.604.238.125.41.178.556.178.146 0 .319-.053.556-.178.238-.125.54-.321.934-.604.394-.284.88-.655 1.483-.955a5.21 5.21 0 0 1 .995-.377c.36-.095.75-.151 1.174-.151.425 0 .814.056 1.174.15.36.096.694.228.995.378.603.3 1.09.671 1.483.955.394.283.696.479.934.604.237.125.41.178.556.178.145 0 .319-.053.556-.178.238-.125.54-.321.934-.604.197-.142.418-.308.666-.474.247-.166.521-.33.823-.48.302-.15.628-.283.989-.378a4.643 4.643 0 0 1 2.355 0c.36.095.694.227.995.377.602.3 1.089.671 1.483.955.394.283.696.479.933.604.238.125.411.178.557.178.145 0 .318-.053.556-.178a8.43 8.43 0 0 0 .933-.604c.394-.284.881-.655 1.483-.955a5.21 5.21 0 0 1 .995-.377c.36-.095.75-.151 1.174-.151.425 0 .814.056 1.174.15.36.096.695.228.996.378.602.3 1.088.671 1.483.955.394.283.696.479.933.604.238.125.41.178.556.178.146 0 .319-.053.556-.178.238-.125.54-.321.934-.604.394-.284.88-.655 1.483-.955a5.21 5.21 0 0 1 .995-.377 4.643 4.643 0 0 1 2.355 0c.36.095.687.227.988.377.302.15.577.315.824.481.247.166.469.332.666.474.394.283.696.479.934.604.237.125.41.178.556.178.145 0 .318-.053.556-.178.237-.125.54-.321.934-.604.394-.284.88-.655 1.482-.955a5.21 5.21 0 0 1 .996-.377 4.627 4.627 0 0 1 2.348-.001c.36.096.694.228.995.378.304.152.5.314.748.481a50.48 50.48 0 0 0 2.122-3.24c7.312-11.307 8.711-25.13 8.066-38.272v-.467H196.549z" style="marker:none" fill="#0071bc" fill-rule="evenodd" stroke="#000" stroke-width=".219" overflow="visible"/>
<path d="M251.228 201.402H196.46c.119 22.228-.08 44.466.089 66.693h54.68v-66.693z" style="marker:none" fill="#eac102" fill-rule="evenodd" stroke="#000" stroke-width=".659" overflow="visible"/>
<path d="M251.228 201.402v66.693h54.762v-66.693h-54.762z" style="marker:none" fill="#ed1c24" fill-rule="evenodd" stroke="#000" stroke-width=".659" overflow="visible"/>
<path d="M196.496 201.398c.045 26.525-.09 53.053.069 79.576.845 23.804 19.065 45.545 42.332 50.572 21.525 5.244 45.621-4.18 57.77-22.763 7.277-10.393 9.956-23.255 9.356-35.775v-71.61H196.496z" style="marker:none" fill="none" stroke="#000" stroke-width=".659" overflow="visible"/>
<path d="M196.461 201.4c.147 27.37-.23 54.757.253 82.116 2.069 25.234 23.825 47.092 49.073 49.209 20.386 2.144 41.507-8.182 52.136-25.89 7.313-11.306 8.714-25.13 8.069-38.273V201.4h-109.53z" style="marker:none" fill="none" stroke="#000" stroke-width=".659" overflow="visible"/>
<g fill="#ed1c24" fill-rule="evenodd" stroke="#000" stroke-width=".185">
<path d="M218.882 224.39c-3.293-.024-4.432-2.68-5.08-4.339-3.06 1.206-6.96-5.536-6.03-7.407-.722.882-1.964 1.764-1.376 2.646-1.389-.648-1.957-.476-2.223 0-1.14 1.552 1.246 2.892.635 4.338h-1.375c1.058.571 2.117 1.142 1.799 2.54.355 1.022-.627 2.045 1.481 3.068.315-2.985 3.082-4.894 2.645-.846 1.544.314 2.084.31 2.827 1.87 1.37.55 4.617 2.592 4.898 4.69-3.262 4.17-6.08 1.687-8.783-2.54-.727 1.494-1.374 3.092-4.02 2.117 1.032 1.575 1.46 2.584.528 3.598 1.193 1.396 1.354 1.97.612 2.84-.811.95.683 2.338 1.716 3.297-.14-4.783 4.691-6.09 6.984 1.693 2.62-4.964 4.688-1.604 6.878-2.963 1.435-.286 6.07 5.2 3.492 5.82-11.45 2.744-4.67 5.807-4.02 10.476-2.582.273-4.357.789-4.128 1.905-1.089.85-2.381 1.498-2.116 3.703l9.63-.211c1.414-1.057-.172-3.114-1.165-4.974-1.129-5.91 1.632-5.738 3.704-2.328-.156-1.674.057-3.013 2.963-1.904l6.419-1.72c4.174-13.183-4.996-10.048-5.255-19.55.917.684 1.834.87 2.75.424-.897-.545-1.632-1.285-2.115-2.328.952.568 1.904 1.165 2.857.635-1.292-.578-1.506-2.233-1.693-3.915 1.645-.74 2.09-2.978 2.645-5.08-1.058.462-2.116.78-3.175-.423.706-.39 1.411-.396 2.117-2.116-.604-.006-1.083.175-2.222-.635 1.116-.702 1.631-1.805 1.904-3.069-.711.276-1.386.589-2.645.318-.117-1.514-1.51-2.117-3.598-2.222l.635-2.117c-2.568 2.5-6.111.45-6.349 2.434-.978.141-3.031.282-4.55.423.229 1.154-.428 2.484 1.058 3.386 1.45-1.579 2.57-1.625 3.175.741.554 2.404-1.595 1.428-3.175 1.164-.415 2.267.043 3.904 4.656 2.54.762 2.305-4.076 1.228-3.915 4.02z"/>
<path d="M227.77 247.246c4.142 1.45-2.608 6.757 6.455 9.63.12 2.215-4.848 2.082-4.444 3.491l1.164.741c-1.145 2.389 4.097 1.584 6.455 2.222l5.396-4.973c-5.456-2.64-8.113-6.571-6.243-12.592"/>
<path d="M235.283 245.341c2.267.49 4.275.117 4.868-4.973.157-6.215-5.834-9.564-4.868-16.296.179-2.536 2.027-8.647 7.196-7.301 3.867 1.912-.311 7.292 5.29 9.523-1.084-.213-2.042.083-3.385-1.164-.051 1.788 1.09 2.859 2.433 3.81-2.27.203-5.623-.246-5.396-7.83.295-4.004-3.953-.999-4.445 3.597-.371 3.48 5.505 9.213 4.762 15.767-.264 5.383-2.368 6.629-4.867 6.984m-24.338-35.131c3.6.738 2.288 3.04 4.143 3.571 2.36.676 3.664 1.71 5.169 2.883-4.574-2.44-6.307-.272-7.407-1.48-1.101-1.21.214-3.564-1.905-4.974zm9.662.306c-.66.495.257.877.765.889.73.016 1.335.766 1.696 1.588-.943-.475-1.79-.815-2.417-.84-.298-.371-.423-.681.047-.946m3.551 8.862c.523.61.999 1.505 1.28 3.566.478-.755 1.017-1.463.549-2.926m0-2.103c2.078 1.024 2.733 2.522 3.383 4.023.02-1.384.524-2.687-.823-4.298m-11.356 3.953c.453 1.35-.523 2.26-1.065 3.304 1.494.276 2.69-.118 3.858-.578-1.587 2.465-2.838 3.34-5.17 4.23.728.592 1.743 1.102 3.627 1.364.09 1.216-.502 2.334-.965 3.472 2.583-.635 4.56-2.005 5.98-4.051.487 1.628 1.099 3.217 2.893 4.436.154-1.594.26-3.196 1.544-4.629"/>
<path d="M223.405 228.139c-.123 1.37-.534 2.377-1.142 3.14.771.125 1.47.03 1.998-.57m1.428-3.141c1.028 1.065 1.974 2.213 2.284 3.997.525-1.154 1-2.32.571-3.712"/>
</g>
<g fill="#eac102">
<g stroke-width=".426" fill-rule="evenodd" stroke="#000">
<path d="M55.284 284.931l8.449-10.431-.431-52.845c-6.511-6.62-5.944-10.999-7.155-16.508l-.216-8.276 34.285-.147L90 205c-1.212 5.51-.644 9.889-7.155 16.509l-.431 52.844 8.448 10.431-35.578.147zm8.294-10.362l18.319-.216M56.034 201.4l33.837.109M66.164 221.66l.108 47.629m3.878-47.683l.216 47.737m3.772-47.953l.215 47.737m3.88-47.521l.215 47.737M64.009 206.25c1.971.622 2.25 6.326 4.849 5.065" transform="matrix(.46216 0 0 .4322 186.984 188.683)"/>
<path d="M60.56 207.759v1.832c0 .56.144.933.324 1.293.216.433.368.615.862.862.538.269.738.584 1.293.862.264.132.857.75 1.077.97m15.841-9.375c.51.51.741.702.97 1.616.147.59 0 1.443 0 2.047 0 .659-.508.94-.862 1.293-.339.339-.875.549-1.293.863-.357.267-.438.78-.54 1.185-.147.59-.201 1.13-.323 1.616-.104.42.037.902.108 1.186m-.107 4.094c-.007.027 1.7-.02 2.047-.107.711-.178 1.67-.525 2.263-.97a6.82 6.82 0 0 0 1.293-1.293c.346-.462.323-.886.323-1.509 0-.532.108-1.152.108-1.724v-3.448m1.186-4.957c0-.576-.033 1.165.107 1.724.026.105 0 .215 0 .323m-14.44 10.13c.046.184-.022 1.168-.107 1.508-.09.357-1.027.323-1.401.323h-.862m-3.772-2.047c-.539 0 0 1.078 0 1.616v.54m7.435-12.609c0 .171-.163 1.345.324 1.832.203.203.881.275 1.077.324m1.293 2.263c.356.355-1.058-.225-1.508 0-.1.05-.358 1.146-.431 1.293-.176.352-.902.215-1.401.215h-.323m3.017 1.832c-.114 0 .256.918.323 1.185M57.866 203.88c-.5 0 .315.953.54 1.4" transform="matrix(.46216 0 0 .4322 186.984 188.683)"/>
</g>
<g stroke-width=".426" fill-rule="evenodd" stroke="#000">
<path d="M55.284 284.931l8.449-10.431-.431-52.845c-6.511-6.62-5.944-10.999-7.155-16.508l-.216-8.276 34.285-.147L90 205c-1.212 5.51-.644 9.889-7.155 16.509l-.431 52.844 8.448 10.431-35.578.147zm8.294-10.362l18.319-.216M56.034 201.4l33.837.109M66.164 221.66l.108 47.629m3.878-47.683l.216 47.737m3.772-47.953l.215 47.737m3.88-47.521l.215 47.737M64.009 206.25c1.971.622 2.25 6.326 4.849 5.065" transform="matrix(.46216 0 0 .4322 248.152 188.683)"/>
<path d="M60.56 207.759v1.832c0 .56.144.933.324 1.293.216.433.368.615.862.862.538.269.738.584 1.293.862.264.132.857.75 1.077.97m15.841-9.375c.51.51.741.702.97 1.616.147.59 0 1.443 0 2.047 0 .659-.508.94-.862 1.293-.339.339-.875.549-1.293.863-.357.267-.438.78-.54 1.185-.147.59-.201 1.13-.323 1.616-.104.42.037.902.108 1.186m-.107 4.094c-.007.027 1.7-.02 2.047-.107.711-.178 1.67-.525 2.263-.97a6.82 6.82 0 0 0 1.293-1.293c.346-.462.323-.886.323-1.509 0-.532.108-1.152.108-1.724v-3.448m1.186-4.957c0-.576-.033 1.165.107 1.724.026.105 0 .215 0 .323m-14.44 10.13c.046.184-.022 1.168-.107 1.508-.09.357-1.027.323-1.401.323h-.862m-3.772-2.047c-.539 0 0 1.078 0 1.616v.54m7.435-12.609c0 .171-.163 1.345.324 1.832.203.203.881.275 1.077.324m1.293 2.263c.356.355-1.058-.225-1.508 0-.1.05-.358 1.146-.431 1.293-.176.352-.902.215-1.401.215h-.323m3.017 1.832c-.114 0 .256.918.323 1.185M57.866 203.88c-.5 0 .315.953.54 1.4" transform="matrix(.46216 0 0 .4322 248.152 188.683)"/>
</g>
<g stroke-width=".426" fill-rule="evenodd" stroke="#000">
<path d="M83.207 226.554c-7.882 6.178-16.515 9.648-25.71 11.098-3.343 10.66-.537 22.882 6.028 24.639l.09-4.784c10.825-2.092 15.156-5.61 19.744-9.618 2.07-10.269 1.701-18.91-.152-21.335z" fill="#e3e4e5" transform="matrix(.46216 0 0 .4322 186.984 188.683)"/>
<path d="M63.587 257.442l-4.59.963" transform="matrix(.46216 0 0 .4322 186.984 188.683)"/>
</g>
<g stroke-width=".426" fill-rule="evenodd" stroke="#000">
<path d="M-14.684 255.927c8.05 4.89 15.888 10.26 25.71 11.099 3.342 10.66.536 22.881-6.028 24.638l-.09-4.291c-10.461-1.274-15.03-6.528-19.592-10.11-2.07-10.27-1.854-18.91 0-21.336z" fill="#e3e4e5" transform="matrix(.46216 0 0 .4322 284.001 175.988)"/>
<path d="M4.837 287.308l4.688.47" transform="matrix(.46216 0 0 .4322 284.001 175.988)"/>
</g>
<path d="M-1067.448 943.047c5.883-.136 18.466-2.138 24.079-7.452 9.14-8.187 20.527-5.507 35.47-.418 15.52 5.488 31.043 11.557 50.372 9.426l-.071-42.932c-13.282 2.067-36.15-3.19-54.843-11.538-15.706-6.812-24.1-6.852-36.77.81-6.457 5.266-12.914 7.71-18.237 8.259-5.324-.55-11.781-2.992-18.238-8.258-12.671-7.662-21.064-7.622-36.77-.81-18.693 8.348-41.266 13.605-54.548 11.537l-.071 42.932c19.329 2.132 34.557-3.937 50.076-9.425 14.944-5.09 26.33-7.77 35.471.417 5.612 5.314 18.196 7.316 24.08 7.452z" fill="#e3e4e5" fill-rule="evenodd" stroke="#000" stroke-width=".824" transform="matrix(.23868 0 0 .2232 506.078 94.98)"/>
<text x="-1348.725" y="662.646" transform="matrix(.23058 -.04555 .04737 .2217 506.078 94.98)" font-size="29.536" font-weight="400" fill="#000" font-family="Times New Roman">
<tspan x="-1348.725" y="662.646" font-weight="700">PLVS</tspan>
</text>
<text x="-1013.187" y="1026.396" transform="matrix(.20555 .05096 -.03937 .24943 506.078 94.98)" font-size="27.436" font-weight="400" fill="#000" font-family="Franklin Gothic Medium">
<tspan x="-1013.187" y="1026.396" font-weight="700" font-family="Times New Roman">VLTRA</tspan>
</text>
<path d="M-1097.299 931.66v-45.44m55.475-.001l1.18 46.032" fill-rule="evenodd" stroke="#000" stroke-width=".824" transform="matrix(.23868 0 0 .2232 506.078 94.98)"/>
</g>
<path d="M295.802 310.074c-.248-.167-.444-.33-.748-.48a5.21 5.21 0 0 0-.995-.378 4.584 4.584 0 0 0-1.174-.151c-.425 0-.814.056-1.174.15a5.21 5.21 0 0 0-.996.378c-.602.3-1.088.671-1.482.955a8.616 8.616 0 0 1-.934.604c-.238.125-.41.178-.556.178-.146 0-.319-.053-.556-.178a8.435 8.435 0 0 1-.934-.604c-.197-.142-.419-.308-.666-.474a7.391 7.391 0 0 0-.824-.48 5.147 5.147 0 0 0-.988-.378 4.643 4.643 0 0 0-2.355 0 5.21 5.21 0 0 0-.995.377c-.602.3-1.089.671-1.483.955a8.424 8.424 0 0 1-.934.604c-.237.125-.41.178-.556.178-.145 0-.318-.053-.556-.178a8.438 8.438 0 0 1-.933-.604c-.395-.284-.881-.655-1.483-.955a5.21 5.21 0 0 0-.996-.377 4.584 4.584 0 0 0-1.174-.151c-.424 0-.813.056-1.174.15a5.21 5.21 0 0 0-.995.378c-.602.3-1.089.671-1.483.955a8.525 8.525 0 0 1-.933.604c-.238.125-.411.178-.556.178-.146 0-.319-.053-.557-.178a8.438 8.438 0 0 1-.933-.604c-.394-.284-.88-.655-1.483-.955a5.21 5.21 0 0 0-.995-.377 4.643 4.643 0 0 0-2.355 0 5.147 5.147 0 0 0-.989.377c-.302.15-.576.315-.823.481-.248.166-.47.332-.666.474a8.519 8.519 0 0 1-.934.604c-.237.125-.41.178-.556.178-.145 0-.319-.053-.556-.178a8.435 8.435 0 0 1-.934-.604c-.394-.284-.88-.655-1.483-.955a5.21 5.21 0 0 0-.995-.377 4.584 4.584 0 0 0-1.174-.151c-.425 0-.813.056-1.174.15a5.21 5.21 0 0 0-.995.378c-.602.3-1.089.671-1.483.955a8.424 8.424 0 0 1-.934.604c-.237.125-.41.178-.556.178-.145 0-.318-.053-.556-.178a8.438 8.438 0 0 1-.933-.604c-.395-.284-.881-.655-1.483-.955a5.21 5.21 0 0 0-.996-.377 4.643 4.643 0 0 0-2.355 0 5.147 5.147 0 0 0-.988.377c-.302.15-.576.315-.824.481-.247.166-.469.332-.666.474a8.525 8.525 0 0 1-.933.604c-.238.125-.41.178-.556.178-.146 0-.319-.053-.556-.178a8.435 8.435 0 0 1-.934-.604c-.394-.284-.88-.655-1.483-.955a5.208 5.208 0 0 0-.995-.377 4.584 4.584 0 0 0-1.174-.151c-.425 0-.814.056-1.174.15a5.21 5.21 0 0 0-.995.378c-.603.3-1.09.671-1.483.955a8.424 8.424 0 0 1-.934.604c-.237.125-.41.178-.556.178-.145 0-.319-.053-.556-.178a8.432 8.432 0 0 1-.934-.604c-.394-.284-.88-.655-1.482-.955a5.211 5.211 0 0 0-.996-.377 4.642 4.642 0 0 0-2.355 0 5.147 5.147 0 0 0-.988.377 7.39 7.39 0 0 0-.824.481c-.247.166-.469.332-.666.474-.394.283-.69.479-.927.604-.235.125-.41.178-.556.178-.145 0-.318-.053-.556-.178a8.438 8.438 0 0 1-.933-.604c-.197-.142-.419-.308-.666-.474a7.394 7.394 0 0 0-.824-.48 5.147 5.147 0 0 0-.989-.378 4.642 4.642 0 0 0-2.354 0 5.21 5.21 0 0 0-.996.377c-.526.262-.932.567-1.297.831a57.2 57.2 0 0 0 2.293 2.931c.22-.15.46-.314.618-.398.237-.126.41-.185.556-.185.145 0 .318.059.556.185.237.127.54.321.933.604.197.142.419.302.666.467.247.165.522.332.824.48.302.15.627.284.989.378a4.67 4.67 0 0 0 2.354 0c.36-.094.695-.228.996-.377.3-.15.57-.316.817-.48.246-.166.468-.326.665-.468.395-.283.697-.477.934-.604.238-.126.41-.185.556-.185.146 0 .319.059.556.185.238.127.54.321.934.604.197.142.42.302.666.467.246.165.516.332.817.48.3.15.635.284.995.378a4.612 4.612 0 0 0 2.348 0c.36-.094.694-.228.995-.377.301-.15.57-.316.817-.48.247-.166.47-.326.666-.468a8.69 8.69 0 0 1 .934-.604c.237-.126.41-.185.556-.185.145 0 .318.059.556.185.237.127.54.321.934.604.197.142.419.302.665.467.247.165.516.332.817.48.301.15.635.284.996.378a4.67 4.67 0 0 0 2.355 0c.36-.094.686-.228.988-.377a7.62 7.62 0 0 0 .824-.48c.247-.166.469-.326.666-.468a8.84 8.84 0 0 1 .933-.604c.238-.126.411-.185.556-.185.146 0 .319.059.556.185.238.127.54.321.934.604.197.142.42.302.666.467.247.165.516.332.817.48.301.15.635.284.995.378a4.612 4.612 0 0 0 2.348 0c.36-.094.695-.228.996-.377.3-.15.57-.316.817-.48.246-.166.468-.326.665-.468.395-.283.697-.477.934-.604.238-.126.41-.185.556-.185.146 0 .319.059.556.185.238.127.54.321.934.604.197.142.42.302.666.467.246.165.516.332.817.48.3.15.635.284.995.378a4.67 4.67 0 0 0 2.355 0c.36-.094.686-.228.988-.377a7.62 7.62 0 0 0 .824-.48c.247-.166.469-.326.666-.468a8.73 8.73 0 0 1 .934-.604c.237-.126.41-.185.556-.185.145 0 .32.059.556.185.236.127.532.321.927.604.197.142.418.302.665.467.248.165.522.332.824.48.302.15.628.284.989.378a4.67 4.67 0 0 0 2.354 0c.36-.094.695-.228.996-.377.3-.15.57-.316.817-.48.246-.166.469-.326.666-.468a8.69 8.69 0 0 1 .933-.604c.238-.126.411-.185.556-.185.146 0 .319.059.556.185.238.127.54.321.934.604.197.142.42.302.666.467.247.165.516.332.817.48.301.15.635.284.995.378a4.612 4.612 0 0 0 2.348 0c.36-.094.695-.228.996-.377.3-.15.57-.316.816-.48.247-.166.47-.326.666-.468.395-.283.696-.477.934-.604.238-.126.41-.185.556-.185.146 0 .319.059.556.185.238.127.54.321.934.604.197.142.418.302.666.467.247.165.522.332.823.48.302.15.628.284.989.378a4.67 4.67 0 0 0 2.355 0c.36-.094.694-.228.995-.377.301-.15.57-.316.817-.48.247-.166.469-.326.666-.468a8.73 8.73 0 0 1 .934-.604c.237-.126.41-.185.556-.185.145 0 .318.059.556.185.024.013.07.048.096.062a51.346 51.346 0 0 0 2.265-2.945z" style="marker:none" fill="#e3e4e5" fill-rule="evenodd" stroke="#000" stroke-width=".219" overflow="visible"/>
<g stroke="#000">
<path d="M524 509.406v59.688h-8.594v-48.188h-21.25V595.5l8.625 6.313v74.03l-16.656 21.813v68.875h105.594v-68.875l-16.625-21.812v-74.032l8.593-6.312v-74.594H562.47v48.188h-8.625v-59.688H524z" fill="#eac102" fill-rule="evenodd" stroke-width="1.039" transform="matrix(.21967 0 0 .20344 161.823 105.184)"/>
<path d="M591.303 745.145H486.02m105.283-8.982H486.02m105.283-12.017H486.02m105.283-12.018H486.02m105.283-12.018H486.02" fill="none" stroke-width="1.039" transform="matrix(.21967 0 0 .20344 161.823 105.184)"/>
<path d="M584.166 688.093h-90.241" fill="none" stroke-width="1.039" stroke-linecap="round" stroke-linejoin="round" transform="matrix(.21967 0 0 .20344 161.823 105.184)"/>
<path d="M575.644 676.076h-73.109m73.109-9.836h-73.109m73.109-11.762h-73.109m73.109-11.173h-73.109m73.109-11.173h-73.109m73.109-11.172h-73.109m73.109-11.173h-73.109m73.109-8.34h-73.109m7.89 134.691V724.3m0-12.325v-11.839m0-11.683v-11.839m22.239 35.361v-11.839m0-11.683v-11.839m11.334 35.361v-11.839m0-11.683v-11.839m22.88 59.524V724.3m0-12.325v-11.839m0-11.683v-11.839" fill="none" stroke-width="1.039" transform="matrix(.21967 0 0 .20344 161.823 105.184)"/>
<path d="M502.086 700v-11.838M526.962 700v-11.838M551.838 700v-11.838M576.714 700v-11.838" transform="matrix(.21967 0 0 .20344 161.718 105.184)" fill="none" stroke-width="1.039"/>
<path d="M502.086 700v-11.838M526.962 700v-11.838M551.838 700v-11.838M576.714 700v-11.838" transform="matrix(.21967 0 0 .20344 161.718 110.012)" fill="none" stroke-width="1.039"/>
<path d="M538.344 714.356c-5.5 0-9.475 5.23-9.475 11.086v41.09h18.95v-41.09c0-5.855-3.976-11.086-9.475-11.086z" style="marker:none" fill="#0071bc" fill-rule="evenodd" stroke-width="1.039" stroke-linecap="round" stroke-linejoin="round" overflow="visible" transform="matrix(.21967 0 0 .20344 161.823 105.184)"/>
<path d="M538.344 708.165c-8.798 0-15.157 8.3-15.157 17.593v40.773h8v-40.773c0-5.767 3.588-9.593 7.157-9.593 3.568 0 7.156 3.826 7.156 9.593v40.773h8v-40.773c0-9.292-6.359-17.593-15.156-17.593z" style="marker:none" fill="#eac102" fill-rule="evenodd" stroke-width="1.039" stroke-linecap="round" stroke-linejoin="round" overflow="visible" transform="matrix(.21967 0 0 .20344 161.823 105.184)"/>
<path d="M538.922 675.584v-8.981m-18.176 8.981v-9.409m36.352 9.409v-8.981" transform="matrix(.21967 0 0 .20344 161.823 105.184)" fill="none" stroke-width="1.039"/>
<path d="M538.922 675.584v-8.981m-18.176 8.981v-9.409m36.352 9.409v-8.981" transform="matrix(.21967 0 0 .22852 161.823 83.836)" fill="none" stroke-width=".98"/>
<path d="M538.922 632.29v-10.833" fill="none" stroke-width="1.039" transform="matrix(.21967 0 0 .20344 161.823 105.184)"/>
<path d="M538.922 675.584v-9.86m-18.176 9.86v-9.409m36.352 9.409v-9.658" transform="matrix(.21967 0 0 .16468 161.823 117.943)" fill="none" stroke-width="1.155"/>
<path d="M522.11 617.127c-4.086 0-7.04 3.925-7.04 8.319v25.046h14.08v-25.046c0-4.394-2.954-8.32-7.04-8.32zm34.496 0c-4.086 0-7.04 3.925-7.04 8.319v25.046h14.08v-25.046c0-4.394-2.954-8.32-7.04-8.32z" style="marker:none" fill="#0071bc" fill-rule="evenodd" stroke-width="1.039" stroke-linecap="round" stroke-linejoin="round" overflow="visible" transform="matrix(.21967 0 0 .20344 161.823 105.184)"/>
<path d="M528.815 665.748v-11.12m20.528 11.12v-11.12" transform="matrix(.21967 0 0 .20344 161.789 105.184)" fill="none" stroke-width="1.039"/>
<path d="M528.815 665.748v-11.12m20.528 11.12v-11.12" transform="matrix(.21967 0 0 .20344 161.789 96.178)" fill="none" stroke-width="1.039"/>
<path d="M582.815 595.887H494.51m89.238-4.555h-89.234m89.234-11.12h-89.234m89.234-11.12h-89.234m68.048-10.428h20.9m-20.9-11.79h20.9m-20.9-11.79h20.9m-89.227 23.58h20.9m-20.9-11.79h20.9m-20.9-11.79h20.9m8.976 23.58h29.207m-29.207-11.79h29.207m-29.207-11.79h29.207m-29.207-10.718h29.207m-48.633-3.349v7.904m68.327-7.904v7.904" fill="none" stroke-width="1.039" transform="matrix(.21967 0 0 .20344 161.823 105.184)"/>
<path d="M534.025 509.093v7.904m9.245-7.904v7.904" transform="matrix(.21967 0 0 .20344 161.838 105.184)" fill="none" stroke-width="1.039"/>
<path d="M504.685 534.682v12.326m68.327-12.326v12.326m-68.327 11.924v9.914m68.327-9.914v9.914m-68.327 11.656v11.253m68.327-11.253v11.253m-57.58-22.726v10.947m47.141-10.947v10.947m-8.73-10.947v10.947m-29.899-10.947v10.947m14.77-55.652v10.803" fill="none" stroke-width="1.039" transform="matrix(.21967 0 0 .20344 161.823 105.184)"/>
<path d="M534.025 509.093v7.904m9.245-7.904v7.904" transform="matrix(.21967 0 0 .2932 161.838 64.82)" fill="none" stroke-width=".866"/>
<path d="M538.714 547.348v10.803" fill="none" stroke-width="1.039" transform="matrix(.21967 0 0 .20344 161.823 105.184)"/>
<path d="M534.025 509.093v7.904m9.245-7.904v7.904" transform="matrix(.21967 0 0 .2777 161.838 77.385)" fill="none" stroke-width=".889"/>
<path d="M538.714 569.282v10.803" fill="none" stroke-width="1.039" transform="matrix(.21967 0 0 .20344 161.823 105.184)"/>
<path d="M534.025 509.093v7.904m9.245-7.904v7.904" transform="matrix(.21967 0 0 .2777 161.838 81.895)" fill="none" stroke-width=".889"/>
</g>
<path d="M231.644 243.608c.016 9.512-.033 19.025.024 28.537.303 8.536 6.837 16.332 15.18 18.135 7.72 1.88 16.36-1.5 20.717-8.163 2.61-3.727 3.57-8.34 3.355-12.83v-25.679h-39.276z" style="marker:none" fill="#e3e4e5" fill-rule="evenodd" stroke="#000" stroke-width=".659" overflow="visible"/>
<g fill-rule="evenodd" stroke="#000" stroke-width=".22">
<path d="M249.315 268.563c-.835 5.12-2.63 9.828-5.441 14.1 3.458-1.995 6.044-2.928 3.091 2.88 2.85-3.453 5.148-4.145 6.31.847-.326-5.099 2.322-4.747 5.335-3.726-6.441-3.383-4.863-9.058-5.865-13.995l-3.43-.106z" fill="#e3e4e5"/>
<path d="M250.508 268.751c1.474 1.576 2.29 1.268 3.265-.524 1.288-1.78 2.202-1.46 3.49.15 1.143 2.176 3.259.6 4.327 1.632 1.53.192 2.2-.476 1.932-2.081-.043-2.256 1.37-2.082 2.456-2.456 1.772-.52 2.37-2.461-.15-2.906-1.666-.612-2.358-1.55-.449-3.354 1.16-2.125.552-3.57-1.857-3.564-2.082 1.708-1.784-.82-1.707-2.531-.682-2.035-1.937-1.015-3.205.075-.951 1.325-1.1.312-1.857-.3.882-2.366-1.223-2.412-3.055-2.157-.701-1.941-1.381-3.94-3.64-1.796-1.717-.905-3.198-1.059-3.728 1.796-.434 1.495-1.124 2.134-2.157 1.633-1.607-.316-3.146-.52-3.578 1.123-.106 1.14-.97 1.142-1.858 1.109-1.932-.237-2.492 1.148-2.231 3.504-1.574.886-2.432 2.96.565 3.555-.17 2.063-.735 4.1.824 5.187-.404 2.236.263 3.903 2.429 1.798 1.807-2.116 1.818-1.313 2.727-.567 1.665 1.96 2.138 1.332 3.429 1.633 1.662.32 3.157.306 4.028-.959z" fill="#008f4c"/>
</g>
</svg>
