<svg xmlns="http://www.w3.org/2000/svg" viewBox="0 0 600 400">
<g font-size="12">
<path fill="#fff" fill-rule="evenodd" d="M0 0h600v400H0z"/>
<path d="M600 341.776L86.03 0H0v56.94L515.896 400H600v-58.224" fill="#09c"/>
</g>
<g font-size="12">
<path d="M296.608 305.21c-60.134 0-58.18-56.579-58.18-56.579v-86.84h116.36v86.84s2.036 56.579-58.18 56.579" fill="#005bbf"/>
<path d="M296.648 401.235c-60.134 0-58.18-56.575-58.18-56.575v-86.833h116.36v86.833s2.036 56.575-58.18 56.575z" fill="none" stroke="#000" stroke-width="1.006" transform="matrix(1 0 0 1.00008 -.04 -96.055)"/>
<path d="M296.097 107.14s-12.407-6.036-24.143 2.851c0 0-21.118-3.048-22.672 17.182-.063.819-.19 2.327.187 2.767.377.44.754 1.258.754 1.82 0 .567.378.882.505 1.132.125.252.44.63.502 1.698.062 1.069-.125 1.571.881 2.64 1.004 1.069 1.067 4.15 1.067 5.03 0 .879.63 3.331 1.069 3.836.44.502 1.194 1.758 1.194 2.827s.44 4.023.25 4.775c-.188.754 1.13 1.698 2.327 2.075 1.194.377 16.03 5.218 37.656 4.84 21.628-.377 29.415-1.527 38.35-4.777 1.381-.502 1.634-1.634 1.509-2.263-.128-.627 0-2.637.377-3.142.377-.502 2.892-4.525 2.387-5.28-.502-.754-.502-2.39 0-3.016.505-.63 2.078-3.654 2.388-4.905.312-1.254.353-2.731.93-3.168.579-.438.773-1.855.884-2.15.112-.298.533-1.22 1.119-1.64 0 0 1.09-5.112.418-7.625-.668-2.515-4.441-13.328-19.78-11.063 0 0-11.4-8.636-28.164-4.444" fill="#d81126"/>
<path d="M296.137 203.179s-12.407-6.036-24.143 2.85c0 0-21.118-3.047-22.672 17.18-.063.82-.19 2.328.187 2.768.377.44.754 1.258.754 1.82 0 .567.378.882.505 1.132.125.252.44.629.502 1.698.062 1.068-.125 1.57.881 2.64 1.004 1.068 1.067 4.15 1.067 5.029 0 .879.63 3.33 1.069 3.835.44.502 1.194 1.758 1.194 2.827s.44 4.023.25 4.775c-.188.754 1.13 1.698 2.327 2.075 1.194.377 16.03 5.217 37.656 4.84 21.628-.377 29.415-1.528 38.35-4.777 1.381-.502 1.634-1.634 1.509-2.263-.128-.627 0-2.637.377-3.141.377-.502 2.892-4.525 2.387-5.28-.502-.754-.502-2.39 0-3.016.505-.63 2.078-3.653 2.388-4.905.312-1.254.353-2.73.93-3.168.579-.437.773-1.854.884-2.15.112-.297.533-1.22 1.119-1.64 0 0 1.09-5.11.418-7.623-.668-2.515-4.441-13.328-19.78-11.063 0 0-11.4-8.634-28.164-4.443h.005z" fill="none" stroke="#000" stroke-width="1.508" transform="matrix(1 0 0 1.00008 -.04 -96.055)"/>
<path d="M337.603 144.799c-47.108-14.922-83.414-.74-83.414-.74s.336 1.645.754 2.147c.42.502 1.007 1.677 1.007 2.558 0 .88.084 2.138.084 2.808 0 .668-.514 3.675 2.174 3.64 0 0 32.741-12.844 75.377.66 0 0 1.167-1.047 1.21-2.556.041-1.508.291-3.1.88-3.94.586-.837 1.926-3.456 1.926-4.577" fill="#bcac0b"/>
<path d="M293.928 223.318h-20.453s-2.013 18.272 13.746 23.806v1.677h3.354v2.178s-5.784 5.196-.757 11.148v1.845h.84v2.933h.92v4.775s-.754 17.059-17.476 25.23v1.007h44.65v-1.007c-16.72-8.171-17.477-25.23-17.477-25.23v-4.775h.92v-2.933h.839v-1.845c5.03-5.952-.754-11.148-.754-11.148v-2.178h3.353v-1.677c15.76-5.534 13.746-23.806 13.746-23.806h-25.454" fill="#c8b100" fill-opacity=".941"/>
<path d="M293.968 319.347h-20.453s-2.013 18.27 13.746 23.805v1.676h3.354v2.179s-5.784 5.195-.757 11.146v1.845h.84v2.933h.92v4.774s-.754 17.058-17.476 25.229v1.006h44.65v-1.006c-16.72-8.171-17.476-25.229-17.476-25.229v-4.774h.92v-2.933h.838v-1.845c5.03-5.951-.754-11.147-.754-11.147v-2.178h3.353v-1.676c15.76-5.534 13.746-23.805 13.746-23.805h-25.454.003z" fill="none" stroke="#000" stroke-width="1.006" transform="matrix(1 0 0 1.00008 -.04 -96.055)"/>
<path d="M286.589 342.9h19.742m-19.07 1.508h18.4m-15.046 2.514h11.568m-12.325 11.44h13.204m-12.323 1.405h11.528m-11.528 2.851h11.484M283.7 385.772h25.524m-32.732 5.908h39.984m-41.493.88h43.042" fill="none" stroke="#000" stroke-width=".252" transform="matrix(1 0 0 1.00008 -.04 -96.055)"/>
<path d="M296.599 222.24c7.201 0 13.04-5.84 13.04-13.041 0-7.201-5.839-13.04-13.04-13.04-7.201 0-13.04 5.839-13.04 13.04 0 7.201 5.839 13.04 13.04 13.04" fill="#ccc"/>
<path d="M296.639 318.269c7.201 0 13.04-5.839 13.04-13.04 0-7.2-5.839-13.04-13.04-13.04-7.201 0-13.04 5.84-13.04 13.04 0 7.201 5.839 13.04 13.04 13.04z" fill="none" stroke="#000" stroke-width="1.006" transform="matrix(1 0 0 1.00008 -.04 -96.055)"/>
<path d="M266.254 183.922h-8.13v-8.133h-7.209v8.133h-8.13v7.206h8.13v8.131h7.209v-8.13h8.13v-7.207" fill="#ccc"/>
<path d="M266.294 279.955h-8.13v-8.132h-7.209v8.132h-8.13v7.206h8.13v8.13h7.209v-8.13h8.13v-7.206" fill="none" stroke="#000" stroke-width="1.006" transform="matrix(1 0 0 1.00008 -.04 -96.055)"/>
<path d="M350.76 183.922h-8.132v-8.133h-7.21v8.133h-8.129v7.206h8.128v8.131h7.211v-8.13h8.131v-7.207" fill="#ccc"/>
<path d="M350.8 279.955h-8.132v-8.132h-7.21v8.132h-8.129v7.206h8.128v8.13h7.211v-8.13h8.131v-7.206" fill="none" stroke="#000" stroke-width="1.006" transform="matrix(1 0 0 1.00008 -.04 -96.055)"/>
<path d="M307.936 173.704h-8.13v-8.13h-7.209v8.13h-8.13v7.209h8.13v8.13h7.208v-8.13h8.131v-7.209" fill="#ccc"/>
<path d="M307.976 269.738h-8.13v-8.13h-7.209v8.13h-8.13v7.208h8.13v8.13h7.208v-8.13h8.131v-7.208" fill="none" stroke="#000" stroke-width="1.006" transform="matrix(1 0 0 1.00008 -.04 -96.055)"/>
<path d="M266.254 219.126h-8.13v-8.13h-7.209v8.13h-8.13v7.209h8.13v8.13h7.209v-8.13h8.13v-7.209" fill="#ccc"/>
<path d="M266.294 315.156h-8.13v-8.13h-7.209v8.13h-8.13v7.208h8.13v8.13h7.209v-8.13h8.13v-7.208" fill="none" stroke="#000" stroke-width="1.006" transform="matrix(1 0 0 1.00008 -.04 -96.055)"/>
<path d="M350.76 219.126h-8.132v-8.13h-7.21v8.13h-8.129v7.209h8.128v8.13h7.211v-8.13h8.131v-7.209" fill="#ccc"/>
<path d="M350.8 315.156h-8.132v-8.13h-7.21v8.13h-8.129v7.208h8.128v8.13h7.211v-8.13h8.131v-7.208" fill="none" stroke="#000" stroke-width="1.006" transform="matrix(1 0 0 1.00008 -.04 -96.055)"/>
<path d="M266.254 254.678h-8.13v-8.133h-7.209v8.133h-8.13v7.209h8.13v8.128h7.209v-8.128h8.13v-7.209" fill="#ccc"/>
<path d="M266.294 350.705h-8.13v-8.132h-7.209v8.132h-8.13v7.208h8.13v8.128h7.209v-8.128h8.13v-7.208" fill="none" stroke="#000" stroke-width="1.006" transform="matrix(1 0 0 1.00008 -.04 -96.055)"/>
<path d="M350.76 254.678h-8.132v-8.133h-7.21v8.133h-8.129v7.209h8.128v8.128h7.211v-8.128h8.131v-7.209" fill="#ccc"/>
<path d="M350.8 350.705h-8.132v-8.132h-7.21v8.132h-8.129v7.208h8.128v8.128h7.211v-8.128h8.131v-7.208" fill="none" stroke="#000" stroke-width="1.006" transform="matrix(1 0 0 1.00008 -.04 -96.055)"/>
<path d="M296.493 89.733a7.825 7.825 0 0 0 7.826-7.824 7.825 7.825 0 0 0-15.65 0 7.823 7.823 0 0 0 7.824 7.824" fill="#005bbf"/>
<path d="M296.533 185.773a7.824 7.824 0 0 0 7.826-7.823 7.824 7.824 0 0 0-7.826-7.823 7.822 7.822 0 0 0-7.823 7.823 7.822 7.822 0 0 0 7.823 7.823z" fill="none" stroke="#000" stroke-width="1.006" transform="matrix(1 0 0 1.00008 -.04 -96.055)"/>
<path d="M303.788 80.526h-6.413V70.154h2.45v-2.075h-2.45v-2.453h-2.076v2.453h-2.452v2.075h2.452v10.372h-6.098v1.383h6.098v.063h2.076v-.063h6.413v-1.383" fill="#fc0"/>
<path d="M303.828 176.567h-6.413v-10.371h2.45v-2.076h-2.45v-2.452h-2.076v2.452h-2.452v2.076h2.452v10.37h-6.098v1.384h6.098v.062h2.076v-.062h6.413v-1.383" fill="#bcac0b" stroke="#000" stroke-width=".502" transform="matrix(1 0 0 1.00008 -.04 -96.055)"/>
<path d="M265.166 99.093s5.784-.67 9.135.67c0 0-3.84 4.37-3.017 10.142.42 2.935 1.007 4.443 1.845 5.868.838 1.427 1.758 4.36 1.256 6.706h1.09s1.091-4.777-.754-7.46c-1.844-2.681-2.767-6.37-.922-10.226 1.842-3.855 4.525-5.364 4.525-5.364 3.101 1.257 9.642.082 11.484-1.258 1.843-1.343 2.765-3.185-.67-3.353-3.435-.168-9.303-.084-13.326 2.935 0 0-2.097-2.433-12.575-1.259-10.477 1.175-18.05 5.65-20.369 15.09-1.172 4.777 3.27 14.834 7.377 17.265 0 0-.125-1.633.293-2.808 0 0-7-7.837-4.902-15.13 2.094-7.292 10.477-12.07 19.53-11.818" fill="#fc0"/>
<path d="M265.206 195.133s5.784-.67 9.135.67c0 0-3.84 4.369-3.017 10.14.42 2.935 1.007 4.444 1.845 5.868.838 1.426 1.758 4.36 1.256 6.706h1.09s1.091-4.778-.754-7.46c-1.844-2.68-2.767-6.37-.922-10.225 1.842-3.855 4.525-5.363 4.525-5.363 3.101 1.256 9.642.082 11.484-1.259 1.843-1.342 2.765-3.184-.67-3.353-3.435-.168-9.303-.084-13.326 2.935 0 0-2.097-2.433-12.575-1.258-10.477 1.174-18.05 5.649-20.369 15.088-1.172 4.777 3.27 14.834 7.377 17.264 0 0-.125-1.633.293-2.807 0 0-7-7.838-4.902-15.13 2.094-7.291 10.477-12.069 19.53-11.816z" fill="#bcac0b" stroke="#000" stroke-width=".653" transform="matrix(1 0 0 1.00008 -.04 -96.055)"/>
<path d="M284.858 97.65c1.81-.147 3.262-.462 3.243-.709-.02-.243-1.504-.324-3.315-.178-1.811.147-3.262.464-3.243.709.02.245 1.504.324 3.315.178" fill="#fff"/>
<path d="M278.302 195.426s-2.073 1.948 0 0c2.075-1.948 6.413-3.27 8.866-2.702 2.45.564-.442.879-1.259.941-.817.063-2.452.377-4.84 0" fill="none" stroke="#000" stroke-width=".653" transform="matrix(1 0 0 1.00008 -.04 -96.055)"/>
<path d="M327.695 99.72s-5.782-.668-9.135.673c0 0 3.843 4.367 3.017 10.141-.418 2.935-1.004 4.444-1.842 5.868-.84 1.422-1.76 4.36-1.259 6.706h-1.09s-1.088-4.777.754-7.46c1.845-2.683 2.767-6.37.922-10.225-1.842-3.858-4.525-5.367-4.525-5.367-3.101 1.26-9.64.084-11.484-1.256-1.84-1.343-2.765-3.185.67-3.353 3.437-.168 9.305-.084 13.329 2.933 0 0 2.094-2.431 12.572-1.256 10.48 1.172 18.05 5.65 20.369 15.087 1.174 4.777-3.27 14.837-7.377 17.268 0 0 .128-1.634-.293-2.808 0 0 7-7.838 4.905-15.13-2.097-7.293-10.477-12.07-19.533-11.82" fill="#fc0"/>
<path d="M327.735 195.76s-5.782-.668-9.135.672c0 0 3.843 4.366 3.017 10.14-.418 2.935-1.004 4.444-1.842 5.868-.84 1.422-1.76 4.36-1.259 6.706h-1.09s-1.088-4.777.754-7.46c1.845-2.683 2.767-6.37.922-10.225-1.842-3.857-4.525-5.365-4.525-5.365-3.101 1.258-9.64.084-11.484-1.256-1.84-1.343-2.765-3.185.67-3.353 3.437-.168 9.305-.084 13.329 2.932 0 0 2.094-2.43 12.572-1.256 10.48 1.172 18.05 5.65 20.369 15.086 1.174 4.777-3.27 14.836-7.377 17.267 0 0 .128-1.634-.293-2.808 0 0 7-7.837 4.905-15.13-2.097-7.291-10.477-12.068-19.533-11.819z" fill="#bcac0b" stroke="#000" stroke-width=".653" transform="matrix(1 0 0 1.00008 -.04 -96.055)"/>
<path d="M308.003 98.279c-1.808-.147-3.261-.464-3.242-.709.021-.245 1.503-.324 3.315-.177 1.81.146 3.264.463 3.245.708-.022.245-1.506.324-3.318.178" fill="#fff"/>
<path d="M314.64 196.055s2.075 1.948 0 0c-2.074-1.95-6.412-3.269-8.864-2.705-2.452.567.44.882 1.256.944.82.063 2.453.377 4.843 0" fill="none" stroke="#000" stroke-width=".653" transform="matrix(1 0 0 1.00008 -.04 -96.055)"/>
<path d="M291.067 93.31v22.297c-.252 2.179 2.68 5.28 4.778 6.202 0 0 4.945-1.677 5.28-6.202V92.051h-1.677v20.369c-.082 2.096-1.425 5.868-3.27 6.456 0 0-3.603-.588-3.77-6.372V92.64l-1.341.668" fill="#fc0"/>
<path d="M291.107 189.349v22.296c-.252 2.179 2.68 5.28 4.778 6.202 0 0 4.945-1.677 5.28-6.202V188.09h-1.677v20.368c-.082 2.097-1.425 5.868-3.27 6.456 0 0-3.603-.588-3.77-6.372v-19.86l-1.341.667" fill="#bcac0b" stroke="#000" stroke-width=".653" transform="matrix(1 0 0 1.00008 -.04 -96.055)"/>
<path d="M241.737 123.805a2.666 2.666 0 1 0 0-5.333 2.666 2.666 0 0 0 0 5.333" fill="#fff"/>
<path d="M241.777 219.842a2.666 2.666 0 1 0 0-5.332 2.666 2.666 0 0 0 0 5.332z" fill="none" stroke="#000" stroke-width="1.006" transform="matrix(1 0 0 1.00008 -.04 -96.055)"/>
<path d="M240.07 117.675a2.667 2.667 0 1 0 .004-5.334 2.667 2.667 0 0 0-.004 5.334" fill="#fff"/>
<path d="M240.11 213.713a2.667 2.667 0 1 0 .004-5.333 2.667 2.667 0 0 0-.004 5.333z" fill="none" stroke="#000" stroke-width="1.006" transform="matrix(1 0 0 1.00008 -.04 -96.055)"/>
<path d="M240.952 110.258a2.667 2.667 0 1 0-.002-5.334 2.667 2.667 0 0 0 .002 5.334" fill="#fff"/>
<path d="M240.992 206.296a2.667 2.667 0 1 0-.001-5.333 2.667 2.667 0 0 0 0 5.333z" fill="none" stroke="#000" stroke-width="1.006" transform="matrix(1 0 0 1.00008 -.04 -96.055)"/>
<path d="M245.1 104.097a2.667 2.667 0 1 0 .003-5.334 2.667 2.667 0 0 0-.003 5.334" fill="#fff"/>
<path d="M245.14 200.136a2.667 2.667 0 1 0 .004-5.334 2.667 2.667 0 0 0-.004 5.334z" fill="none" stroke="#000" stroke-width="1.006" transform="matrix(1 0 0 1.00008 -.04 -96.055)"/>
<path d="M250.005 99.602a2.667 2.667 0 1 0-.001-5.333 2.667 2.667 0 0 0 0 5.333" fill="#fff"/>
<path d="M250.045 195.642a2.667 2.667 0 1 0-.001-5.334 2.667 2.667 0 0 0 0 5.334z" fill="none" stroke="#000" stroke-width="1.006" transform="matrix(1 0 0 1.00008 -.04 -96.055)"/>
<path d="M256.322 97.088a2.667 2.667 0 1 0-.001-5.334 2.667 2.667 0 0 0 .001 5.334" fill="#fff"/>
<path d="M256.362 193.127a2.667 2.667 0 1 0-.001-5.333 2.667 2.667 0 0 0 .001 5.333z" fill="none" stroke="#000" stroke-width="1.006" transform="matrix(1 0 0 1.00008 -.04 -96.055)"/>
<path d="M262.923 95.894a2.668 2.668 0 0 0 0-5.335 2.666 2.666 0 0 0 0 5.335" fill="#fff"/>
<path d="M262.963 191.933a2.668 2.668 0 0 0 0-5.334 2.666 2.666 0 1 0 0 5.334z" fill="none" stroke="#000" stroke-width="1.006" transform="matrix(1 0 0 1.00008 -.04 -96.055)"/>
<path d="M269.211 95.517a2.668 2.668 0 1 0-.004-5.337 2.668 2.668 0 0 0 .004 5.337" fill="#fff"/>
<path d="M269.251 191.556a2.668 2.668 0 1 0-.004-5.336 2.668 2.668 0 0 0 .004 5.336z" fill="none" stroke="#000" stroke-width="1.006" transform="matrix(1 0 0 1.00008 -.04 -96.055)"/>
<path d="M274.868 96.019a2.667 2.667 0 1 0-.001-5.336 2.667 2.667 0 0 0 0 5.336" fill="#fff"/>
<path d="M274.908 192.058a2.666 2.666 0 1 0 0-5.332 2.666 2.666 0 0 0 0 5.332z" fill="none" stroke="#000" stroke-width="1.006" transform="matrix(1 0 0 1.00008 -.04 -96.055)"/>
<path d="M290.997 94.006a2.668 2.668 0 0 0 2.669-2.666 2.666 2.666 0 1 0-2.669 2.666" fill="#fff"/>
<path d="M291.037 190.046a2.668 2.668 0 0 0 2.669-2.666 2.666 2.666 0 1 0-2.669 2.666z" fill="none" stroke="#000" stroke-width="1.006" transform="matrix(1 0 0 1.00008 -.04 -96.055)"/>
<path d="M296.152 95.39a2.668 2.668 0 0 0 2.669-2.667 2.668 2.668 0 0 0-5.335 0 2.666 2.666 0 0 0 2.666 2.666" fill="#fff"/>
<path d="M296.192 191.429a2.668 2.668 0 0 0 2.669-2.666 2.668 2.668 0 0 0-5.335 0 2.666 2.666 0 0 0 2.666 2.666z" fill="none" stroke="#000" stroke-width="1.006" transform="matrix(1 0 0 1.00008 -.04 -96.055)"/>
<path d="M296.152 115.129a2.668 2.668 0 0 0 2.669-2.666 2.668 2.668 0 0 0-5.335 0 2.666 2.666 0 0 0 2.666 2.666" fill="#fff"/>
<path d="M296.192 211.167a2.668 2.668 0 0 0 2.669-2.666 2.668 2.668 0 0 0-5.335 0 2.666 2.666 0 0 0 2.666 2.666z" fill="none" stroke="#000" stroke-width="1.006" transform="matrix(1 0 0 1.00008 -.04 -96.055)"/>
<path d="M351.288 125.503a2.667 2.667 0 1 0-.002-5.333 2.667 2.667 0 0 0 .002 5.333" fill="#fff"/>
<path d="M351.328 221.54a2.667 2.667 0 1 0-.002-5.333 2.667 2.667 0 0 0 .002 5.334z" fill="none" stroke="#000" stroke-width="1.006" transform="matrix(1 0 0 1.00008 -.04 -96.055)"/>
<path d="M352.669 118.869a2.667 2.667 0 1 0 .003-5.334 2.667 2.667 0 0 0-.003 5.334" fill="#fff"/>
<path d="M352.709 214.907a2.667 2.667 0 1 0 .003-5.334 2.667 2.667 0 0 0-.003 5.334z" fill="none" stroke="#000" stroke-width="1.006" transform="matrix(1 0 0 1.00008 -.04 -96.055)"/>
<path d="M351.537 111.956a2.667 2.667 0 1 0 .003-5.335 2.667 2.667 0 0 0-.003 5.335" fill="#fff"/>
<path d="M351.577 207.994a2.667 2.667 0 1 0 .003-5.334 2.667 2.667 0 0 0-.003 5.334z" fill="none" stroke="#000" stroke-width="1.006" transform="matrix(1 0 0 1.00008 -.04 -96.055)"/>
<path d="M348.645 105.418a2.668 2.668 0 1 0-2.666-2.669 2.668 2.668 0 0 0 2.666 2.669" fill="#fff"/>
<path d="M348.685 201.457a2.668 2.668 0 1 0-2.666-2.668 2.668 2.668 0 0 0 2.666 2.668z" fill="none" stroke="#000" stroke-width="1.006" transform="matrix(1 0 0 1.00008 -.04 -96.055)"/>
<path d="M343.743 100.89a2.666 2.666 0 1 0 0-5.333 2.666 2.666 0 0 0 0 5.333" fill="#fff"/>
<path d="M343.783 196.93a2.666 2.666 0 1 0-2.669-2.667 2.668 2.668 0 0 0 2.669 2.666z" fill="none" stroke="#000" stroke-width="1.006" transform="matrix(1 0 0 1.00008 -.04 -96.055)"/>
<path d="M337.834 97.998a2.666 2.666 0 0 0 0-5.333 2.667 2.667 0 1 0 0 5.333" fill="#fff"/>
<path d="M337.874 194.037a2.666 2.666 0 0 0 0-5.332 2.667 2.667 0 1 0 0 5.332z" fill="none" stroke="#000" stroke-width="1.006" transform="matrix(1 0 0 1.00008 -.04 -96.055)"/>
<path d="M331.106 96.458a2.667 2.667 0 1 0 .003-5.333 2.667 2.667 0 0 0-.003 5.333" fill="#fff"/>
<path d="M331.146 192.498a2.667 2.667 0 1 0 .004-5.334 2.667 2.667 0 0 0-.004 5.334z" fill="none" stroke="#000" stroke-width="1.006" transform="matrix(1 0 0 1.00008 -.04 -96.055)"/>
<path d="M324.945 95.956a2.667 2.667 0 1 0 .002-5.335 2.667 2.667 0 0 0-.002 5.335" fill="#fff"/>
<path d="M324.985 191.996a2.667 2.667 0 1 0 .003-5.335 2.667 2.667 0 0 0-.003 5.335z" fill="none" stroke="#000" stroke-width="1.006" transform="matrix(1 0 0 1.00008 -.04 -96.055)"/>
<path d="M319.36 95.221a2.667 2.667 0 1 0 .004-5.334 2.667 2.667 0 0 0-.004 5.334" fill="#fff"/>
<path d="M319.4 191.26a2.667 2.667 0 1 0 .004-5.333 2.667 2.667 0 0 0-.004 5.334z" fill="none" stroke="#000" stroke-width="1.006" transform="matrix(1 0 0 1.00008 -.04 -96.055)"/>
<path d="M322.966 117.048a2.668 2.668 0 0 0 0-5.335 2.666 2.666 0 0 0 0 5.335" fill="#fff"/>
<path d="M323.006 213.086a2.668 2.668 0 0 0 0-5.334 2.666 2.666 0 0 0 0 5.334z" fill="none" stroke="#000" stroke-width="1.006" transform="matrix(1 0 0 1.00008 -.04 -96.055)"/>
<path d="M324.35 111.891a2.666 2.666 0 0 0 0-5.332 2.667 2.667 0 1 0 0 5.332" fill="#fff"/>
<path d="M324.39 207.93a2.666 2.666 0 0 0 0-5.333 2.667 2.667 0 1 0 0 5.332z" fill="none" stroke="#000" stroke-width="1.006" transform="matrix(1 0 0 1.00008 -.04 -96.055)"/>
<path d="M301.936 94.825a2.667 2.667 0 1 0 .004-5.336 2.667 2.667 0 0 0-.004 5.336m-13.05-.723a2.667 2.667 0 1 0 .003-5.335 2.667 2.667 0 0 0-.003 5.335" fill="#fff"/>
<path d="M288.926 190.142a2.667 2.667 0 1 0 .003-5.335 2.667 2.667 0 0 0-.003 5.335z" fill="none" stroke="#000" stroke-width="1.006" transform="matrix(1 0 0 1.00008 -.04 -96.055)"/>
<path d="M285.744 93.975a2.666 2.666 0 1 0 0-5.333 2.666 2.666 0 0 0 0 5.333" fill="#fff"/>
<path d="M285.784 190.014a2.666 2.666 0 1 0 0-5.332 2.666 2.666 0 0 0 0 5.332z" fill="none" stroke="#000" stroke-width="1.006" transform="matrix(1 0 0 1.00008 -.04 -96.055)"/>
<path d="M268.8 117.11a2.668 2.668 0 1 0 0-5.333 2.668 2.668 0 0 0 0 5.334m-.785-6.382a2.668 2.668 0 0 0 2.669-2.667 2.668 2.668 0 0 0-5.335 0 2.666 2.666 0 0 0 2.666 2.667" fill="#fff"/>
<path d="M268.055 206.767a2.668 2.668 0 0 0 2.669-2.666 2.668 2.668 0 0 0-5.335 0 2.666 2.666 0 0 0 2.666 2.666z" fill="none" stroke="#000" stroke-width="1.006" transform="matrix(1 0 0 1.00008 -.04 -96.055)"/>
<path d="M269.9 104.567a2.667 2.667 0 1 0 .004-5.333 2.667 2.667 0 0 0-.003 5.333" fill="#fff"/>
<path d="M269.94 200.606a2.667 2.667 0 1 0 .004-5.333 2.667 2.667 0 0 0-.003 5.333z" fill="none" stroke="#000" stroke-width="1.006" transform="matrix(1 0 0 1.00008 -.04 -96.055)"/>
<path d="M281.625 94.573a2.667 2.667 0 1 0 .003-5.334 2.667 2.667 0 0 0-.003 5.334" fill="#fff"/>
<path d="M281.665 190.612a2.667 2.667 0 1 0 .004-5.333 2.667 2.667 0 0 0-.004 5.333z" fill="none" stroke="#000" stroke-width="1.006" transform="matrix(1 0 0 1.00008 -.04 -96.055)"/>
<path d="M277.193 96.396a2.667 2.667 0 1 0 .004-5.334 2.667 2.667 0 0 0-.004 5.334" fill="#fff"/>
<path d="M277.233 192.435a2.667 2.667 0 1 0 .004-5.333 2.667 2.667 0 0 0-.004 5.333z" fill="none" stroke="#000" stroke-width="1.006" transform="matrix(1 0 0 1.00008 -.04 -96.055)"/>
<path d="M272.951 99.98a2.668 2.668 0 1 0-.004-5.337 2.668 2.668 0 0 0 .004 5.337" fill="#fff"/>
<path d="M272.991 196.019a2.668 2.668 0 1 0-.004-5.337 2.668 2.668 0 0 0 .004 5.337z" fill="none" stroke="#000" stroke-width="1.006" transform="matrix(1 0 0 1.00008 -.04 -96.055)"/>
<path d="M296.152 98.409a2.67 2.67 0 0 0 2.669-2.669 2.666 2.666 0 1 0-2.669 2.669" fill="#fff"/>
<path d="M296.192 194.448a2.67 2.67 0 0 0 2.669-2.668 2.666 2.666 0 1 0-2.669 2.668z" fill="none" stroke="#000" stroke-width="1.006" transform="matrix(1 0 0 1.00008 -.04 -96.055)"/>
<path d="M296.152 103.436a2.668 2.668 0 0 0 2.669-2.666 2.668 2.668 0 0 0-5.335 0 2.666 2.666 0 0 0 2.666 2.666" fill="#fff"/>
<path d="M296.192 199.475a2.668 2.668 0 0 0 2.669-2.666 2.668 2.668 0 0 0-5.335 0 2.666 2.666 0 0 0 2.666 2.666z" fill="none" stroke="#000" stroke-width="1.006" transform="matrix(1 0 0 1.00008 -.04 -96.055)"/>
<path d="M296.152 108.843a2.668 2.668 0 0 0 2.669-2.666 2.666 2.666 0 1 0-2.669 2.666" fill="#fff"/>
<path d="M296.192 204.882a2.668 2.668 0 0 0 2.669-2.666 2.666 2.666 0 1 0-2.669 2.666z" fill="none" stroke="#000" stroke-width="1.006" transform="matrix(1 0 0 1.00008 -.04 -96.055)"/>
<path d="M305.395 94.133a2.668 2.668 0 1 0-.004-5.337 2.668 2.668 0 0 0 .004 5.337" fill="#fff"/>
<path d="M305.435 190.173a2.668 2.668 0 1 0-.004-5.337 2.668 2.668 0 0 0 .004 5.337z" fill="none" stroke="#000" stroke-width="1.006" transform="matrix(1 0 0 1.00008 -.04 -96.055)"/>
<path d="M309.041 93.379a2.668 2.668 0 1 0-.004-5.337 2.668 2.668 0 0 0 .004 5.337" fill="#fff"/>
<path d="M309.081 189.419a2.668 2.668 0 1 0-.004-5.337 2.668 2.668 0 0 0 .004 5.337z" fill="none" stroke="#000" stroke-width="1.006" transform="matrix(1 0 0 1.00008 -.04 -96.055)"/>
<path d="M313.158 94.04a2.668 2.668 0 0 0 0-5.335 2.666 2.666 0 0 0 0 5.334" fill="#fff"/>
<path d="M313.198 190.08a2.668 2.668 0 0 0 0-5.335 2.666 2.666 0 0 0 0 5.334z" fill="none" stroke="#000" stroke-width="1.006" transform="matrix(1 0 0 1.00008 -.04 -96.055)"/>
<path d="M323.468 105.353a2.668 2.668 0 0 0 2.668-2.666 2.668 2.668 0 0 0-5.335 0 2.666 2.666 0 0 0 2.667 2.666" fill="#fff"/>
<path d="M323.508 201.392a2.668 2.668 0 0 0 2.668-2.666 2.668 2.668 0 0 0-5.335 0 2.666 2.666 0 0 0 2.667 2.666z" fill="none" stroke="#000" stroke-width="1.006" transform="matrix(1 0 0 1.00008 -.04 -96.055)"/>
<path d="M317.306 96.427a2.667 2.667 0 1 0 .004-5.334 2.667 2.667 0 0 0-.004 5.334" fill="#fff"/>
<path d="M317.346 192.467a2.667 2.667 0 1 0 .004-5.334 2.667 2.667 0 0 0-.004 5.334z" fill="none" stroke="#000" stroke-width="1.006" transform="matrix(1 0 0 1.00008 -.04 -96.055)"/>
<path d="M321.08 100.073a2.667 2.667 0 1 0-.001-5.333 2.667 2.667 0 0 0 .001 5.333" fill="#fff"/>
<path d="M321.12 196.113a2.667 2.667 0 1 0-.001-5.334 2.667 2.667 0 0 0 .001 5.334z" fill="none" stroke="#000" stroke-width="1.006" transform="matrix(1 0 0 1.00008 -.04 -96.055)"/>
<path d="M295.981 140.014l-7.04 3.521 6.337 3.99 7.51-3.754-6.807-3.757" fill="#fff"/>
<path d="M296.021 236.05l-7.04 3.521 6.337 3.99 7.51-3.755-6.807-3.756" fill="none" stroke="#000" stroke-width=".502" transform="matrix(1 0 0 1.00008 -.04 -96.055)"/>
<path d="M280.59 140.754l-10.562 1.633s-.127 5.66.377 7.043l10.811-1.511s.505-5.28-.627-7.165" fill="#fff"/>
<path d="M280.63 236.79l-10.562 1.633s-.127 5.659.377 7.042l10.811-1.51s.505-5.28-.627-7.165z" fill="none" stroke="#000" stroke-width=".502" transform="matrix(1 0 0 1.00008 -.04 -96.055)"/>
<path d="M279.415 142.764s-6.37.586-7.963 1.175l.084 3.855s4.192-.754 8.047-1.09l-.168-3.94" fill="#058e6e" fill-opacity=".941"/>
<path d="M279.455 238.8s-6.37.586-7.963 1.174l.084 3.855s4.192-.754 8.047-1.09l-.168-3.939" fill="none" stroke="#000" stroke-width=".502" transform="matrix(1 0 0 1.00008 -.04 -96.055)"/>
<path d="M310.703 141.056l10.56 1.636s.127 5.657-.378 7.04l-10.811-1.508s-.504-5.282.63-7.168" fill="#fff"/>
<path d="M310.743 237.092l10.56 1.636s.127 5.656-.378 7.04l-10.811-1.509s-.504-5.281.63-7.167z" fill="none" stroke="#000" stroke-width=".502" transform="matrix(1 0 0 1.00008 -.04 -96.055)"/>
<path d="M311.876 143.07s6.37.585 7.962 1.171l-.084 3.856s-4.191-.755-8.047-1.089l.169-3.939" fill="#058e6e" fill-opacity=".941"/>
<path d="M311.916 239.105s6.37.586 7.962 1.172l-.084 3.855s-4.191-.754-8.047-1.088l.169-3.939" fill="none" stroke="#000" stroke-width=".502" transform="matrix(1 0 0 1.00008 -.04 -96.055)"/>
<path d="M254.224 241.82s37.049-13.759 84.16 1.162m-82.651 6.756s35.835-13.402 80.03.595m-79.862-9.018l7.208 2.094-5.03 5.366" fill="none" stroke="#000" stroke-width=".502" transform="matrix(1 0 0 1.00008 -.04 -96.055)"/>
<path d="M256.029 151.733l4.107-3.437-4.693-.922s.639.725.507 1.39c-.13.666.038 2.383.079 2.97" fill="red"/>
<path d="M256.069 247.768l4.107-3.437-4.693-.922s.639.725.507 1.39c-.13.666.038 2.383.079 2.97zm81.517-5.07l-7.67 1.384 5.155 6.033" fill="none" stroke="#000" stroke-width=".502" transform="matrix(1 0 0 1.00008 -.04 -96.055)"/>
<path d="M335.283 151.945l-2.892-3.02 4.148-.377s-1.131.754-1.131 1.384c0 .629.127 1.508-.125 2.013" fill="red"/>
<path d="M335.323 247.98l-2.892-3.02 4.148-.376s-1.131.754-1.131 1.383c0 .63.127 1.508-.125 2.013zm-70.033-6.135c.654 0 1.184-.425 1.184-.95 0-.522-.53-.947-1.184-.947-.655 0-1.186.425-1.186.946 0 .526.53.951 1.186.951zm20.607-2.348c.656 0 1.187-.426 1.187-.947 0-.526-.531-.949-1.187-.949-.653 0-1.184.423-1.184.95 0 .52.53.946 1.184.946zm0 3.352c.656 0 1.187-.425 1.187-.948 0-.524-.531-.947-1.187-.947-.653 0-1.184.423-1.184.947 0 .523.53.948 1.184.948zm20.285-3.184c.656 0 1.187-.423 1.187-.95 0-.52-.531-.945-1.187-.945-.653 0-1.184.422-1.184.946 0 .526.53.949 1.184.949zm20.117 3.689c.655 0 1.186-.425 1.186-.951 0-.521-.53-.947-1.186-.947-.654 0-1.184.426-1.184.947 0 .526.53.95 1.184.95zm-.334 2.68c.656 0 1.186-.425 1.186-.946 0-.521-.53-.951-1.186-.951-.656 0-1.187.427-1.187.95 0 .522.531.947 1.187.947zm-19.783-3.016c.656 0 1.187-.426 1.187-.95 0-.52-.531-.945-1.187-.945-.653 0-1.184.422-1.184.946 0 .523.53.949 1.184.949zm-39.897 3.016c.653 0 1.184-.425 1.184-.946 0-.521-.53-.951-1.184-.951-.656 0-1.187.427-1.187.95 0 .522.531.947 1.187.947z" fill="none" stroke="#000" stroke-width=".502" transform="matrix(1 0 0 1.00008 -.04 -96.055)"/>
<path d="M253.514 134.97s.168 7.208 4.862 6.202c4.693-1.007 4.191-6.875 4.528-7.209.333-.336.835-.336.835-.336s.67 5.7 5.028 5.03c4.36-.67 4.191-7.71 3.69-8.885l1.006-.337s1.674 8.215 6.704 7.043c5.03-1.175 4.527-6.37 4.527-6.37h.387s1.122 5.532 5.145 5.195c4.021-.333 4.862-1.676 4.358-7.208l2.683-.502s-1.007 8.047 3.852 7.879c4.864-.169 5.03-4.024 5.366-4.694h.733s.274 5.7 4.297 5.7c4.024 0 4.86-4.862 4.86-6.706l3.93.175s-4.096 7.537 1.94 8.544c6.034 1.004 6.202-4.864 6.202-4.864h1.172s-.168 7.545 3.185 7.713c3.35.168 5.364-1.007 5.698-6.539l1.844.67s-1.6 8.943-7.878 7.375c-3.353-.836-4.36-4.691-4.192-5.698 0 0-2.344 4.19-6.872 2.849-4.525-1.34-4.023-4.525-4.023-5.532 0 0-2.722 4.999-6.538 3.853-3.351-1.004-4.694-2.179-4.694-4.525 0 0-1.676 3.855-5.03 3.69-3.353-.17-5.027-2.182-5.195-4.024 0 0-.666 3.603-5.198 3.855-3.017.168-4.694-1.338-5.364-3.353 0 0-.867 3.65-5.195 4.191-2.68.337-5.364-1.172-6.036-3.687 0 0-.668 4.86-5.028 5.532-4.36.67-5.366-2.347-5.366-2.347s-.836 3.858-4.357 4.694c-3.521.838-5.868-.668-6.707-4.19-.838-3.52-.502-5.03-.502-5.03l1.34 1.843" fill="#fc0"/>
<path d="M253.554 231.006s.168 7.208 4.862 6.202c4.693-1.007 4.191-6.874 4.528-7.208.333-.337.835-.337.835-.337s.67 5.7 5.028 5.03c4.36-.67 4.191-7.71 3.69-8.884l1.006-.337s1.674 8.215 6.704 7.042c5.03-1.174 4.527-6.37 4.527-6.37h.387s1.122 5.532 5.145 5.196c4.021-.334 4.862-1.677 4.358-7.208l2.683-.502s-1.007 8.046 3.852 7.878c4.864-.168 5.03-4.023 5.366-4.693h.733s.274 5.7 4.297 5.7c4.024 0 4.86-4.862 4.86-6.706l3.93.175s-4.096 7.537 1.94 8.543c6.034 1.004 6.202-4.864 6.202-4.864h1.172s-.168 7.545 3.185 7.713c3.35.168 5.364-1.007 5.698-6.538l1.844.67s-1.6 8.942-7.878 7.374c-3.353-.836-4.36-4.691-4.192-5.697 0 0-2.344 4.188-6.872 2.848-4.525-1.34-4.023-4.525-4.023-5.531 0 0-2.722 4.998-6.538 3.852-3.351-1.004-4.694-2.178-4.694-4.525 0 0-1.676 3.855-5.03 3.69-3.353-.169-5.027-2.181-5.195-4.024 0 0-.666 3.603-5.198 3.855-3.017.168-4.694-1.338-5.364-3.353 0 0-.867 3.651-5.195 4.192-2.68.336-5.364-1.173-6.036-3.687 0 0-.668 4.859-5.028 5.531-4.36.67-5.366-2.346-5.366-2.346s-.836 3.857-4.357 4.693c-3.522.838-5.868-.668-6.707-4.19-.838-3.52-.502-5.028-.502-5.028l1.34 1.842.003.002z" fill="#bcac0b" stroke="#000" stroke-width=".653" transform="matrix(1 0 0 1.00008 -.04 -96.055)"/>
<path d="M263.237 135.287a1.659 1.659 0 1 0 0-3.32 1.66 1.66 0 0 0 0 3.32" fill="#fc0"/>
<path d="M263.277 231.323a1.659 1.659 0 1 0 0-3.32 1.66 1.66 0 0 0 0 3.32z" fill="#bcac0b" stroke="#000" stroke-width=".653" transform="matrix(1 0 0 1.00008 -.04 -96.055)"/>
<path d="M285.084 131.79a1.66 1.66 0 1 0-.001-3.321 1.66 1.66 0 0 0 0 3.32" fill="#fc0"/>
<path d="M285.124 227.826a1.66 1.66 0 1 0-.001-3.32 1.66 1.66 0 0 0 0 3.32z" fill="#bcac0b" stroke="#000" stroke-width=".653" transform="matrix(1 0 0 1.00008 -.04 -96.055)"/>
<path d="M307.223 132.438a1.66 1.66 0 1 0 0-3.32 1.66 1.66 0 0 0 0 3.32" fill="#fc0"/>
<path d="M307.263 228.475a1.66 1.66 0 1 0 0-3.32 1.66 1.66 0 0 0 0 3.32z" fill="#bcac0b" stroke="#000" stroke-width=".653" transform="matrix(1 0 0 1.00008 -.04 -96.055)"/>
<path d="M329.194 135.969a1.66 1.66 0 0 0 0-3.32 1.66 1.66 0 1 0 0 3.32" fill="#fc0"/>
<path d="M329.234 232.005a1.66 1.66 0 0 0 0-3.32 1.66 1.66 0 1 0 0 3.32z" fill="#bcac0b" stroke="#000" stroke-width=".653" transform="matrix(1 0 0 1.00008 -.04 -96.055)"/>
<path d="M295.174 129.94h-1.508c-.377 1.508-3.584 2.452-3.584 2.452-.377-1.194.44-2.892.44-2.892-3.709-.944-3.709-2.265-3.709-2.265.565-1.256 3.961-1.443 3.961-1.443-.882-1.132-.692-2.955-.692-2.955 2.263.127 4.148 2.388 4.148 2.388s-2.262-1.13-2.01-5.155c0 0 1.256-.06 2.01.754 0 0 0-4.335 1.824-4.837h.187c1.823.502 1.823 4.837 1.823 4.837.754-.814 2.01-.754 2.01-.754.253 4.023-2.01 5.155-2.01 5.155s1.886-2.26 4.148-2.388c0 0 .19 1.82-.692 2.955 0 0 3.397.187 3.961 1.443 0 0 0 1.321-3.708 2.265 0 0 .816 1.698.44 2.892 0 0-3.207-.944-3.585-2.452h-3.456" fill="#fc0"/>
<path d="M295.214 225.977h-1.508c-.377 1.508-3.584 2.452-3.584 2.452-.377-1.194.44-2.892.44-2.892-3.709-.944-3.709-2.265-3.709-2.265.565-1.256 3.961-1.443 3.961-1.443-.882-1.131-.692-2.954-.692-2.954 2.263.127 4.148 2.387 4.148 2.387s-2.262-1.129-2.01-5.154c0 0 1.256-.06 2.01.754 0 0 0-4.335 1.824-4.837h.187c1.823.502 1.823 4.837 1.823 4.837.754-.814 2.01-.754 2.01-.754.253 4.023-2.01 5.154-2.01 5.154s1.886-2.26 4.148-2.387c0 0 .19 1.82-.692 2.954 0 0 3.397.187 3.961 1.443 0 0 0 1.321-3.708 2.265 0 0 .816 1.698.44 2.892 0 0-3.207-.944-3.585-2.452h-3.456.002z" fill="#bcac0b" stroke="#000" stroke-width=".653" transform="matrix(1 0 0 1.00008 -.04 -96.055)"/>
<path d="M296.032 130.797a3.037 3.037 0 1 0 .002-6.075 3.037 3.037 0 0 0-.002 6.075" fill="#fff"/>
<path d="M296.072 226.834a3.037 3.037 0 1 0 .002-6.074 3.037 3.037 0 0 0-.002 6.074z" fill="none" stroke="#000" stroke-width=".404" transform="matrix(1 0 0 1.00008 -.04 -96.055)"/>
<path d="M296.032 129.419a1.66 1.66 0 0 0 1.662-1.66 1.66 1.66 0 0 0-3.32 0c0 .917.743 1.66 1.658 1.66" fill="#fff"/>
<path d="M296.072 225.456a1.66 1.66 0 0 0 1.662-1.66 1.66 1.66 0 0 0-3.32 0c0 .917.743 1.66 1.658 1.66z" fill="none" stroke="#000" stroke-width=".252" transform="matrix(1 0 0 1.00008 -.04 -96.055)"/>
<path d="M319.067 131.907l1.475.32c.046 1.554 2.986 3.15 2.986 3.15.617-1.087.177-2.918.177-2.918 3.824-.139 4.1-1.429 4.1-1.429-.285-1.35-3.564-2.25-3.564-2.25 1.098-.92 1.3-2.743 1.3-2.743-2.24-.354-4.562 1.46-4.562 1.46s2.453-.627 3.055-4.614c0 0-1.217-.325-2.123.312 0 0 .913-4.24-.761-5.114l-.185-.04c-1.888.107-2.803 4.347-2.803 4.347-.565-.959-1.807-1.163-1.807-1.163-1.095 3.88.88 5.465.88 5.465s-1.367-2.611-3.553-3.212c0 0-.57 1.742.053 3.034 0 0-3.358-.53-4.177.579 0 0-.277 1.29 3.149 2.995 0 0-1.158 1.487-1.04 2.734 0 0 3.334-.245 4.02-1.64l1.473.316 1.907.411" fill="#fc0"/>
<path d="M319.107 227.944l1.475.32c.046 1.553 2.986 3.15 2.986 3.15.617-1.088.177-2.918.177-2.918 3.824-.14 4.1-1.429 4.1-1.429-.285-1.35-3.564-2.25-3.564-2.25 1.098-.92 1.3-2.743 1.3-2.743-2.24-.353-4.562 1.46-4.562 1.46s2.453-.627 3.055-4.614c0 0-1.217-.324-2.123.312 0 0 .913-4.239-.761-5.113l-.185-.04c-1.888.107-2.803 4.346-2.803 4.346-.565-.958-1.807-1.162-1.807-1.162-1.095 3.879.88 5.464.88 5.464s-1.367-2.61-3.553-3.211c0 0-.57 1.741.053 3.033 0 0-3.358-.53-4.177.58 0 0-.277 1.289 3.149 2.994 0 0-1.158 1.487-1.04 2.733 0 0 3.334-.245 4.02-1.64l1.473.317 1.907.41" fill="#bcac0b" stroke="#000" stroke-width=".653" transform="matrix(1 0 0 1.00008 -.04 -96.055)"/>
<path d="M318.044 132.565a3.038 3.038 0 1 1 1.285-5.94 3.038 3.038 0 0 1-1.285 5.94" fill="#fff"/>
<path d="M318.084 228.602a3.038 3.038 0 1 1 1.284-5.939 3.038 3.038 0 0 1-1.284 5.939z" fill="none" stroke="#000" stroke-width=".404" transform="matrix(1 0 0 1.00008 -.04 -96.055)"/>
<path d="M318.337 131.218a1.659 1.659 0 0 1 .699-3.243 1.66 1.66 0 0 1-.699 3.243" fill="#fff"/>
<path d="M318.377 227.254a1.659 1.659 0 0 1 .699-3.242 1.66 1.66 0 0 1-.699 3.242z" fill="none" stroke="#000" stroke-width=".252" transform="matrix(1 0 0 1.00008 -.04 -96.055)"/>
<path d="M272.226 131.612l-1.497.197c-.175 1.546-3.23 2.904-3.23 2.904-.531-1.134.055-2.924.055-2.924-3.8-.446-3.975-1.756-3.975-1.756.396-1.318 3.735-1.955 3.735-1.955-1.021-1.004-1.074-2.837-1.074-2.837 2.26-.17 4.43 1.821 4.43 1.821s-2.393-.824-2.674-4.845c0 0 1.24-.228 2.094.483 0 0-.571-4.3 1.165-5.04l.188-.02c1.873.254 2.445 4.556 2.445 4.556.641-.908 1.895-1.014 1.895-1.014.78 3.956-1.314 5.373-1.314 5.373s1.571-2.488 3.798-2.91c0 0 .427 1.779-.296 3.016 0 0 3.39-.262 4.117.91 0 0 .173 1.31-3.38 2.734 0 0 1.036 1.573.82 2.808 0 0-3.303-.512-3.877-1.958l-1.496.2-1.93.257" fill="#fc0"/>
<path d="M272.266 227.648l-1.497.197c-.175 1.547-3.23 2.904-3.23 2.904-.531-1.134.055-2.923.055-2.923-3.8-.447-3.975-1.756-3.975-1.756.396-1.318 3.735-1.955 3.735-1.955-1.021-1.004-1.074-2.836-1.074-2.836 2.26-.17 4.43 1.82 4.43 1.82s-2.393-.823-2.674-4.844c0 0 1.24-.228 2.094.483 0 0-.571-4.3 1.165-5.04l.188-.021c1.873.255 2.445 4.556 2.445 4.556.641-.908 1.895-1.013 1.895-1.013.78 3.955-1.314 5.373-1.314 5.373s1.571-2.489 3.798-2.911c0 0 .427 1.78-.296 3.016 0 0 3.39-.262 4.117.91 0 0 .173 1.31-3.38 2.734 0 0 1.036 1.573.82 2.807 0 0-3.303-.511-3.877-1.957l-1.496.2-1.93.256" fill="#bcac0b" stroke="#000" stroke-width=".653" transform="matrix(1 0 0 1.00008 -.04 -96.055)"/>
<path d="M273.189 132.349a3.036 3.036 0 0 0 2.61-3.413 3.035 3.035 0 0 0-3.41-2.609 3.036 3.036 0 1 0 .8 6.022" fill="#fff"/>
<path d="M273.229 228.386a3.036 3.036 0 0 0 2.61-3.413 3.035 3.035 0 0 0-3.41-2.609 3.036 3.036 0 1 0 .8 6.022z" fill="none" stroke="#000" stroke-width=".404" transform="matrix(1 0 0 1.00008 -.04 -96.055)"/>
<path d="M273.009 130.982a1.66 1.66 0 0 0-.437-3.29 1.659 1.659 0 1 0 .437 3.29" fill="#fff"/>
<path d="M273.049 227.02a1.66 1.66 0 0 0-.437-3.29 1.659 1.659 0 1 0 .437 3.29z" fill="none" stroke="#000" stroke-width=".252" transform="matrix(1 0 0 1.00008 -.04 -96.055)"/>
<path d="M340.12 138.068s-.76-1.998-2.442-1.28c-1.682.718-1.509.98-3.012.889 0 0-.586-1.797.153-2.573 0 0-2.402-.898-2.906-3.007 0 0 1.287-1.494 4.338-.937 0 0-.096-1.516.322-2.183 0 0 3.276 1.013 3.293 2.841 0 0-.982-3.586.747-6.19 0 0 1.535.658 1.436 2.292 0 0 .707-3.36 5.249-2.458 0 0-2.462 2.184-2.585 3.183-.122 1-2.176 2.702-2.212 3.27-.031.564-.281 1.556-.884 2.149s-.663 1.6-.615 1.914c.041.32-.103 1.696-.881 2.09" fill="#fc0"/>
<path d="M340.16 234.104s-.76-1.998-2.442-1.28c-1.682.718-1.509.98-3.012.889 0 0-.586-1.797.153-2.572 0 0-2.402-.899-2.906-3.007 0 0 1.287-1.494 4.338-.937 0 0-.096-1.516.322-2.183 0 0 3.276 1.013 3.293 2.84 0 0-.982-3.585.747-6.189 0 0 1.535.659 1.436 2.292 0 0 .707-3.36 5.249-2.457 0 0-2.462 2.183-2.585 3.182-.122 1-2.176 2.702-2.212 3.269-.031.564-.281 1.556-.884 2.15-.603.593-.663 1.6-.615 1.914.041.32-.103 1.696-.881 2.09z" fill="#bcac0b" stroke="#000" stroke-width=".653" transform="matrix(1 0 0 1.00008 -.04 -96.055)"/>
<path d="M337.661 134.08a3.038 3.038 0 0 1 3.562-2.399c.469.09.886.286 1.242.555-.091.57-.346 1.336-.846 1.828-.602.593-.662 1.6-.617 1.914.034.25-.055 1.149-.468 1.718a3.043 3.043 0 0 1-2.873-3.615" fill="#fff"/>
<path d="M337.701 230.117a3.038 3.038 0 0 1 3.562-2.399 2.97 2.97 0 0 1 1.242.555c-.091.57-.346 1.335-.846 1.828-.602.593-.662 1.6-.617 1.914.034.25-.055 1.148-.468 1.717a3.042 3.042 0 0 1-2.873-3.615z" fill="none" stroke="#000" stroke-width=".404" transform="matrix(1 0 0 1.00008 -.04 -96.055)"/>
<path d="M339.016 134.345a1.658 1.658 0 0 1 1.945-1.311c.409.079.747.307.988.614a2.41 2.41 0 0 1-.33.416c-.602.593-.662 1.6-.617 1.914.007.065.007.176-.005.305a1.657 1.657 0 0 1-1.982-1.938" fill="#fff"/>
<path d="M339.056 230.382A1.658 1.658 0 0 1 341 229.07c.409.08.747.308.988.615a2.409 2.409 0 0 1-.33.416c-.602.593-.662 1.6-.617 1.914.007.065.007.175-.005.305a1.657 1.657 0 0 1-1.982-1.938z" fill="none" stroke="#000" stroke-width=".252" transform="matrix(1 0 0 1.00008 -.04 -96.055)"/>
<path d="M252.111 137.232s.88-1.948 2.513-1.131c1.636.817 1.446 1.069 2.957 1.069 0 0 .69-1.76 0-2.578 0 0 2.45-.754 3.08-2.83 0 0-1.195-1.57-4.276-1.193 0 0 .19-1.51-.188-2.2 0 0-3.331.817-3.459 2.64 0 0 1.196-3.522-.377-6.224 0 0-1.57.565-1.57 2.2 0 0-.503-3.396-5.093-2.767 0 0 2.325 2.328 2.39 3.332.062 1.006 2.01 2.83 2.01 3.396 0 .565.19 1.571.755 2.2.567.63.567 1.634.502 1.948-.063.313 0 1.696.756 2.138" fill="#fc0"/>
<path d="M252.151 233.269s.88-1.948 2.513-1.132c1.636.817 1.446 1.07 2.957 1.07 0 0 .69-1.761 0-2.578 0 0 2.45-.754 3.08-2.83 0 0-1.195-1.57-4.276-1.193 0 0 .19-1.51-.188-2.2 0 0-3.331.817-3.459 2.64 0 0 1.197-3.522-.377-6.224 0 0-1.57.565-1.57 2.2 0 0-.503-3.396-5.093-2.766 0 0 2.325 2.327 2.39 3.33.062 1.007 2.01 2.83 2.01 3.397 0 .564.19 1.57.755 2.2.567.63.567 1.633.502 1.948-.063.312 0 1.696.756 2.138z" fill="#bcac0b" stroke="#000" stroke-width=".653" transform="matrix(1 0 0 1.00008 -.04 -96.055)"/>
<path d="M254.802 133.401a3.035 3.035 0 0 0-3.411-2.61 2.991 2.991 0 0 0-1.273.48c.057.574.264 1.352.735 1.875.567.63.567 1.634.502 1.948-.048.245-.015 1.149.367 1.74.154.002.313 0 .471-.022a3.035 3.035 0 0 0 2.609-3.41" fill="#fff"/>
<path d="M254.842 229.438a3.035 3.035 0 0 0-3.411-2.611 3.004 3.004 0 0 0-1.273.48c.057.574.264 1.353.735 1.876.567.63.567 1.633.502 1.948-.048.245-.015 1.148.367 1.739.154.002.313 0 .471-.022a3.035 3.035 0 0 0 2.609-3.41z" fill="none" stroke="#000" stroke-width=".404" transform="matrix(1 0 0 1.00008 -.04 -96.055)"/>
<path d="M253.437 133.581a1.66 1.66 0 0 0-1.864-1.427 1.663 1.663 0 0 0-1.023.555c.089.156.185.305.303.437.567.63.567 1.634.502 1.948a1.717 1.717 0 0 0-.015.303c.212.06.44.08.67.05a1.663 1.663 0 0 0 1.427-1.866" fill="#fff"/>
<path d="M253.477 229.618a1.66 1.66 0 0 0-1.864-1.427 1.663 1.663 0 0 0-1.023.555c.089.156.185.305.303.437.567.63.567 1.633.502 1.948-.012.062-.017.17-.015.303.212.06.44.079.67.05a1.663 1.663 0 0 0 1.427-1.866z" fill="none" stroke="#000" stroke-width=".252" transform="matrix(1 0 0 1.00008 -.04 -96.055)"/>
<path d="M257.241 251.623s33.748-13.22 76.384.284" fill="none" stroke="#000" stroke-width="1.508" transform="matrix(1 0 0 1.00008 -.04 -96.055)"/>
<path d="M338.383 241.096c-47.11-14.92-84.66-.838-84.66-.838" fill="none" stroke="#000" stroke-width=".502" transform="matrix(1 0 0 1.00008 -.04 -96.055)"/>
<path d="M295.929 141.76l-3.774 1.886 3.397 2.137 4.023-2.012-3.646-2.01" fill="red"/>
<path d="M295.969 237.796l-3.774 1.885 3.397 2.138 4.023-2.013-3.646-2.01" fill="none" stroke="#000" stroke-width=".502" transform="matrix(1 0 0 1.00008 -.04 -96.055)"/>
</g>
</svg>
