<svg xmlns="http://www.w3.org/2000/svg" xmlns:xlink="http://www.w3.org/1999/xlink" viewBox="0 0 1080 720">
<path fill="#fcdd09" d="M0 0h1080v720H0z"/>
<path d="M0 80h1080v80H0zm0 160h1080v80H0zm0 160h1080v80H0zm0 160h1080v80H0z" fill="#da121a"/>
<path fill="#40104c" d="M0 0h540v360H0z"/>
<g fill="#fff" stroke="#40104c" stroke-width="1.44">
<path d="M249.88 88.404h40.236v172.33H249.88zm-2.59-5.129h45.437l-2.965 4.796h-39.668l-2.803-4.796z"/>
<path d="M253.34 75.036h-6.556v8.666h46.478v-8.666h-6.556v3.7h-6.127v-3.7h-7.493v3.7h-6.127v-3.7h-7.492v3.7h-6.127v-3.7z"/>
<g id="a">
<path d="M48.217 157.76h40.285v103H48.217zm40.391-44.24h40.236v147.22H88.608zm120.982 44.24h40.285v103H209.59zm-80.64 0h40.285v103H128.95zm40.33-44.24h40.236v147.22H169.28zM43.552 153.48h45.003v4.065H47.891l-4.34-4.065z"/>
<path d="M48.633 144.94h-6.556v8.666h46.478v-8.666h-6.556v3.7h-6.127v-3.7h-7.493v3.7h-6.127v-3.7H54.76v3.7h-6.127v-3.7zm37.385-36.25h45.437l-2.965 4.796H88.822l-2.803-4.796z"/>
<path d="M92.064 100.45h-6.556v8.666h46.478v-8.666h-6.556v3.7h-6.127v-3.7h-7.493v3.7h-6.127v-3.7h-7.492v3.7h-6.127v-3.7zm117.476 51.04v6.89h40.39v-6.89h-40.39z"/>
<path d="M215.24 144.94h-5.697v8.666h40.39v-8.666h-5.698v3.7h-5.324v-3.7H232.4v3.7h-5.325v-3.7h-6.511v3.7h-5.324v-3.7zm-86.34 6.55v6.89h40.39v-6.89H128.9z"/>
<path d="M134.59 144.94h-5.697v8.666h40.39v-8.666h-5.698v3.7h-5.324v-3.7h-6.511v3.7h-5.325v-3.7h-6.511v3.7h-5.324v-3.7zm32.1-36.25h45.437l-2.965 4.796h-39.668l-2.803-4.796z"/>
<path d="M172.73 100.45h-6.556v8.666h46.478v-8.666h-6.556v3.7h-6.127v-3.7h-7.493v3.7h-6.126v-3.7h-7.493v3.7h-6.127v-3.7z"/>
<path d="M48.394 216.6h221.61v14.724H48.394m0-29.444l221.61-.133v-14.361l-221.61-.23M68.36 172.86v13.998m0 15.233v14.325m0 15.044v14.407m-19.966.253h221.61M108.73 113.39v13.998m0 119.16v13.998m0-43.84v13.998m0-87.475v58.385m121.01-42.734v43.067m0 15.194v14.325m-80.65-72.586v43.067m0 15.194v14.325m6.73-58.846v13.998m-13.463-13.998v13.998m94.108-13.998v13.998m-13.463-13.998v13.998M169.43 157.59h39.932m-120.6 0h39.932m60.696-44.2v13.998m0 119.16v13.998m0-43.84v13.998m0-87.475v58.385m-19.96-58.994h39.932m-120.6 0h39.932m40.736-14.88h39.932m-120.6 0h39.932m121.336 29.85l19.966-.01v14.866l-221.61-.01M250.03 127.74l19.966-.075v15.106l-19.966-.151m0-47.089l19.966.322v15.503l-19.966-.152" fill="none"/>
<g stroke-linejoin="round">
<path d="M103.23 165.43l-4.908-2.073c1.732-5.167 4.524-9.624 10.405-11.505v6.426m-4.907 3.112l-3.436-2.384m5.696-.836l-2.061-3.317"/>
<path d="M114.22 165.43l4.908-2.073c-1.732-5.167-4.524-9.624-10.405-11.505v6.426m4.907 3.112l3.436-2.384m-5.686-.836l2.061-3.317M222.8 238.93l-6.196-2.617c2.187-6.522 5.711-12.15 13.136-14.525v8.113m-6.2 3.929l-4.337-3.01m7.187-1.05l-2.602-4.187m12.892 13.347l6.196-2.617c-2.187-6.522-5.711-12.15-13.136-14.525v8.113m6.19 3.929l4.337-3.01m-7.187-1.05l2.602-4.187M142.15 238.93l-6.196-2.617c2.187-6.522 5.711-12.15 13.136-14.525v8.113m-6.19 3.929l-4.337-3.01m7.187-1.05l-2.602-4.187m12.882 13.347l6.196-2.617c-2.187-6.522-5.711-12.15-13.136-14.525v8.113m6.2 3.929l4.337-3.01m-7.187-1.05l2.602-4.187M183.9 165.43l-4.908-2.073c1.732-5.167 4.524-9.624 10.405-11.505v6.426m-4.907 3.112l-3.436-2.384m5.686-.836l-2.061-3.317"/>
<path d="M194.89 165.43l4.908-2.073c-1.732-5.167-4.524-9.624-10.405-11.505v6.426m4.907 3.112l3.436-2.384m-5.696-.836l2.061-3.317m61.939-20.813l-4.005-2.036c1.413-5.074 3.692-9.451 8.491-11.299v6.311m-4.006 3.054l-2.804-2.341m4.654-.819l-1.682-3.257m8.332 10.387l4.005-2.036c-1.413-5.074-3.692-9.451-8.491-11.299v6.311m3.996 3.054l2.804-2.341m-4.644-.819l1.682-3.257m-2.282 96.617l-7.063-3.202c2.493-7.98 6.51-14.865 14.972-17.77v9.925m-7.059 4.797l-4.95-3.68m8.2-1.28l-2.966-5.123"/>
</g>
<path d="M108.69 157.03c-3.301.324-5.243 3.262-6.188 8.075v20.646h12.376v-20.646c-.945-4.813-2.886-7.751-6.188-8.075zm121 71.31c-4.168.409-6.62 4.118-7.812 10.195v22.28h15.624v-22.28c-1.193-6.077-3.644-9.787-7.812-10.195zm-80.65 0c-4.168.409-6.62 4.118-7.812 10.195v22.28h15.624v-22.28c-1.193-6.077-3.644-9.787-7.812-10.195zm40.31-71.31c-3.301.324-5.243 3.262-6.188 8.075v20.646h12.376v-20.646c-.945-4.813-2.887-7.751-6.188-8.075zm71.15-31.24c-2.694.318-4.279 3.204-5.05 7.93v11.47h10.1v-11.47c-.77-4.726-2.356-7.612-5.05-7.93zm9.44 81.51c-4.75.5-7.545 5.039-8.904 12.473v41.013h17.808z" fill="#40104c"/>
</g>
<use xlink:href="#a" transform="matrix(-1 0 0 1 540 0)"/>
</g>
</svg>
