<svg xmlns="http://www.w3.org/2000/svg" xmlns:xlink="http://www.w3.org/1999/xlink" viewBox="0 0 750 500">
<path fill="#9c1f2d" d="M0 0h750v500H0z"/>
<g id="a" fill="#fcb714" stroke="#000" stroke-width=".69">
<path d="M37.391 113.35L52.6 62.616h31.178l15.209 50.733H78.672V91.512l-.109-1.087-.109-1.086-.218-.978-.435-.978-.435-.869-.543-.869-.543-.76-.652-.761-.761-.761-.869-.543-.869-.543-.869-.435-.978-.434-.978-.218-1.087-.109-.978-.109h-.652l-.435.109h-.544l-.543.109-.978.218-.978.434-.869.435-.869.543-.869.543-.652.761-.761.761-.543.76-.543.869-.435.869-.435.978-.218.978-.109.543v.543l-.109.544v22.379H37.391m17.816-70.83v9.668h4.019v-18.25h-10.32v8.582h6.301m8.691 9.669v-9.668h8.582v9.668h.869V27.744h-10.32v24.443h.869m17.381 0v-9.668h6.192v-8.582h-10.32v18.251h4.128"/>
<path d="M55.207 42.518v9.668h8.691v-9.668h8.582v9.668h8.799v-9.668h8.582v16.73H46.625v-16.73h8.582"/>
<path d="M46.408 32.975h15.317v-5.758H46.408v5.758zm14.122-6.192h15.317v-5.975H60.53v5.975zm14.123 6.192h15.426v-5.758H74.653v5.758z" stroke-width=".75"/>
</g>
<use xlink:href="#a" x="72.597"/>
<use xlink:href="#a" y="106.213"/>
<use xlink:href="#a" x="72.597" y="106.213"/>
<path id="b" fill="#fcb714" stroke="#000" stroke-width=".698" stroke-linejoin="round" d="M609.33 369.29c-.012-1.783-.672-3.48-1.31-5.128-1.145-2.513-2.62-4.872-4.257-7.093 1.582.559 3.238.963 4.8 1.59 1.34.715 2.76 1.312 3.912 2.327.624.496 1.26 1.11 1.546 1.866.07.778.026 1.68-.764 2.076-.49.549-1.182.786-1.857.981.089.898.508 1.74.978 2.471.875.754 2 1.049 3.138.913 1.628-.2 3.088-1.21 3.932-2.607.507-.763.702-1.295 1.072-.118a9.953 9.953 0 0 0 1.768 1.965c1.143.827 2.592 1.062 3.974.978.83-.015 1.771-.237 2.444-.658.787-.734.706-2.018.382-2.962-.408-.545-1.293-.786-1.981-.532-.64-.137-1.847.79-1.165-.34.108-.827.718-1.548 1.283-2.13.457-.43 1.21-.668 1.644-.804.676-1.21 1.285-2.697 2.62-3.274 1.055-.054 1.766.992 2.349 1.748.416.51.537 1.622 1.19 1.636.955.307 1.845 1.012 2.238 1.947.193.407 1.117 1.868.196 1.389-.735-.14-1.529-.39-2.258-.172-.792.21-1.035.932-.984 1.684-.12.971.395 2 1.429 2.179 1.118.368 2.372.397 3.51.171 1.078-.178 2.073-.65 2.79-1.499.686-.601 1.15-1.43 1.55-2.203.625 1.122 1.379 2.354 2.591 2.952 1.368.799 3.233.975 4.613.105.914-.629 1.272-1.776 1.42-2.838-.75-.176-1.374-.561-1.96-1.051-1.177-.766-.618-2.46.234-3.274a11.597 11.597 0 0 1 3.492-2.355c1.138-.515 2.234-1.136 3.484-1.37.816-.319 1.656-.556 2.498-.791-1.073 1.325-1.922 2.846-2.898 4.254-.971 1.88-2.063 3.748-2.42 5.868-.482 1.896-.152 3.88-.249 5.819v8.174H609.35V369.29"/>
<use xlink:href="#b" x="-61.869" y="31.532"/>
<use xlink:href="#b" y="31.532"/>
<use xlink:href="#b" x="61.865" y="31.532"/>
<use xlink:href="#b" x="-33.952" y="63.394"/>
<use xlink:href="#b" x="33.934" y="63.394"/>
<use xlink:href="#b" y="94.927"/>
</svg>
