<svg xmlns="http://www.w3.org/2000/svg" viewBox="0 0 675 450">
<path fill="#0072BC" d="M0 .996h225v448.009H0z"/>
<path fill="#FCDD09" d="M219.812.996H675v448.009H219.812z"/>
<path fill="#DA121A" d="M219.812 249.889H675v49.779H219.812zm0 99.558H675v49.779H219.812zm0-199.115H675v49.779H219.812zm0-99.558H675v49.779H219.812z"/>
<path fill="#DA121A" d="M175.542.996h49.766v448.009h-49.766z"/>
<path fill="#FCDD09" stroke="#000" stroke-width=".5" d="M102.723 409.472s-20.386 45.064-29.51 23.461c0 0 2.643 1.02 4.621-.997 1.774-1.818 1.587-3.514-.504-6.038-2.231-2.707-8.645-1.511-9.919 1.702-2.935 7.389 3.951 17.155 10.272 16.722 16.557-1.122 18.413-18.871 29.432-34.013.664-.915-4.392-.837-4.392-.837zm.333-51.922s-20.386-45.063-29.51-23.46c0 0 2.647-1.02 4.62 1.003 1.774 1.813 1.588 3.509-.498 6.037-2.238 2.703-8.65 1.512-9.926-1.705-2.929-7.389 3.952-17.15 10.272-16.722 16.557 1.122 18.414 18.871 29.432 34.013.665.911-4.39.834-4.39.834z"/>
<path fill="#FCDD09" stroke="#000" stroke-width=".5" d="M171.576 368.152c-2.944 5.643-26.906 14.762-26.906 14.762s23.449 8.857 26.614 14.831l.293 8.727c-11.937-16.212-23.766-17.705-32.997-18.201-6.55-.349-5.935 3.471-4.733 4.998 10.706 13.625-3.107 17.489-5.237 28.763-.108.564-1.715-1.915-2.226-5.173-.343-2.149.331-5.318.331-5.318-4.761 7.928-10.809 1.59-14.506 9.456 0 0-.767-1.249-1.153-1.619-1.061-1.003-4.474-.496-4.968-9.45-.019-.311-3.907.715-3.907.715 2.16-7.41 21.076-15.649 16.152-20.451-5.558-5.43-5.993 11.608-14.697 12.766-.498.068 1.296-4.929 1.296-4.929-4.06.225-5.867 4.929-6.341 7.7l-.952-2.566c-3.942-2.216.952-13.319-.84-15.221-1.398-1.482-6.052 4.623-8.078 5.616-2.014.982-13.408.982-7.829 7.904.444.554-1.138-3.092 1.495-3.573 2.91-.531 2.808 2.878 2.804 3.214-.025 1.424-2.608 4.879-6.663 2.921-.229-.113-7.819-5.619 2.077-13.45 0 0-6.057 3.699-12.436-2.938-1.363-1.419-3.198-3.214-5.402-4.589 2.199-1.382 3.815-3.047 5.173-4.472 6.355-6.65 12.425-2.98 12.425-2.98-9.929-7.792-2.354-13.328-2.124-13.44 4.043-1.974 6.641 1.472 6.671 2.898.01.335.123 3.743-2.794 3.219-2.631-.472-1.064-4.123-1.51-3.564-5.553 6.943 5.847 6.903 7.859 7.877 2.032.982 6.71 7.096 8.102 5.609 1.784-1.906-3.149-13.018.782-15.244l.948-2.571c.479 2.767 2.306 7.472 6.365 7.681 0 0-1.812-4.998-1.315-4.929 8.709 1.128 9.206 18.167 14.746 12.713 4.904-4.822-14.043-12.989-16.23-20.388 0 0 3.893 1.011 3.907.699.465-8.959 3.878-8.462 4.934-9.469.39-.374 1.148-1.624 1.148-1.624 3.726 7.852 9.754 1.493 14.541 9.402 0 0-.684-3.17-.353-5.317.504-3.259 2.096-5.746 2.209-5.181 2.172 11.263 15.995 15.084 5.343 28.743-1.192 1.532-1.797 5.352 4.753 4.978 9.226-.526 21.051-2.06 32.93-18.316l.299 8.781z"/>
<path fill="none" stroke="#000" stroke-width=".5" d="M97.639 403.162c1.294-11.02 10.608-14.604 10.398-19.99-.215-5.391-9.627-11.024-10.687-20.231m13.256 56.234c-7.35-15.219 16.239-20.291 15.464-35.992-.743-14.914-22.975-21.51-15.606-36.207m33.921 36.036l-81.62.03"/>
<path fill="#FCDD09" stroke="#000" stroke-width=".5" d="M136.951 298.875c-2.583-7.135-10.139-9.066-14.423-9.211-4.816-.166-12.332 6.363-16.918 9.211-4.084 2.527-11.503-.792-12.675-3.652-2.618-6.402 1.51-7.631 3.467-7.262 0 0-2.426 4.617 1.617 4.024 2.549-.374 3.169-4.128 2.754-5.639-.83-2.99-5.055-2.659-6.754-2.158-5.496 1.619-4.576 9.266-2.749 12.197 2.715 4.356 9.509 5.027 13.837 4.393 6.55-.952 11.932-7.715 15.844-7.548 1.036.044 2.096 3.632 1.079 3.816-6.624 1.206-5.748 5.893-5.748 5.893v.083s-.876 4.647 5.748 5.853c1.017.186-.303 3.855-1.333 3.899-3.917.166-9.041-6.679-15.591-7.632-4.327-.632-11.12.039-13.837 4.393-1.827 2.931-2.745 10.579 2.749 12.197 1.7.502 5.925.831 6.754-2.157.415-1.507-.205-5.265-2.754-5.639-4.043-.594-1.617 4.024-1.617 4.024-1.957.369-6.086-.856-3.467-7.263 1.172-2.859 8.591-6.179 12.675-3.652 4.586 2.85 12.102 9.378 16.918 9.212 4.284-.151 11.839-2.075 14.423-9.212v-8.171h.001v.001z"/>
<path fill="#FCDD09" stroke="#000" stroke-width=".5" d="M170.125 294.188c-.913 4.731-12.752 8.794-12.752 8.794s11.668 6.056 13.339 11.034l-.293 5.727c-3.751-12.883-18.317-13.879-18.317-13.879 3.062 4.356 5.813 10.394-1.627 16.369 0 0 2.179-5.562 1.061-6.908 0 0-1.002 3.486-5.187 6.717-1.745 1.346-6.38 1.123-8.504 2.368l1.812-5.663c-2.188 4.604-8.44 5.225-8.44 5.225-.361-1.571-.176-5.396 1.748-8.337 3.63-5.537 2.75-9.461 2.75-9.461-3.126 6.908-15.376 7.53-17.691 5.785-.313-.235 2.749-3.234 2.749-3.234-1.123.184-4.19-1.994-4.126-2.615.088-.875 2.13-2.801 2.5-3.359 0 0-2.325-1.901-2.413-2.781-.064-.623 2.998-2.796 4.122-2.61 0 0-3.062-2.999-2.749-3.237 2.315-1.741 14.564-1.119 17.695 5.789 0 0 .874-3.923-2.749-9.461-1.93-2.941-2.116-6.766-1.755-8.337 0 0 6.252.623 8.44 5.225l-1.812-5.662c2.124 1.244 6.759 1.015 8.504 2.362 4.191 3.239 5.187 6.722 5.187 6.722 1.119-1.346-1.059-6.907-1.059-6.907 7.438 5.973 4.689 12.007 1.627 16.362 0 0 14.564-.993 18.315-13.873l-.375 7.845zm-68.926 10.33c-4 .122-9.514 2.94-14.462 2.197-3.585-.541-10.047-4.77-10.047-4.77s6.506-3.363 9.753-4.108c5.29-1.216 10.628 3.397 14.63 3.486.8.017.927 3.172.126 3.195z"/>
<path fill="#FCDD09" stroke="#000" stroke-width=".5" d="M101.301 296.467c2.228-.496 1.774 6.35 1.774 6.35 0 .949.289 5.975-1.774 6.389-2.354-.292-1.73-6.431-1.73-6.431s-.247-6.389 1.73-6.308zm14.941 6.263l41.385.291m-18.257 16.387l5.92-16.509m-.002.001l-5.793-16.222m-36.439-37.165s-20.386 45.069-29.51 23.465c0 0 2.647 1.017 4.62-1.001 1.774-1.813 1.588-3.51-.498-6.038-2.238-2.703-8.65-1.512-9.926 1.705-2.929 7.39 3.952 17.152 10.272 16.724 16.557-1.123 18.414-18.871 29.432-34.013.665-.914-4.39-.842-4.39-.842zm.336-51.916s-20.39-45.069-29.509-23.465c0 0 2.641-1.017 4.615 1.001 1.774 1.818 1.592 3.51-.498 6.039-2.238 2.703-8.65 1.512-9.926-1.705-2.93-7.39 3.951-17.15 10.272-16.724 16.557 1.124 18.413 18.871 29.432 34.013.665.914-4.386.841-4.386.841z"/>
<path fill="#FCDD09" stroke="#000" stroke-width=".5" d="M171.907 208.194c-2.944 5.643-26.903 14.763-26.903 14.763s23.444 8.857 26.61 14.831l.293 8.732c-11.937-16.213-23.767-17.71-32.999-18.201-6.55-.35-5.93 3.471-4.733 4.997 10.707 13.622-3.105 17.491-5.235 28.764-.108.564-1.71-1.915-2.228-5.179-.341-2.142.333-5.312.333-5.312-4.763 7.923-10.809 1.584-14.506 9.456 0 0-.763-1.249-1.153-1.619-1.056-1.003-4.474-.497-4.968-9.45-.02-.311-3.902.709-3.902.709 2.155-7.409 21.069-15.642 16.152-20.451-5.563-5.43-5.998 11.608-14.702 12.771-.498.068 1.294-4.929 1.294-4.929-4.059.218-5.861 4.929-6.335 7.695l-.958-2.561c-3.941-2.217.953-13.321-.84-15.226-1.397-1.477-6.052 4.628-8.078 5.616-2.012.982-13.406.982-7.828 7.908.444.556-1.134-3.091 1.495-3.573 2.91-.534 2.813 2.879 2.803 3.214-.024 1.42-2.608 4.875-6.663 2.916-.23-.108-7.819-5.619 2.076-13.451 0 0-6.057 3.701-12.435-2.93-1.363-1.42-3.199-3.219-5.402-4.589 2.198-1.387 3.813-3.048 5.172-4.472 6.355-6.655 12.426-2.98 12.426-2.98-9.931-7.792-2.355-13.329-2.125-13.441 4.043-1.973 6.642 1.473 6.671 2.894.01.335.123 3.747-2.793 3.224-2.631-.472-1.061-4.123-1.51-3.569-5.553 6.947 5.847 6.903 7.858 7.881 2.032.982 6.71 7.096 8.103 5.611 1.782-1.906-3.151-13.023.782-15.249l.948-2.566c.483 2.762 2.309 7.466 6.364 7.676 0 0-1.812-4.998-1.309-4.929 8.704 1.132 9.203 18.166 14.742 12.717 4.903-4.827-14.043-12.994-16.225-20.393 0 0 3.892 1.011 3.907.699.459-8.959 3.878-8.462 4.933-9.469.386-.369 1.143-1.624 1.143-1.624 3.727 7.852 9.754 1.492 14.541 9.402 0 0-.684-3.17-.351-5.313.503-3.262 2.101-5.745 2.208-5.183 2.172 11.259 15.995 15.081 5.343 28.744-1.192 1.527-1.797 5.347 4.753 4.978 9.231-.526 21.051-2.066 32.93-18.322l.301 8.783z"/>
<path fill="none" stroke="#000" stroke-width=".5" d="M97.97 243.205c1.294-11.017 10.614-14.599 10.4-19.99-.215-5.391-9.628-11.02-10.687-20.232m13.255 56.239c-7.35-15.221 16.24-20.291 15.464-35.992-.737-14.914-22.975-21.51-15.605-36.207m33.926 36.036l-81.625.03"/>
<path fill="#FCDD09" stroke="#000" stroke-width=".5" d="M102.39 91.219s-20.385 45.069-29.509 23.465c0 0 2.641 1.017 4.62-1.001 1.774-1.813 1.588-3.51-.503-6.039-2.236-2.703-8.65-1.512-9.926 1.705-2.93 7.39 3.956 17.15 10.277 16.724 16.557-1.124 18.409-18.871 29.427-34.013.665-.915-4.386-.841-4.386-.841zm.333-51.919S82.337-5.769 73.213 15.835c0 0 2.643-1.017 4.621 1.001 1.774 1.813 1.587 3.51-.504 6.039-2.231 2.703-8.645 1.512-9.919-1.705-2.935-7.39 3.951-17.152 10.272-16.724C94.24 5.57 96.096 23.317 107.114 38.459c.665.915-4.391.841-4.391.841z"/>
<path fill="#FCDD09" stroke="#000" stroke-width=".5" d="M171.239 49.899c-2.94 5.643-26.903 14.763-26.903 14.763s23.444 8.857 26.614 14.831l.294 8.732c-11.942-16.218-23.767-17.71-32.997-18.201-6.555-.35-5.935 3.471-4.733 4.992 10.706 13.626-3.105 17.496-5.24 28.768-.103.561-1.711-1.915-2.228-5.176-.336-2.142.333-5.312.333-5.312-4.758 7.923-10.805 1.584-14.502 9.449 0 0-.767-1.244-1.153-1.618-1.059-1.003-4.474-.497-4.967-9.45-.02-.306-3.907.714-3.907.714 2.159-7.409 21.074-15.642 16.152-20.451-5.559-5.431-5.993 11.608-14.697 12.77-.499.064 1.294-4.934 1.294-4.934-4.059.225-5.866 4.934-6.34 7.701l-.953-2.567c-3.941-2.211.948-13.319-.84-15.219-1.397-1.482-6.052 4.623-8.083 5.616-2.006.982-13.406.982-7.824 7.903.445.556-1.138-3.091 1.491-3.573 2.915-.531 2.813 2.879 2.808 3.214-.025 1.425-2.608 4.88-6.661 2.923-.235-.112-7.824-5.621 2.075-13.451 0 0-6.062 3.701-12.435-2.935-1.363-1.42-3.199-3.214-5.408-4.59 2.204-1.38 3.815-3.047 5.178-4.471 6.355-6.65 12.421-2.98 12.421-2.98-9.926-7.793-2.354-13.329-2.126-13.441 4.05-1.974 6.647 1.473 6.678 2.898.01.336.123 3.743-2.793 3.219-2.633-.472-1.066-4.117-1.51-3.563-5.554 6.942 5.842 6.903 7.858 7.874 2.032.982 6.71 7.096 8.098 5.611 1.787-1.906-3.146-13.018.785-15.249l.948-2.566c.479 2.766 2.305 7.471 6.365 7.676 0 0-1.812-4.993-1.315-4.924 8.709 1.128 9.208 18.161 14.746 12.712 4.904-4.826-14.042-12.993-16.229-20.392 0 0 3.892 1.011 3.907.699.464-8.959 3.877-8.463 4.933-9.469.391-.369 1.148-1.624 1.148-1.624 3.727 7.852 9.754 1.492 14.541 9.402 0 0-.684-3.17-.351-5.313.503-3.263 2.096-5.745 2.208-5.181 2.175 11.259 15.995 15.079 5.344 28.744-1.192 1.526-1.798 5.352 4.753 4.978 9.226-.526 21.051-2.066 32.93-18.322l.293 8.783z"/>
<path fill="none" stroke="#000" stroke-width=".5" d="M97.306 84.908c1.289-11.015 10.608-14.603 10.398-19.989-.219-5.391-9.627-11.025-10.691-20.232m13.261 56.235c-7.35-15.215 16.239-20.286 15.464-35.992-.743-14.915-22.98-21.505-15.604-36.202m33.92 36.036l-81.626.029"/>
<path fill="#FCDD09" stroke="#000" stroke-width=".5" d="M136.614 139.914c-2.583-7.137-10.139-9.063-14.418-9.213-4.815-.164-12.332 6.365-16.923 9.213-4.079 2.527-11.497-.788-12.67-3.652-2.618-6.402 1.505-7.632 3.463-7.258 0 0-2.423 4.613 1.622 4.021 2.549-.369 3.169-4.128 2.749-5.639-.825-2.989-5.05-2.658-6.75-2.157-5.494 1.619-4.576 9.265-2.749 12.197 2.715 4.356 9.51 5.027 13.838 4.393 6.544-.954 11.932-7.71 15.843-7.544 1.037.045 2.096 3.627 1.076 3.812-6.624 1.206-5.745 5.892-5.745 5.892v.089s-.879 4.642 5.745 5.848c1.021.185-.298 3.854-1.335 3.899-3.911.164-9.04-6.68-15.584-7.632-4.327-.633-11.123.044-13.838 4.399-1.827 2.93-2.744 10.579 2.749 12.192 1.701.501 5.926.831 6.75-2.153.42-1.511-.2-5.269-2.749-5.643-4.045-.587-1.622 4.026-1.622 4.026-1.96.373-6.082-.856-3.463-7.258 1.173-2.864 8.591-6.184 12.67-3.652 4.591 2.844 12.108 9.377 16.923 9.207 4.279-.151 11.834-2.076 14.418-9.207v-8.18z"/>
<path fill="#FCDD09" stroke="#000" stroke-width=".5" d="M169.793 135.232c-.919 4.725-12.753 8.793-12.753 8.793s11.668 6.054 13.339 11.03l-.293 5.726c-3.751-12.881-18.32-13.878-18.32-13.878 3.062 4.356 5.817 10.393-1.622 16.367 0 0 2.179-5.557 1.059-6.908 0 0-1.001 3.486-5.187 6.719-1.745 1.352-6.38 1.122-8.504 2.367l1.812-5.663c-2.189 4.605-8.44 5.226-8.44 5.226-.361-1.571-.175-5.396 1.75-8.339 3.623-5.537 2.749-9.459 2.749-9.459-3.126 6.908-15.381 7.53-17.69 5.789-.318-.237 2.749-3.237 2.749-3.237-1.124.19-4.191-1.994-4.127-2.615.088-.875 2.124-2.796 2.5-3.359 0 0-2.329-1.901-2.418-2.782-.058-.623 3.004-2.796 4.127-2.609 0 0-3.062-2.999-2.749-3.239 2.311-1.739 14.564-1.118 17.695 5.79 0 0 .876-3.924-2.754-9.461-1.925-2.94-2.11-6.766-1.748-8.336 0 0 6.252.623 8.44 5.225l-1.812-5.663c2.124 1.244 6.759 1.017 8.502 2.364 4.186 3.237 5.188 6.722 5.188 6.722 1.118-1.346-1.061-6.908-1.061-6.908 7.438 5.975 4.689 12.008 1.627 16.364 0 0 14.564-.992 18.315-13.874l-.374 7.848zm-68.925 10.325c-4.001.121-9.515 2.94-14.463 2.196-3.585-.54-10.047-4.768-10.047-4.768s6.501-3.358 9.754-4.107c5.289-1.216 10.628 3.402 14.628 3.485.801.015.928 3.17.128 3.194z"/>
<path fill="#FCDD09" stroke="#000" stroke-width=".5" d="M100.971 137.512c2.226-.501 1.769 6.345 1.769 6.345 0 .952.293 5.973-1.769 6.387-2.355-.286-1.73-6.426-1.73-6.426s-.254-6.388 1.73-6.306zm14.94 6.26l41.383.287m-18.257 16.388l5.92-16.509m0 0l-5.793-16.222m31.88 222.975c-4.064-10.953-18.947-9.772-18.947-9.772s14.82.127 18.57-12.756l.377 22.528zm0 65.704c-4.064 10.951-18.947 9.77-18.947 9.77s14.82-.126 18.57 12.756l.377-22.526z"/>
<path fill="#FCDD09" stroke="#000" stroke-width=".5" d="M136.897 426.476s6.096 4.851 10.154 3.919c0 0-4.689 4.545-.81 8.089 0 0 1.192-4.667 6.813-5.538 4.728-.729 6.641-4.609 6.565-6.47v.064c.078-1.862-1.837-5.74-6.565-6.47-5.627-.875-6.813-5.537-6.813-5.537-3.873 3.543.81 8.089.81 8.089-4.058-.938-10.154 3.856-10.154 3.854zM170.54 255.61c-4.064 10.953-18.941 9.772-18.941 9.772s14.813-.127 18.564 12.756l.377-22.528zm.504-63.717c-4.064-10.953-18.947-9.77-18.947-9.77s14.82.126 18.57-12.751l.377 22.521zm0-96.071c-4.064 10.953-18.947 9.767-18.947 9.767s14.82-.122 18.57 12.756l.377-22.523zm0-63.22c-4.064-10.953-18.947-9.77-18.947-9.77s14.82.126 18.57-12.751l.377 22.521z"/>
<path fill="#FCDD09" d="M170.041.249h5.502v449.502h-5.502z"/>
<path d="M175.293.498v449.004h-5.002V.498h5.002m.5-.498h-6.002v450h6.002V0z"/>
<path fill="#FCDD09" stroke="#000" stroke-width=".5" d="M137.23 340.195s6.096 4.851 10.159 3.919c0 0-4.689 4.545-.812 8.089 0 0 1.187-4.667 6.813-5.538 4.724-.729 6.637-4.608 6.564-6.47v.064c.074-1.862-1.841-5.74-6.564-6.475-5.627-.87-6.813-5.537-6.813-5.537-3.877 3.548.812 8.089.812 8.089-4.063-.934-10.159 3.859-10.159 3.859zm-.333-74.668s6.096 4.851 10.159 3.919c0 0-4.689 4.545-.815 8.089 0 0 1.192-4.667 6.818-5.538 4.723-.729 6.636-4.609 6.56-6.47v.064c.078-1.862-1.837-5.74-6.56-6.47-5.627-.875-6.818-5.542-6.818-5.542-3.873 3.548.815 8.089.815 8.089-4.063-.933-10.159 3.859-10.159 3.859zm.333-83.296s6.096 4.85 10.159 3.918c0 0-4.689 4.545-.812 8.089 0 0 1.187-4.667 6.813-5.537 4.724-.729 6.637-4.609 6.564-6.47v.063c.074-1.862-1.841-5.74-6.564-6.475-5.627-.87-6.813-5.537-6.813-5.537-3.877 3.549.812 8.089.812 8.089-4.063-.934-10.159 3.86-10.159 3.86zm0-76.662s6.096 4.85 10.159 3.918c0 0-4.689 4.546-.812 8.089 0 0 1.187-4.667 6.813-5.537 4.724-.729 6.637-4.609 6.564-6.47v.064c.074-1.862-1.841-5.74-6.564-6.47-5.627-.876-6.813-5.538-6.813-5.538-3.877 3.544.812 8.089.812 8.089-4.063-.939-10.159 3.855-10.159 3.855zm.332-82.965s6.096 4.855 10.159 3.923c0 0-4.689 4.541-.81 8.089 0 0 1.187-4.667 6.813-5.537 4.723-.734 6.644-4.609 6.565-6.47v.059c.074-1.862-1.842-5.74-6.565-6.47-5.627-.871-6.813-5.538-6.813-5.538-3.878 3.544.81 8.089.81 8.089-4.064-.935-10.159 3.855-10.159 3.855z"/>
<g stroke="#000" stroke-width=".25">
<path fill="#FFF" stroke-miterlimit="10" d="M206.41 424.279c0 4.122-3.356 7.467-7.502 7.467-4.142 0-7.502-3.346-7.502-7.467 0-4.128 3.359-7.467 7.502-7.467 4.146.001 7.502 3.34 7.502 7.467zm0-99.557c0 4.122-3.356 7.467-7.502 7.467-4.142 0-7.502-3.346-7.502-7.467 0-4.123 3.359-7.467 7.502-7.467 4.146.001 7.502 3.345 7.502 7.467zm0-99.557c0 4.122-3.356 7.466-7.502 7.466-4.142 0-7.502-3.346-7.502-7.466 0-4.123 3.359-7.466 7.502-7.466 4.146-.002 7.502 3.344 7.502 7.466zm0-99.557c0 4.122-3.356 7.466-7.502 7.466-4.142 0-7.502-3.346-7.502-7.466 0-4.123 3.359-7.466 7.502-7.466 4.146-.002 7.502 3.343 7.502 7.466zm0-99.558c0 4.127-3.356 7.466-7.502 7.466-4.142 0-7.502-3.341-7.502-7.466 0-4.123 3.359-7.466 7.502-7.466 4.146-.002 7.502 3.343 7.502 7.466z"/>
<g stroke-miterlimit="10">
<path fill="#FCDD09" d="M186.463 76.25l12.419-12.366 12.417 12.366-12.417 12.363z"/>
<path fill="#DA121A" d="M187.376 76.339l3.746 3.728h3.922v3.904l3.751 3.728h.171l3.751-3.728v-3.904h3.922l3.746-3.728v-.176l-3.746-3.728h-3.922v-3.904l-3.751-3.733h-.171l-3.751 3.733v3.904h-3.922l-3.746 3.728z"/>
<path fill="#FCDD09" d="M193.667 66.397c.563.561-.029 2.052-1.318 3.335-1.291 1.278-2.784 1.867-3.346 1.308-.562-.56.034-2.048 1.32-3.331 1.288-1.277 2.782-1.867 3.344-1.312zm10.447 0c-.562.561.029 2.052 1.318 3.335 1.291 1.278 2.784 1.867 3.346 1.308.562-.56-.029-2.048-1.318-3.331-1.29-1.277-2.789-1.867-3.346-1.312zm0 19.679c-.562-.555.029-2.048 1.318-3.331 1.291-1.283 2.789-1.872 3.346-1.316.562.56-.029 2.05-1.318 3.334-1.29 1.285-2.789 1.871-3.346 1.313zm-10.442.005c-.562.56-2.06-.03-3.349-1.318-1.286-1.283-1.876-2.776-1.32-3.331.562-.555 2.061.035 3.346 1.318 1.289 1.284 1.88 2.777 1.323 3.331zm1.284-23.922c0-.641 1.446-1.23 3.111-1.39.336-.034.815-.447.815-.447s.484.422.743.447c1.797.131 3.233.719 3.233 1.39 0 .773-1.768 1.395-3.951 1.395-2.177 0-3.951-.623-3.951-1.395zm7.904 28.185c0 .636-1.441 1.23-3.111 1.395-.338.029-.817.442-.817.442s-.483-.423-.738-.442c-1.802-.137-3.237-.724-3.237-1.395 0-.773 1.773-1.395 3.956-1.395 2.178 0 3.947.623 3.947 1.395zm-18.111-10.155c-.645 0-1.237-1.444-1.398-3.101-.034-.335-.444-.811-.444-.811s.425-.477.444-.734c.128-1.793.719-3.224 1.398-3.224.777 0 1.402 1.764 1.402 3.933-.001 2.171-.626 3.937-1.402 3.937zm28.318-7.871c.645 0 1.236 1.44 1.402 3.097.034.335.445.811.445.811s-.425.477-.445.734c-.131 1.793-.723 3.224-1.402 3.224-.772 0-1.397-1.759-1.397-3.934.001-2.172.625-3.932 1.397-3.932z"/>
</g>
<g stroke-miterlimit="10">
<path fill="#FCDD09" d="M196.661 192.478c0 1.235 1.007 2.236 2.248 2.236s2.253-1.003 2.253-2.236a2.244 2.244 0 0 0-2.253-2.236 2.238 2.238 0 0 0-2.248 2.236zm0-35.098c0 1.235 1.007 2.236 2.248 2.236s2.253-1.003 2.253-2.236-1.012-2.236-2.253-2.236a2.242 2.242 0 0 0-2.248 2.236zm10.575 17.596c0 8.148-3.741 14.749-8.357 14.749-4.615 0-8.361-6.602-8.361-14.749s3.746-14.752 8.361-14.752 8.357 6.607 8.357 14.752z"/>
<path fill="#078930" d="M205.926 174.836c0-6.962-2.754-12.683-6.286-13.368-.235-.049-.733.875-.733.875s-.469-.919-.709-.875c-3.526.699-6.276 6.416-6.276 13.368v.142c0 6.962 2.754 12.684 6.286 13.369.24.044.738-.875.738-.875s.469.919.708.87c3.527-.695 6.272-6.413 6.272-13.364v-.142z"/>
<path fill="#FCDD09" d="M209.867 174.976a1.124 1.124 0 0 0-2.247 0 1.12 1.12 0 0 0 1.124 1.118 1.117 1.117 0 0 0 1.123-1.118zm-19.737 0a1.125 1.125 0 0 0-2.252 0 1.12 1.12 0 0 0 1.124 1.118 1.119 1.119 0 0 0 1.128-1.118zm15.943 13.028c0-.623-.503-1.122-1.123-1.122s-1.124.501-1.124 1.122c0 .617.504 1.118 1.124 1.118a1.118 1.118 0 0 0 1.123-1.118zm-12.153 0c0-.623-.503-1.122-1.123-1.122s-1.123.501-1.123 1.122a1.12 1.12 0 0 0 1.123 1.118 1.118 1.118 0 0 0 1.123-1.118zm-3.018-6.221a2.243 2.243 0 0 0-2.246-2.241 2.245 2.245 0 0 0-2.253 2.241 2.243 2.243 0 0 0 2.253 2.236 2.242 2.242 0 0 0 2.246-2.236zm20.51-.073c0-1.236-1.007-2.236-2.248-2.236s-2.248 1.001-2.248 2.236c0 1.235 1.007 2.235 2.248 2.235s2.248-1 2.248-2.235zm-19.67-19.857c0 .623.504 1.122 1.129 1.122a1.12 1.12 0 0 0 0-2.241c-.625.001-1.129.5-1.129 1.119zm12.152 0a1.12 1.12 0 0 0 1.123 1.122c.625 0 1.129-.501 1.129-1.122 0-.619-.504-1.119-1.129-1.119-.62.001-1.123.5-1.123 1.119zm3.024 6.221c0 1.239 1.007 2.24 2.248 2.24s2.248-1.001 2.248-2.24c0-1.236-1.007-2.236-2.248-2.236s-2.248 1.001-2.248 2.236zm-20.514.073a2.243 2.243 0 0 0 2.253 2.236 2.242 2.242 0 0 0 2.246-2.236 2.241 2.241 0 0 0-2.246-2.236 2.243 2.243 0 0 0-2.253 2.236z"/>
</g>
<path fill="#FCDD09" d="M196.661 390c0 1.24 1.007 2.241 2.248 2.241s2.253-1.003 2.253-2.241a2.247 2.247 0 0 0-2.253-2.236 2.242 2.242 0 0 0-2.248 2.236zm0-35.093c0 1.234 1.007 2.236 2.248 2.236s2.253-1.003 2.253-2.236a2.243 2.243 0 0 0-2.253-2.236 2.24 2.24 0 0 0-2.248 2.236zm10.575 17.593c0 8.148-3.741 14.752-8.357 14.752-4.615 0-8.361-6.606-8.361-14.752 0-8.147 3.746-14.749 8.361-14.749s8.357 6.602 8.357 14.749z"/>
<path fill="#078930" d="M205.926 372.358c0-6.956-2.754-12.678-6.286-13.363-.235-.049-.733.875-.733.875s-.469-.918-.709-.875c-3.526.7-6.276 6.417-6.276 13.363v.148c0 6.957 2.754 12.678 6.286 13.368.235.044.738-.875.738-.875s.469.919.708.87c3.522-.695 6.272-6.417 6.272-13.363v-.148z"/>
<path fill="#FCDD09" d="M209.867 372.505c0-.617-.503-1.123-1.123-1.123s-1.124.507-1.124 1.123.504 1.118 1.124 1.118a1.12 1.12 0 0 0 1.123-1.118zm-19.737 0a1.126 1.126 0 0 0-2.252 0c0 .616.504 1.118 1.124 1.118a1.122 1.122 0 0 0 1.128-1.118zm15.943 13.024c0-.619-.503-1.118-1.123-1.118s-1.124.501-1.124 1.118.504 1.118 1.124 1.118a1.122 1.122 0 0 0 1.123-1.118zm-12.153 0c0-.619-.503-1.118-1.123-1.118s-1.123.501-1.123 1.118.503 1.118 1.123 1.118a1.12 1.12 0 0 0 1.123-1.118zm-3.018-6.223a2.24 2.24 0 0 0-2.246-2.236 2.243 2.243 0 0 0-2.253 2.236 2.24 2.24 0 0 0 2.253 2.235c1.24 0 2.246-.995 2.246-2.235zm20.51-.068c0-1.235-1.007-2.236-2.248-2.236s-2.248 1.003-2.248 2.236c0 1.234 1.007 2.236 2.248 2.236s2.248-1.002 2.248-2.236zm-19.67-19.858c0 .617.504 1.118 1.129 1.118a1.12 1.12 0 0 0 1.123-1.118c0-.617-.503-1.119-1.123-1.119a1.122 1.122 0 0 0-1.129 1.119zm12.152 0a1.12 1.12 0 0 0 1.123 1.118c.625 0 1.129-.501 1.129-1.118 0-.617-.504-1.119-1.129-1.119a1.12 1.12 0 0 0-1.123 1.119zm3.024 6.222c0 1.235 1.007 2.236 2.248 2.236s2.248-1.003 2.248-2.236c0-1.234-1.007-2.236-2.248-2.236s-2.248 1.002-2.248 2.236zm-20.514.072a2.242 2.242 0 0 0 2.253 2.236 2.24 2.24 0 0 0 2.246-2.236 2.237 2.237 0 0 0-2.246-2.235 2.24 2.24 0 0 0-2.253 2.235zm24.912-90.583l-12.421 12.361-12.418-12.359 12.419-12.362z"/>
<path fill="#DA121A" stroke-miterlimit="10" d="M187.376 275.288l3.746 3.729h3.927v3.904l3.746 3.728h.176l3.746-3.728v-3.904h3.922l3.746-3.729v-.18l-3.746-3.723h-3.922v-3.904l-3.746-3.734h-.176l-3.746 3.734v3.904h-3.927l-3.746 3.728z"/>
<path fill="#FCDD09" d="M193.662 265.353c.563.56-.029 2.047-1.318 3.329-1.286 1.284-2.784 1.872-3.346 1.313-.562-.555.029-2.048 1.32-3.33 1.288-1.284 2.787-1.872 3.344-1.312zm10.437-.006c.562-.56 2.057.029 3.346 1.311 1.289 1.284 1.881 2.777 1.323 3.33-.562.56-2.06-.029-3.349-1.313-1.29-1.281-1.882-2.769-1.32-3.328zm-.01 19.682c-.556-.56.035-2.05 1.324-3.335 1.284-1.283 2.783-1.872 3.346-1.311.556.554-.035 2.047-1.324 3.329-1.288 1.284-2.784 1.872-3.346 1.317zm-10.402.006c-.562.554-2.06-.034-3.351-1.318-1.284-1.283-1.876-2.776-1.318-3.329.562-.561 2.061.029 3.349 1.311 1.286 1.285 1.875 2.778 1.32 3.336zm1.269-23.927c0-.641 1.446-1.229 3.111-1.395.336-.029.815-.442.815-.442s.484.423.743.442c1.797.132 3.233.719 3.233 1.395 0 .769-1.768 1.395-3.951 1.395-2.177 0-3.951-.626-3.951-1.395zm7.904 28.185c0 .636-1.441 1.23-3.111 1.39-.338.034-.817.442-.817.442s-.483-.422-.738-.442c-1.802-.131-3.237-.719-3.237-1.39 0-.773 1.773-1.395 3.956-1.395 2.178 0 3.947.623 3.947 1.395zm-18.111-10.159c-.645 0-1.237-1.439-1.398-3.097-.034-.335-.444-.811-.444-.811s.425-.482.444-.734c.128-1.793.719-3.224 1.398-3.224.777 0 1.402 1.764 1.402 3.934-.001 2.172-.626 3.932-1.402 3.932zm28.318-7.867c.645 0 1.236 1.436 1.402 3.097.034.335.445.811.445.811s-.425.477-.445.734c-.131 1.793-.723 3.224-1.402 3.224-.772 0-1.397-1.764-1.397-3.933.001-2.171.625-3.933 1.397-3.933z"/>
</g>
</svg>
