<?xml version="1.0" encoding="UTF-8" standalone="no"?>
<svg
   xmlns:dc="http://purl.org/dc/elements/1.1/"
   xmlns:cc="http://creativecommons.org/ns#"
   xmlns:rdf="http://www.w3.org/1999/02/22-rdf-syntax-ns#"
   xmlns:svg="http://www.w3.org/2000/svg"
   xmlns="http://www.w3.org/2000/svg"
   xmlns:sodipodi="http://sodipodi.sourceforge.net/DTD/sodipodi-0.dtd"
   xmlns:inkscape="http://www.inkscape.org/namespaces/inkscape"
   width="1727.6855"
   height="1151.9043"
   viewBox="0 0 1382.1484 921.52344"
   version="1.1"
   id="svg2"
   inkscape:version="0.48.2 r9819"
   sodipodi:docname="Flag_of_Balochistan,_PK.svg">
  <metadata
     id="metadata208">
    <rdf:RDF>
      <cc:Work
         rdf:about="">
        <dc:format>image/svg+xml</dc:format>
        <dc:type
           rdf:resource="http://purl.org/dc/dcmitype/StillImage" />
      </cc:Work>
    </rdf:RDF>
  </metadata>
  <sodipodi:namedview
     pagecolor="#ffffff"
     bordercolor="#666666"
     borderopacity="1"
     objecttolerance="10"
     gridtolerance="10"
     guidetolerance="10"
     inkscape:pageopacity="0"
     inkscape:pageshadow="2"
     inkscape:window-width="1280"
     inkscape:window-height="1005"
     id="namedview206"
     showgrid="false"
     fit-margin-top="0"
     fit-margin-left="0"
     fit-margin-right="0"
     fit-margin-bottom="0"
     inkscape:zoom="0.20455038"
     inkscape:cx="864.52146"
     inkscape:cy="576.39648"
     inkscape:window-x="-4"
     inkscape:window-y="-4"
     inkscape:window-maximized="1"
     inkscape:current-layer="svg2" />
  <defs
     id="defs4">
    <clipPath
       id="clip1">
      <path
         d="m -11.25,933.75 1405,0 0,-945 -1405,0 0,945 z m 0,0"
         id="path7"
         inkscape:connector-curvature="0" />
    </clipPath>
  </defs>
  <g
     id="misc2svg"
     transform="translate(0.11716688,-1.09375)">
    <g
       clip-path="url(#clip1)"
       clip-rule="evenodd"
       id="g10">
      <path
         style="fill:#004226;fill-opacity:1;fill-rule:evenodd;stroke:#004226;stroke-width:0.21600001;stroke-linecap:butt;stroke-linejoin:miter;stroke-miterlimit:10;stroke-opacity:1"
         d="m 0,737.00625 1105.5125,0 L 1105.5125,0 0,0 0,737.00625 z m 0,0"
         transform="matrix(1.25,0,0,-1.25,0,922.5)"
         id="path12"
         inkscape:connector-curvature="0" />
      <path
         style="fill:#ffffff;fill-opacity:1;fill-rule:evenodd;stroke:none"
         d="m 644,418.10156 c -4.85938,4.32031 -8.48438,8.40625 -14.57813,9.02735 1.51172,11.59765 14.86719,17.32812 8.54297,35.46875 11.32422,15.26171 19.16797,33.39843 27.99219,35.60156 0.84766,2 0.30859,4.47265 1.15625,6.47265 0.53906,1.69922 12.41797,1.54297 12.72656,-0.45703 -1.77343,-3.9375 -1.69922,-6.25 -4.6289,-9.72265 -1.46485,-0.3086 -4.08594,-1.54297 -6.01563,-2.54297 -8.05859,-6.22656 -13.6914,-14.67578 -18.04687,-25.22266 -3.17578,-12.30469 0.004,-34.85937 -7.14844,-48.625"
         id="path14"
         inkscape:connector-curvature="0" />
      <path
         style="fill:#ffffff;fill-opacity:1;fill-rule:evenodd;stroke:none"
         d="m 638.60156,282.69141 c 7.88281,17.38281 25.40625,29.51171 45.66406,29.51171 27.59375,0 50.10938,-22.51171 50.10938,-50.09765 0,-22.33594 -14.74609,-41.33203 -34.99219,-47.77344 10.92188,8.40234 17.98047,21.58984 17.98047,36.37891 0,25.27343 -20.625,45.89453 -45.89453,45.89453 -12.86719,0 -24.51563,-5.33985 -32.86719,-13.91406"
         id="path16"
         inkscape:connector-curvature="0" />
      <path
         style="fill:#ffffff;fill-opacity:1;fill-rule:evenodd;stroke:none"
         d="m 656.75,245.75781 c -4.07813,0.89063 -7.78125,1.70313 -11.85156,2.59375 l 8.05078,-9.0625 -6.14844,-10.47656 11.13281,4.86719 8.06641,-9.07422 -1.19531,12.07422 11.11328,4.875 c -3.94922,0.85937 -7.90235,1.73047 -11.84766,2.58593 l -1.18359,12.07813"
         id="path18"
         inkscape:connector-curvature="0" />
      <path
         style="fill:none;stroke:#ffffff;stroke-width:7.99989986;stroke-linecap:butt;stroke-linejoin:miter;stroke-miterlimit:10;stroke-opacity:1"
         d="m 549.925,591.95 c 108.50938,0 197.00938,-88.5 197.00938,-197.00938 0,-108.50625 -88.5,-197.00625 -197.00938,-197.00625 -108.50625,0 -197.00625,88.5 -197.00625,197.00625 0,108.50938 88.5,197.00938 197.00625,197.00938 z m 0,0"
         transform="matrix(1.25,0,0,-1.25,0,922.5)"
         id="path20"
         inkscape:connector-curvature="0" />
      <path
         style="fill:#ffffff;fill-opacity:1;fill-rule:evenodd;stroke:none"
         d="m 888.20703,571.89453 -103.73828,-58.94141 -96.66406,51.08594 -95.10157,-50.29687 -106.09375,55.01172 c 101.1836,143.52734 302.25,136.2539 401.59766,3.14062"
         id="path22"
         inkscape:connector-curvature="0" />
      <path
         style="fill:#ffffff;fill-opacity:1;fill-rule:evenodd;stroke:none"
         d="m 773.0625,364.23828 c 6.17969,-0.21875 9.83203,3.71484 14.63672,4.56641 8.23437,0.32031 13.8789,-0.21094 14.27734,6.74609 0.22656,3.86719 -8.55859,4 -12.96094,4.37109 -2.76171,3.3125 -4.85546,5.46094 -10.6875,6.92969 -11.16015,12.83594 -21.8125,26.72656 -40.6289,30.00781 -4.62891,-2.05468 -10.26172,-2.41406 -15.51172,-2.00781 -2.39063,6.14063 -8.39844,7.63281 -9.23828,13.20313 5.57031,9.5664 20.23047,19.5664 21.40625,26.35547 -0.96485,8.05078 -16.74219,16.63671 -25.11328,30.8789 -2.0586,2.46875 -4.1211,4.94141 -6.17578,7.41016 3.94531,3.14062 6.13671,6.53515 5.76171,10.29297 -3.71875,1.34375 -8.21875,1.53515 -14.41015,-0.82422 -1.33594,-4.15235 -0.51172,-7.99219 2.47265,-11.52735 -3.0039,-9.21093 -2.38281,-20.83203 -1.64843,-32.52343 -0.55078,-2.19922 -1.09766,-4.39844 -1.64844,-6.59375 0.6875,-4.14063 2.05469,-4.65235 2.0625,-6.9961 0.0117,-8.625 7.19531,-20.24609 4.11328,-20.99609 -39.22266,8.35156 -39.19922,-4.03906 -61.19141,-9.85938 -3.78906,7.69532 -10,11.96875 -16.8789,14.10157 -9.04688,9.03906 -13.95703,19.86328 -19.92188,30.75 -1.82031,9.74218 -1.52734,19.48828 -1.78125,29.23437 3.26172,3.17188 4.48828,8.53516 3.4336,13.5625 -0.52344,2.71875 -15.32422,0.55078 -14.9336,-2.03125 1.78516,-3.57031 4.48047,-6.53906 5.35547,-11.16797 2.14063,-11.36718 -0.85156,-22.59765 0.10156,-34.1289 5.21875,-10.15625 10.4375,-20.3125 15.65235,-30.46094 1.09375,-5.49219 2.1914,-10.98438 3.28906,-16.46875 1.38672,-4.40625 -8.86719,-0.24219 -6.56641,-3.24219 1.32813,-16.67578 15.6836,-25.85937 18.50782,-35.46484 -1.57032,-1.5586 -1.42969,-3.83985 -5.81641,-3.9375 -2.96094,-0.0625 -16.62891,27.29687 -26.31641,29.59765 -3.87109,1.27735 2.92579,-1.51171 3.35547,-3.30859 11.3086,-10.91016 16.48047,-29.17578 21.95703,-29.20312 6.73047,-0.0391 5.69141,2.82421 9.41016,4.79296 4.16797,-1.71875 9.625,-4.10546 14.32813,-4.03125 1.88281,1.57032 2.48046,-0.0703 3.30468,-2.27343 0.33594,-0.89844 2.38282,-1.15625 3.34375,-1.15625 1.78516,-3.15625 2.1875,-2.85938 3.97266,-6.01563 2.78125,-2.12109 7.64062,-0.55469 11.34375,-0.14453 0.33594,-1.5625 0.86719,-4.60547 3.16016,-4.39844 7.82421,2.25 15.41015,3.34766 24.60937,3.29297 1.43359,0.63672 0.78516,1.73047 0.37891,3.51172 3.97656,0.41016 11.18359,-0.32422 10.78515,2.16016 3.32032,0.78906 -1.65625,9.875 -1.79297,14.82031 19.82422,4.77734 21.97657,18.17187 34.14063,22.08594 7.14453,0.11328 11.35937,-1.625 15.41406,-5.20703 0.82813,-1.78516 0.71485,-4.47266 2.47266,-5.35157 1.55078,-0.77734 2.83203,-0.74218 4.47656,-0.19531 2.96875,-4.09375 5.80078,-9.34766 7.67578,-13.97266 0.17188,-0.41796 -0.19922,-2.01953 0.36719,-2.54296 0.6875,-0.63672 1.62109,0.0898 1.76172,-0.0391 1.6289,-1.47265 3.47656,-2.51172 5.89453,-2.60156 z m -66.26172,70.53125 c 2.94922,-0.67578 12.45703,11.4375 17.62109,19.13281 -0.6289,2.07422 -0.48046,3.95703 0.4375,5.64844 -7.05078,5.41406 -12.85937,12.07031 -17.97656,19.41797 -2.375,-0.25391 -3.14844,0.23047 -4.05469,1.73828 -0.38671,-2.89453 -0.92187,-5.59375 -0.72265,-9.70703 0.12109,-2.53906 1.03515,-5.97656 1.17969,-8.05469 -3.11329,-17.07812 0.46093,-28.44922 3.51562,-28.17578"
         id="path24"
         inkscape:connector-curvature="0" />
      <path
         style="fill:none;stroke:#ffffff;stroke-width:4;stroke-linecap:butt;stroke-linejoin:miter;stroke-miterlimit:10;stroke-opacity:1"
         d="m 549.925,192.33125 c 10.46875,0 19.00938,-10.33125 19.00938,-22.99375 0,-12.66563 -8.54063,-22.99375 -19.00938,-22.99375 -10.46875,0 -19.00625,10.32812 -19.00625,22.99375 0,12.6625 8.5375,22.99375 19.00625,22.99375 z m 0,0"
         transform="matrix(1.25,0,0,-1.25,0,922.5)"
         id="path26"
         inkscape:connector-curvature="0" />
      <path
         style="fill:#ffffff;fill-opacity:1;fill-rule:nonzero;stroke:none"
         d="m 674.17578,714.87891 -11.58984,-11.28516 c -0.65625,-0.63281 -0.27344,-1.8125 0.63281,-1.94531 l 16.02344,-2.31641 7.14843,-14.50781 c 0.40625,-0.82031 1.63672,-0.82031 2.04297,0 l 7.15625,14.51953 16.00782,2.31641 c 0.90234,0.13281 1.28906,1.30468 0.63281,1.9414 l -11.60156,11.29688 2.75,15.94531 c 0.15625,0.89844 -0.84375,1.62109 -1.65625,1.19531 l -14.32422,-7.54297 -14.31641,7.53907 c -0.80859,0.42578 -1.80859,-0.29688 -1.65234,-1.19532 l 2.74609,-15.96093 z m -8.35156,-11.30469 10.36328,10.08984 c -0.0234,-0.0234 -0.0312,0 -0.0312,0.043 l 0.0352,-0.0391 -0.004,-0.004 c 0.004,0 0.004,0 0.004,0.004 l -0.0352,0.0391 c 0.008,0.17578 0.21094,0.79297 0.3125,0.95703 l 0.0547,0.008 -0.004,0.0195 c 0.004,-0.004 0.004,-0.0117 0.004,-0.0195 l -0.0547,-0.008 c 0.0234,0.0391 0.0391,0.0469 0.0508,0.0274 l -2.45312,14.2539 12.80078,-6.73828 c -0.0391,0.0195 -0.0274,0.0391 0.0273,0.0547 l -0.0273,-0.0547 0.0273,0.0547 c 0.19141,0.0469 0.83203,0.043 1.00391,-0.004 l 0.0273,-0.0508 12.81641,6.74219 -2.45703,-14.23828 c 0.0117,0.0234 0.0312,0.0117 0.0547,-0.0274 l -0.0547,0.008 c 0,0.004 0,0.0156 0,0.0195 l 0,-0.0195 0.0547,-0.008 c 0.10157,-0.16015 0.30078,-0.78125 0.3125,-0.95703 l -0.0391,-0.0391 0.004,-0.008 c 0,0 0,0.008 -0.004,0.008 l 0.0391,0.0391 c 0,-0.0469 -0.0117,-0.0625 -0.0351,-0.0469 l 10.37109,-10.09375 -14.29687,-2.07032 c 0.0195,0 0.0156,-0.0234 -0.008,-0.0508 l -0.0117,0.0508 c 0.0117,0 0.0156,0.004 0.0195,0 l -0.0195,0 0.0117,-0.0508 c -0.11718,-0.14453 -0.65625,-0.53125 -0.82422,-0.59765 l -0.0469,0.0234 -0.008,-0.0156 c 0,0.004 0.004,0.004 0.008,0.0156 l 0.0469,-0.0234 c -0.0352,-0.0117 -0.0625,-0.0117 -0.0547,0.008 l -6.39063,-12.97656 -6.39062,12.96484 c 0.008,-0.0234 -0.0117,-0.0234 -0.0508,-0.008 l 0.043,0.0234 c 0.004,-0.0117 0.008,-0.0117 0.008,-0.0156 l -0.008,0.0156 -0.043,-0.0234 c -0.17188,0.0664 -0.70313,0.45312 -0.82032,0.59375 l 0.004,0.0547 -0.0156,0 c 0.008,0 0.008,0 0.0156,0 l -0.004,-0.0547 c -0.0273,0.0312 -0.0312,0.0508 -0.0117,0.0547 l -14.3164,2.07031 z m 22.07422,18.68359 c 0.0469,-0.0156 0.0664,-0.0312 0.0273,-0.0508"
         id="path28"
         inkscape:connector-curvature="0" />
      <path
         style="fill:none;stroke:#ffffff;stroke-width:2.0000999;stroke-linecap:butt;stroke-linejoin:miter;stroke-miterlimit:10;stroke-opacity:1"
         d="m 559.52813,166.4 -28.82501,9.37812"
         transform="matrix(1.25,0,0,-1.25,0,922.5)"
         id="path30"
         inkscape:connector-curvature="0" />
      <path
         style="fill:none;stroke:#ffffff;stroke-width:2.0000999;stroke-linecap:butt;stroke-linejoin:miter;stroke-miterlimit:10;stroke-opacity:1"
         d="m 549.93125,189.7375 -0.0125,-30.30625"
         transform="matrix(1.25,0,0,-1.25,0,922.5)"
         id="path32"
         inkscape:connector-curvature="0" />
      <path
         style="fill:none;stroke:#ffffff;stroke-width:2.0000999;stroke-linecap:butt;stroke-linejoin:miter;stroke-miterlimit:10;stroke-opacity:1"
         d="M 555.86875,177.69062 538.04375,153.175"
         transform="matrix(1.25,0,0,-1.25,0,922.5)"
         id="path34"
         inkscape:connector-curvature="0" />
      <path
         style="fill:none;stroke:#ffffff;stroke-width:2.0000999;stroke-linecap:butt;stroke-linejoin:miter;stroke-miterlimit:10;stroke-opacity:1"
         d="m 543.99688,177.7 17.80937,-24.52813"
         transform="matrix(1.25,0,0,-1.25,0,922.5)"
         id="path36"
         inkscape:connector-curvature="0" />
      <path
         style="fill:none;stroke:#ffffff;stroke-width:2.0000999;stroke-linecap:butt;stroke-linejoin:miter;stroke-miterlimit:10;stroke-opacity:1"
         d="M 540.31875,166.4125 569.15,175.76875"
         transform="matrix(1.25,0,0,-1.25,0,922.5)"
         id="path38"
         inkscape:connector-curvature="0" />
      <path
         style="fill:#ffffff;fill-opacity:1;fill-rule:evenodd;stroke:none"
         d="m 687.55859,685.73828 0,25.0625 -7.5,-10.71875"
         id="path40"
         inkscape:connector-curvature="0" />
      <path
         style="fill:#ffffff;fill-opacity:1;fill-rule:evenodd;stroke:none"
         d="m 662.93359,702.97266 23.83203,7.74609 -12.50781,3.82031"
         id="path42"
         inkscape:connector-curvature="0" />
      <path
         style="fill:#ffffff;fill-opacity:1;fill-rule:evenodd;stroke:none"
         d="m 672.10547,730.42969 14.72656,-20.27735 -0.23047,13.08203"
         id="path44"
         inkscape:connector-curvature="0" />
      <path
         style="fill:#ffffff;fill-opacity:1;fill-rule:evenodd;stroke:none"
         d="m 702.36719,731.08594 -14.73047,-20.28125 12.36719,4.26562"
         id="path46"
         inkscape:connector-curvature="0" />
      <path
         style="fill:#ffffff;fill-opacity:1;fill-rule:evenodd;stroke:none"
         d="m 712.0625,703.01562 -23.83594,7.7461 7.8711,-10.44531"
         id="path48"
         inkscape:connector-curvature="0" />
      <path
         style="fill:none;stroke:#ffffff;stroke-width:4;stroke-linecap:butt;stroke-linejoin:miter;stroke-miterlimit:10;stroke-opacity:1"
         d="m 559.45,188.32812 c 10.3875,7.85938 21.4375,14.09688 33.67188,17.72188 17.92499,5.30937 36.02812,8.13437 52.28125,1.18125 -1.57501,-6.14063 -25.43126,-27.53125 -50.80626,-31.9 -12.52812,-2.15625 -21.16562,-0.24375 -27.31874,1.18125"
         transform="matrix(1.25,0,0,-1.25,0,922.5)"
         id="path50"
         inkscape:connector-curvature="0" />
      <path
         style="fill:#ffffff;fill-opacity:1;fill-rule:nonzero;stroke:none"
         d="m 704.70312,693.17187 c 1.49219,-1.51171 2.94922,-2.17187 4.40235,-2.82421 9.07812,-4.09375 22.58203,-7.07422 35.98828,-10.03516 18.59766,-4.10547 37.00781,-8.16797 42.60547,-14.68359 1.63281,-1.89844 3.25781,-3.79297 1.26562,0.13281 -1.99218,3.92187 -3.62109,5.82031 -5.25,7.71484 -6.25781,7.28125 -24.80078,11.3711 -43.52343,15.50781 -11.89063,2.6211 -23.86329,5.26954 -32.66797,8.64063"
         id="path52"
         inkscape:connector-curvature="0" />
      <path
         style="fill:#ffffff;fill-opacity:1;fill-rule:evenodd;stroke:none"
         d="m 686.01953,676.75391 26.39844,-1.29297 -0.36719,3.875 -13.10937,7.57031 -12.55469,-5.35156"
         id="path54"
         inkscape:connector-curvature="0" />
      <path
         style="fill:#ffffff;fill-opacity:1;fill-rule:nonzero;stroke:none"
         d="m 830.47656,684.73437 c 2.33203,0 4.44922,0.94922 5.98438,2.48438 1.53125,1.53125 2.48047,3.64844 2.48047,5.98047 0,2.32812 -0.94922,4.4414 -2.48047,5.97656 l -0.0117,0.008 c -1.53125,1.52735 -3.64453,2.48047 -5.97266,2.48047 -2.33203,0 -4.45312,-0.95312 -5.98047,-2.48047 -1.53125,-1.53125 -2.48437,-3.65234 -2.48437,-5.98437 0,-0.4336 0.0352,-0.8711 0.0977,-1.28906 -3.60156,-3.75 -8.27343,-7.52735 -11.91796,-8.76954 -4.50391,-1.94531 -12.57813,-2.1875 -18.27344,-0.89843 l 7.29687,-10.3125 c 7.40235,-0.20313 8.01172,0.0195 14.17969,1.75781 5.9375,2.02344 11.26172,5.58984 16.08203,11.10937 0.32813,-0.0391 0.66016,-0.0625 1,-0.0625 z m 2.44922,6.01563 c -0.62891,-0.625 -1.49609,-1.01563 -2.44922,-1.01563 -0.96094,0 -1.82422,0.38672 -2.44531,1.00782 l -0.008,0.008 c -0.625,0.625 -1.01172,1.49219 -1.01172,2.44922 0,0.95703 0.39062,1.82031 1.01953,2.44922 0.625,0.625 1.49609,1.01562 2.44531,1.01562 0.95313,0 1.82031,-0.38281 2.44922,-1.0039 0.004,-0.004 0.004,-0.0117 0.008,-0.0117 0.6211,-0.62891 1.00782,-1.49219 1.00782,-2.44922 0,-0.95313 -0.38672,-1.81641 -1.01563,-2.44922"
         id="path56"
         inkscape:connector-curvature="0" />
      <path
         style="fill:none;stroke:#ffffff;stroke-width:4;stroke-linecap:butt;stroke-linejoin:miter;stroke-miterlimit:10;stroke-opacity:1"
         d="m 568.025,159.97187 c 6.22812,-3.44375 10.70937,-6.32812 20.0125,-6.37812 33.2125,-0.17188 53.3625,27.03437 70.39375,35.19375"
         transform="matrix(1.25,0,0,-1.25,0,922.5)"
         id="path58"
         inkscape:connector-curvature="0" />
      <path
         style="fill:#ffffff;fill-opacity:1;fill-rule:nonzero;stroke:none"
         d="m 711.19141,707.63281 c 0.44531,0.10547 0.88671,0.25 1.32812,0.39063 13.33984,4.3164 28.88281,3.61718 42.73438,0.5 17.44531,-3.92188 31.48828,-10.64844 34.64843,-15.69141 1.32813,-2.12109 2.65625,-4.23828 2.24219,-2.58203 -0.41016,1.65625 -1.73828,3.77344 -3.06641,5.89062 -4.9375,7.88282 -20.77343,17.01954 -38.72656,21.05469 -13.14453,2.95703 -27.8164,3.73828 -40.6875,0.14063"
         id="path60"
         inkscape:connector-curvature="0" />
      <path
         style="fill:none;stroke:#ffffff;stroke-width:4;stroke-linecap:butt;stroke-linejoin:miter;stroke-miterlimit:10;stroke-opacity:1"
         d="m 635.95625,210.9375 c 9.94375,10.175 19.27812,25.27812 31.23437,32.9875 15.24688,9.82812 33.45313,14.0375 50.18126,21.05625 -5.25,-19.28125 -16.16876,-39.7 -35.44063,-51.9375 -16.09062,-10.21875 -28.37187,-7.66563 -36.85,-8.07188"
         transform="matrix(1.25,0,0,-1.25,0,922.5)"
         id="path62"
         inkscape:connector-curvature="0" />
      <path
         style="fill:#ffffff;fill-opacity:1;fill-rule:nonzero;stroke:none"
         d="m 887.16797,612.47656 c 6.35547,-3.73437 9.66406,-5.30859 16.03906,-7.50781 6.71875,-2.31641 13.46875,-3.5 20.26172,-2.90234 l -0.85938,10 c -5.34765,-0.46875 -10.73828,0.48828 -16.16015,2.35546 -5.75,1.98438 -17.17188,8.15235 -22.94922,11.54688"
         id="path64"
         inkscape:connector-curvature="0" />
      <path
         style="fill:none;stroke:#ffffff;stroke-width:4;stroke-linecap:butt;stroke-linejoin:miter;stroke-miterlimit:10;stroke-opacity:1"
         d="m 742.03125,255.4625 c 2.1,0 3.8125,-1.7125 3.8125,-3.80938 0,-2.09687 -1.7125,-3.80937 -3.8125,-3.80937 -2.09687,0 -3.80938,1.7125 -3.80938,3.80937 0,2.09688 1.71251,3.80938 3.80938,3.80938 z m 0,0"
         transform="matrix(1.25,0,0,-1.25,0,922.5)"
         id="path66"
         inkscape:connector-curvature="0" />
      <path
         style="fill:none;stroke:#ffffff;stroke-width:4;stroke-linecap:butt;stroke-linejoin:miter;stroke-miterlimit:10;stroke-opacity:1"
         d="m 713.07812,243.74375 c 5.89688,1.55312 12.5,0.175 18.39375,-1.41563 -13.38124,-14.59062 -25.83437,-35.20625 -44.56874,-45.9875 -10.77501,-6.2 -25.07813,-2.20312 -37.26563,-1.18125"
         transform="matrix(1.25,0,0,-1.25,0,922.5)"
         id="path68"
         inkscape:connector-curvature="0" />
      <path
         style="fill:#ffffff;fill-opacity:1;fill-rule:nonzero;stroke:none"
         d="m 826.78125,667.88672 c -1.28906,-0.043 -2.57813,-0.0898 -3.18359,-0.71485 l 24.05468,-9.55859 c 7.625,-1.01172 16.33594,-4.08984 24.58203,-8.80469 9.40625,-5.375 17.84766,-12.39843 22.82813,-20.23828 1.33984,-2.10937 2.67969,-4.21875 2.12891,-2.35156 -0.54688,1.87109 -1.88282,3.98437 -3.22657,6.09375 -6.89062,10.85547 -14.94531,20.36719 -24.90625,26.0625 -9.34765,8.83203 -32.16015,12.20703 -42.27734,9.51172"
         id="path70"
         inkscape:connector-curvature="0" />
      <path
         style="fill:none;stroke:#ffffff;stroke-width:4;stroke-linecap:butt;stroke-linejoin:miter;stroke-miterlimit:10;stroke-opacity:1"
         d="m 705.37812,271.67187 c 3.32188,0 6.03125,-2.425 6.03125,-5.39687 0,-2.975 -2.70937,-5.39688 -6.03125,-5.39688 -3.32187,0 -6.03437,2.42188 -6.03437,5.39688 0,2.97187 2.7125,5.39687 6.03437,5.39687 z m 0,0"
         transform="matrix(1.25,0,0,-1.25,0,922.5)"
         id="path72"
         inkscape:connector-curvature="0" />
      <path
         style="fill:#ffffff;fill-opacity:1;fill-rule:evenodd;stroke:none"
         d="M 800.36719,647.19531 779.33594,657.91406 794.80859,659.5 802.75,648.78906"
         id="path74"
         inkscape:connector-curvature="0" />
      <path
         style="fill:none;stroke:#ffffff;stroke-width:4;stroke-linecap:butt;stroke-linejoin:miter;stroke-miterlimit:10;stroke-opacity:1"
         d="m 734.6625,327.0625 c 4.775,4.93125 9.80937,7.90312 16.5375,9.6625 1.14063,-10.08125 -1.18438,-24.26875 -4.6375,-34.90938 -4.93125,-15.18437 -15.95,-30.46875 -30.2125,-39.34687"
         transform="matrix(1.25,0,0,-1.25,0,922.5)"
         id="path76"
         inkscape:connector-curvature="0" />
      <path
         style="fill:#ffffff;fill-opacity:1;fill-rule:evenodd;stroke:none"
         d="m 890.11719,565.60547 c -1.53907,4.23047 -1.60157,15.3164 -1.09375,19.54687 l -13.05469,-4.74218"
         id="path78"
         inkscape:connector-curvature="0" />
      <path
         style="fill:none;stroke:#ffffff;stroke-width:4;stroke-linecap:butt;stroke-linejoin:miter;stroke-miterlimit:10;stroke-opacity:1"
         d="m 749.50312,311.2125 c 7.6875,6.6125 18.41875,12.33437 27.25,14.375 -0.78437,-18.16875 -7.875,-42.2 -23.37187,-56.2 -6.77188,-6.125 -30.4125,-12.60938 -39.28438,-13.325"
         transform="matrix(1.25,0,0,-1.25,0,922.5)"
         id="path80"
         inkscape:connector-curvature="0" />
      <path
         style="fill:#ffffff;fill-opacity:1;fill-rule:evenodd;stroke:#ffffff;stroke-width:4;stroke-linecap:butt;stroke-linejoin:miter;stroke-miterlimit:10;stroke-opacity:1"
         d="m 787.05625,342.96875 c 2.6,0 4.72188,-2.55625 4.72188,-5.6875 0,-3.13125 -2.12188,-5.6875 -4.72188,-5.6875 -2.6,0 -4.71875,2.55625 -4.71875,5.6875 0,3.13125 2.11875,5.6875 4.71875,5.6875 z m 0,0"
         transform="matrix(1.25,0,0,-1.25,0,922.5)"
         id="path82"
         inkscape:connector-curvature="0" />
      <path
         style="fill:#ffffff;fill-opacity:1;fill-rule:nonzero;stroke:none"
         d="m 977.54297,505.70312 c -3.96875,-0.51171 -8.85547,2.14454 -13.77735,6.38282 -2.70703,2.32812 -5.35937,5.10156 -7.86718,8.10547 l -0.0586,-0.10938 -17.58984,10.52344 -1.14453,-0.65235 c 5.09765,-9.00781 12.38672,-18.73437 20.13672,-25.40625 6.94531,-5.98437 14.44531,-9.65625 21.58984,-8.72656"
         id="path84"
         inkscape:connector-curvature="0" />
      <path
         style="fill:#ffffff;fill-opacity:1;fill-rule:evenodd;stroke:none"
         d="m 926.44531,520.12109 c -0.39062,5.53516 1.8711,9.67969 -2.62109,20.38672 -4.49219,10.71094 -15.4336,27.28516 -23.88281,42.81641 -0.39063,-4.46485 2.66015,-18.28125 4.94921,-22.13281 10.40235,-17.51563 14.71094,-24.46875 21.55469,-41.07032"
         id="path86"
         inkscape:connector-curvature="0" />
      <path
         style="fill:#ffffff;fill-opacity:1;fill-rule:evenodd;stroke:none"
         d="m 904.89062,590.31641 c 23.46875,-7.69532 39.60157,-23.01563 50.38672,-48.64063 1.32032,-3.125 1.65235,-7.47656 0.875,-10.77734 -10,20.99609 -24.46484,39.19922 -46.89453,52.42578 -1.45312,2.33203 -2.91015,4.66015 -4.36719,6.99219"
         id="path88"
         inkscape:connector-curvature="0" />
      <path
         style="fill:none;stroke:#ffffff;stroke-width:4;stroke-linecap:butt;stroke-linejoin:miter;stroke-miterlimit:10;stroke-opacity:1"
         d="m 746.33125,401.75625 c 2.38438,8.60312 2.91563,16.675 6.075,24.5 6.02813,-18.66563 18.20312,-36.38438 18.08125,-56.00313 -0.0844,-14.25937 -8.94375,-26.83437 -18.66875,-38.50312"
         transform="matrix(1.25,0,0,-1.25,0,922.5)"
         id="path90"
         inkscape:connector-curvature="0" />
      <path
         style="fill:#ffffff;fill-opacity:1;fill-rule:evenodd;stroke:none"
         d="m 926.4375,483.12109 c -0.27344,5.01953 -0.61328,11.5625 0.25781,16.23438 -2.70312,0.62109 -6.91406,10.83594 -8.33203,12.98437"
         id="path92"
         inkscape:connector-curvature="0" />
      <path
         style="fill:none;stroke:#ffffff;stroke-width:4;stroke-linecap:butt;stroke-linejoin:miter;stroke-miterlimit:10;stroke-opacity:1"
         d="m 766.52813,390.025 c 2.55312,13.69062 8.63437,24.87812 16.40625,31.61562 4.14062,-8.14687 8.09687,-23.4375 5.86562,-42.05312 -1.91875,-16.0375 -8.58125,-31.94688 -16.95,-45.9625"
         transform="matrix(1.25,0,0,-1.25,0,922.5)"
         id="path94"
         inkscape:connector-curvature="0" />
      <path
         style="fill:#ffffff;fill-opacity:1;fill-rule:evenodd;stroke:#ffffff;stroke-width:4;stroke-linecap:butt;stroke-linejoin:miter;stroke-miterlimit:10;stroke-opacity:1"
         d="m 786.84375,439.24375 c 3.05625,0 5.54375,-3 5.54375,-6.68438 0,-3.68125 -2.4875,-6.68125 -5.54375,-6.68125 -3.05,0 -5.5375,3 -5.5375,6.68125 0,3.68438 2.4875,6.68438 5.5375,6.68438 z m 0,0"
         transform="matrix(1.25,0,0,-1.25,0,922.5)"
         id="path96"
         inkscape:connector-curvature="0" />
      <path
         style="fill:none;stroke:#ffffff;stroke-width:7.99989986;stroke-linecap:butt;stroke-linejoin:miter;stroke-miterlimit:10;stroke-opacity:1"
         d="M 782.81875,429.13125 C 774.225,421.75625 769.775,409.475 765.54375,397.73437"
         transform="matrix(1.25,0,0,-1.25,0,922.5)"
         id="path98"
         inkscape:connector-curvature="0" />
      <path
         style="fill:#ffffff;fill-opacity:1;fill-rule:evenodd;stroke:none"
         d="m 940.03516,411.38672 c 13.19921,25.64062 11.02734,61.64453 -0.77735,90.87109 -3.10547,0.64844 -6.21094,1.29688 -9.3164,1.94141 10.14062,-28.25391 16.05078,-63.52735 10.09375,-92.8125"
         id="path100"
         inkscape:connector-curvature="0" />
      <path
         style="fill:#ffffff;fill-opacity:1;fill-rule:evenodd;stroke:none"
         d="m 948.57812,500.31641 c 5.72266,-13.41016 13.58985,-17.41797 14.64844,-32.625 10.42188,-12.23829 11.24219,-37.5586 12.22656,-53.76563 5.71485,34.63281 -2.6875,67.30469 -26.875,86.39063"
         id="path102"
         inkscape:connector-curvature="0" />
      <path
         style="fill:none;stroke:#ffffff;stroke-width:4;stroke-linecap:butt;stroke-linejoin:miter;stroke-miterlimit:10;stroke-opacity:1"
         d="m 761.46875,404.35937 c 3.4,11.925 5.14375,25.49063 3.76562,38.94688 -1.70312,16.625 -30.91875,44.76875 -48.78125,64.74375 -2.36562,-4.73125 1.82501,-9.7125 3.40313,-15.23438"
         transform="matrix(1.25,0,0,-1.25,0,922.5)"
         id="path104"
         inkscape:connector-curvature="0" />
      <path
         style="fill:none;stroke:#ffffff;stroke-width:4;stroke-linecap:butt;stroke-linejoin:miter;stroke-miterlimit:10;stroke-opacity:1"
         d="m 745.8375,474.79687 c -0.10313,16.45625 3.13437,32.075 9.34688,43.01251 10.15937,-17.27188 20.29062,-35.58751 22.17187,-56.17188 1.4625,-16.025 -0.39375,-29.17188 -4.1375,-42.87188"
         transform="matrix(1.25,0,0,-1.25,0,922.5)"
         id="path106"
         inkscape:connector-curvature="0" />
      <path
         style="fill:#ffffff;fill-opacity:1;fill-rule:evenodd;stroke:none"
         d="m 935.66406,256.39062 c 3.5586,0 6.46485,3.15625 6.46485,7.02344 0,3.86719 -2.90625,7.01953 -6.46485,7.01953 -3.5625,0 -6.46875,-3.15234 -6.46875,-7.01953 0,-3.86719 2.90625,-7.02344 6.46875,-7.02344"
         id="path108"
         inkscape:connector-curvature="0" />
      <path
         style="fill:#ffffff;fill-opacity:1;fill-rule:nonzero;stroke:none"
         d="m 939.25391,266.40625 c -3.80079,6.28906 -7.92188,15.40625 -10.9375,25.35156 -2.47266,8.14844 -4.17579,16.79688 -4.29688,24.78906 l -0.21484,0 -9.03907,-9.78125 c 0.8125,-6.00781 2.21875,-12.08203 3.98047,-17.89843 3.26172,-10.75 7.77344,-20.69532 11.95313,-27.61719"
         id="path110"
         inkscape:connector-curvature="0" />
      <path
         style="fill:#ffffff;fill-opacity:1;fill-rule:evenodd;stroke:none"
         d="m 955.58984,400.47656 c -3.23047,1.375 -7.13281,0.53906 -10.97656,-0.0703 2.29297,4.57812 5.01953,10.60937 7.30859,15.1875 1.22266,-5.03906 2.44922,-10.07813 3.66797,-15.11719"
         id="path112"
         inkscape:connector-curvature="0" />
      <path
         style="fill:#ffffff;fill-opacity:1;fill-rule:evenodd;stroke:none"
         d="m 945.82422,398.11719 c -2.38281,-10.84375 -2.22266,-22.21094 -7.15235,-32.52735 -6.29687,-13.16797 -16.33593,-24.20703 -25.37109,-35.1289 10.76953,20.01172 17.63281,41.77343 24.06641,64.40234 2.16797,1.41016 6.28906,1.83984 8.45703,3.25391"
         id="path114"
         inkscape:connector-curvature="0" />
      <path
         style="fill:#ffffff;fill-opacity:1;fill-rule:evenodd;stroke:none"
         d="m 946.15234,297.60937 c -2.71093,3.89844 -2.52734,16.55469 0,23.08985 5.79297,14.96484 5.3125,23.52734 9.4336,39.03125 0.97656,8.45703 1.95312,16.91406 2.92578,25.3789 1.41015,-10.73828 5.82031,-20.96484 3.57812,-31.55468 -3.79297,-17.94922 -12.83984,-35.08203 -15.9375,-55.94532"
         id="path116"
         inkscape:connector-curvature="0" />
      <path
         style="fill:#ffffff;fill-opacity:1;fill-rule:evenodd;stroke:none"
         d="m 806.91406,663 c 5.42969,-1.49219 10.90625,-2.00391 15.96875,-4.46875 24.79688,-12.10547 42.82813,-28.22656 54.58594,-44.375 -5.42188,1.0625 -15.77344,4.5 -19.79297,8.30078 -16.83203,15.91016 -32.46094,28.25391 -58.10156,39.26563 2.44922,0.42578 4.89453,0.85156 7.33984,1.27734"
         id="path118"
         inkscape:connector-curvature="0" />
      <path
         style="fill:none;stroke:#ffffff;stroke-width:4;stroke-linecap:butt;stroke-linejoin:miter;stroke-miterlimit:10;stroke-opacity:1"
         d="m 656.6125,557.71875 c -4.28125,7.62188 -8.8125,17.4625 -11.35938,25.70312 26.44688,-14.11562 52.0625,-27.40937 71.51563,-48.60937 9.6375,-10.5 12.10625,-27.12813 13.0375,-40.225"
         transform="matrix(1.25,0,0,-1.25,0,922.5)"
         id="path120"
         inkscape:connector-curvature="0" />
      <path
         style="fill:none;stroke:#ffffff;stroke-width:4;stroke-linecap:butt;stroke-linejoin:miter;stroke-miterlimit:10;stroke-opacity:1"
         d="m 678.9625,564.79687 c 0.1,9.95625 -10.10625,24.4875 -9.125,27.375 25.40938,-12.57812 48.97188,-28.52812 63.13437,-53.63437 5.81563,-10.31563 5.65001,-22.90938 4.84063,-35.19688"
         transform="matrix(1.25,0,0,-1.25,0,922.5)"
         id="path122"
         inkscape:connector-curvature="0" />
      <path
         style="fill:#ffffff;fill-opacity:1;fill-rule:evenodd;stroke:none"
         d="m 902.48047,291.46484 c -5.58594,-9.46875 -10.76563,-17.32812 -16.76172,-26.53906 -10.13281,-15.56641 -27.53906,-23.66797 -42.36719,-32.58984 20.65235,17.48828 40.99219,37.21875 50.98047,59.1289 2.71484,1.08203 5.43359,-1.08984 8.14844,0"
         id="path124"
         inkscape:connector-curvature="0" />
      <path
         style="fill:#ffffff;fill-opacity:1;fill-rule:evenodd;stroke:none"
         d="m 901.08594,260.96875 c 0.92578,-6.59766 -3.78125,-19.30469 -8.38672,-24.67969 -8.82422,-10.29297 -12.9336,-12.61328 -24.44141,-19.78515 -3.53125,-2.20313 -8.32031,-9.69922 -9.54297,-12.57422 14.58594,12.10937 32.80469,17.85937 42.3711,34.22656 9.88281,16.92187 11.86718,40.57812 12.5664,59.82812 -3.95703,-13.27343 -8.61328,-23.74609 -12.5664,-37.01562"
         id="path126"
         inkscape:connector-curvature="0" />
      <path
         style="fill:none;stroke:#ffffff;stroke-width:4;stroke-linecap:butt;stroke-linejoin:miter;stroke-miterlimit:10;stroke-opacity:1"
         d="m 537.90313,188.32812 c -10.38751,7.85938 -21.4375,14.09688 -33.67188,17.72188 -17.925,5.30937 -36.02813,8.13437 -52.28125,1.18125 1.57812,-6.14063 25.43125,-27.53125 50.80312,-31.9 12.52813,-2.15625 22.85625,0.21562 29.00938,1.64062"
         transform="matrix(1.25,0,0,-1.25,0,922.5)"
         id="path128"
         inkscape:connector-curvature="0" />
      <path
         style="fill:#ffffff;fill-opacity:1;fill-rule:nonzero;stroke:none"
         d="M 666.98828,693.17187 C 665.5,691.66016 664.03906,691 662.58203,690.34766 653.50781,686.25391 640.00391,683.27344 626.59766,680.3125 608,676.20703 589.58984,672.14453 583.98828,665.62891 c -1.625,-1.89844 -3.25391,-3.79297 -1.26172,0.13281 1.99219,3.92187 3.6211,5.82031 5.2461,7.71484 6.26171,7.28125 24.80078,11.3711 43.52734,15.50781 11.89453,2.6211 23.85937,5.26954 32.66406,8.64063"
         id="path130"
         inkscape:connector-curvature="0" />
      <path
         style="fill:#ffffff;fill-opacity:1;fill-rule:evenodd;stroke:none"
         d="m 685.66797,676.75391 -26.39453,-1.29297 0.37109,3.875 13.10547,7.57031 12.55469,-5.35156"
         id="path132"
         inkscape:connector-curvature="0" />
      <path
         style="fill:#ffffff;fill-opacity:1;fill-rule:nonzero;stroke:none"
         d="m 541.21094,684.73437 c -2.32813,0 -4.44922,0.94922 -5.98047,2.48438 -1.53516,1.53125 -2.48047,3.64844 -2.48047,5.98047 0,2.32812 0.94531,4.4414 2.48047,5.97656 l 0.008,0.008 c 1.53516,1.52735 3.64844,2.48047 5.97266,2.48047 2.33593,0 4.45312,-0.95312 5.98437,-2.48047 1.53125,-1.53125 2.48438,-3.65234 2.48438,-5.98437 0,-0.4336 -0.0352,-0.8711 -0.10157,-1.28906 3.60547,-3.75 8.27344,-7.52735 11.92579,-8.76954 4.49609,-1.94531 12.57421,-2.1875 18.26562,-0.89843 l -7.29297,-10.3125 c -7.40234,-0.20313 -8.01562,0.0195 -14.17578,1.75781 -5.94141,2.02344 -11.26953,5.58984 -16.08984,11.10937 -0.32813,-0.0391 -0.65625,-0.0625 -1,-0.0625 z m -2.44532,6.01563 c 0.62891,-0.625 1.49219,-1.01563 2.44532,-1.01563 0.96093,0 1.82812,0.38672 2.45312,1.00782 l 0.008,0.008 c 0.6211,0.625 1.00782,1.49219 1.00782,2.44922 0,0.95703 -0.39063,1.82031 -1.01563,2.44922 -0.63281,0.625 -1.49609,1.01562 -2.45312,1.01562 -0.95313,0 -1.81641,-0.38281 -2.44532,-1.0039 0,-0.004 -0.008,-0.0117 -0.0117,-0.0117 -0.6211,-0.62891 -1.00391,-1.49219 -1.00391,-2.44922 0,-0.95313 0.39062,-1.81641 1.01562,-2.44922"
         id="path134"
         inkscape:connector-curvature="0" />
      <path
         style="fill:none;stroke:#ffffff;stroke-width:4;stroke-linecap:butt;stroke-linejoin:miter;stroke-miterlimit:10;stroke-opacity:1"
         d="M 532.4,161.04687 C 526.1625,157.6 518.61875,153.64375 509.3125,153.59375 476.1,153.42187 455.95312,180.62812 438.92187,188.7875"
         transform="matrix(1.25,0,0,-1.25,0,922.5)"
         id="path136"
         inkscape:connector-curvature="0" />
      <path
         style="fill:#ffffff;fill-opacity:1;fill-rule:nonzero;stroke:none"
         d="m 663.17969,706.86719 c -0.44141,0.10547 -0.88282,0.24609 -1.32422,0.39062 -13.33985,4.3125 -31.56641,4.38281 -45.41797,1.26563 -17.44922,-3.92188 -31.49219,-10.64844 -34.64844,-15.69141 -1.32812,-2.12109 -2.65625,-4.23828 -2.24219,-2.58203 0.41016,1.65625 1.73829,3.77344 3.06641,5.89062 4.93359,7.88282 20.76953,17.01954 38.72266,21.05469 13.14843,2.95703 30.5,2.96875 43.375,-0.6289"
         id="path138"
         inkscape:connector-curvature="0" />
      <path
         style="fill:none;stroke:#ffffff;stroke-width:4;stroke-linecap:butt;stroke-linejoin:miter;stroke-miterlimit:10;stroke-opacity:1"
         d="m 461.39375,210.9375 c -9.94063,10.175 -19.27188,25.27812 -31.23125,32.9875 -15.24375,9.82812 -33.45625,14.0375 -50.18125,21.05625 5.25,-19.28125 16.17187,-39.7 35.44062,-51.9375 16.09063,-10.21875 28.375,-7.66563 36.84688,-8.07188"
         transform="matrix(1.25,0,0,-1.25,0,922.5)"
         id="path140"
         inkscape:connector-curvature="0" />
      <path
         style="fill:#ffffff;fill-opacity:1;fill-rule:nonzero;stroke:none"
         d="m 484.52344,612.47656 c -6.35938,-3.73437 -9.66407,-5.30859 -16.04297,-7.50781 -6.71875,-2.31641 -13.46485,-3.5 -20.25781,-2.90234 l 0.85937,10 c 5.35156,-0.46875 10.73828,0.48828 16.15625,2.35546 5.75781,1.98438 17.17578,8.15235 22.94922,11.54688"
         id="path142"
         inkscape:connector-curvature="0" />
      <path
         style="fill:none;stroke:#ffffff;stroke-width:4;stroke-linecap:butt;stroke-linejoin:miter;stroke-miterlimit:10;stroke-opacity:1"
         d="m 355.31875,255.4625 c -2.1,0 -3.8125,-1.7125 -3.8125,-3.80938 0,-2.09687 1.7125,-3.80937 3.8125,-3.80937 2.1,0 3.80937,1.7125 3.80937,3.80937 0,2.09688 -1.70937,3.80938 -3.80937,3.80938 z m 0,0"
         transform="matrix(1.25,0,0,-1.25,0,922.5)"
         id="path144"
         inkscape:connector-curvature="0" />
      <path
         style="fill:none;stroke:#ffffff;stroke-width:4;stroke-linecap:butt;stroke-linejoin:miter;stroke-miterlimit:10;stroke-opacity:1"
         d="m 384.275,243.74375 c -5.89688,1.55312 -12.5,0.175 -18.39688,-1.41563 13.38438,-14.59062 25.8375,-35.20625 44.575,-45.9875 10.76875,-6.2 25.07813,-2.20312 37.2625,-1.18125"
         transform="matrix(1.25,0,0,-1.25,0,922.5)"
         id="path146"
         inkscape:connector-curvature="0" />
      <path
         style="fill:#ffffff;fill-opacity:1;fill-rule:nonzero;stroke:none"
         d="m 544.90625,667.88672 c 1.28906,-0.043 2.57812,-0.0898 3.18359,-0.71485 l -24.04687,-9.55859 c -7.63281,-1.01172 -16.34375,-4.08984 -24.58985,-8.80469 -9.40625,-5.375 -17.84765,-12.39843 -22.82812,-20.23828 -1.33594,-2.10937 -2.67969,-4.21875 -2.12891,-2.35156 0.54688,1.87109 1.89063,3.98437 3.23047,6.09375 6.88672,10.85547 14.94531,20.36719 24.90625,26.0625 9.34375,8.83203 32.15625,12.20703 42.27344,9.51172"
         id="path148"
         inkscape:connector-curvature="0" />
      <path
         style="fill:none;stroke:#ffffff;stroke-width:4;stroke-linecap:butt;stroke-linejoin:miter;stroke-miterlimit:10;stroke-opacity:1"
         d="m 391.97187,271.67187 c -3.31875,0 -6.03125,-2.425 -6.03125,-5.39687 0,-2.975 2.7125,-5.39688 6.03125,-5.39688 3.325,0 6.03438,2.42188 6.03438,5.39688 0,2.97187 -2.70938,5.39687 -6.03438,5.39687 z m 0,0"
         transform="matrix(1.25,0,0,-1.25,0,922.5)"
         id="path150"
         inkscape:connector-curvature="0" />
      <path
         style="fill:#ffffff;fill-opacity:1;fill-rule:evenodd;stroke:none"
         d="m 571.32422,647.19531 21.02734,10.71875 -15.47265,1.58594 -7.9375,-10.71094"
         id="path152"
         inkscape:connector-curvature="0" />
      <path
         style="fill:none;stroke:#ffffff;stroke-width:4;stroke-linecap:butt;stroke-linejoin:miter;stroke-miterlimit:10;stroke-opacity:1"
         d="m 368.89062,322.29375 c -4.77187,4.92812 -16.0125,12.67187 -22.73437,14.43125 -1.14063,-10.08125 1.18125,-24.26875 4.63125,-34.90938 4.93125,-15.18437 15.95,-30.46875 30.2125,-39.34687"
         transform="matrix(1.25,0,0,-1.25,0,922.5)"
         id="path154"
         inkscape:connector-curvature="0" />
      <path
         style="fill:#ffffff;fill-opacity:1;fill-rule:evenodd;stroke:none"
         d="m 481.57031,565.60547 c 1.53906,4.23047 1.60938,15.3164 1.09375,19.54687 l 13.0586,-4.74218"
         id="path156"
         inkscape:connector-curvature="0" />
      <path
         style="fill:none;stroke:#ffffff;stroke-width:4;stroke-linecap:butt;stroke-linejoin:miter;stroke-miterlimit:10;stroke-opacity:1"
         d="m 347.84687,311.2125 c -7.6875,6.6125 -18.41562,12.33437 -27.25,14.375 0.78438,-18.16875 7.875,-42.2 23.37188,-56.2 6.775,-6.125 30.41875,-12.60938 39.28437,-13.325"
         transform="matrix(1.25,0,0,-1.25,0,922.5)"
         id="path158"
         inkscape:connector-curvature="0" />
      <path
         style="fill:#ffffff;fill-opacity:1;fill-rule:evenodd;stroke:#ffffff;stroke-width:4;stroke-linecap:butt;stroke-linejoin:miter;stroke-miterlimit:10;stroke-opacity:1"
         d="m 310.29687,342.96875 c -2.60312,0 -4.72187,-2.55625 -4.72187,-5.6875 0,-3.13125 2.11875,-5.6875 4.72187,-5.6875 2.60313,0 4.72188,2.55625 4.72188,5.6875 0,3.13125 -2.11875,5.6875 -4.72188,5.6875 z m 0,0"
         transform="matrix(1.25,0,0,-1.25,0,922.5)"
         id="path160"
         inkscape:connector-curvature="0" />
      <path
         style="fill:#ffffff;fill-opacity:1;fill-rule:nonzero;stroke:none"
         d="m 394.14844,505.70312 c 3.96875,-0.51171 8.85547,2.14454 13.77734,6.38282 2.70313,2.32812 5.35938,5.10156 7.86328,8.10547 l 0.0664,-0.10938 17.58203,10.52344 1.14844,-0.65235 C 429.48828,520.94531 422.19531,511.21875 414.44922,504.54687 407.5,498.5625 400,494.89062 392.85937,495.82031"
         id="path162"
         inkscape:connector-curvature="0" />
      <path
         style="fill:#ffffff;fill-opacity:1;fill-rule:evenodd;stroke:none"
         d="m 445.24219,520.12109 c 0.39062,5.53516 -1.86719,9.67969 2.625,20.38672 4.49218,10.71094 15.4375,27.28516 23.88672,42.81641 0.38671,-4.46485 -2.66797,-18.28125 -4.95704,-22.13281 -10.39843,-17.51563 -14.70703,-24.46875 -21.55468,-41.07032"
         id="path164"
         inkscape:connector-curvature="0" />
      <path
         style="fill:#ffffff;fill-opacity:1;fill-rule:evenodd;stroke:none"
         d="m 466.79687,590.31641 c -23.46875,-7.69532 -39.60156,-23.01563 -50.38671,-48.64063 -1.3125,-3.125 -1.64844,-7.47656 -0.8711,-10.77734 10,20.99609 24.46485,39.19922 46.89063,52.42578 1.45703,2.33203 2.91406,4.66015 4.36718,6.99219"
         id="path166"
         inkscape:connector-curvature="0" />
      <path
         style="fill:none;stroke:#ffffff;stroke-width:4;stroke-linecap:butt;stroke-linejoin:miter;stroke-miterlimit:10;stroke-opacity:1"
         d="m 353.40625,401.75625 c -2.38125,8.60312 -5.29688,16.675 -8.45625,24.5 -6.03125,-18.66563 -18.20625,-36.38438 -18.0875,-56.00313 0.0875,-14.25937 8.94687,-26.83437 18.66875,-38.50312"
         transform="matrix(1.25,0,0,-1.25,0,922.5)"
         id="path168"
         inkscape:connector-curvature="0" />
      <path
         style="fill:#ffffff;fill-opacity:1;fill-rule:evenodd;stroke:none"
         d="m 445.25391,483.12109 c 0.27343,5.01953 0.60937,11.5625 -0.25391,16.23438 2.69531,0.62109 6.91406,10.83594 8.32422,12.98437"
         id="path170"
         inkscape:connector-curvature="0" />
      <path
         style="fill:none;stroke:#ffffff;stroke-width:4;stroke-linecap:butt;stroke-linejoin:miter;stroke-miterlimit:10;stroke-opacity:1"
         d="m 330.825,390.025 c -2.55,13.69062 -8.6375,24.87812 -16.40625,31.61562 -4.14063,-8.14687 -8.09375,-23.4375 -5.86875,-42.05312 1.91875,-16.0375 8.5875,-31.94688 16.95312,-45.9625"
         transform="matrix(1.25,0,0,-1.25,0,922.5)"
         id="path172"
         inkscape:connector-curvature="0" />
      <path
         style="fill:#ffffff;fill-opacity:1;fill-rule:evenodd;stroke:#ffffff;stroke-width:4;stroke-linecap:butt;stroke-linejoin:miter;stroke-miterlimit:10;stroke-opacity:1"
         d="m 310.50625,439.24375 c -3.05313,0 -5.54063,-3 -5.54063,-6.68438 0,-3.68125 2.4875,-6.68125 5.54063,-6.68125 3.05312,0 5.54062,3 5.54062,6.68125 0,3.68438 -2.4875,6.68438 -5.54062,6.68438 z m 0,0"
         transform="matrix(1.25,0,0,-1.25,0,922.5)"
         id="path174"
         inkscape:connector-curvature="0" />
      <path
         style="fill:none;stroke:#ffffff;stroke-width:7.99989986;stroke-linecap:butt;stroke-linejoin:miter;stroke-miterlimit:10;stroke-opacity:1"
         d="m 314.53125,429.13125 c 8.59375,-7.375 13.04687,-19.65625 17.27812,-31.39688"
         transform="matrix(1.25,0,0,-1.25,0,922.5)"
         id="path176"
         inkscape:connector-curvature="0" />
      <path
         style="fill:#ffffff;fill-opacity:1;fill-rule:evenodd;stroke:none"
         d="m 431.65625,411.38672 c -13.19531,25.64062 -11.03125,61.64453 0.77344,90.87109 3.10937,0.64844 6.21093,1.29688 9.32422,1.94141 -10.14844,-28.25391 -16.05079,-63.52735 -10.09766,-92.8125"
         id="path178"
         inkscape:connector-curvature="0" />
      <path
         style="fill:#ffffff;fill-opacity:1;fill-rule:evenodd;stroke:none"
         d="m 423.10937,500.31641 c -5.71875,-13.41016 -13.58593,-17.41797 -14.64843,-32.625 -10.41797,-12.23829 -11.23828,-37.5586 -12.22657,-53.76563 -5.70703,34.63281 2.69532,67.30469 26.875,86.39063"
         id="path180"
         inkscape:connector-curvature="0" />
      <path
         style="fill:none;stroke:#ffffff;stroke-width:4;stroke-linecap:butt;stroke-linejoin:miter;stroke-miterlimit:10;stroke-opacity:1"
         d="m 335.88125,404.35937 c -3.39688,11.925 -5.14375,25.49063 -3.7625,38.94688 1.70625,16.625 30.91562,44.76875 48.78437,64.74375 2.3625,-4.73125 2.16563,-9.85625 0.59063,-15.36875"
         transform="matrix(1.25,0,0,-1.25,0,922.5)"
         id="path182"
         inkscape:connector-curvature="0" />
      <path
         style="fill:none;stroke:#ffffff;stroke-width:4;stroke-linecap:butt;stroke-linejoin:miter;stroke-miterlimit:10;stroke-opacity:1"
         d="m 351.51875,474.79687 c 0.1,16.45625 -3.14063,32.075 -9.35,43.01251 -10.1625,-17.27188 -20.29375,-35.58751 -22.17188,-56.17188 -1.46562,-16.025 0.39375,-29.17188 4.14063,-42.87188"
         transform="matrix(1.25,0,0,-1.25,0,922.5)"
         id="path184"
         inkscape:connector-curvature="0" />
      <path
         style="fill:#ffffff;fill-opacity:1;fill-rule:evenodd;stroke:none"
         d="m 436.02344,256.39062 c -3.5586,0 -6.46094,3.15625 -6.46094,7.02344 0,3.86719 2.90234,7.01953 6.46094,7.01953 3.5664,0 6.47265,-3.15234 6.47265,-7.01953 0,-3.86719 -2.90625,-7.02344 -6.47265,-7.02344"
         id="path186"
         inkscape:connector-curvature="0" />
      <path
         style="fill:#ffffff;fill-opacity:1;fill-rule:nonzero;stroke:none"
         d="m 432.4375,266.40625 c 3.79687,6.28906 7.91797,15.40625 10.9375,25.35156 2.46875,8.14844 4.17187,16.79688 4.30078,24.78906 l 0.21094,0 9.03515,-9.78125 c -0.80859,-6.00781 -2.21484,-12.08203 -3.97656,-17.89843 -3.25781,-10.75 -7.76953,-20.69532 -11.95312,-27.61719"
         id="path188"
         inkscape:connector-curvature="0" />
      <path
         style="fill:#ffffff;fill-opacity:1;fill-rule:evenodd;stroke:none"
         d="m 416.09766,400.47656 c 3.23437,1.375 7.13671,0.53906 10.97656,-0.0703 -2.28906,4.57812 -5.01953,10.60937 -7.3086,15.1875 -1.21875,-5.03906 -2.4414,-10.07813 -3.66796,-15.11719"
         id="path190"
         inkscape:connector-curvature="0" />
      <path
         style="fill:#ffffff;fill-opacity:1;fill-rule:evenodd;stroke:none"
         d="m 425.86328,398.11719 c 2.38281,-10.84375 2.22266,-22.21094 7.15234,-32.52735 6.30079,-13.16797 16.33985,-24.20703 25.375,-35.1289 -10.77343,20.01172 -17.63281,41.77343 -24.07031,64.40234 -2.16797,1.41016 -6.28906,1.83984 -8.45703,3.25391"
         id="path192"
         inkscape:connector-curvature="0" />
      <path
         style="fill:#ffffff;fill-opacity:1;fill-rule:evenodd;stroke:none"
         d="m 425.53906,297.60937 c 2.70703,3.89844 2.52735,16.55469 0,23.08985 -5.78906,14.96484 -5.3125,23.52734 -9.4375,39.03125 -0.97656,8.45703 -1.94531,16.91406 -2.92187,25.3789 -1.41407,-10.73828 -5.82032,-20.96484 -3.57813,-31.55468 3.79688,-17.94922 12.83985,-35.08203 15.9375,-55.94532"
         id="path194"
         inkscape:connector-curvature="0" />
      <path
         style="fill:#ffffff;fill-opacity:1;fill-rule:evenodd;stroke:none"
         d="m 564.77344,663 c -5.42969,-1.49219 -10.90625,-2.00391 -15.96094,-4.46875 -24.79688,-12.10547 -42.83203,-28.22656 -54.59375,-44.375 5.42969,1.0625 15.77734,4.5 19.79687,8.30078 16.83594,15.91016 32.46485,28.25391 58.10157,39.26563 -2.44922,0.42578 -4.89453,0.85156 -7.34375,1.27734"
         id="path196"
         inkscape:connector-curvature="0" />
      <path
         style="fill:none;stroke:#ffffff;stroke-width:4;stroke-linecap:butt;stroke-linejoin:miter;stroke-miterlimit:10;stroke-opacity:1"
         d="m 440.7375,557.71875 c 4.28125,7.62188 8.8125,17.4625 11.35937,25.70312 -26.44375,-14.11562 -52.0625,-27.40937 -71.51562,-48.60937 -9.63125,-10.5 -12.10625,-27.12813 -13.03438,-40.225"
         transform="matrix(1.25,0,0,-1.25,0,922.5)"
         id="path198"
         inkscape:connector-curvature="0" />
      <path
         style="fill:none;stroke:#ffffff;stroke-width:4;stroke-linecap:butt;stroke-linejoin:miter;stroke-miterlimit:10;stroke-opacity:1"
         d="m 418.39062,564.79687 c -0.10312,9.95625 10.10625,24.4875 9.125,27.375 -25.40625,-12.57812 -48.97187,-28.52812 -63.13437,-53.63437 -5.81875,-10.31563 -5.65,-22.90938 -4.84375,-35.19688"
         transform="matrix(1.25,0,0,-1.25,0,922.5)"
         id="path200"
         inkscape:connector-curvature="0" />
      <path
         style="fill:#ffffff;fill-opacity:1;fill-rule:evenodd;stroke:none"
         d="m 469.21094,291.46484 c 5.58984,-9.46875 10.76562,-17.32812 16.76172,-26.53906 10.13671,-15.56641 27.53906,-23.66797 42.36718,-32.58984 -20.65234,17.48828 -40.99609,37.21875 -50.98047,59.1289 -2.71484,1.08203 -5.42968,-1.08984 -8.14843,0"
         id="path202"
         inkscape:connector-curvature="0" />
      <path
         style="fill:#ffffff;fill-opacity:1;fill-rule:evenodd;stroke:none"
         d="m 470.60547,260.96875 c -0.92578,-6.59766 3.77734,-19.30469 8.38281,-24.67969 8.82422,-10.29297 12.93359,-12.61328 24.44531,-19.78515 3.52735,-2.20313 8.32032,-9.69922 9.54297,-12.57422 -14.58594,12.10937 -32.80469,17.85937 -42.37109,34.22656 -9.88281,16.92187 -11.8711,40.57812 -12.56641,59.82812 3.95313,-13.27343 8.60938,-23.74609 12.56641,-37.01562"
         id="path204"
         inkscape:connector-curvature="0" />
    </g>
  </g>
</svg>
