<?xml version="1.0" encoding="UTF-8" ?>
<!DOCTYPE svg PUBLIC "-//W3C//DTD SVG 1.1//EN" "http://www.w3.org/Graphics/SVG/1.1/DTD/svg11.dtd">
<svg width="903pt" height="628pt" viewBox="0 0 903 628" version="1.1" xmlns="http://www.w3.org/2000/svg">
<path fill="#ffffff" d=" M 0.00 0.00 L 903.00 0.00 L 903.00 628.00 L 0.00 628.00 L 0.00 0.00 Z" />
<path fill="#003300" d=" M 1.07 1.07 C 36.05 0.67 71.04 1.09 106.02 0.88 C 351.34 0.96 596.66 0.90 841.99 0.92 C 861.97 1.06 881.96 0.68 901.93 1.08 C 902.33 49.73 901.96 98.39 902.09 147.05 C 902.09 246.02 902.06 344.99 902.09 443.96 C 901.99 505.00 902.24 566.05 901.96 627.09 C 601.65 627.08 301.35 627.08 1.05 627.08 C 0.72 600.40 1.05 573.70 0.94 547.01 C 0.91 379.69 0.97 212.36 0.88 45.03 C 1.13 30.38 0.63 15.72 1.07 1.07 Z" />
<path fill="#b8b6ae" d=" M 473.24 64.01 C 485.98 67.93 496.84 77.64 501.84 90.04 C 506.54 101.36 506.06 114.65 500.60 125.62 C 494.71 137.69 483.16 146.72 470.11 149.76 C 458.49 152.40 445.82 150.68 435.62 144.41 C 427.94 139.91 421.91 132.98 417.88 125.09 C 424.07 130.48 431.33 134.86 439.50 136.33 C 452.87 139.11 467.47 134.83 477.19 125.23 C 485.31 117.48 490.00 106.23 489.55 94.99 C 489.26 82.85 482.89 71.27 473.24 64.01 Z" />
<path fill="#b8b6ae" d=" M 435.58 80.88 C 438.17 78.49 440.35 75.70 442.77 73.14 C 442.47 76.74 442.10 80.32 441.70 83.91 C 445.03 85.22 448.33 86.61 451.56 88.18 C 448.02 89.02 444.46 89.75 440.93 90.60 C 440.66 94.05 440.39 97.50 439.86 100.92 C 437.99 98.02 436.23 95.04 434.51 92.05 C 430.91 92.64 427.35 93.44 423.76 94.11 C 426.04 91.41 428.64 88.97 430.71 86.10 C 429.19 82.92 427.13 80.05 425.44 76.97 C 428.83 78.23 432.02 80.12 435.58 80.88 Z" />
<path fill="#b8b6ae" d=" M 327.39 144.06 C 328.03 141.44 329.67 139.22 331.04 136.93 C 332.21 139.24 333.31 141.60 334.26 144.01 C 336.79 142.90 339.37 141.92 342.00 141.09 C 341.33 144.21 340.28 147.25 338.63 149.99 C 341.50 151.01 344.13 152.58 346.57 154.40 C 343.85 155.58 341.06 156.97 338.01 156.88 C 334.91 156.78 332.19 155.15 329.36 154.10 C 325.17 157.53 321.11 161.12 317.20 164.86 C 322.46 163.83 327.74 162.82 333.07 162.21 C 331.80 164.17 330.37 166.11 328.29 167.27 C 323.45 170.18 318.35 172.65 313.59 175.70 C 315.28 175.60 316.97 175.49 318.66 175.40 C 318.14 177.33 317.58 179.26 317.01 181.17 C 320.09 182.05 323.26 183.29 325.20 186.00 C 323.52 187.80 321.24 188.85 319.08 189.95 C 320.12 191.97 321.08 194.04 321.60 196.27 C 318.27 197.80 314.59 197.07 311.50 195.38 C 309.66 197.45 307.34 199.00 304.70 199.84 C 304.31 195.89 304.98 191.93 306.62 188.32 C 301.08 190.37 296.08 193.57 291.77 197.59 C 294.70 196.96 297.73 196.51 300.59 197.74 C 295.74 204.21 289.42 209.26 282.99 214.05 C 279.91 216.10 278.75 219.72 277.78 223.10 C 280.82 219.09 284.04 215.06 288.46 212.50 C 294.10 209.17 300.03 206.36 305.77 203.20 C 304.75 209.06 299.87 212.88 296.16 217.10 C 290.10 223.73 283.86 230.20 277.23 236.26 C 273.99 239.37 270.52 242.67 269.85 247.36 C 276.58 239.74 284.68 233.39 293.56 228.47 C 295.26 227.44 297.27 227.31 299.19 227.12 C 294.21 233.96 286.95 238.60 281.27 244.81 C 284.90 246.66 288.23 249.56 288.57 253.90 C 287.98 247.82 292.09 242.61 297.41 240.22 C 299.76 244.18 300.08 248.95 298.24 253.19 C 301.46 253.74 304.90 254.45 307.18 257.01 C 305.25 260.29 301.76 262.05 298.30 263.29 C 300.45 266.68 301.65 270.66 300.65 274.67 C 296.32 273.97 292.20 272.10 289.45 268.60 C 287.25 272.41 283.55 274.99 279.29 276.01 C 278.87 274.79 278.46 273.57 278.06 272.35 C 277.06 273.76 276.07 275.18 275.07 276.59 C 276.01 276.70 277.88 276.90 278.82 277.00 C 278.31 278.68 278.32 280.68 277.09 282.05 C 275.21 283.58 272.78 284.23 270.85 285.68 C 268.33 290.54 266.81 295.85 265.24 301.08 C 265.88 301.88 266.39 302.74 266.75 303.69 C 266.02 304.69 265.18 305.62 264.36 306.56 C 264.34 307.80 264.34 309.04 264.34 310.29 C 270.09 300.08 276.96 290.51 284.81 281.81 C 286.56 279.82 288.66 278.18 290.93 276.82 C 290.58 279.22 289.79 281.55 288.51 283.62 C 281.93 294.66 274.05 305.05 269.33 317.10 C 266.40 324.35 268.31 332.22 269.19 339.68 C 271.86 341.77 274.31 344.14 276.35 346.87 C 276.82 344.38 277.52 341.94 278.45 339.58 C 280.75 340.43 283.06 341.24 285.37 342.06 C 285.82 340.69 286.30 339.33 286.76 337.96 C 286.15 336.98 285.53 335.99 284.92 335.01 C 282.60 335.45 280.20 336.18 277.83 335.62 C 274.56 334.88 272.00 332.54 269.50 330.46 C 273.16 326.84 278.59 326.92 283.37 326.58 C 277.41 320.83 276.63 311.85 278.46 304.16 C 283.20 306.57 287.31 310.19 289.66 315.02 C 293.13 309.11 297.26 303.26 303.30 299.75 C 303.47 307.67 303.73 316.34 299.27 323.28 C 304.54 321.69 310.09 322.04 315.50 322.50 C 311.99 327.88 306.83 332.05 300.96 334.59 C 303.19 337.28 305.01 340.28 306.46 343.46 C 300.29 343.26 294.43 341.36 288.71 339.21 C 288.08 341.06 287.47 342.91 286.87 344.76 C 288.63 344.42 290.38 344.07 292.14 343.72 C 292.31 346.42 293.21 349.33 291.92 351.89 C 290.42 354.99 287.36 356.83 284.80 358.96 C 284.96 363.48 285.30 368.01 285.98 372.49 C 290.16 362.68 296.70 353.81 305.16 347.28 C 305.55 349.54 305.97 351.93 305.15 354.16 C 303.16 360.00 299.92 365.31 296.92 370.67 C 300.58 372.25 303.05 375.38 303.91 379.27 C 305.49 374.07 308.85 369.59 313.47 366.70 C 314.59 372.29 316.59 378.35 314.39 383.93 C 318.99 382.12 323.84 383.42 328.29 385.00 C 324.87 389.89 320.12 393.76 314.43 395.68 C 318.45 401.03 321.84 406.85 324.56 412.97 C 324.47 410.65 324.14 408.30 324.58 406.00 C 325.89 403.25 328.39 401.25 331.04 399.84 C 333.03 402.85 334.69 406.32 334.62 410.00 C 334.41 414.28 329.46 416.32 328.34 420.01 C 330.56 425.95 333.71 431.55 336.83 437.08 C 338.30 440.01 341.02 441.90 343.68 443.67 C 345.04 442.61 346.42 441.58 347.82 440.57 C 342.76 438.14 339.14 433.42 337.61 428.08 C 342.86 427.62 347.92 429.17 352.69 431.21 C 351.63 426.31 350.41 420.99 352.33 416.16 C 357.49 417.05 360.34 423.14 360.84 427.98 C 365.16 425.31 370.12 423.60 375.27 424.39 C 374.44 428.10 372.74 431.53 370.47 434.56 C 375.43 436.11 379.40 439.56 382.88 443.29 C 378.81 447.79 372.26 446.55 366.86 446.96 C 372.48 452.71 378.80 457.68 384.95 462.83 C 382.26 458.15 381.69 452.72 381.28 447.44 C 381.14 446.34 381.29 445.30 381.72 444.30 C 385.32 446.23 387.38 450.02 390.17 452.89 C 395.69 458.81 400.11 465.61 405.03 472.01 C 409.37 470.82 413.30 468.50 417.70 467.50 C 416.89 465.92 416.09 464.33 415.30 462.75 C 408.30 462.30 401.52 459.31 396.24 454.75 C 393.26 452.25 392.14 448.37 392.27 444.59 C 397.18 445.15 401.98 446.47 406.42 448.65 C 406.14 445.90 405.57 443.03 406.57 440.35 C 407.38 437.78 409.64 436.13 411.60 434.44 C 414.55 438.32 416.82 442.71 417.83 447.51 C 421.67 443.95 426.89 442.71 432.00 442.59 C 430.37 448.39 427.81 453.97 423.72 458.47 C 427.87 461.57 428.01 467.51 424.59 471.21 C 426.65 472.66 428.67 474.17 430.63 475.76 C 431.19 472.99 431.75 470.04 433.76 467.91 C 437.90 463.23 443.78 460.41 447.40 455.22 C 446.80 453.45 446.22 451.67 445.69 449.89 C 447.98 451.23 451.42 452.02 451.99 455.04 C 449.08 460.94 441.48 463.36 439.80 470.03 C 439.04 475.57 442.57 480.43 445.04 485.09 C 446.42 485.66 447.81 486.21 449.20 486.80 C 446.83 482.34 446.84 476.79 449.86 472.62 C 453.89 479.02 458.38 485.23 460.55 492.58 C 461.00 492.59 461.90 492.62 462.35 492.64 C 464.46 485.77 468.39 479.76 472.31 473.82 C 473.84 472.27 474.65 475.07 474.89 476.20 C 476.10 479.76 475.26 483.51 473.71 486.82 C 475.09 486.22 476.50 485.66 477.89 485.09 C 480.24 480.65 483.40 476.16 483.27 470.94 C 482.25 463.95 474.55 461.32 471.26 455.70 C 470.35 452.33 475.08 451.34 477.08 449.84 C 476.60 451.66 476.09 453.47 475.57 455.28 C 480.53 462.63 491.73 465.64 492.20 475.72 C 494.20 474.17 496.24 472.68 498.32 471.24 C 496.95 469.05 495.26 466.64 495.88 463.90 C 496.09 461.64 497.80 460.05 499.20 458.45 C 495.09 453.98 492.59 448.38 490.89 442.61 C 496.01 442.70 501.23 443.95 505.10 447.50 C 506.10 442.69 508.36 438.28 511.36 434.43 C 513.15 436.03 515.22 437.54 516.17 439.84 C 517.32 442.63 516.74 445.73 516.55 448.64 C 520.97 446.44 525.77 445.14 530.67 444.59 C 530.78 448.35 529.69 452.21 526.72 454.70 C 521.46 459.30 514.65 462.30 507.65 462.74 C 506.84 464.32 506.02 465.91 505.19 467.49 C 509.58 468.22 513.24 471.19 517.64 471.72 C 521.67 468.01 524.13 462.91 527.72 458.79 C 531.87 453.97 535.84 448.98 540.32 444.47 C 540.67 444.66 541.37 445.04 541.72 445.23 C 541.52 451.08 540.90 457.09 538.28 462.41 C 544.49 457.58 550.52 452.51 556.09 446.95 C 550.68 446.55 544.12 447.78 540.03 443.32 C 543.47 439.53 547.50 436.15 552.44 434.55 C 550.22 431.51 548.57 428.11 547.48 424.52 C 552.67 423.49 557.69 425.31 562.09 427.96 C 562.43 423.13 565.16 418.68 569.27 416.15 C 571.13 415.66 571.09 417.83 571.43 419.07 C 571.96 423.15 571.13 427.24 570.25 431.21 C 575.00 429.14 580.06 427.73 585.30 427.83 C 583.95 433.32 580.20 438.07 575.13 440.58 C 576.52 441.59 577.89 442.62 579.27 443.67 C 581.44 442.09 583.89 440.67 585.31 438.29 C 588.75 432.84 591.55 427.00 594.26 421.16 C 595.37 419.66 593.71 418.34 592.88 417.22 C 591.27 415.23 589.04 413.51 588.42 410.94 C 587.90 407.13 589.61 403.46 591.52 400.28 C 593.66 399.94 595.14 402.15 596.59 403.42 C 599.37 405.85 598.47 409.73 598.39 412.97 C 601.05 406.83 604.49 401.04 608.48 395.68 C 602.80 393.75 598.06 389.88 594.63 385.00 C 599.09 383.39 603.93 382.16 608.55 383.92 C 606.35 378.35 608.29 372.29 609.46 366.70 C 614.02 369.56 617.29 373.99 618.99 379.08 C 620.04 375.34 622.32 372.20 625.99 370.69 C 623.11 365.58 620.06 360.51 618.04 354.97 C 617.18 352.68 616.80 350.06 617.94 347.80 C 618.87 348.21 619.73 348.76 620.51 349.43 C 627.51 355.80 633.21 363.61 636.87 372.35 C 637.59 367.94 638.20 363.45 637.82 358.97 C 635.65 356.55 632.44 355.02 631.02 351.96 C 629.63 349.34 630.60 346.36 631.05 343.63 C 632.29 343.93 634.78 344.54 636.03 344.84 C 635.43 342.96 634.85 341.09 634.25 339.22 C 628.50 341.33 622.62 343.28 616.44 343.45 C 617.91 340.27 619.74 337.27 621.98 334.58 C 616.07 332.08 610.95 327.86 607.42 322.50 C 612.71 321.98 618.07 321.91 623.31 322.95 C 619.33 315.93 619.38 307.56 619.64 299.74 C 625.67 303.28 629.80 309.13 633.27 315.04 C 635.58 310.16 639.73 306.54 644.52 304.17 C 646.20 311.88 645.63 321.08 639.32 326.63 C 644.00 326.93 649.41 326.71 653.11 330.11 C 649.90 335.02 643.47 337.04 637.99 334.99 C 637.37 336.01 636.76 337.03 636.15 338.05 C 636.63 339.39 637.09 340.73 637.58 342.08 C 639.88 341.24 642.19 340.43 644.49 339.57 C 645.38 341.94 646.07 344.38 646.59 346.87 C 648.62 344.15 651.06 341.78 653.72 339.68 C 654.59 332.22 656.53 324.33 653.57 317.07 C 648.95 305.24 641.24 295.02 634.76 284.20 C 633.41 281.96 632.43 279.52 631.63 277.05 C 635.88 278.56 638.53 282.33 641.40 285.57 C 647.90 293.23 653.61 301.52 658.57 310.25 C 658.59 309.00 658.61 307.75 658.63 306.50 C 657.63 305.43 656.65 304.35 655.67 303.26 C 656.22 302.81 657.31 301.91 657.85 301.46 C 656.16 296.20 654.70 290.79 652.16 285.87 C 650.40 284.14 647.74 283.70 645.88 282.08 C 644.79 280.75 644.55 278.95 643.99 277.38 C 645.27 277.05 646.57 276.74 647.87 276.43 C 646.83 275.11 645.82 273.80 644.79 272.49 C 644.51 273.37 643.93 275.14 643.64 276.02 C 639.38 275.00 635.68 272.42 633.48 268.61 C 630.66 271.90 626.65 274.53 622.15 274.25 C 621.03 270.37 622.72 266.57 624.63 263.28 C 621.40 262.09 618.09 260.57 616.08 257.64 C 616.93 254.07 621.75 254.00 624.70 253.19 C 622.80 249.03 623.38 244.46 625.08 240.36 C 630.56 242.08 634.32 247.21 634.52 252.93 C 635.13 248.97 638.39 246.58 641.65 244.79 C 635.93 238.64 628.78 233.91 623.71 227.17 C 625.65 227.31 627.69 227.43 629.40 228.49 C 638.28 233.40 646.31 239.79 653.11 247.32 C 652.26 242.19 648.23 238.75 644.71 235.34 C 636.50 227.86 629.04 219.62 621.56 211.44 C 619.36 209.14 617.75 206.34 617.16 203.19 C 624.24 207.33 632.11 210.24 638.51 215.47 C 641.09 217.69 643.04 220.49 645.18 223.11 C 644.14 219.76 643.04 216.10 639.94 214.06 C 633.49 209.27 627.17 204.22 622.35 197.73 C 625.20 196.49 628.22 196.93 631.14 197.67 C 626.89 193.53 621.80 190.40 616.28 188.26 C 617.93 191.88 618.59 195.85 618.26 199.83 C 615.59 199.01 613.25 197.48 611.43 195.38 C 608.29 197.23 604.65 197.36 601.18 196.48 C 601.92 194.30 602.86 192.19 603.64 190.02 C 601.65 188.71 599.47 187.68 597.70 186.07 C 599.61 183.26 602.87 182.04 606.00 181.15 C 605.38 179.25 604.77 177.34 604.22 175.42 C 605.92 175.51 607.62 175.60 609.34 175.71 C 604.58 172.66 599.49 170.19 594.65 167.28 C 592.56 166.12 591.13 164.17 589.85 162.22 C 595.08 162.79 600.24 163.84 605.41 164.78 C 601.78 160.95 597.70 157.59 593.72 154.13 C 590.85 155.12 588.11 156.69 585.03 156.87 C 581.93 157.02 579.09 155.59 576.34 154.38 C 578.79 152.58 581.43 151.03 584.30 149.99 C 582.61 147.26 581.60 144.21 580.93 141.09 C 583.54 141.92 586.13 142.90 588.64 144.02 C 589.61 141.60 590.71 139.25 591.91 136.94 C 593.27 139.24 594.89 141.48 595.54 144.11 C 596.20 146.77 595.24 149.42 594.46 151.93 C 596.06 153.26 597.66 154.61 599.25 155.97 C 599.96 153.26 600.68 150.55 601.34 147.83 C 603.51 149.65 605.69 151.43 607.89 153.22 C 607.52 151.17 607.18 149.12 606.86 147.08 C 609.00 148.05 611.12 149.09 613.21 150.19 C 614.69 148.17 616.38 146.31 618.21 144.60 C 618.63 146.64 619.02 148.69 619.40 150.74 C 621.51 150.50 623.63 150.31 625.77 150.17 C 624.07 154.20 621.04 157.52 616.68 158.59 C 616.45 162.12 616.33 165.66 616.28 169.20 C 617.47 167.03 618.60 164.80 620.10 162.81 C 626.58 167.00 624.92 175.93 625.62 182.52 C 627.00 185.08 628.94 187.28 630.55 189.70 C 629.01 181.12 630.03 172.15 626.69 163.91 C 627.22 163.70 628.28 163.29 628.81 163.09 C 632.47 168.25 634.79 174.13 637.35 179.86 C 639.64 180.41 642.01 180.60 644.34 181.03 C 643.72 176.32 645.65 171.79 649.16 168.68 C 651.53 171.37 652.98 174.67 653.86 178.12 C 657.45 176.95 661.27 176.62 664.92 177.79 C 663.60 181.28 661.27 184.22 658.48 186.66 C 661.73 188.51 664.39 191.23 665.88 194.69 C 662.67 196.18 659.13 195.57 655.82 194.83 C 655.85 198.62 655.16 202.55 652.10 205.11 C 650.45 202.79 649.15 200.26 648.00 197.67 C 645.93 206.61 644.92 216.41 648.55 225.09 C 649.84 228.46 650.94 231.89 652.14 235.29 C 653.83 223.09 658.28 211.49 659.93 199.28 C 663.56 201.03 664.91 205.14 664.38 208.94 C 662.72 222.21 657.41 234.72 655.64 247.96 C 656.27 253.34 657.71 258.60 658.43 263.98 C 659.59 257.76 662.42 252.11 665.63 246.73 C 664.66 243.45 662.93 240.38 662.55 236.93 C 661.52 231.00 663.26 224.79 667.05 220.15 C 671.38 223.24 673.16 228.72 672.42 233.87 C 676.20 230.81 680.63 228.03 685.69 228.19 C 685.60 230.81 685.41 233.53 684.08 235.86 C 682.47 239.35 678.97 241.28 676.05 243.54 C 681.18 245.33 686.45 248.14 688.31 253.63 C 688.08 257.42 688.84 261.49 686.83 264.94 C 682.66 272.82 676.94 279.74 672.14 287.23 C 674.01 289.21 675.68 291.37 677.19 293.64 C 679.87 289.83 683.93 287.29 688.51 286.44 C 689.23 290.90 688.83 295.52 686.68 299.55 C 690.51 300.03 693.81 302.01 696.23 305.00 C 693.41 307.68 689.74 309.00 685.86 308.84 C 688.57 312.62 689.12 317.31 688.19 321.80 C 682.53 321.04 677.46 316.86 676.68 311.03 C 675.91 315.80 673.25 320.15 668.80 322.28 C 668.02 320.20 667.32 318.08 666.68 315.96 C 662.92 322.61 660.15 329.75 658.00 337.08 C 661.55 335.79 665.32 335.22 668.83 333.87 C 675.93 329.44 683.14 324.68 691.48 323.00 C 689.78 329.52 682.91 332.48 678.59 337.09 C 681.46 340.89 684.03 345.19 684.54 350.02 C 682.99 355.74 678.18 359.86 673.63 363.34 C 674.58 356.55 678.62 350.67 679.50 343.90 C 680.07 341.63 677.46 339.57 675.39 340.25 C 669.49 344.90 666.12 351.81 661.69 357.72 C 657.74 363.31 653.10 368.41 647.66 372.59 C 650.42 372.52 653.75 373.22 655.51 370.48 C 659.48 365.67 666.16 364.99 671.99 365.26 C 671.69 367.32 671.80 369.64 670.40 371.34 C 668.98 373.47 666.32 373.98 664.07 374.73 C 671.36 375.26 677.80 380.16 680.42 386.96 C 674.28 388.78 667.36 388.80 662.04 384.81 C 662.80 386.81 663.79 388.80 663.94 390.98 C 663.61 392.93 662.58 394.66 661.81 396.46 C 656.92 393.99 652.68 390.06 651.12 384.67 C 643.15 393.54 636.26 403.40 627.39 411.43 C 624.26 414.37 620.15 416.26 617.81 420.00 C 629.13 413.75 638.73 403.53 652.06 401.56 C 661.02 399.80 667.53 410.71 665.44 418.56 C 662.77 425.24 655.38 427.80 650.54 432.54 C 648.50 434.61 649.13 438.77 646.30 439.97 C 643.94 437.41 641.82 433.33 643.92 430.01 C 648.77 423.52 657.46 421.50 662.14 414.80 C 659.77 412.76 656.96 411.36 653.99 410.48 C 638.18 416.41 625.40 427.75 611.05 436.29 C 614.57 436.59 618.32 437.22 620.48 440.34 C 621.62 435.49 625.07 431.73 629.03 428.93 C 631.10 432.67 633.64 436.85 632.05 441.28 C 637.59 440.94 643.40 441.92 648.17 444.87 C 645.81 447.85 642.41 449.67 639.08 451.36 C 642.23 454.70 643.75 459.07 645.09 463.37 C 639.30 464.01 632.49 463.92 628.58 458.88 C 628.54 463.80 627.37 468.65 625.10 473.02 C 620.67 469.11 617.64 463.14 619.06 457.15 C 614.78 460.42 609.18 461.21 603.95 461.05 C 603.47 460.67 602.51 459.92 602.03 459.54 C 596.33 461.28 592.10 456.77 587.84 453.91 C 576.92 455.11 566.27 458.36 555.73 461.42 C 566.06 461.55 576.36 462.53 586.70 462.51 C 586.74 463.05 586.81 464.13 586.85 464.67 C 580.48 467.12 574.32 470.16 567.68 471.86 C 573.19 473.26 578.68 474.80 584.06 476.69 C 586.54 473.46 589.13 469.95 593.07 468.42 C 597.56 466.44 602.56 466.54 607.36 466.84 C 605.62 471.67 602.80 476.36 597.71 478.20 C 605.16 479.44 610.75 485.08 614.49 491.31 C 607.20 492.32 599.54 490.97 593.31 486.98 C 594.67 492.58 592.84 498.09 590.99 503.32 C 587.55 499.96 583.59 496.63 582.18 491.85 C 580.79 487.49 582.04 482.96 582.93 478.65 C 575.45 476.20 567.88 473.92 560.14 472.49 C 553.44 471.89 546.70 472.53 540.00 472.92 C 552.10 476.62 562.72 483.59 573.81 489.43 C 573.78 489.99 573.72 491.11 573.68 491.68 C 560.59 492.44 550.21 483.37 538.68 478.76 C 539.37 481.41 539.72 484.12 539.81 486.86 C 544.19 485.88 548.96 486.36 552.26 489.68 C 549.55 492.62 546.22 494.95 542.36 496.08 C 545.05 499.41 545.26 503.70 544.54 507.75 C 541.92 507.04 539.33 506.25 536.84 505.18 C 535.27 507.83 533.38 510.27 531.32 512.55 C 528.49 509.53 527.08 505.53 527.66 501.40 C 523.21 504.34 517.61 503.87 512.81 502.14 C 514.27 497.96 517.18 494.61 520.84 492.19 C 518.55 489.90 515.12 488.86 512.31 487.23 C 511.70 488.65 511.10 490.10 510.44 491.51 C 510.44 492.10 510.44 493.29 510.44 493.88 C 505.31 495.69 500.52 498.71 495.02 499.26 C 485.29 499.09 476.58 493.59 466.97 492.86 C 466.13 493.30 463.94 492.93 464.30 494.39 C 472.13 499.46 480.01 504.57 486.99 510.81 C 485.77 511.68 484.57 512.55 483.36 513.41 C 476.22 507.42 469.21 501.10 461.30 496.18 C 453.56 501.46 446.48 507.63 439.22 513.53 C 438.16 512.53 437.12 511.52 436.09 510.52 C 443.44 504.37 451.37 498.97 459.46 493.84 C 457.32 493.33 455.12 492.47 452.93 493.16 C 444.87 494.82 437.28 498.56 429.03 499.27 C 423.11 499.23 418.00 495.78 412.54 493.93 C 412.53 493.33 412.50 492.13 412.49 491.53 C 411.82 490.11 411.19 488.65 410.61 487.22 C 407.69 488.75 404.59 490.05 401.98 492.11 C 405.65 494.59 408.72 497.89 410.07 502.20 C 405.27 503.85 399.71 504.32 395.28 501.42 C 395.82 505.54 394.45 509.55 391.59 512.54 C 389.53 510.26 387.64 507.82 386.07 505.18 C 383.59 506.23 381.03 507.06 378.44 507.75 C 377.44 503.71 377.93 499.44 380.53 496.09 C 376.88 494.76 372.82 493.03 371.07 489.30 C 374.26 486.13 378.97 486.07 383.12 486.84 C 383.22 484.13 383.56 481.44 384.19 478.81 C 372.37 483.34 361.70 493.25 348.23 491.33 C 350.02 488.28 353.54 487.20 356.40 485.46 C 364.91 480.61 373.55 475.83 382.96 472.93 C 375.82 472.57 368.59 471.67 361.48 472.70 C 354.28 474.42 346.95 475.95 340.12 478.85 C 340.62 482.91 342.11 487.01 340.94 491.10 C 339.78 496.26 335.52 499.78 331.94 503.33 C 330.06 498.10 328.27 492.57 329.64 486.98 C 323.39 490.97 315.72 492.31 308.43 491.31 C 312.17 485.07 317.77 479.42 325.24 478.20 C 320.11 476.39 317.32 471.67 315.56 466.84 C 320.75 466.49 326.25 466.47 330.98 468.95 C 334.38 470.61 336.60 473.80 338.88 476.70 C 344.24 474.79 349.73 473.25 355.25 471.86 C 348.63 470.18 342.49 467.13 336.13 464.71 C 336.15 464.16 336.18 463.06 336.20 462.52 C 346.56 462.52 356.89 461.53 367.26 461.44 C 356.71 458.20 345.99 455.48 335.10 453.64 C 331.08 456.95 326.56 461.15 320.89 459.57 C 318.80 462.09 315.37 460.90 312.59 460.64 C 309.16 460.25 305.84 459.00 303.45 456.44 C 305.70 462.56 302.38 468.92 297.87 473.02 C 295.47 468.54 294.22 463.48 294.47 458.40 C 290.95 464.04 283.69 463.97 277.84 463.38 C 279.18 459.08 280.66 454.68 283.86 451.36 C 280.37 449.72 277.14 447.57 274.45 444.80 C 279.50 442.28 285.14 440.79 290.82 441.26 C 289.37 436.82 291.79 432.65 293.91 428.91 C 297.79 431.70 301.11 435.39 302.42 440.09 C 304.73 437.38 308.19 436.65 311.55 436.21 C 297.46 427.51 284.64 416.49 269.02 410.49 C 266.24 411.54 262.78 412.20 261.17 414.99 C 265.58 421.96 274.86 423.60 279.32 430.51 C 281.11 434.26 278.33 437.92 276.00 440.65 C 274.69 438.02 274.08 435.04 272.43 432.60 C 267.73 427.95 260.72 425.48 257.73 419.25 C 254.94 411.25 261.72 399.70 270.95 401.58 C 284.18 403.67 293.91 413.58 305.01 420.12 C 302.98 416.39 299.00 414.58 295.98 411.82 C 286.90 403.71 279.86 393.71 271.81 384.64 C 270.25 390.00 266.06 393.91 261.23 396.42 C 260.34 394.63 259.46 392.83 258.61 391.02 C 259.33 388.93 260.11 386.86 260.94 384.82 C 255.58 388.75 248.68 388.80 242.52 386.97 C 245.08 380.11 251.61 375.30 258.89 374.69 C 256.64 373.99 254.02 373.52 252.59 371.43 C 251.11 369.72 251.25 367.34 250.95 365.24 C 255.02 365.12 259.21 365.36 262.99 367.01 C 265.61 368.21 267.30 370.66 269.55 372.36 C 271.44 372.71 273.39 372.52 275.30 372.59 C 268.44 367.45 263.07 360.67 258.34 353.59 C 255.01 348.71 251.92 343.35 246.96 339.93 C 245.02 340.24 242.83 341.68 243.44 343.95 C 244.32 350.70 248.34 356.57 249.30 363.33 C 244.75 359.88 239.98 355.77 238.38 350.08 C 238.81 345.22 241.46 340.90 244.33 337.08 C 240.76 333.84 236.91 330.90 233.55 327.44 C 232.30 326.26 232.01 324.51 231.47 322.97 C 239.51 324.71 246.60 329.09 253.42 333.50 C 257.03 335.27 261.16 335.65 264.93 337.08 C 262.73 329.75 260.08 322.51 256.10 315.94 C 255.53 318.09 254.88 320.20 254.17 322.30 C 249.70 320.16 246.99 315.82 246.27 311.01 C 245.49 316.74 240.59 320.68 235.19 321.91 C 233.52 317.50 234.34 312.62 237.09 308.84 C 232.88 308.90 228.76 307.56 225.61 304.72 C 228.64 302.18 232.17 300.25 236.11 299.59 C 234.21 295.48 233.66 290.89 234.45 286.44 C 239.05 287.29 243.08 289.89 245.77 293.71 C 247.24 291.37 248.91 289.16 250.80 287.14 C 246.76 281.23 242.54 275.44 238.65 269.44 C 236.74 266.28 234.53 262.96 234.65 259.11 C 234.74 256.14 234.35 252.80 236.34 250.31 C 238.69 246.62 242.98 245.13 246.88 243.69 C 243.84 241.22 240.16 239.11 238.58 235.33 C 237.42 233.12 237.34 230.59 237.28 228.15 C 242.29 228.09 246.71 230.79 250.46 233.84 C 249.77 228.70 251.56 223.23 255.89 220.17 C 259.64 224.81 261.42 230.99 260.38 236.90 C 260.00 240.35 258.31 243.41 257.28 246.66 C 260.45 252.08 263.34 257.74 264.47 263.99 C 265.19 258.62 266.65 253.38 267.28 248.01 C 265.52 234.75 260.20 222.22 258.55 208.94 C 258.04 205.15 259.32 200.97 263.03 199.32 C 264.61 211.51 269.09 223.08 270.78 235.25 C 272.43 230.15 274.52 225.20 276.00 220.05 C 277.48 212.66 276.69 205.00 274.91 197.73 C 273.74 200.28 272.45 202.76 270.88 205.09 C 267.73 202.61 267.10 198.63 267.12 194.86 C 263.85 195.58 260.50 195.82 257.19 195.32 C 258.10 191.38 261.07 188.60 264.45 186.65 C 261.66 184.21 259.29 181.30 258.02 177.78 C 261.66 176.60 265.47 176.97 269.07 178.09 C 269.97 174.79 271.38 171.66 273.28 168.81 C 277.46 171.30 279.10 176.31 278.59 180.96 C 280.89 180.59 283.22 180.34 285.55 180.16 C 288.03 173.99 290.60 167.74 294.74 162.46 C 296.56 164.55 295.16 167.15 294.69 169.46 C 292.92 175.90 293.76 182.65 292.52 189.17 C 294.19 187.00 295.85 184.81 297.52 182.64 C 297.60 175.99 296.69 167.80 302.22 162.95 C 304.61 164.08 305.21 167.06 306.59 169.12 C 306.54 165.67 306.74 162.19 306.09 158.79 C 304.45 157.74 302.58 157.09 301.01 155.94 C 299.27 154.37 298.34 152.14 297.16 150.18 C 299.27 150.31 301.39 150.51 303.50 150.74 C 303.88 148.67 304.29 146.61 304.73 144.56 C 306.55 146.33 308.25 148.21 309.78 150.23 C 311.78 149.10 313.82 148.04 315.89 147.03 C 315.68 149.09 315.41 151.14 315.15 153.19 C 317.30 151.40 319.45 149.62 321.57 147.81 C 322.24 150.54 322.96 153.25 323.67 155.96 C 325.24 154.63 326.82 153.30 328.42 152.00 C 327.69 149.44 326.74 146.75 327.39 144.06 Z" />
<path fill="#003300" d=" M 330.81 141.53 C 331.27 142.93 331.65 144.34 332.11 145.74 C 331.36 145.76 329.86 145.80 329.11 145.82 C 329.68 144.39 330.24 142.96 330.81 141.53 Z" />
<path fill="#003300" d=" M 591.82 141.57 C 592.55 142.93 593.23 144.32 593.95 145.69 C 593.21 145.73 591.73 145.81 590.99 145.85 C 591.25 144.42 591.53 142.99 591.82 141.57 Z" />
<path fill="#003300" d=" M 334.31 148.70 C 334.04 146.09 337.30 145.47 339.06 144.50 C 337.90 146.25 337.11 149.63 334.31 148.70 Z" />
<path fill="#003300" d=" M 583.87 144.46 C 585.80 145.40 588.46 146.15 588.83 148.63 C 585.88 149.73 585.03 146.38 583.87 144.46 Z" />
<path fill="#003300" d=" M 616.41 149.46 C 618.39 149.60 617.38 153.57 615.55 152.68 C 614.63 151.75 615.19 149.84 616.41 149.46 Z" />
<path fill="#003300" d=" M 306.76 152.81 C 305.30 152.67 304.99 149.94 306.63 149.88 C 308.00 150.09 308.40 152.75 306.76 152.81 Z" />
<path fill="#335831" d=" M 312.13 151.27 C 313.71 151.36 312.88 153.75 311.66 153.74 C 310.06 153.65 310.86 151.24 312.13 151.27 Z" />
<path fill="#31562e" d=" M 610.23 151.46 C 611.38 150.74 612.84 152.63 611.88 153.58 C 610.72 154.31 609.28 152.40 610.23 151.46 Z" />
<path fill="#003300" d=" M 316.02 156.05 C 317.01 154.33 318.71 153.19 320.16 151.88 C 320.62 153.35 321.07 154.82 321.53 156.29 C 319.79 159.47 317.13 161.96 314.36 164.24 C 314.74 161.49 314.85 158.61 316.02 156.05 Z" />
<path fill="#003300" d=" M 337.48 152.26 C 339.22 152.51 340.77 153.40 342.33 154.16 C 340.07 154.46 337.78 154.61 335.50 154.63 C 336.10 153.79 336.76 153.00 337.48 152.26 Z" />
<path fill="#003300" d=" M 580.66 154.17 C 582.19 153.37 583.75 152.48 585.51 152.27 C 586.17 153.03 586.81 153.81 587.43 154.62 C 585.16 154.61 582.90 154.47 580.66 154.17 Z" />
<path fill="#003300" d=" M 301.85 152.87 C 303.48 152.42 304.04 153.00 303.54 154.60 C 301.89 155.02 301.33 154.45 301.85 152.87 Z" />
<path fill="#003300" d=" M 602.28 157.78 C 600.98 155.88 602.41 153.68 602.67 151.70 C 607.09 154.37 608.43 159.39 608.58 164.25 C 606.37 162.22 603.84 160.40 602.28 157.78 Z" />
<path fill="#003300" d=" M 619.42 152.96 C 621.04 152.35 621.60 152.86 621.09 154.49 C 619.46 155.10 618.90 154.59 619.42 152.96 Z" />
<path fill="#003300" d=" M 308.53 158.91 C 310.27 157.58 312.03 156.26 313.78 154.93 C 311.81 159.96 313.59 166.46 308.84 170.13 C 308.84 166.39 308.78 162.65 308.53 158.91 Z" />
<path fill="#003300" d=" M 609.17 154.93 C 610.91 156.27 612.66 157.59 614.40 158.93 C 614.14 162.66 614.08 166.39 614.11 170.13 C 609.33 166.48 611.08 159.98 609.17 154.93 Z" />
<path fill="#003300" d=" M 313.64 169.62 C 317.40 166.57 322.38 166.04 326.99 165.35 C 321.73 168.68 315.94 171.15 311.01 174.99 C 307.11 177.89 303.71 181.40 299.72 184.18 C 303.60 178.68 308.37 173.81 313.64 169.62 Z" />
<path fill="#003300" d=" M 595.98 165.37 C 600.59 166.05 605.56 166.60 609.32 169.64 C 614.55 173.88 619.42 178.67 623.16 184.30 C 619.27 181.40 615.86 177.93 611.97 175.04 C 607.04 171.18 601.23 168.73 595.98 165.37 Z" />
<path fill="#003300" d=" M 299.77 178.93 C 299.57 174.41 300.28 169.88 302.17 165.75 C 305.73 170.04 302.69 175.29 299.77 178.93 Z" />
<path fill="#003300" d=" M 618.57 169.90 C 619.33 168.55 620.10 167.20 620.90 165.88 C 622.59 169.96 623.29 174.37 623.16 178.78 C 620.98 176.19 619.52 173.12 618.57 169.90 Z" />
<path fill="#003300" d=" M 284.31 192.02 C 286.78 185.29 288.54 178.29 291.57 171.77 C 291.04 178.90 291.52 186.33 288.84 193.10 C 287.19 197.59 285.06 201.90 282.67 206.04 C 282.90 203.09 283.24 200.16 283.51 197.22 C 284.33 196.68 285.15 196.13 285.98 195.60 C 285.42 194.40 284.86 193.21 284.31 192.02 Z" />
<path fill="#003300" d=" M 632.83 189.11 C 631.58 183.43 631.71 177.58 631.44 171.80 C 634.33 178.35 636.16 185.28 638.61 192.00 C 638.09 193.09 637.60 194.19 637.11 195.29 C 640.65 197.48 639.62 201.98 639.95 205.50 C 637.00 200.32 634.39 194.88 632.83 189.11 Z" />
<path fill="#003300" d=" M 274.04 182.50 C 269.06 180.98 272.55 174.85 273.98 171.71 C 275.78 174.81 278.27 180.38 274.04 182.50 Z" />
<path fill="#003300" d=" M 647.17 180.92 C 645.37 177.83 647.67 174.48 648.98 171.71 C 650.18 174.77 652.67 178.43 650.73 181.69 C 649.46 182.87 647.73 182.61 647.17 180.92 Z" />
<path fill="#003300" d=" M 310.56 180.77 C 312.26 179.67 313.99 178.61 315.75 177.61 C 315.12 179.19 314.46 180.76 313.82 182.34 C 312.73 181.81 311.64 181.29 310.56 180.77 Z" />
<path fill="#003300" d=" M 607.19 177.58 C 608.94 178.61 610.67 179.69 612.36 180.83 C 611.27 181.33 610.19 181.83 609.11 182.34 C 608.46 180.76 607.81 179.17 607.19 177.58 Z" />
<path fill="#003300" d=" M 260.83 179.19 C 264.08 179.21 267.76 179.34 270.04 182.05 C 269.21 183.40 268.20 184.63 267.27 185.90 C 264.81 183.99 262.63 181.73 260.83 179.19 Z" />
<path fill="#003300" d=" M 652.58 182.30 C 655.06 179.67 658.59 178.99 662.09 179.19 C 660.32 181.66 658.23 183.88 655.87 185.80 C 654.76 184.64 653.66 183.47 652.58 182.30 Z" />
<path fill="#003300" d=" M 296.07 190.91 C 300.32 187.02 304.58 183.09 309.14 179.56 C 308.25 181.81 307.24 184.01 306.32 186.25 C 302.74 187.44 299.38 189.14 296.07 190.91 Z" />
<path fill="#003300" d=" M 613.74 179.57 C 618.37 183.05 622.55 187.06 626.89 190.88 C 623.62 189.12 620.17 187.72 616.83 186.11 C 615.45 184.13 614.68 181.78 613.74 179.57 Z" />
<path fill="#003300" d=" M 277.53 184.38 C 279.69 182.59 282.68 182.59 285.34 182.37 C 283.86 184.72 281.40 187.42 278.33 186.63 C 276.80 186.33 276.54 185.58 277.53 184.38 Z" />
<path fill="#003300" d=" M 637.58 182.36 C 640.29 182.56 643.27 182.65 645.51 184.41 C 646.24 185.56 645.96 186.30 644.68 186.64 C 641.58 187.41 639.04 184.78 637.58 182.36 Z" />
<path fill="#003300" d=" M 314.46 184.32 C 317.28 183.34 319.97 184.29 322.35 185.89 C 319.94 187.27 317.27 188.02 314.49 188.08 C 314.47 186.82 314.46 185.57 314.46 184.32 Z" />
<path fill="#003300" d=" M 600.95 185.62 C 603.23 183.92 605.97 183.45 608.64 184.48 C 608.53 185.47 608.32 187.45 608.21 188.45 C 605.63 187.99 602.95 187.43 600.95 185.62 Z" />
<path fill="#b8b6ae" d=" M 354.56 186.46 C 425.83 186.43 497.10 186.42 568.37 186.46 C 568.30 241.63 568.39 296.80 568.32 351.97 C 568.18 365.59 563.62 379.91 552.86 388.85 C 540.06 399.60 523.02 402.80 506.96 405.27 C 497.09 406.79 487.08 407.78 477.48 410.67 C 473.05 412.07 468.49 413.86 465.30 417.37 C 463.38 419.48 462.73 422.33 461.75 424.93 C 460.71 421.99 459.95 418.69 457.46 416.59 C 452.08 411.90 444.86 410.30 438.09 408.78 C 422.10 405.60 405.60 404.80 390.05 399.59 C 380.43 396.42 371.08 391.34 364.69 383.30 C 355.27 371.83 354.05 356.28 354.59 342.03 C 354.57 290.17 354.62 238.31 354.56 186.46 Z" />
<path fill="#003300" d=" M 259.89 193.58 C 261.97 190.72 264.98 188.83 268.29 187.71 C 268.11 189.22 268.79 191.28 267.16 192.21 C 264.89 193.26 262.33 193.33 259.89 193.58 Z" />
<path fill="#486644" d=" M 281.94 188.16 C 285.28 188.22 280.47 191.19 281.94 188.16 Z" />
<path fill="#456442" d=" M 640.14 188.15 C 643.48 188.25 638.64 191.16 640.14 188.15 Z" />
<path fill="#003300" d=" M 654.66 187.71 C 657.95 188.84 660.93 190.76 663.06 193.56 C 660.58 193.34 658.00 193.26 655.72 192.20 C 654.13 191.24 654.83 189.20 654.66 187.71 Z" />
<path fill="#003300" d=" M 274.59 190.97 C 275.66 190.31 276.74 189.65 277.89 189.12 C 280.20 190.18 282.08 192.30 281.88 194.99 C 279.23 194.08 276.78 192.71 274.59 190.97 Z" />
<path fill="#003300" d=" M 640.37 194.67 C 641.41 192.21 643.97 187.53 647.13 189.99 C 648.52 193.38 642.64 194.08 640.37 194.67 Z" />
<path fill="#003300" d=" M 311.62 191.89 C 312.45 191.28 313.31 190.70 314.19 190.16 C 316.78 190.38 317.95 192.95 319.26 194.82 C 316.28 195.15 313.55 194.21 311.62 191.89 Z" />
<path fill="#003300" d=" M 603.67 194.85 C 604.96 192.83 606.26 190.34 608.93 190.03 C 609.46 190.63 611.51 191.62 610.43 192.52 C 609.06 195.02 606.08 194.72 603.67 194.85 Z" />
<path fill="#003300" d=" M 270.46 191.58 C 271.05 191.56 272.23 191.53 272.82 191.52 C 272.91 195.07 272.27 198.64 270.35 201.69 C 269.35 198.38 269.23 194.84 270.46 191.58 Z" />
<path fill="#003300" d=" M 307.92 190.44 C 308.38 190.98 309.29 192.06 309.75 192.60 C 309.60 194.37 307.92 195.46 306.95 196.79 C 307.18 194.66 307.49 192.54 307.92 190.44 Z" />
<path fill="#003300" d=" M 359.21 190.82 C 391.75 190.82 424.30 190.81 456.84 190.82 C 456.88 224.36 456.79 257.90 456.89 291.44 C 424.31 291.46 391.73 291.47 359.15 291.43 C 359.26 257.89 359.15 224.36 359.21 190.82 Z" />
<path fill="#003300" d=" M 466.10 190.82 C 498.65 190.84 531.19 190.78 563.74 190.85 C 563.75 224.37 563.69 257.90 563.78 291.43 C 531.21 291.48 498.63 291.45 466.06 291.44 C 465.89 257.90 466.15 224.36 466.10 190.82 Z" />
<path fill="#003300" d=" M 612.99 192.95 C 613.63 192.08 614.31 191.24 615.04 190.43 C 615.45 192.55 615.71 194.69 615.94 196.84 C 614.87 195.61 613.82 194.35 612.99 192.95 Z" />
<path fill="#003300" d=" M 650.44 190.75 C 654.59 192.87 653.49 197.93 652.66 201.63 C 650.40 198.46 649.85 194.54 650.44 190.75 Z" />
<path fill="#003300" d=" M 276.49 195.31 C 278.07 195.87 279.66 196.44 281.25 196.98 C 280.54 201.92 280.74 206.98 279.60 211.87 C 278.64 206.33 278.26 200.67 276.49 195.31 Z" />
<path fill="#003300" d=" M 641.65 196.96 C 643.25 196.43 644.83 195.87 646.44 195.32 C 644.66 200.72 644.25 206.41 643.34 211.99 C 642.21 207.05 642.37 201.95 641.65 196.96 Z" />
<path fill="#b8b6ae" d=" M 399.38 198.51 C 403.84 196.53 408.63 198.27 412.92 199.81 C 410.12 202.82 410.62 207.08 410.81 210.85 C 410.40 211.10 409.58 211.59 409.17 211.84 C 407.13 216.61 404.86 221.52 405.36 226.86 C 406.82 228.03 408.23 229.26 409.57 230.58 C 409.47 231.84 409.38 233.11 409.29 234.38 C 409.90 234.54 411.11 234.86 411.72 235.03 C 411.74 235.80 411.79 237.33 411.82 238.10 C 411.43 238.33 410.63 238.79 410.24 239.02 C 410.25 240.37 410.27 241.72 410.29 243.07 C 412.74 244.22 412.18 246.30 411.26 248.32 C 411.86 248.55 413.06 249.01 413.66 249.23 C 412.95 261.84 413.88 274.47 414.13 287.08 C 414.02 287.52 413.80 288.38 413.69 288.82 C 406.96 289.80 400.01 289.07 393.20 289.12 C 393.18 278.76 393.80 268.40 394.29 258.06 C 394.47 255.05 393.50 252.16 393.11 249.21 C 393.81 249.07 395.20 248.77 395.90 248.62 C 395.15 246.57 394.22 244.22 396.86 243.09 C 396.82 241.90 396.79 240.71 396.75 239.53 C 395.02 237.65 394.69 234.74 397.71 234.02 C 397.71 233.02 397.72 232.02 397.73 231.03 C 398.41 230.01 399.10 228.99 399.78 227.96 C 396.00 224.16 392.61 220.00 388.10 217.01 C 388.95 210.92 396.08 209.59 400.95 208.00 C 404.34 207.50 405.15 203.68 405.97 200.96 C 402.69 201.06 401.31 203.71 400.14 206.29 C 399.41 202.85 401.86 200.69 404.20 198.70 C 401.01 198.76 398.68 200.68 396.95 203.17 C 397.46 201.51 397.53 199.29 399.38 198.51 Z" />
<path fill="#003300" d=" M 282.66 211.14 C 286.59 206.39 289.75 199.81 296.52 198.83 C 292.82 203.85 287.85 207.76 282.66 211.14 Z" />
<path fill="#003300" d=" M 626.47 198.81 C 633.17 199.88 636.31 206.41 640.24 211.13 C 635.06 207.77 630.07 203.89 626.47 198.81 Z" />
<path fill="#003300" d=" M 262.34 217.16 C 261.41 212.95 260.28 208.63 261.11 204.30 C 262.63 208.87 263.46 213.62 264.76 218.25 C 266.55 225.44 268.82 232.69 268.40 240.18 C 266.25 232.55 264.22 224.87 262.34 217.16 Z" />
<path fill="#003300" d=" M 658.26 217.90 C 659.50 213.35 660.29 208.67 661.96 204.25 C 662.63 210.07 660.86 215.76 659.56 221.37 C 657.84 227.65 656.37 233.99 654.49 240.22 C 654.14 232.59 656.40 225.21 658.26 217.90 Z" />
<path fill="#003300" d=" M 282.17 221.13 C 286.71 215.11 293.78 211.88 300.45 208.82 C 291.86 218.88 282.58 228.39 272.76 237.27 C 275.32 231.59 278.38 226.09 282.17 221.13 Z" />
<path fill="#003300" d=" M 622.54 208.83 C 629.19 211.90 636.25 215.13 640.77 221.15 C 644.54 226.11 647.57 231.60 650.19 237.24 C 640.30 228.45 631.07 218.93 622.54 208.83 Z" />
<path fill="#b8b6ae" d=" M 490.09 257.41 C 499.78 243.33 510.09 229.54 522.10 217.35 C 528.28 221.97 532.86 228.29 537.31 234.51 C 540.39 239.43 546.74 240.29 550.69 244.26 C 557.81 250.91 560.22 260.82 562.11 270.01 C 563.20 272.64 560.34 274.23 558.92 275.94 C 556.65 274.09 554.62 271.98 552.62 269.86 C 552.09 271.14 551.57 272.43 551.06 273.72 C 547.35 272.21 543.76 268.25 539.54 270.33 C 528.68 273.86 517.36 276.42 505.87 275.89 C 505.61 274.69 505.37 273.49 505.14 272.30 C 506.56 271.10 507.99 269.89 509.44 268.72 C 509.10 270.17 508.76 271.62 508.43 273.08 C 509.64 271.69 510.79 270.23 512.14 268.96 C 513.56 270.71 514.60 272.75 516.10 274.46 C 518.75 274.09 517.17 271.28 517.19 269.55 C 519.54 266.84 520.12 263.22 521.67 260.08 C 520.24 256.19 523.15 253.15 525.42 250.38 C 524.34 249.77 523.30 249.13 522.29 248.45 C 522.77 247.54 523.66 246.97 524.39 246.27 C 525.32 247.37 526.26 248.45 527.22 249.54 C 526.99 248.76 526.53 247.20 526.30 246.43 C 526.31 245.90 526.34 245.39 526.37 244.87 C 525.13 243.71 523.95 242.50 522.67 241.40 C 522.43 242.90 522.28 244.41 522.22 245.93 C 521.63 245.46 520.43 244.53 519.84 244.07 C 518.81 244.97 517.79 245.88 516.78 246.80 C 517.79 248.30 518.77 249.82 519.45 251.51 C 517.47 250.74 515.42 249.71 514.52 247.66 C 515.90 245.43 517.77 243.56 519.31 241.45 C 516.15 238.91 514.03 235.47 512.16 231.94 C 508.24 234.70 505.81 238.87 503.34 242.86 C 504.16 243.87 504.97 244.88 505.79 245.90 C 505.24 247.01 504.70 248.12 504.17 249.23 C 505.19 250.29 506.18 251.38 507.16 252.50 C 505.14 251.91 503.17 251.23 501.20 250.54 C 500.68 252.23 500.16 253.92 499.62 255.60 C 501.61 256.70 503.53 257.91 505.51 259.05 C 504.99 259.59 503.96 260.67 503.44 261.21 C 504.49 262.24 505.68 263.17 506.56 264.38 C 507.13 266.02 505.63 267.43 505.03 268.84 C 504.32 268.91 502.91 269.07 502.20 269.15 C 502.20 271.40 502.19 273.66 502.22 275.92 C 498.15 276.06 494.55 274.38 491.04 272.59 C 484.61 273.49 478.13 273.50 471.66 273.83 C 469.89 272.55 468.21 271.14 466.75 269.51 C 469.25 268.77 470.46 270.60 471.38 272.58 C 473.71 269.87 470.40 267.60 469.43 265.14 C 471.47 265.90 473.16 267.27 474.66 268.82 C 474.68 269.72 474.71 271.52 474.72 272.43 C 475.70 271.82 477.33 271.56 476.89 270.00 C 476.27 267.79 471.83 266.60 473.96 264.10 C 474.60 264.43 475.87 265.09 476.50 265.42 C 478.02 262.15 479.74 258.45 483.77 257.91 C 484.03 255.16 481.88 253.54 479.45 253.03 C 478.84 251.13 478.19 249.23 477.19 247.50 C 476.13 251.82 472.72 254.79 468.52 255.91 C 470.77 251.74 473.57 247.86 476.99 244.57 C 480.17 247.73 482.75 251.42 485.19 255.17 C 485.95 255.13 487.46 255.06 488.22 255.03 C 488.84 255.82 489.47 256.61 490.09 257.41 Z" />
<path fill="#f9f9f9" d=" M 399.72 218.91 C 400.44 218.84 401.90 218.71 402.63 218.64 C 402.75 221.43 402.96 224.21 403.16 227.00 C 402.05 226.73 400.94 226.46 399.85 226.20 C 399.80 223.77 399.76 221.34 399.72 218.91 Z" />
<path fill="#ffffff" d=" M 515.20 229.26 C 517.13 226.22 519.16 223.15 521.98 220.85 C 527.44 225.69 532.64 231.21 535.93 237.78 C 534.15 236.70 532.43 235.59 530.71 234.44 C 530.36 234.50 529.67 234.62 529.33 234.68 C 528.72 233.74 528.14 232.80 527.55 231.86 C 527.27 232.83 526.73 234.75 526.45 235.71 C 523.15 232.42 521.62 227.92 521.96 223.28 C 519.79 225.37 517.57 227.40 515.20 229.26 Z" />
<path fill="#003300" d=" M 254.09 238.43 C 252.37 233.65 251.48 227.31 255.75 223.56 C 258.50 228.81 259.45 235.25 256.82 240.74 C 256.19 237.30 256.96 233.49 255.20 230.34 L 253.79 230.73 C 253.72 233.30 254.14 235.86 254.09 238.43 Z" />
<path fill="#003300" d=" M 666.11 240.74 C 663.42 235.09 664.33 228.34 667.65 223.17 C 670.74 227.74 670.94 233.42 668.77 238.42 C 668.76 235.83 669.14 233.27 669.22 230.70 C 666.80 229.52 666.80 232.59 666.65 234.05 C 666.43 236.27 666.37 238.51 666.11 240.74 Z" />
<path fill="#003300" d=" M 239.22 230.26 C 243.83 231.74 248.47 234.07 250.98 238.44 C 248.79 237.59 246.71 236.48 244.51 235.66 C 245.11 237.63 246.36 239.29 247.38 241.05 C 243.21 238.78 240.19 234.95 239.22 230.26 Z" />
<path fill="#003300" d=" M 671.88 238.25 C 674.67 234.17 679.05 231.64 683.71 230.26 C 682.68 235.03 679.63 239.17 675.04 241.01 C 676.32 239.36 677.65 237.75 678.92 236.08 C 676.46 236.41 674.19 237.43 671.88 238.25 Z" />
<path fill="#003300" d=" M 276.54 243.09 C 281.15 239.88 285.22 235.92 290.16 233.18 C 286.26 237.00 282.18 240.65 278.34 244.55 C 277.73 244.06 277.13 243.58 276.54 243.09 Z" />
<path fill="#003300" d=" M 632.19 232.98 C 641.43 238.60 651.41 245.67 654.30 256.71 C 655.38 260.44 655.91 264.30 656.41 268.15 C 653.99 262.67 652.37 256.83 649.32 251.64 C 647.94 249.35 646.78 246.94 646.09 244.36 C 645.59 244.31 644.59 244.21 644.08 244.17 C 640.38 240.16 636.28 236.58 632.19 232.98 Z" />
<path fill="#ffffff" d=" M 538.00 242.25 C 540.06 240.97 542.46 240.96 544.33 242.66 C 550.55 247.21 555.53 253.68 557.82 261.09 C 553.20 255.56 549.88 248.97 544.34 244.23 C 543.76 244.80 542.59 245.94 542.01 246.51 C 540.66 245.09 539.33 243.67 538.00 242.25 Z" />
<path fill="#003300" d=" M 291.20 254.03 C 290.13 249.50 293.09 245.65 296.39 242.98 C 297.12 245.91 297.90 249.31 296.00 251.98 C 294.83 253.39 293.17 255.38 291.20 254.03 Z" />
<path fill="#003300" d=" M 626.95 252.02 C 625.00 249.35 625.77 245.92 626.56 243.00 C 629.75 245.67 632.80 249.42 631.74 253.90 C 629.86 255.56 628.15 253.37 626.95 252.02 Z" />
<path fill="#003300" d=" M 275.06 244.48 C 275.56 245.09 276.05 245.72 276.54 246.35 C 272.24 253.17 269.41 260.71 266.53 268.20 C 267.23 259.68 269.58 251.19 275.06 244.48 Z" />
<path fill="#003300" d=" M 236.85 254.05 C 238.88 249.26 243.69 246.45 248.74 246.00 C 247.04 247.50 245.11 248.72 243.53 250.36 C 246.40 251.17 248.91 249.21 251.45 248.23 C 247.47 251.95 242.47 254.58 236.85 254.05 Z" />
<path fill="#003300" d=" M 674.16 246.02 C 679.23 246.40 683.97 249.28 686.09 254.00 C 683.18 253.76 680.03 254.04 677.42 252.53 C 675.29 251.30 673.39 249.73 671.45 248.24 C 673.68 249.22 675.89 250.27 678.25 250.96 C 679.95 248.44 675.24 247.87 674.16 246.02 Z" />
<path fill="#003300" d=" M 278.82 246.94 C 282.75 247.20 285.58 250.40 286.64 253.99 C 286.16 254.68 285.21 256.08 284.74 256.77 C 281.23 254.88 277.86 251.24 278.82 246.94 Z" />
<path fill="#003300" d=" M 640.97 247.83 C 641.92 247.55 644.29 246.04 644.29 248.03 C 644.43 252.10 641.18 255.20 637.82 256.95 C 635.47 253.57 637.53 249.40 640.97 247.83 Z" />
<path fill="#003300" d=" M 251.31 251.20 C 252.58 250.16 253.82 249.06 255.15 248.10 C 259.34 253.56 261.57 260.27 262.69 267.00 C 259.32 261.44 255.70 256.02 251.31 251.20 Z" />
<path fill="#003300" d=" M 667.65 248.10 C 669.05 249.06 670.30 250.22 671.59 251.35 C 667.09 256.03 663.60 261.51 660.22 267.02 C 661.31 260.28 663.63 253.66 667.65 248.10 Z" />
<path fill="#003300" d=" M 272.81 258.07 C 274.02 255.70 275.24 253.34 276.46 250.98 C 277.52 252.72 278.60 254.44 279.73 256.15 C 277.40 256.72 275.10 257.39 272.81 258.07 Z" />
<path fill="#003300" d=" M 493.17 258.96 C 492.64 255.63 495.31 252.80 497.63 250.78 C 498.18 250.94 499.27 251.24 499.82 251.40 C 499.07 252.92 498.27 254.44 497.69 256.04 C 498.36 260.11 500.72 263.58 503.50 266.53 C 503.03 267.24 502.57 267.96 502.11 268.68 C 500.42 266.25 498.62 263.91 497.00 261.44 C 495.66 260.74 493.01 261.08 493.17 258.96 Z" />
<path fill="#003300" d=" M 646.44 250.95 C 647.71 253.39 648.96 255.85 650.20 258.31 C 647.91 257.47 645.59 256.73 643.24 256.12 C 644.33 254.41 645.39 252.68 646.44 250.95 Z" />
<path fill="#003300" d=" M 235.13 256.12 C 239.74 256.55 244.49 256.01 248.50 253.54 C 250.88 257.18 253.45 260.73 255.31 264.67 C 257.23 268.74 257.79 273.25 258.78 277.59 C 259.84 282.85 261.35 288.04 261.97 293.38 C 260.16 289.23 258.51 284.95 255.68 281.35 C 249.33 272.52 240.01 266.02 235.13 256.12 Z" />
<path fill="#003300" d=" M 665.34 271.92 C 666.43 265.00 670.62 259.24 674.42 253.55 C 678.50 255.97 683.35 256.81 688.01 255.73 C 683.16 265.81 673.72 272.37 667.28 281.29 C 664.46 284.87 662.75 289.11 661.07 293.29 C 661.85 286.06 664.02 279.07 665.34 271.92 Z" />
<path fill="#003300" d=" M 294.59 255.71 C 297.95 255.39 301.28 255.94 304.45 257.08 C 301.89 259.68 298.51 261.17 294.83 261.08 C 294.76 259.28 294.67 257.49 294.59 255.71 Z" />
<path fill="#003300" d=" M 618.49 257.05 C 621.66 255.91 625.00 255.40 628.37 255.72 C 628.26 257.50 628.17 259.29 628.08 261.07 C 624.40 261.15 621.01 259.71 618.49 257.05 Z" />
<path fill="#003300" d=" M 271.56 262.94 C 273.43 261.19 275.33 259.23 277.96 258.73 C 280.63 258.03 283.05 259.83 285.38 260.83 C 283.09 262.19 280.81 263.95 278.03 264.04 C 275.83 264.00 273.69 263.42 271.56 262.94 Z" />
<path fill="#003300" d=" M 637.54 260.82 C 639.87 259.81 642.29 258.03 644.99 258.73 C 647.59 259.25 649.50 261.19 651.37 262.94 C 646.65 264.56 641.40 264.23 637.54 260.82 Z" />
<path fill="#003300" d=" M 256.24 260.99 C 258.53 264.66 261.04 268.28 262.40 272.43 C 263.33 275.97 262.62 279.66 262.40 283.25 C 260.49 275.79 259.73 267.97 256.24 260.99 Z" />
<path fill="#003300" d=" M 660.56 272.35 C 661.92 268.21 664.42 264.60 666.76 260.97 C 663.13 267.92 662.47 275.82 660.49 283.29 C 660.31 279.66 659.63 275.92 660.56 272.35 Z" />
<path fill="#003300" d=" M 290.40 263.86 C 291.56 263.47 292.73 263.12 293.92 262.82 C 297.38 264.57 298.58 268.57 298.98 272.15 C 294.84 271.07 291.08 268.34 290.40 263.86 Z" />
<path fill="#003300" d=" M 623.96 272.14 C 624.13 268.30 626.00 264.85 628.95 262.43 C 630.10 262.99 631.26 263.56 632.42 264.12 C 631.74 268.52 627.97 271.06 623.96 272.14 Z" />
<path fill="#003300" d=" M 280.38 273.57 C 280.08 268.99 282.82 264.86 287.24 263.56 C 287.02 265.44 287.57 267.64 286.25 269.24 C 284.79 271.25 282.48 272.36 280.38 273.57 Z" />
<path fill="#003300" d=" M 268.50 269.93 C 269.15 268.17 269.79 266.42 270.44 264.67 C 273.42 265.79 276.56 266.37 279.74 266.39 C 277.22 269.34 275.03 272.55 273.01 275.86 C 271.56 273.84 270.08 271.84 268.50 269.93 Z" />
<path fill="#003300" d=" M 635.65 263.69 C 640.23 264.70 642.76 269.10 642.54 273.59 C 638.62 271.81 634.61 268.58 635.65 263.69 Z" />
<path fill="#003300" d=" M 643.16 266.40 C 646.35 266.38 649.50 265.78 652.50 264.67 C 653.13 266.42 653.76 268.17 654.41 269.92 C 652.83 271.84 651.36 273.84 649.92 275.87 C 647.88 272.57 645.69 269.35 643.16 266.40 Z" />
<path fill="#003300" d=" M 240.34 267.85 C 246.95 274.52 254.07 281.20 258.05 289.88 C 259.46 293.24 260.81 296.82 260.48 300.54 C 257.72 296.40 256.24 291.63 254.92 286.89 C 251.93 285.70 250.51 282.74 248.77 280.26 C 245.99 276.11 242.95 272.12 240.34 267.85 Z" />
<path fill="#003300" d=" M 670.22 281.19 C 674.10 276.49 678.22 271.97 682.63 267.76 C 680.03 272.04 677.00 276.03 674.20 280.18 C 672.45 282.66 671.02 285.65 668.03 286.86 C 666.67 291.59 665.20 296.36 662.49 300.52 C 662.21 293.37 665.99 286.70 670.22 281.19 Z" />
<path fill="#003300" d=" M 270.32 276.25 C 272.12 276.41 272.04 279.66 270.33 279.93 C 268.64 279.67 268.74 276.61 270.32 276.25 Z" />
<path fill="#003300" d=" M 652.16 276.74 C 653.57 276.38 653.89 278.79 652.87 279.41 C 651.45 279.77 651.10 277.34 652.16 276.74 Z" />
<path fill="#003300" d=" M 265.83 312.92 C 270.49 303.11 277.10 294.36 284.06 286.07 C 277.21 298.72 266.97 310.29 265.19 325.07 C 264.91 321.04 263.79 316.68 265.83 312.92 Z" />
<path fill="#003300" d=" M 638.40 285.75 C 643.70 291.50 648.28 297.89 652.49 304.48 C 654.67 308.15 657.04 311.83 658.15 316.00 C 658.52 318.77 657.99 321.56 657.73 324.32 C 655.32 309.80 645.70 298.09 638.40 285.75 Z" />
<path fill="#003300" d=" M 236.21 289.00 C 239.68 290.63 243.67 292.94 244.31 297.11 C 243.76 299.06 240.74 300.81 239.04 299.00 C 236.30 296.51 236.50 292.38 236.21 289.00 Z" />
<path fill="#003300" d=" M 247.46 297.89 C 247.84 294.42 249.65 291.43 252.08 289.01 C 252.70 290.33 253.44 291.63 253.87 293.05 C 254.17 295.56 252.42 297.56 251.12 299.49 C 249.89 298.96 248.67 298.42 247.46 297.89 Z" />
<path fill="#003300" d=" M 669.08 293.02 C 669.50 291.61 670.22 290.32 670.86 289.01 C 673.28 291.43 675.07 294.41 675.45 297.86 C 674.26 298.41 673.08 298.96 671.91 299.51 C 670.51 297.60 668.71 295.58 669.08 293.02 Z" />
<path fill="#003300" d=" M 678.50 297.20 C 679.31 293.03 683.14 290.60 686.74 289.01 C 686.42 292.84 686.57 298.63 681.96 299.92 C 680.56 299.39 679.17 298.57 678.50 297.20 Z" />
<path fill="#003300" d=" M 359.20 295.82 C 391.75 295.80 424.29 295.82 456.83 295.81 C 456.88 333.97 456.80 372.14 456.88 410.30 C 446.86 404.60 435.16 403.67 424.00 401.97 C 408.97 399.79 393.36 397.77 379.97 390.09 C 371.14 385.09 364.27 376.71 361.44 366.93 C 359.75 361.44 359.16 355.68 359.19 349.95 C 359.20 331.91 359.19 313.87 359.20 295.82 Z" />
<path fill="#003300" d=" M 466.11 295.81 C 498.65 295.82 531.19 295.79 563.74 295.83 C 563.74 312.22 563.73 328.61 563.74 345.00 C 563.94 353.73 563.53 362.72 560.06 370.87 C 556.25 380.43 548.30 387.88 539.05 392.15 C 523.69 399.45 506.46 400.67 489.89 403.28 C 481.69 404.52 473.33 406.09 466.06 410.31 C 466.02 372.14 466.00 333.98 466.11 295.81 Z" />
<path fill="#003300" d=" M 255.23 297.12 C 257.22 296.46 257.52 299.73 255.81 300.21 C 253.81 300.90 253.57 297.60 255.23 297.12 Z" />
<path fill="#003300" d=" M 666.94 297.18 C 667.76 297.92 668.57 298.68 669.36 299.47 C 668.49 299.43 666.74 299.33 665.87 299.29 C 666.14 298.76 666.67 297.71 666.94 297.18 Z" />
<path fill="#003300" d=" M 252.05 302.91 C 253.86 302.29 255.69 301.70 257.54 301.16 C 258.23 302.96 258.88 304.77 259.53 306.60 C 256.50 306.91 252.51 306.79 252.05 302.91 Z" />
<path fill="#b8b6ae" d=" M 410.42 307.17 C 410.84 304.92 409.36 301.57 411.94 300.32 C 414.25 300.86 413.40 303.44 413.75 305.15 C 417.64 310.04 421.79 314.72 425.65 319.64 C 422.73 318.82 419.84 317.92 416.93 317.12 C 420.69 321.13 424.76 324.84 428.42 328.95 C 424.95 328.01 421.53 326.87 418.06 325.94 C 422.15 330.18 426.39 334.27 430.47 338.53 C 427.55 338.59 424.64 338.61 421.73 338.67 C 424.87 342.81 428.20 346.81 431.30 350.98 C 425.30 348.47 419.47 345.59 413.54 342.92 C 413.69 350.73 413.78 358.53 413.88 366.34 C 412.37 366.39 410.87 366.45 409.38 366.52 C 409.27 358.64 409.53 350.76 409.62 342.88 C 404.83 344.99 400.29 347.64 395.44 349.59 C 392.51 349.37 389.77 348.16 386.93 347.49 C 390.34 350.73 393.99 353.69 397.38 356.95 C 394.23 356.19 391.12 355.28 387.99 354.45 C 391.69 357.90 395.54 361.18 399.32 364.55 C 396.64 364.61 393.95 364.63 391.27 364.68 C 394.24 368.00 397.32 371.22 400.25 374.58 C 394.73 372.45 389.28 370.14 383.75 368.06 C 383.93 374.24 384.24 380.43 384.22 386.62 C 382.77 386.65 381.32 386.68 379.89 386.72 C 379.87 380.49 380.24 374.26 380.26 368.02 C 375.49 369.90 370.81 372.02 366.02 373.87 C 368.67 370.52 371.56 367.38 374.25 364.07 C 371.42 364.53 368.59 365.06 365.77 365.54 C 369.63 361.96 373.70 358.60 377.44 354.88 C 373.95 355.86 370.52 357.08 367.03 358.06 C 370.43 354.64 374.01 351.41 377.35 347.93 C 375.17 348.43 372.98 348.97 370.81 349.49 C 374.06 346.16 377.46 342.98 380.85 339.79 C 380.87 338.06 380.89 336.32 380.92 334.60 C 381.65 334.61 383.11 334.63 383.84 334.64 C 383.85 335.47 383.85 337.11 383.86 337.94 C 387.49 341.64 391.03 345.43 394.63 349.17 C 397.64 345.55 400.42 341.74 403.15 337.91 C 400.05 338.51 396.97 339.20 393.88 339.80 C 398.18 335.15 402.73 330.74 407.01 326.07 C 403.04 327.51 399.11 329.08 395.17 330.59 C 398.96 326.06 403.08 321.83 406.89 317.31 C 404.31 318.10 401.75 318.94 399.19 319.76 C 402.83 315.47 406.68 311.37 410.42 307.17 Z" />
<path fill="#003300" d=" M 665.43 301.09 C 667.46 302.03 671.42 301.94 670.39 305.20 C 668.42 306.87 665.79 306.66 663.40 306.65 C 664.03 304.78 664.71 302.93 665.43 301.09 Z" />
<path fill="#003300" d=" M 229.98 304.22 C 232.73 302.08 236.31 302.07 239.62 302.22 C 239.68 303.55 239.73 304.89 239.78 306.23 C 237.51 306.37 235.22 306.68 232.97 306.22 C 231.97 305.71 229.84 305.81 229.98 304.22 Z" />
<path fill="#71836b" d=" M 260.31 302.16 C 261.65 301.17 263.05 303.52 261.89 304.48 C 260.56 305.46 259.14 303.11 260.31 302.16 Z" />
<path fill="#b8b6ae" d=" M 507.29 305.00 C 508.23 303.62 509.60 302.62 510.89 301.59 C 510.46 302.73 510.02 303.87 509.58 305.00 C 510.01 306.22 510.42 307.44 510.84 308.67 C 509.56 307.54 508.02 306.59 507.29 305.00 Z" />
<path fill="#b8b6ae" d=" M 540.71 305.44 C 541.76 303.26 544.28 302.56 546.30 301.57 C 543.87 304.42 541.97 307.63 541.05 311.28 C 540.74 309.37 539.89 307.32 540.71 305.44 Z" />
<path fill="#687d63" d=" M 661.21 302.36 C 662.41 301.14 663.59 303.39 662.44 304.21 C 661.24 305.44 660.07 303.16 661.21 302.36 Z" />
<path fill="#003300" d=" M 683.28 302.24 C 687.00 301.84 690.85 302.36 693.70 304.99 C 690.35 306.29 686.77 306.78 683.21 306.26 C 683.22 304.92 683.24 303.58 683.28 302.24 Z" />
<path fill="#003300" d=" M 291.16 317.13 C 293.64 312.13 297.15 307.67 301.19 303.84 C 300.65 310.61 301.28 318.87 295.46 323.67 C 295.82 321.58 296.25 319.50 296.47 317.40 C 293.13 317.57 294.50 323.58 290.69 322.40 C 290.43 320.63 290.14 318.73 291.16 317.13 Z" />
<path fill="#003300" d=" M 621.75 303.83 C 625.79 307.71 629.33 312.18 631.80 317.22 C 632.76 318.95 632.29 320.98 632.38 322.86 C 629.01 322.52 628.95 318.56 626.62 316.82 C 626.68 319.10 627.08 321.36 627.42 323.61 C 621.66 318.82 622.22 310.59 621.75 303.83 Z" />
<path fill="#003300" d=" M 253.90 308.74 C 255.99 308.80 258.09 308.79 260.18 308.74 C 261.84 312.83 262.70 317.19 261.99 321.60 C 259.43 317.23 257.00 312.76 253.90 308.74 Z" />
<path fill="#003300" d=" M 279.88 307.53 C 282.49 309.40 285.21 311.41 286.62 314.39 C 288.12 317.59 288.16 321.24 288.14 324.72 C 286.05 322.79 285.41 319.16 282.46 318.40 C 282.83 320.28 283.29 322.16 283.70 324.03 C 280.19 319.26 279.67 313.27 279.88 307.53 Z" />
<path fill="#003300" d=" M 635.21 317.90 C 635.76 313.32 639.35 310.13 642.83 307.53 C 643.10 313.05 643.07 319.04 639.32 323.51 C 639.76 321.89 640.01 320.22 640.48 318.61 C 637.58 318.36 637.40 322.33 635.79 324.06 C 633.54 322.87 635.20 319.88 635.21 317.90 Z" />
<path fill="#003300" d=" M 662.75 308.74 C 664.84 308.79 666.94 308.80 669.04 308.74 C 665.92 312.73 663.49 317.19 660.96 321.56 C 660.21 317.16 661.05 312.81 662.75 308.74 Z" />
<path fill="#003300" d=" M 239.95 309.84 C 241.25 308.84 242.91 309.64 244.36 309.70 C 243.70 314.19 240.57 317.59 236.53 319.41 C 236.49 316.00 236.70 311.84 239.95 309.84 Z" />
<path fill="#003300" d=" M 248.70 309.95 C 249.27 309.67 250.41 309.10 250.97 308.82 C 253.67 311.59 253.57 315.77 253.29 319.36 C 250.60 316.98 248.57 313.65 248.70 309.95 Z" />
<path fill="#b9b7af" d=" M 505.25 316.93 C 508.65 314.91 508.86 311.16 508.60 307.60 C 509.42 309.33 511.96 310.94 511.13 313.15 C 510.38 315.87 507.47 316.75 505.20 317.77 C 505.70 320.07 506.18 322.38 506.34 324.73 C 504.29 321.85 503.56 318.27 501.59 315.35 C 501.13 316.17 500.19 317.79 499.72 318.61 C 499.78 316.88 499.56 314.98 500.75 313.56 C 503.14 312.60 503.93 315.62 505.25 316.93 Z" />
<path fill="#003300" d=" M 671.38 309.53 C 672.17 308.32 674.78 309.61 674.17 310.97 C 674.01 314.31 672.04 317.18 669.64 319.35 C 669.47 316.08 669.13 312.21 671.38 309.53 Z" />
<path fill="#003300" d=" M 678.56 309.73 C 680.03 309.65 681.75 308.78 683.05 309.90 C 686.23 311.92 686.41 316.02 686.42 319.40 C 682.34 317.63 679.26 314.19 678.56 309.73 Z" />
<path fill="#b8b7af" d=" M 530.07 311.84 C 532.58 309.51 535.33 312.17 538.01 312.62 C 539.37 312.57 540.74 312.45 542.12 312.26 C 539.83 313.69 537.75 315.40 535.75 317.19 C 534.08 315.18 532.13 313.43 530.07 311.84 Z" />
<path fill="#b8b7af" d=" M 522.90 321.26 C 526.18 319.48 529.62 317.95 533.32 317.27 C 530.82 319.16 528.16 320.82 525.71 322.77 C 525.75 325.17 525.71 327.57 525.50 329.97 C 523.06 330.85 520.84 332.18 518.79 333.76 C 515.12 336.51 510.44 337.20 506.00 337.69 C 504.72 338.95 503.43 340.21 502.13 341.44 C 502.55 342.02 503.37 343.19 503.78 343.77 C 505.89 342.09 507.89 340.27 510.17 338.82 C 509.88 341.22 509.52 343.63 509.04 346.01 C 507.57 345.35 506.09 344.68 504.64 344.02 C 502.23 345.73 503.22 348.09 504.08 350.39 C 502.71 348.39 501.53 346.28 500.21 344.26 L 501.87 343.94 C 497.82 340.99 492.43 342.70 488.39 339.99 C 488.30 337.93 488.20 335.87 488.11 333.81 C 488.70 334.61 489.29 335.41 489.89 336.22 C 492.04 336.96 494.20 337.70 496.41 338.31 C 496.12 335.97 495.14 333.95 492.68 333.36 C 492.75 332.91 492.89 332.00 492.96 331.54 C 494.53 331.45 496.55 332.22 497.65 330.67 C 501.27 327.70 499.59 322.72 499.13 318.81 C 500.52 320.71 501.85 322.66 503.11 324.67 C 502.18 327.27 502.25 330.28 500.57 332.57 C 499.28 334.42 498.15 336.37 497.09 338.35 C 497.97 338.99 498.87 339.63 499.77 340.28 C 503.26 337.90 509.47 337.85 510.35 332.95 C 509.21 331.88 507.92 330.99 506.66 330.09 C 507.76 329.60 508.87 329.13 509.98 328.66 C 511.54 329.45 513.26 329.41 514.97 329.21 C 516.72 330.73 518.80 331.72 521.14 331.95 C 522.41 330.31 524.07 328.88 524.86 326.91 C 522.63 325.69 520.47 324.42 518.74 322.55 C 519.01 322.32 519.57 321.86 519.84 321.64 C 520.42 319.94 522.07 319.06 522.98 317.56 C 522.64 318.66 521.40 320.50 522.90 321.26 Z" />
<path fill="#003300" d=" M 298.00 325.95 C 302.31 324.48 306.86 324.12 311.39 324.36 C 307.85 328.06 303.74 331.35 298.77 332.89 C 300.39 331.50 302.22 330.33 303.50 328.60 C 301.85 328.68 300.22 328.89 298.62 329.23 C 298.41 328.13 298.20 327.04 298.00 325.95 Z" />
<path fill="#003300" d=" M 611.55 324.36 C 616.07 324.12 620.64 324.48 624.95 325.96 C 624.72 327.06 624.50 328.16 624.29 329.26 C 622.73 328.93 621.17 328.67 619.60 328.48 C 620.45 330.55 622.65 331.45 624.24 332.87 C 619.22 331.41 615.09 328.09 611.55 324.36 Z" />
<path fill="#003300" d=" M 236.47 326.84 C 241.37 328.64 245.87 331.34 250.28 334.11 C 248.89 334.63 247.50 335.18 246.12 335.72 C 242.88 332.79 239.46 330.03 236.47 326.84 Z" />
<path fill="#003300" d=" M 672.65 334.11 C 677.06 331.32 681.57 328.65 686.47 326.80 C 683.48 330.01 680.08 332.78 676.83 335.70 C 675.43 335.17 674.03 334.63 672.65 334.11 Z" />
<path fill="#003300" d=" M 272.65 330.68 C 276.21 329.41 280.02 328.65 283.81 328.99 C 284.08 329.58 284.61 330.75 284.87 331.34 C 282.14 331.37 279.39 331.54 276.87 332.70 C 275.36 332.29 274.04 331.35 272.65 330.68 Z" />
<path fill="#003300" d=" M 639.05 328.97 C 642.82 328.65 646.59 329.43 650.18 330.58 C 648.69 331.44 647.23 332.28 645.74 333.10 C 643.91 330.62 640.69 331.73 638.13 331.41 C 638.36 330.80 638.82 329.58 639.05 328.97 Z" />
<path fill="#003300" d=" M 624.47 335.31 C 625.64 336.62 626.81 337.94 627.99 339.26 C 625.37 339.86 622.74 340.43 620.10 340.86 C 621.47 338.94 622.94 337.11 624.47 335.31 Z" />
<path fill="#003300" d=" M 247.75 337.10 C 250.68 336.18 253.82 336.18 256.25 338.28 C 253.40 337.97 250.57 337.59 247.75 337.10 Z" />
<path fill="#003300" d=" M 294.99 339.29 C 296.10 337.96 297.21 336.62 298.32 335.29 C 299.92 337.05 301.43 338.88 302.86 340.78 C 300.21 340.46 297.59 339.89 294.99 339.29 Z" />
<path fill="#003300" d=" M 666.73 338.28 C 669.13 336.14 672.26 336.20 675.18 337.10 C 672.37 337.58 669.56 337.97 666.73 338.28 Z" />
<path fill="#003300" d=" M 266.74 343.94 C 263.80 342.11 261.16 339.86 258.81 337.33 C 261.01 338.24 263.50 338.80 265.36 340.36 C 265.91 341.51 266.31 342.73 266.74 343.94 Z" />
<path fill="#003300" d=" M 658.49 339.67 C 660.28 338.70 662.20 338.02 664.11 337.34 C 661.74 339.84 659.12 342.11 656.20 343.95 C 656.89 342.51 656.87 340.42 658.49 339.67 Z" />
<path fill="#003300" d=" M 250.59 339.55 C 254.82 340.45 259.36 341.33 262.71 344.28 C 265.89 347.19 268.50 350.80 269.85 354.93 C 271.57 360.07 273.78 365.03 275.83 370.05 C 264.90 362.14 259.56 349.26 250.59 339.55 Z" />
<path fill="#003300" d=" M 666.16 341.08 C 668.18 340.40 670.26 340.00 672.35 339.57 C 663.35 349.24 658.04 362.13 647.12 370.03 C 648.98 365.30 651.12 360.68 652.73 355.86 C 654.84 349.41 659.39 343.07 666.16 341.08 Z" />
<path fill="#b8b6ae" d=" M 482.44 340.90 C 485.19 341.27 487.86 342.00 490.56 342.65 C 489.62 343.39 488.68 344.12 487.75 344.84 C 488.53 346.14 489.30 347.45 490.04 348.79 C 489.08 348.48 488.13 348.17 487.18 347.85 C 487.21 347.17 487.27 345.82 487.30 345.14 C 485.64 343.76 484.00 342.38 482.44 340.90 Z" />
<path fill="#003300" d=" M 268.96 342.51 C 271.94 344.74 274.40 347.63 276.06 350.96 C 279.66 357.94 281.82 365.55 283.75 373.12 C 279.78 367.35 277.17 360.84 274.52 354.40 C 272.89 350.29 268.72 347.29 268.96 342.51 Z" />
<path fill="#003300" d=" M 278.54 346.24 C 278.93 345.00 279.33 343.77 279.73 342.54 C 280.93 342.92 282.13 343.30 283.34 343.69 C 283.55 344.26 283.98 345.40 284.19 345.97 C 283.71 348.04 283.23 350.10 282.75 352.17 C 281.11 350.36 279.66 348.40 278.54 346.24 Z" />
<path fill="#b8b6ae" d=" M 492.33 343.24 C 494.40 343.80 491.75 346.58 490.45 345.54 C 489.70 344.42 491.28 343.24 492.33 343.24 Z" />
<path fill="#b8b6ae" d=" M 495.01 343.55 C 496.25 342.60 499.09 343.88 498.50 345.52 C 497.29 346.19 494.07 345.26 495.01 343.55 Z" />
<path fill="#003300" d=" M 638.94 345.01 C 639.67 343.18 641.96 343.11 643.47 342.27 C 643.64 343.83 643.88 345.40 643.83 346.98 C 643.21 349.08 641.49 350.57 640.15 352.22 C 639.68 349.84 638.80 347.46 638.94 345.01 Z" />
<path fill="#003300" d=" M 646.86 350.97 C 648.52 347.62 650.99 344.72 654.01 342.51 C 654.13 347.52 649.68 350.64 648.10 355.05 C 645.63 361.31 642.94 367.53 639.20 373.15 C 641.06 365.55 643.27 357.95 646.86 350.97 Z" />
<path fill="#b8b6ae" d=" M 435.22 343.00 C 437.71 347.89 441.49 351.86 445.10 355.94 C 443.08 355.45 441.09 354.92 439.09 354.41 C 441.75 356.96 444.45 359.45 447.06 362.04 C 444.69 361.44 442.34 360.76 439.98 360.14 C 442.77 362.87 445.61 365.55 448.38 368.30 C 446.43 368.35 444.48 368.40 442.53 368.44 C 444.72 371.15 446.96 373.83 449.16 376.54 C 445.03 374.74 440.92 372.92 436.78 371.16 C 436.86 376.24 436.87 381.32 437.13 386.40 C 436.31 386.40 434.67 386.39 433.85 386.39 C 433.87 381.29 434.14 376.20 434.21 371.10 C 430.67 372.67 427.17 374.35 423.61 375.88 C 425.53 373.19 427.59 370.61 429.65 368.04 C 427.59 368.35 425.53 368.65 423.48 368.94 C 426.36 366.11 429.33 363.36 432.10 360.41 C 429.58 361.21 427.09 362.11 424.56 362.92 C 426.96 360.10 429.55 357.46 432.09 354.77 C 430.87 355.03 428.42 355.56 427.19 355.83 C 429.50 353.25 432.16 350.98 434.25 348.20 C 434.81 346.53 434.83 344.71 435.22 343.00 Z" />
<path fill="#003300" d=" M 244.87 356.35 C 242.40 353.77 239.71 350.53 241.19 346.75 C 242.58 349.88 243.81 353.08 244.87 356.35 Z" />
<path fill="#003300" d=" M 286.36 347.48 C 287.77 347.08 289.18 346.70 290.59 346.33 C 290.88 350.36 288.53 353.64 285.23 355.65 C 285.41 352.90 285.79 350.17 286.36 347.48 Z" />
<path fill="#b8b6ae" d=" M 495.80 347.89 C 497.71 347.99 499.63 348.11 501.54 348.32 C 500.65 349.02 499.73 349.69 498.78 350.31 C 497.70 349.60 496.73 348.76 495.80 347.89 Z" />
<path fill="#b8b6ae" d=" M 502.64 354.66 C 503.56 351.75 505.04 349.07 506.78 346.58 C 507.09 347.64 507.40 348.70 507.73 349.77 C 504.59 353.10 503.70 357.56 503.54 361.99 C 503.21 360.65 502.91 359.32 502.62 357.98 C 501.80 358.95 500.99 359.92 500.17 360.89 C 500.30 363.66 500.07 366.42 499.66 369.16 C 500.26 368.44 501.48 367.02 502.08 366.30 C 501.09 369.22 500.61 372.28 500.91 375.37 C 504.78 372.71 503.45 367.76 505.60 364.17 C 505.45 367.16 505.02 370.23 506.39 373.03 C 506.99 372.16 508.21 370.42 508.82 369.55 C 508.01 375.13 505.50 380.34 505.03 385.99 C 504.73 390.49 503.63 395.24 500.30 398.51 C 500.81 396.17 501.60 393.91 502.30 391.63 C 500.86 392.86 499.47 394.12 498.04 395.35 C 499.06 393.23 500.13 391.12 501.09 388.97 C 499.61 389.84 498.15 390.74 496.72 391.66 C 496.39 388.38 496.02 385.11 495.89 381.82 C 496.60 382.53 497.35 383.22 498.14 383.89 C 498.88 381.39 499.70 378.92 500.51 376.44 C 498.89 377.69 497.29 378.95 495.62 380.12 C 496.45 377.55 498.20 375.51 499.92 373.50 C 499.27 372.37 498.45 371.32 497.72 370.26 L 499.63 370.18 C 498.99 369.58 498.36 368.99 497.73 368.41 C 495.99 372.16 495.94 377.12 491.54 378.98 C 492.35 376.99 493.35 375.10 494.35 373.21 C 493.30 373.50 492.26 373.79 491.23 374.09 C 490.29 372.89 489.32 371.71 488.43 370.48 C 486.42 368.23 488.91 364.65 486.33 362.67 C 484.50 361.11 484.42 359.09 485.65 357.10 C 486.19 357.75 487.26 359.07 487.80 359.72 C 488.38 359.23 489.52 358.23 490.10 357.74 C 489.33 356.96 488.57 356.19 487.81 355.42 C 489.79 355.11 491.77 354.77 493.75 354.43 C 494.43 352.76 495.14 351.12 495.85 349.47 C 496.55 350.44 497.25 351.42 497.96 352.40 C 499.43 351.96 500.91 351.54 502.40 351.15 C 500.28 353.37 497.46 354.55 494.38 354.38 C 493.08 355.57 491.75 356.73 490.41 357.87 C 490.57 358.77 490.90 360.58 491.07 361.49 C 491.81 360.07 492.53 358.65 493.27 357.23 C 493.98 358.06 494.69 358.91 495.40 359.76 C 497.13 357.21 499.83 355.73 502.64 354.66 Z" />
<path fill="#b8b7af" d=" M 508.38 346.72 C 513.21 346.83 516.79 350.28 520.82 352.45 C 521.66 352.23 523.35 351.78 524.20 351.56 C 526.26 352.61 528.28 353.75 530.28 354.93 C 527.67 356.76 524.84 358.29 522.50 360.46 C 520.04 362.89 518.24 365.88 515.94 368.44 C 516.21 367.48 516.75 365.55 517.02 364.59 C 514.91 365.18 513.30 363.95 511.76 362.76 C 513.77 362.51 515.78 362.18 517.75 361.68 C 519.23 359.47 521.13 357.61 523.15 355.89 C 521.24 355.61 519.33 355.31 517.44 354.97 C 516.54 350.17 511.09 350.01 508.38 346.72 Z" />
<path fill="#003300" d=" M 632.36 346.31 C 633.76 346.70 635.16 347.10 636.58 347.52 C 637.12 350.19 637.50 352.89 637.71 355.61 C 634.36 353.66 632.01 350.34 632.36 346.31 Z" />
<path fill="#003300" d=" M 678.07 356.37 C 679.09 353.14 680.35 350.00 681.62 346.86 C 681.83 347.69 682.26 349.35 682.47 350.19 C 681.18 352.37 679.75 354.47 678.07 356.37 Z" />
<path fill="#003300" d=" M 279.12 351.80 C 280.37 352.91 281.59 354.04 282.81 355.17 C 282.72 356.86 282.63 358.55 282.53 360.25 C 281.36 357.44 280.23 354.62 279.12 351.80 Z" />
<path fill="#003300" d=" M 302.42 352.41 C 302.72 352.37 303.32 352.29 303.62 352.25 C 301.25 358.11 298.39 363.76 295.11 369.15 C 292.95 372.87 290.40 376.59 289.87 380.97 C 289.69 383.35 290.16 385.71 290.39 388.07 C 288.71 383.73 286.74 378.97 288.12 374.27 C 290.62 365.76 296.41 358.73 302.42 352.41 Z" />
<path fill="#003300" d=" M 619.35 351.63 C 625.98 357.55 631.60 364.94 634.55 373.39 C 636.38 378.35 634.28 383.51 632.55 388.17 C 633.09 383.97 633.59 379.48 631.42 375.62 C 627.26 367.70 621.92 360.30 619.35 351.63 Z" />
<path fill="#003300" d=" M 640.12 355.10 C 641.34 354.00 642.57 352.90 643.82 351.82 C 642.68 354.62 641.55 357.42 640.41 360.22 C 640.30 358.51 640.20 356.81 640.12 355.10 Z" />
<path fill="#b8b6ae" d=" M 507.34 359.39 C 508.46 358.63 510.18 359.72 510.25 361.01 C 509.65 362.91 506.14 360.94 507.34 359.39 Z" />
<path fill="#b8b6ae" d=" M 508.50 365.80 C 509.55 365.63 510.59 365.41 511.63 365.14 C 512.32 366.94 514.11 368.35 514.45 370.22 C 513.07 372.59 510.61 374.06 508.61 375.83 C 509.22 373.11 512.18 370.27 510.85 367.35 C 510.61 367.28 510.13 367.15 509.89 367.08 L 508.48 368.94 C 508.44 367.89 508.45 366.84 508.50 365.80 Z" />
<path fill="#003300" d=" M 252.84 367.35 C 257.09 367.36 261.36 368.36 264.97 370.65 C 262.21 369.94 259.57 368.41 256.64 368.61 C 256.75 371.55 261.12 371.27 263.18 372.72 C 260.68 372.46 258.04 372.43 255.73 371.31 C 254.46 370.25 253.74 368.71 252.84 367.35 Z" />
<path fill="#003300" d=" M 657.97 370.63 C 661.58 368.35 665.85 367.33 670.10 367.36 C 669.22 368.70 668.45 370.14 667.27 371.25 C 665.00 372.46 662.32 372.43 659.83 372.66 C 661.92 371.26 666.10 371.54 666.34 368.60 C 663.39 368.42 660.74 369.91 657.97 370.63 Z" />
<path fill="#003300" d=" M 277.90 367.93 C 280.89 373.55 285.47 378.44 286.71 384.86 C 283.26 379.51 280.09 373.93 277.90 367.93 Z" />
<path fill="#003300" d=" M 636.09 384.86 C 637.58 378.51 641.96 373.52 645.07 367.94 C 642.66 373.83 639.89 379.75 636.09 384.86 Z" />
<path fill="#003300" d=" M 311.59 370.86 C 313.13 372.85 312.61 375.69 313.08 378.04 C 313.87 382.23 310.29 385.31 307.88 388.20 C 308.94 384.41 311.04 381.04 312.45 377.38 C 308.06 378.57 307.46 383.68 305.39 387.06 C 305.67 381.19 306.95 374.91 311.59 370.86 Z" />
<path fill="#003300" d=" M 610.80 370.57 C 615.88 374.49 617.26 381.00 617.57 387.07 C 615.44 383.67 614.84 378.51 610.41 377.31 C 611.86 381.02 613.96 384.44 615.18 388.24 C 613.11 386.05 610.96 383.78 609.86 380.93 C 609.60 377.46 610.39 374.01 610.80 370.57 Z" />
<path fill="#003300" d=" M 293.16 388.80 C 291.39 383.70 291.94 377.95 295.29 373.62 C 295.00 376.74 294.27 379.84 294.49 382.99 C 295.15 387.35 297.85 391.07 301.08 393.95 C 300.63 396.91 300.34 399.90 300.03 402.89 C 295.86 399.37 294.89 393.69 293.16 388.80 Z" />
<path fill="#003300" d=" M 296.76 383.02 C 296.47 379.73 297.33 376.49 297.86 373.27 C 301.98 377.17 302.46 383.21 302.47 388.55 C 300.82 385.80 301.10 381.66 297.85 380.17 C 298.14 383.35 299.04 386.42 299.78 389.52 C 298.56 387.46 297.30 385.37 296.76 383.02 Z" />
<path fill="#003300" d=" M 620.45 388.57 C 620.51 383.25 620.87 377.12 625.11 373.30 C 625.58 376.18 626.18 379.06 626.24 382.00 C 626.06 384.73 624.53 387.13 623.23 389.46 C 623.89 386.36 624.84 383.30 624.87 380.10 C 621.90 381.94 622.01 385.78 620.45 388.57 Z" />
<path fill="#003300" d=" M 627.63 373.62 C 629.40 376.43 631.11 379.55 630.77 382.99 C 630.41 388.56 628.19 393.81 626.10 398.92 C 625.45 400.09 624.58 402.55 622.85 401.78 C 622.41 399.18 622.21 396.55 621.83 393.95 C 625.06 391.07 627.75 387.36 628.44 383.00 C 628.65 379.85 627.90 376.75 627.63 373.62 Z" />
<path fill="#003300" d=" M 271.24 374.54 C 274.36 374.80 278.50 374.57 279.98 378.01 C 283.43 384.38 287.46 390.40 291.35 396.50 C 284.68 392.14 278.29 387.32 272.41 381.93 C 272.08 379.45 271.67 376.99 271.24 374.54 Z" />
<path fill="#003300" d=" M 644.74 375.79 C 646.86 374.70 649.34 374.78 651.65 374.48 C 651.25 376.92 650.85 379.37 650.55 381.84 C 644.61 387.48 637.90 392.25 631.15 396.87 C 634.60 391.71 638.17 386.61 641.13 381.14 C 642.23 379.30 643.09 377.22 644.74 375.79 Z" />
<path fill="#003300" d=" M 253.35 378.42 C 256.49 377.16 259.87 376.69 263.20 376.27 C 259.96 378.34 256.37 379.79 253.06 381.75 L 253.85 383.14 C 257.23 382.39 260.17 380.48 263.29 379.07 C 260.98 381.46 258.59 383.97 255.43 385.20 C 252.23 386.23 248.82 385.78 245.54 385.52 C 247.62 382.67 250.00 379.80 253.35 378.42 Z" />
<path fill="#003300" d=" M 659.73 376.26 C 663.10 376.69 666.52 377.19 669.70 378.47 C 672.99 379.88 675.29 382.73 677.39 385.52 C 674.20 385.76 670.90 386.22 667.79 385.29 C 664.49 384.14 662.02 381.55 659.65 379.11 C 662.80 380.51 665.76 382.42 669.17 383.16 L 669.82 381.77 C 666.56 379.74 662.94 378.36 659.73 376.26 Z" />
<path fill="#003300" d=" M 264.06 390.54 C 266.96 387.07 268.01 382.55 269.97 378.56 C 270.38 384.77 267.22 390.64 261.76 393.62 C 260.31 388.41 264.02 383.74 266.89 379.78 C 265.64 383.52 263.55 386.90 262.35 390.66 L 264.06 390.54 Z" />
<path fill="#003300" d=" M 653.02 378.54 C 654.63 382.09 655.70 385.92 657.84 389.22 C 658.35 390.42 659.72 390.48 660.78 390.86 C 659.30 387.14 657.32 383.63 656.11 379.80 C 658.92 383.79 662.55 388.41 661.22 393.61 C 655.69 390.70 652.50 384.76 653.02 378.54 Z" />
<path fill="#003300" d=" M 309.79 390.01 C 313.58 386.48 318.82 383.80 324.03 385.95 C 321.21 391.35 314.44 394.03 308.50 393.49 C 311.63 391.57 316.26 391.40 317.88 387.68 C 315.14 388.29 312.49 389.24 309.79 390.01 Z" />
<path fill="#003300" d=" M 598.24 385.95 C 600.68 385.60 603.19 384.91 605.66 385.46 C 608.50 386.28 610.84 388.20 613.14 389.99 C 610.73 389.34 608.40 388.40 605.97 387.85 L 605.26 389.21 C 608.28 391.10 611.73 392.10 614.99 393.48 C 608.41 394.40 602.24 390.99 598.24 385.95 Z" />
<path fill="#003300" d=" M 281.79 392.72 C 286.42 395.89 291.08 399.04 295.59 402.38 C 299.05 405.14 301.29 409.09 301.76 413.51 C 293.94 407.82 287.69 400.30 281.79 392.72 Z" />
<path fill="#003300" d=" M 628.43 401.51 C 632.69 398.60 636.87 395.56 641.14 392.67 C 635.26 400.26 629.02 407.84 621.15 413.46 C 621.67 408.58 624.46 404.31 628.43 401.51 Z" />
<path fill="#003300" d=" M 303.10 395.22 C 305.90 395.40 308.73 395.39 311.49 395.89 C 315.08 399.44 317.14 404.19 319.98 408.31 C 316.96 407.94 314.08 408.88 311.27 409.83 C 311.32 410.39 311.42 411.51 311.47 412.07 C 308.87 408.91 305.81 406.17 302.40 403.90 C 302.53 401.00 302.76 398.10 303.10 395.22 Z" />
<path fill="#003300" d=" M 611.18 396.05 C 613.94 395.24 616.93 395.48 619.79 395.20 C 620.15 398.10 620.40 401.01 620.52 403.93 C 617.10 406.15 614.06 408.89 611.48 412.06 C 611.53 411.50 611.62 410.39 611.66 409.83 C 608.85 408.85 605.95 407.95 602.95 408.38 C 605.65 404.25 607.80 399.69 611.18 396.05 Z" />
<path fill="#003300" d=" M 261.00 408.83 C 263.06 406.39 265.43 403.21 269.04 403.59 C 278.35 404.47 286.29 409.99 293.70 415.26 C 299.46 419.53 305.74 423.10 311.09 427.91 C 317.48 433.52 324.56 438.38 332.32 441.89 C 328.93 441.58 325.52 440.97 322.44 439.49 C 304.53 431.08 290.15 416.62 271.72 409.19 C 269.22 407.88 266.48 409.10 263.90 409.43 C 266.78 408.41 269.84 407.16 272.92 408.11 C 278.19 408.98 282.25 412.88 287.39 414.10 C 286.12 411.16 283.10 409.85 280.43 408.50 C 276.89 406.79 273.02 405.42 269.03 405.64 C 266.06 405.78 263.56 407.50 261.00 408.83 Z" />
<path fill="#003300" d=" M 629.27 415.22 C 636.70 409.94 644.67 404.40 654.02 403.59 C 657.58 403.29 659.87 406.48 661.99 408.82 C 659.16 407.38 656.33 405.48 653.02 405.60 C 647.59 405.75 642.53 408.17 638.02 411.01 C 636.80 411.70 636.28 413.07 635.62 414.22 C 640.67 412.71 644.81 409.01 650.08 408.09 C 653.13 407.16 656.16 408.41 659.02 409.41 C 656.45 409.10 653.71 407.87 651.23 409.18 C 636.24 415.21 623.91 425.92 610.21 434.22 C 604.17 437.72 597.91 441.73 590.67 441.78 C 598.50 438.39 605.52 433.41 611.93 427.83 C 617.28 423.05 623.53 419.47 629.27 415.22 Z" />
<path fill="#003300" d=" M 326.64 406.99 C 327.54 405.31 328.96 404.01 330.20 402.61 C 331.12 404.99 332.47 407.38 332.38 410.01 C 331.81 412.53 329.61 414.19 328.01 416.06 C 327.37 413.08 326.26 410.07 326.64 406.99 Z" />
<path fill="#003300" d=" M 590.56 410.03 C 590.42 407.37 591.81 404.98 592.77 402.60 C 594.21 404.49 596.83 406.19 596.38 408.92 C 596.17 411.34 595.42 413.68 594.74 416.00 C 593.24 414.12 591.13 412.47 590.56 410.03 Z" />
<path fill="#003300" d=" M 302.85 407.06 C 306.29 409.45 309.25 412.52 311.32 416.18 C 308.17 413.46 305.36 410.36 302.85 407.06 Z" />
<path fill="#003300" d=" M 611.67 416.12 C 613.56 412.78 616.13 409.81 619.36 407.71 C 617.20 410.85 614.56 413.64 611.67 416.12 Z" />
<path fill="#003300" d=" M 313.56 411.31 C 315.12 411.07 316.73 410.13 318.34 410.57 C 320.43 412.20 321.51 414.73 322.90 416.92 C 320.51 416.59 317.82 416.70 315.86 415.09 C 314.87 413.97 314.26 412.60 313.56 411.31 Z" />
<path fill="#003300" d=" M 600.03 416.93 C 601.45 414.61 602.62 411.96 604.91 410.34 C 606.41 410.58 607.89 410.92 609.36 411.34 C 608.65 412.61 608.03 413.96 607.08 415.08 C 605.11 416.69 602.41 416.58 600.03 416.93 Z" />
<path fill="#003300" d=" M 303.65 411.86 C 306.02 414.00 308.19 416.35 310.22 418.82 C 307.20 417.39 304.17 415.47 303.65 411.86 Z" />
<path fill="#003300" d=" M 612.67 418.84 C 614.72 416.35 616.92 413.99 619.32 411.83 C 618.74 415.43 615.72 417.41 612.67 418.84 Z" />
<path fill="#003300" d=" M 258.95 416.93 C 261.73 419.19 264.29 421.74 267.37 423.62 C 271.01 426.02 275.18 428.09 277.53 431.94 C 277.47 433.43 277.33 434.91 277.11 436.39 C 274.22 427.18 262.62 425.63 258.95 416.93 Z" />
<path fill="#003300" d=" M 314.93 417.54 C 318.29 418.71 321.82 419.21 325.35 419.54 C 328.02 425.17 330.72 430.79 333.68 436.28 C 326.70 430.83 319.15 425.57 314.93 417.54 Z" />
<path fill="#003300" d=" M 597.56 419.54 C 601.11 419.21 604.66 418.72 608.03 417.51 C 603.77 425.48 596.35 430.84 589.30 436.16 C 592.25 430.72 594.93 425.14 597.56 419.54 Z" />
<path fill="#003300" d=" M 655.62 423.58 C 658.69 421.70 661.24 419.14 663.97 416.81 C 660.50 425.63 648.70 427.05 645.94 436.30 C 645.68 434.89 645.41 433.48 645.38 432.06 C 647.63 428.09 651.95 426.02 655.62 423.58 Z" />
<path fill="#003300" d=" M 307.40 419.98 C 316.98 424.03 323.98 431.86 332.11 438.05 C 322.44 434.53 313.45 428.35 307.40 419.98 Z" />
<path fill="#003300" d=" M 353.70 418.77 C 358.17 422.36 359.28 428.22 357.65 433.55 C 353.08 430.22 353.78 423.76 353.70 418.77 Z" />
<path fill="#003300" d=" M 564.71 425.97 C 565.14 423.04 567.36 420.87 569.25 418.77 C 569.16 423.78 569.80 430.19 565.29 433.59 C 564.87 431.07 564.36 428.52 564.71 425.97 Z" />
<path fill="#003300" d=" M 590.86 438.12 C 598.85 431.79 605.95 424.10 615.48 419.99 C 609.47 428.41 600.43 434.44 590.86 438.12 Z" />
<path fill="#003300" d=" M 360.97 430.99 C 364.12 428.01 368.44 426.76 372.64 426.19 C 370.72 431.07 366.82 437.18 360.66 435.53 C 360.69 434.00 360.79 432.49 360.97 430.99 Z" />
<path fill="#003300" d=" M 550.28 426.20 C 554.56 426.70 558.85 428.13 562.12 431.04 C 562.23 432.84 562.57 436.14 559.91 435.96 C 554.74 435.39 552.15 430.43 550.28 426.20 Z" />
<path fill="#003300" d=" M 340.56 430.05 C 344.62 430.57 348.51 431.88 352.23 433.55 C 351.43 435.24 350.66 436.95 349.91 438.66 C 345.46 437.59 342.70 433.79 340.56 430.05 Z" />
<path fill="#003300" d=" M 570.68 433.55 C 574.40 431.87 578.31 430.56 582.39 430.06 C 580.21 433.78 577.46 437.58 573.02 438.68 C 572.26 436.96 571.48 435.24 570.68 433.55 Z" />
<path fill="#003300" d=" M 292.56 438.95 C 292.43 436.50 293.78 434.31 294.66 432.11 C 296.39 434.08 298.34 435.97 299.41 438.40 C 300.40 440.61 299.16 442.94 298.55 445.08 C 296.37 443.24 293.92 441.53 292.56 438.95 Z" />
<path fill="#003300" d=" M 623.55 438.32 C 624.63 435.92 626.55 434.04 628.26 432.08 C 629.08 434.32 630.64 436.57 630.29 439.04 C 628.97 441.59 626.53 443.25 624.40 445.06 C 623.74 442.91 622.51 440.55 623.55 438.32 Z" />
<path fill="#003300" d=" M 354.32 435.54 C 356.91 433.67 361.15 437.17 359.03 439.92 C 357.77 442.19 354.34 442.06 353.12 439.83 C 353.03 438.38 352.98 436.44 354.32 435.54 Z" />
<path fill="#003300" d=" M 565.30 435.39 C 569.24 433.13 571.93 440.01 568.00 441.42 C 564.27 443.00 561.36 436.88 565.30 435.39 Z" />
<path fill="#003300" d=" M 361.15 441.07 C 363.59 439.26 366.28 437.84 368.97 436.45 C 373.21 437.67 376.81 440.29 379.89 443.36 C 375.51 444.55 370.90 445.04 366.38 444.54 C 364.36 443.91 362.84 442.27 361.15 441.07 Z" />
<path fill="#003300" d=" M 543.00 443.36 C 546.12 440.30 549.71 437.64 553.99 436.47 C 556.52 437.81 559.26 438.91 561.32 440.98 C 557.17 446.97 548.96 444.54 543.00 443.36 Z" />
<path fill="#003300" d=" M 315.25 438.33 C 317.48 439.49 319.74 440.60 322.04 441.63 C 320.02 441.92 318.01 442.23 316.00 442.56 C 316.88 444.85 317.84 447.11 318.88 449.34 C 315.49 448.98 312.08 448.72 308.67 448.65 C 312.20 446.22 314.33 442.46 315.25 438.33 Z" />
<path fill="#003300" d=" M 408.81 440.89 C 409.47 439.83 409.87 437.58 411.56 438.35 C 415.13 443.27 416.29 449.57 415.62 455.54 C 413.23 452.12 412.14 448.08 411.07 444.10 C 408.04 445.85 410.61 449.66 410.63 452.32 C 408.82 448.85 407.34 444.75 408.81 440.89 Z" />
<path fill="#003300" d=" M 507.30 455.60 C 506.48 449.16 508.13 442.59 512.00 437.37 C 515.78 441.63 515.02 447.67 512.39 452.31 C 512.24 449.74 514.99 445.44 511.83 444.25 C 510.77 448.19 509.62 452.18 507.30 455.60 Z" />
<path fill="#003300" d=" M 607.60 438.29 C 608.60 442.41 610.70 446.21 614.23 448.68 C 610.81 448.72 607.40 448.98 604.01 449.33 C 605.07 447.11 606.04 444.85 606.94 442.57 C 604.94 442.24 602.94 441.93 600.94 441.65 C 603.19 440.59 605.41 439.47 607.60 438.29 Z" />
<path fill="#003300" d=" M 305.96 439.93 C 308.05 438.73 310.60 438.89 312.92 438.51 C 311.89 442.22 309.82 446.02 305.79 447.03 C 304.42 447.97 303.42 446.04 302.28 445.56 C 303.43 443.65 304.34 441.51 305.96 439.93 Z" />
<path fill="#003300" d=" M 610.03 438.50 C 612.20 438.80 614.48 438.87 616.57 439.66 C 618.53 441.11 619.35 443.57 620.62 445.57 C 618.52 448.47 615.31 446.56 613.16 444.76 C 611.46 443.07 610.89 440.64 610.03 438.50 Z" />
<path fill="#003300" d=" M 346.09 444.52 C 347.70 443.27 349.47 442.26 351.21 441.20 C 352.17 442.13 353.18 443.04 354.08 444.05 C 353.26 445.53 352.22 446.91 350.89 447.97 C 349.14 447.21 346.69 446.52 346.09 444.52 Z" />
<path fill="#003300" d=" M 568.48 444.01 C 569.61 443.11 570.76 442.20 571.90 441.30 C 573.60 442.35 575.33 443.36 576.93 444.58 C 576.03 446.44 573.87 447.23 572.08 447.98 C 570.74 446.78 569.63 445.37 568.48 444.01 Z" />
<path fill="#003300" d=" M 278.36 445.34 C 281.81 444.38 285.31 443.23 288.95 443.38 C 291.08 443.68 292.75 445.24 294.59 446.25 C 293.63 448.00 292.47 449.93 290.15 449.71 C 285.63 450.80 281.76 447.86 278.36 445.34 Z" />
<path fill="#003300" d=" M 327.98 443.52 C 332.79 444.32 337.65 444.78 342.52 444.96 C 342.32 447.50 342.09 450.04 341.90 452.59 C 339.29 452.08 336.68 451.57 334.06 451.16 C 332.17 448.50 330.17 445.93 327.98 443.52 Z" />
<path fill="#003300" d=" M 580.44 444.95 C 585.30 444.77 590.16 444.32 594.96 443.50 C 592.78 445.83 591.04 448.54 588.83 450.84 C 586.38 451.93 583.58 452.00 580.99 452.60 C 580.83 450.04 580.62 447.50 580.44 444.95 Z" />
<path fill="#003300" d=" M 633.37 443.47 C 637.24 442.99 641.01 444.33 644.62 445.57 C 642.16 447.08 639.77 448.86 636.97 449.68 C 634.64 450.09 632.29 449.54 629.98 449.29 C 629.49 448.22 629.01 447.15 628.54 446.09 C 630.12 445.17 631.62 444.05 633.37 443.47 Z" />
<path fill="#003300" d=" M 318.66 444.23 C 321.28 444.36 324.11 444.15 326.43 445.61 C 328.05 446.71 329.18 448.35 330.43 449.83 C 327.52 449.57 324.47 449.53 321.80 448.21 C 320.35 447.27 319.64 445.59 318.66 444.23 Z" />
<path fill="#003300" d=" M 357.07 443.46 C 358.76 444.52 360.80 445.41 361.74 447.30 C 363.05 449.71 362.64 452.58 362.77 455.23 C 360.34 453.97 357.78 452.83 355.70 451.02 C 355.27 448.41 356.39 445.92 357.07 443.46 Z" />
<path fill="#003300" d=" M 561.21 447.24 C 562.15 445.39 564.16 444.52 565.83 443.46 C 566.52 445.92 567.66 448.42 567.22 451.04 C 565.12 452.83 562.58 453.97 560.17 455.25 C 560.30 452.58 559.86 449.67 561.21 447.24 Z" />
<path fill="#003300" d=" M 596.59 445.56 C 598.89 444.14 601.69 444.36 604.29 444.26 C 603.28 445.61 602.53 447.27 601.08 448.22 C 598.42 449.55 595.37 449.56 592.48 449.83 C 593.76 448.33 594.93 446.66 596.59 445.56 Z" />
<path fill="#003300" d=" M 419.88 449.02 C 422.04 446.29 425.67 445.74 428.84 444.94 C 427.07 450.73 423.55 455.82 419.12 459.90 C 420.45 456.23 422.58 452.96 424.38 449.53 C 420.81 450.01 419.54 453.49 417.91 456.16 C 418.29 453.74 418.10 450.95 419.88 449.02 Z" />
<path fill="#003300" d=" M 494.09 444.92 C 497.21 445.75 500.82 446.28 503.00 448.95 C 504.80 450.91 504.66 453.70 504.97 456.17 C 503.36 453.51 502.12 449.94 498.51 449.60 C 500.25 452.80 502.37 455.84 503.43 459.38 C 499.03 455.55 495.80 450.49 494.09 444.92 Z" />
<path fill="#003300" d=" M 344.67 446.94 C 345.89 447.85 347.12 448.77 348.33 449.71 C 346.94 450.20 345.55 450.69 344.16 451.17 C 344.32 449.76 344.49 448.35 344.67 446.94 Z" />
<path fill="#003300" d=" M 574.56 449.67 C 575.79 448.75 577.03 447.86 578.29 446.97 C 578.44 448.37 578.60 449.77 578.76 451.18 C 577.35 450.68 575.95 450.17 574.56 449.67 Z" />
<path fill="#003300" d=" M 394.22 447.13 C 398.53 447.93 402.95 449.01 406.64 451.49 C 408.98 453.23 410.40 455.86 412.05 458.21 C 408.85 456.35 405.93 454.06 402.74 452.20 C 402.60 452.64 402.32 453.53 402.18 453.98 C 404.54 456.24 407.37 457.91 410.00 459.83 C 403.65 457.41 396.31 454.29 394.22 447.13 Z" />
<path fill="#003300" d=" M 517.06 450.98 C 520.61 448.86 524.68 447.85 528.72 447.15 C 526.59 454.23 519.35 457.37 513.03 459.78 C 515.65 457.61 519.15 456.23 520.95 453.23 L 520.02 452.36 C 516.86 454.10 514.03 456.37 510.91 458.19 C 512.70 455.60 514.26 452.62 517.06 450.98 Z" />
<path fill="#003300" d=" M 538.66 465.14 C 545.34 459.64 552.07 454.19 558.25 448.12 C 557.86 450.87 557.79 453.65 558.19 456.41 C 551.84 459.64 545.65 463.44 538.66 465.14 Z" />
<path fill="#003300" d=" M 364.81 448.20 C 370.92 454.28 377.63 459.68 384.28 465.14 C 377.28 463.44 371.08 459.66 364.74 456.41 C 364.97 453.67 364.98 450.93 364.81 448.20 Z" />
<path fill="#003300" d=" M 308.93 450.66 C 313.34 451.18 317.78 451.42 322.21 451.77 C 320.87 453.12 319.53 454.47 318.21 455.84 C 315.57 453.38 312.34 451.75 308.93 450.66 Z" />
<path fill="#003300" d=" M 383.88 449.25 C 390.58 456.36 396.66 464.04 402.11 472.16 C 395.67 470.72 391.13 465.78 386.94 461.04 C 384.18 457.77 384.37 453.24 383.88 449.25 Z" />
<path fill="#003300" d=" M 520.84 472.17 C 526.20 463.97 532.41 456.38 539.05 449.20 C 538.58 453.19 538.73 457.72 536.01 461.01 C 531.82 465.75 527.27 470.69 520.84 472.17 Z" />
<path fill="#003300" d=" M 345.48 453.28 C 347.22 452.46 348.91 451.41 350.82 451.05 C 353.19 451.87 354.71 453.94 356.24 455.80 C 352.63 455.08 349.05 454.19 345.48 453.28 Z" />
<path fill="#003300" d=" M 566.66 455.76 C 568.21 453.90 569.79 451.84 572.18 451.01 C 574.03 451.51 575.73 452.44 577.46 453.28 C 573.88 454.21 570.29 455.08 566.66 455.76 Z" />
<path fill="#003300" d=" M 600.74 451.76 C 604.84 451.41 608.94 451.17 613.06 451.08 C 609.99 452.11 607.12 453.65 604.71 455.82 C 603.39 454.45 602.06 453.11 600.74 451.76 Z" />
<path fill="#003300" d=" M 284.94 453.90 C 288.06 452.56 291.59 452.86 294.85 453.45 C 293.22 455.86 291.90 458.77 289.27 460.27 C 286.57 461.31 283.61 461.33 280.77 461.56 C 281.94 458.93 282.55 455.74 284.94 453.90 Z" />
<path fill="#003300" d=" M 304.43 452.50 C 309.44 452.97 314.59 454.54 317.66 458.82 C 314.36 458.59 310.96 458.44 307.90 457.08 C 305.99 456.29 305.46 454.07 304.43 452.50 Z" />
<path fill="#003300" d=" M 320.16 457.07 C 321.88 455.32 323.63 453.40 326.03 452.61 C 328.06 452.44 330.09 452.80 332.12 452.97 C 328.99 456.15 324.75 458.84 320.16 457.07 Z" />
<path fill="#003300" d=" M 590.81 452.96 C 592.85 452.81 594.93 452.40 597.00 452.64 C 599.33 453.46 601.04 455.35 602.75 457.07 C 598.15 458.85 593.93 456.15 590.81 452.96 Z" />
<path fill="#003300" d=" M 605.29 458.83 C 608.31 454.50 613.48 453.01 618.47 452.48 C 617.43 454.09 616.91 456.38 614.93 457.11 C 611.90 458.46 608.54 458.58 605.29 458.83 Z" />
<path fill="#003300" d=" M 628.08 453.45 C 631.33 452.86 634.85 452.57 637.98 453.90 C 640.41 455.71 640.93 458.96 642.12 461.58 C 639.28 461.33 636.35 461.30 633.66 460.27 C 631.02 458.78 629.70 455.86 628.08 453.45 Z" />
<path fill="#003300" d=" M 298.38 469.15 C 297.59 465.04 294.53 458.80 299.12 455.99 C 300.47 454.26 301.42 456.79 301.57 457.80 C 302.67 461.93 300.91 465.96 298.38 469.15 Z" />
<path fill="#003300" d=" M 621.78 455.27 C 623.19 456.04 625.31 456.30 625.82 458.12 C 627.02 461.84 625.33 465.74 624.29 469.31 C 621.25 465.23 620.45 460.14 621.78 455.27 Z" />
<path fill="#003300" d=" M 421.57 461.56 C 422.97 460.07 424.19 462.01 424.55 463.33 C 425.08 465.39 424.70 467.77 423.01 469.21 C 419.79 468.46 419.86 463.72 421.57 461.56 Z" />
<path fill="#003300" d=" M 500.06 469.55 C 497.31 467.00 497.61 462.34 500.81 460.30 C 502.54 463.13 503.61 467.57 500.06 469.55 Z" />
<path fill="#003300" d=" M 342.53 464.73 C 354.20 464.54 366.22 462.13 377.63 465.62 C 382.30 467.31 386.81 469.40 391.33 471.45 C 380.91 470.39 370.43 469.91 359.96 469.81 C 353.79 469.81 347.99 467.36 342.53 464.73 Z" />
<path fill="#003300" d=" M 545.39 465.58 C 556.79 462.13 568.78 464.56 580.43 464.72 C 574.96 467.33 569.17 469.81 563.00 469.81 C 552.31 469.92 541.63 470.39 531.00 471.53 C 535.82 469.61 540.51 467.35 545.39 465.58 Z" />
<path fill="#003300" d=" M 438.57 466.04 C 435.78 472.27 438.80 478.60 441.64 484.16 C 438.46 481.99 434.67 479.80 433.44 475.90 C 432.49 471.77 436.11 468.77 438.57 466.04 Z" />
<path fill="#003300" d=" M 484.37 466.07 C 486.85 468.79 490.45 471.83 489.49 475.96 C 488.16 479.84 484.48 482.05 481.19 484.11 C 482.75 480.81 484.66 477.59 485.36 473.96 C 485.96 471.28 484.97 468.64 484.37 466.07 Z" />
<path fill="#003300" d=" M 318.86 468.77 C 324.81 468.70 331.12 470.15 334.98 475.05 C 331.50 473.43 328.23 471.20 324.35 470.67 C 326.18 473.85 329.98 474.76 332.74 476.89 C 329.32 476.59 325.66 476.30 322.76 474.27 C 320.85 472.95 319.99 470.69 318.86 468.77 Z" />
<path fill="#003300" d=" M 588.00 475.08 C 591.77 470.12 598.14 468.58 604.10 469.03 C 602.93 470.85 601.92 472.86 600.20 474.23 C 597.33 476.30 593.67 476.58 590.27 476.87 C 592.69 474.65 596.81 474.18 598.16 470.98 C 594.34 470.90 591.37 473.71 588.00 475.08 Z" />
<path fill="#003300" d=" M 407.36 474.15 C 410.49 472.70 413.49 470.47 417.02 470.23 C 422.23 471.54 426.36 475.30 430.57 478.45 C 430.62 478.70 430.74 479.21 430.80 479.46 C 426.40 477.19 421.95 474.70 416.99 473.94 C 413.78 473.94 410.57 474.81 407.36 474.15 Z" />
<path fill="#003300" d=" M 503.79 470.85 C 507.97 468.93 511.88 472.69 515.58 474.14 C 512.39 474.83 509.17 473.94 505.97 473.93 C 500.88 474.65 496.49 477.54 491.72 479.23 C 495.32 475.89 499.31 472.89 503.79 470.85 Z" />
<path fill="#003300" d=" M 381.75 475.73 C 386.02 474.20 390.60 474.53 395.05 474.33 C 383.94 474.66 374.61 481.23 364.93 485.87 C 361.75 487.45 358.38 488.71 354.81 489.04 C 363.45 483.98 372.19 478.86 381.75 475.73 Z" />
<path fill="#003300" d=" M 528.02 474.33 C 532.21 474.54 536.52 474.21 540.57 475.55 C 550.40 478.62 559.30 483.95 568.19 489.04 C 562.08 488.52 556.77 485.22 551.43 482.52 C 544.13 478.58 536.48 474.65 528.02 474.33 Z" />
<path fill="#003300" d=" M 413.31 476.18 C 418.65 475.59 423.48 478.18 428.03 480.57 C 423.07 479.32 417.98 478.32 413.31 476.18 Z" />
<path fill="#003300" d=" M 494.98 480.57 C 499.46 478.23 504.29 475.37 509.56 476.44 C 504.81 478.18 499.88 479.35 494.98 480.57 Z" />
<path fill="#003300" d=" M 389.16 476.96 C 394.21 476.66 399.65 475.89 404.24 478.54 C 399.82 479.86 395.30 481.68 392.74 485.78 C 392.31 482.56 390.99 479.60 389.16 476.96 Z" />
<path fill="#828f7b" d=" M 406.36 477.15 C 407.72 476.61 408.24 477.06 407.91 478.49 C 406.53 479.01 406.02 478.57 406.36 477.15 Z" />
<path fill="#82907b" d=" M 515.14 477.10 C 516.56 476.66 517.02 477.14 516.53 478.54 C 515.11 478.96 514.64 478.48 515.14 477.10 Z" />
<path fill="#003300" d=" M 518.66 478.28 C 523.42 476.14 528.71 476.56 533.77 476.95 C 531.99 479.56 530.61 482.44 530.15 485.60 C 527.47 481.62 522.92 479.95 518.66 478.28 Z" />
<path fill="#003300" d=" M 449.80 477.47 C 452.73 481.06 455.31 484.98 456.88 489.37 C 454.84 488.05 452.61 486.86 451.07 484.93 C 449.42 482.80 449.83 479.96 449.80 477.47 Z" />
<path fill="#003300" d=" M 466.05 489.37 C 467.62 484.97 470.18 481.03 473.16 477.47 C 473.08 479.94 473.46 482.76 471.88 484.89 C 470.35 486.85 468.10 488.03 466.05 489.37 Z" />
<path fill="#003300" d=" M 386.03 488.74 C 385.53 485.63 384.58 481.01 387.63 478.97 C 390.03 481.60 390.49 485.22 390.24 488.64 C 388.83 488.68 387.43 488.71 386.03 488.74 Z" />
<path fill="#697e64" d=" M 412.23 478.74 C 415.01 478.82 417.69 479.63 420.05 481.11 C 417.21 481.26 414.42 480.60 412.23 478.74 Z" />
<path fill="#6e8168" d=" M 502.57 480.71 C 505.18 479.66 507.93 478.96 510.74 478.66 C 508.50 480.85 505.53 481.35 502.57 480.71 Z" />
<path fill="#003300" d=" M 532.72 488.26 C 532.02 484.59 533.44 481.03 535.96 478.39 C 537.29 481.78 537.97 485.46 536.73 489.00 C 535.38 488.78 534.03 488.61 532.72 488.26 Z" />
<path fill="#003300" d=" M 312.24 489.57 C 315.82 484.70 320.92 480.73 327.12 480.18 C 324.79 481.42 322.13 482.33 320.65 484.69 C 325.07 484.13 329.05 481.98 333.38 481.05 C 327.89 486.76 320.07 489.50 312.24 489.57 Z" />
<path fill="#003300" d=" M 595.86 480.15 C 602.02 480.77 607.09 484.70 610.65 489.57 C 602.87 489.47 595.02 486.79 589.60 481.05 C 593.93 481.51 597.79 485.04 602.19 484.16 C 600.42 482.32 598.06 481.34 595.86 480.15 Z" />
<path fill="#003300" d=" M 405.06 487.46 C 405.76 485.20 406.42 482.93 407.02 480.65 C 409.33 481.76 411.67 482.82 414.04 483.82 C 410.95 484.77 407.93 485.95 405.06 487.46 Z" />
<path fill="#003300" d=" M 508.83 483.86 C 511.21 482.86 513.57 481.78 515.90 480.67 C 516.50 482.98 517.18 485.28 517.93 487.57 C 515.06 485.95 511.99 484.75 508.83 483.86 Z" />
<path fill="#003300" d=" M 394.50 487.55 C 396.33 483.55 400.68 481.86 404.71 481.00 C 403.89 486.11 400.60 491.30 394.87 491.39 C 392.38 491.76 393.83 488.58 394.50 487.55 Z" />
<path fill="#003300" d=" M 518.24 480.98 C 523.39 481.79 529.70 485.55 529.19 491.42 C 526.62 491.38 524.00 490.63 521.99 489.00 C 519.69 486.96 519.12 483.76 518.24 480.98 Z" />
<path fill="#003300" d=" M 331.56 489.40 C 332.13 486.88 334.01 484.98 335.60 483.05 C 334.79 486.69 333.74 490.33 333.77 494.10 L 335.09 494.55 C 336.97 490.86 336.64 486.27 338.47 482.44 C 338.84 484.97 339.40 487.58 338.79 490.13 C 338.23 493.88 335.40 496.64 332.93 499.29 C 332.05 496.08 330.90 492.76 331.56 489.40 Z" />
<path fill="#003300" d=" M 584.49 482.43 C 585.95 486.18 586.42 490.20 587.24 494.13 C 587.73 494.18 588.73 494.30 589.22 494.35 C 589.09 490.64 588.22 487.03 587.50 483.41 C 588.98 485.09 590.70 486.76 591.27 489.02 C 592.15 492.48 590.84 495.94 590.01 499.28 C 587.51 496.66 584.72 493.87 584.13 490.13 C 583.48 487.57 584.08 484.96 584.49 482.43 Z" />
<path fill="#003300" d=" M 420.61 484.62 C 427.29 485.44 434.29 483.19 440.65 486.15 C 434.43 487.55 428.17 488.74 421.98 490.27 C 421.78 488.32 421.37 486.42 420.61 484.62 Z" />
<path fill="#003300" d=" M 481.89 486.13 C 488.44 483.31 495.54 485.37 502.38 484.60 C 501.54 486.38 501.12 488.30 500.97 490.26 C 494.64 488.75 488.26 487.43 481.89 486.13 Z" />
<path fill="#003300" d=" M 413.42 488.61 C 413.25 485.26 417.69 486.32 419.78 486.63 C 420.35 490.32 414.91 491.87 413.42 488.61 Z" />
<path fill="#003300" d=" M 504.35 486.58 C 506.01 485.56 509.91 486.04 509.49 488.56 C 508.74 492.31 500.42 489.56 504.35 486.58 Z" />
<path fill="#003300" d=" M 373.63 489.74 C 377.23 488.08 381.11 488.65 384.69 489.99 C 384.06 491.31 383.44 492.66 382.81 493.99 C 379.34 493.65 376.28 491.91 373.63 489.74 Z" />
<path fill="#003300" d=" M 417.57 493.37 C 425.12 491.96 432.55 489.96 440.12 488.67 C 444.35 487.87 448.55 489.18 452.48 490.68 C 448.03 492.15 443.52 493.45 439.04 494.83 C 434.89 496.05 430.56 497.40 426.19 496.72 C 423.14 496.13 420.34 494.71 417.57 493.37 Z" />
<path fill="#003300" d=" M 470.46 490.68 C 474.41 489.14 478.67 487.86 482.95 488.70 C 490.48 489.99 497.88 491.97 505.39 493.39 C 500.92 495.64 495.97 497.81 490.86 496.60 C 483.92 495.14 477.23 492.74 470.46 490.68 Z" />
<path fill="#003300" d=" M 538.23 489.98 C 541.81 488.66 545.69 488.08 549.28 489.74 C 546.63 491.91 543.58 493.63 540.13 494.01 C 539.48 492.67 538.85 491.32 538.23 489.98 Z" />
<path fill="#003300" d=" M 395.52 493.94 C 397.46 494.12 399.48 493.98 401.35 494.63 C 404.02 495.90 405.65 498.51 407.30 500.85 C 402.91 501.86 398.15 501.36 394.84 498.06 C 395.06 496.68 395.29 495.31 395.52 493.94 Z" />
<path fill="#003300" d=" M 515.63 500.98 C 517.29 498.45 519.03 495.55 522.03 494.47 C 523.80 494.08 525.63 494.04 527.44 493.89 C 527.62 495.28 527.82 496.68 528.02 498.09 C 524.73 501.40 520.00 501.76 515.63 500.98 Z" />
<path fill="#003300" d=" M 380.13 505.19 C 379.92 502.01 381.01 499.07 383.17 496.75 C 383.90 498.42 386.44 500.09 385.21 502.12 C 384.25 504.02 381.87 504.32 380.13 505.19 Z" />
<path fill="#003300" d=" M 536.94 500.40 C 537.98 499.20 539.02 498.01 540.07 496.83 C 541.89 499.25 542.94 502.09 542.82 505.16 C 540.21 504.46 537.84 503.09 536.94 500.40 Z" />
<path fill="#003300" d=" M 387.51 501.34 C 389.27 501.00 391.04 500.66 392.81 500.34 C 392.98 503.34 392.81 506.38 391.90 509.27 C 389.66 507.11 388.21 504.35 387.51 501.34 Z" />
<path fill="#003300" d=" M 529.81 500.40 C 531.67 500.68 533.54 500.97 535.41 501.29 C 534.70 504.30 533.26 507.08 531.07 509.28 C 530.18 506.41 529.80 503.41 529.81 500.40 Z" />
</svg>
