<svg xmlns="http://www.w3.org/2000/svg" width="793.047" height="528.047"><defs><filter x="-.315" y="-.219" width="1.63" height="1.439" color-interpolation-filters="sRGB" id="a"><feGaussianBlur stdDeviation="1.179"/></filter><filter id="b" x="-.152" width="1.304" y="-.57" height="2.141" color-interpolation-filters="sRGB"><feGaussianBlur stdDeviation=".454"/></filter></defs><path fill="#004614" d="M0 0h793.047v528.047H0z"/><g fill="#fff" stroke="#fff"><path d="M295.285 140.761c-93.302 97.167-24.895 229.758 91.184 244.722 29.714 7.206 24.206 7.3 38.325 16.999 6.387.337-1.79-3.52-7.06-7.736-5.806-3.944-16.468-7.214-26.816-9.493-11.526-2.539-22.561-3.246-25.955-3.996" fill="none" stroke-width="5.681" stroke-linejoin="round"/><path d="M259.062 278.61c18.368-8.557 16.822-18.163 18.128-27.619-11.67 5.599-16.888 15.334-18.128 27.62z" stroke-width=".568"/><path d="M254.972 252.874c20.296-4.808 20.735-14.813 24.019-24.073-12.93 3.216-20.214 11.946-24.02 24.073zm3.203-44.984c20.832 1.039 24.04-8.448 29.775-16.427-13.315-.514-22.742 5.841-29.775 16.428zm-4.268 22.442c20.83-1.08 23.06-10.843 27.956-19.363-13.298.84-22.033 8.118-27.956 19.363zm11.89-45.089c20.595 3.301 24.819-5.78 31.388-13.086-13.18-1.96-23.243 3.329-31.388 13.086z" stroke-width=".585"/><path d="M280.233 156.724c16.328 10.268 23.21 4.071 31.447.233-10.504-6.442-20.983-5.586-31.447-.233z" stroke-width=".541"/><path d="M293.454 142.575c17.242 5.762 22.163-1.447 28.85-6.798-11.056-3.557-20.461-.437-28.85 6.798z" stroke-width=".51"/><path d="M292.119 146.238c-6.005-19.91 2.405-25.292 8.75-32.755 3.692 12.76-.194 23.408-8.75 32.755z" stroke-width=".583"/><path d="M254.61 275.298c-22.736-6.42-22.749-17.764-26.018-28.403 14.478 4.265 22.299 14.496 26.018 28.403z" stroke-width=".662"/><path d="M249.736 249.362c-19.073-12.821-15.65-23.311-15.449-34.135 12.091 8.327 16.222 20.153 15.449 34.135z" stroke-width=".644"/><path d="M251.065 219.882c-16.328-15.847-11.148-25.466-9.048-35.977 10.316 10.24 12.26 22.49 9.048 35.977z" stroke-width=".638"/><path d="M257.78 193.343c-14.953-22.232-6.643-32.052-1.666-43.65 9.392 14.308 8.65 28.894 1.666 43.65z" stroke-width=".751"/><path d="M274.651 164.045c-11.487-18.986-4.223-26.78.356-36.178 7.201 12.21 6.009 24.247-.356 36.178z" stroke-width=".622"/><path d="M272.627 354.443c20.567 16.795 31.02 9.495 42.922 5.648-13.258-10.581-27.72-11.188-42.922-5.648z" stroke-width=".744"/><path d="M282.757 325.784c13.342-16.033 7.684-24.296 4.748-33.673-8.407 10.337-8.988 21.692-4.748 33.673z" stroke-width=".585"/><path d="M251.613 326.35c16.53 21.652 28.698 16.854 41.49 15.845-10.714-13.712-25-17.757-41.49-15.845z" stroke-width=".764"/><path d="M268.697 304.203c15.368-14.102 10.867-23.049 9.213-32.734-9.715 9.119-11.811 20.293-9.213 32.734z" stroke-width=".585"/><path d="M323.059 361.443c-15.161-13.444-10.938-22.208-9.492-31.644 9.588 8.697 11.81 19.516 9.492 31.644z" stroke-width=".568"/><path d="M300.27 343.965c-11.893-17.135-5.536-24.874-1.794-33.959 7.474 11.031 7.063 22.393 1.794 33.96z" stroke-width=".585"/><path d="M275.24 321.284c-24.573.545-28.044-10.734-34.54-20.32 15.701-.172 26.6 7.62 34.54 20.32z" stroke-width=".689"/><path d="M335.593 373.417c-19.373 14.53-28.077 6.692-38.31 2.058 12.472-9.13 25.285-8.577 38.31-2.058z" stroke-width=".688"/><path d="M263.257 300.105c-24.21-4.6-25.258-16.386-29.624-27.142 15.432 3.112 24.49 13.03 29.624 27.142z" stroke-width=".691"/><path d="M362.485 381.27c-15.123 16.652-24.797 11.848-35.251 10.118 9.78-10.528 21.819-12.852 35.251-10.119z" stroke-width=".631"/><path d="M347.355 372.722c-17.912-10.687-15.323-20.361-15.67-30.18 11.364 6.955 15.687 17.47 15.67 30.18zm25.07 6.576c-19.704-6.843-19.125-16.841-21.452-26.387 12.537 4.512 18.897 13.936 21.452 26.387z" stroke-width=".585"/></g><g fill="#fff" stroke="#fff"><path d="M499.032 142.385c92.137 98.272 22.154 230.038-94.095 243.617-29.797 6.852-24.29 7.012-38.524 16.542-6.39.26 1.831-3.498 7.152-7.651 5.852-3.875 16.553-7.017 26.926-9.173 11.556-2.401 22.6-2.977 26.001-3.686" fill="none" stroke-width="5.681" stroke-linejoin="round"/><path d="M533.609 280.656c-18.264-8.776-16.604-18.363-17.798-27.833 11.604 5.737 16.704 15.534 17.798 27.833z" stroke-width=".568"/><path d="M538.006 254.97c-20.238-5.049-20.557-15.059-23.73-24.358 12.89 3.37 20.07 12.187 23.73 24.358zm-2.666-45.018c-20.844.79-23.94-8.735-29.578-16.782 13.32-.354 22.67 6.112 29.577 16.782zm3.999 22.49c-20.816-1.328-22.93-11.117-27.723-19.694 13.287.998 21.934 8.38 27.723 19.694zm-11.352-45.227c-20.633 3.056-24.748-6.075-31.23-13.46 13.202-1.803 23.202 3.607 31.23 13.46z" stroke-width=".585"/><path d="M513.892 158.526c-16.45 10.073-23.257 3.794-31.447-.142 10.58-6.316 21.048-5.335 31.447.142z" stroke-width=".541"/><path d="M500.84 144.22c-17.309 5.557-22.143-1.71-28.765-7.14 11.096-3.426 20.464-.194 28.766 7.14z" stroke-width=".51"/><path d="M502.132 147.9c6.242-19.837-2.104-25.32-8.359-32.858-3.844 12.715-.085 23.41 8.36 32.857z" stroke-width=".583"/><path d="M538.1 277.397c22.81-6.15 22.96-17.492 26.355-28.09-14.527 4.091-22.47 14.228-26.355 28.09z" stroke-width=".662"/><path d="M543.283 251.521c19.224-12.593 15.926-23.123 15.854-33.949-12.189 8.182-16.46 19.959-15.854 33.95z" stroke-width=".644"/><path d="M542.306 222.027c16.515-15.651 11.45-25.331 9.476-35.866-10.437 10.116-12.528 22.341-9.476 35.866z" stroke-width=".638"/><path d="M535.907 195.41c15.217-22.052 7.025-31.97 2.186-43.628-9.562 14.196-8.994 28.79-2.186 43.628z" stroke-width=".751"/><path d="M519.386 165.912c11.713-18.847 4.542-26.727.076-36.179-7.347 12.123-6.298 24.174-.076 36.18z" stroke-width=".622"/><path d="M519.142 356.321c-20.766 16.55-31.131 9.126-42.987 5.136 13.384-10.422 27.851-10.856 42.987-5.136z" stroke-width=".744"/><path d="M509.354 327.544c-13.15-16.19-7.394-24.386-4.347-33.727 8.284 10.436 8.73 21.797 4.347 33.727z" stroke-width=".585"/><path d="M540.489 328.48c-16.787 21.455-28.897 16.512-41.677 15.35 10.877-13.583 25.212-17.458 41.677-15.35z" stroke-width=".764"/><path d="M523.67 306.132c-15.199-14.284-10.592-23.176-8.823-32.841 9.606 9.233 11.57 20.432 8.823 32.841z" stroke-width=".585"/><path d="M468.63 362.72c15.32-13.262 11.202-22.076 9.868-31.528-9.691 8.581-12.041 19.374-9.868 31.528z" stroke-width=".568"/><path d="M491.625 345.515c12.096-16.992 5.832-24.806 2.199-33.935-7.605 10.941-7.33 22.307-2.199 33.935z" stroke-width=".585"/><path d="M516.923 323.134c24.565.838 28.171-10.4 34.78-19.907-15.698-.359-26.689 7.303-34.78 19.907z" stroke-width=".689"/><path d="M455.954 374.544c19.199 14.76 27.995 7.026 38.282 2.514-12.361-9.278-25.18-8.878-38.282-2.514z" stroke-width=".688"/><path d="M529.159 302.1c24.263-4.312 25.451-16.085 29.945-26.788-15.468 2.928-24.645 12.737-29.945 26.787z" stroke-width=".691"/><path d="M428.97 382.075c14.924 16.832 24.654 12.143 35.129 10.538-9.654-10.644-21.665-13.11-35.129-10.538z" stroke-width=".631"/><path d="M444.201 373.709c18.038-10.473 15.565-20.177 16.03-29.992-11.448 6.82-15.895 17.283-16.03 29.992zm-25.146 6.276c19.783-6.607 19.324-16.611 21.764-26.129-12.59 4.363-19.062 13.71-21.764 26.13z" stroke-width=".585"/></g><path d="M413.952 104.48a17.428 17.428 0 0 1-34.857 0 17.428 17.428 0 1 1 34.857 0z" fill="#fff"/><path d="M409.28 102.145a15.092 15.092 0 0 1-30.185 0 15.092 15.092 0 1 1 30.185 0z" fill="#004614"/><path d="M390.142 88.484l-.464 5.18 4.175 2.41-5.07 1.159-1.002 4.715-2.668-4.463-4.795.504 3.42-3.917-1.96-4.404 4.782 2.042z" fill="#fff"/><path d="M512.116 241.931a115.593 115.593 0 1 1-231.185 0 115.593 115.593 0 1 1 231.185 0z" fill="none" stroke="#fff" stroke-width="1.747"/><path d="M284.605 265.369c2.2-1.794 5.476-1.567 7.148-3.238 19.948-19.934 31.243 2.43 40.534-10.953 3.442-1.737 8.154-2.936 8.456-6.156.214-5.437 3.714-7.086 4.514-10.9 1.092-5.203 3.671-8.013 7.24-7.72 3.527-.091 6.203.964 10.236-1.624 2.714-1.742 5.31-.376 8.444-.586 1.103-4.672 3.93-6.088 7.432-6.227 5.057.817 8.597-.69 9.642-6.026-.051-3.902.589-5.732 1.607-6.427 2.349.29 3.54-1.903 4.017-5.625 6.189-1.362 9.384-7.215 14.06-10.846 4.13-1.947 8.061 1.72 12.956-1.205 18.021-2.349 27.595 5.951 31.325 12.866 3.023 5.605 11.45 2.314 16.38 12.04 8.136 9.953 11.043 10.251 16.07 14.463 1.891 3.418 3.789 6.83 8.034 7.633 3.64 4.663 7.783 8.822 10.445 14.462 3.08 2.822 6.16 2.54 9.24 2.812" fill="none" stroke="#fff" stroke-width="1.136" stroke-linejoin="round"/><path d="M322.458 255.689c1.264-2.516 2.137-3.714 5.534-8.096 2.075-.128 4.15-2.878 6.226-5.022 1.796-2.68 4.845-4.418 4.72-8.537 1.292-1.045 1.978-2.015 3.266-3.072 1.105-.906 2.837-1.797 3.664-3.757-.385-1.222.83-2.977 2.01-4.72 3.65-1.36 4.542-2.434 5.724-6.026 5.063-3.491 14.69-8.576 17.174-17.375 2.337-1.837 4.532-2.442 5.758-5.382.553-1.326 2.922-1.428 4.586-2.954 3.774-.286 5.855-2.637 7.332-5.725 3-3.117 6.242-4.46 10.043-1.707.956 2.08 2.091 2.903 3.314 3.114 1.215 2.917 2.603 1.886 5.1 3.778" fill="none" stroke="#fff" stroke-width=".852" stroke-linejoin="round"/><path d="M398.997 144.047c.531-2.148 2.082-3.568 3.515-5.072 1.055-2.544 1.647-11.04 3.465-5.071 1.298-3.84 2.093.765 1.958 1.104 1.89-4.034 1.811.581 1.758.754 2.096-2.966 2.068.484 1.506 1.155l-6.327 11.399-8.637 4.52c.09-.662-1.802-2.06-1.45-2.652 4.234.501 4.29-4.195 4.212-6.137z" fill="#fff" stroke="#004614" stroke-linejoin="round" stroke-width=".568"/><path d="M404.596 144.725c.366-.544-.266-2.267.387-2.591 1.655-.82 2.367-3.394 5.332-5.207 2.25-1.495 3.66-2.118.935 1.747 2.26-1.277 5.7-3.281 1.255 1.557 3.721-1.68 3.596-.856.603 1.757 2.798-.622 3.98-.76 1.155 2.41 2.933-1.239 3.227.64.351 2.11 3.944-.62 1.288 1.727 0 2.712 3.025 0 2.337 1.823-1.908 3.063 4.243-.091 4.16 1.051-1.256 1.958 5.9 1.31.83 1.767-2.058 2.059 5.36.767 4.095 2.275-1.105 1.657l2.26 1.055c3.99 3.83 8.713 3.69 13.43 3.575 9.396-.335 9.967 2.135.73 2.049 6.193-.616 12.434 2.217.053 1.984 5.528-.802 10.723 4.053-.856 1.631 7.592 2.034 5.913 4.11-1.406 1.105 4.27 1.817 5.32 5.393-1.306 1.105 1.136 1.107 5.971 6.207-2.492 1.028.772.688 4.044 4.731-1.224 1.181-4.845-2.133-8.25-5.09-10.445-8.737-7.434-2.35-13.498 2.364-19.66-11.697-.418-2.15-2.139-1.348-3.315-1.607-6.35 1.283-1.784-1.288-1.022-1.494.548-4.132 3.303-3.518 5.342-2.276 2.399 1.467 3.621 3.606 7.548 3.32 1.541 2.472 6.147-1.696 8.672-5.454z" fill="#fff" stroke="#004614" stroke-linecap="round" stroke-linejoin="round" stroke-width=".568"/><path d="M307.68 118.103c-8.422-4.809-.112-8.545 5.392-12.904" fill="none" stroke="#004614" stroke-width="3" stroke-linecap="round" filter="url(#a)" transform="translate(228.162 88.449) scale(.56813)"/><path d="M321.83 135.365c1.193.195 2.573-.688 3.616-1.14.754-.326 2.65-.476 3.552-.742" fill="none" stroke="#004614" stroke-linecap="round" filter="url(#b)" transform="translate(228.162 88.449) scale(.56813)"/><path d="M386.642 148.165a.852.852 0 1 1-1.704 0 .852.852 0 1 1 1.704 0z" fill="#004614"/><path d="M401.666 163.423c.044.844.086 1.695 1.262 1.705 1.09.01.737-.833-.046-.907m2.687-.293c-.014.617.306.767.9.724.354-.026 1-.208.35-.687" fill="none" stroke="#fff" stroke-width="1.136" stroke-linecap="round"/><g fill="#004614" stroke="#fff"><path d="M429.175 300.084v-25.149H422.5v5.085h-4.62v-5.085h-7.28v5.085h-4.57v-5.085h-7.432v5.085h-4.52v-5.085h-7.382v5.085h-4.57v-5.085h-7.33v5.085h-4.57v-5.085h-6.478l1.255 25.149c20.912-5.028 42.521-4.68 64.172 0z" stroke-width=".568"/><path d="M423.961 296.999v2.095m-8.379-2.166v.852m-42.646-.817v1.456m37.213-1.42h19.032m-64.518 0h18.802m44.757-4.229v4.155m-8.379-4.225v4.225m-8.558-4.065v4.065m-8.522-4.083v3.728m-38.171-3.8h37m-7.457.09v3.64m-8.38-3.676v4.101m-8.558-4.19v4.19m-8.522-4.101v4.101m29.508-4.155h31.034m-5.256-4.227v4.154m-8.379-4.225v4.225m-8.558-4.19v4.19m-8.522-4.146v4.146m-8.628-4.154v4.154m-8.38-4.225v4.225m-8.558-4.19v4.19m20.986-4.154h35.33m-64.695 0h32.773m31.105-4.229v4.155m-8.379-4.113v4.113m-8.558-4.19v4.19m-8.522-4.146v4.146m-38.668-4.155h37.496m-7.456 0v4.155m-8.38-4.125v4.125m-8.558-4.19v4.19m-8.521-4.133v4.133m29.507-4.155h30.75m-5.114-4.102v4.029m-8.379-4.012v4.012m-8.558-4.04v4.04m-8.522-4.071v4.07m-8.628-4.028v4.029m-8.38-3.977v3.977m-8.558-3.964v3.964m-8.521-4.008v4.008m29.507-4.048h35.153m-65.016 0h33.271" stroke-width=".284"/></g><g fill="#004614" stroke="#fff"><path d="M331.352 330.88h38.064l-4.788-63.86h-7.333v2.948h-3.923v-2.947h-7.528v2.947h-3.924v-2.947h-7.243z" stroke-width=".568"/><g stroke-width=".5"><path d="M348.676 325.718h20.429m-7.327-.036v4.19m-8.522-4.296v4.296m-21.754-4.154h20.583m-7.457 0v4.154m-8.38-4.225v4.225m29.827-8.454v4.226m-8.558-4.19v4.19m-8.522-4.297v4.297m-17.28-4.154h16.109m-7.457 0v4.154m-8.38-4.226v4.226m12.428-4.154h24.3m-7.079-4.264v4.19m-8.522-4.296v4.296m-21.186-4.155h20.015m-7.457 0v4.155m-8.38-4.226v4.226m12.428-4.155h19.825m-2.355-4.37v4.226m-8.558-4.19v4.19m-8.522-4.297v4.297m-16.784-4.155h15.613m-7.457 0v4.155m4.048-4.155h23.625m-6.404-4.192v4.19m-8.522-4.297v4.296m-20.689-4.154h19.518m-7.457 0v4.154m-8.38-4.225v4.225m12.428-4.154h19.328m-1.929-4.299v4.225m-8.558-4.19v4.19m-8.522-4.296v4.296m-16.108-4.154h14.937m-7.457 0v4.154m4.048-4.154h23.305m-5.622-4.299v4.225m-8.558-4.19v4.19m-8.521-4.296v4.296m-12.096-4.154h10.924m-7.457 0v4.154m4.048-4.154h26.785m-1.29-4.299v4.225m-8.558-4.19v4.19m-8.522-4.297v4.297m-15.434-4.155h14.263m-7.457 0v4.155m4.048-4.155h22.808m-5.161-4.263v4.19m-8.522-4.297v4.297m-19.872-4.155h18.7m-7.456 0v4.155m-8.38-4.226v4.226m12.428-4.155h17.979m-9.209-4.264v4.19m-8.522-4.296v4.296m-15.327-4.154h14.156m-7.457 0v4.154m4.048-4.154H366.3m-.438-.107v4.226m-8.487-4.155v4.19m-8.522-4.296v4.296m-8.628-4.154v4.154m21.411-8.418v4.19m-8.522-4.296v4.296m-19.269-4.154h18.098m-7.457 0v4.154m-8.38-4.225v4.225m12.428-4.154h17.375m-8.534-4.264v4.19m-8.522-4.296v4.296m-14.795-4.154h13.624m-7.457 0v4.154m4.048-4.154h21.174m-16.7-4.228h16.422m-3.319-.036v4.19m-8.523-4.297v4.297m-19.02-4.154h17.849m-7.457 0v4.154m-8.379-4.226v4.226m21.126-8.732v4.504m-8.522-4.473v4.473m-8.628-4.444v4.444m-5.905-4.551h13.197m-3.693 0h21.02" stroke-width=".284"/><path d="M331.363 330.12h37.88" stroke-width="1.136"/></g></g><g fill="#004614" stroke="#fff"><path d="M461.695 330.88H423.63l4.788-63.86h7.333v2.948h3.923v-2.947h7.528v2.947h3.924v-2.947h7.243z" stroke-width=".568"/><g stroke-width=".5"><path d="M444.371 325.718h-20.429m7.327-.036v4.19m8.521-4.296v4.296m21.755-4.154h-20.583m7.457 0v4.154m8.38-4.225v4.225m-29.827-8.454v4.226m8.558-4.19v4.19m8.522-4.297v4.297m17.28-4.154h-16.109m7.457 0v4.154m8.38-4.226v4.226m-12.428-4.154h-24.3m7.078-4.264v4.19m8.523-4.296v4.296m21.187-4.155h-20.016m7.457 0v4.155m8.38-4.226v4.226m-12.428-4.155h-19.825m2.355-4.37v4.226m8.557-4.19v4.19m8.523-4.297v4.297m16.783-4.155h-15.612m7.457 0v4.155m-4.048-4.155h-23.625m6.404-4.192v4.19m8.522-4.297v4.296m20.689-4.154h-19.518m7.457 0v4.154m8.38-4.225v4.225m-12.428-4.154h-19.328m1.929-4.299v4.225m8.558-4.19v4.19m8.522-4.296v4.296m16.108-4.154h-14.937m7.457 0v4.154m-4.048-4.154H425.54m5.622-4.299v4.225m8.558-4.19v4.19m8.522-4.296v4.296m12.096-4.154h-10.925m7.457 0v4.154m-4.048-4.154h-26.785m1.29-4.299v4.225m8.558-4.19v4.19m8.522-4.297v4.297m15.433-4.155h-14.262m7.457 0v4.155m-4.048-4.155H426.18m5.16-4.263v4.19m8.522-4.297v4.297m19.872-4.155h-18.7m7.456 0v4.155m8.38-4.226v4.226m-12.428-4.155h-17.979m9.209-4.264v4.19m8.522-4.296v4.296m15.327-4.154h-14.156m7.457 0v4.154m-4.048-4.154h-22.027m.438-.107v4.226m8.487-4.155v4.19m8.522-4.296v4.296m8.628-4.154v4.154M431.41 283.4v4.19m8.523-4.296v4.296m19.269-4.154h-18.098m7.457 0v4.154m8.38-4.225v4.225m-12.428-4.154h-17.375m8.534-4.264v4.19m8.522-4.296v4.296m14.795-4.154h-13.624m7.457 0v4.154m-4.048-4.154H427.6m16.7-4.228h-16.422m3.32-.036v4.19m8.522-4.297v4.297m19.02-4.154h-17.849m7.457 0v4.154m8.38-4.226v4.226m-21.128-8.732v4.504m8.523-4.473v4.473m8.628-4.444v4.444m5.905-4.551h-13.197m3.693 0h-21.02" stroke-width=".284"/><path d="M461.684 330.12h-37.88" stroke-width="1.136"/></g></g><path d="M265.797 408.412c-1.58-1.21-5.3-2.082-1.988-5.824l9.516-11.646c3.311-3.54 6.248-2.806 9.09-.995l13.35 8.664-11.042 16.015-10.162-6.256-5.817-3.58zm18.926 6.178l-20.488-12.64m263.015 3.455c1.58-1.21 5.3-2.082 1.988-5.824l-9.516-11.646c-3.311-3.54-6.248-2.806-9.09-.995l-13.35 8.664 11.042 16.015 15.979-9.836zm-18.926 6.178l20.488-12.64" stroke-width=".568" fill="#fff" stroke="#004614"/><path d="M507.314 408.111l-15.87-22.023s-.186-.3-.458-.144c-61.109 35.086-124.337 37.786-190.187 2.776-.24-.128-.522.165-.522.165l-14.586 22.618c-.025.007-.076.504.115.543 76.742 40.981 150.41 37.767 221.596-3.372.157-.18.07-.37-.088-.563z" fill="#fff" stroke="#004614" stroke-width=".659"/><path d="M490.288 389.04c-63.345 39.134-134.083 32.012-188.631 3.119-.096-.076-.448.061-.448.1l-11.697 18.13c.028.02-.496.55.162.84 74.003 38.242 145.15 35.373 213.972-2.962.587-.339.198-.75.203-.755l-12.931-18.42c.002-.008-.488-.151-.63-.051z" fill="#004614"/><path d="M381.289 218.034c.82 1.454-.132 3.411 5.6 2.656 2.639.24 5.433-.074 7.233 1.34 1.983.782 2.36 2.467 3.303 3.561.625.726 1.335.834 2.194 2.401 1.262.24 1.92 2.223 2.549 3.156l2.242 2.192c.022 1.925 1.28 3.54 2.244 5.825.77 1.403 1.104 3.078 1.496 4.027 1.04.516 1.551 1.405 2.513 2.006" fill="none" stroke="#fff" stroke-width=".481" stroke-linejoin="round"/><path d="M460.462 205.684c.2 4.27-.174 9.048 1.386 12.111.866 4.326 2.02 10.439 2.048 13.527.75 2.793.907 5.634 3.497 8.274 1.332 3.024 2.388 6.118 2.08 10.035.757 2.734.445 5.231 2.506 8.254 1.388 1.618 2.644 3.3 3.385 5.242.388 1.406.853 2.765 1.204 4.173.633 2.538 1.34 4.313 2.608 6.035" fill="none" stroke="#fff" stroke-width=".485" stroke-linejoin="round"/><g fill="#fff"><path d="M311.808 415.688c1.82-4.269 3.692-8.607 5.102-12.33 1.293-.85 1.723-.504 2.764-.85-1.387 4.828-3.118 7.936-4.677 11.905-1.063 1.22-2.126 1.614-3.189 1.275zm10.949.426c-2.928 1.84-4.233-.016-5.422-1.701-2.33 1.121.973 9.52 7.202 2.418 4.738 1.925 9.123 4.262 14.244 5.74 2.221.525 2.939-.148 2.896-1.887l-.026-5.062-2.684 2.06c-.006.689 1.596 2.645-.85 1.594l-3.668-1.568c-.874-3.012-3.887-10.153-6.962-3.933 2.826.036 3.215 1.169 3.454 2.551l-5.102-2.126c-.22-6.57-1.575-7.4-3.926-3.181-.888 1.52-.938 4.28.844 5.095z"/><path d="M322.996 412.287c.285.457.602.897 1.215 1.216.862-2.506-1.222-3.485-1.215-1.216zm23.358 12.33c-2.092 2.429-3.896.69-5.713-.877 1.369 9.389 4.939 4.471 8.211 1.489l3.117.77c.335-.155.637-.207.9-.144.257.061.478.233.657.528l17.808 4.4c.424.122 2.243-.032 2.153-1.781v-4.783c-.182-3.157-2.01-.805-2.312-.266l-.93 1.674c.753.874 1.258 2.173.132 2.1-2.064-.451-4.294-.738-5.687-1.86-2.409-1.3-3.015-8.438-7.812-2.95 2.62-.19 3.387.847 4.305 2.152-2.403.043-4.546-.696-6.67-1.488l-.771-4.279-2.232 1.86c.356.873 1.208 1.97.106 2.18l-2.338-.904c-.443-6.59-3.374-5.512-4.518-2.073-.16.703-.216 2.933 1.594 4.252zm15.307-5.049l-1.834-1.754 1.675-1.754 1.86 1.807z"/><path d="M347.824 421.94c-.224-3.919-1.883-1.052-1.542-.771zm31.816 8.736c1.373-1.132 3.387 2.497 7.282.904 1.689-1.987-.1-3.454-1.276-4.73.252-1.092.92-2.044 1.807-2.924l2.445 3.987c1.081.565 2.162.669 3.242.637.81.005 1.06-.96.213-1.488-1.468-1.272.72-3.06 1.116-3.508 1.074 1.319 2.054 2.69 2.498 4.359.606.494 2.726.42 4.429.327 1.098.013.941-.68.26-1.256-.489-.535-.822-.84 1.317-3.536 1.057 1.304 1.908 2.845 2.391 4.518 3.213.3 9.036.317 9.94 0-3.78-3.389-4.109-.526-6.06-1.435 4.427-7.009 8.601.5 10.577 1.063h1.594c.413 1.007.713 2.06.425 3.348-5.775.106-12.531.409-17.326.319-.71-.675-1.302-.362-1.648.106-2.722-.02-6.003.318-6.856-.16-.418-.229-.96-.853-1.435.054-1.826.039-3.884.737-5.049-.797-1.92 10.366-12.003 1.312-9.885.212zm48.988-4.969c-3.475 4.595.413 7.182 4.73 6.032 5.223-1.013 8.464-3.708 12.508-5.768 1.961-.45 3.621-1.215 4.34-2.682.777.2 4.566 1.333 4.783-1.807.218-2.499-.953-3.802-3.18-3.911-2.015.056-3.189 1.735-2.932 4.336l-2.923 1.435c-.848-2.062-2.208-2.588-3.614-2.977l-.425 2.817c1.211.353 2.014.808.425 1.86-4.045 1.342-8.327 4.633-12.756 3.88-.86-.89-.662-2.135-.956-3.215z"/><path d="M451.083 421.614c.58.744 2.666-.265 1.833-1.474-.948-1.055-2.583.031-1.833 1.474zm4.835 1.571c.665-1.289 4.526 1.564 5.502-3.71-2.135.409-2.947-1.723-3.149-2.936-.237-1.726.06-3.005 1.98-3.508.738-.26 2.517.772 2.498 2.71 1.354-.191 2.794-.24 3.808-.998 1.059-.783.458-1.13-.325-1.737-1.095-.85-2.664-1.416-3.821-2.313-1.56-1.735-.084-3.29.134-3.74 1.381-1.682 2.637-3.155 3.828-5.161.868.175 1.013.599.975 3.045-.489.405-1.443 1.67-2.578 2.935-.325.558-.61.977.374 1.714 1.533 1.048 3.296 1.98 5.08 2.888 2.02.136 4.058-1.152 6.078-1.947-.562-2.16-3.475-.555-4.677.053.098-1.58.347-2.842 2.63-3.667 1.485-.453 4.39.152 5.619 1.916.685-.352 1.313-.68 1.697-.515.094.04.87.764.662 1.892-3.418 1.738-7.252 3.43-10.236 4.52-1.217.399-2.002.716-1.807.903-2.023 1.386-4.527 1.928-6.803 2.87 1.052 6.475-5.638 9.14-7.47 4.786z"/><path d="M459.533 416.499c-.28-1.242 1.399-2.287 2.206-.598.428 1.39-1.782 1.444-2.206.598zm-93.813 17.275l-1.834-1.754 1.674-1.754 1.86 1.807zm3.908.526l-1.833-1.754 1.674-1.754 1.86 1.807zm-1.954 2.105l-1.834-1.754 1.675-1.754 1.86 1.807zm-12.251-17.513l-1.834-1.754 1.674-1.754 1.86 1.807zm-14.281-5.262l-1.834-1.754 1.674-1.753 1.86 1.807zm11.349 4.06l-1.833-1.755 1.674-1.754 1.86 1.807zm-20.519-7.667l-1.834-1.754 1.674-1.754 1.86 1.807zm81.881 12.097l-1.834-1.755 1.674-1.753 1.86 1.807zm-18.921 15.093l-1.834-1.753 1.674-1.754 1.86 1.807zm6.909.319l-1.834-1.754 1.675-1.753 1.86 1.807zm3.614-.212l-1.833-1.754 1.674-1.754 1.86 1.807zm30.32-11.762l-2.378-.885.843-2.273 2.423.922z"/><path d="M438.542 424.174l-2.41-.791.753-2.305 2.458.828z"/></g></svg>