<?xml version="1.0" encoding="UTF-8" standalone="no"?>
<!-- Created with Inkscape (http://www.inkscape.org/) -->

<svg
   xmlns:dc="http://purl.org/dc/elements/1.1/"
   xmlns:cc="http://creativecommons.org/ns#"
   xmlns:rdf="http://www.w3.org/1999/02/22-rdf-syntax-ns#"
   xmlns:svg="http://www.w3.org/2000/svg"
   xmlns="http://www.w3.org/2000/svg"
   xmlns:sodipodi="http://sodipodi.sourceforge.net/DTD/sodipodi-0.dtd"
   xmlns:inkscape="http://www.inkscape.org/namespaces/inkscape"
   id="svg2211"
   sodipodi:version="0.32"
   inkscape:version="0.91 r"
   width="360"
   height="219"
   version="1.0"
   sodipodi:docname="Flag_of_Baton_Rouge.svg"
   inkscape:output_extension="org.inkscape.output.svg.inkscape">
  <metadata
     id="metadata2216">
    <rdf:RDF>
      <cc:Work
         rdf:about="">
        <dc:format>image/svg+xml</dc:format>
        <dc:type
           rdf:resource="http://purl.org/dc/dcmitype/StillImage" />
        <dc:title></dc:title>
      </cc:Work>
    </rdf:RDF>
  </metadata>
  <defs
     id="defs2214">
    <clipPath
       clipPathUnits="userSpaceOnUse"
       id="clipPath7171">
      <path
         inkscape:connector-curvature="0"
         style="fill:#00247d"
         d="m 14.046485,5.1725904 c 9.63e-4,0.568879 0.01217,-0.2716431 0.01557,0.297198 0.01814,0.510513 0.409837,0.9765608 0.909375,1.084374 0.462137,0.112462 0.978998,-0.0905 1.239845,-0.4890615 0.156221,-0.2229 0.214444,-0.4978933 0.201562,-0.7664062 l -0.01397,-0.1261043 -2.352344,0 z"
         id="path7173"
         sodipodi:nodetypes="cccccccc" />
    </clipPath>
    <clipPath
       clipPathUnits="userSpaceOnUse"
       id="clipPath7175">
      <path
         inkscape:connector-curvature="0"
         style="fill:#00247d"
         d="m 14.046485,5.1725904 c 9.63e-4,0.568879 0.01217,-0.2716431 0.01557,0.297198 0.01814,0.510513 0.409837,0.9765608 0.909375,1.084374 0.462137,0.112462 0.978998,-0.0905 1.239845,-0.4890615 0.156221,-0.2229 0.214444,-0.4978933 0.201562,-0.7664062 l -0.01397,-0.1261043 -2.352344,0 z"
         id="path7177"
         sodipodi:nodetypes="cccccccc" />
    </clipPath>
    <clipPath
       clipPathUnits="userSpaceOnUse"
       id="clipPath7179">
      <path
         inkscape:connector-curvature="0"
         style="fill:#00247d"
         d="m 14.046485,5.1725904 c 9.63e-4,0.568879 0.01217,-0.2716431 0.01557,0.297198 0.01814,0.510513 0.409837,0.9765608 0.909375,1.084374 0.462137,0.112462 0.978998,-0.0905 1.239845,-0.4890615 0.156221,-0.2229 0.214444,-0.4978933 0.201562,-0.7664062 l -0.01397,-0.1261043 -2.352344,0 z"
         id="path7181"
         sodipodi:nodetypes="cccccccc" />
    </clipPath>
    <clipPath
       clipPathUnits="userSpaceOnUse"
       id="clipPath7183">
      <path
         inkscape:connector-curvature="0"
         style="fill:#00247d"
         d="m -14.050223,-5.1624289 c -0.0014,-0.5688782 -0.01197,0.2716518 -0.01578,-0.2971867 -0.01851,-0.5104997 -0.410543,-0.9762641 -0.910159,-1.0837159 -0.462218,-0.1121277 -0.978932,0.091208 -1.239491,0.4899582 -0.156059,0.2230129 -0.214084,0.4980483 -0.201007,0.7665518 l 0.01406,0.1260941 2.352343,-0.0017 z"
         id="path7185"
         sodipodi:nodetypes="cccccccc" />
    </clipPath>
  </defs>
  <sodipodi:namedview
     inkscape:window-height="1003"
     inkscape:window-width="1920"
     inkscape:pageshadow="2"
     inkscape:pageopacity="0.0"
     guidetolerance="10.0"
     gridtolerance="10.0"
     objecttolerance="10.0"
     borderopacity="1.0"
     bordercolor="#666666"
     pagecolor="#ffffff"
     id="base"
     showguides="true"
     inkscape:guide-bbox="true"
     width="360px"
     height="219px"
     inkscape:zoom="2.6927637"
     inkscape:cx="189.31348"
     inkscape:cy="110.24091"
     inkscape:window-x="0"
     inkscape:window-y="25"
     inkscape:current-layer="layer3"
     showgrid="false"
     inkscape:window-maximized="1" />
  <g
     inkscape:groupmode="layer"
     id="layer2"
     inkscape:label="Background"
     style="display:inline"
     sodipodi:insensitive="true">
    <path
       style="fill:#cc0000;fill-opacity:1;stroke:#000000;stroke-width:0;stroke-linecap:square;stroke-linejoin:miter;stroke-miterlimit:4;stroke-opacity:1;stroke-dasharray:none"
       d="m -0.45872251,-0.48289282 364.58183251,0 0,228.96578282 -364.58183251,0 z"
       id="rect2223"
       inkscape:connector-curvature="0"
       sodipodi:nodetypes="ccccc" />
  </g>
  <g
     inkscape:groupmode="layer"
     id="layer1"
     inkscape:label="Script"
     style="display:inline"
     sodipodi:insensitive="true">
    <path
       style="fill:#ffffff;fill-opacity:1"
       d="m 264.82485,187.84701 c -7.76505,-5.43885 0.0455,-18.55067 14.90714,-25.0251 5.30933,-2.313 6.55393,-3.34786 7.94562,-6.60664 l 1.65018,-3.86404 -3.28793,3.48623 c -2.56973,2.7247 -4.07277,3.48622 -6.8809,3.48622 -4.4067,0 -7.67088,-3.12067 -7.67088,-7.33362 l 0,-2.95649 -5.44014,5.14505 c -5.75212,5.44011 -10.03632,6.68574 -12.55537,3.65047 -1.27318,-1.53408 -1.62007,-8.70037 -0.50824,-10.49935 0.34198,-0.55333 0.41714,-1.00606 0.16701,-1.00606 -0.25012,0 -1.90715,2.26333 -3.68227,5.02963 -3.80001,5.9218 -6.4135,7.97037 -10.16831,7.97037 -4.75744,0 -6.29518,-6.42966 -3.2962,-13.78212 1.47406,-3.61387 1.37556,-3.55899 -3.52085,1.96145 -3.23161,3.64348 -6.3741,6.11288 -8.76648,6.8888 -2.05103,0.66522 -4.92362,2.04702 -6.38352,3.07068 -1.53006,1.07284 -4.37266,1.86119 -6.71105,1.86119 -4.79354,0 -7.78566,-2.6232 -8.72925,-7.65293 l -0.61955,-3.30251 -5.17996,5.47772 c -5.81325,6.14742 -9.75898,7.17594 -13.15083,3.42798 -2.68427,-2.96608 -2.29698,-7.51255 1.46998,-17.25618 3.47703,-8.99372 3.5016,-11.69408 0.10641,-11.69408 -1.16548,0 -2.03138,-0.65871 -2.03138,-1.54531 0,-1.22485 0.72675,-1.40898 3.50441,-0.88788 4.72748,0.88688 7.61559,-1.15988 10.87983,-7.71036 4.10602,-8.23971 3.10331,-19.13199 -1.59525,-17.32898 -3.17815,1.21957 -8.67327,11.05544 -12.83436,22.97253 -9.58901,27.46237 -16.75766,35 -33.28666,35 -7.58156,0 -7.92534,-0.10444 -10.75,-3.26578 -3.6126,-4.0432 -3.96047,-9.63918 -0.84539,-13.59936 3.65728,-4.64948 9.92742,-3.10668 9.92742,2.4427 0,2.88942 -1.39566,4.49858 -4.39282,5.06483 -1.04105,0.19669 -2.39105,1.1733 -3,2.17026 -1.68232,2.75425 2.42361,5.68735 7.9615,5.68735 6.50405,0 11.07135,-4.84477 17.50948,-18.57325 2.81833,-6.00971 6.23016,-13.2757 7.58185,-16.14664 3.50047,-7.43486 10.6942,-16.85288 15.3124,-20.047 2.17343,-1.50322 3.96877,-3.01311 3.98964,-3.35531 0.083,-1.36104 -8.38301,-1.84987 -14.73511,-0.85082 -8.03866,1.26431 -17.36926,5.40587 -22.69964,10.07567 -8.96241,7.85168 -12.29089,18.04047 -7.0214,21.49317 2.12387,1.39162 2.96848,1.45033 5.54016,0.3851 6.11473,-2.5328 13.95394,-15.18348 13.95394,-22.51842 0,-1.35438 0.45,-2.4625 1,-2.4625 0.56868,0 1,2.93456 1,6.80366 0,11.91609 -6.31617,20.62429 -15.89049,21.90848 -3.50492,0.47011 -4.39888,0.15233 -7.06124,-2.51002 -2.41042,-2.41043 -3.04827,-3.9097 -3.04827,-7.16503 0,-16.34867 25.97036,-31.86464 47.03392,-28.10037 3.64763,0.65186 7.78312,0.89631 9.18997,0.54321 1.45385,-0.36489 2.8463,-0.17539 3.22603,0.43903 0.36967,0.59813 -0.0283,1.08103 -0.8909,1.08103 -2.17356,0 -2.02097,0.33805 1.94098,4.3 2.92927,2.92928 3.49939,4.20936 3.49626,7.85001 -0.005,5.48265 -2.70413,10.00923 -7.94015,13.31458 -2.209,1.39448 -4.22101,2.53542 -4.47114,2.53542 -0.25012,0 -1.66846,0.46144 -3.15185,1.02543 -2.49432,0.94834 -2.57797,1.15703 -1.11271,2.77612 2.5306,2.79628 3.00643,9.01427 1.26347,16.5105 -0.87113,3.74663 -1.58388,7.30388 -1.58388,7.90499 0,1.77442 3.78306,-2.11059 11.64924,-11.96319 8.17211,-10.23578 13.20429,-14.15626 19.20324,-14.96089 3.36222,-0.45097 4.40377,-0.12762 6.5715,2.04011 3.66342,3.66342 3.50181,9.36481 -0.46468,16.39304 -2.34134,4.14863 -2.62884,5.16584 -1.25,4.42268 2.35273,-1.26807 5.43511,-4.71089 8.63863,-9.64879 5.24522,-8.08499 9.84595,-12.20122 14.40207,-12.88541 2.65037,-0.39801 4.25,-0.25252 4.25,0.38655 0,0.56363 -2.7,6.71169 -6,13.66235 -3.3,6.95066 -6,12.79483 -6,12.98704 0,0.19221 0.5625,0.34286 1.25,0.33479 1.64771,-0.0194 8.62898,-9.57221 13.97493,-19.12264 l 4.27507,-7.63731 5,-0.50314 c 2.75,-0.27673 5.14062,-0.37432 5.31249,-0.21687 0.17186,0.15746 -2.48875,6.41004 -5.91249,13.89464 -3.42374,7.4846 -5.91648,13.91685 -5.53944,14.29389 1.10582,1.10582 10.4696,-8.74211 13.62775,-14.33238 4.14414,-7.33558 13.49141,-14.36151 19.10649,-14.36151 1.10038,0 3.04987,1.13208 4.3322,2.51574 2.24233,2.4195 2.35167,2.43863 2.85863,0.5 0.35201,-1.34608 1.3616,-2.01574 3.03896,-2.01574 1.38151,0 3.22364,-0.27314 4.09362,-0.60699 2.47178,-0.94851 1.95101,1.0925 -3.06223,12.00146 -7.16782,15.59741 -7.78546,17.18962 -6.20484,15.99539 8.16808,-6.17139 10.5526,-8.55317 13.9524,-13.93638 7.86034,-12.44596 21.07559,-18.37294 23.97313,-10.75183 0.55326,1.45519 0.73209,3.8926 0.39739,5.41646 -0.78794,3.58748 -7.14425,9.3016 -12.09335,10.87154 -4.6489,1.47472 -6.38071,3.42929 -6.38071,7.20148 0,6.77779 8.83001,1.83884 23.36833,-13.07077 5.42759,-5.5662 10.36067,-10.12036 10.96241,-10.12036 0.60174,0 -1.13638,2.3625 -3.8625,5.25 -2.72611,2.8875 -7.4342,7.88846 -10.46241,11.11325 -8.5835,9.14072 -12.46228,11.63675 -18.08329,11.63675 -4.00933,0 -5.12179,-0.43784 -6.91965,-2.72346 -1.17825,-1.4979 -2.394,-3.98211 -2.70168,-5.52047 l -0.5594,-2.79702 -3.42719,3.52887 c -1.88496,1.94087 -5.09024,4.37728 -7.12284,5.41424 -3.04531,1.5536 -4.54205,3.55685 -8.50544,11.38372 -7.29281,14.4018 -13.51373,20.71412 -20.41417,20.71412 -1.55494,0 -3.77587,-0.6645 -4.9354,-1.47667 z m 11.08169,-6.91729 c 3.96037,-6.30072 8.84638,-16.67454 8.17148,-17.34943 -0.56485,-0.56486 -8.03729,3.78835 -11.11517,6.47536 -6.62659,5.78505 -9.59793,13.98047 -5.83274,16.08758 2.85794,1.59938 5.46912,0.0483 8.77643,-5.21351 z m -60.64097,-25.16274 c 1.22238,-0.85619 2.22251,-2.44084 2.22251,-3.52144 0,-1.09756 1.04795,-2.44221 2.37431,-3.04654 2.23217,-1.01705 5.55271,-6.47825 7.11235,-11.69749 1.04329,-3.49127 -0.20627,-7.17783 -2.43291,-7.17783 -5.45759,0 -17.00528,22.71513 -13.38708,26.33333 0.98036,0.98037 1.6463,0.83618 4.11082,-0.89003 z m 70.31573,-2.42063 c 4.81029,-5.05667 10.90678,-15.90064 10.90678,-19.40015 0,-4.55706 -2.88992,-4.50422 -7.00065,0.12799 -3.71595,4.18735 -11.99935,19.25517 -11.99935,21.82727 0,2.76603 4.33251,1.39822 8.09322,-2.55511 z m 38.91695,-9.27267 c 5.39218,-3.66989 8.86994,-9.77741 7.13705,-12.53387 -0.44391,-0.70613 -1.53739,-1.00364 -2.42995,-0.66113 -2.8419,1.09054 -11.0581,15.445 -8.8404,15.445 0.45505,0 2.31503,-1.0125 4.1333,-2.25 z M 50.516315,81.16997 c -3.15797,-1.20854 -3.99394,-2.57543 -4.01292,-6.56151 -0.01685,-3.53696 5.03815,-10.2848 7.70464,-10.2848 0.99592,0 0.25679,1.39023 -2.16335,4.06903 -3.98136,4.40689 -4.49606,8.32812 -1.35155,10.29665 5.20029,3.25548 15.91218,-18.18699 12.56522,-25.152324 -0.94753,-1.9719 -2.03249,-2.65242 -4.27027,-2.67845 -1.9845,-0.02308 -3,-0.54265 -3,-1.5349 0,-1.05278 0.84822,-1.40973 2.84502,-1.19725 4.12105,0.43853 7.48105,-2.23234 10.2266,-8.12913 2.43479,-5.22936 3.19694,-12.91242 1.54024,-15.52686 -2.51815,-3.9739 -9.2809,5.67611 -14.51408,20.71063 -4.53788,13.036994 -8.80856,21.331094 -13.73604,26.676774 -9.40304,10.20109 -24.648698,12.26147 -31.395809,4.24299 -2.2866193,-2.7175 -2.6054893,-3.84666 -2.1720993,-7.69166 0.84764,-7.52025 7.8001403,-10.92409 11.3249593,-5.54453 1.33325,2.03479 1.44172,3.03081 0.54449,5 -0.61622,1.35247 -1.94405,2.45903 -2.950719,2.45903 -1.00667,0 -2.64829,0.59813 -3.64805,1.32917 -1.49902,1.09611 -1.61616,1.70582 -0.66804,3.47739 2.40602,4.49569 12.001339,4.5111 16.787528,0.02696 1.36989,-1.28344 6.38077,-10.13499 11.13529,-19.670134 9.32451,-18.7002 16.51106,-28.74599 22.91439,-32.03109 l 3.72575,-1.91142 -3.97972,-1.10486 c -5.42923,-1.50727 -9.9862,-1.39557 -16.93816,0.41519 -12.81301,3.33736 -24.142939,12.06862 -26.689359,20.56778 -0.95657,3.19275 -0.87128,4.22294 0.52615,6.3557 2.24613,3.42802 6.039749,3.30022 11.874439,-0.40003 4.89885,-3.10676 10.72026,-11.6431 10.73783,-15.74563 0.0052,-1.20504 0.52464,-2.50942 1.15439,-2.89863 0.83515,-0.51615 1.0105,1.17215 0.64798,6.2388 -0.59684,8.34173 -4.06823,14.43027 -9.93346,17.42248 -7.75279,3.955184 -16.032989,0.85107 -17.417598,-6.52956 -2.68271,-14.30007 26.008258,-32.182641 44.134818,-27.50845 2.70779,0.69825 7.06076,1.23262 9.67326,1.1875 2.6125,-0.04512 4.75,0.33666 4.75,0.8484 0,0.51175 -0.675,0.93044 -1.5,0.93044 -2.04555,0 -1.90078,0.50832 0.95933,3.36843 6.86141,6.86141 3.06671,17.83235 -7.98134,23.07499 l -3.8288,1.81689 2.58725,1.3556 c 3.32306,1.74112 6.26225,9.140614 5.38101,13.546814 -2.13447,10.67234 -13.78038,19.672 -21.58922,16.68358 z m 45.09308,-0.47389 c -1.34472,-0.94188 -2.12131,-2.56333 -2.12131,-4.42912 l 0,-2.9433 -4,4 c -3.14286,3.14286 -4.75,4 -7.5,4 -5.16385,0 -7.5,-2.81579 -7.5,-9.03983 0,-6.27026 2.50782,-11.37935 8.03802,-16.375544 7.21072,-6.51445 13.39723,-8.14937 17.04271,-4.50389 1.798665,1.79869 2.239215,1.88156 3.249995,0.6114 0.6431,-0.80813 2.8959,-1.77219 5.00622,-2.14235 4.60026,-0.80691 4.72808,-1.63108 -2.45962,15.858574 -2.69167,6.54959 -4.6166,12.17459 -4.27759,12.5 0.7788,0.74755 13.37971,-12.99065 13.39152,-14.60016 0.005,-0.6555 2.14624,-3.65017 4.75874,-6.65483 2.71273,-3.119934 7.69293,-11.264354 11.61159,-18.989144 6.81002,-13.42448 6.89131,-13.53115 10.81738,-14.19445 2.17569,-0.36758 4.16983,-0.4543 4.43142,-0.19271 0.26159,0.2616 -0.66873,2.97744 -2.06738,6.03521 -1.39866,3.05777 -2.54301,5.81342 -2.54301,6.12366 0,0.31024 1.1625,0.56407 2.58333,0.56407 3.90788,0 2.39388,2.44581 -1.7331,2.79979 -3.45478,0.29631 -3.57524,0.46848 -10.4227,14.89658 -7.71103,16.247674 -10.69233,24.021934 -9.49567,24.761514 1.02732,0.63492 11.74155,-10.57787 15.81679,-16.55277 8.37303,-12.276094 20.88266,-16.720004 25.02118,-8.888504 1.82871,3.460544 0.75799,10.587414 -2.28042,15.178744 -1.36917,2.06897 -2.48941,4.092 -2.48941,4.49561 0,1.53081 10.20346,-9.32853 11.45466,-12.19097 1.54419,-3.53271 9.28004,-11.499994 11.16596,-11.499994 1.97287,0 3.37494,3.35826 3.41693,8.184254 l 0.0375,4.31574 3.21246,-3.72496 c 3.72301,-4.316984 9.51806,-8.775034 11.40673,-8.775034 2.71491,0 5.30572,3.92212 5.30572,8.032114 0,4.79076 -1.75159,9.29303 -6.04075,15.52711 -1.73362,2.51973 -2.94806,4.78529 -2.69877,5.03459 1.18799,1.18799 4.36759,-1.61877 13.2061,-11.65756 8.5409,-9.70075 13.53342,-14.261684 13.53342,-12.363464 0,0.35373 -2.20049,2.957064 -4.88999,5.785174 -2.68949,2.82812 -7.16717,7.908 -9.95039,11.28861 -6.31356,7.66873 -10.30146,10.58492 -13.90755,10.17005 -2.16123,-0.24865 -3.00478,-1.09085 -3.92917,-3.92291 -1.62047,-4.96461 -0.38836,-9.54598 4.56028,-16.95663 4.79552,-7.181344 5.0581,-8.323074 1.54617,-6.722934 -2.74924,1.25264 -12.1033,13.084414 -17.56964,22.223514 l -3.32697,5.56233 -5.26637,0 c -2.8965,0 -5.26637,-0.26994 -5.26637,-0.59988 0,-0.32993 2.53242,-5.0725 5.62761,-10.53905 3.09519,-5.46655 5.41843,-10.14835 5.16278,-10.40401 -0.25566,-0.25566 -3.44576,3.0963 -7.08911,7.44879 -4.82913,5.76909 -7.64442,8.25032 -10.38878,9.15603 -2.07048,0.68333 -5.12531,2.07226 -6.78851,3.08653 -3.69543,2.25358 -9.31139,2.38924 -12.29839,0.29706 -1.37505,-0.96312 -2.46103,-3.06557 -2.85452,-5.5263 l -0.63511,-3.97177 -5.86074,5.5902 c -4.9984,4.76767 -6.33735,5.54402 -9.09993,5.2763 -5.34304,-0.51777 -6.07235,-6.06706 -2.14402,-16.3139 0.4217,-1.1 -1.95959,1.15 -5.29176,5 -9.87399,11.40843 -13.333825,13.59315 -17.218205,10.87242 z m -4.83007,-8.09282 c 7.90442,-10.77877 10.682755,-19.293714 6.55078,-20.076644 -2.27039,-0.43019 -6.07894,3.880084 -11.30748,12.797044 -4.59693,7.83981 -6.16992,12.16293 -5.07193,13.9395 1.12148,1.81461 6.07587,-1.54249 9.82863,-6.6599 z m 58.444365,5.19304 c 1.19934,-0.84005 1.94099,-2.15183 1.64811,-2.91506 -0.30991,-0.80762 0.79338,-2.36374 2.63935,-3.72264 6.77518,-4.98748 10.43068,-18.834934 4.97211,-18.834934 -2.18616,0 -7.24255,5.604404 -10.0873,11.180564 -6.22226,12.19664 -5.8308,18.95588 0.82773,14.29207 z"
       id="path2220"
       inkscape:connector-curvature="0" />
  </g>
  <g
     inkscape:groupmode="layer"
     id="layer3"
     inkscape:label="Shield"
     style="display:inline">
    <path
       inkscape:connector-curvature="0"
       style="display:inline;fill:#000055;fill-opacity:1;stroke:none"
       d="m 28.369121,89.153138 c 0.0385,22.755142 -0.074,43.907192 0.0625,66.660732 0.72576,20.42051 16.3935,39.06246 36.37501,43.375 18.48547,4.49845 39.159839,-3.62017 49.593729,-19.5625 6.24883,-8.91599 8.57777,-19.9157 8.0625,-30.65625 l 0,-59.816982 z"
       id="rect6194-4"
       sodipodi:nodetypes="ccccccc" />
    <rect
       style="display:inline;fill:#000055;fill-opacity:1"
       y="-6.5720201"
       x="-16.431349"
       width="2.3570385"
       height="1.3737878"
       id="rect6180"
       transform="matrix(-39.99999,-0.0289329,0.0289329,-39.99999,-534.09137,-61.826813)"
       clip-path="url(#clipPath7183)" />
    <path
       transform="matrix(40,0,0,40,-534.09137,-61.826813)"
       style="display:inline;stroke:#ffffff;stroke-width:0.27877173"
       inkscape:connector-curvature="0"
       d="m 16.426594,6.5839049 -2.37106,-1.3792467 m 0.01402,1.3775413 2.358032,-1.3720819"
       id="path6182"
       clip-path="url(#clipPath7179)"
       sodipodi:nodetypes="cccc" />
    <path
       transform="matrix(40,0,0,40,-534.09137,-61.826813)"
       style="display:inline;stroke:#ffffff;stroke-width:0.46461961"
       inkscape:connector-curvature="0"
       d="m 15.248075,6.5830522 9.93e-4,-1.4737874 m 1.178023,0.787746 -2.357038,-0.0017"
       id="path6184"
       clip-path="url(#clipPath7175)"
       sodipodi:nodetypes="cccc" />
    <path
       transform="matrix(40,0,0,40,-534.09137,-61.826813)"
       style="display:inline;stroke:#cc0000;stroke-width:0.27877173;stroke-opacity:1"
       inkscape:connector-curvature="0"
       d="m 15.248075,6.5830522 9.93e-4,-1.4737874 m 1.178023,0.787746 -2.357038,-0.0017"
       id="path6186"
       clip-path="url(#clipPath7171)"
       sodipodi:nodetypes="cccc" />
    <g
       style="display:inline;fill:#ffffff;fill-opacity:1;stroke:#000055;stroke-width:1.40152276;stroke-opacity:1"
       id="g15483"
       transform="matrix(0.19984112,0,0,0.15748509,201.1321,-7.0772955)">
      <g
         transform="translate(53.623502,-21.954126)"
         id="g15485"
         style="display:inline;fill:#ffffff;fill-opacity:1;stroke:#000055;stroke-width:1.40152276;stroke-opacity:1">
        <path
           style="display:inline;fill:#ffffff;fill-opacity:1;stroke:#000055;stroke-width:1.40152276;stroke-miterlimit:4;stroke-opacity:1"
           d="m -550.78359,716.48833 43.71399,0 c -1.69378,9.98355 -0.81002,77.13409 0,91.06714 l -43.71399,0 c 1.69379,-15.24954 2.57755,-75.15936 0,-91.06714 z"
           id="path15487"
           sodipodi:nodetypes="ccccc"
           inkscape:connector-curvature="0" />
        <path
           id="path15489"
           d="m -534.91372,701.53318 0,9.1875 -8.09375,0 0,-8.25 -10.5,0 0,8.25 -0.0625,0 0,6.75 49.28125,0 -0.17476,-15.9375 -11.04399,0 0,9.1875 -8.875,0 0,-9.1875 -10.53125,0 z"
           style="display:inline;fill:#ffffff;fill-opacity:1;stroke:#000055;stroke-width:1.40152276;stroke-miterlimit:4;stroke-dasharray:none;stroke-opacity:1"
           sodipodi:nodetypes="ccccccccccccccc"
           inkscape:connector-curvature="0" />
        <g
           style="display:inline;fill:#ffffff;fill-opacity:1;stroke:#000055;stroke-width:3.68553019;stroke-opacity:1"
           id="g15513"
           transform="matrix(0.3646049,0,0,0.396623,-423.40232,443.91982)">
          <path
             style="display:inline;fill:#000055;fill-opacity:1;fill-rule:evenodd;stroke:#000055;stroke-width:3.68553019;stroke-linecap:round;stroke-linejoin:bevel;stroke-miterlimit:4;stroke-dasharray:none;stroke-opacity:1"
             id="path15525"
             d="m -308.42514,772.46208 c 0,0 0.30929,-17.62105 -0.32145,-32.10745 -0.6582,-15.2731 8.93757,-18.9394 16.99411,-18.72929 8.05661,0.21018 16.00563,2.63168 15.92017,19.08258 -0.0798,15.3585 -0.6825,31.78429 -0.6825,31.78429 l -31.91033,-0.0301 z"
             inkscape:connector-curvature="0" />
        </g>
        <path
           style="display:inline;fill:#ffffff;fill-opacity:1;stroke:#000055;stroke-width:1.40152276;stroke-miterlimit:4;stroke-opacity:1"
           d="m -552.91907,718.17381 48.51565,-0.22763 c 0,0 -2.06516,4.40322 -2.81114,4.40119 l -41.90589,-0.11381 c -0.91975,-0.003 -3.79862,-4.05975 -3.79862,-4.05975 z"
           id="path15527"
           sodipodi:nodetypes="cczzc"
           inkscape:connector-curvature="0" />
      </g>
      <path
         transform="translate(-3.1012186,86.720673)"
         id="path15529"
         d="m -493.02624,670.42167 42.38687,-1.11544"
         style="fill:#ffffff;fill-opacity:1;stroke:#000055;stroke-width:1.40152276;stroke-linecap:butt;stroke-linejoin:miter;stroke-opacity:1"
         inkscape:connector-curvature="0" />
      <path
         transform="translate(-3.1012186,86.720673)"
         id="path15531"
         d="m -483.35906,670.42167 0,17.10348"
         style="fill:#ffffff;fill-opacity:1;stroke:#000055;stroke-width:1.40152276;stroke-linecap:butt;stroke-linejoin:miter;stroke-opacity:1"
         inkscape:connector-curvature="0" />
      <path
         transform="translate(-3.1012186,86.720673)"
         id="path15533"
         d="m -460.67837,669.30623 0,18.96255"
         style="fill:#ffffff;fill-opacity:1;stroke:#000055;stroke-width:1.40152276;stroke-linecap:butt;stroke-linejoin:miter;stroke-opacity:1"
         inkscape:connector-curvature="0" />
    </g>
    <g
       id="g15535"
       style="fill:#ffffff;fill-opacity:1;stroke:#000055;stroke-width:1.40152276;stroke-opacity:1"
       transform="matrix(0.19984112,0,0,0.15748509,191.10108,-10.707722)">
      <g
         transform="translate(53.623502,-21.954126)"
         id="g15537"
         style="display:inline;fill:#ffffff;fill-opacity:1;stroke:#000055;stroke-width:1.40152276;stroke-opacity:1">
        <path
           style="display:inline;fill:#ffffff;fill-opacity:1;stroke:#000055;stroke-width:1.40152276;stroke-miterlimit:4;stroke-opacity:1"
           d="m -550.78359,716.48833 43.71399,0 c -1.69378,9.98355 -0.81002,77.13409 0,91.06714 l -43.71399,0 c 1.69379,-15.24954 2.57755,-75.15936 0,-91.06714 z"
           id="path15539"
           sodipodi:nodetypes="ccccc"
           inkscape:connector-curvature="0" />
        <path
           id="path15541"
           d="m -534.91372,701.53318 0,9.1875 -8.09375,0 0,-8.25 -10.5,0 0,8.25 -0.0625,0 0,6.75 49.28125,0 -0.17476,-15.9375 -11.04399,0 0,9.1875 -8.875,0 0,-9.1875 -10.53125,0 z"
           style="display:inline;fill:#ffffff;fill-opacity:1;stroke:#000055;stroke-width:1.40152276;stroke-miterlimit:4;stroke-dasharray:none;stroke-opacity:1"
           sodipodi:nodetypes="ccccccccccccccc"
           inkscape:connector-curvature="0" />
        <g
           style="display:inline;fill:#ffffff;fill-opacity:1;stroke:#000055;stroke-width:3.68553019;stroke-opacity:1"
           id="g15565"
           transform="matrix(0.3646049,0,0,0.396623,-423.40232,443.91982)">
          <path
             style="display:inline;fill:#000055;fill-opacity:1;fill-rule:evenodd;stroke:#000055;stroke-width:3.68553019;stroke-linecap:round;stroke-linejoin:bevel;stroke-miterlimit:4;stroke-dasharray:none;stroke-opacity:1"
             id="path15577"
             d="m -308.42514,772.46208 c 0,0 0.30929,-17.62105 -0.32145,-32.10745 -0.6582,-15.2731 8.93757,-18.9394 16.99411,-18.72929 8.05661,0.21018 16.00563,2.63168 15.92017,19.08258 -0.0798,15.3585 -0.6825,31.78429 -0.6825,31.78429 l -31.91033,-0.0301 z"
             inkscape:connector-curvature="0" />
        </g>
        <path
           style="display:inline;fill:#ffffff;fill-opacity:1;stroke:#000055;stroke-width:1.40152276;stroke-miterlimit:4;stroke-opacity:1"
           d="m -552.91907,718.17381 48.51565,-0.22763 c 0,0 -2.06516,4.40322 -2.81114,4.40119 l -41.90589,-0.11381 c -0.91975,-0.003 -3.79862,-4.05975 -3.79862,-4.05975 z"
           id="path15579"
           sodipodi:nodetypes="cczzc"
           inkscape:connector-curvature="0" />
      </g>
    </g>
    <g
       id="g15587"
       style="fill:#ffffff;fill-opacity:1;stroke:#000055;stroke-width:1.40152276;stroke-opacity:1"
       transform="matrix(0.19984112,0,0,0.15748509,191.10108,-10.707722)">
      <path
         sodipodi:nodetypes="ccccc"
         id="path15589"
         d="m -550.78359,716.48833 43.71399,0 c -1.69378,9.98355 -0.81002,77.13409 0,91.06714 l -43.71399,0 c 1.69379,-15.24954 2.57755,-75.15936 0,-91.06714 z"
         style="display:inline;fill:#ffffff;fill-opacity:1;stroke:#000055;stroke-width:1.40152276;stroke-miterlimit:4;stroke-opacity:1"
         inkscape:connector-curvature="0" />
      <path
         sodipodi:nodetypes="ccccccccccccccc"
         style="display:inline;fill:#ffffff;fill-opacity:1;stroke:#000055;stroke-width:1.40152276;stroke-miterlimit:4;stroke-dasharray:none;stroke-opacity:1"
         d="m -534.91372,701.53318 0,9.1875 -8.09375,0 0,-8.25 -10.5,0 0,8.25 -0.0625,0 0,6.75 49.28125,0 -0.17476,-15.9375 -11.04399,0 0,9.1875 -8.875,0 0,-9.1875 -10.53125,0 z"
         id="path15591"
         inkscape:connector-curvature="0" />
      <g
         transform="matrix(0.3646049,0,0,0.396623,-423.40232,443.91982)"
         id="g15615"
         style="display:inline;fill:#ffffff;fill-opacity:1;stroke:#000055;stroke-width:3.68553019;stroke-opacity:1">
        <path
           d="m -308.42514,772.46208 c 0,0 0.30929,-17.62105 -0.32145,-32.10745 -0.6582,-15.2731 8.93757,-18.9394 16.99411,-18.72929 8.05661,0.21018 16.00563,2.63168 15.92017,19.08258 -0.0798,15.3585 -0.6825,31.78429 -0.6825,31.78429 l -31.91033,-0.0301 z"
           id="path15627"
           style="display:inline;fill:#000055;fill-opacity:1;fill-rule:evenodd;stroke:#000055;stroke-width:3.68553019;stroke-linecap:round;stroke-linejoin:bevel;stroke-miterlimit:4;stroke-dasharray:none;stroke-opacity:1"
           inkscape:connector-curvature="0" />
      </g>
      <path
         sodipodi:nodetypes="cczzc"
         id="path15629"
         d="m -552.91907,718.17381 48.51565,-0.22763 c 0,0 -2.06516,4.40322 -2.81114,4.40119 l -41.90589,-0.11381 c -0.91975,-0.003 -3.79862,-4.05975 -3.79862,-4.05975 z"
         style="display:inline;fill:#ffffff;fill-opacity:1;stroke:#000055;stroke-width:1.40152276;stroke-miterlimit:4;stroke-opacity:1"
         inkscape:connector-curvature="0" />
    </g>
    <path
       style="display:inline;fill:#ffffff;fill-opacity:1;stroke:#000055;stroke-width:0.24863502;stroke-miterlimit:4;stroke-opacity:1"
       d="m 79.874848,113.07032 32.906862,0 c -1.27504,2.30585 -0.60976,17.81527 0,21.03332 l -32.906862,0 c 1.275041,-3.52211 1.940312,-17.35919 0,-21.03332 z"
       id="path15631"
       sodipodi:nodetypes="ccccc"
       inkscape:connector-curvature="0" />
    <path
       style="display:inline;fill:#ffffff;fill-opacity:1;stroke:#000055;stroke-width:0.24863502;stroke-miterlimit:4;stroke-dasharray:none;stroke-opacity:1"
       d="m 109.08354,109.71454 0,2.34751 -25.523454,0 0,-2.10636 -3.971842,0 0,2.42133 0.01873,0 0,1.31894 33.398456,0 0,-1.56009 0.05,0 0,-2.42133 -3.97186,0 z"
       id="path15633"
       inkscape:connector-curvature="0" />
    <g
       style="display:inline;fill:#ffffff;fill-opacity:1;stroke:#000055;stroke-width:3.68553019;stroke-opacity:1"
       id="g15687"
       transform="matrix(0.07286305,0,0,0.06246221,130.55155,73.115053)">
      <path
         style="display:inline;fill:#000055;fill-opacity:1;fill-rule:evenodd;stroke:#000055;stroke-width:3.68553019;stroke-linecap:round;stroke-linejoin:bevel;stroke-miterlimit:4;stroke-dasharray:none;stroke-opacity:1"
         id="path15699"
         d="m -308.42514,772.46208 c 0,0 0.30929,-17.62105 -0.32145,-32.10745 -0.6582,-15.2731 8.93757,-18.9394 16.99411,-18.72929 8.05661,0.21018 16.00563,2.63168 15.92017,19.08258 -0.0798,15.3585 -0.6825,31.78429 -0.6825,31.78429 l -31.91033,-0.0301 z"
         inkscape:connector-curvature="0" />
    </g>
    <g
       style="display:inline;fill:#ffffff;fill-opacity:1;stroke:#000055;stroke-width:3.68553019;stroke-opacity:1"
       id="g15701"
       transform="matrix(0.07286305,0,0,0.06246221,105.22691,73.197861)">
      <path
         style="display:inline;fill:#000055;fill-opacity:1;fill-rule:evenodd;stroke:#000055;stroke-width:3.68553019;stroke-linecap:round;stroke-linejoin:bevel;stroke-miterlimit:4;stroke-dasharray:none;stroke-opacity:1"
         id="path15713"
         d="m -308.42514,772.46208 c 0,0 0.30929,-17.62105 -0.32145,-32.10745 -0.6582,-15.2731 8.93757,-18.9394 16.99411,-18.72929 8.05661,0.21018 16.00563,2.63168 15.92017,19.08258 -0.0798,15.3585 -0.6825,31.78429 -0.6825,31.78429 l -31.91033,-0.0301 z"
         inkscape:connector-curvature="0" />
    </g>
    <path
       style="display:inline;fill:#ffffff;fill-opacity:1;stroke:#000055;stroke-width:0.24863502;stroke-miterlimit:4;stroke-opacity:1"
       d="m 79.608546,113.7626 33.310974,0 c 0,0 -0.53041,0.89634 -0.64891,0.89634 l -31.850923,0 c -0.14364,0 -0.811141,-0.89634 -0.811141,-0.89634 z"
       id="path15715"
       sodipodi:nodetypes="cczzc"
       inkscape:connector-curvature="0" />
    <g
       id="g15717"
       style="fill:#ffffff;fill-opacity:1;stroke:#000055;stroke-width:1.40152276;stroke-opacity:1"
       transform="matrix(0.19984112,0,0,0.15748509,191.10108,-10.707722)">
      <path
         sodipodi:nodetypes="ccccc"
         id="path15719"
         d="m -525.2511,782.98663 104.03728,0 c -4.03113,15.95024 -1.92783,123.23342 0,145.49356 l -104.03728,0 c 4.03113,-24.36344 6.13443,-120.07847 0,-145.49356 z"
         style="fill:#ffffff;fill-opacity:1;stroke:#000055;stroke-width:1.40152276;stroke-miterlimit:4;stroke-opacity:1"
         inkscape:connector-curvature="0" />
      <g
         id="g15721"
         style="fill:#ffffff;fill-opacity:1;stroke:#000055;stroke-width:1.40152276;stroke-opacity:1">
        <path
           style="fill:#ffffff;fill-opacity:1;stroke:#000055;stroke-width:1.40152276;stroke-miterlimit:4;stroke-dasharray:none;stroke-opacity:1"
           d="m -498,674.59375 0,14.8125 -14.03125,0 0,-13.28125 -18.28125,0 0,13.28125 0,2.125 0,8.46875 118,0 0,-10.59375 0,-14.8125 -18.28125,0 0,14.8125 -15.4375,0 0,-14.8125 -18.25,0 0,14.8125 -15.46875,0 0,-14.8125 -18.25,0 z"
           transform="translate(-3.1012186,86.720673)"
           id="path15723"
           inkscape:connector-curvature="0" />
        <path
           style="display:inline;fill:#ffffff;fill-opacity:1;stroke:#000055;stroke-width:1.40152276;stroke-linecap:butt;stroke-linejoin:miter;stroke-opacity:1"
           d="m -503.42403,804.36954 0,15.24893"
           id="path15753"
           inkscape:connector-curvature="0" />
        <path
           style="display:inline;fill:#ffffff;fill-opacity:1;stroke:#000055;stroke-width:1.40152276;stroke-linecap:butt;stroke-linejoin:miter;stroke-opacity:1"
           d="m -445.58324,803.84371 c 0,2.1033 1.05165,16.30059 1.05165,16.30059"
           id="path15755"
           inkscape:connector-curvature="0" />
        <g
           id="g15759"
           transform="matrix(0.3646049,0,0,0.396623,-397.11105,515.43208)"
           style="fill:#ffffff;fill-opacity:1;stroke:#000055;stroke-width:3.68553019;stroke-opacity:1">
          <path
             style="display:inline;fill:#000055;fill-opacity:1;fill-rule:evenodd;stroke:#000055;stroke-width:3.68553019;stroke-linecap:round;stroke-linejoin:bevel;stroke-miterlimit:4;stroke-dasharray:none;stroke-opacity:1"
             id="path15771"
             d="m -308.42514,772.46208 c 0,0 0.30929,-17.62105 -0.32145,-32.10745 -0.6582,-15.2731 8.93757,-18.9394 16.99411,-18.72929 8.05661,0.21018 16.00563,2.63168 15.92017,19.08258 -0.0798,15.3585 -0.6825,31.78429 -0.6825,31.78429 l -31.91033,-0.0301 z"
             inkscape:connector-curvature="0" />
        </g>
        <g
           style="display:inline;fill:#ffffff;fill-opacity:1;stroke:#000055;stroke-width:3.68553019;stroke-opacity:1"
           id="g15773"
           transform="matrix(0.3646049,0,0,0.396623,-338.21861,515.43207)">
          <path
             style="display:inline;fill:#000055;fill-opacity:1;fill-rule:evenodd;stroke:#000055;stroke-width:3.68553019;stroke-linecap:round;stroke-linejoin:bevel;stroke-miterlimit:4;stroke-dasharray:none;stroke-opacity:1"
             id="path15785"
             d="m -308.42514,772.46208 c 0,0 0.30929,-17.62105 -0.32145,-32.10745 -0.6582,-15.2731 8.93757,-18.9394 16.99411,-18.72929 8.05661,0.21018 16.00563,2.63168 15.92017,19.08258 -0.0798,15.3585 -0.6825,31.78429 -0.6825,31.78429 l -31.91033,-0.0301 z"
             inkscape:connector-curvature="0" />
        </g>
        <g
           id="g15839"
           transform="matrix(1,0,0,1.1812375,-646.76517,-198.64139)"
           style="fill:#ffffff;fill-opacity:1;stroke:#000055;stroke-width:1.28953028;stroke-opacity:1">
          <path
             d="m 156.1217,944.63493 c 0,0 0.30929,-14.91745 -0.32145,-27.1812 -0.6582,-12.92974 8.93757,-16.03352 16.99411,-15.85565 8.05661,0.17793 16.00563,2.2279 15.92017,16.15474 -0.0798,13.00204 -0.6825,26.90762 -0.6825,26.90762 l -31.91033,-0.0255 z"
             id="path15861"
             style="fill:#000055;fill-opacity:1;fill-rule:evenodd;stroke:#000055;stroke-width:1.28953028;stroke-linecap:round;stroke-linejoin:bevel;stroke-miterlimit:4;stroke-dasharray:none;stroke-opacity:1"
             inkscape:connector-curvature="0" />
        </g>
      </g>
    </g>
    <rect
       style="fill:#ffffff;fill-opacity:1;stroke:#000055;stroke-width:0.24863502;stroke-miterlimit:4;stroke-dasharray:none;stroke-opacity:1"
       id="rect15863"
       width="34.04855"
       height="2.0502815"
       x="79.000618"
       y="133.65984"
       rx="0"
       ry="0" />
    <path
       style="fill:#ffffff;fill-opacity:1;stroke:#000055;stroke-width:0.24863502;stroke-miterlimit:4;stroke-opacity:1"
       d="m 84.536232,113.21135 6.341317,-0.0112 17.162321,-0.0302 c 0,0 -1.00047,0.8009 -1.36187,0.80053 l -20.301511,-0.0207 c -0.445575,-4.7e-4 -1.840257,-0.73843 -1.840257,-0.73843 z"
       id="path15865"
       sodipodi:nodetypes="ccczzc"
       inkscape:connector-curvature="0" />
    <g
       style="display:inline;fill:#ffffff;fill-opacity:1;stroke:#000055;stroke-opacity:1"
       transform="matrix(0.19814666,0,0,0.19814666,33.715294,93.310675)"
       id="g3952">
      <g
         id="g3954"
         inkscape:label="Timbre"
         transform="translate(-551.4445,-446.3059)"
         style="display:inline;fill:#ffffff;fill-opacity:1;stroke:#000055;stroke-opacity:1" />
      <g
         inkscape:label="Escudo"
         id="g3956"
         transform="translate(-551.4445,-446.3059)"
         style="display:inline;fill:#ffffff;fill-opacity:1;stroke:#000055;stroke-opacity:1" />
      <g
         id="g3958"
         inkscape:label="Piezas"
         style="display:inline;fill:#ffffff;fill-opacity:1;stroke:#000055;stroke-opacity:1"
         transform="translate(-495.01578,-522.94625)" />
      <g
         id="g3960"
         inkscape:label="Muebles"
         style="display:inline;fill:#ffffff;fill-opacity:1;stroke:#000055;stroke-opacity:1"
         transform="translate(-495.01578,-522.94625)" />
      <g
         id="g3962"
         inkscape:label="Ornamento"
         transform="translate(-495.01578,-522.94625)"
         style="fill:#ffffff;fill-opacity:1;stroke:#000055;stroke-opacity:1" />
      <g
         id="g3964"
         inkscape:label="Borde 3px"
         style="display:inline;fill:#ffffff;fill-opacity:1;stroke:#000055;stroke-opacity:1"
         transform="translate(-495.01578,-522.94625)">
        <g
           id="g3966"
           inkscape:label="Timbre"
           transform="translate(132.0638,371.22924)"
           style="display:inline;fill:#ffffff;fill-opacity:1;stroke:#000055;stroke-opacity:1" />
        <g
           inkscape:label="Escudo"
           id="g3968"
           transform="translate(132.0638,371.22924)"
           style="display:inline;fill:#ffffff;fill-opacity:1;stroke:#000055;stroke-opacity:1" />
        <g
           id="g3970"
           inkscape:label="Piezas"
           style="display:inline;fill:#ffffff;fill-opacity:1;stroke:#000055;stroke-opacity:1"
           transform="translate(188.49252,294.58889)" />
        <g
           id="g3972"
           inkscape:label="Muebles"
           style="display:inline;fill:#ffffff;fill-opacity:1;stroke:#000055;stroke-opacity:1"
           transform="translate(188.49252,294.58889)" />
        <g
           id="g3974"
           inkscape:label="Ornamento"
           transform="translate(188.49252,294.58889)"
           style="fill:#ffffff;fill-opacity:1;stroke:#000055;stroke-opacity:1" />
        <g
           style="display:inline;fill:#ffffff;fill-opacity:1;stroke:#000055;stroke-width:5.11117411;stroke-miterlimit:4;stroke-dasharray:none;stroke-opacity:1"
           id="g3976"
           transform="matrix(0.5869493,0,0,0.5869493,610.3503,952.94676)">
          <path
             inkscape:connector-curvature="0"
             sodipodi:nodetypes="csssssscscsscccccccsscscssssssc"
             id="path3978"
             d="m -48.09683,-730.04688 c 29.4622,31.846 46.785506,49.40837 49.8125,98.82137 2.801252,45.72798 -27.62872,83.95805 -34.1875,128.1875 -1.24403,8.38915 -2.3116,25.51297 -1.1875,32.45772 0.83251,5.14326 3.39203,20.85577 6.1875,1.4142 0.57494,-3.99854 0.98719,-24.06032 2.75,-34.24692 3.21207,-18.56122 13.49816,-51.19887 31.34375,-69.28125 17.83797,-18.07464 46.10448,-29.79863 71.3125,-20.34375 22.83967,10.53838 24.99864,40.29967 18.5,62.0625 -8.13885,27.25563 -39.24117,46.12026 -67.125,47.96875 5.5251,-10.92624 18.74955,-42.11293 4.40625,-40.875 -16.60276,1.43294 -36.462414,29.6812 -41.632964,49.05883 -1.9472,7.29746 -1.160236,18.6278 -11.585786,18.15992 6.87471,23.22805 26.28025,38.59833 43.28125,54.8125 -17.72254,1.47312 -35.25555,-6.86729 -50.71875,-14.8125 0.653831,15.92517 -2.437866,49.56739 -21.15625,67.9375 -17.374715,-18.91606 -18.955751,-41.98658 -19.28125,-67.9375 -15.4632,7.94521 -32.99621,16.28562 -50.71875,14.8125 17.001,-16.21417 36.406539,-31.58445 43.28125,-54.8125 -10.42555,0.46788 -11.052805,-10.15535 -13,-17.45281 -5.17055,-19.37761 -23.61599,-48.33302 -40.21875,-49.76594 -14.3433,-1.23793 -1.11885,29.94876 4.40625,40.875 -27.88383,-1.84849 -58.98614,-20.71312 -67.125,-47.96875 -6.49864,-21.76283 -4.33966,-51.52413 18.5,-62.0625 25.20803,-9.45488 53.47453,2.2691 71.3125,20.34375 17.845587,18.08238 28.131679,50.72003 31.34375,69.28125 1.76281,10.1866 1.467952,28.83417 2.042893,32.83272 2.79547,19.44158 6.062096,5.14324 6.894607,0 1.1241,-6.94475 0.05653,-24.06858 -1.1875,-32.45772 -6.55878,-44.22943 -34.108976,-84.01469 -34.1875,-128.1875 -0.06965,-39.88628 19.98372,-70.2349 47.9375,-98.82137 z"
             style="fill:#ffffff;fill-opacity:1;fill-rule:evenodd;stroke:#000055;stroke-width:5.11117411;stroke-linecap:butt;stroke-linejoin:miter;stroke-miterlimit:4;stroke-dasharray:none;stroke-opacity:1" />
          <rect
             transform="scale(-1,1)"
             ry="7.0119839"
             y="-474.15433"
             x="-20.840672"
             height="22"
             width="136"
             id="rect3980"
             style="fill:#ffffff;fill-opacity:1;fill-rule:evenodd;stroke:#000055;stroke-width:5.11117411;stroke-linejoin:round;stroke-miterlimit:4;stroke-dasharray:none;stroke-opacity:1"
             rx="7.0119839" />
        </g>
      </g>
    </g>
    <path
       inkscape:connector-curvature="0"
       style="display:inline;fill:none;stroke:#000055;stroke-width:3;stroke-linejoin:miter;stroke-miterlimit:3.70000005;stroke-dasharray:none;stroke-opacity:1"
       d="m 28.369123,88.72484 c 0.03853,22.75515 -0.07397,45.55896 0.0625,68.3125 0.725754,20.42051 16.393495,39.06246 36.375,43.375 18.485486,4.49845 39.159857,-3.62017 49.593747,-19.5625 6.24883,-8.91599 8.57777,-19.9157 8.0625,-30.65625 l 0,-61.46875 -94.093747,0 z"
       id="rect6194" />
  </g>
</svg>
