<?xml version="1.0" encoding="utf-8"?>
<!DOCTYPE svg PUBLIC "-//W3C//DTD SVG 1.1//EN" "http://www.w3.org/Graphics/SVG/1.1/DTD/svg11.dtd" [
	<!ENTITY ns_svg "http://www.w3.org/2000/svg">
	<!ENTITY ns_xlink "http://www.w3.org/1999/xlink">
]>
<svg  version="1.1" xmlns="&ns_svg;" xmlns:xlink="&ns_xlink;" width="750" height="450" viewBox="0 0 750 450"
	 overflow="visible" enable-background="new 0 0 750 450" xml:space="preserve">
<symbol  id="fleur_de_lis" viewBox="-47.193 -64.438 94.384 128.876">
	<path fill="#EDB41D" d="M-0.002,64.438c-3.502-3.908-6.55-7.558-8.991-11.602c-6.814-11.28-9.106-23.53-5.297-33.44
		C-6.717-1.572-3.813-6.894-3.813-23.59h-5.381C-9.529-5.225-16.455,7.07-26.744,10.76c-4.529,1.747-10.405,0.881-15.789-4.66
		c-6.666-6.859-8.606-25.756,10.96-29.389c-2.071,3.079-1.894,9.822,2.247,12.203c3.167,1.584,6.745,0.963,8.417-0.398
		c2.689-1.627,5.281-6.834,5.281-12.105l-9.291,0.014l0.003-10.377l19.285,0.012c-0.253-5.338-3.163-9.613-8.578-11.992
		c0.697-2.248,3.963-6.832,8.447-6.523c0.886-4.85,1.728-7.572,5.76-11.98c4.035,4.408,4.877,7.131,5.763,11.98
		c4.484-0.309,7.75,4.275,8.446,6.523c-5.415,2.379-8.324,6.654-8.577,11.992l19.285-0.012v10.377l-9.288-0.014
		c0,5.271,2.587,10.479,5.281,12.105c1.672,1.361,5.248,1.982,8.414,0.398c4.144-2.381,4.321-9.124,2.25-12.203
		C51.139-19.656,49.196-0.76,42.532,6.1c-5.387,5.541-11.261,6.407-15.79,4.66C16.451,7.07,9.528-5.225,9.192-23.59H3.812
		c0,16.696,2.904,22.018,10.475,42.985c3.812,9.91,1.521,22.16-5.294,33.44C6.551,56.88,3.503,60.529-0.002,64.438L-0.002,64.438z"
		/>
</symbol>
<rect fill="#FFFFFF" width="750" height="450"/>
<rect y="390" fill="#111B4C" width="750" height="60"/>
<rect fill="#D52C11" width="750" height="60"/>
<use xlink:href="#fleur_de_lis"  width="94.384" height="128.876" x="-47.193" y="-64.438" transform="matrix(1 0 0 -1 488.5 200.5)"/>
<use xlink:href="#fleur_de_lis"  width="94.384" height="128.876" x="-47.193" y="-64.438" transform="matrix(1 0 0 -1 375.5 266.5)"/>
<use xlink:href="#fleur_de_lis"  width="94.384" height="128.876" x="-47.193" y="-64.438" transform="matrix(1 0 0 -1 261.5 200.5)"/>
</svg>
