<svg xmlns="http://www.w3.org/2000/svg" viewBox="0 0 600 300">
<path fill="#00993E" d="M0 0h600v300H0z"/>
<path d="M0 42.857h600v42.857H0zm0 85.713h600v42.858H0zm0 85.716h600v42.857H0z" fill="#FFF"/>
<path fill="#C8312A" d="M0 0h228v128.57H0z"/>
<path d="M96.352 71.82s-1.965.824-.62 16.51c1.1 12.91 5.7 17.117 5.7 17.117l2.01 7.992 19.055.073s.345-4.95 1.083-6.514c1.813-3.845 9-8.24 12.08-14.876 3.31-4.045 1.652-12.3 8.3-20.268 3.3-3.958-3.867-2.283-3.867-2.283-3.93 2.607-5.852 5.667-6.843 7.805-.667 4.12-3.75 7.56-4.04 4.57 0 0-1.12-5.17-4.482-15.226-.333-2.98-1.774-13.286-2.082-21.152-.22-5.118-4.7-5.426-5.073-.23l-.54 20.594-1.072-23.786c-.45-6.73-5.543-5.733-5.764-.154l-.22 24.766-.927-24.008c-1.38-4.586-5.007-1.868-5.074 3.1l-.618 23.36s-.78-12.793-.957-18.195c-.166-3.25-3.97-3.01-4.33 1.634-.52 6.718-1.333 12.2-1.715 19.16zm11.854-43.85L114 10.138l5.794 17.832-15.17-11.02h18.75l-15.168 11.02zm45.057 7.114l-15.17-11.02h18.75l-15.17 11.02 5.795-17.832 5.795 17.832zm28.633 21.188l-15.17-11.02h18.75l-15.17 11.02L176.1 38.44l5.797 17.832zm16.588 29.926l-15.17-11.02h18.75l-15.168 11.02 5.794-17.832 5.794 17.832zM74.738 35.084l15.17-11.02h-18.75l15.168 11.02-5.794-17.832-5.794 17.832zM46.104 56.272l15.17-11.02h-18.75l15.17 11.02-5.796-17.832-5.794 17.832zM29.516 86.198l15.17-11.02h-18.75l15.168 11.02-5.794-17.832-5.794 17.832z" fill="#FFF"/>
</svg>
