<?xml version="1.0" encoding="UTF-8" standalone="no"?>
<!-- Created with Inkscape (http://www.inkscape.org/) -->

<svg
   xmlns:dc="http://purl.org/dc/elements/1.1/"
   xmlns:cc="http://creativecommons.org/ns#"
   xmlns:rdf="http://www.w3.org/1999/02/22-rdf-syntax-ns#"
   xmlns:svg="http://www.w3.org/2000/svg"
   xmlns="http://www.w3.org/2000/svg"
   xmlns:sodipodi="http://sodipodi.sourceforge.net/DTD/sodipodi-0.dtd"
   xmlns:inkscape="http://www.inkscape.org/namespaces/inkscape"
   version="1.1"
   width="661.99347"
   height="428.59683"
   viewBox="0 0 529.59479 342.87745"
   id="svg2"
   style="fill-rule:evenodd"
   inkscape:version="0.48.2 r9819"
   sodipodi:docname="ar_ba1995.svg">
  <sodipodi:namedview
     pagecolor="#ffffff"
     bordercolor="#666666"
     borderopacity="1"
     objecttolerance="10"
     gridtolerance="10"
     guidetolerance="10"
     inkscape:pageopacity="0"
     inkscape:pageshadow="2"
     inkscape:window-width="1024"
     inkscape:window-height="553"
     id="namedview169"
     showgrid="false"
     fit-margin-top="0"
     fit-margin-left="0"
     fit-margin-right="0"
     fit-margin-bottom="0"
     inkscape:zoom="0.70238763"
     inkscape:cx="302.21566"
     inkscape:cy="210.38257"
     inkscape:window-x="-4"
     inkscape:window-y="-4"
     inkscape:window-maximized="1"
     inkscape:current-layer="g6" />
  <metadata
     id="metadata336">
    <rdf:RDF>
      <cc:Work
         rdf:about="">
        <dc:format>image/svg+xml</dc:format>
        <dc:type
           rdf:resource="http://purl.org/dc/dcmitype/StillImage" />
      </cc:Work>
    </rdf:RDF>
  </metadata>
  <defs
     id="defs334" />
  <g
     id="g4"
     transform="translate(-123.9708,-376.93522)">
    <g
       id="g6">
      <rect
         style="opacity:0.98000003999999996;fill:#ffffff;fill-opacity:1;stroke:#ffffff;stroke-width:0.80000000999999998"
         id="rect3842"
         width="528.7948"
         height="342.07748"
         x="124.3708"
         y="377.33521" />
      <path
         d="m 302.61309,438.69655 176.583,0.47675 c 0.023,50.30052 -0.086,99.13446 -0.063,149.43497 -20.042,76.4872 -164.921,72.27381 -176.52,0.49539 l 0,-150.40711 z"
         inkscape:connector-curvature="0"
         id="path8"
         style="fill:#f9f9f9;fill-rule:evenodd;stroke:#1f211d;stroke-width:1.50009012" />
      <path
         d="m 408.54228,555.76913 c 1.639,1.551 3.278,3.101 4.917,4.651 3.698,4.296 5,8.593 6.909,12.889 2.658,1.152 5.626,2.658 7.574,4.518 -0.841,0.487 -1.683,0.974 -2.524,1.462 -2.393,-1.062 -4.697,-2.213 -6.378,-3.987 -1.196,-0.531 -2.038,-0.177 -2.525,1.063 -1.019,-0.088 -2.037,-0.177 -3.056,-0.265 -0.313,-0.664 -0.403,-1.373 1.063,-2.392 -0.712,-1.418 -0.18,-2.525 0.531,-3.588 -2.102,-0.259 -2.86,-2.131 -3.189,-4.518 -2.305,-0.486 -2.393,-2.081 -1.86,-3.986 -2.087,0.181 -2.306,-0.884 -2.259,-2.126 -0.623,-1.907 -0.002,-2.881 0.797,-3.721 z"
         inkscape:connector-curvature="0"
         id="path10"
         style="fill:#ffffff;fill-rule:evenodd;stroke:#1f211d;stroke-width:0.28601599" />
      <path
         d="m 401.76128,447.13112 c -0.619,0.863 -0.885,1.904 -0.797,3.121 -2.729,0.729 -5.574,0.769 -7.569,5.909 -1.958,1.367 -3.087,0.382 -3.784,-0.133 0.928,1.796 1.989,3.325 3.983,2.988 0.195,2.33 1.946,2.637 3.918,2.656 0.243,0.841 0.487,1.682 0.73,2.523 3.608,-0.73 7.215,-1.46 10.823,-2.191 -0.155,-1.084 -0.31,-2.169 -0.465,-3.253 1.78,-0.831 4.187,-0.977 3.851,-4.117 0.642,-0.531 0.752,-1.328 0.332,-2.39 -0.575,1.397 -1.216,2.571 -2.324,2.191 -0.985,-2.706 -3.264,-4.333 -7.436,-4.382 -0.067,-1.151 -0.487,-2.125 -1.262,-2.922 z"
         inkscape:connector-curvature="0"
         id="path12"
         style="fill:#d7b46d;fill-rule:evenodd;stroke:#1f211d;stroke-width:0.28601599" />
      <path
         d="m 401.23028,451.64612 c -0.498,2.059 -0.387,4.117 0,6.175 -1.372,0.642 -2.257,-0.177 -2.921,-1.66 0.874,2.778 -0.144,3.663 -2.457,3.254 -1.462,-3.21 -0.599,-5.976 5.378,-7.769 z"
         inkscape:connector-curvature="0"
         id="path14"
         style="fill:#ececed;fill-rule:evenodd;stroke:#1f211d;stroke-width:0.28601599" />
      <path
         d="m 402.49228,451.64612 c 0.177,2.081 0.354,4.161 0.531,6.242 1.35,0.509 2.346,-0.222 2.988,-2.192 0.509,0.886 0.619,1.97 1.527,2.656 3.504,-2.976 -0.09,-6.841 -5.046,-6.706 z"
         inkscape:connector-curvature="0"
         id="path16"
         style="fill:#ececed;fill-rule:evenodd;stroke:#1f211d;stroke-width:0.28601599" />
      <path
         d="m 408.94128,461.95812 c 1.816,0.488 3.366,1.683 4.651,3.588 -5.27,2.546 -8.237,4.805 -7.84,6.644 -0.576,-0.178 -1.152,-0.355 -1.727,-0.532 -1.229,1.561 -1.517,3.178 0.265,4.916 -2.677,-0.03 -4.054,1.36 -4.783,3.455 0.21,1.536 0.675,2.627 1.594,2.924 0.393,6.534 2.691,5.449 5.05,4.119 -0.551,2.218 -1.391,4.037 -4.253,3.056 1.329,1.944 2.657,1.524 4.916,5.648 0.621,1.133 0.82,2.956 1.463,4.451 1.122,-0.91 2.973,-2.023 4.64,-1.089 1.224,0.686 2.572,0.708 3.997,-0.107 0.486,-1.063 0.353,-2.304 -0.399,-3.721 5.624,3.63 10.186,3.275 13.686,-1.063 0.649,-2.585 2.453,-4.013 5.05,-4.651 1.978,-2.365 0.693,-4.155 -0.399,-5.979 -7.913,-2.111 -6.905,-5.165 -3.721,-7.84 2.979,-2.026 6.323,-3.2 9.833,-3.986 1.418,-0.397 2.525,-1.726 3.588,-3.189 -0.244,2.026 -1.351,3.709 -2.657,4.85 5.429,0.644 10.107,-4.091 12.49,-6.843 -0.133,2.834 -0.709,5.226 -1.727,7.175 3.147,1.775 6.813,1.126 10.497,0.399 -1.773,3.498 -4.785,5.845 -9.036,7.042 2.073,0.035 3.66,-0.415 6.644,0.532 2.074,1.417 4.12,3.007 6.378,3.322 2.641,-1.266 2.949,-1.132 2.923,-0.798 -3.59,3.71 -8.243,-2.125 -10.895,-1.461 2.868,4.936 6.168,7.284 10.098,5.846 -0.351,2.42 -2.257,2.506 -4.385,2.259 2.453,4.079 5.432,4.688 8.77,2.924 -2.7,4.641 -6.023,3.529 -9.434,1.594 -0.306,1.725 -0.226,3.192 1.063,3.854 3.19,4.04 5.759,3.726 8.238,2.79 -1.351,5.558 -8.13,-1.393 -9.966,-2.923 2.782,13.04001 6.734,12.87401 10.764,11.82601 -0.488,2.302 -1.861,3.719 -5.183,3.189 1.882,3.072 2.857,5.918 3.322,8.637 -4.086,-2.087 -7.342,-5.974 -10.364,-10.365 1.92,3.088 3.826,6.131 6.644,12.092 1.761,3.214 3.12,7.437 4.518,11.561 -0.311,0.887 -0.621,0.842 -0.931,0.664 -1.397,-6.088 -5.259,-15.954 -9.832,-20.463 -0.139,2.832 0.36,5.982 1.993,9.7 0.974,2.524 2.303,4.606 3.986,6.245 -1.849,-1.207 -3.2,-1.805 -3.455,-1.063 0.941,3.863 2.469,6.99 4.119,9.966 -1.107,-0.6 -2.171,-1.044 -2.923,-0.399 0.294,1.144 0.531,2.322 1.727,2.924 -0.325,7.921 2.711,13.993 5.316,17.539 -5.702,-1.086 -8.116,-6.8 -9.036,-14.616 -1.249,-5.224 -2.262,-2.184 -3.322,-0.797 0.177,-2.736 0.133,-5.637 -0.399,-8.903 -1.571,-2.775 -1.411,-5.377 -1.196,-7.973 -1.151,-3.957 -2.303,-1.692 -3.454,1.462 -0.266,-3.278 -0.266,-6.29 0,-9.036 -1.209,-12.587 -3.638,-8.201 -3.854,-9.036 1.817,9.496 3.366,18.583 5.183,28.436 0.373,9.639 2.152,19.107 5.182,28.037 0.177,0.93 -8e-4,1.417 -0.532,1.462 -3.82,-9.332 -5.346,-18.883 -5.448,-28.569 -1.284,-8.194 -2.569,-16.388 -3.853,-24.582 -0.443,-1.018 -0.709,-0.885 -0.798,0.399 0.164,2.067 0.984,9.063 1.861,16.476 0.317,2.444 -0.699,4.161 2.126,7.973 -0.598,0.622 -1.351,0.311 -2.126,-0.133 0.431,4.366 1.815,8.876 0.812,13.518 -0.511,2.363 0.997,4.74 1.447,7.078 0.487,2.569 0.974,5.138 1.461,7.707 -1.051,2.702 0.211,4.916 2.525,6.91 -4.516,-0.533 -6.731,-3.013 -6.644,-7.441 -4.501,-3.814 -4.326,-8.903 -4.783,-13.82 -1.661,-5.237 -1.59,-9.608 -1.462,-13.952 -0.62,0.886 -1.418,0.554 -2.392,0.732 1.262,-5.15 1.66,-9.579 0.797,-15.083 0.045,-1.815 0.089,-3.632 0.133,-5.447 -0.365,1.328 -0.786,2.435 -1.329,3.056 0.691,-5.164 -0.613,-7.583 -1.461,-10.63 -1.334,1.573 0.03,10.159 0.266,15.812 0.519,8.323 1.292,16.73 1.195,24.848 -0.68,5.772 -0.514,11.591 1.994,17.54 0.089,0.644 0.046,1.132 -0.931,0.531 -1.837,-6.024 -2.9,-12.047 -2.258,-18.071 0.406,-7.844 -0.592,-16.531 -1.196,-24.981 -0.931,-0.98 -1.817,-1.383 -2.392,2.259 1.638,7.465 1.726,14.06 0.531,19.932 -1.29,4.296 -1.058,8.592 -0.398,12.889 -3.372,-5.544 -3.598,-12.684 -4.518,-20.198 -0.553,1.487 -1.572,1.884 -2.658,2.126 1.539,-2.901 1.738,-6.533 1.329,-10.497 0.3,-4.286 -0.786,-7.187 -2.259,-9.7 -0.69,6.378 -0.257,12.756 0.133,19.134 -0.177,-0.265 -0.354,-0.531 -0.531,-0.797 -0.48,-6.41 -0.993,-12.809 -0.931,-19.4 -0.168,-1.86 -0.572,-1.358 -0.93,-1.329 -0.147,2.115 -0.531,4.04 0.266,6.91 -1.086,4.88 -0.53,9.212 0,13.553 -3.085,-3.283 -4.092,-7.258 -4.518,-11.427 0.04,-5.266 -1.196,-9.257 -2.259,-13.421 -0.956,6.556 -0.201,12.801 0.798,19.002 -0.045,0.974 -0.355,0.973 -0.931,0 -1.19,-4.12 -0.893,-8.453 -0.797,-12.757 -1.977,-1.069 -1.652,5.538 -1.461,11.694 -3.318,-13.389 -3.869,-16.548 -5.847,-16.477 1.184,3.166 0.941,6.311 1.063,8.77 -1.085,-6.067 -1.794,-9.167 -3.588,-9.567 -0.951,4.816 -0.464,8.913 2.126,11.959 4.35,7.924 1.109,15.005 0,22.323 -0.177,1.772 -0.354,3.543 -0.531,5.315 -1.528,-0.51 -3.167,-1.794 -5.05,-4.784 -0.885,1.13 -1.328,2.592 -0.797,4.784 -1.717,6.982 -4.276,8.072 -6.511,11.428 1.267,-5.286 1.167,-8.486 -0.93,-8.637 -0.022,4.268 -0.687,7.733 -2.126,10.231 -0.133,-1.417 -0.354,-2.126 -0.664,-2.126 -1.241,2.121 -2.481,2.754 -3.721,3.588 2.87,-5.965 1.701,-9.507 0.93,-13.288 -0.932,-2.525 -0.931,-5.049 -0.797,-7.574 -0.822,2.391 -1.399,4.871 -0.266,7.973 3.08,11.643 -4.132,12.235 -7.574,16.875 2.124,-4.269 3.367,-8.266 3.189,-11.826 0.044,-0.93 -0.177,-1.24 -0.664,-0.93 -7.312,15.901 -10.106,12.657 -10.365,12.756 1.727,-0.982 3.359,-4.067 2.525,-6.511 -0.709,1.417 -1.683,2.392 -2.923,2.923 1.457,-4.065 0.006,-4.53 -2.259,-3.986 -1.6,2.71 -6.063,4.509 -11.56,5.98 2.563,-4.472 7.17,-8.597 20.197,-11.295 -1.002,-0.968 -2.284,-1.779 -12.225,2.259 -5.929,1.805 -6.307,-2.999 -8.105,-6.113 3.71,2.812 9.358,3.299 16.609,1.861 5.936,-3.486 7.376,-8.823 9.966,-13.687 -4.462,3.71 -7.761,7.807 -10.099,12.225 -0.643,-0.376 -1.131,-0.818 -0.531,-1.727 -2.215,1.908 -4.12,2.261 -5.979,2.392 5.811,-4.056 7.792,-8.475 9.832,-12.89 1.753,0.086 3.342,-1.8 4.917,-3.853 -1.288,-0.513 -2.409,-1.899 -2.94,1.088 -0.332,1.865 -2.567,1.333 -3.305,0.639 -0.156,1.327 -1.216,1.47 -2.608,1.068 -0.803,-0.232 -1.287,0.972 -2.309,1.191 -1.195,0.62 -0.973,1.152 0.665,1.595 -3.979,7.647 -5.855,7.485 -8.372,9.7 3.763,-5.934 4.782,-10.452 3.056,-13.554 -0.403,5.532 -2.607,9.264 -5.315,12.491 0.91,-2.635 1.398,-6.422 1.064,-9.234 -5.429,7.653 -6.835,8.034 -9.701,10.031 3.736,-3.386 5.386,-7.334 4.518,-11.959 -1.533,-0.309 -2.682,-1.578 -3.853,-2.79 -0.895,7.528 -3.132,11.703 -4.917,17.008 -0.46,0.201 -1.204,0.779 -0.531,-0.531 1.948,-5.43 4.075,-10.64 4.385,-18.072 -0.815,-2.922 -2.339,-2.303 -3.721,-2.392 -0.463,0.818 -1.141,2.058 -0.607,3.234 0.915,2.015 1.14,4.437 0.74,6.732 -0.221,-1.196 -0.709,-2.126 -1.462,-2.79 -0.448,6.898 -2.384,10.608 -4.119,14.749 0.157,-3.106 0.453,-6.132 -0.664,-9.966 -0.532,0.842 -1.063,1.152 -1.595,0.93 1.864,-3.441 1.304,-7.229 0.665,-11.028 -0.346,-2.323 -0.5,-3.109 -0.665,-3.987 -0.475,15.282 -3.619,23.45 -5.713,34.416 -0.842,2.198 -1.683,3.052 -2.525,3.986 -0.737,0.249 -1.125,0.15 -0.266,-1.196 1.721,-4.859 7.544,-20.862 7.574,-37.073 -1.085,4.109 -2.325,7.675 -4.119,9.302 -0.052,4.584 -0.987,10.828 -2.427,13.487 -0.119,0.219 -0.412,0.439 -0.325,0.671 1.191,3.148 -0.664,7.679 -1.5,11.354 -0.022,0.111 -0.044,0.222 -0.067,0.333 -1.001,2.331 -1.73,4.702 -1.49,7.21 -1.337,-0.298 -1.289,-1.463 -1.195,-2.655 -3.254,5.292 -6.507,7.301 -9.761,9.361 1.817,-2.85 3.657,-5.656 5.113,-9.229 -1.118,-0.099 -2.114,0.653 -3.054,1.793 10.098,-15.183 5.61,-18.797 7.104,-27.156 -0.012,-0.838 -0.091,-1.588 -0.636,-1.714 -1.833,10.142 -2.901,21.219 -8.106,27.239 -1.794,2.381 -3.344,3.422 -4.783,3.854 11.054,-9.658 9.637,-22.832 13.952,-36.276 -0.233,-0.907 -0.521,-1.262 -0.931,-0.398 -0.487,2.037 -0.974,4.075 -1.461,6.112 -0.383,-0.941 -0.593,-1.016 -0.797,-1.063 -1.571,2.722 -1.174,6.568 -1.329,10.099 -0.355,-2.037 -0.797,-3.1 -1.329,-3.189 -1.444,12.18 -5.331,12.142 -8.371,16.344 0.841,-2.702 0.885,-4.518 0.133,-5.448 -1.185,1.383 -2.492,2.159 -3.854,2.657 6.094,-5.316 7.506,-12.569 7.308,-16.344 -0.089,-3.099 -0.797,-3.542 -2.126,-1.329 2.281,-6.554 3.344,-11.559 1.728,-13.154 -0.822,-0.236 -1.371,1.165 -1.993,2.126 0.41,-1.191 0.204,-3.287 1.451,-3.372 1.877,-0.129 1.526,-5.03 2.136,-8.056 -5.433,9.134 -8.007,17.795 -10.763,25.778 -0.221,-0.177 -0.443,-0.354 -0.664,-0.531 2.687,-7.905 5.501,-15.792 9.434,-23.519 -1.55,1.263 -3.1,2.425 -4.651,5.315 -0.256,2.419 -1.28,3.495 -2.258,4.65 0.355,-1.018 0.621,-2.037 0.265,-3.056 -1.798,3.897 -4.069,4.252 -6.245,5.315 1.898,-2.146 4.782,-5.023 4.815,-8.324 0.02,-1.922 0.758,-3.054 2.095,-4.432 -0.7,-3.187 1.151,-5.736 2.657,-8.371 -1.111,-1.662 -0.666,-3.167 0,-4.651 -1.907,6.008 -4.665,7.766 -7.308,10.099 -1.571,-0.355 0.11,-0.709 -0.067,-1.196 3.611,-2.695 5.095,-6.282 6.578,-10.365 -0.266,-0.177 -0.532,-0.354 -0.797,-0.531 -2.039,4.237 -3.456,5.518 -4.784,6.378 0.753,-1.373 1.152,-2.923 1.196,-4.651 0.613,-6.258 5.434,-7.886 8.637,-11.294 0.443,-0.355 0.443,-0.709 0,-1.063 -7.032,2.79 -7.454,1.086 -9.567,0.531 2.906,0.339 5.818,0.611 8.903,-1.19601 -4.521,-0.379 -6.162,-3.252 -7.973,-5.979 4.319,3.232 8.748,3.807 13.421,-1.462 -7.129,0.92 -9.11,-0.175 -11.959,-0.93 3.881,0.722 7.989,0.65 12.224,0.133 -6.972,-1.196 -10.12,-2.392 -10.896,-3.588 4.264,1.378 9.209,-1.069 10.365,-2.259 -3.731,0.176 -5.639,-1.655 -7.574,-3.455 1.772,0.822 3.543,1.443 5.315,0.665 -1.687,-0.796 -1.818,-2.214 -1.727,-3.721 1.639,2.303 3.455,3.72 5.448,4.252 -1.871,-1.91 -2.691,-3.715 -2.791,-5.448 2.259,2.358 4.518,3.133 6.777,1.595 1.58,-2.255 3.194,-4.382 5.846,-2.525 0.964,1.804 3.024,1.782 5.581,0.93 5.005,-2.44 10.01,-3.303 15.015,5.448 1.828,2.88 2.205,7.088 0.133,12.092 0.823,5.28401 3.897,3.814 7.043,2.126 0.398,-0.531 0.797,-1.063 1.196,-1.594 2.17,1.371 4.872,0.707 8.105,-1.993 0.886,-0.753 1.772,-1.506 2.658,-2.259 1.565,-3.514 1.552,-7.479 5.315,-10.365 1.536,-2.172 2.294,-4.166 -2.392,-4.916 -0.487,-0.487 -0.974,-0.975 -1.462,-1.462 2.083,1.495 4.378,0.015 6.644,-1.063 2.063,-2.425 0.236,-4.219 -4.252,-5.581 2.813,0.887 9.436,-0.962 5.315,-5.182 -1.284,-0.177 -2.569,-0.354 -3.853,-0.532 2.756,-0.509 5.588,-0.527 7.972,-3.454 0.247,-1.128 -0.596,-3.033 -1.594,-5.05 3.012,4.206 5.581,4.693 7.707,1.462 3.543,-0.709 7.087,-1.417 10.63,-2.126 z"
         inkscape:connector-curvature="0"
         id="path18"
         style="fill:#2c2c2b;fill-rule:evenodd;stroke:#1f211d;stroke-width:0.28601599" />
      <path
         d="m 394.85628,466.78512 c 1.793,2.257 1.395,4.758 0,7.37 2.031,-0.09 3.591,0.643 4.913,1.792"
         inkscape:connector-curvature="0"
         id="path20"
         style="fill:none;stroke:#ffffff;stroke-width:1.00005996" />
      <path
         d="m 395.91828,470.37012 c 2.125,0.399 3.165,0.155 4.582,-0.863"
         inkscape:connector-curvature="0"
         id="path22"
         style="fill:none;stroke:#ffffff;stroke-width:1.00005996" />
      <path
         d="m 401.76128,466.51912 c 0.796,0.4 1.637,0.688 2.789,0.199 1.173,-0.966 2.346,-0.781 3.519,-0.664"
         inkscape:connector-curvature="0"
         id="path24"
         style="fill:none;stroke:#ffffff;stroke-width:1.00005996" />
      <path
         d="m 404.84928,466.71812 c 0.311,0 0.564,0.164 0.564,0.366 0,0.201 -0.253,0.365 -0.564,0.365 -0.312,0 -0.565,-0.164 -0.565,-0.365 0,-0.202 0.253,-0.366 0.565,-0.366 z"
         inkscape:connector-curvature="0"
         id="path26"
         style="fill:#ffffff;fill-rule:evenodd;stroke:#ffffff;stroke-width:1.00005996" />
      <path
         d="m 405.54628,472.16312 c 2.523,-0.109 5.046,-0.373 7.569,-1.726 2.376,-0.963 5.703,0.075 6.905,2.722 0.08,-4.18 -1.003,-7.467 -6.241,-7.569 -3.921,1.733 -7.516,3.594 -8.233,6.573 z"
         inkscape:connector-curvature="0"
         id="path28"
         style="fill:#ffffff;fill-rule:evenodd;stroke:#1f211d;stroke-width:0.28601599" />
      <path
         d="m 412.75028,467.31612 c 0.311,0 0.564,0.104 0.564,0.232 0,0.129 -0.253,0.233 -0.564,0.233 -0.312,0 -0.565,-0.104 -0.565,-0.233 0,-0.128 0.253,-0.232 0.565,-0.232 z"
         inkscape:connector-curvature="0"
         id="path30"
         style="fill:#2c2c2b;fill-rule:evenodd;stroke:#1f211d;stroke-width:0.28601599" />
      <path
         d="m 405.77928,472.24412 c 0.033,-0.005 0.066,-0.01 0.099,-0.015 2.605,4.184 8.569,3.754 11.022,3.254 -4.099,1.312 -8.154,3.021 -12.616,1.062 -1.198,-1.277 -2.02,-2.664 -0.208,-4.826 0.568,0.175 1.135,0.35 1.703,0.525 z"
         inkscape:connector-curvature="0"
         id="path32"
         style="fill:#ffffff;fill-rule:evenodd;stroke:#1f211d;stroke-width:0.28601599" />
      <path
         d="m 406.85828,473.50212 c 7.119,2.77 12.322,2.16 16.081,-0.994 -3.242,1.131 -6.526,2.118 -11.107,-1.393 -2.142,0.767 -4.17,1.024 -6.134,0.995 0.387,0.464 0.774,0.928 1.16,1.392 z"
         inkscape:connector-curvature="0"
         id="path34"
         style="fill:#e21c2a;fill-rule:evenodd;stroke:#1f211d;stroke-width:0.28601599" />
      <path
         d="m 388.15028,484.71212 c -0.488,2.502 -0.135,5.225 3.851,2.191"
         inkscape:connector-curvature="0"
         id="path36"
         style="fill:none;stroke:#1f211d;stroke-width:0.28601599" />
      <path
         d="m 388.94728,489.36012 c 0.46,4.399 1.232,7.509 4.183,1.593 1.77,0.975 3.187,0.355 4.249,-1.859"
         inkscape:connector-curvature="0"
         id="path38"
         style="fill:none;stroke:#1f211d;stroke-width:0.28601599" />
      <path
         d="m 397.64528,483.11812 c -1.395,2.923 -2.966,3.366 -4.714,1.328"
         inkscape:connector-curvature="0"
         id="path40"
         style="fill:none;stroke:#1f211d;stroke-width:0.28601599" />
      <path
         d="m 398.10928,490.68712 c -1.285,2.746 -0.444,4.074 2.523,3.984"
         inkscape:connector-curvature="0"
         id="path42"
         style="fill:none;stroke:#1f211d;stroke-width:0.28601599" />
      <path
         d="m 398.90628,496.13212 c 0.874,1.129 1.914,1.373 3.32,-0.332 0.275,2.583 1.561,4.035 4.847,3.253"
         inkscape:connector-curvature="0"
         id="path44"
         style="fill:none;stroke:#1f211d;stroke-width:0.28601599" />
      <path
         d="m 415.10728,500.51412 c -1.878,2.235 -3.867,4.205 -7.171,3.054 -1.849,2.847 -3.687,5.45901 -5.179,0.797 -4.47,4.44901 -7.436,4.55901 -8.897,0.332"
         inkscape:connector-curvature="0"
         id="path46"
         style="fill:none;stroke:#1f211d;stroke-width:0.28601599" />
      <path
         d="m 396.18428,497.72512 c -1.66,6.574 0.398,8.012 6.175,4.316"
         inkscape:connector-curvature="0"
         id="path48"
         style="fill:none;stroke:#1f211d;stroke-width:0.28601599" />
      <path
         d="m 394.19228,499.05312 c -2.589,0.93 -3.762,0.886 -3.519,-0.132"
         inkscape:connector-curvature="0"
         id="path50"
         style="fill:none;stroke:#1f211d;stroke-width:0.28601599" />
      <path
         d="m 392.00128,495.46812 c -0.177,1.195 -0.797,1.947 -1.859,2.257"
         inkscape:connector-curvature="0"
         id="path52"
         style="fill:none;stroke:#1f211d;stroke-width:0.28601599" />
      <path
         d="m 393.52828,494.33912 c 0.222,0.686 0.177,1.284 -0.133,1.793"
         inkscape:connector-curvature="0"
         id="path54"
         style="fill:none;stroke:#1f211d;stroke-width:0.28601599" />
      <path
         d="m 388.68128,497.72512 c -2.645,3.399 -4.792,4.527 -5.843,0.664"
         inkscape:connector-curvature="0"
         id="path56"
         style="fill:none;stroke:#1f211d;stroke-width:0.28601599" />
      <path
         d="m 384.56528,501.17812 c -2.548,4.33 -4.317,3.528 -5.976,1.992"
         inkscape:connector-curvature="0"
         id="path58"
         style="fill:none;stroke:#1f211d;stroke-width:0.28601599" />
      <path
         d="m 388.28328,500.78012 c -0.974,3.768 -2.899,4.509 -4.582,3.851"
         inkscape:connector-curvature="0"
         id="path60"
         style="fill:none;stroke:#1f211d;stroke-width:0.28601599" />
      <path
         d="m 379.58528,506.09112 c -0.31,2.67801 1.062,3.49701 4.116,2.45701 0.396,2.426 1.353,3.328 2.988,2.39"
         inkscape:connector-curvature="0"
         id="path62"
         style="fill:none;stroke:#1f211d;stroke-width:0.28601599" />
      <path
         d="m 386.62328,509.67713 c 1.029,-0.986 5.958,-2.05601 4.78,1.461"
         inkscape:connector-curvature="0"
         id="path64"
         style="fill:none;stroke:#1f211d;stroke-width:0.28601599" />
      <path
         d="m 393.06328,511.40313 c 0.329,0.007 0.611,-0.133 1.129,0.996"
         inkscape:connector-curvature="0"
         id="path66"
         style="fill:none;stroke:#1f211d;stroke-width:0.28601599" />
      <path
         d="m 389.41128,521.23013 c -3.297,0.531 -4.028,-1.063 -2.191,-4.781 -1.209,1.713 -2.553,2.205 -4.116,0.731 -3.453,0.642 -5.246,-0.044 -3.386,-3.652 -2.568,-0.354 -3.188,-2.036 -1.859,-5.046 -2.75,2.179 -5.189,3.717 -4.914,-0.33201"
         inkscape:connector-curvature="0"
         id="path68"
         style="fill:none;stroke:#1f211d;stroke-width:0.28601599" />
      <path
         d="m 390.80628,517.71113 c 0.575,0.509 1.151,1.018 1.726,1.527 0.288,0.199 0.575,0.398 0.863,0.598 3.386,2.357 5.932,0.719 7.901,-3.652"
         inkscape:connector-curvature="0"
         id="path70"
         style="fill:none;stroke:#1f211d;stroke-width:0.28601599" />
      <path
         d="m 400.03528,511.33713 c 0.819,4.681 3.563,5.832 8.631,2.722"
         inkscape:connector-curvature="0"
         id="path72"
         style="fill:none;stroke:#1f211d;stroke-width:0.28601599" />
      <path
         d="m 404.41728,509.27813 c 1.895,7.498 10.455,0.36 4.515,-3.58501"
         inkscape:connector-curvature="0"
         id="path74"
         style="fill:none;stroke:#1f211d;stroke-width:0.28601599" />
      <path
         d="m 409.26428,512.06713 c 4.515,2.9 6.817,0.664 6.905,-6.70601"
         inkscape:connector-curvature="0"
         id="path76"
         style="fill:none;stroke:#1f211d;stroke-width:0.28601599" />
      <path
         d="m 419.82128,509.27813 c -1.394,1.616 -2.789,1.815 -4.183,0.598"
         inkscape:connector-curvature="0"
         id="path78"
         style="fill:none;stroke:#1f211d;stroke-width:0.28601599" />
      <path
         d="m 416.70028,500.51412 c -1.77,3.519 -0.708,5.179 3.187,4.98 0.133,0.487 0.266,0.974 0.399,1.461"
         inkscape:connector-curvature="0"
         id="path80"
         style="fill:none;stroke:#1f211d;stroke-width:0.28601599" />
      <path
         d="m 407.33828,518.84013 c 1.694,-0.011 3.022,-0.631 4.183,-1.527 1.433,0.94 3.082,0.874 5.047,-0.664"
         inkscape:connector-curvature="0"
         id="path82"
         style="fill:none;stroke:#1f211d;stroke-width:0.28601599" />
      <path
         d="m 419.02428,514.78913 -1.261,1.328"
         inkscape:connector-curvature="0"
         id="path84"
         style="fill:none;stroke:#1f211d;stroke-width:0.28601599" />
      <path
         d="m 414.44328,519.23813 c 2.148,0.514 4.163,0.606 5.245,-2.258"
         inkscape:connector-curvature="0"
         id="path86"
         style="fill:none;stroke:#1f211d;stroke-width:0.28601599" />
      <path
         d="m 422.27828,501.31112 c 1.571,5.4 0.841,9.47201 -2.191,12.21701 1.937,-0.474 4.777,-2.841 3.519,-8.83101 -0.556,-3.193 -1.535,-2.707 -1.328,-3.386 z"
         inkscape:connector-curvature="0"
         id="path88"
         style="fill:#ffffff;fill-rule:evenodd;stroke:#1f211d;stroke-width:0.28601599" />
      <path
         d="m 425.86328,501.97512 c 3.517,6.24901 0.9,8.55701 -1.859,10.69001 -0.133,0.275 1.926,-0.169 3.917,-3.254 1.278,-3.52201 -0.995,-6.75201 -2.058,-7.43601 z"
         inkscape:connector-curvature="0"
         id="path90"
         style="fill:#ffffff;fill-rule:evenodd;stroke:#1f211d;stroke-width:0.28601599" />
      <path
         d="m 426.79328,502.24012 c 2.456,2.081 4.647,1.86 6.573,-0.664 1.361,1.982 3.087,0.986 4.98,-1.46 3.465,8.004 7.458,-2.93 0.73,-5.179"
         inkscape:connector-curvature="0"
         id="path92"
         style="fill:none;stroke:#1f211d;stroke-width:0.28601599" />
      <path
         d="m 436.75228,503.63512 c 1.373,3.143 1.528,5.84301 -0.996,7.56901 -3.772,1.203 -4.18,-3.41201 -2.921,-7.17101"
         inkscape:connector-curvature="0"
         id="path94"
         style="fill:none;stroke:#1f211d;stroke-width:0.28601599" />
      <path
         d="m 431.64028,508.48213 c -2.108,0.041 -2.504,1.171 -2.656,2.456"
         inkscape:connector-curvature="0"
         id="path96"
         style="fill:none;stroke:#1f211d;stroke-width:0.28601599" />
      <path
         d="m 427.45728,512.20013 c -0.996,3.076 -2.523,4.205 -4.582,3.386"
         inkscape:connector-curvature="0"
         id="path98"
         style="fill:none;stroke:#1f211d;stroke-width:0.28601599" />
      <path
         d="m 430.97628,511.20413 c 3.436,7.033 5.084,6.601 5.511,1.062"
         inkscape:connector-curvature="0"
         id="path100"
         style="fill:none;stroke:#1f211d;stroke-width:0.28601599" />
      <path
         d="m 439.74028,505.82612 c 5.046,3.56301 7.547,1.527 6.573,-6.241"
         inkscape:connector-curvature="0"
         id="path102"
         style="fill:none;stroke:#1f211d;stroke-width:0.28601599" />
      <path
         d="m 444.05628,494.33912 c 0.486,1.243 1.06,2.219 2.257,1.328 0.31,-0.044 0.62,-0.088 0.93,-0.133"
         inkscape:connector-curvature="0"
         id="path104"
         style="fill:none;stroke:#1f211d;stroke-width:0.28601599" />
      <path
         d="m 449.50028,490.75412 c -0.42,0.752 -0.841,1.505 -1.261,2.257 5.248,3.706 2.715,4.3 -0.93,4.449"
         inkscape:connector-curvature="0"
         id="path106"
         style="fill:none;stroke:#1f211d;stroke-width:0.28601599" />
      <path
         d="m 445.25128,489.42612 c -1.682,2.241 -3.519,2.305 -5.378,2.058"
         inkscape:connector-curvature="0"
         id="path108"
         style="fill:none;stroke:#1f211d;stroke-width:0.28601599" />
      <path
         d="m 447.90728,501.31112 c 1.824,1.071 3.708,2.736 5.71,5.577"
         inkscape:connector-curvature="0"
         id="path110"
         style="fill:none;stroke:#1f211d;stroke-width:0.28601599" />
      <path
         d="m 455.27728,497.32712 c 1.837,1.477 3.674,3.355 5.511,8.034"
         inkscape:connector-curvature="0"
         id="path112"
         style="fill:none;stroke:#1f211d;stroke-width:0.28601599" />
      <path
         d="m 459.59228,495.26912 c 1.306,1.804 2.767,3.066 4.25,4.249"
         inkscape:connector-curvature="0"
         id="path114"
         style="fill:none;stroke:#1f211d;stroke-width:0.28601599" />
      <path
         d="m 458.99528,492.87912 c 1.694,0.653 3.263,2.313 4.78,4.382 -0.452,-1.218 -0.916,-2.435 -1.726,-3.652 -0.797,-0.885 -1.549,-1.416 -2.257,-1.594 -0.62,-0.11 -0.885,0.178 -0.797,0.864 z"
         inkscape:connector-curvature="0"
         id="path116"
         style="fill:#ffffff;fill-rule:evenodd;stroke:#1f211d;stroke-width:0.28601599" />
      <path
         d="m 454.41428,484.64512 5.178,2.656"
         inkscape:connector-curvature="0"
         id="path118"
         style="fill:none;stroke:#1f211d;stroke-width:0.28601599" />
      <path
         d="m 450.76228,482.98512 c 0.93,1.284 0.797,2.568 -0.399,3.852 1.805,1.172 2.602,2.92 1.926,5.51"
         inkscape:connector-curvature="0"
         id="path120"
         style="fill:none;stroke:#1f211d;stroke-width:0.28601599" />
      <path
         d="m 446.97728,484.24712 c 1.462,1.284 1.506,2.567 0.133,3.851"
         inkscape:connector-curvature="0"
         id="path122"
         style="fill:none;stroke:#1f211d;stroke-width:0.28601599" />
      <path
         d="m 438.74428,482.32112 c 4.716,0.176 6.066,2.301 4.05,6.375"
         inkscape:connector-curvature="0"
         id="path124"
         style="fill:none;stroke:#1f211d;stroke-width:0.28601599" />
      <path
         d="m 443.06028,480.39612 1.327,2.457"
         inkscape:connector-curvature="0"
         id="path126"
         style="fill:none;stroke:#1f211d;stroke-width:0.28601599" />
      <path
         d="m 446.77828,481.59112 1.394,1.461"
         inkscape:connector-curvature="0"
         id="path128"
         style="fill:none;stroke:#1f211d;stroke-width:0.28601599" />
      <path
         d="m 434.29528,477.01012 c 7.198,-0.688 8.547,0.574 7.238,2.722"
         inkscape:connector-curvature="0"
         id="path130"
         style="fill:none;stroke:#1f211d;stroke-width:0.28601599" />
      <path
         d="m 405.48628,521.62013 c -0.997,2.601 -2.724,2.402 -4.783,0.93 -2.049,2.136 -3.975,2.203 -5.847,1.329 -2.746,1.859 -4.872,1.859 -6.378,0"
         inkscape:connector-curvature="0"
         id="path132"
         style="fill:none;stroke:#1f211d;stroke-width:0.28601599" />
      <path
         d="m 403.89228,526.27113 c -0.872,1.991 -1.777,3.883 -3.721,2.657 -1.373,1.406 -2.746,1.871 -4.119,0.266 -2.37,4.494 -4.496,3.874 -6.511,0.93 -3.206,2.947 -5.166,2.017 -6.777,0"
         inkscape:connector-curvature="0"
         id="path134"
         style="fill:none;stroke:#1f211d;stroke-width:0.28601599" />
      <path
         d="m 380.77128,531.98413 c -2.633,3.018 -5.827,3.712 -9.7,1.595"
         inkscape:connector-curvature="0"
         id="path136"
         style="fill:none;stroke:#1f211d;stroke-width:0.28601599" />
      <path
         d="m 377.05028,524.80913 -0.265,4.252"
         inkscape:connector-curvature="0"
         id="path138"
         style="fill:none;stroke:#1f211d;stroke-width:0.28601599" />
      <path
         d="m 376.65228,522.01913 c 0.387,1.373 1.162,2.126 3.322,0.664 -1.003,3.484 0.638,4.012 2.657,4.119"
         inkscape:connector-curvature="0"
         id="path140"
         style="fill:none;stroke:#1f211d;stroke-width:0.28601599" />
      <path
         d="m 382.76428,528.06513 -1.86,0.996"
         inkscape:connector-curvature="0"
         id="path142"
         style="fill:none;stroke:#1f211d;stroke-width:0.28601599" />
      <path
         d="m 404.68928,531.05413 c -2.226,1.616 -4.064,2.236 -5.049,0.665 -3.865,4.703 -7.343,7.35 -9.435,2.657"
         inkscape:connector-curvature="0"
         id="path144"
         style="fill:none;stroke:#1f211d;stroke-width:0.28601599" />
      <path
         d="m 406.54928,534.24313 c -3.388,6.033 -6.222,8.358 -7.84,2.525 -0.655,1.259 -1.426,1.708 -2.258,1.727"
         inkscape:connector-curvature="0"
         id="path146"
         style="fill:none;stroke:#1f211d;stroke-width:0.28601599" />
      <path
         d="m 391.13528,538.36213 c -2.634,1.1 -4.051,0.449 -3.853,-2.524"
         inkscape:connector-curvature="0"
         id="path148"
         style="fill:none;stroke:#1f211d;stroke-width:0.28601599" />
      <path
         d="m 406.68228,537.96413 c 1.094,5.416 -1.999,12.266 -4.518,4.651 -4.896,1.433 -4.363,0.035 -4.916,-0.798 -1.971,3.396 -4.097,3.526 -6.245,3.189"
         inkscape:connector-curvature="0"
         id="path150"
         style="fill:none;stroke:#1f211d;stroke-width:0.28601599" />
      <path
         d="m 380.50528,534.24313 c 1.082,2.11 3.564,1.576 6.245,0.665 -0.087,1.973 -1.436,4.941 -2.59,5.314 -3.399,1.228 -4.285,-0.122 -3.256,-3.321 -1.816,2.169 -3.012,1.858 -3.588,-0.93"
         inkscape:connector-curvature="0"
         id="path152"
         style="fill:none;stroke:#1f211d;stroke-width:0.28601599" />
      <path
         d="m 375.32328,536.23613 c -1.207,5.507 -3.045,6.493 -5.315,4.385 -1.417,1.505 -2.746,1.683 -3.986,0.532"
         inkscape:connector-curvature="0"
         id="path154"
         style="fill:none;stroke:#1f211d;stroke-width:0.28601599" />
      <path
         d="m 369.74228,535.57213 c -0.565,1.185 -1.14,2.32 -2.063,1.897 -1.549,3.42 -3.999,4.137 -6.175,5.677"
         inkscape:connector-curvature="0"
         id="path156"
         style="fill:none;stroke:#1f211d;stroke-width:0.28601599" />
      <path
         d="m 369.21128,516.96913 -1.595,5.714"
         inkscape:connector-curvature="0"
         id="path158"
         style="fill:none;stroke:#1f211d;stroke-width:0.28601599" />
      <path
         d="m 369.60928,522.01913 c 0.046,3.984 2.039,4.515 5.98,1.594"
         inkscape:connector-curvature="0"
         id="path160"
         style="fill:none;stroke:#1f211d;stroke-width:0.28601599" />
      <path
         d="m 374.52628,526.80213 c -1.905,2.612 -3.809,2.656 -5.714,0.133"
         inkscape:connector-curvature="0"
         id="path162"
         style="fill:none;stroke:#1f211d;stroke-width:0.28601599" />
      <path
         d="m 367.08428,525.67313 c -3.45,0.884 -4.917,-2.437 -3.321,-5.648"
         inkscape:connector-curvature="0"
         id="path164"
         style="fill:none;stroke:#1f211d;stroke-width:0.28601599" />
      <path
         d="m 362.56728,524.94213 c -0.104,0.703 0.256,1.075 0.152,1.779 1.279,3.737 -1.143,6.188 -1.747,8.984"
         inkscape:connector-curvature="0"
         id="path166"
         style="fill:none;stroke:#1f211d;stroke-width:0.28601599" />
      <path
         d="m 367.21828,527.73213 c -0.695,4.708 -1.83,7.653 -3.057,10.232"
         inkscape:connector-curvature="0"
         id="path168"
         style="fill:none;stroke:#1f211d;stroke-width:0.28601599" />
      <path
         d="m 360.50728,543.34513 c -1.905,-0.291 -3.449,-3.114 -4.451,-4.85"
         inkscape:connector-curvature="0"
         id="path170"
         style="fill:none;stroke:#1f211d;stroke-width:0.28601599" />
      <path
         d="m 360.04228,524.94213 c -0.025,1.345 0.206,2.82 -0.456,4.047 l -0.474,3.793"
         inkscape:connector-curvature="0"
         id="path172"
         style="fill:none;stroke:#1f211d;stroke-width:0.28601599" />
      <path
         d="m 357.51728,525.47313 c -1.02,3.3 -1.108,6.755 -1.063,10.232"
         inkscape:connector-curvature="0"
         id="path174"
         style="fill:none;stroke:#1f211d;stroke-width:0.28601599" />
      <path
         d="m 354.32828,537.56513 c 0.82,0.354 1.462,0.089 1.927,-0.796"
         inkscape:connector-curvature="0"
         id="path176"
         style="fill:none;stroke:#1f211d;stroke-width:0.28601599" />
      <path
         d="m 352.29628,535.50513 c 0.929,1.24 2.036,1.24 3.32,0"
         inkscape:connector-curvature="0"
         id="path178"
         style="fill:none;stroke:#1f211d;stroke-width:0.28601599" />
      <path
         d="m 355.15128,530.39313 c -0.963,-2.314 -2.291,-2.557 -3.785,-1.86"
         inkscape:connector-curvature="0"
         id="path180"
         style="fill:none;stroke:#1f211d;stroke-width:0.28601599" />
      <path
         d="m 348.24628,529.52913 c -2.346,0.775 -3.364,2.701 -3.055,5.777"
         inkscape:connector-curvature="0"
         id="path182"
         style="fill:none;stroke:#1f211d;stroke-width:0.28601599" />
      <path
         d="m 349.90628,533.91213 c 0.477,7.414 -0.431,8.596 -1.727,8.034"
         inkscape:connector-curvature="0"
         id="path184"
         style="fill:none;stroke:#1f211d;stroke-width:0.28601599" />
      <path
         d="m 407.13928,541.74613 c -1.374,5.556 -3.003,11.111 -3.253,16.666"
         inkscape:connector-curvature="0"
         id="path186"
         style="fill:none;stroke:#1f211d;stroke-width:0.28601599" />
      <path
         d="m 401.36328,542.61013 c -1.796,4.373 -2.764,8.684 -2.258,12.88"
         inkscape:connector-curvature="0"
         id="path188"
         style="fill:none;stroke:#1f211d;stroke-width:0.28601599" />
      <path
         d="m 397.71128,554.76013 0.531,6.374"
         inkscape:connector-curvature="0"
         id="path190"
         style="fill:none;stroke:#1f211d;stroke-width:0.28601599" />
      <path
         d="m 395.52028,548.45213 c -0.282,4.626 0.016,9.252 0.797,13.877"
         inkscape:connector-curvature="0"
         id="path192"
         style="fill:none;stroke:#1f211d;stroke-width:0.28601599" />
      <path
         d="m 392.20028,549.38213 -1.527,8.897 -1.793,7.769"
         inkscape:connector-curvature="0"
         id="path194"
         style="fill:none;stroke:#1f211d;stroke-width:0.28601599" />
      <path
         d="m 346.22328,513.78013 c -4.139,8.024 -5.471,20.913 -6.91,33.618"
         inkscape:connector-curvature="0"
         id="path196"
         style="fill:none;stroke:#1f211d;stroke-width:0.28601599" />
      <path
         d="m 340.90828,517.23513 c -2.633,7.307 -3.923,15.016 -4.784,22.855"
         inkscape:connector-curvature="0"
         id="path198"
         style="fill:none;stroke:#1f211d;stroke-width:0.28601599" />
      <path
         d="m 336.39028,517.89913 c -3.495,7.884 -6.712,15.893 -6.644,25.38"
         inkscape:connector-curvature="0"
         id="path200"
         style="fill:none;stroke:#1f211d;stroke-width:0.28601599" />
      <path
         d="m 331.60628,517.36813 c -2.308,1.678 -3.357,4.227 -3.363,7.499 -0.607,3.435 -1.7,5.409 -3.015,6.719"
         inkscape:connector-curvature="0"
         id="path202"
         style="fill:none;stroke:#1f211d;stroke-width:0.28601599" />
      <path
         d="m 343.03428,507.40212 c -2.026,0.88501 -2.713,0.31 -2.791,-0.93 -0.796,1.86401 -1.904,2.17201 -3.056,2.25901"
         inkscape:connector-curvature="0"
         id="path204"
         style="fill:none;stroke:#1f211d;stroke-width:0.28601599" />
      <path
         d="m 338.91528,508.46513 c 0.974,0.399 1.239,1.684 0.797,3.853"
         inkscape:connector-curvature="0"
         id="path206"
         style="fill:none;stroke:#1f211d;stroke-width:0.28601599" />
      <path
         d="m 395.32128,512.79813 c 0.332,1.515 -0.066,2.666 -0.797,3.651"
         inkscape:connector-curvature="0"
         id="path208"
         style="fill:none;stroke:#1f211d;stroke-width:0.28601599" />
      <path
         d="m 356.61228,513.59413 c -0.307,5.294 0.433,8.572 4.913,4.648"
         inkscape:connector-curvature="0"
         id="path210"
         style="fill:none;stroke:#1f211d;stroke-width:0.28601599" />
      <path
         d="m 355.35028,515.91813 c -4.935,3.807 -2.545,10.137 4.648,5.843"
         inkscape:connector-curvature="0"
         id="path212"
         style="fill:none;stroke:#1f211d;stroke-width:0.28601599" />
      <path
         d="m 350.32934,485.96001 c 6.866,0.142 13.368,0.218 20.235,0.36 9.794,4.14 11.557,13.198 6.473,18.142 -2.565,1.711 -7.22,2.387 -8.599,-6.685 0.4,-5.25 -0.133,-8.351 -3.295,-9.774 -3.995,-1.202 -5.989,2.148 -6.355,4.025 -0.717,4.512 4.13,6.247 6.765,3.852 2.835,-3.144 -1.749,-6.607 -3.051,-3.637 0.214,-0.203 3.871,0.225 1.927,2.373 -2.188,1.625 -3.878,0.414 -4.414,-0.786 -0.447,-1.517 0.31,-5.408 5.192,-4.625 1.444,0.534 3.082,1.984 2.612,5.474 -0.677,3.2 -0.292,8.39 0.49,9.945 0.416,2.348 7.57,7.802 12.517,-2.405 2.459,-6.07 -0.275,-10.975 -5.369,-15.351 3.038,1.046 4.552,3.104 11.074,1.838 2.248,-1.027 4.786,-1.729 7.612,-2.107 0.2,0.007 0.401,0.014 0.602,0.02 -0.103,-0.019 -0.206,-0.038 -0.309,-0.058 0.113,-0.014 0.227,-0.028 0.341,-0.041 -0.221,-0.008 -0.441,-0.015 -0.661,-0.023 -2.793,-0.57 -5.275,-1.445 -7.447,-2.623 -6.421,-1.71 -8.072,0.239 -11.174,1.074 5.382,-4.016 8.445,-8.722 6.408,-14.946 -4.236,-10.522 -11.747,-5.572 -12.322,-3.257 -0.887,1.497 -1.627,6.648 -1.171,9.887 0.229,3.514 -1.504,4.849 -2.982,5.282 -4.924,0.447 -5.412,-3.487 -4.862,-4.969 0.617,-1.161 2.386,-2.254 4.457,-0.483 1.793,2.276 -1.885,2.453 -2.084,2.236 1.095,3.052 5.906,-0.089 3.293,-3.419 -2.465,-2.571 -7.42,-1.172 -7.014,3.379 0.237,1.898 1.996,5.376 6.065,4.451 3.252,-1.203 3.996,-4.26 3.957,-9.525 1.997,-8.957 6.595,-7.963 9.037,-6.08 4.789,5.343 3.059,14.143 -7.53,17 -6.739,-0.323 -13.629,-0.067 -20.385,-0.321 l -0.877,-1.041 c 0.104,-6.982 0.866,-14.248 0.933,-21.223 3.464,-10.408 12.349,-11.627 17.407,-6.538 1.738,2.546 2.466,7.193 -6.592,8.671 -5.253,-0.342 -8.348,0.225 -9.736,3.402 -1.159,4.008 2.212,5.965 4.094,6.311 4.519,0.667 6.201,-4.199 3.777,-6.807 -3.174,-2.801 -6.587,1.821 -3.603,3.09 -0.205,-0.211 0.183,-3.873 2.352,-1.952 1.649,2.17 0.456,3.873 -0.738,4.422 -1.512,0.464 -5.411,-0.25 -4.682,-5.141 0.519,-1.45 1.951,-3.103 5.446,-2.671 3.207,0.641 8.392,0.2 9.938,-0.6 2.345,-0.441 7.719,-7.654 -2.541,-12.49 -6.096,-2.392 -10.971,0.395 -15.29,5.537 1.012,-3.049 3.053,-4.586 1.716,-11.094 -1.051,-2.236 -1.781,-4.765 -2.19,-7.586 0.005,-0.22 0.01,-0.441 0.016,-0.661 -0.02,0.113 -0.04,0.226 -0.061,0.338 -0.014,-0.104 -0.028,-0.208 -0.041,-0.312 -0.004,0.201 -0.009,0.402 -0.014,0.603 -0.54,2.799 -1.387,5.292 -2.542,7.477 -1.64,6.439 0.327,8.068 1.196,11.162 -4.075,-5.338 -8.814,-8.351 -15.015,-6.246 -10.475,4.351 -5.444,11.808 -3.123,12.358 1.507,0.87 6.666,1.554 9.9,1.063 3.511,-0.268 4.865,1.451 5.315,2.923 0.499,4.919 -3.428,5.451 -4.917,4.917 -1.167,-0.605 -2.279,-2.362 -0.531,-4.452 2.257,-1.817 2.473,1.859 2.259,2.06 3.039,-1.128 -0.154,-5.905 -3.455,-3.255 -2.544,2.492 -1.091,7.431 3.455,6.976 1.895,-0.258 5.354,-2.055 4.384,-6.113 -1.237,-3.239 -4.303,-3.949 -9.567,-3.853 -8.978,-1.9 -8.034,-6.508 -6.178,-8.97 5.228,-4.79 14.17,-2.508 17.739,7.508 -0.26,7.006 -0.519,14.145 -0.779,21.15 l -1.059,0.979 -0.552,0.066 c -6.282,-0.191 -12.638,-0.756 -18.894,-0.817 -10.407,-3.463 -11.626,-12.348 -6.537,-17.406 2.546,-1.739 7.193,-2.466 8.67,6.591 -0.341,5.254 0.225,8.349 3.402,9.737 4.009,1.158 5.966,-2.212 6.311,-4.094 0.668,-4.52 -4.198,-6.202 -6.807,-3.777 -2.8,3.174 1.822,6.586 3.091,3.603 -0.212,0.205 -3.873,-0.184 -1.952,-2.352 2.169,-1.649 3.872,-0.456 4.422,0.738 0.463,1.512 -0.251,5.41 -5.141,4.681 -1.45,-0.518 -3.104,-1.951 -2.672,-5.446 0.641,-3.207 0.2,-8.392 -0.599,-9.938 -0.441,-2.344 -7.654,-7.719 -12.49,2.541 -2.393,6.097 0.395,10.972 5.536,15.291 -3.049,-1.013 -4.585,-3.053 -11.093,-1.716 -2.237,0.575 -3.645,2.045 -6.466,2.563 -0.22,-0.005 0.681,-0.01 0.461,-0.015 0.112,0.019 -1.087,-0.055 -1.44,-0.034 0.269,0.153 1.384,0.263 -0.022,-0.003 1.595,0.237 0.345,0.192 0.546,0.011 2.678,0.6 4.164,1.37 6.78,2.31 6.438,1.639 8.068,-0.327 11.161,-1.196 -5.338,4.074 -8.35,8.813 -6.245,15.015 4.351,10.475 11.807,5.443 12.357,3.122 0.871,-1.507 1.554,-6.666 1.064,-9.899 -0.268,-3.511 1.45,-4.865 2.923,-5.315 4.919,-0.5 5.45,3.428 4.916,4.916 -0.604,1.168 -2.361,2.28 -4.451,0.531 -1.818,-2.256 1.858,-2.473 2.06,-2.258 -1.128,-3.04 -5.905,0.153 -3.256,3.455 2.492,2.543 7.432,1.091 6.976,-3.455 -0.257,-1.896 -2.055,-5.355 -6.112,-4.385 -3.239,1.238 -3.95,4.303 -3.854,9.567 -1.899,8.979 -6.507,8.035 -8.969,6.179 -4.79,-5.229 -2.509,-14.17 7.508,-17.739 6.662,0.247 12.662,0.56 19.325,0.806 l 0.898,0.931 c -0.081,7.115 -0.77,13.762 -0.839,20.875 -3.463,10.40701 -12.348,11.62601 -17.406,6.53701 -1.739,-2.54501 -2.466,-7.19301 6.591,-8.67001 5.254,0.342 8.349,-0.225 9.737,-3.402 1.158,-4.008 -2.212,-5.965 -4.094,-6.311 -4.52,-0.668 -6.202,4.198 -3.777,6.807 3.174,2.801 6.586,-1.822 3.603,-3.09 0.205,0.211 -0.183,3.872 -2.352,1.951 -1.649,-2.169 -0.456,-3.872 0.738,-4.421 1.512,-0.464 5.41,0.25 4.681,5.14 -0.518,1.451 -1.95,3.104 -5.446,2.672 -3.206,-0.641 -8.392,-0.2 -9.938,0.6 -2.344,0.44 -7.719,7.65401 2.541,12.48901 6.097,2.393 10.972,-0.395 15.291,-5.53601 -1.013,3.04901 -3.053,4.58501 -1.716,11.09301 1.051,2.237 1.781,4.766 2.189,7.587 -0.005,0.22 -0.01,0.44 -0.015,0.66 0.02,-0.113 0.04,-0.225 0.061,-0.337 0.014,0.103 0.027,0.207 0.04,0.311 0.005,-0.201 0.01,-0.401 0.014,-0.602 0.541,-2.8 1.388,-5.292 2.543,-7.477 1.639,-6.439 -0.327,-8.069 -1.196,-11.16201 4.074,5.33801 8.813,8.35001 15.015,6.24501 10.475,-4.35 5.443,-11.80701 3.122,-12.35701 -1.507,-0.871 -6.666,-1.554 -9.899,-1.063 -3.511,0.268 -4.865,-1.451 -5.315,-2.924 -0.5,-4.919 3.428,-5.45 4.916,-4.916 1.168,0.604 2.28,2.361 0.531,4.451 -2.256,1.818 -2.473,-1.858 -2.258,-2.059 -3.04,1.128 0.153,5.904 3.455,3.255 2.543,-2.492 1.091,-7.432 -3.455,-6.976 -1.896,0.257 -5.355,2.055 -4.385,6.112 1.238,3.239 4.304,3.95 9.567,3.854 8.979,1.899 8.035,6.50701 6.179,8.96901 -5.229,4.791 -14.17,2.509 -17.739,-7.50801 0.265,-7.151 0.397,-13.572 0.662,-20.724 l 1.07,-1.047 z"
         inkscape:connector-curvature="0"
         id="path214"
         style="fill:#e21c2a;fill-rule:evenodd;stroke:#1f211d;stroke-width:0.28601599" />
      <path
         d="m 356.57528,574.91713 c -4.144,2.45 -3.578,5.633 -1.861,10.633 -3.455,-1.683 -5.848,-1.24 -7.177,1.329 -9.521,-2.285 -12.056,3.115 -17.014,5.849 -2.216,0.003 -4.43,-1.64 -6.646,2.126 -2.02,1.949 -4.513,1.536 -6.912,1.595 3.336,0.266 6.808,0.532 7.975,0.798 -2.126,1.72 -4.253,2.288 -6.38,2.924 3.534,0.133 6.923,-0.31 10.102,-1.595 0,1.063 -0.532,1.772 -1.595,2.127 1.063,0 2.127,0 3.19,0 0.137,1.314 5.266,0.323 10.102,-0.532 3.012,0.709 3.721,1.95 2.127,3.722 -2.818,-0.357 -5.253,1.207 -7.71,2.658 -1.195,0.933 -2.702,0.932 -4.253,0.798 6.048,0 9.991,0.443 9.304,1.861 -0.62,2.392 -1.595,3.721 -2.924,3.987 -2.445,0.869 -3.473,2.21 -4.785,3.456 6.269,-1.019 9.858,-2.525 12.229,-4.253 5.847,-2.038 7.442,-1.772 4.785,0.797 -0.886,1.773 -1.773,3.545 -2.659,5.317 1.13,0.753 3.036,0.399 6.646,-2.392 -1.152,1.152 -2.304,2.303 -3.456,3.455 3.523,-1.971 6.048,-3.167 6.381,-2.658 -0.887,1.772 -1.773,3.545 -2.659,5.317 3.257,-1.184 5.96,-4.308 8.507,-7.975 -0.174,3.325 -1.593,5.717 -3.19,7.975 3.192,-1.724 6.206,-3.848 7.975,-8.773 0.353,-0.049 0.796,0.39 1.861,4.254 -0.044,2.706 -0.398,3.857 -0.798,4.785 -1.506,2.126 -3.013,1.89 -4.519,2.126 1.285,0.578 2.613,1.022 4.254,0.532 -2.105,1.816 -4.631,2.791 -7.444,3.19 4.076,0.266 7.266,2.081 11.165,-2.924 0.931,0.066 0.399,2.326 -0.797,5.583 3.168,-1.839 5.604,-5.871 7.709,-10.9 0.62,1.595 0.222,2.526 0.133,4.121 1.329,-0.621 3.323,-2.747 4.652,-5.849 -0.489,2.528 -0.757,5.764 0.532,6.513 1.334,-4.285 3.726,-5.925 5.848,-8.241 -0.809,5.516 -3.09,10.611 -6.38,15.419 2.836,-1.853 5.671,-4.255 8.507,-9.304 -0.543,3.433 -1.939,6.136 -3.722,8.506 2.304,-1.751 4.608,-3.552 6.912,-6.911 0.532,-2.127 1.063,-4.254 1.595,-6.381 0.984,0.805 2.057,1.451 1.595,4.786 1.463,-0.883 2.881,-2.121 3.988,-5.849 1.618,4.563 2.461,9.436 0.531,15.419 1.596,-1.773 3.191,-3.545 4.786,-5.317 2.495,1.6 4.957,3.257 6.38,6.646 0,-3.013 -0.532,-5.849 -1.595,-8.507 1.24,0.709 2.481,1.418 3.721,2.127 -1.394,-1.883 -2.816,-3.511 -3.357,-5.355 -1.225,-4.178 -2.652,-6.008 -4.352,-8.469 1.507,0.662 3.013,1.547 4.519,3.988 0.621,-1.949 1.418,-1.949 2.393,0 -1.311,-11.659 1.631,-7.726 3.722,-6.912 1.699,2.582 2.553,5.305 2.126,8.241 0.886,-0.047 1.772,0.129 2.659,1.861 1.27,-6.411 3.742,-3.204 5.848,-2.924 0.594,2.337 0.917,4.786 5.849,5.316 2.038,0.355 4.076,0.709 6.114,1.064 -3.284,-1.684 -4.7,-3.368 -5.849,-5.051 0.975,-1.418 3.014,-1.063 6.115,1.063 1.282,0.623 2.787,0.979 5.848,-0.532 -3.859,-0.216 -6.161,-2.61 -8.241,-5.316 2.304,-8e-4 4.076,-0.887 5.317,-2.659 -7.201,2.079 -9.025,-0.835 -11.165,-3.456 -1.529,-3.456 -0.864,-5.937 0.797,-7.975 1.718,-1.776 4.205,0.288 6.646,2.127 -0.111,-2.37 -0.775,-4.187 -2.658,-4.785 3.48,1.09 6.983,2.45 10.102,-0.798 8.139,3.082 12.45,0.636 17.279,-1.063 -3.721,-0.266 -6.025,-1.241 -6.912,-2.924 8.211,0.625 11.129,-0.618 13.292,-2.127 -2.465,0.235 -4.999,0.605 -6.38,-1.329 3.727,0.137 5.586,-1.283 7.178,-2.924 -4.431,1.461 -7.887,0.487 -10.899,-1.595 -3.544,1.416 -4.785,0.53 -3.722,-2.659 -14.464,4.047 -8.939,-0.412 -6.114,-3.722 -5.14,2.659 -8.064,3.545 -6.115,0.532 -4.799,0.005 -3.996,-1.858 -2.392,-3.987 -8.159,5.182 -10.556,3.451 -13.292,2.126 -6.389,1.221 -5.095,3.979 -4.254,6.646 0.177,2.747 -0.155,3.699 -1.396,2.193 -1.185,-0.27 -2.007,0.548 0.121,2.292 1.897,1.556 0.813,4.221 -1.383,3.49 -3.755,-1.312 -3.024,-4.277 -3.19,-6.911 -0.039,-9.957 -6.288,-8.363 -6.646,-8.507 -0.609,1.132 -0.91,2.277 -1.643,2.731 -0.68,0.421 -1.755,-1.001 -1.517,1.227 0.172,1.599 -1.247,1.678 -1.824,2.289 2.797,1.6 5.555,4.646 6.047,11.032 -1.287,1.865 -1.64,1.863 -1.861,1.595 -1.399,-1.308 -1.087,-2.149 -0.531,-2.924 -2.057,-7.675 -6.219,-3.565 -9.571,-3.988 -1.379,1.894 -2.254,3.866 -1.329,6.115 -0.122,0.243 -0.184,0.526 -0.365,0.721 -3.323,3.591 -4.577,7.821 -4.686,6.456 0.083,-2.203 0.637,-4.288 2.681,-6.365 1.087,-1.104 1.087,-2.848 1.041,-5.066 -1.187,-1.969 -2.291,-3.961 -0.797,-6.646 -1.447,-0.495 -3.305,-0.139 -3.542,-0.685 -0.532,-1.229 -1.007,-1.14 -1.41,-0.644 -0.661,0.815 -2.259,-0.066 -3.289,-0.266 -3.934,3.423 -3.158,7.122 -1.064,10.9 3.641,3.377 2.291,4.684 -1.329,5.051 -2.297,-7.556 -5.14,-6.905 -7.975,-6.38 -3.067,-2.57 -4.407,-5.14 -5.849,-7.71 0.221,-2.751 0.753,-3.635 1.33,-4.253 -1.314,0.785 -3.505,1.404 -3.445,0.294 0.069,-1.273 -1.199,-1.102 -1.327,-1.156 -1.023,-0.429 -1.59,-1.236 -2.406,-1.531 -4.439,5.615 -5.834,10.067 -0.532,11.963 1.132,1.041 2.063,2.06 1.595,2.924 -4.897,-3.105 -3.303,-1.213 -6.314,-4.985 1.001,-2.394 0.083,-3.873 -1.395,-4.319 -0.49,-2.062 0.837,-3.351 1.395,-5.982 -1.062,0.564 -1.793,-0.065 -2.796,-0.537 -1.389,-0.654 -2.849,-0.32 -3.916,-1.19 z"
         inkscape:connector-curvature="0"
         id="path216"
         style="fill:#2c2c2b;fill-rule:evenodd;stroke:#1f211d;stroke-width:0.28601599" />
      <path
         d="m 413.24828,576.33913 c -3.059,-5.219 -5.425,-4.204 -7.769,-2.988 2.31,1.261 4.993,2.177 4.914,5.644 1.396,0.559 2.17,-0.904 2.855,-2.656 z"
         inkscape:connector-curvature="0"
         id="path218"
         style="fill:#ffffff;fill-rule:evenodd;stroke:#1f211d;stroke-width:0.28601599" />
      <path
         d="m 408.06928,582.44713 c 1.107,-0.155 1.77,-0.929 1.992,-2.323 -2.047,-0.067 -3.486,-1.35 -4.648,-3.187 -0.122,2.457 0.476,4.47 2.656,5.51 z"
         inkscape:connector-curvature="0"
         id="path220"
         style="fill:#ffffff;fill-rule:evenodd;stroke:#1f211d;stroke-width:0.28601599" />
      <path
         d="m 410.39328,579.06113 c -0.68,-3.593 -3.538,-4.232 -6.706,-4.448 1.708,0.972 3.842,1.567 3.851,4.05 0.686,1.107 1.638,1.239 2.855,0.398 z"
         inkscape:connector-curvature="0"
         id="path222"
         style="fill:#e21c2a;fill-rule:evenodd;stroke:#1f211d;stroke-width:0.28601599" />
      <path
         d="m 414.41728,579.71013 c 0.262,-0.084 0.62,0.301 0.799,0.859 0.179,0.558 0.112,1.08 -0.15,1.164 -0.262,0.084 -0.619,-0.301 -0.798,-0.86 -0.18,-0.558 -0.113,-1.079 0.149,-1.163 z"
         inkscape:connector-curvature="0"
         id="path224"
         style="fill:#ffffff;fill-rule:evenodd;stroke:#1f211d;stroke-width:0.28601599" />
      <path
         d="m 357.31028,577.15813 c 0.367,0.141 0.4,0.905 0.074,1.704 -0.327,0.799 -0.89,1.333 -1.257,1.192 -0.367,-0.142 -0.4,-0.905 -0.074,-1.704 0.327,-0.8 0.89,-1.333 1.257,-1.192 z"
         inkscape:connector-curvature="0"
         id="path226"
         style="fill:#ffffff;fill-rule:evenodd;stroke:#1f211d;stroke-width:0.28601599" />
      <path
         d="m 391.84528,585.33413 c 0.274,-0.022 0.534,0.435 0.58,1.019 0.047,0.585 -0.138,1.077 -0.412,1.099 -0.274,0.021 -0.534,-0.436 -0.58,-1.02 -0.047,-0.585 0.138,-1.077 0.412,-1.098 z"
         inkscape:connector-curvature="0"
         id="path228"
         style="fill:#ffffff;fill-rule:evenodd;stroke:#1f211d;stroke-width:0.28601599" />
      <path
         d="m 369.63928,582.14413 c 0.314,0.201 0.221,0.908 -0.208,1.579 -0.429,0.671 -1.032,1.052 -1.346,0.851 -0.315,-0.201 -0.222,-0.909 0.207,-1.579 0.429,-0.671 1.032,-1.052 1.347,-0.851 z"
         inkscape:connector-curvature="0"
         id="path230"
         style="fill:#ffffff;fill-rule:evenodd;stroke:#1f211d;stroke-width:0.28601599" />
      <path
         d="m 390.60728,581.91613 c 0.066,-3.709 1.864,-5.34 3.718,-6.905 -0.709,3.265 -0.864,5.81 0.199,6.773 -0.973,0.933 -2.412,0.621 -3.917,0.132 z"
         inkscape:connector-curvature="0"
         id="path232"
         style="fill:#ffffff;fill-rule:evenodd;stroke:#1f211d;stroke-width:0.28601599" />
      <path
         d="m 397.84428,576.80413 c -0.16,2.338 -0.035,4.913 -1.328,6.307 0.775,0.222 1.549,0.443 2.324,0.664 0.942,-2.324 -0.239,-4.647 -0.996,-6.971 z"
         inkscape:connector-curvature="0"
         id="path234"
         style="fill:#ffffff;fill-rule:evenodd;stroke:#1f211d;stroke-width:0.28601599" />
      <path
         d="m 394.59028,581.85013 c -0.454,-1.881 -0.055,-3.519 0.731,-5.046 0.11,2.136 0.553,4.106 1.726,5.71 -0.155,0.243 -0.31,0.487 -0.465,0.73 -1.304,0.047 -1.598,-0.713 -1.992,-1.394 z"
         inkscape:connector-curvature="0"
         id="path236"
         style="fill:#e21c2a;fill-rule:evenodd;stroke:#1f211d;stroke-width:0.28601599" />
      <path
         d="m 368.43028,577.00313 c 0.442,-3.032 2.434,-5.046 4.582,-5.245 -1.043,2.678 -2.151,4.449 -1.594,6.772 -0.996,-0.509 -1.992,-1.018 -2.988,-1.527 z"
         inkscape:connector-curvature="0"
         id="path238"
         style="fill:#ffffff;fill-rule:evenodd;stroke:#1f211d;stroke-width:0.28601599" />
      <path
         d="m 372.14828,578.86213 c 1.926,-0.442 3.409,-2.213 4.449,-5.312 0.018,1.876 0.319,3.657 -0.797,5.91 -2.722,1.588 -3.762,1.178 -3.652,-0.598 z"
         inkscape:connector-curvature="0"
         id="path240"
         style="fill:#ffffff;fill-rule:evenodd;stroke:#1f211d;stroke-width:0.28601599" />
      <path
         d="m 371.41828,578.33113 c 1.107,-1.085 1.948,-2.789 2.523,-5.113 0.311,1.616 0.555,3.21 0.332,4.648 -2.396,1.488 -2.77,1.11 -2.855,0.465 z"
         inkscape:connector-curvature="0"
         id="path242"
         style="fill:#e21c2a;fill-rule:evenodd;stroke:#1f211d;stroke-width:0.28601599" />
      <path
         d="m 356.47928,574.67913 c 0.879,-6.191 2.727,-7.119 4.847,-6.573 -2.059,2.058 -2.523,4.294 -1.395,6.706 0.023,0.332 0.045,0.664 0.067,0.996 -2.867,-0.177 -3.663,-0.598 -3.519,-1.129 z"
         inkscape:connector-curvature="0"
         id="path244"
         style="fill:#ffffff;fill-rule:evenodd;stroke:#1f211d;stroke-width:0.28601599" />
      <path
         d="m 360.06428,575.07713 c 0.464,-0.488 1.016,-0.886 2.191,-0.664 1.275,-0.591 2.358,-2.526 3.453,-4.382 0,2.756 -0.553,5.124 -2.324,6.64 -1.107,0.531 -2.213,0.089 -3.32,-0.797 0,-0.265 0,-0.531 0,-0.797 z"
         inkscape:connector-curvature="0"
         id="path246"
         style="fill:#ffffff;fill-rule:evenodd;stroke:#1f211d;stroke-width:0.28601599" />
      <path
         d="m 359.33428,573.41813 c 0.342,-1.71 2.068,-3.005 4.183,-4.183 -1.195,1.792 -1.682,3.497 -1.461,5.112 -0.797,-0.066 -1.505,0.221 -2.125,0.863 -0.011,-0.691 -0.232,-1.278 -0.597,-1.792 z"
         inkscape:connector-curvature="0"
         id="path248"
         style="fill:#e21c2a;fill-rule:evenodd;stroke:#1f211d;stroke-width:0.28601599" />
      <path
         d="m 403.09428,624.33413 c -0.242,0.511 -0.596,0.91 -1.727,0.532 -1.284,-0.834 -2.569,-0.516 -3.853,-0.266 -1.709,-1.018 -2.018,-2.347 -2.126,-3.721 -0.512,1.056 -1.001,2.129 -0.798,3.721 0.974,1.329 0.797,2.48 -0.531,3.455 -0.941,0.974 -1.495,2.17 -1.196,3.853 1.304,-1.78 0.854,-3.331 6.777,-5.714 1.196,-0.486 2.391,-0.088 3.587,1.196 -0.044,-1.018 -0.088,-2.037 -0.133,-3.056 z"
         inkscape:connector-curvature="0"
         id="path250"
         style="fill:#ffffff;fill-rule:evenodd;stroke:#1f211d;stroke-width:0.28601599" />
      <path
         d="m 414.38928,625.59613 c 11.127,-2.751 12.612,0.171 12.756,2.99 0.716,-2.364 1.848,-4.784 -4.119,-6.245 -0.93,-0.62 -0.974,-1.329 -0.133,-2.126 -0.443,-0.975 -0.886,-1.949 -1.329,-2.923 -0.68,3.018 -1.71,5.532 -3.986,6.245 -1.373,0.133 -2.945,0.332 -4.318,0.465 0.399,0.488 0.731,1.107 1.129,1.594 z"
         inkscape:connector-curvature="0"
         id="path252"
         style="fill:#ffffff;fill-rule:evenodd;stroke:#1f211d;stroke-width:0.28601599" />
      <path
         d="m 328.81628,596.96113 c 4.872,-4.002 9.744,-5.962 14.617,-6.776"
         inkscape:connector-curvature="0"
         id="path254"
         style="fill:none;stroke:#ffffff;stroke-width:1.00005996" />
      <path
         d="m 343.96428,592.57613 c -3.896,1.347 -7.926,3.116 -12.889,7.84"
         inkscape:connector-curvature="0"
         id="path256"
         style="fill:none;stroke:#ffffff;stroke-width:1.00005996" />
      <path
         d="m 341.17428,599.88513 c 3.743,-1.323 7.021,-3.15 8.637,-6.777 1.329,1.372 3.632,1.594 6.909,0.664"
         inkscape:connector-curvature="0"
         id="path258"
         style="fill:none;stroke:#ffffff;stroke-width:1.00005996" />
      <path
         d="m 345.82428,597.36013 c 1.989,0.859 3.933,1.898 6.644,-0.133"
         inkscape:connector-curvature="0"
         id="path260"
         style="fill:none;stroke:#ffffff;stroke-width:1.00005996" />
      <path
         d="m 370.53928,594.57013 c -2.491,-2.801 -5.703,-3.886 -10.497,-1.196 -1.967,2.463 -4.099,3.612 -6.245,4.65"
         inkscape:connector-curvature="0"
         id="path262"
         style="fill:none;stroke:#ffffff;stroke-width:1.00005996" />
      <path
         d="m 370.80528,596.56313 c -1.351,2.159 -3.699,3.598 -8.238,3.455 -2.038,-0.028 -3.117,1.288 -4.252,2.524 -0.975,4.318 -3.751,4.131 -5.98,5.315 -3.06,-1.024 -4.254,0.13 -5.182,1.595 -1.062,1.751 -2.436,2.725 -3.853,3.588"
         inkscape:connector-curvature="0"
         id="path264"
         style="fill:none;stroke:#ffffff;stroke-width:1.00005996" />
      <path
         d="m 353.13328,616.22913 c 1.863,-2.261 2.482,-3.899 2.923,-5.448 0.62,0.227 1.24,0.171 1.86,-0.665"
         inkscape:connector-curvature="0"
         id="path266"
         style="fill:none;stroke:#ffffff;stroke-width:1.00005996" />
      <path
         d="m 356.12228,616.49413 c 1.767,-1.179 2.841,-3.604 3.721,-6.378 1.218,-1.109 2.458,-2.04 3.853,-1.728"
         inkscape:connector-curvature="0"
         id="path268"
         style="fill:none;stroke:#ffffff;stroke-width:1.00005996" />
      <path
         d="m 366.55328,608.78713 c -1.352,1.883 -1.928,3.92 -2.392,5.98 2.132,-1.134 4.07,-2.85 5.315,-6.644 1.949,0.84 3.278,-0.444 3.987,-3.853"
         inkscape:connector-curvature="0"
         id="path270"
         style="fill:none;stroke:#ffffff;stroke-width:1.00005996" />
      <path
         d="m 387.28228,596.56313 c -3.094,2.519 -6.345,4.869 -6.91,10.098 -3.332,1.032 -4.285,4.708 -5.846,7.707 -1.257,3.427 -2.996,6.051 -5.315,7.707"
         inkscape:connector-curvature="0"
         id="path272"
         style="fill:none;stroke:#ffffff;stroke-width:1.00005996" />
      <path
         d="m 369.34428,625.13113 c 3.307,-0.073 5.549,-2.276 6.909,-6.245 1.284,-0.487 1.86,-1.683 1.728,-3.588"
         inkscape:connector-curvature="0"
         id="path274"
         style="fill:none;stroke:#ffffff;stroke-width:1.00005996" />
      <path
         d="m 381.03728,609.05313 c 2.458,0.91 4.363,-0.951 6.112,-3.587 -1.454,2.236 -3.052,4.559 -3.588,6.245 -0.501,3.938 -2.024,5.494 -4.119,5.714"
         inkscape:connector-curvature="0"
         id="path276"
         style="fill:none;stroke:#ffffff;stroke-width:1.00005996" />
      <path
         d="m 385.68728,612.77413 c -0.308,2.55 -0.927,5.364 -2.657,5.248"
         inkscape:connector-curvature="0"
         id="path278"
         style="fill:none;stroke:#ffffff;stroke-width:1.00005996" />
      <path
         d="m 394.32428,604.80113 c -1.367,2.313 -2.639,3.351 -4.384,10.763"
         inkscape:connector-curvature="0"
         id="path280"
         style="fill:none;stroke:#ffffff;stroke-width:1.00005996" />
      <path
         d="m 397.42428,608.60713 c -1.704,2.873 -1.537,5.254 -1.662,9.966"
         inkscape:connector-curvature="0"
         id="path282"
         style="fill:none;stroke:#ffffff;stroke-width:1.00005996" />
      <path
         d="m 396.18528,605.33313 c 4.361,-0.887 5.778,-3.456 5.182,-7.176 2.347,0.956 3.542,-0.605 3.056,-5.846"
         inkscape:connector-curvature="0"
         id="path284"
         style="fill:none;stroke:#ffffff;stroke-width:1.00005996" />
      <path
         d="m 407.87828,598.02413 c 0.526,3.09 0.626,5.947 -0.797,7.973 -1.102,2.341 -1.605,4.745 0.664,7.441"
         inkscape:connector-curvature="0"
         id="path286"
         style="fill:none;stroke:#ffffff;stroke-width:1.00005996" />
      <path
         d="m 410.13728,603.73813 c -0.066,1.384 0.199,2.824 1.196,4.385 1.284,0.798 2.037,3.279 2.259,7.441"
         inkscape:connector-curvature="0"
         id="path288"
         style="fill:none;stroke:#ffffff;stroke-width:1.00005996" />
      <path
         d="m 401.89828,616.76013 c -1.771,-1.661 -1.593,-3.078 -0.531,-4.385 1.966,-2.058 1.16,-5.328 0.266,-8.637"
         inkscape:connector-curvature="0"
         id="path290"
         style="fill:none;stroke:#ffffff;stroke-width:1.00005996" />
      <path
         d="m 416.38228,596.96113 c -0.344,4.054 0.474,7.022 5.448,6.113 -0.774,4.24 0.112,7.761 4.651,9.7"
         inkscape:connector-curvature="0"
         id="path292"
         style="fill:none;stroke:#ffffff;stroke-width:1.00005996" />
      <path
         d="m 413.06028,600.54913 c -0.088,1.594 -0.354,2.569 -0.797,2.923"
         inkscape:connector-curvature="0"
         id="path294"
         style="fill:none;stroke:#ffffff;stroke-width:1.00005996" />
      <path
         d="m 422.36228,594.43713 c 0.62,0.752 1.24,0.796 1.86,0.133 -0.288,2.856 0.642,4.982 2.126,6.776"
         inkscape:connector-curvature="0"
         id="path296"
         style="fill:none;stroke:#ffffff;stroke-width:1.00005996" />
      <path
         d="m 427.14528,603.47213 c -0.576,0.487 -1.151,0.532 -1.727,0.133 -0.177,1.861 0.443,3.809 1.86,5.847"
         inkscape:connector-curvature="0"
         id="path298"
         style="fill:none;stroke:#ffffff;stroke-width:1.00005996" />
      <path
         d="m 430.46728,607.99013 c -0.157,1.285 -0.158,2.569 0.93,3.854 -0.52,1.97 -1.65,2.236 -3.056,1.727 0.782,0.527 1.631,1.009 1.329,2.259"
         inkscape:connector-curvature="0"
         id="path300"
         style="fill:none;stroke:#ffffff;stroke-width:1.00005996" />
      <path
         d="m 430.73328,614.10313 c 0.373,1.785 1.176,3.485 3.322,4.916"
         inkscape:connector-curvature="0"
         id="path302"
         style="fill:none;stroke:#ffffff;stroke-width:1.00005996" />
      <path
         d="m 431.39728,608.92013 c 1.368,2.436 2.84,4.03 4.385,5.05"
         inkscape:connector-curvature="0"
         id="path304"
         style="fill:none;stroke:#ffffff;stroke-width:1.00005996" />
      <path
         d="m 430.99928,599.75213 c -1.022,1.327 -1.776,2.788 -0.665,5.182"
         inkscape:connector-curvature="0"
         id="path306"
         style="fill:none;stroke:#ffffff;stroke-width:1.00005996" />
      <path
         d="m 427.01228,590.31813 c 3.79,-0.439 6.751,0.84 8.239,5.182"
         inkscape:connector-curvature="0"
         id="path308"
         style="fill:none;stroke:#ffffff;stroke-width:1.00005996" />
      <path
         d="m 435.78228,582.07913 c 4.603,2.701 4.072,3.897 -1.594,3.588"
         inkscape:connector-curvature="0"
         id="path310"
         style="fill:none;stroke:#ffffff;stroke-width:1.00005996" />
      <path
         d="m 436.44728,587.66013 c 3.098,1.152 1.947,5.136 -1.462,4.385 4.057,4.846 11.328,0.021 5.847,-2.79"
         inkscape:connector-curvature="0"
         id="path312"
         style="fill:none;stroke:#ffffff;stroke-width:1.00005996" />
      <path
         d="m 413.19328,580.75013 c -0.088,1.683 0.887,2.391 2.923,2.126"
         inkscape:connector-curvature="0"
         id="path314"
         style="fill:none;stroke:#ffffff;stroke-width:1.00005996" />
      <path
         d="m 392.59728,584.60413 c 1.14,2.103 0.941,3.477 0.133,4.518"
         inkscape:connector-curvature="0"
         id="path316"
         style="fill:none;stroke:#ffffff;stroke-width:1.00005996" />
      <path
         d="m 370.87228,582.47813 c -0.718,3.356 -0.87,2.63 -1.661,3.322"
         inkscape:connector-curvature="0"
         id="path318"
         style="fill:none;stroke:#ffffff;stroke-width:1.00005996" />
      <path
         d="m 358.31528,577.29613 c -0.045,2.037 -0.443,3.365 -1.196,3.986"
         inkscape:connector-curvature="0"
         id="path320"
         style="fill:none;stroke:#ffffff;stroke-width:1.00005996" />
      <path
         d="m 448.14028,596.69613 c -1.639,-0.576 -2.746,-1.152 -3.322,-1.728"
         inkscape:connector-curvature="0"
         id="path322"
         style="fill:none;stroke:#ffffff;stroke-width:1.00005996" />
      <path
         d="m 465.28128,589.25513 c -4.387,0.757 -8.151,-0.042 -11.826,-1.064"
         inkscape:connector-curvature="0"
         id="path324"
         style="fill:none;stroke:#ffffff;stroke-width:1.00005996" />
      <path
         d="m 458.37128,592.97513 c -3.41,0.354 -6.112,-0.177 -8.105,-1.594"
         inkscape:connector-curvature="0"
         id="path326"
         style="fill:none;stroke:#ffffff;stroke-width:1.00005996" />
    </g>
    <g
       id="g330" />
  </g>
</svg>
