<?xml version="1.0" encoding="UTF-8" standalone="no"?>

<svg
 xmlns="http://www.w3.org/2000/svg"
 version="1.1"
 width="720" height="432">
<path
 d="M0,0h720v432H0z"
 fill="#006"
/>

<path
 d="m 103.5,205.5 6,-23.5 6,23.5 23.5,-6.5 -17.5,17 17.5,17 -23.5,-6.5 -6,23.5 -6,-23.5 L 80,233 97.5,216 80,199 z m 0,144 6,-23.5 6,23.5 23.5,-6.5 -17.5,17 17.5,17 -23.5,-6.5 -6,23.5 -6,-23.5 L 80,377 97.5,360 80,343 z m 250.5,0 6,-23.5 6,23.5 23.5,-6.5 -17.5,17 17.5,17 -23.5,-6.5 -6,23.5 -6,-23.5 -23.5,6.5 17.5,-17 -17.5,-17 z m 250.5,0 6,-23.5 6,23.5 23.5,-6.5 -17.5,17 17.5,17 -23.5,-6.5 -6,23.5 -6,-23.5 L 581,377 598.5,360 581,343 z m 0,-144 6,-23.5 6,23.5 23.5,-6.5 -17.5,17 17.5,17 -23.5,-6.5 -6,23.5 -6,-23.5 L 581,233 598.5,216 581,199 z m 0,-144 6,-23.5 6,23.5 23.5,-6.5 -17.5,17 17.5,17 -23.5,-6.5 -6,23.5 -6,-23.5 -23.5,6.5 L 598.5,72 581,55 z m -251,0 6,-23.5 6,23.5 L 389,55 371.5,72 389,89 365.5,82.5 359.5,106 353.5,82.5 330,89 347.5,72 330,55 z m -250,0 6,-23.5 6,23.5 L 139,55 121.5,72 139,89 115.5,82.5 109.5,106 103.5,82.5 80,89 97.5,72 80,55 z m 125.25,216 6,-23.5 6,23.5 23.5,-6.5 -17.5,17 17.5,17 -23.5,-6.5 -6,23.5 -6,-23.5 -23.5,6.5 17.5,-17 -17.5,-17 z m 250.5,0 6,-23.5 6,23.5 23.5,-6.5 -17.5,17 17.5,17 -23.5,-6.5 -6,23.5 -6,-23.5 -23.5,6.5 17.5,-17 -17.5,-17 z m 0,-144 6,-23.5 6,23.5 23.5,-6.5 -17.5,17 17.5,17 -23.5,-6.5 -6,23.5 -6,-23.5 -23.5,6.5 17.5,-17 -17.5,-17 z m -250.5,0 6,-23.5 6,23.5 23.5,-6.5 -17.5,17 17.5,17 -23.5,-6.5 -6,23.5 -6,-23.5 -23.5,6.5 17.5,-17 -17.5,-17 z m 125.25,72 6,-23.5 6,23.5 23.5,-6.5 -17.5,17 17.5,17 -23.5,-6.5 -6,23.5 -6,-23.5 -23.5,6.5 17.5,-17 -17.5,-17 z" fill="#fff"/>

</svg>
