<?xml version="1.0" encoding="UTF-8" standalone="no"?>
<!-- Created with Inkscape (http://www.inkscape.org/) -->
<svg
   xmlns:dc="http://purl.org/dc/elements/1.1/"
   xmlns:cc="http://creativecommons.org/ns#"
   xmlns:rdf="http://www.w3.org/1999/02/22-rdf-syntax-ns#"
   xmlns:svg="http://www.w3.org/2000/svg"
   xmlns="http://www.w3.org/2000/svg"
   xmlns:sodipodi="http://sodipodi.sourceforge.net/DTD/sodipodi-0.dtd"
   xmlns:inkscape="http://www.inkscape.org/namespaces/inkscape"
   width="800"
   height="533.33002"
   id="svg2"
   sodipodi:version="0.32"
   inkscape:version="0.46"
   version="1.0"
   sodipodi:docname="Flag of Fort Wayne, Indiana.svg"
   inkscape:output_extension="org.inkscape.output.svg.inkscape">
  <defs
     id="defs4">
    <inkscape:perspective
       sodipodi:type="inkscape:persp3d"
       inkscape:vp_x="0 : 526.18109 : 1"
       inkscape:vp_y="0 : 1000 : 0"
       inkscape:vp_z="744.09448 : 526.18109 : 1"
       inkscape:persp3d-origin="372.04724 : 350.78739 : 1"
       id="perspective10" />
    <inkscape:perspective
       id="perspective2533"
       inkscape:persp3d-origin="372.04724 : 350.78739 : 1"
       inkscape:vp_z="744.09448 : 526.18109 : 1"
       inkscape:vp_y="0 : 1000 : 0"
       inkscape:vp_x="0 : 526.18109 : 1"
       sodipodi:type="inkscape:persp3d" />
  </defs>
  <sodipodi:namedview
     id="base"
     pagecolor="#ffffff"
     bordercolor="#666666"
     borderopacity="1.0"
     gridtolerance="10000"
     guidetolerance="10"
     objecttolerance="10"
     inkscape:pageopacity="0.0"
     inkscape:pageshadow="2"
     inkscape:zoom="0.51099514"
     inkscape:cx="349.64886"
     inkscape:cy="232.89977"
     inkscape:document-units="px"
     inkscape:current-layer="layer1"
     showgrid="false"
     width="800px"
     inkscape:window-width="1280"
     inkscape:window-height="952"
     inkscape:window-x="-4"
     inkscape:window-y="-4"
     showguides="false"
     inkscape:guide-bbox="true">
    <inkscape:grid
       type="xygrid"
       id="grid2383"
       visible="true"
       enabled="true" />
    <sodipodi:guide
       orientation="1,0"
       position="0,533.08594"
       id="guide2469" />
    <sodipodi:guide
       orientation="1,0"
       position="800,-0.234375"
       id="guide2471" />
    <sodipodi:guide
       orientation="0,1"
       position="800.58203,0"
       id="guide2473" />
    <sodipodi:guide
       orientation="1,0"
       position="400,277.33594"
       id="guide2547" />
    <sodipodi:guide
       orientation="0,1"
       position="-0.44140625,533.32812"
       id="guide3732" />
    <sodipodi:guide
       orientation="0,1"
       position="-239.44531,266.67188"
       id="guide3734" />
  </sodipodi:namedview>
  <metadata
     id="metadata7">
    <rdf:RDF>
      <cc:Work
         rdf:about="">
        <dc:format>image/svg+xml</dc:format>
        <dc:type
           rdf:resource="http://purl.org/dc/dcmitype/StillImage" />
      </cc:Work>
    </rdf:RDF>
  </metadata>
  <g
     inkscape:label="Layer 1"
     inkscape:groupmode="layer"
     id="layer1">
    <rect
       style="opacity:1;fill:#002868;fill-opacity:1;fill-rule:nonzero;stroke:none;stroke-width:2.50000000000000000;stroke-linecap:round;stroke-linejoin:miter;stroke-miterlimit:4;stroke-dasharray:none;stroke-dashoffset:0;stroke-opacity:1"
       id="rect3664"
       width="800"
       height="533.32812"
       x="0"
       y="0.0018970899" />
    <path
       style="opacity:1;fill:#ffffff;fill-opacity:1;fill-rule:nonzero;stroke:none;stroke-width:3;stroke-linecap:round;stroke-linejoin:miter;stroke-miterlimit:4;stroke-dasharray:none;stroke-dashoffset:0;stroke-opacity:1"
       d="M 0 0 L 278.09375 212.65625 C 270.76178 229.16946 266.65625 247.43413 266.65625 266.65625 C 266.65625 285.86825 270.76907 304.14988 278.09375 320.65625 L 0 533.34375 L 109.71875 533.34375 L 319.5 372.90625 C 341.87617 389.89227 369.76079 400 400 400 C 462.08704 400 514.31022 357.48185 529.125 300 L 800 300 L 800 233.34375 L 529.125 233.34375 C 514.3204 175.84707 462.09757 133.34375 400 133.34375 C 369.76558 133.34375 341.87437 143.42511 319.5 160.40625 L 109.71875 0 L 0 0 z "
       id="rect3300" />
    <g
       id="g3637">
      <path
         id="path3282"
         d="M 640.02509,371.6429 C 640.35629,372.34545 640.6709,372.79693 641.10142,374.11847 C 640.62885,373.44077 640.04092,373.40806 639.33316,373.14977 C 640.14416,374.209 640.17083,376.17517 640.27111,377.93177 C 640.45006,381.06658 641.58198,382.67513 642.79281,383.49797 C 645.00316,385.00007 647.03341,385.7781 649.54297,388.47987 C 650.16507,389.14962 650.63524,390.90011 649.81975,391.77038 C 649.407,392.21085 647.92652,391.12397 648.8818,389.66384 C 646.40653,390.30789 647.617,393.22127 646.80601,396.22949 C 643.39936,399.28906 640.38041,402.71666 637.70328,406.42393 C 635.10804,410.32738 634.48088,414.45917 635.58136,418.67878 C 636.86458,423.59909 641.10848,425.69718 646.72912,426.24388 C 647.00904,427.89041 647.86695,429.74159 650.45017,431.85621 C 652.45942,433.50095 652.72245,437.10056 651.17285,438.49874 C 649.08956,440.37845 647.15998,436.90634 646.71375,435.5465 C 646.13756,437.19696 646.30473,438.89038 647.15966,440.9128 C 646.24584,440.62624 645.48216,440.0681 645.02236,439.28292 C 644.93447,440.40867 645.13882,441.60272 646.05257,442.54269 C 644.8634,442.5329 643.97758,442.36131 643.26947,441.7585 C 643.28133,442.50622 643.90467,443.82605 644.53032,444.20332 C 643.93569,444.79892 643.3993,445.08528 642.70055,445.20277 C 642.76968,445.86712 643.06022,446.50713 643.66925,446.94029 C 643.44856,447.32694 643.03675,447.68892 642.65442,447.90899 C 642.79997,448.41397 643.08809,448.83332 643.45399,449.04683 C 643.98274,449.35538 644.72989,450.84468 644.03828,451.86068 C 643.50402,452.64551 642.84304,453.05075 641.80873,453.16766 C 644.76009,453.66273 646.64816,454.96876 646.4831,457.84203 C 648.56209,456.92245 649.8189,457.68744 650.57318,458.7031 C 650.09598,459.55551 650.58662,460.22974 651.35737,460.62513 L 650.98834,461.68609 C 652.28545,461.32626 652.56755,460.4492 652.58747,459.21052 C 652.96535,459.05697 653.38201,458.99222 653.80219,459.05675 C 653.83459,459.55422 653.96744,460.11646 655.01691,460.2561 L 654.86315,461.37856 C 655.36833,461.08868 656.40597,460.43429 656.00099,458.91837 C 656.20968,458.66413 656.48718,458.49764 656.80055,458.41095 C 657.01578,458.77605 657.37895,459.07519 658.23054,458.88762 L 658.46119,459.97933 C 659.35695,458.9963 659.37896,457.73476 658.53807,457.05784 C 658.22318,456.06379 657.58755,455.13025 655.93949,454.18249 C 654.99233,453.63781 654.37865,453.83263 653.61767,454.07486 C 651.15226,454.85963 648.81663,453.8008 647.83621,452.15283 C 646.8548,450.39668 646.88494,448.08894 647.77471,446.87878 C 648.98495,445.23278 650.54333,444.60042 651.95704,445.21815 C 653.32968,445.81792 654.80012,447.37102 653.41778,450.04628 C 655.09916,449.69371 656.26266,448.50638 656.75443,446.2176 C 656.76052,447.34406 657.79393,448.18004 658.81484,449.01608 C 658.61105,447.73477 658.72111,446.50429 659.26075,445.37191 C 659.71637,446.33112 660.11978,447.3076 662.16686,447.83211 C 661.33583,446.48102 661.19971,445.30475 661.76708,444.20332 C 663.04698,441.71859 665.12489,441.26091 665.90328,439.34443 C 666.69834,437.38693 667.05263,434.78387 666.62596,432.80953 C 668.31257,433.21754 671.23153,431.78086 670.8698,436.49983 C 672.57262,435.33484 673.70637,437.88467 671.76162,438.72938 C 672.91978,441.15322 670.57626,442.50208 669.13229,441.42022 C 670.7318,443.31075 670.52407,445.22022 668.65563,446.97104 C 670.07177,447.52094 671.30428,448.23786 671.76162,449.60037 C 673.77274,444.81262 681.08253,445.75952 683.14003,447.83211 C 683.18433,447.04585 683.60487,446.46018 684.17024,446.24836 C 684.4702,447.19338 685.35155,447.24861 686.15377,446.90953 L 686.72269,447.87824 C 687.24499,446.74376 686.83119,445.43199 685.61561,444.97213 C 685.74862,444.49568 686.03294,444.06323 686.39979,443.78816 C 686.72425,444.12202 687.1773,444.38727 688.0143,443.89579 L 688.58322,444.8645 C 689.19236,443.67149 688.51527,441.92632 687.07635,441.92764 C 687.13319,441.428 687.3688,440.93214 687.70677,440.5899 C 688.01953,440.83898 688.44553,440.97407 689.15214,440.55915 L 689.72106,441.51248 C 690.28295,440.36654 689.75553,438.80168 688.41408,438.57562 C 687.4335,437.54954 686.10346,436.76 685.12357,436.91499 C 683.86947,437.11333 682.79645,437.45859 683.07853,439.31368 C 683.74737,443.71235 679.61291,444.78206 676.98954,442.43505 C 674.70349,440.38982 676.59906,436.17022 679.48049,436.71509 C 678.86742,435.47648 678.68208,434.41196 679.26522,433.48609 C 679.80991,432.62129 680.97972,432.28421 681.63316,434.85457 C 682.17087,433.53213 682.59065,431.65006 681.8023,430.14945 C 680.56561,427.79548 681.00048,425.88848 682.74025,424.70626 C 677.86165,424.81857 678.01824,422.59995 678.55792,420.81607 C 673.84533,421.09497 671.27705,420.09999 669.76271,418.86329 C 673.69776,416.39693 677.3964,413.52288 676.40524,408.11531 C 677.80072,408.329 679.22213,408.78814 680.46457,410.49863 C 681.88511,412.45429 685.2154,413.09581 686.70732,411.55959 C 687.48584,410.75793 688.20959,410.8141 688.89074,411.26744 C 689.29108,410.22707 689.84901,409.31687 691.47395,409.39154 C 691.51413,410.05653 691.71834,410.65325 692.87318,410.76002 L 693.04232,411.85173 C 694.08632,411.22959 694.07451,410.32171 693.78038,409.31466 C 693.92305,409.75215 694.57996,410.36624 695.33338,410.02196 L 695.59478,411.11367 C 696.43352,410.4215 696.40644,409.21346 695.79467,408.33058 C 696.0903,408.58533 696.22409,408.97645 696.97864,408.82262 L 697.50143,409.8682 C 698.06556,408.32003 698.08883,406.46398 695.61015,406.16253 C 696.25375,406.07206 696.65096,405.78775 696.88638,405.37834 L 697.76283,405.73199 C 697.58507,403.78314 695.00154,403.50143 693.87264,403.64083 C 692.3716,403.82618 690.82799,404.85222 689.72106,405.63974 C 686.95542,407.60734 684.95651,407.53674 683.0324,406.62382 C 680.60639,405.47276 679.70613,404.33576 679.41899,403.21029 C 680.15712,402.99002 680.86771,402.45946 681.34101,401.48816 C 682.09484,399.94118 682.16308,398.36562 681.64854,396.81378 C 682.79702,396.29064 683.87986,395.12596 684.61615,393.04661 C 683.86115,392.61377 684.66229,391.22428 685.58485,390.81705 C 687.67262,389.8955 688.22653,388.01778 688.42946,386.88074 C 687.23016,386.28378 687.5141,384.05433 688.58322,383.62098 C 687.71132,383.05125 687.03109,382.353 687.61451,380.761 C 688.26505,380.83281 688.88588,380.73022 689.35203,379.60778 L 690.45912,379.62316 C 690.19149,378.48951 689.31705,378.34921 688.26032,378.46994 C 688.72493,378.40241 689.52184,377.85701 689.42891,377.05533 L 690.55137,376.97845 C 690.15156,376.03422 688.99239,375.86119 687.95279,376.31727 C 688.29027,376.06805 688.7084,375.99642 688.79848,375.22556 L 689.9517,374.88728 C 688.64432,374.07068 686.88535,373.73577 685.8155,376.13276 C 685.93143,375.48208 685.79579,375.04998 685.47722,374.7489 L 686.07689,373.93396 C 684.15147,373.78277 683.06971,376.28627 682.84788,377.42436 C 682.55292,378.9376 683.05614,380.64304 683.46293,381.86809 C 684.47927,384.92885 683.56081,386.57922 682.07907,388.3261 C 680.71686,389.93207 679.38716,389.89847 678.40415,390.1405 C 677.37053,390.395 676.49585,390.36506 675.69794,390.61716 C 673.76602,389.94331 672.18969,390.4792 670.45464,390.30964 C 668.5806,390.12649 668.55921,388.19143 669.70121,387.57267 C 671.30269,386.70495 672.43195,388.51246 673.17624,389.75609 C 674.72158,389.18662 674.89111,387.9204 675.22128,386.74235 C 673.01268,386.91308 671.01889,386.30468 670.00873,385.25086 C 668.13844,383.29968 669.61881,382.28861 671.94614,383.06743 C 673.05089,383.43714 674.91121,384.29599 675.29816,385.83516 C 675.93427,384.57575 677.40213,383.7906 678.77318,383.26733 C 678.16946,383.1685 677.20326,383.07556 677.11255,382.36013 L 677.28169,380.83788 C 677.79451,380.71148 678.13157,379.79103 676.72815,379.26951 C 674.8927,378.99363 673.57591,378.3989 672.93022,377.37823 C 672.29272,376.22314 671.2778,376.39047 670.36239,376.20964 C 667.6078,375.84764 667.16385,374.32217 666.7336,372.79611 C 665.09794,372.59225 664.45193,373.69999 663.67373,374.64126 C 663.32202,373.84035 663.56518,373.04348 663.9505,372.24257 C 661.78944,372.80422 659.69085,373.60912 658.2613,377.10146 C 657.89084,376.37505 657.76654,375.64445 658.13829,374.91803 C 651.7239,380.37429 652.14686,385.48053 653.63305,390.44802 C 653.93175,391.44641 654.68061,392.75869 653.90982,393.66166 C 653.24694,394.43823 652.25505,394.42107 651.44963,393.90768 C 652.94431,391.02973 652.85201,387.54658 647.77471,384.28216 C 646.52412,383.47808 645.68063,383.43785 644.96086,382.75991 C 644.09082,381.94043 644.1465,380.82198 644.53032,379.00811 C 644.82496,377.61566 644.03527,375.13725 642.83894,375.21018 C 642.12688,371.98676 641.13978,371.75424 640.02509,371.6429 z M 650.45017,395.46067 C 651.20987,396.83248 652.96929,397.57021 654.8324,397.21356 C 654.81614,398.05685 655.58544,399.20106 657.23109,400.18118 C 657.84336,400.54583 658.29234,401.047 658.5842,401.62654 C 658.71398,402.00661 658.83991,402.39145 658.95323,402.76438 C 658.9851,402.9538 659.0075,403.13985 659.01473,403.3333 C 659.04366,403.30868 659.06368,403.2813 659.09161,403.25642 C 659.46926,404.64312 659.64614,406.05613 659.26075,407.77703 C 658.35395,411.82626 655.44889,416.20133 652.40295,417.32567 C 649.51762,418.39072 647.55083,420.48104 646.86751,422.4152 C 642.91272,423.27962 639.04307,420.32116 638.25682,417.17191 C 637.79713,415.33067 637.25099,412.22566 640.45562,406.97747 C 642.55019,403.54724 645.62529,400.20901 648.359,397.73636 C 649.08553,397.07922 649.81153,396.30566 650.45017,395.46067 z"
         style="fill:none;fill-opacity:1;fill-rule:evenodd;stroke:#000000;stroke-width:2.5;stroke-linecap:butt;stroke-linejoin:miter;stroke-miterlimit:4;stroke-dasharray:none;stroke-opacity:1" />
      <path
         sodipodi:nodetypes="cccsssscccscsscccccccccssccccccccccccccsscsscccccsscccccccccccccccccccssscscsccccsscccccccccccccssscccsccccccccccccccssssccccsscsssssscc"
         id="path2428"
         d="M 640.02998,371.64634 C 640.3612,372.34889 640.67826,372.80367 641.10878,374.12521 C 640.63621,373.44751 640.03482,373.41542 639.32706,373.15713 C 640.13807,374.21637 640.1689,376.18226 640.26917,377.93885 C 640.44812,381.07366 641.57716,382.68003 642.78799,383.50287 C 644.99834,385.00497 647.03432,385.78818 649.54388,388.48994 C 650.16598,389.1597 650.64249,390.91018 649.827,391.78044 C 649.41425,392.22092 647.92961,391.1333 648.88489,389.67316 C 646.40963,390.31721 647.6164,393.23126 646.8054,396.23947 C 643.39877,399.29905 640.38356,402.71661 637.70643,406.42387 C 635.1112,410.32733 634.47765,414.45683 635.57813,418.67644 C 636.86135,423.59674 641.10177,425.70325 646.72241,426.24995 C 647.00232,427.89649 647.86372,429.74335 650.44694,431.85797 C 652.45619,433.50272 652.72387,437.10923 651.17428,438.5074 C 649.09098,440.38712 647.154,436.90921 646.70777,435.54938 C 646.13159,437.19984 646.30193,438.8905 647.15686,440.91293 C 646.24303,440.62637 645.48348,440.07487 645.02368,439.28969 C 644.9358,440.41543 645.13991,441.60599 646.05366,442.54596 C 644.86449,442.53617 643.97447,442.36649 643.26637,441.76367 C 643.27822,442.51139 643.90988,443.83105 644.53554,444.20832 C 643.9409,444.80392 643.40375,445.09313 642.70501,445.21062 C 642.77414,445.87497 643.05761,446.51316 643.66665,446.94632 C 643.44596,447.33297 643.03363,447.68945 642.65131,447.90951 C 642.79685,448.41449 643.08108,448.83031 643.44698,449.04382 C 643.97572,449.35237 644.72435,450.84894 644.03275,451.86495 C 643.49851,452.64978 642.83624,453.05837 641.80194,453.17528 C 644.75328,453.67034 646.65316,454.97128 646.48811,457.84455 C 648.56709,456.92498 649.81469,457.69429 650.56897,458.70995 C 650.09178,459.56237 650.5939,460.23117 651.36465,460.62656 L 650.98878,461.68264 C 652.28588,461.32281 652.56509,460.44734 652.58501,459.20866 C 652.9629,459.05511 653.37541,458.99745 653.7956,459.06198 C 653.82799,459.55946 653.9616,460.12511 655.01107,460.26475 L 654.86464,461.37461 C 655.36981,461.08472 656.41186,460.441 656.00688,458.92508 C 656.21558,458.67083 656.47942,458.50329 656.79279,458.4166 C 657.00801,458.7817 657.37634,459.07843 658.22794,458.89086 L 658.46712,459.98606 C 659.36287,459.00304 659.37147,457.73918 658.53058,457.06226 C 658.21568,456.06822 657.58173,455.13023 655.93366,454.18247 C 654.98652,453.63779 654.37108,453.83268 653.6101,454.07491 C 651.1447,454.85967 648.81091,453.7965 647.8305,452.14853 C 646.84907,450.39239 646.87727,448.0978 647.76704,446.88765 C 648.97727,445.24165 650.53671,444.60756 651.95042,445.22529 C 653.32305,445.82505 654.79231,447.37087 653.40997,450.04613 C 655.09133,449.69356 656.25709,448.51148 656.74886,446.22271 C 656.75495,447.34916 657.79279,448.17845 658.8137,449.01449 C 658.60992,447.73319 658.72315,446.51412 659.26279,445.38175 C 659.71843,446.34097 660.11528,447.31656 662.16236,447.84106 C 661.33133,446.48998 661.20448,445.30975 661.77184,444.20832 C 663.05174,441.72358 665.12314,441.26483 665.90153,439.34836 C 666.69658,437.39086 667.05064,434.78572 666.62398,432.81138 C 668.31059,433.21938 671.22766,431.77893 670.86594,436.4979 C 672.56876,435.33291 673.70398,437.8876 671.75924,438.73231 C 672.91738,441.15614 670.58189,442.49838 669.13791,441.41653 C 670.73742,443.30705 670.52797,445.22483 668.65953,446.97565 C 670.07568,447.52556 671.30189,448.23869 671.75924,449.60121 C 673.77035,444.81346 681.08034,445.76848 683.13784,447.84106 C 683.18215,447.0548 683.60245,446.45897 684.16782,446.24715 C 684.46778,447.19217 685.34745,447.25117 686.14967,446.91209 L 686.71592,447.88017 C 687.23821,446.7457 686.83807,445.43091 685.62248,444.97105 C 685.75551,444.49459 686.03179,444.07269 686.39864,443.79761 C 686.72309,444.13148 687.17251,444.39177 688.0095,443.90029 L 688.57575,444.86837 C 689.18489,443.67537 688.51119,441.92859 687.07227,441.9299 C 687.12911,441.43028 687.364,440.94225 687.70197,440.60002 C 688.01473,440.84909 688.44515,440.97093 689.15176,440.55601 L 689.718,441.5192 C 690.27989,440.37326 689.761,438.80191 688.41955,438.57585 C 687.43898,437.54977 686.09959,436.7634 685.1197,436.91839 C 683.8656,437.11673 682.80207,437.46393 683.08415,439.31903 C 683.753,443.7177 679.60572,444.79029 676.98236,442.44328 C 674.69629,440.39804 676.60511,436.17794 679.48654,436.72281 C 678.87347,435.48419 678.68861,434.41686 679.27176,433.49099 C 679.81643,432.62619 680.97604,432.28963 681.62948,434.85999 C 682.16719,433.53755 682.58869,431.6571 681.80034,430.15649 C 680.56364,427.80252 681.00756,425.89204 682.74733,424.70982 C 677.86872,424.82213 678.02427,422.60671 678.56394,420.82284 C 673.85134,421.10173 671.27708,420.09893 669.76274,418.86223 C 673.6978,416.39587 677.39752,413.53291 676.40636,408.12534 C 677.80184,408.33904 679.22525,408.78617 680.4677,410.49665 C 681.88825,412.45232 685.20937,413.09874 686.70129,411.56251 C 687.47981,410.76085 688.21678,410.81093 688.89793,411.26427 C 689.29827,410.2239 689.85038,409.32189 691.47532,409.39656 C 691.51549,410.06156 691.71656,410.64901 692.8714,410.75579 L 693.04225,411.85588 C 694.08624,411.23373 694.07836,410.32049 693.78423,409.31344 C 693.9269,409.75094 694.57333,410.37644 695.32675,410.03217 L 695.60011,411.1127 C 696.43884,410.42051 696.40226,409.21847 695.7905,408.33559 C 696.08613,408.59033 696.22212,408.97834 696.97667,408.82451 L 697.50387,409.86593 C 698.068,408.31776 698.08855,406.47108 695.60987,406.16962 C 696.25346,406.07915 696.64851,405.79675 696.88394,405.38734 L 697.76746,405.73448 C 697.5897,403.78562 694.99611,403.50735 693.86721,403.64675 C 692.36617,403.83211 690.82981,404.85895 689.72288,405.64647 C 686.95723,407.61408 684.95944,407.53236 683.03533,406.61944 C 678.13567,404.29472 679.41426,402.05331 679.53535,399.76955 L 679.97956,397.16355 C 681.67312,397.20207 683.52689,396.13487 684.61691,393.05655 C 683.86191,392.62371 684.66575,391.23425 685.58832,390.82703 C 687.67609,389.90548 688.22149,388.01353 688.42442,386.87648 C 687.22512,386.27952 687.5164,384.05356 688.58552,383.62021 C 687.71362,383.05048 687.0258,382.35198 687.60923,380.75998 C 688.25978,380.83179 688.88574,380.73343 689.35189,379.61099 L 690.45998,379.62566 C 690.19237,378.49201 689.31518,378.34617 688.25845,378.4669 C 688.72305,378.39936 689.52781,377.86535 689.43488,377.06367 L 690.55761,376.97567 C 690.15779,376.03144 688.9954,375.86443 687.9558,376.3205 C 688.29328,376.07129 688.70532,376.00594 688.79541,375.23508 L 689.95718,374.88305 C 688.6498,374.06645 686.88759,373.73772 685.81774,376.13471 C 685.93366,375.48404 685.78973,375.04724 685.47117,374.74615 L 686.07646,373.93453 C 684.15103,373.78335 683.06678,376.29717 682.84496,377.43526 C 682.54998,378.9485 683.05323,380.63991 683.46002,381.86496 C 684.47637,384.92572 683.5603,386.58172 682.07857,388.3286 C 680.71636,389.93457 679.38587,389.90538 678.40287,390.14742 C 676.66303,390.5758 675.38977,390.18385 674.13649,391.72177 L 664.03683,389.39936 L 657.34928,393.70682 L 658.25722,400.67896 C 659.05256,403.03966 659.88369,405.00566 659.26279,407.7782 C 658.356,411.82743 655.44545,416.20754 652.39951,417.33188 C 649.51418,418.39693 647.5473,420.48747 646.86398,422.42163 C 642.90918,423.28605 639.04427,420.32468 638.25803,417.17543 C 637.79834,415.3342 637.24515,412.22944 640.44978,406.98125 C 642.54434,403.55102 645.62397,400.20825 648.35769,397.7356 C 651.75993,394.65826 655.44068,389.21398 647.76704,384.28027 C 646.51644,383.4762 645.68488,383.43764 644.9651,382.7597 C 644.09506,381.94023 644.14684,380.81859 644.53066,379.00473 C 644.8253,377.61227 644.03313,375.1377 642.8368,375.21063 C 642.12476,371.98721 641.14468,371.75768 640.02998,371.64634 z"
         style="fill:#bf0a30;fill-opacity:1;fill-rule:evenodd;stroke:#000000;stroke-width:0.98407859;stroke-linecap:round;stroke-linejoin:miter;stroke-miterlimit:4;stroke-dasharray:none;stroke-opacity:1" />
      <path
         sodipodi:nodetypes="cccccccccssccscccscscsscssccssssccsscccc"
         id="path2392"
         d="M 677.28082,380.84388 C 677.79365,380.71747 678.12638,379.80084 676.72295,379.27931 C 674.88752,379.00343 673.57508,378.40014 672.92939,377.37948 C 672.29189,376.22438 671.27856,376.38687 670.36314,376.20605 C 667.60856,375.84405 667.1672,374.32356 666.73695,372.79751 C 665.10128,372.59364 664.44682,373.70019 663.66863,374.64147 C 663.31692,373.84056 663.56225,373.03964 663.94757,372.23873 C 661.78651,372.80038 659.68678,373.60774 658.25722,377.10008 C 657.88677,376.37368 657.77389,375.64727 658.14564,374.92086 C 651.73127,380.37712 652.14065,385.48735 653.62684,390.45484 C 653.92554,391.45322 654.67656,392.76484 653.90578,393.6678 C 652.84516,394.91031 650.94763,394.09955 650.30747,392.5223 C 649.23079,395.58713 651.88295,397.78296 654.8299,397.21883 C 654.81365,398.06211 655.58851,399.20319 657.23416,400.1833 C 658.40212,400.87891 658.96229,402.08677 659.00932,403.34422 C 661.04999,401.60735 660.60447,399.20815 658.7487,398.09639 C 660.15568,398.94858 661.50768,398.66624 662.48073,398.28675 C 662.25753,399.61451 663.05077,400.89867 664.84761,401.17109 C 666.3303,401.39588 667.51405,400.1443 667.29337,398.28675 C 666.2546,400.34437 663.8329,398.45871 665.8338,396.86434 C 667.05008,395.89518 668.67657,396.75562 669.93638,394.92828 C 670.95591,396.39196 671.09329,398.02794 669.89693,399.15601 C 668.66421,400.31836 668.01606,402.26499 668.75294,403.2652 C 669.24734,403.93627 671.47427,405.0295 673.56558,402.87008 C 672.03348,403.44709 671.10316,402.58869 671.32382,401.58257 C 671.57836,400.42194 672.80547,400.65937 673.96006,400.22282 C 675.26357,399.72994 675.89653,398.50678 676.36638,396.86434 C 679.23467,396.72118 680.26037,401.593 676.32693,401.8823 C 676.49088,403.40105 679.9421,404.34936 681.33681,401.48718 C 682.8045,398.47524 681.7265,395.34853 678.65435,392.51808 C 675.18706,389.32357 672.98722,390.55349 670.4492,390.30545 C 668.57515,390.12229 668.55769,388.19792 669.69969,387.57915 C 671.30117,386.71143 672.42681,388.50865 673.1711,389.75228 C 674.71645,389.18281 674.89223,387.92745 675.22239,386.74941 C 673.0138,386.92013 671.02543,386.30181 670.01527,385.24798 C 668.14497,383.2968 669.62089,382.29602 671.94822,383.07484 C 673.05297,383.44455 674.91434,384.30148 675.30129,385.84065 C 675.9374,384.58124 677.40163,383.79568 678.77269,383.2724 C 678.16896,383.17359 677.2066,383.07908 677.11589,382.36364 L 677.28082,380.84388 z"
         style="fill:#bf0a30;fill-opacity:1;fill-rule:evenodd;stroke:#000000;stroke-width:0.98407859;stroke-linecap:round;stroke-linejoin:miter;stroke-miterlimit:4;stroke-dasharray:none;stroke-opacity:1" />
      <path
         sodipodi:nodetypes="ccscssc"
         id="path2396"
         d="M 655.30122,377.89885 C 653.44966,380.43764 653.58989,384.2869 658.69373,383.43045 C 655.49842,385.54515 657.16777,389.12085 660.82392,390.46349 C 665.11775,392.04031 661.98614,397.99268 658.77263,395.91606 C 660.84599,395.19129 660.50039,392.90647 659.15582,392.49515 C 657.49528,391.98719 655.9319,391.24301 654.89588,389.82741 C 653.22571,387.54531 654.27822,385.03257 655.34067,383.19338"
         style="fill:none;fill-rule:evenodd;stroke:#000000;stroke-width:0.98407859;stroke-linecap:round;stroke-linejoin:miter;stroke-miterlimit:4;stroke-dasharray:none;stroke-opacity:1" />
      <path
         sodipodi:nodetypes="cc"
         id="path2400"
         d="M 654.84264,397.21994 C 656.78118,396.72897 657.94959,393.89953 656.5882,391.38213"
         style="fill:none;fill-rule:evenodd;stroke:#000000;stroke-width:0.98407859;stroke-linecap:round;stroke-linejoin:miter;stroke-miterlimit:4;stroke-dasharray:none;stroke-opacity:1" />
      <path
         id="path2402"
         d="M 658.92667,392.91345 C 658.90808,392.91345 658.88948,392.91345 658.92667,392.91345 z"
         style="fill:none;fill-rule:evenodd;stroke:#000000;stroke-width:0.98407859;stroke-linecap:round;stroke-linejoin:miter;stroke-miterlimit:4;stroke-dasharray:none;stroke-opacity:1" />
      <path
         sodipodi:nodetypes="csc"
         id="path2404"
         d="M 660.19584,393.93322 C 659.22408,392.3361 656.20421,393.85771 657.54592,396.78297 C 657.73646,397.19839 658.11366,397.64442 658.74536,398.0961"
         style="fill:none;fill-rule:evenodd;stroke:#000000;stroke-width:0.98407859;stroke-linecap:round;stroke-linejoin:miter;stroke-miterlimit:4;stroke-dasharray:none;stroke-opacity:1" />
      <path
         sodipodi:nodetypes="cscc"
         id="path2406"
         d="M 662.44128,398.28675 C 665.01051,397.42351 666.34463,392.96996 664.72926,390.95738 C 661.84024,387.35797 662.08838,385.8446 664.13754,384.57628 C 663.17584,381.73431 668.10619,380.3911 669.463,382.95631"
         style="fill:none;fill-rule:evenodd;stroke:#000000;stroke-width:0.98407859;stroke-linecap:round;stroke-linejoin:miter;stroke-miterlimit:4;stroke-dasharray:none;stroke-opacity:1" />
      <path
         sodipodi:nodetypes="ccc"
         id="path2408"
         d="M 664.12697,384.57882 C 664.53698,385.96652 665.03797,387.14211 667.37226,388.56693 C 669.26325,389.92137 671.16017,392.57785 669.92651,394.9184"
         style="fill:none;fill-rule:evenodd;stroke:#000000;stroke-width:0.98407859;stroke-linecap:round;stroke-linejoin:miter;stroke-miterlimit:4;stroke-dasharray:none;stroke-opacity:1" />
      <path
         sodipodi:nodetypes="csc"
         id="path2412"
         d="M 676.33679,396.86434 C 675.17622,396.85491 674.08056,396.60612 673.40779,395.40242 C 672.36014,393.528 671.45219,392.94953 670.29141,392.87368"
         style="fill:none;fill-rule:evenodd;stroke:#000000;stroke-width:0.98407859;stroke-linecap:round;stroke-linejoin:miter;stroke-miterlimit:4;stroke-dasharray:none;stroke-opacity:1" />
      <path
         sodipodi:nodetypes="csc"
         id="path2414"
         d="M 667.37226,376.37766 C 666.38713,377.15261 665.83595,378.60967 669.05936,378.98698 C 671.10126,379.22601 672.19625,380.96152 670.88313,382.64022"
         style="fill:none;fill-rule:evenodd;stroke:#000000;stroke-width:0.98407859;stroke-linecap:round;stroke-linejoin:miter;stroke-miterlimit:4;stroke-dasharray:none;stroke-opacity:1" />
      <path
         sodipodi:nodetypes="csc"
         id="path2416"
         d="M 666.72138,377.54325 C 667.51003,376.97905 668.87656,377.17734 670.29141,378.2814 C 671.11248,378.92211 672.71088,378.65315 673.1711,377.72105"
         style="fill:none;fill-rule:evenodd;stroke:#000000;stroke-width:0.98407859;stroke-linecap:round;stroke-linejoin:miter;stroke-miterlimit:4;stroke-dasharray:none;stroke-opacity:1" />
      <path
         sodipodi:nodetypes="cs"
         id="path2418"
         d="M 669.79831,377.89885 C 669.89529,378.46251 669.74535,378.77885 669.54539,379.04509"
         style="fill:none;fill-rule:evenodd;stroke:#000000;stroke-width:0.98407859;stroke-linecap:round;stroke-linejoin:miter;stroke-miterlimit:4;stroke-dasharray:none;stroke-opacity:1" />
      <path
         sodipodi:nodetypes="csc"
         id="path2420"
         d="M 670.94892,382.63197 C 672.31534,382.7857 673.6637,383.39437 675.21668,382.81357 C 676.64259,382.28029 676.83973,381.49218 676.56954,380.66228"
         style="fill:none;fill-rule:evenodd;stroke:#000000;stroke-width:0.98407859;stroke-linecap:round;stroke-linejoin:miter;stroke-miterlimit:4;stroke-dasharray:none;stroke-opacity:1" />
      <path
         sodipodi:nodetypes="cccc"
         id="path2422"
         d="M 663.05496,377.88237 C 661.77808,378.30775 661.05045,379.34034 660.29347,381.17915 C 659.28881,380.30546 658.98761,377.85941 660.46083,376.51337 C 660.51913,377.40977 660.67883,378.25729 661.68817,378.41321"
         style="fill:none;fill-rule:evenodd;stroke:#000000;stroke-width:0.98407859;stroke-linecap:round;stroke-linejoin:miter;stroke-miterlimit:4;stroke-dasharray:none;stroke-opacity:1" />
      <path
         sodipodi:nodetypes="cc"
         id="path2442"
         d="M 663.82196,425.86574 C 663.93405,422.37831 666.32149,420.61682 669.73914,418.87222"
         style="fill:none;fill-rule:evenodd;stroke:#000000;stroke-width:0.98407859;stroke-linecap:round;stroke-linejoin:miter;stroke-miterlimit:4;stroke-dasharray:none;stroke-opacity:1" />
      <path
         sodipodi:nodetypes="csc"
         id="path2444"
         d="M 663.50127,420.68463 C 660.52674,422.31318 659.90903,424.64073 661.40923,426.60765 C 662.96186,428.64333 665.8926,429.12189 666.59748,432.78213"
         style="fill:none;fill-rule:evenodd;stroke:#000000;stroke-width:0.98407859;stroke-linecap:round;stroke-linejoin:miter;stroke-miterlimit:4;stroke-dasharray:none;stroke-opacity:1" />
      <path
         sodipodi:nodetypes="csc"
         id="path3216"
         d="M 668.13434,402.767 C 667.07212,403.68318 667.12247,406.34557 668.91221,407.50166 C 671.4588,409.14667 674.10133,407.91785 676.39173,408.13096"
         style="fill:none;fill-rule:evenodd;stroke:#000000;stroke-width:0.98407859;stroke-linecap:round;stroke-linejoin:miter;stroke-miterlimit:4;stroke-dasharray:none;stroke-opacity:1" />
    </g>
    <g
       id="g3633"
       transform="matrix(0.954898,0,0,1,30.057656,0)">
      <path
         style="fill:none;fill-opacity:1;fill-rule:evenodd;stroke:#000000;stroke-width:2.5;stroke-linecap:butt;stroke-linejoin:miter;stroke-miterlimit:4;stroke-dasharray:none;stroke-opacity:1"
         d="M 666.44679,71.710072 C 661.84875,80.238453 657.04367,88.750023 646.48951,96.906147 C 653.85608,106.0416 661.30296,115.34409 662.63353,129.94258 L 660.70907,129.94258 C 659.50384,118.3763 652.86024,102.22343 639.93211,102.44786 C 628.17356,102.65198 622.74615,110.96114 623.39607,117.87912 C 624.46313,129.13638 632.27562,132.38748 642.85443,128.57052 C 636.98025,126.28125 634.90769,120.99268 638.82733,118.18204 C 643.13363,115.09416 649.5685,116.16542 653.93785,121.81712 C 655.02177,123.21916 656.53396,126.38963 657.10963,129.94258 L 656.39687,129.94258 C 654.85688,129.94258 653.61711,131.18236 653.61711,132.72235 C 653.61711,134.26234 654.85688,135.50211 656.39687,135.50211 L 657.074,135.50211 C 656.54234,138.07658 655.17896,140.47016 652.44105,142.16642 C 647.85875,145.00539 641.59237,141.6865 647.29136,134.71808 C 643.84175,133.72122 636.56488,138.98484 639.32627,145.99751 C 640.90891,150.0167 644.60244,152.52067 649.21581,151.84214 C 657.76732,150.5844 660.32262,141.71589 660.81599,135.50211 L 662.7048,135.50211 C 662.31723,140.8512 660.53646,146.56807 656.55724,152.14507 C 660.66313,153.9015 664.2292,156.93069 666.44679,161.62478 C 668.66438,156.9307 672.21265,153.9015 676.31852,152.14507 C 672.3393,146.56806 670.55854,140.8512 670.17097,135.50211 L 672.0776,135.50211 C 672.57098,141.71588 675.1263,150.58441 683.67777,151.84214 C 688.29115,152.52067 691.98468,150.0167 693.56732,145.99751 C 696.3287,138.98484 689.05184,133.72122 685.60223,134.71808 C 691.30122,141.6865 685.03483,145.00539 680.45253,142.16642 C 677.71424,140.46992 676.33326,138.07699 675.80177,135.50211 L 676.49671,135.50211 C 678.0367,135.50211 679.27648,134.26234 679.27648,132.72235 C 679.27648,131.18236 678.0367,129.94258 676.49671,129.94258 L 675.78395,129.94258 C 676.35974,126.39002 677.85409,123.21903 678.93792,121.81712 C 683.30727,116.16542 689.75996,115.09416 694.06625,118.18204 C 697.9859,120.99268 695.91334,126.28125 690.03916,128.57052 C 700.61797,132.38748 708.41263,129.13638 709.47969,117.87912 C 710.12962,110.96114 704.72002,102.65198 692.96147,102.44786 C 680.03296,102.22342 673.37164,118.37623 672.16669,129.94258 L 670.26006,129.94258 C 671.59062,115.34409 679.03751,106.0416 686.40408,96.906147 C 675.84991,88.750024 671.04483,80.238453 666.44679,71.710072 z"
         id="path3883" />
      <path
         id="path3866"
         d="M 666.44679,71.710072 C 661.84875,80.238453 657.04367,88.750023 646.48951,96.906147 C 653.85608,106.0416 661.30296,115.34409 662.63353,129.94258 L 660.70907,129.94258 C 659.50384,118.3763 652.86024,102.22343 639.93211,102.44786 C 628.17356,102.65198 622.74615,110.96114 623.39607,117.87912 C 624.46313,129.13638 632.27562,132.38748 642.85443,128.57052 C 636.98025,126.28125 634.90769,120.99268 638.82733,118.18204 C 643.13363,115.09416 649.5685,116.16542 653.93785,121.81712 C 655.02177,123.21916 656.53396,126.38963 657.10963,129.94258 L 656.39687,129.94258 C 654.85688,129.94258 653.61711,131.18236 653.61711,132.72235 C 653.61711,134.26234 654.85688,135.50211 656.39687,135.50211 L 657.074,135.50211 C 656.54234,138.07658 655.17896,140.47016 652.44105,142.16642 C 647.85875,145.00539 641.59237,141.6865 647.29136,134.71808 C 643.84175,133.72122 636.56488,138.98484 639.32627,145.99751 C 640.90891,150.0167 644.60244,152.52067 649.21581,151.84214 C 657.76732,150.5844 660.32262,141.71589 660.81599,135.50211 L 662.7048,135.50211 C 662.31723,140.8512 660.53646,146.56807 656.55724,152.14507 C 660.66313,153.9015 664.2292,156.93069 666.44679,161.62478 C 668.66438,156.9307 672.21265,153.9015 676.31852,152.14507 C 672.3393,146.56806 670.55854,140.8512 670.17097,135.50211 L 672.0776,135.50211 C 672.57098,141.71588 675.1263,150.58441 683.67777,151.84214 C 688.29115,152.52067 691.98468,150.0167 693.56732,145.99751 C 696.3287,138.98484 689.05184,133.72122 685.60223,134.71808 C 691.30122,141.6865 685.03483,145.00539 680.45253,142.16642 C 677.71424,140.46992 676.33326,138.07699 675.80177,135.50211 L 676.49671,135.50211 C 678.0367,135.50211 679.27648,134.26234 679.27648,132.72235 C 679.27648,131.18236 678.0367,129.94258 676.49671,129.94258 L 675.78395,129.94258 C 676.35974,126.39002 677.85409,123.21903 678.93792,121.81712 C 683.30727,116.16542 689.75996,115.09416 694.06625,118.18204 C 697.9859,120.99268 695.91334,126.28125 690.03916,128.57052 C 700.61797,132.38748 708.41263,129.13638 709.47969,117.87912 C 710.12962,110.96114 704.72002,102.65198 692.96147,102.44786 C 680.03296,102.22342 673.37164,118.37623 672.16669,129.94258 L 670.26006,129.94258 C 671.59062,115.34409 679.03751,106.0416 686.40408,96.906147 C 675.84991,88.750024 671.04483,80.238453 666.44679,71.710072 z"
         style="fill:#bf0a30;fill-opacity:1;fill-rule:evenodd;stroke:#000000;stroke-width:1.14041638;stroke-linecap:butt;stroke-linejoin:miter;stroke-miterlimit:4;stroke-dasharray:none;stroke-opacity:1" />
    </g>
    <g
       id="g3503"
       transform="matrix(0.5779294,0,0,0.5779294,58.989087,125.94263)">
      <g
         id="g3469">
        <path
           style="fill:#000000;fill-rule:evenodd;stroke:#000000;stroke-width:1px;stroke-linecap:butt;stroke-linejoin:miter;stroke-opacity:1"
           d="M 52.502678,198.69173 C 48.172638,203.04653 45.163202,207.66545 38.714096,211.59643 L 37.123106,208.94478 C 31.132875,211.04753 27.532156,217.9293 22.804194,222.55659 C 24.893672,216.48726 24.68338,210.41792 29.698485,204.34859 L 27.753941,202.22727 C 33.404817,197.9551 38.717634,193.44147 47.552931,191.44389 L 51.795572,193.38843 L 52.502678,198.69173 z"
           id="path3443"
           sodipodi:nodetypes="ccccccccc" />
        <path
           style="fill:#bf0a30;fill-opacity:1;fill-rule:evenodd;stroke:#000000;stroke-width:3;stroke-linecap:butt;stroke-linejoin:miter;stroke-miterlimit:4;stroke-dasharray:none;stroke-opacity:1"
           d="M 88.721062,290.63789 C 89.208969,294.43588 83.983567,298.22872 79.549513,299.27767 C 74.270366,300.52654 76.489345,304.3432 79.195959,306.70229 C 83.555467,310.50204 87.220898,309.7938 90.509668,307.4094 C 94.094788,304.81015 97.842632,304.36816 102.35371,304.75775 C 114.0271,305.76591 124.31884,307.552 133.99673,311.29849 C 145.50155,315.75221 156.22835,321.62641 161.92745,330.56715 C 166.22929,337.31588 171.35597,339.33685 175.1857,338.16855 C 178.03944,337.29798 176.70984,334.86873 175.36248,334.10268 C 171.84319,332.10177 168.71517,329.68471 167.23075,326.85484 C 165.55603,323.66219 162.62096,320.20374 160.33646,316.60179 C 157.50703,312.14065 159.96783,310.6343 160.33646,308.11651 C 160.99886,303.59225 161.4438,299.15651 159.62936,294.5047 C 158.82205,292.43493 157.67641,291.03461 158.74547,286.37297 C 159.94557,281.13992 166.51294,276.96709 172.1805,275.41282 C 178.607,273.65041 181.69363,271.91981 185.43875,269.04886 C 189.53509,265.8233 189.73352,262.13878 187.47168,258.44225 C 186.79627,255.73205 186.37933,253.31536 187.11813,250.84086 C 189.10057,248.51942 188.8151,246.49804 188.26718,243.94657 L 189.15107,237.93616 C 188.86794,236.44865 189.69386,235.84838 190.56528,235.28451 C 193.86064,233.04534 195.67191,228.89407 192.6866,224.50113 C 191.89138,223.33094 189.64727,221.56607 189.40922,221.15894 C 186.36786,215.95731 179.64918,210.95454 177.66058,207.70735 C 176.12646,205.20228 175.85225,201.95099 176.06959,199.04529 C 176.35486,195.2315 174.42019,191.86809 171.11984,190.02967 C 169.40826,189.07625 167.21116,188.31515 164.93266,185.25671 C 160.48247,179.28318 156.2049,175.15337 152.20473,172.35201 L 126.39534,166.16482 L 94.045202,172.70556 L 73.008775,195.50975 C 79.393618,222.43379 80.93594,253.07013 87.920663,279.99417 L 88.721062,290.63789 z"
           id="path3429"
           sodipodi:nodetypes="cssssssccccccsssssssssssssscccccc" />
        <path
           style="fill:#000000;fill-opacity:1;fill-rule:evenodd;stroke:none;stroke-width:1px;stroke-linecap:butt;stroke-linejoin:miter;stroke-opacity:1"
           d="M 159.98291,257.20482 C 159.90669,255.0835 159.46658,252.99701 158.03837,250.84086 C 155.00549,246.26213 157.36014,242.66465 158.03836,239.88071 C 165.93353,240.60264 167.5114,236.42661 171.65017,230.33476 C 165.93439,234.62336 161.62094,238.54261 157.68481,234.40062 C 154.80155,231.36656 151.77816,230.50491 148.31565,231.04187 C 141.73074,232.06304 139.48805,231.95754 139.30004,227.32956 C 137.59323,229.9584 136.61892,232.90719 145.48722,236.16839 C 147.97037,237.08153 151.90417,235.19686 153.08862,241.82525 C 153.61089,244.74795 153.39923,248.17936 156.09382,250.84086 C 158.58949,253.30588 158.82559,255.0835 159.98291,257.20482 z"
           id="path2655"
           sodipodi:nodetypes="csccsscsssc" />
        <path
           style="fill:#000000;fill-opacity:1;fill-rule:evenodd;stroke:none;stroke-width:1px;stroke-linecap:butt;stroke-linejoin:miter;stroke-opacity:1"
           d="M 155.56349,217.60684 C 159.71556,209.53393 168.66663,216.02238 170.85468,219.50718 C 170.15776,216.8993 169.20156,215.32075 168.34927,214.46521 C 170.75941,210.12543 173.54249,207.65504 176.59992,207.00024 L 175.89281,200.28272 C 169.20275,199.92183 162.34731,200.6912 156.97771,204.70214 C 151.84927,208.53294 152.01696,214.54821 155.56349,217.60684 z"
           id="path3427"
           sodipodi:nodetypes="ccccccc" />
        <path
           style="fill:#000000;fill-opacity:1;fill-rule:evenodd;stroke:none;stroke-width:1px;stroke-linecap:butt;stroke-linejoin:miter;stroke-opacity:1"
           d="M 190.03495,221.6727 C 193.55796,225.30892 191.69405,233.0215 184.28971,230.42315 C 183.01169,231.97355 180.31524,232.01715 177.39542,231.92575 C 177.62251,234.96101 181.61173,235.02707 183.5826,234.22385 C 184.55347,235.54563 187.47696,235.99775 190.65367,235.10773 C 196.70224,230.14644 193.82132,225.2059 190.03495,221.6727 z"
           id="path3431"
           sodipodi:nodetypes="cccccc" />
        <path
           style="fill:#000000;fill-opacity:1;fill-rule:evenodd;stroke:none;stroke-width:1px;stroke-linecap:butt;stroke-linejoin:miter;stroke-opacity:1"
           d="M 187.5,240.3125 C 184.61045,240.35978 181.9378,241.19347 180,243.09375 C 170.68406,247.82172 171.06492,249.02525 168.375,251.34375 C 168.12566,250.67359 167.77381,250.09144 167.375,249.59375 C 166.35323,248.90345 163.52483,249.66823 163.375,251.96875 C 165.90768,252.62215 167.00561,255.99587 166.625,259.09375 C 168.13628,257.35793 168.73875,255.5633 168.78125,253.9375 C 172.44731,251.8917 176.67866,249.79705 180.83839,246.80086 C 183.01621,245.36198 186.64768,243.57913 188.625,245.96875 L 188.75,240.34375 C 188.32986,240.31943 187.91279,240.30575 187.5,240.3125 z"
           id="path3453"
           sodipodi:nodetypes="ccccccccccc" />
        <path
           style="fill:#000000;fill-opacity:1;fill-rule:evenodd;stroke:none;stroke-width:1px;stroke-linecap:butt;stroke-linejoin:miter;stroke-opacity:1"
           d="M 181.375,258.45502 C 178.26931,257.99255 178.27129,256.48733 178.125,254.83002 C 184.06438,254.01795 185.22065,252.10209 187,250.33002 L 187.375,258.95502 C 185.33333,258.00246 183.36247,258.75097 181.375,258.45502 z"
           id="path2435"
           sodipodi:nodetypes="ccccs" />
        <path
           style="fill:#000000;fill-opacity:1;fill-rule:evenodd;stroke:none;stroke-width:1px;stroke-linecap:butt;stroke-linejoin:miter;stroke-opacity:1"
           d="M 122.1875,223.59375 C 120.24369,223.65954 118.16053,224.49499 116.5,225.59375 C 113.25499,227.74095 110.74622,232.73544 114.61244,238.7402 C 114.80911,234.7702 114.44338,231.99518 117.5,230.71875 C 117.96988,230.52253 118.42002,230.33422 118.875,230.15625 C 118.95793,233.337 119.8525,235.89893 121.4375,239.03125 C 122.34349,240.8217 126.59158,244.19573 129,241.96875 C 130.47236,240.60731 129.79937,236.96981 128.125,235.78125 C 125.72918,234.08057 125.65983,231.41326 125.5,228.625 C 126.39946,228.65698 127.23784,228.83024 128,229.21875 C 128.42354,227.26042 128.12306,225.99085 125.375,224.34375 C 124.4609,223.79587 123.35379,223.55428 122.1875,223.59375 z"
           id="path3213"
           sodipodi:nodetypes="cscscsssccsc" />
        <path
           style="fill:#000000;fill-opacity:1;fill-rule:evenodd;stroke:none;stroke-width:1px;stroke-linecap:butt;stroke-linejoin:miter;stroke-opacity:1"
           d="M 127.456,201.52016 C 128.03927,204.20127 128.81757,206.88239 126.6605,209.5635 C 129.18364,209.02002 132.162,210.29736 135.14578,211.59643 C 132.58252,204.43164 130.01926,203.21397 127.456,201.52016 z"
           id="path3267"
           sodipodi:nodetypes="cccc" />
        <path
           style="fill:#000000;fill-opacity:1;fill-rule:evenodd;stroke:none;stroke-width:1px;stroke-linecap:butt;stroke-linejoin:miter;stroke-opacity:1"
           d="M 142.06843,208.55576 C 144.4938,209.81535 147.07943,210.89286 147.95699,213.9108 C 146.9089,216.152 145.44924,216.77424 143.6221,215.95087 C 145.08075,212.81827 142.99546,210.88261 142.06843,208.55576 z"
           id="path3269"
           sodipodi:nodetypes="cccc" />
        <path
           style="fill:#000000;fill-rule:evenodd;stroke:none;stroke-width:1px;stroke-linecap:butt;stroke-linejoin:miter;stroke-opacity:1"
           d="M 84.875,190.96875 C 66.417227,206.40646 65.06937,230.6403 76.75,257.46875 C 80.773106,266.70915 86.545903,281.78275 87.5,294.46875 C 89.031588,296.36684 90.633983,296.9502 87.728553,298.66069 C 83.793727,300.97722 78.622102,302.44168 79.1875,306.6875 C 83.513074,310.5264 87.211231,309.79066 90.5,307.40625 C 90.980241,307.05807 91.474139,306.75038 91.96875,306.46875 C 91.713851,303.9097 91.891464,301.24756 93.3125,299.09375 C 93.836915,298.23046 94.699174,297.42537 95.75,297.53125 C 96.562076,297.48203 97.372523,298.28158 97.0625,299.15625 C 96.410412,301.02595 97.217347,302.87882 97.5,304.75 C 99.023842,304.58206 100.62601,304.60165 102.34375,304.75 C 110.26941,305.43449 117.5766,306.4782 124.46875,308.25 L 134.10504,309.73036 C 127.45149,306.93834 124.69419,304.46724 121.59911,303.55974 C 117.45331,302.40669 115.3738,302.20402 113.6875,298.71875 C 111.6774,294.56425 112.67853,289.79601 111.21875,285.5 C 110.27257,282.71548 104.61426,281.32507 105.28125,285.4375 C 105.70505,288.05051 108.8042,292.1505 105.9375,293.59375 C 103.70651,294.71695 99.832411,294.38664 97.84375,292.375 C 94.949178,289.44701 95.497643,295.52885 92.613357,294.21967 C 89.496234,292.80481 91.978956,288.91434 94.96875,289.8125 C 98.676451,290.92636 96.264899,285.54776 95.8125,283.59375 C 95.18347,280.87686 99.146945,278.97745 101.59375,277.90625 C 104.09185,276.81259 106.82462,277.09159 109.46875,276.46875 C 112.73651,275.69901 114.46261,273.4806 115.1875,270.34375 C 116.09552,266.41448 121.10078,266.30456 123.9375,264.15625 C 126.86724,262.724 131.48037,263.83035 132.71875,267 C 133.24805,269.81334 131.6387,272.38238 129.78125,274.28125 C 127.39628,276.7194 130.42633,278.7157 132.625,276.46875 C 134.80492,274.24095 138.3077,275.46257 141.1875,275.21875 C 145.27128,274.87299 143.93105,279.78665 144.03125,282.28125 C 144.14439,285.09815 147.02696,286.20781 149.375,286.71875 C 152.03214,287.29696 154.11781,289.64075 156,291.5625 C 158.00549,293.61013 158.89264,296.67648 158.90625,299.46875 C 158.91404,301.06618 159.96875,304.5291 157.93962,310.40207 C 158.26281,310.43183 159.8054,308.34991 160.34375,308.125 C 161.00615,303.60074 161.43944,299.15181 159.625,294.5 C 158.81769,292.43023 157.68094,291.03665 158.75,286.375 C 159.9501,281.14195 166.51994,276.96053 172.1875,275.40625 C 178.614,273.64384 181.693,271.91786 185.40625,269.0625 C 178.32589,272.36218 170.21604,272.6857 164.375,269.59375 C 160.63099,267.61186 156.43763,267.66706 152.25,268.21875 C 150.49175,268.45039 148.46237,269.42612 147.5,265.46875 C 147.01281,263.46539 146.18504,262.25524 144.125,261.34375 C 142.45702,260.60573 142.37334,259.403 142.25,258.34375 C 141.92835,255.58155 142.45645,252.5088 140.96875,250.125 C 137.49339,244.55637 132.68501,250.67691 134.4375,252.09375 C 136.04655,250.40467 139.10903,250.08782 138.84375,254.375 C 138.62663,257.884 132.24539,258.6479 130.125,256.8125 C 125.4247,252.74389 123.84464,249.70998 119.25,247.21875 C 111.6577,243.10218 105.07231,236.22677 103.625,229.46875 C 102.31936,223.37225 106.57941,219.69699 110,218.34375 C 113.13914,217.10185 117.27605,217.2084 120.625,217.59375 C 118.51847,215.31136 116.94634,216.49502 115.625,215.21875 C 113.05979,212.74105 119.04417,209.79964 119.875,207.46875 C 120.47432,205.78737 117.92853,203.65415 116.375,205.59375 C 114.32395,208.15451 114.93214,212.63135 111.125,215.84375 C 108.57618,217.99439 105.87999,216.15144 107.125,213.34375 L 108.34375,210.59375 C 109.2647,208.51687 109.67242,206.46622 109.84375,204.25 C 110.00804,202.12475 107.16979,199.5442 106.15625,202.0625 C 105.05968,204.78711 107.02372,207.68089 106.625,210.71875 C 106.31263,213.09874 103.37488,212.72983 102.53125,210.625 C 101.40896,207.82495 102.48092,204.32323 100.15625,202.0625 C 98.127486,200.08952 95.108592,198.96638 92.28125,199.34375 C 89.871646,199.66537 88.179868,198.01656 86.75,196.28125 C 85.388512,194.62892 84.699329,192.67357 84.875,190.96875 z M 102.5,239.75 C 102.91834,239.74634 103.37231,239.89644 103.6875,240.15625 C 104.47685,240.80689 105.15681,241.65914 105.40625,242.65625 C 105.83802,244.38221 105.9805,246.36986 105.0625,247.90625 C 104.25536,249.25711 102.00898,249.59886 100.78125,248.53125 C 99.889656,247.75592 100.32858,246.41813 100.625,245.46875 C 101.15182,243.78145 100.59653,241.89364 101.46875,240.3125 C 101.68454,239.92132 102.08166,239.75366 102.5,239.75 z M 114.8125,251.90625 C 116.98694,251.69158 118.24022,253.6359 117.90625,257.0625 C 117.43441,261.90374 112.73358,258.66192 111.5625,262.09375 C 110.60843,264.88963 110.99432,270.49903 107.3125,271.5 C 102.55644,272.793 106.72403,267.45473 105.03125,265.71875 C 102.42059,263.04145 101.31545,259.01037 105.0625,257.75 C 108.30185,256.66041 109.54527,254.64055 112.34375,252.875 C 113.25296,252.30139 114.08769,251.97781 114.8125,251.90625 z M 97.96875,265.09375 C 98.579411,265.09401 99.196545,265.19457 99.75,265.46875 C 100.68827,265.93357 101.08838,266.94079 101.09375,267.9375 C 101.10087,269.25944 101.1017,270.61003 100.875,271.90625 C 100.57114,273.64364 98.627788,273.85407 97.21875,274.3125 C 95.17298,274.97807 95.020706,278.05193 92.8125,278.625 C 90.900988,279.12108 89.6915,277.01202 89.84375,275.34375 C 89.967753,273.98499 90.178938,272.0089 91.375,271.59375 C 92.957182,271.04459 93.644516,269.51584 93.9375,268.09375 C 94.317439,266.2496 96.136766,265.09298 97.96875,265.09375 z"
           id="path3256"
           sodipodi:nodetypes="cscscscccscscccsssssssssssccsssssssccssscsssssscssssscssssccsssssssccssssssccssssssccssssssssc" />
        <path
           style="fill:#000000;fill-rule:evenodd;stroke:none;stroke-width:1px;stroke-linecap:butt;stroke-linejoin:miter;stroke-opacity:1"
           d="M 112.16481,183.93088 C 113.56161,183.75204 114.75083,185.32419 114.62436,186.67531 C 114.49914,187.97353 113.95209,189.53729 112.57294,189.93536 C 111.55109,190.2303 110.00902,189.86675 109.83437,188.65236 C 109.63969,187.29877 110.07824,185.84965 111.07506,184.87309 C 111.41636,184.53872 111.67256,183.9939 112.16481,183.93088 z"
           id="path3250"
           sodipodi:nodetypes="csssss" />
        <path
           style="fill:#000000;fill-rule:evenodd;stroke:none;stroke-width:1px;stroke-linecap:butt;stroke-linejoin:miter;stroke-opacity:1"
           d="M 137.84375,147.03125 C 131.05931,147.0259 120.96729,149.21022 111.90625,153.25 C 107.05481,155.41297 102.56613,159.05461 94.03125,160.5 C 86.870382,161.71269 83.836132,164.33905 80.78125,168.625 C 77.876439,172.70041 78.048579,176.96798 79.03125,180.84375 C 80.062113,184.90958 83.416382,189.49963 88.84375,189.15625 C 93.896089,188.8366 94.592665,193.06431 99.03125,194.03125 C 104.28552,195.17589 108.75418,191.93017 106.875,187.1875 C 105.15914,182.85701 106.09372,176.8498 111.40625,177.3125 C 115.58936,177.67683 114.47152,172.62671 118.25,172.875 C 126.68975,173.4296 137.07286,171.1058 144.15625,172.75 C 148.72237,173.80989 152.13064,175.77426 157.15625,182.78125 C 164.9221,193.60883 169.23841,190.5524 174.46875,193.03125 C 173.27759,191.45903 171.33692,190.35353 169.15625,189.09375 C 166.8523,187.76275 165.51294,186.30649 164.53125,184.8125 C 162.66223,181.96812 160.84567,179.25567 158.5625,176.0625 C 155.17764,171.32853 149.27592,167.00252 142.3125,161.75 C 140.51912,160.39724 140.00877,157.79886 142.46875,155.5625 L 146.375,152.03125 C 147.72699,150.80218 146.97459,149.11646 143.375,147.78125 C 142.01298,147.27603 140.10523,147.03303 137.84375,147.03125 z M 102.0625,176.78125 C 103.15957,176.75544 104.23024,177.61789 104.59375,178.625 C 104.93927,179.58224 104.26016,180.56425 103.53125,181.1875 C 102.87433,181.7492 102.04969,182.52465 102.25,183.46875 C 102.55157,184.89013 103.9924,185.65561 104.71875,186.84375 C 105.43808,188.0204 104.84297,189.69855 103.625,190.3125 C 102.73447,190.76141 101.68355,190.86115 100.71875,190.75 C 99.472847,190.60646 98.869844,189.24457 98.53125,188.15625 C 98.281311,187.3529 97.43236,186.96687 96.59375,187.0625 C 95.443379,187.19369 94.133055,187.45809 93.0625,186.9375 C 91.939516,186.3914 91.72387,184.79961 92.0625,183.65625 C 92.242389,183.04886 92.767842,182.62039 93.5,182.6875 C 94.934178,182.81896 96.60606,183.08595 97.96875,182.4375 C 98.995881,181.94873 98.933942,180.5615 99.375,179.625 C 99.874686,178.56401 100.34621,177.18371 101.59375,176.84375 C 101.74954,176.8013 101.90578,176.78494 102.0625,176.78125 z"
           id="path3239" />
        <path
           id="path3283"
           style="fill:#000000;fill-rule:evenodd;stroke:none;stroke-width:1px;stroke-linecap:butt;stroke-linejoin:miter;stroke-opacity:1"
           d="M 133.99673,311.29849 L 144.51495,314.39208 C 148.97263,316.41901 156.21014,315.92985 158.03837,310.41461 L 160.33646,308.11651 C 159.96783,310.6343 157.50703,312.14065 160.33646,316.60179 C 162.62096,320.20374 165.55603,323.66219 167.23075,326.85484 C 168.71517,329.68471 171.84319,332.10177 175.36248,334.10268 C 176.70984,334.86873 178.03944,337.29798 175.1857,338.16855 C 171.35597,339.33685 166.22929,337.31588 161.92745,330.56715 C 156.22835,321.62641 145.50155,315.75221 133.99673,311.29849 z"
           sodipodi:nodetypes="ccccsssssc" />
        <path
           style="fill:#000000;fill-rule:evenodd;stroke:#000000;stroke-width:1px;stroke-linecap:butt;stroke-linejoin:miter;stroke-opacity:1"
           d="M 63.286057,270.9934 C 69.288425,284.42843 59.770462,296.8028 53.916891,310.23783 L 52.325902,306.70229 C 50.301302,315.52584 44.078271,326.42099 36.239223,333.92591 C 36.173268,326.97269 35.821606,318.42848 38.360542,311.47527 L 34.471455,312.53593 C 36.226743,303.96112 36.424633,294.71885 41.18897,287.43363 L 37.830213,287.61041 C 39.996666,279.15991 42.461036,271.23078 46.492271,266.04365 L 57.275649,262.6849 L 63.286057,270.9934 z"
           id="path3439"
           sodipodi:nodetypes="ccccccccccc" />
        <path
           id="path3388"
           style="fill:#bf0a30;fill-opacity:1;fill-rule:evenodd;stroke:#000000;stroke-width:3;stroke-linecap:butt;stroke-linejoin:miter;stroke-miterlimit:4;stroke-dasharray:none;stroke-opacity:1"
           d="M 60.104076,196.04008 C 55.050996,200.8534 51.868775,206.18599 50.558135,213.80614 L 54.889164,214.51325 L 54.712387,220.8772 C 50.468616,228.15394 44.881579,243.64209 44.90128,254.02284 L 50.204581,252.7854 C 45.294352,258.84728 44.201468,263.47765 42.956737,268.16497 C 45.672413,271.41381 48.940675,268.16266 52.149125,267.45787 C 53.508758,267.1592 55.642937,264.47087 57.275649,268.69531 C 58.519133,271.91267 59.994948,274.3048 66.114484,274.17538 C 67.445562,269.40241 66.190869,265.33655 65.407377,260.56358 L 68.942911,265.51332 C 74.14788,255.44161 73.984324,247.01674 73.362328,238.28971 L 76.544309,241.29492 C 82.049917,224.96828 82.430513,207.77225 81.582445,192.85811 C 85.912988,190.40545 88.230497,180.24441 81.140503,177.92047 C 74.600018,175.77664 69.853443,180.72187 64.70027,182.60505 L 60.104076,196.04008 z"
           sodipodi:nodetypes="cccccccccccccccscc" />
        <path
           style="fill:#000000;fill-rule:evenodd;stroke:none;stroke-width:1px;stroke-linecap:butt;stroke-linejoin:miter;stroke-opacity:1"
           d="M 67.175143,191.97421 C 61.966985,194.80802 58.700958,205.63191 60.104076,210.80094 C 61.528173,216.04726 58.821091,221.90779 53.715909,223.28314 L 49.851028,224.32435 C 51.769776,212.55448 58.128614,205.18092 56.833707,195.42136 L 60.634406,191.26711 L 67.175143,191.97421 z"
           id="path3393"
           sodipodi:nodetypes="cszcc" />
        <path
           style="fill:#000000;fill-rule:evenodd;stroke:none;stroke-width:1px;stroke-linecap:butt;stroke-linejoin:miter;stroke-opacity:1"
           d="M 82.024386,190.14231 C 76.328002,191.19957 71.856261,186.51018 74.021567,179.59985 C 66.177335,184.64809 74.432256,196.93081 82.024386,190.14231 z"
           id="path3396"
           sodipodi:nodetypes="ccc" />
        <path
           style="fill:#bf0a30;fill-opacity:1;fill-rule:evenodd;stroke:#000000;stroke-width:3;stroke-linecap:butt;stroke-linejoin:miter;stroke-miterlimit:4;stroke-dasharray:none;stroke-opacity:1"
           d="M 70.357124,182.78183 C 60.489317,180.61618 50.999126,187.32338 42.956737,191.09034 C 45.490536,191.66762 48.024336,192.87489 50.558135,195.33298 C 51.026682,197.75107 50.890519,199.12009 49.497475,202.93437 C 59.032284,199.84798 68.581274,197.1435 75.483649,191.26711 C 71.981117,190.00031 70.652815,186.638 70.357124,182.78183 z"
           id="path3441"
           sodipodi:nodetypes="cccccc" />
        <path
           style="fill:#000000;fill-rule:evenodd;stroke:none;stroke-width:1px;stroke-linecap:butt;stroke-linejoin:miter;stroke-opacity:1"
           d="M 66.644814,221.49592 C 64.304677,224.09991 62.027992,227.09919 62.137008,230.59993 C 62.237077,233.8134 61.926671,236.3438 60.98796,238.82004 C 62.461099,237.71229 65.073171,234.24913 65.2306,230.51154 C 65.411886,226.20757 65.483588,224.96766 66.644814,221.49592 z"
           id="path3398"
           sodipodi:nodetypes="cscsc" />
        <path
           style="fill:#000000;fill-rule:evenodd;stroke:none;stroke-width:1px;stroke-linecap:butt;stroke-linejoin:miter;stroke-opacity:1"
           d="M 47.199377,164.22028 C 37.013456,163.41887 30.059838,168.23146 28.814601,182.95861 C 35.010741,177.64116 41.27748,172.67671 49.320698,176.59465 L 47.199377,164.22028 z"
           id="path3454"
           sodipodi:nodetypes="cccc" />
        <path
           style="fill:#bf0a30;fill-opacity:1;fill-rule:evenodd;stroke:#000000;stroke-width:3;stroke-linecap:butt;stroke-linejoin:miter;stroke-miterlimit:4;stroke-dasharray:none;stroke-opacity:1"
           d="M 47.376154,163.51317 C 49.734287,163.22243 54.516987,163.37434 57.805979,166.3416 L 58.159533,162.98284 C 63.994245,165.52583 71.426675,165.58788 74.422989,173.58944 C 76.508729,179.15934 73.232465,182.77463 70.003571,185.78704 C 59.729209,187.68854 53.50402,182.84141 45.785164,180.48373 L 51.265242,178.53919 C 48.49574,178.52162 45.726238,177.52568 42.956736,176.59465 C 45.078057,174.74125 47.199377,174.52746 49.320698,170.58424 C 49.798596,168.22722 48.766854,165.8702 47.376154,163.51317 z"
           id="path3449"
           sodipodi:nodetypes="cccscccccc" />
        <path
           sodipodi:nodetypes="cscsc"
           id="path3400"
           d="M 75.543158,190.72828 C 73.401772,193.49802 71.352865,196.65729 71.720184,200.14041 C 72.05736,203.33771 71.934724,205.88412 71.181498,208.42294 C 72.568783,207.2094 74.917893,203.56274 74.798795,199.82374 C 74.66165,195.51813 74.641563,194.27631 75.543158,190.72828 z"
           style="fill:#000000;fill-rule:evenodd;stroke:none;stroke-width:1px;stroke-linecap:butt;stroke-linejoin:miter;stroke-opacity:1" />
        <path
           style="fill:#000000;fill-rule:evenodd;stroke:none;stroke-width:1px;stroke-linecap:butt;stroke-linejoin:miter;stroke-opacity:1"
           d="M 55.125,265.45502 C 56.963469,262.98451 59.460643,259.29784 59.125,256.20502 C 58.580166,251.18458 60.378155,248.33687 61.75,243.95502 C 59.19721,246.28487 56.742544,249.98737 55.5,253.95502 L 56.625,255.83002 C 58.415005,258.81336 55.919856,262.3204 55.125,265.45502 z"
           id="path3404"
           sodipodi:nodetypes="csccsc" />
        <path
           style="fill:#000000;fill-rule:evenodd;stroke:none;stroke-width:1px;stroke-linecap:butt;stroke-linejoin:miter;stroke-opacity:1"
           d="M 66.87326,220.23627 C 66.756571,219.44998 66.756369,218.61121 67.095335,217.87616 C 67.795473,216.53181 68.595844,216.28868 69.445108,216.72687 C 69.864963,216.9435 69.529633,217.87722 69.292381,218.30851 C 68.945287,218.93948 68.678745,219.20984 68.092078,219.53245 C 67.611364,219.69236 67.302893,219.95904 66.87326,220.23627 z"
           id="path3406"
           sodipodi:nodetypes="ccsscc" />
        <path
           style="fill:#000000;fill-rule:evenodd;stroke:none;stroke-width:1px;stroke-linecap:butt;stroke-linejoin:miter;stroke-opacity:1"
           d="M 70.777191,211.38484 C 71.098824,211.87377 71.088249,213.29832 70.806112,214.19047 C 70.655862,214.63921 70.427866,215.08783 70.068106,215.27953 C 69.803718,215.4288 69.465382,215.44645 69.232638,215.19633 C 68.954788,214.6033 69.156834,214.07371 69.273508,213.45009 C 69.450689,212.8599 69.799171,212.37498 70.215993,212.0602 C 70.417194,211.85605 70.664694,211.21383 70.777191,211.38484 z"
           id="path3424"
           sodipodi:nodetypes="csscccs" />
      </g>
      <path
         sodipodi:nodetypes="cccc"
         id="path3501"
         d="M 60.811182,174.47333 C 57.141401,173.41421 52.578239,174.70833 49.762639,175.4456 C 51.398484,177.34595 53.135945,179.2463 56.391765,181.36762 C 52.516253,174.41855 57.565656,175.83381 60.811182,174.47333 z"
         style="fill:#000000;fill-rule:evenodd;stroke:none;stroke-width:1px;stroke-linecap:butt;stroke-linejoin:miter;stroke-opacity:1" />
    </g>
    <path
       style="font-size:33.22271729px;font-style:normal;font-variant:normal;font-weight:bold;font-stretch:normal;text-align:center;line-height:125%;writing-mode:lr-tb;text-anchor:middle;fill:#002868;fill-opacity:1;stroke:none;stroke-width:1px;stroke-linecap:butt;stroke-linejoin:miter;stroke-opacity:1;font-family:Swis721 BT;-inkscape-font-specification:Swis721 BT Bold"
       d="M 311.85645,219.03968 L 291.7514,206.1261 L 300.76373,192.09488 L 304.25789,194.3392 L 297.86685,204.28935 L 302.42563,207.21748 L 308.02765,198.49574 L 311.52181,200.74005 L 305.91979,209.4618 L 314.47774,214.95861 L 311.85645,219.03968 z M 317.35723,191.05973 C 319.18743,192.94563 321.02812,194.00379 322.87931,194.23419 C 324.73049,194.46462 326.40888,193.84926 327.9145,192.3881 C 329.43562,190.9119 330.11265,189.2414 329.94559,187.3766 C 329.7785,185.51183 328.77987,183.63648 326.94968,181.75057 C 325.11947,179.8647 323.2749,178.81031 321.41596,178.5874 C 319.55701,178.36454 317.86698,178.9912 316.34584,180.46739 C 314.84024,181.92856 314.17297,183.58582 314.34403,185.43918 C 314.51511,187.29257 315.5195,189.16609 317.35723,191.05973 L 317.35723,191.05973 z M 313.76006,194.55066 C 311.07126,191.78004 309.69266,188.84932 309.62425,185.75849 C 309.55587,182.66769 310.80221,179.87956 313.36329,177.39408 C 315.92439,174.90866 318.75438,173.7446 321.85329,173.90191 C 324.95219,174.05928 327.84228,175.51939 330.52356,178.28223 C 333.20483,181.04513 334.57766,183.97768 334.64208,187.07988 C 334.70647,190.18213 333.45812,192.97596 330.89705,195.46141 C 328.33595,197.94687 325.50983,199.10716 322.41869,198.94228 C 319.32755,198.77741 316.44134,197.31354 313.76006,194.55066 L 313.76006,194.55066 z M 339.74726,170.54683 L 344.75528,167.6709 C 345.84315,167.04619 346.51609,166.36667 346.77409,165.63236 C 347.03207,164.89808 346.8891,164.05733 346.34515,163.1101 C 345.82813,162.20981 345.1878,161.67026 344.42417,161.49144 C 343.66052,161.31268 342.78635,161.50603 341.80163,162.0715 L 336.59667,165.06052 L 339.74726,170.54683 z M 342.18186,184.65651 L 330.28231,163.93516 L 340.32647,158.16715 C 342.58664,156.86924 344.53802,156.39089 346.18063,156.73209 C 347.82322,157.07336 349.2154,158.23807 350.35716,160.22624 C 351.08421,161.49233 351.42515,162.69954 351.38,163.84785 C 351.33482,164.9962 350.90405,166.01055 350.08769,166.89089 C 351.1711,166.69275 352.09122,166.81285 352.84805,167.2512 C 353.60485,167.68958 354.40993,168.5866 355.26329,169.94225 L 356.75334,172.34152 C 356.7641,172.36029 356.78025,172.38842 356.80181,172.42592 C 357.54083,173.64771 358.23896,174.24449 358.89621,174.21624 L 359.25974,174.84928 L 354.58934,177.53132 C 354.27232,177.32677 353.95144,177.03403 353.62669,176.65308 C 353.30192,176.27216 352.96051,175.79166 352.60247,175.21159 L 351.29404,173.06345 C 350.50931,171.80556 349.76965,171.07675 349.07506,170.87701 C 348.38045,170.6773 347.46576,170.90327 346.331,171.55491 L 341.81535,174.14809 L 346.44429,182.20874 L 342.18186,184.65651 z M 367.88031,172.01047 L 362.03013,153.27389 L 355.26328,155.38672 L 353.99171,151.31422 L 372.17084,145.6381 L 373.44241,149.71059 L 366.72202,151.80892 L 372.5722,170.54551 L 367.88031,172.01047 z M 396.21174,166.47973 L 390.46762,142.29622 L 395.556,142.52952 L 398.86771,159.55375 L 403.09132,142.875 L 408.32554,143.11498 L 411.00526,160.11023 L 415.86087,143.46046 L 420.90063,143.69152 L 412.98392,167.24871 L 408.30068,167.03399 L 405.44401,148.58534 L 400.89499,166.69445 L 396.21174,166.47973 z M 436.88377,153.48826 L 430.58264,162.13122 L 436.89017,164.18932 L 436.88377,153.48826 z M 435.65398,148.05319 L 441.05162,149.81439 L 441.82844,175.20276 L 436.9243,173.60258 L 436.90682,168.42656 L 428.10095,165.55327 L 425.08033,169.73798 L 420.16076,168.13277 L 435.65398,148.05319 z M 453.16791,182.03654 L 448.9369,179.53485 L 453.46967,171.86876 L 453.628,154.54909 L 458.80854,157.61222 L 457.9643,169.07996 L 467.27057,162.61561 L 472.10202,165.47233 L 457.70068,174.37045 L 453.16791,182.03654 z M 461.65729,187.45819 L 478.12062,170.13963 L 481.84769,173.68266 L 477.56772,192.26476 L 488.87858,180.36634 L 492.39402,183.70818 L 475.93069,201.02674 L 472.25065,197.52842 L 476.48359,178.90161 L 465.17273,190.80003 L 461.65729,187.45819 z M 479.02898,204.99741 L 499.01615,191.90212 L 508.51979,206.40741 L 505.04612,208.6833 L 498.20065,198.23516 L 493.93998,201.02668 L 500.1987,210.57927 L 496.7793,212.81961 L 490.52059,203.26702 L 485.37793,206.63641 L 492.54345,217.57304 L 488.85267,219.99118 L 479.02898,204.99741 z"
       id="text3670" />
    <path
       style="font-size:33.22271729px;font-style:normal;font-variant:normal;font-weight:bold;font-stretch:normal;text-align:center;line-height:125%;writing-mode:lr-tb;text-anchor:middle;fill:#002868;fill-opacity:1;stroke:none;stroke-width:1px;stroke-linecap:butt;stroke-linejoin:miter;stroke-opacity:1;font-family:Swis721 BT;-inkscape-font-specification:Swis721 BT Bold"
       d="M 322.30378,363.24434 L 336.92346,344.34359 L 340.81139,347.3509 L 326.19171,366.25165 L 322.30378,363.24434 z M 334.2259,372.17874 L 345.2392,350.97306 L 349.80281,353.3432 L 350.84526,372.38332 L 358.41177,357.81432 L 362.71625,360.04988 L 351.70295,381.25555 L 347.19692,378.91532 L 346.09688,359.84529 L 338.53038,374.4143 L 334.2259,372.17874 z M 366.65233,381.67586 L 370.47966,382.61952 C 372.6952,383.16579 374.44214,382.98111 375.72051,382.06549 C 376.99884,381.14988 377.95904,379.39004 378.60112,376.78598 C 379.24057,374.19243 379.24845,372.17273 378.62477,370.72686 C 378.00105,369.28102 376.70742,368.31603 374.7439,367.83188 L 370.3338,366.74453 L 366.65233,381.67586 z M 360.94149,384.71207 L 366.66175,361.51182 L 375.7497,363.75254 C 379.30926,364.63021 381.7263,366.24534 383.00084,368.59792 C 384.27532,370.95054 384.43104,374.07988 383.46798,377.98595 C 382.94499,380.107 382.16127,381.89643 381.11684,383.35424 C 380.07235,384.81206 378.81418,385.88302 377.34231,386.56714 C 376.23705,387.07433 375.05693,387.34307 373.80196,387.37337 C 372.54696,387.40366 370.85894,387.15733 368.73791,386.63436 L 360.94149,384.71207 z M 389.51589,390.1919 L 391.0429,366.34569 L 395.94812,366.6598 L 394.42112,390.50601 L 389.51589,390.1919 z M 411.20095,370.90504 L 408.98929,381.36992 L 415.58667,380.66609 L 411.20095,370.90504 z M 407.85433,366.44942 L 413.50001,365.84712 L 424.6001,388.69358 L 419.4706,389.24081 L 417.33614,384.52535 L 408.12562,385.50795 L 407.08238,390.56241 L 401.93675,391.11136 L 407.85433,366.44942 z M 431.74148,386.90651 L 423.82412,364.36125 L 428.67602,362.65738 L 443.26831,374.93248 L 437.82881,359.44313 L 442.40521,357.83601 L 450.32257,380.38127 L 445.5319,382.06364 L 430.87839,369.81005 L 436.31788,385.29939 L 431.74148,386.90651 z M 456.33175,355.07548 L 459.02255,365.42751 L 464.61249,361.85353 L 456.33175,355.07548 z M 451.34849,352.58157 L 456.13205,349.52315 L 476.26097,365.01505 L 471.91477,367.79384 L 467.90032,364.52648 L 460.09628,369.51607 L 461.41827,374.50489 L 457.05839,377.29242 L 451.34849,352.58157 z"
       id="text3678" />
    <path
       style="font-size:42.97460175px;font-style:normal;font-variant:normal;font-weight:bold;font-stretch:normal;text-align:center;line-height:125%;writing-mode:lr-tb;text-anchor:middle;fill:#002868;fill-opacity:1;stroke:none;stroke-width:1px;stroke-linecap:butt;stroke-linejoin:miter;stroke-opacity:1;font-family:Swis721 BT;-inkscape-font-specification:Swis721 BT Bold"
       d="M 316.95734,281.6962 L 316.95734,261.15316 L 309.78091,261.15316 L 309.78091,256.93544 L 310.24255,256.93544 C 312.85852,256.93547 314.76453,256.52978 315.96061,255.71839 C 317.15667,254.90704 317.85962,253.5501 318.06947,251.64755 L 322.87474,251.64755 L 322.87474,281.6962 L 316.95734,281.6962 z M 338.41972,281.6962 L 332.14559,281.6962 C 332.36941,277.59739 333.35914,273.53355 335.11479,269.50467 C 336.87041,265.47582 339.37796,261.5169 342.63744,257.6279 L 327.86492,257.6279 L 327.86492,252.50788 L 349.16337,252.50788 L 349.16337,257.01938 C 345.86192,260.65657 343.32639,264.50358 341.55678,268.56041 C 339.78714,272.61726 338.74146,276.99586 338.41972,281.6962 L 338.41972,281.6962 z"
       id="text3686" />
    <path
       id="path3657"
       style="fill:#bf0a30;fill-opacity:1;fill-rule:evenodd;stroke:none;stroke-width:1px;stroke-linecap:butt;stroke-linejoin:miter;stroke-opacity:1"
       d="M 454.02103,346.73667 L 454.02103,297.25858 L 422.92709,297.25858 L 422.92709,281.55124 L 437.84975,281.55124 L 437.84975,240.71218 L 446.58496,240.71218 L 412.00808,215.58045 L 412.00808,184.55847 L 421.47123,184.55847 L 400,169.63651 L 378.52877,184.55847 L 387.99192,184.55847 L 387.99192,215.58045 L 353.41504,240.71218 L 362.15025,240.71218 L 362.15025,281.55124 L 377.07291,281.55124 L 377.07291,297.25858 L 345.97897,297.25858 L 345.97897,346.73667 L 454.02103,346.73667 z"
       sodipodi:nodetypes="ccccccccccccccccccccc" />
    <path
       style="font-size:42.97460175px;font-style:normal;font-variant:normal;font-weight:bold;font-stretch:normal;text-align:center;line-height:125%;writing-mode:lr-tb;text-anchor:middle;fill:#002868;fill-opacity:1;stroke:none;stroke-width:1px;stroke-linecap:butt;stroke-linejoin:miter;stroke-opacity:1;font-family:Swis721 BT;-inkscape-font-specification:Swis721 BT Bold"
       d="M 462.17477,262.09743 C 462.17476,260.37679 461.74459,259.01635 460.88428,258.0161 C 460.02393,257.0159 458.85234,256.51579 457.36951,256.51577 C 455.97059,256.51579 454.88293,256.99842 454.10654,257.96364 C 453.33014,258.92891 452.94194,260.27886 452.94195,262.01349 C 452.94194,263.63625 453.34763,264.90227 454.159,265.81154 C 454.97036,266.72085 456.11048,267.1755 457.57935,267.17548 C 459.02021,267.1755 460.14634,266.72785 460.95772,265.83253 C 461.76907,264.93724 462.17476,263.69221 462.17477,262.09743 L 462.17477,262.09743 z M 462.27969,269.92435 C 461.58022,270.62381 460.75486,271.14841 459.80362,271.49812 C 458.85234,271.84786 457.78218,272.02273 456.59311,272.02272 C 453.6414,272.02273 451.27724,271.13442 449.50062,269.35779 C 447.724,267.58118 446.83569,265.20303 446.83569,262.22333 C 446.83569,259.06181 447.80094,256.5088 449.73144,254.56428 C 451.66194,252.61982 454.20796,251.64758 457.36951,251.64755 C 461.03464,251.64758 463.82198,252.9101 465.73151,255.43511 C 467.641,257.96017 468.59576,261.6428 468.59578,266.48302 C 468.59576,271.68699 467.57456,275.67388 465.53216,278.44373 C 463.48973,281.21357 460.55202,282.5985 456.71901,282.5985 C 454.07506,282.5985 451.94172,281.90953 450.31899,280.5316 C 448.69625,279.15368 447.80794,277.27564 447.65406,274.89748 L 453.71835,274.91846 C 453.85823,275.88372 454.23593,276.60416 454.85147,277.07979 C 455.46698,277.55542 456.3343,277.79323 457.45344,277.79323 C 458.96426,277.79323 460.11836,277.13575 460.91575,275.82076 C 461.71312,274.50579 462.16776,272.54032 462.27969,269.92435 L 462.27969,269.92435 z M 483.80896,270.57484 L 483.80896,257.71184 L 475.6463,270.57484 L 483.80896,270.57484 z M 483.68306,281.6962 L 483.68306,275.21224 L 471.00891,275.21224 L 471.00891,269.92435 L 482.0883,252.50788 L 489.53751,252.50788 L 489.53751,270.42795 L 493.0208,270.42795 L 493.0208,275.21224 L 489.53751,275.21224 L 489.53751,281.6962 L 483.68306,281.6962 z"
       id="text3719" />
  </g>
</svg>
