<?xml version="1.0" encoding="UTF-8" standalone="no"?>
<!-- Created with Inkscape (http://www.inkscape.org/) -->
<svg
   xmlns:dc="http://purl.org/dc/elements/1.1/"
   xmlns:cc="http://creativecommons.org/ns#"
   xmlns:rdf="http://www.w3.org/1999/02/22-rdf-syntax-ns#"
   xmlns:svg="http://www.w3.org/2000/svg"
   xmlns="http://www.w3.org/2000/svg"
   xmlns:sodipodi="http://sodipodi.sourceforge.net/DTD/sodipodi-0.dtd"
   xmlns:inkscape="http://www.inkscape.org/namespaces/inkscape"
   width="800"
   height="533.33002"
   id="svg2"
   sodipodi:version="0.32"
   inkscape:version="0.46"
   version="1.0"
   sodipodi:docname="Flag of Montgomery, Alabama.svg"
   inkscape:output_extension="org.inkscape.output.svg.inkscape">
  <defs
     id="defs4">
    <inkscape:perspective
       sodipodi:type="inkscape:persp3d"
       inkscape:vp_x="0 : 526.18109 : 1"
       inkscape:vp_y="0 : 1000 : 0"
       inkscape:vp_z="744.09448 : 526.18109 : 1"
       inkscape:persp3d-origin="372.04724 : 350.78739 : 1"
       id="perspective10" />
    <inkscape:perspective
       id="perspective3541"
       inkscape:persp3d-origin="372.04724 : 350.78739 : 1"
       inkscape:vp_z="744.09448 : 526.18109 : 1"
       inkscape:vp_y="0 : 1000 : 0"
       inkscape:vp_x="0 : 526.18109 : 1"
       sodipodi:type="inkscape:persp3d" />
    <inkscape:perspective
       id="perspective4039"
       inkscape:persp3d-origin="372.04724 : 350.78739 : 1"
       inkscape:vp_z="744.09448 : 526.18109 : 1"
       inkscape:vp_y="0 : 1000 : 0"
       inkscape:vp_x="0 : 526.18109 : 1"
       sodipodi:type="inkscape:persp3d" />
    <inkscape:perspective
       id="perspective4222"
       inkscape:persp3d-origin="372.04724 : 350.78739 : 1"
       inkscape:vp_z="744.09448 : 526.18109 : 1"
       inkscape:vp_y="0 : 1000 : 0"
       inkscape:vp_x="0 : 526.18109 : 1"
       sodipodi:type="inkscape:persp3d" />
  </defs>
  <sodipodi:namedview
     id="base"
     pagecolor="#ffffff"
     bordercolor="#666666"
     borderopacity="1.0"
     gridtolerance="10000"
     guidetolerance="10"
     objecttolerance="10"
     inkscape:pageopacity="0.0"
     inkscape:pageshadow="2"
     inkscape:zoom="0.49055533"
     inkscape:cx="148.65253"
     inkscape:cy="149.34514"
     inkscape:document-units="px"
     inkscape:current-layer="layer1"
     showgrid="false"
     width="800px"
     inkscape:window-width="1280"
     inkscape:window-height="952"
     inkscape:window-x="-4"
     inkscape:window-y="-4"
     showguides="false"
     inkscape:guide-bbox="true">
    <inkscape:grid
       type="xygrid"
       id="grid2383"
       visible="true"
       enabled="true" />
    <sodipodi:guide
       orientation="0,1"
       position="0.6484375,533.32812"
       id="guide2467" />
    <sodipodi:guide
       orientation="1,0"
       position="0,533.08594"
       id="guide2469" />
    <sodipodi:guide
       orientation="1,0"
       position="800,-0.234375"
       id="guide2471" />
    <sodipodi:guide
       orientation="0,1"
       position="800.58203,0"
       id="guide2473" />
    <sodipodi:guide
       orientation="1,0"
       position="400,277.33594"
       id="guide2547" />
    <sodipodi:guide
       orientation="0,1"
       position="344.71875,266.67188"
       id="guide2549" />
  </sodipodi:namedview>
  <metadata
     id="metadata7">
    <rdf:RDF>
      <cc:Work
         rdf:about="">
        <dc:format>image/svg+xml</dc:format>
        <dc:type
           rdf:resource="http://purl.org/dc/dcmitype/StillImage" />
      </cc:Work>
    </rdf:RDF>
  </metadata>
  <g
     inkscape:label="Layer 1"
     inkscape:groupmode="layer"
     id="layer1">
    <path
       style="fill:#c70f2e;fill-rule:evenodd;stroke:none;stroke-width:1px;stroke-linecap:butt;stroke-linejoin:miter;stroke-opacity:1;fill-opacity:1"
       d="M 246.04143,533.33002 L 553.95857,0.0018970898 L 800,0.0018970898 L 800,533.33002 L 246.04143,533.33002 z"
       id="path4248" />
    <path
       id="path4250"
       d="M 246.04143,533.33002 L 553.95857,0.0018970898 L 0,0.0018970898 L 0,533.33002 L 246.04143,533.33002 z"
       style="fill:#666666;fill-rule:evenodd;stroke:none;stroke-width:1px;stroke-linecap:butt;stroke-linejoin:miter;stroke-opacity:1;fill-opacity:1"
       sodipodi:nodetypes="ccccc" />
    <path
       style="fill:#666666;fill-rule:evenodd;stroke:none;stroke-width:1px;stroke-linecap:butt;stroke-linejoin:miter;stroke-opacity:1;fill-opacity:1"
       d="M 473.125 140.03125 L 326.78125 393.5 C 348.32902 405.97438 373.3272 413.125 400 413.125 C 480.84798 413.125 546.46873 347.50423 546.46875 266.65625 C 546.46875 212.44158 516.94348 165.2496 473.125 140.03125 z "
       id="path4234" />
    <path
       style="fill:#c70f2e;fill-rule:evenodd;stroke:none;stroke-width:1px;stroke-linecap:butt;stroke-linejoin:miter;stroke-opacity:1;fill-opacity:1"
       d="M 400 120.5625 C 319.15202 120.5625 253.53125 185.80827 253.53125 266.65625 C 253.53125 320.83143 283.01554 368.16327 326.78125 393.5 L 473.125 140.03125 C 451.59889 127.64257 426.63331 120.5625 400 120.5625 z "
       id="path4238" />
    <path
       transform="matrix(1,0,-0.5,0.8660254,0,0)"
       style="fill:#ffffff;fill-opacity:1;stroke:none;stroke-width:1.07456993999999990;stroke-miterlimit:4;stroke-opacity:1"
       d="M 485.3703,0.014028031 L 622.54903,0.014028031 L 622.54903,615.82464 L 485.3703,615.82464 L 485.3703,0.014028031 z"
       id="rect4228" />
    <path
       style="fill:#002673;fill-opacity:1;stroke:none;stroke-width:1.07456994;stroke-miterlimit:4;stroke-opacity:1"
       d="M 503.95801,0.014028031 L 603.96131,0.014028031 L 603.96131,615.82464 L 503.95801,615.82464 L 503.95801,0.014028031 z"
       id="rect4230"
       transform="matrix(1,0,-0.5,0.8660254,0,0)" />
    <path
       style="fill:#ffffff;fill-opacity:1;stroke:none;stroke-width:1;stroke-miterlimit:4;stroke-opacity:1"
       d="M 260.12367,484.52187 L 265.62069,501.43779 L 283.40735,501.43846 L 269.01804,511.89374 L 274.51377,528.81007 L 260.12367,518.35587 L 245.73357,528.81007 L 251.22931,511.89374 L 236.83999,501.43846 L 254.62665,501.43779 L 260.12367,484.52187 z"
       id="path4253" />
    <path
       id="path4369"
       d="M 287.83767,436.52187 L 293.33469,453.43779 L 311.12135,453.43846 L 296.73204,463.89374 L 302.22777,480.81007 L 287.83767,470.35587 L 273.44757,480.81007 L 278.94331,463.89374 L 264.55399,453.43846 L 282.34065,453.43779 L 287.83767,436.52187 z"
       style="fill:#ffffff;fill-opacity:1;stroke:none;stroke-width:1;stroke-miterlimit:4;stroke-opacity:1" />
    <path
       style="fill:#ffffff;fill-opacity:1;stroke:none;stroke-width:1;stroke-miterlimit:4;stroke-opacity:1"
       d="M 315.55167,388.52187 L 321.04869,405.43779 L 338.83535,405.43846 L 324.44604,415.89374 L 329.94177,432.81007 L 315.55167,422.35587 L 301.16157,432.81007 L 306.65731,415.89374 L 292.26799,405.43846 L 310.05465,405.43779 L 315.55167,388.52187 z"
       id="path4371" />
    <path
       id="path4373"
       d="M 343.26567,340.52187 L 348.76269,357.43779 L 366.54935,357.43846 L 352.16004,367.89374 L 357.65577,384.81007 L 343.26567,374.35587 L 328.87557,384.81007 L 334.37131,367.89374 L 319.98199,357.43846 L 337.76865,357.43779 L 343.26567,340.52187 z"
       style="fill:#ffffff;fill-opacity:1;stroke:none;stroke-width:1;stroke-miterlimit:4;stroke-opacity:1" />
    <path
       style="fill:#ffffff;fill-opacity:1;stroke:none;stroke-width:1;stroke-miterlimit:4;stroke-opacity:1"
       d="M 370.97967,292.52187 L 376.47669,309.43779 L 394.26337,309.43846 L 379.87407,319.89374 L 385.36977,336.81007 L 370.97967,326.35587 L 356.58957,336.81007 L 362.08531,319.89374 L 347.69599,309.43846 L 365.48265,309.43779 L 370.97967,292.52187 z"
       id="path4375" />
    <path
       id="path4377"
       d="M 398.69367,244.52187 L 404.19067,261.43779 L 421.97737,261.43846 L 407.58807,271.89374 L 413.08377,288.81007 L 398.69367,278.35587 L 384.30357,288.81007 L 389.79927,271.89374 L 375.40999,261.43846 L 393.19667,261.43779 L 398.69367,244.52187 z"
       style="fill:#ffffff;fill-opacity:1;stroke:none;stroke-width:1;stroke-miterlimit:4;stroke-opacity:1" />
    <path
       style="fill:#ffffff;fill-opacity:1;stroke:none;stroke-width:1;stroke-miterlimit:4;stroke-opacity:1"
       d="M 426.40767,196.52187 L 431.90467,213.43779 L 449.69137,213.43846 L 435.30207,223.89374 L 440.79777,240.81007 L 426.40767,230.35587 L 412.01757,240.81007 L 417.51327,223.89374 L 403.12397,213.43846 L 420.91067,213.43779 L 426.40767,196.52187 z"
       id="path4379" />
    <path
       id="path4381"
       d="M 454.12167,148.52187 L 459.61867,165.43779 L 477.40537,165.43846 L 463.01607,175.89374 L 468.51177,192.81007 L 454.12167,182.35587 L 439.73157,192.81007 L 445.22727,175.89374 L 430.83797,165.43846 L 448.62467,165.43779 L 454.12167,148.52187 z"
       style="fill:#ffffff;fill-opacity:1;stroke:none;stroke-width:1;stroke-miterlimit:4;stroke-opacity:1" />
    <path
       style="fill:#ffffff;fill-opacity:1;stroke:none;stroke-width:1;stroke-miterlimit:4;stroke-opacity:1"
       d="M 481.83567,100.52187 L 487.33267,117.43779 L 505.11937,117.43846 L 490.73007,127.89374 L 496.22577,144.81007 L 481.83567,134.35587 L 467.44557,144.81007 L 472.94127,127.89374 L 458.55197,117.43846 L 476.33867,117.43779 L 481.83567,100.52187 z"
       id="path4383" />
    <path
       id="path4385"
       d="M 509.54967,52.52187 L 515.04667,69.43779 L 532.83337,69.43846 L 518.44407,79.89374 L 523.93977,96.81007 L 509.54967,86.35587 L 495.15957,96.81007 L 500.65527,79.89374 L 486.26597,69.43846 L 504.05267,69.43779 L 509.54967,52.52187 z"
       style="fill:#ffffff;fill-opacity:1;stroke:none;stroke-width:1;stroke-miterlimit:4;stroke-opacity:1" />
    <path
       style="fill:#ffffff;fill-opacity:1;stroke:none;stroke-width:1;stroke-miterlimit:4;stroke-opacity:1"
       d="M 537.26367,4.52187 L 542.76067,21.43779 L 560.54737,21.43846 L 546.15807,31.89374 L 551.65377,48.81007 L 537.26367,38.35587 L 522.87357,48.81007 L 528.36927,31.89374 L 513.97997,21.43846 L 531.76667,21.43779 L 537.26367,4.52187 z"
       id="path4387" />
    <path
       sodipodi:nodetypes="ccscssccccsscsc"
       style="fill:#f5dc0f;fill-opacity:1;fill-rule:evenodd;stroke:#000000;stroke-width:1;stroke-linecap:butt;stroke-linejoin:miter;stroke-miterlimit:4;stroke-dasharray:none;stroke-opacity:1"
       d="M 420.8125,116.0625 C 414.92423,116.18687 408.94077,117.38322 405.78125,120.65625 C 411.66644,123.93313 423.97512,132.57705 432.5625,132.0625 C 436.77971,131.80982 440.83783,131.0561 444.40625,129.5 C 463.88775,136.435 486.9292,149.63669 505.625,169.28125 C 527.59752,192.36882 543.35767,225.02975 543,266.625 C 542.28384,349.9107 478.78566,402.94081 410.1875,409.3125 C 392.98668,412.0287 377.98195,424.05213 366.125,436.1875 L 373.8125,444.1875 C 383.77734,432.47124 394.58953,418.15286 410.71875,415.28125 C 482.04441,408.65622 548.25772,353.01005 549,266.6875 C 549.3716,223.47285 531.03552,190.38249 508.1875,166.375 C 488.5075,145.69629 465.48383,133.06108 445.21875,126.1875 C 440.42894,120.89858 434.05451,116.8985 426.5625,116.25 C 424.73027,116.0914 422.77526,116.02104 420.8125,116.0625 z"
       id="path3695" />
    <path
       style="fill:#f5dc0f;fill-opacity:1;fill-rule:evenodd;stroke:#000000;stroke-width:1px;stroke-linecap:butt;stroke-linejoin:miter;stroke-opacity:1"
       d="M 421.52257,407.96455 C 421.88161,402.89211 424.00923,397.86751 426.92968,393.10645 C 431.70743,385.31752 446.72663,379.86984 453.16063,376.74053 C 454.39624,383.06358 449.35333,391.51356 444.34115,397.50779 C 438.5764,404.40204 429.99397,407.49033 421.52257,407.96455 z"
       id="path3701"
       sodipodi:nodetypes="cscsc" />
    <path
       sodipodi:nodetypes="cscsc"
       id="path3703"
       d="M 455.82198,398.24321 C 454.91458,393.23969 455.7326,387.84485 457.384,382.50916 C 460.08563,373.78016 473.28954,364.78515 478.74901,360.16096 C 481.51095,365.98157 478.71599,375.41668 475.34309,382.46482 C 471.46376,390.57122 463.91253,395.68733 455.82198,398.24321 z"
       style="fill:#f5dc0f;fill-opacity:1;fill-rule:evenodd;stroke:#000000;stroke-width:1px;stroke-linecap:butt;stroke-linejoin:miter;stroke-opacity:1"
       inkscape:transform-center-x="-67.658794"
       inkscape:transform-center-y="112.54394" />
    <path
       inkscape:transform-center-y="90.762116"
       inkscape:transform-center-x="-93.220117"
       style="fill:#f5dc0f;fill-opacity:1;fill-rule:evenodd;stroke:#000000;stroke-width:0.99999994px;stroke-linecap:butt;stroke-linejoin:miter;stroke-opacity:1"
       d="M 487.58116,379.45767 C 485.45004,374.89671 484.87195,369.52579 485.10658,364.00122 C 485.49042,354.96323 495.86106,343.02071 499.92071,337.21643 C 504.03336,342.09167 503.73833,351.82919 502.28776,359.42745 C 500.6194,368.16657 494.68142,374.96954 487.58116,379.45767 z"
       id="path3705"
       sodipodi:nodetypes="cscsc" />
    <path
       sodipodi:nodetypes="cscsc"
       id="path3707"
       d="M 513.80621,352.93203 C 510.56672,349.0785 508.61755,344.04047 507.41358,338.64359 C 505.44393,329.81448 512.36832,315.59383 514.78647,308.93628 C 520.02129,312.58026 522.25785,322.06204 522.82434,329.77674 C 523.47589,338.6498 519.50208,346.75838 513.80621,352.93203 z"
       style="fill:#f5dc0f;fill-opacity:1;fill-rule:evenodd;stroke:#000000;stroke-width:0.99999994px;stroke-linecap:butt;stroke-linejoin:miter;stroke-opacity:1"
       inkscape:transform-center-x="-113.83006"
       inkscape:transform-center-y="63.63325" />
    <path
       inkscape:transform-center-y="35.725925"
       inkscape:transform-center-x="-124.67026"
       style="fill:#f5dc0f;fill-opacity:1;fill-rule:evenodd;stroke:#000000;stroke-width:0.99999994px;stroke-linecap:butt;stroke-linejoin:miter;stroke-opacity:1"
       d="M 530.48565,324.42173 C 526.49147,321.44077 523.47283,317.02624 521.09123,312.0972 C 517.19502,304.03347 520.65077,288.76084 521.47487,281.79717 C 527.34471,284.12464 531.64587,292.757 533.93758,300.06419 C 536.57338,308.46854 534.57829,317.18273 530.48565,324.42173 z"
       id="path3709"
       sodipodi:nodetypes="cscsc" />
    <path
       sodipodi:nodetypes="cscsc"
       id="path3711"
       d="M 540.88724,289.26466 C 536.26521,287.40011 532.22116,283.90068 528.66199,279.74139 C 522.8393,272.93695 522.28851,257.28792 521.31061,250.34416 C 527.57982,251.09879 533.939,258.34987 538.01735,264.8317 C 542.70806,272.28675 542.99978,281.22164 540.88724,289.26466 z"
       style="fill:#f5dc0f;fill-opacity:1;fill-rule:evenodd;stroke:#000000;stroke-width:0.99999994px;stroke-linecap:butt;stroke-linejoin:miter;stroke-opacity:1"
       inkscape:transform-center-x="-129.10621"
       inkscape:transform-center-y="3.0836547" />
    <path
       inkscape:transform-center-y="-30.036701"
       inkscape:transform-center-x="-123.64483"
       style="fill:#f5dc0f;fill-opacity:1;fill-rule:evenodd;stroke:#000000;stroke-width:0.99999994px;stroke-linecap:butt;stroke-linejoin:miter;stroke-opacity:1"
       d="M 541.77836,251.84992 C 536.88065,251.25189 532.11648,248.94237 527.64679,245.87757 C 520.33455,240.86365 515.79609,226.04075 513.08088,219.65161 C 519.26913,218.76602 527.20889,224.0695 532.77042,229.22208 C 539.167,235.14833 541.73653,243.61738 541.77836,251.84992 z"
       id="path3713"
       sodipodi:nodetypes="cscsc" />
    <path
       sodipodi:nodetypes="cscsc"
       id="path3715"
       d="M 534.26573,215.33103 C 529.3569,216.19309 524.07396,215.36197 518.85354,213.71439 C 510.31309,211.01899 501.56916,198.02903 497.06681,192.65309 C 502.78655,189.97786 512.01854,192.76858 518.90794,196.11271 C 526.83176,199.95895 531.80483,207.38767 534.26573,215.33103 z"
       style="fill:#f5dc0f;fill-opacity:1;fill-rule:evenodd;stroke:#000000;stroke-width:0.99999994px;stroke-linecap:butt;stroke-linejoin:miter;stroke-opacity:1"
       inkscape:transform-center-x="-112.91627"
       inkscape:transform-center-y="-67.02816" />
    <path
       inkscape:transform-center-y="-93.652545"
       inkscape:transform-center-x="-92.198679"
       style="fill:#f5dc0f;fill-opacity:1;fill-rule:evenodd;stroke:#000000;stroke-width:0.99999994px;stroke-linecap:butt;stroke-linejoin:miter;stroke-opacity:1"
       d="M 515.1584,181.00645 C 510.72146,183.04965 505.50702,183.58159 500.14789,183.32413 C 491.38055,182.90294 479.84885,172.77604 474.23895,168.80572 C 478.99151,164.84159 488.43807,165.18039 495.80272,166.62884 C 504.27315,168.29477 510.84195,174.09299 515.1584,181.00645 z"
       id="path3717"
       sodipodi:nodetypes="cscsc" />
    <path
       sodipodi:nodetypes="cscsc"
       id="path3719"
       d="M 491.82747,156.72535 C 487.95286,159.69994 482.98549,161.37287 477.70229,162.308 C 469.05918,163.83781 455.57203,156.51454 449.22247,153.88439 C 452.97971,148.96665 462.26697,147.20613 469.76954,146.98855 C 478.39861,146.7383 486.08787,150.93879 491.82747,156.72535 z"
       style="fill:#f5dc0f;fill-opacity:1;fill-rule:evenodd;stroke:#000000;stroke-width:0.99999994px;stroke-linecap:butt;stroke-linejoin:miter;stroke-opacity:1"
       inkscape:transform-center-x="-69.27497"
       inkscape:transform-center-y="-111.91119" />
    <path
       style="fill:#f5dc0f;fill-opacity:1;fill-rule:evenodd;stroke:#000000;stroke-width:0.99999994px;stroke-linecap:butt;stroke-linejoin:miter;stroke-opacity:1"
       d="M 464.245,139.0662 C 460.98341,142.63664 456.43125,145.12754 451.44346,146.95396 C 443.28365,149.94192 428.86902,145.13932 422.22439,143.67523 C 425.03508,138.23106 433.78281,134.90666 441.05814,133.39531 C 449.42588,131.65702 457.64829,134.41978 464.245,139.0662 z"
       id="path3723"
       sodipodi:nodetypes="cscsc"
       inkscape:transform-center-y="-122.7652"
       inkscape:transform-center-x="-48.734695" />
    <path
       sodipodi:nodetypes="cscsc"
       id="path3725"
       d="M 416.76275,415.32934 C 419.92587,419.31097 424.52094,422.25353 429.62111,424.53057 C 437.96482,428.25574 453.43401,424.26107 460.51047,423.20615 C 457.95603,417.29155 449.01996,413.1709 441.49722,411.05878 C 432.84495,408.62952 424.01933,410.93256 416.76275,415.32934 z"
       style="fill:#f5dc0f;fill-opacity:1;fill-rule:evenodd;stroke:#000000;stroke-width:1px;stroke-linecap:butt;stroke-linejoin:miter;stroke-opacity:1"
       inkscape:transform-center-x="-38.63661"
       inkscape:transform-center-y="151.42207" />
    <path
       inkscape:transform-center-y="138.86869"
       inkscape:transform-center-x="-73.001535"
       style="fill:#f5dc0f;fill-opacity:1;fill-rule:evenodd;stroke:#000000;stroke-width:1px;stroke-linecap:butt;stroke-linejoin:miter;stroke-opacity:1"
       d="M 450.8109,407.37904 C 454.81176,410.5178 459.96431,412.31351 465.4537,413.34465 C 474.43416,415.03156 488.55379,407.55565 495.19217,404.88712 C 491.33474,399.7269 481.6863,397.7928 473.87877,397.48434 C 464.89895,397.12957 456.84885,401.4181 450.8109,407.37904 z"
       id="path3727"
       sodipodi:nodetypes="cscsc" />
    <path
       sodipodi:nodetypes="cscsc"
       id="path3729"
       d="M 482.49977,391.54192 C 487.07708,393.63772 492.45229,394.17429 497.97488,393.89695 C 507.00964,393.44324 518.87162,382.98059 524.64434,378.87619 C 519.73746,374.80137 510.00252,375.17167 502.4157,376.68091 C 493.68973,378.41678 486.93286,384.40717 482.49977,391.54192 z"
       style="fill:#f5dc0f;fill-opacity:1;fill-rule:evenodd;stroke:#000000;stroke-width:0.99999994px;stroke-linecap:butt;stroke-linejoin:miter;stroke-opacity:1"
       inkscape:transform-center-x="-103.57206"
       inkscape:transform-center-y="118.13745" />
    <path
       inkscape:transform-center-y="90.471005"
       inkscape:transform-center-x="-128.56129"
       style="fill:#f5dc0f;fill-opacity:1;fill-rule:evenodd;stroke:#000000;stroke-width:0.99999994px;stroke-linecap:butt;stroke-linejoin:miter;stroke-opacity:1"
       d="M 509.57105,368.62065 C 514.51301,369.58045 519.86354,368.83703 525.16577,367.26788 C 533.84004,364.70082 542.9068,351.74059 547.55154,346.39299 C 541.82355,343.58732 532.44914,346.23807 525.43054,349.49029 C 517.35811,353.23084 512.20068,360.64305 509.57105,368.62065 z"
       id="path3731"
       sodipodi:nodetypes="cscsc" />
    <path
       sodipodi:nodetypes="cscsc"
       id="path3733"
       d="M 531.23488,338.75817 C 536.21162,338.49004 541.17064,336.48797 545.88448,333.70461 C 553.59616,329.15113 559.18253,314.52281 562.35531,308.26937 C 556.17936,306.9542 547.81549,311.7566 541.85866,316.56941 C 535.00744,322.10487 531.8394,330.46435 531.23488,338.75817 z"
       style="fill:#f5dc0f;fill-opacity:1;fill-rule:evenodd;stroke:#000000;stroke-width:0.99999994px;stroke-linecap:butt;stroke-linejoin:miter;stroke-opacity:1"
       inkscape:transform-center-x="-146.79509"
       inkscape:transform-center-y="56.745467" />
    <path
       inkscape:transform-center-y="19.193334"
       inkscape:transform-center-x="-155.94933"
       style="fill:#f5dc0f;fill-opacity:1;fill-rule:evenodd;stroke:#000000;stroke-width:0.99999994px;stroke-linecap:butt;stroke-linejoin:miter;stroke-opacity:1"
       d="M 544.89123,304.44096 C 549.65093,302.96277 553.96902,299.80774 557.85815,295.95519 C 564.22062,289.65256 566.05631,274.10182 567.60185,267.26199 C 561.29185,267.49858 554.35796,274.2022 549.76043,280.32672 C 544.47261,287.37083 543.44719,296.25148 544.89123,304.44096 z"
       id="path3735"
       sodipodi:nodetypes="cscsc" />
    <path
       sodipodi:nodetypes="cscsc"
       id="path3737"
       d="M 549.77926,268.12604 C 553.99852,265.56803 557.39264,261.50468 560.2079,256.87375 C 564.81357,249.29774 562.85942,233.91928 562.70903,226.97875 C 556.70357,228.71458 551.6448,236.81243 548.69213,243.79539 C 545.29615,251.82682 546.43412,260.60362 549.77926,268.12604 z"
       style="fill:#f5dc0f;fill-opacity:1;fill-rule:evenodd;stroke:#000000;stroke-width:0.99999994px;stroke-linecap:butt;stroke-linejoin:miter;stroke-opacity:1"
       inkscape:transform-center-x="-154.94413"
       inkscape:transform-center-y="-19.105746" />
    <path
       inkscape:transform-center-y="-55.219541"
       inkscape:transform-center-x="-146.50914"
       style="fill:#f5dc0f;fill-opacity:1;fill-rule:evenodd;stroke:#000000;stroke-width:0.99999994px;stroke-linecap:butt;stroke-linejoin:miter;stroke-opacity:1"
       d="M 545.94538,232.95466 C 549.44697,229.47839 551.79336,224.73231 553.44391,219.57024 C 556.14416,211.12532 550.63753,196.63419 548.86345,189.92254 C 543.43265,193.01852 540.41433,202.077 539.18187,209.55771 C 537.76438,218.16162 540.92919,226.42668 545.94538,232.95466 z"
       id="path3739"
       sodipodi:nodetypes="cscsc" />
    <path
       sodipodi:nodetypes="cscsc"
       id="path3741"
       d="M 532.73163,199.55616 C 535.29756,195.39959 536.45764,190.28811 536.85166,184.93727 C 537.49627,176.18351 528.84185,163.50935 525.58079,157.45955 C 521.06984,161.69658 520.26107,171.11454 520.80614,178.60046 C 521.43306,187.21037 526.39233,194.43353 532.73163,199.55616 z"
       style="fill:#f5dc0f;fill-opacity:1;fill-rule:evenodd;stroke:#000000;stroke-width:0.99999994px;stroke-linecap:butt;stroke-linejoin:miter;stroke-opacity:1"
       inkscape:transform-center-x="-130.02138"
       inkscape:transform-center-y="-88.150286" />
    <path
       inkscape:transform-center-y="-114.62674"
       inkscape:transform-center-x="-107.46148"
       style="fill:#f5dc0f;fill-opacity:1;fill-rule:evenodd;stroke:#000000;stroke-width:0.99999994px;stroke-linecap:butt;stroke-linejoin:miter;stroke-opacity:1"
       d="M 514.23345,171.78143 C 515.82435,167.16298 515.83407,161.92152 515.04386,156.6147 C 513.75114,147.93295 502.5256,137.46774 498.01604,132.28137 C 494.54522,137.40529 495.8236,146.77107 497.99867,153.95474 C 500.50034,162.21702 506.92426,168.17535 514.23345,171.78143 z"
       id="path3743"
       sodipodi:nodetypes="cscsc" />
    <path
       sodipodi:nodetypes="cscsc"
       id="path3745"
       d="M 492.29276,150.96889 C 492.89063,146.17005 491.82956,141.09064 489.98026,136.11128 C 486.9549,127.96525 473.94333,120.12016 468.51568,116.0171 C 466.19995,121.68952 469.35112,130.50111 472.92526,137.01575 C 477.03606,144.50853 484.47582,148.96842 492.29276,150.96889 z"
       style="fill:#f5dc0f;fill-opacity:1;fill-rule:evenodd;stroke:#000000;stroke-width:0.99999994px;stroke-linecap:butt;stroke-linejoin:miter;stroke-opacity:1"
       inkscape:transform-center-x="-81.591555"
       inkscape:transform-center-y="-134.41515" />
    <path
       inkscape:transform-center-y="-147.33879"
       inkscape:transform-center-x="-53.51246"
       style="fill:#f5dc0f;fill-opacity:1;fill-rule:evenodd;stroke:#000000;stroke-width:0.99999994px;stroke-linecap:butt;stroke-linejoin:miter;stroke-opacity:1"
       d="M 467.23879,135.56834 C 467.37146,130.73422 465.82587,125.78069 463.50537,121.00269 C 459.70914,113.1861 446.00216,106.63131 440.20439,103.07035 C 438.44604,108.93952 442.43163,117.40646 446.61689,123.54638 C 451.43056,130.60817 459.26546,134.33041 467.23879,135.56834 z"
       id="path3747"
       sodipodi:nodetypes="cscsc" />
    <path
       id="path3878"
       d="M 379.1875,116.0625 C 385.07577,116.18687 391.05923,117.38322 394.21875,120.65625 C 388.33356,123.93313 376.02488,132.57705 367.4375,132.0625 C 363.22029,131.80982 359.16217,131.0561 355.59375,129.5 C 336.11225,136.435 313.0708,149.63669 294.375,169.28125 C 272.40248,192.36882 256.64233,225.02975 257,266.625 C 257.71616,349.9107 321.21434,402.94081 389.8125,409.3125 C 407.01332,412.0287 422.01805,424.05213 433.875,436.1875 L 426.1875,444.1875 C 416.22266,432.47124 405.41047,418.15286 389.28125,415.28125 C 317.95559,408.65622 251.74228,353.01005 251,266.6875 C 250.6284,223.47285 268.96448,190.38249 291.8125,166.375 C 311.4925,145.69629 334.51617,133.06108 354.78125,126.1875 C 359.57106,120.89858 365.94549,116.8985 373.4375,116.25 C 375.26973,116.0914 377.22474,116.02104 379.1875,116.0625 z"
       style="fill:#f5dc0f;fill-opacity:1;fill-rule:evenodd;stroke:#000000;stroke-width:1;stroke-linecap:butt;stroke-linejoin:miter;stroke-miterlimit:4;stroke-dasharray:none;stroke-opacity:1"
       sodipodi:nodetypes="ccscssccccsscsc" />
    <path
       sodipodi:nodetypes="cscsc"
       id="path3880"
       d="M 378.47743,407.96455 C 378.11839,402.89211 375.99077,397.86751 373.07032,393.10645 C 368.29257,385.31752 353.27337,379.86984 346.83937,376.74053 C 345.60376,383.06358 350.64667,391.51356 355.65885,397.50779 C 361.4236,404.40204 370.00603,407.49033 378.47743,407.96455 z"
       style="fill:#f5dc0f;fill-opacity:1;fill-rule:evenodd;stroke:#000000;stroke-width:1px;stroke-linecap:butt;stroke-linejoin:miter;stroke-opacity:1" />
    <path
       inkscape:transform-center-y="112.54394"
       inkscape:transform-center-x="-67.658794"
       style="fill:#f5dc0f;fill-opacity:1;fill-rule:evenodd;stroke:#000000;stroke-width:1px;stroke-linecap:butt;stroke-linejoin:miter;stroke-opacity:1"
       d="M 344.17802,398.24321 C 345.08542,393.23969 344.2674,387.84485 342.616,382.50916 C 339.91437,373.78016 326.71046,364.78515 321.25099,360.16096 C 318.48905,365.98157 321.28401,375.41668 324.65691,382.46482 C 328.53624,390.57122 336.08747,395.68733 344.17802,398.24321 z"
       id="path3882"
       sodipodi:nodetypes="cscsc" />
    <path
       sodipodi:nodetypes="cscsc"
       id="path3884"
       d="M 312.41884,379.45767 C 314.54996,374.89671 315.12805,369.52579 314.89342,364.00122 C 314.50958,354.96323 304.13894,343.02071 300.07929,337.21643 C 295.96664,342.09167 296.26167,351.82919 297.71224,359.42745 C 299.3806,368.16657 305.31858,374.96954 312.41884,379.45767 z"
       style="fill:#f5dc0f;fill-opacity:1;fill-rule:evenodd;stroke:#000000;stroke-width:0.99999994px;stroke-linecap:butt;stroke-linejoin:miter;stroke-opacity:1"
       inkscape:transform-center-x="-93.220117"
       inkscape:transform-center-y="90.762116" />
    <path
       inkscape:transform-center-y="63.63325"
       inkscape:transform-center-x="-113.83006"
       style="fill:#f5dc0f;fill-opacity:1;fill-rule:evenodd;stroke:#000000;stroke-width:0.99999994px;stroke-linecap:butt;stroke-linejoin:miter;stroke-opacity:1"
       d="M 286.19379,352.93203 C 289.43328,349.0785 291.38245,344.04047 292.58642,338.64359 C 294.55607,329.81448 287.63168,315.59383 285.21353,308.93628 C 279.97871,312.58026 277.74215,322.06204 277.17566,329.77674 C 276.52411,338.6498 280.49792,346.75838 286.19379,352.93203 z"
       id="path3886"
       sodipodi:nodetypes="cscsc" />
    <path
       sodipodi:nodetypes="cscsc"
       id="path3888"
       d="M 269.51435,324.42173 C 273.50853,321.44077 276.52717,317.02624 278.90877,312.0972 C 282.80498,304.03347 279.34923,288.76084 278.52513,281.79717 C 272.65529,284.12464 268.35413,292.757 266.06242,300.06419 C 263.42662,308.46854 265.42171,317.18273 269.51435,324.42173 z"
       style="fill:#f5dc0f;fill-opacity:1;fill-rule:evenodd;stroke:#000000;stroke-width:0.99999994px;stroke-linecap:butt;stroke-linejoin:miter;stroke-opacity:1"
       inkscape:transform-center-x="-124.67026"
       inkscape:transform-center-y="35.725925" />
    <path
       inkscape:transform-center-y="3.0836547"
       inkscape:transform-center-x="-129.10621"
       style="fill:#f5dc0f;fill-opacity:1;fill-rule:evenodd;stroke:#000000;stroke-width:0.99999994px;stroke-linecap:butt;stroke-linejoin:miter;stroke-opacity:1"
       d="M 259.11276,289.26466 C 263.73479,287.40011 267.77884,283.90068 271.33801,279.74139 C 277.1607,272.93695 277.71149,257.28792 278.68939,250.34416 C 272.42018,251.09879 266.061,258.34987 261.98265,264.8317 C 257.29194,272.28675 257.00022,281.22164 259.11276,289.26466 z"
       id="path3890"
       sodipodi:nodetypes="cscsc" />
    <path
       sodipodi:nodetypes="cscsc"
       id="path3892"
       d="M 258.22164,251.84992 C 263.11935,251.25189 267.88352,248.94237 272.35321,245.87757 C 279.66545,240.86365 284.20391,226.04075 286.91912,219.65161 C 280.73087,218.76602 272.79111,224.0695 267.22958,229.22208 C 260.833,235.14833 258.26347,243.61738 258.22164,251.84992 z"
       style="fill:#f5dc0f;fill-opacity:1;fill-rule:evenodd;stroke:#000000;stroke-width:0.99999994px;stroke-linecap:butt;stroke-linejoin:miter;stroke-opacity:1"
       inkscape:transform-center-x="-123.64483"
       inkscape:transform-center-y="-30.036701" />
    <path
       inkscape:transform-center-y="-67.02816"
       inkscape:transform-center-x="-112.91627"
       style="fill:#f5dc0f;fill-opacity:1;fill-rule:evenodd;stroke:#000000;stroke-width:0.99999994px;stroke-linecap:butt;stroke-linejoin:miter;stroke-opacity:1"
       d="M 265.73427,215.33103 C 270.6431,216.19309 275.92604,215.36197 281.14646,213.71439 C 289.68691,211.01899 298.43084,198.02903 302.93319,192.65309 C 297.21345,189.97786 287.98146,192.76858 281.09206,196.11271 C 273.16824,199.95895 268.19517,207.38767 265.73427,215.33103 z"
       id="path3894"
       sodipodi:nodetypes="cscsc" />
    <path
       sodipodi:nodetypes="cscsc"
       id="path3896"
       d="M 284.8416,181.00645 C 289.27854,183.04965 294.49298,183.58159 299.85211,183.32413 C 308.61945,182.90294 320.15115,172.77604 325.76105,168.80572 C 321.00849,164.84159 311.56193,165.18039 304.19728,166.62884 C 295.72685,168.29477 289.15805,174.09299 284.8416,181.00645 z"
       style="fill:#f5dc0f;fill-opacity:1;fill-rule:evenodd;stroke:#000000;stroke-width:0.99999994px;stroke-linecap:butt;stroke-linejoin:miter;stroke-opacity:1"
       inkscape:transform-center-x="-92.198679"
       inkscape:transform-center-y="-93.652545" />
    <path
       inkscape:transform-center-y="-111.91119"
       inkscape:transform-center-x="-69.27497"
       style="fill:#f5dc0f;fill-opacity:1;fill-rule:evenodd;stroke:#000000;stroke-width:0.99999994px;stroke-linecap:butt;stroke-linejoin:miter;stroke-opacity:1"
       d="M 308.17253,156.72535 C 312.04714,159.69994 317.01451,161.37287 322.29771,162.308 C 330.94082,163.83781 344.42797,156.51454 350.77753,153.88439 C 347.02029,148.96665 337.73303,147.20613 330.23046,146.98855 C 321.60139,146.7383 313.91213,150.93879 308.17253,156.72535 z"
       id="path3898"
       sodipodi:nodetypes="cscsc" />
    <path
       inkscape:transform-center-x="-48.734695"
       inkscape:transform-center-y="-122.7652"
       sodipodi:nodetypes="cscsc"
       id="path3900"
       d="M 335.755,139.0662 C 339.01659,142.63664 343.56875,145.12754 348.55654,146.95396 C 356.71635,149.94192 371.13098,145.13932 377.77561,143.67523 C 374.96492,138.23106 366.21719,134.90666 358.94186,133.39531 C 350.57412,131.65702 342.35171,134.41978 335.755,139.0662 z"
       style="fill:#f5dc0f;fill-opacity:1;fill-rule:evenodd;stroke:#000000;stroke-width:0.99999994px;stroke-linecap:butt;stroke-linejoin:miter;stroke-opacity:1" />
    <path
       inkscape:transform-center-y="151.42207"
       inkscape:transform-center-x="-38.63661"
       style="fill:#f5dc0f;fill-opacity:1;fill-rule:evenodd;stroke:#000000;stroke-width:1px;stroke-linecap:butt;stroke-linejoin:miter;stroke-opacity:1"
       d="M 383.23725,415.32934 C 380.07413,419.31097 375.47906,422.25353 370.37889,424.53057 C 362.03518,428.25574 346.56599,424.26107 339.48953,423.20615 C 342.04397,417.29155 350.98004,413.1709 358.50278,411.05878 C 367.15505,408.62952 375.98067,410.93256 383.23725,415.32934 z"
       id="path3902"
       sodipodi:nodetypes="cscsc" />
    <path
       sodipodi:nodetypes="cscsc"
       id="path3904"
       d="M 349.1891,407.37904 C 345.18824,410.5178 340.03569,412.31351 334.5463,413.34465 C 325.56584,415.03156 311.44621,407.55565 304.80783,404.88712 C 308.66526,399.7269 318.3137,397.7928 326.12123,397.48434 C 335.10105,397.12957 343.15115,401.4181 349.1891,407.37904 z"
       style="fill:#f5dc0f;fill-opacity:1;fill-rule:evenodd;stroke:#000000;stroke-width:1px;stroke-linecap:butt;stroke-linejoin:miter;stroke-opacity:1"
       inkscape:transform-center-x="-73.001535"
       inkscape:transform-center-y="138.86869" />
    <path
       inkscape:transform-center-y="118.13745"
       inkscape:transform-center-x="-103.57206"
       style="fill:#f5dc0f;fill-opacity:1;fill-rule:evenodd;stroke:#000000;stroke-width:0.99999994px;stroke-linecap:butt;stroke-linejoin:miter;stroke-opacity:1"
       d="M 317.50023,391.54192 C 312.92292,393.63772 307.54771,394.17429 302.02512,393.89695 C 292.99036,393.44324 281.12838,382.98059 275.35566,378.87619 C 280.26254,374.80137 289.99748,375.17167 297.5843,376.68091 C 306.31027,378.41678 313.06714,384.40717 317.50023,391.54192 z"
       id="path3906"
       sodipodi:nodetypes="cscsc" />
    <path
       sodipodi:nodetypes="cscsc"
       id="path3908"
       d="M 290.42895,368.62065 C 285.48699,369.58045 280.13646,368.83703 274.83423,367.26788 C 266.15996,364.70082 257.0932,351.74059 252.44846,346.39299 C 258.17645,343.58732 267.55086,346.23807 274.56946,349.49029 C 282.64189,353.23084 287.79932,360.64305 290.42895,368.62065 z"
       style="fill:#f5dc0f;fill-opacity:1;fill-rule:evenodd;stroke:#000000;stroke-width:0.99999994px;stroke-linecap:butt;stroke-linejoin:miter;stroke-opacity:1"
       inkscape:transform-center-x="-128.56129"
       inkscape:transform-center-y="90.471005" />
    <path
       inkscape:transform-center-y="56.745467"
       inkscape:transform-center-x="-146.79509"
       style="fill:#f5dc0f;fill-opacity:1;fill-rule:evenodd;stroke:#000000;stroke-width:0.99999994px;stroke-linecap:butt;stroke-linejoin:miter;stroke-opacity:1"
       d="M 268.76512,338.75817 C 263.78838,338.49004 258.82936,336.48797 254.11552,333.70461 C 246.40384,329.15113 240.81747,314.52281 237.64469,308.26937 C 243.82064,306.9542 252.18451,311.7566 258.14134,316.56941 C 264.99256,322.10487 268.1606,330.46435 268.76512,338.75817 z"
       id="path3910"
       sodipodi:nodetypes="cscsc" />
    <path
       sodipodi:nodetypes="cscsc"
       id="path3912"
       d="M 255.10877,304.44096 C 250.34907,302.96277 246.03098,299.80774 242.14185,295.95519 C 235.77938,289.65256 233.94369,274.10182 232.39815,267.26199 C 238.70815,267.49858 245.64204,274.2022 250.23957,280.32672 C 255.52739,287.37083 256.55281,296.25148 255.10877,304.44096 z"
       style="fill:#f5dc0f;fill-opacity:1;fill-rule:evenodd;stroke:#000000;stroke-width:0.99999994px;stroke-linecap:butt;stroke-linejoin:miter;stroke-opacity:1"
       inkscape:transform-center-x="-155.94933"
       inkscape:transform-center-y="19.193334" />
    <path
       inkscape:transform-center-y="-19.105746"
       inkscape:transform-center-x="-154.94413"
       style="fill:#f5dc0f;fill-opacity:1;fill-rule:evenodd;stroke:#000000;stroke-width:0.99999994px;stroke-linecap:butt;stroke-linejoin:miter;stroke-opacity:1"
       d="M 250.22074,268.12604 C 246.00148,265.56803 242.60736,261.50468 239.7921,256.87375 C 235.18643,249.29774 237.14058,233.91928 237.29097,226.97875 C 243.29643,228.71458 248.3552,236.81243 251.30787,243.79539 C 254.70385,251.82682 253.56588,260.60362 250.22074,268.12604 z"
       id="path3914"
       sodipodi:nodetypes="cscsc" />
    <path
       sodipodi:nodetypes="cscsc"
       id="path3916"
       d="M 254.05462,232.95466 C 250.55303,229.47839 248.20664,224.73231 246.55609,219.57024 C 243.85584,211.12532 249.36247,196.63419 251.13655,189.92254 C 256.56735,193.01852 259.58567,202.077 260.81813,209.55771 C 262.23562,218.16162 259.07081,226.42668 254.05462,232.95466 z"
       style="fill:#f5dc0f;fill-opacity:1;fill-rule:evenodd;stroke:#000000;stroke-width:0.99999994px;stroke-linecap:butt;stroke-linejoin:miter;stroke-opacity:1"
       inkscape:transform-center-x="-146.50914"
       inkscape:transform-center-y="-55.219541" />
    <path
       inkscape:transform-center-y="-88.150286"
       inkscape:transform-center-x="-130.02138"
       style="fill:#f5dc0f;fill-opacity:1;fill-rule:evenodd;stroke:#000000;stroke-width:0.99999994px;stroke-linecap:butt;stroke-linejoin:miter;stroke-opacity:1"
       d="M 267.26837,199.55616 C 264.70244,195.39959 263.54236,190.28811 263.14834,184.93727 C 262.50373,176.18351 271.15815,163.50935 274.41921,157.45955 C 278.93016,161.69658 279.73893,171.11454 279.19386,178.60046 C 278.56694,187.21037 273.60767,194.43353 267.26837,199.55616 z"
       id="path3918"
       sodipodi:nodetypes="cscsc" />
    <path
       sodipodi:nodetypes="cscsc"
       id="path3920"
       d="M 285.76655,171.78143 C 284.17565,167.16298 284.16593,161.92152 284.95614,156.6147 C 286.24886,147.93295 297.4744,137.46774 301.98396,132.28137 C 305.45478,137.40529 304.1764,146.77107 302.00133,153.95474 C 299.49966,162.21702 293.07574,168.17535 285.76655,171.78143 z"
       style="fill:#f5dc0f;fill-opacity:1;fill-rule:evenodd;stroke:#000000;stroke-width:0.99999994px;stroke-linecap:butt;stroke-linejoin:miter;stroke-opacity:1"
       inkscape:transform-center-x="-107.46148"
       inkscape:transform-center-y="-114.62674" />
    <path
       inkscape:transform-center-y="-134.41515"
       inkscape:transform-center-x="-81.591555"
       style="fill:#f5dc0f;fill-opacity:1;fill-rule:evenodd;stroke:#000000;stroke-width:0.99999994px;stroke-linecap:butt;stroke-linejoin:miter;stroke-opacity:1"
       d="M 307.70724,150.96889 C 307.10937,146.17005 308.17044,141.09064 310.01974,136.11128 C 313.0451,127.96525 326.05667,120.12016 331.48432,116.0171 C 333.80005,121.68952 330.64888,130.50111 327.07474,137.01575 C 322.96394,144.50853 315.52418,148.96842 307.70724,150.96889 z"
       id="path3922"
       sodipodi:nodetypes="cscsc" />
    <path
       sodipodi:nodetypes="cscsc"
       id="path3924"
       d="M 332.76121,135.56834 C 332.62854,130.73422 334.17413,125.78069 336.49463,121.00269 C 340.29086,113.1861 353.99784,106.63131 359.79561,103.07035 C 361.55396,108.93952 357.56837,117.40646 353.38311,123.54638 C 348.56944,130.60817 340.73454,134.33041 332.76121,135.56834 z"
       style="fill:#f5dc0f;fill-opacity:1;fill-rule:evenodd;stroke:#000000;stroke-width:0.99999994px;stroke-linecap:butt;stroke-linejoin:miter;stroke-opacity:1"
       inkscape:transform-center-x="-53.51246"
       inkscape:transform-center-y="-147.33879" />
    <path
       style="font-size:65.71876526px;font-style:normal;font-variant:normal;font-weight:normal;font-stretch:normal;text-align:center;line-height:125%;writing-mode:lr-tb;text-anchor:middle;fill:#ffffff;fill-opacity:1;stroke:none;stroke-width:1px;stroke-linecap:butt;stroke-linejoin:miter;stroke-opacity:1;font-family:Futura BdCn BT;-inkscape-font-specification:Futura BdCn BT"
       d="M 396.76322,500.66003 L 401.35198,453.80974 L 413.38545,453.80974 L 415.82423,471.68345 C 416.18789,474.40037 416.49273,477.00494 416.73877,479.49718 C 416.98477,481.98946 417.18265,484.4122 417.33242,486.76539 C 417.71747,482.6366 418.04371,479.37954 418.31115,476.99422 C 418.57853,474.60894 418.79781,472.83869 418.96898,471.68345 L 421.98536,453.80974 L 433.89047,453.80974 L 437.83745,500.66003 L 428.37112,500.66003 L 427.37636,478.90353 C 427.35493,478.39012 427.32284,477.61998 427.28009,476.5931 C 427.00195,470.90264 426.8629,466.23901 426.86293,462.60219 L 420.76597,500.66003 L 413.99514,500.66003 L 408.25117,462.34548 C 408.25116,465.53305 408.05862,470.08971 407.67356,476.0155 C 407.58798,477.36327 407.5238,478.36873 407.48103,479.03189 L 406.03701,500.66003 L 396.76322,500.66003 z M 457.82905,492.31683 C 460.22502,492.31684 462.01667,491.06536 463.20399,488.56239 C 464.39127,486.05944 464.98492,482.29431 464.98495,477.26698 C 464.98492,472.19691 464.39127,468.41038 463.20399,465.90739 C 462.01667,463.40446 460.22502,462.15298 457.82905,462.15295 C 455.43303,462.15298 453.64673,463.39911 452.47014,465.89134 C 451.29353,468.38364 450.70522,472.17551 450.70524,477.26698 C 450.70522,482.3371 451.29353,486.11293 452.47014,488.59448 C 453.64673,491.07606 455.43303,492.31684 457.82905,492.31683 L 457.82905,492.31683 z M 474.32292,477.90876 C 474.32288,485.05398 472.82539,490.72842 469.83042,494.9321 C 466.8354,499.1358 462.83495,501.23764 457.82905,501.23764 C 452.65197,501.23764 448.61943,499.1251 445.7314,494.90002 C 442.84337,490.67494 441.39935,484.79727 441.39936,477.26698 C 441.39935,469.75813 442.85941,463.86976 445.77954,459.60185 C 448.69965,455.33403 452.71615,453.20009 457.82905,453.20005 C 462.9633,453.20009 466.99585,455.38216 469.92669,459.74625 C 472.85747,464.11043 474.32288,470.16459 474.32292,477.90876 L 474.32292,477.90876 z M 480.06689,500.66003 L 480.06689,453.80974 L 489.53321,453.80974 L 498.99954,479.03189 C 499.27762,479.84483 499.66804,481.09097 500.1708,482.77028 C 500.6735,484.44964 501.24576,486.42312 501.88757,488.69075 C 501.39551,485.37487 501.03183,482.33175 500.79654,479.56136 C 500.56119,476.79101 500.44353,474.20783 500.44355,471.81181 L 500.44355,453.80974 L 509.10765,453.80974 L 509.10765,500.66003 L 500.44355,500.66003 L 490.175,474.44312 C 490.00384,474.05808 489.55459,472.46432 488.82725,469.66183 C 488.48495,468.37829 488.21754,467.37283 488.02502,466.64544 C 488.23893,468.46386 488.39938,470.51222 488.50636,472.79053 C 488.61331,475.06889 488.66679,477.79112 488.6668,480.95724 L 488.6668,500.66003 L 480.06689,500.66003 z M 520.9165,500.66003 L 520.9165,462.47384 L 513.7606,462.47384 L 513.7606,453.80974 L 537.47454,453.80974 L 537.47454,462.47384 L 530.31864,462.47384 L 530.31864,500.66003 L 520.9165,500.66003 z M 555.31616,474.18641 L 572.74061,474.18641 C 572.74058,474.42176 572.75128,474.78009 572.7727,475.2614 C 572.79406,475.74276 572.80476,476.10109 572.80479,476.33639 C 572.80476,484.16618 571.36609,490.27383 568.48879,494.65935 C 565.61143,499.04488 561.63771,501.23764 556.56764,501.23764 C 551.62588,501.23764 547.711,499.09301 544.82298,494.80375 C 541.93494,490.5145 540.49093,484.66891 540.49093,477.26698 C 540.49093,469.80091 541.98842,463.92324 544.98342,459.63394 C 547.97841,455.34472 552.06443,453.20009 557.24151,453.20005 C 560.74991,453.20009 563.72886,454.22695 566.17836,456.28061 C 568.62781,458.33437 570.41946,461.31866 571.55331,465.23351 L 563.14593,469.11631 C 562.78223,466.78453 562.09231,465.04101 561.07618,463.88576 C 560.05999,462.73059 558.7176,462.15298 557.04898,462.15295 C 554.546,462.15298 552.71157,463.36703 551.54567,465.79507 C 550.37975,468.22319 549.7968,472.04716 549.79681,477.26698 C 549.7968,482.25152 550.41184,486.02735 551.64194,488.59448 C 552.87201,491.16163 554.67436,492.4452 557.04898,492.44519 C 559.12406,492.4452 560.74456,491.57344 561.9105,489.82992 C 563.07638,488.08641 563.65933,485.63159 563.65936,482.46543 L 555.31616,482.46543 L 555.31616,474.18641 z M 593.50236,492.31683 C 595.89834,492.31684 597.68998,491.06536 598.87731,488.56239 C 600.06458,486.05944 600.65824,482.29431 600.65826,477.26698 C 600.65824,472.19691 600.06458,468.41038 598.87731,465.90739 C 597.68998,463.40446 595.89834,462.15298 593.50236,462.15295 C 591.10635,462.15298 589.32005,463.39911 588.14346,465.89134 C 586.96684,468.38364 586.37854,472.17551 586.37855,477.26698 C 586.37854,482.3371 586.96684,486.11293 588.14346,488.59448 C 589.32005,491.07606 591.10635,492.31684 593.50236,492.31683 L 593.50236,492.31683 z M 609.99623,477.90876 C 609.99619,485.05398 608.4987,490.72842 605.50374,494.9321 C 602.50871,499.1358 598.50826,501.23764 593.50236,501.23764 C 588.32528,501.23764 584.29274,499.1251 581.40472,494.90002 C 578.51668,490.67494 577.07267,484.79727 577.07267,477.26698 C 577.07267,469.75813 578.53273,463.86976 581.45285,459.60185 C 584.37296,455.33403 588.38946,453.20009 593.50236,453.20005 C 598.63662,453.20009 602.66916,455.38216 605.6,459.74625 C 608.53079,464.11043 609.99619,470.16459 609.99623,477.90876 L 609.99623,477.90876 z M 613.42977,500.66003 L 618.01853,453.80974 L 630.052,453.80974 L 632.49078,471.68345 C 632.85444,474.40037 633.15928,477.00494 633.40532,479.49718 C 633.65132,481.98946 633.8492,484.4122 633.99897,486.76539 C 634.38402,482.6366 634.71026,479.37954 634.9777,476.99422 C 635.24508,474.60894 635.46436,472.83869 635.63552,471.68345 L 638.65191,453.80974 L 650.55702,453.80974 L 654.504,500.66003 L 645.03767,500.66003 L 644.04291,478.90353 C 644.02148,478.39012 643.98939,477.61998 643.94664,476.5931 C 643.6685,470.90264 643.52945,466.23901 643.52948,462.60219 L 637.43252,500.66003 L 630.66169,500.66003 L 624.91772,462.34548 C 624.91771,465.53305 624.72517,470.08971 624.34011,476.0155 C 624.25453,477.36327 624.19035,478.36873 624.14758,479.03189 L 622.70356,500.66003 L 613.42977,500.66003 z M 659.63828,500.66003 L 659.63828,453.80974 L 679.34108,453.80974 L 679.34108,462.47384 L 668.68745,462.47384 L 668.68745,471.94016 L 678.34631,471.94016 L 678.34631,480.54008 L 668.68745,480.54008 L 668.68745,491.5146 L 679.34108,491.5146 L 679.34108,500.66003 L 659.63828,500.66003 z M 694.74391,474.12223 C 694.85086,474.12226 695.02735,474.13295 695.27338,474.15432 C 695.51938,474.17574 695.69587,474.18644 695.80285,474.18641 C 697.83515,474.18644 699.36474,473.61953 700.39161,472.48568 C 701.41845,471.35189 701.93188,469.68325 701.9319,467.47976 C 701.93188,465.23355 701.46123,463.597 700.51997,462.57011 C 699.57867,461.54329 698.07047,461.02986 695.99539,461.02982 C 695.67448,461.02986 695.42846,461.03521 695.25733,461.04587 C 695.08618,461.0566 694.92573,461.07265 694.77599,461.094 L 694.74391,474.12223 z M 685.69474,500.66003 L 685.69474,453.80974 L 695.41778,453.80974 C 700.76597,453.80979 704.64341,454.85804 707.05013,456.95449 C 709.45679,459.05103 710.66014,462.399 710.66017,466.99842 C 710.66014,470.33573 710.0451,473.01518 708.81504,475.03678 C 707.58492,477.05842 705.7291,478.47569 703.24755,479.2886 L 712.23254,500.66003 L 702.38114,500.66003 L 694.74391,481.27813 L 694.74391,500.66003 L 685.69474,500.66003 z M 720.31902,500.66003 L 720.31902,478.64681 L 709.47286,453.80974 L 719.32426,453.80974 L 722.40482,462.2813 C 722.98242,463.80023 723.50654,465.31377 723.9772,466.82193 C 724.44783,468.33016 724.89708,469.86509 725.32494,471.42674 C 725.71,469.69395 726.12716,468.07879 726.57643,466.58126 C 727.02566,465.0838 727.48561,463.73605 727.95626,462.53802 L 731.35772,453.80974 L 740.50316,453.80974 L 729.59281,478.64681 L 729.59281,500.66003 L 720.31902,500.66003 z"
       id="text2481" />
    <path
       style="font-size:65.71876526px;font-style:normal;font-variant:normal;font-weight:normal;font-stretch:normal;text-align:center;line-height:125%;writing-mode:lr-tb;text-anchor:middle;fill:#ffffff;fill-opacity:1;stroke:none;stroke-width:1px;stroke-linecap:butt;stroke-linejoin:miter;stroke-opacity:1;font-family:Futura BdCn BT;-inkscape-font-specification:Futura BdCn BT"
       d="M 160.03982,99.425903 C 159.1413,99.789581 158.23745,100.06234 157.32828,100.24418 C 156.41906,100.42602 155.50452,100.51694 154.58465,100.51694 C 148.61604,100.51694 143.76522,98.345567 140.03218,94.002821 C 136.29913,89.660088 134.43261,83.969601 134.43261,76.931345 C 134.43261,69.615029 136.25634,63.710614 139.90382,59.218084 C 143.55129,54.725636 148.31654,52.479391 154.19958,52.479344 C 155.29059,52.479391 156.31745,52.570311 157.28015,52.752102 C 158.2428,52.933988 159.16269,53.217443 160.03982,53.602467 L 160.03982,62.36283 C 159.1413,61.99919 158.26954,61.73178 157.42455,61.560599 C 156.57951,61.389495 155.75054,61.303924 154.93763,61.303885 C 151.81426,61.303924 149.27921,62.68376 147.33248,65.443397 C 145.38572,68.203104 144.41235,71.861273 144.41236,76.417918 C 144.41235,80.803466 145.41246,84.354672 147.41271,87.071545 C 149.41292,89.788445 151.9854,91.146888 155.13017,91.146879 C 155.92168,91.146888 156.72926,91.05062 157.55291,90.858076 C 158.3765,90.66555 159.20547,90.387443 160.03982,90.023756 L 160.03982,99.425903 z M 166.23305,99.939331 L 166.23305,53.089039 L 175.76355,53.089039 L 175.76355,99.939331 L 166.23305,99.939331 z M 187.95746,99.939331 L 187.95746,61.753134 L 180.80156,61.753134 L 180.80156,53.089039 L 204.51551,53.089039 L 204.51551,61.753134 L 197.35961,61.753134 L 197.35961,99.939331 L 187.95746,99.939331 z M 213.56467,99.939331 L 213.56467,77.926112 L 202.71851,53.089039 L 212.56991,53.089039 L 215.65047,61.560599 C 216.22807,63.079527 216.75219,64.593068 217.22285,66.101227 C 217.69348,67.609453 218.14273,69.144387 218.5706,70.706033 C 218.95565,68.973245 219.37281,67.358088 219.82208,65.860557 C 220.27131,64.363095 220.73126,63.015348 221.20191,61.817313 L 224.60337,53.089039 L 233.74881,53.089039 L 222.83846,77.926112 L 222.83846,99.939331 L 213.56467,99.939331 z M 270.25284,91.596128 C 272.64882,91.596137 274.44046,90.344658 275.62779,87.841687 C 276.81506,85.338741 277.40872,81.573607 277.40874,76.546274 C 277.40872,71.476203 276.81506,67.689676 275.62779,65.186683 C 274.44046,62.68376 272.64882,61.432281 270.25284,61.432242 C 267.85683,61.432281 266.07053,62.678411 264.89394,65.170639 C 263.71732,67.662935 263.12902,71.45481 263.12903,76.546274 C 263.12902,81.616393 263.71732,85.392223 264.89394,87.873776 C 266.07053,90.355354 267.85683,91.596137 270.25284,91.596128 L 270.25284,91.596128 z M 286.74671,77.188059 C 286.74668,84.333279 285.24918,90.007721 282.25422,94.211402 C 279.25919,98.415094 275.25874,100.51694 270.25284,100.51694 C 265.07576,100.51694 261.04322,98.404397 258.1552,94.179312 C 255.26716,89.954239 253.82315,84.076566 253.82315,76.546274 C 253.82315,69.037423 255.28321,63.149053 258.20333,58.881147 C 261.12344,54.613324 265.13994,52.479391 270.25284,52.479344 C 275.3871,52.479391 279.41964,54.661457 282.35048,59.025549 C 285.28127,63.389722 286.74668,69.443886 286.74671,77.188059 L 286.74671,77.188059 z M 292.49068,99.939331 L 292.49068,53.089039 L 312.70691,53.089039 L 312.70691,61.753134 L 301.53985,61.753134 L 301.53985,71.476174 L 311.74423,71.476174 L 311.74423,80.10818 L 301.53985,80.10818 L 301.53985,99.939331 L 292.49068,99.939331 z"
       id="text2485" />
  </g>
</svg>
