<?xml version="1.0" encoding="UTF-8" standalone="no"?>
<!-- Created with Inkscape (http://www.inkscape.org/) -->

<svg
   xmlns:dc="http://purl.org/dc/elements/1.1/"
   xmlns:cc="http://creativecommons.org/ns#"
   xmlns:rdf="http://www.w3.org/1999/02/22-rdf-syntax-ns#"
   xmlns:svg="http://www.w3.org/2000/svg"
   xmlns="http://www.w3.org/2000/svg"
   version="1.1"
   width="216"
   height="161.625"
   viewBox="0 0 216 161.625"
   id="Layer_1"
   xml:space="preserve"><metadata
   id="metadata21"><rdf:RDF><cc:Work
       rdf:about=""><dc:format>image/svg+xml</dc:format><dc:type
         rdf:resource="http://purl.org/dc/dcmitype/StillImage" /><dc:title></dc:title></cc:Work></rdf:RDF></metadata><defs
   id="defs19" />
<path
   d="M 0,0 H 216 V 161.625 H 0 V 0 z"
   id="path3"
   style="fill:#5555ff" />
<path
   d="m 154.796,111.544 -0.207,-0.104 -0.155,-0.104 -0.207,-0.104 -0.207,-0.104 -1.035,-0.672 -1.034,-0.673 -1.034,-0.776 -1.035,-0.775 -0.982,-0.776 -0.984,-0.776 -0.931,-0.725 -0.931,-0.724 -0.414,-0.311 -0.362,-0.311 -0.414,-0.311 -0.414,-0.259 -0.362,-0.259 -0.414,-0.31 -0.414,-0.259 -0.413,-0.259 -0.621,-0.414 -0.673,-0.414 -0.621,-0.466 -0.672,-0.414 -0.673,-0.361 -0.673,-0.414 -0.672,-0.362 -0.673,-0.362 -0.362,-0.207 -0.361,-0.155 -0.363,-0.155 -0.414,-0.155 -0.361,-0.155 -0.362,-0.103 -0.362,-0.155 -0.311,-0.155 -0.672,-0.414 -0.725,-0.362 -0.673,-0.414 -0.724,-0.414 -0.674,-0.414 -0.672,-0.413 -0.672,-0.362 -0.674,-0.414 -0.361,-0.207 -0.311,-0.259 -0.362,-0.259 -0.311,-0.259 -0.31,-0.258 -0.363,-0.259 -0.311,-0.259 -0.361,-0.207 -0.518,-0.259 -0.569,-0.207 -0.569,-0.207 -0.568,-0.207 -0.569,-0.207 -0.518,-0.259 -0.569,-0.207 -0.465,-0.31 -0.207,-0.155 -0.207,-0.207 -0.207,-0.155 -0.207,-0.155 -0.207,-0.155 -0.259,-0.155 -0.259,-0.104 -0.311,-0.052 -0.518,-0.155 -0.465,-0.259 -0.518,-0.311 -0.518,-0.31 -0.465,-0.362 -0.518,-0.362 -0.466,-0.311 -0.466,-0.311 -0.362,-0.207 -0.413,-0.259 -0.363,-0.207 -0.361,-0.259 -0.414,-0.206 -0.362,-0.155 -0.414,-0.104 -0.413,-0.052 -0.363,0.052 -0.414,0.104 -0.361,0.207 -0.311,0.206 -0.362,0.259 -0.362,0.207 -0.311,0.207 -0.311,0.207 -0.672,0.414 -0.673,0.414 -0.621,0.414 -0.673,0.465 -0.672,0.414 -0.673,0.414 -0.724,0.414 -0.673,0.362 -0.207,0.104 -0.207,0.052 -0.259,0.052 -0.259,0.052 h -0.259 l -0.258,0.052 -0.207,0.052 -0.207,0.052 -0.621,0.154 -0.673,0.155 -0.621,0.207 -0.673,0.207 -0.621,0.259 -0.673,0.207 -0.569,0.207 -0.621,0.155 -0.465,0.155 -0.466,0.155 -0.466,0.155 -0.465,0.155 -0.518,0.155 -0.465,0.206 -0.414,0.155 -0.362,0.207 -0.931,0.466 -0.931,0.518 -0.931,0.466 -0.931,0.517 -0.932,0.569 -0.931,0.518 -0.931,0.569 -0.931,0.518 -0.983,0.62 -0.983,0.673 -0.983,0.725 -0.983,0.672 -1.035,0.725 -0.983,0.673 -1.035,0.621 -0.983,0.568 -0.31,0.207 -0.362,0.155 -0.414,0.155 -0.362,0.155 -0.414,0.104 -0.414,0.104 -0.414,0.104 -0.414,0.052 -0.362,0.052 H 75.275 74.861 74.5 74.138 l -0.414,-0.052 H 73.362 73 l -0.31,0.052 -0.311,0.052 -0.362,0.052 -0.31,0.052 -0.311,0.052 -0.311,0.104 -0.311,0.104 -0.258,0.155 -0.516,0.259 -0.569,0.258 -0.518,0.311 -0.569,0.259 -0.517,0.311 -0.569,0.311 -0.517,0.259 -0.518,0.311 -0.569,0.311 -0.518,0.31 -0.517,0.311 -0.518,0.311 -0.518,0.311 -0.517,0.259 -0.518,0.311 -0.517,0.259 -0.311,0.155 -0.259,0.155 -0.311,0.154 -0.31,0.155 -0.259,0.155 -0.311,0.155 -0.311,0.155 -0.31,0.155 H 36.526 v -8.174 h 23.851 l -0.207,-0.621 -0.155,-0.673 -0.155,-0.673 -0.155,-0.672 -0.155,-0.673 -0.155,-0.673 -0.104,-0.724 -0.104,-0.673 H 10.295 v -8.071 h 48.271 v -0.672 -0.673 l 0.052,-0.673 0.052,-0.725 v -0.672 l 0.052,-0.673 0.103,-0.673 0.052,-0.672 H 10.295 v -8.02 h 50.133 l 0.207,-0.673 0.207,-0.673 0.258,-0.672 0.207,-0.673 0.259,-0.673 0.259,-0.672 0.259,-0.673 0.258,-0.673 H 36.578 V 62.912 H 66.74 l 0.724,-1.035 0.725,-1.034 0.724,-1.035 0.776,-0.983 0.828,-0.931 0.828,-0.983 0.828,-0.879 0.879,-0.932 0.932,-0.88 0.879,-0.827 0.983,-0.828 0.931,-0.828 0.983,-0.775 1.035,-0.725 1.035,-0.725 1.035,-0.724 V 26.386 H 89.97 V 44.08 l 0.725,-0.311 0.724,-0.259 0.724,-0.259 0.776,-0.259 0.776,-0.259 0.776,-0.207 0.776,-0.207 0.776,-0.207 V 4.139 h 9.002 v 36.578 h 0.362 l 0.362,-0.052 h 0.362 0.414 l 0.362,-0.052 h 0.362 0.414 0.362 0.362 0.362 0.362 l 0.414,0.052 h 0.362 0.361 l 0.414,0.052 h 0.362 V 4.139 h 9.003 v 37.975 l 0.775,0.207 0.776,0.207 0.776,0.207 0.724,0.259 0.776,0.259 0.725,0.259 0.775,0.259 0.725,0.311 V 26.386 h 9.105 v 22.402 l 1.035,0.724 1.034,0.725 0.983,0.776 0.982,0.775 0.983,0.776 0.931,0.88 0.932,0.827 0.88,0.88 0.88,0.88 0.827,0.931 0.88,0.932 0.775,0.982 0.776,0.983 0.776,0.983 0.725,1.034 0.724,1.035 h 30.214 v 8.174 h -25.867 l 0.258,0.673 0.259,0.673 0.259,0.672 0.259,0.673 0.206,0.673 0.26,0.672 0.207,0.673 0.207,0.673 h 50.184 v 8.02 h -48.632 l 0.052,0.672 0.104,0.673 0.051,0.673 0.053,0.672 v 0.725 l 0.051,0.673 v 0.673 0.672 h 48.322 v 8.071 h -48.942 l -0.104,0.673 -0.155,0.724 -0.104,0.673 -0.155,0.673 -0.155,0.672 -0.154,0.673 -0.156,0.673 -0.207,0.621 h 23.902 v 8.174 h -24.728 z"
   id="path5"
   style="fill:#ff5555" />
<path
   d="m 145.896,105.129 -0.361,-0.311 -0.362,-0.259 -0.362,-0.311 -0.414,-0.259 -0.361,-0.259 -0.363,-0.258 -0.414,-0.259 -0.361,-0.207 -0.673,-0.414 -0.673,-0.414 -0.621,-0.466 -0.672,-0.414 -0.673,-0.413 -0.673,-0.414 -0.724,-0.362 -0.673,-0.414 -0.311,-0.155 -0.361,-0.207 -0.363,-0.104 -0.361,-0.155 -0.414,-0.155 -0.362,-0.103 -0.362,-0.207 -0.361,-0.155 -0.674,-0.362 -0.672,-0.362 -0.673,-0.414 -0.673,-0.414 -0.672,-0.362 -0.673,-0.465 -0.673,-0.414 -0.672,-0.414 -0.363,-0.207 -0.31,-0.207 -0.362,-0.259 -0.311,-0.259 -0.311,-0.258 -0.361,-0.259 -0.311,-0.207 -0.363,-0.207 -0.568,-0.259 -0.569,-0.259 -0.569,-0.207 -0.568,-0.207 -0.569,-0.259 -0.569,-0.207 -0.518,-0.259 -0.518,-0.31 -0.207,-0.155 -0.154,-0.207 -0.207,-0.155 -0.207,-0.155 -0.207,-0.155 -0.207,-0.155 -0.259,-0.104 -0.31,-0.052 -0.518,-0.104 -0.569,-0.259 -0.518,-0.259 -0.466,-0.311 -0.518,-0.361 -0.518,-0.362 -0.465,-0.311 -0.466,-0.311 -0.362,-0.207 -0.361,-0.259 -0.363,-0.259 -0.361,-0.259 -0.414,-0.206 -0.414,-0.207 -0.414,-0.104 -0.414,-0.052 -0.361,0.052 -0.363,0.104 -0.361,0.207 -0.311,0.206 -0.362,0.259 -0.311,0.259 -0.31,0.259 -0.311,0.207 -0.674,0.414 -0.672,0.414 -0.672,0.414 -0.673,0.413 -0.724,0.466 -0.673,0.362 -0.724,0.414 -0.672,0.311 -0.155,0.104 -0.207,0.104 -0.259,0.052 -0.207,0.052 -0.259,0.052 -0.258,0.052 -0.259,0.052 -0.259,0.051 -0.621,0.155 -0.673,0.155 -0.621,0.155 -0.673,0.207 -0.621,0.259 -0.673,0.207 -0.569,0.207 -0.621,0.207 -0.414,0.104 -0.466,0.155 -0.466,0.155 -0.465,0.104 -0.466,0.207 -0.465,0.154 -0.414,0.155 -0.362,0.207 -0.983,0.466 -0.931,0.518 -0.931,0.518 -0.931,0.517 -0.932,0.569 -0.931,0.518 -0.931,0.518 -0.879,0.518 -0.983,0.62 -0.983,0.673 -1.035,0.725 -0.983,0.724 -0.983,0.725 -1.035,0.673 -0.983,0.673 -0.983,0.568 -0.362,0.155 -0.362,0.155 -0.414,0.155 -0.414,0.155 -0.414,0.155 -0.414,0.104 -0.362,0.104 -0.362,0.052 H 75.69 l -0.414,0.052 -0.362,-0.052 H 74.5 74.138 l -0.362,-0.052 -0.362,0.052 h -0.362 -0.31 l -0.362,0.052 -0.311,0.052 -0.362,0.052 -0.311,0.052 -0.362,0.104 -0.259,0.104 -0.31,0.104 h -0.052 l 0,0 -0.052,0.052 H 70.31 l -0.362,-0.88 -0.311,-0.932 -0.362,-0.931 -0.259,-0.932 -0.311,-0.931 -0.207,-0.932 L 68.239,99.13 68.032,98.148 67.877,97.165 67.722,96.183 67.567,95.2 67.463,94.165 67.359,93.183 67.307,92.148 67.255,91.114 v -1.035 l 0.052,-2.069 0.155,-2.069 0.259,-2.069 0.362,-1.966 0.465,-2.019 0.569,-1.914 0.621,-1.862 0.725,-1.862 0.828,-1.811 0.879,-1.76 0.983,-1.707 1.086,-1.655 1.138,-1.604 1.19,-1.552 1.293,-1.448 1.345,-1.449 1.449,-1.345 1.449,-1.294 1.552,-1.189 1.604,-1.139 1.656,-1.086 1.707,-0.983 1.759,-0.879 1.811,-0.828 1.863,-0.725 1.862,-0.62 1.915,-0.569 2.018,-0.466 1.966,-0.362 2.069,-0.259 2.07,-0.155 2.069,-0.052 2.07,0.052 2.069,0.155 2.069,0.259 1.966,0.362 2.018,0.466 1.915,0.569 1.861,0.62 1.863,0.725 1.811,0.828 1.76,0.879 1.707,0.983 1.655,1.086 1.604,1.139 1.552,1.189 1.449,1.294 1.449,1.345 1.345,1.449 1.293,1.448 1.19,1.552 1.138,1.604 1.087,1.655 0.982,1.707 0.88,1.76 0.827,1.811 0.725,1.862 0.621,1.862 0.569,1.914 0.466,2.019 0.361,1.966 0.26,2.069 0.154,2.069 0.053,2.069 v 0.983 l -0.053,0.982 -0.051,0.983 -0.104,0.983 -0.104,0.982 -0.104,0.983 -0.156,0.931 -0.154,0.932 -0.207,0.983 -0.207,0.931 -0.259,0.88 -0.259,0.931 -0.259,0.932 -0.311,0.88 -0.31,0.879 -0.359,0.875 z"
   id="path7"
   style="fill:#ffff55" />
<path
   d="m 0,154.175 h 216 v 7.45 H 0 v -7.45 z"
   id="path9"
   style="fill:#ff5555" />
<path
   d="m 0,139.223 h 216 v 7.45 H 0 v -7.45 z"
   id="path11"
   style="fill:#00aa00" />
<path
   d="m 189.821,130.376 -0.207,-0.104 -0.259,-0.155 -0.207,-0.155 -0.207,-0.155 -0.207,-0.104 -0.154,-0.154 -0.207,-0.104 -0.207,-0.104 -0.311,-0.207 -0.362,-0.207 -0.414,-0.155 -0.362,-0.207 -0.361,-0.207 -0.414,-0.207 -0.362,-0.259 -0.311,-0.207 -0.414,-0.362 -0.466,-0.465 -0.518,-0.466 -0.517,-0.466 -0.518,-0.466 -0.518,-0.414 -0.517,-0.413 -0.518,-0.311 H 216 v 14.899 H 0 v -14.899 h 36.526 l -0.259,0.155 -0.258,0.104 -0.311,0.155 -0.259,0.155 -0.828,0.413 -0.828,0.466 -0.828,0.466 -0.828,0.466 -0.828,0.466 -0.828,0.465 -0.879,0.362 -0.879,0.311 -0.518,0.207 -0.621,0.207 -0.673,0.259 -0.672,0.259 -0.673,0.311 -0.672,0.31 -0.621,0.259 -0.518,0.259 h 166.076 z"
   id="path13"
   style="fill:#ffff55" />
<circle
   cx="48.632"
   cy="22.299"
   r="3.6730001"
   id="circle15"
   style="fill:#ffffff" />
</svg>