<?xml version="1.0" encoding="UTF-8" standalone="no"?>
<!-- Created with Inkscape (http://www.inkscape.org/) -->

<svg
   xmlns:svg="http://www.w3.org/2000/svg"
   xmlns="http://www.w3.org/2000/svg"
   version="1.0"
   width="800"
   height="533.33002"
   id="svg2">
  <defs
     id="defs4" />
  <g
     id="layer1">
    <g
       id="g2954">
      <path
         d="m 0,-0.00201291 800,0 0,533.33203291 -800,0 0,-533.33203291 z"
         id="rect3719"
         style="fill:#ffffff;fill-opacity:1;fill-rule:evenodd;stroke:none;stroke-width:1.5;marker:none;visibility:visible;display:inline;overflow:visible;enable-background:accumulate" />
      <path
         d="M 0,0 0,21.40625 353.09375,240 0,50.40625 0,84.84375 349.1875,245.53125 0,110.28125 0,141.625 347.4375,252.09375 0,164.71875 0,194 346.125,258.8125 0,215.8125 l 0,28.28125 363.875,22.5 c -4e-5,0.0211 0,0.0414 0,0.0625 l 1.03125,0 70.1875,0 1.03125,0 c 0,-0.0211 4e-5,-0.0414 0,-0.0625 l 363.875,-22.5 0,-28.28125 -346.5625,43 L 800,194 l 0,-29.28125 -347,87.25 347,-110.34375 0,-31.34375 -349.1875,135.25 L 800,84.84375 800,50.40625 446.75,240 800,21.40625 800,0 774.1875,0 442.65625,234.78125 734.65625,0 690.4375,0 438.4375,229.8125 661.34375,0 626.59375,0 433.65625,225.3125 603.75,0 574.875,0 429.125,220.0625 556.1875,0 531.09375,0 422.28125,218.75 514.90625,0 492.25,0 416.75,214.375 477.75,0 456.71875,0 409.90625,213.9375 443.125,0 422.96875,0 403.34375,211.03125 409.84375,0 l -19.75,0 6.5625,213.21875 L 376.9375,0 356.875,0 390.09375,213.9375 343.28125,0 322.21875,0 383.25,214.53125 307.65625,0 285.09375,0 377.71875,218.75 268.90625,0 243.8125,0 370.875,220.0625 225.03125,0 196.25,0 366.34375,225.3125 173.40625,0 138.625,0 360.375,228.65625 109.5625,0 65.34375,0 357.1875,234.78125 25.65625,0 0,0 z"
         id="path3556"
         style="fill:#f5dc0f;fill-opacity:1;fill-rule:evenodd;stroke:none" />
      <path
         d="m 414.95209,45.206841 c -0.2334,-0.01009 -0.5201,0.07103 -0.8169,0.24799 -2.6132,1.55807 -4.489,3.22771 -9.7154,4.24501 -2.673,-0.16234 -5.3437,-0.32773 -8.0232,-0.26258 -6.2848,0.15282 -10.2819,4.1421 -9.6716,9.36527 0.4992,4.27234 2.0266,8.0857 1.9985,12.82255 -0.6675,-0.23825 -1.6654,-0.1128 -1.8672,0.74397 -0.1388,0.58899 0.577,0.5926 0.4376,1.19619 -0.2525,-0.14963 -0.4879,-0.24397 -0.7148,-0.17505 -0.3536,0.10744 -0.5549,0.32644 -0.5397,0.75856 0.0109,0.30995 0.14,0.45379 0.423,0.72938 l -0.4376,0.56892 c -0.4492,-0.26868 -0.7661,-0.416 -1.0066,-0.39387 -0.3121,0.02874 -0.714,0.10009 -0.6564,0.7148 0.0383,0.40829 0.4843,0.5677 1.1087,0.90443 l -0.1313,0.49598 c -0.5642,-0.24824 -0.7683,-0.24921 -1.1816,-0.29175 -0.8016,-0.08249 -0.9046,0.97697 -0.1605,1.1816 0.4348,0.11956 0.6892,0.14496 1.0649,0.56892 -0.4184,1.38998 -0.1107,2.08994 0.6419,2.37779 0.4915,0.16571 0.9818,0.05439 1.4733,-0.26258 0.4068,0.72731 0.756,1.46918 1.8964,2.1298 -0.2051,0.62084 -0.2188,1.23179 0.2626,1.85263 -0.0606,0.43887 -0.0533,0.89295 0.1605,1.40041 -0.1899,0.76974 -0.5772,1.43383 -0.2772,2.53826 0.3948,1.45316 0.448,2.90854 0.5981,4.3617 -0.8587,-1.31522 -1.8838,-2.36808 -2.7425,-3.36974 -0.7326,-3.28397 -3.0411,-4.99323 -5.5871,-6.8562 -0.9558,-2.53255 -3.8395,-4.49602 -6.3164,-5.38285 -1.1371,-0.24434 -2.0418,-0.67187 -2.5383,-1.26912 -0.671,-1.74165 -1.8322,-2.1746 -3.078,-2.34862 l -2.3778,-5.10568 c 0.1275,-1.43998 -0.0571,-2.57624 -0.4668,-3.64691 -0.189,-0.4941 -0.6348,-0.70062 -0.9336,0.04376 -0.9051,2.25479 -1.145,4.72643 -1.2108,7.16254 -1.145,-1.92875 -2.4746,-3.85133 -2.1735,-5.77671 0.1185,-0.75774 -0.4017,-0.69716 -0.5689,-0.27717 -0.7447,1.86978 -1.1444,4.18459 -1.2546,6.89997 -1.2418,0.18397 -2.4926,0.35412 -3.7344,0.74397 -0.3963,0.12442 -0.6759,0.26147 -1.1816,1.03572 -1.0268,1.572 -2.2832,1.58934 -3.4135,1.70676 -3.8381,0.73754 -7.8714,5.185 -9.0298,8.63589 l -2.757,1.34206 c -4.38595,0.39665 -7.30619,2.04572 -10.16765,3.74903 -1.24942,-0.04218 -2.33314,0.36291 -3.00505,1.66299 -0.23648,0.45756 -0.38789,0.89253 -1.23996,1.00655 -1.71216,0.2291 -2.80103,2.71422 -0.33551,4.82852 -1.66482,1.8318 -1.19879,3.151599 -0.58351,4.332539 0.58733,1.12726 1.94502,1.00168 2.91753,1.16701 l 0.33552,0.91902 c 1.40726,0.50725 3.00114,-0.53443 4.08454,-1.23995 l 0.32093,-1.75052 c 1.40234,-0.44909 2.68081,0.0977 4.34716,0.20423 -0.4571,0.54276 -1.09932,1.29805 -2.37782,1.03572 -1.77526,-0.36425 -1.8587,0.65537 -2.21733,1.59006 -0.39277,-0.12921 -0.86674,-0.10839 -0.74397,0.3501 0.1132,0.42271 1.26532,-0.21873 1.80887,0.13129 -0.36688,0.35823 -0.60131,0.75935 -0.52516,1.28371 -0.3538,0.0436 -0.58034,0.23581 -0.65644,0.61268 -0.45605,-0.0769 -0.63733,0.71086 -0.33552,0.87526 -0.82302,-0.17099 -1.21846,0.005 -1.50252,0.3647 -1.16527,-0.16903 -2.43394,0.0561 -3.28223,0.88984 -0.36638,0.35977 -1.10379,1.33665 -0.26257,2.99047 -0.45636,0.27805 -0.78993,0.78108 -0.8315,1.53171 -0.0724,1.29162 1.23305,2.94498 2.99047,2.08603 0.12485,0.13137 0.17467,0.29508 0.45222,0.3501 -0.0566,0.21939 -0.14496,0.45165 -0.0438,0.67104 0.45755,0.30953 0.83116,0.67504 1.12325,1.10866 0.30497,0.36157 0.6481,0.5113 1.03573,0.33551 0.32928,0.38975 0.75506,0.46005 1.19618,0.51057 2.25316,3.32385 5.83911,7.1993 9.74461,10.79487 -1.5318,2.88923 -2.8793,5.99741 -3.7928,9.17563 -3.04557,1.93813 -3.65126,5.04751 -4.3034,8.12533 -1.15607,2.30991 -1.24842,5.27626 -2.66954,8.24202 -0.96987,2.02402 -0.9701,4.46621 -0.61268,7.03125 -4.74283,-0.0493 -9.37451,-0.962 -14.01874,-1.70675 -2.81082,-0.45074 -5.5566,-1.77442 -8.7526,1.89639 -2.22539,1.10821 -4.10357,2.343 -4.33253,4.43465 -0.13734,1.25467 -1.13515,2.45644 -2.14438,3.70527 -2.20982,2.73441 -5.31825,5.98051 -8.5192,8.24202 -2.54597,1.79876 -3.5714,3.45404 -3.95325,5.66001 -0.30559,1.76544 -0.49837,3.76141 -1.23995,5.908 -0.63302,1.83236 -0.90368,3.86547 -1.32748,5.80589 -0.13078,0.5988 -0.40009,1.23926 0.33552,1.72134 0.74002,1.96608 0.90585,5.9252 1.66299,7.32301 l 1.31289,1.54629 0.77315,-0.70021 -0.0875,-0.81691 c 2.43558,-2.40833 4.66852,-4.83992 6.38939,-7.33759 l 1.05031,0.0729 0.52516,-0.61268 -0.13129,-1.00655 -1.10866,-0.77315 -0.74397,0.10212 c 0.43882,-3.91453 -1.07308,-2.76388 -1.75052,-3.47186 -0.7286,-0.76146 -1.03416,-1.69815 -0.29175,-2.75707 0.39957,-0.56991 0.82555,-1.1232 1.80887,0.43763 0.35013,0.55576 0.64584,0.52993 1.34206,0.0729 0.47713,-0.31319 0.88447,-1.14218 0.87526,-2.42155 -0.0204,-2.84125 6.08366,-9.45549 12.45786,-16.16313 1.75016,-0.0909 3.3427,-0.66231 4.91604,-1.28371 1.50367,0.72119 3.00391,1.27805 4.50758,1.82346 -4.62405,-0.3275 -6.30959,1.01925 -7.19171,2.83 l -2.15897,2.14439 c -2.59736,1.38941 -2.73479,3.14664 -2.3632,4.85769 0.40307,1.85607 -0.47971,4.9568 -1.0649,7.80439 -0.60918,2.96426 -1.50982,6.18015 -2.83001,9.49657 -0.84115,2.11303 -0.99744,4.13604 0.80232,6.05387 0.68136,1.46298 1.38449,2.9578 1.72135,4.39089 0.41735,1.77553 1.13445,3.72936 2.42155,5.23697 -0.12069,0.53537 0.49741,1.15859 0.90443,1.38582 1.8249,1.01882 2.9603,2.55443 4.18666,3.99702 0.8441,0.99293 1.81167,1.49423 2.96129,1.66299 l 0.23341,-1.05031 -0.52516,-0.61268 0.9482,-9.37986 0.65644,-0.37928 -0.10211,-1.31289 c -0.90449,-0.0678 -1.44495,0.39288 -1.77969,0.8315 -0.1185,-1.02653 -0.69989,-1.81215 -1.60465,-2.34862 -0.41863,-0.24821 -0.83844,-0.003 -1.32747,0.11671 -0.47769,0.11711 -1.06324,-0.0449 -1.61923,-0.62727 -0.70066,-0.73391 -0.70732,-1.29169 -0.49598,-1.73593 0.70618,0.26954 1.40901,0.37374 2.11521,0.26257 0.11126,-2.47564 -1.01573,-4.90157 -0.74397,-7.27924 0.28628,-2.50477 0.26854,-4.49852 1.15242,-7.86274 0.51398,-1.95631 1.20496,-3.9256 2.18815,-5.89342 1.52933,-0.9363 2.67878,-1.87911 3.57397,-2.81541 2.63434,-0.22869 5.27083,0.52675 7.89193,1.19618 3.62211,0.9251 6.83071,1.99965 13.24561,2.61119 4.5857,3.11008 9.9447,4.43058 15.7984,4.62429 l 0.8169,0.40845 -2.9904,3.13635 c -1.3192,-0.0145 -2.4174,-0.16477 -3.647,0 -1.4516,-0.66401 -2.9434,-1.36718 -4.4638,-1.38583 -0.543,-0.007 -0.8035,0.4923 -0.5106,1.03573 0.9088,1.68542 2.6411,3.25452 4.814,4.75557 -0.3253,0.33664 -0.3523,0.70357 -0.2043,1.00655 -0.3746,-0.21393 -0.7418,-0.20079 -1.0357,0 -0.5626,0.38448 0.063,0.84711 0.496,1.32748 1.1697,1.29751 2.7047,2.33146 4.1721,3.41351 l -0.9045,1.82346 1.8381,1.16701 c 0.8495,-0.0162 2.0232,-0.004 2.5528,-0.30634 0.561,-0.32067 0.6975,-0.93809 0.7586,-1.48794 l 5.8205,0.1167 0.1604,0.52515 1.2691,0.39387 0.7003,-0.40845 -0.2626,1.75052 3.6761,1.37123 c 0.5168,0.19203 1.0354,0.4627 1.6484,-0.51056 l 1.9255,-3.04882 0.3647,0 0.4523,-0.88985 -0.2189,-0.46681 c 0.4819,-0.92576 0.9495,-1.86047 0.992,-2.78624 0.8012,-0.96504 1.6061,-1.92331 1.4442,-2.88835 7.3796,1.61193 14.437,3.5254 25.9952,1.32747 1.7406,0.2681 3.1577,0.47847 4.5222,0.33552 l 2.1881,8.37331 c -0.918,-0.54199 -1.666,0.42946 -0.423,1.42959 1.5369,1.23671 0.8097,3.05657 1.1378,4.6097 0.348,1.64777 1.1175,3.36462 3.4719,3.04882 1.6193,-0.21719 2.8159,-1.93973 1.2837,-4.27418 -0.5932,-0.90374 -1.4163,-1.54935 -0.992,-2.7133 0.4189,-1.14929 -0.4745,-1.41738 -0.8607,-1.05031 l -0.9044,-4.66805 c 2.4249,2.90095 3.4436,7.41755 5.0473,12.0494 1.1884,3.43208 0.7334,3.13508 7.2793,12.74961 0.8329,1.22338 0.9474,3.20781 1.6192,4.3763 0.9435,1.641 1.0173,3.04397 -1.7068,4.66805 -3.5954,2.1436 -8.3991,4.73963 -13.6248,7.10419 -2.2694,0.51858 -4.5285,1.83749 -6.7979,3.09258 -4.3379,1.41238 -5.4583,2.81803 -8.0961,4.23042 -0.9425,0.22002 -1.5639,0.67802 -1.6192,1.5317 l -3.0926,6.60821 0.1896,1.23995 1.2837,0.0438 0.5252,-0.65645 c 3.4787,0.63941 6.0853,0.92494 9.7008,0.0438 l -0.7148,3.22388 -0.3939,1.25453 0.3501,1.19619 1.2691,-0.1167 0.4377,-0.72938 c 3.4298,0.15135 6.7321,-0.10707 10.0946,-1.48794 l 0.1897,0.78773 1.4441,-0.37928 0.5544,-1.6484 -0.6565,-0.93361 c 1.3523,-1.12008 1.023,-2.01 0.919,-2.94671 -0.1386,-1.24994 0.5078,-2.41113 3.2093,-1.51712 1.7404,0.57596 2.0398,0.10282 4.7702,-1.8818 1.8465,-1.34218 4.1313,-2.36108 6.8124,-3.38434 5.3186,-2.02983 10.6527,-4.89217 14.6606,-7.25007 2.4589,-1.44655 2.5953,-3.54472 1.4296,-5.89341 -3.2524,-6.55343 -6.8952,-13.18303 -6.8999,-18.4388 -0.002,-1.57884 0.2822,-2.3297 1.8818,-2.88835 12.1337,-4.23763 26.9175,-17.98066 23.1943,-35.44801 0.6213,0.38555 1.3667,0.36672 2.2611,-0.20422 1.3641,-0.87068 1.0018,-1.40385 0.7294,-1.98392 0.8192,-0.0885 1.6276,0.24218 2.4653,0.84608 0.9621,0.69354 1.2004,1.87487 4.2742,1.03572 4.1738,-0.24681 4.1877,2.9272 8.4754,4.11372 -0.6237,-1.0997 -1.0952,-2.21169 -1.0065,-3.3114 0.5452,1.09971 2.128,2.2117 4.989,3.3114 -0.3513,-1.18947 -1.6514,-2.3845 -1.3567,-3.57397 1.3368,0.16097 2.3238,2.13396 3.3114,4.04078 0.3349,1.79565 0.8721,3.56031 2.6258,5.17861 -0.5208,4.42126 -0.3654,8.85352 2.1444,13.27477 0.4258,3.11325 0.3662,6.1956 5.1202,9.48198 0.4237,3.84933 4.0774,6.81907 9.7008,9.23398 2.0671,1.79131 3.9848,3.60405 8.1399,5.04733 1.7706,1.55606 3.396,2.0646 4.989,2.37779 3.605,3.61455 3.2175,1.55037 5.7621,3.28222 l -0.5689,-1.23995 c 1.0474,-0.22218 1.9009,0.005 2.5675,0.67104 0.0381,-0.74747 -0.2015,-1.42175 -0.6711,-2.04228 -0.0106,-0.39279 0.4138,-0.46452 0.9045,-0.48139 -0.8931,-0.90786 -2.164,-1.18403 -3.4281,-1.47335 0.3486,-1.72665 -0.7615,-2.79752 -1.7651,-3.90949 1.4836,-0.52371 0.7478,-1.03719 0.7147,-1.56088 l 1.1962,-0.62727 c -0.4763,-0.83405 -4.0302,-0.84501 -5.1932,-2.33403 0.2104,-1.5529 2.5989,0.50122 4.1429,-0.18964 -1.6149,-1.00941 -2.259,-2.62431 -4.5222,-3.23846 -0.5707,-6.1106 -2.8808,-6.3362 -5.0473,-7.04583 -1.857,-1.00098 -3.7282,-1.99756 -4.0991,-3.61774 0.5669,-0.46208 1.5598,0.0498 2.6258,1.5317 0.9678,-2.40887 -2.3739,-4.0885 -2.6258,-6.01011 0.5072,-1.55521 1.5595,-3.09825 -0.8461,-4.65347 -0.4717,-3.6545 0.7831,-7.53121 -1.5317,-10.95533 0.0136,-2.20355 -0.4663,-3.90817 -0.9482,-5.61624 0.5623,-4.75844 -1.1215,-7.47218 -3.326,-9.71538 -3.4555,-5.44553 -7.7859,-8.12915 -12.7642,-8.7526 -9.3261,-2.64271 -15.6112,1.54761 -21.4292,6.18517 -4.7754,3.80643 -7.7415,2.97934 -10.6636,0.56892 -8.4552,-6.97462 -16.5761,-11.90861 -24.4781,-14.36884 0.7111,-1.62026 0.8808,-3.74679 -0.1021,-4.95981 -0.7534,-0.92977 -1.5663,-1.82182 -2.3049,-2.68412 -0.1294,-1.35141 -0.9102,-2.16174 -1.2691,-3.23846 l -0.5543,-1.64841 c 0.0638,-1.22657 -0.7405,-2.27334 -1.3275,-3.36975 -0.1708,-2.27259 -0.8303,-3.3355 -1.3712,-4.68264 -0.0833,-1.21381 -0.568,-2.26305 -1.1379,-3.28222 0.5658,-0.54115 1.1264,-0.54115 1.6922,0 l 0.744,-0.40845 c -0.759,-0.98238 -1.6264,-1.63549 -2.5821,-2.02769 -0.6717,-1.27656 -1.2466,-2.59644 -2.7716,-3.58856 0.2721,-0.90243 0.2102,-1.63753 -0.2188,-2.3632 -0.6918,-1.17009 -1.1545,-2.58007 -0.6273,-3.67609 l -0.6419,-0.62727 1.6193,-3.38433 c 0.8277,-1.65955 1.1492,-3.58573 2.1881,-4.95981 3.3606,-4.44478 3.8469,-10.3752 2.6112,-15.608799 0.4897,-1.89807 -0.4109,-3.4897 -2.1444,-4.90145 -0.5416,-0.774 -1.3553,-1.57657 -1.2253,-2.31944 0.1545,-0.88312 -0.0776,-1.46268 -0.3064,-2.14438 -0.4016,-1.19699 -0.0442,-1.95134 0.1021,-2.78624 0.5773,-0.11846 0.8398,-0.55055 0.8607,-1.22537 1.8909,-0.0065 2.6081,-0.69021 2.5528,-1.80887 0.2164,-0.87344 0.755,-1.47052 1.3859,-1.99851 1.0135,-0.41744 1.0614,-0.83709 0.8315,-1.25453 0.2754,-0.73982 0.1599,-1.33365 0.1021,-1.94016 0.6854,-0.19222 0.6761,-1.498 0.3209,-3.35516 -0.4105,-2.70807 -1.3914,-4.58326 -3.3989,-4.93063 -0.0137,-0.76075 -0.0426,-1.4935 -0.496,-2.1298 -0.2899,-0.40687 -0.702,0.1006 -1.1232,0.43763 -1.0503,-0.46363 -0.4858,-1.1166 -0.8899,-1.5317 -0.2046,-0.21014 -0.4981,-0.2847 -1.6192,0.71479 -0.2977,-0.37484 -0.6525,-0.70888 -0.5835,-1.28371 0.215,-0.44189 -0.2488,-0.43685 -0.7878,-0.36469 -0.1509,-0.25767 -0.592,-0.06735 -1.1232,0.26257 0.1158,-0.80763 -0.7749,-0.23423 -1.1962,0.02918 -0.1839,-0.51159 -1.2952,0.51316 -1.2837,1.15242 -1.2093,0.79382 -1.2797,1.80912 -0.9336,2.75707 0.1491,0.40851 0.3224,0.69553 -0.3647,1.07949 -0.3119,0.17429 -0.5942,0.46526 -0.8899,0.87526 -1.9391,1.04793 -1.7258,2.02393 -1.7942,3.00506 -0.8276,0.58943 -1.4122,0.70757 -2.5821,2.01309 -0.3592,0.40088 -0.486,0.74286 -0.0291,1.02114 0.3665,0.22323 0.695,0.61813 1.0065,1.09407 -0.4438,0.30423 -0.7507,0.67396 -0.6418,1.25454 -0.5938,0.29696 -0.6331,0.7984 -0.6857,1.2983 -1.6339,1.11165 -1.1151,1.62722 -0.8023,2.15898 0.476,0.80921 1.4728,1.05756 2.3778,1.34206 0.4673,0.20276 0.988,0.22496 0.8753,1.22536 -0.0418,0.37044 0.0171,0.7493 0.5251,1.12325 -0.7515,0.18313 -1.2557,0.53075 -1.59,0.99196 -0.9537,0.20182 -1.7742,0.56736 -2.4508,1.09408 -0.583,0.45387 -0.3142,4.22901 0.2918,4.46382 -0.8807,0.09969 -1.6954,0.44351 -2.3049,1.13784 -0.2533,-0.07974 -1.0078,0.45105 -0.9336,0.91902 -1.3635,1.0144 -1.0381,1.80042 -0.5689,2.61119 -0.9961,0.72597 -2.0181,1.59758 -3.1655,1.92557 -0.9052,0.25877 -2.0555,1.01089 -3.0051,1.79428 -0.665,0.54867 -0.8536,0.29011 -1.2399,0.13129 -0.6986,-0.0065 -0.618,-0.35984 -0.7294,-0.62727 -1.0503,-0.92173 -0.6705,-1.28304 -0.919,-1.89639 -0.6267,-0.16075 -0.4439,-0.53076 -0.5689,-0.81691 -0.1515,-1.94047 -0.5974,-2.75181 -0.8899,-4.12831 0.3743,-0.20204 0.6803,-0.41965 0.4522,-1.05031 -0.6261,-1.73125 -1.6467,-3.21502 -2.5674,-4.75558 -0.4649,-0.76262 -0.713,-1.52763 -0.7877,-2.29026 0.4149,-0.56006 0.049,-0.6416 -0.0876,-0.86067 -0.2086,-0.33481 -0.4114,-0.59824 -0.2771,-0.90443 0.174,-0.3967 -0.123,-0.58111 -0.3647,-0.77315 -0.6348,-0.50438 -0.3817,-0.89551 -0.4668,-1.32748 0.2445,-2.12981 -0.6573,-4.38891 -0.0584,-6.38939 7.8433,-7.88628 14.6649,-16.37532 20.131,-25.65969 0.9616,-1.63336 0.6857,-2.49339 -0.0146,-2.52366 z m -23.1798,50.56081 c 0.0888,-0.0094 0.1811,0.02385 0.2772,0.08753 0.0515,0.61706 -0.0743,1.11979 0.2917,1.92557 0.0394,1.12186 0.1458,2.247889 0.5981,3.369759 l -0.919,-1.05032 0,-1.035729 c 0.1096,-1.2117 -0.3754,-1.93158 -0.6418,-2.83 0.1167,-0.32705 0.2459,-0.45117 0.3938,-0.46681 z m -34.0476,6.958319 c 0.6544,0.1141 1.4816,0.53776 2.4216,0.61268 0.0864,0.36566 -0.1442,0.72843 0.7002,1.09408 -0.1343,0.54107 -0.5786,0.98272 0.2188,1.85263 -1.4321,2.97153 -4.757,5.40167 -8.6505,9.16105 -1.7672,1.70635 -4.2782,4.71559 -6.7249,8.44625 -4.7488,-1.81874 -8.7401,-4.39743 -11.72846,-7.27924 -0.38032,-0.98913 -0.99932,-1.56409 -1.7651,-1.88181 -0.0611,-0.50967 -0.29128,-0.87627 -0.64186,-1.13783 0.74446,-0.80639 0.99406,-2.12015 0.55433,-2.59661 -0.3115,-0.33751 -0.69346,-0.46709 -1.07949,-0.4668 -0.29542,-0.76826 -0.18623,-1.40101 0.0584,-1.98392 0.34416,0.0365 0.69241,0.0987 1.02114,0.17505 0.59259,0.35261 1.24526,0.46502 2.0131,0.17505 1.68778,0.68998 4.23219,1.32329 6.05389,-1.19619 0.6432,0.24211 1.1226,0.82154 1.4733,1.64841 0.229,0.08 0.4336,0.26343 0.7732,-0.0438 0.3405,0.34177 0.4853,0.3277 0.6856,0.0875 0.132,0.067 0.3097,0.18972 0.4814,0.27717 0.0859,0.0437 0.1757,0.0765 0.2772,0.0875 0.1014,0.0111 0.2193,-0.0198 0.3063,-0.10211 0.2297,-0.21725 0.2825,-0.5426 0.2042,-0.8315 -0.0126,-0.0467 -0.0388,-0.0862 -0.0583,-0.13129 0.0857,0.0152 0.1721,0.0308 0.2626,0.0146 0.1004,-0.018 0.2168,-0.0715 0.2771,-0.17505 0.1592,-0.27315 0.1128,-0.60554 -0.0437,-0.86067 0.1029,0.008 0.197,0.0139 0.3063,0.0146 0.0964,5.8e-4 0.1961,0.006 0.2918,-0.0292 0.0956,-0.0356 0.1925,-0.12078 0.2334,-0.2334 0.1078,-0.29715 -0.005,-0.60838 -0.2043,-0.8315 -0.007,-0.008 -0.0217,-0.007 -0.0291,-0.0146 0.0677,-0.0612 0.1504,-0.13755 0.1896,-0.16046 0.1077,-0.0629 0.2589,-0.11715 0.4085,-0.20423 0.0747,-0.0435 0.1601,-0.0991 0.2188,-0.17505 0.0587,-0.0759 0.0945,-0.18196 0.0875,-0.29175 -0.005,-0.0778 -0.0203,-0.14901 -0.0438,-0.21882 0.4719,-0.0682 0.9328,-0.30833 1.3713,-0.74397 1.9571,-0.38581 3.7688,-1.05767 5.6162,-1.66299 2.4801,0.44482 3.3199,-0.0593 4.4638,-0.39387 z m 36.3087,1.73593 c 0.4813,1.53505 1.339,4.4514 4.2304,4.06996 1.6002,-0.38422 3.1992,-0.8758 4.7994,-0.72938 0.1435,0.72685 0.3434,1.42903 1.1378,1.8818 -0.522,0.0893 -0.72,1.61467 0.1605,1.60465 -0.4735,1.37407 -0.6305,2.75423 -0.4085,4.1283 -0.8374,0.29601 -0.569,1.6545 0.1459,1.56088 0.1289,1.30299 -0.9203,1.94111 -2.2465,1.91099 -1.3457,-0.0309 -3.2691,0.0846 -3.3698,0.59809 -0.3451,-0.23767 -0.7857,-0.18044 -1.1961,-0.18964 -0.3564,-0.73939 -0.8152,-1.35668 -1.415,-1.85263 -0.212,-1.59199 -0.6025,-3.13485 -1.0649,-4.71182 -0.3722,-1.26903 -0.4409,-2.64995 -0.2918,-3.93866 0.1286,-1.53254 -0.1306,-2.5543 -0.6273,-3.25305 -0.1132,-0.42131 -0.0175,-0.76194 0.1459,-1.07949 z m -49.1896,0.8315 c -0.2316,0.2698 -0.3123,0.61912 -0.2625,0.9482 -0.3385,0.0273 -0.6099,0.14605 -0.7878,0.3501 -0.1435,0.16459 -0.2263,0.37483 -0.2334,0.5981 -0.144,0.0344 -0.2704,0.10258 -0.3793,0.18963 -0.2177,0.17411 -0.3404,0.45232 -0.3501,0.74398 -0.0531,0.0264 -0.0993,0.0665 -0.1458,0.10211 -0.1437,-0.32224 -0.2753,-0.63193 -0.6127,-0.80232 -0.1289,-0.43329 -0.2954,-0.84962 -0.5981,-1.16701 0.9205,-0.65967 2.1046,-0.87751 3.3697,-0.96279 z m 0.3647,0.1167 c 0.2365,0.0762 0.47,0.13888 0.7002,0.14588 0.0334,0.0657 0.0677,0.13652 0.073,0.21881 0.002,0.0322 0.004,0.0484 -0.0146,0.0729 -0.019,0.0245 -0.0621,0.0557 -0.1167,0.0875 -0.1093,0.0636 -0.2745,0.11748 -0.4231,0.20422 -0.1188,0.0694 -0.2102,0.16229 -0.2917,0.23341 -0.0658,-0.0346 -0.131,-0.0678 -0.2042,-0.0875 -0.096,-0.31517 -0.0127,-0.6373 0.2771,-0.87526 z m -0.5689,1.1816 c 0.0192,-0.001 0.0395,-5.4e-4 0.0584,0 0.002,0.004 -0.002,0.0103 0,0.0146 0.055,0.10925 0.1616,0.20014 0.2771,0.20423 0.0578,0.002 0.1146,-0.009 0.1605,-0.0292 0.0144,0.0138 0.0305,0.029 0.0438,0.0438 0.133,0.14876 0.1869,0.328 0.1312,0.4814 -0.005,0.0126 -4e-4,0.004 -0.0291,0.0146 -0.0288,0.0107 -0.0855,0.015 -0.1605,0.0146 -0.15,-9.1e-4 -0.3483,-0.0282 -0.5397,-0.0292 -0.0407,-2.1e-4 -0.0763,0.0101 -0.1167,0.0146 -0.1261,-0.0779 -0.2684,-0.12798 -0.4231,-0.14587 -0.0466,-0.005 -0.0868,-0.0131 -0.1313,-0.0146 0.0114,-0.12956 0.0674,-0.24549 0.1459,-0.33552 0.1126,-0.12914 0.3025,-0.21534 0.5835,-0.2334 z m -0.9919,0.9482 c 0.0366,0.0556 0.0759,0.10403 0.1312,0.13129 0.1035,0.0509 0.2103,0.0505 0.3064,0.0438 0.1072,-0.008 0.1833,-0.0153 0.2771,-0.0292 0.0565,0.0478 0.1076,0.098 0.1459,0.16046 0.1044,0.17009 0.1259,0.35497 0.0438,0.49598 -0.007,0.0116 10e-4,0.009 -0.0292,0.0146 -0.0302,0.005 -0.1013,0.0138 -0.175,0 -0.0945,-0.0177 -0.218,-0.0558 -0.3356,-0.0875 -0.0689,-0.0535 -0.1495,-0.0957 -0.2334,-0.13129 -0.2063,-0.0874 -0.4,-0.11391 -0.5835,-0.10211 0.0238,-0.1614 0.0906,-0.28843 0.2043,-0.37928 0.0669,-0.0535 0.1465,-0.0932 0.248,-0.1167 z m -0.6711,0.90443 c 0.0927,0.0685 0.196,0.0917 0.2918,0.10212 0.1915,0.0209 0.3916,-0.005 0.496,0.0146 0.0161,0.003 0.0411,0.0107 0.0583,0.0146 0.0982,0.0907 0.17,0.20912 0.2042,0.33552 0.0522,0.1926 0.0165,0.38383 -0.1021,0.49598 -0.01,0.009 0.001,0.003 -0.0292,0 -0.0305,-0.003 -0.079,-0.0243 -0.1458,-0.0584 -0.121,-0.0616 -0.2826,-0.15185 -0.4377,-0.2334 -0.006,-0.004 -0.009,-0.0104 -0.0146,-0.0146 -0.0101,-0.005 -0.019,-0.009 -0.0291,-0.0146 -0.1985,-0.14789 -0.3206,-0.34304 -0.4231,-0.53974 0.0403,-0.0365 0.0838,-0.0775 0.1313,-0.10212 z m -12.85171,0.0584 c 0.0576,-0.001 0.11689,-1.4e-4 0.17505,0 -0.12022,0.70568 -0.0907,1.40949 0.18964,2.11521 -0.54804,0.16933 -1.03548,0.56714 -1.25454,1.02114 -0.52324,-0.31979 -1.17052,-0.41547 -1.73593,-0.26258 -0.69668,-2.06149 0.81778,-2.83254 2.62578,-2.87377 z m 1.12325,2.50908 c 0.1832,0.0356 0.33494,0.12358 0.43763,0.2334 0.46411,0.49639 0.2257,1.24626 -0.40846,1.8964 -0.0704,-0.0558 -0.19469,-0.11817 -0.29175,-0.1167 0.009,-0.41875 -0.17922,-0.66041 -0.48139,-0.78774 -0.43265,-0.18229 -0.4479,-0.3919 -0.46681,-0.59809 0.22141,-0.30691 0.45088,-0.46539 0.67103,-0.55433 0.0541,0.0963 0.11042,0.19542 0.17506,0.29175 0.2458,0.30897 0.66783,0.14446 0.45221,-0.21881 -0.0311,-0.0501 -0.0598,-0.0969 -0.0875,-0.14588 z m -3.44269,0.74397 c 0.0627,-0.006 0.12528,-0.004 0.18964,0 0.30895,0.0182 0.63349,0.1339 0.93361,0.33552 l -0.48139,0.75856 c -0.28055,0.43357 -0.15955,0.9304 0.40845,1.15242 -0.14345,1.03724 -0.81699,1.08138 -1.40041,0.62727 -0.68086,-0.52994 -0.88553,-1.37421 -0.70021,-1.91098 0.12095,-0.35033 0.29126,-0.58846 0.49598,-0.74397 0.0373,0.0594 0.0754,0.11406 0.1167,0.17505 0.22225,0.32411 0.52427,0.0394 0.35011,-0.2334 -0.0223,-0.0471 -0.0381,-0.0854 -0.0584,-0.13129 0.0487,-0.0112 0.0958,-0.0245 0.14588,-0.0292 z m 6.01012,6.01012 c 2.98293,2.74323 6.84393,5.176 11.36383,6.92913 -0.6919,1.08894 -1.3731,2.2249 -2.0277,3.41351 -3.7468,-3.46892 -7.17917,-7.19941 -9.33613,-10.34264 z m 64.84213,9.27775 c 0.1905,0.004 0.3776,0.0283 0.5689,0.0875 -0.0507,0.41381 0.6324,1.0682 2.0861,1.02114 -0.0994,2.29225 -0.452,4.78388 0.4376,6.81243 -0.3171,0.69214 -0.6069,1.38899 -0.3793,2.42155 l -0.992,0.43763 c -0.8715,-7.30975 -2.1475,-9.19489 -3.501,-9.96337 l 0.1021,-0.78773 c 0.5349,0.11275 1.1061,-0.0419 1.6776,-0.0292 z m 23.9675,19.15359 0.496,0.86067 -1.2837,0.42304 0.7877,-1.28371 z m 2.9467,4.18665 c 0.4973,0.93924 1.3542,1.87618 2.1882,2.81542 -1.0633,0.0669 -2.0984,0.21484 -3.0926,0.62727 -0.8355,-0.26959 -0.6858,-0.54732 -0.7294,-0.81691 0.7961,-0.97764 1.1668,-1.77976 1.6338,-2.62578 z m -80.5238,34.79156 c 0.1093,-0.003 0.2113,-0.006 0.3209,0 1.5337,0.0816 3.066,0.807 4.5951,0.90444 0.9888,0.063 1.7852,0.58865 2.4507,1.2983 -2.8097,-0.0931 -5.2672,-1.09591 -7.7023,-2.18815 0.1096,-0.009 0.2262,-0.0117 0.3356,-0.0146 z m 14.7335,5.13486 1.4004,0.88985 -2.3778,0.68562 0.9774,-1.57547 z"
         id="path3312"
         style="fill:#803300;fill-opacity:1;fill-rule:evenodd;stroke:none" />
      <path
         d="m 0,266.66205 800,0 0,266.66797 -800,0 0,-266.66797 z"
         id="rect3717"
         style="fill:#ff6600;fill-opacity:1;fill-rule:evenodd;stroke:none;stroke-width:1.5;marker:none;visibility:visible;display:inline;overflow:visible;enable-background:accumulate" />
      <path
         d="m 44.541586,288.59645 -2.139659,7.10819 7.499014,13.9578 7.108189,2.13966 6.75308,-3.62818 -2.981118,-5.54871 -3.935712,2.11451 -2.897844,-0.85426 -4.494786,-8.36608 0.87737,-2.85483 17.420366,-9.35932 2.897843,0.85426 4.483232,8.34457 -0.887322,2.88789 -3.935713,2.11452 2.981118,5.54871 6.731574,-3.61663 2.139659,-7.10819 -7.499014,-13.9578 -7.108189,-2.13966 -23.012088,12.36355 z m 43.462918,13.09414 3.444423,5.27363 -30.660645,20.02572 -3.444423,-5.27363 30.660645,-20.02572 z m 6.832984,10.6061 14.768892,19.40966 -5.0127,3.81419 -5.484746,-7.20819 -24.130922,18.36133 -3.814189,-5.01271 24.130922,-18.36133 -5.469961,-7.18876 5.012704,-3.81419 z m 2.390119,60.43997 11.623063,-10.69649 22.74682,-6.0361 -4.69522,-5.10193 -14.79636,3.89536 5.07529,-14.45851 -4.69522,-5.10193 -7.84679,22.11866 -11.676953,10.74608 4.26537,4.63486 z m 30.770163,22.78278 0.72554,7.3877 12.24533,10.05521 7.3877,-0.72554 16.57793,-20.18875 -0.72554,-7.3877 -12.24533,-10.05521 -7.3877,0.72554 -16.57793,20.18875 z m 19.43173,-13.73862 2.98944,-0.29359 7.33965,6.02693 0.29359,2.98944 -12.54964,15.28308 -2.98945,0.29359 -7.33965,-6.02693 -0.29359,-2.98944 12.54965,-15.28308 z m 25.50684,9.66746 20.09615,13.82026 -3.5692,5.19 -14.90615,-10.25107 -5.02178,7.30221 11.64104,7.97599 -3.58303,5.21011 -11.62721,-7.9961 -8.59097,12.4922 -5.19,-3.5692 20.75115,-30.1744 z m 26.07467,53.85626 2.30374,7.05672 14.12777,7.17368 7.05671,-2.30374 14.20367,-27.97254 -5.59451,-2.84073 -12.75566,25.12086 -2.86657,0.95398 -8.48972,-4.31084 -0.92115,-2.87727 2.02278,-3.98364 -5.61628,-2.85179 -3.47078,6.83531 z m 27.74453,19.69649 23.80547,-29.89146 7.29199,2.93722 -3.58264,38.03725 -6.06912,-2.44465 0.75473,-8.40799 -10.87005,-4.37847 -5.23863,6.60187 -6.09175,-2.45377 z m 15.35961,-9.31574 7.51845,3.02845 1.32163,-14.12802 -8.84008,11.09957 z m 20.61288,17.74508 3.48587,6.55387 15.153,4.63054 6.55387,-3.48587 2.24035,-7.33134 -6.02384,-1.8408 -1.30569,4.27272 -2.65916,1.43391 -9.08246,-2.77547 -1.38722,-2.6449 5.77927,-18.91206 2.65916,-1.43391 9.05911,2.76834 1.40343,2.67538 -1.30568,4.27272 6.02384,1.8408 2.23322,-7.30799 -3.48587,-6.55387 -15.153,-4.63055 -6.55387,3.48587 -7.63433,24.98261 z m 59.24897,20.74391 -6.99376,-1.50247 -8.16151,-18.38408 -2.72752,1.88618 -2.90752,13.53398 -6.13445,-1.31786 7.69183,-35.8042 6.13445,1.31787 -2.98443,13.89203 16.13651,-11.06656 7.63823,1.64092 -17.43467,12.11114 9.74284,23.69305 z m 8.27828,-3.96174 4.53165,5.87951 15.71359,2.03432 5.87951,-4.53166 1.40741,-10.87118 -4.53166,-5.87951 -12.56603,-1.62683 -1.80952,-2.37601 0.59242,-4.57607 2.38229,-1.85795 9.39425,1.2162 1.83061,2.40336 -0.37615,2.90544 6.2467,0.80871 0.78364,-6.053 -4.53166,-5.87951 -15.71359,-2.03431 -5.8795,4.53165 -1.40741,10.87119 4.53165,5.87951 12.59024,1.62996 1.83061,2.40336 -0.58616,4.52765 -2.4065,1.85481 -9.41847,-1.21934 -1.83374,-2.37914 0.37615,-2.90544 -6.2467,-0.80872 -0.78363,6.053 z m 34.5974,4.1216 4.98674,5.49881 15.82587,0.77287 5.49881,-4.98673 1.27422,-26.09196 -4.98674,-5.49881 -15.82586,-0.77287 -5.49882,4.98674 -1.27422,26.09195 z m 7.41074,-22.61466 2.2251,-2.01789 9.48577,0.46325 2.01789,2.2251 -0.9646,19.75185 -2.2251,2.01789 -9.48577,-0.46324 -2.01789,-2.2251 0.9646,-19.75186 z m 27.56931,29.22848 -1.0373,-36.6064 9.20041,-0.26071 11.59203,26.39123 -0.75653,-26.69827 6.2963,-0.17841 1.0373,36.6064 -9.1516,0.25932 -11.63946,-26.34104 0.75515,26.64946 -6.2963,0.17842 z m 59.1731,-40.75319 -6.92097,37.58058 -7.81595,0.84345 -14.75494,-35.24144 6.5052,-0.70201 11.25472,26.92641 5.20247,-28.70237 6.52947,-0.70462 z m 5.08925,-1.0412 6.21212,-1.04152 6.05532,36.117 -6.21212,1.04152 -6.05532,-36.117 z m 12.96401,-2.10623 6.14184,-1.39751 6.72758,29.56652 17.63993,-4.01379 1.39752,6.14183 -23.78178,5.41132 -8.12509,-35.70837 z m 29.55445,-6.96681 6.00969,-1.8865 9.08151,28.93036 17.26039,-5.41819 1.8865,6.00969 -23.27008,7.30469 -10.96801,-34.94005 z m 28.86067,-9.31127 22.59812,-9.17495 2.36951,5.83615 -16.76197,6.80545 3.33384,8.21133 13.07479,-5.30844 2.36951,5.83615 -13.07479,5.30844 3.33384,8.21133 16.76197,-6.80545 2.36951,5.83615 -22.59812,9.17496 -13.77621,-33.93112 z m 40.82148,13.37905 6.10116,-2.91717 2.91717,6.10116 -0.81078,6.34113 -3.3774,-0.4418 0.59797,-4.18273 -2.51095,1.20057 -2.91717,-6.10116 z m 15.57214,-39.72043 20.73626,-12.83989 3.316,5.35531 -15.38094,9.52388 4.66554,7.5348 11.9847,-7.44964 3.32886,5.37606 -11.99755,7.42889 7.98155,12.8901 -5.35531,3.31601 -19.27911,-31.13552 z m 25.6284,-16.15486 5.06445,-3.74521 18.02926,24.38002 14.54557,-10.75659 3.74521,5.06444 -19.61002,14.50181 -21.77447,-29.44447 z m 44.88632,5.4308 7.40844,0.46858 11.8888,-10.47434 0.46858,-7.40843 -17.26893,-19.60096 -7.40844,-0.46858 -11.8888,10.47434 -0.46858,7.40843 17.26893,19.60096 z m -10.44463,-21.38344 0.18961,-2.99784 7.12596,-6.27814 2.99783,0.18961 13.07275,14.8381 -0.18961,2.99784 -7.12596,6.27814 -2.99783,-0.18961 -13.07275,-14.8381 z m 40.11505,1.71946 4.3325,-4.57216 -11.00508,-10.42824 5.59196,-5.90128 14.6155,6.61811 4.60119,-4.8557 -14.63229,-6.60039 -0.19971,-7.42055 -7.95698,-7.5399 -7.42055,0.19971 -14.50886,15.31141 26.58232,25.18899 z m -17.67765,-25.42864 7.9933,-8.43546 3.00274,-0.0808 3.34937,3.17381 0.0808,3.00274 -7.9933,8.43545 -6.43292,-6.09573 z m 13.25363,-23.93497 4.01622,-4.85234 28.21128,23.35012 -4.01622,4.85234 -28.21128,-23.35012 z m 37.97739,11.63849 12.24764,-17.17386 -1.22585,-7.32132 -21.26856,-15.1678 -7.32132,1.22585 -12.24765,17.17387 29.81574,21.26326 z m -21.03015,-22.73429 6.74754,-9.46152 2.96259,-0.49605 16.10049,11.48217 0.49605,2.96258 -6.74755,9.46153 -19.55912,-13.94871 z m 40.38586,-4.81518 -26.74673,-27.29125 3.80924,-6.87679 37.31087,8.21992 -3.17043,5.72353 -8.25198,-1.78006 -5.67837,10.25111 5.90966,6.00864 -3.18226,5.7449 z m -7.36196,-16.38604 3.92754,-7.09035 -13.85933,-3.0441 9.93179,10.13445 z"
         id="text3675"
         style="font-size:54.42386627px;font-style:normal;font-variant:normal;font-weight:normal;font-stretch:normal;text-align:center;line-height:100%;writing-mode:lr-tb;text-anchor:middle;fill:#f5dc0f;fill-opacity:1;stroke:#f5dc0f;stroke-width:0.75;stroke-linecap:butt;stroke-linejoin:miter;stroke-miterlimit:4;stroke-opacity:1;stroke-dasharray:none;font-family:Airborne;-inkscape-font-specification:Airborne" />
      <path
         d="m 401.48027,286.41602 -10.2255,-1.48027 -95.09715,95.60356 0,26.0019 95.18318,0 c 3.9165,0 8.84331,-2.8648 10.34397,-6.29355 1.08655,-2.48258 1.74016,-9.22578 -1.17836,-11.44045 -6.8279,-5.18125 -11.59125,-9.20753 -9.31574,-18.40742 2.14631,-8.67758 12.37105,-7.36616 18.94716,-10.70098 2.25038,-1.85073 3.51084,-4.68924 2.27887,-9.82628 -3.02163,-5.24862 -5.77179,-9.46239 -0.10415,-13.65186 8.19568,-6.05817 19.48564,0.74684 28.7258,1.31691 5.20095,0.32087 6.81869,-3.4032 10.28392,-3.5546 3.29657,-0.14403 6.99229,2.71866 10.0015,2.66833 3.00922,-0.0503 8.05381,-0.10891 8.05381,-2.97027 l 0,-17.86428 c 0,-8.67829 -11.60718,-12.94194 -17.0425,-19.68165 -1.44984,-1.79778 -1.92299,-4.73039 -3.61299,-5.9308 -1.33544,-0.94857 -4.55958,-1.56436 -5.46335,-0.51613 -1.54764,4.56673 -1.27527,9.24931 -5.35871,9.97658 -3.49383,0.62225 -3.72882,-4.11254 -6.38602,-6.19801 -3.25238,-2.5526 -7.5474,0.2909 -9.00815,-1.29524 -0.7438,-5.67662 1.89261,-6.48138 -4.54813,-9.67735 -6.00211,-2.97832 -10.30925,2.82046 -16.47746,3.92186 z m 16.70553,55.31067 c -2.87719,-0.86605 -3.53558,1.42973 -3.17609,3.06646 0.70475,3.20863 2.67663,7.17407 2.68526,10.71796 0.007,2.77179 -0.83424,6.25215 -2.63913,8.2291 -1.80489,1.97695 -5.77015,1.38834 -8.33057,4.75578 -3.2462,4.26937 -1.99497,10.53566 0.1404,15.17912 3.00322,3.69368 5.39653,4.97974 5.73883,9.95935 0.52465,6.35448 -7.4041,9.77455 -7.4041,19.79472 l 0,7.01863 30.27723,13.6731 30.62779,0 0.21425,-46.0732 9.72882,0.078 -0.83748,-35.5849 c -2.87383,-3.68153 -4.58461,-10.21038 -9.93289,-10.68369 -3.98167,-0.35237 -7.04422,3.88118 -10.62526,3.39335 -4.23264,-0.5766 -6.69977,-4.68311 -11.06741,-2.83278 -5.62505,2.38303 0.81599,8.76509 -4.40903,11.22671 -6.41584,3.02264 -12.67086,-9.41342 -20.99062,-11.91771 z"
         id="path3710"
         style="fill:#f5dc0f;fill-opacity:1;fill-rule:evenodd;stroke:none" />
    </g>
  </g>
</svg>
