<?xml version="1.0" encoding="UTF-8" standalone="no"?>
<!-- Created with Inkscape (http://www.inkscape.org/) -->

<svg
   xmlns:dc="http://purl.org/dc/elements/1.1/"
   xmlns:cc="http://creativecommons.org/ns#"
   xmlns:rdf="http://www.w3.org/1999/02/22-rdf-syntax-ns#"
   xmlns:svg="http://www.w3.org/2000/svg"
   xmlns="http://www.w3.org/2000/svg"
   version="1.0"
   width="800"
   height="480"
   id="svg2">
  <defs
     id="defs4" />
  <metadata
     id="metadata7">
    <rdf:RDF>
      <cc:Work
         rdf:about="">
        <dc:format>image/svg+xml</dc:format>
        <dc:type
           rdf:resource="http://purl.org/dc/dcmitype/StillImage" />
        <dc:title></dc:title>
      </cc:Work>
    </rdf:RDF>
  </metadata>
  <g
     id="layer1">
    <rect
       width="800"
       height="480"
       x="0"
       y="0"
       id="rect3607"
       style="fill:#ffffff;fill-opacity:1;stroke:none" />
    <path
       d="M 333.32812,240 400,0 800,0 800,240 333.32812,240 z"
       id="path3250"
       style="fill:#c70f2e;fill-opacity:1;fill-rule:evenodd;stroke:none" />
    <path
       d="M 266.67188,480 800,480 800,240 333.32812,240 266.67188,480 z"
       id="path3252"
       style="fill:#002673;fill-opacity:1;fill-rule:evenodd;stroke:none" />
    <g
       transform="matrix(0.99491116,0,0,0.99491922,1.0824466,1.2193872)"
       id="g3004">
      <g
         id="g3205">
        <path
           d="M 432.28502,338.96123 C 415.65782,355.58845 376.50308,359.11286 333.31721,359.11286 290.13134,359.11286 250.97784,355.58839 234.35636,338.96653 217.73489,322.34469 214.21046,283.19119 214.21046,240.00532 214.21046,196.81945 217.73489,157.66595 234.36335,141.03878 250.99183,124.41161 290.14531,120.88714 333.33118,120.88714 376.51705,120.88714 415.67055,124.41161 432.29203,141.03347 448.9135,157.65532 452.43797,196.80882 452.43797,239.99469 452.43797,283.18055 448.91225,322.334 432.28502,338.96123 z"
           id="path3640"
           style="fill:#f5dc0f;fill-opacity:1;fill-rule:evenodd;stroke:#000000;stroke-width:3;stroke-linecap:butt;stroke-linejoin:miter;stroke-miterlimit:4;stroke-opacity:1;stroke-dasharray:none" />
        <path
           d="M 409.04784,164.28772 C 422.84436,178.08424 421.78786,221.2395 421.78786,240 421.78786,258.76049 422.95038,301.81339 409.04784,315.71594 395.1453,329.61848 352.09422,328.45205 333.33373,328.45205 314.57323,328.45205 271.55341,329.61848 257.65087,315.71594 243.74832,301.81339 244.8835,258.76049 244.8835,240 244.8835,221.2395 243.74832,178.19026 257.65087,164.28772 271.55341,150.38517 314.60448,151.54769 333.36498,151.54769 352.12547,151.54769 395.25132,150.49119 409.04784,164.28772 z"
           id="path3705"
           style="fill:none;stroke:#000000;stroke-width:1.50000012;stroke-linecap:butt;stroke-linejoin:miter;stroke-miterlimit:4;stroke-opacity:1;stroke-dasharray:none" />
        <path
           d="M 291.41998,145.21655 291.30317,145.34876 C 290.3924,145.47512 288.98416,145.71672 287.07841,146.07353 285.12704,146.43888 283.72677,146.72309 282.87762,146.92622 L 282.73655,146.85331 282.60083,146.12844 282.71764,145.99623 C 283.63976,145.77946 284.16652,145.64405 284.298,145.59002 284.55178,145.48363 284.68219,145.32313 284.6892,145.10852 284.71191,144.57464 284.56496,143.46196 284.24831,141.77054 L 282.8991,134.56424 280.76104,140.00702 C 280.63835,140.30953 280.23192,141.41543 279.54178,143.32481 L 277.83708,148.05752 276.92065,148.22909 C 276.2815,147.43662 275.4304,146.44476 274.36737,145.2535 L 271.85971,142.44596 267.18841,137.30706 268.57353,144.70526 C 268.89017,146.39669 269.1557,147.48714 269.37004,147.97666 269.45421,148.17419 269.63384,148.27664 269.90894,148.28401 270.05105,148.28683 270.59111,148.22249 271.5292,148.09098 L 271.68594,148.17197 271.82166,148.89687 271.70284,149.01842 C 270.64621,149.17211 269.66653,149.33347 268.7638,149.50248 267.71518,149.69881 266.66597,149.9173 265.6162,150.158 L 265.46145,150.08764 265.32573,149.36277 265.44256,149.23056 C 266.36467,149.01379 266.89144,148.87838 267.02289,148.82434 267.27672,148.71796 267.40711,148.55746 267.41411,148.34285 267.43685,147.80896 267.2899,146.69629 266.97322,145.00487 L 265.91741,139.3656 C 265.60074,137.67421 265.33521,136.58376 265.12087,136.09424 265.03669,135.89669 264.85705,135.79422 264.58196,135.78687 264.43986,135.78409 263.8998,135.84843 262.96168,135.97989 L 262.80495,135.89889 262.66925,135.17402 262.78806,135.05246 C 263.74437,134.91755 264.94746,134.71437 266.39733,134.44291 267.50977,134.23465 268.47691,134.03151 269.29871,133.83351 269.70076,134.31728 270.27168,134.99747 271.01157,135.87406 L 272.16234,137.18129 277.83916,143.45599 279.31315,139.75953 281.56226,133.70011 C 281.82411,132.9817 282.0676,132.21522 282.29263,131.40071 283.331,131.25044 284.02799,131.14202 284.38364,131.07541 286.17086,130.74081 287.53462,130.46343 288.47503,130.24322 L 288.62976,130.31354 288.76749,131.04911 288.64867,131.17064 C 287.72652,131.38747 287.19975,131.52286 287.06832,131.57686 286.8145,131.68324 286.6841,131.84374 286.6771,132.05837 286.65437,132.59228 286.80132,133.70493 287.11801,135.39631 L 288.17384,141.0356 C 288.49049,142.72701 288.756,143.81748 288.97036,144.30698 289.05452,144.50451 289.23414,144.60698 289.50927,144.61433 289.65133,144.61717 290.19142,144.55281 291.12953,144.42132 L 291.28626,144.50231 291.41998,145.21655 z M 306.44313,141.04719 C 306.28354,142.11045 306.23171,143.30667 306.28757,144.6359 L 306.15311,144.75011 296.04275,145.11001 C 294.35581,145.18091 293.16569,145.25264 292.47237,145.32521 L 292.32876,145.22271 292.316,144.91931 292.38007,144.78635 C 293.05168,144.41798 293.41345,144.1893 293.46544,144.10028 293.54307,143.95953 293.57387,143.47697 293.5578,142.65267 L 293.49746,140.22367 293.2665,134.72987 C 293.19423,133.01061 293.08692,131.89345 292.94456,131.37836 292.88939,131.17084 292.72623,131.0438 292.455,130.99729 292.31475,130.97427 291.771,130.96096 290.82376,130.95733 L 290.68017,130.85482 290.64919,130.11798 290.78412,130.01462 C 291.7221,130.0186 293.16895,129.9795 295.12465,129.89725 296.8672,129.82402 300.17987,129.66306 305.06272,129.41435 L 305.21932,129.49459 305.08912,130.70499 C 305.0496,131.09021 305.02156,131.41705 305.00498,131.68548 L 304.95002,132.69731 304.816,132.82234 304.00963,132.85625 303.86604,132.75374 C 303.81546,131.77168 303.71777,131.21495 303.57298,131.08351 303.46675,130.98668 302.96521,130.92817 302.06837,130.90796 301.1715,130.8878 300.38474,130.89193 299.70813,130.92035 298.90174,130.95428 298.08713,131.01383 297.26436,131.09907 297.19427,131.86186 297.18748,132.91509 297.24396,134.25876 L 297.33827,136.50177 C 298.07202,136.5071 298.66598,136.50023 299.12017,136.48114 L 300.94101,136.39372 C 301.79346,136.35065 302.27314,136.27622 302.38012,136.17039 302.52295,136.03413 302.59977,135.54243 302.6106,134.69529 L 302.74506,134.58106 303.60706,134.54482 303.75066,134.64737 C 303.74757,135.458 303.76017,136.19924 303.78842,136.87107 303.81909,137.60069 303.87117,138.39814 303.94471,139.26342 L 303.80977,139.36682 302.87827,139.40598 302.73468,139.30347 C 302.69975,138.47273 302.60486,137.9828 302.45004,137.83371 302.29522,137.68463 301.84132,137.60059 301.08844,137.58158 300.52154,137.56923 299.9183,137.57651 299.27877,137.60339 298.60212,137.63183 297.9726,137.67639 297.3902,137.73706 L 297.52912,141.042 C 297.56891,141.98834 297.63067,142.90482 297.71436,143.79139 L 299.60519,143.7119 C 302.31168,143.59812 303.96729,143.4453 304.57206,143.25343 304.67279,143.22025 304.74525,143.17741 304.7895,143.12489 304.8779,143.01985 304.95685,142.79943 305.02634,142.46362 L 305.30351,141.10594 305.43753,140.98093 306.28564,140.94526 306.44313,141.04719 z M 334.82269,144.18392 334.68353,144.29237 C 333.76509,144.24897 332.33641,144.2273 330.39756,144.2273 328.41227,144.2273 326.98361,144.24897 326.11159,144.29237 L 325.98635,144.19474 325.98635,143.45727 326.12551,143.34882 C 327.07174,143.30543 327.61443,143.26929 327.75362,143.24036 328.02263,143.18251 328.18035,143.04874 328.22674,142.83909 328.34733,142.3185 328.40764,141.19779 328.40766,139.47699 L 328.40766,132.14546 325.30451,137.10183 C 325.12821,137.37659 324.52522,138.38882 323.49548,140.13857 L 320.94896,144.47674 320.01659,144.47674 C 319.53419,143.58017 318.88018,142.44864 318.05453,141.0821 L 316.10635,137.86101 312.46052,131.95025 312.46052,139.47699 C 312.4605,141.19779 312.5208,142.3185 312.64141,142.83909 312.68778,143.04874 312.84548,143.18251 313.11453,143.24036 313.25368,143.26929 313.79639,143.30543 314.74265,143.34882 L 314.8818,143.45727 314.8818,144.19474 314.74265,144.29237 C 313.67578,144.24897 312.68315,144.2273 311.76472,144.2273 310.69788,144.2273 309.62638,144.24897 308.55027,144.29237 L 308.4111,144.19474 308.4111,143.45727 308.55027,143.34882 C 309.49651,143.30543 310.03921,143.26929 310.17835,143.24036 310.44739,143.18251 310.60511,143.04874 310.65149,142.83909 310.7721,142.3185 310.8324,141.19779 310.8324,139.47699 L 310.8324,133.73973 C 310.8324,132.01894 310.7721,130.89826 310.65149,130.37765 310.60511,130.16798 310.44739,130.03421 310.17835,129.97636 310.03921,129.94747 309.49651,129.91132 308.55027,129.8679 L 308.4111,129.75945 308.4111,129.02197 308.55027,128.92437 C 309.51505,128.96775 310.73497,128.98944 312.21003,128.98942 313.34182,128.98944 314.32981,128.96775 315.17402,128.92437 315.48016,129.47387 315.91619,130.24751 316.48209,131.24529 L 317.37265,132.74197 321.7978,139.95418 323.92688,136.5921 327.25266,131.05007 C 327.64226,130.39212 328.02263,129.68355 328.39372,128.92437 329.44203,128.96775 330.14704,128.98944 330.50889,128.98942 332.32715,128.98944 333.71871,128.96775 334.68353,128.92437 L 334.82269,129.02197 334.82269,129.77032 334.68353,129.8679 C 333.73724,129.91132 333.19455,129.94747 333.05542,129.97636 332.78635,130.03421 332.62865,130.16798 332.58228,130.37765 332.46167,130.89826 332.40137,132.01894 332.40138,133.73973 L 332.40138,139.47699 C 332.40137,141.19779 332.46167,142.3185 332.58228,142.83909 332.62865,143.04874 332.78635,143.18251 333.05542,143.24036 333.19455,143.26929 333.73724,143.30543 334.68353,143.34882 L 334.82269,143.45727 334.82269,144.18392 z M 352.49534,132.31898 C 352.49532,133.80845 351.84362,134.97072 350.54023,135.8058 349.23677,136.6409 347.76406,137.05845 346.12207,137.05845 345.56543,137.05845 345.00416,137.00783 344.43828,136.90661 344.35478,136.7114 344.19243,136.45111 343.95125,136.12574 L 344.24347,135.88714 C 344.63309,135.98838 344.99027,136.03897 345.31495,136.03897 346.25192,136.03897 347.00335,135.7805 347.56925,135.26354 348.13515,134.74656 348.41809,134.02174 348.41809,133.08901 348.41809,131.07176 347.25383,130.06314 344.92531,130.06314 344.647,130.06314 344.0904,130.10652 343.25547,130.19326 343.17197,130.36682 343.13021,131.54897 343.13021,133.73973 L 343.13021,139.47699 C 343.13021,141.19779 343.19054,142.3185 343.31113,142.83909 343.3575,143.04874 343.51522,143.18251 343.78427,143.24036 343.86775,143.25482 344.50322,143.29096 345.69067,143.34882 L 345.84374,143.46811 345.84374,144.18392 345.70459,144.29237 C 344.43365,144.24897 342.91221,144.2273 341.14033,144.2273 339.14577,144.2273 337.71711,144.24897 336.85434,144.29237 L 336.71518,144.19474 336.71518,143.46811 336.86827,143.34882 C 337.80522,143.30543 338.3433,143.26929 338.48245,143.24036 338.7515,143.18251 338.90918,143.04874 338.95559,142.83909 339.07618,142.3185 339.13647,141.19779 339.13649,139.47699 L 339.13649,133.73973 C 339.13647,132.01894 339.07618,130.89826 338.95559,130.37765 338.90918,130.16798 338.7515,130.03421 338.48245,129.97636 338.3433,129.94747 337.80059,129.91132 336.85434,129.8679 L 336.71518,129.74862 336.71518,129.03282 336.86827,128.92437 C 337.7774,128.96775 339.1736,128.98944 341.05683,128.98942 341.83608,128.98944 342.9586,128.97861 344.42437,128.95688 345.89011,128.93521 346.73434,128.92439 346.957,128.92437 349.49887,128.92439 351.15019,129.4269 351.9109,130.43187 352.30051,130.95248 352.49532,131.58151 352.49534,132.31898 L 352.49534,132.31898 z M 375.80971,145.29299 375.66556,145.39472 C 374.7502,145.30785 373.32419,145.21844 371.38748,145.12649 369.40443,145.03235 367.97637,144.98625 367.10327,144.98826 L 366.9689,144.88415 367.00389,144.1475 367.1619,144.04642 C 368.10916,144.04795 368.65294,144.03758 368.79331,144.0153 369.06479,143.97027 369.22866,143.84411 369.28494,143.63691 369.43007,143.12263 369.54347,142.00603 369.62509,140.28718 L 369.74904,137.67635 C 369.27812,137.61781 367.7778,137.5285 365.24806,137.40841 362.91286,137.29752 361.37375,137.24256 360.63073,137.24349 L 360.5068,139.8543 C 360.42519,141.57317 360.43229,142.69546 360.52805,143.2212 360.56444,143.43282 360.71564,143.5739 360.98162,143.64445 361.11925,143.67994 361.6596,143.74177 362.60277,143.82998 L 362.73664,143.94492 362.70217,144.67074 362.57191,144.77313 C 361.64733,144.68579 360.22131,144.5964 358.29385,144.50489 356.30153,144.41032 354.87348,144.36423 354.00964,144.36667 L 353.87525,144.26254 353.91022,143.52591 354.05437,143.42417 C 355.00163,143.4257 355.54542,143.41533 355.68579,143.39303 355.95725,143.34802 356.12114,143.22186 356.17741,143.01466 356.32257,142.50036 356.43594,141.38378 356.51755,139.66493 L 356.78961,133.93411 C 356.8712,132.21526 356.86412,131.09297 356.76834,130.56723 356.73195,130.35559 356.58075,130.21451 356.31477,130.14395 356.17712,130.10851 355.63677,130.04666 354.69362,129.95843 L 354.55978,129.84347 354.59474,129.10685 354.73837,129.01595 C 355.62589,129.1015 357.0519,129.19093 359.01643,129.28417 361.02726,129.37964 362.45535,129.42572 363.30067,129.42242 L 363.42114,129.52585 363.38565,130.27336 363.24202,130.36424 C 362.29474,130.36273 361.75097,130.37311 361.6106,130.39536 361.33913,130.4404 361.17523,130.56653 361.11898,130.77377 360.97382,131.28807 360.86045,132.40465 360.77886,134.12348 L 360.69401,135.91097 C 361.67454,135.99374 363.02658,136.07603 364.75016,136.15783 367.45599,136.28629 369.14337,136.3483 369.81228,136.34384 L 369.89715,134.55636 C 369.97872,132.83751 369.9716,131.71524 369.87587,131.18948 369.83945,130.97784 369.68828,130.83676 369.4223,130.7662 369.28467,130.73076 368.7443,130.66893 367.80115,130.58068 L 367.65342,130.46509 367.68839,129.72844 367.83202,129.63755 C 368.72878,129.72356 370.15481,129.81296 372.11006,129.90576 374.13013,130.00167 375.55825,130.04778 376.39429,130.04401 L 376.52868,130.14812 376.49319,130.89559 376.36348,130.98714 C 375.39767,130.98477 374.84922,130.99492 374.71815,131.01763 374.44665,131.06263 374.28277,131.1888 374.22652,131.39602 374.08135,131.91032 373.96799,133.0269 373.8864,134.74575 L 373.61435,140.47655 C 373.53274,142.19542 373.5398,143.31773 373.63559,143.84345 373.67199,144.05507 373.82315,144.19615 374.08916,144.2667 374.22677,144.30219 374.76714,144.36404 375.71031,144.45223 L 375.84416,144.56719 375.80971,145.29299 z M 386.06718,146.69303 385.93019,146.78619 C 385.0138,146.63523 383.59277,146.44706 381.66703,146.22164 379.75051,145.99729 378.32903,145.85271 377.40255,145.78797 L 377.2908,145.66568 377.37529,144.94397 377.52608,144.85242 C 378.47096,144.91935 379.01419,144.94656 379.15576,144.93399 379.42969,144.90781 379.60188,144.7933 379.67233,144.59046 379.85267,144.08741 380.04285,142.98131 380.2429,141.27218 L 380.90994,135.57383 C 381.11,133.86472 381.18042,132.74463 381.12114,132.21352 381.09945,131.99988 380.95836,131.84868 380.69788,131.75995 380.56303,131.71507 380.0282,131.61607 379.09343,131.46294 L 378.96784,131.33903 379.05358,130.60658 379.20311,130.5258 C 380.08264,130.67244 381.49908,130.86007 383.45248,131.08871 385.39661,131.3163 386.81349,131.46032 387.70311,131.52078 L 387.82997,131.6339 387.74423,132.36638 387.5934,132.45793 C 386.64852,132.39104 386.10529,132.36383 385.96374,132.37635 385.68978,132.40252 385.5176,132.51705 385.44715,132.71991 385.26683,133.22298 385.07666,134.32906 384.8766,136.03816 L 384.20956,141.73652 C 384.0095,143.44565 383.93908,144.56576 383.99835,145.09685 384.02006,145.31047 384.1611,145.46167 384.42162,145.5504 384.55645,145.59532 385.09126,145.69432 386.02608,145.84741 L 386.15166,145.97132 386.06718,146.69303 z M 402.22704,145.28753 C 401.90921,146.43741 401.20871,147.33527 400.12551,147.98104 399.17849,148.55196 398.05834,148.86126 396.76507,148.90889 395.57787,148.95588 394.2287,148.77052 392.71755,148.35287 390.83976,147.8339 389.09022,146.9903 387.4689,145.82209 L 387.37148,145.54764 C 387.84337,144.81539 388.28345,143.71055 388.69178,142.23311 L 388.85477,142.16564 389.7132,142.40289 389.80504,142.54079 389.7386,142.78122 C 389.63073,143.17149 389.54184,143.70202 389.47197,144.37282 389.67058,144.90781 390.1414,145.45049 390.88437,146.0009 391.65927,146.57514 392.51619,146.99198 393.45506,147.25146 395.22553,147.74077 396.58345,147.59849 397.52881,146.82456 398.01428,146.42614 398.3302,145.96211 398.47661,145.43247 398.72314,144.54042 398.421,143.77056 397.57015,143.12282 397.14825,142.8037 396.42708,142.4356 395.40662,142.01854 393.09813,141.073 391.62804,140.28037 390.99634,139.64067 390.04178,138.67176 389.75421,137.50084 390.13366,136.12792 390.52849,134.6993 391.46039,133.73035 392.92934,133.22116 394.48136,132.68994 396.4198,132.74559 398.74468,133.38813 400.83702,133.9664 402.45481,134.69482 403.59798,135.57334 L 403.62254,135.85019 C 403.17872,136.62018 402.77362,137.58093 402.4073,138.73241 L 402.23084,138.79615 401.38586,138.56263 401.28063,138.42103 C 401.48491,137.57732 401.59043,137.02138 401.59719,136.7532 401.41052,136.34905 401.00469,135.93683 400.37976,135.51657 399.71199,135.07697 398.98022,134.74722 398.18441,134.52724 396.98622,134.19612 395.97001,134.18156 395.13582,134.48359 394.354,134.77012 393.86102,135.28276 393.65687,136.02145 393.43536,136.8229 393.64371,137.51435 394.28186,138.09579 394.6973,138.47315 395.77287,139.0217 397.50851,139.74142 397.69051,139.81425 398.19435,140.0285 399.02003,140.38421 399.52829,140.59972 399.98769,140.83546 400.39823,141.09142 401.22814,141.60584 401.79599,142.19787 402.1018,142.86748 402.42988,143.59579 402.47162,144.40244 402.22704,145.28753 L 402.22704,145.28753 z"
           id="path3846"
           style="font-size:13.03768158px;font-style:normal;font-weight:normal;text-align:center;line-height:125%;text-anchor:middle;fill:#000000;fill-opacity:1;stroke:none;font-family:Bitstream Vera Sans" />
        <path
           d="M 233.29938,281.29385 C 234.48238,281.13987 235.58187,281.43648 236.59781,282.18364 237.49185,282.83441 238.21207,283.74638 238.75848,284.91948 239.26304,285.99518 239.61651,287.31035 239.81885,288.86502 240.07029,290.79692 239.9728,292.73679 239.52635,294.68464 L 239.3113,294.88101 C 238.45324,294.73076 237.26422,294.75454 235.74422,294.95236 L 235.61871,294.82837 235.50376,293.94524 235.59517,293.80705 235.84253,293.77484 C 236.24401,293.7226 236.7674,293.59832 237.41265,293.40209 237.82842,293.0112 238.14552,292.3665 238.364,291.46803 238.592,290.5309 238.64314,289.57938 238.51742,288.61342 238.28035,286.79194 237.62159,285.59603 236.54116,285.02565 235.98542,284.73314 235.4351,284.62235 234.89017,284.69325 233.97246,284.8127 233.38046,285.39024 233.11422,286.4259 232.98411,286.93868 232.92518,287.7462 232.93739,288.84854 232.96312,291.34304 232.80401,293.0056 232.46005,293.83621 231.93815,295.09225 230.97097,295.81218 229.55851,295.99601 228.08871,296.18732 226.83382,295.70514 225.79386,294.54946 224.70133,293.3258 223.9994,291.51805 223.68807,289.12619 223.40791,286.97355 223.45048,285.19989 223.8158,283.80516 L 224.06134,283.67498 C 224.9433,283.78472 225.98595,283.78468 227.18929,283.6748 L 227.31657,283.81261 227.42973,284.68194 227.34013,284.83393 C 226.48338,284.97353 225.9301,285.09232 225.68035,285.1903 225.38051,285.51934 225.15837,286.05344 225.01395,286.79256 224.86837,287.57866 224.84886,288.38109 224.9554,289.19981 225.11586,290.43252 225.49731,291.37453 226.09974,292.02582 226.66756,292.63487 227.33141,292.88993 228.09141,292.79103 228.91597,292.6837 229.47213,292.22306 229.75991,291.40911 229.94621,290.8797 230.03373,289.67552 230.0225,287.79659 230.01887,287.6006 230.02051,287.05309 230.02746,286.15408 230.02852,285.60199 230.06721,285.0871 230.14359,284.60938 230.29511,283.64481 230.61997,282.89151 231.11813,282.34956 231.66173,281.76431 232.3888,281.41236 233.29938,281.29385 L 233.29938,281.29385 z M 237.46528,257.01236 237.57738,257.1486 C 237.55821,258.06788 237.57419,259.49661 237.62533,261.43482 237.67767,263.4194 237.73704,264.847 237.80341,265.71757 L 237.70951,265.85925 236.97226,265.87868 236.8598,265.72853 C 236.7915,264.78378 236.74104,264.24221 236.70845,264.10387 236.64355,263.83646 236.50569,263.68233 236.29484,263.64148 235.77128,263.53467 234.64936,263.50395 232.92915,263.54928 L 230.3163,263.61821 C 230.29266,264.09214 230.31424,265.59497 230.38099,268.1267 230.44266,270.46371 230.50133,272.00265 230.55702,272.74358 L 233.16987,272.67467 C 234.89007,272.6293 236.00881,272.53947 236.52603,272.4052 236.7344,272.35329 236.86395,272.1921 236.91468,271.92164 236.93992,271.78177 236.96176,271.23831 236.98016,270.29123 L 237.08492,270.14926 237.81132,270.13011 237.92303,270.25242 C 237.90412,271.18096 237.9201,272.60969 237.97099,274.53864 238.02357,276.5325 238.08295,277.96008 238.14907,278.82139 L 238.05517,278.96307 237.31794,278.98252 237.20582,278.84626 C 237.13753,277.90149 237.08706,277.35993 237.05449,277.2216 236.98957,276.95418 236.85171,276.80005 236.64087,276.75921 236.1173,276.65238 234.9954,276.62164 233.2752,276.66703 L 227.53994,276.81832 C 225.81974,276.86369 224.70102,276.95352 224.18379,277.08783 223.97541,277.1397 223.84587,277.30089 223.79513,277.57137 223.76989,277.71122 223.74809,278.2547 223.72964,279.20174 L 223.62489,279.34373 222.88765,279.36319 222.78641,279.22664 C 222.80631,278.33522 222.79033,276.90651 222.73844,274.94045 222.68539,272.92805 222.62601,271.50049 222.56038,270.65767 L 222.65463,270.52992 223.40272,270.51018 223.50397,270.64673 C 223.5723,271.59152 223.62275,272.13306 223.65532,272.27141 223.72024,272.53881 223.8581,272.69296 224.06893,272.7338 224.59253,272.84063 225.71443,272.87135 227.43463,272.82596 L 229.2235,272.77876 C 229.23371,271.79482 229.21607,270.44036 229.17057,268.71545 229.09913,266.0075 229.03654,264.32016 228.98278,263.65339 L 227.19392,263.70057 C 225.47371,263.746 224.35497,263.83583 223.83774,263.97008 223.62939,264.02201 223.49984,264.18318 223.44909,264.45364 223.42387,264.59351 223.40204,265.13698 223.38361,266.08403 L 223.27923,266.2399 222.54197,266.25935 222.44075,266.12282 C 222.4604,265.22214 222.44442,263.79341 222.39278,261.83664 222.33948,259.81497 222.2801,258.38737 222.21472,257.55385 L 222.3086,257.41219 223.05667,257.39245 223.15758,257.51506 C 223.2264,258.47842 223.27695,259.02461 223.30928,259.15368 223.37421,259.42112 223.51208,259.57521 223.7229,259.61605 224.24648,259.7229 225.36839,259.75364 227.08859,259.70821 L 232.82385,259.55692 C 234.54405,259.51159 235.66277,259.42176 236.17998,259.28743 236.38838,259.23556 236.51792,259.0744 236.56863,258.80391 236.5939,258.66406 236.61572,258.12058 236.63413,257.1735 L 236.7389,257.03152 237.46528,257.01236 z M 234.17844,240.07836 C 235.23405,240.28245 236.42707,240.38452 237.75744,240.3845 L 237.86589,240.52365 237.8008,250.64021 C 237.8008,252.32863 237.82251,253.52072 237.86589,254.21649 L 237.75744,254.35565 237.45376,254.35565 237.32361,254.28606 C 236.9838,253.59957 236.77051,253.22849 236.68374,253.17282 236.54635,253.08934 236.06555,253.03832 235.24129,253.01975 L 232.81192,252.97801 227.31327,252.97801 C 225.59247,252.97801 224.47176,253.03832 223.95117,253.15891 223.7415,253.2053 223.60775,253.36302 223.5499,253.63203 223.52099,253.77118 223.48485,254.31389 223.44145,255.26014 L 223.33299,255.3993 222.59548,255.3993 222.49789,255.26014 C 222.54127,254.32317 222.56298,252.87597 222.56296,250.91852 222.56298,249.17446 222.54127,245.85792 222.49789,240.96894 L 222.58465,240.81588 223.78849,240.99677 C 224.17171,241.05246 224.49706,241.09419 224.76458,241.12201 L 225.77321,241.21943 225.89253,241.35858 225.89253,242.16566 225.78408,242.30482 C 224.80075,242.31412 224.2404,242.38834 224.10303,242.52747 224.00181,242.62954 223.92227,243.12819 223.86441,244.02338 223.8066,244.91863 223.77767,245.70486 223.77765,246.38207 223.77767,247.18917 223.80297,248.00555 223.85357,248.83118 224.61277,248.93324 225.66478,248.98427 227.00961,248.98427 L 229.25461,248.98427 C 229.29077,248.2514 229.30883,247.65767 229.30883,247.2031 L 229.29799,245.38016 C 229.29077,244.52668 229.23654,244.04428 229.13531,243.93293 229.00517,243.78452 228.51713,243.68712 227.67116,243.64073 L 227.56271,243.50156 227.56271,242.6388 227.67116,242.49965 C 228.48097,242.53677 229.22207,242.55532 229.89448,242.5553 230.62475,242.55532 231.42371,242.53677 232.29133,242.49965 L 232.38894,242.6388 232.38894,243.57114 232.28048,243.7103 C 231.44901,243.7103 230.95555,243.78452 230.80009,243.93293 230.64463,244.08139 230.54162,244.53133 230.49098,245.28274 230.45484,245.84864 230.43678,246.45165 230.43676,247.09177 230.43678,247.769 230.45484,248.39982 230.49098,248.98427 L 233.79886,248.98427 C 234.74602,248.98427 235.66425,248.96107 236.5536,248.91468 L 236.5536,247.02219 C 236.5536,244.31331 236.47045,242.65273 236.30414,242.04044 236.27522,241.9384 236.23546,241.8642 236.18485,241.81779 236.08363,241.72504 235.86672,241.63691 235.53411,241.55341 L 234.18928,241.21943 234.06999,241.08027 234.06999,240.23143 234.17844,240.07836 z M 234.17844,222.82317 C 235.23405,223.02726 236.42707,223.12933 237.75744,223.12929 L 237.86589,223.26845 237.8008,233.385 C 237.8008,235.07342 237.82251,236.26553 237.86589,236.96128 L 237.75744,237.10044 237.45376,237.10044 237.32361,237.03087 C 236.9838,236.34436 236.77051,235.97329 236.68374,235.91763 236.5536,235.83413 236.07278,235.78311 235.24129,235.76456 L 232.81192,235.7228 227.31327,235.7228 C 225.59247,235.7228 224.47176,235.78311 223.95117,235.90372 223.7415,235.95009 223.60775,236.10781 223.5499,236.37686 223.52099,236.51601 223.48485,237.0587 223.44145,238.00493 L 223.33299,238.14409 222.59548,238.14409 222.49789,238.00493 C 222.54127,237.04942 222.56298,235.64861 222.56296,233.80248 222.56298,231.89143 222.54127,230.43958 222.49789,229.44693 L 222.59548,229.30777 223.34382,229.30777 223.44145,229.44693 C 223.48485,230.3932 223.52099,230.93589 223.5499,231.07504 223.60775,231.34409 223.7415,231.50179 223.95117,231.54816 224.47176,231.66877 225.59247,231.72908 227.31327,231.72906 L 233.79886,231.72906 C 234.74602,231.72908 235.66425,231.7059 236.5536,231.65949 L 236.5536,229.76698 C 236.5536,227.05812 236.47045,225.39753 236.30414,224.78523 236.27522,224.68321 236.23546,224.60899 236.18485,224.56258 236.08363,224.46983 235.86672,224.3817 235.53411,224.2982 L 234.18928,223.96422 234.06999,223.82506 234.06999,222.97622 234.17844,222.82317 z M 233.27518,204.84859 C 230.9839,204.79139 229.68023,206.66625 229.45468,210.48394 229.34268,209.75731 229.24783,209.10058 229.08238,208.48396 228.93658,207.95135 228.71109,207.39811 228.39808,206.89846 227.73712,205.85191 226.86981,205.35222 225.84342,205.32655 225.2146,205.31087 224.63531,205.47277 224.14037,205.88726 223.20227,206.67121 222.69042,208.3895 222.6258,210.97696 222.61167,211.5427 222.62636,212.21131 222.63491,213.02819 222.64535,214.05853 222.64137,215.18622 222.60937,216.466 222.55912,218.4785 222.50619,219.92045 222.44218,220.74481 L 222.55974,220.86839 223.28319,220.88645 223.40677,220.76889 C 223.47377,219.82402 223.47533,219.28105 223.5077,219.14268 223.57225,218.87516 223.73097,218.71206 223.94176,218.67094 224.46518,218.56337 225.60204,218.53143 227.32228,218.57439 L 232.80831,218.71138 235.21825,218.8319 C 236.04903,218.87121 236.53407,218.90189 236.66211,218.98861 236.74747,219.04641 236.9741,219.45586 237.29665,220.1506 L 237.41572,220.21389 237.71715,220.22142 237.84073,220.10386 C 237.81358,219.45361 237.82004,218.5163 237.8497,217.3292 L 237.9928,214.01497 C 238.00908,213.65347 238.01352,213.18483 238.02743,212.62839 238.0712,210.87561 237.8746,209.45515 237.4109,208.33001 236.4697,206.05149 235.08942,204.8939 233.27518,204.84859 z M 233.47122,209.07615 C 234.54096,209.10288 235.38691,209.49062 235.97763,210.16424 236.5961,210.88497 236.89936,211.90428 236.86694,213.20264 236.8498,213.88894 236.76732,214.38807 236.70721,214.76708 236.18587,214.79118 235.68039,214.80175 235.13828,214.78821 L 230.13454,214.66326 C 230.12468,214.18971 230.0966,213.76673 230.10586,213.39573 230.17884,210.47441 231.30279,209.022 233.47122,209.07615 z M 226.28211,209.49985 C 226.83147,209.51357 227.30055,209.70164 227.77722,210.01978 228.60248,210.56934 229.00235,211.68852 228.96042,213.36714 228.94444,214.00704 228.94859,214.42018 228.92881,214.63313 L 225.91451,214.55785 C 225.2712,214.5418 224.56401,214.50091 223.806,214.44488 223.76047,213.95191 223.77331,213.33964 223.79087,212.63479 223.84417,210.50176 224.68471,209.45998 226.28211,209.49985 z M 225.2169,184.26195 C 226.63205,185.8627 228.38379,187.63383 230.47213,189.57534 231.65019,190.67009 232.41101,191.28435 232.75459,191.41812 232.93676,191.49062 233.20424,191.54292 233.55704,191.57507 L 234.62634,191.67247 C 236.73608,191.86465 237.91732,191.88841 238.1701,191.74377 238.27763,191.67903 238.35212,191.5787 238.39355,191.44275 238.46497,191.21635 238.56354,190.65243 238.68921,189.75097 L 238.80985,189.62223 239.53351,189.68815 239.62888,189.83657 C 239.50237,190.74728 239.35115,192.16807 239.17525,194.09896 238.99515,196.07605 238.88718,197.50081 238.85127,198.37314 L 238.7427,198.48904 238.00825,198.42214 237.91285,198.27372 C 237.95214,197.36438 237.95708,196.79194 237.92772,196.55637 237.91155,196.41515 237.85642,196.30301 237.76236,196.21992 237.53988,196.03198 236.37379,195.84194 234.26404,195.64973 L 232.98955,195.53364 C 232.71593,195.50872 231.5554,196.13426 229.50793,197.41025 227.42196,198.71071 225.98977,199.76797 225.21136,200.58204 224.83423,200.97617 224.61553,201.24502 224.55524,201.38856 224.495,201.53215 224.44004,201.87646 224.39039,202.42156 L 224.25768,202.56316 223.65283,202.50805 223.54664,202.35865 C 223.40638,200.07295 223.29328,198.60477 223.20731,197.95417 223.4311,197.49016 223.70426,197.08188 224.02676,196.72933 224.69596,195.99848 226.12398,195.06662 228.31088,193.9337 L 231.30602,192.37605 C 230.67163,191.76868 229.39102,190.60404 227.46418,188.88215 L 225.45494,187.14811 C 225.23249,186.96017 224.92551,186.70398 224.53396,186.37953 L 224.71825,184.35628 224.83888,184.22752 225.2169,184.26195 z"
           id="path3867"
           style="font-size:13.03768158px;font-style:normal;font-weight:normal;text-align:center;line-height:125%;text-anchor:middle;fill:#000000;fill-opacity:1;stroke:none;font-family:Bitstream Vera Sans" />
        <path
           d="M 428.93632,195.75514 427.7576,195.26104 C 426.67651,193.42627 425.98188,191.30811 425.67364,188.90653 425.05718,184.10332 425.98381,180.64535 428.45353,178.5326 429.59625,177.55352 430.89554,176.97054 432.35135,176.7837 434.70359,176.48179 436.70764,177.24408 438.36356,179.07052 440.06835,180.93746 441.14868,183.6468 441.60455,187.1986 441.89386,189.45296 441.85758,191.69769 441.49567,193.93275 L 441.35735,194.1329 C 440.32753,193.94703 439.14453,193.90247 437.80839,193.99913 L 437.68487,193.88875 437.58035,193.07439 437.68095,192.92119 C 438.54513,192.78219 439.14106,192.65429 439.46868,192.53742 440.33222,191.25743 440.62466,189.53167 440.34596,187.36013 440.05899,185.12415 439.28178,183.44213 438.01443,182.31409 436.74704,181.18601 435.16671,180.74346 433.27346,180.98646 430.71323,181.31504 428.89351,182.69904 427.81426,185.13841 427.23749,186.43767 427.079,188.0995 427.33881,190.12384 427.57501,191.96413 428.17522,193.71561 429.13946,195.37831 L 428.93632,195.75514 z M 435.27836,197.66693 C 432.80073,197.7753 430.92462,198.76293 429.6132,200.63101 428.30173,202.49911 427.69268,205.02422 427.83128,208.1939 427.978,211.54896 428.84728,214.11619 430.40559,215.98881 432.00965,217.91509 434.13763,218.84371 436.80306,218.72713 439.15787,218.62414 440.96092,217.59791 442.2246,215.71335 443.46785,213.85751 444.02479,211.33006 443.8834,208.09548 443.78448,205.83406 443.4038,203.93277 442.72939,202.41152 441.24428,199.06857 438.75277,197.51496 435.27836,197.66693 z M 436.12817,201.91552 C 437.35613,201.86179 438.46086,202.01316 439.47076,202.43331 441.43871,203.24796 442.48203,205.0367 442.60241,207.78933 442.69359,209.87464 442.12722,211.49697 440.94289,212.63055 439.75851,213.76414 438.10827,214.38429 436.0135,214.47593 434.66995,214.53468 433.46443,214.34593 432.36706,213.91106 430.29755,213.09153 429.23566,211.32219 429.12018,208.6808 429.02493,206.50278 429.60646,204.8659 430.89492,203.71382 432.1417,202.60068 433.89618,202.01312 436.12817,201.91552 z M 443.29706,241.0942 443.18861,240.95505 C 443.18859,239.86034 442.96082,239.24343 442.50532,239.10428 442.25227,239.03006 441.70275,238.97441 440.85681,238.93732 440.22778,238.90945 439.32037,238.89554 438.1346,238.89556 L 434.79421,238.89556 C 432.64681,238.89554 431.11399,238.35285 430.19573,237.26744 428.98105,235.8295 428.37369,233.77929 428.37369,231.11682 428.37369,228.68624 428.68823,226.78909 429.31727,225.42537 429.85231,224.27503 430.61148,223.52358 431.59481,223.17107 432.22383,222.94841 433.86513,222.83709 436.51864,222.83711 L 439.31677,222.83711 C 441.03757,222.83709 442.15825,222.7768 442.67885,222.65621 442.88851,222.60982 443.02226,222.4521 443.08014,222.18307 443.10905,222.04392 443.14519,221.50119 443.18861,220.55496 L 443.29706,220.4158 444.02369,220.4158 444.13214,220.55496 C 444.08874,221.44556 444.06707,222.8742 444.06707,224.84093 444.06707,226.84477 444.08874,228.26877 444.13214,229.11298 L 444.02369,229.25214 443.29706,229.25214 443.18861,229.11298 C 443.14519,228.16673 443.10905,227.624 443.08014,227.48487 443.02226,227.21584 442.88851,227.05812 442.67885,227.01173 442.15825,226.89114 441.03757,226.83083 439.31677,226.83083 L 437.08261,226.83083 C 434.34955,226.83083 432.67572,226.98855 432.06115,227.30397 430.84647,227.93479 430.23913,229.48871 430.23913,231.96567 430.23913,233.58911 430.55004,234.85542 431.17184,235.76458 431.46827,236.19131 431.76833,236.48817 432.07202,236.65517 432.37568,236.82213 432.84565,236.95202 433.48191,237.0448 434.07479,237.12828 434.67491,237.17003 435.28226,237.17004 L 437.53811,237.17004 C 439.43243,237.17003 440.72666,237.16074 441.42078,237.14222 442.07149,237.12363 442.49448,237.06798 442.68971,236.97524 442.83429,236.901 442.94637,236.73865 443.02591,236.4882 443.09096,236.27481 443.14519,235.70428 443.18861,234.77659 L 443.29706,234.63743 444.02369,234.63743 444.13214,234.77659 C 444.08874,235.58365 444.06707,236.41397 444.06707,237.26744 444.06707,237.90756 444.08874,239.13676 444.13214,240.95505 L 444.02369,241.0942 443.29706,241.0942 z M 443.01348,264.71159 442.90663,264.55738 C 442.87309,263.6107 442.8426,263.06765 442.81514,262.92822 442.76009,262.6586 442.62798,262.49951 442.41881,262.45094 441.89951,262.3249 440.77952,262.25292 439.0588,262.235 L 434.65581,262.18907 C 431.40955,262.1552 429.29417,262.19341 428.30966,262.30377 L 428.21395,262.12187 C 428.36225,261.07504 428.46814,260.28291 428.53157,259.74549 430.73371,257.2821 434.7472,253.07952 440.57201,247.13774 L 433.47948,247.06377 C 431.75878,247.04582 430.63751,247.09442 430.11569,247.20958 429.90556,247.25379 429.77014,247.41007 429.70949,247.6785 429.67912,247.81734 429.63732,248.35964 429.58408,249.3054 L 429.47418,249.44341 428.73672,249.43571 428.64056,249.29555 C 428.69508,248.22921 428.72711,247.23683 428.7367,246.31848 428.74782,245.25167 428.73732,244.18004 428.70515,243.10351 L 428.8042,242.96537 429.54166,242.97307 429.64867,243.11335 C 429.68217,244.05999 429.71266,244.60302 429.74012,244.74249 429.79515,245.01211 429.92726,245.17122 430.13645,245.21977 430.65575,245.34579 431.77576,245.41779 433.49647,245.43573 L 439.2334,245.49557 C 440.95411,245.51352 442.07537,245.46489 442.59718,245.34974 442.80733,245.30555 442.94272,245.14924 443.00339,244.88083 443.03375,244.74197 443.07555,244.19968 443.12884,243.25395 L 443.23874,243.11593 443.97616,243.12363 444.07232,243.26379 C 444.01974,244.14459 443.9893,244.9839 443.98099,245.78166 443.96792,247.034 443.97875,248.07319 444.01354,248.89924 440.50835,252.20258 436.74762,256.08772 432.73139,260.5547 L 439.07564,260.62089 C 440.79635,260.6388 441.91759,260.59019 442.43942,260.47504 442.64957,260.43085 442.78494,260.27454 442.84563,260.00613 442.87599,259.86726 442.91779,259.32496 442.97107,258.37925 L 443.08097,258.24125 443.8184,258.24893 443.91456,258.38909 C 443.86032,259.42757 443.82834,260.41529 443.81858,261.35225 443.80609,262.54889 443.81653,263.62519 443.84998,264.58116 L 443.75092,264.71929 443.01348,264.71159 z M 442.36235,284.0382 C 441.83589,283.89146 441.28801,283.79447 440.71871,283.74719 L 438.91343,283.59883 438.81445,283.45275 438.87284,282.57803 438.98041,282.43177 C 439.90692,282.44711 440.45138,282.43229 440.61381,282.38737 440.9098,282.29557 441.09909,282.01066 441.18174,281.53273 441.21572,281.349 441.28462,280.47963 441.38838,278.92459 L 441.51256,277.06406 C 441.26128,277.02866 440.25912,276.95246 438.50609,276.83548 L 432.35953,276.42529 C 430.64255,276.3107 429.52032,276.29624 428.99286,276.38191 428.78057,276.41423 428.63659,276.56267 428.56096,276.82727 428.52283,276.96417 428.45063,277.50327 428.34434,278.44455 L 428.22686,278.57617 427.50183,278.52779 427.40287,278.38173 C 427.50733,277.4682 427.62408,276.04416 427.7532,274.10958 427.88539,272.12872 427.95889,270.70178 427.97368,269.8288 L 428.07941,269.71033 428.81526,269.75944 428.91422,269.90551 C 428.89448,270.85256 428.8944,271.39646 428.91401,271.53723 428.9538,271.80952 429.07678,271.97577 429.28288,272.03604 429.79429,272.19103 430.90849,272.32581 432.62547,272.44044 L 438.77201,272.85063 C 440.55391,272.96952 441.55764,273.02259 441.78313,273.00973 L 441.91563,271.02423 C 442.0262,269.36734 442.05108,268.3974 441.99027,268.11442 441.95686,267.96342 441.90953,267.858 441.84835,267.79812 441.73847,267.70711 441.51223,267.6223 441.16968,267.54362 440.79164,267.45329 440.40123,267.38544 439.99849,267.33995 L 439.89953,267.19389 439.95789,266.31915 440.07634,266.17363 441.92863,266.26938 C 442.44866,266.29476 442.98984,266.27511 443.55214,266.21037 L 443.652,266.34254 C 443.5434,266.88388 443.37454,268.87156 443.14534,272.3057 L 442.77006,277.92897 C 442.55879,281.09464 442.46204,283.08715 442.47983,283.90657 L 442.36235,284.0382 z M 438.80663,304.79782 C 437.53755,303.07895 435.94814,301.16081 434.03846,299.04335 432.96105,297.84935 432.25716,297.17061 431.92665,297.00724 431.75158,296.91901 431.48969,296.84338 431.14106,296.7804 L 430.08448,296.58945 C 427.99979,296.21268 426.82518,296.08526 426.56069,296.20716 426.44788,296.26216 426.36488,296.35558 426.31165,296.4874 426.22063,296.7066 426.07289,297.25967 425.86852,298.14665 L 425.73705,298.26428 425.02198,298.13507 424.94,297.97883 C 425.14602,297.08277 425.42144,295.68074 425.76627,293.77277 426.11932,291.81913 426.35204,290.40938 426.46445,289.54354 L 426.58276,289.43767 427.30851,289.56882 427.39048,289.72505 C 427.2715,290.62741 427.21629,291.19721 427.22483,291.43441 427.22856,291.5765 427.27362,291.69308 427.36003,291.7841 427.56513,291.99086 428.71003,292.28262 430.79473,292.65938 L 432.05411,292.88698 C 432.32447,292.93584 433.53547,292.41463 435.68709,291.32341 437.87923,290.2112 439.39874,289.28383 440.24565,288.54132 440.65594,288.18181 440.89741,287.93318 440.97008,287.79549 441.04272,287.6578 441.12771,287.31959 441.22506,286.78102 L 441.36966,286.65159 441.96732,286.75962 442.05999,286.91776 C 441.99895,289.20697 441.98265,290.67941 442.01111,291.33503 441.74745,291.77758 441.4395,292.16029 441.08726,292.48316 440.35646,293.1524 438.8521,293.95523 436.57418,294.89167 L 433.45376,296.1802 C 434.03234,296.84099 435.20571,298.11359 436.97385,299.99809 L 438.823,301.90189 C 439.02809,302.10861 439.3114,302.3908 439.67294,302.7484 L 439.31163,304.74769 439.18016,304.86532 438.80663,304.79782 z"
           id="path3888"
           style="font-size:13.03768158px;font-style:normal;font-weight:normal;text-align:center;line-height:125%;text-anchor:middle;fill:#000000;fill-opacity:1;stroke:none;font-family:Bitstream Vera Sans" />
        <path
           d="M 267.21404,330.5984 C 266.85292,331.0086 266.52729,331.45976 266.2371,331.95181 L 265.31824,333.51287 265.14366,333.53842 264.3814,333.10538 264.29653,332.9449 C 264.71334,332.11731 264.93685,331.62063 264.96705,331.4548 265.01307,331.14834 264.83887,330.85395 264.44447,330.57167 264.29383,330.46119 263.54098,330.02099 262.18588,329.2511 L 260.5646,328.33002 C 260.42344,328.54091 259.91892,329.41017 259.05105,330.9378 L 256.00813,336.29403 C 255.15811,337.79023 254.65698,338.79442 254.50468,339.30665 254.44144,339.51186 254.51248,339.70607 254.71782,339.88925 254.82454,339.98315 255.27853,340.28265 256.07988,340.7878 L 256.14729,340.95082 255.78835,341.58265 255.61379,341.60822 C 254.83667,341.11678 253.6052,340.39226 251.91938,339.4345 250.1932,338.45384 248.94028,337.767 248.16064,337.37398 L 248.09999,337.22724 248.46427,336.58601 248.63882,336.56046 C 249.48299,336.99013 249.97272,337.22676 250.10804,337.27037 250.3705,337.35295 250.57371,337.31455 250.71761,337.15515 251.07961,336.7621 251.68563,335.81748 252.53565,334.32126 L 255.57859,328.96505 C 256.46072,327.41227 256.94505,326.53155 257.03158,326.32288 L 255.30142,325.33994 C 253.85756,324.5197 252.99499,324.07541 252.71371,324.00706 252.56325,323.97148 252.44771,323.96822 252.36717,323.9973 252.23745,324.05664 252.06265,324.22346 251.84283,324.49772 251.59708,324.79884 251.3661,325.12084 251.14997,325.4637 L 250.97544,325.48927 250.21317,325.05621 250.13365,324.88632 251.02554,323.26005 C 251.27463,322.80284 251.49231,322.307 251.67859,321.7725 L 251.84104,321.74006 C 252.28123,322.07333 253.99762,323.08998 256.99017,324.79008 L 261.89038,327.57395 C 264.64898,329.14116 266.40107,330.09498 267.14663,330.43535 L 267.21404,330.5984 z M 281.91374,345.43529 C 281.49373,346.42506 281.14487,347.57045 280.86714,348.87151 L 280.70842,348.94853 270.82837,346.77286 C 269.17718,346.42035 268.00682,346.19268 267.31732,346.08988 L 267.20389,345.95476 267.2673,345.65777 267.36249,345.54503 C 268.10479,345.356 268.51224,345.22489 268.5848,345.15167 268.69512,345.03473 268.84539,344.57514 269.03561,343.77296 L 269.58364,341.40582 270.73162,336.02832 C 271.09086,334.34546 271.26581,333.23685 271.25659,332.70258 271.25499,332.48784 271.1287,332.32408 270.87762,332.21132 270.74759,332.15401 270.2244,332.00536 269.30803,331.76536 L 269.1946,331.63026 269.34856,330.90903 269.50502,330.84261 C 270.41232,331.08068 271.82312,331.40401 273.73742,331.81264 275.44306,332.17678 278.69101,332.84795 283.48134,333.82618 L 283.61291,333.94299 283.18468,335.08255 C 283.05022,335.44571 282.94146,335.75519 282.85842,336.011 L 282.55257,336.97705 282.39159,337.06468 281.60226,336.89617 281.48883,336.76107 C 281.68503,335.79751 281.72945,335.234 281.62204,335.07057 281.54337,334.95029 281.07231,334.76841 280.2089,334.52495 279.34547,334.28147 278.5826,334.08905 277.92033,333.94768 277.13098,333.77917 276.32733,333.6335 275.50931,333.51059 275.25099,334.23176 274.98146,335.24992 274.7007,336.56513 L 274.232,338.76067 C 274.94123,338.94903 275.51809,339.09066 275.96265,339.18556 L 277.74767,339.55551 C 278.58385,339.72665 279.06693,339.77431 279.19694,339.69857 279.36926,339.60227 279.56641,339.14533 279.78841,338.32767 L 279.94713,338.25065 280.7909,338.43079 280.90433,338.5659 C 280.69896,339.35013 280.52611,340.07101 280.38572,340.72861 280.23327,341.4428 280.08461,342.22801 279.93978,343.08425 L 279.78333,343.15067 278.8715,342.95603 278.75807,342.82093 C 278.93163,342.00775 278.96209,341.50966 278.84941,341.32666 278.73667,341.14367 278.31816,340.94895 277.59387,340.74258 277.04794,340.58907 276.46203,340.4455 275.83603,340.31188 275.17374,340.17049 274.55304,340.05648 273.97388,339.96981 L 273.28331,343.20476 C 273.08557,344.13106 272.91654,345.03394 272.77627,345.91333 L 274.62706,346.30845 C 277.27625,346.87398 278.91759,347.13936 279.55112,347.10453 279.65693,347.09754 279.73783,347.07417 279.79373,347.03434 279.90562,346.95472 280.03708,346.76099 280.18819,346.45318 L 280.79557,345.20767 280.95655,345.12006 281.78667,345.29729 281.91374,345.43529 z M 307.43925,336.29907 307.27987,336.39803 C 306.33271,336.38388 305.78879,336.38701 305.64817,336.40743 305.37609,336.44884 305.21054,336.57279 305.15154,336.77925 304.99954,337.29154 304.8713,338.40652 304.76683,340.12414 L 304.49948,344.51927 C 304.30234,347.75968 304.23408,349.87431 304.29479,350.86312 L 304.1083,350.94959 C 303.07026,350.74882 302.28449,350.60322 301.75093,350.51283 299.40141,348.18953 295.40604,343.96974 289.76482,337.85335 L 289.33414,344.93321 C 289.22966,346.65082 289.22179,347.77311 289.31056,348.30005 289.34414,348.51215 289.4934,348.65526 289.75844,348.72933 289.89558,348.76665 290.43509,348.83569 291.37696,348.93645 L 291.50929,349.05316 291.4645,349.78926 291.31967,349.87826 C 290.25741,349.77016 289.26793,349.68824 288.35122,349.63247 287.28632,349.56769 286.21548,349.52429 285.13871,349.50225 L 285.00575,349.39637 285.05053,348.66024 285.19601,348.56045 C 286.14313,348.5746 286.68704,348.57145 286.82772,348.55104 287.09973,348.50964 287.26529,348.38569 287.32432,348.17923 287.47631,347.66692 287.60454,346.55196 287.70903,344.83434 L 288.05739,339.10766 C 288.16189,337.39006 288.16974,336.26775 288.08098,335.74081 288.0474,335.52871 287.89809,335.3856 287.6331,335.31152 287.49593,335.27421 286.95643,335.20519 286.01457,335.10442 L 285.88227,334.9877 285.92704,334.25158 286.07187,334.1626 C 286.9489,334.25943 287.78561,334.33205 288.58194,334.38049 289.83206,334.45654 290.87048,334.49799 291.69722,334.5048 294.82005,338.17176 298.51106,342.12313 302.77036,346.35901 L 303.15562,340.02612 C 303.26007,338.30851 303.26795,337.18622 303.17918,336.65926 303.14562,336.44716 302.99631,336.30407 302.73132,336.22998 302.59415,336.19268 302.05463,336.12364 301.1128,336.02286 L 300.98047,335.90617 301.02526,335.17003 301.17009,335.08107 C 302.20454,335.18747 303.18939,335.2691 304.12466,335.32599 305.31916,335.39866 306.39462,335.44235 307.35104,335.45706 L 307.48402,335.56294 307.43925,336.29907 z M 331.23247,336.47418 331.07941,336.58263 C 330.13313,336.62603 329.59042,336.66217 329.45129,336.69108 329.18224,336.74893 329.02454,336.88271 328.97817,337.09237 328.85754,337.61296 328.79724,338.73367 328.79728,340.45445 L 328.79728,344.85771 C 328.79724,348.10412 328.85754,350.21898 328.97817,351.20229 L 328.79728,351.29992 C 327.74893,351.16254 326.95577,351.06493 326.41771,351.00709 323.93145,348.83075 319.68726,344.86134 313.68504,339.09878 L 313.68504,346.19172 C 313.68504,347.91252 313.74535,349.0332 313.86596,349.5538 313.91233,349.76346 314.07005,349.89723 314.33908,349.95507 314.47821,349.984 315.02094,350.02016 315.96717,350.06354 L 316.10635,350.17199 316.10635,350.90947 315.96717,351.00709 C 314.90033,350.96369 313.9077,350.942 312.98927,350.942 311.9224,350.942 310.85093,350.96369 309.7748,351.00709 L 309.63564,350.90947 309.63564,350.17199 309.7748,350.06354 C 310.72105,350.02016 311.26376,349.984 311.40291,349.95507 311.67192,349.89723 311.82964,349.76346 311.87603,349.5538 311.99664,349.0332 312.05693,347.91252 312.05693,346.19172 L 312.05693,340.45445 C 312.05693,338.73367 311.99664,337.61296 311.87603,337.09237 311.82964,336.88271 311.67192,336.74893 311.40291,336.69108 311.26376,336.66217 310.72105,336.62603 309.7748,336.58263 L 309.63564,336.47418 309.63564,335.73668 309.7748,335.63907 C 310.6561,335.68247 311.49568,335.70416 312.29352,335.70415 313.54589,335.70416 314.58491,335.68247 315.41055,335.63907 318.75027,339.10964 322.67445,342.82962 327.18307,346.79905 L 327.18307,340.45445 C 327.18305,338.73367 327.12275,337.61296 327.00218,337.09237 326.95577,336.88271 326.79805,336.74893 326.52904,336.69108 326.38987,336.66217 325.84718,336.62603 324.90092,336.58263 L 324.76177,336.47418 324.76177,335.73668 324.90092,335.63907 C 325.93994,335.68247 326.92794,335.70416 327.86491,335.70415 329.06163,335.70416 330.13776,335.68247 331.09332,335.63907 L 331.23247,335.73668 331.23247,336.47418 z M 348.39025,347.31964 C 348.18616,348.37525 348.08409,349.56825 348.08411,350.89864 L 347.94498,351.00709 337.82842,350.942 C 336.14,350.942 334.94789,350.96369 334.25214,351.00709 L 334.11298,350.89864 334.11298,350.59496 334.18255,350.46481 C 334.86904,350.12498 335.24013,349.91169 335.29581,349.82495 335.37929,349.68755 335.43029,349.20673 335.44886,348.38249 L 335.49062,345.9531 335.49062,340.45445 C 335.49062,338.73367 335.43029,337.61296 335.3097,337.09237 335.26331,336.88271 335.10561,336.74893 334.83658,336.69108 334.69741,336.66217 334.15472,336.62603 333.20847,336.58263 L 333.06933,336.47418 333.06933,335.73668 333.20847,335.63907 C 334.14544,335.68247 335.59264,335.70416 337.55011,335.70415 339.29417,335.70416 342.61068,335.68247 347.49968,335.63907 L 347.65273,335.72584 347.47184,336.92969 C 347.41616,337.31291 347.3744,337.63828 347.3466,337.90578 L 347.2492,338.91439 347.11005,339.03371 346.30295,339.03371 346.16377,338.92526 C 346.15449,337.94195 346.08027,337.38161 345.94114,337.24421 345.83909,337.14299 345.34044,337.06347 344.44523,337.00561 343.54997,336.94778 342.76375,336.91887 342.08654,336.91885 341.27942,336.91887 340.46306,336.94417 339.63741,336.99477 339.53537,337.75395 339.48434,338.80596 339.48436,340.15079 L 339.48436,342.39581 C 340.21723,342.43195 340.81095,342.45003 341.26553,342.45003 L 343.08847,342.43917 C 343.94193,342.43195 344.42433,342.37773 344.53567,342.27649 344.68407,342.14635 344.78151,341.65831 344.8279,340.81235 L 344.96705,340.70389 345.82981,340.70389 345.96896,340.81235 C 345.93185,341.62217 345.91329,342.36325 345.91331,343.03568 345.91329,343.76595 345.93185,344.56489 345.96896,345.43251 L 345.82981,345.53014 344.89747,345.53014 344.75831,345.42168 C 344.75831,344.59021 344.68407,344.09673 344.53567,343.94127 344.38724,343.78583 343.9373,343.6828 343.18587,343.63218 342.61997,343.59604 342.01698,343.57796 341.37686,343.57796 340.69963,343.57796 340.06879,343.59604 339.48436,343.63218 L 339.48436,346.94004 C 339.48434,347.88722 339.50752,348.80545 339.55393,349.69478 L 341.44642,349.69478 C 344.15532,349.69478 345.81589,349.61165 346.42819,349.44532 346.53021,349.41642 346.60443,349.37666 346.65084,349.32605 346.74359,349.22481 346.83172,349.00791 346.91522,348.67531 L 347.2492,347.33046 347.38836,347.21119 348.2372,347.21119 348.39025,347.31964 z M 366.04955,345.41202 C 366.12299,346.60277 365.75258,347.67963 364.93831,348.6426 364.22845,349.49048 363.26983,350.14727 362.06236,350.61294 360.95497,351.04347 359.61884,351.30702 358.05404,351.40356 356.10954,351.52354 354.18075,351.29482 352.26763,350.71742 L 352.08625,350.48957 C 352.29432,349.64366 352.35115,348.45576 352.25675,346.92585 L 352.38899,346.80904 353.27786,346.7542 353.40956,346.85472 353.42492,347.1037 C 353.44986,347.50783 353.53836,348.03843 353.69044,348.6955 354.05225,349.13679 354.67398,349.49685 355.55559,349.77568 356.47512,350.06667 357.42101,350.18214 358.39322,350.12217 360.22658,350.00904 361.46439,349.43284 362.10667,348.39355 362.43617,347.85887 362.58397,347.31734 362.55016,346.76887 362.49314,345.84515 361.95705,345.21537 360.94181,344.8796 360.43903,344.71503 359.63735,344.60152 358.53673,344.53903 356.04623,344.39569 354.39827,344.12431 353.59287,343.72483 352.37508,343.11906 351.72232,342.1053 351.63459,340.68363 351.54332,339.20426 352.10943,337.98492 353.33291,337.02564 354.62776,336.01854 356.47892,335.44069 358.88639,335.29214 361.05308,335.15847 362.81977,335.32113 364.18652,335.7801 L 364.2998,336.0339 C 364.13052,336.90638 364.05995,337.94664 364.08803,339.15467 L 363.9419,339.27234 363.06689,339.32632 362.92133,339.22665 C 362.84011,338.36237 362.75908,337.80235 362.67824,337.54652 362.37027,337.22508 361.85244,336.96727 361.12481,336.7731 360.3504,336.5746 359.55113,336.50075 358.72707,336.55158 357.48631,336.62815 356.52062,336.9449 355.83,337.50181 355.1839,338.02705 354.88444,338.67213 354.93164,339.43707 354.98284,340.267 355.40474,340.85308 356.19731,341.19534 356.71288,341.41709 357.90839,341.586 359.78376,341.7021 359.97954,341.71177 360.52566,341.7505 361.42214,341.81833 361.9729,341.85683 362.48399,341.93031 362.95541,342.03886 363.90752,342.25538 364.63706,342.63054 365.14403,343.16427 365.69113,343.74627 365.99298,344.49552 366.04955,345.41202 L 366.04955,345.41202 z M 383.54979,344.2184 C 383.65097,345.40712 383.30576,346.49231 382.51415,347.474 381.82424,348.3382 380.88115,349.01715 379.6849,349.51082 378.58783,349.96703 377.25821,350.26163 375.69605,350.39463 373.75491,350.55985 371.82129,350.37614 369.89524,349.84347 L 369.70861,349.61991 C 369.89692,348.76939 369.92606,347.58048 369.79603,346.05318 L 369.9255,345.93332 370.81288,345.85779 370.94686,345.95522 370.96801,346.20376 C 371.00236,346.60721 371.10319,347.1356 371.27054,347.78896 371.64256,348.22168 372.27251,348.56717 373.16035,348.82539 374.08642,349.09488 375.03472,349.18828 376.00533,349.10565 377.83553,348.94986 379.05958,348.34498 379.67749,347.29098 379.99443,346.7488 380.12961,346.20395 380.08299,345.65644 380.0045,344.73427 379.45383,344.11717 378.43106,343.80515 377.92461,343.65233 377.12046,343.55752 376.01869,343.5207 373.52552,343.43543 371.87168,343.2025 371.05721,342.82192 369.82564,342.24467 369.14943,341.24641 369.02861,339.82717 368.9029,338.35032 369.44044,337.11812 370.64123,336.1306 371.91228,335.09359 373.74947,334.47277 376.1528,334.26817 378.31579,334.08406 380.08582,334.20552 381.4629,334.63251 L 381.58204,334.88361 C 381.43316,335.7598 381.38683,336.8014 381.44302,338.00847 L 381.29972,338.1295 380.42621,338.20386 380.27835,338.1076 C 380.17702,337.24546 380.08297,336.68747 379.99619,336.43359 379.68079,336.11941 379.15713,335.87373 378.42513,335.69658 377.64628,335.51617 376.84555,335.46096 376.02289,335.53097 374.78422,335.63643 373.82617,335.9756 373.14875,336.54845 372.51504,337.08859 372.23073,337.74048 372.29572,338.50413 372.36626,339.33261 372.80165,339.90872 373.60201,340.23243 374.12264,340.4421 375.32172,340.58313 377.19931,340.65548 377.39526,340.66059 377.94211,340.68658 378.83993,340.73352 379.39144,340.75916 379.9041,340.82072 380.37795,340.91825 381.33484,341.11254 382.07291,341.47059 382.59219,341.99237 383.15269,342.56146 383.47189,343.30349 383.54979,344.2184 L 383.54979,344.2184 z M 402.87235,340.84384 C 402.95081,341.91615 403.16367,343.09442 403.51089,344.37871 L 403.40485,344.51972 393.62195,347.0972 C 391.99207,347.53786 390.84694,347.86993 390.18661,348.09341 L 390.02397,348.02502 389.94472,347.73187 389.97793,347.58807 C 390.55191,347.08087 390.85446,346.77811 390.88555,346.67985 390.93028,346.52543 390.85408,346.04795 390.65687,345.24743 L 390.06311,342.89135 388.62801,337.58328 C 388.17891,335.92213 387.82822,334.856 387.57594,334.38492 387.4764,334.19463 387.28928,334.10665 387.01446,334.12103 386.87258,334.12944 386.33926,334.2362 385.41448,334.44125 L 385.25184,334.37288 385.05935,333.66094 385.1682,333.53041 C 386.08407,333.32775 387.48677,332.97099 389.37636,332.46009 391.06,332.00494 394.25591,331.11841 398.96409,329.80054 L 399.13453,329.84434 399.27409,331.0537 C 399.32034,331.43817 399.36498,331.76316 399.40792,332.02865 L 399.57713,333.02771 399.47395,333.17921 398.69481,333.38987 398.53219,333.32147 C 398.2666,332.37468 398.04869,331.85312 397.87851,331.75681 397.75357,331.68574 397.25147,331.73911 396.37218,331.9169 395.49288,332.09471 394.72635,332.27202 394.0726,332.44874 393.29348,332.65939 392.51199,332.89689 391.72818,333.16121 391.82779,333.92072 392.05309,334.94959 392.4041,336.24782 L 392.99001,338.41503 C 393.70693,338.25864 394.28482,338.12113 394.72364,338.00249 L 396.48055,337.51624 C 397.30255,337.28653 397.75409,337.10827 397.83512,336.98149 397.94445,336.81713 397.9111,336.32059 397.73512,335.49181 L 397.84113,335.35081 398.67399,335.12564 398.83661,335.19401 C 399.01216,335.98546 399.18765,336.70571 399.36316,337.35482 399.55375,338.05978 399.78017,338.82618 400.04244,339.65405 L 399.93358,339.78462 399.03358,340.02794 398.87094,339.95957 C 398.65392,339.15692 398.45348,338.69992 398.26963,338.58857 398.08576,338.47726 397.62453,338.49523 396.88594,338.64249 396.3302,338.75528 395.74338,338.89521 395.12548,339.06227 394.47173,339.23902 393.86745,339.42113 393.3127,339.60854 L 394.17602,342.80175 C 394.42322,343.71611 394.68526,344.59646 394.96214,345.44285 L 396.78906,344.94893 C 399.40404,344.24195 400.98539,343.7283 401.53302,343.40795 401.62399,343.35341 401.68526,343.29565 401.71683,343.23469 401.77995,343.11275 401.80844,342.88037 401.80226,342.53749 L 401.77364,341.1521 401.87685,341.00063 402.69628,340.7791 402.87235,340.84384 z M 421.32798,331.31142 C 421.68033,332.32721 422.18987,333.41075 422.85656,334.56202 L 422.79048,334.7256 414.00322,339.73888 C 412.54211,340.58498 411.52136,341.20113 410.94101,341.58736 L 410.76623,341.56323 410.61405,341.30044 410.60903,341.15295 C 411.03283,340.51484 411.24707,340.1443 411.25178,340.04135 411.25517,339.8806 411.05838,339.43896 410.66139,338.71636 L 409.48011,336.59311 406.72463,331.83469 C 405.86231,330.34558 405.24852,329.40596 404.88327,329.01588 404.73806,328.85768 404.53454,328.82095 404.27275,328.90569 404.13783,328.95042 403.6501,329.1911 402.80948,329.62773 L 402.6347,329.60361 402.26513,328.9654 402.33665,328.81119 C 403.1692,328.37923 404.43248,327.67277 406.1264,326.69183 407.63566,325.81787 410.49485,324.13713 414.70394,321.64959 L 414.87987,321.64797 415.32659,322.78043 C 415.47044,323.13994 415.59736,323.44245 415.70735,323.68786 L 416.1285,324.60951 416.06787,324.7825 415.36943,325.18695 415.19465,325.16283 C 414.69384,324.31656 414.34884,323.86883 414.15957,323.81966 414.02053,323.78321 413.54915,323.96428 412.74549,324.36281 411.94178,324.76138 411.24691,325.13037 410.66085,325.46972 409.96241,325.87418 409.2686,326.30519 408.57945,326.76271 408.87161,327.47084 409.35461,328.40679 410.02856,329.57057 L 411.15357,331.51337 C 411.80589,331.17738 412.32875,330.8955 412.72213,330.66771 L 414.29423,329.74481 C 415.02916,329.31086 415.41947,329.02219 415.46509,328.87879 415.52831,328.6918 415.36804,328.22065 414.98425,327.46532 L 415.05033,327.30173 415.79695,326.86939 415.97173,326.89349 C 416.34541,327.61291 416.70073,328.26353 417.03771,328.8454 417.40365,329.47738 417.82007,330.15947 418.28697,330.8917 L 418.21548,331.04591 417.40865,331.51312 417.23389,331.489 C 416.81721,330.76947 416.50569,330.37962 416.29934,330.31945 416.09298,330.25934 415.65199,330.39566 414.97636,330.72838 414.46853,330.9807 413.93765,331.26723 413.38369,331.58801 412.79765,331.92738 412.26081,332.25914 411.77314,332.5833 L 413.43078,335.44585 C 413.9054,336.26553 414.38562,337.04851 414.87146,337.79486 L 416.50917,336.8465 C 418.85338,335.48904 420.24874,334.58494 420.69525,334.13417 420.76908,334.05802 420.81337,333.98645 420.82817,333.91937 420.8577,333.78529 420.82526,333.55343 420.73086,333.22377 L 420.34595,331.89261 420.4066,331.71964 421.14116,331.29427 421.32798,331.31142 z"
           id="path3915"
           style="font-size:13.03768158px;font-style:normal;font-weight:normal;text-align:center;line-height:125%;text-anchor:middle;fill:#000000;fill-opacity:1;stroke:none;font-family:Bitstream Vera Sans" />
        <g
           transform="matrix(1.9297565,0,0,1.9297565,-395.05171,-480.26935)"
           id="g4540">
          <path
             d="M 368.1875,335.375 C 367.58831,335.84073 368.01641,336.06726 368.1875,336.375 369.13154,338.07289 369.5263,339.62849 368.65625,340.96875 368.4017,341.36088 368.33404,341.59997 368.65625,341.90625 L 372.59375,341.90625 C 372.91594,341.59998 372.84828,341.36087 372.59375,340.96875 371.72369,339.6285 372.2122,338.07288 373.15625,336.375 373.32734,336.06727 373.75544,335.84075 373.15625,335.375 L 368.1875,335.375 z M 368.65625,342.78125 368.65625,344.125 372.6875,344.125 372.6875,342.78125 368.65625,342.78125 z M 369.15625,345.125 369.15625,369.40625 C 370.89086,369.56789 371.76212,369.53124 374.8125,369.53125 L 387.21875,369.5625 C 388.30077,368.50712 390.01841,367.35854 391.5625,366.9375 L 372.1875,366.9375 372.1875,366.28125 377.8125,366.28125 377.8125,364.9375 379.125,364.9375 379.125,366.28125 404.625,366.28125 404.625,365 381.65625,365 381.65625,362.84375 375.28125,362.84375 375.28125,365 372.1875,365 372.1875,345.125 369.15625,345.125 z M 374.5,358.15625 374.5,359.59375 382.375,359.59375 382.375,358.15625 374.5,358.15625 z M 375.28125,360.40625 375.28125,361.875 377.84375,361.875 377.84375,360.40625 375.28125,360.40625 z M 379.09375,360.40625 379.09375,361.875 381.65625,361.875 381.65625,360.40625 379.09375,360.40625 z M 397.21875,366.9375 C 398.76948,367.36018 400.51454,368.52942 401.5,369.53125 L 404.625,369.5625 404.625,366.9375 397.21875,366.9375 z M 394.40625,367.625 C 391.90841,367.62499 389.81539,368.57182 388.15625,370.125 L 374.8125,370.125 C 365.3047,370.12499 355.59709,369.4012 350.375,368.3125 L 350.34375,370.3125 C 355.88038,371.46677 365.19527,372.1875 374.8125,372.1875 L 386.59375,372.1875 C 386.43638,372.45415 386.30435,372.7231 386.1875,373 L 385.375,373 385.375,375 385.625,375 C 385.56986,375.34146 385.53062,375.68261 385.5,376.03125 L 385.375,376.03125 385.375,377.96875 385.59375,377.96875 C 385.63642,378.24377 385.67865,378.51469 385.75,378.78125 L 370.8125,378.78125 C 357.60628,378.78126 345.59854,378.30206 337.375,375.65625 337.92028,377.80083 339.40017,379.77568 342.09375,381.5 L 386.9375,381.5 C 388.59168,383.91572 391.18574,385.50001 394.40625,385.5 397.6262,385.50002 400.17969,383.91502 401.84375,381.5 L 414.78125,381.5 C 415.80001,380.69048 416.35984,379.8471 416.5,378.78125 L 403.0625,378.78125 403.21875,377.96875 403.875,377.96875 403.875,376.03125 403.3125,376.03125 403.1875,375 403.875,375 403.875,373 402.59375,373 402.1875,372.1875 415.4375,372.1875 415.4375,370.125 400.625,370.125 C 398.95652,368.57396 396.9021,367.62499 394.40625,367.625 z M 350.5625,371.1875 350.5625,373.6875 C 351.43403,373.80392 352.39968,373.89614 353.40625,374 L 353.40625,371.625 C 352.40814,371.48297 351.4375,371.34516 350.5625,371.1875 z M 354.46875,371.75 354.46875,374.125 C 355.33748,374.20722 356.3086,374.3028 357.25,374.375 L 357.25,372.125 C 356.27904,372.02114 355.36654,371.86799 354.46875,371.75 z M 358.3125,372.21875 358.3125,374.4375 C 359.26222,374.50468 360.15367,374.5687 361.15625,374.625 L 361.15625,372.46875 C 360.19296,372.39207 359.22849,372.30924 358.3125,372.21875 z M 362.1875,372.53125 362.1875,374.65625 C 363.10875,374.70384 364.04871,374.7435 365,374.78125 L 365,372.71875 C 364.04873,372.66506 363.10877,372.59869 362.1875,372.53125 z M 366.0625,372.78125 366.0625,374.84375 C 366.996,374.87672 367.89396,374.88343 368.84375,374.90625 L 368.84375,372.90625 C 367.90067,372.87373 366.98849,372.82789 366.0625,372.78125 z M 369.9375,372.9375 369.9375,374.9375 C 370.87621,374.95614 371.8069,374.96069 372.75,374.96875 L 372.75,372.96875 C 371.80292,372.95715 370.87808,372.96428 369.9375,372.9375 z M 373.78125,373 373.78125,375 C 374.125,375.0015 374.46932,375.00001 374.8125,375 L 376.59375,375 376.59375,373 374.8125,373 C 374.46887,373.00001 374.12505,373.00214 373.78125,373 z M 377.65625,373 377.65625,375 380.5,375 380.5,373 377.65625,373 z M 381.53125,373 381.53125,375 384.34375,375 384.34375,373 381.53125,373 z M 404.90625,373 404.90625,375 407.71875,375 407.71875,373 404.90625,373 z M 408.78125,373 408.78125,375 411.59375,375 411.59375,373 408.78125,373 z M 412.65625,373 412.65625,375 415.4375,375 415.4375,373 412.65625,373 z M 350.5625,374.71875 350.5625,377.21875 C 351.48835,377.30614 352.44428,377.3686 353.40625,377.4375 L 353.40625,375.03125 C 352.40391,374.92785 351.43826,374.83418 350.5625,374.71875 z M 354.46875,375.125 354.46875,377.53125 C 355.39129,377.59053 356.29885,377.64257 357.25,377.6875 L 357.25,375.34375 C 356.31022,375.271 355.33912,375.20763 354.46875,375.125 z M 358.3125,375.46875 358.3125,377.71875 C 359.25186,377.7579 360.19306,377.785 361.15625,377.8125 L 361.15625,375.65625 C 360.15514,375.59913 359.26271,375.53672 358.3125,375.46875 z M 362.1875,375.6875 362.1875,377.875 C 363.11756,377.89779 364.05115,377.89235 365,377.90625 L 365,375.8125 C 364.05331,375.77411 363.10527,375.73572 362.1875,375.6875 z M 366.0625,375.875 366.0625,377.9375 C 366.98112,377.94802 367.91052,377.96484 368.84375,377.96875 L 368.84375,375.9375 C 367.8958,375.91411 366.99456,375.90865 366.0625,375.875 z M 369.9375,375.96875 369.9375,377.96875 C 370.23906,377.96932 370.50964,377.96876 370.8125,377.96875 L 372.75,377.96875 372.75,376 C 371.80268,375.99166 370.88033,375.988 369.9375,375.96875 z M 373.78125,376.03125 373.78125,377.96875 376.59375,377.96875 376.59375,376.03125 374.8125,376.03125 C 374.46772,376.03125 374.12655,376.03279 373.78125,376.03125 z M 377.65625,376.03125 377.65625,377.96875 380.5,377.96875 380.5,376.03125 377.65625,376.03125 z M 381.53125,376.03125 381.53125,377.96875 384.34375,377.96875 384.34375,376.03125 381.53125,376.03125 z M 404.90625,376.03125 404.90625,377.96875 407.71875,377.96875 407.71875,376.03125 404.90625,376.03125 z M 408.78125,376.03125 408.78125,377.96875 411.59375,377.96875 411.59375,376.03125 408.78125,376.03125 z M 412.65625,376.03125 412.65625,377.96875 415.4375,377.96875 415.4375,376.03125 412.65625,376.03125 z M 388.625,381.5 400.15625,381.5 C 398.70458,383.13198 396.8034,384.15625 394.40625,384.15625 392.00911,384.15625 390.06738,383.13199 388.625,381.5 z"
             id="path4542"
             style="fill:#000000;fill-opacity:1;fill-rule:evenodd;stroke:none" />
          <path
             d="M 392.6875,342.25 391.4375,342.46875 391.34375,343.875 390.40625,344.21875 389.40625,343.1875 388.3125,343.84375 388.6875,345.21875 387.9375,345.8125 386.65625,345.21875 385.84375,346.1875 386.6875,347.34375 386.1875,348.1875 384.78125,348.03125 384.34375,349.25 385.53125,350.03125 385.34375,351 383.96875,351.34375 383.96875,352.625 385.34375,352.96875 385.53125,353.9375 384.34375,354.71875 384.78125,355.9375 386.1875,355.78125 386.65625,356.65625 385.84375,357.78125 386.65625,358.75 387.9375,358.15625 388.6875,358.78125 388.3125,360.125 389.40625,360.78125 390.375,359.78125 391.3125,360.125 391.4375,361.5 392.6875,361.71875 393.25,360.4375 394.25,360.4375 394.8125,361.71875 396.0625,361.5 396.1875,360.125 397.125,359.78125 398.09375,360.78125 399.1875,360.125 398.8125,358.78125 399.5625,358.15625 400.84375,358.75 401.65625,357.78125 400.84375,356.65625 401.3125,355.78125 402.71875,355.9375 403.15625,354.71875 401.96875,353.9375 402.15625,352.96875 403.53125,352.625 403.53125,351.34375 402.15625,351 401.96875,350.03125 403.15625,349.25 402.71875,348.03125 401.3125,348.1875 400.8125,347.34375 401.65625,346.1875 400.84375,345.21875 399.5625,345.8125 398.8125,345.21875 399.1875,343.84375 398.09375,343.1875 397.09375,344.21875 396.15625,343.875 396.0625,342.46875 394.8125,342.25 394.25,343.5625 393.25,343.5625 392.6875,342.25 z M 393.75,344.65625 C 397.79173,344.65624 401.0625,347.95827 401.0625,352 401.06251,356.04173 397.79173,359.3125 393.75,359.3125 389.70827,359.31251 386.4375,356.04173 386.4375,352 386.43749,347.95827 389.70827,344.65625 393.75,344.65625 z M 393.75,345.53125 C 390.19033,345.53125 387.31298,348.4408 387.31297,352.00047 387.31297,355.56014 390.19033,358.43749 393.75,358.4375 397.30967,358.4375 400.18702,355.56014 400.18703,352.00047 400.18703,348.4408 397.30967,345.53126 393.75,345.53125 z M 393.75,347.26925 C 396.34931,347.26924 398.44903,349.40115 398.44903,352.00047 398.44904,354.59978 396.34931,356.6995 393.75,356.6995 391.15069,356.69951 389.05097,354.59978 389.05097,352.00047 389.05096,349.40115 391.15069,347.26925 393.75,347.26925 z M 393.75001,348.03123 C 391.57123,348.03123 389.78181,349.82066 389.78181,351.99943 389.78181,354.17821 391.57124,355.93779 393.75001,355.93779 395.92879,355.93779 397.71821,354.1782 397.71821,351.99943 397.71821,349.82065 395.92878,348.03123 393.75001,348.03123 z M 393.75001,348.98599 C 395.4122,348.98599 396.76345,350.33724 396.76345,351.99943 396.76345,353.66162 395.4122,354.98304 393.75001,354.98304 392.08782,354.98304 390.73657,353.66162 390.73657,351.99943 390.73657,350.33724 392.08782,348.98599 393.75001,348.98599 z"
             id="path4544"
             style="fill:#000000;fill-rule:evenodd;stroke:#000000;stroke-width:0.13077247;stroke-linecap:butt;stroke-linejoin:miter;stroke-miterlimit:4;stroke-opacity:1;stroke-dasharray:none" />
          <path
             d="M 353.25,340.09375 C 352.81756,343.43285 353.30609,344.77429 352.8125,346.65625 351.36458,346.11755 350.04167,346.31526 348.65625,344.09375 349.13333,346.25502 351.08713,346.31773 352.75,347.6875 L 352.75,351.8125 C 350.66806,350.99053 348.79202,351.17503 346.90625,350.25 348.03766,351.34245 350.60327,351.63368 352.75,352.8125 L 352.75,356.6875 C 350.86218,356.34296 349.67377,356.52536 347.96875,355.90625 349.02671,356.78552 350.6274,356.65526 352.75,357.5 L 352.75,364.21913 351.63281,364.21913 351.63281,360.5625 C 351.58334,358.31054 349.67841,358.27324 348,358.09375 346.48301,357.93154 345.41776,356.49746 346.40625,355.0625 347.16902,353.95522 348.35612,354.14461 349.15625,354.65625 349.69689,355.00196 350.45229,354.74293 350.6875,354.40625 351.01034,353.94415 350.51077,353.47784 350,353.1875 349.39203,352.84194 348.88891,352.68765 348.1875,352.6875 347.49463,352.68737 346.45143,352.5264 345.90625,352 345.57402,351.67924 344.40712,350.44341 345.5,349.03125 346.14795,348.194 347.94719,348.31239 348.81629,349.19822 349.34165,349.73369 350.33779,349.68649 350.49843,349.40181 350.80344,348.86128 350.59175,348.23373 350,347.75 348.8363,346.79875 347.67823,346.35876 347.09375,344.96875 346.78846,344.24273 347.15566,343.2516 347.71875,342.84375 348.43083,342.32799 349.96185,342.18519 350.4375,343.625 350.66227,344.30544 351.03943,344.75425 351.46875,344.375 351.86326,344.0265 351.66177,343.18471 351.46875,342.625 351.04071,341.38381 350.90521,340.84889 351.09375,339.84375 351.33523,338.55643 352.47582,338.21875 353.25,338.21875 354.02418,338.21875 355.16477,338.55643 355.40625,339.84375 355.59479,340.84889 355.45929,341.38381 355.03125,342.625 354.83823,343.18471 354.63674,344.0265 355.03125,344.375 355.46057,344.75425 355.83773,344.30544 356.0625,343.625 356.53815,342.18519 358.06917,342.32799 358.78125,342.84375 359.34434,343.2516 359.71154,344.24273 359.40625,344.96875 358.82177,346.35876 357.6637,346.79875 356.5,347.75 355.90825,348.23373 355.69656,348.86128 356.00157,349.40181 356.16221,349.68649 357.15835,349.73369 357.68371,349.19822 358.55281,348.31239 360.35205,348.194 361,349.03125 362.09288,350.44341 360.92598,351.67924 360.59375,352 360.04857,352.5264 359.00537,352.68737 358.3125,352.6875 357.61109,352.68765 357.10797,352.84194 356.5,353.1875 355.98923,353.47784 355.48966,353.94415 355.8125,354.40625 356.04771,354.74293 356.80311,355.00196 357.34375,354.65625 358.14388,354.14461 359.33098,353.95522 360.09375,355.0625 361.08224,356.49746 360.01699,357.93154 358.5,358.09375 356.82159,358.27324 354.91666,358.31054 354.86719,360.5625 L 354.86719,364.21913 353.75,364.21913 353.75,357.5 C 355.8726,356.65526 357.47329,356.78552 358.53125,355.90625 356.82623,356.52536 355.63782,356.34296 353.75,356.6875 L 353.75,352.8125 C 355.89673,351.63368 358.46234,351.34245 359.59375,350.25 357.70798,351.17503 355.83194,350.99053 353.75,351.8125 L 353.75,347.6875 C 355.41287,346.31773 357.36667,346.25502 357.84375,344.09375 356.45833,346.31526 355.13542,346.11755 353.6875,346.65625 353.19391,344.77429 353.68244,343.43285 353.25,340.09375 z"
             id="path4546"
             style="fill:#000000;fill-rule:evenodd;stroke:none" />
          <path
             d="M 365.90625,383.21875 C 363.05515,384.6508 363.52468,386.9289 363.75,389.28125 361.84358,386.71951 359.49789,387.22897 358,388.28125 359.99747,389.53389 360.31592,391.35363 361.25,393 361.86321,394.08082 362.79712,395.01558 365,395.21875 L 365,396.40625 345.40625,396.40625 345.40625,398.375 365,398.375 365,399.5625 C 362.79712,399.76567 361.86321,400.70042 361.25,401.78125 360.31592,403.42762 359.99747,405.24735 358,406.5 359.49789,407.55228 361.84358,408.06173 363.75,405.5 363.52468,407.85235 363.05515,410.13044 365.90625,411.5625 368.75735,410.13044 368.28782,407.85234 368.0625,405.5 369.96891,408.06174 372.3146,407.55228 373.8125,406.5 371.81503,405.24735 371.49656,403.4276 370.5625,401.78125 369.9493,400.70044 369.01538,399.76567 366.8125,399.5625 L 366.8125,398.375 384.3125,398.375 C 384.60967,401.93235 386.51762,405.00267 389.625,405.3125 390.80622,405.88258 392.40048,406.29244 393.46875,406.34375 394.73831,406.40474 395.9947,406.18206 397.125,405.8125 399.3856,405.0734 401.36705,403.58645 401.46875,401.46875 401.54579,399.86464 401.29603,398.51398 400.09375,397.40625 401.08373,396.19268 401.66176,395.0336 401.46875,393.3125 401.23234,391.20439 399.3856,389.70784 397.125,388.96875 395.9947,388.59921 394.73831,388.3765 393.46875,388.4375 392.40048,388.48883 390.80622,388.89867 389.625,389.46875 386.52659,389.77768 384.61821,392.85738 384.3125,396.40625 L 366.8125,396.40625 366.8125,395.21875 C 369.01538,395.01558 369.9493,394.08081 370.5625,393 371.49656,391.35364 371.81503,389.5339 373.8125,388.28125 372.3146,387.22896 369.96891,386.71951 368.0625,389.28125 368.28782,386.9289 368.75735,384.65081 365.90625,383.21875 z M 365.90625,387.875 C 366.30778,388.93716 366.3387,390.32299 366.34375,392.8125 367.45337,392.76242 368.31657,390.43094 370.125,390.21875 368.27096,391.31234 368.38879,393.78125 365.90625,393.78125 363.42371,393.78125 363.54155,391.31233 361.6875,390.21875 363.49594,390.43095 364.35913,392.76243 365.46875,392.8125 365.4738,390.32298 365.50472,388.93717 365.90625,387.875 z M 393.53125,390.03125 C 394.60952,389.96789 395.69416,390.12295 396.65625,390.4375 398.58044,391.0666 399.92484,392.34132 399.96875,393.46875 400.02796,394.98875 399.62187,395.88218 398.40625,396.78125 L 397.75,397.40625 398.40625,398 C 399.45202,398.96237 400.14618,399.72127 399.96875,401.3125 399.84366,402.4343 398.58044,403.71466 396.65625,404.34375 394.79397,404.9526 392.50636,404.92124 390.59375,404.03125 389.47868,402.63642 387.9386,401.29465 388,399.125 389.25961,398.88715 392.31024,398.88514 393.75,397.40625 392.31025,395.92734 389.2596,395.89412 388,395.65625 387.93861,393.4866 389.47868,392.14483 390.59375,390.75 391.51826,390.31981 392.52237,390.09052 393.53125,390.03125 z M 365.90625,401 C 368.38879,401 368.27096,403.4689 370.125,404.5625 368.31657,404.35031 367.45337,402.01882 366.34375,401.96875 366.3387,404.45826 366.30778,405.84408 365.90625,406.90625 365.50472,405.84408 365.4738,404.45826 365.46875,401.96875 364.35913,402.01882 363.49594,404.35029 361.6875,404.5625 363.54155,403.46892 363.42371,400.99999 365.90625,401 z"
             id="path4548"
             style="fill:#000000;fill-rule:evenodd;stroke:none" />
        </g>
      </g>
    </g>
  </g>
</svg>
