<?xml version="1.0" encoding="UTF-8" standalone="no"?>
<!-- Created with Inkscape (http://www.inkscape.org/) -->
<svg
   xmlns:dc="http://purl.org/dc/elements/1.1/"
   xmlns:cc="http://web.resource.org/cc/"
   xmlns:rdf="http://www.w3.org/1999/02/22-rdf-syntax-ns#"
   xmlns:svg="http://www.w3.org/2000/svg"
   xmlns="http://www.w3.org/2000/svg"
   xmlns:xlink="http://www.w3.org/1999/xlink"
   xmlns:sodipodi="http://inkscape.sourceforge.net/DTD/sodipodi-0.dtd"
   xmlns:inkscape="http://www.inkscape.org/namespaces/inkscape"
   width="1000"
   height="600"
   id="svg2"
   sodipodi:version="0.32"
   inkscape:version="0.43"
   version="1.0"
   sodipodi:docbase="C:\Documents and Settings\David Nelson\Archives\Svg"
   sodipodi:docname="Flag of Johnston Atoll.svg">
  <defs
     id="defs4" />
  <sodipodi:namedview
     id="base"
     pagecolor="#ffffff"
     bordercolor="#666666"
     borderopacity="1.0"
     inkscape:pageopacity="0.0"
     inkscape:pageshadow="2"
     inkscape:zoom="0.665"
     inkscape:cx="505.34737"
     inkscape:cy="300"
     inkscape:document-units="px"
     inkscape:current-layer="layer1"
     inkscape:window-width="756"
     inkscape:window-height="683"
     inkscape:window-x="48"
     inkscape:window-y="22" />
  <metadata
     id="metadata7">
    <rdf:RDF>
      <cc:Work
         rdf:about="">
        <dc:format>image/svg+xml</dc:format>
        <dc:type
           rdf:resource="http://purl.org/dc/dcmitype/StillImage" />
      </cc:Work>
    </rdf:RDF>
  </metadata>
  <g
     inkscape:label="Layer 1"
     inkscape:groupmode="layer"
     id="layer1">
    <rect
       style="opacity:1;fill:#004a9c;fill-opacity:1;fill-rule:evenodd;stroke:none;stroke-width:3;stroke-linecap:square;stroke-linejoin:bevel;stroke-miterlimit:4;stroke-dasharray:none;stroke-dashoffset:0.99999998;stroke-opacity:1"
       id="rect2541"
       width="1000"
       height="600"
       x="0"
       y="1.1444092e-005" />
    <rect
       style="opacity:1;fill:#ffffff;fill-opacity:1;fill-rule:evenodd;stroke:none;stroke-width:3;stroke-linecap:square;stroke-linejoin:bevel;stroke-miterlimit:4;stroke-dasharray:none;stroke-dashoffset:0.99999998;stroke-opacity:1"
       id="rect2539"
       width="1000"
       height="255"
       x="0"
       y="172.5" />
    <path
       style="fill:#ffce18;fill-opacity:1;fill-rule:evenodd;stroke:none;stroke-width:1px;stroke-linecap:butt;stroke-linejoin:miter;stroke-opacity:1"
       d="M 356.5,187.5 C 369.24227,178.06396 384.88404,164.71004 417.05274,160.28609 C 486.75975,150.69975 638.32549,161.31231 672.5,183 C 567.65594,168.99936 535.37321,177.61364 506.5,188.5 C 467.82551,183.8107 429.0233,179.17053 356.5,187.5 z "
       id="path1610"
       sodipodi:nodetypes="csccc" />
    <path
       style="fill:#ffce18;fill-opacity:1;fill-rule:evenodd;stroke:none;stroke-width:1px;stroke-linecap:butt;stroke-linejoin:miter;stroke-opacity:1"
       d="M 528.5,193 C 646.539,154.84331 823.44861,242.01424 834.5,260 C 812.10192,248.26378 789.15178,237.35566 761.5,233.5 L 789,245 C 784.63985,245.11784 766.253,239.54728 740.09887,235.39137 C 695.58517,233.48658 661.62011,224.24493 642.071,216.55932 C 586.76076,194.81445 531.46748,193.57832 528.5,193 z "
       id="path1612"
       sodipodi:nodetypes="cccccsc" />
    <path
       style="fill:#ffce18;fill-opacity:1;fill-rule:evenodd;stroke:none;stroke-width:1px;stroke-linecap:butt;stroke-linejoin:miter;stroke-opacity:1"
       d="M 423,207.25 C 445.35264,181.87414 474.54726,193.53137 489.75,204 C 487.42705,204.19358 471.54589,197.64858 463,204.25 C 455.31648,210.18527 452.09936,210.0911 448.33316,206.77472 C 440.7803,200.12395 430.1644,208.90332 423,207.25 z "
       id="path1614"
       sodipodi:nodetypes="ccssc" />
    <path
       style="fill:#ffce18;fill-opacity:1;fill-rule:evenodd;stroke:none;stroke-width:1px;stroke-linecap:butt;stroke-linejoin:miter;stroke-opacity:1"
       d="M 415,229.5 C 325.18436,175.14782 231.82429,224.53848 229,305 C 247.26391,270.07872 276.8554,252.90572 335,269 C 346.69178,243.04879 378.09283,232.89007 415,229.5 z "
       id="path1616"
       sodipodi:nodetypes="cccc" />
    <path
       style="fill:#ffce18;fill-opacity:1;fill-rule:evenodd;stroke:none;stroke-width:1px;stroke-linecap:butt;stroke-linejoin:miter;stroke-opacity:1"
       d="M 349,279.5 C 390.86248,240.80424 453.24173,246.98454 498.99093,271.56227 C 577.9569,313.98497 661.51867,424.15922 667.5,465.5 C 648.97188,440.02812 603.85863,385.16838 582.5,382.5 C 576.23333,381.71709 620.29826,415.29826 629,426 C 607.4879,414 566.36073,397.37706 537.5,385.5 C 500.86075,370.42185 483.7573,359.66813 446.5,326 C 413.26936,295.97062 378.7713,281.56578 349,279.5 z "
       id="path1618"
       sodipodi:nodetypes="cscscssc" />
    <path
       sodipodi:type="star"
       style="opacity:1;fill:#004a9c;fill-opacity:1;fill-rule:evenodd;stroke:none;stroke-width:3;stroke-linecap:square;stroke-linejoin:bevel;stroke-miterlimit:4;stroke-dasharray:none;stroke-dashoffset:0.99999998;stroke-opacity:1"
       id="path2495"
       sodipodi:sides="5"
       sodipodi:cx="200.5"
       sodipodi:cy="277"
       sodipodi:r1="45.011108"
       sodipodi:r2="17.194242"
       sodipodi:arg1="-1.5707963"
       sodipodi:arg2="-0.9424778"
       inkscape:flatsided="false"
       inkscape:rounded="0"
       inkscape:randomized="0"
       d="M 200.5,231.98889 L 210.60652,263.08957 L 243.30811,263.0908 L 216.8527,282.31331 L 226.95686,313.41475 L 200.5,294.19424 L 174.04313,313.41475 L 184.1473,282.31331 L 157.69189,263.0908 L 190.39348,263.08957 L 200.5,231.98889 z "
       transform="matrix(0.928754,0,0,0.928754,14.28475,19.3569)" />
    <use
       x="0"
       y="0"
       xlink:href="#path2495"
       id="use2497"
       transform="translate(189.5,108)"
       width="1000"
       height="600"
       style="fill:#004a9c;fill-opacity:1" />
    <use
       height="600"
       width="1000"
       transform="translate(126.3333,72)"
       id="use2499"
       xlink:href="#path2495"
       y="0"
       x="0"
       style="fill:#004a9c;fill-opacity:1" />
    <use
       x="0"
       y="0"
       xlink:href="#path2495"
       id="use2501"
       transform="translate(63.16667,36.00001)"
       width="1000"
       height="600"
       style="fill:#004a9c;fill-opacity:1" />
    <path
       id="text2507"
       style="font-size:52px;font-style:normal;font-variant:normal;font-weight:bold;font-stretch:normal;text-align:center;line-height:100%;writing-mode:lr-tb;text-anchor:middle;fill:#ffce18;fill-opacity:1;stroke:none;stroke-width:1px;stroke-linecap:butt;stroke-linejoin:miter;stroke-opacity:1;font-family:Palatino Linotype"
       d="M 283.02045,489.05957 L 282.76654,489.28809 C 281.03996,489.38968 280.04973,489.47432 279.79584,489.54199 C 279.30494,489.67744 279.01718,489.99059 278.93256,490.48145 C 278.71249,491.71715 278.60246,494.34085 278.60248,498.35254 L 278.60248,517.24316 C 278.60246,520.64551 278.23853,523.2946 277.51068,525.19043 C 276.68124,527.35709 275.19166,529.37988 273.04193,531.25879 C 270.68906,533.32388 268.43776,534.35643 266.28802,534.35645 C 265.57709,534.35643 264.88308,534.22948 264.20599,533.97559 C 264.29063,532.70604 264.33295,531.14029 264.33295,529.27832 L 264.91693,528.92285 C 266.28802,530.15852 267.49831,530.77636 268.54779,530.77637 C 270.00351,530.77636 270.81601,530.00618 270.98529,528.46582 C 271.20534,526.46842 271.31536,523.47233 271.31537,519.47754 L 271.31537,498.35254 C 271.31536,494.34085 271.20534,491.71715 270.98529,490.48145 C 270.90065,489.99059 270.61289,489.67744 270.12201,489.54199 C 270.00351,489.50817 268.81862,489.42354 266.56732,489.28809 L 266.31342,489.03418 L 266.31342,487.30762 L 266.56732,487.0791 C 268.90325,487.1807 271.69622,487.23148 274.94623,487.23145 C 278.63632,487.23148 281.24309,487.1807 282.76654,487.0791 L 283.02045,487.30762 L 283.02045,489.05957M 604.13635,526.2627 L 603.90784,526.5166 C 600.14999,526.41504 597.88176,526.36426 597.10315,526.36426 C 593.98854,526.36426 591.09401,526.41504 588.41956,526.5166 L 588.19104,526.2627 L 588.19104,524.66309 L 588.44495,524.38379 L 590.65393,524.25684 C 591.58489,524.20606 592.05039,523.87598 592.05042,523.2666 C 592.05039,522.91114 591.81341,522.11556 591.33948,520.87988 L 589.28284,515.52246 C 586.94688,515.48862 584.56016,515.47169 582.12268,515.47168 C 580.80235,515.47169 578.83881,515.48862 576.23206,515.52246 L 575.11487,518.62012 C 574.2685,520.97299 573.84533,522.44564 573.84534,523.03809 C 573.84533,523.68132 574.24311,524.06218 575.0387,524.18066 C 575.47879,524.24837 576.34207,524.31608 577.62854,524.38379 L 577.88245,524.6377 L 577.88245,526.2627 L 577.62854,526.5166 C 574.49702,526.41504 572.4827,526.36426 571.58557,526.36426 C 570.89155,526.36426 569.17346,526.41504 566.43127,526.5166 L 566.17737,526.28809 L 566.17737,524.6377 L 566.45667,524.38379 C 568.20015,524.28223 569.26656,523.93522 569.65588,523.34277 C 570.06213,522.75033 571.56017,519.22104 574.15002,512.75488 L 580.77698,496.1748 C 581.26785,494.88838 582.01264,492.95023 583.01135,490.36035 L 586.61682,490.36035 L 600.07385,522.02246 C 600.59856,523.22429 601.07251,523.90137 601.49573,524.05371 C 602.05428,524.25684 602.85832,524.3584 603.90784,524.3584 L 604.13635,524.6377 L 604.13635,526.2627 M 588.0387,512.60254 L 582.6051,499.29785 L 577.40002,512.60254 C 578.78803,512.65333 580.59076,512.67872 582.80823,512.67871 C 584.95795,512.67872 586.70143,512.65333 588.0387,512.60254 M 584.81409,489.09082 L 584.81409,489.09082 M 583.9762,528.34473 L 583.9762,528.34473M 318.58566,513.9834 C 318.58563,518.30763 317.32587,521.7002 314.80637,524.16113 C 312.35713,526.55176 309.01143,527.74707 304.76926,527.74707 C 300.76143,527.74707 297.61495,526.62207 295.3298,524.37207 C 293.04464,522.11036 291.90207,518.96973 291.90207,514.9502 C 291.90207,509.31349 294.05246,505.41115 298.35324,503.24316 C 300.31026,502.25881 302.71846,501.76663 305.57785,501.7666 C 309.66767,501.76663 312.84931,502.83889 315.12277,504.9834 C 317.43134,507.16311 318.58563,510.1631 318.58566,513.9834 M 313.1716,514.89746 C 313.17158,511.49904 312.48603,508.80373 311.11496,506.81152 C 309.75557,504.80764 307.75752,503.80569 305.12082,503.80566 C 301.64034,503.80569 299.33175,505.37014 298.19504,508.49902 C 297.60909,510.10451 297.31612,511.90334 297.31613,513.89551 C 297.31612,517.51661 297.98409,520.37598 299.32004,522.47363 C 300.70284,524.6416 302.7712,525.72559 305.52512,525.72559 C 308.86494,525.72559 311.10908,524.0791 312.25754,520.78613 C 312.86689,519.04005 313.17158,517.07716 313.1716,514.89746 M 305.1384,528.34473 L 305.1384,528.34473 M 305.1384,501.16895 L 305.1384,501.16895 M 358.10129,526.90332 L 357.92551,527.0791 C 356.76532,527.00879 354.96064,526.97363 352.51144,526.97363 C 350.00361,526.97363 348.19893,527.00879 347.09738,527.0791 L 346.9216,526.9209 L 346.9216,525.72559 L 347.11496,525.5498 C 348.31025,525.47949 348.9958,525.4209 349.1716,525.37402 C 349.51142,525.28028 349.71064,525.06348 349.76926,524.72363 C 349.92158,523.87989 349.99775,522.06348 349.99777,519.27441 L 349.99777,515.03809 C 349.4001,514.9795 347.50166,514.95021 344.30246,514.9502 C 341.34932,514.95021 339.40401,514.9795 338.46652,515.03809 L 338.46652,519.27441 C 338.46651,522.06348 338.54268,523.87989 338.69504,524.72363 C 338.75362,525.06348 338.95284,525.28028 339.29269,525.37402 C 339.46847,525.4209 340.15401,525.47949 341.34933,525.5498 L 341.52512,525.72559 L 341.52512,526.90332 L 341.36691,527.0791 C 340.19503,527.00879 338.39034,526.97363 335.95285,526.97363 C 333.43331,526.97363 331.62863,527.00879 330.53879,527.0791 L 330.36301,526.9209 L 330.36301,525.72559 L 330.53879,525.5498 C 331.7341,525.47949 332.41964,525.4209 332.59543,525.37402 C 332.93527,525.28028 333.13449,525.06348 333.19308,524.72363 C 333.34542,523.87989 333.4216,522.06348 333.4216,519.27441 L 333.4216,509.97559 C 333.4216,507.18654 333.34542,505.37014 333.19308,504.52637 C 333.13449,504.18655 332.93527,503.96975 332.59543,503.87598 C 332.41964,503.82912 331.7341,503.77053 330.53879,503.7002 L 330.36301,503.52441 L 330.36301,502.3291 L 330.53879,502.1709 C 331.66379,502.24124 333.46847,502.27639 335.95285,502.27637 C 338.49581,502.27639 340.3005,502.24124 341.36691,502.1709 L 341.52512,502.3291 L 341.52512,503.54199 L 341.34933,503.7002 C 340.15401,503.77053 339.46847,503.82912 339.29269,503.87598 C 338.95284,503.96975 338.75362,504.18655 338.69504,504.52637 C 338.54268,505.37014 338.46651,507.18654 338.46652,509.97559 L 338.46652,512.87598 C 339.7087,512.93458 341.41964,512.96388 343.59933,512.96387 C 347.02119,512.96388 349.154,512.93458 349.99777,512.87598 L 349.99777,509.97559 C 349.99775,507.18654 349.92158,505.37014 349.76926,504.52637 C 349.71064,504.18655 349.51142,503.96975 349.1716,503.87598 C 348.9958,503.82912 348.31025,503.77053 347.11496,503.7002 L 346.9216,503.52441 L 346.9216,502.3291 L 347.09738,502.1709 C 348.23408,502.24124 350.03877,502.27639 352.51144,502.27637 C 355.06611,502.27639 356.87079,502.24124 357.92551,502.1709 L 358.10129,502.3291 L 358.10129,503.54199 L 357.94308,503.7002 C 356.72431,503.77053 356.0329,503.82912 355.86887,503.87598 C 355.529,503.96975 355.32978,504.18655 355.27121,504.52637 C 355.11884,505.37014 355.04267,507.18654 355.04269,509.97559 L 355.04269,519.27441 C 355.04267,522.06348 355.11884,523.87989 355.27121,524.72363 C 355.32978,525.06348 355.529,525.28028 355.86887,525.37402 C 356.04462,525.4209 356.73017,525.47949 357.92551,525.5498 L 358.10129,525.72559 L 358.10129,526.90332 M 397.05441,503.52441 L 396.86105,503.7002 C 395.66571,503.77053 394.98017,503.82912 394.80441,503.87598 C 394.46454,503.96975 394.26532,504.18655 394.20676,504.52637 C 394.05439,505.37014 393.97822,507.18654 393.97824,509.97559 L 393.97824,517.1123 C 393.97822,522.37403 394.05439,525.80176 394.20676,527.39551 L 393.97824,527.55371 C 392.654,527.33105 391.65205,527.17285 390.97238,527.0791 C 387.83174,523.55176 382.47041,517.11817 374.8884,507.77832 L 374.8884,519.27441 C 374.88839,522.06348 374.96456,523.87989 375.11691,524.72363 C 375.1755,525.06348 375.37472,525.28028 375.71457,525.37402 C 375.89034,525.4209 376.57589,525.47949 377.77121,525.5498 L 377.94699,525.72559 L 377.94699,526.9209 L 377.77121,527.0791 C 376.42355,527.00879 375.16964,526.97363 374.00949,526.97363 C 372.66183,526.97363 371.30832,527.00879 369.94894,527.0791 L 369.77316,526.9209 L 369.77316,525.72559 L 369.94894,525.5498 C 371.14425,525.47949 371.8298,525.4209 372.00558,525.37402 C 372.34542,525.28028 372.54464,525.06348 372.60324,524.72363 C 372.75558,523.87989 372.83175,522.06348 372.83176,519.27441 L 372.83176,509.97559 C 372.83175,507.18654 372.75558,505.37014 372.60324,504.52637 C 372.54464,504.18655 372.34542,503.96975 372.00558,503.87598 C 371.8298,503.82912 371.14425,503.77053 369.94894,503.7002 L 369.77316,503.52441 L 369.77316,502.3291 L 369.94894,502.1709 C 371.06222,502.24124 372.12277,502.27639 373.13058,502.27637 C 374.71261,502.27639 376.02511,502.24124 377.06808,502.1709 C 381.28682,507.79592 386.24385,513.82521 391.93918,520.25879 L 391.93918,509.97559 C 391.93915,507.18654 391.86298,505.37014 391.71066,504.52637 C 391.65205,504.18655 391.45283,503.96975 391.11301,503.87598 C 390.9372,503.82912 390.25166,503.77053 389.05637,503.7002 L 388.88058,503.52441 L 388.88058,502.3291 L 389.05637,502.1709 C 390.36884,502.24124 391.61689,502.27639 392.80051,502.27637 C 394.3122,502.27639 395.67157,502.24124 396.87863,502.1709 L 397.05441,502.3291 L 397.05441,503.52441 M 427.32394,518.85254 C 427.32392,520.78614 426.77314,522.49122 425.6716,523.96777 C 424.71065,525.26856 423.45088,526.23535 421.8923,526.86816 C 420.4626,527.4541 418.75753,527.74707 416.77707,527.74707 C 414.31612,527.74707 411.90206,527.18457 409.53488,526.05957 L 409.32394,525.67285 C 409.65207,524.3252 409.81613,522.40918 409.81613,519.9248 L 409.99191,519.74902 L 411.11691,519.74902 L 411.27512,519.9248 L 411.27512,520.3291 C 411.27511,520.98536 411.34542,521.85254 411.48605,522.93066 C 411.90792,523.68067 412.66378,524.3252 413.75363,524.86426 C 414.89034,525.42676 416.07394,525.70801 417.30441,525.70801 C 419.62471,525.70801 421.23018,524.89942 422.12082,523.28223 C 422.57783,522.4502 422.80635,521.58887 422.80637,520.69824 C 422.80635,519.19825 422.1794,518.12599 420.92551,517.48145 C 420.3044,517.16505 419.30245,516.90138 417.91965,516.69043 C 414.79073,516.20997 412.73409,515.60646 411.74973,514.87988 C 410.26144,513.77833 409.5173,512.07326 409.5173,509.76465 C 409.5173,507.36232 410.32589,505.44631 411.94308,504.0166 C 413.65402,502.51663 416.03292,501.76663 419.0798,501.7666 C 421.82198,501.76663 424.03682,502.20608 425.72433,503.08496 L 425.84738,503.50684 C 425.56611,504.90139 425.39619,506.57717 425.33762,508.53418 L 425.14426,508.70996 L 424.03683,508.70996 L 423.86105,508.53418 C 423.82588,507.12795 423.76729,506.21389 423.68527,505.79199 C 423.32197,505.24123 422.68916,504.77248 421.78683,504.38574 C 420.82588,503.98733 419.82393,503.78811 418.78098,503.78809 C 417.21065,503.78811 415.96847,504.20412 415.05441,505.03613 C 414.19894,505.82131 413.7712,506.83498 413.77121,508.07715 C 413.7712,509.42482 414.25753,510.41506 415.23019,511.04785 C 415.863,511.45802 417.35714,511.8506 419.71262,512.22559 C 419.9587,512.26076 420.64424,512.37794 421.76926,512.57715 C 422.46065,512.69435 423.09932,512.86427 423.68527,513.08691 C 424.86885,513.53224 425.75947,514.21193 426.35715,515.12598 C 427.00166,516.12208 427.32392,517.36427 427.32394,518.85254 M 461.49582,502.27637 C 461.35517,503.14358 461.279,504.04006 461.2673,504.96582 L 461.23215,507.90137 L 461.05637,508.07715 L 459.94894,508.07715 L 459.75558,507.91895 C 459.69697,506.41897 459.63252,505.54006 459.56223,505.28223 C 459.42158,504.8135 459.04658,504.53811 458.43723,504.45605 C 458.20283,504.42092 457.10127,504.40334 455.13254,504.40332 L 452.77707,504.40332 C 452.75362,504.8135 452.7419,506.4424 452.74191,509.29004 L 452.74191,519.27441 C 452.7419,522.06348 452.81807,523.87989 452.97043,524.72363 C 453.02901,525.06348 453.22823,525.28028 453.56808,525.37402 C 453.74385,525.4209 454.4294,525.47949 455.62473,525.5498 L 455.80051,525.72559 L 455.80051,526.90332 L 455.62473,527.0791 C 454.46455,527.00879 452.65987,526.97363 450.21066,526.97363 C 447.70284,526.97363 445.89816,527.00879 444.7966,527.0791 L 444.6384,526.9209 L 444.6384,525.72559 L 444.81418,525.5498 C 446.00948,525.47949 446.69503,525.4209 446.87082,525.37402 C 447.21065,525.28028 447.40987,525.06348 447.46848,524.72363 C 447.62081,523.87989 447.69698,522.06348 447.69699,519.27441 L 447.69699,509.29004 C 447.69698,506.39553 447.6794,504.76662 447.64426,504.40332 L 445.13058,504.40332 C 443.03292,504.40334 441.80832,504.4678 441.45676,504.59668 C 441.26925,504.66701 441.14035,504.75491 441.07004,504.86035 C 440.96457,505.04787 440.87668,505.42287 440.80637,505.98535 C 440.72433,506.60647 440.6716,507.24514 440.64816,507.90137 L 440.47238,508.07715 L 439.36496,508.07715 L 439.1716,507.90137 L 439.13644,504.89551 C 439.12472,504.05178 439.05441,503.17873 438.92551,502.27637 L 439.08371,502.10059 C 439.77511,502.2178 442.29464,502.27639 446.6423,502.27637 L 453.76144,502.27637 C 457.76924,502.27639 460.28877,502.2178 461.32004,502.10059 L 461.49582,502.27637 M 499.55246,513.9834 C 499.55243,518.30763 498.29267,521.7002 495.77316,524.16113 C 493.32392,526.55176 489.97822,527.74707 485.73605,527.74707 C 481.72823,527.74707 478.58175,526.62207 476.2966,524.37207 C 474.01144,522.11036 472.86886,518.96973 472.86887,514.9502 C 472.86886,509.31349 475.01925,505.41115 479.32004,503.24316 C 481.27706,502.25881 483.68526,501.76663 486.54465,501.7666 C 490.63447,501.76663 493.81611,502.83889 496.08957,504.9834 C 498.39814,507.16311 499.55243,510.1631 499.55246,513.9834 M 494.1384,514.89746 C 494.13837,511.49904 493.45283,508.80373 492.08176,506.81152 C 490.72236,504.80764 488.72432,503.80569 486.08762,503.80566 C 482.60714,503.80569 480.29854,505.37014 479.16183,508.49902 C 478.57589,510.10451 478.28292,511.90334 478.28293,513.89551 C 478.28292,517.51661 478.95089,520.37598 480.28683,522.47363 C 481.66964,524.6416 483.73799,525.72559 486.49191,525.72559 C 489.83174,525.72559 492.07588,524.0791 493.22433,520.78613 C 493.83369,519.04005 494.13837,517.07716 494.1384,514.89746 M 486.10519,528.34473 L 486.10519,528.34473 M 486.10519,501.16895 L 486.10519,501.16895 M 539.03293,503.52441 L 538.83957,503.7002 C 537.64423,503.77053 536.95868,503.82912 536.78293,503.87598 C 536.44306,503.96975 536.24384,504.18655 536.18527,504.52637 C 536.0329,505.37014 535.95673,507.18654 535.95676,509.97559 L 535.95676,517.1123 C 535.95673,522.37403 536.0329,525.80176 536.18527,527.39551 L 535.95676,527.55371 C 534.63251,527.33105 533.63056,527.17285 532.9509,527.0791 C 529.81025,523.55176 524.44893,517.11817 516.86691,507.77832 L 516.86691,519.27441 C 516.86691,522.06348 516.94308,523.87989 517.09543,524.72363 C 517.15402,525.06348 517.35323,525.28028 517.69308,525.37402 C 517.86886,525.4209 518.5544,525.47949 519.74973,525.5498 L 519.92551,525.72559 L 519.92551,526.9209 L 519.74973,527.0791 C 518.40206,527.00879 517.14816,526.97363 515.98801,526.97363 C 514.64035,526.97363 513.28683,527.00879 511.92746,527.0791 L 511.75168,526.9209 L 511.75168,525.72559 L 511.92746,525.5498 C 513.12277,525.47949 513.80832,525.4209 513.9841,525.37402 C 514.32394,525.28028 514.52316,525.06348 514.58176,524.72363 C 514.7341,523.87989 514.81027,522.06348 514.81027,519.27441 L 514.81027,509.97559 C 514.81027,507.18654 514.7341,505.37014 514.58176,504.52637 C 514.52316,504.18655 514.32394,503.96975 513.9841,503.87598 C 513.80832,503.82912 513.12277,503.77053 511.92746,503.7002 L 511.75168,503.52441 L 511.75168,502.3291 L 511.92746,502.1709 C 513.04074,502.24124 514.10128,502.27639 515.1091,502.27637 C 516.69113,502.27639 518.00362,502.24124 519.0466,502.1709 C 523.26534,507.79592 528.22236,513.82521 533.91769,520.25879 L 533.91769,509.97559 C 533.91767,507.18654 533.8415,505.37014 533.68918,504.52637 C 533.63056,504.18655 533.43134,503.96975 533.09152,503.87598 C 532.91572,503.82912 532.23017,503.77053 531.03488,503.7002 L 530.8591,503.52441 L 530.8591,502.3291 L 531.03488,502.1709 C 532.34736,502.24124 533.59541,502.27639 534.77902,502.27637 C 536.29071,502.27639 537.65009,502.24124 538.85715,502.1709 L 539.03293,502.3291 L 539.03293,503.52441 M 635.4841,502.27637 C 635.34345,503.14358 635.26728,504.04006 635.25558,504.96582 L 635.22043,507.90137 L 635.04465,508.07715 L 633.93723,508.07715 L 633.74387,507.91895 C 633.68525,506.41897 633.6208,505.54006 633.55051,505.28223 C 633.40986,504.8135 633.03486,504.53811 632.42551,504.45605 C 632.19111,504.42092 631.08955,504.40334 629.12082,504.40332 L 626.76535,504.40332 C 626.7419,504.8135 626.73018,506.4424 626.73019,509.29004 L 626.73019,519.27441 C 626.73018,522.06348 626.80635,523.87989 626.95871,524.72363 C 627.01729,525.06348 627.21651,525.28028 627.55637,525.37402 C 627.73213,525.4209 628.41768,525.47949 629.61301,525.5498 L 629.78879,525.72559 L 629.78879,526.90332 L 629.61301,527.0791 C 628.45283,527.00879 626.64815,526.97363 624.19894,526.97363 C 621.69112,526.97363 619.88644,527.00879 618.78488,527.0791 L 618.62668,526.9209 L 618.62668,525.72559 L 618.80246,525.5498 C 619.99776,525.47949 620.68331,525.4209 620.8591,525.37402 C 621.19894,525.28028 621.39815,525.06348 621.45676,524.72363 C 621.60909,523.87989 621.68526,522.06348 621.68527,519.27441 L 621.68527,509.29004 C 621.68526,506.39553 621.66768,504.76662 621.63254,504.40332 L 619.11887,504.40332 C 617.0212,504.40334 615.7966,504.4678 615.44504,504.59668 C 615.25753,504.66701 615.12863,504.75491 615.05832,504.86035 C 614.95285,505.04787 614.86496,505.42287 614.79465,505.98535 C 614.71261,506.60647 614.65988,507.24514 614.63644,507.90137 L 614.46066,508.07715 L 613.35324,508.07715 L 613.15988,507.90137 L 613.12473,504.89551 C 613.11301,504.05178 613.04269,503.17873 612.91379,502.27637 L 613.07199,502.10059 C 613.7634,502.2178 616.28292,502.27639 620.63058,502.27637 L 627.74973,502.27637 C 631.75752,502.27639 634.27705,502.2178 635.30832,502.10059 L 635.4841,502.27637 M 673.54074,513.9834 C 673.54071,518.30763 672.28095,521.7002 669.76144,524.16113 C 667.3122,526.55176 663.9665,527.74707 659.72433,527.74707 C 655.71651,527.74707 652.57003,526.62207 650.28488,524.37207 C 647.99972,522.11036 646.85715,518.96973 646.85715,514.9502 C 646.85715,509.31349 649.00753,505.41115 653.30832,503.24316 C 655.26534,502.25881 657.67354,501.76663 660.53293,501.7666 C 664.62275,501.76663 667.80439,502.83889 670.07785,504.9834 C 672.38642,507.16311 673.54071,510.1631 673.54074,513.9834 M 668.12668,514.89746 C 668.12666,511.49904 667.44111,508.80373 666.07004,506.81152 C 664.71064,504.80764 662.7126,503.80569 660.0759,503.80566 C 656.59542,503.80569 654.28683,505.37014 653.15012,508.49902 C 652.56417,510.10451 652.2712,511.90334 652.27121,513.89551 C 652.2712,517.51661 652.93917,520.37598 654.27512,522.47363 C 655.65792,524.6416 657.72628,525.72559 660.48019,525.72559 C 663.82002,525.72559 666.06416,524.0791 667.21262,520.78613 C 667.82197,519.04005 668.12666,517.07716 668.12668,514.89746 M 660.09348,528.34473 L 660.09348,528.34473 M 660.09348,501.16895 L 660.09348,501.16895 M 704.6716,521.10254 C 704.41377,522.81348 704.28486,524.74707 704.28488,526.90332 L 704.1091,527.0791 L 691.3298,526.97363 C 689.19699,526.97363 687.69113,527.00879 686.81223,527.0791 L 686.63644,526.90332 L 686.63644,526.41113 L 686.72433,526.2002 C 687.59152,525.64942 688.06027,525.30371 688.13058,525.16309 C 688.23605,524.95215 688.3005,524.17285 688.32394,522.8252 L 688.37668,518.8877 L 688.37668,509.97559 C 688.37667,507.18654 688.3005,505.37014 688.14816,504.52637 C 688.08957,504.18655 687.89035,503.96975 687.55051,503.87598 C 687.37472,503.82912 686.68918,503.77053 685.49387,503.7002 L 685.31808,503.52441 L 685.31808,502.3291 L 685.49387,502.1709 C 686.70089,502.24124 688.47042,502.27639 690.80246,502.27637 C 693.21651,502.27639 695.0505,502.24124 696.30441,502.1709 L 696.48019,502.3291 L 696.48019,503.54199 L 696.30441,503.7002 C 695.10909,503.77053 694.42354,503.82912 694.24777,503.87598 C 693.90792,503.96975 693.7087,504.18655 693.65012,504.52637 C 693.49776,505.37014 693.42159,507.18654 693.4216,509.97559 L 693.4216,520.4873 C 693.42159,522.02247 693.45089,523.51075 693.50949,524.95215 L 695.90012,524.95215 C 699.32198,524.95215 701.41963,524.81738 702.19308,524.54785 C 702.32197,524.50098 702.41572,524.43653 702.47433,524.35449 C 702.5915,524.19043 702.70283,523.83887 702.80832,523.2998 L 703.23019,521.12012 L 703.40598,520.92676 L 704.47824,520.92676 L 704.6716,521.10254 M 735.48605,521.10254 C 735.22822,522.81348 735.09931,524.74707 735.09933,526.90332 L 734.92355,527.0791 L 722.14426,526.97363 C 720.01144,526.97363 718.50558,527.00879 717.62668,527.0791 L 717.4509,526.90332 L 717.4509,526.41113 L 717.53879,526.2002 C 718.40597,525.64942 718.87472,525.30371 718.94504,525.16309 C 719.0505,524.95215 719.11496,524.17285 719.1384,522.8252 L 719.19113,518.8877 L 719.19113,509.97559 C 719.19113,507.18654 719.11496,505.37014 718.96262,504.52637 C 718.90402,504.18655 718.7048,503.96975 718.36496,503.87598 C 718.18918,503.82912 717.50363,503.77053 716.30832,503.7002 L 716.13254,503.52441 L 716.13254,502.3291 L 716.30832,502.1709 C 717.51535,502.24124 719.28488,502.27639 721.61691,502.27637 C 724.03097,502.27639 725.86495,502.24124 727.11887,502.1709 L 727.29465,502.3291 L 727.29465,503.54199 L 727.11887,503.7002 C 725.92354,503.77053 725.238,503.82912 725.06223,503.87598 C 724.72237,503.96975 724.52315,504.18655 724.46457,504.52637 C 724.31222,505.37014 724.23604,507.18654 724.23605,509.97559 L 724.23605,520.4873 C 724.23604,522.02247 724.26534,523.51075 724.32394,524.95215 L 726.71457,524.95215 C 730.13643,524.95215 732.23408,524.81738 733.00754,524.54785 C 733.13643,524.50098 733.23018,524.43653 733.28879,524.35449 C 733.40596,524.19043 733.51728,523.83887 733.62277,523.2998 L 734.04465,521.12012 L 734.22043,520.92676 L 735.29269,520.92676 L 735.48605,521.10254" />
  </g>
</svg>
