<?xml version="1.0" encoding="UTF-8" standalone="no"?>
<!-- Created with Inkscape (http://www.inkscape.org/) -->
<svg
   xmlns:dc="http://purl.org/dc/elements/1.1/"
   xmlns:cc="http://web.resource.org/cc/"
   xmlns:rdf="http://www.w3.org/1999/02/22-rdf-syntax-ns#"
   xmlns:svg="http://www.w3.org/2000/svg"
   xmlns="http://www.w3.org/2000/svg"
   xmlns:sodipodi="http://inkscape.sourceforge.net/DTD/sodipodi-0.dtd"
   xmlns:inkscape="http://www.inkscape.org/namespaces/inkscape"
   width="800"
   height="480"
   id="svg2"
   sodipodi:version="0.32"
   inkscape:version="0.43"
   version="1.0"
   sodipodi:docbase="C:\Documents and Settings\David Nelson\Archives\Svg"
   sodipodi:docname="Flag of Midway Islands.svg">
  <defs
     id="defs4" />
  <sodipodi:namedview
     id="base"
     pagecolor="#ffffff"
     bordercolor="#666666"
     borderopacity="1.0"
     inkscape:pageopacity="0.0"
     inkscape:pageshadow="2"
     inkscape:zoom="0.83125"
     inkscape:cx="400"
     inkscape:cy="240"
     inkscape:document-units="px"
     inkscape:current-layer="layer1"
     showguides="true"
     inkscape:guide-bbox="true"
     inkscape:window-width="756"
     inkscape:window-height="665"
     inkscape:window-x="44"
     inkscape:window-y="60" />
  <metadata
     id="metadata7">
    <rdf:RDF>
      <cc:Work
         rdf:about="">
        <dc:format>image/svg+xml</dc:format>
        <dc:type
           rdf:resource="http://purl.org/dc/dcmitype/StillImage" />
      </cc:Work>
    </rdf:RDF>
  </metadata>
  <g
     inkscape:label="Layer 1"
     inkscape:groupmode="layer"
     id="layer1">
    <g
       id="g3469">
      <rect
         y="1.1368684e-013"
         x="0"
         height="295"
         width="800"
         id="rect3463"
         style="opacity:1;fill:#227adc;fill-opacity:1;fill-rule:evenodd;stroke:none;stroke-width:0.333;stroke-linecap:butt;stroke-linejoin:miter;stroke-miterlimit:4;stroke-dasharray:none;stroke-dashoffset:0;stroke-opacity:1" />
      <rect
         y="330"
         x="0"
         height="150"
         width="800"
         id="rect3465"
         style="opacity:1;fill:#01a9cd;fill-opacity:1;fill-rule:evenodd;stroke:none;stroke-width:0.333;stroke-linecap:butt;stroke-linejoin:miter;stroke-miterlimit:4;stroke-dasharray:none;stroke-dashoffset:0;stroke-opacity:1" />
      <rect
         y="295"
         x="0"
         height="35"
         width="800"
         id="rect3467"
         style="opacity:1;fill:#ffffff;fill-opacity:1;fill-rule:evenodd;stroke:none;stroke-width:0.333;stroke-linecap:butt;stroke-linejoin:miter;stroke-miterlimit:4;stroke-dasharray:none;stroke-dashoffset:0;stroke-opacity:1" />
    </g>
    <g
       id="g3500">
      <path
         sodipodi:nodetypes="cssssssssscssssszsssssszsszszz"
         id="path2335"
         d="M 368.26286,128.25 C 368.26286,130.39736 380.16873,127.76203 387.98623,129.34946 C 391.24697,130.01159 392.65085,134.86333 395.85303,137.31821 C 402.44325,142.37044 426.31891,158.6329 419.64024,166.5798 C 409.98646,178.06675 387.36772,186.49004 361.7924,193.63296 C 347.87092,197.52107 332.54482,198.91871 319.17293,205.0812 C 294.1335,216.62072 267.37267,255.51939 269.10794,261.75 C 270.24779,265.84273 281.12469,256.19314 295.31474,248.40838 C 304.17706,243.54643 310.90253,236.95061 323.49625,232.51794 C 340.99124,226.36012 359.77315,225.41244 378.77795,220.16994 C 412.60223,210.83946 443.56341,198.47169 452.95838,194.19803 C 458.23421,197.46343 468.64093,205.31687 478.59186,211.05306 C 488.60714,216.82635 489.66348,215.82756 494.34059,219.94978 C 497.67074,222.88487 501.66819,227.31557 504.22894,230.07958 C 513.98246,240.60729 520.74193,246.84156 529.76518,243.5625 C 534.55074,241.82342 530.3302,231.87769 525.03692,224.01771 C 522.01977,219.53753 518.14697,216.24131 516.6683,214.25736 C 512.77754,209.03706 501.24567,202.17474 497.06079,190.92675 C 493.21978,180.60296 488.24006,177.6395 487.75011,171.76106 C 486.71683,159.36378 521.64111,135.65345 539.59677,122.32638 C 563.31915,104.71912 578.41205,84.753675 584.40912,81.300564 C 598.28243,73.312327 610.32583,67.788474 625.48872,62.900961 C 640.35155,58.110161 643.1924,51.626049 643.1924,50.25 C 643.1924,48.792559 611.74667,53.570696 591.40083,55.117408 C 571.45979,56.633347 566.38955,63.778684 558.23216,70.318787 C 539.58631,85.267918 519.29134,101.41757 495.75309,118.8177 C 475.76393,133.59423 455.90977,138.46596 449.39667,138.46596 C 437.17351,138.46596 426.90568,126.92618 414.48882,122.29869 C 403.31312,118.13377 387.59752,120.80862 377.65138,120.43327 C 367.92057,120.06605 368.26286,125.20119 368.26286,128.25 z "
         style="fill:#4e4418;fill-opacity:1;fill-rule:evenodd;stroke:none;stroke-width:1px;stroke-linecap:butt;stroke-linejoin:miter;stroke-opacity:1" />
      <path
         sodipodi:nodetypes="ccscscccsccsccscccscccccc"
         id="path3218"
         d="M 389.84295,123.58549 C 389.73508,125.05289 389.17608,127.29802 385.11425,126.79698 C 385.12699,124.97656 390.26222,128.78867 396.47882,135.41016 C 405.60809,145.13403 420.28443,151.91047 424.58914,165.58594 C 443.9198,187.14623 468.16331,202.75056 493.57974,215.70703 C 503.27365,220.64869 510.62,241.54706 525.0234,243.08203 C 521.61008,239.87518 512.661,234.33339 502.75796,221.64949 C 503.59679,221.35626 502.47916,221.56434 503.75245,221.16156 C 514.62532,234.54662 524.54421,242.33664 527.32392,242.27872 C 529.11102,242.24149 506.3514,223.18089 505.2911,220.64002 C 505.89371,220.40707 505.80498,220.37398 506.72224,220.55794 C 507.43157,221.45968 524.17859,239.16619 528.59303,241.07162 C 531.35604,242.26423 510.75782,222.99234 508.46909,220.11752 C 508.85574,220.21104 507.74926,220.48208 509.21039,220.19316 C 514.05037,223.97563 532.15613,244.30995 529.98819,239.20313 C 529.03686,236.96218 512.98776,222.28301 511.01001,219.20456 C 511.37226,219.04406 511.50381,218.93355 512.30468,218.53924 C 513.64501,220.29546 527.08441,234.88112 529.89012,237.20181 C 529.63594,232.17553 515.85972,218.16649 515.08004,217.36078 C 506.54532,208.54106 496.49548,198.10712 492.72293,186.44531 C 481.56207,171.42622 469.98577,152.95804 451.71355,146.53125 C 447.44998,145.82369 436.00444,148.36605 441.84266,143.02734 C 444.18856,141.32633 457.87011,143.54388 444.24876,139.92188 C 428.59406,132.88951 413.79239,119.11381 395.1904,122.38502 C 388.58225,123.02641 391.69299,123.57114 389.84295,123.58549 z "
         style="fill:#e8d2d2;fill-opacity:1;fill-rule:evenodd;stroke:none;stroke-width:1px;stroke-linecap:butt;stroke-linejoin:miter;stroke-opacity:1" />
      <path
         style="fill:#ffffff;fill-opacity:1;fill-rule:evenodd;stroke:none;stroke-width:1px;stroke-linecap:butt;stroke-linejoin:miter;stroke-opacity:1"
         d="M 481.72964,200.53172 C 490.96684,206.27968 513.52239,215.52165 512.7427,214.71594 C 504.20798,205.89622 496.49548,198.10712 492.72293,186.44531 C 485.84581,177.19083 477.46059,164.86837 468.00059,156.51326 C 462.10797,151.30889 454.69473,147.95867 450.34382,146.88547 C 449.24737,146.61502 444.32925,147.75545 441.36981,146.2421 C 438.15911,144.60026 433.17552,143.40324 431.36822,148.40976 C 430.46215,150.91968 437.23109,162.57496 447.84822,173.78614 C 457.44322,183.91799 470.27554,193.40428 481.72964,200.53172 z "
         id="path3246"
         sodipodi:nodetypes="cscssszss" />
      <path
         sodipodi:nodetypes="cssscs"
         id="path3253"
         d="M 394.46004,132.96094 C 397.74775,135.07262 393.8194,128.71773 397.22999,130.72266 C 401.86586,133.44787 408.39754,137.67678 422.9943,143.94584 C 432.99284,148.24003 437.71323,137.15822 433.68672,134.7777 C 419.25684,126.24664 413.79239,119.11381 395.1904,122.38502 C 388.58225,123.02641 388.45322,129.10279 394.46004,132.96094 z "
         style="fill:#ffffff;fill-opacity:1;fill-rule:evenodd;stroke:none;stroke-width:1px;stroke-linecap:butt;stroke-linejoin:miter;stroke-opacity:1" />
      <path
         sodipodi:nodetypes="csscsszzz"
         id="path3228"
         d="M 369.01717,127.71205 C 369.01717,128.09445 374.19679,129.52714 374.18725,126.90109 C 374.17839,124.46334 376.90736,124.16885 378.77553,124.13674 C 382.41519,124.07418 388.46302,123.18857 388.46302,125.39869 C 385.44282,125.39869 376.59191,124.32094 376.59191,126.77412 C 376.59191,128.23363 386.51185,127.78088 387.87848,128.05839 C 391.13921,128.72052 394.10637,124.35953 392.48396,122.42904 C 390.95915,120.61468 379.24588,121.36428 374.91431,121.36428 C 370.47512,121.36428 369.01717,124.66324 369.01717,127.71205 z "
         style="fill:#f9b127;fill-opacity:1;fill-rule:evenodd;stroke:#4e4418;stroke-width:0.62486333;stroke-linecap:butt;stroke-linejoin:miter;stroke-miterlimit:4;stroke-dasharray:none;stroke-opacity:1" />
      <path
         id="path3260"
         d="M 399.55476,122.48006 C 399.12978,123.62256 398.11666,123.85099 397.75149,125.30936 C 397.36098,126.86897 396.88753,127.10982 400.06999,127.10982 C 401.38578,127.10982 402.3123,126.09667 402.90372,125.30936 C 404.07547,123.74946 402.88805,123.11528 401.61566,122.48006 C 400.71035,122.02812 400.65292,122.26078 399.55476,122.48006 z "
         style="fill:#000000;fill-opacity:1;fill-rule:evenodd;stroke:#000000;stroke-width:1.87646639px;stroke-linecap:butt;stroke-linejoin:miter;stroke-opacity:1" />
      <path
         sodipodi:nodetypes="cssss"
         id="path3272"
         d="M 278.12203,250.6875 C 279.34268,248.34375 283.28634,244.03125 286.00935,241.875 C 288.73235,239.71875 290.2347,239.71875 289.01404,242.0625 C 287.79339,244.40625 283.84972,249.09375 281.12672,251.25 C 278.40372,253.40625 276.90137,253.03125 278.12203,250.6875 z "
         style="fill:#ffffff;fill-opacity:1;fill-rule:evenodd;stroke:none;stroke-width:1px;stroke-linecap:butt;stroke-linejoin:miter;stroke-opacity:1" />
      <path
         transform="matrix(1.458238,-1.667186,1.703921,1.4268,-157.099,309.3527)"
         d="M 152.8 128.95 A 2.25 0.64999998 0 1 1  148.3,128.95 A 2.25 0.64999998 0 1 1  152.8 128.95 z"
         sodipodi:ry="0.64999998"
         sodipodi:rx="2.25"
         sodipodi:cy="128.95"
         sodipodi:cx="150.55"
         id="path3276"
         style="fill:#ffffff;fill-opacity:1;fill-rule:evenodd;stroke:none;stroke-width:0.333;stroke-linecap:butt;stroke-linejoin:miter;stroke-miterlimit:4;stroke-dasharray:none;stroke-dashoffset:0;stroke-opacity:1"
         sodipodi:type="arc" />
      <path
         sodipodi:type="arc"
         style="fill:#ffffff;fill-opacity:1;fill-rule:evenodd;stroke:none;stroke-width:0.333;stroke-linecap:butt;stroke-linejoin:miter;stroke-miterlimit:4;stroke-dasharray:none;stroke-dashoffset:0;stroke-opacity:1"
         id="path3278"
         sodipodi:cx="150.55"
         sodipodi:cy="128.95"
         sodipodi:rx="2.25"
         sodipodi:ry="0.64999998"
         d="M 152.8 128.95 A 2.25 0.64999998 0 1 1  148.3,128.95 A 2.25 0.64999998 0 1 1  152.8 128.95 z"
         transform="matrix(1.458238,-1.667186,1.703921,1.4268,-149.9628,313.2902)" />
      <path
         transform="matrix(2.587427,-1.012318,1.117913,2.343026,-257.2619,103.3783)"
         d="M 163.00001 127.65 A 1.4 0.44999999 0 1 1  160.20001,127.65 A 1.4 0.44999999 0 1 1  163.00001 127.65 z"
         sodipodi:ry="0.44999999"
         sodipodi:rx="1.4"
         sodipodi:cy="127.65"
         sodipodi:cx="161.60001"
         id="path3280"
         style="fill:#ffffff;fill-opacity:1;fill-rule:evenodd;stroke:none;stroke-width:0.333;stroke-linecap:butt;stroke-linejoin:miter;stroke-miterlimit:4;stroke-dasharray:none;stroke-dashoffset:0;stroke-opacity:1"
         sodipodi:type="arc" />
      <path
         sodipodi:nodetypes="csszszszszssssssssszssssssssssszszsszssssssssszcscsczczczczcszczcssss"
         id="path3285"
         d="M 290.51639,233.25 C 285.16428,239.25 294.69151,237.97971 299.71827,235.875 C 305.53986,233.4375 305.79984,231.97976 312.58211,229.5 C 319.24878,227.0625 325.29978,225.05764 326.85441,224.53125 C 328.37821,224.01531 328.01342,221.62213 329.37573,221.42096 C 330.83747,221.20509 330.5196,223.52929 331.43896,223.50819 C 333.05531,223.47109 332.21499,220.17143 333.56483,220.20786 C 334.4599,220.23201 334.68998,223.73154 336.70791,223.47964 C 338.8093,223.21729 336.45088,220.0611 337.88307,219.9441 C 339.20756,219.83591 339.07212,223.09648 340.45621,222.86949 C 341.84031,222.64251 339.87507,219.5505 341.33614,219.32396 C 342.46115,219.14953 341.95261,222.72519 344.47144,221.99018 C 345.14799,221.79276 344.3657,219.16339 345.52055,219.03174 C 346.15191,218.95978 348.38138,221.45659 349.61315,221.41656 C 350.91801,221.37414 349.85546,216.76093 350.32859,216.65625 C 351.20072,216.46328 353.15152,220.28048 354.33591,219.70363 C 355.4957,219.13881 355.32633,215.67557 356.13522,215.87329 C 357.56864,216.22371 357.62008,219.30041 359.2143,218.80046 C 359.91538,218.5806 359.13764,215.5095 359.87683,215.07817 C 360.72076,214.58573 361.6838,216.45128 363.57689,216.12684 C 364.23583,216.01393 363.8197,213.21748 364.67829,212.65399 C 365.1009,212.37662 365.90723,214.82702 366.76472,215.62374 C 367.28665,216.10871 367.68087,212.39713 368.16571,212.27128 C 368.52902,212.17697 369.0075,215.70126 369.2763,215.71673 C 370.30197,215.77569 370.0566,212.31981 370.69037,212.16945 C 373.76415,211.44028 372.18096,214.64348 372.98703,214.54641 C 374.97566,214.30691 374.01993,211.83017 374.77572,211.66974 C 375.67042,211.47983 375.82541,214.30757 377.8372,213.99036 C 378.16819,213.93818 378.15307,211.03676 378.82111,210.76549 C 379.51959,210.48186 380.9062,212.83093 381.34828,212.0826 C 381.97559,211.02071 381.4015,208.80758 382.34941,208.51044 C 383.23467,208.23296 384.41448,212.0439 385.90593,211.79417 C 387.39739,211.54444 386.50169,209.16538 387.78071,208.58001 C 390.07183,207.53143 396.77194,209.57216 396.80745,207 C 396.82888,205.50414 379.62333,202.22038 370.75339,202.26201 C 367.81536,202.27581 368.49687,204.44751 367.43302,204.4062 C 365.39629,204.32711 364.38967,200.81826 363.95659,200.85784 C 361.49916,201.08246 364.78648,205.71621 363.49067,205.7769 C 362.50519,205.82306 360.31726,201.68021 359.71753,202.20681 C 358.79383,203.01786 359.56061,206.22362 358.44014,206.52435 C 357.85625,206.68106 355.87157,202.55094 355.43137,202.85006 C 353.8659,203.91377 355.63428,207.87623 354.09167,208.17182 C 352.3102,208.51318 351.27125,203.92778 349.95161,204.46044 C 348.03942,205.23229 350.18008,207.56083 348.60297,207.84103 C 346.88936,208.14548 347.22108,203.64414 346.00754,204.17835 C 343.94365,205.08688 346.83695,208.83671 345.36217,209.08718 C 342.77792,209.52602 343.88121,204.32989 342.77259,204.77578 C 339.54217,206.07504 342.32391,207.60008 342.06083,209.78222 C 339.30301,210.13809 337.3376,205.49747 336.67682,206.22613 C 335.69775,207.30578 336.58266,208.81222 336.84059,211.57232 C 334.55678,212.26005 331.87894,207.27394 331.00512,207.94639 C 329.43045,209.15816 331.27283,211.91325 331.93969,213.60043 C 329.54221,214.86409 328.72624,209.22146 327.37289,209.96529 C 326.01954,210.70913 326.60698,214.75472 326.83184,216.26512 C 324.56459,213.69144 323.82301,211.47739 321.3817,212.14513 C 318.99798,212.79712 322.97374,219.15949 323.36275,221.03936 C 321.67883,221.91951 317.72052,214.93054 316.23158,215.77262 C 314.74262,216.6147 315.07532,216.30896 318.8251,224.93749 C 314.94668,223.99843 313.61627,218.45286 312.04705,219.23655 C 310.47783,220.02024 312.17055,225.52937 312.36657,226.84701 C 311.40645,226.79593 310.21813,227.77384 309.95755,226.34383 C 309.31603,222.8232 307.86365,221.19354 307.51851,221.2815 C 305.2421,221.86166 305.83695,227.83978 305.90131,230.42046 C 304.23714,231.93943 303.2507,224.97167 303.01107,225.12966 C 301.79477,225.93158 302.29875,229.60976 302.54418,232.30541 C 298.64805,232.75944 298.31214,226.56296 297.38783,227.67366 C 295.57566,229.85121 297.46463,233.55484 296.29665,234.14199 C 295.59551,234.49447 294.38692,232.57581 293.01755,232.12609 C 292.10578,231.82663 290.91365,232.80465 290.51639,233.25 z "
         style="fill:#ffffff;fill-opacity:1;fill-rule:evenodd;stroke:none;stroke-width:1px;stroke-linecap:butt;stroke-linejoin:miter;stroke-opacity:1" />
      <path
         sodipodi:nodetypes="czzssssssssszsssssssssssssssszssssssz"
         id="path3292"
         d="M 401.32796,191.93584 C 402.40283,191.03591 403.02569,196.46083 405.0067,195.01909 C 406.98772,193.57733 402.38873,190.7061 404.88524,189.30244 C 407.52304,187.81933 405.65637,193.87198 410.18524,193.87112 C 410.53919,193.87104 408.12929,188.24141 408.99893,187.92448 C 411.35806,187.0647 413.61898,194.67934 413.85551,193.87371 C 414.43059,191.91495 413.13053,185.76376 413.90651,185.7488 C 415.01748,185.72739 416.92095,194.0961 417.27705,193.05593 C 417.95079,191.088 414.99812,184.85819 417.00839,184.0288 C 417.93233,183.64761 419.71626,191.24032 422.10277,192.50207 C 423.68424,193.33817 418.21878,184.23701 420.47622,182.77833 C 421.01662,182.42915 424.2064,191.21064 424.60138,191.19105 C 425.45992,191.14845 421.0049,182.71883 422.42272,181.85966 C 423.55134,181.17575 427.1276,189.32091 428.38189,187.73096 C 428.94946,187.01151 424.82127,183.48892 424.95543,181.609 C 425.0088,180.86122 428.73614,183.53283 428.51511,182.58825 C 428.30659,181.69713 425.57096,177.56938 426.43513,176.899 C 427.97569,175.70391 432.27847,181.94127 432.08101,181.15104 C 431.43466,178.56423 426.0618,172.45921 426.70061,172.73319 C 434.3669,176.02115 444.93877,189.3663 445.64044,190.3902 C 445.69971,190.47669 442.05763,192.37886 440.71295,192.06334 C 439.20876,191.71039 439.91862,189.14786 438.62091,189.5289 C 437.02439,189.99767 437.88837,193.14201 436.44356,193.01141 C 434.49631,192.83539 435.15442,189.12563 433.13898,189.70643 C 432.00245,190.03395 431.76219,193.93219 430.66097,194.66329 C 429.03517,195.74265 427.46647,196.33179 425.31628,196.80128 C 422.83885,197.34221 424.19265,194.37079 421.61861,195.25179 C 420.91866,195.49136 423.12067,197.51779 422.28306,198.15804 C 420.10028,199.82657 419.3617,196.99626 418.16321,197.35776 C 416.86805,197.74841 417.447,200.75511 415.06841,201.13174 C 412.5128,201.53638 411.5178,198.75658 410.29183,199.59711 C 408.48311,200.83716 408.30648,203.58349 406.95947,204.04667 C 405.50144,204.54804 406.18828,199.96862 404.90505,200.69432 C 404.02621,201.19133 403.56603,203.73962 402.79018,204.34438 C 399.75252,206.71213 396.98265,207.56115 396.79553,207.26222 C 395.72652,205.55447 399.02067,205.83527 400.87104,202.05326 C 402.22094,199.29418 400.25309,192.83576 401.32796,191.93584 z "
         style="fill:#e8d2d2;fill-opacity:1;fill-rule:evenodd;stroke:none;stroke-width:1px;stroke-linecap:butt;stroke-linejoin:miter;stroke-opacity:1" />
      <path
         sodipodi:nodetypes="ccsssssssssc"
         id="path3304"
         d="M 479.91723,163.13689 C 486.41867,155.98547 487.23413,155.78743 489.70246,152.31074 C 485.29469,148.30594 480.42412,141.37456 473.57005,140.60441 C 471.12992,140.33022 485.76646,150.35153 483.88558,151.14262 C 482.53939,151.70883 471.9647,140.95673 469.95627,142.29483 C 468.38228,143.34348 481.48981,152.80592 480.41283,153.41434 C 479.74744,153.79023 467.91238,141.60092 466.97058,143.03939 C 466.39122,143.92426 477.90977,155.29679 477.26371,155.4974 C 476.35678,155.77902 467.66042,145.30593 465.74694,146.63178 C 464.18579,147.7135 475.24656,156.28824 474.61856,156.50529 C 472.70542,157.1665 464.03424,146.67242 463.2559,147.73382 C 460.02194,152.14391 473.85655,157.34974 479.91723,163.13689 z "
         style="fill:#e8d2d2;fill-opacity:1;fill-rule:evenodd;stroke:none;stroke-width:1px;stroke-linecap:butt;stroke-linejoin:miter;stroke-opacity:1" />
      <path
         sodipodi:nodetypes="czszzzszssszssszzszzszssssszzssssz"
         id="path3307"
         d="M 505.32124,126.99708 C 504.66796,127.28476 502.76635,123.03174 502.27431,124.38034 C 501.87007,125.48828 504.27118,128.13717 503.78259,128.43544 C 503.20688,128.78693 500.40274,125.3787 499.84682,125.68802 C 498.73895,126.30444 502.64119,129.01774 501.65106,129.72928 C 500.66096,130.44081 499.43116,126.07593 498.15054,127.69679 C 496.90688,129.27088 500.47009,131.81975 499.48412,132.92677 C 498.79089,133.7051 497.22154,129.96723 495.79619,131.56181 C 494.41651,133.1053 498.72986,135.56886 498.04934,136.28792 C 496.15942,138.28491 495.45362,132.73911 493.78504,134.86352 C 492.88817,136.00538 495.42196,137.52591 494.43529,138.38155 C 493.16887,139.47981 490.5595,133.85619 488.54988,135.46243 C 486.62874,136.99795 492.32449,140.24061 491.53734,140.97044 C 490.8441,141.61318 486.35281,137.52802 485.81298,138.10577 C 484.23865,139.79071 488.7862,144.36615 487.84263,144.09747 C 485.4348,143.41186 482.17747,138.0183 480.65694,139.04128 C 479.17863,140.03584 486.59721,147.08867 487.5163,148.25438 C 490.24299,151.71273 492.88331,150.63888 493.96299,149.69609 C 494.23952,149.45462 490.73313,145.7806 492.02335,144.86676 C 493.69762,143.68089 493.45478,149.37379 495.71719,147.79783 C 497.97959,146.22186 492.34064,144.36712 495.33253,142.27479 C 495.79557,141.95096 497.88421,146.025 499.59185,145.05641 C 501.27996,144.0989 497.09893,141.6136 498.51213,140.74491 C 499.16701,140.34236 501.75942,144.29704 502.76793,143.42885 C 503.61471,142.69989 501.11735,139.01595 501.473,138.5694 C 501.78588,138.17654 504.98828,140.99091 505.16537,140.7941 C 506.56329,139.24051 503.07666,136.15524 504.71882,135.07834 C 505.77403,134.38635 506.96274,139.82549 508.57786,138.82163 C 510.19298,137.81777 507.54083,135.82125 508.8502,134.81577 C 510.15957,133.8103 511.35163,137.09922 513.41091,135.70185 C 516.50727,133.60078 518.27219,132.2987 518.32169,132.26438 C 518.83189,131.91063 514.86627,128.40276 510.92565,126.62033 C 509.66635,126.05072 506.48642,123.66079 505.56077,123.82491 C 504.56943,124.00067 505.85906,126.76024 505.32124,126.99708 z "
         style="fill:#ffffff;fill-opacity:1;fill-rule:evenodd;stroke:none;stroke-width:1px;stroke-linecap:butt;stroke-linejoin:miter;stroke-opacity:1" />
      <path
         sodipodi:nodetypes="cssssssssszsssszczsssszsssssszssssssssssssszsszc"
         id="path3310"
         d="M 524.70257,127.21316 C 524.70257,127.21316 526.99748,125.09187 531.83226,120.84583 C 532.32199,120.41573 534.22315,120.67923 534.65825,119.86744 C 535.00931,119.21248 533.88163,117.46487 534.34676,117.12728 C 535.19947,116.50837 537.47068,117.93615 538.31508,117.42568 C 540.47213,116.12166 536.70834,115.94552 537.92263,114.9774 C 538.57474,114.4575 539.81709,116.15059 541.36642,115.65791 C 542.2421,115.37945 538.90336,113.63557 539.75568,112.89167 C 540.34069,112.38108 543.26525,114.18346 544.52614,113.89734 C 545.67923,113.63568 543.0491,111.0703 543.54127,110.12668 C 544.39962,108.48102 549.46253,109.23193 551.97898,107.21777 C 553.32092,106.14369 555.41457,102.10084 559.51137,97.48458 C 561.00388,95.802804 563.83772,95.732424 565.70411,94.014261 C 568.43098,91.503952 570.26469,87.390928 572.51308,85.411417 C 574.45419,83.702451 577.50221,83.315057 579.35235,81.970485 C 585.79291,77.289915 590.2451,73.517987 592.80048,71.691739 C 599.11959,67.175642 601.27939,63.980094 603.74051,60.393782 C 601.13122,56.244969 599.03828,54.904633 595.52397,56.705839 C 592.15742,58.431311 596.67606,63.271673 594.93265,64.317469 C 594.53047,64.558719 592.83695,60.870328 591.99,61.523745 C 591.16942,62.156811 591.20108,67.141386 590.44348,66.81489 C 589.35896,66.347499 588.77043,62.328898 588.35776,62.937141 C 587.53622,64.148042 588.17473,69.417354 587.18309,69.848741 C 586.1353,70.304552 583.34613,67.335135 583.06857,67.944866 C 582.3934,69.428027 584.93543,72.884694 583.65776,72.828727 C 582.0848,72.759829 579.2408,68.144141 578.62063,68.868997 C 577.58249,70.08237 580.78399,74.447516 579.54891,74.414874 C 577.8075,74.368853 574.03941,68.811667 572.88548,69.405276 C 571.11011,70.318562 573.60944,75.300221 571.9574,75.476137 C 569.23982,75.765518 567.55519,71.689132 564.1584,73.523709 C 560.65057,75.418269 568.46042,79.552312 567.65579,80.207574 C 566.12405,81.454973 561.84709,76.025001 559.93883,77.009486 C 559.65055,77.158213 561.12431,81.289526 560.48707,81.447435 C 559.81181,81.614771 558.32505,77.920277 557.81408,78.769663 C 557.08403,79.983233 557.35261,83.410723 556.55892,83.737397 C 555.2716,84.267255 553.88307,80.279321 553.18197,81.163151 C 552.60565,81.889697 554.20867,84.205776 553.71909,84.857121 C 553.17346,85.583062 552.22743,83.43621 551.84123,84.329218 C 551.69844,84.659406 551.77389,87.475943 551.48016,87.736313 C 550.59098,88.524519 548.44135,87.564127 547.3803,88.040788 C 546.35455,88.501584 546.87716,91.043567 546.14167,91.921054 C 545.37325,92.83782 543.3519,92.100776 542.5045,93.063527 C 541.66409,94.01835 542.06364,95.743283 541.26914,96.733136 C 540.57697,97.595512 538.68434,97.719218 538.03741,98.600818 C 537.68005,99.087803 537.49893,102.33686 536.61863,103.30951 C 535.59053,104.44547 533.84804,103.36364 533.40522,104.6786 C 532.88067,106.23624 533.96755,109.11161 532.2744,111.24786 C 527.97373,116.67404 524.70257,127.21316 524.70257,127.21316 z "
         style="fill:#ffffff;fill-opacity:1;fill-rule:evenodd;stroke:none;stroke-width:1px;stroke-linecap:butt;stroke-linejoin:miter;stroke-opacity:1" />
      <path
         transform="matrix(1.874775,0.108696,-0.108867,1.871846,3.335123,-35.68592)"
         d="M 329.18309 29.730106 A 2.5833867 0.5713259 0 1 1  324.01631,29.730106 A 2.5833867 0.5713259 0 1 1  329.18309 29.730106 z"
         sodipodi:ry="0.5713259"
         sodipodi:rx="2.5833867"
         sodipodi:cy="29.730106"
         sodipodi:cx="326.5997"
         id="path3314"
         style="fill:#ffffff;fill-opacity:1;fill-rule:evenodd;stroke:none;stroke-width:0.333;stroke-linecap:butt;stroke-linejoin:miter;stroke-miterlimit:4;stroke-dasharray:none;stroke-dashoffset:0;stroke-opacity:1"
         sodipodi:type="arc" />
      <path
         transform="matrix(1.877934,0,0,1.875,-0.373187,-0.186302)"
         d="M 327.59329 31.667646 A 2.2853036 0.5713259 0 1 1  323.02268,31.667646 A 2.2853036 0.5713259 0 1 1  327.59329 31.667646 z"
         sodipodi:ry="0.5713259"
         sodipodi:rx="2.2853036"
         sodipodi:cy="31.667646"
         sodipodi:cx="325.30798"
         id="path3318"
         style="fill:#ffffff;fill-opacity:1;fill-rule:evenodd;stroke:none;stroke-width:0.333;stroke-linecap:butt;stroke-linejoin:miter;stroke-miterlimit:4;stroke-dasharray:none;stroke-dashoffset:0;stroke-opacity:1"
         sodipodi:type="arc" />
      <path
         transform="matrix(1.864223,-0.226161,0.250357,2.057237,-3.98301,66.97258)"
         d="M 326.69905 33.704548 A 1.7636582 0.47196487 0 1 1  323.17174,33.704548 A 1.7636582 0.47196487 0 1 1  326.69905 33.704548 z"
         sodipodi:ry="0.47196487"
         sodipodi:rx="1.7636582"
         sodipodi:cy="33.704548"
         sodipodi:cx="324.93539"
         id="path3320"
         style="fill:#ffffff;fill-opacity:1;fill-rule:evenodd;stroke:none;stroke-width:0.333;stroke-linecap:butt;stroke-linejoin:miter;stroke-miterlimit:4;stroke-dasharray:none;stroke-dashoffset:0;stroke-opacity:1"
         sodipodi:type="arc" />
    </g>
  </g>
</svg>
