<?xml version="1.0" encoding="utf-8"?>
<!-- Generator: Adobe Illustrator 15.0.2, SVG Export Plug-In . SVG Version: 6.00 Build 0)  -->
<!DOCTYPE svg PUBLIC "-//W3C//DTD SVG 1.1//EN" "http://www.w3.org/Graphics/SVG/1.1/DTD/svg11.dtd">
<svg version="1.1" xmlns="http://www.w3.org/2000/svg" xmlns:xlink="http://www.w3.org/1999/xlink" x="0px" y="0px"
	 width="956.482px" height="574px" viewBox="0 0 956.482 574" enable-background="new 0 0 956.482 574" xml:space="preserve">
<g id="flag">
	<rect id="rect3" x="0.329" fill="#0D4039" width="956.482" height="574"/>
</g>
<g id="centre_motif">
	<rect x="478.026" y="83.685" fill="#398541" width="401.99" height="410.565"/>
	<rect x="77.316" y="83.685" fill="#0866B7" width="400.71" height="410.525"/>
	<path id="path25" fill="#FFD649" d="M344.915,83.93c44.36-0.42,88.74-0.15,133.11-0.14c0.11,7.11,0.1,14.21,0.09,21.32
		c0,0.45,0,1.36,0,1.82c-2.319,1.17-4.62,2.38-6.779,3.81c-16,11-32.25,21.61-48.28,32.56c-26.33,17.41-52.21,35.5-78.73,52.6
		c-17.35-23.57-21.85-55.65-12.31-83.24C334.705,102.45,339.556,92.97,344.915,83.93z"/>
	<path id="path31" fill="#FFD649" d="M378.486,266.79c33.32-22.21,66.13-45.18,99.63-67.11c0.04,32.03-0.109,64.06,0.08,96.08
		c-0.01,1.03-0.02,2.051-0.029,3.08c-5.58,2.32-10.25,6.221-15.271,9.49c-36.08,24.24-72.18,48.47-108.26,72.72
		c-3.36,2.47-6.92,5.44-11.41,4.66c-0.75-0.95-1.51-1.89-2.26-2.819c-6.851-11.94-12.561-24.94-13.431-38.851
		c-1.439-14.72,2.23-29.479,8.351-42.79c2.64-4.26,4.24-9.811,9.17-12.01C356.426,282.11,367.376,274.32,378.486,266.79z"/>
	<path id="path35" fill="#FFD649" d="M346.205,480.45c43.931-29.44,87.49-59.42,131.461-88.81c0.199,4.119,0.529,8.239,0.479,12.369
		c-0.15,30.07,0.1,60.141-0.12,90.2c-46.46,0.1-92.93,0.1-139.39,0C340.406,489.32,341.415,483.39,346.205,480.45z"/>
	<path id="path39" fill="#fff" d="M77.646,198.04c44.01-30.61,87.92-61.37,131.96-91.93c13.91,8.57,27.16,18.16,40.83,27.1
		c30.92,20.74,61.77,41.63,92.75,62.29c4.81,4.92,7.71,11.37,10.76,17.46c3.78,7.15,5.351,15.17,7.01,23.01
		c2.37,18.98-4.199,38.48-16.34,53.091c-0.479,0.299-1.45,0.879-1.939,1.18c-3.87-0.16-6.65-3.45-9.721-5.44
		c-40.449-28.55-80.729-57.32-121.229-85.79c-29.75,20.63-59.71,40.96-89.47,61.58c-10.01,7.01-20.33,13.58-30.21,20.78
		c-4.92,3.24-9.561,6.91-14.73,9.739c-0.31-30.899,0.04-61.81-0.18-92.719L77.646,198.04z"/>
	<path id="path45" fill="#fff" d="M77.646,389.95c44.65-31.181,89.3-62.351,134.03-93.41c4.479,3,9.229,5.59,13.54,8.84
		c26.729,17.95,53.42,35.97,80.189,53.87c11.851,7.87,23.49,16.08,35.561,23.641c0.75,0.93,1.51,1.869,2.26,2.819
		c7.8,10.45,14.189,22.36,16.04,35.42c2.18,15.14,0.64,31.2-6.351,44.97c-2.239,5.471-5.859,10.17-8.97,15.15
		c-4.74-2.6-8.979-5.97-13.37-9.1c-32.43-22.92-64.819-45.9-97.209-68.881c-6.561-4.489-12.82-9.43-19.591-13.619
		c-13.409,8.68-26.27,18.18-39.62,26.959c-15.81,11.24-32.029,21.881-47.88,33.061c-16.449,10.94-32.39,22.64-48.97,33.35
		c-0.3-30.89,0.061-61.8-0.18-92.699L77.646,389.95z"/>
	<g id="g21">
		<g id="g23">
			<path id="path27" fill="#FFD649" d="M616.016,84c17.53-0.63,35.1-0.09,52.64-0.27c70.42,0.03,140.83-0.06,211.25,0.04
				c0.05,36.84,0.15,73.69-0.05,110.52c-6.18-3.48-11.79-7.85-17.63-11.85c-33.53-23.49-67.16-46.83-100.73-70.26
				c-4.479-3.22-8.909-6.5-13.689-9.26c-31.7,22.38-63.32,44.88-95.01,67.26c-12.11,8.54-24.08,17.28-36.36,25.56
				c-0.23-0.32-0.7-0.97-0.93-1.29c-6-9.47-11.261-19.6-13.67-30.62c-3.391-10.77-3.341-22.23-2.41-33.37
				C601.865,114.07,607.696,98.31,616.016,84z"/>
			<path id="path29" fill="#FFD649" d="M746.995,199.58c4.9,1.49,8.49,5.64,12.74,8.37c40.07,29.01,79.9,58.35,120.12,87.149
				c0.23,24.631,0.03,49.271,0.1,73.9c-0.02,4.891,0.12,9.79-0.199,14.68l-0.851-0.619c-33.05-23.051-66.13-46.051-99.18-69.11
				c-10.09-6.66-19.55-14.261-29.9-20.521c-42.31,29.87-84.63,59.73-126.75,89.851c-2.279,1.72-5.239,1.36-7.92,1.569
				c-0.52-0.699-1.04-1.39-1.56-2.08c-10.721-17.029-17.351-37.67-13.71-57.89c2.31-10.35,5.2-20.76,10.819-29.86
				c3.07-4.31,8.04-6.569,12.15-9.72C664.336,256.88,705.446,227.86,746.995,199.58z"/>
			<path id="path33" fill="#FFD649" d="M746.916,391.26c1.159-0.79,2.67-1.39,4-0.55c3.859,1.97,7.02,5.01,10.52,7.5
				c38.66,28,77.14,56.25,115.87,84.15c3.899,2.58,2.149,7.96,2.71,11.89c-87.771,0.07-175.55-0.03-263.32,0.05
				c-1.99-0.29-4.54,0.66-6.16-0.609l-0.069-0.771c1.38-4.18,2.81-8.79,6.46-11.57C660.245,451.31,703.625,421.33,746.916,391.26z"
				/>
		</g>
		<g id="g37">
			<path id="path41" fill="#fff" d="M478.115,105.11c28.92,18.85,57.82,37.74,86.74,56.59c16.92,10.85,33.47,22.3,50.65,32.75
				c0.229,0.32,0.699,0.97,0.93,1.29c12.77,17.97,20.64,41.02,15.03,63.01c-2.181,6.46-4.16,13.1-7.851,18.89
				c-3.24,5.57-6.89,11.34-12.88,14.27c-3.92-2.33-7.68-4.9-11.31-7.65c-37.53-26.81-75.09-53.55-112.59-80.38
				c-2.801-2.06-5.641-4.08-8.7-5.74c-0.021-30.4,0.01-60.81-0.021-91.21C478.115,106.47,478.115,105.56,478.115,105.11z"/>
			<path id="path43" fill="#fff" d="M478.196,295.76c4.221,0.71,7.55,3.49,11.061,5.7c41.359,27.24,83.04,54.01,124.34,81.31
				c0.52,0.69,1.04,1.381,1.56,2.08c5.47,7.4,10.5,15.37,13.17,24.25c1.57,5.541,3.79,11.01,3.891,16.851
				c0.08,7.79,0.659,15.81-1.95,23.31c-3.05,12.271-8.25,24.54-17.42,33.51c-40.561-28.75-80.96-57.72-121.44-86.58
				c-4.22-3.039-8.27-6.68-13.489-7.83c0.539-29.829,0.02-59.689,0.25-89.52C478.176,297.811,478.186,296.79,478.196,295.76z"/>
		</g>
	</g>
</g>
<g id="flowers">
	<path fill="#E6E6E6" stroke="#000" stroke-width="0.4694" d="M44.851,501.997c-2.57,3.106-18.831,12.487-7.302,16.594
		c4.152,1.479,0.245,5.313-0.438,5.759c-0.656,0.429-5.242,3.912-5.61-0.924c-0.961-12.62-14.429-0.124-18.269,1.51
		c2.4,3.999,6.521,22.156,14.077,11.502c2.188-3.086,4.371,0.748,4.942,2.451c0.823,2.452,0.914,6.326-2.74,5.272
		c-11.904-3.433-4.232,17.452-4.232,17.452c4.164-0.501,21.746,0.978,15.727-9.555c-1.973-3.452,1.502-3.977,3.738-4.126
		c2.37-0.159,5.619-0.049,3.424,3.804c-6.217,10.91,10.802,9.284,16.066,10.141c0.767-4.258,7.806-20.715-4.217-18.054
		c-4.208,0.932-3.26-2.879-2.525-4.712c0.644-1.606,1.456-6.197,4.695-2.369c8.022,9.482,11.553-7.872,14.085-11.766
		c-4.034-1.961-17.614-14.119-18.261-2.262c-0.241,4.374-3.686,2.744-5.561,1.461c-1.66-1.135-4.691-3.889-0.298-5.751
		C62.812,513.907,47.698,505.081,44.851,501.997z"/>
	<circle fill="#E6E6E6" stroke="#000" stroke-width="0.4694" cx="44.851" cy="535.002" r="6.601"/>
	<g id="g3478_1_">
		<path id="path3480_1_" fill="none" stroke="#7F7F7F" stroke-width="0.4694" d="M44.663,509.403
			c-0.087,11.36,0.066,11.831,0.066,11.831c-0.277,1.563-0.786,2.973-2.808,3.388"/>
		<path id="path3482_1_" fill="none" stroke="#7F7F7F" stroke-width="0.4694" d="M44.649,507.05
			c0.086,11.36-0.066,14.185-0.066,14.185c0.277,1.563,0.786,2.973,2.807,3.388"/>
	</g>
	<g id="g3484_1_" transform="matrix(0.309017,-0.9510565,0.9510565,0.309017,-427.41309,-89.162261)">
		<path id="path3486_1_" fill="none" stroke="#7F7F7F" stroke-width="0.4694" d="M-447.744,616.492
			c-0.086,11.361,0.067,11.832,0.067,11.832c-0.277,1.562-0.785,2.972-2.807,3.387"/>
		<path id="path3488_1_" fill="none" stroke="#7F7F7F" stroke-width="0.4694" d="M-447.758,614.139
			c0.086,11.36-0.067,14.186-0.067,14.186c0.277,1.562,0.785,2.972,2.807,3.386"/>
	</g>
	<g id="g3490_1_" transform="matrix(-0.809017,-0.5877853,0.5877853,-0.809017,-645.94207,290.5139)">
		<path id="path3492_1_" fill="none" stroke="#7F7F7F" stroke-width="0.4694" d="M-702.419,182.429
			c-0.087,11.361,0.067,11.832,0.067,11.832c-0.277,1.562-0.785,2.973-2.807,3.387"/>
		<path id="path3494_1_" fill="none" stroke="#7F7F7F" stroke-width="0.4694" d="M-702.434,180.076
			c0.086,11.36-0.066,14.186-0.066,14.186c0.277,1.562,0.786,2.972,2.807,3.387"/>
	</g>
	<g id="g3496_1_" transform="matrix(-0.809017,0.5877852,-0.5877852,-0.809017,-351.32062,614.44262)">
		<path id="path3498_1_" fill="none" stroke="#7F7F7F" stroke-width="0.4694" d="M-367.139-194.189
			c-0.086,11.36,0.067,11.831,0.067,11.831c-0.277,1.562-0.785,2.973-2.806,3.387"/>
		<path id="path3500_1_" fill="none" stroke="#7F7F7F" stroke-width="0.4694" d="M-367.153-196.543
			c0.086,11.36-0.066,14.185-0.066,14.185c0.277,1.562,0.785,2.971,2.807,3.387"/>
	</g>
	<g id="g3502_1_" transform="matrix(0.3090169,0.9510565,-0.9510565,0.3090169,48.413158,434.6425)">
		<path id="path3504_1_" fill="none" stroke="#7F7F7F" stroke-width="0.4694" d="M94.303,8.663
			c-0.086,11.36,0.067,11.831,0.067,11.831c-0.277,1.562-0.785,2.973-2.807,3.387"/>
		<path id="path3506_1_" fill="none" stroke="#7F7F7F" stroke-width="0.4694" d="M94.289,6.309
			c0.087,11.36-0.066,14.185-0.066,14.185c0.276,1.562,0.785,2.972,2.806,3.386"/>
	</g>
	<path id="path3153" fill="#B1B1B1" stroke="#7F7F7F" stroke-width="0.3521" d="M44.844,528.406c-3.644,0-6.595,2.949-6.594,6.594
		c0,3.644,2.95,6.594,6.594,6.594s6.594-2.949,6.594-6.594C51.438,531.356,48.488,528.406,44.844,528.406z"/>
	<path fill="#E6E6E6" stroke="#000" stroke-width="0.4694" d="M912.289,501.997c2.57,3.106,18.831,12.487,7.302,16.594
		c-4.151,1.479-0.245,5.313,0.438,5.759c0.657,0.429,5.243,3.912,5.611-0.924c0.96-12.62,14.428-0.124,18.269,1.51
		c-2.4,3.999-6.521,22.156-14.077,11.502c-2.189-3.086-4.371,0.748-4.942,2.451c-0.823,2.452-0.914,6.326,2.739,5.272
		c11.905-3.433,4.233,17.452,4.233,17.452c-4.165-0.501-21.746,0.978-15.727-9.555c1.973-3.452-1.503-3.977-3.738-4.126
		c-2.371-0.159-5.62-0.049-3.425,3.804c6.217,10.91-10.801,9.284-16.065,10.141c-0.767-4.258-7.806-20.715,4.217-18.054
		c4.208,0.932,3.259-2.879,2.525-4.712c-0.644-1.606-1.456-6.197-4.695-2.369c-8.022,9.482-11.553-7.872-14.085-11.766
		c4.033-1.961,17.613-14.119,18.26-2.262c0.242,4.374,3.686,2.744,5.562,1.461c1.66-1.135,4.691-3.889,0.297-5.751
		C894.329,513.907,909.444,505.081,912.289,501.997z"/>
	<circle fill="#E6E6E6" stroke="#000" stroke-width="0.4694" cx="912.289" cy="535.002" r="6.601"/>
	<path id="path3959" fill="none" stroke="#7F7F7F" stroke-width="0.4694" d="M912.478,509.403
		c0.086,11.36-0.066,11.831-0.066,11.831c0.277,1.563,0.786,2.973,2.807,3.388"/>
	<path id="path3961" fill="none" stroke="#7F7F7F" stroke-width="0.4694" d="M912.492,507.05
		c-0.087,11.36,0.066,14.185,0.066,14.185c-0.277,1.563-0.786,2.973-2.807,3.388"/>
	<g id="g3963" transform="matrix(0.309017,-0.9510565,0.9510565,0.309017,-427.41309,-89.162261)">
		<path id="path3965" fill="none" stroke="#7F7F7F" stroke-width="0.4694" d="M-164.669,1487.708c-6.747-9.14-6.9-9.61-6.9-9.61
			c-1.142-1.101-2.382-1.943-4.261-1.09"/>
		<path id="path3967" fill="none" stroke="#7F7F7F" stroke-width="0.4694" d="M-163.297,1489.621
			c-6.608-9.241-8.392-11.437-8.392-11.437c-0.694-1.427-1.112-2.866,0.28-4.39"/>
	</g>
	<g id="g3969" transform="matrix(-0.809017,-0.5877853,0.5877853,-0.809017,-645.94207,290.5139)">
		<path id="path3971" fill="none" stroke="#7F7F7F" stroke-width="0.4694" d="M-1428.94,710.278
			c10.831,3.428,11.233,3.719,11.233,3.719c1.571,0.219,3.069,0.172,4.089-1.623"/>
		<path id="path3973" fill="none" stroke="#7F7F7F" stroke-width="0.4694" d="M-1431.174,709.536
			c10.777,3.593,13.513,4.32,13.513,4.32c1.4,0.747,2.583,1.666,2.353,3.717"/>
	</g>
	<g id="g3975" transform="matrix(-0.809017,0.5877852,-0.5877852,-0.809017,-351.32062,614.44262)">
		<path id="path3977" fill="none" stroke="#7F7F7F" stroke-width="0.4694" d="M-1044.655-686.433
			c-10.778,3.592-11.273,3.592-11.273,3.592c-1.4,0.747-2.584,1.666-2.354,3.716"/>
		<path id="path3979" fill="none" stroke="#7F7F7F" stroke-width="0.4694" d="M-1042.413-687.147
			c-10.831,3.428-13.469,4.447-13.469,4.447c-1.572,0.218-3.069,0.171-4.089-1.624"/>
	</g>
	<g id="g3981" transform="matrix(0.3090169,0.9510565,-0.9510565,0.3090169,48.413158,434.6425)">
		<path id="path3983" fill="none" stroke="#7F7F7F" stroke-width="0.4694" d="M347.237-769.787c6.608-9.241,7.008-9.532,7.008-9.532
			c0.695-1.426,1.112-2.867-0.28-4.39"/>
		<path id="path3985" fill="none" stroke="#7F7F7F" stroke-width="0.4694" d="M345.841-767.891
			c6.747-9.14,8.284-11.515,8.284-11.515c1.141-1.102,2.382-1.943,4.26-1.09"/>
	</g>
	<path id="path3987" fill="#B1B1B1" stroke="#7F7F7F" stroke-width="0.3521" d="M912.297,528.406c3.644,0,6.595,2.949,6.594,6.594
		c0,3.644-2.95,6.594-6.594,6.594s-6.594-2.949-6.594-6.594C905.703,531.356,908.653,528.406,912.297,528.406z"/>
	<path fill="#E6E6E6" stroke="#000" stroke-width="0.4694" d="M478.34,10.898c-2.57,3.106-18.831,12.488-7.302,16.594
		c4.151,1.479,0.245,5.314-0.438,5.759c-0.657,0.429-5.243,3.912-5.611-0.924c-0.96-12.621-14.428-0.124-18.269,1.509
		c2.4,3.999,6.521,22.157,14.077,11.503c2.189-3.086,4.371,0.748,4.942,2.45c0.823,2.453,0.914,6.326-2.739,5.272
		c-11.905-3.432-4.233,17.453-4.233,17.453c4.165-0.501,21.746,0.977,15.727-9.555c-1.973-3.451,1.503-3.976,3.738-4.125
		c2.371-0.159,5.62-0.049,3.425,3.804c-6.217,10.91,10.801,9.284,16.065,10.141c0.767-4.259,7.806-20.715-4.217-18.054
		c-4.208,0.932-3.259-2.878-2.525-4.712c0.644-1.605,1.456-6.196,4.695-2.368c8.022,9.482,11.553-7.873,14.085-11.766
		c-4.033-1.961-17.613-14.12-18.26-2.261c-0.242,4.374-3.686,2.744-5.562,1.461c-1.66-1.135-4.691-3.889-0.297-5.751
		C496.3,22.809,481.186,13.982,478.34,10.898z"/>
	<circle fill="#E6E6E6" stroke="#000" stroke-width="0.4694" cx="478.34" cy="43.904" r="6.601"/>
	<g id="g3999">
		<path id="path4001" fill="none" stroke="#7F7F7F" stroke-width="0.4694" d="M478.152,18.305
			c-0.086,11.36,0.066,11.832,0.066,11.832c-0.277,1.562-0.786,2.972-2.807,3.387"/>
		<path id="path4003" fill="none" stroke="#7F7F7F" stroke-width="0.4694" d="M478.137,15.951
			c0.087,11.36-0.066,14.185-0.066,14.185c0.277,1.562,0.786,2.972,2.807,3.387"/>
	</g>
	<g id="g4005" transform="matrix(0.309017,-0.9510565,0.9510565,0.309017,-427.41309,-89.162261)">
		<path id="path4007" fill="none" stroke="#7F7F7F" stroke-width="0.4694" d="M153.275,877.007
			c-0.087,11.36,0.066,11.831,0.066,11.831c-0.277,1.562-0.785,2.972-2.807,3.387"/>
		<path id="path4009" fill="none" stroke="#7F7F7F" stroke-width="0.4694" d="M153.26,874.653
			c0.086,11.36-0.067,14.186-0.067,14.186c0.278,1.562,0.785,2.972,2.807,3.387"/>
	</g>
	<g id="g4011" transform="matrix(-0.809017,-0.5877853,0.5877853,-0.809017,-645.94207,290.5139)">
		<path id="path4013" fill="none" stroke="#7F7F7F" stroke-width="0.4694" d="M-764.458,834.534
			c-0.087,11.361,0.066,11.832,0.066,11.832c-0.277,1.562-0.785,2.972-2.807,3.387"/>
		<path id="path4015" fill="none" stroke="#7F7F7F" stroke-width="0.4694" d="M-764.473,832.181
			c0.086,11.36-0.067,14.186-0.067,14.186c0.278,1.562,0.787,2.972,2.808,3.386"/>
	</g>
	<g id="g4017" transform="matrix(-0.809017,0.5877852,-0.5877852,-0.809017,-351.32062,614.44262)">
		<path id="path4019" fill="none" stroke="#7F7F7F" stroke-width="0.4694" d="M-1006.499-51.68
			c-0.086,11.361,0.067,11.831,0.067,11.831c-0.278,1.562-0.786,2.972-2.807,3.387"/>
		<path id="path4021" fill="none" stroke="#7F7F7F" stroke-width="0.4694" d="M-1006.513-54.034
			c0.086,11.36-0.067,14.185-0.067,14.185c0.278,1.563,0.786,2.972,2.808,3.387"/>
	</g>
	<g id="g4023" transform="matrix(0.3090169,0.9510565,-0.9510565,0.3090169,48.413158,434.6425)">
		<path id="path4025" fill="none" stroke="#7F7F7F" stroke-width="0.4694" d="M-238.804-555.367
			c-0.087,11.36,0.066,11.831,0.066,11.831c-0.277,1.562-0.785,2.973-2.807,3.387"/>
		<path id="path4027" fill="none" stroke="#7F7F7F" stroke-width="0.4694" d="M-238.819-557.721
			c0.086,11.36-0.067,14.185-0.067,14.185c0.277,1.562,0.786,2.972,2.806,3.386"/>
	</g>
	<path id="path4029" fill="#B1B1B1" stroke="#7F7F7F" stroke-width="0.3521" d="M478.332,37.308c-3.644,0-6.595,2.949-6.594,6.594
		c0,3.644,2.95,6.594,6.594,6.594s6.594-2.95,6.594-6.594C484.926,40.258,481.977,37.308,478.332,37.308z"/>
	<g>
		<path id="path5000" fill="#3B8536" d="M456.115,565.294c-0.391-6,1.559-12.808,5.914-18.801s10.222-9.942,16.05-11.426
			c0.392,6.001-1.544,12.806-5.899,18.799C467.824,559.86,461.944,563.812,456.115,565.294z"/>
		<path id="path5002" fill="#3B8536" d="M499.808,565.125c-5.828-1.482-11.702-5.44-16.057-11.433
			c-4.354-5.993-6.299-12.793-5.908-18.793c5.829,1.481,11.703,5.424,16.059,11.418
			C498.257,552.313,500.198,559.125,499.808,565.125z"/>
		<path id="path5004" fill="#3B8536" d="M513.542,523.703c-3.211,5.084-8.79,9.446-15.837,11.736
			c-7.047,2.289-14.116,2.036-19.702-0.189c3.211-5.085,8.777-9.452,15.824-11.742C500.876,521.218,507.955,521.477,513.542,523.703
			z"/>
		<path id="path5006" fill="#3B8536" d="M477.939,497.839c3.843,4.625,6.269,11.278,6.269,18.687s-2.426,14.051-6.269,18.677
			c-3.844-4.626-6.279-11.267-6.278-18.677C471.66,509.116,474.094,502.464,477.939,497.839z"/>
		<path id="path5008" fill="#3B8536" d="M442.94,523.48c5.586-2.226,12.665-2.476,19.711-0.187
			c7.047,2.29,12.616,6.648,15.827,11.732c-5.587,2.226-12.657,2.489-19.704,0.199C451.727,532.937,446.151,528.565,442.94,523.48z"
			/>
		<g id="g5010" transform="matrix(0.170552,0.5248452,0.524905,-0.1705326,-32.149375,-42.617161)">
			<g id="g5012">
				<path id="path5014" fill="#D60000" stroke="#000" stroke-width="0.0325" d="M1282.51,586.71
					c14.325,0,14.853-7.291,13.133-10.273c-1.731-2.997-3.875-5.82-5.815-8.728c-6.635-10.564-9.143-9.952-14.859,0
					c-1.939,2.909-4.091,5.729-5.822,8.729C1267.424,579.418,1268.566,586.71,1282.51,586.71z"/>
				<g id="g5016">
					<g id="g5018">
						<path id="path5020" d="M1281,574.464c1.61,1.181,1.471,1.224,2.863,0c-0.479,1.419-0.955,2.839-1.431,4.259
							C1281.956,577.303,1281.477,575.882,1281,574.464z"/>
						<path id="path5022" fill="#3C4919" d="M1283.613,573.201c0.002,0.652-0.529,1.182-1.181,1.182
							c-0.653,0-1.182-0.528-1.182-1.182c0-0.651,0.75-1.793,1.182-2.536C1282.778,571.363,1283.614,572.55,1283.613,573.201z"/>
					</g>
					<g id="g5024">
						<path id="path5026" d="M1295.282,577.934c0.161,2.122-0.19,4.793-4.508,5.814c-2.096,0.566-4.778-0.503-8.345-0.394
							c-3.566-0.11-6.247,0.958-8.344,0.393c-4.317-1.021-4.668-3.691-4.509-5.642c-0.158,1.609,0.191,4.276,4.509,5.299
							c2.095,0.566,4.777-0.503,8.343-0.395c3.567-0.11,6.249,0.959,8.345,0.394
							C1295.093,582.385,1295.444,579.714,1295.282,577.934z"/>
						<path id="path5028" fill="#630000" d="M1295.282,577.285c0.161,2.122-0.188,4.792-4.508,5.813
							c-2.094,0.565-4.776-0.502-8.342-0.393c-3.567-0.11-6.248,0.958-8.344,0.393c-4.317-1.021-4.667-3.691-4.509-5.642
							c-0.158,1.609,0.322,3.882,4.639,4.904c2.096,0.565,4.603-1.553,8.17-1.443c3.565-0.109,6.203,2.009,8.299,1.445
							C1295.005,581.34,1295.443,579.065,1295.282,577.285z"/>
					</g>
				</g>
			</g>
			<g id="g5030" transform="matrix(0.309017,0.951056,-0.951056,0.309017,469.9921,-266.9364)">
				<path id="path5032" fill="#D60000" stroke="#000" stroke-width="0.0325" d="M1034.926-488.513
					c14.325,0,14.854-7.293,13.133-10.273c-1.73-2.998-3.875-5.82-5.814-8.728c-6.633-10.566-9.142-9.952-14.859,0
					c-1.939,2.907-4.091,5.73-5.821,8.728C1019.842-495.805,1020.981-488.513,1034.926-488.513z"/>
				<g id="g5034">
					<g id="g5036">
						<path id="path5038" d="M1033.417-500.76c1.612,1.182,1.472,1.226,2.863,0c-0.476,1.421-0.954,2.84-1.431,4.259
							C1034.37-497.92,1033.894-499.339,1033.417-500.76z"/>
						<path id="path5040" fill="#3C4919" d="M1036.03-502.02c0,0.653-0.529,1.182-1.182,1.182c-0.651,0-1.182-0.529-1.182-1.182
							s0.748-1.794,1.182-2.538C1035.195-503.858,1036.03-502.673,1036.03-502.02z"/>
					</g>
					<g id="g5042">
						<path id="path5044" d="M1047.699-497.286c0.161,2.124-0.189,4.792-4.507,5.813c-2.095,0.566-4.777-0.503-8.343-0.395
							c-3.567-0.108-6.25,0.961-8.344,0.395c-4.317-1.021-4.668-3.69-4.507-5.641c-0.161,1.609,0.189,4.279,4.507,5.298
							c2.095,0.566,4.777-0.503,8.344-0.393c3.565-0.11,6.248,0.959,8.343,0.393C1047.51-492.837,1047.86-495.508,1047.699-497.286z
							"/>
						<path id="path5046" fill="#630000" d="M1047.699-497.937c0.161,2.124-0.189,4.792-4.507,5.815
							c-2.095,0.565-4.777-0.504-8.343-0.395c-3.567-0.11-6.25,0.959-8.344,0.395c-4.317-1.021-4.668-3.691-4.507-5.641
							c-0.161,1.607,0.32,3.883,4.638,4.905c2.095,0.565,4.604-1.555,8.169-1.444c3.565-0.11,6.203,2.009,8.3,1.444
							C1047.423-493.881,1047.86-496.157,1047.699-497.937z"/>
					</g>
				</g>
			</g>
			<g id="g5048" transform="matrix(-0.809017,0.587785,-0.587785,-0.809017,865.9057,96.66981)">
				<path id="path5050" fill="#D60000" stroke="#000" stroke-width="0.0325" d="M-65.701-587.234
					c14.325,0,14.852-7.291,13.132-10.273c-1.731-2.998-3.875-5.819-5.814-8.728c-6.635-10.565-9.144-9.951-14.859,0
					c-1.94,2.908-4.091,5.729-5.823,8.729C-80.788-594.525-79.645-587.235-65.701-587.234z"/>
				<g id="g5052">
					<g id="g5054">
						<path id="path5056" d="M-67.211-599.481c1.611,1.182,1.47,1.225,2.864,0c-0.478,1.42-0.954,2.84-1.433,4.26
							C-66.257-596.641-66.735-598.061-67.211-599.481z"/>
						<path id="path5058" fill="#3C4919" d="M-64.597-600.741c-0.002,0.652-0.529,1.181-1.182,1.181
							c-0.653,0-1.181-0.529-1.183-1.182c0.001-0.651,0.749-1.794,1.183-2.536C-65.434-602.58-64.597-601.393-64.597-600.741z"/>
					</g>
					<g id="g5060">
						<path id="path5062" d="M-52.928-596.008c0.161,2.123-0.191,4.792-4.509,5.813c-2.095,0.566-4.777-0.503-8.343-0.395
							c-3.567-0.11-6.249,0.959-8.345,0.394c-4.318-1.022-4.668-3.69-4.506-5.643c-0.16,1.609,0.19,4.277,4.508,5.299
							c2.096,0.566,4.777-0.502,8.343-0.394c3.567-0.108,6.247,0.96,8.343,0.395C-53.119-591.559-52.767-594.228-52.928-596.008z"/>
						<path id="path5064" fill="#630000" d="M-52.929-596.658c0.161,2.123-0.19,4.792-4.507,5.814
							c-2.094,0.564-4.777-0.503-8.343-0.395c-3.567-0.108-6.249,0.959-8.343,0.394c-4.318-1.022-4.67-3.69-4.508-5.641
							c-0.16,1.608,0.322,3.883,4.64,4.905c2.094,0.563,4.602-1.554,8.167-1.445c3.567-0.11,6.206,2.009,8.3,1.443
							C-53.206-592.603-52.768-594.879-52.929-596.658z"/>
					</g>
				</g>
			</g>
			<g id="g5066" transform="matrix(-0.809017,-0.587785,0.587785,-0.809017,643.7921,588.5748)">
				<path id="path5068" fill="#D60000" stroke="#000" stroke-width="0.0325" d="M-497.585,430.23
					c14.323,0.001,14.852-7.29,13.132-10.272c-1.731-2.997-3.874-5.82-5.814-8.728c-6.634-10.566-9.144-9.953-14.86,0.001
					c-1.938,2.908-4.09,5.729-5.823,8.728C-512.671,422.94-511.528,430.229-497.585,430.23z"/>
				<g id="g5070">
					<g id="g5072">
						<path id="path5074" d="M-499.095,417.984c1.611,1.181,1.472,1.225,2.863,0c-0.477,1.418-0.953,2.838-1.431,4.258
							C-498.14,420.824-498.618,419.405-499.095,417.984z"/>
						<path id="path5076" fill="#3C4919" d="M-496.482,416.724c-0.001,0.651-0.529,1.18-1.181,1.18
							c-0.652,0.001-1.181-0.53-1.181-1.18c0-0.654,0.749-1.796,1.181-2.541C-497.316,414.886-496.48,416.071-496.482,416.724z"/>
					</g>
					<g id="g5078">
						<path id="path5080" d="M-484.812,421.456c0.159,2.123-0.19,4.792-4.508,5.813c-2.095,0.565-4.777-0.502-8.345-0.393
							c-3.566-0.11-6.247,0.958-8.343,0.393c-4.317-1.021-4.668-3.689-4.506-5.643c-0.161,1.609,0.19,4.278,4.507,5.3
							c2.096,0.565,4.777-0.504,8.344-0.395c3.565-0.109,6.248,0.961,8.344,0.395C-485.003,425.906-484.653,423.236-484.812,421.456
							z"/>
						<path id="path5082" fill="#630000" d="M-484.813,420.807c0.162,2.122-0.189,4.791-4.507,5.812
							c-2.096,0.566-4.777-0.502-8.345-0.393c-3.566-0.11-6.247,0.958-8.343,0.393c-4.318-1.022-4.668-3.689-4.507-5.642
							c-0.161,1.607,0.321,3.884,4.639,4.904c2.095,0.566,4.602-1.554,8.169-1.445c3.567-0.108,6.205,2.01,8.3,1.445
							C-485.091,424.862-484.651,422.587-484.813,420.807z"/>
					</g>
				</g>
			</g>
			<g id="g5084" transform="matrix(0.309017,-0.951057,0.951057,0.309017,108.7295,528.2566)">
				<path id="path5086" fill="#D60000" stroke="#000" stroke-width="0.0325" d="M335.538,1154.649
					c14.325,0,14.853-7.29,13.134-10.271c-1.731-2.999-3.875-5.821-5.816-8.73c-6.633-10.565-9.143-9.953-14.858-0.002
					c-1.94,2.91-4.091,5.73-5.824,8.73C320.454,1147.359,321.595,1154.65,335.538,1154.649z"/>
				<g id="g5088">
					<g id="g5090">
						<path id="path5092" d="M334.03,1142.402c1.612,1.183,1.472,1.225,2.864,0.002c-0.479,1.42-0.955,2.84-1.433,4.259
							C334.982,1145.243,334.507,1143.823,334.03,1142.402z"/>
						<path id="path5094" fill="#3C4919" d="M336.642,1141.143c-0.001,0.652-0.529,1.181-1.182,1.182
							c-0.654,0-1.183-0.529-1.181-1.18c0-0.654,0.748-1.794,1.182-2.539C335.807,1139.304,336.643,1140.49,336.642,1141.143z"/>
					</g>
					<g id="g5096">
						<path id="path5098" d="M348.312,1145.876c0.16,2.123-0.19,4.793-4.508,5.813c-2.096,0.565-4.777-0.504-8.343-0.393
							c-3.566-0.11-6.249,0.959-8.344,0.395c-4.319-1.02-4.669-3.69-4.508-5.642c-0.162,1.607,0.189,4.276,4.508,5.299
							c2.095,0.565,4.776-0.504,8.342-0.394c3.567-0.109,6.248,0.959,8.344,0.395
							C348.123,1150.324,348.472,1147.656,348.312,1145.876z"/>
						<path id="path5100" fill="#630000" d="M348.312,1145.226c0.162,2.122-0.189,4.792-4.507,5.814
							c-2.096,0.565-4.777-0.504-8.344-0.395c-3.567-0.108-6.249,0.96-8.344,0.395c-4.318-1.021-4.669-3.69-4.507-5.641
							c-0.161,1.609,0.32,3.884,4.638,4.905c2.096,0.564,4.603-1.555,8.171-1.446c3.567-0.109,6.203,2.009,8.298,1.445
							C348.036,1149.281,348.472,1147.006,348.312,1145.226z"/>
					</g>
				</g>
			</g>
		</g>
		<g id="g5102" transform="matrix(0.515626,-0.374624,0.374624,0.515626,-152.23292,203.26724)">
			<path id="path5104" fill="#3B8536" d="M493.02,965.847c-3.843,4.625-6.269,11.279-6.269,18.688
				c0.001,7.41,2.426,14.054,6.268,18.679c3.845-4.625,6.279-11.268,6.278-18.677C499.3,977.125,496.864,970.471,493.02,965.847z"/>
			<path id="path5106" fill="#3B8536" d="M528.269,991.664c-5.587-2.226-12.665-2.476-19.712-0.185
				c-7.047,2.288-12.617,6.649-15.828,11.733c5.587,2.226,12.656,2.489,19.704,0.199
				C519.483,1001.121,525.057,996.75,528.269,991.664z"/>
			<path id="path5108" fill="#3B8536" d="M515.03,1033.253c0.39-6.001-1.559-12.809-5.914-18.804
				c-4.355-5.994-10.223-9.943-16.05-11.426c-0.391,6.002,1.544,12.807,5.899,18.801
				C503.321,1027.819,509.201,1031.772,515.03,1033.253z"/>
			<path id="path5110" fill="#3B8536" d="M471.022,1033.251c5.827-1.482,11.701-5.44,16.055-11.434
				c4.354-5.993,6.299-12.793,5.907-18.795c-5.827,1.482-11.703,5.425-16.058,11.42
				C472.572,1020.438,470.631,1027.251,471.022,1033.251z"/>
			<path id="path5112" fill="#3B8536" d="M457.779,991.934c3.212,5.084,8.792,9.449,15.838,11.738
				c7.046,2.288,14.116,2.036,19.701-0.19c-3.21-5.086-8.776-9.453-15.824-11.743C470.447,989.448,463.367,989.708,457.779,991.934z
				"/>
		</g>
		<g id="g5116">
			<path id="path5118" fill="#fff" stroke="#000" stroke-width="0.0102" d="M509.911,545.315
				c4.939-15.2-2.615-18.275-6.371-17.477c-3.778,0.802-7.513,2.104-11.268,3.158c-13.496,3.397-13.711,6.271-5.123,15.769
				c2.418,3.06,4.669,6.316,7.255,9.187C496.975,558.808,505.106,560.109,509.911,545.315z"/>
			<g id="g5120">
				<g id="g5128">
					<path id="path5130" d="M505.006,528.736c2.308,0.561,5.02,1.853,4.614,6.787c-0.124,2.418-2.182,4.896-3.295,8.717
						c-1.346,3.747-1.136,6.961-2.459,8.989c-2.571,4.229-5.525,3.68-7.541,2.837c1.651,0.724,4.604,1.272,7.177-2.955
						c1.322-2.029,1.114-5.243,2.459-8.99c1.113-3.822,3.17-6.298,3.295-8.717C509.662,530.472,506.948,529.18,505.006,528.736z"/>
					<path id="path5132" fill="#3A6673" d="M504.317,528.513c2.307,0.563,5.021,1.854,4.614,6.787
						c-0.123,2.418-2.182,4.895-3.294,8.717c-1.346,3.747-1.139,6.96-2.459,8.99c-2.573,4.228-5.524,3.68-7.541,2.837
						c1.651,0.725,4.232,0.997,6.803-3.231c1.322-2.029-0.061-5.42,1.284-9.166c1.113-3.821,4.271-5.891,4.395-8.31
						C508.524,530.204,506.261,528.956,504.317,528.513z"/>
				</g>
			</g>
		</g>
		<path id="path5136" fill="#fff" stroke="#000" stroke-width="0.0102" d="M478.65,568.125
			c15.981,0,16.572-8.135,14.652-11.46c-1.933-3.346-4.324-6.493-6.487-9.739c-7.401-11.786-10.202-11.104-16.579,0
			c-2.163,3.245-4.564,6.394-6.495,9.739C461.822,559.99,463.096,568.125,478.65,568.125z"/>
		<path id="path5148" d="M492.902,558.335c0.18,2.369-0.211,5.348-5.028,6.488c-2.339,0.628-5.331-0.563-9.31-0.439
			c-3.979-0.123-6.972,1.068-9.309,0.439c-4.817-1.141-5.207-4.119-5.029-6.296c-0.179,1.795,0.212,4.773,5.029,5.912
			c2.337,0.63,5.33-0.562,9.309-0.439c3.979-0.121,6.971,1.069,9.31,0.439C492.69,563.3,493.081,560.321,492.902,558.335z"/>
		<path id="path5150" fill="#3A6673" d="M492.902,557.612c0.18,2.367-0.211,5.347-5.028,6.485c-2.339,0.632-5.331-0.562-9.31-0.439
			c-3.979-0.123-6.972,1.07-9.309,0.439c-4.817-1.139-5.207-4.118-5.029-6.293c-0.179,1.793,0.358,4.332,5.177,5.472
			c2.337,0.628,5.134-1.734,9.112-1.612c3.979-0.122,6.923,2.242,9.26,1.612C492.592,562.136,493.081,559.598,492.902,557.612z"/>
		<g id="g5152" transform="matrix(-0.809017,0.587785,-0.587785,-0.809017,865.9057,96.66981)">
			<path id="path5154" fill="#fff" stroke="#000" stroke-width="0.0102" d="M603.346-117.346
				c4.938-15.201-2.616-18.274-6.372-17.475c-3.778,0.803-7.512,2.105-11.265,3.159c-13.498,3.398-13.711,6.271-5.123,15.767
				c2.418,3.06,4.67,6.317,7.256,9.186C590.408-103.855,598.538-102.551,603.346-117.346z"/>
			<g id="g5156">
				<g id="g5164">
					<path id="path5166" d="M598.44-133.924c2.307,0.562,5.019,1.853,4.613,6.787c-0.121,2.418-2.181,4.895-3.295,8.716
						c-1.345,3.746-1.136,6.962-2.459,8.989c-2.57,4.229-5.524,3.681-7.539,2.837c1.65,0.726,4.603,1.273,7.175-2.956
						c1.322-2.029,1.114-5.243,2.459-8.989c1.113-3.822,3.172-6.298,3.295-8.716C603.094-132.189,600.382-133.481,598.44-133.924z"
						/>
					<path id="path5168" fill="#3A6673" d="M597.75-134.148c2.306,0.56,5.02,1.853,4.615,6.786
						c-0.124,2.418-2.181,4.895-3.294,8.717c-1.346,3.747-1.139,6.961-2.459,8.989c-2.573,4.229-5.526,3.682-7.542,2.839
						c1.65,0.724,4.231,0.998,6.805-3.232c1.32-2.028-0.063-5.418,1.284-9.165c1.113-3.82,4.271-5.89,4.394-8.309
						C601.958-132.457,599.694-133.706,597.75-134.148z"/>
				</g>
			</g>
		</g>
		<g id="g5170" transform="matrix(-0.809017,-0.587785,0.587785,-0.809017,643.7921,588.5748)">
			<path id="path5172" fill="#fff" stroke="#000" stroke-width="0.0102" d="M196.51-44.472
				c4.938-15.2-2.616-18.276-6.373-17.477c-3.779,0.802-7.512,2.105-11.266,3.159c-13.496,3.398-13.712,6.271-5.123,15.767
				c2.418,3.059,4.67,6.317,7.255,9.188C183.572-30.982,191.702-29.679,196.51-44.472z"/>
			<g id="g5174">
				<g id="g5182">
					<path id="path5184" d="M191.602-61.053c2.309,0.561,5.021,1.853,4.615,6.786c-0.122,2.419-2.181,4.897-3.294,8.718
						c-1.345,3.748-1.137,6.96-2.459,8.989c-2.572,4.229-5.526,3.679-7.54,2.837c1.651,0.724,4.605,1.274,7.175-2.956
						c1.321-2.028,1.114-5.243,2.459-8.988c1.113-3.823,3.171-6.3,3.294-8.717C196.258-59.317,193.546-60.609,191.602-61.053z"/>
					<path id="path5186" fill="#3A6673" d="M190.913-61.277c2.309,0.563,5.02,1.854,4.616,6.787
						c-0.124,2.418-2.181,4.896-3.295,8.717c-1.347,3.747-1.137,6.96-2.46,8.99c-2.572,4.229-5.525,3.682-7.54,2.837
						c1.652,0.725,4.232,0.998,6.805-3.231c1.322-2.029-0.062-5.42,1.283-9.166c1.113-3.821,4.271-5.891,4.394-8.309
						C195.121-59.585,192.857-60.833,190.913-61.277z"/>
				</g>
			</g>
		</g>
		<g id="g5188" transform="matrix(0.309017,-0.951057,0.951057,0.309017,108.7295,528.2566)">
			<path id="path5190" fill="#fff" stroke="#000" stroke-width="0.0102" d="M139.038,363.655
				c4.94-15.2-2.616-18.275-6.371-17.476c-3.776,0.804-7.51,2.104-11.266,3.16c-13.497,3.4-13.712,6.272-5.123,15.769
				c2.418,3.06,4.672,6.316,7.254,9.186C126.1,377.147,134.23,378.449,139.038,363.655z"/>
			<g id="g5192">
				<g id="g5200">
					<path id="path5202" d="M134.132,347.076c2.307,0.563,5.019,1.854,4.614,6.786c-0.123,2.418-2.18,4.897-3.294,8.718
						c-1.346,3.747-1.137,6.959-2.459,8.989c-2.572,4.229-5.526,3.68-7.54,2.837c1.65,0.724,4.603,1.274,7.177-2.956
						c1.32-2.03,1.112-5.244,2.457-8.988c1.114-3.823,3.171-6.3,3.296-8.72C138.789,348.811,136.075,347.519,134.132,347.076z"/>
					<path id="path5204" fill="#3A6673" d="M133.443,346.852c2.307,0.562,5.019,1.853,4.615,6.788
						c-0.125,2.418-2.181,4.895-3.295,8.716c-1.346,3.746-1.137,6.961-2.458,8.988c-2.571,4.231-5.525,3.682-7.542,2.839
						c1.652,0.725,4.233,0.999,6.804-3.231c1.322-2.027-0.061-5.418,1.285-9.164c1.114-3.822,4.27-5.891,4.394-8.31
						C137.65,348.544,135.386,347.295,133.443,346.852z"/>
				</g>
			</g>
		</g>
		<g>
			<path id="path5006_1_" fill="#3B8536" d="M467.188,521.236c2.819,0.717,5.658,2.631,7.765,5.529
				c2.105,2.897,3.045,6.187,2.856,9.088c-2.819-0.717-5.659-2.623-7.766-5.522C467.938,527.433,466.998,524.139,467.188,521.236z"
				/>
			<path id="path5006_2_" fill="#3B8536" d="M460.624,541.438c1.553-2.459,4.25-4.568,7.657-5.676s6.824-0.984,9.527,0.092
				c-1.553,2.46-4.243,4.572-7.652,5.679C466.749,542.639,463.326,542.515,460.624,541.438z"/>
			<path id="path5006_3_" fill="#3B8536" d="M477.809,553.923c-1.859-2.236-3.032-5.454-3.032-9.036
				c0-3.583,1.173-6.796,3.032-9.033c1.858,2.237,3.037,5.449,3.035,9.033C480.844,548.469,479.666,551.686,477.809,553.923z"/>
			<path id="path5006_4_" fill="#3B8536" d="M494.992,541.438c-2.701,1.077-6.123,1.197-9.531,0.091
				c-3.407-1.107-6.101-3.214-7.652-5.675c2.701-1.076,6.119-1.204,9.527-0.096C490.743,536.865,493.44,538.979,494.992,541.438z"/>
			<path id="path5006_5_" fill="#3B8536" d="M488.429,521.236c0.189,2.901-0.753,6.194-2.859,9.093
				c-2.104,2.898-4.942,4.808-7.761,5.524c-0.189-2.901,0.745-6.191,2.853-9.091C482.767,523.865,485.609,521.954,488.429,521.236z"
				/>
			<g>
				<path fill="#D60000" stroke="#630000" stroke-width="0.5" d="M489.766,540.544c2.373,3.942,1.915,8.689-1.178,10.933
					c-3.095,2.258-7.742,1.211-10.754-2.243c-3.027,3.454-7.675,4.501-10.77,2.243c-3.094-2.243-3.551-6.99-1.18-10.933
					c-4.221-1.785-6.66-5.894-5.466-9.542c1.18-3.635,5.55-5.532,10.034-4.501c0.409-4.584,3.552-8.151,7.381-8.151
					c3.813,0,6.972,3.552,7.381,8.134c4.485-1.014,8.839,0.884,10.034,4.519C496.426,534.65,494.004,538.759,489.766,540.544z"/>
				<g id="g5298" transform="matrix(0.9289434,-0.6749165,0.6749165,0.9289434,-307.31563,331.53466)">
					<g id="g5338" transform="translate(3.559399,3.243637)">
						<path id="path5340" fill="#EED706" stroke="#6B2910" stroke-width="0.25" d="M450.207,542.392
							c0,2.755-2.235,4.989-4.988,4.988c-2.755,0-4.989-2.233-4.99-4.989c0-2.755,2.235-4.989,4.989-4.989
							C447.974,537.403,450.206,539.637,450.207,542.392L450.207,542.392z"/>
					</g>
				</g>
			</g>
		</g>
	</g>
	<g>
		<path id="path5000_1_" fill="#3B8536" d="M19.45,72.201c-0.391-6,1.559-12.808,5.914-18.801s10.222-9.942,16.05-11.426
			c0.392,6.001-1.544,12.806-5.899,18.799C31.159,66.767,25.278,70.718,19.45,72.201z"/>
		<path id="path5002_1_" fill="#3B8536" d="M63.143,72.032c-5.828-1.482-11.702-5.44-16.057-11.433
			c-4.354-5.993-6.299-12.793-5.908-18.793c5.829,1.481,11.703,5.424,16.059,11.418C61.592,59.22,63.533,66.032,63.143,72.032z"/>
		<path id="path5004_1_" fill="#3B8536" d="M76.877,30.61c-3.211,5.084-8.79,9.446-15.837,11.736
			c-7.047,2.289-14.116,2.036-19.702-0.189c3.211-5.085,8.777-9.452,15.824-11.742C64.211,28.125,71.29,28.383,76.877,30.61z"/>
		<path id="path5006_11_" fill="#3B8536" d="M41.274,4.746c3.843,4.625,6.269,11.278,6.269,18.687s-2.426,14.051-6.269,18.677
			c-3.844-4.626-6.279-11.267-6.278-18.677C34.995,16.023,37.429,9.371,41.274,4.746z"/>
		<path id="path5008_1_" fill="#3B8536" d="M6.275,30.387c5.586-2.226,12.665-2.476,19.711-0.187
			c7.047,2.29,12.616,6.648,15.827,11.732c-5.587,2.226-12.657,2.489-19.704,0.199C15.062,39.843,9.485,35.472,6.275,30.387z"/>
		<g id="g5010_1_" transform="matrix(0.170552,0.5248452,0.524905,-0.1705326,-32.149375,-42.617161)">
			<g id="g5012_1_">
				<path id="path5014_1_" fill="#D60000" stroke="#000" stroke-width="0.0325" d="M188.234,110.368
					c14.325,0,14.853-7.291,13.133-10.273c-1.731-2.997-3.875-5.82-5.815-8.728c-6.635-10.564-9.143-9.952-14.859,0
					c-1.939,2.909-4.091,5.729-5.822,8.729C173.149,103.076,174.29,110.368,188.234,110.368z"/>
				<g id="g5016_1_">
					<g id="g5018_1_">
						<path id="path5020_1_" d="M186.724,98.122c1.61,1.181,1.471,1.224,2.864,0c-0.479,1.419-0.955,2.839-1.431,4.259
							C187.68,100.961,187.202,99.54,186.724,98.122z"/>
						<path id="path5022_1_" fill="#3C4919" d="M189.337,96.859c0.002,0.652-0.529,1.182-1.181,1.182
							c-0.653,0-1.182-0.528-1.182-1.182c0-0.651,0.75-1.793,1.182-2.536C188.502,95.021,189.338,96.208,189.337,96.859z"/>
					</g>
					<g id="g5024_1_">
						<path id="path5026_1_" d="M201.006,101.593c0.161,2.122-0.19,4.793-4.508,5.814c-2.096,0.566-4.778-0.503-8.345-0.394
							c-3.566-0.11-6.247,0.958-8.344,0.393c-4.317-1.021-4.668-3.691-4.509-5.642c-0.158,1.609,0.191,4.276,4.509,5.299
							c2.095,0.566,4.777-0.503,8.343-0.395c3.567-0.11,6.249,0.959,8.345,0.394C200.817,106.043,201.168,103.373,201.006,101.593z"
							/>
						<path id="path5028_1_" fill="#630000" d="M201.006,100.943c0.161,2.122-0.188,4.792-4.508,5.813
							c-2.094,0.565-4.776-0.502-8.342-0.393c-3.567-0.11-6.247,0.958-8.344,0.393c-4.317-1.021-4.668-3.691-4.509-5.642
							c-0.158,1.609,0.322,3.882,4.639,4.904c2.096,0.565,4.603-1.553,8.17-1.443c3.565-0.109,6.203,2.009,8.299,1.445
							C200.729,104.998,201.167,102.723,201.006,100.943z"/>
					</g>
				</g>
			</g>
			<g id="g5030_1_" transform="matrix(0.309017,0.951056,-0.951056,0.309017,469.9921,-266.9364)">
				<path id="path5032_1_" fill="#D60000" stroke="#000" stroke-width="0.0325" d="M243.748,405.008
					c14.325,0,14.854-7.293,13.132-10.273c-1.73-2.998-3.875-5.82-5.814-8.728c-6.633-10.566-9.142-9.952-14.859,0
					c-1.939,2.907-4.091,5.73-5.821,8.728C228.664,397.715,229.803,405.008,243.748,405.008z"/>
				<g id="g5034_1_">
					<g id="g5036_1_">
						<path id="path5038_1_" d="M242.238,392.76c1.612,1.182,1.472,1.226,2.863,0c-0.476,1.421-0.954,2.84-1.431,4.259
							C243.192,395.6,242.716,394.181,242.238,392.76z"/>
						<path id="path5040_1_" fill="#3C4919" d="M244.852,391.5c0,0.653-0.529,1.182-1.182,1.182c-0.651,0-1.182-0.529-1.182-1.182
							c0-0.653,0.748-1.794,1.182-2.538C244.017,389.662,244.852,390.847,244.852,391.5z"/>
					</g>
					<g id="g5042_1_">
						<path id="path5044_1_" d="M256.521,396.234c0.161,2.124-0.189,4.792-4.507,5.813c-2.095,0.566-4.777-0.503-8.343-0.395
							c-3.567-0.108-6.25,0.961-8.344,0.395c-4.317-1.021-4.668-3.69-4.507-5.642c-0.161,1.609,0.189,4.279,4.507,5.298
							c2.095,0.566,4.777-0.503,8.344-0.393c3.565-0.11,6.248,0.959,8.343,0.393C256.332,400.683,256.682,398.012,256.521,396.234z"
							/>
						<path id="path5046_1_" fill="#630000" d="M256.521,395.583c0.161,2.124-0.189,4.792-4.507,5.815
							c-2.095,0.564-4.777-0.504-8.343-0.395c-3.567-0.11-6.25,0.959-8.344,0.395c-4.317-1.021-4.668-3.691-4.507-5.642
							c-0.161,1.607,0.32,3.883,4.638,4.905c2.095,0.565,4.604-1.555,8.169-1.444c3.565-0.11,6.204,2.008,8.3,1.444
							C256.245,399.639,256.682,397.363,256.521,395.583z"/>
					</g>
				</g>
			</g>
			<g id="g5048_1_" transform="matrix(-0.809017,0.587785,-0.587785,-0.809017,865.9057,96.66981)">
				<path id="path5050_1_" fill="#D60000" stroke="#000" stroke-width="0.0325" d="M539.599,441.333
					c14.325,0,14.852-7.291,13.132-10.273c-1.731-2.998-3.875-5.819-5.814-8.728c-6.635-10.565-9.144-9.951-14.859,0
					c-1.94,2.908-4.091,5.729-5.823,8.729C524.513,434.043,525.656,441.333,539.599,441.333z"/>
				<g id="g5052_1_">
					<g id="g5054_1_">
						<path id="path5056_1_" d="M538.09,429.087c1.611,1.182,1.47,1.225,2.864,0c-0.478,1.42-0.954,2.84-1.433,4.26
							C539.044,431.927,538.566,430.506,538.09,429.087z"/>
						<path id="path5058_1_" fill="#3C4919" d="M540.704,427.826c-0.002,0.652-0.529,1.181-1.182,1.181
							c-0.653,0-1.181-0.529-1.183-1.182c0.001-0.651,0.749-1.794,1.183-2.536C539.867,425.988,540.704,427.175,540.704,427.826z"/>
					</g>
					<g id="g5060_1_">
						<path id="path5062_1_" d="M552.373,432.559c0.161,2.123-0.191,4.792-4.509,5.813c-2.095,0.566-4.777-0.503-8.343-0.395
							c-3.567-0.11-6.249,0.959-8.345,0.394c-4.318-1.022-4.668-3.69-4.506-5.643c-0.16,1.609,0.19,4.277,4.508,5.299
							c2.096,0.566,4.777-0.502,8.343-0.394c3.567-0.108,6.247,0.96,8.343,0.395C552.182,437.009,552.534,434.34,552.373,432.559z"
							/>
						<path id="path5064_1_" fill="#630000" d="M552.372,431.91c0.161,2.123-0.19,4.792-4.507,5.814
							c-2.094,0.564-4.777-0.503-8.343-0.395c-3.567-0.108-6.249,0.959-8.343,0.394c-4.318-1.022-4.669-3.69-4.508-5.641
							c-0.16,1.608,0.322,3.883,4.64,4.905c2.094,0.563,4.602-1.554,8.167-1.445c3.567-0.11,6.206,2.009,8.3,1.443
							C552.095,435.964,552.533,433.688,552.372,431.91z"/>
					</g>
				</g>
			</g>
			<g id="g5066_1_" transform="matrix(-0.809017,-0.587785,0.587785,-0.809017,643.7921,588.5748)">
				<path id="path5068_1_" fill="#D60000" stroke="#000" stroke-width="0.0325" d="M667.689,172.4
					c14.323,0.001,14.852-7.29,13.132-10.272c-1.731-2.997-3.874-5.82-5.814-8.728c-6.634-10.566-9.144-9.953-14.86,0.001
					c-1.938,2.908-4.09,5.729-5.823,8.727C652.604,165.11,653.746,172.399,667.689,172.4z"/>
				<g id="g5070_1_">
					<g id="g5072_1_">
						<path id="path5074_1_" d="M666.18,160.154c1.611,1.181,1.472,1.225,2.863,0c-0.477,1.418-0.953,2.838-1.431,4.258
							C667.135,162.994,666.657,161.575,666.18,160.154z"/>
						<path id="path5076_1_" fill="#3C4919" d="M668.792,158.894c-0.001,0.651-0.529,1.18-1.181,1.18s-1.181-0.53-1.181-1.18
							c0-0.654,0.749-1.796,1.181-2.541C667.958,157.056,668.794,158.241,668.792,158.894z"/>
					</g>
					<g id="g5078_1_">
						<path id="path5080_1_" d="M680.463,163.626c0.159,2.123-0.19,4.792-4.508,5.813c-2.094,0.565-4.777-0.502-8.345-0.393
							c-3.566-0.11-6.247,0.958-8.343,0.393c-4.317-1.021-4.668-3.689-4.506-5.643c-0.161,1.609,0.19,4.278,4.506,5.3
							c2.096,0.565,4.777-0.504,8.344-0.395c3.565-0.109,6.248,0.961,8.344,0.395C680.272,168.076,680.622,165.406,680.463,163.626z
							"/>
						<path id="path5082_1_" fill="#630000" d="M680.461,162.977c0.162,2.122-0.189,4.791-4.507,5.812
							c-2.096,0.566-4.777-0.502-8.345-0.393c-3.566-0.11-6.247,0.958-8.343,0.393c-4.318-1.022-4.668-3.689-4.507-5.642
							c-0.161,1.607,0.321,3.884,4.639,4.904c2.095,0.566,4.602-1.554,8.169-1.445c3.567-0.108,6.205,2.01,8.3,1.445
							C680.184,167.032,680.623,164.757,680.461,162.977z"/>
					</g>
				</g>
			</g>
			<g id="g5084_1_" transform="matrix(0.309017,-0.951057,0.951057,0.309017,108.7295,528.2566)">
				<path id="path5086_1_" fill="#D60000" stroke="#000" stroke-width="0.0325" d="M450.416-33.266
					c14.325,0,14.853-7.29,13.134-10.271c-1.731-2.999-3.875-5.821-5.816-8.73c-6.633-10.565-9.143-9.953-14.858-0.002
					c-1.94,2.91-4.091,5.73-5.824,8.731C435.332-40.556,436.474-33.265,450.416-33.266z"/>
				<g id="g5088_1_">
					<g id="g5090_1_">
						<path id="path5092_1_" d="M448.908-45.513c1.612,1.183,1.472,1.225,2.864,0.002c-0.479,1.42-0.955,2.84-1.433,4.259
							C449.861-42.672,449.385-44.092,448.908-45.513z"/>
						<path id="path5094_1_" fill="#3C4919" d="M451.521-46.772c-0.001,0.652-0.529,1.18-1.182,1.182
							c-0.654,0-1.183-0.529-1.181-1.18c0-0.654,0.748-1.794,1.182-2.539C450.686-48.611,451.522-47.425,451.521-46.772z"/>
					</g>
					<g id="g5096_1_">
						<path id="path5098_1_" d="M463.19-42.039c0.16,2.123-0.19,4.793-4.508,5.812c-2.096,0.565-4.777-0.504-8.343-0.393
							c-3.566-0.11-6.249,0.96-8.344,0.395c-4.319-1.02-4.669-3.69-4.508-5.642c-0.162,1.607,0.189,4.276,4.508,5.299
							c2.095,0.565,4.776-0.504,8.342-0.394c3.567-0.109,6.248,0.96,8.344,0.395C463.001-37.591,463.35-40.259,463.19-42.039z"/>
						<path id="path5100_1_" fill="#630000" d="M463.19-42.689c0.162,2.122-0.189,4.792-4.507,5.814
							c-2.096,0.565-4.777-0.504-8.344-0.395c-3.567-0.108-6.249,0.96-8.344,0.395c-4.318-1.021-4.669-3.69-4.507-5.641
							c-0.161,1.609,0.32,3.884,4.638,4.905c2.096,0.564,4.603-1.555,8.171-1.446c3.567-0.109,6.203,2.009,8.298,1.445
							C462.915-38.634,463.351-40.909,463.19-42.689z"/>
					</g>
				</g>
			</g>
		</g>
		<g id="g5102_1_" transform="matrix(0.515626,-0.374624,0.374624,0.515626,-152.23292,203.26724)">
			<path id="path5104_1_" fill="#3B8536" d="M393.488-62.767c-3.843,4.625-6.268,11.279-6.269,18.688
				c0.001,7.41,2.426,14.054,6.268,18.679c3.845-4.625,6.279-11.267,6.278-18.677C399.767-51.489,397.331-58.144,393.488-62.767z"/>
			<path id="path5106_1_" fill="#3B8536" d="M428.737-36.951c-5.587-2.226-12.665-2.476-19.712-0.185
				c-7.047,2.288-12.617,6.649-15.828,11.733c5.587,2.226,12.656,2.489,19.704,0.199C419.951-27.494,425.524-31.865,428.737-36.951z
				"/>
			<path id="path5108_1_" fill="#3B8536" d="M415.498,4.638c0.39-6.001-1.559-12.809-5.914-18.804
				c-4.355-5.994-10.223-9.943-16.05-11.426c-0.391,6.002,1.544,12.807,5.899,18.801C403.788-0.795,409.669,3.157,415.498,4.638z"/>
			<path id="path5110_1_" fill="#3B8536" d="M371.49,4.636c5.827-1.482,11.701-5.44,16.055-11.434
				c4.355-5.993,6.299-12.793,5.907-18.795c-5.827,1.482-11.703,5.425-16.058,11.42C373.04-8.177,371.099-1.364,371.49,4.636z"/>
			<path id="path5112_1_" fill="#3B8536" d="M358.247-36.68c3.212,5.084,8.792,9.449,15.838,11.738
				c7.046,2.288,14.116,2.036,19.701-0.19c-3.21-5.086-8.776-9.453-15.824-11.743C370.915-39.166,363.834-38.907,358.247-36.68z"/>
		</g>
		<g id="g5116_1_">
			<path id="path5118_1_" fill="#fff" stroke="#000" stroke-width="0.0102" d="M73.246,52.222
				c4.939-15.2-2.615-18.275-6.371-17.477c-3.778,0.802-7.513,2.104-11.268,3.158c-13.496,3.397-13.711,6.271-5.123,15.769
				c2.418,3.06,4.669,6.316,7.255,9.187C60.31,65.714,68.44,67.016,73.246,52.222z"/>
			<g id="g5120_1_">
				<g id="g5128_1_">
					<path id="path5130_1_" d="M68.341,35.643c2.308,0.561,5.02,1.853,4.614,6.787c-0.124,2.418-2.182,4.896-3.295,8.717
						c-1.346,3.747-1.136,6.961-2.459,8.989c-2.571,4.229-5.525,3.68-7.541,2.837c1.651,0.724,4.604,1.272,7.177-2.955
						c1.322-2.029,1.114-5.243,2.459-8.99c1.113-3.822,3.17-6.298,3.295-8.717C72.997,37.378,70.283,36.086,68.341,35.643z"/>
					<path id="path5132_1_" fill="#3A6673" d="M67.651,35.419c2.307,0.563,5.021,1.854,4.614,6.787
						c-0.123,2.418-2.182,4.895-3.294,8.717c-1.346,3.747-1.139,6.96-2.459,8.99c-2.573,4.228-5.524,3.68-7.541,2.837
						c1.651,0.725,4.232,0.997,6.803-3.231c1.322-2.029-0.061-5.42,1.284-9.166c1.113-3.821,4.271-5.891,4.395-8.31
						C71.858,37.111,69.596,35.863,67.651,35.419z"/>
				</g>
			</g>
		</g>
		<path id="path5136_1_" fill="#fff" stroke="#000" stroke-width="0.0102" d="M41.984,75.032
			c15.981,0,16.572-8.135,14.652-11.46c-1.933-3.346-4.324-6.493-6.487-9.739c-7.401-11.786-10.202-11.104-16.579,0
			c-2.163,3.245-4.564,6.394-6.495,9.739C25.156,66.897,26.431,75.032,41.984,75.032z"/>
		<path id="path5148_1_" d="M56.236,65.242c0.18,2.369-0.211,5.348-5.028,6.488c-2.339,0.628-5.331-0.563-9.31-0.439
			c-3.979-0.123-6.972,1.068-9.309,0.439c-4.817-1.141-5.207-4.119-5.029-6.296c-0.179,1.795,0.212,4.773,5.029,5.912
			c2.337,0.63,5.33-0.562,9.309-0.439c3.979-0.121,6.971,1.069,9.31,0.439C56.024,70.207,56.416,67.228,56.236,65.242z"/>
		<path id="path5150_1_" fill="#3A6673" d="M56.236,64.519c0.18,2.367-0.211,5.347-5.028,6.485c-2.339,0.632-5.331-0.562-9.31-0.439
			c-3.979-0.123-6.972,1.07-9.309,0.439c-4.817-1.139-5.207-4.118-5.029-6.293c-0.179,1.793,0.358,4.332,5.177,5.472
			c2.337,0.628,5.134-1.734,9.112-1.612c3.979-0.122,6.923,2.242,9.26,1.612C55.927,69.043,56.416,66.504,56.236,64.519z"/>
		<g id="g5152_1_" transform="matrix(-0.809017,0.587785,-0.587785,-0.809017,865.9057,96.66981)">
			<path id="path5154_1_" fill="#fff" stroke="#000" stroke-width="0.0102" d="M666.783,538.24
				c4.938-15.201-2.616-18.274-6.372-17.475c-3.778,0.803-7.512,2.105-11.265,3.159c-13.498,3.398-13.711,6.271-5.123,15.767
				c2.418,3.06,4.67,6.317,7.256,9.186C653.845,551.731,661.975,553.035,666.783,538.24z"/>
			<g id="g5156_1_">
				<g id="g5164_1_">
					<path id="path5166_1_" d="M661.877,521.662c2.307,0.562,5.019,1.853,4.613,6.787c-0.121,2.418-2.181,4.895-3.295,8.716
						c-1.345,3.746-1.136,6.962-2.459,8.989c-2.57,4.229-5.524,3.681-7.539,2.837c1.65,0.726,4.603,1.273,7.175-2.956
						c1.322-2.029,1.114-5.243,2.459-8.989c1.113-3.822,3.172-6.298,3.295-8.716C666.531,523.398,663.819,522.105,661.877,521.662z"
						/>
					<path id="path5168_1_" fill="#3A6673" d="M661.186,521.438c2.306,0.56,5.02,1.853,4.615,6.786
						c-0.124,2.418-2.181,4.895-3.294,8.717c-1.346,3.747-1.139,6.961-2.459,8.989c-2.573,4.229-5.526,3.682-7.542,2.839
						c1.65,0.724,4.231,0.998,6.805-3.232c1.32-2.028-0.063-5.418,1.283-9.165c1.113-3.82,4.271-5.89,4.394-8.309
						C665.395,523.129,663.131,521.881,661.186,521.438z"/>
				</g>
			</g>
		</g>
		<g id="g5170_1_" transform="matrix(-0.809017,-0.587785,0.587785,-0.809017,643.7921,588.5748)">
			<path id="path5172_1_" fill="#fff" stroke="#000" stroke-width="0.0102" d="M839.613,97.783
				c4.938-15.2-2.616-18.276-6.372-17.477c-3.779,0.802-7.512,2.105-11.266,3.159c-13.496,3.398-13.712,6.271-5.123,15.767
				c2.418,3.059,4.67,6.317,7.255,9.188C826.674,111.273,834.805,112.576,839.613,97.783z"/>
			<g id="g5174_1_">
				<g id="g5182_1_">
					<path id="path5184_1_" d="M834.705,81.203c2.309,0.561,5.021,1.853,4.615,6.786c-0.122,2.419-2.181,4.897-3.294,8.718
						c-1.345,3.748-1.137,6.96-2.459,8.989c-2.572,4.229-5.526,3.679-7.54,2.837c1.651,0.724,4.605,1.274,7.175-2.956
						c1.321-2.028,1.114-5.243,2.459-8.988c1.113-3.823,3.171-6.3,3.294-8.717C839.36,82.938,836.649,81.647,834.705,81.203z"/>
					<path id="path5186_1_" fill="#3A6673" d="M834.016,80.979c2.309,0.563,5.021,1.854,4.616,6.787
						c-0.124,2.418-2.181,4.896-3.295,8.717c-1.347,3.747-1.137,6.96-2.46,8.99c-2.572,4.229-5.525,3.682-7.54,2.837
						c1.652,0.725,4.232,0.998,6.805-3.231c1.322-2.029-0.062-5.42,1.283-9.166c1.113-3.821,4.271-5.891,4.394-8.309
						C838.223,82.671,835.959,81.422,834.016,80.979z"/>
				</g>
			</g>
		</g>
		<g id="g5188_1_" transform="matrix(0.309017,-0.951057,0.951057,0.309017,108.7295,528.2566)">
			<path id="path5190_1_" fill="#fff" stroke="#000" stroke-width="0.0102" d="M473.06-204.012
				c4.94-15.2-2.616-18.275-6.371-17.476c-3.776,0.804-7.51,2.104-11.266,3.16c-13.497,3.4-13.712,6.272-5.123,15.769
				c2.418,3.06,4.672,6.316,7.254,9.186C460.123-190.52,468.253-189.218,473.06-204.012z"/>
			<g id="g5192_1_">
				<g id="g5200_1_">
					<path id="path5202_1_" d="M468.155-220.591c2.307,0.563,5.019,1.854,4.614,6.786c-0.123,2.418-2.18,4.897-3.294,8.718
						c-1.346,3.747-1.136,6.959-2.459,8.989c-2.572,4.229-5.526,3.68-7.54,2.837c1.65,0.724,4.603,1.274,7.177-2.956
						c1.32-2.03,1.112-5.244,2.457-8.988c1.114-3.823,3.171-6.3,3.296-8.72C472.811-218.856,470.098-220.148,468.155-220.591z"/>
					<path id="path5204_1_" fill="#3A6673" d="M467.466-220.815c2.307,0.562,5.019,1.853,4.615,6.788
						c-0.125,2.418-2.181,4.895-3.295,8.716c-1.346,3.746-1.137,6.961-2.458,8.988c-2.571,4.231-5.525,3.682-7.542,2.839
						c1.652,0.725,4.233,0.999,6.804-3.231c1.322-2.027-0.061-5.418,1.285-9.164c1.114-3.822,4.27-5.891,4.394-8.31
						C471.672-219.123,469.409-220.372,467.466-220.815z"/>
				</g>
			</g>
		</g>
		<g>
			<path id="path5006_10_" fill="#3B8536" d="M30.522,28.143c2.819,0.717,5.658,2.631,7.765,5.529
				c2.105,2.897,3.045,6.187,2.856,9.088c-2.819-0.717-5.659-2.623-7.766-5.522C31.272,34.339,30.333,31.045,30.522,28.143z"/>
			<path id="path5006_9_" fill="#3B8536" d="M23.959,48.344c1.553-2.459,4.25-4.568,7.657-5.676s6.824-0.984,9.527,0.092
				c-1.553,2.46-4.243,4.572-7.652,5.679C30.084,49.545,26.661,49.421,23.959,48.344z"/>
			<path id="path5006_8_" fill="#3B8536" d="M41.144,60.83c-1.859-2.236-3.032-5.454-3.032-9.036c0-3.583,1.173-6.796,3.032-9.033
				c1.858,2.237,3.037,5.449,3.035,9.033C44.179,55.376,43.001,58.592,41.144,60.83z"/>
			<path id="path5006_7_" fill="#3B8536" d="M58.327,48.344c-2.701,1.077-6.123,1.197-9.531,0.091
				c-3.407-1.107-6.101-3.214-7.652-5.675c2.701-1.076,6.119-1.204,9.527-0.096C54.078,43.772,56.774,45.885,58.327,48.344z"/>
			<path id="path5006_6_" fill="#3B8536" d="M51.764,28.143c0.189,2.901-0.753,6.194-2.859,9.093
				c-2.104,2.898-4.942,4.808-7.761,5.524c-0.189-2.901,0.745-6.191,2.853-9.091C46.102,30.772,48.944,28.861,51.764,28.143z"/>
			<g>
				<path fill="#D60000" stroke="#630000" stroke-width="0.5" d="M53.101,47.451c2.373,3.942,1.915,8.689-1.178,10.933
					c-3.095,2.258-7.742,1.211-10.754-2.243c-3.027,3.454-7.675,4.501-10.77,2.243c-3.094-2.243-3.551-6.99-1.18-10.933
					c-4.221-1.785-6.66-5.894-5.466-9.542c1.18-3.635,5.55-5.532,10.034-4.501c0.409-4.584,3.552-8.151,7.381-8.151
					c3.813,0,6.972,3.552,7.381,8.134c4.485-1.014,8.839,0.884,10.034,4.519C59.761,41.557,57.339,45.666,53.101,47.451z"/>
				<g id="g5298_1_" transform="matrix(0.9289434,-0.6749165,0.6749165,0.9289434,-307.31563,331.53466)">
					<g id="g5338_1_" transform="translate(3.559399,3.243637)">
						<path id="path5340_1_" fill="#EED706" stroke="#6B2910" stroke-width="0.25" d="M394.96-28.558
							c0,2.755-2.235,4.989-4.988,4.988c-2.755,0-4.989-2.233-4.99-4.989c0-2.755,2.235-4.989,4.989-4.989
							C392.727-33.547,394.96-31.313,394.96-28.558L394.96-28.558z"/>
					</g>
				</g>
			</g>
		</g>
	</g>
	<g>
		<path id="path5000_2_" fill="#3B8536" d="M891.501,72.201c-0.391-6,1.559-12.808,5.914-18.801s10.222-9.942,16.05-11.426
			c0.392,6.001-1.544,12.806-5.899,18.799C903.21,66.767,897.329,70.718,891.501,72.201z"/>
		<path id="path5002_2_" fill="#3B8536" d="M935.193,72.032c-5.828-1.482-11.702-5.44-16.057-11.433
			c-4.354-5.993-6.299-12.793-5.908-18.793c5.829,1.481,11.703,5.424,16.059,11.418C933.643,59.22,935.584,66.032,935.193,72.032z"
			/>
		<path id="path5004_2_" fill="#3B8536" d="M948.928,30.61c-3.211,5.084-8.79,9.446-15.837,11.736
			c-7.047,2.289-14.116,2.036-19.702-0.189c3.211-5.085,8.777-9.452,15.824-11.742C936.262,28.125,943.341,28.383,948.928,30.61z"/>
		<path id="path5006_17_" fill="#3B8536" d="M913.324,4.746c3.843,4.625,6.269,11.278,6.269,18.687s-2.426,14.051-6.269,18.677
			c-3.844-4.626-6.279-11.267-6.278-18.677C907.046,16.023,909.479,9.371,913.324,4.746z"/>
		<path id="path5008_2_" fill="#3B8536" d="M878.325,30.387c5.586-2.226,12.665-2.476,19.711-0.187
			c7.047,2.29,12.616,6.648,15.827,11.732c-5.587,2.226-12.657,2.489-19.704,0.199C887.112,39.843,881.536,35.472,878.325,30.387z"
			/>
		<g id="g5010_2_" transform="matrix(0.170552,0.5248452,0.524905,-0.1705326,-32.149375,-42.617161)">
			<g id="g5012_2_">
				<path id="path5014_2_" fill="#D60000" stroke="#000" stroke-width="0.0325" d="M676.493,1613.072
					c14.325,0,14.853-7.291,13.133-10.273c-1.731-2.997-3.875-5.82-5.815-8.728c-6.635-10.564-9.143-9.952-14.859,0
					c-1.939,2.909-4.091,5.729-5.822,8.729C661.408,1605.78,662.55,1613.072,676.493,1613.072z"/>
				<g id="g5016_2_">
					<g id="g5018_2_">
						<path id="path5020_2_" d="M674.984,1600.826c1.61,1.181,1.471,1.224,2.864,0c-0.479,1.419-0.955,2.839-1.432,4.259
							C675.94,1603.665,675.461,1602.245,674.984,1600.826z"/>
						<path id="path5022_2_" fill="#3C4919" d="M677.597,1599.564c0.002,0.652-0.529,1.182-1.181,1.182
							c-0.653,0-1.182-0.528-1.182-1.182c0-0.651,0.75-1.793,1.182-2.536C676.762,1597.725,677.598,1598.912,677.597,1599.564z"/>
					</g>
					<g id="g5024_2_">
						<path id="path5026_2_" d="M689.266,1604.297c0.161,2.123-0.19,4.793-4.508,5.814c-2.096,0.566-4.778-0.503-8.345-0.394
							c-3.565-0.11-6.247,0.958-8.344,0.393c-4.317-1.021-4.667-3.691-4.509-5.642c-0.158,1.609,0.191,4.276,4.509,5.299
							c2.095,0.566,4.777-0.503,8.343-0.395c3.567-0.11,6.249,0.959,8.345,0.394
							C689.077,1608.747,689.428,1606.077,689.266,1604.297z"/>
						<path id="path5028_2_" fill="#630000" d="M689.266,1603.648c0.161,2.122-0.188,4.792-4.508,5.813
							c-2.094,0.565-4.776-0.502-8.342-0.393c-3.567-0.11-6.247,0.958-8.344,0.393c-4.317-1.021-4.667-3.691-4.509-5.642
							c-0.158,1.609,0.322,3.882,4.639,4.904c2.096,0.565,4.603-1.553,8.17-1.443c3.565-0.109,6.203,2.009,8.299,1.445
							C688.988,1607.702,689.427,1605.428,689.266,1603.648z"/>
					</g>
				</g>
			</g>
			<g id="g5030_2_" transform="matrix(0.309017,0.951056,-0.951056,0.309017,469.9921,-266.9364)">
				<path id="path5032_2_" fill="#D60000" stroke="#000" stroke-width="0.0325" d="M1823.786,405.008
					c14.325,0,14.854-7.293,13.132-10.273c-1.73-2.998-3.875-5.82-5.814-8.728c-6.633-10.566-9.142-9.952-14.859,0
					c-1.939,2.907-4.091,5.73-5.821,8.728C1808.702,397.715,1809.841,405.008,1823.786,405.008z"/>
				<g id="g5034_2_">
					<g id="g5036_2_">
						<path id="path5038_2_" d="M1822.276,392.76c1.612,1.182,1.472,1.226,2.863,0c-0.476,1.421-0.954,2.84-1.432,4.259
							C1823.23,395.6,1822.754,394.181,1822.276,392.76z"/>
						<path id="path5040_2_" fill="#3C4919" d="M1824.89,391.5c0,0.653-0.529,1.182-1.182,1.182c-0.651,0-1.182-0.529-1.182-1.182
							c0-0.653,0.748-1.794,1.182-2.538C1824.055,389.662,1824.89,390.847,1824.89,391.5z"/>
					</g>
					<g id="g5042_2_">
						<path id="path5044_2_" d="M1836.559,396.234c0.161,2.124-0.189,4.792-4.507,5.813c-2.095,0.566-4.777-0.503-8.343-0.395
							c-3.567-0.108-6.25,0.961-8.344,0.395c-4.317-1.021-4.668-3.69-4.507-5.642c-0.161,1.609,0.189,4.279,4.507,5.298
							c2.095,0.566,4.777-0.503,8.344-0.393c3.565-0.11,6.248,0.959,8.343,0.393C1836.37,400.683,1836.72,398.012,1836.559,396.234z
							"/>
						<path id="path5046_2_" fill="#630000" d="M1836.559,395.583c0.161,2.124-0.189,4.792-4.507,5.815
							c-2.095,0.564-4.777-0.504-8.343-0.395c-3.567-0.11-6.25,0.959-8.344,0.395c-4.317-1.021-4.668-3.691-4.507-5.642
							c-0.161,1.607,0.32,3.883,4.638,4.905c2.095,0.565,4.604-1.555,8.169-1.444c3.565-0.11,6.204,2.008,8.3,1.444
							C1836.283,399.639,1836.72,397.363,1836.559,395.583z"/>
					</g>
				</g>
			</g>
			<g id="g5048_2_" transform="matrix(-0.809017,0.587785,-0.587785,-0.809017,865.9057,96.66981)">
				<path id="path5050_2_" fill="#D60000" stroke="#000" stroke-width="0.0325" d="M1027.857-1061.372
					c14.325,0,14.852-7.291,13.132-10.273c-1.731-2.998-3.875-5.819-5.814-8.728c-6.635-10.565-9.144-9.951-14.859,0
					c-1.94,2.908-4.091,5.729-5.823,8.729C1012.771-1068.662,1013.914-1061.372,1027.857-1061.372z"/>
				<g id="g5052_2_">
					<g id="g5054_2_">
						<path id="path5056_2_" d="M1026.348-1073.619c1.611,1.182,1.47,1.225,2.863,0c-0.478,1.42-0.954,2.84-1.432,4.26
							C1027.302-1070.778,1026.824-1072.199,1026.348-1073.619z"/>
						<path id="path5058_2_" fill="#3C4919" d="M1028.962-1074.879c-0.002,0.652-0.529,1.181-1.182,1.181
							c-0.653,0-1.181-0.529-1.182-1.182c0.001-0.651,0.749-1.794,1.183-2.536
							C1028.125-1076.717,1028.961-1075.53,1028.962-1074.879z"/>
					</g>
					<g id="g5060_2_">
						<path id="path5062_2_" d="M1040.631-1070.146c0.161,2.123-0.191,4.792-4.509,5.813c-2.095,0.566-4.777-0.503-8.343-0.395
							c-3.567-0.109-6.249,0.959-8.345,0.394c-4.318-1.022-4.668-3.69-4.506-5.643c-0.16,1.609,0.19,4.277,4.508,5.299
							c2.096,0.566,4.777-0.502,8.343-0.394c3.567-0.108,6.247,0.96,8.343,0.395
							C1040.439-1065.697,1040.791-1068.366,1040.631-1070.146z"/>
						<path id="path5064_2_" fill="#630000" d="M1040.63-1070.796c0.161,2.123-0.189,4.792-4.507,5.814
							c-2.094,0.564-4.777-0.503-8.343-0.395c-3.567-0.108-6.249,0.959-8.343,0.394c-4.318-1.021-4.669-3.69-4.508-5.641
							c-0.16,1.608,0.322,3.883,4.64,4.905c2.094,0.563,4.602-1.554,8.167-1.445c3.567-0.11,6.206,2.009,8.301,1.443
							C1040.353-1066.741,1040.791-1069.017,1040.63-1070.796z"/>
					</g>
				</g>
			</g>
			<g id="g5066_2_" transform="matrix(-0.809017,-0.587785,0.587785,-0.809017,643.7921,588.5748)">
				<path id="path5068_2_" fill="#D60000" stroke="#000" stroke-width="0.0325" d="M-610.588-756.323
					c14.323,0.001,14.852-7.29,13.132-10.272c-1.731-2.997-3.874-5.82-5.814-8.728c-6.634-10.566-9.144-9.953-14.86,0.001
					c-1.938,2.908-4.09,5.729-5.823,8.727C-625.674-763.613-624.531-756.323-610.588-756.323z"/>
				<g id="g5070_2_">
					<g id="g5072_2_">
						<path id="path5074_2_" d="M-612.098-768.569c1.611,1.181,1.472,1.225,2.863,0c-0.477,1.418-0.953,2.838-1.431,4.258
							C-611.143-765.729-611.621-767.148-612.098-768.569z"/>
						<path id="path5076_2_" fill="#3C4919" d="M-609.485-769.829c-0.001,0.651-0.529,1.18-1.181,1.18s-1.181-0.53-1.181-1.18
							c0-0.654,0.749-1.796,1.181-2.541C-610.319-771.667-609.483-770.482-609.485-769.829z"/>
					</g>
					<g id="g5078_2_">
						<path id="path5080_2_" d="M-597.814-765.097c0.159,2.123-0.19,4.792-4.508,5.813c-2.094,0.565-4.777-0.502-8.345-0.393
							c-3.566-0.11-6.247,0.958-8.343,0.393c-4.317-1.021-4.668-3.689-4.506-5.643c-0.161,1.609,0.19,4.278,4.507,5.3
							c2.096,0.565,4.777-0.504,8.344-0.395c3.565-0.109,6.248,0.961,8.344,0.395C-598.005-760.647-597.655-763.317-597.814-765.097
							z"/>
						<path id="path5082_2_" fill="#630000" d="M-597.816-765.745c0.162,2.122-0.189,4.791-4.507,5.812
							c-2.096,0.566-4.777-0.502-8.345-0.393c-3.566-0.11-6.247,0.958-8.343,0.393c-4.318-1.022-4.668-3.689-4.507-5.642
							c-0.161,1.607,0.321,3.884,4.639,4.904c2.095,0.566,4.602-1.554,8.169-1.445c3.567-0.108,6.205,2.01,8.3,1.445
							C-598.093-761.69-597.654-763.966-597.816-765.745z"/>
					</g>
				</g>
			</g>
			<g id="g5084_2_" transform="matrix(0.309017,-0.951057,0.951057,0.309017,108.7295,528.2566)">
				<path id="path5086_2_" fill="#D60000" stroke="#000" stroke-width="0.0325" d="M-827.86,895.457
					c14.325,0,14.853-7.29,13.134-10.271c-1.731-2.999-3.875-5.821-5.816-8.73c-6.633-10.565-9.143-9.953-14.858-0.002
					c-1.94,2.91-4.091,5.73-5.824,8.731C-842.944,888.167-841.803,895.457-827.86,895.457z"/>
				<g id="g5088_2_">
					<g id="g5090_2_">
						<path id="path5092_2_" d="M-829.368,883.21c1.612,1.183,1.472,1.225,2.864,0.002c-0.479,1.42-0.955,2.84-1.433,4.259
							C-828.415,886.05-828.891,884.63-829.368,883.21z"/>
						<path id="path5094_2_" fill="#3C4919" d="M-826.755,881.95c-0.001,0.652-0.529,1.18-1.182,1.182
							c-0.654,0-1.183-0.529-1.181-1.18c0-0.654,0.748-1.794,1.182-2.539C-827.59,880.111-826.755,881.298-826.755,881.95z"/>
					</g>
					<g id="g5096_2_">
						<path id="path5098_2_" d="M-815.086,886.683c0.16,2.123-0.19,4.793-4.508,5.813c-2.096,0.565-4.777-0.504-8.343-0.393
							c-3.566-0.11-6.249,0.96-8.344,0.395c-4.319-1.02-4.669-3.69-4.508-5.642c-0.162,1.607,0.189,4.276,4.508,5.299
							c2.094,0.565,4.776-0.504,8.342-0.393c3.567-0.109,6.248,0.96,8.344,0.395C-815.275,891.132-814.926,888.463-815.086,886.683z
							"/>
						<path id="path5100_2_" fill="#630000" d="M-815.086,886.034c0.162,2.122-0.189,4.792-4.507,5.814
							c-2.096,0.565-4.777-0.504-8.344-0.395c-3.567-0.108-6.249,0.96-8.344,0.395c-4.318-1.021-4.669-3.69-4.507-5.641
							c-0.161,1.609,0.32,3.884,4.638,4.905c2.096,0.564,4.603-1.555,8.171-1.446c3.567-0.109,6.203,2.009,8.298,1.445
							C-815.362,890.088-814.926,887.814-815.086,886.034z"/>
					</g>
				</g>
			</g>
		</g>
		<g id="g5102_2_" transform="matrix(0.515626,-0.374624,0.374624,0.515626,-152.23292,203.26724)">
			<path id="path5104_2_" fill="#3B8536" d="M1500.424,741.468c-3.843,4.625-6.269,11.279-6.269,18.688
				c0.001,7.41,2.426,14.054,6.268,18.679c3.845-4.625,6.279-11.268,6.278-18.677
				C1506.703,752.746,1504.267,746.092,1500.424,741.468z"/>
			<path id="path5106_2_" fill="#3B8536" d="M1535.672,767.284c-5.587-2.226-12.665-2.476-19.712-0.185
				c-7.047,2.288-12.617,6.649-15.828,11.733c5.587,2.226,12.656,2.489,19.704,0.199
				C1526.886,776.742,1532.46,772.371,1535.672,767.284z"/>
			<path id="path5108_2_" fill="#3B8536" d="M1522.433,808.874c0.39-6.001-1.559-12.809-5.914-18.804
				c-4.355-5.994-10.223-9.943-16.05-11.426c-0.391,6.002,1.544,12.807,5.899,18.801
				C1510.724,803.44,1516.604,807.393,1522.433,808.874z"/>
			<path id="path5110_2_" fill="#3B8536" d="M1478.425,808.872c5.827-1.482,11.701-5.44,16.055-11.434
				c4.354-5.993,6.298-12.793,5.907-18.795c-5.827,1.482-11.703,5.425-16.058,11.42
				C1479.975,796.058,1478.035,802.872,1478.425,808.872z"/>
			<path id="path5112_2_" fill="#3B8536" d="M1465.182,767.555c3.212,5.084,8.792,9.449,15.838,11.738
				c7.046,2.288,14.116,2.036,19.701-0.19c-3.21-5.086-8.776-9.453-15.824-11.743C1477.85,765.069,1470.77,765.329,1465.182,767.555
				z"/>
		</g>
		<g id="g5116_2_">
			<path id="path5118_2_" fill="#fff" stroke="#000" stroke-width="0.0102" d="M945.297,52.222
				c4.939-15.2-2.615-18.275-6.371-17.477c-3.778,0.802-7.513,2.104-11.268,3.158c-13.496,3.397-13.711,6.271-5.123,15.769
				c2.418,3.06,4.669,6.316,7.255,9.187C932.36,65.714,940.491,67.016,945.297,52.222z"/>
			<g id="g5120_2_">
				<g id="g5128_2_">
					<path id="path5130_2_" d="M940.392,35.643c2.308,0.561,5.02,1.853,4.614,6.787c-0.124,2.418-2.182,4.896-3.295,8.717
						c-1.346,3.747-1.136,6.961-2.459,8.989c-2.571,4.229-5.525,3.68-7.541,2.837c1.651,0.724,4.604,1.272,7.177-2.955
						c1.322-2.029,1.114-5.243,2.459-8.99c1.113-3.822,3.17-6.298,3.295-8.717C945.048,37.379,942.334,36.087,940.392,35.643z"/>
					<path id="path5132_2_" fill="#3A6673" d="M939.702,35.42c2.307,0.563,5.021,1.854,4.614,6.787
						c-0.123,2.418-2.182,4.895-3.294,8.717c-1.346,3.747-1.139,6.96-2.459,8.99c-2.573,4.228-5.524,3.68-7.541,2.837
						c1.651,0.725,4.232,0.997,6.803-3.231c1.322-2.029-0.061-5.42,1.284-9.166c1.113-3.821,4.271-5.891,4.395-8.31
						C943.909,37.111,941.646,35.863,939.702,35.42z"/>
				</g>
			</g>
		</g>
		<path id="path5136_2_" fill="#fff" stroke="#000" stroke-width="0.0102" d="M914.035,75.032
			c15.981,0,16.572-8.135,14.652-11.46c-1.933-3.346-4.324-6.493-6.487-9.739c-7.401-11.786-10.202-11.104-16.579,0
			c-2.163,3.245-4.564,6.394-6.495,9.739C897.207,66.897,898.481,75.032,914.035,75.032z"/>
		<path id="path5148_2_" d="M928.287,65.242c0.18,2.369-0.211,5.348-5.028,6.488c-2.339,0.628-5.331-0.563-9.31-0.439
			c-3.979-0.123-6.972,1.068-9.309,0.439c-4.817-1.141-5.207-4.119-5.029-6.296c-0.179,1.795,0.212,4.773,5.029,5.912
			c2.337,0.63,5.33-0.562,9.309-0.439c3.979-0.121,6.971,1.069,9.31,0.439C928.075,70.207,928.467,67.228,928.287,65.242z"/>
		<path id="path5150_2_" fill="#3A6673" d="M928.287,64.519c0.18,2.367-0.211,5.347-5.028,6.485
			c-2.339,0.632-5.331-0.562-9.31-0.439c-3.979-0.123-6.972,1.07-9.309,0.439c-4.817-1.139-5.207-4.118-5.029-6.293
			c-0.179,1.793,0.358,4.332,5.177,5.472c2.337,0.628,5.134-1.734,9.112-1.612c3.979-0.122,6.923,2.242,9.26,1.612
			C927.977,69.043,928.467,66.505,928.287,64.519z"/>
		<g id="g5152_2_" transform="matrix(-0.809017,0.587785,-0.587785,-0.809017,865.9057,96.66981)">
			<path id="path5154_2_" fill="#fff" stroke="#000" stroke-width="0.0102" d="M-38.721,25.662
				c4.938-15.201-2.616-18.274-6.372-17.475c-3.778,0.803-7.512,2.105-11.265,3.159c-13.498,3.398-13.71,6.271-5.123,15.767
				c2.418,3.06,4.67,6.317,7.256,9.186C-51.659,39.152-43.529,40.456-38.721,25.662z"/>
			<g id="g5156_2_">
				<g id="g5164_2_">
					<path id="path5166_2_" d="M-43.627,9.084c2.307,0.562,5.019,1.853,4.613,6.787c-0.121,2.418-2.181,4.895-3.295,8.716
						c-1.345,3.746-1.136,6.962-2.459,8.989c-2.57,4.229-5.524,3.681-7.539,2.837c1.65,0.726,4.603,1.273,7.175-2.956
						c1.322-2.029,1.114-5.243,2.459-8.989c1.113-3.822,3.172-6.298,3.295-8.716C-38.973,10.819-41.685,9.527-43.627,9.084z"/>
					<path id="path5168_2_" fill="#3A6673" d="M-44.318,8.86c2.306,0.56,5.02,1.853,4.615,6.786
						c-0.124,2.418-2.181,4.895-3.294,8.717c-1.346,3.747-1.139,6.961-2.459,8.989c-2.573,4.229-5.526,3.682-7.542,2.839
						c1.65,0.724,4.231,0.998,6.805-3.232c1.32-2.028-0.063-5.418,1.283-9.165c1.113-3.82,4.271-5.89,4.394-8.309
						C-40.109,10.551-42.373,9.302-44.318,8.86z"/>
				</g>
			</g>
		</g>
		<g id="g5170_2_" transform="matrix(-0.809017,-0.587785,0.587785,-0.809017,643.7921,588.5748)">
			<path id="path5172_2_" fill="#fff" stroke="#000" stroke-width="0.0102" d="M134.109,610.362
				c4.938-15.2-2.616-18.276-6.373-17.477c-3.779,0.802-7.512,2.105-11.266,3.159c-13.496,3.398-13.712,6.271-5.123,15.767
				c2.418,3.059,4.67,6.317,7.255,9.188C121.17,623.852,129.3,625.155,134.109,610.362z"/>
			<g id="g5174_2_">
				<g id="g5182_2_">
					<path id="path5184_2_" d="M129.201,593.781c2.309,0.562,5.021,1.853,4.615,6.786c-0.122,2.419-2.181,4.897-3.294,8.718
						c-1.345,3.748-1.137,6.96-2.459,8.989c-2.572,4.229-5.526,3.679-7.54,2.837c1.651,0.724,4.605,1.274,7.175-2.956
						c1.321-2.028,1.114-5.243,2.459-8.988c1.113-3.823,3.171-6.3,3.294-8.717C133.856,595.517,131.145,594.225,129.201,593.781z"/>
					<path id="path5186_2_" fill="#3A6673" d="M128.512,593.557c2.309,0.563,5.02,1.854,4.616,6.787
						c-0.124,2.418-2.181,4.896-3.295,8.717c-1.347,3.747-1.137,6.96-2.46,8.99c-2.572,4.229-5.525,3.682-7.54,2.837
						c1.652,0.725,4.232,0.998,6.805-3.231c1.322-2.029-0.062-5.42,1.283-9.166c1.113-3.821,4.271-5.891,4.394-8.309
						C132.719,595.249,130.455,594.001,128.512,593.557z"/>
				</g>
			</g>
		</g>
		<g id="g5188_2_" transform="matrix(0.309017,-0.951057,0.951057,0.309017,108.7295,528.2566)">
			<path id="path5190_2_" fill="#fff" stroke="#000" stroke-width="0.0102" d="M742.538,625.357
				c4.94-15.2-2.616-18.274-6.372-17.476c-3.776,0.804-7.51,2.104-11.266,3.16c-13.497,3.4-13.712,6.272-5.123,15.769
				c2.418,3.06,4.672,6.316,7.254,9.186C729.601,638.849,737.731,640.151,742.538,625.357z"/>
			<g id="g5192_2_">
				<g id="g5200_2_">
					<path id="path5202_2_" d="M737.633,608.778c2.307,0.563,5.019,1.854,4.614,6.786c-0.123,2.418-2.18,4.897-3.294,8.718
						c-1.346,3.747-1.137,6.959-2.459,8.989c-2.572,4.229-5.526,3.68-7.54,2.837c1.65,0.724,4.603,1.274,7.177-2.956
						c1.32-2.03,1.112-5.244,2.457-8.988c1.114-3.823,3.171-6.3,3.296-8.72C742.29,610.513,739.576,609.221,737.633,608.778z"/>
					<path id="path5204_2_" fill="#3A6673" d="M736.944,608.554c2.307,0.562,5.019,1.853,4.615,6.788
						c-0.125,2.418-2.181,4.895-3.295,8.716c-1.346,3.746-1.137,6.961-2.458,8.988c-2.571,4.231-5.525,3.682-7.542,2.839
						c1.652,0.725,4.233,0.999,6.804-3.231c1.322-2.027-0.061-5.418,1.285-9.164c1.114-3.822,4.27-5.891,4.394-8.31
						C741.151,610.246,738.887,608.997,736.944,608.554z"/>
				</g>
			</g>
		</g>
		<g>
			<path id="path5006_16_" fill="#3B8536" d="M902.573,28.143c2.819,0.717,5.658,2.631,7.765,5.529
				c2.105,2.897,3.045,6.187,2.856,9.088c-2.819-0.717-5.659-2.623-7.766-5.522C903.323,34.339,902.384,31.046,902.573,28.143z"/>
			<path id="path5006_15_" fill="#3B8536" d="M896.01,48.344c1.553-2.459,4.25-4.568,7.657-5.676s6.824-0.984,9.527,0.092
				c-1.553,2.46-4.243,4.572-7.652,5.679C902.135,49.546,898.712,49.422,896.01,48.344z"/>
			<path id="path5006_14_" fill="#3B8536" d="M913.194,60.83c-1.859-2.236-3.032-5.454-3.032-9.036c0-3.583,1.173-6.796,3.032-9.033
				c1.858,2.237,3.037,5.449,3.035,9.033C916.229,55.376,915.052,58.592,913.194,60.83z"/>
			<path id="path5006_13_" fill="#3B8536" d="M930.378,48.344c-2.701,1.077-6.123,1.197-9.531,0.091
				c-3.407-1.107-6.101-3.214-7.652-5.675c2.701-1.076,6.119-1.204,9.527-0.096C926.129,43.772,928.825,45.885,930.378,48.344z"/>
			<path id="path5006_12_" fill="#3B8536" d="M923.814,28.143c0.189,2.901-0.753,6.194-2.859,9.093
				c-2.104,2.898-4.942,4.808-7.761,5.524c-0.189-2.901,0.745-6.191,2.853-9.091C918.152,30.772,920.995,28.861,923.814,28.143z"/>
			<g>
				<path fill="#D60000" stroke="#630000" stroke-width="0.5" d="M925.151,47.451c2.373,3.942,1.915,8.689-1.178,10.933
					c-3.095,2.258-7.742,1.211-10.754-2.243c-3.027,3.454-7.675,4.501-10.77,2.243c-3.094-2.243-3.551-6.99-1.18-10.933
					c-4.221-1.785-6.66-5.894-5.466-9.542c1.18-3.635,5.55-5.532,10.034-4.501c0.409-4.584,3.552-8.151,7.381-8.151
					c3.813,0,6.972,3.552,7.381,8.134c4.485-1.014,8.839,0.884,10.034,4.519C931.811,41.557,929.39,45.666,925.151,47.451z"/>
				<g id="g5298_2_" transform="matrix(0.9289434,-0.6749165,0.6749165,0.9289434,-307.31563,331.53466)">
					<g id="g5338_2_" transform="translate(3.559399,3.243637)">
						<path id="path5340_2_" fill="#EED706" stroke="#6B2910" stroke-width="0.25" d="M1009.383,417.847
							c0,2.755-2.235,4.989-4.988,4.988c-2.755,0-4.989-2.233-4.99-4.989c0-2.755,2.235-4.989,4.989-4.989
							C1007.15,412.858,1009.383,415.092,1009.383,417.847L1009.383,417.847z"/>
					</g>
				</g>
			</g>
		</g>
	</g>
</g>
</svg>
