<?xml version="1.0" encoding="UTF-8" standalone="no"?>
<!-- Created with Inkscape (http://www.inkscape.org/) -->

<svg
   xmlns:dc="http://purl.org/dc/elements/1.1/"
   xmlns:cc="http://creativecommons.org/ns#"
   xmlns:rdf="http://www.w3.org/1999/02/22-rdf-syntax-ns#"
   xmlns:svg="http://www.w3.org/2000/svg"
   xmlns="http://www.w3.org/2000/svg"
   xmlns:sodipodi="http://sodipodi.sourceforge.net/DTD/sodipodi-0.dtd"
   xmlns:inkscape="http://www.inkscape.org/namespaces/inkscape"
   width="2000"
   height="1209.3024"
   id="svg2"
   version="1.1"
   inkscape:version="0.48.0 r9654"
   sodipodi:docname="County Flag of Hertfordshire.svg">
  <defs
     id="defs4" />
  <sodipodi:namedview
     id="base"
     pagecolor="#ffffff"
     bordercolor="#666666"
     borderopacity="1.0"
     inkscape:pageopacity="0.0"
     inkscape:pageshadow="2"
     inkscape:zoom="0.17570923"
     inkscape:cx="1688.473"
     inkscape:cy="454.36969"
     inkscape:document-units="px"
     inkscape:current-layer="layer1"
     showgrid="false"
     inkscape:window-width="1440"
     inkscape:window-height="820"
     inkscape:window-x="-8"
     inkscape:window-y="-8"
     inkscape:window-maximized="1"
     fit-margin-top="0"
     fit-margin-left="0"
     fit-margin-right="0"
     fit-margin-bottom="0" />
  <metadata
     id="metadata7">
    <rdf:RDF>
      <cc:Work
         rdf:about="">
        <dc:format>image/svg+xml</dc:format>
        <dc:type
           rdf:resource="http://purl.org/dc/dcmitype/StillImage" />
        <dc:title />
      </cc:Work>
    </rdf:RDF>
  </metadata>
  <g
     inkscape:label="Layer 1"
     inkscape:groupmode="layer"
     id="layer1"
     transform="translate(297.85712,632.65442)"
     style="display:inline">
    <rect
       style="color:#000000;fill:#ffffff;stroke:none;stroke-width:4;marker:none;visibility:visible;display:inline;overflow:visible;enable-background:accumulate"
       id="rect3013"
       width="1998"
       height="1198"
       x="-291.98932"
       y="-576.49396"
       transform="scale(1,-1)" />
    <path
       style="color:#000000;fill:#003f87;fill-opacity:1;stroke:none;stroke-width:2;marker:none;visibility:visible;display:inline;overflow:visible;enable-background:accumulate"
       d="m 5.875,11.15625 0,125.71875 c 55.343771,-11.96433 70.956964,-39.184294 109.28125,-67.9375 0.10418,-0.0719 0.2084,-0.14775 0.3125,-0.21875 53.03275,-36.3972 94.1703,-14.5465 134.75,21.4375 l 0,-0.6875 c 0.25987,0.2313 0.52146,0.4554 0.78125,0.6875 32.61122,29.1215 58.0606,46.95856 85.90625,46.78125 24.5696,-0.15645 51.02997,-14.3413 85.875,-47.125 l 0,0.34375 c 1.81567,-1.8599 3.58996,-3.6544 5.375,-5.375 55.38477,-50.6494 97.86659,-39.29375 138.28125,-8.34375 5.40944,4.323 10.74826,8.94515 16.09375,13.71875 61.38582,54.81704 97.44509,69.59476 171.78125,-0.34375 l 0,0.34375 c 1.81559,-1.8599 3.62131,-3.6544 5.40625,-5.375 C 814.66226,34.53555 856.87426,45.2964 897,75.6875 c 0.01,0.008 0.0213,0.02135 0.0312,0.03125 0.10126,0.0769 0.21107,0.14175 0.3125,0.21875 5.61571,4.4615 11.17324,9.26655 16.71875,14.21875 61.34709,54.78244 97.38365,69.5689 171.62505,-0.21875 l 0,0.21875 c 1.066,-1.0922 2.132,-2.17495 3.1875,-3.21875 54.8225,-51.5258 97.0298,-42.49775 136.9061,-13.28125 6.6178,5.0991 13.1758,10.6849 19.6876,16.5 30.039,26.82493 53.9856,44.05349 79.3437,46.46875 l 0,0.1875 c 0.7585,0.0426 1.5194,0.0779 2.2813,0.0937 0.9362,0.0197 1.8708,-0.0103 2.8124,-0.0312 24.9173,0.40625 51.6396,-13.54396 87.0314,-46.78125 l 0,0.0625 c 0.3315,-0.3399 0.6382,-0.6649 0.9686,-1 0.4098,-0.3873 0.8381,-0.76405 1.25,-1.15625 27.9251,-26.58568 52.5566,-37.4994 75.2814,-38 0.3007,0.004 0.6057,-0.007 0.9063,0 28.5706,0.67819 54.1688,17.66625 79.5312,40.15625 l 0,-0.6875 c 0.2599,0.2313 0.5217,0.4554 0.7811,0.6875 31.7987,28.3956 56.7717,46.05128 83.8126,46.75 0.9992,0.042 1.9945,0.0672 3,0.0625 1.8536,-0.009 3.7469,-0.11087 5.625,-0.28125 l 0,-0.15625 c 22.7476,-2.43327 47.5435,-16.82914 79.3124,-46.71875 l 0,0.34375 c 1.8159,-1.8599 3.6212,-3.6544 5.4064,-5.375 55.3848,-50.6494 97.8352,-39.29375 138.25,-8.34375 5.4094,4.323 10.7484,8.94515 16.0936,13.71875 36.7684,32.83371 64.4554,51.27743 96.7189,45.78125 l 0,-124.78125 -1998.00005,0 z M 170.96875,238.8125 c -0.94872,-0.0159 -1.91796,0.008 -2.875,0.0312 -16.04177,0.39128 -33.2796,6.3798 -52.25,20.34375 -0.0791,0.0582 -0.13945,0.1291 -0.21875,0.1875 -0.051,0.0348 -0.10533,0.0589 -0.15625,0.0937 -7.57613,5.1996 -15.37497,11.60686 -23.46875,19.3125 -35.00927,33.33032 -61.5648,48.09729 -86.125,48.875 l 0,143.5625 c 55.343821,-11.96425 70.956899,-39.18444 109.28125,-67.9375 0.10409,-0.0719 0.2084,-0.14735 0.3125,-0.21875 53.03266,-36.39723 94.1703,-14.54638 134.75,21.4375 l 0,-0.6875 c 0.25987,0.23128 0.52138,0.45549 0.78125,0.6875 32.61113,29.1216 58.0606,46.95856 85.90625,46.78125 24.56969,-0.15645 51.02989,-14.3413 85.875,-47.125 l 0,0.34375 c 1.81558,-1.85982 3.59005,-3.65427 5.375,-5.375 55.38485,-50.64927 97.86668,-39.29375 138.28125,-8.34375 5.40952,4.32307 10.74818,8.94523 16.09375,13.71875 61.38574,54.81713 97.44502,69.59475 171.78125,-0.34375 l 0,0.34375 c 1.81559,-1.85982 3.62131,-3.65427 5.40625,-5.375 54.94351,-50.24566 97.15551,-39.4848 137.28125,-9.09375 0.01,0.008 0.0213,0.0233 0.0312,0.0312 0.10126,0.0768 0.21107,0.14165 0.3125,0.21875 5.61571,4.46144 11.17324,9.26664 16.71875,14.21875 61.34709,54.78258 97.38365,69.56889 171.62505,-0.21875 l 0,0.21875 c 1.066,-1.09201 2.132,-2.17493 3.1875,-3.21875 54.8225,-51.52584 97.0298,-42.49751 136.9061,-13.28125 6.6178,5.09919 13.1758,10.68511 19.6876,16.5 30.039,26.82495 53.9856,44.0535 79.3437,46.46875 l 0,0.1875 c 0.7584,0.0426 1.5194,0.0777 2.2813,0.0937 0.9362,0.0197 1.8708,-0.0102 2.8124,-0.0312 24.9173,0.40624 51.6396,-13.54399 87.0314,-46.78125 l 0,0.0625 c 0.3315,-0.33977 0.6382,-0.66491 0.9686,-1 0.4098,-0.38705 0.8381,-0.76408 1.25,-1.15625 27.9251,-26.58568 52.5566,-37.49939 75.2814,-38 0.3007,0.004 0.6057,-0.007 0.9063,0 28.5706,0.67822 54.1688,17.66633 79.5312,40.15625 l 0,-0.6875 c 0.2599,0.23128 0.5216,0.45549 0.7811,0.6875 31.7986,28.3957 56.7717,46.05129 83.8126,46.75 0.9992,0.042 1.9945,0.0672 3,0.0625 1.8536,-0.009 3.7469,-0.11087 5.625,-0.28125 l 0,-0.15625 c 22.7478,-2.43327 47.5435,-16.82914 79.3124,-46.71875 l 0,0.34375 c 1.8159,-1.85982 3.6213,-3.65427 5.4064,-5.375 55.3849,-50.64927 97.8352,-39.29375 138.25,-8.34375 5.4094,4.32307 10.7482,8.94523 16.0936,13.71875 36.7682,32.83377 64.4553,51.27744 96.7189,45.78125 l 0,-143.53125 c -32.1448,5.4706 -59.7319,-12.85039 -96.2812,-45.4375 l 0,-0.40625 c -5.1852,-4.59766 -10.3981,-8.92459 -15.625,-12.96875 -39.334,-31.70833 -81.1845,-48.0384 -138.8126,7.28125 -1.2696,1.15636 -2.5289,2.34038 -3.8124,3.5625 -34.279,32.63476 -60.4693,47.47651 -84.5938,48.8125 -0.2738,0.0152 -0.5392,0.0197 -0.8125,0.0312 -28.1631,0.75066 -53.7534,-16.86834 -86.5314,-46.0625 l 0,-0.65625 c -7.6554,-6.78871 -15.321,-13.04489 -23.0936,-18.53125 -17.9476,-13.4044 -36.595,-22.97837 -57.125,-23.5 -0.083,-0.003 -0.1671,0.003 -0.25,0 -1.3914,-0.0502 -2.7782,-0.0658 -4.1875,-0.0312 -16.0417,0.39128 -33.2798,6.3798 -52.25,20.34375 -0.079,0.0582 -0.1707,0.1291 -0.25,0.1875 -0.051,0.0348 -0.1057,0.0589 -0.1562,0.0937 -7.5764,5.1996 -15.375,11.60686 -23.4688,19.3125 -35.1287,33.44382 -61.7463,48.19024 -86.375,48.875 -27.2467,-0.31152 -52.3215,-17.82357 -84.2189,-46.25 l 0,-0.5 c -6.5872,-5.84146 -13.1776,-11.2797 -19.8436,-16.1875 -38.7754,-30.00414 -80.413,-43.35368 -137.4375,13.125 -0.3315,0.31187 -0.6678,0.6212 -1,0.9375 -75.4766,71.85679 -111.59327,57.47785 -173.25005,2.5 l 0,-0.375 c -5.38966,-4.77925 -10.81352,-9.26026 -16.25,-13.4375 -39.16098,-31.39322 -80.85007,-47.29101 -138.1875,7.75 -1.26996,1.15636 -2.52884,2.34038 -3.8125,3.5625 -75.46429,71.84527 -111.64258,57.48727 -173.28125,2.53125 l 0,-0.40625 c -5.18488,-4.59766 -10.3978,-8.92459 -15.625,-12.96875 -39.33369,-31.70833 -81.18472,-48.0384 -138.8125,7.28125 -1.26997,1.15636 -2.5601,2.34038 -3.84375,3.5625 -75.64945,72.02154 -111.77184,57.41536 -173.6875,2.125 -25.16307,-22.47044 -50.62092,-41.60046 -80.03125,-42.09375 z m 0,332.25 c -0.94872,-0.0159 -1.91796,0.008 -2.875,0.0312 -16.04177,0.39128 -33.2796,6.3798 -52.25,20.34375 -0.0791,0.0582 -0.13945,0.1291 -0.21875,0.1875 -0.051,0.0349 -0.10533,0.0589 -0.15625,0.0937 -7.57613,5.1996 -15.37497,11.60686 -23.46875,19.3125 -35.00927,33.33032 -61.56486,48.09729 -86.125,48.875 l 0,143.5625 c 55.343688,-11.96441 70.957023,-39.18421 109.28125,-67.9375 0.10418,-0.0719 0.2084,-0.14735 0.3125,-0.21875 53.03275,-36.39723 94.1703,-14.54638 134.75,21.4375 l 0,-0.6875 c 0.25987,0.23128 0.52146,0.45549 0.78125,0.6875 32.61122,29.12159 58.0606,46.95856 85.90625,46.78125 24.5696,-0.15645 51.02997,-14.34131 85.875,-47.125 l 0,0.34375 c 1.81567,-1.85982 3.58996,-3.65427 5.375,-5.375 55.38477,-50.64927 97.86659,-39.29375 138.28125,-8.34375 5.40944,4.32307 10.74826,8.94523 16.09375,13.71875 61.38582,54.81712 97.44509,69.59479 171.78125,-0.34375 l 0,0.34375 c 1.81559,-1.85982 3.62131,-3.65427 5.40625,-5.375 54.94351,-50.24566 97.15551,-39.4848 137.28125,-9.09375 0.01,0.008 0.0213,0.0236 0.0312,0.0312 0.10126,0.0768 0.21107,0.14165 0.3125,0.21875 5.61571,4.46144 11.17324,9.26664 16.71875,14.21875 61.34709,54.78257 97.38365,69.56898 171.62505,-0.21875 l 0,0.21875 c 1.066,-1.09201 2.132,-2.17493 3.1875,-3.21875 54.8225,-51.52584 97.0298,-42.49751 136.9061,-13.28125 6.6178,5.09919 13.1758,10.68511 19.6876,16.5 30.039,26.82494 53.9856,44.0535 79.3437,46.46875 l 0,0.1875 c 0.7584,0.0427 1.5194,0.0776 2.2813,0.0937 0.9362,0.0197 1.8708,-0.0101 2.8124,-0.0312 24.9173,0.40624 51.6396,-13.544 87.0314,-46.78125 l 0,0.0625 c 0.3315,-0.33977 0.6382,-0.66491 0.9686,-1 0.4098,-0.38705 0.8381,-0.76408 1.25,-1.15625 27.9251,-26.58568 52.5566,-37.49939 75.2814,-38 0.3007,0.004 0.6057,-0.007 0.9063,0 28.5706,0.67822 54.1688,17.66632 79.5312,40.15625 l 0,-0.6875 c 0.2599,0.23128 0.5217,0.45549 0.7811,0.6875 31.7987,28.39569 56.7717,46.05129 83.8126,46.75 0.9992,0.042 1.9945,0.0672 3,0.0625 1.8536,-0.009 3.7469,-0.11087 5.625,-0.28125 l 0,-0.15625 c 22.7476,-2.43327 47.5435,-16.82915 79.3124,-46.71875 l 0,0.34375 c 1.8159,-1.85982 3.6212,-3.65427 5.4064,-5.375 55.3848,-50.64927 97.8352,-39.29375 138.25,-8.34375 5.4094,4.32307 10.7484,8.94523 16.0936,13.71875 36.7684,32.83376 64.4554,51.27744 96.7189,45.78125 l 0,-143.53125 c -32.1448,5.4706 -59.7319,-12.85039 -96.2812,-45.4375 l 0,-0.40625 c -5.1852,-4.59766 -10.3979,-8.92459 -15.625,-12.96875 -39.334,-31.70833 -81.1845,-48.03841 -138.8126,7.28125 -1.2696,1.15636 -2.5289,2.34038 -3.8124,3.5625 -34.279,32.63476 -60.4694,47.47651 -84.5938,48.8125 -0.2738,0.0152 -0.5392,0.0196 -0.8125,0.0312 -28.1631,0.75066 -53.7534,-16.86834 -86.5314,-46.0625 l 0,-0.65625 c -7.6554,-6.78871 -15.321,-13.04489 -23.0936,-18.53125 -17.9476,-13.4044 -36.595,-22.97837 -57.125,-23.5 -0.083,-0.003 -0.1671,0.003 -0.25,0 -1.3914,-0.0502 -2.7782,-0.0657 -4.1875,-0.0312 -16.0417,0.39128 -33.2798,6.3798 -52.25,20.34375 -0.079,0.0582 -0.1707,0.1291 -0.25,0.1875 -0.051,0.0349 -0.1057,0.0589 -0.1562,0.0937 -7.5764,5.1996 -15.375,11.60686 -23.4688,19.3125 -35.1287,33.44382 -61.7464,48.19024 -86.375,48.875 -27.2467,-0.31152 -52.3215,-17.82357 -84.2189,-46.25 l 0,-0.5 c -6.5872,-5.84146 -13.1776,-11.2797 -19.8436,-16.1875 -38.7754,-30.00414 -80.4131,-43.35369 -137.4375,13.125 -0.3315,0.31187 -0.6678,0.6212 -1,0.9375 -75.4766,71.85679 -111.59334,57.47785 -173.25005,2.5 l 0,-0.375 c -5.38974,-4.77925 -10.81361,-9.26026 -16.25,-13.4375 -39.16098,-31.39322 -80.84999,-47.29102 -138.1875,7.75 -1.26996,1.15636 -2.52884,2.34038 -3.8125,3.5625 -75.46435,71.84527 -111.64258,57.48727 -173.28125,2.53125 l 0,-0.40625 c -5.18488,-4.59766 -10.39771,-8.92459 -15.625,-12.96875 -39.33369,-31.70833 -81.18481,-48.03841 -138.8125,7.28125 -1.26997,1.15636 -2.5601,2.34038 -3.84375,3.5625 -75.64945,72.02154 -111.77175,57.41536 -173.6875,2.125 -25.16302,-22.47044 -50.62092,-41.60046 -80.03125,-42.09375 z m 0,329.4375 c -0.94872,-0.0159 -1.91796,0.008 -2.875,0.0312 -16.04177,0.39128 -33.2796,6.3798 -52.25,20.34375 -0.0791,0.0582 -0.13945,0.1291 -0.21875,0.1875 -0.051,0.0349 -0.10533,0.0589 -0.15625,0.0937 -7.57613,5.1996 -15.37497,11.60686 -23.46875,19.3125 -35.00927,33.33032 -61.56486,48.09728 -86.125,48.875 l 0,143.56245 c 55.344013,-11.9638 70.95653,-39.1848 109.28125,-67.9374 0.10418,-0.072 0.2084,-0.1473 0.3125,-0.2188 53.03275,-36.3972 94.1703,-14.5464 134.75,21.4375 l 0,-0.6875 c 0.25987,0.2313 0.52146,0.4554 0.78125,0.6875 32.61122,29.1215 58.0606,46.9584 85.90625,46.7813 24.5696,-0.1568 51.02997,-14.3415 85.875,-47.125 l 0,0.3437 c 1.81567,-1.8599 3.58996,-3.6543 5.375,-5.375 55.38477,-50.6493 97.86659,-39.294 138.28125,-8.3437 5.40944,4.3229 10.74826,8.9451 16.09375,13.7187 61.38582,54.8171 97.44509,69.5947 171.78125,-0.3437 l 0,0.3437 c 1.81559,-1.8599 3.62131,-3.6543 5.40625,-5.375 54.94351,-50.2457 97.15551,-39.485 137.28125,-9.0937 0.01,0.01 0.0213,0.023 0.0312,0.031 0.10126,0.077 0.21107,0.1416 0.3125,0.2188 5.61571,4.461 11.17324,9.2665 16.71875,14.2187 61.34709,54.7825 97.38365,69.5689 171.62505,-0.2187 l 0,0.2187 c 1.066,-1.0921 2.132,-2.1751 3.1875,-3.2187 54.8225,-51.5261 97.0298,-42.4976 136.9061,-13.2813 6.6178,5.0991 13.1758,10.6851 19.6876,16.5 30.039,26.8249 53.9856,44.0538 79.3437,46.4687 l 0,0.1876 c 0.7584,0.042 1.5194,0.078 2.2813,0.094 0.9362,0.02 1.8708,-0.01 2.8124,-0.031 24.9173,0.4065 51.6396,-13.5439 87.0314,-46.7812 l 0,0.062 c 0.3315,-0.3398 0.6382,-0.665 0.9686,-1 0.4098,-0.3871 0.8381,-0.7639 1.25,-1.1563 27.9251,-26.5853 52.5566,-37.499 75.2814,-38 0.3007,0 0.6057,-0.01 0.9063,0 28.5706,0.6785 54.1688,17.6664 79.5312,40.1563 l 0,-0.6875 c 0.2599,0.2313 0.5217,0.4554 0.7811,0.6875 31.7987,28.3956 56.7717,46.0513 83.8126,46.75 0.9992,0.042 1.9945,0.068 3,0.062 1.8536,-0.01 3.7469,-0.1111 5.625,-0.2812 l 0,-0.1563 c 22.7476,-2.4332 47.5435,-16.8293 79.3124,-46.7187 l 0,0.3437 c 1.8159,-1.8599 3.6212,-3.6543 5.4064,-5.375 55.3848,-50.6493 97.8352,-39.2939 138.25,-8.3437 5.4094,4.3229 10.7484,8.9451 16.0936,13.7187 36.7684,32.8338 64.4554,51.2774 96.7189,45.7813 l 0,-143.5313 c -32.1448,5.4706 -59.7319,-12.85041 -96.2812,-45.4375 l 0,-0.40625 c -5.1852,-4.59766 -10.3979,-8.92459 -15.625,-12.96875 -39.334,-31.70833 -81.1845,-48.0384 -138.8126,7.28125 -1.2696,1.15636 -2.5289,2.34038 -3.8124,3.5625 -34.279,32.63474 -60.4693,47.4766 -84.5938,48.8125 -0.2738,0.015 -0.5392,0.0203 -0.8125,0.0312 -28.1631,0.7507 -53.7534,-16.86834 -86.5314,-46.0625 l 0,-0.65625 c -7.6554,-6.78871 -15.321,-13.04489 -23.0936,-18.53125 -17.9476,-13.4044 -36.595,-22.97837 -57.125,-23.5 -0.083,-0.003 -0.1671,0.003 -0.25,0 -1.3914,-0.0502 -2.7782,-0.0657 -4.1875,-0.0312 -16.0417,0.39128 -33.2798,6.3798 -52.25,20.34375 -0.079,0.0582 -0.1707,0.1291 -0.25,0.1875 -0.051,0.0349 -0.1057,0.0589 -0.1562,0.0937 -7.5764,5.1996 -15.375,11.60686 -23.4688,19.3125 -35.1287,33.44382 -61.7464,48.1902 -86.375,48.875 -27.2467,-0.3116 -52.3215,-17.82357 -84.2189,-46.25 l 0,-0.5 c -6.5872,-5.84146 -13.1776,-11.2797 -19.8436,-16.1875 -38.7754,-30.00414 -80.4131,-43.35368 -137.4375,13.125 -0.3315,0.31187 -0.6678,0.6212 -1,0.9375 -75.4766,71.8569 -111.59334,57.47785 -173.25005,2.5 l 0,-0.375 c -5.38974,-4.77925 -10.81361,-9.26026 -16.25,-13.4375 -39.16098,-31.39322 -80.84999,-47.29101 -138.1875,7.75 -1.26996,1.15636 -2.52884,2.34038 -3.8125,3.5625 -75.46433,71.8461 -111.64253,57.488 -173.2812,2.532 l 0,-0.40625 c -5.18488,-4.59766 -10.39771,-8.92459 -15.625,-12.96875 -39.33369,-31.70833 -81.18481,-48.0384 -138.8125,7.28125 -1.26997,1.15636 -2.5601,2.34038 -3.84375,3.5625 C 349.0381,1012.4913 312.91575,997.8841 251,942.59375 225.83698,920.12331 200.37908,900.99329 170.96875,900.5 z"
       transform="translate(-297.85712,-632.65442)"
       id="path3325"
       inkscape:connector-curvature="0"
       sodipodi:nodetypes="cccccccsccccsccccccsccccscccccccccccccccccccccccccccccccscccccccsccccsccccccsccccccccccccccccccccccccccsccccccccccccccccccsccccccccccsccccsscccccccscccccccsccccsccccccscccccccccccccccccccccccccccccccccccccccccccccsccccccccccsccccsscccccccsccccccccccccsccccccsccccsccccccccccccccccccccccccccccccccccccccccsccccccccccsccccssc" />
    <g
       id="g3252">
      <path
         sodipodi:nodetypes="cccccc"
         inkscape:connector-curvature="0"
         id="path3061"
         d="m 355.04696,-417.35433 694.19184,0 0,387.338945 C 1046.3101,172.34444 796.69463,339.73533 704.15503,361.34786 567.25504,322.23745 363.44731,120.57984 359.07126,-30.015385 z"
         style="color:#000000;fill:#f9d90f;fill-opacity:1;stroke:#000000;stroke-width:8;marker:none;visibility:visible;display:inline;overflow:visible;enable-background:accumulate" />
      <path
         sodipodi:nodetypes="ccssssssccccscc"
         transform="translate(-297.85712,-632.65442)"
         inkscape:connector-curvature="0"
         id="path3231"
         d="m 904.72292,657.15833 c -22.39046,2.40294 -46.4925,1.19616 -67.43165,-6.38597 -9.20063,-3.40777 -15.1453,-11.18576 -22.87054,-1.80473 -2.95098,3.58348 -7.97823,5.94164 -11.59144,8.78071 -23.0113,18.08103 -51.53358,28.40262 -73.08856,47.99885 -2.92732,2.66131 -14.67712,9.52897 -15.47839,13.53546 -0.10061,0.50307 8.69507,0.63248 8.97999,0.63248 5.32745,0 7.62727,2.59399 13.11957,2.59399 19.21188,0 9.86006,-3.50966 18.22755,-17.45606 9.43268,-9.58225 13.72844,-5.1663 19.26123,-6.5942 6.72309,-1.83365 16.76034,-6.76518 21.44764,-12.39016 6.53684,-5.89847 17.24606,-17.42814 23.91169,-20.06026 16.44862,6.72877 42.02033,12.55301 64.32501,16.6427 15.51192,2.8442 33.23639,14.42279 35.34751,12.19826 7.86472,-12.4593 -10.01784,-26.56257 -14.15961,-37.69107 z"
         style="color:#000000;fill:#844e00;fill-opacity:1;stroke:#000000;stroke-width:4;stroke-linecap:round;stroke-linejoin:round;stroke-miterlimit:4;stroke-opacity:1;stroke-dasharray:none;stroke-dashoffset:0;marker:none;visibility:visible;display:inline;overflow:visible;enable-background:accumulate" />
      <path
         id="path3237"
         transform="translate(-297.85712,-632.65442)"
         d="m 820.96875,656 c -24.53918,20.43896 -47.19296,33.67395 -76.3125,45.5 -1.35976,0.6799 -3.54992,0.0129 -4.375,-0.8125 -1.12307,-1.12313 -3.29221,-0.43287 -4.875,0.25 -1.93236,1.54722 -3.81754,3.14088 -5.65625,4.8125 -2.92732,2.66131 -14.69873,9.52476 -15.5,13.53125 -0.10061,0.50307 8.71508,0.625 9,0.625 5.32745,0 7.6327,2.59375 13.125,2.59375 19.21188,0 9.85126,-3.4911 18.21875,-17.4375 9.43268,-9.58225 13.71721,-5.16585 19.25,-6.59375 6.72309,-1.83365 16.78145,-6.78127 21.46875,-12.40625 6.53684,-5.89847 17.24062,-17.43038 23.90625,-20.0625 16.44862,6.72877 42.00782,12.56656 64.3125,16.65625 15.51192,2.8442 33.23263,14.41203 35.34375,12.1875 3.5241,-5.58289 1.85624,-11.48499 -1.40625,-17.3125 -0.16883,-0.0497 -0.33266,-0.10168 -0.5,-0.15625 -27.7419,-5.22471 -64.90463,-18.39106 -96,-21.375 z"
         style="color:#000000;fill:#4e0400;fill-opacity:1;stroke:none;stroke-width:4;marker:none;visibility:visible;display:inline;overflow:visible;enable-background:accumulate"
         inkscape:connector-curvature="0" />
      <path
         style="color:#000000;fill:none;stroke:#000000;stroke-width:4;stroke-linecap:round;stroke-linejoin:round;stroke-miterlimit:4;stroke-opacity:1;stroke-dasharray:none;stroke-dashoffset:0;marker:none;visibility:visible;display:inline;overflow:visible;enable-background:accumulate"
         d="m 904.72292,657.15833 c -22.39046,2.40294 -46.4925,1.19616 -67.43165,-6.38597 -9.20063,-3.40777 -15.1453,-11.18576 -22.87054,-1.80473 -2.95098,3.58348 -7.97823,5.94164 -11.59144,8.78071 -23.0113,18.08103 -51.53358,28.40262 -73.08856,47.99885 -2.92732,2.66131 -14.67712,9.52897 -15.47839,13.53546 -0.10061,0.50307 8.69507,0.63248 8.97999,0.63248 5.32745,0 7.62727,2.59399 13.11957,2.59399 19.21188,0 9.86006,-3.50966 18.22755,-17.45606 9.43268,-9.58225 13.72844,-5.1663 19.26123,-6.5942 6.72309,-1.83365 16.76034,-6.76518 21.44764,-12.39016 6.53684,-5.89847 17.24606,-17.42814 23.91169,-20.06026 16.44862,6.72877 42.02033,12.55301 64.32501,16.6427 15.51192,2.8442 33.23639,14.42279 35.34751,12.19826 7.86472,-12.4593 -10.01784,-26.56257 -14.15961,-37.69107 z"
         id="path3250"
         inkscape:connector-curvature="0"
         transform="translate(-297.85712,-632.65442)"
         sodipodi:nodetypes="ccssssssccccscc" />
      <path
         sodipodi:nodetypes="sssccssscssscscsscccccssscsscccssssscccs"
         inkscape:connector-curvature="0"
         id="path3107"
         transform="translate(-297.85712,-632.65442)"
         d="m 998.65625,425.3125 c -5.10578,0.0344 -13.30891,11.80548 -15.125,13.9375 -12.86649,15.10476 -20.87357,28.09727 -40.1875,36.375 -4.66667,2.00008 -8.15038,10.83222 -12.96875,13.9375 -20.82091,40.68693 -31.52944,96.86247 -36.875,126.5 -4.52636,4.52654 -8.68951,6.11865 -5.96875,14.28125 2.61686,7.85092 10.23548,9.98738 12.78125,17.625 6.54688,19.64144 -6.50826,21.74094 13.125,41.375 0.69158,0.69161 1.36191,1.74956 2.15625,2.90625 -17.42866,2.72594 -44.42073,5.1963 -32.46875,23.125 15.767,23.65147 35.78768,2.36646 55.3125,8.875 8.28525,2.76186 15.39015,3.81867 23.53125,4.71875 16.04168,1.77356 54.89445,2.96236 59.81245,-4.78125 0.3252,-0.51185 -20.3387,-16.93589 -21.99995,-16.4375 -1.8211,0.54635 -17.2851,12.16651 -25.55515,6.94441 0.88925,-0.26622 2.96259,-1.30867 3.8989,-1.81941 3.88597,-2.1197 7.73876,-4.73863 10.90625,-7.90625 0.55477,-0.55479 1.14605,-1.10346 1.71875,-1.65625 18.8485,2.21629 53.7354,2.58905 66.2812,2.6875 9.6537,0.76147 9.1003,-0.61832 13.9063,-0.1875 -11.0194,5.56334 -16.2813,14.0625 -16.2813,14.0625 0,0 11.9422,5.78217 19.625,7.0625 -1.3688,5.70013 2.4385,5.60515 10.7188,8.5625 18.4385,6.58546 20.3271,-6.53685 32.9688,-11.59375 2.9416,-1.17667 14.0298,4.50525 17.5624,5.46875 10.3816,2.83144 24.9991,-0.46875 36.25,-0.46875 26.6386,-1.24585 41.7965,2.31876 69.75,-1.3125 6.7076,-0.87134 19.1368,-4.16778 23.6563,-8.6875 14.6853,-14.6859 13.1508,-56.61607 8.625,-75.625 -2.0589,-8.64807 -18.6875,-41.7426 -18.6875,-43.21875 21.6468,19.91977 15.8992,59.24043 34.0312,76.34375 1.8206,1.61827 14.4129,12.77105 15.0626,8.46875 0.2297,-1.52098 -4.9071,-20.29108 -5.4376,-25.65625 -0.8712,-8.81113 -2.9006,-21.24562 -5.6104,-29.83376 -11.7948,-37.38083 -35.678,-55.47183 -77.1083,-67.00999 -16.8209,-4.68456 -26.0283,-4.88077 -43.5046,-5.23531 -46.2626,-0.93852 -93.2477,8.60543 -125.4017,7.79781 -17.9984,-13.17099 -28.178,-11.42834 -44.5312,-15.34375 -4.50338,-40.74058 26.6218,-103.31766 -2.5,-123.90625 -0.45165,-0.27101 -0.94057,-0.37856 -1.46875,-0.375 z"
         style="color:#000000;fill:#844e00;fill-opacity:1;stroke:#000000;stroke-width:4;stroke-linecap:round;stroke-linejoin:round;stroke-miterlimit:4;stroke-opacity:1;stroke-dasharray:none;stroke-dashoffset:0;marker:none;visibility:visible;display:inline;overflow:visible;enable-background:accumulate" />
      <path
         sodipodi:nodetypes="scccccccsscssccs"
         inkscape:connector-curvature="0"
         id="path3207"
         transform="translate(-297.85712,-632.65442)"
         d="m 1274.8125,667.09375 c -3.7544,0.15905 -5.3274,6.96703 -6.6875,9.6875 -2.0157,4.03149 -9.9708,15.99449 -11.7986,20.19878 -5.5284,12.71576 -22.1135,16.62784 -34.7599,18.93621 -35.4581,9.30367 -71.8036,1.28731 -103.504,6.20876 -3.0078,0.66842 -4.8296,3.99044 -7.875,4.59375 l 2.0937,0 c -1.1934,0 -0.8169,0.13589 -0.062,0.40625 1.6916,-1.22117 3.5515,-2.33935 5.75,-3.21875 2.9416,-1.17667 14.0298,4.50525 17.5624,5.46875 10.3816,2.83144 24.9991,-0.46875 36.25,-0.46875 26.6386,-1.24585 41.7965,2.31876 69.75,-1.3125 6.7076,-0.87134 19.1368,-4.16778 23.6563,-8.6875 9.868,-9.86845 12.3909,-32.03026 11.625,-51.28125 -0.089,-0.048 -0.157,-0.11492 -0.25,-0.15625 -0.6308,-0.28038 -1.2137,-0.39772 -1.75,-0.375 z"
         style="color:#000000;fill:#54261c;fill-opacity:1;fill-rule:nonzero;stroke:none;stroke-width:4;marker:none;visibility:visible;display:inline;overflow:visible;enable-background:accumulate" />
      <path
         sodipodi:nodetypes="csssscssssssccssssccsscssssc"
         transform="translate(-297.85712,-632.65442)"
         inkscape:connector-curvature="0"
         id="path3188"
         d="m 1067.4262,706.88583 c 4.8966,-1.3124 9.226,-4.2452 13.7425,-5.93894 7.6924,-2.88479 69.8389,-0.68715 82.4056,-0.68715 6.1441,0 17.9351,-3.51795 23.1658,-1.27614 2.5021,1.07235 8.9539,-1.96328 8.0982,-1.96328 -0.6157,0 -1.8716,-3.70203 -2.9938,-4.12291 -6.5973,-2.47405 -15.9532,-17.44612 -20.9947,-21.4795 -6.143,-4.91457 -22.7595,-0.18171 -30.3432,-3.5524 -7.5725,-3.36569 -16.2013,-4.39807 -23.9511,-7.16599 -6.8885,-2.46026 -11.5079,-6.61167 -18.6014,-8.63846 -20.7591,-5.93141 -77.224,10.53155 -95.9026,20.909 -6.66787,3.7045 -8.65171,13.57728 -16.68729,16.04986 -9.83365,3.02586 -20.56229,4.74088 -30.47879,6.72426 -8.16008,0.004 -40.8667,10.98821 -45.30099,15.36272 -2.35997,1.87126 24.08197,3.55031 27.92661,5.44812 8.3061,4.10008 12.74414,4.02473 19.33759,4.02473 10.05748,0 18.87295,-3.38616 28.76098,-0.34357 4.35985,1.34154 5.48782,6.27027 9.03075,8.29488 4.65503,2.66013 22.23394,-1.15387 25.66894,-3.73024 1.0933,-0.82006 -6.6712,-4.02104 -6.9694,-4.31923 -2.4046,-2.40465 -10.2953,-13.89539 -15.60749,-11.53431 -7.18532,3.1936 -11.56848,5.44812 -20.22103,5.44812 -0.21281,0 -2.71771,0.22836 -2.50309,-0.14725 1.35478,-2.37095 6.19467,-2.72292 8.14731,-4.02473 1.93772,-1.29187 3.47382,-4.50535 5.98778,-5.44812 1.24483,-0.46683 0.95321,-3.37892 2.89575,-2.65044 7.2178,2.7068 26.09587,0.56771 32.78557,2.79768 4.915,1.63842 37.7053,2.89594 42.6015,1.96329 z"
         style="color:#000000;fill:#4e0400;fill-opacity:1;stroke:none;stroke-width:4;marker:none;visibility:visible;display:inline;overflow:visible;enable-background:accumulate" />
      <path
         inkscape:connector-curvature="0"
         id="path3212"
         transform="translate(-297.85712,-632.65442)"
         d="m 947.25,473.8125 c -1.25089,0.62719 -2.54935,1.23095 -3.90625,1.8125 -4.66667,2.00008 -8.15038,10.83222 -12.96875,13.9375 -6.73048,13.15229 -12.37871,27.93661 -17.15625,42.90625 0.65585,-0.0671 1.3481,-0.15697 2.09375,-0.28125 25.61424,-4.26922 35.23081,-23.18885 45.53125,-46.78125 0.20416,-4.59365 -6.29484,-9.23329 -13.59375,-11.59375 z"
         style="color:#000000;fill:#4e0400;fill-opacity:1;fill-rule:nonzero;stroke:none;stroke-width:4;marker:none;visibility:visible;display:inline;overflow:visible;enable-background:accumulate" />
      <path
         sodipodi:nodetypes="cc"
         transform="translate(-297.85712,-632.65442)"
         inkscape:connector-curvature="0"
         id="path2999"
         d="m 871.50726,494.62814 c -2.3416,32.22358 45.69692,12.22855 52.12678,-3.05416"
         style="color:#000000;fill:#673701;fill-opacity:1;stroke:#000000;stroke-width:4;stroke-linecap:round;stroke-linejoin:round;stroke-miterlimit:4;stroke-opacity:1;stroke-dasharray:none;stroke-dashoffset:0;marker:none;visibility:visible;display:inline;overflow:visible;enable-background:accumulate" />
      <g
         id="g3090">
        <path
           style="color:#000000;fill:#673701;fill-opacity:1;stroke:#000000;stroke-width:4;stroke-linecap:round;stroke-linejoin:round;stroke-miterlimit:4;stroke-opacity:1;stroke-dasharray:none;stroke-dashoffset:0;marker:none;visibility:visible;display:inline;overflow:visible;enable-background:accumulate"
           d="m 973.46517,406.81048 c -7.25728,-23.30399 -77.55475,-34.26148 -95.78557,-75.83332 1.23215,-1.2322 10.48568,-3.57955 14.71488,-7.80893 8.6959,-8.69625 11.77508,-25.0145 13.25728,-33.90808 -6.071,5.20492 -17.67326,28.12841 -31.40795,29.22273 -0.89737,0.0715 -3.54193,2.10076 -4.44223,1.45767 -6.14059,-4.38632 -4.54414,-42.51305 -10.16854,-48.13768 -2.36168,-2.36178 -2.48302,8.22916 -2.53346,8.88482 -0.30971,4.02646 1.81591,36.29532 0.24294,37.34401 -19.50478,-0.69375 -27.07549,-18.01514 -35.989,-24.32914 10.47977,33.63658 32.30791,35.87978 40.36182,39.35698 8.73089,13.09688 16.76259,26.68709 29.15213,36.754 1.7561,1.42689 20.02473,13.82779 20.02473,14.88901 0,5.45174 -16.13299,3.3753 -19.29593,2.67239 -10.01237,-2.22506 -17.33514,-16.64195 -18.67125,-25.99504 -0.22279,-1.55959 -0.19238,-6.30071 -1.24937,-7.35774 -1.94366,-1.94374 -4.67193,7.93489 -4.78928,8.43364 -5.08476,21.61112 14.10484,37.81316 35.42535,36.0645 10.57699,-1.93389 15.15025,-4.76661 21.66856,-7.29697 3.72988,1.48019 19.12565,8.17787 21.40861,9.20117 1.40051,1.32275 9.79549,5.92998 7.32274,4.373"
           id="path3073"
           inkscape:connector-curvature="0"
           sodipodi:nodetypes="ccscsssccccsssssscccc"
           transform="translate(-297.85712,-632.65442)" />
        <path
           style="color:#000000;fill:#4e0400;fill-opacity:1;fill-rule:nonzero;stroke:none;stroke-width:4;marker:none;visibility:visible;display:inline;overflow:visible;enable-background:accumulate"
           d="m 867.65625,320.15625 c -1.59039,0.18224 -4.62283,2.21101 -5.90625,2.4375 C 857.02916,323.42688 853.29261,322 848.875,322 c -1.9959,0 -3.94791,0.3125 -5.9375,0.3125 -0.93285,0 -3.7141,0.0625 -2.78125,0.0625 1.52937,0 2.35187,1.75831 4,2.5 4.19694,1.8887 7.27004,3.6168 9.9375,5.53125 3.07945,1.10037 5.73642,1.84087 7.625,2.65625 2.31633,3.47464 4.59391,6.96842 6.90625,10.4375 2.0295,1.23791 4.29634,2.30923 7.03125,4.6875 2.40043,2.08742 3.86755,4.89044 6,7.15625 7.83558,9.40774 18.30117,15.34677 26.15625,22.21875 3.28931,2.90518 3.85357,3.56253 3.09375,7.125 -1.0431,4.89066 -13.46905,3.70359 -18.15625,2.90625 -2.17266,-0.1195 -4.28681,-0.47403 -6.00038,-1.03125 5.04744,1.71168 10.04673,2.92573 12.43788,3.125 3.75102,0.31259 14.91711,1.23242 18.03125,-0.84375 0.73917,-0.4928 2.54119,-2.88719 3.4375,-2.375 3.45738,1.97573 7.58492,3.40994 10.625,6.28125 0.83675,0.79029 1.57731,1.68025 2.3125,2.5625 5.15912,2.22251 10.50064,4.55099 11.78125,5.125 1.40051,1.32275 9.8165,5.93198 7.34375,4.375 L 966,406.09375 c -0.0917,-0.0637 -0.24671,-0.16633 -0.25,-0.1875 -0.0528,-0.33959 0.33337,-1.1146 0,-1.03125 -8.99953,-8.46789 -18.99552,-15.56725 -30.09375,-20.5 -5.44911,-2.42192 -11.24556,-3.59885 -16.59375,-6.71875 -9.2367,-5.3883 -16.85589,-13.34771 -25.46875,-19.5 -5.0282,-3.59172 -10.32331,-6.81018 -14.25,-11.71875 -5.83783,-7.29759 -4.76466,-10.28891 -0.84375,-13.65625 -0.28798,-0.59398 -0.54635,-1.20561 -0.8125,-1.8125 0.71365,-0.71368 4.12684,-1.79538 7.6875,-3.40625 2.56029,-1.80449 7.30143,-5.32857 5.78125,-6.46875 -0.17905,-0.13429 -0.99378,0.7633 -1.15625,0.875 -2.67618,1.83995 -7.63459,3.69564 -10.875,4.34375 -6.80901,1.36186 -7.57935,-4.85783 -10.875,-6.09375 -0.15839,-0.0594 -0.36655,-0.0885 -0.59375,-0.0625 z"
           id="path3077"
           inkscape:connector-curvature="0"
           sodipodi:nodetypes="cssssscccsccsccssssccccccsssscccssssc"
           transform="translate(-297.85712,-632.65442)" />
        <path
           sodipodi:nodetypes="ccscsssccccsssssscccc"
           inkscape:connector-curvature="0"
           id="path3082"
           d="m 973.46517,406.81048 c -7.25728,-23.30399 -77.55475,-34.26148 -95.78557,-75.83332 1.23215,-1.2322 10.48568,-3.57955 14.71488,-7.80893 8.6959,-8.69625 11.77508,-25.0145 13.25728,-33.90808 -6.071,5.20492 -17.67326,28.12841 -31.40795,29.22273 -0.89737,0.0715 -3.54193,2.10076 -4.44223,1.45767 -6.14059,-4.38632 -4.54414,-42.51305 -10.16854,-48.13768 -2.36168,-2.36178 -2.48302,8.22916 -2.53346,8.88482 -0.30971,4.02646 1.81591,36.29532 0.24294,37.34401 -19.50478,-0.69375 -27.07549,-18.01514 -35.989,-24.32914 10.47977,33.63658 32.30791,35.87978 40.36182,39.35698 8.73089,13.09688 16.76259,26.68709 29.15213,36.754 1.7561,1.42689 20.02473,13.82779 20.02473,14.88901 0,5.45174 -16.13299,3.3753 -19.29593,2.67239 -10.01237,-2.22506 -17.33514,-16.64195 -18.67125,-25.99504 -0.22279,-1.55959 -0.19238,-6.30071 -1.24937,-7.35774 -1.94366,-1.94374 -4.67193,7.93489 -4.78928,8.43364 -5.08476,21.61112 14.10484,37.81316 35.42535,36.0645 10.57699,-1.93389 15.15025,-4.76661 21.66856,-7.29697 3.72988,1.48019 19.12565,8.17787 21.40861,9.20117 1.40051,1.32275 9.79549,5.92998 7.32274,4.373"
           style="color:#000000;fill:none;stroke:#000000;stroke-width:4;stroke-linecap:round;stroke-linejoin:round;stroke-miterlimit:4;stroke-opacity:1;stroke-dasharray:none;stroke-dashoffset:0;marker:none;visibility:visible;display:inline;overflow:visible;enable-background:accumulate"
           transform="translate(-297.85712,-632.65442)" />
        <path
           style="color:#000000;fill:#673701;fill-opacity:1;stroke:#000000;stroke-width:4;stroke-linecap:round;stroke-linejoin:round;stroke-miterlimit:4;stroke-opacity:1;stroke-dasharray:none;stroke-dashoffset:0;marker:none;visibility:visible;display:inline;overflow:visible;enable-background:accumulate"
           d="m 942.85262,395.91163 c -4.0169,-10.09009 10.56545,-46.23858 13.28251,-44.27221 -4.89232,12.83508 -3.68965,39.89608 -3.55831,45.18012 -0.22148,1.93766 -3.1374,4.2186 -8.71813,2.11035 z"
           id="path3075"
           inkscape:connector-curvature="0"
           sodipodi:nodetypes="ccccc"
           transform="translate(-297.85712,-632.65442)" />
      </g>
      <path
         transform="translate(-297.85712,-632.65442)"
         inkscape:connector-curvature="0"
         id="path3011"
         d="m 937.04684,419.00644 c -3.10176,-1.69774 -7.02368,-3.73911 -9.1621,-6.73303 -1.03054,-1.44281 -11.34936,-13.83343 -10.51559,-14.33371 3.79469,-2.27691 28.10189,1.34665 32.51851,2.49886 2.4689,0.64408 15.07048,6.6595 12.77141,8.08657"
         style="color:#000000;fill:#844e00;fill-opacity:1;stroke:#000000;stroke-width:4;stroke-linecap:round;stroke-linejoin:round;stroke-miterlimit:4;stroke-opacity:1;stroke-dasharray:none;stroke-dashoffset:0;marker:none;visibility:visible;display:inline;overflow:visible;enable-background:accumulate" />
      <path
         inkscape:connector-curvature="0"
         id="path2986"
         d="m 683.01788,-141.49817 c -6.47701,12.76151 -8.31986,27.42856 -16.32786,39.5565 -14.9241,28.456908 -40.45353,50.92888 -50.66012,81.854955 -3.58419,15.8515662 6.54581,1.730046 6.29251,-5.899248 13.93189,-30.60392 40.13791,-53.855103 53.22474,-85.046767 2.41885,-8.35345 11.90691,-23.54045 7.47073,-30.46544 z"
         style="font-size:medium;font-style:normal;font-variant:normal;font-weight:normal;font-stretch:normal;text-indent:0;text-align:start;text-decoration:none;line-height:normal;letter-spacing:normal;word-spacing:normal;text-transform:none;direction:ltr;block-progression:tb;writing-mode:lr-tb;text-anchor:start;baseline-shift:baseline;color:#000000;fill:#000000;fill-opacity:1;stroke:none;stroke-width:4;marker:none;visibility:visible;display:inline;overflow:visible;enable-background:accumulate;font-family:Sans;-inkscape-font-specification:Sans" />
      <path
         transform="translate(-297.85712,-632.65442)"
         sodipodi:nodetypes="cssssssssscssc"
         inkscape:connector-curvature="0"
         id="path2988"
         d="m 969.66852,577.03484 c -6.95641,2.24834 -19.47776,14.11697 -23.18288,20.26849 -12.31371,20.44414 -23.07006,37.12836 -13.32669,66.77498 1.58571,4.82491 3.71061,11.13792 6.66334,14.09077 4.32725,4.32742 -10.3352,9.56589 -11.86908,10.75896 -7.83977,6.09784 -60.71459,2.63149 -44.83875,26.44622 15.767,23.65147 35.79482,2.37628 55.31964,8.88482 8.28525,2.76186 15.38883,3.81998 23.52993,4.72006 16.04168,1.77356 54.91327,2.95414 59.83127,-4.78947 0.3251,-0.51185 -20.3417,-16.94919 -22.00291,-16.4508 -1.8211,0.54635 -19.69105,9.41085 -26.27153,7.03435 3.02347,-0.44406 3.67935,-1.38708 4.61566,-1.89782 3.88597,-2.1197 7.72985,-4.74542 10.89734,-7.91304 15.03994,-15.04053 37.17014,-29.18864 39.21654,-51.0183"
         style="color:#000000;fill:none;stroke:#000000;stroke-width:4;stroke-linecap:round;stroke-linejoin:round;stroke-miterlimit:4;stroke-opacity:1;stroke-dasharray:none;stroke-dashoffset:0;marker:none;visibility:visible;display:inline;overflow:visible;enable-background:accumulate" />
      <path
         inkscape:connector-curvature="0"
         id="path2990"
         d="m 660.11163,70.87683 c -8.1547,0.31472 -15.62101,4.06384 -23.59578,5.390225 -2.14405,0.404272 -4.325,0.654006 -6.50937,0.611893 -1.61531,-1.496045 -5.98644,-0.48082 -4.63207,2.180991 1.56901,2.200703 4.59381,1.763505 6.94219,1.728005 9.04555,-0.483205 17.36983,-4.574387 26.27022,-5.847228 2.8757,-0.03803 4.9318,2.300531 7.19318,3.729071 2.75141,1.991877 5.57475,3.988799 8.80523,5.126592 1.57572,1.841068 5.16908,-0.616712 3.51224,-2.653491 -1.84028,-1.635618 -4.6543,-1.544423 -6.47973,-3.268128 -3.76417,-2.428318 -7.0826,-5.772462 -11.50611,-6.99793 z"
         style="font-size:medium;font-style:normal;font-variant:normal;font-weight:normal;font-stretch:normal;text-indent:0;text-align:start;text-decoration:none;line-height:normal;letter-spacing:normal;word-spacing:normal;text-transform:none;direction:ltr;block-progression:tb;writing-mode:lr-tb;text-anchor:start;baseline-shift:baseline;color:#000000;fill:#000000;fill-opacity:1;stroke:none;stroke-width:4;marker:none;visibility:visible;display:inline;overflow:visible;enable-background:accumulate;font-family:Sans;-inkscape-font-specification:Sans" />
      <path
         inkscape:connector-curvature="0"
         id="path2992"
         d="m 712.23668,80.06433 a 2.0002,2.0002 0 0 0 -1.25,0.5625 c -0.5234,0.49933 -1.3149,1.3157 -2.125,2.09375 -0.8102,0.77805 -1.7768,1.54015 -1.875,1.59375 -0.9936,0.54192 -3.5264,1.49764 -4.93755,2.125 -0.35278,0.15684 -0.60103,0.26131 -1,0.53125 -0.0997,0.06749 -0.19458,0.124 -0.375,0.3125 -0.18042,0.1885 -0.61928,0.54736 -0.59375,1.5 0.0128,0.47632 0.24721,1.00612 0.53125,1.3125 0.28404,0.30638 0.55654,0.42274 0.75,0.5 0.38693,0.15452 0.56606,0.14841 0.71875,0.15625 0.6108,0.03136 0.8646,-0.02785 1.4063,-0.125 0.5416,-0.09715 1.2526,-0.26099 2.1874,-0.46875 1.5056,-0.33457 3.6386,-0.52608 5.6563,-0.71875 2.0177,-0.19267 3.8374,-0.31033 5.3437,-0.8125 a 2.0110091,2.0110091 0 0 0 -1.2812,-3.8125 c -0.109,0.03632 -0.6718,0.08458 -0.875,0.125 0.2074,-1.05453 0.4076,-2.43137 -0.4375,-3.875 a 2.0002,2.0002 0 0 0 -1.8437,-1 z"
         style="font-size:medium;font-style:normal;font-variant:normal;font-weight:normal;font-stretch:normal;text-indent:0;text-align:start;text-decoration:none;line-height:normal;letter-spacing:normal;word-spacing:normal;text-transform:none;direction:ltr;block-progression:tb;writing-mode:lr-tb;text-anchor:start;baseline-shift:baseline;color:#000000;fill:#000000;fill-opacity:1;stroke:none;stroke-width:4;marker:none;visibility:visible;display:inline;overflow:visible;enable-background:accumulate;font-family:Sans;-inkscape-font-specification:Sans" />
      <path
         inkscape:connector-curvature="0"
         id="path2994"
         d="m 688.76788,80.09558 a 2.0002,2.0002 0 0 0 -1.59375,2.65625 c 2.39109,7.1426 9.06271,12.73785 12.4375,16.40625 a 2.001263,2.001263 0 0 0 2.93745,-2.71875 c -3.7009,-4.02294 -9.74415,-9.44383 -11.5937,-14.96875 a 2.0002,2.0002 0 0 0 -2.1875,-1.375 z"
         style="font-size:medium;font-style:normal;font-variant:normal;font-weight:normal;font-stretch:normal;text-indent:0;text-align:start;text-decoration:none;line-height:normal;letter-spacing:normal;word-spacing:normal;text-transform:none;direction:ltr;block-progression:tb;writing-mode:lr-tb;text-anchor:start;baseline-shift:baseline;color:#000000;fill:#000000;fill-opacity:1;stroke:none;stroke-width:4;marker:none;visibility:visible;display:inline;overflow:visible;enable-background:accumulate;font-family:Sans;-inkscape-font-specification:Sans" />
      <path
         sodipodi:nodetypes="cc"
         transform="translate(-297.85712,-632.65442)"
         inkscape:connector-curvature="0"
         id="path2997"
         d="m 875.3248,497.82112 c 2.32168,12.84232 25.17916,0.91987 29.638,-2.29062"
         style="color:#000000;fill:#673701;fill-opacity:1;stroke:#000000;stroke-width:4;stroke-linecap:round;stroke-linejoin:round;stroke-miterlimit:4;stroke-opacity:1;stroke-dasharray:none;stroke-dashoffset:0;marker:none;visibility:visible;display:inline;overflow:visible;enable-background:accumulate" />
      <path
         inkscape:connector-curvature="0"
         id="path3202"
         transform="translate(-297.85712,-632.65442)"
         d="m 1075.0938,703.875 c -2.7152,0.22254 -5.0968,3.45294 -7.5626,4.09375 -0.2107,0.0617 -0.4139,0.0934 -0.625,0.125 -8.2832,5.33447 -12.25,11.78125 -12.25,11.78125 0,0 11.9422,5.78217 19.625,7.0625 -1.3687,5.70013 2.4385,5.60515 10.7188,8.5625 16.0986,5.74973 19.5866,-3.53182 28.625,-9.34375 -0.9386,-1.59421 -2.6361,-3.23084 -5.0312,-5.0625 -1.3743,-1.05088 -3.6575,-3.37538 -5.25,-3.90625 -4.0699,-1.3567 -8.7808,-0.23413 -12.4063,-1.59375 -5.7419,-2.15327 -8.5187,-9.98827 -14.6563,-11.625 -0.4028,-0.10743 -0.7996,-0.12554 -1.1874,-0.0937 z"
         style="color:#000000;fill:#4e0400;fill-opacity:1;fill-rule:nonzero;stroke:none;stroke-width:4;marker:none;visibility:visible;display:inline;overflow:visible;enable-background:accumulate" />
      <path
         style="color:#000000;fill:none;stroke:none;stroke-width:4;marker:none;visibility:visible;display:inline;overflow:visible;enable-background:accumulate"
         d="m 998.65625,425.3125 c -5.10578,0.0344 -13.30891,11.80548 -15.125,13.9375 -12.86649,15.10476 -20.87357,28.09727 -40.1875,36.375 -4.66667,2.00008 -8.15038,10.83222 -12.96875,13.9375 -20.82091,40.68693 -31.52944,96.86247 -36.875,126.5 -4.52636,4.52654 -8.68951,6.11865 -5.96875,14.28125 2.61686,7.85092 10.23548,9.98738 12.78125,17.625 6.54688,19.64144 -6.50826,21.74094 13.125,41.375 0.69158,0.69161 1.36191,1.74956 2.15625,2.90625 -17.42866,2.72594 -44.42073,5.1963 -32.46875,23.125 15.767,23.65147 35.78768,2.36646 55.3125,8.875 8.28525,2.76186 15.39015,3.81867 23.53125,4.71875 16.04168,1.77356 54.89445,2.96236 59.81245,-4.78125 0.3252,-0.51185 -20.3387,-16.93589 -21.99995,-16.4375 -1.8211,0.54635 -17.2851,12.16651 -25.55515,6.94441 0.88925,-0.26622 2.96259,-1.30867 3.8989,-1.81941 3.88597,-2.1197 7.73876,-4.73863 10.90625,-7.90625 0.55477,-0.55479 1.14605,-1.10346 1.71875,-1.65625 18.8485,2.21629 53.7354,2.58905 66.2812,2.6875 9.6537,0.76147 9.1003,-0.61832 13.9063,-0.1875 -11.0194,5.56334 -16.2813,14.0625 -16.2813,14.0625 0,0 11.9422,5.78217 19.625,7.0625 -1.3688,5.70013 2.4385,5.60515 10.7188,8.5625 18.4385,6.58546 20.3271,-6.53685 32.9688,-11.59375 2.9416,-1.17667 14.0298,4.50525 17.5624,5.46875 10.3816,2.83144 24.9991,-0.46875 36.25,-0.46875 26.6386,-1.24585 41.7965,2.31876 69.75,-1.3125 6.7076,-0.87134 19.1368,-4.16778 23.6563,-8.6875 14.6853,-14.6859 13.1508,-56.61607 8.625,-75.625 -2.0589,-8.64807 -18.6875,-41.7426 -18.6875,-43.21875 0,-0.0833 4.0725,6.36393 7.6562,10.84375 4.0336,5.04197 6.023,10.11778 7.8438,16.1875 4.5823,15.27482 6.733,38.82479 18.5312,49.3125 1.8206,1.61827 14.4129,12.77105 15.0626,8.46875 0.2297,-1.52098 -5.7834,-20.27602 -5.4376,-25.65625 -1.7363,-8.68219 -0.1339,-17.72436 -2.8437,-26.3125 -11.7948,-37.38083 -39.6398,-55.34154 -79.875,-70.53125 -8.6398,-3.26175 -24.9612,-3.45796 -42.4375,-3.8125 -46.2626,-0.93852 -94.3148,7.18262 -126.4688,6.375 -17.9984,-13.17099 -28.178,-11.42834 -44.5312,-15.34375 -4.50338,-40.74058 26.6218,-103.31766 -2.5,-123.90625 -0.45165,-0.27101 -0.94057,-0.37856 -1.46875,-0.375 z"
         transform="translate(-297.85712,-632.65442)"
         id="path3217"
         inkscape:connector-curvature="0"
         sodipodi:nodetypes="sssccssscssscscsscccccssscsscscscscssscccs" />
      <path
         sodipodi:nodetypes="csssssscscc"
         transform="translate(-297.85712,-632.65442)"
         inkscape:connector-curvature="0"
         id="path3001"
         d="m 1004.1494,448.81578 c -3.1405,16.4776 -11.91522,33.30647 -27.34743,41.02288 -17.00254,8.50162 -39.45112,1.88655 -40.39652,1.73532 -7.0822,-1.13291 -8.35667,-2.30711 -12.0079,-1.18002 -14.43325,4.45537 -56.03702,12.06327 -63.33554,-4.96732 -0.78951,-1.84227 -1.7843,-4.72807 -1.70147,-7.11048 0.21608,-6.21538 41.00478,-28.11564 51.03677,-31.76233 2.52984,-0.91961 4.72388,-1.84834 5.73939,-2.86962 0.19245,-1.88768 1.09448,-5.36768 1.73632,-7.29329 1.37041,-4.11142 6.65368,-11.23131 9.0927,-14.64607 15.64377,-20.94179 65.47047,-26.64246 73.01914,-5.90008"
         style="color:#000000;fill:#844e00;fill-opacity:1;stroke:#000000;stroke-width:4;stroke-linecap:round;stroke-linejoin:round;stroke-miterlimit:4;stroke-opacity:1;stroke-dasharray:none;stroke-dashoffset:0;marker:none;visibility:visible;display:inline;overflow:visible;enable-background:accumulate" />
      <path
         sodipodi:nodetypes="csssssccsssccsscsssssssssscc"
         transform="translate(-297.85712,-632.65442)"
         inkscape:connector-curvature="0"
         id="path3009"
         d="m 972.53298,408.06253 c 23.1874,-33.09326 71.71772,-27.00345 103.69832,-44.77116 9.1476,-5.08222 38.7307,-18.89547 38.7307,-30.05568 0,-1.28006 2.5374,0.41648 3.8175,0.41648 1.7352,0 -3.3511,-0.97614 -5.0278,-1.42281 -2.1008,-0.55962 -9.9627,-5.90135 -11.7,-7.67025 -3.6476,-3.71401 -16.5944,-27.2788 -11.9298,-37.73426 0.1604,-0.16044 5.7399,12.58199 6.3076,13.71748 2.0494,4.09893 22.3399,27.77517 28.1804,21.9344 2.4553,-2.45536 14.6877,-42.89702 15.409,-42.89702 1.8169,0 -2.5389,28.85123 -3.054,31.58276 -1.1799,6.25662 -4.7199,13.6137 -4.7199,13.04958 13.1687,1.63682 35.8703,-22.18461 38.6613,-22.97559 0.575,0 -7.5727,14.10736 -8.6068,15.27078 -6.5234,7.3391 -14.9591,17.28375 -26.6534,17.28375 -2.4552,0 -5.6164,-0.0108 -8.468,-0.41647 -2.2003,2.3673 -6.0913,10.33297 -10.3421,14.09077 -7.3118,6.46372 -30.569,32.41571 -37.8283,32.41571 -1.3043,0 7.541,4.37299 10.6891,4.37299 7.1798,0 12.05,-0.99284 18.5324,-4.23417 8.7522,-4.37629 5.366,-29.39048 8.3986,-25.05797 4.3788,6.25568 5.1386,17.62627 1.6658,24.57208 -12.236,24.47304 -38.8746,19.01525 -56.0831,6.10832 -3.3516,-2.51377 -15.3099,2.92525 -18.8795,3.81769 -19.7461,4.93673 -41.6204,11.65481 -56.29137,23.39207 -1.9634,1.57079 -8.10716,6.81622 -11.66085,3.26239 -3.49463,-3.49477 -2.96026,-8.79586 -2.29052,-4.44241 -0.18509,-1.20315 -0.37019,-2.40631 -0.55528,-3.60946 z"
         style="color:#000000;fill:#673701;fill-opacity:1;stroke:none;stroke-width:4;marker:none;visibility:visible;display:inline;overflow:visible;enable-background:accumulate" />
      <path
         sodipodi:nodetypes="cscscsc"
         transform="translate(-297.85712,-632.65442)"
         inkscape:connector-curvature="0"
         id="path3005"
         d="m 1000.3319,433.73588 c 8.478,-10.98323 20.5954,-7.75108 32.4144,-11.29691 4.4603,-1.33815 9.448,-1.86775 13.6737,-3.67887 6.1686,-2.64376 13.7934,-5.02861 16.9014,-11.24484 1.0785,-2.15714 1.7286,-2.68792 3.4705,-6.75039 -0.6951,-1.6388 -11.6953,-5.20396 -13.934,-1.61382 -7.1871,11.52533 -61.60431,14.51616 -52.526,34.58483 z"
         style="color:#000000;fill:#4e0400;fill-opacity:1;stroke:#000000;stroke-width:4;stroke-linecap:round;stroke-linejoin:round;stroke-miterlimit:4;stroke-opacity:1;stroke-dasharray:none;stroke-dashoffset:0;marker:none;visibility:visible;display:inline;overflow:visible;enable-background:accumulate" />
      <path
         sodipodi:nodetypes="ccsscsssscsssscccscccccscccsssc"
         inkscape:connector-curvature="0"
         id="path3064"
         transform="translate(-297.85712,-632.65442)"
         d="m 1101.5312,322.4375 c -0.3714,0.32504 0.662,1.79676 1.8438,3.25 2.8588,2.26906 8.6154,6.06251 10.375,6.53125 1.6767,0.44667 6.7665,1.4375 5.0312,1.4375 -1.1062,0 -3.1524,-1.26341 -3.6874,-0.78125 5.1748,1.42082 8.1895,2.34131 -0.1563,10.6875 -11.7069,11.70733 -28.1965,22.58232 -43.0313,30 -5.3579,2.67908 -12.6693,2.72414 -18.4687,4.0625 -18.5498,4.2809 -50.8429,13.33935 -65.96875,25.28125 -4.67308,3.68942 -8.84617,7.94841 -12.78125,12.40625 0.21544,0.27275 0.42981,0.5548 0.6875,0.8125 3.55369,3.55383 9.69285,-1.71046 11.65625,-3.28125 14.67095,-11.73726 36.56645,-18.43827 56.31255,-23.375 3.5696,-0.89244 15.5234,-6.32627 18.875,-3.8125 10.262,7.69685 23.8663,12.7438 35.7812,10.375 0.3136,-0.25701 0.6223,-0.52851 0.9062,-0.8125 2.4262,-2.42635 -14.3633,-2.4568 -15.0937,-2.59375 -2.3882,-0.44782 -13.1232,-10.68834 -8.9375,-12.78125 2.8256,-1.41286 7.4948,-1.15538 10.5938,-3.0625 9.6374,-6.84105 24.6274,-23.15495 30.7812,-28.78125 1.8999,-3.43258 4.0107,-6.64366 6.7188,-8.75 0.103,-0.0802 0.2658,-0.18789 0.4062,-0.28125 1.5068,-2.37004 2.8457,-4.55356 3.8125,-5.59375 2.8516,0.40567 6.0135,0.40625 8.4687,0.40625 3.4965,0 6.6752,-0.90123 9.625,-2.34375 0.4716,-0.44726 0.9322,-0.98412 1.4063,-1.59375 0.1631,-0.20975 1.2647,-1.0221 1.0937,-1.25 -5.4492,1.29355 -11.547,1.47969 -17.9529,0.83735 -1.2308,-0.12342 7.0961,-18.84345 6.2109,-17.94058 -0.9488,0.96789 -10.1703,17.20881 -13.1049,16.96107 -6.5053,-0.54919 -14.5275,-3.05847 -21.4031,-6.01409 z"
         style="color:#000000;fill:#4e0400;fill-opacity:1;fill-rule:nonzero;stroke:none;stroke-width:4;marker:none;visibility:visible;display:inline;overflow:visible;enable-background:accumulate" />
      <path
         sodipodi:nodetypes="csc"
         transform="translate(-297.85712,-632.65442)"
         inkscape:connector-curvature="0"
         id="path3013"
         d="m 876.38658,481.13735 c -4.56692,0.90511 -1.88823,2.84992 -0.6288,2.89247 7.55993,0.25536 3.66023,-4.19694 0.6288,-2.89247 z"
         style="color:#000000;fill:#844e00;fill-opacity:1;fill-rule:nonzero;stroke:#000000;stroke-width:4;stroke-linecap:round;stroke-linejoin:round;stroke-miterlimit:4;stroke-opacity:1;stroke-dasharray:none;stroke-dashoffset:0;marker:none;visibility:visible;display:inline;overflow:visible;enable-background:accumulate" />
      <path
         sodipodi:nodetypes="ccc"
         inkscape:connector-curvature="0"
         id="path3015"
         d="m 640.42022,-184.31371 c -8.7606,8.08819 -45.89037,19.97152 -45.88049,25.85522 14.9152,-6.72569 38.8112,-15.4645 45.88049,-25.85522 z"
         style="font-size:medium;font-style:normal;font-variant:normal;font-weight:normal;font-stretch:normal;text-indent:0;text-align:start;text-decoration:none;line-height:normal;letter-spacing:normal;word-spacing:normal;text-transform:none;direction:ltr;block-progression:tb;writing-mode:lr-tb;text-anchor:start;baseline-shift:baseline;color:#000000;fill:#000000;fill-opacity:1;fill-rule:nonzero;stroke:none;stroke-width:4;marker:none;visibility:visible;display:inline;overflow:visible;enable-background:accumulate;font-family:Sans;-inkscape-font-specification:Sans" />
      <path
         inkscape:connector-curvature="0"
         id="path3017"
         d="m 648.33906,-189.70134 c -0.5421,-1.52455 -0.55009,-1.62051 -0.31029,-2.65973 1.63718,-7.09472 11.51428,-5.10186 16.13506,-3.36899 3.15049,1.18147 7.25866,0.72025 6.91503,1.06389 -6.6169,6.61717 -17.22915,21.89108 -22.7398,4.96483 z"
         style="color:#000000;fill:#b1b1b1;fill-opacity:1;fill-rule:nonzero;stroke:none;stroke-width:4;marker:none;visibility:visible;display:inline;overflow:visible;enable-background:accumulate" />
      <path
         sodipodi:nodetypes="cssccssscc"
         inkscape:connector-curvature="0"
         id="path3019"
         d="m 649.21647,-192.26405 c -0.38428,0.34663 -0.76089,0.74656 -0.92999,1.49362 -0.1691,0.74706 0.20777,1.71913 0.67636,2.1418 0.93718,0.84532 1.68055,0.80287 2.50816,0.87362 0.82761,0.0708 1.73253,0.0617 2.62088,-0.0281 0.88834,-0.0899 1.75397,-0.24177 2.53634,-0.47909 0.78236,-0.23732 1.58398,-0.29159 2.2827,-1.54998 0.34936,-0.62921 0.27887,-1.7388 -0.11272,-2.31089 -0.3916,-0.57209 -0.83678,-0.81193 -1.29635,-1.04272 -3.28636,-1.44732 -5.34508,-1.6957 -8.28538,0.90177 z"
         style="font-size:medium;font-style:normal;font-variant:normal;font-weight:normal;font-stretch:normal;text-indent:0;text-align:start;text-decoration:none;line-height:normal;letter-spacing:normal;word-spacing:normal;text-transform:none;direction:ltr;block-progression:tb;writing-mode:lr-tb;text-anchor:start;baseline-shift:baseline;color:#000000;fill:#000000;fill-opacity:1;fill-rule:nonzero;stroke:none;stroke-width:4;marker:none;visibility:visible;display:inline;overflow:visible;enable-background:accumulate;font-family:Sans;-inkscape-font-specification:Sans" />
      <path
         sodipodi:nodetypes="ssccsssccss"
         inkscape:connector-curvature="0"
         id="path3047"
         d="m 655.01227,-199.00516 c -5.07665,0.014 -9.82063,4.82742 -7.94513,10.03027 1.51554,4.20429 4.84881,8.14476 9.9282,6.70209 6.26023,-1.72239 9.96412,-5.65662 14.41783,-9.89685 3.17722,-3.66479 -2.872,-4.23756 -5.40684,-4.55718 -3.66621,-0.46228 -7.17883,-2.2888 -10.99406,-2.27833 z m -0.084,2.02202 c 3.23173,0.50219 11.94883,3.57018 13.85621,4.25919 -2.71885,3.14323 -10.12069,8.68342 -13.87407,8.90426 -4.10607,-0.11064 -7.67747,-6.63649 -5.94364,-10.16397 0.79616,-1.61978 4.22716,-3.26899 5.9615,-2.99948 z"
         style="font-size:medium;font-style:normal;font-variant:normal;font-weight:normal;font-stretch:normal;text-indent:0;text-align:start;text-decoration:none;line-height:normal;letter-spacing:normal;word-spacing:normal;text-transform:none;direction:ltr;block-progression:tb;writing-mode:lr-tb;text-anchor:start;baseline-shift:baseline;color:#000000;fill:#000000;fill-opacity:1;stroke:none;stroke-width:4;marker:none;visibility:visible;display:inline;overflow:visible;enable-background:accumulate;font-family:Sans;-inkscape-font-specification:Sans" />
      <path
         sodipodi:nodetypes="csscc"
         transform="translate(-297.85712,-632.65442)"
         inkscape:connector-curvature="0"
         id="path3003"
         d="m 993.87679,446.24751 c 7.09831,-4.98679 5.3825,-18.90548 12.28551,-23.94736 7.4865,-5.46805 18.7084,-9.83724 31.6509,-12.49428 9.7244,-1.99638 17.7689,-13.00038 17.7689,-12.49428 -22.5967,-1.5174 -53.1555,8.49048 -67.04987,26.3074"
         style="color:#000000;fill:#844e00;fill-opacity:1;stroke:#000000;stroke-width:4;stroke-linecap:round;stroke-linejoin:round;stroke-miterlimit:4;stroke-opacity:1;stroke-dasharray:none;stroke-dashoffset:0;marker:none;visibility:visible;display:inline;overflow:visible;enable-background:accumulate" />
      <path
         style="color:#000000;fill:none;stroke:#000000;stroke-width:4;stroke-linecap:round;stroke-linejoin:round;stroke-miterlimit:4;stroke-opacity:1;stroke-dasharray:none;stroke-dashoffset:0;marker:none;visibility:visible;display:inline;overflow:visible;enable-background:accumulate"
         d="m 972.53298,408.06253 c 23.1874,-33.09326 71.71772,-27.00345 103.69832,-44.77116 9.1476,-5.08222 38.7307,-18.89547 38.7307,-30.05568 0,-1.28006 2.5374,0.41648 3.8175,0.41648 1.7352,0 -3.3511,-0.97614 -5.0278,-1.42281 -2.1008,-0.55962 -9.9627,-5.90135 -11.7,-7.67025 -3.6476,-3.71401 -16.5944,-27.2788 -11.9298,-37.73426 0.1604,-0.16044 5.7399,12.58199 6.3076,13.71748 2.0494,4.09893 22.3399,27.77517 28.1804,21.9344 2.4553,-2.45536 14.6877,-42.89702 15.409,-42.89702 1.8169,0 -2.5389,28.85123 -3.054,31.58276 -1.1799,6.25662 -4.7199,13.6137 -4.7199,13.04958 13.1687,1.63682 35.8703,-22.18461 38.6613,-22.97559 0.575,0 -7.5727,14.10736 -8.6068,15.27078 -6.5234,7.3391 -14.9591,17.28375 -26.6534,17.28375 -2.4552,0 -5.6164,-0.0108 -8.468,-0.41647 -2.2003,2.3673 -6.0913,10.33297 -10.3421,14.09077 -7.3118,6.46372 -30.569,32.41571 -37.8283,32.41571 -1.3043,0 7.541,4.37299 10.6891,4.37299 7.1798,0 12.05,-0.99284 18.5324,-4.23417 8.7522,-4.37629 5.366,-29.39048 8.3986,-25.05797 4.3788,6.25568 5.1386,17.62627 1.6658,24.57208 -12.236,24.47304 -38.8746,19.01525 -56.0831,6.10832 -3.3516,-2.51377 -15.3099,2.92525 -18.8795,3.81769 -19.7461,4.93673 -41.6204,11.65481 -56.29137,23.39207 -1.9634,1.57079 -8.10716,6.81622 -11.66085,3.26239 -3.49463,-3.49477 -2.96026,-8.79586 -2.29052,-4.44241 -0.18509,-1.20315 -0.37019,-2.40631 -0.55528,-3.60946 z"
         id="path3069"
         inkscape:connector-curvature="0"
         transform="translate(-297.85712,-632.65442)"
         sodipodi:nodetypes="csssssccsssccsscsssssssssscc" />
      <path
         sodipodi:nodetypes="cccc"
         transform="translate(-297.85712,-632.65442)"
         inkscape:connector-curvature="0"
         id="path3007"
         d="m 1002.518,393.6247 c 5.6167,-13.48549 2.8937,-29.46561 3.9564,-42.51525 5.2323,12.32288 6.4652,33.80026 2.6376,47.09649 -2.5769,0.79902 -6.6181,1.04792 -6.594,-4.58124 z"
         style="color:#000000;fill:#673701;fill-opacity:1;stroke:#000000;stroke-width:4;stroke-linecap:round;stroke-linejoin:round;stroke-miterlimit:4;stroke-opacity:1;stroke-dasharray:none;stroke-dashoffset:0;marker:none;visibility:visible;display:inline;overflow:visible;enable-background:accumulate" />
      <path
         sodipodi:nodetypes="ccccc"
         inkscape:connector-curvature="0"
         id="path3109"
         d="m 597.98663,-31.68567 c -4.39295,10.646316 -0.17968,22.3263219 2.46676,32.8426836 0.0576,4.941654 11.7689,14.5691464 6.73784,5.9610554 -6.0703,-9.4425665 -8.67516,-24.314549 -7.69967,-35.274348 -0.22046,-1.592158 -0.13815,-2.621889 -1.50493,-3.529391 z"
         style="font-size:medium;font-style:normal;font-variant:normal;font-weight:normal;font-stretch:normal;text-indent:0;text-align:start;text-decoration:none;line-height:normal;letter-spacing:normal;word-spacing:normal;text-transform:none;direction:ltr;block-progression:tb;writing-mode:lr-tb;text-anchor:start;baseline-shift:baseline;color:#000000;fill:#000000;fill-opacity:1;stroke:none;stroke-width:4;marker:none;visibility:visible;display:inline;overflow:visible;enable-background:accumulate;font-family:Sans;-inkscape-font-specification:Sans" />
      <path
         sodipodi:nodetypes="ccccc"
         inkscape:connector-curvature="0"
         id="path3132"
         d="m 703.01788,-86.12317 c -12.3769,8.471275 -25.65625,15.60948 -39.49587,21.38242 -7.68459,3.034691 1.54586,3.738964 6.46783,1.734247 11.86922,-6.031713 26.49784,-11.204205 36.94802,-19.607045 1.01981,-1.204526 -2.28947,-3.705788 -3.91998,-3.509622 z"
         style="font-size:medium;font-style:normal;font-variant:normal;font-weight:normal;font-stretch:normal;text-indent:0;text-align:start;text-decoration:none;line-height:normal;letter-spacing:normal;word-spacing:normal;text-transform:none;direction:ltr;block-progression:tb;writing-mode:lr-tb;text-anchor:start;baseline-shift:baseline;color:#000000;fill:#000000;fill-opacity:1;fill-rule:nonzero;stroke:none;stroke-width:4;marker:none;visibility:visible;display:inline;overflow:visible;enable-background:accumulate;font-family:Sans;-inkscape-font-specification:Sans" />
      <path
         sodipodi:nodetypes="cscccc"
         inkscape:connector-curvature="0"
         id="path3134"
         d="m 750.86168,-68.56067 c -4.53731,0.700036 -0.9001,11.832015 -2.32714,17.471301 -1.99875,7.898523 -3.56261,13.696171 -7.02606,21.01783 1.84169,3.600916 6.99534,-8.013962 6.90694,-7.393774 4.16578,-10.100543 6.64413,-19.07846 4.34728,-29.978031 -0.33598,-0.692803 -1.09482,-1.26783 -1.90102,-1.117326 z"
         style="font-size:medium;font-style:normal;font-variant:normal;font-weight:normal;font-stretch:normal;text-indent:0;text-align:start;text-decoration:none;line-height:normal;letter-spacing:normal;word-spacing:normal;text-transform:none;direction:ltr;block-progression:tb;writing-mode:lr-tb;text-anchor:start;baseline-shift:baseline;color:#000000;fill:#000000;fill-opacity:1;fill-rule:nonzero;stroke:none;stroke-width:4;marker:none;visibility:visible;display:inline;overflow:visible;enable-background:accumulate;font-family:Sans;-inkscape-font-specification:Sans" />
      <path
         inkscape:connector-curvature="0"
         id="path3161"
         d="m 846.36168,23.43933 c -5.58498,4.851345 6.21572,4.436388 9.35926,5.36069 6.31912,1.110881 12.45192,4.398639 15.68795,10.117872 6.97542,8.497201 14.16546,16.997912 23.04649,23.583938 -13.37323,6.253333 -28.51564,3.878377 -42.78091,4.223507 -23.88622,-0.424946 -48.13255,-3.322312 -71.76516,1.292496 -3.45701,0.422715 -14.57455,3.609255 -8.83416,7.389892 6.56504,-2.141918 15.16527,1.634654 18.58793,7.607845 -4.90904,3.899005 -13.8745,7.581743 -14.1556,14.105041 4.91667,1.402716 7.42975,-5.965936 11.7958,-7.861825 4.45649,-3.128409 10.45278,-7.912129 15.59346,-3.43979 5.32944,1.673017 8.60778,8.178436 13.34669,9.257229 3.07552,-5.367987 -5.41278,-8.741729 -9.22029,-11.18492 -6.95584,-3.973505 4.93557,-4.093138 7.7807,-4.546115 22.30518,-1.936652 44.71495,3.770804 66.93861,-0.173554 13.95488,-1.721222 27.8563,-3.912056 41.86883,-5.138506 1.10876,-8.037915 -11.53597,-1.376239 -15.04688,-6.572472 -5.38169,-2.860212 -9.80985,-7.20236 -14.86349,-10.581057 -9.91916,-8.011362 -16.88059,-18.94897 -25.96306,-27.750924 -6.32011,-4.145732 -14.08857,-4.74324 -21.37617,-5.689347 z m 51.4062,41.5625 c 1.80243,2.844941 9.49211,3.961669 8.61545,7.123831 -15.49609,1.657983 -30.98085,4.501284 -46.64878,4.42982 -19.068,-0.0092 -38.5789,-4.396417 -57.33117,0.979732 -4.74248,1.455323 -8.56737,4.555672 -11.99254,-0.62103 -1.80483,-1.387546 -12.00084,-5.46797 -4.83246,-5.875122 33.16064,-4.506193 66.64616,2.530258 99.82569,-1.325494 4.37183,-0.742607 8.69381,-2.170896 12.36381,-4.711737 z"
         style="font-size:medium;font-style:normal;font-variant:normal;font-weight:normal;font-stretch:normal;text-indent:0;text-align:start;text-decoration:none;line-height:normal;letter-spacing:normal;word-spacing:normal;text-transform:none;direction:ltr;block-progression:tb;writing-mode:lr-tb;text-anchor:start;baseline-shift:baseline;color:#000000;fill:#000000;fill-opacity:1;fill-rule:nonzero;stroke:none;stroke-width:4;marker:none;visibility:visible;display:inline;overflow:visible;enable-background:accumulate;font-family:Sans;-inkscape-font-specification:Sans" />
      <path
         inkscape:connector-curvature="0"
         id="path3233"
         d="m 435.26788,73.68933 c -8.9e-4,-5e-5 -0.41029,0.0063 -0.53125,0.03125 -0.24191,0.04988 -0.32325,0.11881 -0.40625,0.15625 -0.16601,0.07487 -0.22556,0.08972 -0.28125,0.125 -0.11137,0.07056 -0.18212,0.13661 -0.25,0.1875 -0.13576,0.10177 -0.29249,0.19972 -0.46875,0.34375 -0.35251,0.28806 -0.81265,0.70561 -1.375,1.1875 -1.1247,0.96378 -2.59392,2.2577 -4.09375,3.59375 -1.49983,1.33605 -3.02207,2.68676 -4.21875,3.8125 -0.59834,0.56287 -1.12221,1.08372 -1.53125,1.5 -0.40904,0.41628 -0.60116,0.52151 -1,1.21875 a 2.0002,2.0002 0 0 0 3.375,2.125 2.0002,2.0002 0 0 0 3.15625,0.8125 c 0.28292,-0.23766 0.33379,-0.31771 0.5,-0.5 0.16621,-0.18229 0.3665,-0.39408 0.59375,-0.65625 0.45449,-0.52434 1.01727,-1.20319 1.625,-1.9375 1.21546,-1.46863 2.57358,-3.14381 3.4375,-4.34375 0.93051,-1.29242 1.56582,-2.49312 2.28125,-3.46875 -0.18188,0.24804 -0.0191,0.0062 0.0625,-0.09375 0.0816,-0.09992 0.20139,-0.22964 0.3125,-0.375 0.11111,-0.14536 0.21087,-0.30996 0.34375,-0.53125 0.0664,-0.11064 0.15107,-0.20147 0.25,-0.5 0.0495,-0.14927 0.14238,-0.34373 0.125,-0.75 -0.0174,-0.40627 -0.29106,-1.18374 -0.90625,-1.59375 -5.4e-4,-3.6e-4 -0.99911,-0.3437 -1,-0.34375 z"
         style="font-size:medium;font-style:normal;font-variant:normal;font-weight:normal;font-stretch:normal;text-indent:0;text-align:start;text-decoration:none;line-height:normal;letter-spacing:normal;word-spacing:normal;text-transform:none;direction:ltr;block-progression:tb;writing-mode:lr-tb;text-anchor:start;baseline-shift:baseline;color:#000000;fill:#000000;fill-opacity:1;stroke:none;stroke-width:4;marker:none;visibility:visible;display:inline;overflow:visible;enable-background:accumulate;font-family:Sans;-inkscape-font-specification:Sans" />
      <path
         inkscape:connector-curvature="0"
         id="path3235"
         d="m 440.14288,64.50183 a 2.0002,2.0002 0 0 0 -0.40625,3.875 c 2.14784,0.79733 5.0005,1.71942 7.59375,2.75 2.59325,1.03058 4.95823,2.30285 5.65625,3.03125 a 2.0002,2.0002 0 1 0 2.875,-2.75 c -1.71028,-1.78472 -4.2716,-2.90329 -7.03125,-4 -2.75965,-1.09671 -5.71081,-2.03586 -7.71875,-2.78125 a 2.0002,2.0002 0 0 0 -0.96875,-0.125 z"
         style="font-size:medium;font-style:normal;font-variant:normal;font-weight:normal;font-stretch:normal;text-indent:0;text-align:start;text-decoration:none;line-height:normal;letter-spacing:normal;word-spacing:normal;text-transform:none;direction:ltr;block-progression:tb;writing-mode:lr-tb;text-anchor:start;baseline-shift:baseline;color:#000000;fill:#000000;fill-opacity:1;stroke:none;stroke-width:4;marker:none;visibility:visible;display:inline;overflow:visible;enable-background:accumulate;font-family:Sans;-inkscape-font-specification:Sans" />
    </g>
  </g>
</svg>
