<?xml version="1.0" encoding="UTF-8"?>
<svg xmlns="http://www.w3.org/2000/svg" width="400" height="300">
	<rect width="400" height="300" fill="#d40000"/>
	<path d="M 202.4375,25.0625 C 200.80995,25.707388 199.84303,27.66984 197.875,28.21875 C 192.35916,29.79852 190.29963,32.30038 191.71875,35.78125 C 192.26767,36.718409 192.7636,37.84413 193.3125,38.875 C 193.78108,39.812158 193.92848,40.75919 193.6875,41.46875 C 192.647,49.28733 192.80365,54.808874 180.20894,60.812354 C 169.78498,66.721453 169.38607,72.867329 174.40762,77.660998 C 182.42632,83.034885 189.79833,71.997368 197.0728,77.186618 C 197.52091,77.99034 188.88699,83.915794 179.59375,89.28125 C 175.6581,91.23614 174.32449,92.76267 170.46875,90.78125 C 167.08159,89.0542 161.48371,85.97152 153.53125,81.3125 C 146.99505,76.746303 143.942,75.834034 136.56528,74.897005 C 122.41852,75.987868 107.44002,85.025368 101.2726,95.552093 C 101.43512,106.63927 100.78741,106.67275 111.60401,100.25998 C 113.18379,98.907793 111.75928,97.342112 113.25873,95.922982 C 117.90436,91.424622 127.89565,85.690837 135.52113,84.561308 C 147.76158,94.066558 152.09478,102.65826 161.22014,111.52135 C 159.87349,114.23296 151.49941,116.37909 145.90625,117.3125 C 139.43984,118.50403 134.32356,121.10077 132.34375,125.90625 C 129.99924,131.59694 130.14321,138.94502 131.09375,147.3125 C 132.39238,160.81799 138.75698,170.5588 149.6875,178.40625 C 158.65778,182.27501 152.84887,162.68028 148.76424,162.79049 C 145.85905,158.84103 144.86988,155.05185 143.0625,150.3125 C 140.6125,144.00676 142.4736,133.88558 145.86076,130.01645 C 158.21078,133.26502 160.64298,131.71159 168.24852,132.24002 C 172.24634,138.42896 176.53374,144.6125 180.97267,150.45894 C 182.07003,151.90425 182.33557,153.84964 182.125,154.875 C 181.96434,155.90587 181.49526,156.61615 180.71875,156.84375 C 174.10511,158.82518 168.07602,161.94032 168.35651,167.90449 C 168.7531,176.33747 185.90263,193.94641 180.17908,196.46172 C 168.48542,201.6007 158.62001,212.02871 150.38467,222.55661 C 149.20653,232.90552 152.33951,236.86612 153.375,236.65625 C 154.44914,235.6183 159.96509,231.69878 161.02381,229.98939 C 162.7758,227.16067 160.18673,226.14936 162.98021,223.07878 C 170.4641,215.74218 176.79509,208.08767 186.63525,203.10734 C 187.26449,202.79942 196.05307,200.7796 196.53503,200.69927 C 202.62459,198.57001 204.56358,196.09387 204.18357,194.67405 C 200.70435,185.97333 205.58689,189.13952 211.25,192.21875 C 214.49088,199.97813 219.59377,206.77174 225.28125,212.96875 C 230.7971,218.64527 237.70479,225.79235 238.8125,228.65625 C 241.99468,236.88361 240.57336,242.44473 239.53125,253.1875 C 238.84539,260.25775 236.14516,263.01686 229.73651,270.93325 C 229.99101,276.39631 230.77876,278.45542 232.03846,279.02977 C 239.05512,276.55603 238.00449,277.07531 238.90533,276.15356 C 239.88446,275.1517 241.64415,269.06661 242.44063,267.98361 C 252.67091,254.07313 249.10956,239.55656 251.13424,229.69101 C 252.55337,220.45329 252.3651,211.31031 249.6875,205.3125 C 252.36511,198.91305 253.92869,190.70629 254.25,181 C 254.33033,179.98253 255.28641,179.27223 257.1875,179.03125 C 262.14052,180.04839 266.79638,169.60377 268.22889,170.55432 C 271.51815,171.68975 265.67401,184.18432 265.40625,187.71875 C 264.55987,197.36823 266.14475,201.71093 271.8069,210.39113 C 273.44712,214.18434 276.92523,217.99195 278.06047,218.96839 C 279.71956,222.07562 282.84566,227.2789 285.58296,230.32035 C 289.33227,221.11039 292.57592,217.90628 292.65625,205.75 C 292.65624,205.28142 291.88626,198.24096 292.03353,197.61172 C 294.554,194.16155 293.56574,195.03354 290.875,179.40625 C 290.64742,172.55161 288.7952,169.82496 291.39247,165.63453 C 295.48373,157.75739 296.53861,147.00317 292.97125,139.87177 C 290.87153,135.67428 288.1688,128.62676 278.55751,128.62676 C 271.63771,128.62676 263.4035,130.87723 263.33598,157.22191 C 263.32221,162.59426 255.83014,167.26168 251.32951,163.74603 C 241.99228,156.10939 232.97919,144.54677 226.01948,134.57035 C 222.67308,128.95495 228.40914,125.33386 234.40625,124.34375 C 240.1497,127.97189 246.14439,127.03301 250.46875,120.3125 C 255.58879,112.30011 255.22553,104.56992 255.85959,96.164682 C 256.32391,90.00959 256.99609,84.272889 257.60146,79.541447 C 258.35312,73.666667 257.88418,67.219264 256.2032,60.464971 C 255.97008,55.641021 254.76792,54.091178 246.05623,47.052318 C 244.12531,44.020541 240.02041,38.40148 234.3914,36.561929 C 229.74669,32.261624 227.75205,27.203721 221.16381,26.785029 C 213.83733,22.921279 206.78837,23.338547 202.4375,25.0625 z M 278.52257,153.03984 C 282.96817,154.36172 282.37202,162.65121 279.37388,162.48283 C 276.88204,162.34288 271.19734,170.28794 270.07706,169.29589 C 267.66725,167.16191 274.47734,154.09997 278.52257,153.03984 z" fill="#000"/>
	<path d="M 249.69689,166.17284 C 240.61076,156.72666 229.7204,146.42793 222.33441,133.62191 L 220.00236,132.78931 C 218.19498,135.62756 215.90564,137.9169 213.06739,139.64395 C 210.63078,141.22373 207.16329,141.46472 202.59799,140.43384 C 194.64553,138.54614 187.48296,135.78821 181.0969,131.99941 C 179.51711,133.25789 179.83843,134.918 182.27504,137.04668 C 182.9846,137.75624 183.30591,138.54614 182.9846,139.33603 C 181.56548,143.35242 180.14635,142.49559 178.49963,136.49777 C 177.62941,133.49887 175.50072,131.99941 171.88597,131.99941 C 174.24225,137.83658 177.24116,142.96417 180.70864,147.62319 C 184.15971,152.7691 188.88329,157.18969 193.54771,161.34586 C 190.78979,158.74859 189.21001,155.12045 188.66111,150.38111 C 196.79308,154.89776 201.26646,163.82008 209.45263,168.06662 C 212.09601,169.9006 214.86333,169.22066 217.71301,168.69586 C 214.87954,175.48228 212.88672,182.02802 213.78821,187.55781 C 216.2194,202.47088 229.60271,215.20299 239.2013,224.57929 C 242.3471,230.04864 242.94014,235.66971 242.1258,245.02778 C 241.68461,250.09773 241.49426,255.17954 240.5529,257.55105 C 238.49861,262.7263 235.10122,267.58897 231.95505,271.53843 C 231.52266,272.24538 232.00441,276.78315 232.61727,276.60568 C 234.47989,275.9193 238.32861,275.77006 238.55142,273.02525 C 238.94153,268.2194 244.92271,261.18477 245.95769,257.51606 C 247.84539,251.19697 247.40734,250.40892 248.1169,242.59032 C 248.59887,236.35153 249.04721,228.81481 248.09666,225.8159 C 246.04127,222.43416 243.02643,219.66353 241.33591,216.04914 C 239.21172,210.48814 240.10181,204.37896 241.33591,199.14684 C 243.73277,190.20166 247.32346,193.80624 249.34847,185.32357 C 250.69394,179.68748 251.34361,171.54142 249.69689,166.17284 z" fill="#fff"/>
	<path d="M 209.21875,37.28125 C 207.72549,37.372318 206.46597,37.886912 205.53125,38.875 C 201.03289,41.472268 197.48125,45.09539 195.03125,49.59375 C 192.27333,54.654412 188.33295,58.52336 183.21875,61.375 C 181.79962,62.164888 180.38787,62.85294 178.96875,63.5625 C 174.38901,65.723485 169.032,72.218494 176.08025,76.183247 C 176.01982,75.776312 184.48176,72.350127 185.05381,72.105661 C 185.58688,71.877853 185.91304,72.535875 186.18358,72.882849 C 183.90499,73.710067 177.09725,77.165695 177.09625,77.259245 C 179.03758,79.340795 195.27882,72.4057 200.875,70.90625 C 201.4239,70.906251 201.80369,71.00458 202.125,71.3125 C 208.33702,75.891194 212.99669,74.79211 216.15625,67.84375 C 218.99451,64.92517 219.67357,61.82022 218.1875,58.5 C 216.60772,54.791531 214.19082,52.12886 211.03125,50.46875 C 206.62662,48.018762 205.27295,45.164 207,41.9375 C 212.10406,44.525689 219.74331,49.501295 220.9375,55.59375 C 223.03413,62.206354 222.76482,71.25248 215.8125,74.625 C 211.08654,76.365443 206.23477,78.00499 201.1875,79.4375 C 199.21947,80.066741 197.25831,80.93344 195.53125,82.03125 C 188.67661,86.529606 181.80557,90.95697 175.03125,95.375 C 172.11267,95.147399 169.74488,94.36562 167.9375,93.09375 C 160.13796,89.103225 144.21959,75.981545 135.40625,77.15625 C 121.8738,79.572817 110.6359,85.006596 103.375,96.875 L 103.375,100.8125 C 103.29467,101.52206 103.53582,101.9419 103.84375,101.78125 C 104.0044,101.62059 107.50037,100.27646 108.53125,99.40625 C 110.09764,98.134395 108.64337,97.58422 110.0625,95.9375 C 113.48194,90.728151 132.94941,78.860254 137.84375,83.125 C 144.83081,89.213268 148.93475,95.758857 161.5,106.40625 C 163.22706,108.14669 164.17428,109.26728 164.65625,107.6875 C 166.22265,102.7875 168.6485,101.22386 171.875,103.03125 C 170.06762,105.72223 168.89706,108.84945 168.1875,112.25 L 168.09375,112.96875 C 170.30277,108.93897 173.06376,105.64191 176.53125,103.03125 C 182.90392,102.79027 183.85095,104.13491 179.125,106.8125 C 171.72143,110.92261 172.43173,113.21892 181.09375,113.6875 C 182.12463,113.6875 183.06728,113.75458 183.9375,114.0625 C 186.45444,114.8524 186.45004,115.3349 184.09375,115.5625 C 175.90032,116.27206 172.551,114.02701 165.46875,114.65625 C 155.55366,119.0667 144.70365,118.45644 137.4375,123.5 C 135.42613,124.89613 133.21431,131.04611 133.28125,135.0625 C 133.3529,143.44675 134.34933,152.86682 137.4375,159.84375 C 137.79917,161.09678 147.07828,176.29122 151.625,175.59375 C 150.78152,164.40342 147.70038,168.0794 146.28125,165.46875 C 144.15256,161.92095 142.44597,158.28879 141.1875,154.5 C 137.63968,144.55272 138.59944,134.92254 143.15625,128.59375 C 144.97424,126.0688 153.05121,130.31041 162.6875,130.0625 C 169.15685,129.89606 177.78412,129.14726 185.65625,129 C 194.059,136.41319 211.08615,144.32137 217.0077,131.08198 C 219.6853,118.76506 224.47237,109.35093 234.40625,104.53125 C 236.97822,105.47663 236.43657,107.58474 235.1875,109.8125 C 234.15545,111.65319 237.95533,112.81782 237.875,115.1875 C 237.48675,123.63531 239.91708,125.68145 245.125,121.34375 C 250.07162,113.04078 248.22386,104.63827 240.5625,98.375 C 239.93327,96.32664 240.32644,95.51803 241.8125,96 C 244.81141,97.258458 247.39816,99.067833 249.6875,101.4375 C 250.15609,101.91947 250.5,102.48234 250.5,103.03125 C 250.80792,109.81896 251.57186,111.32005 252.75,107.53125 C 252.7033,105.68722 253.18333,103.76546 253.3125,102 C 250.87588,97.568575 248.67337,92.76602 246.625,87.71875 C 245.20071,87.827273 244.52192,87.048657 243.78125,86.15625 C 248.34656,85.593959 251.25055,87.07278 252.75,90.78125 C 253.70055,93.070589 254.27684,92.60146 254.4375,89.28125 C 254.51782,86.443 254.18272,84.39229 253.3125,82.8125 C 252.92425,82.02261 252.46414,81.49099 252.0625,81.25 C 247.33654,78.57241 245.44686,75.56581 246.625,72.40625 C 252.22118,76.3557 254.82575,75.32374 254.4375,69.40625 C 254.35717,68.375379 254.02667,67.81691 253.71875,67.65625 C 250.49224,66.237129 247.64195,64.8432 245.125,63.34375 C 245.98184,61.522979 247.961,60.58473 251.1875,60.34375 C 253.16893,60.263428 253.4682,59.0081 251.96875,56.71875 C 249.29115,52.528312 246.07889,51.65714 242.0625,54.09375 C 237.88546,53.866158 236.77756,54.42463 238.90625,55.84375 C 240.78906,58.840693 241.1624,62.769106 241.03125,66.25 C 240.32169,86.22486 232.00345,99.578105 216.96875,105.65625 C 210.78534,109.21973 204.92386,110.40091 197.875,109.09375 C 198.11599,105.85386 200.70713,104.51358 205.59375,105.0625 C 209.36916,105.46413 212.51431,105.0844 215.03125,103.90625 C 231.98586,95.398869 238.5211,78.228194 237.6875,62.59375 C 237.14993,52.585083 219.4864,37.431118 209.875,37.28125 C 209.65251,37.277781 209.43207,37.26824 209.21875,37.28125 z M 207.34375,50.90625 C 208.54458,50.875069 208.60701,51.736682 207.5,53.46875 C 207.17869,54.854692 206.31232,53.437679 205.84375,53.90625 C 203.63473,56.03494 202.75882,56.302219 202.4375,52.59375 C 204.7804,51.492589 206.40977,50.930502 207.34375,50.90625 z M 213.0625,115.25 C 216.93162,117.29837 216.14084,119.77332 210.625,122.53125 C 209.20587,123.24081 208.26762,124.4292 207.625,126.15625 C 206.44685,129.86472 204.16842,132.1432 200.78125,133.09375 C 199.20147,133.49539 198.82609,132.70903 199.375,130.5 C 202.36051,124.34153 206.45731,119.36471 211.8125,115.65625 C 212.21413,115.34832 212.59393,115.25 213.0625,115.25 z" fill="#fff"/>
	<path d="M 241.34279,48.726193 C 242.38266,45.69224 238.77062,43.326919 235.98761,42.728373 C 231.18132,43.370993 228.66438,42.099143 228.35646,38.872633 C 229.7622,35.873733 227.72722,34.133293 222.13105,33.731653 C 220.16302,33.584383 218.50291,33.892313 217.00345,34.521543 C 214.48651,35.873733 214.09826,34.923183 215.74498,31.924273 C 216.1922,27.160696 210.60143,27.702359 207.00263,28.135483 C 207.95318,29.166353 208.42176,30.732743 208.58241,32.714173 C 208.50209,33.731653 208.66274,34.293943 208.8234,34.293943 C 219.8417,36.730563 227.87449,41.871543 232.84143,49.596403 C 235.76001,54.094763 237.79498,54.094763 238.98651,49.516083 C 240.004,49.516083 240.79389,49.288483 241.34279,48.726193 z" fill="#fff"/>
	<path d="M 246.53733,207.13275 C 247.72886,200.49231 246.2563,198.56453 243.11013,201.96508 C 242.40057,207.64158 243.71246,212.40761 245.76083,215.6475 C 249.21492,221.25706 249.61657,221.0964 247.0193,215.09859 C 246.06875,212.80925 245.82777,210.1986 246.53733,207.13275 z" fill="#fff"/>
	<path d="M 203.93679,35.793403 C 203.93679,29.554603 200.87094,28.604053 194.80618,32.714173 C 197.2428,38.002423 200.00072,39.260893 203.14689,36.502963 z" fill="#fff"/>
	<path d="M 234.42121,113.68467 C 235.11738,111.55598 231.4231,110.0634 230.08431,110.77297 C 224.56846,113.61122 223.71083,118.6516 220.71192,124.34149 C 220.08268,126.55051 220.47094,127.26007 221.72941,126.47018 C 227.16493,123.5516 231.42231,119.29422 234.42121,113.68467 z" fill="#fff"/>
	<path d="M 265.76247,153.29969 C 266.23104,164.11718 261.33129,169.92765 253.21818,171.34677 C 254.316,176.94294 258.3337,178.31667 261.66574,173.03357 C 265.76247,167.9863 268.98897,161.98849 271.34525,155.12045 C 278.09856,142.83629 287.05576,154.00428 283.55509,164.27783 C 271.32336,164.92924 270.62405,178.1417 267.39563,187.15788 C 263.91555,198.09181 271.72633,205.19641 275.60263,214.54969 C 276.07121,213.98739 276.39252,213.51881 276.39252,212.9699 C 276.39252,211.93903 276.3122,210.90816 276.3122,209.81034 C 276.07121,207.13275 275.68296,204.99067 275.2947,203.49122 C 273.71493,197.81471 273.79525,193.39668 275.60263,190.07646 C 277.26274,190.86636 278.11957,192.91471 278.1999,196.1546 C 276.74226,198.00166 277.23212,208.16917 279.42494,212.27858 C 280.63347,217.24924 279.07038,217.63529 284.85627,225.85012 C 287.54815,219.60024 288.07349,218.99671 289.18469,214.98032 C 290.75109,208.66119 289.94116,203.10296 289.31192,199.23384 C 287.41082,195.99395 285.13487,193.23603 282.29662,190.86636 C 278.82913,187.86744 278.11957,184.56061 280.16793,180.91908 C 280.71684,180.37018 281.1988,179.98193 281.90837,179.58029 C 284.97421,177.69259 285.36247,178.62974 283.00618,182.27127 C 282.68487,182.82018 282.45727,183.20843 282.61793,183.36908 C 284.66629,187.15788 288.62883,192.0508 292.09632,194.72839 C 289.98975,190.40958 286.69417,176.05138 286.23268,168.69586 C 288.36137,165.69695 290.16875,162.21608 291.6682,158.34696 C 292.92667,155.28111 293.08733,151.09067 292.37777,145.7221 C 291.17396,138.96096 285.69229,130.59777 278.74213,130.72777 C 265.68851,131.906 265.63466,145.57667 265.76247,153.29969 z" fill="#fff"/>
	<path d="M 207.00263,177.85324 C 209.13132,180.1292 210.30946,180.61116 210.30946,179.27236 C 210.63078,171.69477 207.00263,167.66499 199.37149,167.11608 C 199.37149,167.66499 199.45181,167.9863 199.67941,168.13357 C 203.22723,170.27565 205.66384,173.50215 207.00263,177.85324 z" fill="#fff"/>
	<path d="M 207.00263,185.49777 C 205.27558,182.03029 202.9193,178.87073 199.84006,175.87182 C 194.49126,173.06119 192.75494,164.17051 187.3223,162.21608 C 180.74345,158.48744 168.76183,164.07787 172.67586,172.16335 C 176.77258,179.03138 181.30025,185.76928 184.0958,193.07537 C 185.07566,195.63622 183.53351,197.73439 181.56548,198.76526 C 179.7581,199.63548 177.79006,200.65297 175.50072,201.8445 C 166.1578,207.87098 157.54744,215.28594 152.11193,225.54113 C 152.11193,228.07145 152.35291,230.33411 152.74116,232.77072 L 153.77183,232.8646 C 155.27128,230.81624 157.48009,230.58823 158.73856,228.52648 C 159.27762,227.21334 158.44831,225.20704 159.33755,223.91092 C 166.45519,213.53651 182.47534,202.50398 186.01019,199.75585 C 191.55248,199.97899 196.39292,197.86399 200.87094,194.65515 C 199.94122,191.26292 196.66485,188.84795 195.66302,185.65843 C 196.14498,182.3516 198.90291,181.70898 203.93679,183.99832 z" fill="#fff"/>
</svg>