<?xml version="1.0" encoding="UTF-8" standalone="no"?>
<svg
   xmlns:dc="http://purl.org/dc/elements/1.1/"
   xmlns:cc="http://creativecommons.org/ns#"
   xmlns:rdf="http://www.w3.org/1999/02/22-rdf-syntax-ns#"
   xmlns:svg="http://www.w3.org/2000/svg"
   xmlns="http://www.w3.org/2000/svg"
   xmlns:sodipodi="http://sodipodi.sourceforge.net/DTD/sodipodi-0.dtd"
   xmlns:inkscape="http://www.inkscape.org/namespaces/inkscape"
   width="900"
   height="540"
   id="svg3017"
   version="1.1"
   inkscape:version="0.48.1 "
   sodipodi:docname="Lincolnshire flag.svg">
  <metadata
     id="metadata3047">
    <rdf:RDF>
      <cc:Work
         rdf:about="">
        <dc:format>image/svg+xml</dc:format>
        <dc:type
           rdf:resource="http://purl.org/dc/dcmitype/StillImage" />
        <dc:title></dc:title>
      </cc:Work>
    </rdf:RDF>
  </metadata>
  <defs
     id="defs3045" />
  <sodipodi:namedview
     pagecolor="#ffffff"
     bordercolor="#666666"
     borderopacity="1"
     objecttolerance="10"
     gridtolerance="10"
     guidetolerance="10"
     inkscape:pageopacity="0"
     inkscape:pageshadow="2"
     inkscape:window-width="1920"
     inkscape:window-height="1005"
     id="namedview3043"
     showgrid="false"
     inkscape:zoom="0.8962963"
     inkscape:cx="633.64246"
     inkscape:cy="326.61221"
     inkscape:window-x="-9"
     inkscape:window-y="-9"
     inkscape:window-maximized="1"
     inkscape:current-layer="svg3017">
    <inkscape:grid
       type="xygrid"
       id="grid3817"
       empspacing="5"
       visible="true"
       enabled="true"
       snapvisiblegridlinesonly="true" />
  </sodipodi:namedview>
  <rect
     width="900"
     height="540"
     id="rect3019"
     style="fill:#009e49;fill-opacity:1"
     x="8.3488771e-014"
     y="-2.9845296e-008" />
  <path
     d="M 450,2.6999998e-7 V 540 H 0 V 270 H 900 V 2.6999998e-7 z"
     id="path3021"
     inkscape:connector-curvature="0"
     style="fill:#0038a8;fill-opacity:1" />
  <path
     d="m 450,0 0,540 M 0,270 l 900,0"
     id="path3023"
     style="stroke:#f9d616;stroke-width:120;stroke-opacity:1"
     inkscape:connector-curvature="0"
     sodipodi:nodetypes="cccc" />
  <path
     d="m 450,0 0,540 M 0,270 l 900,0"
     id="path3025"
     inkscape:connector-curvature="0"
     style="fill:#ce1126;fill-opacity:1;stroke:#ce1126;stroke-width:80;stroke-opacity:1"
     sodipodi:nodetypes="cccc" />
  <g
     transform="matrix(2.8289474,0,0,2.8932584,42.589886,-42.471907)"
     id="g3027"
     style="fill:#f9d616;fill-opacity:1">
    <path
       d="m 144,93.1 c -1.1,0.9 -2.1,1.8 -2.9,2.7 -2.2,2.6 -3,5.4 -1.7,7.7 2.4,4.8 3.3,6.1 3.4,9.9 l 2.4,0 c 0,-3.8 1,-5.1 3.4,-9.9 1.3,-2.3 0.5,-5.1 -1.7,-7.7 -0.8,-0.9 -1.8,-1.8 -2.9,-2.7"
       id="path3029"
       inkscape:connector-curvature="0"
       style="fill:#f9d616;fill-opacity:1" />
    <path
       d="m 133.5,105.3 c -1.1,0.1 -2.2,0.5 -3.3,1.3 -2.1,1.6 -2.7,5.9 3.6,6.8 -0.6,-0.7 -0.6,-2.1 0.5,-2.7 0,-0.1 0.1,-0.1 0.2,-0.1 1,-0.4 2.1,-0.3 2.6,0 0.1,0 0.1,0 0.2,0.1 0.8,0.3 1.6,1.5 1.6,2.7 l 2.1,0 c -0.1,-4.2 -2.3,-7 -5.6,-7.9 -0.6,-0.1 -1.3,-0.2 -1.9,-0.2"
       id="path3031"
       inkscape:connector-curvature="0"
       style="fill:#f9d616;fill-opacity:1" />
    <path
       d="m 136.6,120.4 c -0.5,0 -1.1,-0.2 -1.6,-0.6 -1.1,-0.8 -1.4,-3 1.8,-3.4 -0.3,0.4 -0.3,1.1 0.2,1.4 0.5,0.2 1.7,0.1 2.1,0 0.4,-0.2 0.8,-1.2 0.8,-1.8 l 1.1,0 c -0.1,2.1 -1.2,3.9 -2.9,4.3 -0.2,0.1 -1.1,0.2 -1.5,0.1"
       id="path3033"
       inkscape:connector-curvature="0"
       style="fill:#f9d616;fill-opacity:1" />
    <path
       d="m 153.6,105.3 c -0.3,0.1 -0.6,0.1 -0.9,0.2 -3.3,0.9 -5.6,3.7 -5.7,7.9 l 2.1,0 c 0,-1.2 0.8,-2.4 1.7,-2.7 0,-0.1 0.1,-0.1 0.2,-0.1 0.6,-0.3 1.6,-0.4 2.5,0 1.3,0.5 1.4,2.1 0.7,2.8 6.4,-0.9 5.7,-5.2 3.6,-6.8 -1.4,-1 -2.9,-1.4 -4.2,-1.3"
       id="path3035"
       inkscape:connector-curvature="0"
       style="fill:#f9d616;fill-opacity:1" />
    <path
       d="m 142.2,115.9 c -0.1,1.2 -1.5,4.3 -0.1,4.2 0.3,1.1 0.6,1.7 1.9,2.8 1.3,-1.1 1.6,-1.7 1.9,-2.8 1.4,0.1 0,-3 -0.1,-4.2 l -3.6,0"
       id="path3037"
       inkscape:connector-curvature="0"
       style="fill:#f9d616;fill-opacity:1" />
    <path
       d="m 151.4,120.4 c 0.5,0 1.1,-0.2 1.6,-0.6 1.1,-0.8 1.4,-3 -1.8,-3.4 0.3,0.4 0.3,1.1 -0.2,1.4 -0.5,0.2 -1.7,0.1 -2.1,0 -0.4,-0.2 -0.8,-1.2 -0.8,-1.8 l -1.1,0 c 0.1,2.1 1.2,3.9 2.9,4.3 0.2,0.1 1.2,0.2 1.5,0.1"
       id="path3039"
       inkscape:connector-curvature="0"
       style="fill:#f9d616;fill-opacity:1" />
    <rect
       x="135.75"
       y="113.25"
       width="16.5"
       height="2.5"
       rx="0.75"
       id="rect3041"
       style="stroke:#ce1126;stroke-width:0.50000000000000000;fill:#f9d616;fill-opacity:1;stroke-opacity:1" />
  </g>
</svg>
