<?xml version="1.0" encoding="utf-8"?>
<!-- Generator: Adobe Illustrator 13.0.0, SVG Export Plug-In . SVG Version: 6.00 Build 14948)  -->
<!DOCTYPE svg PUBLIC "-//W3C//DTD SVG 1.1//EN" "http://www.w3.org/Graphics/SVG/1.1/DTD/svg11.dtd">
<svg version="1.1"
	 id="svg2" xmlns:dc="http://purl.org/dc/elements/1.1/" xmlns:cc="http://creativecommons.org/ns#" xmlns:svg="http://www.w3.org/2000/svg" xmlns:rdf="http://www.w3.org/1999/02/22-rdf-syntax-ns#"
	 xmlns="http://www.w3.org/2000/svg" xmlns:xlink="http://www.w3.org/1999/xlink" x="0px" y="0px" width="2609px" height="1445px"
	 viewBox="0 0 2609 1445" enable-background="new 0 0 2609 1445" xml:space="preserve">
<g id="layer1" transform="translate(1107,-1381)">
	<rect x="-1106.979" y="1379.748" fill="#FFFFFF" width="2608.928" height="1446.145"/>
	<path id="path3016" fill="#1A5A06" d="M-1107,2281c319.6,0,639.2,0,958.8,0l4.4,17c22.2,87,73.5,164,147.5,219l10,8
		c0,100,0,301,0,301s-747.101,0-1120.7,0C-1107,2644-1107,2463-1107,2281z"/>
	<path id="path3014" fill="#CC0001" fill-opacity="0.9412" d="M50.7,2548l12,6c32,16,69,28,103,32c23,2,56,1,81-3c26-5,59-16,83-28
		l10-5c0,92,0,276,0,276h-289C50.7,2826,50.7,2641,50.7,2548z"/>
	<path id="path3012" fill="#1A5A06" d="M375.7,2528l7-5c19-13,45-36,61-53c47-51,78-108,95-172l4-17c319.8,0,639.3,0,959.3,0
		c0,182,0,363,0,545c-375,0-1126.3,0-1126.3,0S375.7,2627,375.7,2528z"/>
	<path id="path3010" fill="#1A5A06" d="M314.9,1782c-0.2,0-0.2,1-0.2,3c1,5,3,8,10,12c28,18,45,36,59,63c7,13,14,34,17,48
		c1,8,1,14,1,47v39c-1,0-43,2-95,3c-93,2-93,2-96,0c-2-1-4-2-7-2h-6l1-6l2-8c1-1,1-2,1-4s1-3,3-3c1-1,2-1,2-4c0-2-1-4-2-6
		c-2-3-2-4-1-8c2-7,1-19-2-25c-4-8-13-14-26-17c-4,0-9-2-11-3c-12-6-30-9-45-7c-10,1-24.011,5-29.011,7l-3,1l5,4
		c10.011,6,20.011,9,32.011,9h11c0,0-2,3-4,7c-2,6-3,9-4,16c0,9,2,21,6,30l2,6l-16-1c-8-1-19-1-23.011-1c-29,1-28,1-35-2
		c-5-2-8-2-18-2s-13,0-21,3c-10,4-12,5-14.002,8c-1,3-1,6,1,14c3.002,13,9.002,20,24.002,27c12,6,34,14,52,18l11,3v3c1,6,1,31,0,41
		c-1,5-2,14-4,21c-4,22-4,54,1,75c5,24,5,24,4,33c-1,4-1,8-1,10s2,3,4.011,0c0-1,2-1,4-1s3,1,3,3c0,1,0,4,1,6c6,14,9,20,10,25l1,6
		l-5,5c-3,2-11,8-18.011,13c-10,7-12,9-14,8s-3,0-10,5c-4,4-7,8-7,8c0,1,1,2,2,3c1,2,1,2,0,3c-1,2-2,2-4,1s-2-1-3,1s-2,3-3,3l-6,6
		c-5,7-16,19-23,24l-4,4v10c-1,12-1,11,15,34c10,14,11,15,16,16c2,1,7,2,9,3h16c11,0,12,0,14-3c1-1,2-4,2-5c0-4-3-5-12-9l-7-3l-4-10
		c-2-6-3-11-3-12c0,0,4-4,9-7s12-7,14-9c3-2,7.011-3,11.011-4c5,0,6-1,15-8c6-5,9-9,9-10v-4c0-2-1-3-2-3c-2-1-3-4-1-6s5-1,6,0
		c0,2,2,1,6-3c3-3,8-8,10-11s8-10,13-15c10-10,12-14,13-24c1-8,0-24-2-32c0-2,0-2,7-2c8,1,8,1,13-2c12-6,17-4,33,11
		c10,11,27,32,25,32c0,0-1,0-2,1c-2,1-2,2,0,14c2,9,3,13,4,14c2,2,3,6,4,14c2,11,4,15,11,23c2,1,3,3,3,4s1,7,3,14c5,17,6,24,7,36
		c1,13,2,15,8,15h32c15-1,30-1,33-2c5,0,8-3,8-8v-3l-15-7c-8-3-16-7-18-9c-4-3-9-12-10-19c-1-5-3-34-2-39c0-1-1-5-2-9
		c-2-3-4-11-5-18c-4-16-5-17-8-17c-1,0-2,0-2-2c0-6-2-14-7-20c-1-2-3-6-4-9c-1-4-8-18-15-31c-8-16-13-25-12-26c2-2,0-5-17-22l-17-18
		l-2-7c-1-4-2-9-2-11c0-6-1-10-5-16c-2-3-3-6-3-8s-1-4-1-6c-4-6-4-9-2-26c1-9,3-17,3-17c1,0,29,18,32,21c1,1,5,5,8,10l6,7l10-20
		c5-11,10-21,10-22c1-2,2-2,18-3c15-1,29-1,41,0c1,1,5,0,9-1l7-1v-4v-4h9c6,0,11,1,13,2c5,2,9,2,17-1c3-2,6-3,6-2c2,1,2,59,1,72
		c-3,49-30,96-68,121c-12,8-16,11-18,15c-2,5-1,7,1,2c2-4,5-6,18-15c8-6,18-13,22-16c21-18,42-52,49-78c5-19,7-41,8-78l1-32l4-5
		c7-6,8-11,5-20c-2-7-4-10-7-10s-3,0-3-3v-3h10c10,0,10,0,7-1c-2-1-7-2-10-2l-7-1v-18c0-32-3-59-8-81c-2-9-5-15-10-26
		c-15-30-32-49-60-67c-16-11-18-13-20-19C315.3,1782,315.1,1782,314.9,1782z"/>
	<path id="path3006" fill="#CC0001" fill-opacity="0.9412" d="M-1107,1955h951.7l1.5,287l0.399,3H-1107V1955z"/>
	<path id="path3004" fill="#CC0001" fill-opacity="0.9412" d="M548.7,2243c0-1,1-66,1-144c0-109,0-142,1-143c1,0,215-1,476.3-1h475
		v145v145h-477C570.7,2245,547.7,2245,548.7,2243z"/>
	<path id="path3002" fill="#1A5A06" d="M-1107,1381H13.7v355h-169v183H-1107V1381z"/>
	<path id="path3000" fill="#1A5A06" d="M549.7,1736h-174v-355H1502v538H549.7V1736z"/>
	<path id="path2996" fill="#CC0001" fill-opacity="0.9412" d="M50.7,1735v-354h289l-2,354l-3,1L50.7,1735z"/>
</g>
</svg>
