<?xml version="1.0" encoding="UTF-8" standalone="no"?>
<!-- Created with Inkscape (http://www.inkscape.org/) -->

<svg
   xmlns:dc="http://purl.org/dc/elements/1.1/"
   xmlns:cc="http://creativecommons.org/ns#"
   xmlns:rdf="http://www.w3.org/1999/02/22-rdf-syntax-ns#"
   xmlns:svg="http://www.w3.org/2000/svg"
   xmlns="http://www.w3.org/2000/svg"
   xmlns:sodipodi="http://sodipodi.sourceforge.net/DTD/sodipodi-0.dtd"
   xmlns:inkscape="http://www.inkscape.org/namespaces/inkscape"
   id="svg3336"
   version="1.1"
   inkscape:version="0.91 r13725"
   width="1000pt"
   height="600pt"
   viewBox="0 0 1250 750"
   sodipodi:docname="Flag of Warwickshire.svg">
  <metadata
     id="metadata3342">
    <rdf:RDF>
      <cc:Work
         rdf:about="">
        <dc:format>image/svg+xml</dc:format>
        <dc:type
           rdf:resource="http://purl.org/dc/dcmitype/StillImage" />
        <dc:title></dc:title>
      </cc:Work>
    </rdf:RDF>
  </metadata>
  <defs
     id="defs3340" />
  <sodipodi:namedview
     pagecolor="#ffffff"
     bordercolor="#666666"
     borderopacity="1"
     objecttolerance="10"
     gridtolerance="10"
     guidetolerance="10"
     inkscape:pageopacity="0"
     inkscape:pageshadow="2"
     inkscape:window-width="1920"
     inkscape:window-height="1017"
     id="namedview3338"
     showgrid="false"
     showguides="true"
     inkscape:zoom="1"
     inkscape:cx="498.35583"
     inkscape:cy="348.64838"
     inkscape:window-x="-8"
     inkscape:window-y="-8"
     inkscape:window-maximized="1"
     inkscape:current-layer="svg3336"
     units="pt"
     inkscape:snap-page="true"
     fit-margin-top="0"
     fit-margin-left="0"
     fit-margin-right="0"
     fit-margin-bottom="0" />
  <rect
     style="opacity:1;fill:#dd221d;fill-opacity:1;stroke:none;stroke-width:1.39999998;stroke-linecap:round;stroke-linejoin:miter;stroke-miterlimit:4;stroke-dasharray:none;stroke-dashoffset:0;stroke-opacity:1"
     id="rect4194"
     width="1250"
     height="750"
     x="0"
     y="0" />
  <path
     style="fill:#ffffff;stroke:#2b2b28;stroke-width:2;stroke-miterlimit:4;stroke-dasharray:none;stroke-opacity:1"
     d="m 625.14481,655.01254 c 1.78341,-1.7618 4.18637,0.71955 5.26863,1.13485 1.11353,0.4273 3.31858,-3.30128 3.31858,-4.40756 0,-1.26265 -0.2266,-3.41965 -7.51735,-3.19338 -3.81421,0.11837 -6.58575,1.74465 -8.82368,6.13134 -1.28093,2.51083 -1.19347,5.96902 -0.66319,6.51383 0.9688,-0.33382 3.79066,-1.19187 5.50152,-2.48165 1.3831,-1.04268 1.60896,-2.40673 2.91549,-3.69743 z"
     id="path4203"
     inkscape:connector-curvature="0"
     sodipodi:nodetypes="ssssscss" />
  <path
     style="fill:#ffffff;stroke:#2b2b28;stroke-width:2;stroke-miterlimit:4;stroke-dasharray:none;stroke-opacity:1"
     d="m 671.33165,655.4065 c 0.9617,-0.9617 -7.3037,-0.75779 -10.54524,-1.26652 -2.4958,-0.3917 -5.89397,-1.37075 -8.38113,-1.76083 -2.48718,-0.39009 -7.62677,-1.85132 -11.28305,-3.52373 -3.65627,-1.67242 -8.13732,-3.4933 -9.98302,-3.4933 -0.32422,0 -1.69698,0.7388 -1.06694,1.47433 3.05772,3.56971 3.31027,9.84904 -0.97463,10.14934 5.38038,2.92428 31.16212,6.52457 41.74094,5.79323 z"
     id="path4201"
     inkscape:connector-curvature="0"
     sodipodi:nodetypes="csssssccc" />
  <path
     style="fill:#ffffff;stroke:#2b2b28;stroke-width:2;stroke-miterlimit:4;stroke-dasharray:none;stroke-opacity:1"
     d="m 518.20218,684.76112 c 3.06123,-3.06123 3.55585,-4.50416 2.84384,-18.841 -1.57498,-31.71302 -4.24558,-54.53917 -5.34529,-58.12622 -2.84604,-9.28315 1.29486,-13.65213 20.43823,-27.85028 35.18897,-26.09879 36.06822,-25.97894 35.63383,-43.5813 -0.17685,-7.16644 -0.1951,-13.91961 -1.38561,-15.22074 -1.50587,-1.64579 -14.7888,0.004 -24.75628,2.59659 -6.7772,1.7625 -13.61592,3.19424 -18.22271,4.46388 -15.07017,4.15337 -16.02347,4.25039 -15.62969,-25.13468 0.17397,-12.98176 1.38083,-25.41536 0.34923,-27.38192 -2.46856,-4.70583 0.4729,-11.42673 5.78055,-15.53223 2.30538,-1.78321 9.37569,-7.11482 15.29698,-11.43318 15.74915,-11.48577 26.53265,-20.45839 29.26643,-25.81702 1.78046,-3.49001 2.29511,-8.21875 2.29511,-15.57319 0,-5.47116 -0.59579,-11.2795 -0.985,-12.37734 -1.26152,-3.5583 -3.96627,-4.52758 -27.61811,1.40042 -14.21613,3.56307 -25.57401,5.92648 -27.12034,4.15714 -2.92897,-3.35136 -0.93511,-15.34998 -1.63735,-32.8159 0,0 -0.21055,-20.41704 -1.39087,-29.63013 -0.25189,-1.96609 3.56016,-3.95297 5.45337,-4.54009 4.10884,-1.27424 32.01019,-13.83298 44.32893,-28.4365 2.29674,-2.72272 4.40706,-2.54027 4.69825,-19.16134 0.10048,-5.73561 0.69072,-15.63419 -5.4847,-15.01953 -5.46311,0.54376 -7.94664,-0.92279 -19.74143,2.20639 -0.73056,0.19382 -8.41671,2.07669 -15.82989,3.60991 -6.16916,1.27592 -15.27697,5.59379 -15.30885,2.30496 -0.19068,-19.67009 -3.46692,-42.48214 -4.603,-51.68304 -2.18348,-17.62171 -0.13204,-16.67534 20.3466,-29.00898 7.21875,-4.34763 8.49193,-5.831 13.19937,-8.57028 7.30014,-5.71641 18.41291,-7.73205 21.17452,-13.29347 0.6517,-1.31242 -0.0941,-6.99072 0.32656,-8.41887 3.0135,-10.23015 -0.74873,-27.42006 -8.08457,-26.78229 -34.7507,3.02117 -54.90067,8.50198 -53.25403,5.28195 l 0.44954,-20.75991 c 0.36309,-16.76809 -0.71922,-22.12913 -2.21692,-23.07343 -1.03125,-0.6502 -9.38823,-1.86959 -14.97593,-1.88012 -7.90054,-0.0149 -10.53706,0.43587 -11.85783,2.02729 -1.30992,1.57836 -0.52426,11.45925 -2.11908,33.94382 -0.42193,5.94851 1.14227,12.66271 1.27064,19.53727 0.2359,12.63304 -2.76169,24.29422 -2.42468,33.33008 0.68367,18.33052 0.83662,21.87156 -0.68506,21.44673 -6.90306,-1.92723 -29.30304,-3.98589 -37.37344,-6.89781 -11.6878,-4.21713 -13.10626,-1.31587 -12.58334,15.00437 0.53789,16.78732 1.94411,18.13519 10.73911,24.24989 12.92858,8.98858 35.57838,24.78236 37.88955,27.37661 2.15301,2.41673 3.66291,5.39582 3.40767,22.98706 -0.16619,11.45389 0.19868,31.17515 -0.17315,38.22481 -0.22738,4.31093 0.58988,8.12642 -6.06945,6.39035 -2.62818,-0.68516 -5.33546,-0.96109 -12.40392,-2.50517 -7.49141,-1.63648 -17.26549,-3.92563 -22.18157,-4.23643 -8.64215,-0.54638 -15.06461,0.32486 -15.68562,3.705 -0.39051,2.12547 -1.10521,4.26956 -1.65949,8.10392 -1.63528,11.31256 4.54754,20.08181 17.93675,29.828 3.84559,2.79925 13.08397,7.02385 16.30862,12.51942 3.83424,6.53445 8.20804,8.1665 13.75,11.94534 6.62108,4.51464 10.07988,9.94978 10.14792,30.88328 0.0319,9.8173 -2.35777,22.31835 -2.26719,27.84963 l -0.85445,10 c -4.45227,-0.0241 -9.35706,-1.18074 -13.80934,-1.20374 -7.90624,-0.0408 -19.55012,0.14716 -26.42246,0.50634 -6.34959,0.33186 -7.1176,-2.59912 -10.21072,-2.65557 -1.62896,-0.0297 -2.70832,1.12116 -3.30748,2.32917 -1.60169,3.22922 -0.73814,11.1461 -0.73814,11.1461 0.10787,5.28191 -0.2756,13.05744 0.11831,14.34546 0.6973,2.28004 8.29386,6.59012 15.44821,11.97888 10.9211,8.22593 12.1305,11.55918 35.79182,29.49079 2.15799,1.63542 2.62825,5.5769 2.49802,19.59574 -0.0814,8.76546 -0.53478,20.90518 -0.0807,29.0509 0.45409,8.14574 1.62931,16.04913 0.86894,16.96858 -0.49449,0.59794 -5.85247,-1.09069 -12.72627,-2.14021 -6.48903,-0.99075 -17.64375,-3.03238 -24.78825,-4.12212 -14.40355,-2.19695 -18.44324,-2.22973 -19.19243,2.96224 -0.58447,4.05047 -0.51315,25.96411 0.63214,27.45352 1.41017,1.83388 5.93221,3.66572 10.40096,6.58486 4.46875,2.91914 11.5933,8.70259 15.89263,13.47065 5.1603,5.72288 13.45989,10.35745 18.80714,13.89795 3.00103,1.98703 8.35506,4.35026 9.0031,6.86617 0.35506,1.37848 -0.13807,2.49371 -0.37275,3.89771 -0.54916,3.28546 -1.42459,7.25001 -1.88051,10.1028 -0.75101,4.69922 0.39538,6.30115 3.47213,8.3171 1.86781,1.22383 4.37414,2.92989 10.45471,3.79125 7.39927,1.04817 33.1001,2.19178 37.81796,0.85673 4.71786,-1.33505 9.20638,-3.56918 10.92022,-5.28302 z"
     id="path4215"
     inkscape:connector-curvature="0"
     sodipodi:nodetypes="sssssssssssssssssssssssssscscssscsssssssssssssssssssssssscsssssssssssssssssssssssss" />
  <path
     style="fill:#ffffff;stroke:#2b2b28;stroke-width:2;stroke-miterlimit:4;stroke-dasharray:none;stroke-opacity:1"
     d="m 530.72435,331.92195 c 2.18406,-1.59703 5.37786,-4.98865 2.52573,-8.29049 l -14.61979,-13.48384 -1.53504,2.58721 c -2.88473,4.86201 -5.75554,7.00612 -5.75554,7.00612 -3.17067,2.97627 -1.44453,4.98656 3.9651,8.90527 5.57525,4.03869 11.76325,5.94928 15.41954,3.27573 z"
     id="path4197"
     inkscape:connector-curvature="0"
     sodipodi:nodetypes="sccssss" />
  <path
     style="fill:#ffffff;stroke:#2b2b28;stroke-width:2;stroke-miterlimit:4;stroke-dasharray:none;stroke-opacity:1"
     d="m 543.66505,324.78443 6.43547,-4.82673 -7.15086,-7.96277 -15.54221,-13.35863 c -3.48132,2.41388 -7.86712,6.66436 -9.42576,10.18312 -0.92998,2.0995 0.42978,5.61048 1.72116,6.38951 1.23472,0.74485 3.71247,3.82635 7.2102,6.78676 6.5678,5.55884 8.93809,8.64933 16.752,2.78874 z"
     id="path4195"
     inkscape:connector-curvature="0"
     sodipodi:nodetypes="scccssss" />
  <path
     style="fill:#ffffff;stroke:#2b2b28;stroke-width:2;stroke-miterlimit:4;stroke-dasharray:none;stroke-opacity:1"
     d="m 504.75575,170.10811 c 0,-1.18163 1.61552,-5.89635 3.38263,-11.30681 2.05102,-6.27971 6.24242,-11.69405 5.10933,-13.09159 -0.86153,-1.06261 -10.01384,-0.12965 -13.28984,0.11685 -1.90597,0.14341 -4.2164,0.70221 -5.47607,1.42702 -0.87088,0.5011 -0.8174,1.36133 -1.26254,2.31108 -4.73011,10.09208 -7.20485,15.54173 -6.36237,18.44085 0.33422,1.15012 1.12104,2.11803 1.80747,2.28899 4.17692,1.04026 4.18033,3.09489 10.16593,3.59025 3.55139,0.29391 5.92546,-1.46813 5.92546,-3.77664 z"
     id="path4173"
     inkscape:connector-curvature="0"
     sodipodi:nodetypes="ssssssssss" />
  <path
     style="fill:#ffffff;stroke:#2b2b28;stroke-width:2;stroke-miterlimit:4;stroke-dasharray:none;stroke-opacity:1"
     d="m 511.5158,168.92256 c 1.24081,-0.51662 5.4287,-1.58405 7.23318,-1.47522 2.89556,0.17463 2.8432,-2.61531 4.8268,-6.09014 2.04643,-3.5849 8.05511,-14.69774 8.51302,-16.53699 0.7903,-3.17432 -3.91621,-1.19834 -10.97987,-0.63698 -3.97181,0.31562 -7.14602,-0.37944 -10.262,1.58191 -1.75447,1.10435 -2.76486,4.53946 -3.52416,8.05049 -0.85047,3.93262 -2.28417,7.26924 -3.36197,10.23679 -1.0778,2.96754 -1.6415,7.7583 -1.11437,8.57201 4.62246,1.76488 4.27009,-1.87014 8.66937,-3.70181 z"
     id="path4171"
     inkscape:connector-curvature="0"
     sodipodi:nodetypes="cssssssscsc" />
  <path
     style="fill:#ffffff;stroke:#2b2b28;stroke-width:2;stroke-miterlimit:4;stroke-dasharray:none;stroke-opacity:1"
     d="m 645.27256,270.52295 c 3.53572,-3.53572 19.2127,-9.30058 19.2127,-9.90704 3.18704,-21.97906 5.46669,-48.74718 7.71621,-71.0164 0.36801,-3.77903 -10.56997,0.4005 -10.92733,0.0431 -0.35736,-0.35737 -7.89932,2.45213 -14.96234,3.89264 -16.21125,3.30632 -19.02608,2.36222 -36.26394,-8.29282 -7.01767,-4.33776 -17.68539,-10.84854 -24.41883,-14.30306 -11.06431,-5.67643 -14.60261,-8.23585 -19.40996,-14.55397 -12.04239,-15.82684 -16.08101,-17.02998 -29.02168,-14.99182 0,0 -6.44242,0.035 -7.64568,2.07715 -2.18949,3.71604 -4.40542,10.88671 -4.40542,10.88671 -2.23187,5.52272 -4.06152,6.72882 -4.9944,9.4256 -1.93646,5.59793 0.72489,5.86248 2.60903,7.29595 0.63398,0.48233 3.67273,0.0441 4.06247,-1.62363 0.9797,-4.19248 5.00856,-5.91132 6.0369,-1.97895 0.796,3.04394 4.9811,0.97961 8.16774,-1.35052 1.74386,-1.27514 1.89384,-3.43168 1.67828,-7.085 -0.34149,-5.78738 1.23233,-7.85871 5.67706,-6.74314 2.50639,0.62906 1.5596,1.36573 2.22806,6.9311 1.46384,12.18766 1.17344,20.11454 -0.97261,20.93805 -1.19249,0.45761 -0.53288,-0.45854 -1.67135,-2.08393 -2.10034,-2.99865 -3.42553,-3.63427 -6.03454,-2.30826 -1.22098,0.62056 -2.13169,0.77864 -4.15975,2.00637 -1.57596,0.95404 -6.98797,3.32809 -7.20338,7.24996 0,2.94364 6.25112,10.07058 11.39686,12.202 2.94114,1.21827 3.80438,1.5123 8.4523,-1.35506 3.64575,-2.24911 9.28272,-5.75059 9.28272,-5.75059 0,0 12.4601,16.37947 24.8683,27.81488 26.94164,24.82947 35.57744,32.64945 41.14567,43.60495 5.10781,10.04962 9.60755,17.89321 12.68619,18.11947 0.55281,0.0406 3.33501,-5.60807 6.87072,-9.14378 z"
     id="path4185"
     inkscape:connector-curvature="0"
     sodipodi:nodetypes="cccsssssssssssssssssssscsscssscc" />
  <path
     style="fill:#ffffff;fill-rule:evenodd;stroke:#2b2b28;stroke-width:2;stroke-linecap:butt;stroke-linejoin:miter;stroke-miterlimit:4;stroke-dasharray:none;stroke-opacity:1"
     d="m 741.89166,662.39927 0.56567,-6.6749 c -3.31859,-0.75423 -6.47627,-1.21671 -8.59817,-0.56567 -4.54033,1.39306 -7.99479,5.355 -4.07282,9.50325 z"
     id="path4196"
     inkscape:connector-curvature="0"
     sodipodi:nodetypes="ccscc" />
  <path
     style="fill:#ffffff;fill-rule:evenodd;stroke:#2b2b28;stroke-width:2;stroke-linecap:butt;stroke-linejoin:miter;stroke-miterlimit:4;stroke-dasharray:none;stroke-opacity:1"
     d="m 772.8377,660.77836 c -3.95968,-0.9805 -8.02153,-1.6148 -11.87905,-2.9415 -3.30266,-1.1358 -6.9069,-2.8079 -9.72952,-4.8647 -1.53307,-1.1172 -3.00813,-2.2376 -4.75162,-2.3758 -1.35805,-0.1077 -3.05318,-0.3206 -4.41222,-0.2263 -3.04615,0.2114 -5.43042,11.08706 -5.43042,11.08706 l 33.03509,7.69312 z"
     id="path4194-3"
     inkscape:connector-curvature="0"
     sodipodi:nodetypes="cssssccc" />
  <path
     style="fill:#ffffff;stroke:#2b2b28;stroke-width:2;stroke-miterlimit:4;stroke-dasharray:none;stroke-opacity:1"
     d="m 675.29569,683.23435 c 11.86846,-1.09777 14.69355,-1.85527 18.37281,-5.24868 0.79934,3.80637 4.82736,6.99204 6.19312,6.99204 0.60332,0 0.0107,-4.60149 1.01695,-7.33551 1.12302,-3.05122 3.45105,-7.25718 11.32295,-20.49091 9.70797,-16.32039 -1.99663,-30.33749 -5.30724,-46.11924 -0.93941,-4.47818 0.52428,-5.01393 3.3835,-9.90901 3.36398,-5.75924 13.6756,-23.5557 14.47499,-28.93336 5.68192,-23.19126 -9.01246,-75.9015 -20.21472,-106.52994 -1.85735,-3.7963 -11.79545,8.67401 -12.38867,9.04065 -1.93355,1.195 -12.48751,16.5006 -17.57175,24.8174 -7.55663,12.36115 -14.98204,28.77343 -20.30002,48.285 -4.83135,17.72615 -14.21933,35.60598 -19.73979,43.41743 -2.31131,3.27051 -0.39871,2.31753 1.76865,2.31753 2.09023,0 12.42209,-3.39258 16.63851,-4.76176 0.53653,3.43068 6.32064,31.01227 13.43087,45.63059 4.52724,9.30776 6.47089,8.76187 5.20742,12.50212 -0.76809,2.27378 -3.14345,7.98045 -4.71658,9.47163 -2.43322,2.30644 -5.60833,2.75835 -13.15949,2.86965 -10.02975,0.14784 -13.00426,-0.65327 -18.86597,-2.71349 -5.35264,-1.8813 -8.96292,-2.91352 -10.67769,-1.99579 -3.0115,1.6117 -2.50487,6.03081 -3.06712,8.98364 -8.88368,13.63692 5.12488,8.17132 3.42261,21.27341 -3.18557,1.98942 2.37745,9.96457 6.00191,10.94728 8.22488,2.23005 13.85404,0.91943 23.80789,-5.22393 9.95384,-6.14337 13.29781,-6.57739 20.9669,-7.28675 z"
     id="path4221"
     inkscape:connector-curvature="0"
     sodipodi:nodetypes="ccssssscccsssscssssssccsssc" />
  <path
     style="fill:#ffffff;stroke:#2b2b28;stroke-width:2;stroke-miterlimit:4;stroke-dasharray:none;stroke-opacity:1"
     d="m 799.79471,681.93935 c 0.7962,1.17256 0.98584,1.87136 3.10856,2.87772 0.66145,0.31358 1.25162,-5.20129 2.66871,-8.40487 1.4171,-3.20356 4.53757,-8.34566 7.03219,-11.81798 6.19637,-8.62489 10.10425,-16.00492 10.13694,-21.95978 0.0228,-4.16451 -2.47264,-7.50308 -10.10129,-18.9294 -5.04595,-7.55791 -11.61743,-18.46475 -14.87984,-24.65225 -5.1654,-9.79668 -6.62158,-11.89593 -5.93389,-16.25 0.51754,-3.27677 18.65957,-44.05021 18.65957,-44.05021 0,0 0.97242,4.55587 1.89469,7.75616 3.40433,11.81302 14.28636,25.51238 22.85995,30.29307 2.14496,1.19605 3.29807,0.6068 2.57493,-3.22253 -0.43545,-2.30593 -3.17163,-11.96399 -3.59144,-19.52649 -0.69092,-12.44584 -0.43547,-14.99488 2.69326,-26.875 6.08682,-23.11241 7.9908,-33.93784 9.45353,-53.75 1.89808,-25.709 0.83538,-57.77533 -2.54769,-76.875 -3.4387,-19.41363 -5.02959,-24.86194 -13.95406,-47.78816 -4.07604,-10.47099 -10.88564,-29.00152 -14.91952,-41.25 -5.45504,-16.56368 -4.78854,-19.58562 -6.56727,-23.50748 1.27821,-0.21444 2.87641,0.85108 4.15462,0.63664 3.24521,0.79119 1.9324,0.46888 6.62927,2.19348 -6.03237,-8.02927 -7.16749,-22.00463 -6.41115,-46.99948 0.62884,-20.78198 0.7238,-27.69635 -0.87071,-35.21159 -2.56397,-12.08456 -10.37345,-28.70542 -20.75141,-41.57944 -3.70794,-4.59976 -6.53316,-9.40471 -9.26977,-13.24015 l 8.3294,0.0773 -10.67745,-9.87478 C 773.09531,134.07218 767.91714,127.82494 763.34199,120.0045 752.52391,101.5128 740.01933,85.543913 725.95334,69.432856 717.97174,60.290807 708.03158,55.525918 698.06437,52.802 c -8.46799,-2.314199 -25.72269,-4.644695 -32.56595,-2.251705 -2.5956,0.907641 -6.36325,3.434118 -6.75231,4.448006 -0.38906,1.013889 0.68682,8.002362 1.86125,10.412285 -3.62544,1.44995 -25.92555,12.806035 -33.64248,26.18063 -1.07973,1.871331 -2.24286,5.582418 -1.44101,7.807958 -11.13636,4.365826 -36.49105,16.427326 -42.25292,25.073836 -0.40563,1.02975 1.28364,5.03179 4.29599,4.76746 3.43019,-0.301 2.82587,1.62309 3.36365,4.0716 0.43205,1.96709 1.77951,4.48465 2.56958,4.79121 1.92588,0.74727 6.95918,0.7168 13.56495,0.5278 8.74728,-0.25027 14.35426,0.41715 15.64425,1.3001 1.07784,0.73774 -3.72189,0.99736 -10.98062,2.00981 -9.55786,1.33314 -12.29457,2.17815 -11.67687,5.00803 1.83129,8.38988 6.66341,10.98433 34.16172,11.57734 8.94398,0.19288 18.29912,1.19893 20.80361,1.79462 1.51788,0.36103 4.47571,0.56206 5.99359,0.92308 0.27242,3.13236 -0.49467,7.69872 -0.30271,10.83704 0.4117,6.73093 3.11836,17.06534 1.57449,19.51398 -1.33794,2.12203 -2.87981,5.0146 -4.35322,7.04491 -1.63107,2.24755 -2.85738,3.04501 -5.02559,5.00833 2.24047,-0.22413 4.14154,-0.22199 6.60827,-1.01178 -2.12698,14.37195 -2.19796,33.63066 -2.04518,36.07141 0.1215,1.94096 0.68684,6.23628 0.68684,6.23628 -1.44584,4.00239 -2.75145,8.4799 -6.37277,20.81105 -4.22428,19.73138 -4.5382,20.38567 -7.30538,19.44697 -1.27042,-0.43097 -15.63985,-2.28243 -34.20235,-2.32201 -18.5625,-0.0396 -34.00331,2.07335 -34.86602,1.51508 -0.86271,-0.55826 -5.77422,-6.18625 -8.34765,-10.16141 -9.18847,-14.1934 -13.53667,-15.87504 -23.52045,-14.61037 -4.8108,0.6094 -10.22799,8.60462 -9.84146,12.61205 0.30992,3.21304 4.19623,4.41329 8.22273,6.9366 1.61818,1.01407 2.53533,2.08942 5.95173,2.08942 2.51178,0 5.06403,-0.88416 5.66503,-3.88914 0.88254,-4.41267 0.32328,-5.51519 3.27574,-4.38222 1.92175,0.73745 1.43794,0.8152 0.66691,12.01001 -0.47508,6.8978 -0.40971,13.10973 -0.75351,13.66603 -0.34382,0.5563 -3.37158,0.21951 -5.76044,0.21951 -3.6172,0 -4.0286,-0.76937 -5.33153,-4.31994 -1.6824,-4.58464 -5.28178,-6.74896 -8.47576,-4.80459 -3.48104,2.11913 -4.59448,2.88328 -8.7077,6.0023 -1.21305,0.91984 -3.88197,2.08399 -2.29134,4.38376 1.91643,2.77083 8.35463,7.91985 14.02248,13.63395 13.50529,13.61548 11.47867,12.60518 22.88752,1.9178 6.29488,-5.89683 6.74403,-7.12095 11.47627,-5.81516 2.65532,0.73269 9.40041,4.30892 14.71253,6.97925 35.17012,17.67952 51.81345,25.66634 71.99648,29.45819 0.0236,26.8312 8.20487,71.73088 20.5141,101.81818 3.29488,8.05363 7.85873,17.5641 12.36305,26.16426 7.41947,14.16609 12.2775,22.98237 15.83656,24.82934 l 1.17155,10.42804 c -1.4051,15.67172 -0.28758,29.54726 3.78464,46.99156 3.71483,15.91344 5.44928,28.77914 4.79613,35.57659 -0.33285,3.46412 -3.20999,7.9032 -1.36041,7.41838 3.0512,-0.79981 8.52319,-5.59852 10.94015,-8.11107 2.89695,7.24716 22.2001,30.49642 42.49758,50.46521 3.5631,3.5054 4.18456,5.2775 3.5644,7.7564 -0.303,1.21116 -0.65091,2.62099 -1.36961,4.14653 -1.90665,4.0471 -2.10612,6.07348 -3.75726,8.55748 -1.00768,1.516 -3.16305,3.5351 -4.97789,3.394 -8.97578,-0.6981 -15.87467,-2.6855 -25.56825,-5.7698 -0.0359,-0.011 -0.75521,-0.1045 -0.79193,-0.1131 -6.83269,-1.5985 -8.96926,1.8772 -10.40832,6.2223 -1.51912,4.5869 -5.99781,6.7728 -6.78803,11.5396 -0.51101,3.0825 2.21736,6.3439 4.07282,8.3719 1.98,2.1642 4.12301,4.1021 5.88296,6.4487 1.11423,1.4856 0.82768,3.5729 2.26268,4.7516 1.99181,1.6361 4.69461,2.6517 7.24056,3.0546 2.79457,0.4423 5.8312,0.1383 8.59817,-0.4526 5.77247,-1.2326 9.86169,-3.2034 13.46293,-5.4304 1.48503,-0.9183 6.73913,-1.83374 10.263,-1.91315 17.75055,-0.40004 24.87451,-6.26438 26.31039,-10.52656 z"
     id="path4223"
     inkscape:connector-curvature="0"
     sodipodi:nodetypes="cssssssscssssssssscccsssccsssssscsccssssssssscsssccsccssssssssssscssssssssscssccssscsssssssssssssssscc" />
  <path
     style="fill:#ffffff;stroke:#2b2b28;stroke-width:2;stroke-miterlimit:4;stroke-dasharray:none;stroke-opacity:1"
     d="m 740.28029,685.89057 c 0.89431,-5.26246 -0.27233,-6.67616 -3.36339,-6.9942 -6.58017,-0.67704 -11.32915,4.97313 -10.54964,11.04223 0.26398,2.0553 0.30169,3.99746 1.13134,6.16589 l 4.3481,-1.84055 c 2.4012,-1.01643 5.03487,0.45802 6.98995,-1.0082 1.95508,-1.46622 0.94949,-4.45739 1.44364,-7.36517 z"
     id="path4219"
     inkscape:connector-curvature="0"
     sodipodi:nodetypes="ssscscs" />
  <path
     style="fill:none;fill-rule:evenodd;stroke:#2b2b28;stroke-width:2;stroke-linecap:round;stroke-linejoin:miter;stroke-miterlimit:4;stroke-dasharray:none;stroke-opacity:1"
     d="m 734.87737,675.18339 c 0.45253,-1.20676 1.59735,-3.08818 3.28087,-4.41222 0.98669,-0.77601 2.81986,-1.02065 3.84656,-0.79193 6.43262,1.433 10.74771,2.7152 17.87514,2.94147"
     id="path4214"
     inkscape:connector-curvature="0"
     sodipodi:nodetypes="cssc" />
  <path
     style="fill:#ffffff;stroke:#2b2b28;stroke-width:2;stroke-miterlimit:4;stroke-dasharray:none;stroke-opacity:1"
     d="m 729.46061,679.55913 c 3.71624,1.44404 7.13974,-5.33298 7.30839,-8.57185 0.13556,-2.60358 -1.41771,-4.97403 -5.2079,-5.10235 -8.48866,-0.28738 -12.35443,5.27085 -12.35443,12.55508 0,1.02368 0.10192,3.73433 1.36018,5.37577 1.49288,-2.00062 2.54232,-2.66399 3.99912,-3.75461 1.18827,-0.88959 3.14773,-1.18084 4.89464,-0.50204 z"
     id="path4211"
     inkscape:connector-curvature="0"
     sodipodi:nodetypes="sssscss" />
  <path
     style="fill:#ffffff;stroke:#2b2b28;stroke-width:2;stroke-miterlimit:4;stroke-dasharray:none;stroke-opacity:1"
     d="m 620.32667,676.84152 c 2.27706,-0.22879 5.07489,-0.1148 5.1619,-1.68668 0.11377,-2.05509 0.84361,-6.60395 2.09274,-7.64029 4.98316,-4.13424 1.57623,-6.28446 -1.79077,-6.73801 -6.88065,-0.92685 -11.31117,2.19242 -12.68454,10.78099 -0.4991,3.12121 -0.69599,6.60014 -0.0391,8.58199 1.86776,-2.49708 5.00092,-3.07103 7.25982,-3.298 z"
     id="path4209"
     inkscape:connector-curvature="0"
     sodipodi:nodetypes="ssssscs" />
  <path
     style="fill:#ffffff;stroke:#2b2b28;stroke-width:2;stroke-miterlimit:4;stroke-dasharray:none;stroke-opacity:1"
     d="m 630.70655,689.7554 c 1.6425,-0.4672 5.42157,-8.64652 4.36469,-13.20929 -0.43309,-1.86971 -2.99612,-2.2849 -4.78314,-2.64262 -5.00594,-1.00208 -11.87674,6.06753 -12.7681,12.71328 -0.34054,2.53897 0.54009,7.06584 0.76142,7.67255 2.1446,-2.33478 3.40362,-3.61184 4.49867,-4.08256 1.30896,-0.56269 5.80935,0.15085 7.92646,-0.45136 z"
     id="path4217"
     inkscape:connector-curvature="0"
     sodipodi:nodetypes="sssscss" />
  <path
     style="fill:#ffffff;stroke:#2b2b28;stroke-width:2;stroke-miterlimit:4;stroke-dasharray:none;stroke-opacity:1"
     d="m 518.39814,318.25735 c 0.97351,-3.34515 -5.66269,-5.68042 -8.54469,-11.05719 -1.03044,1.03045 -1.91323,6.13614 -0.95073,8.64632 2.33272,6.08372 8.2431,6.71409 9.49542,2.41087 z"
     id="path4193"
     inkscape:connector-curvature="0"
     sodipodi:nodetypes="scss" />
  <path
     style="fill:#ffffff;stroke:#2b2b28;stroke-width:2;stroke-miterlimit:4;stroke-dasharray:none;stroke-opacity:1"
     d="m 536.91994,297.61477 c 1.02522,-1.28149 2.15949,-2.52856 -2.42743,-8.10223 -2.34317,-2.84724 -3.6362,-5.19777 -4.72404,-7.06787 -4.8609,4.94852 -5.84055,8.26555 -0.42651,14.0757 3.0109,3.23118 5.27751,3.96995 7.12545,1.66006 z"
     id="path4189"
     inkscape:connector-curvature="0"
     sodipodi:nodetypes="sscsss" />
  <path
     style="fill:#ffffff;stroke:#2b2b28;stroke-width:2;stroke-miterlimit:4;stroke-dasharray:none;stroke-opacity:1"
     d="m 525.59986,307.77756 c 0.73962,-0.89118 2.32083,-2.7572 0.70738,-5.15911 -1.94847,-2.90064 -4.86891,-5.18273 -7.04095,-9.65535 -2.14083,2.14084 -6.72002,5.99665 -1.5583,13.52873 2.70356,3.94508 5.81152,3.79241 7.89187,1.28573 z"
     id="path4191"
     inkscape:connector-curvature="0"
     sodipodi:nodetypes="sscss" />
  <path
     style="fill:#ffffff;stroke:#2b2b28;stroke-width:2;stroke-miterlimit:4;stroke-dasharray:none;stroke-opacity:1"
     d="m 544.37716,279.95247 c 3.96362,-5.50822 -0.23737,-9.74362 -4.06302,-9.1903 -1.24201,0.17963 -1.42321,-0.16438 -2.18198,1.44621 -0.2121,0.45023 -1.50783,2.3834 -1.76879,3.60989 -0.54145,2.54478 -0.27153,4.67977 0.58351,6.38366 0.77379,1.54196 2.22641,2.56707 3.63856,3.05639 0.78992,-0.98141 2.30946,-3.24596 3.79172,-5.30585 z"
     id="path4187"
     inkscape:connector-curvature="0"
     sodipodi:nodetypes="ssssscs" />
  <path
     style="fill:#ffffff;stroke:#2b2b28;stroke-width:2;stroke-miterlimit:4;stroke-dasharray:none;stroke-opacity:1"
     d="m 540.43255,181.19021 c 0.683,-1.41335 0.54838,-3.94703 -0.3251,-6.24447 -0.92377,-2.4297 -2.72422,-5.28951 -3.44523,-4.96326 -0.72101,0.32624 -2.7241,5.58317 -3.02123,8.32665 -0.21023,1.94115 0.46562,4.38024 0.98424,4.81533 1.47452,1.23703 4.61438,0.53435 5.80732,-1.93425 z"
     id="path4181"
     inkscape:connector-curvature="0"
     sodipodi:nodetypes="ssssss" />
  <path
     style="fill:#ffffff;stroke:#2b2b28;stroke-width:2;stroke-miterlimit:4;stroke-dasharray:none;stroke-opacity:1"
     d="m 531.39876,170.37641 c 1.95314,-2.59049 3.24993,-4.59259 3.01559,-5.61641 -0.26552,-1.16007 -2.13441,-1.55647 -3.88604,-1.49638 -1.06224,0.0364 -2.12502,-0.19617 -2.93639,0.37447 -1.94633,1.36894 -3.15347,5.06689 -3.15347,8.35631 0,4.14293 4.56391,5.51619 5.38252,5.23353 0.8186,-0.28267 -0.11463,-4.60687 1.57779,-6.85155 z"
     id="path4175"
     inkscape:connector-curvature="0"
     sodipodi:nodetypes="cssssssc" />
  <path
     style="fill:#ffffff;stroke:#2b2b28;stroke-width:2;stroke-miterlimit:4;stroke-dasharray:none;stroke-opacity:1"
     d="m 496.71349,173.65378 c 1.02528,-5.00507 1.63614,-8.08013 0.36052,-8.56963 -0.892,-0.3423 -3.90507,-0.36598 -4.62868,0.074 -5.12705,3.11769 -1.49058,16.62395 2.43463,16.32976 1.05892,-0.0794 1.1166,-4.33429 1.83353,-7.83416 z"
     id="path4179"
     inkscape:connector-curvature="0"
     sodipodi:nodetypes="cssssc" />
  <path
     style="fill:#ffffff;stroke:#2b2b28;stroke-width:2;stroke-miterlimit:4;stroke-dasharray:none;stroke-opacity:1"
     d="m 513.9791,174.81783 c 0.43799,-3.88869 1.023,-7.18792 0.27421,-8.4237 -0.67735,-1.11788 -2.48725,-0.4239 -5.73832,0.81048 -5.19891,1.97395 -1.98079,13.23486 0.71404,15.20536 1.16746,0.85367 5.28083,1.41731 5.4074,1.25255 0.12658,-0.16478 -1.10258,-4.89156 -0.65733,-8.84469 z"
     id="path4183"
     inkscape:connector-curvature="0"
     sodipodi:nodetypes="sssscs" />
  <path
     style="fill:none;fill-rule:evenodd;stroke:#2b2b28;stroke-width:2;stroke-linecap:round;stroke-linejoin:miter;stroke-miterlimit:4;stroke-dasharray:none;stroke-opacity:1"
     d="m 670.42914,109.52652 c 0.0533,4.21321 -0.38813,7.19214 -1.11997,11.03969 -2.3334,12.26749 -7.14646,25.54593 -8.31976,40.47884"
     id="path4143"
     inkscape:connector-curvature="0"
     sodipodi:nodetypes="csc" />
  <path
     style="fill:none;fill-rule:evenodd;stroke:#2b2b28;stroke-width:2;stroke-linecap:round;stroke-linejoin:miter;stroke-miterlimit:4;stroke-dasharray:none;stroke-opacity:1"
     d="m 781.78595,150.16536 c -6.39981,-1.43996 -10.07971,-2.87992 -10.07971,-2.87992"
     id="path4145"
     inkscape:connector-curvature="0"
     sodipodi:nodetypes="cc" />
  <path
     style="fill:none;fill-rule:evenodd;stroke:#2b2b28;stroke-width:2;stroke-linecap:round;stroke-linejoin:miter;stroke-miterlimit:4;stroke-dasharray:none;stroke-opacity:1"
     d="m 680.34886,50.168228 c 6.61314,3.679895 10.40536,8.763445 12.63964,13.439615 1.71072,3.580412 4.33604,7.482629 7.32262,9.88256 -3.57323,1.512701 -5.40425,1.425449 -8.51691,-0.159995"
     id="path4147"
     inkscape:connector-curvature="0"
     sodipodi:nodetypes="cscc" />
  <path
     style="fill:none;fill-rule:evenodd;stroke:#2b2b28;stroke-width:2;stroke-linecap:round;stroke-linejoin:miter;stroke-miterlimit:4;stroke-dasharray:none;stroke-opacity:1"
     d="m 799.86543,277.8417 c 3.03991,3.03991 5.43985,4.31988 8.95975,6.39982"
     id="path4149"
     inkscape:connector-curvature="0"
     sodipodi:nodetypes="cc" />
  <path
     style="fill:none;fill-rule:evenodd;stroke:#2b2b28;stroke-width:2;stroke-linecap:round;stroke-linejoin:miter;stroke-miterlimit:4;stroke-dasharray:none;stroke-opacity:1"
     d="m 661.3094,346.31974 c 9.70639,1.1733 16.21287,2.02661 25.11928,2.07994"
     id="path4151"
     inkscape:connector-curvature="0"
     sodipodi:nodetypes="cc" />
  <path
     style="fill:none;fill-rule:evenodd;stroke:#2b2b28;stroke-width:2;stroke-linecap:round;stroke-linejoin:miter;stroke-miterlimit:4;stroke-dasharray:none;stroke-opacity:1"
     d="m 746.26697,273.52183 c -1.81328,15.46622 -6.35696,20.24522 -13.9196,31.99908 -4.64714,7.2226 -11.45931,22.05956 -14.55958,34.879 -5.25829,21.74276 -17.13387,30.28422 -27.67921,32.95906 -0.53971,0.1369 -0.69633,-1.08691 -0.47999,-1.59996 4.76299,-11.29531 2.10677,-16.6187 -2.71992,-23.35933 -2.76914,-3.8672 -7.0398,-9.70639 -4.31988,-13.59961"
     id="path4153"
     inkscape:connector-curvature="0"
     sodipodi:nodetypes="csssssc" />
  <path
     style="fill:none;fill-rule:evenodd;stroke:#2b2b28;stroke-width:2;stroke-linecap:round;stroke-linejoin:miter;stroke-miterlimit:4;stroke-dasharray:none;stroke-opacity:1"
     d="m 726.10755,434.7972 c -4.21321,8.74642 -9.30238,34.87576 -15.91553,64.58158"
     id="path4155"
     inkscape:connector-curvature="0"
     sodipodi:nodetypes="cc" />
  <path
     style="fill:none;fill-rule:evenodd;stroke:#2b2b28;stroke-width:2;stroke-linecap:round;stroke-linejoin:miter;stroke-miterlimit:4;stroke-dasharray:none;stroke-opacity:1"
     d="m 739.4906,578.91426 c -5.11985,7.51978 -9.91971,12.15965 -9.91971,12.15965"
     id="path4157"
     inkscape:connector-curvature="0"
     sodipodi:nodetypes="cc" />
  <path
     style="fill:none;fill-rule:evenodd;stroke:#2b2b28;stroke-width:2;stroke-linecap:round;stroke-linejoin:miter;stroke-miterlimit:4;stroke-dasharray:none;stroke-opacity:1"
     d="m 658.06263,203.01071 c 10.61303,-2.50659 16.82572,-7.09893 22.12623,-19.40631 1.36323,-3.16533 2.55993,-6.39981 3.83989,-9.59972 l 0,0"
     id="path4159"
     inkscape:connector-curvature="0"
     sodipodi:nodetypes="cscc" />
  <path
     style="fill:none;fill-rule:evenodd;stroke:#2b2b28;stroke-width:2;stroke-linecap:round;stroke-linejoin:miter;stroke-miterlimit:4;stroke-dasharray:none;stroke-opacity:1"
     d="m 696.3484,171.60475 c -14.55958,21.70604 -25.45868,47.70784 -37.93832,72.77379"
     id="path4161"
     inkscape:connector-curvature="0"
     sodipodi:nodetypes="cc" />
  <path
     style="fill:none;fill-rule:evenodd;stroke:#2b2b28;stroke-width:2;stroke-linecap:round;stroke-linejoin:miter;stroke-miterlimit:4;stroke-dasharray:none;stroke-opacity:1"
     d="m 666.42926,84.727238 c -1.0133,-5.91983 -3.78656,-13.27962 -5.91983,-19.19945"
     id="path4163"
     inkscape:connector-curvature="0"
     sodipodi:nodetypes="cc" />
  <path
     style="fill:none;fill-rule:evenodd;stroke:#2b2b28;stroke-width:2;stroke-linecap:round;stroke-linejoin:miter;stroke-miterlimit:4;stroke-dasharray:none;stroke-opacity:1"
     d="m 690.82856,660.67073 c -0.23482,6.69287 0.61936,9.66758 2.71992,16.39953"
     id="path4243"
     inkscape:connector-curvature="0"
     sodipodi:nodetypes="cc" />
  <path
     style="fill:none;fill-rule:evenodd;stroke:#2b2b28;stroke-width:2;stroke-linecap:round;stroke-linejoin:miter;stroke-miterlimit:4;stroke-dasharray:none;stroke-opacity:1"
     d="m 664.58931,581.99298 c -3.5199,2.82659 -7.0398,4.45321 -11.43967,6.79981"
     id="path4245"
     inkscape:connector-curvature="0"
     sodipodi:nodetypes="cc" />
  <path
     style="fill:none;fill-rule:evenodd;stroke:#2b2b28;stroke-width:2;stroke-linecap:round;stroke-linejoin:miter;stroke-miterlimit:4;stroke-dasharray:none;stroke-opacity:1"
     d="m 796.98552,665.75059 c -1.35996,8.18643 0.15999,12.45298 2.55992,16.15954"
     id="path4256"
     inkscape:connector-curvature="0"
     sodipodi:nodetypes="cc" />
  <path
     style="fill:none;fill-rule:evenodd;stroke:#2b2b28;stroke-width:2;stroke-linecap:round;stroke-linejoin:miter;stroke-miterlimit:4;stroke-dasharray:none;stroke-opacity:1"
     d="m 625.79042,99.526814 c 4.21321,5.146516 12.11495,6.672156 14.31959,6.319816 3.63645,-0.58117 5.49318,-6.319816 3.7599,-11.119682"
     id="path4751"
     inkscape:connector-curvature="0"
     sodipodi:nodetypes="csc" />
  <path
     style="fill:none;fill-rule:evenodd;stroke:#2b2b28;stroke-width:2;stroke-linecap:round;stroke-linejoin:miter;stroke-miterlimit:4;stroke-dasharray:none;stroke-opacity:1"
     d="m 645.38986,93.366987 c -5.45424,2.207652 -15.82005,4.467787 -15.83954,9.199733"
     id="path4753"
     inkscape:connector-curvature="0"
     sodipodi:nodetypes="cc" />
  <path
     style="fill:none;fill-rule:evenodd;stroke:#2b2b28;stroke-width:2;stroke-linecap:butt;stroke-linejoin:miter;stroke-miterlimit:4;stroke-dasharray:none;stroke-opacity:1"
     d="m 637.95008,96.566894 c 0.61331,4.479866 0.18666,6.959796 -0.79998,8.639746"
     id="path4755"
     inkscape:connector-curvature="0"
     sodipodi:nodetypes="cc" />
  <path
     style="fill:none;fill-rule:evenodd;stroke:#2b2b28;stroke-width:2;stroke-linecap:round;stroke-linejoin:miter;stroke-miterlimit:4;stroke-dasharray:none;stroke-opacity:1"
     d="m 566.1948,188.82099 c -2.18726,-0.45253 -4.26138,-0.11313 -6.3355,1.24448"
     id="path4757"
     inkscape:connector-curvature="0"
     sodipodi:nodetypes="cc" />
  <path
     style="fill:none;fill-rule:evenodd;stroke:#2b2b28;stroke-width:2;stroke-linecap:round;stroke-linejoin:miter;stroke-miterlimit:4;stroke-dasharray:none;stroke-opacity:1"
     d="m 810.5639,539.08338 c 4.29909,-11.87906 4.29909,-11.87906 4.29909,-11.87906"
     id="path4759"
     inkscape:connector-curvature="0" />
  <path
     style="fill:none;fill-rule:evenodd;stroke:#2b2b28;stroke-width:2;stroke-linecap:round;stroke-linejoin:miter;stroke-miterlimit:4;stroke-dasharray:none;stroke-opacity:1"
     d="m 630.22856,664.54881 c 7.24056,2.60208 16.4044,1.58387 25.79451,1.0182"
     id="path4198"
     inkscape:connector-curvature="0"
     sodipodi:nodetypes="cc" />
</svg>
