<?xml version="1.0" encoding="utf-8"?>
<!-- Generator: Adobe Illustrator 19.2.0, SVG Export Plug-In . SVG Version: 6.00 Build 0)  -->
<svg version="1.1" id="Layer_1" xmlns="http://www.w3.org/2000/svg" xmlns:xlink="http://www.w3.org/1999/xlink" x="0px" y="0px"
	 viewBox="0 0 800 481.2" style="enable-background:new 0 0 800 481.2;" xml:space="preserve">
<style type="text/css">
	.st0{fill:#009639;}
	.st1{fill:#48B8E7;}
	.st2{fill:#FFFFFF;}
</style>
<rect class="st0" width="800" height="481.2"/>
<g>
	<path class="st1" d="M747.3,280.1c-12,6.8-23.3,13.2-46.4,13.2c-23.1,0-34.4-6.4-46.4-13.2c-13.2-7.5-26.8-15.2-53.9-15.2
		c-27.1,0-40.7,7.8-53.9,15.2c-12,6.8-23.3,13.2-46.4,13.2c-23,0-34.4-6.4-46.4-13.2c-13.2-7.5-26.8-15.2-53.9-15.2
		s-40.7,7.8-53.9,15.2c-12,6.8-23.3,13.2-46.4,13.2c-23,0-34.4-6.4-46.4-13.2c-13.2-7.5-26.8-15.2-53.9-15.2s-40.7,7.8-53.9,15.2
		c-12,6.8-23.3,13.2-46.4,13.2c-23,0-34.4-6.4-46.4-13.2c-13-7.4-26.4-15-52.7-15.2v4.7v2.4v8.2v3.5v71.6v0.5V369v0.3v1.7
		c22.2,0.2,33.4,6.5,45.2,13.2c13.2,7.5,26.8,15.2,53.9,15.2s40.7-7.8,53.9-15.2c12-6.8,23.3-13.2,46.4-13.2s34.4,6.4,46.4,13.2
		c13.2,7.5,26.8,15.2,53.9,15.2s40.7-7.8,53.9-15.2c12-6.8,23.3-13.2,46.4-13.2c23,0,34.4,6.4,46.4,13.2
		c13.2,7.5,26.8,15.2,53.9,15.2s40.7-7.8,53.9-15.2c12-6.8,23.3-13.2,46.4-13.2c23,0,34.4,6.4,46.4,13.2
		c13.2,7.5,26.8,15.2,53.9,15.2c27.1,0,40.7-7.8,53.9-15.2c11.8-6.7,22.9-13,45.2-13.2v-1.7V369v-13.3v-0.5v-71.6v-3.5V272v-2.4
		v-4.7C773.7,265.1,760.3,272.8,747.3,280.1z"/>
	<g>
		<path class="st2" d="M700.9,384.2c-23.1,0-34.4-6.4-46.4-13.2c-13.2-7.5-26.8-15.2-53.9-15.2c-27.1,0-40.7,7.8-53.9,15.2
			c-12,6.8-23.3,13.2-46.4,13.2c-23,0-34.4-6.4-46.4-13.2c-13.2-7.5-26.8-15.2-53.9-15.2s-40.7,7.8-53.9,15.2
			c-12,6.8-23.3,13.2-46.4,13.2c-23,0-34.4-6.4-46.4-13.2c-13.2-7.5-26.8-15.2-53.9-15.2s-40.7,7.8-53.9,15.2
			c-12,6.8-23.3,13.2-46.4,13.2c-23,0-34.4-6.4-46.4-13.2c-13-7.4-26.4-15-52.7-15.2v15.3c22.2,0.2,33.4,6.5,45.2,13.2
			c13.2,7.5,26.8,15.2,53.9,15.2s40.7-7.8,53.9-15.2c12-6.8,23.3-13.2,46.4-13.2s34.4,6.4,46.4,13.2c13.2,7.5,26.8,15.2,53.9,15.2
			s40.7-7.8,53.9-15.2c12-6.8,23.3-13.2,46.4-13.2c23,0,34.4,6.4,46.4,13.2c13.2,7.5,26.8,15.2,53.9,15.2s40.7-7.8,53.9-15.2
			c12-6.8,23.3-13.2,46.4-13.2c23,0,34.4,6.4,46.4,13.2c13.2,7.5,26.8,15.2,53.9,15.2c27.1,0,40.7-7.8,53.9-15.2
			c11.8-6.7,22.9-13,45.2-13.2v-15.3c-26.3,0.2-39.7,7.9-52.7,15.2C735.3,377.8,723.9,384.2,700.9,384.2z"/>
		<path class="st2" d="M700.9,293.4c-23.1,0-34.4-6.4-46.4-13.2c-13.2-7.5-26.8-15.2-53.9-15.2c-27.1,0-40.7,7.8-53.9,15.2
			c-12,6.8-23.3,13.2-46.4,13.2c-23,0-34.4-6.4-46.4-13.2c-13.2-7.5-26.8-15.2-53.9-15.2s-40.7,7.8-53.9,15.2
			c-12,6.8-23.3,13.2-46.4,13.2c-23,0-34.4-6.4-46.4-13.2c-13.2-7.5-26.8-15.2-53.9-15.2s-40.7,7.8-53.9,15.2
			c-12,6.8-23.3,13.2-46.4,13.2c-23,0-34.4-6.4-46.4-13.2c-13-7.4-26.4-15-52.7-15.2v15.3c22.2,0.2,33.4,6.5,45.2,13.2
			c13.2,7.5,26.8,15.2,53.9,15.2s40.7-7.8,53.9-15.2c12-6.8,23.3-13.2,46.4-13.2s34.4,6.4,46.4,13.2c13.2,7.5,26.8,15.2,53.9,15.2
			s40.7-7.8,53.9-15.2c12-6.8,23.3-13.2,46.4-13.2c23,0,34.4,6.4,46.4,13.2c13.2,7.5,26.8,15.2,53.9,15.2s40.7-7.8,53.9-15.2
			c12-6.8,23.3-13.2,46.4-13.2c23,0,34.4,6.4,46.4,13.2c13.2,7.5,26.8,15.2,53.9,15.2c27.1,0,40.7-7.8,53.9-15.2
			c11.8-6.7,22.9-13,45.2-13.2V265c-26.3,0.2-39.7,7.9-52.7,15.2C735.3,287,723.9,293.4,700.9,293.4z"/>
	</g>
	<path class="st1" d="M747.3,97.7c-12,6.8-23.3,13.2-46.4,13.2c-23.1,0-34.4-6.4-46.4-13.2c-13.2-7.5-26.8-15.2-53.9-15.2
		c-27.1,0-40.7,7.8-53.9,15.2c-12,6.8-23.3,13.2-46.4,13.2c-23,0-34.4-6.4-46.4-13.2c-13.2-7.5-26.8-15.2-53.9-15.2
		s-40.7,7.8-53.9,15.2c-12,6.8-23.3,13.2-46.4,13.2c-23,0-34.4-6.4-46.4-13.2c-13.2-7.5-26.8-15.2-53.9-15.2s-40.7,7.8-53.9,15.2
		c-12,6.8-23.3,13.2-46.4,13.2c-23,0-34.4-6.4-46.4-13.2c-13-7.4-26.4-15-52.7-15.2v4.7v2.4v8.2v3.5v71.6v0.5v13.3v0.3v1.7
		c22.2,0.2,33.4,6.5,45.2,13.2c13.2,7.5,26.8,15.2,53.9,15.2s40.7-7.8,53.9-15.2c12-6.8,23.3-13.2,46.4-13.2s34.4,6.4,46.4,13.2
		c13.2,7.5,26.8,15.2,53.9,15.2s40.7-7.8,53.9-15.2c12-6.8,23.3-13.2,46.4-13.2c23,0,34.4,6.4,46.4,13.2
		c13.2,7.5,26.8,15.2,53.9,15.2s40.7-7.8,53.9-15.2c12-6.8,23.3-13.2,46.4-13.2c23,0,34.4,6.4,46.4,13.2
		c13.2,7.5,26.8,15.2,53.9,15.2c27.1,0,40.7-7.8,53.9-15.2c11.8-6.7,22.9-13,45.2-13.2V187v-0.3v-13.3v-0.5v-71.6v-3.5v-8.2v-2.4
		v-4.7C773.7,82.7,760.3,90.3,747.3,97.7z"/>
	<g>
		<path class="st2" d="M700.9,201.7c-23.1,0-34.4-6.4-46.4-13.2c-13.2-7.5-26.8-15.2-53.9-15.2c-27.1,0-40.7,7.8-53.9,15.2
			c-12,6.8-23.3,13.2-46.4,13.2c-23,0-34.4-6.4-46.4-13.2c-13.2-7.5-26.8-15.2-53.9-15.2s-40.7,7.8-53.9,15.2
			c-12,6.8-23.3,13.2-46.4,13.2c-23,0-34.4-6.4-46.4-13.2c-13.2-7.5-26.8-15.2-53.9-15.2s-40.7,7.8-53.9,15.2
			c-12,6.8-23.3,13.2-46.4,13.2c-23,0-34.4-6.4-46.4-13.2c-13-7.4-26.4-15-52.7-15.2v15.3c22.2,0.2,33.4,6.5,45.2,13.2
			C58.4,209.3,72,217,99.1,217s40.7-7.8,53.9-15.2c12-6.8,23.3-13.2,46.4-13.2s34.4,6.4,46.4,13.2c13.2,7.5,26.8,15.2,53.9,15.2
			s40.7-7.8,53.9-15.2c12-6.8,23.3-13.2,46.4-13.2c23,0,34.4,6.4,46.4,13.2c13.2,7.5,26.8,15.2,53.9,15.2s40.7-7.8,53.9-15.2
			c12-6.8,23.3-13.2,46.4-13.2c23,0,34.4,6.4,46.4,13.2c13.2,7.5,26.8,15.2,53.9,15.2c27.1,0,40.7-7.8,53.9-15.2
			c11.8-6.7,22.9-13,45.2-13.2v-15.3c-26.3,0.2-39.7,7.9-52.7,15.2C735.3,195.3,723.9,201.7,700.9,201.7z"/>
		<path class="st2" d="M700.9,110.9c-23.1,0-34.4-6.4-46.4-13.2c-13.2-7.5-26.8-15.2-53.9-15.2c-27.1,0-40.7,7.8-53.9,15.2
			c-12,6.8-23.3,13.2-46.4,13.2c-23,0-34.4-6.4-46.4-13.2c-13.2-7.5-26.8-15.2-53.9-15.2s-40.7,7.8-53.9,15.2
			c-12,6.8-23.3,13.2-46.4,13.2c-23,0-34.4-6.4-46.4-13.2c-13.2-7.5-26.8-15.2-53.9-15.2s-40.7,7.8-53.9,15.2
			c-12,6.8-23.3,13.2-46.4,13.2c-23,0-34.4-6.4-46.4-13.2c-13-7.4-26.4-15-52.7-15.2v15.3c22.2,0.2,33.4,6.5,45.2,13.2
			c13.2,7.5,26.8,15.2,53.9,15.2s40.7-7.8,53.9-15.2c12-6.8,23.3-13.2,46.4-13.2s34.4,6.4,46.4,13.2c13.2,7.5,26.8,15.2,53.9,15.2
			s40.7-7.8,53.9-15.2c12-6.8,23.3-13.2,46.4-13.2c23,0,34.4,6.4,46.4,13.2c13.2,7.5,26.8,15.2,53.9,15.2s40.7-7.8,53.9-15.2
			c12-6.8,23.3-13.2,46.4-13.2c23,0,34.4,6.4,46.4,13.2c13.2,7.5,26.8,15.2,53.9,15.2c27.1,0,40.7-7.8,53.9-15.2
			c11.8-6.7,22.9-13,45.2-13.2V82.4c-26.3,0.2-39.7,7.9-52.7,15.2C735.3,104.5,723.9,110.9,700.9,110.9z"/>
	</g>
</g>
<g>
	<path class="st2" d="M535,67.4c-55.4,13.5-100.3,2.9-121.6-4.3c-4.6-2.4-11.9-5.1-12.3-5.2l-1.1-0.2l-1.1,0.2
		c-0.3,0-7.7,2.8-12.3,5.2c-21.3,7.2-66.2,17.7-121.6,4.3c-16.3-4-52.6-22.4-52.6-22.4v168.3l0,0c-0.4,51.8,17.7,96.1,52.3,134.3
		c17.7,19.5,37.9,35.6,61.8,47.2c19.5,9.5,38.8,19.3,58.1,29.2c3.9,2.5,13.9,6.3,14.3,6.3l1.1,0.2l1.1-0.2c0.4,0,10.5-3.8,14.3-6.3
		c19.3-9.9,38.6-19.8,58.1-29.2c23.9-11.6,44.1-27.7,61.8-47.2c34.6-38.2,52.7-82.5,52.3-134.3l0,0V45C587.6,45,551.3,63.4,535,67.4
		z"/>
	<g>
		<path d="M344.1,166.4c-7.4-9-14-18.4-18.9-29c-4.1-8.9-7.9-14.3-21.3-11.1l-4.2-19.4c0-0.2-0.2-0.3-0.3-0.2l-4.2,0.9
			c-0.2,0-0.3,0.2-0.2,0.3l2.9,13.5c0.4,2.2,0.8,4.5,1.3,6.7c-8.7,3.7-12.2,6.8-13.1,13.6c-2.2,15.3-7,29.8-11.9,44.3
			c-2.7,7.9-4,16.1-2.4,24.4c3.6,19.1,20.6,32.7,40.4,32.4c19.2-0.3,33.6-9.4,39.7-25.7C358.6,198.7,356.6,181.7,344.1,166.4z"/>
		<path d="M519.9,166.4c-7.4-9-14-18.4-18.9-29c-4.1-8.9-7.9-14.3-21.3-11.1l-4.2-19.4c0-0.2-0.2-0.3-0.3-0.2l-4.2,0.9
			c-0.2,0-0.3,0.2-0.2,0.3l2.9,13.5c0.4,2.2,0.8,4.5,1.3,6.7c-8.7,3.7-12.2,6.8-13.1,13.6c-2.2,15.3-7,29.8-11.9,44.3
			c-2.7,7.9-4,16.1-2.4,24.4c3.6,19.1,20.6,32.7,40.4,32.4c19.2-0.3,33.6-9.4,39.7-25.7C534.4,198.7,532.4,181.7,519.9,166.4z"/>
		<path d="M432.8,302c-7.4-9-14-18.4-18.9-29c-4.1-8.9-7.9-14.3-21.3-11.1l-4.2-19.4c0-0.2-0.2-0.3-0.3-0.2l-4.2,0.9
			c-0.2,0-0.3,0.2-0.2,0.3l2.9,13.5c0.4,2.2,0.8,4.5,1.3,6.7c-8.7,3.7-12.2,6.8-13.1,13.6c-2.2,15.3-7,29.8-11.9,44.3
			c-2.7,7.9-4,16.1-2.4,24.4c3.6,19.1,20.6,32.7,40.4,32.4c19.2-0.3,33.6-9.4,39.7-25.7C447.3,334.3,445.4,317.3,432.8,302z"/>
	</g>
	<path d="M589.8,41.3c-1.3-0.8-2.8-0.8-4.2-0.2c-0.4,0.2-36,18.3-51.7,22.1c-53.8,13.1-97.5,3.1-118.9-4.1c-3.4-1.7-11.2-5-13.3-5.4
		l0,0l-1.1-0.2c-0.4-0.1-0.8-0.1-1.2,0l-1.1,0.2l0,0c-2.1,0.4-9.9,3.7-13.3,5.4c-21.4,7.2-65.1,17.1-118.9,4.1
		c-15.6-3.8-51.3-21.9-51.7-22.1c-1.3-0.7-2.9-0.6-4.2,0.2s-2,2.1-2,3.6v168.3c0,0.1,0,0.2,0,0.3c-0.4,51.3,17.6,97.4,53.4,136.8
		c19.2,21.1,39.8,36.9,63.1,48.2c19.7,9.6,39.1,19.5,57.8,29.1c3.8,2.4,13.6,6.4,15.9,6.9l0,0l1.1,0.2c0.2,0,0.4,0,0.6,0
		s0.4,0,0.6,0l1.1-0.2l0,0c2.3-0.4,12.1-4.5,15.8-6.9c18.8-9.6,38.2-19.5,57.8-29.1c23.3-11.3,43.9-27.1,63.1-48.2
		c35.8-39.5,53.8-85.5,53.4-136.8c0-0.1,0-0.2,0-0.3V45C591.9,43.5,591.1,42.1,589.8,41.3z M583.4,212.9c0,0.1,0,0.2,0,0.4
		c0.4,50-16.3,92.9-51.2,131.4C513.8,365,494,380.1,471.7,391c-19.8,9.6-39.3,19.6-58.2,29.3c-0.1,0.1-0.3,0.1-0.4,0.2
		c-2.9,1.9-11,5.1-12.9,5.7H400h-0.2c-1.9-0.6-10-3.8-12.9-5.7c-0.1-0.1-0.3-0.2-0.4-0.2c-18.9-9.7-38.4-19.6-58.2-29.3
		c-22.3-10.8-42.1-26-60.5-46.3c-34.9-38.4-51.6-81.4-51.2-131.4c0-0.1,0-0.2,0-0.3V51.8c11.2,5.5,34.7,16.6,47.3,19.7
		c56.2,13.6,101.8,3.1,124-4.4c0.2-0.1,0.4-0.2,0.6-0.3c3.8-2,9.8-4.3,11.2-4.8h0.2h0.2c1.4,0.5,7.4,2.8,11.2,4.8
		c0.2,0.1,0.4,0.2,0.6,0.3c22.2,7.5,67.8,18,124,4.4l0,0c12.6-3.1,36.1-14.2,47.3-19.7v161.1L583.4,212.9L583.4,212.9z"/>
</g>
</svg>
