<?xml version="1.0" encoding="UTF-8" standalone="no"?>
<svg xmlns="http://www.w3.org/2000/svg"
   xmlns:dc="http://purl.org/dc/elements/1.1/"
   xmlns:cc="http://creativecommons.org/ns#"
   xmlns:rdf="http://www.w3.org/1999/02/22-rdf-syntax-ns#"
   xmlns:xlink="http://www.w3.org/1999/xlink"
   version="1.1" width="1300" height="868">
  <metadata>
    <rdf:RDF>
      <cc:Work rdf:about="">
        <dc:format>image/svg+xml</dc:format>
        <dc:type rdf:resource="http://purl.org/dc/dcmitype/StillImage" />
        <dc:title>Flag of the city of Rockville, Marylan</dc:title>
      </cc:Work>
    </rdf:RDF>
  </metadata>
  <rect width="1300" height="868" fill="#ffffff"/>
  <path style="fill:#0062cd"
     d="m 0,665.86232 0,-202.13768 5.75,0.67014 c 4.083923,0.47596 7.213668,1.63962 10.801442,4.01606 2.778293,1.84025 7.053293,4.36517 9.5,5.61093 14.15145,7.2053 33.747473,24.11622 42.198778,36.41657 2.244057,3.26609 6.4665,8.53415 9.383206,11.70679 3.098644,3.37055 7.227672,9.6005 9.9329,14.98693 12.541264,24.97116 29.480764,43.56764 55.433674,60.85607 17.4248,11.60746 26.64861,16.38798 34.88029,18.07779 3.09084,0.63449 9.66971,2.47278 14.61971,4.08508 4.95,1.61231 11.7,3.57256 15,4.3561 41.77173,9.9182 51.61388,13.53737 70,25.74053 13.26117,8.80164 28.16767,22.61021 34.75022,32.19071 2.24406,3.26609 6.4665,8.53415 9.38321,11.70679 3.09864,3.37055 7.22767,9.6005 9.9329,14.98693 12.54126,24.97116 29.48076,43.56764 55.43367,60.85607 17.4248,11.60746 26.64861,16.38798 34.88029,18.07779 3.09084,0.63449 9.66971,2.47278 14.61971,4.08508 4.95,1.61231 11.7,3.57256 15,4.3561 27.67867,6.57197 38.72941,9.73384 49,14.02001 13.07884,5.45813 31.10697,17.81764 42.78005,29.32864 C 552.8228,849.26599 563,862.91762 563,866.30796 563,867.89334 545.25493,868 281.5,868 L 0,868 0,665.86232 z M 1026.9752,865.4349 c -0.5363,-1.4108 -0.9752,-2.91604 -0.9752,-3.34496 0,-0.42893 -1.8322,-3.61459 -4.0715,-7.07925 -2.2393,-3.46466 -4.9574,-8.54687 -6.0401,-11.29379 -3.6927,-9.36855 -13.3744,-21.91505 -27.65738,-35.84119 C 978.25146,798.14547 972.72413,793.5653 968,791.11146 c -3.575,-1.85694 -9.46402,-5.3709 -13.08671,-7.8088 -5.02143,-3.37918 -11.43779,-6.08079 -27,-11.36836 -11.24728,-3.82148 -23.65882,-7.37222 -27.6413,-7.90772 -3.9754,-0.53455 -11.25377,-2.33164 -16.17416,-3.99354 -4.92038,-1.66189 -11.34278,-3.51553 -14.27199,-4.11919 -8.16306,-1.68226 -18.53227,-5.61694 -23.15694,-8.78708 -2.29289,-1.57175 -6.43731,-4.00316 -9.20982,-5.40314 -9.62704,-4.86119 -21.01804,-13.64606 -31.64502,-24.405 -14.03107,-14.20529 -30.03465,-35.70445 -33.87833,-45.51204 -1.14383,-2.91862 -3.75176,-7.33159 -5.79539,-9.80659 -2.04363,-2.475 -5.7915,-7.425 -8.3286,-11 -6.60192,-9.30267 -23.77755,-25.62776 -34.48773,-32.77987 -16.49096,-11.01246 -41.90738,-22.17881 -50.63091,-22.24399 -1.7562,-0.0131 -4.9931,-0.50063 -7.1931,-1.08336 -2.2,-0.58273 -7.375,-1.8769 -11.5,-2.87594 -4.125,-0.99904 -11.07046,-3.00907 -15.43435,-4.46673 -4.36389,-1.45766 -10.21389,-3.11909 -13,-3.69206 -9.95804,-2.04789 -18.84063,-5.96297 -29.06241,-12.8095 -5.70868,-3.82366 -12.76978,-8.15716 -15.69133,-9.63 -6.44048,-3.24683 -23.33762,-19.45186 -29.11095,-27.91855 -2.25023,-3.3 -6.18494,-8.25 -8.7438,-11 -6.24932,-6.71613 -13.50799,-17.77809 -20.01358,-30.5 -4.86561,-9.51487 -6.62679,-11.78666 -18.77148,-24.2138 -13.67508,-13.99312 -26.59563,-23.93282 -39.72615,-30.56108 -8.8318,-4.45828 -44.92485,-16.31924 -52.66054,-17.3054 -3.69303,-0.47079 -10.7464,-2.21776 -15.67416,-3.88215 -4.92777,-1.66438 -11.3562,-3.52006 -14.28541,-4.12372 -10.23016,-2.10826 -19.02073,-5.96512 -29.3226,-12.8653 -5.70868,-3.82366 -12.76978,-8.15716 -15.69133,-9.63 -6.44048,-3.24683 -23.33762,-19.45186 -29.11095,-27.91855 -2.25023,-3.3 -6.18494,-8.25 -8.7438,-11 -6.23579,-6.70158 -13.49755,-17.7611 -20.00494,-30.46709 -4.63583,-9.05171 -6.85436,-12.0096 -16.40647,-21.87425 C 256.47059,291.88473 248.575,284.6785 245,282.14481 c -3.575,-2.53369 -8.89018,-6.53606 -11.81151,-8.89416 -2.92133,-2.3581 -8.32133,-5.80123 -12,-7.65139 -9.41841,-4.73693 -33.41493,-12.66685 -41.40308,-13.68212 -3.69303,-0.46938 -10.89303,-2.26957 -16,-4.00044 -5.10698,-1.73086 -12.34102,-3.53513 -16.07566,-4.00949 -9.328,-1.18481 -29.84079,-8.32182 -37.70975,-13.12034 -3.575,-2.18005 -8.81138,-5.38643 -11.636398,-7.1253 C 83.24763,214.35734 66.613329,199.66198 59.694659,189.5 57.447892,186.2 53.517965,181.25 50.961488,178.5 44.836768,171.91164 38.528386,162.41457 35.976671,155.94081 31.091675,143.54748 12.038747,121.00327 3.3987172,117.39323 L 0,115.97316 0,57.98658 0,0 126,0 c 125.99716,0 126,4.5740129e-5 126,2.0321186 0,4.3580901 3.24992,9.3159844 12.11045,18.4750214 7.11934,7.359179 12.99479,12.069967 25.7493,20.64514 18.30126,12.304393 27.59406,17.183845 36.02054,18.913637 3.09084,0.634489 9.66971,2.472778 14.61971,4.085087 4.95,1.612309 11.7,3.572553 15,4.356099 41.77173,9.918198 51.61388,13.537371 70,25.740523 13.26117,8.801644 28.16767,22.610214 34.75022,32.190714 2.24406,3.26609 6.4665,8.53415 9.38321,11.70679 3.09864,3.37055 7.22767,9.6005 9.9329,14.98693 12.54126,24.97116 29.48076,43.56764 55.43367,60.85607 17.4248,11.60746 26.64861,16.38798 34.88029,18.07779 3.09084,0.63449 9.66971,2.47278 14.61971,4.08508 4.95,1.61231 11.7,3.57256 15,4.3561 3.3,0.78355 9.66318,2.28295 14.1404,3.33201 4.47722,1.04906 8.59373,2.18755 9.14779,2.52999 0.55407,0.34243 4.54089,1.1046 8.8596,1.69371 11.89774,1.62295 20.20082,5.08646 33.67114,14.0454 13.54888,9.0112 31.96593,26.19839 38.92979,36.33013 2.24488,3.26609 6.468,8.53415 9.38471,11.70679 3.09864,3.37055 7.22767,9.6005 9.9329,14.98693 12.54126,24.97116 29.48076,43.56764 55.43367,60.85607 17.4248,11.60746 26.64861,16.38798 34.88029,18.07779 3.09084,0.63449 9.66971,2.47278 14.61971,4.08508 4.95,1.61231 11.7,3.57256 15,4.3561 41.77173,9.9182 51.61388,13.53737 70,25.74053 13.26117,8.80164 28.16767,22.61021 34.75022,32.19071 2.24406,3.26609 6.4665,8.53415 9.38321,11.70679 3.09864,3.37055 7.22767,9.6005 9.9329,14.98693 12.53841,24.96548 29.47539,43.56071 55.43367,60.86103 17.4474,11.6281 26.5178,16.27651 36,18.44924 6.0633,1.38933 11.154,2.63764 31.5,7.72413 4.4,1.1 11.375,2.8336 15.5,3.85244 28.3804,7.00975 38.9455,11.24128 55.5,22.22873 13.2612,8.80164 28.1677,22.61021 34.7502,32.19071 2.2441,3.26609 6.4665,8.53415 9.3832,11.70679 3.0987,3.37055 7.2277,9.6005 9.9329,14.98693 12.5309,24.95049 29.4612,43.54237 55.4337,60.87414 14.8622,9.91771 22.7298,13.9938 27.0107,13.9938 1.9643,0 1.9893,0.77811 1.9893,62 l 0,62 -136.0248,0 -136.0247,0 -0.9753,-2.5651 z M 1294,378.07797 c -0.825,-0.47367 -4.2,-1.40257 -7.5,-2.06422 -3.3,-0.66165 -9.9034,-2.50785 -14.6742,-4.10266 -4.7707,-1.59482 -11.0707,-3.39358 -14,-3.99724 -10.2301,-2.10826 -19.0207,-5.96512 -29.3226,-12.8653 -5.7086,-3.82366 -12.7697,-8.1543 -15.6913,-9.62364 -6.421,-3.22933 -27.1324,-23.18093 -33.0766,-31.86325 -2.2361,-3.26609 -6.4293,-8.50943 -9.3182,-11.65187 -3.7048,-4.02991 -7.5409,-10.2311 -13.018,-21.04426 -7.7334,-15.26772 -7.8205,-15.38717 -21.1972,-29.06192 -13.7023,-14.00758 -26.6357,-23.95544 -39.7559,-30.57849 -8.8037,-4.44405 -44.9141,-16.31785 -52.6094,-17.29898 -3.6649,-0.46726 -13.3399,-3.08255 -21.5,-5.81176 -8.1601,-2.72921 -17.5525,-5.58887 -20.8718,-6.3548 -4.4528,-1.02746 -8.82844,-3.26348 -16.68811,-8.52787 -5.85908,-3.9244 -13.04323,-8.33746 -15.96478,-9.8068 -6.42101,-3.22933 -27.13237,-23.18093 -33.07662,-31.86325 -2.23609,-3.26609 -6.42929,-8.50943 -9.31823,-11.65187 -3.7048,-4.02991 -7.54084,-10.2311 -13.01792,-21.04426 -7.7334,-15.267715 -7.82052,-15.387166 -21.19723,-29.061924 -13.70227,-14.007576 -26.63576,-23.955435 -39.75596,-30.578491 -8.80361,-4.444048 -44.91401,-16.31784 -52.60938,-17.298972 -3.66488,-0.46726 -13.33988,-3.082554 -21.5,-5.811766 C 770.17646,23.385166 760.8,20.519565 757.5,19.746375 753.73834,18.865019 748.72867,16.537091 744.07129,13.506234 736.19855,8.3829297 729,2.353958 729,0.88363766 729,0.37418415 849.89749,0 1014.5,0 l 285.5,0 0,189.5 0,189.5 -2.25,-0.0304 c -1.2375,-0.0167 -2.925,-0.41795 -3.75,-0.89162 z" />
  <path style="fill:#cd0000"
     d="m 628.19924,851.86959 c -2.8876,-1.42932 -5.56182,-3.9756 -8.13861,-7.74921 -4.28736,-6.27867 -6.45455,-8.40303 -13.21094,-12.94981 C 601.48286,827.55891 597,819.74411 597,814 c 0,-6.00815 4.45153,-13.49762 10.55241,-17.75388 6.88346,-4.80223 7.94759,-6.92708 7.94759,-15.86973 0,-6.2851 -0.32226,-7.64309 -2.27778,-9.59861 -1.95552,-1.95552 -3.31351,-2.27778 -9.59861,-2.27778 -8.94265,0 -11.0675,1.06413 -15.86973,7.94759 C 583.49762,782.54847 576.00815,787 570,787 c -5.74411,0 -13.55891,-4.48286 -17.17057,-9.84969 -4.54962,-6.76061 -6.67115,-8.9236 -12.97341,-13.22697 -13.56523,-9.26273 -12.866,-23.40053 1.68252,-34.01882 6.17186,-4.50455 7.8252,-6.15287 12.35315,-12.31555 5.18024,-7.05047 8.1701,-8.97359 13.95116,-8.97359 7.50054,0 15.24422,4.24776 19.89411,10.91282 4.81995,6.90881 6.93834,7.9718 15.88665,7.9718 6.2851,0 7.64309,-0.32226 9.59861,-2.27778 1.95552,-1.95552 2.27778,-3.31351 2.27778,-9.59861 0,-8.94265 -1.06413,-11.0675 -7.94759,-15.86973 -3.83689,-2.67679 -6.10936,-5.23052 -7.96103,-8.94634 -5.41905,-10.87462 -3.12196,-16.41422 13.83999,-33.37617 13.13736,-13.13735 18.05312,-16.37038 24.95021,-16.40941 3.27515,-0.0185 4.52501,0.64602 8,4.25358 2.26513,2.35155 5.69342,6.49982 7.61842,9.21838 1.925,2.71856 6.2763,6.87769 9.66955,9.24251 C 670.59286,668.56143 675,675.6653 675,682 c 0,6.00815 -4.45153,13.49762 -10.55241,17.75388 -6.88346,4.80223 -7.94759,6.92708 -7.94759,15.86973 0,6.2851 0.32226,7.64309 2.27778,9.59861 1.95552,1.95552 3.31351,2.27778 9.59861,2.27778 8.94265,0 11.0675,-1.06413 15.86973,-7.94759 C 688.50238,713.45153 695.99185,709 702,709 c 6.18061,0 13.56462,4.4727 17.9241,10.85713 4.30271,6.30131 6.46574,8.42277 13.22701,12.97285 12.03589,8.09971 11.56926,22.50584 -1.00713,31.09336 -6.30226,4.30337 -8.42379,6.46636 -12.97341,13.22697 C 715.55891,782.51714 707.74411,787 702,787 c -6.00815,0 -13.49762,-4.45153 -17.75388,-10.55241 -4.80223,-6.88346 -6.92708,-7.94759 -15.86973,-7.94759 -6.2851,0 -7.64309,0.32226 -9.59861,2.27778 -1.95552,1.95552 -2.27778,3.31351 -2.27778,9.59861 0,8.94265 1.06413,11.0675 7.94759,15.86973 C 670.54847,800.50238 675,807.99185 675,814 c 0,6.18061 -4.4727,13.56462 -10.85713,17.9241 -6.30131,4.30271 -8.42277,6.46574 -12.97285,13.22701 -5.54229,8.23565 -14.5709,10.87633 -22.97078,6.71848 z m -248,-176 c -2.8876,-1.42932 -5.56182,-3.9756 -8.13861,-7.74921 -4.28736,-6.27867 -6.45455,-8.40303 -13.21094,-12.94981 C 353.48286,651.55891 349,643.74411 349,638 c 0,-6.00815 4.45153,-13.49762 10.55241,-17.75388 6.88346,-4.80223 7.94759,-6.92708 7.94759,-15.86973 0,-6.2851 -0.32226,-7.64309 -2.27778,-9.59861 -1.95552,-1.95552 -3.31351,-2.27778 -9.59861,-2.27778 -8.94265,0 -11.0675,1.06413 -15.86973,7.94759 C 335.49762,606.54847 328.00815,611 322,611 c -5.74411,0 -13.55891,-4.48286 -17.17057,-9.84969 -4.55239,-6.76473 -6.67116,-8.92362 -12.99659,-13.24271 -7.16458,-4.89207 -11.40934,-12.57283 -10.5381,-19.06838 0.62982,-4.69567 6.82817,-11.76434 14.82917,-16.91135 2.57622,-1.65727 6.19718,-5.34405 8.17651,-8.32514 C 308.34178,537.51601 315.88054,533 322,533 c 6.00815,0 13.49762,4.45153 17.75388,10.55241 4.80223,6.88346 6.92708,7.94759 15.86973,7.94759 6.2851,0 7.64309,-0.32226 9.59861,-2.27778 1.95552,-1.95552 2.27778,-3.31351 2.27778,-9.59861 0,-8.94265 -1.06413,-11.0675 -7.94759,-15.86973 -6.09547,-4.25249 -10.56711,-11.76869 -10.53045,-17.70022 0.0458,-7.40519 6.10469,-16.35965 14.87959,-21.99048 2.80169,-1.79784 6.34508,-5.36721 8.39887,-8.46045 C 376.42932,469.38417 383.88359,465 390.32792,465 c 3.32454,0 4.57436,0.6635 8.05366,4.27554 2.26513,2.35155 5.69342,6.49982 7.61842,9.21838 1.925,2.71856 6.2763,6.87769 9.66955,9.24251 C 422.59286,492.56143 427,499.6653 427,506 c 0,6.00815 -4.45153,13.49762 -10.55241,17.75388 -6.88346,4.80223 -7.94759,6.92708 -7.94759,15.86973 0,6.2851 0.32226,7.64309 2.27778,9.59861 1.95552,1.95552 3.31351,2.27778 9.59861,2.27778 8.94265,0 11.0675,-1.06413 15.86973,-7.94759 C 440.50238,537.45153 447.99185,533 454,533 c 6.18061,0 13.56462,4.4727 17.9241,10.85713 4.30271,6.30131 6.46574,8.42277 13.22701,12.97285 12.03589,8.09971 11.56926,22.50584 -1.00713,31.09336 -6.30226,4.30337 -8.42379,6.46636 -12.97341,13.22697 C 467.55891,606.51714 459.74411,611 454,611 c -6.00815,0 -13.49762,-4.45153 -17.75388,-10.55241 -4.80223,-6.88346 -6.92708,-7.94759 -15.86973,-7.94759 -6.2851,0 -7.64309,0.32226 -9.59861,2.27778 -1.95552,1.95552 -2.27778,3.31351 -2.27778,9.59861 0,8.94265 1.06413,11.0675 7.94759,15.86973 C 422.54847,624.50238 427,631.99185 427,638 c 0,6.18061 -4.4727,13.56462 -10.85713,17.9241 -6.30131,4.30271 -8.42277,6.46574 -12.97285,13.22701 -5.54229,8.23565 -14.5709,10.87633 -22.97078,6.71848 z M 1148.2138,571.87681 c -2.6605,-1.31692 -5.4661,-3.87678 -7.3972,-6.74921 -4.3957,-6.53853 -7.5564,-9.75212 -13.0734,-13.29237 -7.8655,-5.04732 -12.8496,-16.01254 -10.777,-23.70983 0.7822,-2.90477 3.1503,-5.86534 9.461,-11.82777 9.1078,-8.60531 10.3759,-11.27348 9.2714,-19.50772 -0.8787,-6.55146 -3.4109,-8.28991 -12.075,-8.28991 -8.9426,0 -11.0675,1.06413 -15.8697,7.94759 C 1103.4976,502.54847 1096.0081,507 1090,507 c -5.7441,0 -13.5589,-4.48286 -17.1706,-9.84969 -4.5524,-6.76473 -6.6711,-8.92362 -12.9966,-13.24271 -7.1645,-4.89207 -11.4093,-12.57283 -10.5381,-19.06838 0.6299,-4.69567 6.8282,-11.76434 14.8292,-16.91135 2.5762,-1.65727 6.1972,-5.34405 8.1765,-8.32514 C 1076.3418,433.51601 1083.8805,429 1090,429 c 6.0081,0 13.4976,4.45153 17.7539,10.55241 4.8022,6.88346 6.9271,7.94759 15.8697,7.94759 6.2851,0 7.6431,-0.32226 9.5986,-2.27778 1.9555,-1.95552 2.2778,-3.31351 2.2778,-9.59861 0,-8.94265 -1.0641,-11.0675 -7.9476,-15.86973 -3.8369,-2.67679 -6.1093,-5.23052 -7.961,-8.94634 -5.4191,-10.87462 -3.122,-16.41422 13.84,-33.37617 13.1373,-13.13735 18.0531,-16.37038 24.9502,-16.40941 3.2751,-0.0185 4.525,0.64602 8,4.25358 2.2651,2.35155 5.6934,6.49982 7.6184,9.21838 1.925,2.71856 6.2763,6.87769 9.6696,9.24251 6.9233,4.825 11.3304,11.92887 11.3304,18.26357 0,6.00815 -4.4515,13.49762 -10.5524,17.75388 -6.8835,4.80223 -7.9476,6.92708 -7.9476,15.86973 0,6.2851 0.3223,7.64309 2.2778,9.59861 1.9555,1.95552 3.3135,2.27778 9.5986,2.27778 8.9426,0 11.0675,-1.06413 15.8697,-7.94759 C 1208.5024,433.45153 1215.9919,429 1222,429 c 6.1806,0 13.5646,4.4727 17.9241,10.85713 4.3027,6.30131 6.4657,8.42277 13.227,12.97285 12.0359,8.09971 11.5693,22.50584 -1.0071,31.09336 -6.3023,4.30337 -8.4238,6.46636 -12.9734,13.22697 C 1235.5589,502.51714 1227.7441,507 1222,507 c -6.0081,0 -13.4976,-4.45153 -17.7539,-10.55241 -4.8022,-6.88346 -6.9271,-7.94759 -15.8697,-7.94759 -6.2851,0 -7.6431,0.32226 -9.5986,2.27778 -1.9555,1.95552 -2.2778,3.31351 -2.2778,9.59861 0,8.94265 1.0641,11.0675 7.9476,15.86973 C 1190.5485,520.50238 1195,527.99185 1195,534 c 0,6.18061 -4.4727,13.56462 -10.8571,17.9241 -6.3013,4.30271 -8.4228,6.46574 -12.9729,13.22701 -5.5383,8.2298 -14.5711,10.87622 -22.9562,6.7257 z M 136.19924,503.86959 c -2.8876,-1.42932 -5.56182,-3.9756 -8.13861,-7.74921 -4.29052,-6.28331 -6.4528,-8.40169 -13.23519,-12.9665 -8.76243,-5.89745 -13.11818,-20.20446 -8.19205,-26.90782 1.10991,-1.51033 4.76294,-4.77106 8.11786,-7.24606 3.35492,-2.475 6.69585,-5.58062 7.4243,-6.90139 0.75998,-1.37793 1.32445,-5.52149 1.32445,-9.72222 0,-6.2851 -0.32226,-7.64309 -2.27778,-9.59861 -1.95552,-1.95552 -3.31351,-2.27778 -9.59861,-2.27778 -8.94265,0 -11.0675,1.06413 -15.86973,7.94759 C 91.497618,434.54847 84.00815,439 78,439 72.255889,439 64.441092,434.51714 60.829434,429.15031 56.279812,422.3897 54.158282,420.22671 47.856022,415.92334 35.279627,407.33582 34.813002,392.92969 46.848885,384.82998 53.610157,380.2799 55.773186,378.15844 60.0759,371.85713 64.435377,365.4727 71.819388,361 78,361 c 6.00815,0 13.497618,4.45153 17.75388,10.55241 4.80223,6.88346 6.92708,7.94759 15.86973,7.94759 6.2851,0 7.64309,-0.32226 9.59861,-2.27778 1.95552,-1.95552 2.27778,-3.31351 2.27778,-9.59861 0,-8.94265 -1.06413,-11.0675 -7.94759,-15.86973 C 109.45153,347.49762 105,340.00815 105,334 c 0,-5.74411 4.48286,-13.55891 9.84969,-17.17057 6.76041,-4.54948 8.9236,-6.67115 13.22621,-12.9723 C 132.52582,297.34025 139.82225,293 146.32792,293 c 3.32454,0 4.57436,0.6635 8.05366,4.27554 2.26513,2.35155 5.69342,6.49982 7.61842,9.21838 1.925,2.71856 6.2763,6.87769 9.66955,9.24251 C 178.59286,320.56143 183,327.6653 183,334 c 0,6.00815 -4.45153,13.49762 -10.55241,17.75388 -6.88346,4.80223 -7.94759,6.92708 -7.94759,15.86973 0,6.2851 0.32226,7.64309 2.27778,9.59861 1.95552,1.95552 3.31351,2.27778 9.59861,2.27778 8.94265,0 11.0675,-1.06413 15.86973,-7.94759 C 196.50238,365.45153 203.99185,361 210,361 c 6.18061,0 13.56462,4.4727 17.9241,10.85713 4.30271,6.30131 6.46574,8.42277 13.22701,12.97285 12.03589,8.09971 11.56926,22.50584 -1.00713,31.09336 -6.30226,4.30337 -8.42379,6.46636 -12.97341,13.22697 C 223.55891,434.51714 215.74411,439 210,439 c -6.00815,0 -13.49762,-4.45153 -17.75388,-10.55241 -4.80223,-6.88346 -6.92708,-7.94759 -15.86973,-7.94759 -6.2851,0 -7.64309,0.32226 -9.59861,2.27778 -1.95552,1.95552 -2.27778,3.31351 -2.27778,9.59861 0,8.94265 1.06413,11.0675 7.94759,15.86973 C 178.54847,452.50238 183,459.99185 183,466 c 0,6.18061 -4.4727,13.56462 -10.85713,17.9241 -6.30131,4.30271 -8.42277,6.46574 -12.97285,13.22701 -5.54229,8.23565 -14.5709,10.87633 -22.97078,6.71848 z m 764,-108 c -2.8876,-1.42932 -5.56182,-3.9756 -8.13861,-7.74921 -4.28736,-6.27867 -6.45455,-8.40303 -13.21094,-12.94981 C 873.48286,371.55891 869,363.74411 869,358 c 0,-6.00815 4.45153,-13.49762 10.55241,-17.75388 6.88346,-4.80223 7.94759,-6.92708 7.94759,-15.86973 0,-6.2851 -0.32226,-7.64309 -2.27778,-9.59861 -1.95552,-1.95552 -3.31351,-2.27778 -9.59861,-2.27778 -8.94265,0 -11.0675,1.06413 -15.86973,7.94759 C 855.49762,326.54847 848.00815,331 842,331 c -5.74411,0 -13.55891,-4.48286 -17.17057,-9.84969 -4.55239,-6.76473 -6.67116,-8.92362 -12.99659,-13.24271 -7.16458,-4.89207 -11.40934,-12.57283 -10.5381,-19.06838 0.62982,-4.69567 6.82817,-11.76434 14.82917,-16.91135 2.57622,-1.65727 6.19718,-5.34405 8.17651,-8.32514 C 828.34178,257.51601 835.88054,253 842,253 c 6.00815,0 13.49762,4.45153 17.75388,10.55241 4.80223,6.88346 6.92708,7.94759 15.86973,7.94759 6.2851,0 7.64309,-0.32226 9.59861,-2.27778 1.95552,-1.95552 2.27778,-3.31351 2.27778,-9.59861 0,-8.94265 -1.06413,-11.0675 -7.94759,-15.86973 -6.09547,-4.25249 -10.56711,-11.76869 -10.53045,-17.70022 0.0458,-7.40519 6.10469,-16.35965 14.87959,-21.99048 2.80169,-1.79784 6.34508,-5.36721 8.39887,-8.46045 C 896.42932,189.38417 903.88359,185 910.32792,185 c 3.32454,0 4.57436,0.6635 8.05366,4.27554 2.26513,2.35155 5.69342,6.49982 7.61842,9.21838 1.925,2.71856 6.2763,6.87769 9.66955,9.24251 C 942.59286,212.56143 947,219.6653 947,226 c 0,6.00815 -4.45153,13.49762 -10.55241,17.75388 -6.88346,4.80223 -7.94759,6.92708 -7.94759,15.86973 0,6.2851 0.32226,7.64309 2.27778,9.59861 1.95552,1.95552 3.31351,2.27778 9.59861,2.27778 8.94265,0 11.0675,-1.06413 15.86973,-7.94759 C 960.50238,257.45153 967.99185,253 974,253 c 6.18061,0 13.56462,4.4727 17.9241,10.85713 4.30271,6.30131 6.46574,8.42277 13.227,12.97285 12.0359,8.09971 11.5693,22.50584 -1.0071,31.09336 -6.30228,4.30337 -8.42381,6.46636 -12.97343,13.22697 C 987.55891,326.51714 979.74411,331 974,331 c -6.00815,0 -13.49762,-4.45153 -17.75388,-10.55241 -4.80223,-6.88346 -6.92708,-7.94759 -15.86973,-7.94759 -6.2851,0 -7.64309,0.32226 -9.59861,2.27778 -1.95552,1.95552 -2.27778,3.31351 -2.27778,9.59861 0,8.94265 1.06413,11.0675 7.94759,15.86973 C 942.54847,344.50238 947,351.99185 947,358 c 0,6.18061 -4.4727,13.56462 -10.85713,17.9241 -6.30131,4.30271 -8.42277,6.46574 -12.97285,13.22701 -5.54229,8.23565 -14.5709,10.87633 -22.97078,6.71848 z m -244,-172 c -2.8876,-1.42932 -5.56182,-3.9756 -8.13861,-7.74921 -4.28736,-6.27867 -6.45455,-8.40303 -13.21094,-12.94981 C 629.48286,199.55891 625,191.74411 625,186 c 0,-6.00815 4.45153,-13.49762 10.55241,-17.75388 6.88346,-4.80223 7.94759,-6.92708 7.94759,-15.86973 0,-6.2851 -0.32226,-7.64309 -2.27778,-9.59861 -1.95552,-1.95552 -3.31351,-2.27778 -9.59861,-2.27778 -8.94265,0 -11.0675,1.06413 -15.86973,7.94759 C 611.49762,154.54847 604.00815,159 598,159 c -5.74411,0 -13.55891,-4.48286 -17.17057,-9.84969 -4.54962,-6.76061 -6.67115,-8.9236 -12.97341,-13.22697 -12.57639,-8.58752 -13.04302,-22.99365 -1.00713,-31.09336 6.76127,-4.55008 8.9243,-6.671544 13.22701,-12.972846 C 584.43538,85.472704 591.81939,81 598,81 c 6.00815,0 13.49762,4.45153 17.75388,10.552409 4.80223,6.883459 6.92708,7.947591 15.86973,7.947591 6.2851,0 7.64309,-0.322256 9.59861,-2.277778 C 643.17774,95.2667 643.5,93.908706 643.5,87.62361 643.5,78.680964 642.43587,76.556107 635.55241,71.75388 629.45153,67.497618 625,60.00815 625,54 c 0,-6.119458 4.51601,-13.65822 10.60273,-17.699576 3.0526,-2.026813 6.66127,-5.595095 8.40233,-8.308307 1.67845,-2.615643 5.48702,-7.058904 8.46348,-9.873915 C 657.05809,13.777588 658.46725,13 661.7438,13 c 5.98657,0 13.75197,4.389036 17.42677,9.849686 4.54948,6.760413 6.67115,8.923605 12.9723,13.226214 C 698.5273,40.435377 703,47.819388 703,54 c 0,6.00815 -4.45153,13.497618 -10.55241,17.75388 -6.88346,4.802227 -7.94759,6.927084 -7.94759,15.86973 0,6.285096 0.32226,7.64309 2.27778,9.598612 1.95552,1.955522 3.31351,2.277778 9.59861,2.277778 8.94265,0 11.0675,-1.064132 15.86973,-7.947591 C 716.50238,85.45153 723.99185,81 730,81 c 6.18061,0 13.56462,4.472704 17.9241,10.857134 4.30271,6.301302 6.46574,8.422766 13.22701,12.972846 12.03589,8.09971 11.56926,22.50584 -1.00713,31.09336 -6.30226,4.30337 -8.42379,6.46636 -12.97341,13.22697 C 743.55891,154.51714 735.74411,159 730,159 c -6.00815,0 -13.49762,-4.45153 -17.75388,-10.55241 -4.80223,-6.88346 -6.92708,-7.94759 -15.86973,-7.94759 -6.2851,0 -7.64309,0.32226 -9.59861,2.27778 -1.95552,1.95552 -2.27778,3.31351 -2.27778,9.59861 0,8.94265 1.06413,11.0675 7.94759,15.86973 C 698.54847,172.50238 703,179.99185 703,186 c 0,6.18061 -4.4727,13.56462 -10.85713,17.9241 -6.30131,4.30271 -8.42277,6.46574 -12.97285,13.22701 -5.54229,8.23565 -14.5709,10.87633 -22.97078,6.71848 z" />
</svg>