<?xml version="1.0" encoding="UTF-8" standalone="no"?>
<!-- Created with Inkscape (http://www.inkscape.org/) -->
<svg
   xmlns:dc="http://purl.org/dc/elements/1.1/"
   xmlns:cc="http://web.resource.org/cc/"
   xmlns:rdf="http://www.w3.org/1999/02/22-rdf-syntax-ns#"
   xmlns:svg="http://www.w3.org/2000/svg"
   xmlns="http://www.w3.org/2000/svg"
   xmlns:sodipodi="http://sodipodi.sourceforge.net/DTD/sodipodi-0.dtd"
   xmlns:inkscape="http://www.inkscape.org/namespaces/inkscape"
   width="900"
   height="540"
   id="svg2"
   sodipodi:version="0.32"
   inkscape:version="0.46dev+devel"
   version="1.0"
   sodipodi:docname="Flag of Mesa, Arizona.svg"
   inkscape:output_extension="org.inkscape.output.svg.inkscape">
  <defs
     id="defs4" />
  <sodipodi:namedview
     id="base"
     pagecolor="#ffffff"
     bordercolor="#666666"
     borderopacity="1.0"
     gridtolerance="10000"
     guidetolerance="10"
     objecttolerance="10"
     inkscape:pageopacity="0.0"
     inkscape:pageshadow="2"
     inkscape:zoom="0.23888889"
     inkscape:cx="450"
     inkscape:cy="270"
     inkscape:document-units="px"
     inkscape:current-layer="layer1"
     width="900px"
     height="540px"
     showguides="true"
     inkscape:guide-bbox="true"
     inkscape:window-width="1024"
     inkscape:window-height="712"
     inkscape:window-x="-4"
     inkscape:window-y="-4" />
  <metadata
     id="metadata7">
    <rdf:RDF>
      <cc:Work
         rdf:about="">
        <dc:format>image/svg+xml</dc:format>
        <dc:type
           rdf:resource="http://purl.org/dc/dcmitype/StillImage" />
      </cc:Work>
    </rdf:RDF>
  </metadata>
  <g
     inkscape:label="Layer 1"
     inkscape:groupmode="layer"
     id="layer1">
    <rect
       style="opacity:1;fill:#0063ae;fill-opacity:1;stroke:none;stroke-width:5;stroke-linecap:round;stroke-linejoin:round;stroke-miterlimit:4;stroke-dasharray:none;stroke-opacity:1"
       id="rect3306"
       width="900"
       height="540"
       x="0"
       y="0" />
    <path
       style="opacity:1;fill:#ffd419;fill-opacity:1;stroke:none;stroke-width:5;stroke-linecap:round;stroke-linejoin:round;stroke-miterlimit:4;stroke-dasharray:none;stroke-opacity:1"
       d="M 450 8.34375 L 436.03125 147.59375 L 463.96875 147.59375 L 450 8.34375 z M 334.84375 20.71875 L 385.875 164.78125 L 411.21875 153.0625 L 334.84375 20.71875 z M 565.15625 20.71875 L 488.78125 153.0625 L 514.125 164.78125 L 565.15625 20.71875 z M 228.34375 50.5625 L 353.125 193.875 L 372.71875 174.03125 L 228.34375 50.5625 z M 671.65625 50.5625 L 527.28125 174.03125 L 546.875 193.875 L 671.65625 50.5625 z M 146.375 132.78125 L 332.65625 232.375 L 344.15625 206.9375 L 146.375 132.78125 z M 753.625 132.78125 L 555.84375 206.9375 L 567.34375 232.375 L 753.625 132.78125 z M 450 153.8125 C 385.81395 153.8125 333.71875 205.9077 333.71875 270.09375 C 333.71875 332.04199 382.25626 382.72869 443.34375 386.1875 C 443.34375 379.76284 443.34375 345.21844 443.34375 340.5625 C 443.34375 335.47284 441.97179 333.3067 437.75 331.5625 C 428.2818 326.91134 418.09375 318.57082 418.09375 308.375 L 418.09375 287.75 C 418.09375 287.75 418.04109 274.34376 425.84375 274.34375 C 432.77431 274.34375 434.78125 284.18749 434.78125 284.1875 L 434.78125 298.875 C 434.78125 298.875 434.66668 301.62499 437.75 301.625 C 440.83331 301.625 441.28127 298.37499 441.28125 298.375 C 441.28125 298.375 441.28127 259.23982 441.28125 238.53125 C 441.28125 227.84242 445.41182 225.81251 449.96875 225.8125 C 462.91867 225.8125 461.75001 238.75001 461.75 238.75 L 461.75 316.4375 C 461.75 316.4375 460.81168 323.15625 464.96875 323.15625 C 469.12583 323.15625 469.06251 319.34376 469.0625 319.34375 C 469.0625 319.34375 472.27179 280.707 472.5625 271.875 C 472.84347 263.33832 477.3124 254.59375 482.25 254.59375 C 491.26927 254.59375 490.40625 263.93749 490.40625 263.9375 C 490.40625 263.9375 490.40625 309.58758 490.40625 320.6875 C 490.40625 331.78743 484.70551 344.39376 475.25 348.09375 C 465.79451 351.79372 464.96876 358.37499 464.96875 358.375 L 464.96875 385.40625 C 522.09613 378.05725 566.28125 329.21031 566.28125 270.09375 C 566.28125 205.9077 514.18603 153.81251 450 153.8125 z M 115.5 221 L 326.84375 266.4375 L 330.8125 238.8125 L 115.5 221 z M 784.5 221 L 569.1875 238.8125 L 573.15625 266.4375 L 784.5 221 z M 194.71875 276.28125 C 180.0311 344.16259 98.41027 396.15625 0 396.15625 L 0 540 L 900 540 L 900 396.15625 C 801.58973 396.15625 719.96891 344.16259 705.28125 276.28125 L 577.75 276.28125 C 574.47829 343.97826 518.50318 397.90624 450 397.90625 C 381.49683 397.90625 325.52172 343.97827 322.25 276.28125 L 194.71875 276.28125 z "
       id="path3297" />
  </g>
</svg>
