<?xml version="1.0" encoding="utf-8"?>
<!-- Generator: Adobe Illustrator 12.0.0, SVG Export Plug-In . SVG Version: 6.00 Build 51448)  -->
<!DOCTYPE svg PUBLIC "-//W3C//DTD SVG 1.1//EN" "http://www.w3.org/Graphics/SVG/1.1/DTD/svg11.dtd" [
	<!ENTITY ns_svg "http://www.w3.org/2000/svg">
	<!ENTITY ns_xlink "http://www.w3.org/1999/xlink">
]>
<svg  version="1.1" xmlns="&ns_svg;" xmlns:xlink="&ns_xlink;" width="374" height="216" viewBox="0 0 374 216"
	 overflow="visible" enable-background="new 0 0 374 216" xml:space="preserve">
<g id="Layer_2">
	<rect fill="#FFFFFF" width="374" height="216"/>
</g>
<g id="Layer_1">
	<path fill="#999999" d="M223.88,66.103l-1.563,0.388l-4.871,24.816l-7.26-22.068l-13.912,3.455l0.104,0.238l-1.723,0.428
		l16.77,38.335l11.847-2.942l0.077-0.283l1.54-0.383l12.531-45.61l-13.487,3.349L223.88,66.103z M115.24,81.313
		c-2.85-2.417-6.967-2.957-12.351-1.62L78.16,85.833l0.014,0.261l-1.631,0.405l3.14,57.91l14.915-3.704l-0.014-0.261l1.631-0.405
		l-1.149-21.206l6.521-1.619c1.833-0.455,3.495-1.042,5.023-1.732c4.275-1.598,7.528-3.988,9.723-7.2
		c2.747-4.021,3.963-8.956,3.646-14.806C119.668,87.784,118.089,83.729,115.24,81.313z M102.444,103.29
		c-0.629,0.85-1.56,1.569-2.77,2.167c-0.5,0.172-1.023,0.332-1.593,0.474l-3.667,0.91l-0.686-12.656l2.629-0.653
		c2.796-0.694,4.735-0.534,5.817,0.478c1.082,1.012,1.672,2.427,1.771,4.244C104.046,100.123,103.546,101.802,102.444,103.29z
		 M147.878,83.762c-0.761,0.189-1.453,0.479-2.106,0.826c-1.66,0.506-3.059,1.391-4.169,2.697c-0.678,0.797-1.327,1.888-1.95,3.251
		l-0.202-3.732l-12.521,3.108l0.015,0.261l-1.632,0.405l2.274,41.935l13.44-3.337l-0.014-0.261l1.632-0.405l-0.762-14.051
		c-0.364-6.709,0.078-11.458,1.325-14.248c0.595-1.352,1.401-2.334,2.41-2.965c0.912-0.203,2.146-0.117,3.716,0.268l0.262-0.931
		c0.424,0.063,0.869,0.146,1.355,0.265l3.519-12.491C152.046,83.471,149.849,83.272,147.878,83.762z M192.108,80.178
		c-3.825-3.982-9.22-5.109-16.188-3.379c-1.652,0.41-3.194,0.961-4.646,1.63c-4.646,1.755-8.372,4.694-11.147,8.855
		c-3.357,5.033-4.862,10.747-4.516,17.14c0.372,6.868,2.792,11.893,7.258,15.076c3.636,2.563,8.25,3.151,13.842,1.763
		c1.724-0.429,3.326-1,4.828-1.688c4.712-1.783,8.45-4.707,11.181-8.81c3.325-4.999,4.813-10.722,4.464-17.168
		C196.874,87.861,195.182,83.389,192.108,80.178z M180.746,106.577c-0.783,1.428-1.755,2.467-2.91,3.136
		c-0.015,0.003-0.028,0.009-0.042,0.013c-1.892,0.47-3.512-0.034-4.86-1.513s-2.123-4.086-2.325-7.822
		c-0.2-3.684,0.281-6.583,1.446-8.698c0.807-1.468,1.806-2.533,2.986-3.215c0.016-0.004,0.03-0.01,0.045-0.014
		c1.826-0.453,3.407,0.055,4.744,1.522c1.336,1.469,2.103,4.018,2.299,7.648C182.34,101.529,181.879,104.509,180.746,106.577z
		 M279.059,73.266c-0.312-5.735-2.003-10.208-5.077-13.418c-3.823-3.983-9.22-5.11-16.187-3.38c-1.652,0.41-3.194,0.961-4.646,1.63
		c-4.646,1.755-8.372,4.694-11.148,8.855c-3.357,5.033-4.862,10.747-4.516,17.14c0.373,6.868,2.793,11.894,7.26,15.076
		c3.636,2.563,8.251,3.151,13.841,1.763c1.725-0.429,3.327-1,4.829-1.688c4.711-1.784,8.45-4.706,11.179-8.81
		C277.919,85.435,279.408,79.712,279.059,73.266z M262.62,86.246c-0.783,1.428-1.756,2.467-2.911,3.135
		c-0.013,0.004-0.027,0.01-0.041,0.014c-1.894,0.47-3.513-0.034-4.861-1.513c-1.347-1.479-2.122-4.086-2.324-7.822
		c-0.199-3.684,0.282-6.583,1.445-8.698c0.809-1.468,1.806-2.533,2.986-3.215c0.016-0.004,0.03-0.01,0.046-0.014
		c1.826-0.453,3.407,0.055,4.743,1.522c1.336,1.469,2.103,4.018,2.3,7.648C264.214,81.198,263.753,84.178,262.62,86.246z"/>
	<path d="M227.438,61.103l-1.563,0.388l-4.87,24.816l-7.261-22.068l-13.912,3.455l0.104,0.238l-1.721,0.428l16.77,38.335
		l11.846-2.942l0.077-0.283l1.54-0.383l12.532-45.61l-13.487,3.349L227.438,61.103z M118.797,76.313
		c-2.85-2.417-6.966-2.957-12.351-1.62l-24.729,6.141l0.014,0.261L80.1,81.499l3.14,57.91l14.915-3.704l-0.014-0.261l1.631-0.405
		l-1.149-21.206l6.521-1.619c1.833-0.455,3.495-1.042,5.023-1.732c4.275-1.598,7.528-3.988,9.723-7.2
		c2.747-4.021,3.963-8.956,3.646-14.806C123.226,82.784,121.647,78.729,118.797,76.313z M106.001,98.29
		c-0.629,0.85-1.56,1.569-2.77,2.167c-0.5,0.172-1.024,0.332-1.593,0.474l-3.667,0.91l-0.687-12.656l2.629-0.653
		c2.796-0.694,4.735-0.534,5.817,0.478c1.082,1.012,1.672,2.427,1.771,4.244C107.604,95.123,107.104,96.802,106.001,98.29z
		 M151.436,78.762c-0.761,0.189-1.453,0.479-2.106,0.826c-1.66,0.506-3.059,1.391-4.169,2.697c-0.678,0.797-1.327,1.888-1.95,3.251
		l-0.202-3.732l-12.521,3.108l0.014,0.261l-1.632,0.405l2.274,41.935l13.441-3.337l-0.015-0.261l1.632-0.405l-0.762-14.051
		c-0.364-6.709,0.078-11.458,1.325-14.248c0.595-1.352,1.401-2.334,2.41-2.965c0.912-0.203,2.147-0.117,3.716,0.268l0.262-0.931
		c0.424,0.063,0.869,0.146,1.355,0.265l3.519-12.491C155.604,78.471,153.407,78.272,151.436,78.762z M195.666,75.178
		c-3.825-3.982-9.22-5.109-16.188-3.379c-1.652,0.41-3.194,0.961-4.646,1.63c-4.646,1.755-8.372,4.694-11.147,8.855
		c-3.357,5.033-4.862,10.747-4.516,17.14c0.372,6.868,2.792,11.893,7.258,15.076c3.636,2.563,8.25,3.151,13.842,1.763
		c1.725-0.429,3.326-1,4.828-1.688c4.713-1.783,8.45-4.707,11.181-8.81c3.325-4.999,4.813-10.722,4.464-17.168
		C200.432,82.861,198.739,78.389,195.666,75.178z M184.303,101.577c-0.782,1.428-1.755,2.467-2.91,3.136
		c-0.015,0.003-0.028,0.009-0.042,0.013c-1.892,0.47-3.512-0.034-4.86-1.513s-2.123-4.086-2.325-7.822
		c-0.2-3.684,0.281-6.583,1.446-8.698c0.807-1.468,1.806-2.533,2.986-3.215c0.016-0.004,0.03-0.01,0.045-0.014
		c1.827-0.453,3.407,0.055,4.744,1.522c1.336,1.469,2.103,4.018,2.299,7.648C185.898,96.529,185.437,99.509,184.303,101.577z
		 M282.617,68.266c-0.312-5.735-2.003-10.208-5.077-13.418c-3.825-3.983-9.221-5.11-16.188-3.38c-1.651,0.41-3.194,0.961-4.645,1.63
		c-4.647,1.755-8.374,4.694-11.148,8.855c-3.357,5.033-4.863,10.747-4.516,17.14c0.372,6.868,2.792,11.894,7.258,15.076
		c3.637,2.563,8.251,3.151,13.843,1.763c1.724-0.429,3.326-1,4.828-1.688c4.713-1.784,8.449-4.706,11.18-8.81
		C281.478,80.435,282.967,74.712,282.617,68.266z M266.178,81.246c-0.783,1.428-1.756,2.467-2.91,3.135
		c-0.015,0.004-0.028,0.01-0.043,0.014c-1.892,0.47-3.512-0.034-4.859-1.513c-1.349-1.479-2.122-4.086-2.324-7.822
		c-0.201-3.684,0.28-6.583,1.445-8.698c0.808-1.468,1.806-2.533,2.985-3.215c0.017-0.004,0.029-0.01,0.046-0.014
		c1.826-0.453,3.408,0.055,4.744,1.522c1.336,1.469,2.102,4.018,2.298,7.648C267.772,76.198,267.311,79.178,266.178,81.246z"/>
	<linearGradient id="XMLID_4_" gradientUnits="userSpaceOnUse" x1="0" y1="144.0498" x2="282.666" y2="144.0498">
		<stop  offset="0.0041" style="stop-color:#391665"/>
		<stop  offset="0.0542" style="stop-color:#371B69"/>
		<stop  offset="0.1128" style="stop-color:#302976"/>
		<stop  offset="0.1756" style="stop-color:#24418C"/>
		<stop  offset="0.2409" style="stop-color:#1461AA"/>
		<stop  offset="0.3058" style="stop-color:#0089CE"/>
		<stop  offset="0.5248" style="stop-color:#4CB72D"/>
		<stop  offset="0.686" style="stop-color:#DAD908"/>
		<stop  offset="0.7975" style="stop-color:#E88D0C"/>
		<stop  offset="0.8013" style="stop-color:#E9870C"/>
		<stop  offset="0.8324" style="stop-color:#F05E08"/>
		<stop  offset="0.8642" style="stop-color:#F53C05"/>
		<stop  offset="0.8965" style="stop-color:#F92203"/>
		<stop  offset="0.9295" style="stop-color:#FD0F01"/>
		<stop  offset="0.9634" style="stop-color:#FE0400"/>
		<stop  offset="1" style="stop-color:#FF0000"/>
	</linearGradient>
	<polygon fill="url(#XMLID_4_)" points="0,171.164 0,185.157 282.666,116.936 282.666,102.942 	"/>
</g>
</svg>
