<?xml version="1.0" encoding="UTF-8" standalone="no"?>
<svg xmlns="http://www.w3.org/2000/svg" width="1050" height="700">
<rect fill="#bf0a30" width="1050" height="700"/>
<g transform="scale(0.71794872,0.71794872)">
<rect fill="#002868" width="525" height="525"/>
<g fill="#ffffff">
<path d="M0,0H53L525,472V525H472L0,53"/>
<path d="M525,0H472L0,472V525H53L525,53"/>
<rect y="192.5" width="525" height="140"/>
<rect x="192.5" width="140" height="525"/></g>
<g fill="#bf0a30">
<rect y="227.5" width="528" height="70"/>
<rect x="227.5" width="70" height="528"/></g></g>
<path d="M79.6765,519.825H96.5955V572.647H126.302V585.435H79.6765Z
M136.981,519.825H153.9V585.435H136.981Z
M204.965,538.282
C204.965,533.52,201.855,531.338,196.835,531.338H187.474V545.225H196.835
C201.884,545.225,204.965,543.097,204.965,538.282Z
M207.646,565.264
C207.646,559.202,203.832,556.739,197.406,556.739H187.474V573.921H197.406
C202.684,573.921,207.646,572.19,207.646,565.264Z
M221.885,537.183
C221.883,544.037,218.401,548.316,213.138,550.323
C220.034,552.324,224.564,558.047,224.564,566.626
C224.564,581.673,212.312,585.435,198.636,585.435H170.555V519.825H195.957
C216.699,519.825,221.883,526.766,221.885,537.183Z
M239.11,519.825H284.77V532.613H256.03V544.83H283.055V557.618H256.03V572.647
H285.736V585.435H239.11Z
M334.604,540.435
C334.604,533.755,330.631,532.085,324.672,532.085H317.552V548.916H324.672
C330.63,548.918,334.604,547.22,334.604,540.435Z
M351.522,537.93
C351.522,547.412,346.669,552.337,338.91,554.761
C341.224,555.289,343.297,556.482,345.128,558.343
C346.959,560.203,348.813,563.023,350.688,566.802L359.872,585.435H341.854
L333.856,569.131
C331.612,564.561,329.251,560.606,322.343,560.606H317.552V585.435H300.635
V519.825H326.473
C346.512,519.825,351.522,527.067,351.522,537.93Z
M362.069,519.825H422.538V532.613H400.785V585.435H383.866V532.613H362.069Z
M427.098,519.825H445.599L460.542,543.204L475.482,519.825H494.027
L469.022,557.793V585.435H452.104V557.793Z
M545.123,579.06H531.012L528.786,585.435H519.717L532.677,550.443H543.434
L556.396,585.435H547.325Z
M533.262,572.568H542.848L538.067,558.646Z
M561.012,550.443H571.092L583.817,574.443V550.443H592.373V585.435H582.294
L569.567,561.435V585.435H561.012Z
M624.856,567.904
C624.856,560.83,620.704,557.263,613.49,557.263H610.255V578.615H613.49
C620.697,578.615,624.856,574.987,624.856,567.904Z
M634.161,567.904
C634.161,584.226,620.824,585.435,610.748,585.435H601.231V550.443H610.748
C624.414,550.443,634.161,553.647,634.161,567.904Z
M704.477,586.709
C685.568,586.709,676.219,577.92,676.219,559.156V519.825H693.138V559.156
C693.138,568.226,695.406,574.273,704.477,574.273
C713.582,574.273,715.858,568.226,715.858,559.156V519.825H732.777V559.156
C732.777,577.938,723.421,586.709,704.477,586.709Z
M749.344,519.825H768.241L792.104,564.825V519.825H808.144V585.435H789.248
L765.385,540.435V585.435H749.344Z
M824.755,519.825H841.675V585.435H824.755Z
M904.604,552.696
C904.604,540.198,899.704,530.899,888.301,530.899
C876.968,530.899,872.041,540.26,872.041,552.696
C872.041,565.133,876.96,574.449,888.301,574.449
C899.66,574.449,904.604,565.112,904.604,552.696Z
M854.551,552.696
C854.551,531.692,867.381,518.638,888.301,518.638
C909.267,518.638,922.049,531.681,922.051,552.696
C922.049,573.673,909.245,586.709,888.301,586.709
C867.398,586.709,854.551,573.651,854.551,552.696Z
M934.792,519.825H953.691L977.552,564.825V519.825H993.592V585.435H974.701
L950.832,540.435V585.435H934.792Z" fill="#ffffff"/></svg>