<?xml version="1.0" encoding="utf-8"?>
<!-- Generator: Adobe Illustrator 15.0.0, SVG Export Plug-In . SVG Version: 6.00 Build 0)  -->
<!DOCTYPE svg PUBLIC "-//W3C//DTD SVG 1.1//EN" "http://www.w3.org/Graphics/SVG/1.1/DTD/svg11.dtd">
<svg version="1.1" id="svg1332" xmlns:svg="http://www.w3.org/2000/svg"
	 xmlns="http://www.w3.org/2000/svg" xmlns:xlink="http://www.w3.org/1999/xlink" x="0px" y="0px" width="600px" height="400px"
	 viewBox="0 0 600 400" enable-background="new 0 0 600 400" xml:space="preserve">
<path id="path2230" fill="#078930" d="M0,400V200h600v200H0z"/>
<path id="path1343" fill="#0F47AF" d="M0,200V0h599.999L600,200H0z"/>
<path id="path2242" fill="#FCDD09" d="M600,172c-2,0-220.006,1.025-245,0.508C330,172,315,162,290,162s-40,10-65,10s-40-10-65-10
	c-24.55,0-40,10-65,10s-40-10-65-10c-24.6,0-15,0-30,2.514v49.904C15,212,5,212,30,212s40,15,65,15s40-10,65-10s40,10,65,10
	s40-15,65-15s40,15,65,15h245V172z"/>
<g>
	<path fill="#FFFFFF" d="M92,114c-1.918,0.094-3.455,1.759-5.32,6.406c-3.122,7.782-3.098,12.243,0.093,18.562
		C88.214,141.823,90.021,145,92,145c2,0,3.825-3.177,5.281-6.031c3.224-6.319,3.249-10.78,0.094-18.562
		C95.49,115.759,93.938,114.094,92,114z"/>
	<path fill="#FFFFFF" d="M119.25,124.344c-0.005-0.007,0.004-0.024,0-0.031c-0.011-0.017-0.051-0.046-0.062-0.062
		c-0.543-0.681-2.867-1.219-5.281-1.219c-3.58,0-5.308-1-8.25-4.688c-2.644-3.312-4.684-4.836-6.156-4.594
		c-0.6,0.099-1.111,0.508-1.531,1.188c-1.415,2.289,3.527,11.999,8.156,16.062c5.085,4.465,4.763,4.334,7.75,3.188
		c2.517-0.966,6.132-7.495,5.469-9.625C119.321,124.494,119.282,124.402,119.25,124.344z"/>
	<path fill="#FFFFFF" d="M138.031,77.875c-3.003-5.807-11.638-9.632-18.625-9.406C111,68,97.25,91.333,97.25,93.625
		c0,3.267,4.053,2.658,8-0.594c9.75-8.031,16.188-4.542,20.875-0.188c2.7,2.51,5.301,4.574,5.969,4.781
		c0.005,0.002,0.026,0.03,0.031,0.031c0.004,0.001,0.026,0,0.031,0c0.004,0,0.027,0,0.031,0c0.536-0.052,2.128-1.574,3.594-3.438
		C139.714,89.219,140.608,82.857,138.031,77.875z"/>
	<path fill="#FFFFFF" d="M92,97c3,0,8.521-13.684,11.688-19.031c9.679-16.344,11.61-24.066,8.25-32.906C110.117,40.276,95,20,92,20
		c-2.97,0-17.932,20.276-19.732,25.062c-3.326,8.84-1.415,16.562,8.165,32.906C83.567,83.316,89.031,97,92,97z"/>
	<path fill="#FFFFFF" d="M81.082,103.25c-1.007,1.612-0.919,2.78,0.34,4.312c1.242,1.512,4.791,2.452,10.578,2.438
		c5.847,0.015,9.433-0.926,10.688-2.438c1.271-1.532,1.36-2.7,0.344-4.312C101.93,101.504,99.747,101,92,101
		C84.332,101,82.172,101.504,81.082,103.25z"/>
	<path fill="#FFFFFF" d="M86.093,114.937c-0.416-0.68-0.923-1.089-1.516-1.188c-1.458-0.242-3.478,1.281-6.093,4.594
		c-2.912,3.688-4.622,4.688-8.165,4.688c-2.39,0-4.689,0.538-5.228,1.219c-0.012,0.017-0.052,0.046-0.062,0.062
		c-0.004,0.007,0.004,0.024,0,0.031c-0.032,0.059-0.07,0.15-0.093,0.219c-0.656,2.13,2.921,8.659,5.412,9.625
		c2.956,1.146,2.638,1.277,7.671-3.188C82.602,126.936,87.492,117.226,86.093,114.937z"/>
	<path fill="#FFFFFF" d="M78.886,93.031c3.907,3.252,7.918,3.86,7.918,0.594c0-2.292-13.608-25.625-21.928-25.156
		c-6.916-0.226-15.462,3.6-18.434,9.406c-2.55,4.982-1.665,11.345,2.227,16.344c1.45,1.863,3.026,3.386,3.557,3.438
		c0.004,0,0.027,0,0.031,0s0.026,0.001,0.031,0s0.025-0.029,0.03-0.031c0.661-0.207,3.235-2.271,5.907-4.781
		C62.865,88.489,69.237,85,78.886,93.031z"/>
</g>
</svg>
