<?xml version="1.0" encoding="UTF-8" standalone="no"?>
<!-- Created with Inkscape (http://www.inkscape.org/) -->
<svg
   xmlns:svg="http://www.w3.org/2000/svg"
   xmlns="http://www.w3.org/2000/svg"
   version="1.0"
   width="600"
   height="400"
   id="svg2859">
  <defs
     id="defs2861">
    
    
    
    
   </defs>
  <g
     transform="translate(-580.56286,-369.05237)"
     id="layer1">
    <g
       id="g3393">
      <g
         transform="translate(-230.15336,0)"
         id="g3386">
        <polygon
           points="162.413,98.1098 48.6132,98.1098 48.6132,21.4764 162.413,21.4764 162.413,98.1098 "
           transform="matrix(5.272417,0,0,5.2196562,554.40717,256.95295)"
           style="fill:#193783;fill-rule:evenodd"
           id="_131203936" />
        <g
           transform="translate(197.53832,39.021897)"
           id="g3369">
          <path
             d="M 162.767,43.0682 C 162.767,43.0682 159.7581,41.4752 146.6612,41.4752 C 133.5643,41.4752 122.9459,45.5459 105.2477,45.5459 C 87.5495,45.5459 78.8774,41.6522 63.3029,41.6522 C 53.9213,41.6522 48.4365,43.2453 48.4365,43.2453 L 48.4365,31.2105 C 48.4365,31.2105 53.9213,29.6178 63.3029,29.6178 C 78.8774,29.6178 87.5495,33.5111 105.2477,33.5111 C 122.9459,33.5111 133.5643,29.4407 146.6612,29.4407 C 159.7581,29.4407 162.767,31.0334 162.767,31.0334 L 162.767,43.0682 L 162.767,43.0682 z "
             transform="matrix(5.2479436,0,0,5.2479436,358.98588,215.31235)"
             style="fill:#ffffff;fill-rule:evenodd"
             id="_131098208" />
          <path
             d="M 162.767,65.5447 C 162.767,65.5447 159.7581,63.9517 146.6612,63.9517 C 133.5643,63.9517 122.9459,68.0224 105.2477,68.0224 C 87.5495,68.0224 78.8774,64.1287 63.3029,64.1287 C 53.9213,64.1287 48.4365,65.7218 48.4365,65.7218 L 48.4365,53.6873 C 48.4365,53.6873 53.9213,52.0943 63.3029,52.0943 C 78.8774,52.0943 87.5495,55.988 105.2477,55.988 C 122.9459,55.988 133.5643,51.9172 146.6612,51.9172 C 159.7581,51.9172 162.767,53.5102 162.767,53.5102 L 162.767,65.5447 L 162.767,65.5447 z "
             transform="matrix(5.2479436,0,0,5.2479436,358.98588,215.31235)"
             style="fill:#ffffff;fill-rule:evenodd"
             id="_131099344" />
          <path
             d="M 162.767,88.0212 C 162.767,88.0212 159.7581,86.4288 146.6612,86.4288 C 133.5643,86.4288 122.9459,90.4989 105.2477,90.4989 C 87.5495,90.4989 78.8774,86.6059 63.3029,86.6059 C 53.9213,86.6059 48.4365,88.1982 48.4365,88.1982 L 48.4365,76.1638 C 48.4365,76.1638 53.9213,74.5708 63.3029,74.5708 C 78.8774,74.5708 87.5495,78.4644 105.2477,78.4644 C 122.9459,78.4644 133.5643,74.3937 146.6612,74.3937 C 159.7581,74.3937 162.767,75.9867 162.767,75.9867 L 162.767,88.0212 L 162.767,88.0212 z "
             transform="matrix(5.2479436,0,0,5.2479436,358.98588,215.31235)"
             style="fill:#ffffff;fill-rule:evenodd"
             id="_22492576" />
        </g>
      </g>
      <g
         transform="translate(378.30474,136.12218)"
         id="g3308">
        <path
           d="M 90.684,49.425 L 119.0823,49.425 C 119.0823,49.425 119.4351,66.4466 119.4351,71.3855 C 119.4351,76.3243 115.6427,85.673 105.324,85.673 C 95.0055,85.673 90.7722,76.8535 90.7722,71.65 C 90.7722,66.4466 90.684,49.425 90.684,49.425 L 90.684,49.425 z "
           transform="matrix(5.2479436,0,0,5.2479436,-49.115754,120.35801)"
           style="fill:#ffffff;fill-rule:evenodd"
           id="_22494024" />
        <path
           d="M 119.491,69.5417 C 119.4332,63.1669 119.1486,49.4333 119.1486,49.4333 L 90.7499,49.4333 C 90.7499,49.4333 90.8198,62.9037 90.8352,69.541 C 90.8352,69.541 97.4527,68.3951 98.8638,68.9243 C 100.2749,69.4535 104.5966,70.7764 106.8895,70.3354 C 109.1826,69.8944 112.534,68.4833 114.827,68.4833 C 117.1201,68.4833 119.491,69.5417 119.491,69.5417 L 119.491,69.5417 z "
           transform="matrix(5.2479436,0,0,5.2479436,-49.115754,120.35801)"
           style="fill:#fff500;fill-rule:evenodd;stroke:#1f1a17;stroke-width:0.17640001"
           id="_22494952" />
        <path
           d="M 102.303,52.9611 C 102.1266,53.3139 101.9502,53.8431 102.303,54.1076 C 102.6558,54.3722 102.744,54.6368 103.0967,54.6368 C 103.4495,54.6368 103.8023,54.6368 104.4198,54.6368 C 105.0371,54.6368 105.3016,54.3722 105.6544,54.725 C 106.0072,55.0778 106.5364,55.166 106.5364,55.166 C 106.5364,55.166 105.3016,54.9014 104.7726,55.0778 C 104.2434,55.2542 103.8905,55.5188 103.0085,55.6069 C 102.1266,55.6951 100.9801,55.166 100.8919,54.3722 C 100.8037,53.5785 100.9801,53.3139 101.3329,53.0493 C 101.6856,52.7847 102.303,52.9611 102.303,52.9611 L 102.303,52.9611 z "
           transform="matrix(5.2479436,0,0,5.2479436,-49.115754,120.35801)"
           style="fill:#193783;fill-rule:evenodd;stroke:#1f1a17;stroke-width:0.17640001"
           id="_22495960" />
        <path
           d="M 97.3644,50.4917 C 97.3644,50.4917 97.8054,50.4917 97.9818,50.8444 C 98.1582,51.1972 98.2463,51.991 98.2463,51.991 L 97.4526,51.6382 C 97.4526,51.6382 97.6407,51.2427 97.5408,50.9326 C 97.4643,50.6949 97.3644,50.4917 97.3644,50.4917 z "
           transform="matrix(5.2479436,0,0,5.2479436,-49.115754,120.35801)"
           style="fill:#193783;fill-rule:evenodd;stroke:#1f1a17;stroke-width:0.17640001"
           id="_22498456" />
        <path
           d="M 94.6304,51.4618 C 94.6304,51.4618 95.2878,51.2117 95.5524,51.2999 C 95.817,51.3881 96.2179,51.9028 96.2179,51.9028 L 95.6887,52.0792 C 95.6887,52.0792 95.5335,51.8311 95.2488,51.6795 C 95.0154,51.5548 94.6304,51.4618 94.6304,51.4618 L 94.6304,51.4618 z "
           transform="matrix(5.2479436,0,0,5.2479436,-49.115754,120.35801)"
           style="fill:#193783;fill-rule:evenodd;stroke:#1f1a17;stroke-width:0.17640001"
           id="_22499312" />
        <path
           d="M 93.3075,54.4604 C 93.3075,54.4604 93.572,53.6667 93.9248,53.4903 C 94.2776,53.3139 95.0713,53.1375 95.0713,53.1375 L 94.9832,53.9313 C 94.9832,53.9313 94.7909,53.9071 94.2617,53.9953 C 93.7326,54.0835 93.3075,54.4604 93.3075,54.4604 L 93.3075,54.4604 z "
           transform="matrix(5.2479436,0,0,5.2479436,-49.115754,120.35801)"
           style="fill:#193783;fill-rule:evenodd;stroke:#1f1a17;stroke-width:0.17640001"
           id="_22499592" />
        <path
           d="M 94.3567,57.0325 C 94.3567,57.0325 94.1894,55.9597 94.3658,55.6069 C 94.5422,55.2542 94.8068,54.9896 94.8068,54.9896 L 95.3359,55.6951 C 95.3359,55.6951 95.1919,55.7795 94.8691,56.1024 C 94.5573,56.4141 94.3567,57.0325 94.3567,57.0325 z "
           transform="matrix(5.2479436,0,0,5.2479436,-49.115754,120.35801)"
           style="fill:#193783;fill-rule:evenodd;stroke:#1f1a17;stroke-width:0.17640001"
           id="_22500256" />
        <path
           d="M 96.7079,62.4358 L 97.5017,62.4358 C 97.5017,62.4358 97.348,61.4615 96.9953,61.2851 C 96.6425,61.1088 95.9142,61.0247 95.9142,61.0247 C 95.9142,61.0247 96.2371,61.4071 96.5017,61.7599 C 96.7663,62.1127 96.7079,62.4358 96.7079,62.4358 z "
           transform="matrix(5.2479436,0,0,5.2479436,-49.115754,120.35801)"
           style="fill:#193783;fill-rule:evenodd;stroke:#1f1a17;stroke-width:0.17640001"
           id="_22501384" />
        <path
           d="M 95.9533,62.9271 L 95.4241,63.4563 C 95.4241,63.4563 95.1595,63.2799 94.8068,63.1035 C 94.454,62.9271 93.7484,63.0153 93.7484,63.0153 C 93.7484,63.0153 94.7186,62.3097 95.1595,62.3979 C 95.6005,62.4861 95.9533,62.9271 95.9533,62.9271 z "
           transform="matrix(5.2479436,0,0,5.2479436,-49.115754,120.35801)"
           style="fill:#193783;fill-rule:evenodd;stroke:#1f1a17;stroke-width:0.17640001"
           id="_22502080" />
        <path
           d="M 93.879,66.0325 C 93.879,66.0325 93.879,65.3269 94.1436,65.1505 C 94.4082,64.9741 94.8491,64.9741 94.8491,64.9741 L 95.1137,65.5033 C 95.1137,65.5033 94.9494,65.4558 94.5084,65.6321 C 94.0674,65.8085 93.879,66.0325 93.879,66.0325 z "
           transform="matrix(5.2479436,0,0,5.2479436,-49.115754,120.35801)"
           style="fill:#193783;fill-rule:evenodd;stroke:#1f1a17;stroke-width:0.17640001"
           id="_22503744" />
        <path
           d="M 96.4447,65.6321 C 96.4447,65.6321 96.5083,66.0642 96.5965,66.5052 C 96.6847,66.9461 96.3943,67.425 96.3943,67.425 C 96.3943,67.425 97.1851,67.1053 97.1851,66.7525 C 97.1851,66.3997 97.0998,65.8375 97.0998,65.8375 L 96.4447,65.6321 L 96.4447,65.6321 z "
           transform="matrix(5.2479436,0,0,5.2479436,-49.115754,120.35801)"
           style="fill:#193783;fill-rule:evenodd;stroke:#1f1a17;stroke-width:0.17640001"
           id="_22504000" />
        <path
           d="M 115.18,67.5132 C 115.18,67.5132 115.18,66.7194 115.3564,66.4549 C 115.5328,66.1903 115.8856,66.1903 116.062,65.7493 C 116.2384,65.3083 116.1502,63.8972 115.8856,63.5444 C 115.621,63.1917 115.3564,62.8389 115.621,62.5743 C 115.8856,62.3097 116.3266,62.3097 116.3266,62.3097 C 116.3266,62.3097 116.7675,61.6042 116.1502,61.4278 C 115.5328,61.2514 114.8272,61.6924 114.8272,61.6924 C 114.8272,61.6924 114.6509,61.6042 114.4745,61.1632 C 114.2981,60.7222 113.8571,59.9285 113.5925,59.3111 C 113.3279,58.6938 112.9752,57.2826 113.2397,56.7535 C 113.5043,56.2243 114.0335,55.5188 114.2981,55.6951 C 114.5627,55.8715 114.4745,56.3125 114.3863,56.8417 C 114.2981,57.3708 114.2981,58.4292 114.5627,58.6938 C 114.8272,58.9583 115.7092,58.8701 115.7974,59.3111 C 115.8856,59.7521 116.1502,60.1931 116.1502,60.8104 C 116.1502,61.4278 116.5911,61.9569 116.9439,61.9569 C 117.2967,61.9569 116.9439,61.2514 117.1203,60.7222 C 117.2409,60.3605 117.2788,60.0394 117.2065,59.7321 C 117.1727,59.5902 117.1155,59.4503 117.0321,59.3111 C 116.7675,58.8701 116.5911,58.341 116.5911,58.341 C 116.5911,58.341 117.2967,60.2813 117.5613,60.3694 C 117.8259,60.4576 118.0904,60.8104 118.0904,61.4278 C 118.0904,62.0451 118.796,61.6042 118.6196,60.9868 C 118.4432,60.3694 118.4432,60.3694 118.4432,60.3694 C 118.4432,60.3694 118.355,59.8403 117.9141,59.3111 C 117.4731,58.7819 116.9439,58.0764 116.9439,57.3708 C 116.9439,56.6653 116.2384,55.6951 115.7974,55.2542 C 115.3564,54.8132 114.5627,54.4604 113.9453,54.8132 C 113.3279,55.166 112.3578,56.1361 112.3578,56.9299 C 112.3578,57.7236 112.6224,59.2229 112.9752,59.9285 C 113.3279,60.634 113.8571,61.6042 113.8571,61.6042 C 113.8571,61.6042 113.3279,61.2514 112.887,61.7806 C 112.446,62.3097 112.0932,63.4563 112.0932,63.4563 L 112.2696,64.0736 C 112.2696,64.0736 112.6224,63.3681 112.9752,63.1917 C 113.3279,63.0153 113.5925,63.6326 113.5925,63.6326 C 113.5925,63.6326 113.5925,64.3382 113.5925,64.8674 C 113.5925,65.3965 113.5925,65.7493 113.9453,66.0139 C 114.2981,66.2785 114.2981,66.3667 114.2099,66.8958 C 114.1217,67.425 113.7689,68.2188 114.2099,68.2188 C 114.6509,68.2188 115.18,67.5132 115.18,67.5132 L 115.18,67.5132 z "
           transform="matrix(5.2479436,0,0,5.2479436,-49.115754,120.35801)"
           style="fill:#d93141;fill-rule:evenodd;stroke:#1f1a17;stroke-width:0.17640001"
           id="_22507728" />
        <polygon
           points="118.475,47.1417 91.8707,47.1417 90.4167,45.1083 120.047,45.1083 118.475,47.1417 "
           transform="matrix(5.2479436,0,0,5.2479436,-49.115754,120.35801)"
           style="fill:#fff500;fill-rule:evenodd;stroke:#1f1a17;stroke-width:0.17640001"
           id="_22509312" />
        <path
           d="M 90.4167,44.4417 L 119.9601,44.4417 C 119.9601,44.4417 120.5699,43.9187 121.1797,43.6573 C 121.7902,43.3958 123.1847,41.8272 123.1847,41.8272 C 123.1847,41.8272 123.882,40.4327 124.3175,39.9097 C 124.753,39.3871 125.6246,38.7769 125.9732,38.6026 C 126.3219,38.4283 126.6705,38.5155 126.6705,38.5155 C 126.6705,38.5155 125.9732,38.254 125.5378,38.1672 C 125.1016,38.0797 124.4918,37.9053 124.0557,38.1672 C 123.6202,38.4283 122.6618,39.2999 122.6618,39.2999 C 122.6618,39.2999 123.0973,38.6026 122.5743,38.254 C 122.0513,37.9053 121.5291,37.3827 120.7443,38.0797 C 119.9601,38.7769 119.8727,39.4742 119.524,39.7354 C 119.1754,39.9972 119.0885,40.5202 119.3497,40.607 C 119.6115,40.6945 118.8267,41.0431 119.1754,41.6529 C 119.524,42.2627 120.5699,42.3502 120.5699,42.3502 C 120.5699,42.3502 120.3088,42.5245 119.7858,42.6988 C 119.2629,42.8732 119.524,43.3958 119.2629,43.6573 C 119.001,43.9187 118.3045,43.9187 118.0426,43.7444 C 117.7815,43.5701 117.6072,42.96 117.694,42.6114 C 117.7815,42.2627 117.6072,41.4786 117.3453,41.9144 C 117.0842,42.3502 117.0842,42.786 116.5612,43.2218 C 116.0382,43.6573 115.6021,43.8316 114.9923,43.5701 C 114.3826,43.3086 114.3826,41.9144 114.7312,41.5658 C 115.0798,41.2171 114.9055,40.2584 114.9055,39.9972 C 114.9055,39.7354 115.2542,39.7357 115.6028,40.4327 C 115.9514,41.13 116.4737,41.3043 116.9099,41.0428 C 117.3453,40.7813 117.5651,40.2883 117.9138,40.114 C 118.2624,39.9397 118.1487,39.5741 118.1487,38.7029 C 118.1487,37.8316 118.0426,36.9469 117.6072,37.1212 C 117.171,37.2956 116.9967,37.3824 117.171,36.5983 C 117.3453,35.8142 116.7638,35.1706 116.5026,34.8223 C 116.2408,34.474 115.9935,33.8553 115.2087,34.1168 C 114.4246,34.3783 113.3366,34.4196 113.1623,34.7683 C 112.988,35.1169 113.2498,36.4239 113.2498,36.4239 C 113.2498,36.4239 112.9012,35.7267 112.2907,35.8142 C 111.6809,35.901 111.6809,36.3371 111.3323,36.9469 C 110.9836,37.5567 110.2863,37.8185 110.2863,37.8185 C 110.2863,37.8185 110.7225,37.7314 110.8968,38.4283 C 111.0711,39.1256 111.158,39.9972 111.5066,40.1715 C 111.8552,40.3458 112.3782,40.5202 112.8136,40.3458 C 113.2498,40.1715 113.4241,40.433 113.0755,40.6945 C 112.7268,40.9556 112.0296,41.0428 112.0296,41.0428 C 112.0296,41.0428 112.5525,41.3918 112.5525,41.8272 C 112.5525,42.2627 112.3782,43.3958 111.5066,43.3958 C 110.635,43.3958 110.0252,42.4374 110.0252,42.0016 C 110.0252,41.5658 109.589,40.607 109.589,40.607 C 109.589,40.607 109.4147,41.2175 109.1536,41.7401 C 108.8917,42.2627 108.282,43.1347 107.5847,43.3086 C 106.8874,43.483 105.406,42.8732 105.7546,42.0016 C 106.1033,41.13 106.4519,40.5202 106.4519,40.2584 C 106.4519,39.9972 106.0165,39.2128 106.0165,39.2128 C 106.0165,39.2128 106.4519,39.9097 107.3235,39.8229 C 108.1951,39.7354 108.282,39.3868 108.6306,38.7769 C 108.9793,38.1672 109.3279,37.8185 109.3279,37.8185 C 109.3279,37.8185 108.9793,37.557 108.7181,36.9469 C 108.4563,36.3368 108.1077,35.4655 107.4979,35.5523 C 106.8874,35.6399 106.2776,36.1625 106.2776,36.1625 C 106.2776,36.1625 106.9749,35.378 106.8874,34.8551 C 106.8006,34.3324 106.6262,33.9838 106.1033,33.8966 C 105.5803,33.8095 105.0574,33.8966 104.8831,33.6351 C 104.7088,33.3737 104.622,33.3737 104.3602,33.7223 C 104.0989,34.071 103.8376,34.071 103.4017,34.2453 C 102.966,34.4196 102.7916,35.1169 102.8788,35.4655 C 102.966,35.8142 103.0531,36.1625 103.0531,36.1625 C 103.0531,36.1625 102.7918,35.2912 102.1817,35.2912 C 101.5715,35.2912 101.3102,35.7267 101.1359,36.3368 C 100.9616,36.9469 100.6129,37.2081 100.4386,37.4699 C 100.2643,37.731 100.6129,37.8185 100.9616,38.1672 C 101.3102,38.5155 101.1361,39.1256 101.3974,39.5614 C 101.6587,39.9972 102.2687,40.3458 102.7045,40.1715 C 103.1403,39.9972 103.5761,39.2999 103.5761,39.2999 C 103.5761,39.2999 103.1403,39.8229 103.2274,40.4327 C 103.3146,41.0428 103.9246,40.9556 103.9246,41.4786 C 103.9246,42.0016 104.0119,42.3502 103.5761,42.7857 C 103.1403,43.2218 103.0533,43.7444 102.5303,43.7444 C 102.0073,43.7444 101.3974,43.483 101.0487,42.8732 C 100.7001,42.2627 100.7001,41.8272 100.6129,41.4786 C 100.5258,41.13 99.9158,40.7813 99.9158,41.3043 C 99.9158,41.8272 100.003,42.5245 99.7415,42.96 C 99.48,43.3958 98.5214,43.6573 98.2599,43.3086 C 97.9985,42.96 97.6502,42.3502 97.7372,41.9144 C 97.8241,41.4786 98.2598,40.8688 97.9985,40.607 C 97.7372,40.3458 96.8655,39.5614 96.8655,39.5614 C 96.8655,39.5614 97.4755,39.9097 98.0856,39.9097 C 98.6958,39.9097 99.1314,39.3868 99.2185,38.7769 C 99.3057,38.1672 99.6544,37.5567 99.6544,37.5567 C 99.6544,37.5567 99.6542,37.2956 99.3057,36.7726 C 98.9572,36.2496 98.5214,35.5523 98.1728,35.6399 C 97.8241,35.7267 97.127,36.4239 97.127,36.4239 C 97.127,36.4239 97.65,35.4652 97.3013,34.8551 C 96.9527,34.2453 96.1682,34.5068 95.5583,34.3324 C 94.9483,34.1581 94.5995,33.9841 94.3382,34.5068 C 94.0769,35.0294 93.3796,34.6807 93.2925,35.2912 C 93.2053,35.901 94.2511,36.8598 94.2511,36.8598 C 94.2511,36.8598 93.9896,36.2496 93.2925,36.5983 C 92.5953,36.9469 92.421,37.2084 92.2467,38.1672 C 92.0724,39.1256 92.1597,39.0388 92.7697,39.3871 C 93.3796,39.7354 93.467,40.5202 93.9026,40.6945 C 94.3382,40.8688 94.5999,40.9556 95.0355,40.6945 C 95.4712,40.4327 95.6455,40.084 95.6455,40.084 C 95.6455,40.084 95.6453,40.5198 95.384,40.9556 C 95.1227,41.3914 95.0353,41.4786 95.4712,41.7401 C 95.9069,42.0016 96.0812,42.0884 95.7326,42.6114 C 95.384,43.1343 95.0353,43.3086 94.3382,43.2218 C 93.6411,43.1343 93.2923,42.6985 93.031,42.3502 C 92.7697,42.0016 92.944,42.1759 92.6825,42.7857 C 92.421,43.3958 91.9852,44.0059 91.201,43.6573 C 90.4167,43.3086 90.5038,42.8732 90.4167,42.6114 C 90.3295,42.3502 89.7194,42.1759 89.7194,42.1759 C 89.7194,42.1759 89.8067,41.9144 90.3295,41.5658 C 90.8523,41.2171 90.8525,40.6945 90.4167,39.5614 C 89.9809,38.4283 90.0682,37.9053 89.1966,37.8185 C 88.325,37.731 87.8022,38.5155 87.8022,38.5155 C 87.8022,38.5155 87.9763,37.9929 86.8434,37.731 C 85.7105,37.4699 85.5345,37.1912 84.6837,37.5767 C 83.6686,38.0362 83.459,38.4676 83.459,38.4676 C 83.459,38.4676 84.4232,38.7074 85.2392,39.0133 C 86.1799,39.3661 87.715,40.9556 87.8022,41.5658 C 87.8894,42.1759 88.0637,42.2631 88.8479,42.8732 C 89.6322,43.483 90.4167,44.4417 90.4167,44.4417 L 90.4167,44.4417 z "
           transform="matrix(5.2479436,0,0,5.2479436,-49.115754,120.35801)"
           style="fill:#fff500;fill-rule:evenodd;stroke:#1f1a17;stroke-width:0.17640001"
           id="_22509624" />
        <path
           d="M 87.9763,40.7813 C 87.9763,41.1665 87.6642,41.4786 87.2792,41.4786 C 86.8942,41.4786 86.5821,41.1665 86.5821,40.7813 C 86.5821,40.3965 86.8942,40.0844 87.2792,40.0844 C 87.6642,40.0844 87.9763,40.3965 87.9763,40.7813 z "
           transform="matrix(5.2479436,0,0,5.2479436,-49.115754,120.35801)"
           style="fill:#d93141;fill-rule:evenodd;stroke:#1f1a17;stroke-width:0.17640001"
           id="_22507280" />
        <path
           d="M 96.7784,38.254 C 96.7784,38.6391 96.4663,38.9513 96.0812,38.9513 C 95.6963,38.9513 95.3842,38.6391 95.3842,38.254 C 95.3842,37.8692 95.6963,37.557 96.0812,37.557 C 96.4663,37.557 96.7784,37.8692 96.7784,38.254 z "
           transform="matrix(5.2479436,0,0,5.2479436,-49.115754,120.35801)"
           style="fill:#d93141;fill-rule:evenodd;stroke:#1f1a17;stroke-width:0.17640001"
           id="_22507672" />
        <path
           d="M 93.2925,41.8272 C 93.2925,42.2124 92.9803,42.5245 92.5953,42.5245 C 92.2104,42.5245 91.8982,42.2124 91.8982,41.8272 C 91.8982,41.4421 92.2104,41.13 92.5953,41.13 C 92.9803,41.13 93.2925,41.4421 93.2925,41.8272 z "
           transform="matrix(5.2479436,0,0,5.2479436,-49.115754,120.35801)"
           style="fill:#ffffff;fill-rule:evenodd;stroke:#1f1a17;stroke-width:0.17640001"
           id="_22509000" />
        <path
           d="M 93.2053,46.0103 C 93.2053,46.3954 92.8932,46.7076 92.5082,46.7076 C 92.1232,46.7076 91.8111,46.3954 91.8111,46.0103 C 91.8111,45.6251 92.1232,45.313 92.5082,45.313 C 92.8932,45.313 93.2053,45.6251 93.2053,46.0103 z "
           transform="matrix(5.2479436,0,0,5.2479436,-49.115754,120.35801)"
           style="fill:#009261;fill-rule:evenodd;stroke:#1f1a17;stroke-width:0.17640001"
           id="_131015904" />
        <path
           d="M 101.484,46.0103 C 101.484,46.3954 101.1719,46.7076 100.7869,46.7076 C 100.4019,46.7076 100.0897,46.3954 100.0897,46.0103 C 100.0897,45.6251 100.4019,45.313 100.7869,45.313 C 101.1719,45.313 101.484,45.6251 101.484,46.0103 z "
           transform="matrix(5.2479436,0,0,5.2479436,-49.115754,120.35801)"
           style="fill:#009261;fill-rule:evenodd;stroke:#1f1a17;stroke-width:0.17640001"
           id="_131016856" />
        <path
           d="M 109.763,46.0103 C 109.763,46.3954 109.4508,46.7076 109.0657,46.7076 C 108.6812,46.7076 108.3691,46.3954 108.3691,46.0103 C 108.3691,45.6251 108.6812,45.313 109.0657,45.313 C 109.4508,45.313 109.763,45.6251 109.763,46.0103 z "
           transform="matrix(5.2479436,0,0,5.2479436,-49.115754,120.35801)"
           style="fill:#009261;fill-rule:evenodd;stroke:#1f1a17;stroke-width:0.17640001"
           id="_131018368" />
        <path
           d="M 118.043,46.0103 C 118.043,46.3954 117.7309,46.7076 117.3457,46.7076 C 116.9606,46.7076 116.6485,46.3954 116.6485,46.0103 C 116.6485,45.6251 116.9606,45.313 117.3457,45.313 C 117.7309,45.313 118.043,45.6251 118.043,46.0103 z "
           transform="matrix(5.2479436,0,0,5.2479436,-49.115754,120.35801)"
           style="fill:#009261;fill-rule:evenodd;stroke:#1f1a17;stroke-width:0.17640001"
           id="_131018616" />
        <path
           d="M 100.961,41.0428 C 100.961,41.4276 100.6489,41.7397 100.2639,41.7397 C 99.8789,41.7397 99.5668,41.4276 99.5668,41.0428 C 99.5668,40.658 99.8789,40.3458 100.2639,40.3458 C 100.6489,40.3458 100.961,40.658 100.961,41.0428 z "
           transform="matrix(5.2479436,0,0,5.2479436,-49.115754,120.35801)"
           style="fill:#ffffff;fill-rule:evenodd;stroke:#1f1a17;stroke-width:0.17640001"
           id="_131026888" />
        <path
           d="M 110.286,40.607 C 110.286,40.9921 109.9739,41.3043 109.5887,41.3043 C 109.2043,41.3043 108.8921,40.9921 108.8921,40.607 C 108.8921,40.2222 109.2043,39.9101 109.5887,39.9101 C 109.9739,39.9101 110.286,40.2222 110.286,40.607 z "
           transform="matrix(5.2479436,0,0,5.2479436,-49.115754,120.35801)"
           style="fill:#ffffff;fill-rule:evenodd;stroke:#1f1a17;stroke-width:0.17640001"
           id="_131027144" />
        <path
           d="M 118.391,41.8279 C 118.391,42.2131 118.0788,42.5252 117.6937,42.5252 C 117.3085,42.5252 116.9964,42.2131 116.9964,41.8279 C 116.9964,41.4428 117.3085,41.1306 117.6937,41.1306 C 118.0788,41.1306 118.391,41.4428 118.391,41.8279 z "
           transform="matrix(5.2479436,0,0,5.2479436,-49.115754,120.35801)"
           style="fill:#ffffff;fill-rule:evenodd;stroke:#1f1a17;stroke-width:0.17640001"
           id="_131028640" />
        <path
           d="M 105.58,37.6442 C 105.58,38.029 105.2679,38.3412 104.8828,38.3412 C 104.498,38.3412 104.1859,38.029 104.1859,37.6442 C 104.1859,37.259 104.498,36.9469 104.8828,36.9469 C 105.2679,36.9469 105.58,37.259 105.58,37.6442 z "
           transform="matrix(5.2479436,0,0,5.2479436,-49.115754,120.35801)"
           style="fill:#d93141;fill-rule:evenodd;stroke:#1f1a17;stroke-width:0.17640001"
           id="_131028896" />
        <path
           d="M 115.08,38.5155 C 115.08,38.9003 114.7679,39.2124 114.3828,39.2124 C 113.9976,39.2124 113.6855,38.9003 113.6855,38.5155 C 113.6855,38.1307 113.9976,37.8185 114.3828,37.8185 C 114.7679,37.8185 115.08,38.1307 115.08,38.5155 z "
           transform="matrix(5.2479436,0,0,5.2479436,-49.115754,120.35801)"
           style="fill:#d93141;fill-rule:evenodd;stroke:#1f1a17;stroke-width:0.17640001"
           id="_131030392" />
        <path
           d="M 123.969,41.3043 C 123.969,41.6894 123.6568,42.0016 123.2717,42.0016 C 122.8865,42.0016 122.5744,41.6894 122.5744,41.3043 C 122.5744,40.9191 122.8865,40.607 123.2717,40.607 C 123.6568,40.607 123.969,40.9191 123.969,41.3043 z "
           transform="matrix(5.2479436,0,0,5.2479436,-49.115754,120.35801)"
           style="fill:#d93141;fill-rule:evenodd;stroke:#1f1a17;stroke-width:0.17640001"
           id="_131030648" />
        <polygon
           points="120.047,45.1387 90.4167,45.1387 90.4167,44.4417 120.047,44.4417 120.047,45.1387 "
           transform="matrix(5.2479436,0,0,5.2479436,-49.115754,120.35801)"
           style="fill:#fff500;fill-rule:evenodd;stroke:#1f1a17;stroke-width:0.17640001"
           id="_131032144" />
        <polygon
           points="94.4626,46.0626 96.4573,45.2999 98.5691,46.0626 96.3986,46.7665 94.4626,46.0626 "
           transform="matrix(5.2479436,0,0,5.2479436,-49.115754,120.35801)"
           style="fill:#d93141;fill-rule:evenodd;stroke:#1f1a17;stroke-width:0.17640001"
           id="_131032728" />
        <polygon
           points="102.969,46.0626 104.964,45.2999 107.076,46.0626 104.905,46.7665 102.969,46.0626 "
           transform="matrix(5.2479436,0,0,5.2479436,-49.115754,120.35801)"
           style="fill:#d93141;fill-rule:evenodd;stroke:#1f1a17;stroke-width:0.17640001"
           id="_131033456" />
        <polygon
           points="111.476,46.0626 113.47,45.2999 115.582,46.0626 113.412,46.7665 111.476,46.0626 "
           transform="matrix(5.2479436,0,0,5.2479436,-49.115754,120.35801)"
           style="fill:#d93141;fill-rule:evenodd;stroke:#1f1a17;stroke-width:0.17640001"
           id="_131034064" />
        <path
           d="M 106.416,60.7512 C 106.416,60.7512 105.9192,61.3396 105.3018,61.516 C 104.6846,61.6924 104.3318,62.0451 103.8907,61.8688 C 103.4497,61.6924 102.3914,61.6042 102.1268,61.6042 C 101.8622,61.6042 101.4212,61.516 101.5094,61.2514 C 101.5976,60.9868 102.1268,60.4576 102.1268,60.4576 C 102.1268,60.4576 101.0685,61.3396 100.7157,61.6042 C 100.3629,61.8688 99.9219,62.1333 99.3928,62.0451 C 98.8636,61.9569 98.5108,61.516 98.5108,61.516 C 98.5108,61.516 99.2164,61.4278 99.6574,61.075 C 100.0983,60.7222 100.3629,60.1049 100.3629,60.1049 C 100.3629,60.1049 100.5393,59.2229 100.5393,58.7819 C 100.5393,58.341 100.5393,58.1646 100.7157,57.9 C 100.8921,57.6354 101.3331,57.6354 101.5976,57.6354 C 101.8622,57.6354 102.0386,57.1944 102.1268,56.9299 C 102.215,56.6653 102.4796,56.5771 102.656,56.9299 C 102.8324,57.2826 103.1851,57.2826 103.7143,57.459 C 104.2436,57.6354 104.3318,57.8118 104.7728,57.8118 C 105.2137,57.8118 105.831,57.1063 106.0074,56.8417 C 106.1838,56.5771 105.5664,56.6653 105.2137,56.7535 C 104.861,56.8417 104.3318,56.4007 104.3318,56.1361 C 104.3318,55.8715 104.6846,55.7833 105.0373,55.7833 C 105.39,55.7833 105.831,55.9597 106.1838,55.8715 C 106.5366,55.7833 106.4484,55.4306 106.5366,55.166 C 106.6248,54.9014 106.713,54.1958 106.3602,54.1076 C 106.0074,54.0194 105.4782,53.9313 105.2137,54.0194 C 104.9492,54.1076 104.5082,54.284 104.5082,54.0194 C 104.5082,53.7549 104.5964,52.8729 104.5964,52.6083 C 104.5964,52.3438 104.861,52.4319 105.2137,52.3438 C 105.5664,52.2556 106.0074,51.9028 106.4484,51.8146 C 106.8893,51.7264 107.5949,51.4618 107.9477,51.4618 C 108.3005,51.4618 108.8296,51.55 109.1824,51.4618 C 109.5352,51.3736 110.1525,51.109 110.5053,50.9326 C 110.8581,50.7563 111.2109,50.5799 111.3873,50.9326 C 111.5637,51.2854 111.5637,51.8146 111.2991,51.991 C 111.0345,52.1674 110.5053,52.5201 110.5053,52.5201 L 110.0643,52.6083 C 110.0643,52.6083 110.9463,52.4319 110.9463,52.6965 C 110.9463,52.9611 110.8581,53.6667 111.1227,54.0194 C 111.3873,54.3722 112.0928,54.3722 112.0928,54.725 C 112.0928,55.0778 111.6518,55.6951 111.2991,55.6951 C 110.9463,55.6951 110.3289,55.166 110.3289,55.166 C 110.3289,55.166 111.1227,55.6069 111.1227,56.0479 C 111.1227,56.4889 111.2991,56.9299 111.1227,57.1944 C 110.9463,57.459 110.3289,57.7236 110.5935,58.0764 C 110.8581,58.4292 110.8581,58.8701 111.2109,58.7819 C 111.5637,58.6938 110.8581,59.3111 110.4171,59.2229 C 109.9762,59.1347 109.5352,58.341 109.5352,58.341 C 109.5352,58.341 109.7116,58.7819 109.5352,59.1347 C 109.3588,59.4875 109.0942,59.6639 109.006,60.1931 C 108.9178,60.7222 109.2706,61.3396 109.0942,61.6924 C 108.9178,62.0451 108.8296,62.4861 108.3005,62.2215 C 107.7713,61.9569 107.4185,61.9569 107.1539,61.516 C 106.8893,61.075 106.416,60.7512 106.416,60.7512 L 106.416,60.7512 z "
           transform="matrix(5.2479436,0,0,5.2479436,-49.115754,120.35801)"
           style="fill:#d93141;fill-rule:evenodd;stroke:#1f1a17;stroke-width:0.17640001"
           id="_131034496" />
        <path
           d="M 109.094,54.1076 C 109.094,54.1076 108.7412,54.1958 108.5648,54.5486 C 108.3885,54.9014 108.653,54.9896 108.8294,55.3424 C 109.0058,55.6951 108.9176,56.0479 108.653,56.0479 C 108.3885,56.0479 108.7412,56.4889 108.7412,56.4889 C 108.7412,56.4889 108.3885,56.5771 108.5648,57.0181 C 108.7412,57.459 109.3586,57.3708 109.3586,57.3708 C 109.3586,57.3708 109.1822,57.6354 109.3586,57.9882 C 109.535,58.341 109.535,58.341 109.535,58.341"
           transform="matrix(5.2479436,0,0,5.2479436,-49.115754,120.35801)"
           style="fill:none;fill-rule:evenodd;stroke:#1f1a17;stroke-width:0.17640001"
           id="_131037136" />
        <path
           d="M 107.066,52.2556 C 107.066,52.2556 107.066,52.7847 107.3306,52.7847 C 107.4705,52.7847 107.5366,52.7847 107.5677,52.7847 C 107.5952,52.7847 107.5952,52.7847 107.5952,52.7847"
           transform="matrix(5.2479436,0,0,5.2479436,-49.115754,120.35801)"
           style="fill:none;fill-rule:evenodd;stroke:#1f1a17;stroke-width:0.17640001"
           id="_131035000" />
        <path
           d="M 107.419,54.3722 C 107.419,54.3722 107.0662,54.5486 107.0662,54.8132 C 107.0662,55.0778 107.1544,55.6951 107.1544,55.6951"
           transform="matrix(5.2479436,0,0,5.2479436,-49.115754,120.35801)"
           style="fill:none;fill-rule:evenodd;stroke:#1f1a17;stroke-width:0.17640001"
           id="_131035656" />
        <line
           id="_131036200"
           class="fil5 str0"
           x1="107.066"
           y1="54.813202"
           x2="106.625"
           y2="54.813202"
           style="fill:none;fill-rule:evenodd;stroke:#1f1a17;stroke-width:0.17640001"
           transform="matrix(5.2479436,0,0,5.2479436,-49.115754,120.35801)" />
        <path
           d="M 103.714,58.2528 C 103.9786,58.2528 104.4197,57.9 104.4197,57.9"
           transform="matrix(5.2479436,0,0,5.2479436,-49.115754,120.35801)"
           style="fill:none;fill-rule:evenodd;stroke:#1f1a17;stroke-width:0.17640001"
           id="_131036304" />
        <line
           id="_131042096"
           class="fil5 str0"
           x1="104.42"
           y1="57.900002"
           x2="104.773"
           y2="57.811798"
           style="fill:none;fill-rule:evenodd;stroke:#1f1a17;stroke-width:0.17640001"
           transform="matrix(5.2479436,0,0,5.2479436,-49.115754,120.35801)" />
        <path
           d="M 106.774,60.8221 C 106.774,60.8221 107.3307,61.8688 107.6835,61.9569 C 108.0363,62.0451 108.5654,62.3097 108.7418,62.6625 C 108.9182,63.0153 109.712,64.6028 109.8884,65.3965 C 110.0647,66.1903 110.9467,67.3368 110.9467,67.3368 C 110.9467,67.3368 111.8286,67.6014 111.0349,68.1306 C 110.2411,68.6597 108.6536,68.9243 108.3009,69.0125 C 107.9481,69.1007 107.7717,69.1889 107.1543,68.6597 C 106.537,68.1306 105.8314,67.866 105.1259,67.2486 C 104.4204,66.6313 103.5383,66.0139 103.5383,65.6611 C 103.5383,65.3083 103.3695,64.9838 103.9868,64.8956 C 104.6044,64.8074 105.4039,64.403 105.8452,63.6092 C 106.2862,62.8155 106.2573,62.1753 106.3454,61.8226 C 106.4336,61.4698 106.774,60.8221 106.774,60.8221 L 106.774,60.8221 z "
           transform="matrix(5.2479436,0,0,5.2479436,-49.115754,120.35801)"
           style="fill:#d93141;fill-rule:evenodd;stroke:#1f1a17;stroke-width:0.17640001"
           id="_131042592" />
        <path
           d="M 102.127,61.6042 C 102.6562,61.516 103.0971,61.4278 103.4499,61.516 C 103.8027,61.6042 104.332,61.9569 104.9494,61.6042 C 105.5666,61.2514 105.8491,60.7133 106.2019,60.5369 C 106.5547,60.3605 106.8014,60.634 106.8014,61.075 C 106.8014,61.516 106.8014,61.9569 106.5368,62.4861 C 106.2722,63.0153 106.5368,63.8972 105.6548,64.25 C 104.773,64.6028 104.0673,64.9556 103.7145,64.9556 C 103.3617,64.9556 102.8326,65.3083 102.3034,65.3083 C 101.7742,65.3083 101.1569,65.3965 101.0687,65.7493 C 100.9805,66.1021 100.8041,66.8076 100.8041,66.8076 C 100.8041,66.8076 100.8041,66.1021 100.4513,65.9257 C 100.0985,65.7493 99.8339,65.8375 99.7458,66.1903 C 99.6576,66.5431 99.3048,67.1604 99.3048,67.1604 C 99.3048,67.1604 99.3048,66.0139 98.952,66.0139 C 98.5992,66.0139 98.5992,66.7194 98.5992,66.7194 L 97.9819,66.5431 L 97.7705,66.12 L 97.6291,65.8375 C 97.6291,65.8375 97.8055,66.4549 97.5409,66.4549 C 97.2763,66.4549 96.8353,66.1903 96.8353,66.1903 C 96.8353,66.1903 96.3944,66.0139 96.3062,65.7493 C 96.218,65.4847 96.0416,65.7493 95.777,65.8375 C 95.5124,65.9257 95.0714,66.1021 94.9833,65.7493 C 94.8951,65.3965 94.5423,65.0438 94.6305,64.6028 C 94.7187,64.1618 94.8069,64.0736 95.1596,64.1618 C 95.5124,64.25 95.777,64.3382 95.777,64.3382 C 95.777,64.3382 95.2478,64.0736 95.0714,63.809 C 94.8951,63.5444 94.8951,63.1035 95.336,62.9271 C 95.777,62.7507 96.3062,62.6625 96.3062,62.9271 C 96.3062,63.1917 96.0416,62.3097 96.4826,62.2215 C 96.9235,62.1333 97.0117,61.9569 97.4527,62.0451 C 97.8937,62.1333 97.9819,62.3097 97.9819,62.6625 C 97.9819,63.0153 97.8937,63.9854 97.8937,63.9854 C 97.8937,63.9854 97.6291,63.5444 98.1583,63.5444 C 98.6874,63.5444 99.2166,63.1917 99.6576,63.0153 C 100.0985,62.8389 100.4513,62.6625 101.0687,62.3097 C 101.686,61.9569 102.127,61.6042 102.127,61.6042 z "
           transform="matrix(5.2479436,0,0,5.2479436,-49.115754,120.35801)"
           style="fill:#d93141;fill-rule:evenodd;stroke:#1f1a17;stroke-width:0.17640001"
           id="_131042960" />
        <path
           d="M 100.451,58.5174 C 100.451,58.5174 100.5392,59.0465 100.451,59.5757 C 100.3628,60.1049 99.5691,60.4576 99.3045,60.634 C 99.0399,60.8104 98.6871,60.8104 98.3343,60.634 C 97.9816,60.4576 97.6288,60.1931 97.6288,59.8403 C 97.6288,59.4875 97.8934,59.3993 98.2461,59.5757 C 98.5989,59.7521 98.7753,60.0167 99.1281,59.7521 C 99.4809,59.4875 99.7455,58.8701 100.0982,58.6938 C 100.451,58.5174 100.451,58.5174 100.451,58.5174 z "
           transform="matrix(5.2479436,0,0,5.2479436,-49.115754,120.35801)"
           style="fill:#d93141;fill-rule:evenodd;stroke:#1f1a17;stroke-width:0.17640001"
           id="_131045656" />
        <path
           d="M 99.2165,63.9854 C 99.4811,63.9854 100.363,63.9854 100.363,63.9854"
           transform="matrix(5.2479436,0,0,5.2479436,-49.115754,120.35801)"
           style="fill:none;fill-rule:evenodd;stroke:#1f1a17;stroke-width:0.17640001"
           id="_131048464" />
        <line
           id="_131052328"
           class="fil5 str0"
           x1="100.363"
           y1="63.985401"
           x2="100.98"
           y2="63.808998"
           style="fill:none;fill-rule:evenodd;stroke:#1f1a17;stroke-width:0.17640001"
           transform="matrix(5.2479436,0,0,5.2479436,-49.115754,120.35801)" />
        <path
           d="M 105.302,65.3965 C 105.302,65.7493 105.2139,66.1903 105.4784,66.2785 C 105.743,66.3667 106.0958,66.2785 106.0958,66.6313 C 106.0958,66.984 106.0958,67.2486 106.0958,67.2486"
           transform="matrix(5.2479436,0,0,5.2479436,-49.115754,120.35801)"
           style="fill:none;fill-rule:evenodd;stroke:#1f1a17;stroke-width:0.17640001"
           id="_131055552" />
        <path
           d="M 99.922,59.0465 C 99.922,59.0465 100.1866,59.1347 100.4512,58.5174 C 100.7158,57.9 101.0686,57.6354 101.3332,57.6354 C 101.5977,57.6354 102.1269,56.9299 102.1269,56.9299 C 102.1269,56.9299 101.9505,56.8417 101.1568,56.5771 C 100.363,56.3125 99.3929,55.166 99.2165,54.725 C 99.0401,54.284 98.6873,53.2257 98.6873,52.7847 C 98.6873,52.3438 98.5109,52.2556 98.2463,51.991 C 97.9818,51.7264 97.8936,51.4618 97.4526,51.6382 C 97.0116,51.8146 96.9234,52.3438 96.9234,52.3438 C 96.9234,52.3438 96.8352,52.0792 96.4825,51.991 C 96.1297,51.9028 95.8651,51.7264 95.6887,52.0792 C 95.5123,52.4319 95.5123,52.6965 95.6887,52.9611 C 95.8651,53.2257 96.2179,53.4903 96.2179,53.4903 C 96.2179,53.4903 95.3359,52.8729 95.0713,53.1375 C 94.8068,53.4021 94.454,53.4903 94.7186,53.9313 C 94.9832,54.3722 95.4241,54.725 95.4241,54.725 C 95.4241,54.725 94.9832,54.5486 94.8068,54.9896 C 94.6304,55.4306 94.3658,55.6069 94.7186,55.7833 C 95.0713,55.9597 95.1595,56.1361 95.6005,56.0479 C 96.0415,55.9597 96.2179,55.6951 96.5707,55.8715 C 96.9234,56.0479 97.188,55.7833 97.188,56.2243 C 97.188,56.6653 97.0116,56.9299 97.3644,57.2826 C 97.7172,57.6354 97.5408,57.8118 98.1582,58.1646 C 98.7755,58.5174 98.9519,58.8701 99.3047,58.9583 C 99.6575,59.0465 99.922,59.0465 99.922,59.0465 L 99.922,59.0465 z "
           transform="matrix(5.2479436,0,0,5.2479436,-49.115754,120.35801)"
           style="fill:#d93141;fill-rule:evenodd;stroke:#1f1a17;stroke-width:0.17640001"
           id="_131053432" />
        <path
           d="M 97.9818,56.4889 C 98.1582,56.7535 98.3345,57.0181 98.5109,57.2826"
           transform="matrix(5.2479436,0,0,5.2479436,-49.115754,120.35801)"
           style="fill:none;fill-rule:evenodd;stroke:#1f1a17;stroke-width:0.17640001"
           id="_131055376" />
        <path
           d="M 96.3943,55.3424 C 96.3943,55.6069 96.5707,55.8715 96.5707,55.8715"
           transform="matrix(5.2479436,0,0,5.2479436,-49.115754,120.35801)"
           style="fill:none;fill-rule:evenodd;stroke:#1f1a17;stroke-width:0.17640001"
           id="_131058888" />
        <path
           d="M 119.501,71.1593 C 117.9957,70.6741 116.186,70.2472 114.4742,70.2472 C 110.5054,70.2472 108.036,72.2757 105.2138,72.2757 C 102.3915,72.2757 98.6873,70.0708 95.6005,70.0708 C 93.8649,70.0708 92.0738,70.7959 90.838,71.4306 C 90.8376,70.6184 90.8356,69.5599 90.8321,68.3469 C 92.068,67.7115 93.8621,66.984 95.6005,66.984 C 98.6873,66.984 102.3915,69.1889 105.2138,69.1889 C 108.036,69.1889 110.5054,67.1604 114.4742,67.1604 C 116.1761,67.1604 117.9749,67.5825 119.475,68.0642 C 119.4898,69.294 119.4994,70.3595 119.501,71.1593 L 119.501,71.1593 z "
           transform="matrix(5.2479436,0,0,5.2479436,-49.115754,120.35801)"
           style="fill:#193783;fill-rule:evenodd"
           id="_131062712" />
        <path
           d="M 118.466,76.4957 C 117.2029,76.1514 115.8088,75.8917 114.4741,75.8917 C 110.5053,75.8917 108.0359,77.9201 105.2137,77.9201 C 102.3914,77.9201 98.6872,75.7153 95.6004,75.7153 C 94.3023,75.7153 92.9732,76.1212 91.8685,76.5912 C 91.4988,75.6692 91.2326,74.7507 91.0633,73.8748 C 92.2857,73.2704 93.9676,72.6285 95.6004,72.6285 C 98.6872,72.6285 102.3914,74.8333 105.2137,74.8333 C 108.0359,74.8333 110.5053,72.8049 114.4741,72.8049 C 116.1022,72.8049 117.819,73.1911 119.2782,73.6463 C 119.1094,74.5533 118.842,75.5197 118.466,76.4957 z "
           transform="matrix(5.2479436,0,0,5.2479436,-49.115754,120.35801)"
           style="fill:#193783;fill-rule:evenodd"
           id="_131075496" />
        <path
           d="M 115.317,81.569 C 115.0347,81.5479 114.7535,81.5361 114.4747,81.5361 C 110.5059,81.5361 108.0365,83.5646 105.2143,83.5646 C 102.392,83.5646 98.6878,81.3597 95.601,81.3597 C 95.3775,81.3597 95.1533,81.3722 94.9292,81.3945 C 94.1456,80.5705 93.4828,79.6737 92.9331,78.7472 C 93.7802,78.4695 94.698,78.2729 95.601,78.2729 C 98.6878,78.2729 102.392,80.4778 105.2143,80.4778 C 108.0365,80.4778 110.5059,78.4493 114.4747,78.4493 C 115.4344,78.4493 116.4248,78.5838 117.3753,78.7871 C 116.8131,79.763 116.1305,80.7077 115.317,81.569 L 115.317,81.569 z "
           transform="matrix(5.2479436,0,0,5.2479436,-49.115754,120.35801)"
           style="fill:#193783;fill-rule:evenodd"
           id="_131076672" />
        <path
           d="M 112.799,63.809 C 112.799,64.3382 112.9754,64.7792 112.7108,65.2201 C 112.4462,65.6611 113.5927,64.8674 113.5927,64.8674 C 113.5927,64.8674 114.0337,64.9556 114.1219,64.4264 C 114.2101,63.8972 114.6511,62.5743 114.0337,62.4861 C 113.4163,62.3979 112.799,63.809 112.799,63.809 z "
           transform="matrix(5.2479436,0,0,5.2479436,-49.115754,120.35801)"
           style="fill:#d93141;fill-rule:evenodd;stroke:#1f1a17;stroke-width:0.17640001"
           id="_131056872" />
        <line
           id="_131058264"
           class="fil5 str0"
           x1="90.683998"
           y1="49.424999"
           x2="119.082"
           y2="49.424999"
           style="fill:none;fill-rule:evenodd;stroke:#1f1a17;stroke-width:0.17640001"
           transform="matrix(5.2479436,0,0,5.2479436,-49.115754,120.35801)" />
        <path
           d="M 119.082,49.425 C 119.082,49.425 119.4348,66.4466 119.4348,71.3855 C 119.4348,76.3243 115.6424,85.673 105.3237,85.673 C 95.0052,85.673 90.7719,76.8535 90.7719,71.65 C 90.7719,66.4466 90.6837,49.425 90.6837,49.425"
           transform="matrix(5.2479436,0,0,5.2479436,-49.115754,120.35801)"
           style="fill:none;fill-rule:evenodd;stroke:#1f1a17;stroke-width:0.17640001"
           id="_131057408" />
        <path
           d="M 107.545,52.7737 C 107.545,52.7737 107.6111,52.8033 107.6263,52.722 C 107.6415,52.6407 107.678,52.4702 107.5671,52.485 C 107.4561,52.4998 107.3445,52.722 107.3445,52.722 L 107.4561,52.7296 L 107.5891,52.7664 L 107.545,52.7737 L 107.545,52.7737 z "
           transform="matrix(5.2479436,0,0,5.2479436,-49.115754,120.35801)"
           style="fill:#1f1a17;fill-rule:evenodd;stroke:#1f1a17;stroke-width:0.17640001"
           id="_131080160" />
        <path
           d="M 119.402,47.6053 C 119.402,47.9037 119.1601,48.1459 118.8617,48.1459 L 91.3302,48.1459 C 91.0315,48.1459 90.7895,47.9037 90.7895,47.6053 C 90.7895,47.3067 91.0315,47.0645 91.3302,47.0645 L 118.8617,47.0645 C 119.1601,47.0645 119.402,47.3067 119.402,47.6053 L 119.402,47.6053 z "
           transform="matrix(5.2479436,0,0,5.2479436,-49.115754,120.35801)"
           style="fill:#fff500;fill-rule:evenodd;stroke:#1f1a17;stroke-width:0.17640001"
           id="_131081184" />
      </g>
    </g>
  </g>
</svg>
