<?xml version="1.0" encoding="UTF-8"?>
<!DOCTYPE svg PUBLIC "-//W3C//DTD SVG 1.1//EN" "http://www.w3.org/Graphics/SVG/1.1/DTD/svg11.dtd">
<!-- Creator: CorelDRAW -->
<svg xmlns="http://www.w3.org/2000/svg" xml:space="preserve" width="1000px" height="600px" style="shape-rendering:geometricPrecision; text-rendering:geometricPrecision; image-rendering:optimizeQuality; fill-rule:evenodd; clip-rule:evenodd"
viewBox="0 0 1000 600"
 xmlns:xlink="http://www.w3.org/1999/xlink">
 <defs>
  <style type="text/css">
   <![CDATA[
    .fil2 {fill:#089E5F}
    .fil1 {fill:#FEFEFE}
    .fil3 {fill:#FEFEFE}
    .fil0 {fill:#0F37A8}
   ]]>
  </style>
 </defs>
 <g id="Layer_x0020_1">
  <metadata id="CorelCorpID_0Corel-Layer"/>
  <path class="fil0" d="M134.402 0.00472441l-134.401 0.20315c0,0 0.51378,285.871 0.51378,285.871 0,0 -1.95354,-0.516142 3.49252,-1.03465 5.34331,-0.518504 -2.56772,0.622441 -2.15788,0.622441 0.411024,0 10.9949,-2.17559 16.9547,-3.21024 5.85591,-0.93189 18.9071,-3.62362 25.0725,-4.65591 6.26812,-1.03701 20.6528,-4.03819 26.4083,-4.4504 5.75315,-0.519685 16.5425,-1.76221 21.8858,-2.07166 5.44371,-0.415748 18.2906,-1.34646 23.3244,-1.44803 4.35473,-0.179528 15.4654,-0.0543308 18.3921,-0.0141732 0,0.0011811 0,0.0141732 0,0.0141732 0,0 0.120473,-0.00708662 0.347244,-0.00944883 0.00590552,0 0.0141732,0 0.0188977,0 0.230315,0.00236221 0.354331,0.00944883 0.354331,0.00944883 0,0 0,-0.0129921 0,-0.0141732 2.92677,-0.0401575 13.9417,-0.167717 18.2906,0.0141732 5.1378,0.101575 17.8784,1.03228 23.3244,1.44803 5.44607,0.309449 16.2366,1.55197 21.9886,2.07166 5.7567,0.412205 20.0398,3.41339 26.3055,4.4504 6.16536,1.03228 19.2142,3.72402 25.1764,4.65591 5.85591,1.03465 18.1854,3.41457 23.2205,4.24489 5.03622,0.724016 14.2843,1.75748 19.3181,2.48268 4.82953,0.725197 16.852,2.48386 22.1941,3.00236 5.44725,0.413386 17.5713,2.48504 22.6051,2.89725 4.17638,0.168898 15.0791,0.47126 19.011,0.57756 0,0.210236 0,0.354331 0,0.354331 0,0 15.5162,-0.311811 20.55,-0.620079 5.24174,-0.311811 17.5725,-2.38229 22.9134,-2.89961 5.34331,-0.412205 17.5713,-2.37874 22.6063,-3.00118 4.82953,-0.620079 14.2819,-1.65709 19.3181,-2.5878 5.24056,-0.724016 17.674,-3.10512 23.5311,-4.13977 6.16418,-1.03465 19.2142,-3.62362 25.4835,-4.65827 6.37087,-1.03465 20.8571,-4.03583 26.7154,-4.55433 5.75315,-0.516142 16.6465,-1.65473 22.0925,-2.06929 5.54764,-0.206693 18.4937,-1.24252 23.5299,-1.44921 4.58386,-0.180709 15.9307,-0.0484252 18.6992,-0.0106299 0,0.046063 0,0.114567 0,0.114567 0,0 13.9772,-0.207874 19.115,0 5.03386,0.206693 17.8772,1.13858 23.2217,1.44803 5.44489,0.311811 16.2343,1.55433 21.9886,2.07047 5.65276,0.414567 20.0362,3.41575 26.2028,4.4504 6.26693,1.03465 19.3181,3.72638 25.1752,4.65827 5.95867,1.03465 18.2894,3.41575 23.3256,4.2437 5.03386,0.826772 14.2819,1.86378 19.3181,2.48386 4.82717,0.726379 16.8496,2.58898 22.1917,3.10512 5.44725,0.517323 17.5713,2.48386 22.6063,2.79567 5.03622,0.308268 20.4484,0.620079 20.4484,0.620079 0,0 0,-0.158268 0,-0.38504 3.27166,0.120473 15.391,0.53504 19.7291,0.177165 5.03386,-0.311811 17.2618,-2.27717 22.6051,-2.79449 5.44725,-0.413386 17.3658,-2.37992 22.2992,-3 4.82835,-0.62126 14.1803,-1.65709 19.2142,-2.5878 5.03504,-0.724016 17.3646,-3.10512 23.3268,-4.14213 5.85591,-1.03228 18.9047,-3.62126 25.174,-4.65591 6.26693,-1.03465 20.5512,-4.03701 26.3044,-4.55433 5.75315,-0.518504 16.5425,-1.65591 21.8858,-1.96536 5.44607,-0.311811 14.3847,-2.48504 14.3847,-2.48504 0,0 0,-269.414 0,-269.414 0,0 -195.539,0 -195.539,0 0,0 0,0.0744095 0,0.206693 -12.4087,-0.00708662 -209.899,-0.0933072 -222.36,-0.0992127 0,-0.0401575 0,-0.10748 0,-0.10748 0,0 -205.412,0.184252 -224.619,0.201969 0,-0.127559 0,-0.201969 0,-0.201969 0,0 -209.84,-0.190158 -222.953,-0.20315 0.0448819,-0.0011811 0.080315,-0.00354331 0.080315,-0.00354331 0,0 -0.205512,0 -0.205512,0 0,0 0,0.00354331 0,0.00354331zm-134.401 0.20315l134.046 -0.20315c-9.22678,0.0141732 -134.046,0.20315 -134.046,0.20315zm134.046 -0.20315l0.0472441 0c0,0 0,-0.00354331 0,-0.00354331 0,0 -0.206693,0 -0.206693,0 0,0 0.0413386,0.00354331 0.159449,0.00354331z"/>
  <path class="fil1" d="M999.948 269.632l0 51.3272 -999.896 0 0.461811 -34.8803c0,0 -1.95118,-0.516142 3.49252,-1.03465 5.34449,-0.518504 -2.56654,0.622441 -2.15788,0.622441 0.411024,0 10.9961,-2.17559 16.9559,-3.21024 5.85473,-0.93189 18.9059,-3.62362 25.0725,-4.65709 6.26812,-1.03583 20.6528,-4.03701 26.4083,-4.44922 5.75315,-0.519685 16.5425,-1.76221 21.8858,-2.07166 5.44371,-0.415748 18.2906,-1.34646 23.3244,-1.44803 4.35473,-0.180709 15.4654,-0.0543308 18.3921,-0.0141732 0,0.0011811 0,0.0141732 0,0.0141732 0,0 0.120473,-0.00708662 0.347244,-0.00944883 0.00590552,0 0.0141732,0 0.0188977,0 0.230315,0.00236221 0.355512,0.00944883 0.355512,0.00944883 0,0 0,-0.0129921 0,-0.0141732 2.92677,-0.0401575 13.9406,-0.167717 18.2894,0.0141732 5.1378,0.101575 17.8784,1.03228 23.3256,1.44803 5.44489,0.309449 16.2354,1.55197 21.9874,2.07166 5.75552,0.412205 20.0398,3.41339 26.3055,4.44922 6.16418,1.03347 19.2142,3.7252 25.1752,4.65709 5.85709,1.03465 18.1854,3.41457 23.2217,4.24489 5.03622,0.724016 14.2831,1.75748 19.3181,2.48268 4.82953,0.725197 16.852,2.48386 22.1941,3.00236 5.44725,0.413386 17.5713,2.48504 22.6051,2.89725 4.17638,0.167717 15.0803,0.47126 19.0122,0.57756 0,0.210236 0,0.354331 0,0.354331 0,0 15.515,-0.311811 20.5488,-0.620079 5.24292,-0.311811 17.5736,-2.38347 22.9134,-2.89961 5.34331,-0.412205 17.5701,-2.37992 22.6063,-3.00118 4.82953,-0.62126 14.2819,-1.65709 19.3181,-2.5878 5.24056,-0.724016 17.674,-3.10512 23.5311,-4.13977 6.16418,-1.03465 19.2142,-3.62362 25.4835,-4.65827 6.37087,-1.03465 20.8571,-4.03583 26.7154,-4.55433 5.75434,-0.516142 16.6465,-1.65473 22.0937,-2.06929 5.54646,-0.206693 18.4937,-1.24252 23.5288,-1.44921 4.58386,-0.180709 15.9307,-0.0484252 18.7004,-0.0106299 0,0.046063 0,0.114567 0,0.114567 0,0 13.9772,-0.207874 19.1138,0 5.03386,0.206693 17.8772,1.13858 23.2205,1.44803 5.44607,0.311811 16.2343,1.55433 21.9898,2.07047 5.65158,0.414567 20.0351,3.41575 26.2028,4.4504 6.26693,1.03465 19.3181,3.72638 25.1752,4.65827 5.95867,1.03465 18.2906,3.41575 23.3256,4.2437 5.03386,0.826772 14.2819,1.8626 19.3181,2.48386 4.82717,0.725197 16.8508,2.58898 22.1929,3.10512 5.44607,0.516142 17.5713,2.48386 22.6051,2.79567 5.03741,0.308268 20.4484,0.620079 20.4484,0.620079 0,0 0,-0.158268 0,-0.38504 3.27048,0.120473 15.3898,0.53504 19.7291,0.177165 5.03386,-0.311811 17.2606,-2.27717 22.6051,-2.79567 5.44725,-0.412205 17.3658,-2.37874 22.2992,-3 4.82835,-0.620079 14.1803,-1.65591 19.2142,-2.58662 5.03504,-0.724016 17.3658,-3.10512 23.3268,-4.14213 5.85591,-1.03228 18.9047,-3.62126 25.174,-4.65591 6.26812,-1.03465 20.5512,-4.03701 26.3044,-4.55433 5.75315,-0.518504 16.5425,-1.65591 21.887,-1.96654 5.20867,-0.297638 13.6134,-2.30079 14.3327,-2.47441z"/>
  <polygon class="fil2" points="0.0011811,320.959 999.281,320.959 999.281,599.999 0.0011811,599.999 "/>
  <polygon class="fil3" points="434.443,490.494 430.848,522.476 400.946,527.961 428.279,542.348 423.963,573.606 444.102,550.939 471.641,564.291 457.666,535.828 477.806,513.265 449.342,519.061 "/>
  <polygon class="fil3" points="359.844,491.116 344.431,518.233 314.941,510.781 334.566,535 318.949,561.186 345.87,549.283 366.112,572.778 364.057,541.314 390.978,529.515 362.722,522.89 "/>
  <polygon class="fil3" points="292.027,462.963 268.394,482.214 243.527,464.929 253.494,493.91 229.963,512.022 259.249,510.884 270.141,539.45 278.874,510.056 308.057,508.917 283.909,492.874 "/>
  <polygon class="fil3" points="239.108,413.489 210.441,423.528 192.869,398.689 192.356,429.325 164.098,438.226 192.047,447.335 192.561,477.763 210.852,453.234 238.595,462.239 221.434,438.847 "/>
  <polygon class="fil3" points="208.283,350.042 177.867,349.214 170.058,319.716 159.064,348.386 129.367,346.835 152.488,365.051 142.315,393.824 167.9,377.263 190.814,395.479 182.902,367.431 "/>
  <polygon class="fil3" points="504.11,465.861 511.611,495.462 485.511,511.194 515.927,514.093 522.606,543.28 533.704,515.852 564.016,517.715 541.101,497.533 552.302,470.312 527.641,485.733 "/>
  <polygon class="fil3" points="560.008,414.214 577.066,439.571 557.85,463.274 587.341,455.614 603.37,480.765 604.706,451.268 633.786,442.676 605.528,431.498 606.864,402.104 588.883,424.977 "/>
  <polygon class="fil3" points="590.938,349.525 616.112,366.603 607.069,395.79 631.628,377.574 655.877,394.962 646.115,367.12 669.955,348.18 639.54,348.386 629.881,320.544 621.661,348.593 "/>
  <polygon class="fil3" points="437.012,106.09 433.004,75.7642 403.001,71.106 430.026,56.9268 425.402,27.3248 445.952,48.5433 473.182,35.3977 459.618,62.7225 479.964,83.7331 451.5,78.7654 "/>
  <polygon class="fil3" points="361.899,107.332 347.925,80.1107 318.229,85.8036 338.985,63.3438 324.702,37.0548 351.007,50.0953 372.381,28.3607 368.681,58.6855 394.986,71.6233 366.421,76.6949 "/>
  <polygon class="fil3" points="294.904,133.725 272.606,113.024 246.507,128.446 258.529,100.191 236.334,80.4213 265.517,83.6304 278.36,56.0989 285.039,85.8036 314.016,89.1154 288.841,103.399 "/>
  <polygon class="fil3" points="243.013,181.232 214.756,170.261 196.26,194.48 196.877,163.74 168.927,153.907 197.185,145.73 198.727,115.404 216.092,140.452 244.143,132.586 226.264,155.252 "/>
  <polygon class="fil3" points="208.797,243.953 178.484,243.953 169.749,273.349 159.578,244.368 129.881,244.989 153.412,227.393 144.164,198.414 169.133,215.698 192.664,198.103 183.93,225.841 "/>
  <polygon class="fil3" points="504.316,133.828 511.714,104.226 485.614,88.5981 516.03,85.5969 522.504,56.4095 533.807,83.7331 564.016,81.7666 541.307,102.053 552.507,129.17 527.847,113.956 "/>
  <polygon class="fil3" points="557.439,182.888 574.702,157.634 555.693,133.828 585.184,141.797 601.521,116.751 602.445,146.248 631.423,155.15 603.165,166.121 604.192,195.515 586.314,172.538 "/>
  <polygon class="fil3" points="591.041,246.231 615.701,228.429 605.836,199.552 630.909,217.043 654.644,198.931 645.704,227.186 669.955,245.3 639.643,246.024 630.806,273.969 621.763,246.334 "/>
 </g>
</svg>
