<?xml version="1.0" encoding="UTF-8" standalone="no"?>
<!-- Generator: Adobe Illustrator 12.0.0, SVG Export Plug-In . SVG Version: 6.00 Build 51448)  -->

<svg
   xmlns:dc="http://purl.org/dc/elements/1.1/"
   xmlns:cc="http://creativecommons.org/ns#"
   xmlns:rdf="http://www.w3.org/1999/02/22-rdf-syntax-ns#"
   xmlns:svg="http://www.w3.org/2000/svg"
   xmlns="http://www.w3.org/2000/svg"
   xmlns:sodipodi="http://sodipodi.sourceforge.net/DTD/sodipodi-0.dtd"
   xmlns:inkscape="http://www.inkscape.org/namespaces/inkscape"
   version="1.1"
   id="Layer_1"
   width="800"
   height="533"
   viewBox="0 0 800 533"
   overflow="visible"
   enable-background="new 0 0 800 533"
   xml:space="preserve"
   inkscape:version="0.48.2 r9819"
   sodipodi:docname="Flag_of_Reno,_NV.svg"><title
   id="title3016">Flag of Reno, Nevada</title><metadata
   id="metadata24"><rdf:RDF><cc:Work
       rdf:about=""><dc:format>image/svg+xml</dc:format><dc:type
         rdf:resource="http://purl.org/dc/dcmitype/StillImage" /><dc:title>Flag of Reno, Nevada</dc:title><cc:license
         rdf:resource="http://creativecommons.org/licenses/publicdomain/" /><dc:date>2011-11-25</dc:date><dc:creator><cc:Agent><dc:title>Alvaro Degives-Mas</dc:title></cc:Agent></dc:creator></cc:Work><cc:License
       rdf:about="http://creativecommons.org/licenses/publicdomain/"><cc:permits
         rdf:resource="http://creativecommons.org/ns#Reproduction" /><cc:permits
         rdf:resource="http://creativecommons.org/ns#Distribution" /><cc:permits
         rdf:resource="http://creativecommons.org/ns#DerivativeWorks" /></cc:License></rdf:RDF></metadata><defs
   id="defs22">
		
		
		
		
	</defs><sodipodi:namedview
   pagecolor="#ffffff"
   bordercolor="#666666"
   borderopacity="1"
   objecttolerance="10"
   gridtolerance="10"
   guidetolerance="10"
   inkscape:pageopacity="0"
   inkscape:pageshadow="2"
   inkscape:window-width="1783"
   inkscape:window-height="1002"
   id="namedview20"
   showgrid="false"
   showguides="true"
   inkscape:guide-bbox="true"
   inkscape:zoom="2.0647518"
   inkscape:cx="354.05984"
   inkscape:cy="293.78514"
   inkscape:window-x="0"
   inkscape:window-y="0"
   inkscape:window-maximized="0"
   inkscape:current-layer="g3" />
<g
   id="g3">
	<rect
   fill="#000080"
   width="800"
   height="533"
   id="rect5" />
	<path
   id="NV"
   d="m 282.72163,104.25597 c 0,110.88131 0,109.94409 -0.0206,271.26203 l -0.447,2.485 -1.103,5.606 -3.936,0.615 -3.522,-5.192 -5.915,0.206 -3.341,-1.4 -4.078,1.591 -1.563,1.933 -2.087,3.391 2.268,14.653 -0.359,3.807 4.645,25.251 -1.961,4.158 -4.92,-3.836 C 65.806941,244.64276 65.80403,244.161 65.80403,244.161 l 0.0029,-139.90503"
   inkscape:connector-curvature="0"
   style="fill:#ffffff"
   sodipodi:nodetypes="cccccccccccccccccc" />
	<path
   style="fill:#ffffff"
   inkscape:connector-curvature="0"
   id="path10"
   d="m 352.372,189.328 h 26.035 c 17.355,0 29.108,0.672 35.252,2.012 6.145,1.342 11.154,4.768 15.027,10.279 3.873,5.511 5.811,14.305 5.811,26.375 0,11.023 -1.369,18.432 -4.107,22.223 -2.738,3.791 -8.129,6.064 -16.17,6.822 7.283,1.805 12.178,4.221 14.684,7.248 2.504,3.027 4.063,5.809 4.676,8.34 0.611,2.533 0.918,9.504 0.918,20.914 v 37.287 h -34.125 v -46.982 c 0,-7.568 -0.602,-12.256 -1.803,-14.061 -1.202,-1.805 -4.35,-2.707 -9.448,-2.707 v 63.75 h -36.75 v -141.5 z m 36.75,24.25 v 31.5 c 4.16,0 7.074,-0.568 8.744,-1.705 1.67,-1.137 2.506,-4.828 2.506,-11.07 v -7.787 c 0,-4.492 -0.807,-7.438 -2.418,-8.838 -1.611,-1.399 -4.555,-2.1 -8.832,-2.1 z" /><path
   style="fill:#ffffff"
   inkscape:connector-curvature="0"
   id="path12"
   d="m 448.796,189.328 h 61.375 v 28.375 h -24.625 v 26.875 h 23 v 26.875 h -23 v 31 h 27 v 28.375 h -63.75 v -141.5 z" /><path
   style="fill:#ffffff"
   inkscape:connector-curvature="0"
   id="path14"
   d="m 605.316,189.328 v 141.5 h -32.25 l -19.125,-64.326 v 64.326 h -30.75 v -141.5 h 30.75 l 20.625,63.715 v -63.715 h 30.75 z" /><path
   style="fill:#ffffff"
   inkscape:connector-curvature="0"
   id="path16"
   d="m 704.14,272.188 c 0,14.223 -0.336,24.293 -1.006,30.209 -0.67,5.916 -2.768,11.322 -6.293,16.219 -3.525,4.897 -8.289,8.656 -14.289,11.279 -6.002,2.621 -12.994,3.934 -20.975,3.934 -7.574,0 -14.377,-1.24 -20.408,-3.715 -6.031,-2.477 -10.881,-6.193 -14.551,-11.148 -3.672,-4.953 -5.855,-10.346 -6.555,-16.174 -0.7,-5.828 -1.049,-16.029 -1.049,-30.604 v -24.219 c 0,-14.223 0.334,-24.291 1.004,-30.207 0.67,-5.916 2.768,-11.322 6.293,-16.219 3.525,-4.897 8.289,-8.656 14.291,-11.279 6,-2.623 12.992,-3.936 20.975,-3.936 7.574,0 14.375,1.24 20.406,3.717 6.031,2.477 10.881,6.193 14.553,11.146 3.67,4.955 5.855,10.348 6.555,16.176 0.7,5.828 1.049,16.029 1.049,30.602 v 24.219 z m -36.75,-46.485 c 0,-6.58 -0.367,-10.787 -1.102,-12.623 -0.734,-1.834 -2.246,-2.752 -4.535,-2.752 -1.938,0 -3.42,0.744 -4.447,2.229 -1.027,1.485 -1.541,5.867 -1.541,13.146 v 66.043 c 0,8.211 0.336,13.277 1.012,15.199 0.676,1.922 2.246,2.883 4.713,2.883 2.523,0 4.139,-1.105 4.844,-3.318 0.703,-2.213 1.057,-7.484 1.057,-15.813 v -64.994 z" />
	<polygon
   fill="#000080"
   points="95.606,218.776 102.078,214.047 94.056,214.047 91.582,206.503 89.108,214.047 81.086,214.047    87.558,218.776 85.022,226.511 91.582,221.716 98.142,226.511  "
   id="polygon18" />
</g>
<g
   inkscape:groupmode="layer"
   id="layer1"
   inkscape:label="Layer" /></svg>