<?xml version="1.0" encoding="UTF-8" standalone="no"?>
<!-- Created with Inkscape (http://www.inkscape.org/) -->
<svg
   xmlns:svg="http://www.w3.org/2000/svg"
   xmlns="http://www.w3.org/2000/svg"
   xmlns:xlink="http://www.w3.org/1999/xlink"
   version="1.0"
   width="1000"
   height="600"
   id="svg2278">
  <defs
     id="defs2280">
    <clipPath
       id="XMLID_69_">
		<rect
   width="359.29999"
   height="240.2"
   x="77.199997"
   y="75.099998"
   id="use2836" />

	</clipPath>
    <clipPath
       id="XMLID_68_">
		<path
   d="M 256.9,510.1 C 157.7,510.1 77.2,429.7 77.2,330.5 L 436.5,330.5 C 436.5,429.6 356.1,510.1 256.9,510.1"
   id="use2674" />

	</clipPath>
    <clipPath
       id="XMLID_67_">
		<path
   d="M 256.9,510.1 C 157.7,510.1 77.2,429.7 77.2,330.5 L 77.2,75.1 L 436.5,75.1 L 436.5,330.3 C 436.5,429.6 356.1,510.1 256.9,510.1"
   id="use2628" />

	</clipPath>
  </defs>
  <g
     id="layer1">
    <rect
       width="1000"
       height="300"
       x="0"
       y="0"
       style="fill:#fcd116"
       id="rect2376" />
    <rect
       width="1000"
       height="300"
       x="0"
       y="300"
       style="fill:black"
       id="rect2378" />
    <g
       transform="matrix(0.685775,0,0,0.685775,324.6645,99.14362)"
       id="g2747">
      <rect
         width="359.29999"
         height="240.2"
         x="77.199997"
         y="75.099998"
         style="fill:#ebbd00"
         id="rect2610" />
      <rect
         width="353.29999"
         height="23.700001"
         x="80.099998"
         y="102"
         id="rect2612" />
      <rect
         width="353.29999"
         height="23.700001"
         x="80.099998"
         y="149.39999"
         id="rect2614" />
      <rect
         width="353.29999"
         height="23.700001"
         x="80.099998"
         y="246.39999"
         id="rect2616" />
      <rect
         width="353.29999"
         height="23.700001"
         x="80.099998"
         y="197.2"
         id="rect2618" />
      <rect
         width="353.29999"
         height="23.700001"
         x="80.099998"
         y="293.39999"
         id="rect2620" />
      <g
         id="g2622">
	<defs
   id="defs2624">
  <path
     d="M 256.9,510.1 C 157.7,510.1 77.2,429.7 77.2,330.5 L 77.2,75.1 L 436.5,75.1 L 436.5,330.3 C 436.5,429.6 356.1,510.1 256.9,510.1"
     id="XMLID_60_" />
</defs>

	<clipPath
   id="clipPath2926">
		<use
   id="use2928"
   x="0"
   y="0"
   width="744.09448"
   height="1052.3622"
   xlink:href="#XMLID_60_" />

	</clipPath>

	<rect
   width="359.29999"
   height="194.8"
   x="77.199997"
   y="315.29999"
   style="fill:white"
   clip-path="url(#XMLID_67_)"
   id="rect2630" />

</g>
      <path
         d="M 256.9,510.1 C 157.7,510.1 77.2,429.7 77.2,330.5 L 77.2,75.1 L 436.5,75.1 L 436.5,330.3 C 436.5,429.6 356.1,510.1 256.9,510.1 z "
         style="fill:none;stroke:white;stroke-width:0.039;stroke-miterlimit:3.86400008"
         id="path2632" />
      <rect
         width="111.6"
         height="122"
         x="325"
         y="76.099998"
         id="rect2634" />
      <rect
         width="110.6"
         height="122"
         x="325.89999"
         y="75.099998"
         style="fill:white"
         id="rect2636" />
      <path
         d="M 392.5,117.9 C 386.1,118 387.1,112.8 387.9,108.9 C 388.7,105 389.9,102.8 390.3,99.6 C 390.6,97.6 389.8,96.8 388.5,96.3 C 386.7,95.6 386,95.6 384.4,95.2 C 382.2,94.6 380.9,93.3 378.8,93.6 C 378.1,93.7 377.8,94.3 377.4,94.9 C 376.7,94.8 375.6,94.7 374.1,94.8 C 372.3,94.8 370.6,95.3 369.8,96.4 C 369,97.5 368.8,98.7 368.6,99.9 C 368.5,101.1 368.2,101.8 368,103 C 369,102.3 370.8,101.2 372,101.2 C 373,101.2 373.5,101.3 374.4,101.7 C 373.5,102.3 371.1,103.4 368.8,103.7 C 367.2,103.9 366.3,103.9 364.7,103.7 C 364.1,103.6 363.4,103.7 363.2,104.3 C 362.7,105.6 367,107.2 369.7,107 C 370.8,106.9 371.4,106.8 372.5,106.3 C 372.3,106.8 371.9,107.2 371.4,107.8 C 371.2,108.1 371.1,108.3 370.8,108.6 C 372.1,108.3 373.5,108.8 376.1,106.6 C 377.1,105.8 377.7,105.3 378.5,104.2 C 378.3,106.4 378.1,107.7 377.3,109.8 C 376.5,112 375.8,113.8 374.6,115.3 C 373.2,116.9 370.3,117.9 368.1,117.8 C 364,117.7 360.1,113.4 360.2,109.2 C 360.3,104.8 363.1,99.7 364.2,97 C 364.7,95.6 365.3,92.8 364.2,92.1 C 361.9,90.7 357,90.6 353.8,90.6 C 347.6,90.6 345.8,90.8 339.8,90.9 C 336.3,91 334.3,91 330.8,91.1 C 331,96.2 333.7,99.2 338.4,100.1 C 341.5,100.7 346.4,100.6 349.8,100.8 C 350.4,100.8 354.2,100.7 354.2,101.4 C 354.2,101.8 352.9,101.9 352.5,101.9 C 348.9,102.1 346.5,102.2 342.3,102.2 C 338.1,102.2 335.9,102.2 331.2,102.2 C 331.3,104.3 331.6,105.9 333.1,107.8 C 335.4,110.5 339.9,111 342.6,111 C 345.4,111.1 347.5,110.9 349.6,111 C 351.1,111.1 353.3,111.3 353.2,111.7 C 353.2,112.3 351.6,112.2 350.3,112.2 C 343.9,112.3 336.1,112.1 330.3,112.1 C 330.3,114.2 330.7,116.5 332.5,118.4 C 334.5,120.6 338.4,121.3 341.2,121.5 C 345.3,121.6 348.4,121.3 352.8,121.5 C 353.1,121.5 353.7,121.4 353.7,121.6 C 353.7,121.8 353.2,121.9 352.8,121.9 C 348.6,122.5 345.6,123 341,123.5 C 336.8,124 334.5,124.3 330.3,124.7 C 331.1,127.8 332.4,129.8 335.2,131.3 C 337.4,132.4 339.9,132.7 343.2,132.6 C 348,132.4 352,131.5 357.2,130.9 C 357.7,130.8 358.5,130.6 358.5,130.8 C 358.5,130.9 358,131.1 357.6,131.2 C 353.6,132.4 349.6,133.7 344.5,135.1 C 338.8,136.7 335.6,137.5 329.8,138.9 C 334.6,143.9 336.8,145.3 339.3,145.5 C 342.5,145.7 346.9,143.6 351.4,141.5 C 354.3,140.1 356.9,138.9 359.6,137.6 C 359.9,137.5 360.3,137.3 360.3,137.4 C 360.4,137.5 359.9,137.8 359.6,138 C 355.3,140.6 351.5,142.5 346.5,145.6 C 343.2,147.7 341.4,148.8 338.1,151 C 341.3,152.2 344.1,153.6 347.8,153.6 C 350,153.6 351.8,153.2 353.6,151.8 C 355.4,150.4 357,148.7 359.2,146.7 C 361.3,144.8 362.2,143.7 364.5,141.6 C 364.8,141.4 365.3,140.8 365.4,140.9 C 365.5,141.1 365,141.5 364.7,141.8 C 361.4,146 359.2,148.5 355.2,153.3 C 359.4,153.4 361.6,153.3 365.1,151.9 C 369.4,150.1 371.2,148.1 373.7,144.9 C 374,144.5 374,145.4 373.9,145.8 C 373.5,147.1 370.6,149.7 368.7,151.2 C 365.9,153.3 362.8,155.1 359.7,156.9 C 360.3,157 360.6,157.1 361.2,157.4 C 361.7,157.6 361.9,157.8 362.3,158.2 C 360.8,159.5 359.6,160.9 358.1,161.9 C 356.6,162.9 355.1,163.3 353.4,163.4 C 352,163.5 351.4,163.5 350,163.4 C 349.5,163.3 348.9,163.2 348.3,163.2 C 348,163.2 347.9,163.5 347.7,163.8 C 347.2,163.8 346.9,163.9 346.5,164.1 C 345.4,164.6 344.6,165.3 344.5,166.6 C 344.4,167.7 344.8,168.6 345.7,169.2 C 345.8,168.5 346,168 346.6,167.6 C 346.9,167.4 347.2,167.3 347.6,167.2 C 347.6,167.5 348.1,167.6 348.5,167.6 C 348.9,167.6 349.3,167.4 349.8,167.3 C 350.3,167.2 350.6,167.2 351.2,167.1 C 349.9,167.9 348.9,168.5 347.9,169.2 C 347.5,169.5 347.2,169.6 347.1,170.1 C 347,170.4 347.1,170.6 347.3,171 C 346.8,171.9 346.6,172.9 346.9,174 C 347.2,175.1 348.5,176 350.1,176.4 C 349.8,175.6 349.8,175.2 349.8,174.5 C 349.8,174.1 349.9,173.9 350,173.5 C 350.4,173.6 350.7,173.5 351,173.2 C 351.5,172.6 351.8,172.3 352.3,171.7 C 352.9,171 353.2,170.6 353.8,170 C 353.5,171.1 353.3,171.7 353,172.8 C 352.7,173.7 352.5,173.9 352.3,175.2 C 352.3,175.5 352.5,175.7 352.8,175.9 C 352.8,177.7 353.3,178.6 354.6,179.4 C 355.7,180 357.8,180.2 359,179.9 C 358,179.5 357.4,179 356.9,178 C 356.6,177.5 356.5,177.2 356.4,176.6 C 356.8,176.5 357.1,176.4 357.2,175.7 C 357.4,174.3 357.5,173.6 357.7,172.3 C 357.8,171.5 358.1,170.1 358.3,170.2 C 358.8,170.8 359.2,171.4 359.8,172.3 C 360.1,172.8 360.4,173 360.9,172.9 C 361.2,172.8 361.3,172.7 361.5,172.5 C 361.8,172.8 361.9,173 362,173.4 C 362.1,174 362,174.3 361.7,175 C 363.1,175.2 364.5,174.6 364.9,173.3 C 365.4,171.8 364.6,170.2 363.9,169.5 C 364.2,168.9 363.9,168.4 363.5,168 C 362.4,166.9 361.5,166.6 361.3,166.3 C 360.8,165.7 361,165.3 361.3,164.8 C 362,163.8 362.3,163.4 363.1,162.7 C 363.9,161.9 364.4,161.5 365.3,161 C 365.8,161.5 366.1,161.8 366.5,162.3 C 367,162.9 367.2,163.3 367.6,164 C 368.2,162.9 368.6,162.3 369.4,161.3 C 370.3,160.1 370.8,159.4 371.8,158.3 C 372.8,157.3 374.1,156.2 374.3,155.9 C 374.6,155.5 375.1,156.8 375.4,157.6 C 375.7,158.3 375.5,158.8 375.4,159.6 C 374.6,162.8 372.3,167.9 370.3,171.4 C 367.4,176.4 363.8,180.4 359.9,184.8 C 361.4,185.4 363.4,185.6 365.7,185.5 C 367.9,185.4 370.3,185.1 372.7,184.5 C 373.9,185.9 374.6,186.6 375.9,187.8 C 377.6,189.3 378.6,190 380.4,191.2 C 382.2,190 383.3,189.2 384.9,187.8 C 386.3,186.6 387,185.9 388.2,184.5 C 390.6,185 393,185.3 395.2,185.5 C 397.4,185.6 399.5,185.4 400.9,184.8 C 397,180.3 393.4,176.3 390.5,171.4 C 388.5,167.9 386.2,162.8 385.4,159.6 C 385.2,158.8 385.1,158.3 385.4,157.6 C 385.7,156.8 386.2,155.4 386.5,155.9 C 386.8,156.2 388.1,157.3 389.1,158.3 C 390.1,159.4 390.6,160.1 391.5,161.3 C 392.2,162.3 392.6,162.9 393.3,164 C 393.7,163.3 393.9,162.9 394.4,162.3 C 394.8,161.8 395.1,161.5 395.6,161 C 396.5,161.6 397,162 397.8,162.7 C 398.6,163.5 398.9,163.8 399.6,164.8 C 399.9,165.3 400.1,165.6 399.6,166.3 C 399.4,166.6 398.4,166.9 397.4,168 C 397,168.4 396.8,168.9 397,169.5 C 396.3,170.1 395.5,171.7 396,173.3 C 396.4,174.6 397.8,175.2 399.2,175 C 398.9,174.3 398.8,174 398.9,173.4 C 399,173 399.1,172.8 399.4,172.5 C 399.5,172.7 399.7,172.9 400,172.9 C 400.5,173 400.8,172.7 401.1,172.3 C 401.7,171.4 402.1,170.8 402.6,170.2 C 402.8,170.2 403.1,171.5 403.2,172.3 C 403.4,173.7 403.5,174.4 403.7,175.7 C 403.8,176.3 404.1,176.5 404.5,176.6 C 404.4,177.2 404.3,177.5 404,178 C 403.5,179 402.9,179.5 401.9,179.9 C 403.1,180.1 405.2,179.9 406.3,179.4 C 407.6,178.7 408.2,177.7 408.1,175.9 C 408.5,175.8 408.7,175.6 408.6,175.2 C 408.4,174 408.2,173.8 407.9,172.8 C 407.6,171.7 407.4,171.1 407.1,170 C 407.7,170.7 408,171 408.6,171.7 C 409.1,172.3 409.4,172.6 409.8,173.2 C 410.1,173.6 410.4,173.6 410.8,173.5 C 410.9,173.9 411,174.1 411,174.5 C 411,175.2 411,175.7 410.7,176.4 C 412.2,176 413.5,175.1 413.8,174 C 414.2,172.9 413.9,171.9 413.4,171 C 413.6,170.6 413.7,170.3 413.6,170.1 C 413.5,169.6 413.2,169.5 412.8,169.2 C 411.8,168.5 410.7,167.9 409.5,167.1 C 410.1,167.2 410.4,167.2 410.9,167.3 C 411.4,167.4 411.8,167.6 412.2,167.6 C 412.6,167.6 413,167.6 413.1,167.2 C 413.5,167.2 413.8,167.3 414.1,167.6 C 414.7,168 415,168.5 415,169.2 C 415.9,168.6 416.3,167.7 416.2,166.6 C 416.1,165.4 415.3,164.7 414.2,164.1 C 413.7,163.9 413.5,163.8 413,163.8 C 412.9,163.5 412.7,163.1 412.4,163.2 C 411.8,163.3 411.3,163.4 410.7,163.4 C 409.4,163.6 408.7,163.6 407.3,163.4 C 405.6,163.3 404.1,162.9 402.5,161.9 C 400.9,160.9 399.8,159.4 398.3,158.2 C 398.7,157.8 398.9,157.6 399.4,157.4 C 399.9,157.1 400.3,157 400.9,156.9 C 397.8,155.1 394.7,153.3 391.9,151.2 C 390,149.7 387.1,147.1 386.7,145.8 C 386.6,145.4 386.6,144.5 386.9,144.9 C 389.4,148.1 391.2,150.2 395.5,151.9 C 399,153.3 401.2,153.4 405.4,153.3 C 401.4,148.5 399.2,146 395.9,141.8 C 395.6,141.5 395.1,141 395.2,140.9 C 395.3,140.8 395.8,141.3 396.1,141.6 C 398.5,143.7 399.4,144.8 401.5,146.7 C 403.6,148.7 405.3,150.4 407.1,151.8 C 408.8,153.2 410.6,153.6 412.9,153.6 C 416.6,153.5 419.4,152.2 422.6,151 C 419.4,148.8 417.5,147.7 414.2,145.6 C 409.2,142.5 405.5,140.6 401.1,138 C 400.8,137.8 400.3,137.6 400.4,137.4 C 400.4,137.3 400.8,137.5 401.1,137.6 C 403.8,138.8 406.4,140.1 409.4,141.5 C 413.9,143.6 418.2,145.8 421.5,145.5 C 424,145.3 426.2,143.9 431,138.9 C 425.2,137.5 422,136.7 416.3,135.1 C 411.2,133.7 407.2,132.4 403.2,131.2 C 402.9,131.1 402.3,131 402.3,130.8 C 402.3,130.7 403.1,130.8 403.6,130.9 C 408.8,131.5 412.8,132.4 417.6,132.6 C 420.8,132.8 423.4,132.5 425.6,131.3 C 428.4,129.9 429.7,127.8 430.5,124.7 C 426.3,124.3 424,124 419.8,123.5 C 415.2,122.9 412.2,122.4 408,121.9 C 407.7,121.9 407.1,121.8 407.1,121.6 C 407.1,121.4 407.6,121.5 408,121.5 C 412.3,121.3 415.5,121.6 419.6,121.5 C 422.4,121.4 426.2,120.7 428.3,118.4 C 430,116.5 430.4,114.3 430.5,112.1 C 424.7,112.2 416.9,112.4 410.5,112.2 C 409.2,112.2 407.7,112.3 407.6,111.7 C 407.6,111.3 409.8,111 411.2,111 C 413.4,110.9 415.4,111 418.3,111 C 420.9,110.9 425.5,110.5 427.7,107.8 C 429.2,106 429.5,104.4 429.7,102.2 C 424.9,102.2 422.8,102.2 418.5,102.2 C 414.2,102.2 411.9,102.1 408.3,101.9 C 407.8,101.9 406.5,101.8 406.5,101.4 C 406.5,100.7 410.3,100.9 410.9,100.8 C 414.4,100.7 419.2,100.7 422.4,100.1 C 427,99.2 429.7,96.2 429.9,91.1 C 426.4,91 424.3,91 420.9,90.9 C 414.9,90.8 413.2,90.6 407,90.6 C 403.8,90.6 398.9,90.6 396.6,92.1 C 395.4,92.8 396,95.6 396.6,97 C 397.7,99.8 400.5,104.8 400.6,109.2 C 400.5,113.6 396.6,117.8 392.5,117.9"
         id="path2638" />
      <path
         d="M 380.2,190.5 C 378.8,189.6 378,189.1 376.7,188 C 375,186.6 374.1,185.7 372.8,184 C 370.3,184.6 368.9,184.8 366.3,184.9 C 364.2,185 363.1,184.9 361,184.7 C 364.4,180.6 367,178.1 369.9,173.1 C 372.8,168.2 374.8,163.7 375.8,159.7 C 376,159 376,158.2 375.7,157.5 C 375.2,156.6 374.9,154.7 373.8,155.5 C 372.4,156.5 371.5,157.5 370.2,158.9 C 368.9,160.3 368.3,161.2 367.2,162.8 C 366.3,161.4 365.7,160.7 364.5,159.6 C 363.3,158.4 362.6,157.8 361.2,156.9 C 363.8,155.2 365.8,154.2 368.6,152.1 C 370.7,150.5 373.2,148.4 374.1,146.7 C 374.5,145.9 374.4,145 374.2,144.3 C 374.1,143.9 373.6,143.6 372.9,144.5 C 371.8,146 369.9,148.3 367.7,149.7 C 364.4,151.9 360,152.9 356.3,152.8 C 358.5,150.3 359.7,148.9 361.8,146.3 C 363.4,144.4 364.3,143.4 365.8,141.3 C 366,141 366.3,140.7 366.3,140 C 366.3,139.3 365.4,139.6 364.9,140 C 362,142.5 360.2,144.5 357.5,147 C 354.2,150 351.7,152.9 347.7,152.9 C 344.4,152.8 341.9,151.8 339.3,150.7 C 343.8,147.8 346.3,146.2 350.8,143.5 C 354.8,141.1 357.9,139.4 361.2,137.3 C 361.7,137 361.7,136.5 361.5,136.3 C 361.2,136.1 360.6,136.2 359.9,136.4 C 357.4,137.4 354.8,138.6 351.6,140.1 C 347.2,142.2 342.9,144.4 339.2,144.6 C 336.2,144.8 332.7,141.1 330.7,139 C 336.6,137.6 339.9,136.8 345.7,135.2 C 350.4,133.9 352.7,133.1 357.7,131.6 C 358.7,131.3 358.9,130.9 358.9,130.6 C 358.8,130 358.4,129.8 357.3,129.9 C 353.6,130.4 344.9,131.9 342.2,131.9 C 336.8,131.8 332.3,130.7 330.7,125.3 C 335.2,124.9 337.8,124.6 342.3,123.9 C 346.5,123.4 348.7,122.9 352.9,122.3 C 353.8,122.2 353.8,121.6 353.8,121.3 C 353.8,120.9 353.8,120.7 352.7,120.6 C 347.3,120.2 343.9,120.9 339.1,120.4 C 334.5,120 330.8,117.4 330.5,112.6 C 334.9,112.7 337.3,112.8 341.7,112.8 C 345.7,112.8 346.8,112.7 352,112.7 C 352.7,112.7 353.3,112.2 353.3,111.8 C 353.3,111.4 353.2,110.8 352.4,110.6 C 349.5,110.1 348.8,110 346.4,110 C 342.8,110 339.5,110 337.1,109.3 C 333.8,108.4 331.8,106.7 331.4,102.7 C 335.6,102.7 338,102.6 342.2,102.6 C 346.2,102.6 349.7,102.5 353,102.3 C 353.3,102.3 354.5,102.1 354.5,101 C 354.5,100 352.7,99.8 352.2,99.8 C 347.8,99.8 347.2,99.7 343.8,99.6 C 340.2,99.5 336.6,99.2 334.6,97.7 C 331.9,95.8 331.6,94.4 331.2,91.7 C 334.9,91.6 338.3,91.3 342,91.3 C 350.3,91.3 357.8,90.4 362.5,92 C 364,92.5 363.7,93.9 363.4,95 C 362.6,98.1 360.6,101 359.4,105.6 C 358.9,107.3 358.6,109.9 359.6,112.3 C 360.9,115.5 364.5,118.3 367.8,118.3 C 370.4,118.3 373.5,117.1 375.3,114.7 C 377.3,112.1 378.8,105.7 378.8,103 C 378.8,100.1 377.3,98.4 377.4,96.3 C 377.5,95.2 377.9,93.8 379.1,93.9 C 380.8,94 382.2,95.1 384.3,95.6 C 386,96 387.4,96.4 388.6,96.8 C 389.6,97.2 389.6,98.6 389.4,99.6 C 388.7,102.9 387.6,105.3 386.9,109 C 386.5,111 386.1,112.1 386.4,113.8 C 386.6,115.4 387.1,116.6 388.6,117.5 C 389.6,118.1 391.2,118.4 392.2,118.3 C 395.5,118.3 399.1,115.5 400.4,112.3 C 401.4,109.9 401,107.3 400.6,105.6 C 399.4,101.1 397.4,98.1 396.6,95 C 396.3,93.9 396.1,92.5 397.5,92 C 402.2,90.4 409.7,91.2 418,91.3 C 421.7,91.3 425.1,91.6 428.8,91.7 C 428.4,94.4 428.1,95.8 425.4,97.7 C 423.3,99.2 419.8,99.4 416.2,99.6 C 412.8,99.7 412.2,99.8 407.8,99.8 C 407.3,99.8 405.5,100 405.5,101 C 405.5,102.1 406.6,102.3 407,102.3 C 410.3,102.5 413.8,102.6 417.8,102.6 C 422,102.6 424.4,102.7 428.6,102.7 C 428.2,106.6 426.1,108.4 422.9,109.3 C 420.5,110 417.2,110 413.6,110 C 411.2,110 410.5,110.1 407.6,110.6 C 406.7,110.7 406.7,111.3 406.6,111.8 C 406.6,112.2 407.2,112.7 407.9,112.7 C 413.1,112.7 414.2,112.8 418.2,112.8 C 422.6,112.8 425.1,112.7 429.4,112.6 C 429.1,117.4 425.4,120 420.8,120.4 C 416,120.9 412.6,120.2 407.2,120.6 C 406.1,120.7 406.1,120.8 406.1,121.3 C 406.1,121.6 406.1,122.1 407,122.3 C 411.3,122.9 413.5,123.3 417.6,123.9 C 422.1,124.5 424.7,124.8 429.2,125.3 C 427.6,130.6 423,131.8 417.7,131.9 C 415.1,131.9 406.3,130.4 402.7,129.9 C 401.6,129.8 401.2,130 401.1,130.6 C 401.1,130.9 401.2,131.3 402.3,131.6 C 407.3,133.1 409.6,133.9 414.3,135.2 C 420.1,136.8 423.4,137.7 429.3,139 C 427.4,141.1 423.8,144.7 420.8,144.6 C 417,144.4 412.8,142.2 408.4,140.1 C 405.2,138.6 402.6,137.3 400.1,136.4 C 399.4,136.1 398.8,136.1 398.6,136.3 C 398.3,136.5 398.4,137 398.8,137.3 C 402.1,139.4 405.2,141 409.2,143.5 C 413.7,146.3 416.3,147.8 420.8,150.7 C 418.2,151.7 415.8,152.8 412.4,152.9 C 408.4,153 405.9,150 402.6,147 C 399.8,144.5 398.1,142.5 395.1,140 C 394.6,139.6 393.8,139.3 393.7,140 C 393.7,140.6 394,141 394.2,141.3 C 395.7,143.4 396.6,144.3 398.2,146.3 C 400.3,148.8 401.5,150.3 403.6,152.8 C 399.9,152.9 395.6,151.9 392.3,149.7 C 390.1,148.2 388.2,145.9 387.1,144.5 C 386.4,143.6 385.9,144 385.8,144.3 C 385.6,145 385.5,145.9 385.9,146.7 C 386.8,148.4 389.3,150.5 391.4,152.1 C 394.2,154.2 396.2,155.2 398.8,156.9 C 397.4,157.8 396.7,158.4 395.5,159.6 C 394.3,160.8 393.7,161.5 392.8,162.8 C 391.8,161.2 391.1,160.3 389.8,158.9 C 388.5,157.5 387.6,156.5 386.2,155.5 C 385.2,154.7 384.8,156.6 384.3,157.5 C 383.9,158.2 384,159 384.2,159.7 C 385.3,163.7 387.2,168.2 390.1,173.1 C 393,178 395.6,180.6 399.1,184.7 C 397.1,185 395.9,185 393.8,184.9 C 391.2,184.8 389.8,184.6 387.3,184 C 385.9,185.7 385.1,186.6 383.4,188 C 382.4,189.1 381.6,189.7 380.2,190.5"
         id="path2640" />
      <path
         d="M 361.7,172 C 361.9,171.7 362,171.5 362.2,171.1 C 362.5,170.7 362.7,170.5 363,170.2 C 363.7,170.8 363.9,171.5 363.9,172.3 C 363.9,173.7 363.4,173.8 362.6,174.2 C 362.7,173.7 362.7,173.4 362.5,172.9 C 362.3,172.6 362.1,172.3 361.7,172"
         style="fill:white"
         id="path2642" />
      <path
         d="M 355.3,176.9 C 354.9,176.9 354.7,176.9 354.3,176.8 C 354,176.7 353.8,176.7 353.4,176.6 C 353.4,177.2 353.5,177.6 353.9,178.1 C 354.5,178.8 355.1,179 356.3,179.4 C 356,179.1 355.8,178.8 355.6,178.4 C 355.4,177.7 355.3,177.4 355.3,176.9"
         style="fill:white"
         id="path2644" />
      <path
         d="M 349.1,173.3 C 348.8,173.1 348.7,173 348.5,172.8 C 348.2,172.5 348.1,172.4 347.8,172.1 C 347.6,172.6 347.5,172.9 347.5,173.5 C 347.6,174.5 348,175.2 348.9,175.7 C 348.8,175.3 348.8,175 348.8,174.6 C 348.8,174 348.9,173.7 349.1,173.3"
         style="fill:white"
         id="path2646" />
      <path
         d="M 347.4,164.8 C 346.7,164.9 346.3,165.1 345.8,165.6 C 345.2,166.3 345.1,167.1 345.4,167.9 C 345.6,167.4 345.8,167.2 346.2,166.9 C 346.5,166.7 346.8,166.6 347.3,166.6 C 347.3,166.2 347.3,166 347.3,165.7 C 347.4,165.3 347.4,165.1 347.4,164.8"
         style="fill:white"
         id="path2648" />
      <path
         d="M 362.8,159 C 363.2,159.2 363.4,159.4 363.7,159.7 C 364,160 364.2,160.2 364.5,160.6 C 363.4,161.3 362.9,161.8 362,162.7 C 361.3,163.5 360.8,163.9 360.3,164.9 C 359.9,165.6 359.9,166.5 360.4,167 C 361,167.7 361.4,167.7 362,168.2 C 362.4,168.5 362.7,168.7 363.1,169.1 C 362.6,169.6 362.3,169.9 361.9,170.5 C 361.4,171.1 361.1,171.5 360.7,172.2 C 359.8,171 359.4,170.5 358.9,169.8 C 358.5,169.3 357.8,169.1 357.4,170.3 C 357.1,171.1 357,171.8 356.8,172.7 C 356.6,174.2 356.5,174.9 356.3,176 C 355.7,176.1 355.4,176.1 354.8,176 C 354.2,175.9 353.8,175.7 353.3,175.4 C 353.6,174.5 353.8,174 354,173.1 C 354.3,172 354.4,171.7 354.7,170.4 C 354.8,170 354.8,169.5 354.5,169.3 C 354,169 353.6,169.3 353.1,169.9 C 352.5,170.7 352.2,171.1 351.5,171.8 C 351.1,172.3 350.9,172.6 350.4,173.1 C 349.8,172.8 349.5,172.6 349.1,172.1 C 348.6,171.6 348.4,171.3 348,170.6 C 348.8,170 349.3,169.7 350.2,169.1 C 351.1,168.5 351.8,168.1 352.6,167.5 C 352.9,167.3 353,167 352.9,166.7 C 352.8,166.3 352.2,166.3 351.8,166.4 C 351.1,166.5 350.6,166.6 349.8,166.7 C 349.3,166.8 348.9,166.8 348.3,166.9 C 348.3,166.5 348.3,166.2 348.4,165.8 C 348.4,165.2 348.5,164.9 348.6,164.3 C 349.6,164.5 350.2,164.6 351.3,164.7 C 352.9,164.8 353.9,164.7 355.6,164.3 C 356.9,163.9 357.7,163.6 358.8,162.8 C 359.8,162.2 360.2,161.6 361.1,160.8 C 361.6,160.1 362.1,159.7 362.8,159"
         style="fill:#ebbd00"
         id="path2650" />
      <path
         d="M 398.8,172 C 398.6,171.7 398.5,171.5 398.3,171.1 C 398,170.7 397.8,170.5 397.5,170.2 C 396.8,170.8 396.6,171.5 396.6,172.3 C 396.6,173.7 397.1,173.8 397.9,174.2 C 397.8,173.7 397.8,173.4 398,172.9 C 398.1,172.6 398.3,172.3 398.8,172"
         style="fill:white"
         id="path2652" />
      <path
         d="M 405.1,176.9 C 405.5,176.9 405.7,176.9 406.1,176.8 C 406.4,176.7 406.6,176.7 407,176.6 C 407,177.2 406.9,177.6 406.5,178.1 C 405.9,178.8 405.3,179 404.1,179.4 C 404.4,179.1 404.6,178.8 404.8,178.4 C 405,177.7 405.1,177.4 405.1,176.9"
         style="fill:white"
         id="path2654" />
      <path
         d="M 411.3,173.3 C 411.6,173.1 411.7,173 411.9,172.8 C 412.2,172.5 412.3,172.4 412.6,172.1 C 412.8,172.6 412.9,172.9 412.8,173.5 C 412.7,174.5 412.3,175.2 411.4,175.7 C 411.5,175.3 411.5,175 411.5,174.6 C 411.6,174 411.5,173.7 411.3,173.3"
         style="fill:white"
         id="path2656" />
      <path
         d="M 413,164.8 C 413.7,164.9 414.1,165.1 414.6,165.6 C 415.2,166.3 415.3,167.1 415,167.9 C 414.8,167.4 414.6,167.2 414.2,166.9 C 413.8,166.7 413.6,166.6 413.2,166.6 C 413.2,166.2 413.2,166 413.2,165.7 C 413.1,165.3 413,165.1 413,164.8"
         style="fill:white"
         id="path2658" />
      <path
         d="M 397.7,159 C 397.3,159.2 397.1,159.4 396.8,159.7 C 396.5,160 396.3,160.2 396,160.6 C 397.1,161.3 397.7,161.8 398.6,162.7 C 399.3,163.5 399.8,163.9 400.3,164.9 C 400.7,165.6 400.7,166.5 400.2,167 C 399.6,167.7 399.2,167.7 398.6,168.2 C 398.2,168.5 397.9,168.7 397.5,169.1 C 398,169.6 398.3,169.9 398.7,170.5 C 399.2,171.1 399.4,171.5 399.9,172.2 C 400.8,171 401.2,170.5 401.7,169.8 C 402.1,169.3 402.8,169.1 403.2,170.3 C 403.5,171.1 403.7,171.8 403.8,172.7 C 404,174.2 404.1,174.9 404.3,176 C 404.9,176.1 405.2,176.1 405.8,176 C 406.4,175.9 406.8,175.7 407.3,175.4 C 407,174.5 406.8,174 406.6,173.1 C 406.3,172 406.2,171.7 405.9,170.4 C 405.8,170 405.8,169.5 406.1,169.3 C 406.6,169 407,169.3 407.5,169.9 C 408.1,170.7 408.4,171.1 409,171.8 C 409.4,172.3 409.6,172.6 410.1,173.1 C 410.7,172.8 411,172.6 411.4,172.1 C 411.9,171.6 412.2,171.3 412.5,170.6 C 411.7,170 411.2,169.7 410.3,169.1 C 409.4,168.5 408.7,168.1 407.9,167.5 C 407.6,167.3 407.5,167 407.6,166.7 C 407.7,166.3 408.4,166.3 408.7,166.4 C 409.4,166.5 409.9,166.6 410.7,166.7 C 411.3,166.8 411.6,166.8 412.2,166.9 C 412.2,166.5 412.2,166.2 412.1,165.8 C 412.1,165.2 412,164.9 411.9,164.3 C 410.8,164.5 410.3,164.6 409.2,164.7 C 407.5,164.8 406.5,164.7 404.9,164.3 C 403.6,163.9 402.8,163.6 401.6,162.8 C 400.6,162.2 400.2,161.6 399.3,160.8 C 398.8,160.1 398.4,159.7 397.7,159"
         style="fill:#ebbd00"
         id="path2660" />
      <path
         d="M 364.2,104.7 C 365.7,104.9 367.2,104.9 368.5,104.7 C 371.3,104.4 372.9,103.6 375.1,102 L 375.5,102.2 C 374.1,104.6 372.3,105.8 369.6,106.1 C 367.5,106.4 364.6,105.5 364.2,104.7"
         style="fill:#e2001a"
         id="path2662" />
      <path
         d="M 372.7,107.6 C 373.5,106.6 373.9,106.1 374.6,105.2 C 375.6,103.9 376.1,103.2 377,102 C 376.7,101.9 376.5,101.8 376.2,101.7 C 374.7,101.1 373.9,100.3 372.3,100.4 C 371,100.5 370.3,100.7 369.2,101.5 C 369.5,100.4 369.4,99.9 369.7,99 C 369.9,98.2 370,97.8 370.6,97.1 C 371.2,96.3 372.5,95.9 373.8,95.9 C 375.1,95.9 376,95.8 377.1,96 C 377,96.6 376.9,96.9 376.9,97.5 C 376.9,98.9 377.3,99.7 377.8,101 C 378,101.7 378.3,102.5 378.3,103.3 C 377.6,104.2 377.2,104.7 376.3,105.5 C 375,106.3 373.9,107.1 372.7,107.6"
         style="fill:#ebbd00"
         id="path2664" />
      <path
         d="M 381.5,97.2 C 381.3,97.4 381.2,97.5 381.2,97.8 C 381.2,98.2 381.3,98.6 381.8,98.7 C 382.1,98.8 382.4,98.7 382.6,98.4 C 382.7,98.2 382.7,98 382.6,97.8 C 383,97.8 383.2,97.8 383.6,97.9 C 384.1,98 384.3,98.1 384.8,98.6 C 385.1,98.9 384.8,99.4 384.4,99.5 C 384,99.7 383.5,99.2 383.1,99.3 C 382.6,99.4 382.7,100 381.6,99.9 C 380.7,99.8 379.8,99.2 379.9,98.3 C 380,97.8 379.3,97.7 379.5,97.1 C 379.6,96.7 380.1,96.6 380.4,96.7 C 380.7,96.7 381.2,96.8 381.5,97.2"
         style="fill:white"
         id="path2666" />
      <g
         id="g2668">
	<defs
   id="defs2670">
  <path
     d="M 256.9,510.1 C 157.7,510.1 77.2,429.7 77.2,330.5 L 436.5,330.5 C 436.5,429.6 356.1,510.1 256.9,510.1"
     id="XMLID_59_" />
</defs>

	<clipPath
   id="clipPath2952">
		<use
   id="use2954"
   x="0"
   y="0"
   width="744.09448"
   height="1052.3622"
   xlink:href="#XMLID_59_" />

	</clipPath>

	<polyline
   id="polyline2676"
   points="77.2,430.7 126,430.7 126,417.4 151.5,417.4 151.5,430.7 173.2,430.7 173.2,417.4    198.7,417.4 198.7,430.7 220.5,430.7 220.5,417.4 246,417.4 246,430.7 267.8,430.7 267.8,417.4 293.3,417.4 293.3,430.7 315,430.7    315,417.4 340.6,417.4 340.6,430.7 362.3,430.7 362.3,417.4 387.9,417.4 387.9,430.7 436.5,430.7 436.5,519.5 77.2,519.5    77.2,430.7  "
   clip-path="url(#XMLID_68_)" />

	<rect
   width="21.700001"
   height="11.3"
   x="234.2"
   y="432.60001"
   style="fill:#e2001a"
   clip-path="url(#XMLID_68_)"
   id="rect2678" />

	<rect
   width="21.700001"
   height="11.3"
   x="210.60001"
   y="432.60001"
   style="fill:#e2001a"
   clip-path="url(#XMLID_68_)"
   id="rect2680" />

	<rect
   width="21.700001"
   height="11.3"
   x="186.89999"
   y="432.60001"
   style="fill:#e2001a"
   clip-path="url(#XMLID_68_)"
   id="rect2682" />

	<rect
   width="21.700001"
   height="11.3"
   x="163.3"
   y="432.60001"
   style="fill:#e2001a"
   clip-path="url(#XMLID_68_)"
   id="rect2684" />

	<rect
   width="21.700001"
   height="11.3"
   x="139.60001"
   y="432.60001"
   style="fill:#e2001a"
   clip-path="url(#XMLID_68_)"
   id="rect2686" />

	<rect
   width="21.700001"
   height="11.3"
   x="116"
   y="432.60001"
   style="fill:#e2001a"
   clip-path="url(#XMLID_68_)"
   id="rect2688" />

	<rect
   width="21.700001"
   height="11.3"
   x="92.400002"
   y="432.60001"
   style="fill:#e2001a"
   clip-path="url(#XMLID_68_)"
   id="rect2690" />

	<rect
   width="21.700001"
   height="11.3"
   x="257.79999"
   y="432.60001"
   style="fill:#e2001a"
   clip-path="url(#XMLID_68_)"
   id="rect2692" />

	<rect
   width="21.700001"
   height="11.3"
   x="281.5"
   y="432.60001"
   style="fill:#e2001a"
   clip-path="url(#XMLID_68_)"
   id="rect2694" />

	<rect
   width="21.700001"
   height="11.3"
   x="305.10001"
   y="432.60001"
   style="fill:#e2001a"
   clip-path="url(#XMLID_68_)"
   id="rect2696" />

	<rect
   width="21.700001"
   height="11.3"
   x="328.79999"
   y="432.60001"
   style="fill:#e2001a"
   clip-path="url(#XMLID_68_)"
   id="rect2698" />

	<rect
   width="21.700001"
   height="11.3"
   x="352.39999"
   y="432.60001"
   style="fill:#e2001a"
   clip-path="url(#XMLID_68_)"
   id="rect2700" />

	<rect
   width="21.700001"
   height="11.3"
   x="376"
   y="432.60001"
   style="fill:#e2001a"
   clip-path="url(#XMLID_68_)"
   id="rect2702" />

	<rect
   width="21.700001"
   height="11.3"
   x="399.70001"
   y="432.60001"
   style="fill:#e2001a"
   clip-path="url(#XMLID_68_)"
   id="rect2704" />

	<rect
   width="21.700001"
   height="11.4"
   x="222.39999"
   y="445.79999"
   style="fill:#e2001a"
   clip-path="url(#XMLID_68_)"
   id="rect2706" />

	<rect
   width="21.700001"
   height="11.4"
   x="198.7"
   y="445.79999"
   style="fill:#e2001a"
   clip-path="url(#XMLID_68_)"
   id="rect2708" />

	<rect
   width="21.700001"
   height="11.4"
   x="175.10001"
   y="445.79999"
   style="fill:#e2001a"
   clip-path="url(#XMLID_68_)"
   id="rect2710" />

	<rect
   width="21.700001"
   height="11.4"
   x="151.5"
   y="445.79999"
   style="fill:#e2001a"
   clip-path="url(#XMLID_68_)"
   id="rect2712" />

	<rect
   width="21.700001"
   height="11.4"
   x="127.8"
   y="445.79999"
   style="fill:#e2001a"
   clip-path="url(#XMLID_68_)"
   id="rect2714" />

	<rect
   width="21.700001"
   height="11.4"
   x="104.2"
   y="445.79999"
   style="fill:#e2001a"
   clip-path="url(#XMLID_68_)"
   id="rect2716" />

	<rect
   width="21.700001"
   height="11.4"
   x="269.70001"
   y="445.79999"
   style="fill:#e2001a"
   clip-path="url(#XMLID_68_)"
   id="rect2718" />

	<rect
   width="21.700001"
   height="11.4"
   x="293.29999"
   y="445.79999"
   style="fill:#e2001a"
   clip-path="url(#XMLID_68_)"
   id="rect2720" />

	<rect
   width="21.700001"
   height="11.4"
   x="316.89999"
   y="445.79999"
   style="fill:#e2001a"
   clip-path="url(#XMLID_68_)"
   id="rect2722" />

	<rect
   width="21.700001"
   height="11.4"
   x="340.60001"
   y="445.79999"
   style="fill:#e2001a"
   clip-path="url(#XMLID_68_)"
   id="rect2724" />

	<rect
   width="21.700001"
   height="11.4"
   x="364.20001"
   y="445.79999"
   style="fill:#e2001a"
   clip-path="url(#XMLID_68_)"
   id="rect2726" />

	<rect
   width="21.700001"
   height="11.4"
   x="387.89999"
   y="445.79999"
   style="fill:#e2001a"
   clip-path="url(#XMLID_68_)"
   id="rect2728" />

	<rect
   width="21.700001"
   height="11.4"
   x="210.60001"
   y="459"
   style="fill:#e2001a"
   clip-path="url(#XMLID_68_)"
   id="rect2730" />

	<rect
   width="21.700001"
   height="11.4"
   x="186.89999"
   y="459"
   style="fill:#e2001a"
   clip-path="url(#XMLID_68_)"
   id="rect2732" />

	<rect
   width="21.700001"
   height="11.4"
   x="163.3"
   y="459"
   style="fill:#e2001a"
   clip-path="url(#XMLID_68_)"
   id="rect2734" />

	<rect
   width="21.700001"
   height="11.4"
   x="139.60001"
   y="459"
   style="fill:#e2001a"
   clip-path="url(#XMLID_68_)"
   id="rect2736" />

	<rect
   width="21.700001"
   height="11.4"
   x="116"
   y="459"
   style="fill:#e2001a"
   clip-path="url(#XMLID_68_)"
   id="rect2738" />

	<rect
   width="21.700001"
   height="11.4"
   x="281.5"
   y="459"
   style="fill:#e2001a"
   clip-path="url(#XMLID_68_)"
   id="rect2740" />

	<rect
   width="21.700001"
   height="11.4"
   x="305.10001"
   y="459"
   style="fill:#e2001a"
   clip-path="url(#XMLID_68_)"
   id="rect2742" />

	<rect
   width="21.700001"
   height="11.4"
   x="328.79999"
   y="459"
   style="fill:#e2001a"
   clip-path="url(#XMLID_68_)"
   id="rect2744" />

	<rect
   width="21.700001"
   height="11.4"
   x="352.39999"
   y="459"
   style="fill:#e2001a"
   clip-path="url(#XMLID_68_)"
   id="rect2746" />

	<rect
   width="21.700001"
   height="11.4"
   x="376"
   y="459"
   style="fill:#e2001a"
   clip-path="url(#XMLID_68_)"
   id="rect2748" />

	<rect
   width="21.700001"
   height="11.4"
   x="222.39999"
   y="472.29999"
   style="fill:#e2001a"
   clip-path="url(#XMLID_68_)"
   id="rect2750" />

	<rect
   width="21.700001"
   height="11.4"
   x="198.7"
   y="472.29999"
   style="fill:#e2001a"
   clip-path="url(#XMLID_68_)"
   id="rect2752" />

	<rect
   width="21.700001"
   height="11.4"
   x="175.10001"
   y="472.29999"
   style="fill:#e2001a"
   clip-path="url(#XMLID_68_)"
   id="rect2754" />

	<rect
   width="21.700001"
   height="11.4"
   x="151.5"
   y="472.29999"
   style="fill:#e2001a"
   clip-path="url(#XMLID_68_)"
   id="rect2756" />

	<rect
   width="21.700001"
   height="11.4"
   x="127.8"
   y="472.29999"
   style="fill:#e2001a"
   clip-path="url(#XMLID_68_)"
   id="rect2758" />

	<rect
   width="21.700001"
   height="11.4"
   x="269.70001"
   y="472.29999"
   style="fill:#e2001a"
   clip-path="url(#XMLID_68_)"
   id="rect2760" />

	<rect
   width="21.700001"
   height="11.4"
   x="293.29999"
   y="472.29999"
   style="fill:#e2001a"
   clip-path="url(#XMLID_68_)"
   id="rect2762" />

	<rect
   width="21.700001"
   height="11.4"
   x="316.89999"
   y="472.29999"
   style="fill:#e2001a"
   clip-path="url(#XMLID_68_)"
   id="rect2764" />

	<rect
   width="21.700001"
   height="11.4"
   x="340.60001"
   y="472.29999"
   style="fill:#e2001a"
   clip-path="url(#XMLID_68_)"
   id="rect2766" />

	<rect
   width="21.700001"
   height="11.4"
   x="364.20001"
   y="472.29999"
   style="fill:#e2001a"
   clip-path="url(#XMLID_68_)"
   id="rect2768" />

	<rect
   width="21.700001"
   height="11.3"
   x="210.60001"
   y="485.5"
   style="fill:#e2001a"
   clip-path="url(#XMLID_68_)"
   id="rect2770" />

	<rect
   width="21.700001"
   height="11.3"
   x="186.89999"
   y="485.5"
   style="fill:#e2001a"
   clip-path="url(#XMLID_68_)"
   id="rect2772" />

	<rect
   width="21.700001"
   height="11.3"
   x="163.3"
   y="485.5"
   style="fill:#e2001a"
   clip-path="url(#XMLID_68_)"
   id="rect2774" />

	<rect
   width="21.700001"
   height="11.3"
   x="281.5"
   y="485.5"
   style="fill:#e2001a"
   clip-path="url(#XMLID_68_)"
   id="rect2776" />

	<rect
   width="21.700001"
   height="11.3"
   x="305.10001"
   y="485.5"
   style="fill:#e2001a"
   clip-path="url(#XMLID_68_)"
   id="rect2778" />

	<rect
   width="21.700001"
   height="11.3"
   x="328.79999"
   y="485.5"
   style="fill:#e2001a"
   clip-path="url(#XMLID_68_)"
   id="rect2780" />

	<rect
   width="21.700001"
   height="11.4"
   x="222.39999"
   y="498.70001"
   style="fill:#e2001a"
   clip-path="url(#XMLID_68_)"
   id="rect2782" />

	<rect
   width="21.700001"
   height="11.4"
   x="198.7"
   y="498.70001"
   style="fill:#e2001a"
   clip-path="url(#XMLID_68_)"
   id="rect2784" />

	<rect
   width="21.700001"
   height="11.4"
   x="269.70001"
   y="498.70001"
   style="fill:#e2001a"
   clip-path="url(#XMLID_68_)"
   id="rect2786" />

	<rect
   width="21.700001"
   height="11.4"
   x="293.29999"
   y="498.70001"
   style="fill:#e2001a"
   clip-path="url(#XMLID_68_)"
   id="rect2788" />

	<rect
   width="21.700001"
   height="11.4"
   x="222.39999"
   y="419.29999"
   style="fill:#e2001a"
   clip-path="url(#XMLID_68_)"
   id="rect2790" />

	<rect
   width="21.700001"
   height="11.4"
   x="175.10001"
   y="419.29999"
   style="fill:#e2001a"
   clip-path="url(#XMLID_68_)"
   id="rect2792" />

	<rect
   width="21.700001"
   height="11.4"
   x="127.8"
   y="419.29999"
   style="fill:#e2001a"
   clip-path="url(#XMLID_68_)"
   id="rect2794" />

	<rect
   width="21.700001"
   height="11.4"
   x="269.70001"
   y="419.29999"
   style="fill:#e2001a"
   clip-path="url(#XMLID_68_)"
   id="rect2796" />

	<rect
   width="21.700001"
   height="11.4"
   x="316.89999"
   y="419.29999"
   style="fill:#e2001a"
   clip-path="url(#XMLID_68_)"
   id="rect2798" />

	<rect
   width="21.700001"
   height="11.4"
   x="364.20001"
   y="419.29999"
   style="fill:#e2001a"
   clip-path="url(#XMLID_68_)"
   id="rect2800" />

	<rect
   width="21.700001"
   height="11.4"
   x="246"
   y="445.79999"
   style="fill:#e2001a"
   clip-path="url(#XMLID_68_)"
   id="rect2802" />

	<path
   d="M 256.9,443.9 C 271,443.9 282.4,455.3 282.4,469.4 L 282.4,519.5 L 231.3,519.5 L 231.3,469.4 C 231.4,455.3 242.8,443.9 256.9,443.9"
   clip-path="url(#XMLID_68_)"
   id="path2804" />

	<rect
   width="7.5999999"
   height="11.3"
   x="233.3"
   y="472.29999"
   style="fill:#e2001a"
   clip-path="url(#XMLID_68_)"
   id="rect2806" />

	<rect
   width="7.5999999"
   height="11.3"
   x="233.3"
   y="485.5"
   style="fill:#e2001a"
   clip-path="url(#XMLID_68_)"
   id="rect2808" />

	<rect
   width="7.5999999"
   height="11.4"
   x="233.3"
   y="498.70001"
   style="fill:#e2001a"
   clip-path="url(#XMLID_68_)"
   id="rect2810" />

	<path
   d="M 236.5,457.5 C 238.7,453.7 241.9,450.7 245.7,448.6 L 249.2,456.3 C 246.9,457.6 244.9,459.4 243.5,461.6 L 236.5,457.5"
   style="fill:#e2001a"
   clip-path="url(#XMLID_68_)"
   id="path2812" />

	<path
   d="M 242.5,463.2 L 235.5,459.2 C 234,462.3 233.2,465.8 233.2,469.4 L 233.2,470.3 L 240.8,470.3 C 240.8,467.8 241.4,465.3 242.5,463.2"
   style="fill:#e2001a"
   clip-path="url(#XMLID_68_)"
   id="path2814" />

	<rect
   width="7.5999999"
   height="11.3"
   x="273"
   y="472.29999"
   style="fill:#e2001a"
   clip-path="url(#XMLID_68_)"
   id="rect2816" />

	<rect
   width="7.5999999"
   height="11.3"
   x="273"
   y="485.5"
   style="fill:#e2001a"
   clip-path="url(#XMLID_68_)"
   id="rect2818" />

	<rect
   width="7.5999999"
   height="11.4"
   x="273"
   y="498.70001"
   style="fill:#e2001a"
   clip-path="url(#XMLID_68_)"
   id="rect2820" />

	<path
   d="M 277.3,457.5 C 275.1,453.7 271.9,450.7 268.1,448.6 L 264.6,456.3 C 266.9,457.6 268.9,459.4 270.3,461.6 L 277.3,457.5"
   style="fill:#e2001a"
   clip-path="url(#XMLID_68_)"
   id="path2822" />

	<path
   d="M 271.2,463.2 L 278.2,459.2 C 279.7,462.3 280.5,465.8 280.5,469.4 L 280.5,470.3 L 273,470.3 C 273,467.8 272.4,465.3 271.2,463.2"
   style="fill:#e2001a"
   clip-path="url(#XMLID_68_)"
   id="path2824" />

	<path
   d="M 256.9,456.2 C 264.7,456.2 271.1,462.6 271.1,470.4 C 271.1,476.1 271.1,519.6 271.1,519.6 L 242.8,519.6 C 242.8,519.6 242.8,476.1 242.8,470.4 C 242.7,462.5 249.1,456.2 256.9,456.2"
   style="fill:white"
   clip-path="url(#XMLID_68_)"
   id="path2826" />

	<path
   d="M 256.9,445.8 C 253.5,445.8 250.3,446.5 247.4,447.8 L 250.9,455.5 C 252.7,454.8 254.8,454.3 256.9,454.3 C 259,454.3 261,454.7 262.9,455.5 L 266.4,447.8 C 263.5,446.5 260.3,445.8 256.9,445.8"
   style="fill:#e2001a"
   clip-path="url(#XMLID_68_)"
   id="path2828" />

</g>
      <g
         id="g2830">
	<defs
   id="defs2832">
  <rect
     width="359.29999"
     height="240.2"
     x="77.199997"
     y="75.099998"
     id="XMLID_58_" />
</defs>

	<clipPath
   id="clipPath3036">
		<use
   id="use3038"
   x="0"
   y="0"
   width="744.09448"
   height="1052.3622"
   xlink:href="#XMLID_58_" />

	</clipPath>

	<path
   d="M 514.4,311.5 C 510.1,308.6 504.2,309.7 501.3,314.1 C 499,317.4 499.2,321.7 501.4,324.8 C 500.8,325.8 500.2,326.8 499.7,327.6 C 501.2,323.5 499.8,319 496.1,316.4 C 491.8,313.5 485.9,314.6 483,319 C 480.1,323.3 481.2,329.2 485.5,332.1 C 488.6,334.2 492.4,334.2 495.4,332.5 C 487.9,339.5 479.3,338.6 473.5,334.7 C 467.8,330.8 464.5,325.4 465.1,318 C 469,319.3 473.5,317.9 475.9,314.3 C 478.8,310 477.7,304.1 473.3,301.2 C 469,298.3 463.1,299.4 460.2,303.7 C 457.8,307.2 458.1,311.9 460.8,315 C 454.1,318.3 447.8,317.4 442.1,313.5 C 436.3,309.6 432.3,301.7 436,292.2 C 435.5,295.8 437,299.4 440,301.5 C 444.3,304.4 450.2,303.3 453.1,299 C 456,294.6 454.9,288.8 450.5,285.9 C 446.8,283.4 441.8,283.9 438.7,286.9 C 439.3,285.9 440,285 440.8,284 C 444.5,284.9 448.5,283.5 450.8,280.1 C 453.7,275.8 452.6,269.9 448.3,267 C 444,264.1 438.1,265.2 435.2,269.6 C 433,272.9 433.1,277.2 435.3,280.3 C 434.8,281.3 434.2,282.3 433.6,283.1 C 435.1,279.1 433.7,274.5 430,271.9 C 425.7,269 419.8,270.1 416.9,274.5 C 414,278.8 415.1,284.7 419.5,287.6 C 422.6,289.7 426.4,289.7 429.4,288 C 421.9,295 413.3,294.1 407.6,290.2 C 401.9,286.3 398.6,280.9 399.2,273.4 C 403.1,274.7 407.6,273.3 410,269.7 C 412.9,265.4 411.8,259.5 407.5,256.6 C 403.2,253.7 397.3,254.8 394.4,259.2 C 392,262.7 392.4,267.4 395,270.5 C 388.3,273.8 382,272.9 376.3,269 C 370.5,265.1 366.5,257.2 370.2,247.7 C 369.7,251.3 371.1,254.9 374.2,257 C 378.5,259.9 384.4,258.8 387.3,254.4 C 390.2,250.1 389.1,244.2 384.7,241.3 C 381,238.8 376,239.3 372.9,242.3 C 373.5,241.4 374.2,240.4 375,239.4 C 378.7,240.3 382.7,238.9 385,235.5 C 387.9,231.2 386.8,225.3 382.4,222.4 C 378.1,219.5 372.2,220.6 369.3,225 C 367,228.3 367.2,232.6 369.4,235.7 C 368.8,236.7 368.2,237.6 367.6,238.5 C 369.1,234.5 367.7,229.9 364,227.4 C 359.7,224.5 353.8,225.6 350.9,229.9 C 348,234.2 349.1,240.1 353.5,243 C 356.6,245.1 360.4,245.1 363.4,243.4 C 355.9,250.4 347.4,249.5 341.6,245.6 C 335.9,241.7 332.6,236.3 333.2,228.8 C 337.1,230.1 341.6,228.7 344,225.1 C 346.9,220.8 345.8,214.9 341.5,212 C 337.2,209.1 331.3,210.2 328.4,214.6 C 326,218.2 326.4,222.8 329,225.9 C 322.3,229.2 316,228.3 310.3,224.4 C 304.5,220.5 300.6,212.6 304.2,203.1 C 303.7,206.7 305.1,210.3 308.2,212.4 C 312.5,215.3 318.4,214.2 321.3,209.8 C 324.2,205.5 323.1,199.6 318.8,196.7 C 315,194.2 310.1,194.7 307,197.7 C 307.6,196.8 308.3,195.8 309.1,194.8 C 312.8,195.7 316.8,194.3 319.1,190.9 C 322,186.6 320.9,180.7 316.5,177.8 C 312.2,174.9 306.3,176 303.4,180.3 C 301.1,183.7 301.3,187.9 303.5,191 C 302.9,192 302.3,192.9 301.7,193.8 C 303.2,189.8 301.8,185.2 298.1,182.7 C 293.8,179.8 287.9,180.9 285,185.2 C 282.1,189.5 283.2,195.4 287.5,198.3 C 290.6,200.4 294.4,200.4 297.4,198.7 C 289.9,205.6 281.4,204.8 275.6,200.9 C 269.9,197 266.6,191.6 267.2,184.1 C 271.1,185.4 275.6,184 278,180.4 C 280.9,176.1 279.8,170.2 275.4,167.3 C 271.1,164.4 265.2,165.5 262.3,169.9 C 259.9,173.5 260.3,178.1 262.9,181.2 C 256.2,184.6 249.9,183.6 244.2,179.7 C 238.4,175.8 234.4,167.9 238.1,158.3 C 237.6,161.9 239,165.5 242.1,167.6 C 246.4,170.5 252.3,169.4 255.2,165 C 258.1,160.7 257,154.8 252.7,151.9 C 249,149.4 244,149.9 240.9,152.9 C 241.5,151.9 242.2,151 243,150.1 C 246.7,151 250.7,149.5 253,146.2 C 255.9,141.9 254.8,136 250.5,133.1 C 246.2,130.2 240.3,131.3 237.4,135.6 C 235.2,138.9 235.3,143.2 237.5,146.3 C 236.9,147.3 236.4,148.3 235.8,149.1 C 237.3,145.1 235.9,140.5 232.2,138 C 227.9,135.1 222,136.2 219.1,140.5 C 216.2,144.8 217.3,150.7 221.7,153.6 C 224.8,155.7 228.6,155.7 231.6,154 C 224.1,161 215.5,160.1 209.8,156.2 C 204.1,152.3 200.8,146.9 201.4,139.4 C 205.3,140.7 209.8,139.3 212.2,135.7 C 215.1,131.4 214,125.5 209.7,122.6 C 205.4,119.7 199.5,120.8 196.6,125.1 C 194.2,128.7 194.6,133.3 197.2,136.4 C 190.5,139.7 184.2,138.8 178.5,134.9 C 172.7,131 168.7,123.1 172.4,113.6 C 171.9,117.2 173.4,120.8 176.4,122.9 C 180.7,125.8 186.6,124.7 189.5,120.4 C 192.4,116.1 191.3,110.2 186.9,107.3 C 183.2,104.8 178.2,105.3 175.1,108.3 C 175.7,107.3 176.4,106.4 177.2,105.4 C 180.9,106.3 184.9,104.9 187.2,101.5 C 190.1,97.2 189,91.3 184.6,88.4 C 180.3,85.5 174.4,86.6 171.5,91 C 169.3,94.3 169.4,98.6 171.6,101.7 C 171.1,102.7 170.5,103.7 169.9,104.5 C 171.4,100.5 170,95.9 166.3,93.3 C 162,90.4 156.1,91.5 153.2,95.9 C 150.3,100.2 151.4,106.1 155.8,109 C 158.9,111.1 162.7,111.1 165.7,109.4 C 158.2,116.3 149.7,115.5 143.9,111.6 C 138.2,107.7 134.9,102.3 135.5,94.9 C 139.4,96.2 143.9,94.8 146.3,91.2 C 149.2,86.9 148.1,81 143.8,78.1 C 139.5,75.2 133.6,76.3 130.7,80.6 C 128.3,84.2 128.7,88.8 131.3,91.9 C 124.6,95.3 118.3,94.3 112.6,90.4 C 106.8,86.5 102.8,78.6 106.5,69.1 C 106,72.7 107.4,76.3 110.5,78.4 C 114.8,81.3 120.7,80.2 123.6,75.9 C 126.5,71.6 125.4,65.7 121,62.8 C 117.3,60.3 112.3,60.8 109.2,63.8 C 109.8,62.9 110.5,61.9 111.3,60.9 C 115,61.8 119,60.4 121.3,57 C 124.2,52.7 123.1,46.8 118.7,43.9 C 114.4,41 108.5,42.1 105.6,46.5 C 103.3,49.8 103.5,54.1 105.7,57.2 C 105.1,58.2 104.5,59.1 103.9,60 C 105.4,56 104,51.4 100.3,48.9 C 96,46 90.1,47.1 87.2,51.5 C 84.3,55.8 85.4,61.7 89.7,64.6 C 92.8,66.7 96.6,66.7 99.6,65 C 92.1,72 83.5,71.1 77.8,67.2 C 72.1,63.3 68.8,57.9 69.4,50.4 C 73.3,51.7 77.8,50.3 80.2,46.7 C 83.1,42.4 82,36.5 77.6,33.6 C 73.3,30.7 67.4,31.8 64.5,36.2 C 62.1,39.8 62.4,44.4 65.1,47.5 C 58.4,50.8 52.1,49.9 46.4,46 C 40.6,42.1 36.6,34.2 40.3,24.7 C 39.8,28.3 41.2,31.9 44.3,34 C 48.6,36.9 54.5,35.8 57.4,31.4 C 60.3,27.1 59.2,21.2 54.9,18.3 C 51.2,15.8 46.2,16.3 43.1,19.3 C 43.7,18.4 44.4,17.4 45.2,16.4 C 48.9,17.3 52.9,15.9 55.2,12.5 C 58.1,8.8 57,2.9 52.6,0 L 0,78 L 461.9,389.5 L 514.4,311.5"
   clip-path="url(#XMLID_69_)"
   id="path2838" />

	<path
   d="M 496.6,338.8 L 462.7,389.1 L 1,77.6 L 34.9,27.3 C 33.2,36.3 36.5,45.4 43.8,50.3 C 50.6,55 57.7,56 65.1,53.5 C 65.9,60.9 68.6,67 75.3,71.5 C 83.6,77.1 92.5,77.2 100.9,71.8 C 99.2,80.8 102.5,89.9 109.8,94.8 C 116.6,99.4 123.6,100.5 131.1,98 C 131.9,105.4 134.6,111.5 141.3,116 C 149.6,121.6 158.5,121.7 166.9,116.3 C 165.2,125.3 168.5,134.4 175.8,139.3 C 182.7,143.9 189.7,145 197.1,142.5 C 197.9,149.9 200.6,156 207.2,160.5 C 215.5,166.1 224.4,166.2 232.8,160.8 C 231.1,169.8 234.4,178.8 241.7,183.8 C 248.6,188.4 255.6,189.5 263,187 C 263.9,194.4 266.5,200.5 273.2,205 C 281.5,210.6 290.4,210.7 298.8,205.3 C 297.1,214.3 300.4,223.3 307.7,228.3 C 314.5,233 321.5,234 329,231.5 C 329.8,238.9 332.5,245 339.2,249.5 C 347.5,255.1 356.4,255.2 364.8,249.8 C 363.1,258.8 366.4,267.9 373.7,272.8 C 380.5,277.4 387.5,278.5 395,276 C 395.8,283.4 398.5,289.5 405.1,294 C 413.4,299.6 422.3,299.7 430.7,294.3 C 429,303.3 432.3,312.4 439.6,317.3 C 446.5,321.9 453.5,323 460.9,320.5 C 461.8,327.9 464.4,334 471.1,338.5 C 479.4,344.2 488.2,344.2 496.6,338.8"
   style="fill:#1a962b"
   clip-path="url(#XMLID_69_)"
   id="path2840" />

	<path
   d="M 254.6,164.9 C 257.2,161 256.2,155.8 252.3,153.1 C 248.4,150.5 243.2,151.5 240.5,155.4 C 237.9,159.3 238.9,164.5 242.8,167.1 C 246.7,169.8 252,168.8 254.6,164.9"
   style="fill:#1a962b"
   clip-path="url(#XMLID_69_)"
   id="path2842" />

	<path
   d="M 277.3,180.2 C 279.9,176.3 278.9,171.1 275,168.5 C 271.1,165.9 265.9,166.9 263.3,170.8 C 260.7,174.7 261.7,179.9 265.6,182.5 C 269.4,185.1 274.7,184.1 277.3,180.2"
   style="fill:#1a962b"
   clip-path="url(#XMLID_69_)"
   id="path2844" />

	<path
   d="M 285.9,186 C 288.5,182.1 293.8,181.1 297.6,183.7 C 301.5,186.3 302.5,191.6 299.9,195.5 C 297.3,199.4 292,200.4 288.2,197.8 C 284.3,195.2 283.3,189.9 285.9,186"
   style="fill:#1a962b"
   clip-path="url(#XMLID_69_)"
   id="path2846" />

	<path
   d="M 320.5,209.4 C 323.1,205.5 322.1,200.3 318.2,197.7 C 314.3,195.1 309.1,196.1 306.5,200 C 303.9,203.9 304.9,209.1 308.8,211.8 C 312.7,214.3 317.9,213.3 320.5,209.4"
   style="fill:#1a962b"
   clip-path="url(#XMLID_69_)"
   id="path2848" />

	<path
   d="M 343.2,224.7 C 345.8,220.8 344.8,215.6 340.9,213 C 337,210.4 331.8,211.4 329.2,215.3 C 326.6,219.2 327.6,224.4 331.5,227 C 335.4,229.6 340.6,228.6 343.2,224.7"
   style="fill:#1a962b"
   clip-path="url(#XMLID_69_)"
   id="path2850" />

	<path
   d="M 351.9,230.5 C 354.5,226.6 359.8,225.6 363.6,228.2 C 367.5,230.8 368.5,236.1 365.9,239.9 C 363.3,243.8 358,244.8 354.2,242.2 C 350.3,239.7 349.3,234.4 351.9,230.5"
   style="fill:#1a962b"
   clip-path="url(#XMLID_69_)"
   id="path2852" />

	<path
   d="M 386.5,253.9 C 389.1,250 388.1,244.8 384.2,242.2 C 380.3,239.6 375.1,240.6 372.5,244.5 C 369.9,248.4 370.9,253.6 374.8,256.2 C 378.6,258.8 383.9,257.8 386.5,253.9"
   style="fill:#1a962b"
   clip-path="url(#XMLID_69_)"
   id="path2854" />

	<path
   d="M 409.2,269.2 C 411.8,265.3 410.8,260.1 406.9,257.4 C 403,254.8 397.8,255.8 395.2,259.7 C 392.6,263.6 393.6,268.8 397.5,271.4 C 401.3,274.1 406.6,273.1 409.2,269.2"
   style="fill:#1a962b"
   clip-path="url(#XMLID_69_)"
   id="path2856" />

	<path
   d="M 417.8,275.1 C 420.4,271.2 425.7,270.2 429.6,272.8 C 433.5,275.4 434.5,280.7 431.9,284.5 C 429.3,288.4 424,289.4 420.2,286.8 C 416.3,284.2 415.2,278.9 417.8,275.1"
   style="fill:#1a962b"
   clip-path="url(#XMLID_69_)"
   id="path2858" />

	<path
   d="M 188.6,120.4 C 191.2,116.5 190.2,111.3 186.3,108.7 C 182.4,106.1 177.2,107.1 174.6,111 C 172,114.9 173,120.1 176.9,122.7 C 180.7,125.3 186,124.3 188.6,120.4"
   style="fill:#1a962b"
   clip-path="url(#XMLID_69_)"
   id="path2860" />

	<path
   d="M 211.3,135.7 C 213.9,131.8 212.9,126.6 209,124 C 205.1,121.4 199.9,122.4 197.2,126.3 C 194.6,130.2 195.6,135.4 199.5,138.1 C 203.4,140.6 208.7,139.6 211.3,135.7"
   style="fill:#1a962b"
   clip-path="url(#XMLID_69_)"
   id="path2862" />

	<path
   d="M 219.9,141.6 C 222.5,137.7 227.8,136.7 231.7,139.3 C 235.6,141.9 236.6,147.2 234,151 C 231.4,154.9 226.1,155.9 222.2,153.3 C 218.3,150.7 217.3,145.4 219.9,141.6"
   style="fill:#1a962b"
   clip-path="url(#XMLID_69_)"
   id="path2864" />

	<path
   d="M 122.6,75.9 C 125.2,72 124.2,66.8 120.3,64.2 C 116.4,61.6 111.2,62.6 108.6,66.5 C 106,70.4 107,75.6 110.9,78.2 C 114.7,80.8 120,79.8 122.6,75.9"
   style="fill:#1a962b"
   clip-path="url(#XMLID_69_)"
   id="path2866" />

	<path
   d="M 145.3,91.2 C 147.9,87.3 146.9,82.1 143,79.5 C 139.1,76.9 133.9,77.9 131.3,81.8 C 128.7,85.7 129.7,90.9 133.6,93.5 C 137.4,96.1 142.7,95.1 145.3,91.2"
   style="fill:#1a962b"
   clip-path="url(#XMLID_69_)"
   id="path2868" />

	<path
   d="M 153.9,97.1 C 156.5,93.2 161.8,92.2 165.6,94.8 C 169.5,97.4 170.5,102.7 167.9,106.5 C 165.3,110.4 160,111.4 156.2,108.8 C 152.4,106.2 151.3,100.9 153.9,97.1"
   style="fill:#1a962b"
   clip-path="url(#XMLID_69_)"
   id="path2870" />

	<path
   d="M 184,89.8 C 187.9,92.4 188.9,97.7 186.3,101.5 C 183.7,105.4 178.4,106.4 174.6,103.8 C 170.7,101.2 169.7,95.9 172.3,92.1 C 174.9,88.2 180.2,87.2 184,89.8"
   style="fill:#1a962b"
   clip-path="url(#XMLID_69_)"
   id="path2872" />

	<path
   d="M 250,134.3 C 253.9,136.9 254.9,142.2 252.3,146 C 249.7,149.9 244.4,150.9 240.5,148.3 C 236.6,145.7 235.6,140.4 238.2,136.5 C 240.9,132.7 246.1,131.7 250,134.3"
   style="fill:#1a962b"
   clip-path="url(#XMLID_69_)"
   id="path2874" />

	<path
   d="M 316,178.8 C 312.1,176.2 306.9,177.2 304.2,181.1 C 301.6,185 302.6,190.2 306.5,192.8 C 310.4,195.4 315.6,194.4 318.2,190.5 C 320.9,186.7 319.9,181.4 316,178.8"
   style="fill:#1a962b"
   clip-path="url(#XMLID_69_)"
   id="path2876" />

	<path
   d="M 381.9,223.3 C 378,220.7 372.8,221.7 370.2,225.6 C 367.6,229.5 368.6,234.7 372.5,237.3 C 376.4,239.9 381.6,238.9 384.2,235 C 386.8,231.2 385.8,225.9 381.9,223.3"
   style="fill:#1a962b"
   clip-path="url(#XMLID_69_)"
   id="path2878" />

	<path
   d="M 447.9,267.8 C 444,265.2 438.8,266.2 436.2,270.1 C 433.6,274 434.6,279.2 438.5,281.8 C 442.4,284.4 447.6,283.4 450.2,279.5 C 452.8,275.7 451.8,270.4 447.9,267.8"
   style="fill:#1a962b"
   clip-path="url(#XMLID_69_)"
   id="path2880" />

	<path
   d="M 503.9,327.2 C 503.2,326.7 502.6,326.2 502.1,325.6 C 493.8,340.4 481.2,341 473.2,335.5 C 467.2,331.5 463.6,325.6 464.4,317.6 C 463.9,317.4 463.4,317.1 463,316.8 C 462.5,316.5 462.1,316.1 461.7,315.7 C 454.6,319.4 447.8,318.3 441.8,314.2 C 433.7,308.8 429.6,296.8 440.2,283.6 C 439.5,283.4 438.7,283 438,282.5 C 437.3,282.1 436.7,281.5 436.2,280.9 C 427.9,295.7 415.4,296.3 407.3,290.8 C 401.3,286.7 397.7,280.9 398.5,272.9 C 398,272.7 397.5,272.4 397.1,272.1 C 396.6,271.8 396.2,271.4 395.8,271 C 388.7,274.7 381.9,273.6 375.9,269.5 C 367.8,264 363.7,252.1 374.3,238.9 C 373.6,238.6 372.8,238.3 372.1,237.8 C 371.4,237.3 370.8,236.8 370.3,236.2 C 362.1,251 349.5,251.6 341.4,246.2 C 335.4,242.1 331.9,236.3 332.6,228.3 C 332.1,228.1 331.6,227.8 331.2,227.5 C 330.7,227.2 330.3,226.8 329.9,226.4 C 322.8,230.1 316,229 310,224.9 C 301.9,219.4 297.8,207.5 308.4,194.4 C 307.7,194.1 306.9,193.8 306.2,193.3 C 305.5,192.8 304.9,192.3 304.4,191.7 C 296.1,206.5 283.5,207.1 275.5,201.7 C 269.5,197.6 265.9,191.8 266.7,183.8 C 266.2,183.6 265.7,183.3 265.3,183 C 264.8,182.7 264.4,182.3 264,182 C 256.9,185.6 250.1,184.6 244.1,180.5 C 236,175 231.9,163.1 242.5,149.9 C 241.8,149.6 241,149.3 240.3,148.8 C 239.6,148.3 239,147.8 238.5,147.2 C 230.2,162 217.6,162.6 209.6,157.2 C 203.6,153.1 200,147.3 200.8,139.3 C 200.3,139.1 199.8,138.8 199.4,138.5 C 198.9,138.2 198.5,137.8 198.1,137.5 C 191,141.2 184.2,140.1 178.2,136 C 170.1,130.5 166,118.6 176.6,105.4 C 175.9,105.2 175.1,104.8 174.4,104.3 C 173.7,103.8 173.1,103.3 172.6,102.7 C 164.4,117.5 151.8,118.1 143.7,112.7 C 137.7,108.7 134.2,102.8 134.9,94.8 C 134.4,94.6 133.9,94.3 133.5,94 C 133,93.7 132.6,93.3 132.2,92.9 C 125.1,96.6 118.3,95.5 112.3,91.4 C 104.2,86 100.1,74 110.7,60.8 C 110,60.6 109.2,60.2 108.5,59.7 C 107.8,59.2 107.2,58.7 106.7,58.1 C 98,73.3 85.3,74 77.3,68.5 C 71.3,64.4 67.7,58.6 68.5,50.6 C 68,50.4 67.5,50.1 67.1,49.8 C 66.6,49.5 66.2,49.1 65.8,48.7 C 58.7,52.4 51.9,51.3 45.9,47.2 C 37.8,41.7 33.7,29.8 44.3,16.7 C 43.6,16.4 42.8,16.1 42.1,15.6 L 36.9,23.4 C 32.8,33.2 36.3,44.2 44.4,49.6 C 51.2,54.2 58.1,55 65.6,52.1 C 66,59.9 69,66.2 75.8,70.9 C 83.9,76.3 95.4,75.4 102.9,67.9 C 98.8,77.7 102.2,88.7 110.3,94.1 C 117.1,98.7 124,99.5 131.5,96.5 C 131.9,104.3 134.9,110.7 141.7,115.3 C 149.8,120.8 161.3,119.8 168.8,112.4 C 164.7,122.2 168.1,133.2 176.2,138.6 C 183,143.2 189.9,144 197.4,141 C 197.8,148.8 200.8,155.2 207.6,159.8 C 215.7,165.3 227.1,164.3 234.7,156.9 C 230.6,166.7 234,177.7 242.1,183.1 C 248.9,187.7 255.8,188.5 263.3,185.5 C 263.7,193.3 266.7,199.7 273.5,204.3 C 281.6,209.8 293,208.8 300.6,201.4 C 296.5,211.2 299.9,222.2 308,227.6 C 314.8,232.2 321.7,233 329.2,230.1 C 329.6,237.9 332.6,244.2 339.4,248.8 C 347.5,254.3 358.9,253.3 366.5,245.9 C 362.4,255.7 365.8,266.7 373.9,272.1 C 380.7,276.7 387.6,277.5 395.1,274.5 C 395.5,282.3 398.5,288.7 405.3,293.3 C 413.4,298.7 424.8,297.8 432.4,290.3 C 428.4,300.1 431.8,311.1 439.9,316.6 C 446.7,321.2 453.6,322 461.1,319 C 461.5,326.8 464.5,333.2 471.3,337.8 C 479.4,343.3 490.8,342.3 498.4,334.9 C 498.7,335 504.1,327.3 503.9,327.2"
   style="fill:#1a962b"
   clip-path="url(#XMLID_69_)"
   id="path2882" />

	<polygon
   points="21.7,47.1 483.2,358.4 482.8,359 21.3,47.7 21.7,47.1 "
   clip-path="url(#XMLID_69_)"
   id="polygon2884" />

	<polygon
   points="21.7,47.1 483.2,358.4 482.8,359 21.3,47.7 21.7,47.1 "
   style="fill:none;stroke:black;stroke-width:0.112;stroke-miterlimit:3.86400008"
   clip-path="url(#XMLID_69_)"
   id="polygon2886" />

	<polygon
   points="5.2,71.5 466.8,382.9 466.3,383.5 4.8,72.1 5.2,71.5 "
   clip-path="url(#XMLID_69_)"
   id="polygon2888" />

	<polygon
   points="5.2,71.5 466.8,382.9 466.3,383.5 4.8,72.1 5.2,71.5 "
   style="fill:none;stroke:black;stroke-width:0.112;stroke-miterlimit:3.86400008"
   clip-path="url(#XMLID_69_)"
   id="polygon2890" />

</g>
      <line
         id="line2892"
         y2="313.89999"
         x2="436.5"
         y1="313.89999"
         x1="77.199997"
         stroke-miterlimit="3.864"
         style="fill:none;stroke:black;stroke-width:0.168;stroke-miterlimit:3.86400008" />
      <path
         d="M 256.9,510.1 C 157.7,510.1 77.2,429.7 77.2,330.5 L 77.2,75.1 L 436.5,75.1 L 436.5,330.4 C 436.5,429.6 356.1,510.1 256.9,510.1 M 256.9,507.2 C 159.2,507.2 80.1,428 80.1,330.4 L 80.1,78 L 433.7,78 L 433.7,330.4 C 433.7,428.1 354.5,507.2 256.9,507.2 z "
         style="fill-rule:evenodd"
         id="path2894" />
      <path
         d="M 221.1,327 C 224.8,325.3 226.7,324.4 230.4,323.1 C 231,322.9 231.4,322.6 232,322.6 C 236.2,322.1 238.4,322 242.5,321.9 C 245.2,321.8 246.7,321.8 249.5,321.8 C 250.4,321.8 251,321.8 251.8,322.3 C 254.2,324.1 256,325.6 258.6,327.8 C 261.2,330 262.7,331.2 265.4,333.4 C 265.2,335 264.9,335.9 264.2,337.3 C 263.4,338.9 262.9,339.8 261.7,341.1 C 263.4,339.8 264.4,338.3 265.6,336.2 C 266.3,335 266.6,334.3 267.1,332.9 C 267.3,332.3 267.7,332 268.6,332.3 C 274.2,334.2 279.5,336.1 286.7,336.7 C 287.9,336.8 288.5,336.9 289.9,336.9 C 290.6,336.9 291.2,337 291.8,337.3 C 295.1,338.8 296.9,339.7 300,341.6 C 303.5,343.8 306.8,345.5 310,349 C 312.8,352 314.6,353.4 318.2,355.2 C 320.7,356.4 321.9,356.3 325,357.4 C 325.5,357.6 325.7,357.8 325.9,358.6 C 326.9,362.4 327.3,364.8 328.1,368.7 C 329,372.6 329.4,374.8 330.3,378.7 C 332.6,381.3 334.1,382.6 337,384.5 C 339.3,386 340.8,386.7 343.4,387.7 C 344.5,393.9 344.9,397.5 345.1,403.7 C 345.2,407.6 345.2,409.8 345,413.7 C 344.6,415.3 344.1,416 342.5,417.1 C 341.5,417.8 340,417.9 339.3,417.9 L 317.6,417.9 C 316.1,416.6 315.5,415 316,413 C 316.5,411.3 317.4,410.2 319.2,409.7 C 321,409.1 322.7,409.1 324.8,409.1 C 324.8,407.4 324.5,405 323.8,403.7 C 323.3,402.8 322.7,402.4 321.8,401.8 C 317.1,398.5 314.6,396.7 310.8,393.6 C 308.5,391.8 307.5,390.7 305.6,388.7 C 305.5,388 305.4,387.7 305.2,387 C 305.1,386.6 305.1,386.4 305,386 C 305.5,385.3 305.7,384.9 306,384.1 C 306.5,383 306.6,382.4 306.8,381.2 C 306.4,382.6 306.1,383.3 305.4,384.5 C 305.1,385 305,385.2 304.6,385.7 C 305.4,389.1 305.8,391.1 306.2,394.6 C 306.6,397.4 306.7,399 306.8,401.9 C 305,405.4 303.5,407.5 301.1,411.3 C 299.9,413.2 298.1,415.3 296.5,417 C 295.6,417.9 294.3,417.8 293,417.8 L 271,417.8 C 269.8,416.8 269.2,415.8 269.2,414.3 C 269.2,411.9 270.6,409.7 273.5,408.9 C 274.8,408.5 276.6,408.5 278,408.6 C 278.2,407.4 278.3,406.8 278.4,405.5 C 278.5,404.3 278.4,403.8 278.5,402.3 C 278.5,401.7 278.4,401.2 278,400.7 C 276.5,398.8 274.9,396.9 273.6,394.1 C 273,392.9 272.8,392.1 272.4,390.8 C 268.8,390.4 266.8,390.1 263.2,389.5 C 260.1,389 258.4,388.7 255.3,388.2 C 252.7,386.2 250.1,384.6 247.8,384 C 247.4,383.9 247,383.9 246.5,383.9 C 246.1,383.1 245.8,382.6 245.5,381.8 C 245.2,381 244.9,379.9 244.5,377 C 244.6,380.4 245.2,382.8 246.2,385.5 C 247.2,388.4 247.4,389.1 248.4,392.7 C 248.6,393.5 248.6,394 248.4,394.8 C 247.5,399.2 247,401.1 245.8,405.1 C 244.5,409.3 243.6,412.5 242,415.7 C 241.6,416.6 240.9,417.8 239.9,417.8 L 216.6,417.8 C 215.8,416.7 215.3,415 215.4,413.6 C 215.5,412.5 216,411.3 216.8,410.5 C 217.6,409.7 220.2,407.9 224.1,407.3 C 224.1,403 223.9,401 223.9,397 C 223.9,392.8 223.9,390.5 223.9,386.3 C 222.7,384.6 222.5,384 221.9,382.4 C 221.3,380.7 221,379.7 220.8,378 C 220.7,379.5 220.8,380.4 221.1,381.9 C 221.5,383.6 222.1,384.9 222.9,386.2 C 219.7,389.2 217.7,390.7 214.1,393.2 C 211,395.3 209.2,396.4 205.9,398.2 C 205.7,399.7 205.6,400.2 205.1,401.1 C 204.3,402.4 202.9,403.3 202,403.3 L 182.9,403.3 C 181.6,403.3 179.9,398.5 181.4,396.9 C 184.4,393.7 186.1,391.8 188.7,388.2 C 190.8,385.4 192.2,383.3 193.8,380.8 C 195.2,378.6 198.3,377.7 201.5,376.1 C 204.3,374.7 205.9,374 208.8,373 C 208.8,373 209.2,370.5 208.5,370.5 C 207.8,370.6 205.8,370.6 204.1,370.3 C 201.7,369.9 200,369.3 197.5,368.4 C 195,367.5 193.6,366.9 191.2,365.6 C 189.2,365.6 188,365.5 186,365.3 C 184.1,365.1 183.1,365 181.2,364.7 C 181.2,364.7 180.3,361.7 181.3,361.6 C 182,361.5 182.3,361.5 183,361.4 C 183.7,361.3 184.9,361.6 184.9,361 C 183.4,361.1 182.6,361.1 180.9,361.2 C 180,361.2 179,361.2 177.8,361.2 C 177.4,361.2 176.2,360 175,358.8 C 173.7,357.5 172.2,356.3 172.2,355.7 C 172.2,355 172.2,352.4 172.2,352.4 C 171.7,351.7 172.2,350.9 172.9,350.9 C 174.2,350.6 176.4,350.1 176.4,350.1 C 178,348.6 179.3,347.5 181,346.2 C 182.9,344.6 184,343.9 186.1,342.5 C 186.8,339.3 186.9,336.8 189,336.4 C 191.8,335.8 194.7,335.3 199.2,335.2 C 199.7,333.5 200.4,332.3 201.9,331.4 C 203.9,330.2 206.9,330.2 208.9,330.2 C 210.7,332.3 212.2,334.7 212.6,338.2 C 212.9,340.4 212.4,341.9 211.8,343.8 C 212.3,343.1 212.6,342.7 212.8,341.9 C 213.8,338.2 212.4,333.5 211.4,330.7 C 211.3,330.2 216.2,329.2 221.1,327"
         id="path2896" />
      <path
         d="M 209.5,369.1 C 210,369 210,370.5 210,371.4 C 210.1,372.3 210,372.9 209.8,373.8 C 207.4,374.7 206,375.3 203.6,376.4 C 200.6,377.8 198.3,378.9 196,380.3 C 195.1,380.8 194.8,381.4 194.3,382.2 C 192.4,385.2 191.3,386.7 189.2,389.5 C 186.8,392.6 184.7,395 182.6,397.2 C 182,397.8 181.7,398.4 181.9,399.2 C 182.2,400.8 182.7,401.9 183.3,401.9 L 200.4,401.9 C 201.4,401.9 202.4,401.7 202.9,401.3 C 203.9,400.5 204.6,399.3 204.4,397.4 C 208.2,395.5 210.2,394.2 213.7,391.8 C 216.7,389.7 218.4,388.3 221.1,385.8 C 220.4,384.4 220.1,383.5 219.8,381.9 C 219.4,380.2 219.2,379.2 219.4,377.5 C 219.7,375.7 220,374.7 221.1,373.2 C 221.3,374.9 221.4,375.8 221.8,377.5 C 222.3,379.6 222.4,380.9 223.3,382.8 C 223.8,383.9 224.2,384.5 224.9,385.4 C 224.9,389.2 225,391.3 225,395 C 225.1,399.8 225.1,402.3 225.2,407.2 C 225.2,407.8 224.9,408.2 224.3,408.3 C 223.2,408.4 221.1,409.1 220.5,409.3 C 218.6,410.2 217,411.2 216.6,413.1 C 216.4,414.4 216.8,416.3 217.5,416.3 L 239.4,416.3 C 240.8,416.3 242.9,410.2 244.4,405.3 C 245.6,401.2 246.4,398.5 247.1,395 C 247.3,394.2 247.3,393.4 247.1,392.6 C 246.7,391.3 245.5,387.5 244.5,384.6 C 243.5,381.6 243.3,379.3 243.1,376.4 C 243,374.1 243.4,372.6 245,371.2 C 244.9,373.3 245,374.5 245.3,376.6 C 245.7,379 246,380.3 246.9,382.5 C 247.9,382.7 248.5,382.9 249.3,383.2 C 251.5,384 253.2,385.2 255.6,387 C 258.2,387.5 259.6,387.7 262.3,388.2 C 266.6,388.9 269,389.2 273.3,389.6 C 273.6,391.2 273.9,392.1 274.6,393.6 C 275.7,396.2 277.7,398.4 279.2,400.2 C 279.6,400.7 279.7,401.1 279.7,401.7 C 279.7,403.2 279.6,404.1 279.6,405.4 C 279.5,407.7 279.1,409.9 278.5,409.9 C 277.2,409.5 276,409.7 275.1,409.7 C 273.1,409.8 270.8,410.9 270.5,414.2 C 270.4,415.2 271.2,416.4 272.1,416.4 L 293.4,416.4 C 294,416.4 295.3,416.5 295.9,415.8 C 298,413.5 299.4,411.5 301.3,408.5 C 303.1,405.8 304,404.2 305.6,401.3 C 305.5,398.7 305.4,397.2 305.1,394.6 C 304.7,390.9 304.3,388.9 303.5,385.3 C 304.3,384.1 304.7,383.5 305.3,382.2 C 306.3,380.1 306.7,378.9 307,376.7 C 307.7,378.1 307.9,379 307.9,380.6 C 307.9,382.9 307.1,384.5 306,386.3 C 305.6,387 308.7,389.8 310.8,391.6 C 313,393.6 315.6,395.6 318.9,398 C 320.5,399.1 321.8,399.9 322.9,400.7 C 324.4,401.7 325.1,402.7 325.5,404.5 C 325.9,405.9 326,407.4 326,410.2 C 324.7,410.2 323.8,410.2 322.9,410.2 C 320.3,410.3 317.7,410.7 317.3,413.7 C 317.2,414.8 317.7,416.4 318.7,416.4 L 339.3,416.4 C 340.1,416.4 340.6,416.3 341.3,415.9 C 342.5,415.3 343.6,414.2 343.7,413.3 C 344,409.2 343.9,406.6 343.8,402.3 C 343.6,396.8 343.2,393.7 342.3,388.3 C 339.6,387.3 338.2,386.6 335.8,385 C 333.3,383.3 331.2,381.4 329.5,379.3 C 329.1,378.9 329,378.1 328.8,377.6 C 327.6,372.1 327.2,370.5 326.3,365.9 C 325.7,363 325.3,361.3 324.8,358.4 C 322.4,357.6 321.1,357.4 319.2,356.6 C 316.4,355.5 314.3,354.1 312.3,352.5 C 310.5,351.2 309.5,349.7 308,348.2 C 305.5,345.8 303.5,344.7 300.4,342.8 C 297,340.7 293.4,339 291.4,338 C 290.8,337.7 290.4,337.6 289.7,337.6 C 288,337.7 285.3,337.5 282.5,337 C 278.1,336.2 272.7,334.6 268.2,333 C 267.5,334.7 267,335.9 266.2,337.5 C 264.3,340.9 262.1,342.4 258.9,342.7 C 258.8,342.4 261,340.6 262,338.9 C 263.2,337 263.7,335.8 264.3,333.6 C 262.1,331.8 260.8,330.8 258.6,329 C 255.6,326.6 253.9,325.2 250.9,322.8 C 248.1,322.7 246.6,322.7 243.8,322.8 C 239.3,322.9 236.8,323.1 232.4,323.5 C 229.9,324.5 228.5,325.1 226,326.1 C 223.3,327.2 221.8,328 219.1,329 C 216.8,329.9 215.5,330.3 213.2,331.1 C 213.8,333.1 214.5,335.6 214.5,339 C 214.5,341.1 214.2,343 212.9,344.7 C 212.1,345.7 210.7,346.6 209.4,347.5 C 210.2,345.7 210.5,344.6 211,342.7 C 211.3,341.2 211.8,340.3 211.6,338.7 C 211.2,334.9 209.7,332.8 208.5,331.1 C 207.2,331.1 204.9,331.3 203.7,331.7 C 201.6,332.5 200.7,334.1 200.2,336.3 C 198.2,336.3 197,336.3 195,336.5 C 192.8,336.7 191.1,337 189.5,337.4 C 189,337.5 188.7,337.8 188.6,338.3 C 188.2,339.8 187.8,341.5 187.5,343.2 C 185.5,344.4 184.4,345.2 182.5,346.6 C 180.4,348.2 177.9,350.7 177.3,350.9 C 176.7,351.1 176.3,351.2 175.7,351.4 C 175,351.6 174.5,351.7 173.8,351.8 L 173.8,355.1 C 174.6,355.9 175.1,356.3 175.9,357.1 C 176.8,358 177.4,358.6 178.3,359.5 C 180.3,359.4 181.5,359.3 183.5,359.4 C 185.7,359.5 189,359.4 189.1,359.9 C 188.3,360.7 187.6,361.3 186.6,361.6 C 185,362.1 184.1,362 182.3,362.3 L 182.4,363.2 C 183.7,363.4 184.3,363.5 185.6,363.7 C 188,364 189.4,364 191.8,364 C 193.8,365 194.9,365.5 196.9,366.3 C 199.5,367.3 201.1,368 203.9,368.5 C 204.9,368.7 205.4,368.7 206.4,368.8 C 207.4,369.2 208.2,369.2 209.5,369.1"
         id="path2898" />
      <path
         d="M 318.5,412.8 C 318.5,413.8 318.8,414.9 319.9,414.9 C 320.3,414.9 320.4,414.8 320.6,414.6 C 320.9,414.3 320.7,413.9 320.9,413.5 C 321.2,412.8 321.6,412.6 322,411.8 C 322.1,411.5 321.9,411 321.5,411 C 321,411 320.8,411 320.2,410.9 C 319.2,410.7 318.6,411.8 318.5,412.8"
         style="fill:white"
         id="path2900" />
      <path
         d="M 322,412.8 C 322,413.8 322.3,414.9 323.4,414.9 C 323.8,414.9 323.8,414.8 324.1,414.6 C 324.4,414.3 324.2,413.9 324.4,413.5 C 324.7,412.8 325.1,412.6 325.4,411.8 C 325.6,411.5 325.3,411 324.9,411 C 324.4,411 324.2,411 323.6,410.9 C 322.7,410.7 322,411.8 322,412.8"
         style="fill:white"
         id="path2902" />
      <path
         d="M 272.1,412.8 C 272.1,413.8 272.4,414.9 273.5,414.9 C 273.9,414.9 274,414.8 274.2,414.6 C 274.5,414.3 274.3,413.9 274.5,413.5 C 274.8,412.8 275.2,412.6 275.6,411.8 C 275.7,411.5 275.5,411 275.1,411 C 274.6,411 274.4,411 273.8,410.9 C 272.8,410.7 272.2,411.8 272.1,412.8"
         style="fill:white"
         id="path2904" />
      <path
         d="M 275.6,412.8 C 275.5,413.8 275.9,414.9 277,414.9 C 277.4,414.9 277.4,414.8 277.7,414.6 C 278,414.3 277.8,413.9 278,413.5 C 278.3,412.8 278.7,412.6 279.1,411.8 C 279.2,411.5 279,411 278.6,411 C 278.1,411 277.9,411 277.3,410.9 C 276.3,410.7 275.6,411.8 275.6,412.8"
         style="fill:white"
         id="path2906" />
      <path
         d="M 217.9,412.8 C 217.9,413.8 218.2,414.9 219.3,414.9 C 219.7,414.9 219.7,414.8 220,414.6 C 220.3,414.3 220.1,413.9 220.3,413.5 C 220.6,412.8 221,412.6 221.4,411.8 C 221.5,411.5 221.2,411 220.9,411 C 220.4,411 220.2,411 219.6,410.9 C 218.6,410.7 218,411.8 217.9,412.8"
         style="fill:white"
         id="path2908" />
      <path
         d="M 221.4,412.8 C 221.4,413.8 221.7,414.9 222.8,414.9 C 223.2,414.9 223.2,414.8 223.5,414.6 C 223.8,414.3 223.6,413.9 223.8,413.5 C 224.1,412.8 224.5,412.6 224.9,411.8 C 225,411.5 224.7,411 224.4,411 C 223.9,411 223.7,411 223.1,410.9 C 222,410.7 221.4,411.8 221.4,412.8"
         style="fill:white"
         id="path2910" />
      <path
         d="M 183.4,399.1 C 183.4,400.1 183.7,401.2 184.8,401.2 C 185.2,401.2 185.2,401.1 185.5,400.8 C 185.8,400.5 185.6,400.1 185.8,399.7 C 186.1,398.9 186.5,398.8 186.9,397.9 C 187,397.6 186.7,397.1 186.4,397.1 C 185.9,397.1 185.7,397.1 185.1,397 C 184.1,397 183.4,398.1 183.4,399.1"
         style="fill:white"
         id="path2912" />
      <path
         d="M 186.8,399.1 C 186.8,400.1 187.1,401.2 188.2,401.2 C 188.6,401.2 188.6,401.1 188.9,400.8 C 189.2,400.5 189,400.1 189.2,399.7 C 189.5,398.9 189.9,398.8 190.3,397.9 C 190.4,397.6 190.1,397.1 189.8,397.1 C 189.3,397.1 189.1,397.1 188.5,397 C 187.5,397 186.9,398.1 186.8,399.1"
         style="fill:white"
         id="path2914" />
      <path
         d="M 184.7,400.5 C 184.8,400 184.9,399.6 185.1,399.2 C 185.4,398.7 185.5,398.4 185.9,398 C 185.9,398 185,398 184.5,397.9 C 184.1,398.2 183.9,398.5 183.9,399 C 184,399.6 184.1,400.3 184.7,400.5"
         style="fill:white;fill-rule:evenodd"
         id="path2916" />
      <path
         d="M 188.2,400.5 C 188.3,400 188.4,399.6 188.6,399.2 C 188.8,398.7 189,398.4 189.4,398 C 189.4,398 188.6,398 188,397.9 C 187.6,398.2 187.4,398.5 187.4,399 C 187.4,399.6 187.5,400.3 188.2,400.5"
         style="fill:white;fill-rule:evenodd"
         id="path2918" />
      <path
         d="M 219.3,414.2 C 219.4,413.7 219.5,413.4 219.7,412.9 C 219.9,412.4 220.1,412.1 220.5,411.7 C 220.5,411.7 219.6,411.7 219.1,411.6 C 218.7,411.9 218.5,412.2 218.5,412.8 C 218.5,413.3 218.6,414 219.3,414.2"
         style="fill:white;fill-rule:evenodd"
         id="path2920" />
      <path
         d="M 222.7,414.2 C 222.8,413.7 222.9,413.4 223.1,412.9 C 223.3,412.4 223.5,412.1 223.9,411.7 C 223.9,411.7 223.1,411.7 222.6,411.6 C 222.2,411.9 222,412.2 222,412.8 C 221.9,413.3 222.1,414 222.7,414.2"
         style="fill:white;fill-rule:evenodd"
         id="path2922" />
      <path
         d="M 273.5,414.2 C 273.6,413.7 273.7,413.4 273.9,412.9 C 274.2,412.4 274.3,412.1 274.7,411.7 C 274.7,411.7 273.9,411.7 273.3,411.6 C 272.9,411.9 272.7,412.2 272.7,412.8 C 272.7,413.3 272.9,414 273.5,414.2"
         style="fill:white;fill-rule:evenodd"
         id="path2924" />
      <path
         d="M 276.9,414.2 C 277,413.7 277.1,413.4 277.3,412.9 C 277.6,412.4 277.7,412.1 278.1,411.7 C 278.1,411.7 277.3,411.7 276.7,411.6 C 276.3,411.9 276.1,412.2 276.1,412.8 C 276.2,413.3 276.3,414 276.9,414.2"
         style="fill:white;fill-rule:evenodd"
         id="path2926" />
      <path
         d="M 319.9,414.2 C 320,413.7 320.1,413.4 320.3,412.9 C 320.6,412.4 320.7,412.1 321.1,411.7 C 321.1,411.7 320.3,411.7 319.8,411.6 C 319.4,411.9 319.2,412.2 319.2,412.8 C 319.1,413.3 319.2,414 319.9,414.2"
         style="fill:white;fill-rule:evenodd"
         id="path2928" />
      <path
         d="M 323.3,414.2 C 323.4,413.7 323.5,413.4 323.7,412.9 C 324,412.4 324.1,412.1 324.5,411.7 C 324.5,411.7 323.7,411.7 323.1,411.6 C 322.7,411.9 322.5,412.2 322.5,412.8 C 322.5,413.3 322.7,414 323.3,414.2"
         style="fill:white;fill-rule:evenodd"
         id="path2930" />
      <path
         d="M 192.6,341.9 C 192,342.9 191.8,343.7 191.9,344.9 C 192,346.5 192.7,347.5 193.9,348.4 L 193.9,347.1 C 194.2,347.1 194.5,347.1 194.8,347.1 C 195.4,347 195.7,347 196.3,346.8 C 195.4,346.3 194.9,345.9 194.3,345.1 C 193.4,344.1 193,343.3 192.6,341.9"
         style="fill:white"
         id="path2932" />
      <path
         d="M 192.7,343.8 C 192.9,344.3 193.1,344.6 193.4,345.1 C 193.8,345.7 194.2,346 194.8,346.4 C 194.5,346.5 194.3,346.5 193.9,346.4 C 193.6,346.4 193.4,346.4 193.1,346.3 C 193,346 192.9,345.9 192.8,345.6 C 192.7,344.9 192.6,344.5 192.7,343.8"
         style="fill:white"
         id="path2934" />
      <path
         d="M 256.6,510.2 C 157.4,510.2 76.9,429.8 76.9,330.6 L 76.9,75.3 L 436.2,75.3 L 436.2,330.6 C 436.3,429.8 355.8,510.2 256.6,510.2 M 256.6,507.4 C 158.9,507.4 79.8,428.2 79.8,330.6 L 79.8,78.2 L 433.4,78.2 L 433.4,330.6 C 433.4,428.3 354.2,507.4 256.6,507.4 z "
         style="fill-rule:evenodd"
         id="path2936" />
    </g>
  </g>
</svg>
