<svg xmlns="http://www.w3.org/2000/svg" xmlns:xlink="http://www.w3.org/1999/xlink"  viewBox="0 0 750 500">
<path fill="#fff" d="M0 0h750v500H0z"/>
<path fill="#061d60" d="M0 0h300v500H0z"/>
<path fill="#d7110e" stroke="#fff" stroke-width=".557" d="M51.001 98.447c0 20.597 16.857 37.295 37.454 37.295S125.7 119.044 125.7 98.447V50.218H51.001v48.229z"/>
<path fill="#fff" stroke="#010001" stroke-width=".557" d="M68.302 96.299c0 12.15 9.047 22.002 20.105 22.002 11.056 0 19.992-9.851 19.992-22.002V67.846H68.302v28.453z"/>
<g id="b">
<g id="a" fill="#ffd02e" stroke="#010101" stroke-width=".063">
<path d="M62.866 58.534v-5.298h2.183v5.299h-2.183zm-4.37 0v-5.298h2.185v5.299h-2.185zm-4.369 0v-5.298h2.185v5.299h-2.185z"/>
<path d="M61.201 53.888v-1.23h-3.225v1.23H61.2zm3.849 10.754v-8.99H54.126v8.99H65.05z"/>
<path d="M65.596 58.819v-1.2H53.58v1.2h12.015zm0 7.029V64.65H53.58v1.2h12.015zm-8.808-1.206v-2.119c0-1.493 1.254-2.703 2.8-2.703 1.547 0 2.8 1.21 2.8 2.703v2.119h-5.6z"/>
<path d="M57.908 64.642v-1.633c0-1.15.752-2.085 1.68-2.085.928 0 1.68.935 1.68 2.085v1.633h-3.36zm7.628-10.754v-1.23H62.31v1.23h3.226zm-11.896 0v-1.23h3.226v1.23H53.64z"/>
</g>
<use xlink:href="#a" y="33.842"/>
<use xlink:href="#a" transform="rotate(-56.477 124.868 78.085)"/>
</g>
<use xlink:href="#a" x="28.789"/>
<use xlink:href="#b" transform="matrix(-1 0 0 1 176.752 0)"/>
<g id="c" fill="#fff">
<path fill="#004b8f" d="M83.5 93.588c0 2.848 2.186 5.158 4.855 5.158 2.669 0 4.826-2.31 4.826-5.158v-6.673H83.5v6.673z"/>
<circle cx="88.342" cy="91.986" r=".903"/>
<circle cx="86.042" cy="88.99" r=".903"/>
<circle cx="90.639" cy="88.99" r=".903"/>
<circle cx="86.042" cy="94.983" r=".903"/>
<circle cx="90.639" cy="94.983" r=".903"/>
</g>
<use xlink:href="#c" y="-15.482"/>
<use xlink:href="#c" x="-12.518"/>
<use xlink:href="#c" y="15.485"/>
<use xlink:href="#c" x="12.521"/>
<path id="d" fill="#ffd02e" stroke="#ffd02e" stroke-width=".451" d="M300.015 111.652l8.566 26.386-22.46-16.319 27.787.04-22.459 16.28z"/>
<use xlink:href="#d" transform="rotate(-55 300 306.3)"/>
<use xlink:href="#d" transform="rotate(-41.25 300 306.3)"/>
<use xlink:href="#d" transform="rotate(-27.5 300 306.3)"/>
<use xlink:href="#d" transform="rotate(-13.75 300 306.3)"/>
<use xlink:href="#d" transform="rotate(13.75 300 306.3)"/>
<use xlink:href="#d" transform="rotate(27.5 300 306.3)"/>
<use xlink:href="#d" transform="rotate(41.25 300 306.3)"/>
<use xlink:href="#d" transform="rotate(55 300 306.3)"/>
<g fill="none" stroke="#010101" stroke-width=".451">
<path fill="#ffd02e" d="M288.587 264.395c5.579-14.54 17.218-15.653 23.943-23.723 2.633-3.162 9.06-1.81 13.575-2.784 4.301-.927 5.735.928 6.157 5.06 8.01-.337 7.842 3.12 7.082 6.493-.337-1.349-3.962-1.56-5.733-1.392 0 2.951-2.109 3.079-5.396 3.923-2.537.649-2.983 4.602-3.048 7.463 7.083.167 13.334-6.115 19.742-13.03 6.41-6.914 16.941-12.95 34.067-11.974 20.743 1.18 61.894 1.855 75.723-2.193 13.83-4.049 16.865 1.687 6.747 8.095 1.177 2.53-1.56 7.05-6.41 8.939 2.361 2.866-1.35 6.746-8.601 9.611.337 4.553-6.915 9.781-16.19 10.627 2.36 5.732-11.637 10.793-26.815 9.78 1.518 2.193-3.54 6.072-9.277 6.072 2.024 2.36-3.203 5.06-6.913 5.229 2.192 2.024-8.601 5.228-14.335 4.047.168 2.024-6.24 3.541-10.456 2.53-.507 1.854-5.06 2.528-7.758.673-.675 1.856-3.878 2.194-6.746.338-1.855 1.856-5.06 1.687-6.914-.506-1.181 2.024-4.048 2.698-6.073.168-1.686 2.194-4.046 1.52-5.901-.674-.337 2.024-6.295 5.398-9.668-6.747-.84 5.698-2.457 9.244-3.823 11.637 1.12 3.466 1.794 11.175 1.526 18.045 1.012 6.747 4.038 16.526 5.978 22.767 1.94 6.242-1.09 5.607-2.86 4.594.222.848.246 1.9-.008 3.248-.675-.901-2.398-2.263-3.917-2.263-.042.925-.4 1.875-1.228 2.768-1.6-2.024-3.203-4.47-5.06-4.47-1.854.423-5.395 2.194-6.407 5.146a5.929 5.929 0 0 1-.573-2.557c-1.348 1.096-5.434 1.266-6.362-.087-.006.62-.113 1.293-.316 2.052-.712-1.047-2.295-2.46-3.896-2.535a4.234 4.234 0 0 1-1.265 2.806c-1.508-2.093-3.365-3.951-5.22-4.037-1.871.34-5.49 1.947-6.635 4.849-.598-1.403-.832-3.576.112-5.24-1.074-.095-2.186-.752-1.816-2.08-3.205 5.566-7.421 4.385-9.108 1.684-3.373 3.711-10.272 1.497-7.252-3.201 12.142-18.89 13.66-24.96 17.033-34.911 1.319-3.957.506-10.12 2.362-16.02-4.218 7.419-9.446 8.6-10.626 6.914-1.348 1.687-5.901 3.372-7.083.673-1.348 1.014-4.384 1.014-5.564-.337-2.194 1.687-5.397 1.856-5.903.337-2.193 1.35-6.746 1.183-7.59-.337-3.372 2.868-10.793 1.351-10.456-2.866-7.884 3.692-15.01 1.687-14.671-2.192-4.722.505-7.421-1.857-7.083-4.049-5.06.337-8.096-2.865-7.253-6.24-10.792 1.013-37.607-2.192-35.752-10.626-7.59-1.347-18.888-6.913-15.177-11.298-4.891-1.35-10.457-5.396-9.95-9.275-6.916-1.52-8.265-7.252-6.072-8.433-6.578-2.193-7.582-10.485 3.88-7.59 16.02 4.049 59.026 3.374 82.299 2.025 23.274-1.35 23.104 4.89 43.51 19.225 9.214 6.476 16.982 4.965 21.424 5.849z"/>
<path d="M314.804 344.895c.88.834 1.545 2.155 1.48 3.555m3.924-.985c-.664-2.534-3.126-3.014-5.404-2.57-1.602-.422-2.952-1.516-2.952-4.382 0-1.86 1.097-4.642 3.371-9.447 1.12-2.357 1.69-6.479 1.866-10.958m-14.07 29.231c.01-2.04 1.097-4.227 4.281-4.866 1.686-.335 2.36-.761 2.36-3.202 0-7.84-9.781-9.36-9.781-28.754m10.312-3.191c1.155-2.88 3.891-4.67 5.371-7.266m-26.975-37.667c1.56.31 2.71.892 3.368 2.249m-.909 78.264c.874.906 1.494 2.375 1.4 3.859"/>
<path d="M296.655 349.252c.036-3.462-2.794-4.761-5.613-4.346-1.581-.49-2.541-.769-2.411-3.631.534-11.695 10.691-15.38 8.381-36.685m-17.575 42.554c.617-1.09 1.736-1.97 3.595-2.256 1.7-.26 2.39-.671 2.502-3.112.1-2.212-1.368-3.216-2.18-4.472-3.888-6.01-7.083-22.6-5.061-28.671m46.874-49.199c-.018.848.01 1.697.01 2.487 0 8.266-5.313 11.807-5.226 18.72.047 3.83-.159 7.053-.56 9.782m-28.955-20.745c-16.864-.675-31.032-4.721-39.128-16.19-8.097-11.467-21.925-11.803-35.414-10.456-13.493 1.35-27.322 1.01-39.125 0m18.423.884c-1.014 2.866 2.317 8.223 27.614 5.523m-25.293-1.347c.675 5.732 13.659 9.782 30.357 6.241"/>
<path d="M205.775 254.416c-5.06.17-1.686 5.483 4.216 6.154 5.902.675 16.359.841 22.09-.675"/>
<path d="M209.991 260.571c-3.375 2.7-1.66 6.483 9.107 7.252 2.36.17 11.129.335 19.225-2.025"/>
<path d="M220.322 267.906c-3.036 2.025.296 5.65 6.032 5.65 5.732 0 12.142-1.012 16.525-3.206"/>
<path d="M226.35 273.558c-2.36 3.205 1.451 6.653 8.937 4.891 2.866-.675 9.613-3.371 11.638-5.06"/>
<path d="M235.963 278.28c-3.205 2.025-1.1 6.754 5.06 3.877 2.531-1.18 5.902-3.202 8.263-5.566m-8.263 5.569c-.845 2.53 1.855 4.555 5.736 2.195 3.876-2.361 5.901-4.891 7.082-6.747m-7.086 6.743c-.505 2.191 2.025 5.736 10.793-4.216m-6.577 5.902c-.675 2.7 3.375 4.386 9.782-3.88m-5.226 5.23c1.686 2.7 4.216 2.53 10.118-3.877m-5.902 5.057c-.336 2.527 3.88 3.202 8.602-2.025m-3.332 2.87c-.336 2.53 4.848 1.35 8.389-3.036m-3.711 3.202c1.35 2.025 5.736 2.191 8.602-2.7m-.841 1.184c-2.7 3.541 1.686 4.891 5.06 1.35m-1.859 3.205c5.902-4.555 3.205-14.334 7.591-14.334m-150.77-33.396c10.962 4.046 40.644 6.577 60.544 4.891m-54.473 3.545c12.479 3.541 42.077 4.595 60.292 4.09m-50.343 5.183c8.771 2.025 38.114 6.407 57.003 3.205m-41.825 8.093c7.421 1.855 37.27 4.26 53.292-1.137m-17.539 11.764c4.721-.17 16.402-2.992 22.64-6.703m-15.388 12.94c6.916-1.01 16.825-3.963 23.062-9.024m-15.976 13.074c4.891-.17 17.709-5.48 23.271-9.7m-8.602 11.891c4.891-2.021 11.132-6.154 15.684-10.2m-5.227 13.066c4.555-3.205 8.432-7.927 11.973-11.973m-4.385 12.313c3.541-2.021 6.198-5.945 9.064-9.991m-3.159 9.651c2.866-2.025 6.407-6.028 8.432-9.233m-2.869 9.573c2.7-2.191 5.736-5.902 7.587-9.782m-.502 9.107c2.36-2.021 4.595-4.765 6.62-9.316m-8.139 56.537c3.541-6.071 7.757-13.32 10.793-20.24m-1.686 18.554c2.025-3.036 3.415-6.62 4.934-9.316m12.775 9.146c-.087-3.624-.762-15.178-.505-20.828m8.684 21.922c.087-4.3-1.772-13.829-1.686-20.74m15.179 19.563c-.505-2.112-2.108-9.024-2.444-12.143m10.623-66.023c17.54-.34 22.26-28.336 50.932-27.66 28.667.674 46.21 2.7 59.7 1.35m-54.138 5.396c17.878 1.35 25.296-1.35 25.127-5.566m-28.328 10.962c11.298 1.516 22.553 2.53 22.134-5.902m-27.195 11.468c9.107 1.855 22.936 4.216 22.6-5.227m-29.346 10.623c12.984 3.71 25.466 5.057 24.621-4.216m-29.682 10.288c11.298 4.386 23.61 4.848 22.26-3.249m-27.657 6.79c10.118 6.577 18.68 5.692 18.68-.379m-23.401 3.584c8.768 6.241 15.009 6.746 15.854 1.18m-18.89 1.011c5.736 6.407 10.793 6.241 11.973 2.53m-16.019-2.024c3.71 5.902 9.612 8.096 10.118 4.216m-13.237-2.697c3.71 5.902 9.107 8.262 9.612 4.386m-13.026-3.043c3.332 6.126 8.317 8.23 9.064 4.393m-12.862-3.718c2.317 6.837 7.295 8.775 8.389 4.812m-12.424-5.509c1.029 7.147 5.562 9.963 7.367 6.27m-10.486-4.837c1.029 7.143 4.415 8.797 6.523 5.844m-10.656-5.421c1.029 7.143 4.415 8.797 6.523 5.844m-4.805-.506c-1.014 1.433-2.7 2.7-4.808.505m141.75-47.809c-9.11 6.241-48.74 7.757-61.053 7.252m54.642 1.686c-12.479 5.566-37.609 7.421-60.378 6.41m51.78 3.202c-9.612 4.552-44.185 4.891-56.498 3.88m40.306 6.747c-10.457 1.855-33.728 1.18-47.56-.17m20.744 9.948c-8.096-.17-21.29-2.317-29.891-4.512m20.614 10.584c-5.227.675-20.658-2.7-28.415-6.241m21.502 11.471c-4.555.845-19.9-1.855-27.996-9.107m13.663 13.153c-6.746-.675-15.388-5.65-20.11-10.88m9.653 13.411c-5.902-1.18-10.623-6.577-14.504-11.973m6.746 12.648c-3.036-2.191-8.685-7-11.468-11.468m4.722 11.804c-3.88-1.938-7-6.324-8.519-10.287m1.607 9.781c-2.195-2.53-4.386-5.65-5.736-9.36m-.339 9.53c-1.769-2.278-3.119-4.3-4.891-9.024m-1.011 8.349c-1.855-2.025-3.079-4.425-4.934-9.064m9.489-40.056c-1.855.126-3.667.043-4.512.379m3.162-5.479c.126 1.01-.801.884-.928 1.729m-12.326-1.906c2.177-.635 4.274 1.022 6.31.495.902-.235 2.418-.372 3.866.4"/>
<path d="M321.955 242.952c-.202 1.054.693 2.104 1.982 2.173 1.133.058 2.317-.686 2.234-1.95"/>
</g>
</svg>
