<?xml version="1.0" encoding="UTF-8" standalone="no"?>
<!-- Created with Inkscape (http://www.inkscape.org/) -->
<svg
   xmlns:dc="http://purl.org/dc/elements/1.1/"
   xmlns:cc="http://web.resource.org/cc/"
   xmlns:rdf="http://www.w3.org/1999/02/22-rdf-syntax-ns#"
   xmlns:svg="http://www.w3.org/2000/svg"
   xmlns="http://www.w3.org/2000/svg"
   xmlns:sodipodi="http://sodipodi.sourceforge.net/DTD/sodipodi-0.dtd"
   xmlns:inkscape="http://www.inkscape.org/namespaces/inkscape"
   width="1203.1936"
   height="796.79163"
   id="svg2"
   sodipodi:version="0.32"
   inkscape:version="0.45.1"
   sodipodi:docbase="C:\Users\Jany\Documents\aaaOuiqui\Drapeaux"
   sodipodi:docname="Drapeau fr département Aisne.svg"
   inkscape:output_extension="org.inkscape.output.svg.inkscape"
   version="1.0">
  <defs
     id="defs4" />
  <sodipodi:namedview
     id="base"
     pagecolor="#ffffff"
     bordercolor="#666666"
     borderopacity="1.0"
     inkscape:pageopacity="0.0"
     inkscape:pageshadow="2"
     inkscape:zoom="0.49497475"
     inkscape:cx="257.05283"
     inkscape:cy="286.55167"
     inkscape:document-units="px"
     inkscape:current-layer="layer1"
     inkscape:window-width="1152"
     inkscape:window-height="814"
     inkscape:window-x="-8"
     inkscape:window-y="-8"
     showguides="true"
     inkscape:guide-bbox="true" />
  <metadata
     id="metadata7">
    <rdf:RDF>
      <cc:Work
         rdf:about="">
        <dc:format>image/svg+xml</dc:format>
        <dc:type
           rdf:resource="http://purl.org/dc/dcmitype/StillImage" />
      </cc:Work>
    </rdf:RDF>
  </metadata>
  <g
     inkscape:label="Calque 1"
     inkscape:groupmode="layer"
     id="layer1"
     transform="translate(1127.278,-136.21415)"
     style="display:inline">
    <path
       style="fill:#2b5df2;fill-opacity:1;stroke:none;stroke-width:3;stroke-miterlimit:4;stroke-opacity:1"
       d="M -1127.278,136.21415 L 75.900109,136.21415 L 75.900109,933.0058 L -1127.278,933.0058 L -1127.278,136.21415 z "
       id="rect2239"
       sodipodi:nodetypes="ccccc" />
    <path
       style="fill:#ffffff;fill-opacity:1;stroke:#000000;stroke-width:0.4;stroke-miterlimit:4;stroke-opacity:1;display:inline;stroke-dasharray:none"
       d="M 0 49.46875 L 0 178.75 L 997.40625 796.78125 L 1203.1875 796.78125 L 1203.1875 794.96875 L 0 49.46875 z "
       id="path7376"
       transform="translate(-1127.278,136.21415)" />
    <path
       style="fill:#fcef3c;fill-opacity:1;stroke:#000000;stroke-width:0.4;stroke-miterlimit:4;stroke-opacity:1;display:inline;stroke-dasharray:none"
       d="M 4.1875 0 L 0 6.75 L 0 21 L 1.65625 18.34375 L 11.3125 2.75 L 13 0 L 4.1875 0 z M 16.125 0 L 18 1.15625 L 54.125 23.53125 L 58.625 16.28125 L 32.34375 0 L 16.125 0 z M 50.875 0 L 67.90625 10.5625 L 72.03125 13.125 L 69.46875 17.28125 L 59.84375 32.8125 L 57.28125 36.96875 L 53.125 34.375 L 17.03125 12.03125 L 12.5 19.34375 L 96.15625 71.1875 L 100.6875 63.875 L 67.90625 43.5625 L 63.78125 41 L 66.34375 36.84375 L 75.96875 21.3125 L 78.53125 17.15625 L 82.6875 19.71875 L 175 76.90625 L 179.125 79.46875 L 176.5625 83.625 L 166.9375 99.15625 L 164.375 103.3125 L 160.21875 100.75 L 124.25 78.46875 L 119.71875 85.78125 L 203.40625 137.625 L 207.9375 130.3125 L 175.15625 110 L 171.03125 107.4375 L 173.59375 103.28125 L 182.6875 88.5625 L 185.28125 84.4375 L 189.40625 87 L 281.34375 143.96875 L 285.5 146.53125 L 282.9375 150.6875 L 273.8125 165.40625 L 271.25 169.53125 L 267.09375 166.96875 L 231.28125 144.78125 L 226.75 152.09375 L 311.375 204.53125 L 315.90625 197.21875 L 282.125 176.28125 L 277.96875 173.71875 L 280.53125 169.5625 L 290.1875 154.03125 L 292.75 149.875 L 296.875 152.4375 L 389.75 209.96875 L 393.875 212.5625 L 391.3125 216.6875 L 381.6875 232.25 L 379.125 236.375 L 374.96875 233.8125 L 338.84375 211.4375 L 334.3125 218.75 L 418 270.59375 L 422.53125 263.28125 L 389.78125 242.96875 L 385.625 240.40625 L 388.1875 236.28125 L 397.8125 220.71875 L 400.375 216.59375 L 404.53125 219.15625 L 496.8125 276.34375 L 500.96875 278.90625 L 498.375 283.03125 L 488.75 298.59375 L 486.1875 302.71875 L 482.0625 300.15625 L 446.09375 277.875 L 441.5625 285.1875 L 525.21875 337.03125 L 529.75 329.71875 L 497 309.40625 L 492.84375 306.84375 L 495.40625 302.71875 L 504.53125 288 L 507.09375 283.84375 L 511.25 286.40625 L 603.1875 343.40625 L 607.34375 345.96875 L 604.75 350.09375 L 595.65625 364.8125 L 593.09375 368.96875 L 588.9375 366.375 L 553.125 344.1875 L 548.5625 351.5 L 634.34375 404.65625 L 638.875 397.3125 L 605.0625 376.375 L 600.9375 373.8125 L 603.5 369.6875 L 613.125 354.125 L 615.6875 350 L 619.84375 352.5625 L 712.6875 410.09375 L 716.8125 412.65625 L 714.25 416.78125 L 704.625 432.34375 L 702.0625 436.46875 L 697.90625 433.90625 L 661.8125 411.53125 L 657.28125 418.875 L 740.9375 470.71875 L 745.46875 463.375 L 712.71875 443.0625 L 708.5625 440.5 L 711.125 436.375 L 720.75 420.8125 L 723.34375 416.6875 L 727.46875 419.25 L 819.78125 476.4375 L 823.90625 479 L 821.34375 483.15625 L 811.71875 498.6875 L 809.15625 502.84375 L 805 500.28125 L 769.03125 477.96875 L 764.5 485.3125 L 848.1875 537.15625 L 852.71875 529.84375 L 819.9375 509.53125 L 815.8125 506.96875 L 818.375 502.8125 L 827.5 488.09375 L 830.0625 483.96875 L 834.1875 486.53125 L 926.15625 543.5 L 930.28125 546.0625 L 927.71875 550.21875 L 918.59375 564.9375 L 916.03125 569.0625 L 911.90625 566.5 L 876.0625 544.3125 L 871.53125 551.625 L 956.15625 604.0625 L 960.6875 596.75 L 926.90625 575.8125 L 922.78125 573.25 L 925.34375 569.09375 L 934.96875 553.53125 L 937.53125 549.40625 L 941.6875 551.96875 L 1034.5313 609.5 L 1038.6563 612.0625 L 1036.0938 616.21875 L 1026.4688 631.75 L 1023.9063 635.90625 L 1019.75 633.34375 L 983.65625 610.96875 L 979.09375 618.28125 L 1062.7813 670.125 L 1067.3438 662.8125 L 1034.5625 642.5 L 1030.4063 639.9375 L 1032.9688 635.78125 L 1042.625 620.25 L 1045.1875 616.09375 L 1049.3125 618.65625 L 1141.5938 675.84375 L 1145.75 678.40625 L 1143.1875 682.5625 L 1133.5313 698.09375 L 1130.9688 702.25 L 1126.8438 699.6875 L 1090.875 677.40625 L 1086.3125 684.71875 L 1170 736.5625 L 1174.5625 729.25 L 1141.7813 708.9375 L 1137.625 706.375 L 1140.1875 702.21875 L 1149.3125 687.5 L 1151.875 683.375 L 1156.0313 685.9375 L 1203.1875 715.15625 L 1203.1875 700.78125 L 72.21875 0 L 50.875 0 z M 0 23.0625 L 0 36.28125 L 1203.1875 781.8125 L 1203.1875 768.59375 L 1184.0938 756.75 L 1179.9375 754.1875 L 1182.5313 750.03125 L 1192.1875 734.4375 L 1194.75 730.3125 L 1198.875 732.875 L 1203.1875 735.53125 L 1203.1875 726.625 L 1155.0313 696.78125 L 1151.0625 703.21875 L 1183.8125 723.53125 L 1187.9688 726.09375 L 1185.4063 730.25 L 1175.7188 745.84375 L 1173.1563 749.96875 L 1169.0313 747.40625 L 1077.0625 690.4375 L 1072.9063 687.875 L 1075.4688 683.71875 L 1085.1563 668.125 L 1087.7188 663.96875 L 1091.8438 666.53125 L 1127.8438 688.84375 L 1132.3438 681.5625 L 1048.3125 629.53125 L 1043.8125 636.78125 L 1076.5938 657.09375 L 1080.75 659.65625 L 1078.1875 663.8125 L 1068.5 679.40625 L 1065.9375 683.53125 L 1061.8125 680.96875 L 969.84375 624 L 965.6875 621.4375 L 968.25 617.28125 L 977.9375 601.6875 L 980.5 597.53125 L 984.625 600.09375 L 1020.75 622.5 L 1025.25 615.21875 L 940.6875 562.8125 L 936.1875 570.09375 L 969.96875 591.03125 L 974.125 593.59375 L 971.5625 597.71875 L 961.875 613.34375 L 959.3125 617.46875 L 955.1875 614.90625 L 862.25 557.34375 L 858.125 554.78125 L 860.6875 550.625 L 870.34375 535.03125 L 872.90625 530.875 L 877.0625 533.4375 L 912.875 555.65625 L 916.875 549.21875 L 833.21875 497.375 L 829.21875 503.8125 L 862 524.125 L 866.125 526.6875 L 863.5625 530.8125 L 853.90625 546.4375 L 851.34375 550.5625 L 847.1875 548 L 755.21875 491 L 751.09375 488.4375 L 753.65625 484.3125 L 763.3125 468.71875 L 765.875 464.5625 L 770.03125 467.125 L 806 489.40625 L 810.5 482.15625 L 726.46875 430.09375 L 721.96875 437.375 L 754.75 457.65625 L 758.90625 460.25 L 756.34375 464.375 L 746.65625 479.96875 L 744.09375 484.125 L 739.96875 481.5625 L 648 424.59375 L 643.875 422 L 646.4375 417.875 L 656.09375 402.28125 L 658.65625 398.125 L 662.8125 400.6875 L 698.90625 423.0625 L 703.40625 415.8125 L 618.84375 363.40625 L 614.34375 370.65625 L 648.15625 391.625 L 652.28125 394.1875 L 649.71875 398.3125 L 640.0625 413.90625 L 637.5 418.0625 L 633.34375 415.5 L 539.3125 357.21875 L 535.15625 354.65625 L 537.71875 350.53125 L 547.40625 334.90625 L 549.96875 330.78125 L 554.09375 333.34375 L 589.9375 355.53125 L 593.90625 349.09375 L 510.25 297.25 L 506.25 303.6875 L 539.03125 324 L 543.1875 326.5625 L 540.625 330.71875 L 530.9375 346.3125 L 528.375 350.46875 L 524.25 347.875 L 432.28125 290.90625 L 428.15625 288.34375 L 430.71875 284.21875 L 440.375 268.59375 L 442.9375 264.46875 L 447.09375 267.03125 L 483.03125 289.3125 L 487.53125 282.03125 L 403.53125 230 L 399.03125 237.25 L 431.8125 257.5625 L 435.96875 260.125 L 433.375 264.28125 L 423.71875 279.875 L 421.15625 284.03125 L 417.03125 281.46875 L 325.03125 224.46875 L 320.90625 221.90625 L 323.46875 217.75 L 333.125 202.15625 L 335.71875 198.03125 L 339.84375 200.59375 L 375.96875 222.96875 L 380.46875 215.6875 L 295.90625 163.28125 L 291.40625 170.5625 L 325.1875 191.5 L 329.3125 194.0625 L 326.75 198.21875 L 317.09375 213.8125 L 314.53125 217.9375 L 310.375 215.375 L 217.46875 157.8125 L 213.34375 155.25 L 215.90625 151.09375 L 225.5625 135.5 L 228.125 131.375 L 232.28125 133.9375 L 268.09375 156.125 L 272.09375 149.6875 L 188.40625 97.84375 L 184.4375 104.28125 L 217.21875 124.59375 L 221.34375 127.15625 L 218.78125 131.3125 L 209.125 146.90625 L 206.5625 151.03125 L 202.40625 148.46875 L 110.4375 91.5 L 106.28125 88.9375 L 108.875 84.78125 L 118.53125 69.1875 L 121.09375 65.03125 L 125.25 67.59375 L 161.21875 89.90625 L 165.71875 82.625 L 81.6875 30.5625 L 77.1875 37.84375 L 109.96875 58.15625 L 114.09375 60.71875 L 111.53125 64.84375 L 101.875 80.46875 L 99.3125 84.59375 L 95.15625 82.03125 L 3.21875 25.0625 L 0 23.0625 z M 0 191.90625 L 0 205.15625 L 13.625 213.59375 L 17.78125 216.15625 L 15.21875 220.3125 L 5.5625 235.90625 L 2.96875 240.0625 L 0 238.21875 L 0 248.25 L 45.59375 276.5 L 50.09375 269.25 L 14.125 246.9375 L 9.96875 244.375 L 12.53125 240.25 L 22.1875 224.65625 L 24.78125 220.5 L 28.90625 223.0625 L 120.875 280.0625 L 125.03125 282.625 L 122.46875 286.75 L 112.78125 302.375 L 110.21875 306.5 L 106.09375 303.9375 L 73.3125 283.625 L 69.3125 290.0625 L 153 341.90625 L 156.96875 335.46875 L 121.15625 313.28125 L 117 310.71875 L 119.5625 306.5625 L 129.25 290.96875 L 131.8125 286.8125 L 135.9375 289.375 L 228.84375 346.96875 L 233 349.53125 L 230.4375 353.65625 L 220.78125 369.28125 L 218.1875 373.40625 L 214.0625 370.84375 L 180.28125 349.90625 L 175.75 357.15625 L 260.34375 409.5625 L 264.84375 402.3125 L 228.71875 379.9375 L 224.59375 377.375 L 227.15625 373.21875 L 236.8125 357.625 L 239.375 353.46875 L 243.53125 356.03125 L 335.5 413.03125 L 339.625 415.59375 L 337.0625 419.75 L 327.40625 435.34375 L 324.84375 439.46875 L 320.6875 436.90625 L 287.90625 416.59375 L 283.40625 423.875 L 367.40625 475.90625 L 371.90625 468.65625 L 335.96875 446.375 L 331.8125 443.8125 L 334.375 439.65625 L 344.0625 424.0625 L 346.625 419.9375 L 350.75 422.5 L 442.71875 479.46875 L 446.84375 482.03125 L 444.28125 486.1875 L 434.625 501.78125 L 432.0625 505.90625 L 427.90625 503.34375 L 395.125 483.03125 L 391.15625 489.46875 L 474.8125 541.3125 L 478.8125 534.875 L 442.96875 512.6875 L 438.84375 510.125 L 441.40625 505.96875 L 451.0625 490.375 L 453.625 486.25 L 457.78125 488.8125 L 551.8125 547.0625 L 555.96875 549.625 L 553.40625 553.78125 L 543.71875 569.375 L 541.15625 573.53125 L 537.03125 570.96875 L 503.21875 550.03125 L 498.71875 557.28125 L 583.28125 609.6875 L 587.78125 602.40625 L 551.6875 580.03125 L 547.53125 577.46875 L 550.09375 573.34375 L 559.78125 557.71875 L 562.34375 553.59375 L 566.46875 556.15625 L 658.4375 613.125 L 662.5625 615.6875 L 660 619.84375 L 650.34375 635.4375 L 647.78125 639.59375 L 643.625 637 L 610.84375 616.71875 L 606.34375 623.96875 L 690.375 676.03125 L 694.875 668.78125 L 658.90625 646.46875 L 654.75 643.90625 L 657.3125 639.78125 L 667 624.15625 L 669.5625 620.03125 L 673.6875 622.59375 L 765.65625 679.5625 L 769.8125 682.15625 L 767.25 686.28125 L 757.5625 701.875 L 755 706.03125 L 750.875 703.46875 L 718.09375 683.15625 L 714.09375 689.59375 L 797.78125 741.4375 L 801.75 735 L 765.9375 712.8125 L 761.78125 710.21875 L 764.375 706.09375 L 774.03125 690.5 L 776.59375 686.34375 L 780.71875 688.90625 L 873.65625 746.46875 L 877.78125 749.0625 L 875.21875 753.1875 L 865.5625 768.78125 L 863 772.9375 L 858.84375 770.375 L 825.0625 749.4375 L 820.5625 756.6875 L 885.25 796.78125 L 901.46875 796.78125 L 873.5 779.4375 L 869.375 776.875 L 871.9375 772.75 L 881.59375 757.15625 L 884.15625 753 L 888.3125 755.5625 L 954.8125 796.78125 L 976.15625 796.78125 L 0 191.90625 z M 0 216.59375 L 0 226.40625 L 4.375 219.3125 L 0 216.59375 z M 27.90625 233.90625 L 23.375 241.25 L 59.34375 263.53125 L 63.5 266.09375 L 60.9375 270.21875 L 51.3125 285.78125 L 48.71875 289.90625 L 44.59375 287.34375 L 0 259.71875 L 0 272.96875 L 845.40625 796.78125 L 866.75 796.78125 L 811.28125 762.40625 L 807.125 759.84375 L 809.71875 755.71875 L 819.34375 740.15625 L 821.90625 736 L 826.03125 738.59375 L 859.84375 759.53125 L 864.375 752.1875 L 779.75 699.75 L 775.21875 707.09375 L 811.03125 729.28125 L 815.1875 731.84375 L 812.59375 736 L 803.5 750.6875 L 800.9375 754.84375 L 796.78125 752.28125 L 704.84375 695.3125 L 700.6875 692.75 L 703.25 688.59375 L 712.375 673.875 L 714.9375 669.75 L 719.09375 672.3125 L 751.84375 692.625 L 756.40625 685.28125 L 672.71875 633.4375 L 668.15625 640.75 L 704.15625 663.0625 L 708.28125 665.625 L 705.71875 669.75 L 696.09375 685.3125 L 693.53125 689.4375 L 689.375 686.875 L 597.0625 629.6875 L 592.9375 627.125 L 595.5 622.96875 L 605.125 607.4375 L 607.6875 603.28125 L 611.84375 605.84375 L 644.625 626.15625 L 649.15625 618.84375 L 565.5 567 L 560.9375 574.3125 L 597.0625 596.6875 L 601.1875 599.25 L 598.625 603.40625 L 589 618.9375 L 586.4375 623.09375 L 582.28125 620.53125 L 489.4375 563 L 485.3125 560.4375 L 487.875 556.28125 L 497.5 540.75 L 500.0625 536.59375 L 504.21875 539.15625 L 538 560.09375 L 542.53125 552.78125 L 456.78125 499.65625 L 452.25 506.96875 L 488.0625 529.15625 L 492.21875 531.75 L 489.65625 535.875 L 480.53125 550.59375 L 477.96875 554.71875 L 473.8125 552.15625 L 381.875 495.1875 L 377.71875 492.625 L 380.3125 488.46875 L 389.40625 473.78125 L 391.96875 469.625 L 396.125 472.1875 L 428.90625 492.5 L 433.4375 485.1875 L 349.78125 433.34375 L 345.21875 440.65625 L 381.1875 462.9375 L 385.34375 465.5 L 382.75 469.65625 L 373.125 485.1875 L 370.5625 489.34375 L 366.4375 486.78125 L 274.125 429.59375 L 270 427.03125 L 272.5625 422.875 L 282.1875 407.34375 L 284.75 403.1875 L 288.90625 405.75 L 321.6875 426.0625 L 326.21875 418.75 L 242.53125 366.875 L 238 374.21875 L 274.125 396.59375 L 278.25 399.15625 L 275.6875 403.3125 L 266.0625 418.84375 L 263.5 423 L 259.34375 420.4375 L 166.5 362.875 L 162.34375 360.3125 L 164.90625 356.1875 L 174.5625 340.625 L 177.125 336.5 L 181.25 339.0625 L 215.0625 360 L 219.59375 352.6875 L 134.96875 300.25 L 130.40625 307.5625 L 166.25 329.75 L 170.375 332.3125 L 167.8125 336.46875 L 158.71875 351.1875 L 156.125 355.3125 L 152 352.75 L 60.03125 295.78125 L 55.90625 293.21875 L 58.46875 289.0625 L 67.59375 274.34375 L 70.15625 270.21875 L 74.28125 272.78125 L 107.0625 293.09375 L 111.59375 285.78125 L 27.90625 233.90625 z M 1197.9063 743.71875 L 1193.375 751.03125 L 1203.1875 757.125 L 1203.1875 747 L 1197.9063 743.71875 z M 887.3125 766.40625 L 882.78125 773.75 L 918.90625 796.125 L 919.96875 796.78125 L 936.3125 796.78125 L 887.3125 766.40625 z "
       id="path9324"
       transform="translate(-1127.278,136.21415)" />
    <path
       style="fill:#fcef3c;fill-opacity:1;stroke:#000000;stroke-width:0.47221476;stroke-miterlimit:4;stroke-dasharray:none;stroke-opacity:1;display:inline"
       d="M -1127.2419,136.25026 L -1127.2419,520.30239 L 75.873393,520.30239 L 75.873393,136.25026 L -1127.2419,136.25026 z "
       id="path4221"
       sodipodi:nodetypes="ccccc" />
    <g
       transform="translate(-1022.3356,584.65272)"
       id="g22331"
       style="display:inline" />
    <path
       style="fill:none;fill-opacity:0.75;fill-rule:evenodd;stroke:none;stroke-width:3;stroke-linecap:butt;stroke-linejoin:miter;stroke-miterlimit:4;stroke-dasharray:none;stroke-opacity:1;display:inline"
       d="M 95.2819,215.06078 L 95.2819,-235.96609"
       id="path11207" />
    <rect
       transform="matrix(0,-1,1,0,0,0)"
       y="-44.954388"
       x="557.12079"
       height="0"
       width="1.5233166"
       id="rect12745"
       style="fill:#ffffff;fill-opacity:1;fill-rule:evenodd;stroke:none;stroke-width:1.52331662;stroke-linecap:round;stroke-linejoin:round;stroke-miterlimit:4;stroke-dasharray:none;stroke-dashoffset:0;stroke-opacity:1" />
    <path
       style="fill:#2b5df2;fill-opacity:1;stroke:#000000;stroke-width:0.47221476;stroke-miterlimit:4;stroke-dasharray:none;stroke-opacity:1;display:inline"
       d="M 0.03125 0.03125 L 0.03125 88.125 C 182.17604 197.45207 325.24889 283.3346 493.125 384.09375 L 723.09375 384.09375 C 512.68653 257.79703 316.22769 139.889 83.21875 0.03125 L 0.03125 0.03125 z M 313.1875 0.03125 C 581.33492 160.9788 761.40326 269.05702 953.0625 384.09375 L 1183 384.09375 C 962.23699 251.58759 826.97952 170.42503 543.09375 0.03125 L 313.1875 0.03125 z M 773.0625 0.03125 C 959.6545 112.03225 1041.3079 161.07212 1203.1563 258.21875 L 1203.1563 120.15625 C 1126.4286 74.102253 1078.0598 45.066196 1003.0313 0.03125 L 773.0625 0.03125 z M 0.03125 226.125 L 0.03125 364.125 C 13.781944 372.37849 20.359925 376.338 33.28125 384.09375 L 263.21875 384.09375 C 178.17108 333.04411 103.6809 288.33786 0.03125 226.125 z "
       id="path15160"
       transform="translate(-1127.278,136.21415)" />
    <path
       sodipodi:nodetypes="csccsssssssssccsssssssc"
       style="fill:#ffffff;fill-opacity:1;stroke:#000000;stroke-width:0.41169095;stroke-miterlimit:4;stroke-dasharray:none;stroke-opacity:1"
       d="M -907.77965,407.04215 C -970.73617,407.04215 -972.72814,444.97903 -1035.6846,444.97902 C -1083.4586,444.97902 -1096.126,423.1365 -1126.9651,412.60357 L -1126.9651,581.04336 C -1084.2128,588.51303 -1075.5407,617.22572 -1020.7786,617.22573 C -957.82205,617.22573 -955.86132,579.28885 -892.9048,579.28886 C -829.94829,579.28886 -827.9563,617.22572 -764.99979,617.22573 C -702.04328,617.22573 -700.05131,579.28885 -637.09478,579.28886 C -574.13827,579.28886 -572.17755,617.22572 -509.22103,617.22573 C -446.26454,617.22573 -444.27256,579.28885 -381.31597,579.28886 C -318.35958,579.28886 -316.3676,617.22572 -253.41101,617.22573 C -190.45442,617.22573 -214.052,579.28885 -125.53726,579.28886 C -37.022616,579.28886 -76.053327,617.22572 2.3678009,617.22573 C 54.770192,617.22573 55.603394,600.29098 76.210794,589.05446 L 76.210794,411.0477 C 39.054655,420.78404 50.139647,444.97902 -12.507054,444.97902 C -90.928282,444.97902 -51.897562,407.04215 -140.41211,407.04215 C -228.92685,407.04215 -205.32928,444.97903 -268.28587,444.97902 C -331.24246,444.97902 -333.23434,407.04215 -396.19083,407.04215 C -459.14741,407.04215 -461.13939,444.97903 -524.09588,444.97902 C -587.0524,444.97902 -589.04436,407.04215 -652.00089,407.04215 C -714.95742,407.04215 -716.91813,444.97903 -779.87465,444.97902 C -842.83117,444.97902 -844.82316,407.04215 -907.77965,407.04215 z "
       id="path6030" />
  </g>
  <g
     inkscape:groupmode="layer"
     id="layer2">
    <path
       id="path3430"
       d="M 799.5926,1303.6645 L 799.5926,1303.6645 z "
       style="fill:none;fill-rule:evenodd;stroke:#000000;stroke-width:0.98280448px;stroke-linecap:butt;stroke-linejoin:miter;stroke-opacity:1" />
  </g>
</svg>
