<?xml version="1.0" encoding="UTF-8" standalone="no"?>
<svg
   xmlns:dc="http://purl.org/dc/elements/1.1/"
   xmlns:cc="http://creativecommons.org/ns#"
   xmlns:rdf="http://www.w3.org/1999/02/22-rdf-syntax-ns#"
   xmlns:svg="http://www.w3.org/2000/svg"
   xmlns="http://www.w3.org/2000/svg"
   xmlns:xlink="http://www.w3.org/1999/xlink"
   xmlns:sodipodi="http://sodipodi.sourceforge.net/DTD/sodipodi-0.dtd"
   xmlns:inkscape="http://www.inkscape.org/namespaces/inkscape"
   width="1200"
   height="800"
   id="svg2"
   version="1.1"
   inkscape:version="0.91 r13725"
   sodipodi:docname="Drapeau_fr_département_Ardèche.svg">
  <metadata
     id="metadata57">
    <rdf:RDF>
      <cc:Work
         rdf:about="">
        <dc:format>image/svg+xml</dc:format>
        <dc:type
           rdf:resource="http://purl.org/dc/dcmitype/StillImage" />
      </cc:Work>
    </rdf:RDF>
  </metadata>
  <defs
     id="defs55" />
  <sodipodi:namedview
     pagecolor="#ffffff"
     bordercolor="#666666"
     borderopacity="1"
     objecttolerance="10"
     gridtolerance="10"
     guidetolerance="10"
     inkscape:pageopacity="0"
     inkscape:pageshadow="2"
     inkscape:window-width="1366"
     inkscape:window-height="706"
     id="namedview53"
     showgrid="false"
     inkscape:zoom="0.49435947"
     inkscape:cx="599.73141"
     inkscape:cy="312.42765"
     inkscape:window-x="-8"
     inkscape:window-y="-8"
     inkscape:window-maximized="1"
     inkscape:current-layer="svg2" />
  <g
     id="g4788">
    <rect
       id="rect4"
       fill="#2b5df2"
       height="800"
       width="1200" />
    <g
       id="fleur"
       style="fill:#fcef3c;stroke:#000000;stroke-opacity:1">
      <path
         d="m 100.024,29.61 c 13.531,14.626 21.487,22.691 22.877,45.385 1.287,21.001 -12.689,38.559 -15.701,58.871 -0.571,3.853 -1.061,11.718 -0.545,14.907 0.382,2.362 1.558,9.578 2.841,0.65 0.264,-1.837 0.454,-11.05 1.263,-15.729 1.476,-8.524 6.2,-23.513 14.395,-31.818 8.193,-8.301 21.174,-13.685 32.751,-9.343 10.49,4.84 11.481,18.508 8.497,28.503 -3.738,12.517 -18.022,21.181 -30.828,22.03 2.537,-5.018 8.611,-19.341 2.023,-18.772 -7.625,0.658 -16.745,13.631 -19.12,22.531 -0.894,3.351 -0.533,8.555 -5.321,8.34 3.157,10.667 12.07,17.726 19.878,25.173 -8.14,0.676 -16.192,-3.154 -23.294,-6.803 0.301,7.314 -1.119,22.765 -9.716,31.201 -7.979,-8.687 -8.705,-19.283 -8.855,-31.201 -7.102,3.649 -15.154,7.479 -23.293,6.803 7.808,-7.447 16.72,-14.506 19.877,-25.173 -4.788,0.215 -5.076,-4.664 -5.97,-8.016 -2.375,-8.899 -10.846,-22.197 -18.471,-22.855 -6.587,-0.569 -0.514,13.754 2.024,18.772 -12.806,-0.849 -27.09,-9.513 -30.828,-22.03 -2.985,-9.995 -1.993,-23.663 8.496,-28.503 11.577,-4.342 24.559,1.042 32.751,9.343 8.196,8.305 12.92,23.294 14.395,31.818 0.81,4.679 0.674,13.243 0.938,15.079 1.284,8.929 2.784,2.362 3.167,0 0.516,-3.189 0.026,-11.054 -0.546,-14.907 C 90.697,113.554 78.044,95.282 78.008,74.995 77.976,56.677 87.186,42.739 100.024,29.61 Z"
         id="path10"
         style="stroke:#000000;stroke-opacity:1"
         inkscape:connector-curvature="0" />
      <rect
         x="69.224998"
         y="147.132"
         width="62.459"
         height="10.104"
         rx="3.22"
         id="rect12"
         style="stroke:#000000;stroke-opacity:1" />
    </g>
    <use
       xlink:href="#fleur"
       x="200"
       id="use16"
       style="stroke:#000000;stroke-opacity:1"
       y="0"
       width="100%"
       height="100%" />
    <use
       xlink:href="#fleur"
       x="400"
       id="use18"
       style="stroke:#000000;stroke-opacity:1"
       y="0"
       width="100%"
       height="100%" />
    <use
       xlink:href="#fleur"
       x="600"
       id="use20"
       style="stroke:#000000;stroke-opacity:1"
       y="0"
       width="100%"
       height="100%" />
    <use
       xlink:href="#fleur"
       x="800"
       id="use22"
       style="stroke:#000000;stroke-opacity:1"
       y="0"
       width="100%"
       height="100%" />
    <use
       xlink:href="#fleur"
       x="1000"
       id="use24"
       style="stroke:#000000;stroke-opacity:1"
       y="0"
       width="100%"
       height="100%" />
    <g
       transform="translate(100,140)"
       style="fill:#fcef3c;stroke:#000000;stroke-opacity:1"
       id="g4645">
      <path
         inkscape:connector-curvature="0"
         style="stroke:#000000;stroke-opacity:1"
         id="path4647"
         d="m 100.024,29.61 c 13.531,14.626 21.487,22.691 22.877,45.385 1.287,21.001 -12.689,38.559 -15.701,58.871 -0.571,3.853 -1.061,11.718 -0.545,14.907 0.382,2.362 1.558,9.578 2.841,0.65 0.264,-1.837 0.454,-11.05 1.263,-15.729 1.476,-8.524 6.2,-23.513 14.395,-31.818 8.193,-8.301 21.174,-13.685 32.751,-9.343 10.49,4.84 11.481,18.508 8.497,28.503 -3.738,12.517 -18.022,21.181 -30.828,22.03 2.537,-5.018 8.611,-19.341 2.023,-18.772 -7.625,0.658 -16.745,13.631 -19.12,22.531 -0.894,3.351 -0.533,8.555 -5.321,8.34 3.157,10.667 12.07,17.726 19.878,25.173 -8.14,0.676 -16.192,-3.154 -23.294,-6.803 0.301,7.314 -1.119,22.765 -9.716,31.201 -7.979,-8.687 -8.705,-19.283 -8.855,-31.201 -7.102,3.649 -15.154,7.479 -23.293,6.803 7.808,-7.447 16.72,-14.506 19.877,-25.173 -4.788,0.215 -5.076,-4.664 -5.97,-8.016 -2.375,-8.899 -10.846,-22.197 -18.471,-22.855 -6.587,-0.569 -0.514,13.754 2.024,18.772 -12.806,-0.849 -27.09,-9.513 -30.828,-22.03 -2.985,-9.995 -1.993,-23.663 8.496,-28.503 11.577,-4.342 24.559,1.042 32.751,9.343 8.196,8.305 12.92,23.294 14.395,31.818 0.81,4.679 0.674,13.243 0.938,15.079 1.284,8.929 2.784,2.362 3.167,0 0.516,-3.189 0.026,-11.054 -0.546,-14.907 C 90.697,113.554 78.044,95.282 78.008,74.995 77.976,56.677 87.186,42.739 100.024,29.61 Z" />
      <rect
         style="stroke:#000000;stroke-opacity:1"
         id="rect4649"
         rx="3.22"
         height="10.104"
         width="62.459"
         y="147.132"
         x="69.224998" />
    </g>
    <use
       transform="translate(100,140)"
       height="100%"
       width="100%"
       y="0"
       style="stroke:#000000;stroke-opacity:1"
       id="use4653"
       x="200"
       xlink:href="#fleur" />
    <use
       transform="translate(100,140)"
       height="100%"
       width="100%"
       y="0"
       style="stroke:#000000;stroke-opacity:1"
       id="use4655"
       x="400"
       xlink:href="#fleur" />
    <use
       transform="translate(100,140)"
       height="100%"
       width="100%"
       y="0"
       style="stroke:#000000;stroke-opacity:1"
       id="use4657"
       x="600"
       xlink:href="#fleur" />
    <use
       transform="translate(100,140)"
       height="100%"
       width="100%"
       y="0"
       style="stroke:#000000;stroke-opacity:1"
       id="use4659"
       x="800"
       xlink:href="#fleur" />
    <g
       transform="translate(0,280)"
       style="fill:#fcef3c;stroke:#000000;stroke-opacity:1"
       id="g4665">
      <path
         inkscape:connector-curvature="0"
         style="stroke:#000000;stroke-opacity:1"
         id="path4667"
         d="m 100.024,29.61 c 13.531,14.626 21.487,22.691 22.877,45.385 1.287,21.001 -12.689,38.559 -15.701,58.871 -0.571,3.853 -1.061,11.718 -0.545,14.907 0.382,2.362 1.558,9.578 2.841,0.65 0.264,-1.837 0.454,-11.05 1.263,-15.729 1.476,-8.524 6.2,-23.513 14.395,-31.818 8.193,-8.301 21.174,-13.685 32.751,-9.343 10.49,4.84 11.481,18.508 8.497,28.503 -3.738,12.517 -18.022,21.181 -30.828,22.03 2.537,-5.018 8.611,-19.341 2.023,-18.772 -7.625,0.658 -16.745,13.631 -19.12,22.531 -0.894,3.351 -0.533,8.555 -5.321,8.34 3.157,10.667 12.07,17.726 19.878,25.173 -8.14,0.676 -16.192,-3.154 -23.294,-6.803 0.301,7.314 -1.119,22.765 -9.716,31.201 -7.979,-8.687 -8.705,-19.283 -8.855,-31.201 -7.102,3.649 -15.154,7.479 -23.293,6.803 7.808,-7.447 16.72,-14.506 19.877,-25.173 -4.788,0.215 -5.076,-4.664 -5.97,-8.016 -2.375,-8.899 -10.846,-22.197 -18.471,-22.855 -6.587,-0.569 -0.514,13.754 2.024,18.772 -12.806,-0.849 -27.09,-9.513 -30.828,-22.03 -2.985,-9.995 -1.993,-23.663 8.496,-28.503 11.577,-4.342 24.559,1.042 32.751,9.343 8.196,8.305 12.92,23.294 14.395,31.818 0.81,4.679 0.674,13.243 0.938,15.079 1.284,8.929 2.784,2.362 3.167,0 0.516,-3.189 0.026,-11.054 -0.546,-14.907 C 90.697,113.554 78.044,95.282 78.008,74.995 77.976,56.677 87.186,42.739 100.024,29.61 Z" />
      <rect
         style="stroke:#000000;stroke-opacity:1"
         id="rect4669"
         rx="3.22"
         height="10.104"
         width="62.459"
         y="147.132"
         x="69.224998" />
    </g>
    <use
       transform="translate(0,280)"
       height="100%"
       width="100%"
       y="0"
       style="stroke:#000000;stroke-opacity:1"
       id="use4673"
       x="200"
       xlink:href="#fleur" />
    <use
       transform="translate(0,280)"
       height="100%"
       width="100%"
       y="0"
       style="stroke:#000000;stroke-opacity:1"
       id="use4675"
       x="400"
       xlink:href="#fleur" />
    <use
       transform="translate(0,280)"
       height="100%"
       width="100%"
       y="0"
       style="stroke:#000000;stroke-opacity:1"
       id="use4677"
       x="600"
       xlink:href="#fleur" />
    <use
       transform="translate(0,280)"
       height="100%"
       width="100%"
       y="0"
       style="stroke:#000000;stroke-opacity:1"
       id="use4679"
       x="800"
       xlink:href="#fleur" />
    <use
       transform="translate(0,280)"
       height="100%"
       width="100%"
       y="0"
       style="stroke:#000000;stroke-opacity:1"
       id="use4681"
       x="1000"
       xlink:href="#fleur" />
    <g
       transform="translate(100,420)"
       style="fill:#fcef3c;stroke:#000000;stroke-opacity:1"
       id="g4685">
      <path
         inkscape:connector-curvature="0"
         style="stroke:#000000;stroke-opacity:1"
         id="path4687"
         d="m 100.024,29.61 c 13.531,14.626 21.487,22.691 22.877,45.385 1.287,21.001 -12.689,38.559 -15.701,58.871 -0.571,3.853 -1.061,11.718 -0.545,14.907 0.382,2.362 1.558,9.578 2.841,0.65 0.264,-1.837 0.454,-11.05 1.263,-15.729 1.476,-8.524 6.2,-23.513 14.395,-31.818 8.193,-8.301 21.174,-13.685 32.751,-9.343 10.49,4.84 11.481,18.508 8.497,28.503 -3.738,12.517 -18.022,21.181 -30.828,22.03 2.537,-5.018 8.611,-19.341 2.023,-18.772 -7.625,0.658 -16.745,13.631 -19.12,22.531 -0.894,3.351 -0.533,8.555 -5.321,8.34 3.157,10.667 12.07,17.726 19.878,25.173 -8.14,0.676 -16.192,-3.154 -23.294,-6.803 0.301,7.314 -1.119,22.765 -9.716,31.201 -7.979,-8.687 -8.705,-19.283 -8.855,-31.201 -7.102,3.649 -15.154,7.479 -23.293,6.803 7.808,-7.447 16.72,-14.506 19.877,-25.173 -4.788,0.215 -5.076,-4.664 -5.97,-8.016 -2.375,-8.899 -10.846,-22.197 -18.471,-22.855 -6.587,-0.569 -0.514,13.754 2.024,18.772 -12.806,-0.849 -27.09,-9.513 -30.828,-22.03 -2.985,-9.995 -1.993,-23.663 8.496,-28.503 11.577,-4.342 24.559,1.042 32.751,9.343 8.196,8.305 12.92,23.294 14.395,31.818 0.81,4.679 0.674,13.243 0.938,15.079 1.284,8.929 2.784,2.362 3.167,0 0.516,-3.189 0.026,-11.054 -0.546,-14.907 C 90.697,113.554 78.044,95.282 78.008,74.995 77.976,56.677 87.186,42.739 100.024,29.61 Z" />
      <rect
         style="stroke:#000000;stroke-opacity:1"
         id="rect4689"
         rx="3.22"
         height="10.104"
         width="62.459"
         y="147.132"
         x="69.224998" />
    </g>
    <use
       transform="translate(100,420)"
       height="100%"
       width="100%"
       y="0"
       style="stroke:#000000;stroke-opacity:1"
       id="use4693"
       x="200"
       xlink:href="#fleur" />
    <use
       transform="translate(100,420)"
       height="100%"
       width="100%"
       y="0"
       style="stroke:#000000;stroke-opacity:1"
       id="use4695"
       x="400"
       xlink:href="#fleur" />
    <use
       transform="translate(100,420)"
       height="100%"
       width="100%"
       y="0"
       style="stroke:#000000;stroke-opacity:1"
       id="use4697"
       x="600"
       xlink:href="#fleur" />
    <use
       transform="translate(100,420)"
       height="100%"
       width="100%"
       y="0"
       style="stroke:#000000;stroke-opacity:1"
       id="use4699"
       x="800"
       xlink:href="#fleur" />
    <g
       transform="translate(0,560)"
       style="fill:#fcef3c;stroke:#000000;stroke-opacity:1"
       id="g4705">
      <path
         inkscape:connector-curvature="0"
         style="stroke:#000000;stroke-opacity:1"
         id="path4707"
         d="m 100.024,29.61 c 13.531,14.626 21.487,22.691 22.877,45.385 1.287,21.001 -12.689,38.559 -15.701,58.871 -0.571,3.853 -1.061,11.718 -0.545,14.907 0.382,2.362 1.558,9.578 2.841,0.65 0.264,-1.837 0.454,-11.05 1.263,-15.729 1.476,-8.524 6.2,-23.513 14.395,-31.818 8.193,-8.301 21.174,-13.685 32.751,-9.343 10.49,4.84 11.481,18.508 8.497,28.503 -3.738,12.517 -18.022,21.181 -30.828,22.03 2.537,-5.018 8.611,-19.341 2.023,-18.772 -7.625,0.658 -16.745,13.631 -19.12,22.531 -0.894,3.351 -0.533,8.555 -5.321,8.34 3.157,10.667 12.07,17.726 19.878,25.173 -8.14,0.676 -16.192,-3.154 -23.294,-6.803 0.301,7.314 -1.119,22.765 -9.716,31.201 -7.979,-8.687 -8.705,-19.283 -8.855,-31.201 -7.102,3.649 -15.154,7.479 -23.293,6.803 7.808,-7.447 16.72,-14.506 19.877,-25.173 -4.788,0.215 -5.076,-4.664 -5.97,-8.016 -2.375,-8.899 -10.846,-22.197 -18.471,-22.855 -6.587,-0.569 -0.514,13.754 2.024,18.772 -12.806,-0.849 -27.09,-9.513 -30.828,-22.03 -2.985,-9.995 -1.993,-23.663 8.496,-28.503 11.577,-4.342 24.559,1.042 32.751,9.343 8.196,8.305 12.92,23.294 14.395,31.818 0.81,4.679 0.674,13.243 0.938,15.079 1.284,8.929 2.784,2.362 3.167,0 0.516,-3.189 0.026,-11.054 -0.546,-14.907 C 90.697,113.554 78.044,95.282 78.008,74.995 77.976,56.677 87.186,42.739 100.024,29.61 Z" />
      <rect
         style="stroke:#000000;stroke-opacity:1"
         id="rect4709"
         rx="3.22"
         height="10.104"
         width="62.459"
         y="147.132"
         x="69.224998" />
    </g>
    <use
       transform="translate(0,560)"
       height="100%"
       width="100%"
       y="0"
       style="stroke:#000000;stroke-opacity:1"
       id="use4713"
       x="200"
       xlink:href="#fleur" />
    <use
       transform="translate(0,560)"
       height="100%"
       width="100%"
       y="0"
       style="stroke:#000000;stroke-opacity:1"
       id="use4715"
       x="400"
       xlink:href="#fleur" />
    <use
       transform="translate(0,560)"
       height="100%"
       width="100%"
       y="0"
       style="stroke:#000000;stroke-opacity:1"
       id="use4717"
       x="600"
       xlink:href="#fleur" />
    <use
       transform="translate(0,560)"
       height="100%"
       width="100%"
       y="0"
       style="stroke:#000000;stroke-opacity:1"
       id="use4719"
       x="800"
       xlink:href="#fleur" />
    <use
       transform="translate(0,560)"
       height="100%"
       width="100%"
       y="0"
       style="stroke:#000000;stroke-opacity:1"
       id="use4721"
       x="1000"
       xlink:href="#fleur" />
    <path
       inkscape:connector-curvature="0"
       id="rect4185-4"
       d="m 0.5,-0.5 0,800 1200,0 0,-800 -1200,0 z m 99.81642,100.0273 1000.10348,0 0,599.836 -1000.10348,0 0,-599.836 z"
       style="opacity:1;fill:#fcef3c;fill-opacity:1;stroke:#000000;stroke-width:1;stroke-miterlimit:4;stroke-dasharray:none;stroke-opacity:1" />
    <use
       style="stroke:#000000;stroke-opacity:1"
       id="use38"
       x="-550"
       xlink:href="#shield" />
    <path
       style="stroke:#000000;stroke-opacity:1"
       fill="#2b5df2"
       d="M 560,6 H 640 V 40 C 638,77 600,91.5 600,91.5 C 600,91.5 562,77 560,40 z"
       id="shield" />
    <use
       style="stroke:#000000;stroke-opacity:1"
       id="use41"
       x="550"
       xlink:href="#shield" />
    <use
       style="stroke:#000000;stroke-opacity:1"
       id="use43"
       y="350"
       x="-550"
       xlink:href="#shield" />
    <use
       style="stroke:#000000;stroke-opacity:1"
       id="use45"
       y="350"
       x="550"
       xlink:href="#shield" />
    <use
       style="stroke:#000000;stroke-opacity:1"
       id="use47"
       y="700"
       x="-550"
       xlink:href="#shield" />
    <use
       style="stroke:#000000;stroke-opacity:1"
       id="use49"
       y="700"
       xlink:href="#shield" />
    <use
       style="stroke:#000000;stroke-opacity:1"
       id="use51"
       y="700"
       x="550"
       xlink:href="#shield" />
  </g>
</svg>
