<?xml version="1.0" encoding="utf-8"?>
<!-- Generator: Adobe Illustrator 16.0.0, SVG Export Plug-In . SVG Version: 6.00 Build 0)  -->
<!DOCTYPE svg PUBLIC "-//W3C//DTD SVG 1.1//EN" "http://www.w3.org/Graphics/SVG/1.1/DTD/svg11.dtd">
<svg version="1.1"
	 id="svg1901" xmlns:dc="http://purl.org/dc/elements/1.1/" xmlns:cc="http://web.resource.org/cc/" xmlns:rdf="http://www.w3.org/1999/02/22-rdf-syntax-ns#" xmlns:svg="http://www.w3.org/2000/svg" xmlns:sodipodi="http://sodipodi.sourceforge.net/DTD/sodipodi-0.dtd" xmlns:inkscape="http://www.inkscape.org/namespaces/inkscape" sodipodi:docname="Flag_of_Alsace.svg" inkscape:version="0.44.1" sodipodi:version="0.32" sodipodi:docbase="C:\Documents and Settings\Greg\Mes documents"
	 xmlns="http://www.w3.org/2000/svg" xmlns:xlink="http://www.w3.org/1999/xlink" x="0px" y="0px" width="738.571px"
	 height="492.381px" viewBox="0 0 738.571 492.381" enable-background="new 0 0 738.571 492.381" xml:space="preserve">
<sodipodi:namedview  objecttolerance="10.0" gridtolerance="10.0" guidetolerance="10.0" inkscape:cy="246.19048" inkscape:cx="369.28571" inkscape:zoom="0.76566731" borderopacity="1.0" bordercolor="#666666" pagecolor="#ffffff" id="base" inkscape:window-y="-4" inkscape:window-x="-4" inkscape:window-height="779" inkscape:window-width="1280" inkscape:current-layer="g4348" inkscape:pageshadow="2" inkscape:pageopacity="0.0">
	</sodipodi:namedview>
<rect id="rect4367" x="-11.313" y="-13.908" fill="#FFFFFF" width="789.13" height="540.23"/>
<path id="path2258" fill="#DE0000" d="M1303.569,236.494h747.566v497.891h-747.566V236.494z"/>
<g id="Layer_1" transform="matrix(0.7300454,0,0,0.7300454,1299.9973,241.71285)">
	<rect id="rect2261" x="272.066" y="-14.149" fill="#FCD116" width="133" height="696.001"/>
	<path id="path2263" fill="#FCD116" d="M-8.934,400.85V266.851h1033V400.85H-8.934z"/>
</g>
<path id="path4248" fill="#ED2939" stroke="#ED2939" stroke-width="14" stroke-miterlimit="10" d="M65-4.655l701.795,405.182"/>
<path id="text4239" fill="#ED2939" d="M733.036,283.153c-0.682-0.395-1.738-0.783-3.172-1.167
	c-4.807-0.353-8.223,1.229-10.252,4.741l-0.211,0.367c-0.818,1.416-1.256,3.387-1.318,5.914c-0.189,1.499,0.092,3.293,0.844,5.381
	l-0.045,0.078l-0.08-0.045c-1.08-1.276-2.371-2.348-3.875-3.216l-0.236-0.137c-0.891-0.515-1.973-0.999-3.248-1.456
	c-5.137-1.031-8.881,0.488-11.23,4.561c-0.586,1.014-1.002,2.24-1.252,3.682c-0.246,4.542,1.301,7.776,4.639,9.703
	c4.281,2.472,8.693,1.792,13.236-2.04l0.078,0.046l-0.045,0.078c-4.602,9.477-33.188,9.824-32.602-9.396
	c-16.375,10.154-30.367-14.775-24.461-23.499l0.047-0.078l-0.01,0.143c-1,5.807,0.615,9.932,4.844,12.373
	c1.301,0.611,2.363,1.015,3.182,1.209c4.703,0.291,8.088-1.355,10.156-4.938c0.605-1.049,1.039-2.266,1.305-3.65
	c0.359-4.5-1.539-7.949-5.699-10.351l-0.498-0.288c-1.469-0.848-2.99-1.4-4.564-1.657l-0.08-0.046l2.482-0.664
	c3.711-1.586,6.156-3.4,7.338-5.445c0.512-1.009,0.916-2.033,1.215-3.073c0.525-4.985-1.082-8.559-4.822-10.718 M674.7,249.565
	c-0.682-0.394-1.738-0.783-3.172-1.167c-4.807-0.352-8.223,1.229-10.252,4.741l-0.211,0.367c-0.818,1.416-1.258,3.387-1.318,5.915
	c-0.189,1.499,0.092,3.292,0.844,5.38l-0.045,0.079l-0.08-0.046c-1.08-1.275-2.371-2.348-3.875-3.216l-0.236-0.136
	c-0.891-0.516-1.973-1-3.248-1.457c-5.137-1.031-8.881,0.489-11.23,4.561c-0.586,1.014-1.004,2.241-1.252,3.682
	c-0.246,4.542,1.301,7.776,4.639,9.703c4.281,2.473,8.693,1.793,13.236-2.039l0.078,0.045l-0.045,0.079
	c-4.602,9.476-33.188,9.823-32.604-9.484c-16.373,10.065-30.365-14.864-24.459-23.587l0.045-0.079l-0.008,0.142
	c-1,5.808,0.615,9.933,4.844,12.374c1.301,0.611,2.361,1.014,3.182,1.208c4.703,0.291,8.088-1.354,10.156-4.937
	c0.605-1.049,1.039-2.266,1.303-3.652c0.361-4.498-1.539-7.948-5.697-10.35l-0.498-0.288c-1.469-0.848-2.99-1.4-4.566-1.657
	l-0.078-0.045l2.48-0.665c3.713-1.585,6.158-3.401,7.338-5.445c0.514-1.009,0.918-2.033,1.217-3.073
	c0.523-4.986-1.082-8.559-4.822-10.718 M616.364,215.801c-0.682-0.394-1.738-0.782-3.172-1.167
	c-4.807-0.352-8.225,1.229-10.252,4.741l-0.211,0.367c-0.818,1.416-1.258,3.387-1.318,5.915c-0.189,1.499,0.092,3.292,0.844,5.38
	l-0.047,0.079l-0.078-0.045c-1.08-1.276-2.373-2.348-3.875-3.216l-0.236-0.136c-0.891-0.515-1.975-1-3.248-1.456
	c-5.137-1.032-8.881,0.488-11.232,4.56c-0.584,1.014-1.002,2.241-1.25,3.682c-0.246,4.542,1.301,7.776,4.639,9.704
	c4.281,2.472,8.693,1.792,13.234-2.04l0.08,0.045l-0.047,0.079c-4.602,9.477-33.186,9.824-32.594-9.477
	c-16.367,10.073-30.359-14.856-24.453-23.58l0.045-0.079l-0.01,0.142c-1,5.808,0.615,9.932,4.844,12.374
	c1.303,0.611,2.363,1.014,3.184,1.208c4.701,0.291,8.086-1.354,10.154-4.937c0.605-1.049,1.041-2.266,1.305-3.651
	c0.359-4.499-1.539-7.949-5.699-10.35l-0.498-0.288c-1.467-0.848-2.988-1.4-4.564-1.657l-0.078-0.045l2.48-0.665
	c3.711-1.585,6.156-3.401,7.338-5.445c0.512-1.009,0.918-2.033,1.215-3.073c0.525-4.986-1.082-8.559-4.822-10.718 M558.04,182.051
	c-0.682-0.394-1.738-0.782-3.17-1.167c-4.807-0.352-8.225,1.229-10.252,4.741l-0.213,0.367c-0.816,1.416-1.256,3.387-1.318,5.915
	c-0.189,1.499,0.092,3.292,0.844,5.38l-0.045,0.079l-0.078-0.045c-1.082-1.276-2.373-2.348-3.877-3.216l-0.234-0.136
	c-0.893-0.515-1.975-1-3.25-1.456c-5.137-1.032-8.879,0.488-11.23,4.56c-0.586,1.014-1.002,2.241-1.252,3.682
	c-0.246,4.542,1.301,7.776,4.639,9.704c4.281,2.472,8.693,1.792,13.236-2.04l0.078,0.045l-0.045,0.079
	c-4.602,9.477-33.188,9.824-32.559-9.352c-16.33,10.198-30.322-14.731-24.416-23.455l0.045-0.079l-0.01,0.142
	c-1,5.808,0.615,9.932,4.844,12.374c1.303,0.611,2.363,1.014,3.184,1.208c4.701,0.291,8.086-1.354,10.154-4.937
	c0.605-1.049,1.041-2.266,1.305-3.651c0.361-4.499-1.539-7.949-5.699-10.35l-0.498-0.288c-1.467-0.848-2.988-1.4-4.564-1.657
	l-0.078-0.045l2.48-0.665c3.711-1.585,6.156-3.401,7.338-5.445c0.512-1.009,0.918-2.033,1.215-3.073
	c0.525-4.986-1.082-8.559-4.822-10.718 M499.79,148.551c-0.682-0.394-1.738-0.782-3.17-1.167c-4.807-0.352-8.225,1.229-10.252,4.741
	l-0.213,0.367c-0.816,1.416-1.256,3.387-1.318,5.915c-0.189,1.499,0.092,3.292,0.844,5.38l-0.045,0.079l-0.078-0.045
	c-1.082-1.276-2.373-2.348-3.877-3.216l-0.234-0.136c-0.893-0.515-1.975-1-3.25-1.456c-5.137-1.032-8.879,0.488-11.23,4.56
	c-0.586,1.014-1.002,2.241-1.252,3.682c-0.246,4.542,1.301,7.776,4.639,9.704c4.281,2.472,8.693,1.792,13.236-2.04l0.078,0.045
	l-0.045,0.079c-4.602,9.477-33.188,9.824-32.559-9.477c-16.33,10.073-30.322-14.856-24.416-23.58l0.045-0.079l-0.01,0.142
	c-1,5.808,0.615,9.932,4.844,12.374c1.303,0.611,2.363,1.014,3.184,1.208c4.701,0.291,8.086-1.354,10.154-4.937
	c0.605-1.049,1.041-2.266,1.305-3.651c0.359-4.499-1.539-7.949-5.699-10.35l-0.498-0.288c-1.467-0.848-2.988-1.4-4.564-1.657
	l-0.078-0.045l2.48-0.665c3.711-1.585,6.156-3.401,7.338-5.445c0.512-1.009,0.918-2.033,1.215-3.073
	c0.525-4.986-1.082-8.559-4.822-10.718 M441.54,114.801c-0.682-0.393-1.738-0.782-3.17-1.167c-4.807-0.352-8.225,1.229-10.252,4.741
	l-0.213,0.367c-0.816,1.416-1.256,3.387-1.318,5.915c-0.189,1.499,0.092,3.292,0.844,5.38l-0.045,0.079l-0.078-0.045
	c-1.082-1.276-2.373-2.348-3.877-3.216l-0.234-0.136c-0.893-0.515-1.975-1-3.25-1.456c-5.137-1.032-8.879,0.488-11.23,4.56
	c-0.586,1.014-1.002,2.241-1.252,3.682c-0.246,4.542,1.301,7.776,4.639,9.704c4.281,2.472,8.693,1.792,13.236-2.04l0.078,0.045
	l-0.045,0.079c-4.602,9.477-33.188,9.824-32.684-9.477c-16.455,10.073-30.448-14.856-24.542-23.58l0.045-0.079l-0.009,0.142
	c-1,5.808,0.615,9.932,4.845,12.374c1.302,0.611,2.362,1.014,3.183,1.208c4.701,0.291,8.086-1.354,10.154-4.937
	c0.605-1.049,1.041-2.266,1.305-3.651c0.36-4.499-1.539-7.949-5.698-10.35l-0.498-0.288c-1.468-0.848-2.99-1.4-4.565-1.657
	l-0.079-0.045l2.481-0.665c3.711-1.585,6.157-3.401,7.338-5.445c0.512-1.009,0.918-2.033,1.215-3.073
	c0.525-4.986-1.082-8.559-4.822-10.718 M266.29,13.801c3.74,2.159,5.347,5.732,4.822,10.718c-0.297,1.04-0.703,2.064-1.215,3.073
	c-1.18,2.044-3.626,3.86-7.338,5.445l-2.481,0.665l0.079,0.045c1.576,0.257,3.098,0.81,4.566,1.657l0.498,0.288
	c4.159,2.401,6.059,5.852,5.698,10.35c-0.264,1.386-0.699,2.603-1.304,3.651c-2.068,3.583-5.454,5.228-10.155,4.937
	c-0.82-0.194-1.881-0.597-3.182-1.208c-4.229-2.442-5.844-6.566-4.845-12.374l0.009-0.142l-0.045,0.079
	c-5.906,8.723,8.086,33.653,24.417,23.455c-0.628,19.176,27.958,18.829,32.559,9.352l0.045-0.079l-0.079-0.045
	c-4.542,3.832-8.955,4.512-13.236,2.04c-3.338-1.927-4.884-5.162-4.639-9.704c0.25-1.441,0.667-2.668,1.252-3.681
	c2.351-4.072,6.094-5.592,11.231-4.561c1.274,0.456,2.357,0.941,3.249,1.456l0.236,0.136c1.503,0.868,2.794,1.939,3.875,3.216
	l0.079,0.045l0.045-0.079c-0.751-2.088-1.033-3.881-0.843-5.38c0.062-2.528,0.5-4.5,1.318-5.915l0.212-0.367
	c2.028-3.513,5.445-5.093,10.252-4.741c1.433,0.384,2.49,0.773,3.171,1.167 M383.04,81.051c-0.682-0.394-1.738-0.782-3.171-1.167
	c-4.807-0.352-8.224,1.229-10.252,4.741l-0.212,0.367c-0.817,1.416-1.256,3.387-1.318,5.915c-0.189,1.499,0.092,3.292,0.843,5.38
	l-0.045,0.079l-0.079-0.045c-1.081-1.276-2.372-2.348-3.875-3.216l-0.236-0.136c-0.891-0.515-1.974-1-3.249-1.456
	c-5.137-1.032-8.88,0.488-11.231,4.56c-0.585,1.014-1.002,2.241-1.252,3.682c-0.246,4.542,1.301,7.776,4.639,9.704
	c4.282,2.472,8.694,1.792,13.236-2.04l0.079,0.045l-0.045,0.079c-4.602,9.477-33.188,9.824-32.684-9.477
	c-16.455,10.073-30.447-14.856-24.542-23.58l0.045-0.079l-0.009,0.142c-1,5.808,0.615,9.932,4.845,12.374
	c1.301,0.611,2.362,1.014,3.182,1.208c4.702,0.291,8.087-1.354,10.155-4.937c0.605-1.049,1.04-2.266,1.304-3.651
	c0.36-4.499-1.539-7.949-5.698-10.35l-0.498-0.288c-1.468-0.848-2.99-1.4-4.566-1.657l-0.079-0.045l2.481-0.665
	c3.711-1.585,6.158-3.401,7.338-5.445c0.513-1.009,0.918-2.033,1.215-3.073c0.525-4.986-1.082-8.559-4.822-10.718 M208.04-19.949
	c3.74,2.159,5.347,5.732,4.822,10.718c-0.297,1.04-0.703,2.064-1.215,3.073c-1.18,2.044-3.626,3.86-7.338,5.445l-2.481,0.665
	l0.079,0.045c1.576,0.257,3.098,0.81,4.566,1.657l0.498,0.288c4.159,2.401,6.059,5.852,5.698,10.35
	c-0.264,1.386-0.699,2.603-1.304,3.651c-2.068,3.583-5.454,5.228-10.155,4.937c-0.82-0.194-1.881-0.597-3.182-1.208
	c-4.229-2.442-5.844-6.566-4.845-12.374l0.009-0.142l-0.045,0.079c-5.906,8.723,8.086,33.653,24.417,23.58
	c-0.628,19.301,27.958,18.954,32.559,9.477l0.045-0.079l-0.079-0.045c-4.542,3.832-8.955,4.512-13.236,2.04
	c-3.338-1.927-4.884-5.162-4.639-9.704c0.25-1.441,0.667-2.668,1.252-3.681c2.351-4.072,6.094-5.592,11.231-4.561
	c1.274,0.456,2.357,0.941,3.249,1.456l0.236,0.136c1.503,0.868,2.794,1.939,3.875,3.216l0.079,0.045l0.045-0.079
	c-0.751-2.088-1.033-3.881-0.843-5.38c0.062-2.528,0.5-4.5,1.318-5.915l0.212-0.367c2.028-3.513,5.445-5.093,10.252-4.741
	c1.433,0.384,2.49,0.773,3.171,1.167 M208.04-19.949c-0.682-0.394-1.739-0.782-3.171-1.167c-4.807-0.352-8.224,1.229-10.252,4.741
	l-0.212,0.367c-0.817,1.416-1.256,3.387-1.318,5.915c-0.189,1.499,0.092,3.292,0.843,5.38l-0.045,0.079l-0.079-0.045
	c-1.081-1.276-2.372-2.348-3.875-3.216l-0.236-0.136c-0.891-0.515-1.974-1-3.249-1.456c-5.137-1.032-8.88,0.488-11.231,4.561
	c-0.585,1.013-1.002,2.24-1.252,3.681c-0.246,4.542,1.301,7.776,4.639,9.704c4.282,2.472,8.694,1.792,13.236-2.04l0.079,0.045
	l-0.045,0.079c-4.602,9.477-33.188,9.824-32.705-9.48L160-83.619l704,82L743.352,335.15c-17.123,8.84-31.115-16.09-25.211-24.813
	l0.047-0.078l-0.01,0.142c-1,5.808,0.615,9.933,4.844,12.374c1.303,0.611,2.363,1.015,3.184,1.208
	c4.701,0.291,8.086-1.354,10.154-4.937c0.605-1.049,1.041-2.266,1.305-3.651c0.359-4.499-1.539-7.949-5.699-10.351l-0.498-0.287
	c-1.467-0.848-2.99-1.4-4.564-1.657l-0.08-0.046l2.482-0.664c3.711-1.586,6.156-3.4,7.338-5.445c0.512-1.01,0.918-2.033,1.215-3.073
	c0.525-4.986-1.082-8.56-4.822-10.718"/>
<path id="path4357" fill="#ED2939" stroke="#ED2939" stroke-width="14" stroke-miterlimit="10" d="M670.325,503.925L-31.472,98.744"
	/>
<path id="path4359" fill="#ED2939" d="M2.288,216.118c0.682,0.394,1.738,0.782,3.171,1.167c4.807,0.352,8.224-1.229,10.252-4.741
	l0.212-0.367c0.817-1.416,1.257-3.387,1.318-5.915c0.189-1.498-0.092-3.292-0.844-5.38l0.045-0.079l0.079,0.045
	c1.081,1.276,2.373,2.348,3.875,3.216l0.236,0.136c0.892,0.515,1.974,1,3.249,1.457c5.136,1.031,8.88-0.489,11.231-4.561
	c0.585-1.014,1.002-2.241,1.251-3.682c0.246-4.542-1.301-7.776-4.639-9.704c-4.281-2.472-8.693-1.792-13.236,2.04l-0.079-0.045
	l0.045-0.079c4.602-9.477,33.187-9.824,32.602,9.396c16.373-10.154,30.365,14.775,24.459,23.499l-0.045,0.079l0.009-0.143
	c1-5.807-0.615-9.932-4.844-12.374c-1.302-0.612-2.362-1.014-3.183-1.208c-4.702-0.292-8.087,1.354-10.155,4.937
	c-0.605,1.048-1.04,2.266-1.304,3.651c-0.36,4.499,1.539,7.949,5.698,10.35l0.498,0.288c1.468,0.848,2.99,1.4,4.565,1.657
	l0.079,0.045l-2.481,0.665c-3.711,1.585-6.157,3.4-7.338,5.445c-0.513,1.009-0.917,2.034-1.215,3.074
	c-0.525,4.986,1.082,8.559,4.822,10.718 M60.624,249.705c0.682,0.394,1.739,0.782,3.171,1.167c4.807,0.352,8.224-1.229,10.252-4.742
	l0.212-0.367c0.817-1.416,1.257-3.387,1.318-5.915c0.189-1.499-0.092-3.292-0.843-5.38l0.045-0.079l0.079,0.045
	c1.081,1.276,2.373,2.349,3.875,3.216l0.236,0.136c0.891,0.514,1.974,1,3.249,1.456c5.137,1.032,8.88-0.489,11.231-4.561
	c0.585-1.014,1.002-2.241,1.251-3.681c0.246-4.542-1.301-7.776-4.639-9.704c-4.282-2.472-8.693-1.792-13.236,2.04l-0.079-0.045
	l0.046-0.079c4.602-9.476,33.187-9.823,32.602,9.484c16.374-10.066,30.366,14.863,24.46,23.587l-0.045,0.079l0.009-0.143
	c1-5.808-0.615-9.932-4.845-12.374c-1.301-0.611-2.362-1.014-3.182-1.208c-4.702-0.291-8.087,1.354-10.155,4.938
	c-0.605,1.048-1.04,2.266-1.304,3.65c-0.36,4.499,1.539,7.949,5.698,10.351l0.498,0.288c1.468,0.847,2.99,1.399,4.566,1.656
	l0.079,0.046l-2.481,0.665c-3.711,1.585-6.158,3.4-7.338,5.445c-0.513,1.008-0.917,2.033-1.215,3.072
	c-0.525,4.986,1.082,8.559,4.822,10.719 M118.961,283.47c0.682,0.393,1.739,0.782,3.171,1.166c4.807,0.352,8.224-1.229,10.252-4.74
	l0.212-0.367c0.817-1.416,1.257-3.388,1.318-5.916c0.189-1.498-0.092-3.291-0.843-5.379l0.045-0.079l0.079,0.045
	c1.081,1.276,2.373,2.349,3.875,3.216l0.236,0.137c0.891,0.515,1.974,1,3.249,1.456c5.137,1.032,8.88-0.488,11.231-4.561
	c0.585-1.014,1.002-2.241,1.251-3.681c0.246-4.543-1.301-7.777-4.639-9.704c-4.282-2.472-8.694-1.792-13.236,2.04l-0.079-0.045
	l0.045-0.079c4.602-9.477,33.188-9.823,32.596,9.478c16.367-10.074,30.359,14.855,24.453,23.579l-0.045,0.079l0.009-0.143
	c1-5.808-0.615-9.932-4.845-12.374c-1.301-0.611-2.362-1.015-3.182-1.208c-4.702-0.291-8.087,1.354-10.155,4.938
	c-0.605,1.048-1.04,2.266-1.304,3.65c-0.36,4.499,1.539,7.949,5.698,10.351l0.498,0.288c1.468,0.847,2.99,1.399,4.566,1.656
	l0.079,0.046l-2.481,0.665c-3.711,1.585-6.158,3.4-7.338,5.445c-0.513,1.008-0.918,2.033-1.215,3.072
	c-0.525,4.986,1.082,8.56,4.822,10.719 M177.284,317.22c0.682,0.394,1.739,0.782,3.171,1.166c4.807,0.353,8.224-1.229,10.252-4.741
	l0.212-0.366c0.817-1.416,1.257-3.388,1.318-5.915c0.189-1.499-0.092-3.292-0.843-5.38l0.045-0.079l0.079,0.045
	c1.081,1.276,2.373,2.349,3.875,3.216l0.236,0.137c0.891,0.515,1.974,1,3.249,1.456c5.137,1.031,8.88-0.488,11.231-4.561
	c0.585-1.014,1.002-2.241,1.251-3.681c0.246-4.543-1.301-7.777-4.639-9.704c-4.282-2.472-8.694-1.792-13.236,2.04l-0.079-0.045
	l0.045-0.079c4.602-9.477,33.188-9.823,32.559,9.353c16.33-10.199,30.322,14.73,24.417,23.454l-0.045,0.079l0.009-0.143
	c1-5.808-0.615-9.933-4.845-12.374c-1.301-0.611-2.362-1.014-3.182-1.208c-4.702-0.291-8.087,1.354-10.155,4.938
	c-0.605,1.048-1.04,2.265-1.304,3.65c-0.36,4.499,1.539,7.949,5.698,10.351l0.498,0.287c1.468,0.848,2.99,1.4,4.566,1.657
	l0.079,0.046l-2.481,0.665c-3.711,1.585-6.158,3.4-7.338,5.444c-0.513,1.01-0.918,2.034-1.215,3.073
	c-0.525,4.986,1.082,8.56,4.822,10.719 M235.534,350.72c0.682,0.394,1.739,0.782,3.171,1.166c4.807,0.353,8.224-1.229,10.252-4.741
	l0.212-0.366c0.817-1.416,1.256-3.388,1.318-5.915c0.189-1.499-0.092-3.292-0.843-5.381l0.045-0.078l0.079,0.045
	c1.081,1.276,2.373,2.349,3.875,3.217l0.236,0.136c0.891,0.515,1.974,1,3.249,1.456c5.137,1.031,8.88-0.488,11.231-4.561
	c0.585-1.014,1.002-2.24,1.251-3.682c0.246-4.541-1.301-7.775-4.639-9.703c-4.282-2.472-8.694-1.792-13.236,2.04l-0.079-0.046
	l0.045-0.078c4.602-9.477,33.188-9.823,32.559,9.477c16.33-10.072,30.322,14.856,24.417,23.58l-0.045,0.079l0.009-0.143
	c1-5.808-0.615-9.933-4.845-12.374c-1.301-0.611-2.362-1.014-3.182-1.208c-4.702-0.291-8.087,1.354-10.155,4.938
	c-0.605,1.048-1.04,2.265-1.304,3.65c-0.36,4.499,1.539,7.949,5.698,10.351l0.498,0.287c1.468,0.848,2.99,1.4,4.566,1.657
	l0.079,0.046l-2.481,0.665c-3.711,1.585-6.158,3.4-7.338,5.444c-0.513,1.01-0.918,2.034-1.215,3.073
	c-0.525,4.986,1.082,8.56,4.822,10.719 M293.784,384.47c0.682,0.394,1.739,0.782,3.171,1.166c4.807,0.353,8.224-1.229,10.252-4.741
	l0.212-0.366c0.817-1.416,1.256-3.388,1.318-5.915c0.189-1.499-0.092-3.292-0.843-5.381l0.045-0.078l0.079,0.045
	c1.081,1.276,2.373,2.349,3.875,3.217l0.236,0.136c0.891,0.515,1.974,1,3.249,1.456c5.137,1.031,8.88-0.488,11.231-4.561
	c0.585-1.014,1.002-2.24,1.251-3.682c0.246-4.541-1.301-7.775-4.639-9.703c-4.282-2.472-8.694-1.792-13.236,2.04l-0.079-0.046
	l0.045-0.078c4.602-9.477,33.188-9.823,32.684,9.477c16.455-10.072,30.447,14.856,24.542,23.58l-0.045,0.079l0.009-0.143
	c1-5.808-0.615-9.933-4.845-12.374c-1.301-0.611-2.362-1.014-3.182-1.208c-4.702-0.291-8.087,1.354-10.155,4.938
	c-0.605,1.048-1.04,2.265-1.304,3.65c-0.36,4.499,1.539,7.949,5.698,10.351l0.498,0.287c1.468,0.848,2.99,1.4,4.566,1.657
	l0.079,0.046l-2.481,0.665c-3.711,1.585-6.158,3.4-7.338,5.444c-0.513,1.01-0.918,2.034-1.215,3.073
	c-0.525,4.986,1.082,8.56,4.822,10.719 M469.034,485.47c-3.74-2.159-5.348-5.732-4.822-10.719c0.299-1.039,0.703-2.063,1.215-3.073
	c1.182-2.044,3.627-3.859,7.338-5.444l2.482-0.665l-0.08-0.046c-1.574-0.257-3.096-0.81-4.564-1.657l-0.498-0.287
	c-4.16-2.401-6.059-5.852-5.699-10.351c0.266-1.386,0.699-2.603,1.305-3.65c2.068-3.583,5.453-5.229,10.156-4.938
	c0.818,0.194,1.881,0.597,3.182,1.208c4.229,2.441,5.844,6.566,4.844,12.374l-0.01,0.143l0.047-0.079
	c5.906-8.724-8.086-33.652-24.418-23.455c0.629-19.175-27.957-18.828-32.559-9.352l-0.045,0.078l0.078,0.046
	c4.543-3.832,8.955-4.512,13.236-2.04c3.338,1.928,4.885,5.162,4.639,9.703c-0.248,1.441-0.666,2.668-1.252,3.682
	c-2.35,4.072-6.094,5.592-11.23,4.561c-1.275-0.456-2.357-0.941-3.248-1.456l-0.236-0.136c-1.504-0.868-2.795-1.94-3.875-3.217
	l-0.08-0.045l-0.045,0.078c0.752,2.089,1.033,3.882,0.844,5.381c-0.061,2.527-0.5,4.499-1.318,5.915l-0.211,0.366
	c-2.029,3.513-5.445,5.094-10.252,4.741c-1.434-0.384-2.49-0.772-3.172-1.166 M352.284,418.22c0.682,0.394,1.739,0.782,3.171,1.166
	c4.807,0.353,8.224-1.229,10.252-4.741l0.212-0.366c0.817-1.416,1.256-3.388,1.318-5.915c0.189-1.499-0.092-3.292-0.843-5.381
	l0.045-0.078l0.079,0.045c1.081,1.276,2.373,2.349,3.875,3.217l0.236,0.136c0.891,0.515,1.974,1,3.248,1.456
	c5.137,1.031,8.881-0.488,11.231-4.561c0.585-1.014,1.003-2.24,1.251-3.682c0.246-4.541-1.301-7.775-4.639-9.703
	c-4.281-2.472-8.693-1.792-13.236,2.04l-0.079-0.046l0.045-0.078c4.601-9.477,33.187-9.823,32.683,9.477
	c16.457-10.072,30.449,14.856,24.543,23.58l-0.047,0.079l0.01-0.143c1-5.808-0.615-9.933-4.844-12.374
	c-1.301-0.611-2.363-1.014-3.182-1.208c-4.703-0.291-8.088,1.354-10.156,4.938c-0.605,1.048-1.039,2.265-1.305,3.65
	c-0.359,4.499,1.539,7.949,5.699,10.351l0.498,0.287c1.467,0.848,2.99,1.4,4.564,1.657l0.08,0.046l-2.482,0.665
	c-3.711,1.585-6.156,3.4-7.338,5.444c-0.512,1.01-0.916,2.034-1.215,3.073c-0.525,4.986,1.082,8.56,4.822,10.719 M527.284,519.22
	c-3.74-2.159-5.348-5.732-4.822-10.719c0.299-1.039,0.703-2.063,1.215-3.073c1.182-2.044,3.627-3.859,7.338-5.444l2.482-0.665
	l-0.08-0.046c-1.574-0.257-3.096-0.81-4.564-1.657l-0.498-0.287c-4.16-2.401-6.059-5.852-5.699-10.351
	c0.266-1.386,0.699-2.603,1.305-3.65c2.068-3.583,5.453-5.229,10.156-4.938c0.818,0.194,1.881,0.597,3.182,1.208
	c4.229,2.441,5.844,6.566,4.844,12.374l-0.01,0.143l0.047-0.079c5.906-8.724-8.086-33.652-24.418-23.58
	c0.629-19.3-27.957-18.953-32.559-9.477l-0.045,0.078l0.078,0.046c4.543-3.832,8.955-4.512,13.236-2.04
	c3.338,1.928,4.885,5.162,4.639,9.703c-0.248,1.441-0.666,2.668-1.252,3.682c-2.35,4.072-6.094,5.592-11.23,4.561
	c-1.275-0.456-2.357-0.941-3.248-1.456l-0.236-0.136c-1.504-0.868-2.795-1.94-3.875-3.217l-0.08-0.045l-0.045,0.078
	c0.752,2.089,1.033,3.882,0.844,5.381c-0.061,2.527-0.5,4.499-1.318,5.915l-0.211,0.366c-2.029,3.513-5.445,5.094-10.252,4.741
	c-1.434-0.384-2.49-0.772-3.172-1.166 M527.284,519.22c0.682,0.394,1.738,0.782,3.172,1.166c4.807,0.353,8.223-1.229,10.252-4.741
	l0.211-0.366c0.818-1.416,1.258-3.388,1.318-5.915c0.189-1.499-0.092-3.292-0.844-5.381l0.045-0.078l0.08,0.045
	c1.08,1.276,2.371,2.349,3.875,3.217l0.236,0.136c0.891,0.515,1.973,1,3.248,1.456c5.137,1.031,8.881-0.488,11.23-4.561
	c0.586-1.014,1.004-2.24,1.252-3.682c0.246-4.541-1.301-7.775-4.639-9.703c-4.281-2.472-8.693-1.792-13.236,2.04l-0.078-0.046
	l0.045-0.078c4.602-9.477,33.188-9.823,32.705,9.48l-0.832,80.681l-704.001-82L-8.028,164.12
	c17.124-8.839,31.116,16.09,25.21,24.813l-0.045,0.079l0.009-0.142c1-5.808-0.615-9.932-4.844-12.374
	c-1.301-0.612-2.362-1.015-3.182-1.208c-4.702-0.291-8.087,1.354-10.155,4.937c-0.605,1.049-1.04,2.266-1.304,3.651
	c-0.36,4.499,1.539,7.949,5.698,10.35l0.498,0.288c1.468,0.848,2.99,1.4,4.565,1.657l0.079,0.045l-2.481,0.665
	c-3.711,1.585-6.157,3.401-7.338,5.445c-0.512,1.009-0.917,2.033-1.215,3.073c-0.525,4.986,1.082,8.559,4.822,10.718"/>
<path id="path4365" sodipodi:nodetypes="cccccccccccscscccccccccccccccccsccccccccc" fill="#FFD203" d="M69.184,344.604
	c0.511,0.295,1.303,0.587,2.377,0.875c3.604,0.264,6.165-0.921,7.685-3.554l0.159-0.275c0.613-1.062,0.942-2.539,0.988-4.434
	c0.142-1.124-0.069-2.468-0.632-4.033l0.034-0.06l0.059,0.034c0.81,0.957,1.779,1.761,2.905,2.411l0.177,0.102
	c0.668,0.387,1.48,0.75,2.435,1.092c3.851,0.773,6.657-0.366,8.419-3.418c0.439-0.76,0.751-1.68,0.938-2.76
	c0.184-3.404-0.975-5.829-3.478-7.273c-3.209-1.854-6.517-1.344-9.921,1.528l-0.122-0.021c11.157-15.186,25.834,1.447,22.897,6.657
	c7.836-5.34,15.054-0.451,14.899,6.97c-2.525,7.96-9.185,6.758-15.173,4.72c8.242,8.029,17.499,28.56,16.179,36.873l14.556-56.639
	l-79.428-46.719l-40.685,42.513c6.54-5.299,27.735-8.761,38.81-5.638c-4.76-4.167-9.13-9.334-3.5-15.5
	c6.35-3.844,14.193-0.037,13.486,9.418c3.043-5.148,24.787-0.753,17.233,16.562l-0.102,0.177l-0.059-0.034
	c0.75-4.354-0.461-7.445-3.631-9.275c-0.976-0.458-1.771-0.76-2.385-0.905c-3.524-0.219-6.062,1.016-7.612,3.7
	c-0.454,0.786-0.78,1.698-0.978,2.737c-0.271,3.372,1.153,5.958,4.271,7.759l0.373,0.215c1.101,0.636,2.241,1.05,3.422,1.243
	l0.059,0.033l-1.86,0.499c-2.782,1.188-4.615,2.549-5.5,4.081c-0.384,0.757-0.688,1.524-0.911,2.304
	C65.175,340.308,66.38,342.985,69.184,344.604"/>
<path id="path1887" sodipodi:nodetypes="cccccccccccscscccccccccccccccccsccccccccc" fill="#FFD203" d="M117.443,455.077
	c0.511,0.295,1.304,0.587,2.377,0.875c3.603,0.264,6.165-0.921,7.685-3.555l0.159-0.274c0.613-1.062,0.942-2.539,0.988-4.435
	c0.142-1.123-0.069-2.467-0.632-4.032l0.034-0.06l0.059,0.034c0.81,0.957,1.778,1.761,2.905,2.411l0.177,0.102
	c0.668,0.386,1.48,0.75,2.436,1.092c3.85,0.773,6.657-0.366,8.419-3.418c0.438-0.761,0.751-1.68,0.938-2.76
	c0.184-3.405-0.975-5.829-3.477-7.274c-3.209-1.853-6.517-1.343-9.922,1.529l-0.122-0.021c11.157-15.186,25.835,1.447,22.897,6.657
	c7.836-5.34,15.054-0.451,14.9,6.97c-2.525,7.959-9.185,6.758-15.173,4.719c8.242,8.029,17.498,28.561,16.179,36.874l14.556-56.64
	l-79.428-46.718l-40.686,42.513c6.54-5.3,27.736-8.761,38.811-5.638c-4.76-4.167-9.13-9.333-3.5-15.5
	c6.35-3.845,14.192-0.038,13.486,9.418c3.043-5.148,24.786-0.753,17.233,16.562l-0.103,0.177l-0.059-0.034
	c0.749-4.354-0.461-7.445-3.631-9.275c-0.976-0.458-1.771-0.76-2.386-0.905c-3.524-0.219-6.062,1.015-7.612,3.7
	c-0.454,0.786-0.78,1.698-0.978,2.737c-0.27,3.372,1.154,5.958,4.271,7.759l0.374,0.215c1.1,0.636,2.241,1.05,3.422,1.242
	l0.059,0.034l-1.859,0.499c-2.782,1.188-4.616,2.549-5.5,4.081c-0.384,0.757-0.688,1.524-0.911,2.304
	C113.436,450.781,114.64,453.459,117.443,455.077"/>
<path id="path1889" sodipodi:nodetypes="cccccccccccscscccccccccccccccccsccccccccc" fill="#FFD203" d="M234.988,440.711
	c0.511,0.295,1.303,0.586,2.377,0.875c3.603,0.264,6.165-0.922,7.685-3.555l0.159-0.275c0.613-1.061,0.942-2.539,0.988-4.434
	c0.142-1.123-0.069-2.468-0.632-4.033l0.034-0.059l0.059,0.034c0.81,0.957,1.778,1.76,2.905,2.41l0.177,0.103
	c0.668,0.386,1.479,0.75,2.435,1.092c3.85,0.773,6.657-0.366,8.419-3.419c0.438-0.76,0.751-1.68,0.938-2.76
	c0.184-3.404-0.975-5.829-3.477-7.273c-3.209-1.853-6.517-1.343-9.922,1.529l-0.121-0.021c11.157-15.187,25.834,1.447,22.897,6.656
	c7.835-5.34,15.054-0.45,14.899,6.971c-2.525,7.959-9.185,6.758-15.173,4.719c8.242,8.029,17.498,28.56,16.179,36.874l14.556-56.64
	l-79.428-46.718l-40.686,42.513c6.54-5.3,27.736-8.762,38.811-5.638c-4.76-4.167-9.13-9.334-3.5-15.5
	c6.35-3.845,14.193-0.038,13.486,9.418c3.043-5.148,24.787-0.754,17.233,16.562l-0.102,0.178l-0.059-0.034
	c0.75-4.354-0.461-7.445-3.631-9.275c-0.976-0.459-1.771-0.761-2.386-0.906c-3.524-0.218-6.062,1.016-7.612,3.701
	c-0.454,0.786-0.779,1.698-0.978,2.737c-0.27,3.372,1.154,5.958,4.271,7.758l0.374,0.216c1.1,0.636,2.241,1.05,3.422,1.242
	l0.059,0.034l-1.86,0.498c-2.782,1.188-4.616,2.549-5.5,4.082c-0.384,0.756-0.688,1.524-0.911,2.304
	C230.98,436.414,232.185,439.092,234.988,440.711"/>
<path id="path1891" sodipodi:nodetypes="cccccccccccscscccccccccccccccccsccccccccc" fill="#FFD203" d="M499.684,59.381
	c-0.514-0.292-1.309-0.577-2.383-0.858c-3.605-0.238-6.158,0.965-7.66,3.609l-0.156,0.276c-0.605,1.065-0.924,2.546-0.957,4.441
	c-0.135,1.125,0.086,2.467,0.66,4.028l-0.033,0.059l-0.059-0.033c-0.816-0.951-1.791-1.748-2.922-2.39l-0.178-0.101
	c-0.672-0.381-1.486-0.739-2.443-1.074c-3.855-0.746-6.654,0.414-8.395,3.479c-0.434,0.763-0.74,1.685-0.918,2.766
	c-0.16,3.406,1.016,5.822,3.527,7.249c3.223,1.83,6.527,1.297,9.912-1.6l0.121,0.02c-11.049,15.265-25.844-1.263-22.943-6.494
	c-7.799,5.396-15.051,0.558-14.949-6.864c2.469-7.977,9.137-6.823,15.139-4.827c-8.299-7.971-17.701-28.435-16.439-36.757
	l-14.154,56.741l79.76,46.152l40.381-42.801c-6.502,5.346-27.672,8.958-38.77,5.914c4.791,4.133,9.197,9.268,3.611,15.475
	c-6.322,3.889-14.193,0.139-13.553-9.322c-3.008,5.17-24.781,0.93-17.352-16.439l0.102-0.178l0.059,0.034
	c-0.719,4.358,0.514,7.442,3.697,9.25c0.979,0.452,1.775,0.748,2.393,0.889c3.525,0.193,6.055-1.059,7.586-3.755
	c0.447-0.789,0.768-1.704,0.957-2.744c0.246-3.374-1.195-5.95-4.326-7.728l-0.375-0.213c-1.105-0.627-2.248-1.034-3.432-1.218
	l-0.059-0.033l1.855-0.512c2.773-1.208,4.598-2.582,5.473-4.121c0.379-0.759,0.676-1.529,0.895-2.31
	C503.723,63.649,502.499,60.98,499.684,59.381"/>
<path id="path1893" sodipodi:nodetypes="cccccccccccscscccccccccccccccccsccccccccc" fill="#FFD203" d="M619.003,43.704
	c-0.512-0.292-1.307-0.578-2.383-0.858c-3.605-0.238-6.158,0.965-7.66,3.609l-0.156,0.276c-0.605,1.065-0.924,2.546-0.957,4.441
	c-0.133,1.125,0.088,2.467,0.662,4.028l-0.033,0.059l-0.061-0.033c-0.816-0.951-1.791-1.748-2.922-2.39l-0.178-0.101
	c-0.67-0.381-1.484-0.739-2.443-1.074c-3.855-0.746-6.652,0.414-8.393,3.479c-0.434,0.763-0.74,1.685-0.92,2.766
	c-0.16,3.406,1.018,5.822,3.529,7.249c3.223,1.83,6.525,1.297,9.91-1.6l0.121,0.02c-11.047,15.265-25.844-1.263-22.943-6.494
	c-7.797,5.396-15.051,0.558-14.949-6.864c2.469-7.977,9.137-6.823,15.141-4.827c-8.299-7.971-17.701-28.435-16.441-36.757
	l-14.152,56.741l79.758,46.152l40.383-42.801c-6.502,5.346-27.674,8.958-38.77,5.914c4.789,4.133,9.195,9.268,3.609,15.475
	c-6.322,3.889-14.191,0.139-13.553-9.322c-3.006,5.17-24.781,0.93-17.352-16.439l0.102-0.178l0.059,0.034
	c-0.717,4.358,0.516,7.442,3.697,9.25c0.98,0.452,1.777,0.748,2.393,0.889c3.525,0.193,6.055-1.059,7.586-3.755
	c0.447-0.79,0.768-1.704,0.959-2.744c0.246-3.374-1.197-5.95-4.328-7.728l-0.375-0.213c-1.104-0.627-2.248-1.034-3.43-1.218
	l-0.061-0.033l1.857-0.512c2.773-1.208,4.598-2.582,5.471-4.121c0.379-0.759,0.678-1.529,0.895-2.31
	C623.042,47.972,621.817,45.302,619.003,43.704"/>
<path id="path1895" sodipodi:nodetypes="cccccccccccscscccccccccccccccccsccccccccc" fill="#FFD203" d="M666.715,153.412
	c-0.514-0.291-1.309-0.577-2.385-0.857c-3.604-0.238-6.158,0.965-7.658,3.608l-0.158,0.276c-0.604,1.065-0.924,2.545-0.955,4.441
	c-0.135,1.124,0.086,2.467,0.66,4.028l-0.033,0.059l-0.059-0.034c-0.818-0.951-1.791-1.748-2.922-2.39l-0.178-0.101
	c-0.672-0.381-1.486-0.739-2.443-1.074c-3.855-0.746-6.654,0.414-8.395,3.478c-0.434,0.763-0.74,1.685-0.918,2.767
	c-0.16,3.406,1.016,5.822,3.527,7.249c3.223,1.83,6.527,1.297,9.912-1.6l0.121,0.02c-11.049,15.265-25.844-1.264-22.945-6.494
	c-7.797,5.396-15.049,0.558-14.947-6.864c2.469-7.977,9.137-6.823,15.139-4.827c-8.299-7.97-17.701-28.435-16.441-36.757
	l-14.152,56.741l79.758,46.152l40.383-42.801c-6.502,5.346-27.672,8.958-38.77,5.914c4.789,4.133,9.197,9.269,3.611,15.475
	c-6.322,3.889-14.193,0.138-13.555-9.322c-3.006,5.17-24.779,0.93-17.35-16.439l0.102-0.177l0.059,0.034
	c-0.719,4.358,0.514,7.441,3.697,9.249c0.979,0.452,1.775,0.748,2.391,0.889c3.527,0.193,6.055-1.058,7.586-3.755
	c0.449-0.789,0.768-1.704,0.959-2.744c0.246-3.374-1.195-5.95-4.326-7.728l-0.375-0.213c-1.105-0.627-2.248-1.033-3.432-1.218
	l-0.059-0.034l1.855-0.511c2.773-1.208,4.598-2.582,5.473-4.121c0.377-0.759,0.676-1.529,0.893-2.31
	C670.753,157.68,669.53,155.01,666.715,153.412"/>
</svg>
