<?xml version="1.0" encoding="utf-8"?>
<!-- Generator: Adobe Illustrator 16.0.0, SVG Export Plug-In . SVG Version: 6.00 Build 0)  -->
<!DOCTYPE svg PUBLIC "-//W3C//DTD SVG 1.1//EN" "http://www.w3.org/Graphics/SVG/1.1/DTD/svg11.dtd">
<svg version="1.1" id="Calque_1" xmlns="http://www.w3.org/2000/svg" xmlns:xlink="http://www.w3.org/1999/xlink" x="0px" y="0px"
	 width="500px" height="300px" viewBox="0 0 500 300" enable-background="new 0 0 500 300" xml:space="preserve">
<rect fill="#ED2939" width="500" height="300"/>
<g>
	<g>
		<g transform="matrix(1.5874864,0,0,2.1364683,-8.587906,-161.08796)">
			<path fill="#002395" stroke="#650000" stroke-width="1.075" d="M165.38,177.4c-1.06,1.237,1.847,6.726,6.341,6.588
				c-2.931-3.395-2.622-7.343-2.622-7.343L165.38,177.4z"/>
			<path fill="#002395" stroke="#650000" stroke-width="1.075" d="M154.22,171.46c-1.62,0.173-5.53,7.389,0.704,9.964
				c0.199-4.48,3.134-7.139,3.134-7.139l-3.223-2.004L154.22,171.46L154.22,171.46z"/>
			<path fill="#002395" stroke="#650000" stroke-width="1.075" d="M153.46,167.15c-1.575-1.196-8.382,2.277-8.101,7.458
				c4.182-3.454,9.135-3.185,9.135-3.185L153.46,167.15L153.46,167.15z"/>
			<path fill="#002395" stroke="#650000" stroke-width="1.075" d="M161.33,162.96c-0.112-1.625-6.032-3.503-9.14-0.254
				c4.469,0.367,7.017,3.399,7.017,3.399L161.33,162.96L161.33,162.96z"/>
		</g>
		<g transform="matrix(1.5874864,0,0,2.1364683,-8.587906,-161.08796)">
			<path fill="#002395" stroke="#650000" stroke-width="1.075" d="M280.72,178.08c-0.108,1.488,0.42,2.007,1.431,2.843
				c1.013,0.836,2.159,3.319,2.159,3.319s3.243-6.541,2.431-7.419C285.93,175.945,280.921,178.038,280.72,178.08L280.72,178.08z"/>
			<path fill="#002395" stroke="#650000" stroke-width="1.075" d="M263.57,175.37c-1.614-0.224-4.667,5.184-2.126,8.894
				c1.277-4.299,4.768-6.169,4.768-6.169L263.57,175.37L263.57,175.37z"/>
			<path fill="#002395" stroke="#650000" stroke-width="1.075" d="M255.7,173.74c-1.257-1.036-6.69,1.972-6.468,6.463
				c3.34-2.993,7.293-2.759,7.293-2.759L255.7,173.74z"/>
			<path fill="#002395" stroke="#650000" stroke-width="1.075" d="M259.82,166.8c-0.866-1.38-6.971-0.242-8.179,4.089
				c4.114-1.785,7.791-0.314,7.791-0.314L259.82,166.8z"/>
		</g>
		<g transform="matrix(1.5874864,0,0,2.1364683,-7.595727,-161.088)">
			<path fill="#002395" stroke="#650000" stroke-width="1.075" d="M56.274,163.76c0.587-1.52-3.981-5.727-8.173-4.1
				c3.894,2.225,4.918,6.05,4.918,6.05L56.274,163.76z"/>
			<path fill="#002395" stroke="#650000" stroke-width="1.075" d="M38.768,173.26c-1.524-1.371-7.919,2.531-7.538,8.43
				c3.9-3.901,8.616-3.559,8.616-3.559L38.768,173.26L38.768,173.26z"/>
			<path fill="#002395" stroke="#650000" stroke-width="1.075" d="M39.326,164.91c-0.656-1.942-8.143-1.677-10.703,3.652
				c5.313-1.488,9.255,1.122,9.255,1.122L39.326,164.91L39.326,164.91z"/>
			<path fill="#002395" stroke="#650000" stroke-width="1.075" d="M46.952,180.67c-0.41,1.435,0,2.05,0.82,3.075
				c0.82,1.025,1.435,3.691,1.435,3.691s4.511-5.741,3.896-6.766C52.488,179.645,47.157,180.67,46.952,180.67L46.952,180.67z"/>
		</g>
		<g transform="matrix(1.5874864,0,0,2.1364683,-8.587906,-161.08796)">
			<path fill="#002395" stroke="#650000" stroke-width="1.075" d="M28.996,114.66c0-2.05-7.179-4.194-11.308,0.035
				c5.509,0.29,8.409,4.024,8.409,4.024L28.996,114.66L28.996,114.66z"/>
			<path fill="#002395" stroke="#650000" stroke-width="1.075" d="M21.545,122.82c-1.524-1.371-7.919,2.531-7.538,8.43
				c3.9-3.902,8.616-3.559,8.616-3.559L21.545,122.82L21.545,122.82z"/>
			<path fill="#002395" stroke="#650000" stroke-width="1.075" d="M47.601,113.95c0.693-1.93-5.337-6.375-10.654-3.791
				c5.086,2.136,6.552,6.631,6.552,6.631L47.601,113.95z"/>
			<path fill="#002395" stroke="#650000" stroke-width="1.075" d="M56.114,121c1.196-1.106-1.052-6.895-5.532-7.28
				c2.516,3.712,1.751,7.598,1.751,7.598L56.114,121z"/>
		</g>
	</g>
	<path fill="#FFD203" stroke="#650000" stroke-width="1.9798" d="M118.48,111.93c-7.154-8.093-0.084-22.854,6.329-16.558
		c-3.359-6.041,2.134-10.822,4.627-7.797c-1.16-4.916,4.108-8.176,6.692-3.638c-0.928-5.483,6.885-8.692,8.911-2.701
		c0.136-5.39,7.772-9.644,9.458-1.75c1.486-6.076,9.999-6.872,10.705,1.76c2.484-5.021,8.866-4.653,9.237,2.641
		c2.759-3.43,9.89,1.704,8.675,7.772c4.404-0.927,9.785,7.742,4.417,14.132c9.523-4.939,11.772,11.071,5.986,18.339
		c2.993,1.776,3.256,0.208,5.896,1.54c2.641,1.333,7.429,3.526,11.81,4.472c3.961,0,18.483-0.444,21.453-0.888
		c2.97-0.444,7.031-1.952,11.882-3.554c5.081-1.601,12.429-1.66,19.134-3.244c5.312-0.581,154.47,2.355,158.76,1.911
		c4.291-0.444,10.553-4.454,10.224-9.34c-0.33-4.886-5.272-8.428-10.224-8.872c-4.951-0.444-30.365-0.444-34.986,0.444
		c-4.62,0.888-11.222,3.109-14.521,6.219c-1.586,0.994-4.208,4.753-6.43,7.226c-2.079,1.704-7.951,1.956-7.951-0.265
		c0-1.452-0.493,0.279-1.936,0.842c-1.872,1.14-10.32,1.452-9.946,0c0.66-1.644-0.044-2.162-2.267-0.444
		c-1.65,1.333-13.324,1.823-15.467,0.504c1.285-2.088,1.295-1.969-2.213-0.252c-2.221,0.948-11.418,1.69-12.078-0.133
		c-0.089-1.438-1.131-0.734-2.428-0.325c-10.424,2.65-11.424-0.417-9.774-1.75c1.65-1.332,4.149-8.957,1.509-8.512
		c-2.641,0.444-19.143,3.553-24.754,4.442c-5.611,0.888-46.207,0-51.818-0.444c-5.61-0.444-11.88-5.578-12.212-12.881
		c-0.587-11.715,9.242-14.658,15.182-16.435c5.941-1.777,20.793-4.442,26.734-4.442s22.886,2.043,27.507,0.267
		c4.621-1.776,18.653-6.74,22.618-7.107c5.85-0.528,22.608,1.398,30.595,10.734c-4.158,1.836-6.114,2.917-1.395,1.26
		c4.29-0.889,22.707-4.62,26.998-5.597c14.854-0.622,10.957,1.6,3.696,3.376c-2.424,7.511-24.248,17.994-31.181,19.326
		c-6.931,1.333-21.64,0.356-24.929-0.226c-3.3-0.241-18.917-1-24.603-4.581c-9.186-6.057-26.158-10.039-33.6-9.9
		c-6.961,0.135-26.82,2.163-26.733,8.884c-0.104,11.802,18.483,12.437,26.403,11.993c7.922-0.444,27.725-1.333,33.336-3.554
		c5.61-2.221,17.746-2.767,24.348-2.767c6.601,0,16.248,1.434,19.218,0.99c2.97-0.444,9.901-0.545,13.202-2.766
		c3.301-2.221,10.477-4.543,17.738-4.543c7.261,0,61.145-2.018,68.405-1.574c10.512-0.07,17.938,11.099,18.064,20.597
		c0.061,4.441-2.178,11.006-4.079,12.023c3.262,0.292,11.424,1.186,14.116,1.732c5.056,0.975,13.251,6.392,14.19,11.327
		c-3.84-2.268-10.037-5.692-15.622-6.066c-1.094,0.013-118.72-0.192-127.96-0.136c25.134,2.888,44.342,21.707,49.141,32.482
		c4.291,6.662,14.852,3.997,18.812,3.109c3.961-0.889,8.582-4.887,11.883-7.996s8.461-3.898,10.791-3.109
		c5.13-0.444,6.042,4.887,4.062,7.551c-1.98,2.666,0.328,1.57,5.609,1.57c5.28,0,9.937,1.912,13.051,5.946
		c-2.971,2.665-4.468,0.479-0.178,0.923c4.291,0.445,9.471,8.096,6.271,10.254c-2.797,1.348-3.631,0.852,0,1.296
		c5.413,0.444,6.888,3.853,7.591,9.907c-4.582,0.816-2.311-0.58,0,1.642c2.311,2.221,5.677,12.057-2.641,12.437
		c-2.97-1.332-2.916-1.591-2.283,1.432c0.587,3.109-1.017,10.562-5.638,10.562c-6.402,1.199-12.212-2.221-12.872-6.219
		c-0.66-3.997-0.574,7.715-9.649,9.563c-8.57,1.854-13.124-2.9-13.784-5.121s-0.33-0.444-3.63-0.889
		c-3.301-0.444-7.46-0.485-9.241-5.774c0-3.109,0.643-7.208,6.522-7.761c2.641-0.444,3.379-3.788,1.398-4.232s-0.33-7.107,3.96-5.33
		c4.291,1.777,14.192,2.221,16.503,4.441s2.971-1.776-0.66-5.33c-3.63-3.554-25.743-10.661-31.685-7.995
		c-13.834,6.776-36.966,5.774-40.926,4.886c-3.961-0.889-15.399,1.535-20.793-14.658c-4.375-16.535-21.001-24.707-28.592-25.596
		c-37.448-3.427-35.414-0.791-11.127,0.326c-0.182,3.088-1.062,9.408,2.875,10.334c6.602-0.888,20.34-3.721,23.642-1.055
		c3.3,2.664,6.601,4.886,5.94,11.104s0.33,4.442-2.641,7.106c-2.971,2.666-1.65,7.996,2.971,9.773
		c4.621,1.775,6.602,3.997,9.572,6.662c2.97,2.665-1.32,7.996-3.961,6.219s-2.641-1.777-2.971,1.777
		c-0.33,3.553-3.611,10.277-9.189,10.771c-1.171-0.43-0.846-2.269-0.712-3.665c0.33-3.109-1.115,3.863-2.841,5.797
		c-1.098,1.305-10.441,3.86-13.082,2.527c1.179-2.781,0.498-1.646-1.812-0.313c-2.255,0.874-14.42,2.518-8.998-3.124
		c1.406-2.055-1.934,2.567-3.776,3.373c-1.548,0.938-8.767,1.513-8.767-1.152c-2.291,1.959-7.744,1.96-8.581,0.444
		c-1.649-1.776-1.806,1.333-4.776,1.776c-2.97,0.444-9.416-0.443-9.746-3.998c-0.33-3.553,0.66-1.332-2.97-0.888
		c-8.838,5.7-13.202-2.222-13.202-4.886c0-2.666-0.33-5.775,0.66-7.552c0.99-1.776-6.149-2.312-3.96-5.811
		c2.461-4.277,5.045-7.413,9.901-6.627c2.311,0.444,1.98-0.888,0.99-2.665c-0.99-1.776,2.641-2.665,6.931-0.889
		c4.291,1.777,7.262,6.219,8.582,10.217s11.552,0.889,15.842,1.332c4.291,0.445,4.621-6.662,1.98-8.883
		c-2.641-2.222-9.902-10.217-12.872-12.882c-2.971-2.665-0.99-11.993,1.65-14.214c15.37-10.102,6.931-13.326,1.319-12.437
		c-5.61,0.888-20.028,6.498-24.649,11.384c-4.621,4.886-40.521,28.834-43.821,31.499c-3.301,2.665-8.101,3.312-10.081,0.202
		s-3.301-0.888-2.971,3.555c2.622,16.776-12.873,22.123-15.59,21.911c-1.891-0.189-4.6-1.212-6.552-2.792
		c-1.926,9.375-10.444,10.308-18.139,9.381c-0.118-1.105,1.436-3.173,0.587-2.381c-2.544,3.221-10.361,2.882-17.072,2.393
		c-0.447-1.96,2.314-4.335,0.994-3.003c-2.253,4.122-6.126,3.384-12.404,2.946c-0.074-0.869,2.909-3.775,1.519-2.036
		c-2.748,2.921-8.471,2.007-12.912,2.079c-0.526-0.654,2.296-5.246-0.286-2.212c-2.468,2.589-7.694,3.021-12.69,2.327
		c-0.889-2.184,1.04-2.205,1.57-3.576c1.32-2.221-0.66,0-2.31,0c-1.65,0-3.961,0.444-4.951-1.777
		c-0.99-2.221-0.422,2.222-1.381,3.432c-0.958,1.049-2.04,3.513-5.34,4.401c-3.301,0.888-11.882,1.776-13.202-2.222
		c-1.778-1.84-2.641-5.773-1.32-7.995c1.32-2.221-6.285,4.285-9.571,4.886c-9.666,1.815-10.892-12.881-6.601-14.213
		c4.291-1.333,3.63-3.555,1.32-5.33c-2.311-1.777-3.631-8.885-0.66-11.105c2.97-2.221,9.845-3.452,14.192-0.889
		c2.543,1.699,7.988,7.523,6.931,3.109c-0.736-2.729,1.146-6.199,3.253-7.69c1.829-1.638,7.458-2.055,8.958,1.472
		c3.478,8.175,5.941,11.694,10.232,11.549c9.14-2.429,21.493-5.18,25.123-5.18c4.659-1.076,29.321-3.428,29.321-5.649
		c-14.791,4.978-20.77-1.465-22.42-1.021c-1.65,0.443-5.713-1.442-5.713-2.682c0-2.665,3.725-2.348-1.557-1.459
		c-3.161-0.252-5.977-0.395-8.639-3.603c-0.436-1.64,3.496-7.273,4.924-12.009c-3.408-0.896-10.945,5.068-13.414,10.328
		c-1.731-2.018-2.433-0.185-8.616,1.285c-2.917,1.236-7.663,0.792-10.303-0.541c-2.64-1.332-12.984-8.955-7.981-9.936
		c-1.316-0.626-2.83-0.985-3.827-1.252c-3.63-1.508-7.062-4.438-6.008-5.24c-0.919-1.336,1.051-1.33-0.402-1.598
		c-1.98-0.444-6.857-3.902-5.605-5.238c-1.25-0.803-4.218-2.041-5.476-2.664c-2.311-1.334-4.625-5.958-4.955-8.178
		c-2.129,0.2-6.672-3.717-4.621-4.886c-3.469-2.504-6.421-6.626-4.11-7.959c-2.024-1.551-3.438-4.384-2.029-3.323
		c-2.104-2.504-1.452-5.153,0.198-5.153s0.99-7.107-1.98-7.107c-2.97,0-7.748,2.242-11.222,0
		c-2.857-2.125-5.281-11.549-2.641-15.547c2.641-3.998,7.921-8.439,10.562-7.996c2.641,0.444,1.32,1.333,0.66-2.665
		c-0.66-3.998,3.727-7,6.601-7.996c3.484-1.549,10.232-0.444,12.212,1.333c1.98,1.777,2.64,1.777,2.64-1.333
		c0-2.185,2.55-3.323,4.819-3.896c3.779-0.867,6.733,0.177,8.053,1.675c2.051,2.858,3.301,6.219,0.66,8.884
		c-2.64,2.665-0.349,0.406,3.942-0.482c2.763-0.888,7.749,0.257,8.6,3.147c1.146,3.109,1.98,8.44-0.99,11.105
		c-2.97,2.665-7.261,9.328-4.951,11.549c2.311,2.221,9.572,11.993,11.222,13.326c1.65,1.332,3.63,4.441,6.271,3.997
		c2.64-0.444,5.611-0.888,7.921-1.333c9.169-1.792,13.303-2.725,1.534-2.359c2.642-3.63,8.175-4.7,10.576-5.34
		c-2.114-3.092,5.712-9.624,5.712-10.512L118.48,111.93z"/>
	<path fill="#002395" stroke="#650000" stroke-width="2.0846" d="M133.86,128.19c4.404,7.475,14.907,2.99,17.617,5.98
		c2.71,2.99-2.633,13.406-4.327,19.387c-3.913,5.149-12.631,4.814-15.838,0.991c1.726-7.143,1.87-22.371,2.208-22.869L133.86,128.19
		L133.86,128.19z"/>
	<path fill="none" stroke="#650000" stroke-width="1.9798" d="M449.59,209.359c-1.437-3.865-5.745-4.832-5.745-4.832"/>
	<g>
		<path fill="none" stroke="#650000" stroke-width="1.8085" stroke-opacity="0.3" d="M175.64,142.12
			c3.255,6.133,4.212,16.544,0.535,21.595"/>
		<path fill="none" stroke="#650000" stroke-width="1.8085" stroke-opacity="0.3" d="M163.92,156.141
			c3.255,1.752,7.812,12.264,7.161,15.77c-0.651,3.504-0.651,3.504-0.651,3.504"/>
		<path fill="none" stroke="#650000" stroke-width="1.8085" stroke-opacity="0.3" d="M162.62,160.52
			c1.953,5.257,4.557,13.142,3.906,15.771c-0.651,2.628-0.651,2.628-0.651,2.628"/>
		<path fill="none" stroke="#650000" stroke-width="1.8085" stroke-opacity="0.3" d="M150.9,165.77
			c1.302,5.257,0.651,14.018-1.302,15.771c-1.953,1.752-1.953,1.752-1.953,1.752"/>
		<path fill="none" stroke="#650000" stroke-width="1.8085" stroke-opacity="0.3" d="M147.64,166.65
			c-1.953,6.133-3.906,14.894-3.906,14.894"/>
		<path fill="none" stroke="#650000" stroke-width="1.8085" stroke-opacity="0.2994" d="M116.4,150.01
			c-3.255,2.629-7.812,8.762-7.812,8.762"/>
		<path fill="none" stroke="#650000" stroke-width="1.8085" stroke-opacity="0.2994" d="M120.3,158.77
			c-5.208-3.504-11.067,2.629-11.067,2.629"/>
	</g>
	<g>
		<path fill="none" stroke="#660000" stroke-width="2.3711" d="M191.97,110.45c-3.433,1.517-2.926,9.43-2.926,9.43"/>
		<path fill="none" stroke="#660000" stroke-width="2.0797" d="M118.96,99.435c3.665,2.517,2.199,10.065,2.199,10.065"/>
	</g>
	<path fill="#390000" fill-opacity="0.5987" d="M114.42,168.529c-1.4,4.097-3.708,7.267-3.342,9.812l-2.159-0.955
		c1.693,0.586-1.926-6.624-2.801-5.266l2.026-1.437l0.469-0.79l1.009-0.491L114.42,168.529L114.42,168.529z"/>
	<g>
		<path fill="none" stroke="#650000" stroke-width="1.9798" d="M34.185,93.047c7.129,0.686,10.693,6.168,12.221,10.965
			c1.527,4.797,2.546,7.538,2.546,7.538"/>
		<path fill="none" stroke="#650000" stroke-width="1.9798" d="M67.286,90c-4.074,4.797-3.564,13.706-3.564,13.706"/>
		<path fill="none" stroke="#650000" stroke-width="1.9798" d="M186.24,192.439c2.513-8.678,7.226-10.633,13.122-13.471
			c6.104-2.416,15.396-9.725,9.65-4.409c-5.745,5.315-14.034,8.698-16.906,10.632c-2.873,1.934-4.668,6.242-3.202,8.215"/>
		<path fill="none" stroke="#650000" stroke-width="1.9798" stroke-linecap="round" d="M174.18,159.58
			c5.386,8.698,2.058,20.805-4.764,24.188"/>
		<path fill="none" stroke="#650000" stroke-width="1.9798" d="M192.14,129.62c8.743,3.53,9.054,11.838,10.313,16.748
			c-3.082-1.386-5.321-0.72-7.634-1.743"/>
		<path fill="none" stroke="#650000" stroke-width="1.9798" d="M185.39,158.221c0,7.731-5.493,10.904-8.006,11.87"/>
		<path fill="none" stroke="#650000" stroke-width="1.9798" d="M54.87,84.545c0.718,4.349-0.359,5.316-1.437,9.182
			c-1.077,3.866,0.359,10.632,0.359,10.632"/>
		<path fill="none" stroke="#650000" stroke-width="1.9798" d="M421.38,167.46c-3.591-0.483-8.977,1.45-8.977,1.45"/>
		<path fill="none" stroke="#650000" stroke-width="1.9798" d="M438.07,174.12c-5.027,1.933-10.772,2.416-10.772,2.416"/>
		<path fill="none" stroke="#650000" stroke-width="1.9798" d="M444.53,185.27c-4.31-0.482-7.541-0.482-7.541-0.482"/>
		<path fill="none" stroke="#650000" stroke-width="1.9798" d="M452.91,195.76c-4.309-0.482-11.131,0-11.131,0"/>
		<path fill="none" stroke="#650000" stroke-width="1.9798" d="M407.27,218.35c1.078-5.799,8.213-10.445,12.163-10.445h3.95"/>
		<path fill="none" stroke="#650000" stroke-width="1.9798" d="M401.34,205.529c4.309-1.449,11.131-1.932,11.131-1.932"/>
		<path fill="none" stroke="#650000" stroke-width="1.9798" d="M110.51,128.12c-11.991,6.137-14.039,11.562-12.169,24.489"/>
		<path fill="none" stroke="#650000" stroke-width="1.9664" d="M160.67,155.02c0.698,6.901,1.111,26.18-6.223,31.108
			s-16.518,5.511-23.686,3.146"/>
		<path fill="none" stroke="#650000" stroke-width="1.9798" d="M144.44,165.71c-0.72,6.784-7.718,23.679-21.353,21.358"/>
		<path fill="none" stroke="#650000" stroke-width="1.9798" d="M358.68,119.1c1.796-5.316,10.055-10.148,10.055-10.148"/>
		<path fill="none" stroke="#650000" stroke-width="1.9798" d="M346.67,118.82c3.591-6.282,10.055-10.148,10.055-10.148"/>
		<path fill="none" stroke="#650000" stroke-width="1.9798" d="M329.15,119.4c5.455-3.196,6.988-4.458,8.779-6.105
			c1.934-1.839,5.745-5.315,5.745-5.315"/>
		<path fill="none" stroke="#650000" stroke-width="1.8846" d="M313.93,119.21c3.996-2.03,7.089-3.222,9.765-5.148
			c3.358-2.291,5.68-5.39,5.68-5.39"/>
		<path fill="none" stroke="#650000" stroke-width="1.9798" d="M317.2,102.43c-12.69-4.201-18.37-12.544-18.37-12.544"/>
		<path fill="none" stroke="#650000" stroke-width="1.9798" d="M338.33,84.645c-8.406,3.409-25.494,1.933-26.213,1.933"/>
		<path fill="none" stroke="#650000" stroke-width="1.9798" d="M122.01,182.721c4.309-3.383,7.7-10.352,7.7-10.352"/>
		<path fill="none" stroke="#650000" stroke-width="2.1425" d="M118.5,147.98c-6.326-0.969-22.329,12.511-17.167,29.273"/>
		<path fill="none" stroke="#650000" stroke-width="2.4657" d="M107.51,139.65c-8.147,2.126-11.466,16.622-7.125,24.417"/>
		<path fill="none" stroke="#650000" stroke-width="1.8085" d="M188.69,134.4c5.939,7.9,8.201,12.73,8.544,15.483
			c0.56,4.778,0.588,16.562-13.449,16.371c1.308-3.512,2.961-12.779,0.715-16.501"/>
		<path fill="none" stroke="#650000" stroke-width="3.8447" stroke-linecap="round" d="M167.88,104.35
			c-0.651,3.963-0.651,3.963-0.651,3.963"/>
		<path fill="none" stroke="#650000" stroke-width="3.1188" stroke-linecap="round" d="M141.1,97.197
			c-0.765,2.981-2.121,6.043-2.121,6.043"/>
		<path fill="none" stroke="#650000" stroke-width="1.9798" d="M151.3,90.306c1.019,8.909-3.055,13.706-5.601,13.706
			c-2.546,0-5.389,3.325-3.826,8.671"/>
		<path fill="none" stroke="#650000" stroke-width="1.9798" d="M161.94,88.935c-4.583,6.167-5.601,13.021-4.073,18.503
			c1.527,5.482,0.079,7.076,0.079,7.076"/>
		<path fill="none" stroke="#650000" stroke-width="1.9798" d="M182.36,119.09h-5.601c0,0-3.564,7.539-9.675,5.482
			c-6.11-2.056-0.509,0-0.509,0"/>
		<path fill="none" stroke="#650000" stroke-width="1.9798" d="M152.32,112.8c8.719,0.22,6.965,6.971,0.509,6.286
			c0.509,8.224-9.636,7.187-8.768,0.887c-6.101,0.18-8.604-8.14,0.258-6.989"/>
		<path fill="none" stroke="#650000" stroke-width="1.9798" d="M164.13,123.82c0.359,9.182-16.877,15.947-16.518,1.933"/>
		<path fill="none" stroke="#650000" stroke-width="1.9954" d="M147.56,126.24c-0.365,6.766-9.849,8.215-13.132,2.416
			c-2.554-3.866-4.013-5.799-5.836-6.282s-1.619-6.11-1.988-6.938c-0.221-1.125-1.402-4.032-1.992-5.125"/>
		<path fill="none" stroke="#650000" stroke-width="1.9798" d="M174.54,98.209c-4.309,4.349-4.668,4.833-4.668,4.833"/>
		<path fill="none" stroke="#650000" stroke-width="1.9798" d="M178.85,106.42c-5.746,0.483-6.055,0.233-6.055,0.233"/>
		<path fill="none" stroke="#650000" stroke-width="2.2432" d="M158.4,103.16c4.248-1.515,14.134-0.241,13.991,3.281
			c0.006,4.325-3.865,4.589-14.078,0.497l0.087-3.175L158.4,103.16L158.4,103.16z"/>
		<path fill="none" stroke="#650000" stroke-width="1.8222" d="M145,103.61c0.529-5.137-9.791-10.204-12.304-7.338
			c-3.061,4.736,5.624,8.959,7.927,8.959c2.154,0,0.878,0.268,0.878,0.268"/>
		<path fill="none" stroke="#650000" stroke-width="1.9798" d="M173.03,122.85c-3.906,10.513-0.651,20.15-0.651,20.15"/>
		<path fill="none" stroke="#650000" stroke-width="1.9798" d="M126.81,125.47c-3.255,2.628-5.859,1.752-5.859,1.752"/>
		<path fill="none" stroke="#650000" stroke-width="2.0843" d="M133.15,125.94c-0.404,9.602-5.755,14.721-5.755,14.721"/>
		<path fill="none" stroke="#650000" stroke-width="2.301" d="M127.75,121.48c-2.755,10.464,0.773,18.872,0.773,18.872"/>
		<path fill="none" stroke="#650000" stroke-width="2.0754" d="M155.01,133.73c-0.653,9.5,4.086,15.409,4.086,15.409"/>
		<path fill="none" stroke="#650000" stroke-width="2.2912" d="M160.85,130.23c1.581,10.734-2.838,18.413-2.838,18.413"/>
		<path fill="none" stroke="#650000" stroke-width="1.9798" d="M193.48,124.18c1.067,0.516,3.798,0.043,8.822,2.089
			c-2.079,2.978-7.438,4.709-9.526,3.838"/>
		<path fill="none" stroke="#650000" stroke-width="1.9798" d="M40.26,132.07c3.056,1.371,8.657,0,8.657,0"/>
		<path fill="none" stroke="#650000" stroke-width="1.8012" d="M43.235,139.46c6.744,2.056,13.488-1.371,13.488-1.371"/>
		<path fill="none" stroke="#650000" stroke-width="1.9798" d="M74.922,169.109c7.129-2.055,11.712-6.167,11.712-6.167"/>
		<path fill="none" stroke="#650000" stroke-width="1.9798" d="M52.975,205.84c3.591-0.967,11.131,0,11.131,0"/>
		<path fill="none" stroke="#650000" stroke-width="1.9798" d="M66.36,217.26c2.155-3.866,7.182-7.248,7.182-7.248"/>
		<path fill="none" stroke="#650000" stroke-width="1.9798" d="M106.68,222.41c1.795-2.416,1.795-10.148,1.795-10.148"/>
		<path fill="none" stroke="#650000" stroke-width="1.9798" d="M119.78,222.35c2.858-3.17,3.015-9.975,3.015-9.975"/>
		<path fill="none" stroke="#650000" stroke-width="1.9798" d="M130.19,222.17c2.873-5.316,2.403-11.459,2.403-11.459"/>
		<path fill="none" stroke="#650000" stroke-width="1.9798" d="M146.5,222.76c1.795-2.899,1.795-9.665,1.795-9.665"/>
		<path fill="none" stroke="#650000" stroke-width="1.9798" d="M262.87,207.42c-6.464-1.449-10.413,7.249-10.413,7.249"/>
		<path fill="none" stroke="#650000" stroke-width="1.9798" d="M271.359,206.02c-0.718,6.283-5.744,12.082-5.744,12.082"/>
		<path fill="none" stroke="#650000" stroke-width="1.9798" d="M281.55,205.49c-0.358,5.316-6.104,12.564-6.104,12.564"/>
		<path fill="none" stroke="#650000" stroke-width="1.9798" d="M294.221,203.37c-0.946,7.07-6.115,12.37-6.115,12.37"/>
		<path fill="none" stroke="#650000" stroke-width="1.9798" d="M303.55,200.88c0.359,6.282-2.872,15.947-5.026,17.88"/>
		<path fill="none" stroke="#650000" stroke-width="1.9798" d="M314.68,203.561c1.078,3.383,0,8.215,0,8.215"/>
		<path fill="none" stroke="#650000" stroke-width="1.9798" d="M244.46,190.38c4.309,0.967,6.823,5.8,6.823,5.8"/>
		<path fill="none" stroke="#650000" stroke-width="1.9798" d="M237.11,202.51c2.265-7.607,12.022-3.891,13.202-1.85"/>
		<path fill="none" stroke="#650000" stroke-width="1.9798" stroke-linecap="round" d="M205.95,188.09
			c-6.178,2.049-9.075,2.191-11.094,0.379"/>
		<path fill="none" stroke="#650000" stroke-width="1.9129" stroke-linecap="round" d="M212.83,183.04
			c-5.42,2.05-8.507,2.752-11.198,1.08"/>
		<path fill="none" stroke="#650000" stroke-width="1.5599" stroke-linecap="round" d="M222,176.859
			c-3.604,2.05-5.657,2.753-7.446,1.08"/>
		<path fill="none" stroke="#650000" stroke-width="1.7257" stroke-linecap="round" d="M228.36,172.1
			c-4.411,2.05-6.923,2.752-9.114,1.08"/>
		<path fill="none" stroke="#650000" stroke-width="1.9798" d="M54.341,84.545c0.718,4.349-0.359,5.316-1.436,9.182
			c-1.077,3.866,0.359,10.632,0.359,10.632"/>
		<path fill="none" stroke="#650000" stroke-width="1.9798" d="M67.99,90c-4.074,4.797-3.564,13.706-3.564,13.706"/>
		<path fill="none" stroke="#650000" stroke-width="2.0032" d="M34.713,92.099c7.299,0.685,10.948,6.167,12.512,10.965
			c1.564,4.797,2.606,7.538,2.606,7.538"/>
	</g>
</g>
</svg>
