<?xml version="1.0" encoding="UTF-8"?>
<svg xmlns="http://www.w3.org/2000/svg" width="500" height="300">
<rect height="300" width="500" fill="#ffd203"/>
<g stroke="#08672f">
<g fill="none" stroke-width="8.71">
<circle cx="154" cy="37" r="14.4"/>
<circle cx="250" cy="37" r="14.4"/>
<circle cx="346" cy="37" r="14.4"/>
</g>
<path d="m150.74,56.012c0,3.1084 0.15219,147.52 0.15219,150.74c0.45923,21.202 42.216,20.936 42.102,-0.26721c0.80363,-3.2209 0.23067,-34.001 0.23067,-36.767h32.34c0,3.6886 -1.0321,87.796 -1.0321,90.902c2.1044,24.217 43.324,24.033 45.85,0.6907c0,-4.026 -0.11442,-88.597 -0.11442,-91.363h32.034s-0.45896,33.085 -0.45896,36.653c0.45896,23.395 43.327,22.268 42.754,-0.0896c-0.11428,-3.9137 1.2242,-147.63 1.2242,-150.86" fill="#ed2939" stroke-width="14.276"/>
</g>
</svg>