<?xml version="1.0" encoding="UTF-8"?>
<svg version="1.0" xmlns="http://www.w3.org/2000/svg" xmlns:xlink="http://www.w3.org/1999/xlink" width="600" height="360">
	<g id="q1">
		<rect width="300" height="180" fill="#009"/>
		<g id="fleur" fill="#ffd700" stroke="#000" stroke-width=".19216">
			<path d="M 23.69966,6.69364 C 27.0769,10.00665 29.06266,11.8337 29.40965,16.97424 C 29.73075,21.73143 26.24258,25.70858 25.49075,30.30987 C 25.34814,31.18261 25.22577,32.96404 25.35462,33.68652 C 25.45005,34.22158 25.74345,35.85619 26.06389,33.83364 C 26.1298,33.41766 26.17706,31.33059 26.37913,30.27086 C 26.74732,28.33989 27.92641,24.94453 29.97205,23.06338 C 32.01681,21.18303 35.25699,19.96336 38.14657,20.94697 C 40.76467,22.0433 41.01216,25.13944 40.26722,27.40347 C 39.33427,30.23893 35.76902,32.20146 32.57271,32.39376 C 33.20605,31.25708 34.72196,28.01266 33.07779,28.14145 C 31.17463,28.29052 28.89812,31.22925 28.30542,33.24515 C 28.08222,34.00432 28.17243,35.18304 26.97735,35.13436 C 27.76539,37.55083 29.98984,39.14983 31.93866,40.83662 C 29.90713,40.98988 27.89733,40.12221 26.12479,39.29565 C 26.19974,40.95238 25.84534,44.45225 23.69966,46.36333 C 21.708,44.39545 21.52677,41.99538 21.48946,39.29565 C 19.71692,40.12221 17.70711,40.98988 15.67559,40.83662 C 17.6244,39.14983 19.84885,37.55083 20.6369,35.13436 C 19.44182,35.18304 19.36992,34.07788 19.14671,33.31871 C 18.55402,31.30281 16.43962,28.29052 14.53646,28.14145 C 12.89229,28.01266 14.4082,31.25708 15.04154,32.39376 C 11.84523,32.20146 8.27998,30.23893 7.34703,27.40347 C 6.60209,25.13944 6.84958,22.0433 9.46768,20.94697 C 12.35726,19.96336 15.59744,21.18303 17.6422,23.06338 C 19.68783,24.94453 20.86692,28.33989 21.23512,30.27086 C 21.43719,31.33059 21.40339,33.27054 21.4693,33.68652 C 21.78974,35.70907 22.16419,34.22158 22.25962,33.68652 C 22.38848,32.96404 22.2661,31.18261 22.1235,30.30987 C 21.37167,25.70859 18.2136,21.56964 18.2046,16.97424 C 18.19662,12.82479 20.49533,9.66756 23.69966,6.69364 z"/>
			<rect x="16.01231" y="33.3147" width="15.58963" height="2.28871" rx=".8" stroke-linejoin="round"/>
		</g>
		<g id="row">
			<use xlink:href="#fleur" x="50.5"/>
			<use xlink:href="#fleur" x="101"/>
			<use xlink:href="#fleur" x="151.5"/>
			<use xlink:href="#fleur" x="202"/>
			<use xlink:href="#fleur" x="252.5"/>
		</g>
		<use xlink:href="#row" x="-25.25" y="32"/>
		<use xlink:href="#fleur" y="64"/>
		<use xlink:href="#row" y="64"/>
		<use xlink:href="#row" x="-25.25" y="96"/>
		<use xlink:href="#fleur" y="128"/>
		<use xlink:href="#row" y="128"/>
		<path d="M 10,10 H 290 V 170 H 10 z" fill="none" stroke="#fff" stroke-width="20"/>
		<path d="M 0,0 h 50 v 20 h -30 z M 100,0 h 50 v 20 h -50 z M 200,0 h 50 v 20 h -50 z M 300,0 v 45 h -20 v -25 z M 300,90 v 45 h -20 v -45 z M 300,180 h -50 v -20 h 30 z M 200,180 h -50 v -20 h 50 z M 100,180 h -50 v -20 h 50 z M 0,180 v -50 h 20 v 30 z M 0,90 v -45 h 20 v 45 z" fill="#f00"/>
	</g>
	<g id="q2">
		<rect x="300" width="300" height="180" fill="#f00"/>
		<rect x="330" y="30" width="240" height="120" fill="#009"/>
		<path d="M 570,70 V 30 H 490 z M 410,30 H 330 L 570,150 V 110 z M 330,70 V 110 L 410,150 H 490 z" fill="#ffd700"/>
	</g>
	<use xlink:href="#q2" x="-300" y="180"/>
	<use xlink:href="#q1" x="300" y="180"/>
</svg>