<?xml version="1.0" encoding="utf-8"?>
<!-- Generator: Adobe Illustrator 16.0.0, SVG Export Plug-In . SVG Version: 6.00 Build 0)  -->
<!DOCTYPE svg PUBLIC "-//W3C//DTD SVG 1.1//EN" "http://www.w3.org/Graphics/SVG/1.1/DTD/svg11.dtd">
<svg version="1.1"
	 id="Calque_1" xmlns:dc="http://purl.org/dc/elements/1.1/" xmlns:cc="http://creativecommons.org/ns#" xmlns:rdf="http://www.w3.org/1999/02/22-rdf-syntax-ns#"
	 xmlns="http://www.w3.org/2000/svg" xmlns:xlink="http://www.w3.org/1999/xlink" x="0px" y="0px" width="900px" height="600px"
	 viewBox="0 0 900 600" enable-background="new 0 0 900 600" xml:space="preserve">
<rect fill="#0066CC" width="900" height="600"/>
<path fill="#FFD203" d="M35,0v30h30V0H35z M235,0v30h30V0H235z M435,0v30h30V0H435z M635,0v30h30V0H635z M835,0v30h30V0H835z
	 M135,70v60h30V70H135z M335,70v60h30V70H335z M535,70v60h30V70H535z M735,70v60h30V70H735z M35,170v60h30v-60H35z M235,170v60h30
	v-60H235z M435,170v60h30v-60H435z M635,170v60h30v-60H635z M835,170v60h30v-60H835z M135,270v60h30v-60H135z M335,270v60h30v-60
	H335z M535,270v60h30v-60H535z M735,270v60h30v-60H735z M35,370v60h30v-60H35z M235,370v60h30v-60H235z M435,370v60h30v-60H435z
	 M635,370v60h30v-60H635z M835,370v60h30v-60H835z M135,470v60h30v-60H135z M335,470v60h30v-60H335z M535,470v60h30v-60H535z
	 M735,470v60h30v-60H735z M35,570v30h30v-30H35z M235,570v30h30v-30H235z M435,570v30h30v-30H435z M635,570v30h30v-30H635z M835,570
	v30h30v-30H835z"/>
<path fill="#ED2939" stroke="#000000" stroke-width="3" d="M325.7,86.425c4.399-10.067,1.236-13.173-4.809-16.178
	c5.334-2.999,14.543-1.835,18.341,5.18c4.991,9.219,0.869,17.102-2.543,20.356L325.7,86.425L325.7,86.425z"/>
<path fill="#ED2939" stroke="#000000" stroke-width="3" d="M295.23,86.364c-1.824-9.936,0.156-14.509-16.241-13.987
	c1.891-2.855,9.6-11.443,21.804-6.654c7.207,2.828,8.442,11.27,9.108,16.457L295.23,86.364L295.23,86.364z"/>
<path fill="#ED2939" stroke="#000000" stroke-width="3" d="M277.17,107.82c-6.239-7.692-5.056-17.972-20.412-9.011
	c5.22-15.898,14.471-16.323,19.977-13.775c6.941,3.213,11.904,7.687,11.904,7.687L277.17,107.82L277.17,107.82z"/>
<path fill="#ED2939" stroke="#000000" stroke-width="3" d="M305.52,154.73c-14.725,9.105-29.601,7.547-33.871-12.373
	c9.675,6.139,17.626,6.46,24.662-2.382L305.52,154.73L305.52,154.73z"/>
<path fill="#FFD203" stroke="#000000" stroke-width="3" d="M318.46,165.09c-0.034,5.445-0.096,11.238-1.877,16.073
	c3.354-2.459,6.555-5.696,7.381-9.518c3.531,8.544-3.638,18.948-4.289,27.686c2.695-2.72,8.869-6.449,10.636-10.297
	c3.32,10.435-7.353,11.363-4.401,31.538c2.762-6.804,8.262-12.028,10.874-16.603c3.317,12.329-5.977,11.963-2.193,33.427
	c1.955-5.52,7.664-14.13,10.633-15.951c1.621,2.47,3.764,11.881,6.219,14.76c3.145-15.8,12.37-0.123,17.037,2.063
	c21.292-3.818,35.225-17.707,36.841-48.449c0,0-2.104-3.687-7.016-8.078c-5.334-4.767-12.266-9.27-20.082-15.357
	c-8.822-6.871-16.072-12.402-22.717-19.817s-9.582-13.784-13.904-18.958c-6.085-7.285-9.849-15.093-9.669-18.539
	c0.219-4.216,4.391-4.96,6.525-11.487c2.539-7.767-4.817-17.041-12.511-16.573c-4.386,0.267-5.605,8.27-8.091,9.67
	c-0.586,0.33-1.257,0.4-2.08,0.073c-4.312-1.712,0.545-14.258-6.57-15.44c-7.116-1.181-13.03,0.462-17.561,7.126
	c-3.643,5.357,6.784,10.221,6.879,13.578c0.021,0.752-1.643,1.684-2.398,1.595c-0.499-0.059-7.43-9.098-13.652-7.652
	c-4.849,1.127-10.465,6.161-9.574,13.957c0.771,6.741,9.477,8.034,13.637,8.877c4.932,1,14.737,16.268,13.238,22.591
	c-0.76,5.14-8.244,2.387-10.414,8.158c-2.783,7.401,2.359,16.469,9.137,16.085c5.071-0.288,11.051-6.295,13.345-6.295
	C317.355,153.821,318.498,159.043,318.46,165.09L318.46,165.09z"/>
<path fill="#ED2939" stroke="#000000" stroke-width="3" d="M294.53,297.23c-3.964-3.951-8.562-5.063-15.154-2.252
	c1.309-3.847,7.52-10.589,14.166-9.929c5.314,0.528,10.684,4.979,10.684,4.979L294.53,297.23L294.53,297.23z"/>
<path fill="#ED2939" stroke="#000000" stroke-width="3" d="M277.87,327.68c-12.34-2.271-17.3-0.116-23.751,6.931
	c-0.707-2.019,0.912-12.22,7.525-16.854c6.75-4.729,16.17-3.658,16.17-3.658L277.87,327.68L277.87,327.68z"/>
<path fill="#ED2939" stroke="#000000" stroke-width="3" d="M285.93,350.19c-12.46,2.831-13.633,11.989-14.662,18.399
	c-2.714-1.347-8.72-8.374-6.163-17.562c2.397-8.615,13.103-12.342,13.103-12.342L285.93,350.19L285.93,350.19z"/>
<path fill="#ED2939" stroke="#000000" stroke-width="3" d="M307.53,359c-3.806,8.307-5.233,14.266-0.049,22.625
	c-2.885-0.126-13.137-1.793-15.958-9.858c-2.315-6.62,1.04-12.293,2.866-16.059L307.53,359L307.53,359z"/>
<path fill="#ED2939" stroke="#000000" stroke-width="3" d="M362.8,513.2c4.48,10.073,0.796,13.511-6.304,16.952
	c3.054,1.305,12.255,1.793,16.917-3.404c5.123-5.711,4.138-15.996,3.481-15.996L362.8,513.2L362.8,513.2z"/>
<path fill="#ED2939" stroke="#000000" stroke-width="3" d="M340.31,518c-6.715,1.451-13.386,6.029-12.411,16.494
	c-2.929-1.264-9.037-7.4-6.378-15.358c2.466-7.381,11.149-11.41,11.149-11.41L340.31,518L340.31,518z"/>
<path fill="#ED2939" stroke="#000000" stroke-width="3" d="M327.4,499.25c-7.278-2.629-12.408-6.228-21.342,3.161
	c-0.5-2.477-2.528-9.692,6.089-16.07c6.281-4.649,14.093-3.154,16.775-2.462L327.4,499.25L327.4,499.25z"/>
<path fill="#ED2939" stroke="#000000" stroke-width="3" d="M333.21,477.58c-5.077-6.786-6.762-11.085-18.072-7.246
	c0.34-1.426,5.307-11.494,15.174-11.033c7.058,0.33,11.162,4.682,11.429,6.621C339.672,468.392,336.62,472.658,333.21,477.58
	L333.21,477.58z"/>
<path fill="#FFD203" stroke="#000000" stroke-width="3" d="M424.24,340.65c-6.544,3.265-18.829,10.599-27.584,14.209
	c-18.991,7.83-32.807,23.109-31.441,38.688c0.586,6.686,0.716,11.373-1.481,15.007c-5.388,8.912-18.378,10.399-19.526,10.428
	c8.827,5.447,15.46,5.754,23.859,0.079c10.062-6.797,15.558,15.026,22.917,23.449c2.485,2.844-4.78,8.569-13.846,14.172
	c-2.95,1.823-7.993,8.251-10.743,10.331c-2.848,2.154-7.577,3.765-9.658,3.365c-2.152-0.413-10.825-5.396-16.328-5.021
	c-5.122,0.35-10.776,3.694-10.84,8.095c-0.101,7.021,8.688,6.185,10.354,7.965c1.61,1.722,0.257,4.189-1.503,3.915
	c-2.088-0.326-9.661-4.594-12.958-1.927c-2.484,2.01-4.066,5.441-2.937,12.674c0.957,6.131,10.783,4.067,14.395,2.886
	c2.94-0.962,3.331,2.131,1.74,3.405c-1.711,1.372-11.71,3.651-11.133,7.835c0.577,4.183,5.584,8.852,11.5,9.793
	c4.651,0.739,15.775-9.73,17.391-10.896c1.924-1.388,3.776-2.844,4.615-2.48c5.698,2.464-3.236,7.87,0.979,10.603
	c4.479,2.903,9.439,1.293,14.116,0.205c9.609-2.236,0.257-18.274,2.263-19.225c3.441-2.864,10.348-3.375,13.359-5.774
	c5.05-4.024,14.841,0.718,21.234-1.304c-2.612-2.982-6.759-7.425-3.034-8.292c2.433-0.566,11.907,4.801,19.156,3.101
	c-5.8-3.492-9.64-9.169-7.376-11.475c1.312-1.337,6.416,2.079,9.315,2.499c5.153,0.746,10.209-0.145,17.145-3.672
	c-3.91-1.148-9.274-4.371-9.088-6.715c0.285-3.596,5.869-2.285,7.236-10.443c0.862-5.143-3.705-9.027-5.737-11.172
	c-9.32-9.835-17.7-38.055,8.71-56.437c14.363-9.997,37.493-7.413,38.82-10.836c10.576-27.286-13.181-53.062-24.037-59.693
	C457.475,313.948,445.079,330.252,424.24,340.65L424.24,340.65z"/>
<path fill="#FCEF3C" stroke="#000000" stroke-width="3" stroke-linecap="round" d="M419.81,435.71
	c4.334,3.426,5.18,8.686,3.156,13.761"/>
<path fill="#ED2939" stroke="#000000" stroke-width="3" d="M562.58,541.1c-2.393,5.772-1.637,12.24,5.077,17.254
	c-2.851,1.432-11.145,1.951-15.865-4.985c-4.389-6.449-1.979-10.672-1.039-13.077L562.58,541.1L562.58,541.1z"/>
<path fill="#ED2939" stroke="#000000" stroke-width="3" d="M540.93,539.26c-8.741,4.36-10.974,11.803-9.299,19.638
	c-2.005-0.504-9.873-3.415-9.938-14.136c-0.064-10.731,8.146-13.886,8.146-13.886L540.93,539.26L540.93,539.26z"/>
<path fill="#ED2939" stroke="#000000" stroke-width="3" d="M529.69,523.7c-8.138-5.447-13.14-4.256-18.423,6.456
	c-0.767-1.249-4.375-11.88,2.929-18.531c5.225-4.757,11.724-3.383,13.284-2.201L529.69,523.7L529.69,523.7z"/>
<path fill="#ED2939" stroke="#000000" stroke-width="3" d="M538.62,501.72c-7.271-7.145-11.706-6.718-18.236-2.29
	c0.397-3.297,4.574-11.51,11.406-12.948c7.507-1.581,14.54,3.73,15.593,4.983C544.086,495.247,540.814,499.003,538.62,501.72
	L538.62,501.72z"/>
<path fill="#FFD203" stroke="#000000" stroke-width="3" d="M577.11,522.72c0.646-1.336,2.184-3.428,2.592-3.883
	c2.2-2.449,3.588-3.818,4.812-5.878c2.062-3.469,2.513-6.778,5.972-8.086c5.444-2.058,14.976-5.926,17.381-10.008
	c-5.349,0.233-13.895,0.336-13.989-2.091c-0.077-1.987,1.26-3.561,2.541-4.532c2.184-1.655,17.222-3.812,23.22-9.171
	c-5.126-0.024-14.864-1.474-16.209-3.271c-0.402-0.536,1.088-4.419,3.116-4.51c5.737-0.258,17.76-0.608,24.111-11.008
	c-11.608,2.238-17.378-1.492-16.925-4.854c1.341-9.938,8.834-11.296-0.661-19.63c-2.668-2.342-13.799-4.213-13.044-10.196
	c0.399-3.173,9.413-9.063,13.812-11.639c-2.864-0.242-8.403,0.037-12.53,1.36c-3.482,1.117-7.678,4.253-13.185,3.628
	c-3.407-0.387-7.777-4.34-12.025-8.566c-4.657-4.635-8.513-11.124-14.23-22.124c-1.15-2.211-7.294-20.981-5.39-20.684
	c19.334,5.411,43.521,11.611,60.606-13.835c6.939-10.336,7.379-25.813,5.521-37.327c-1.326-8.222-2.397-21.253-1.92-27.016
	c0.736-8.881,3.697-7.04,2.428-17.844c-3.522,5.239-6.517,6.593-11.055,12.468c-0.718-12.965,14.08-22.814,11.132-32.261
	c-6.665,11.208-13.042,13.183-19.05,22.452c-0.381-8.078,3.013-15.837,9.42-21.917c6.729-6.385,10.673-13.191,8.793-21.881
	c-7.639,16.363-17.019,13.964-27.92,32.419c-1.568-10.408,6.378-19.605,13.623-26.663c9.772-9.519,15.525-17.988,13.11-26.937
	c-3.149,5.889-9.443,12.94-17.012,19.095c-8.202,6.671-13.366,13.515-18.679,23.93c-3.077-15.267,11.591-29.507,16.314-33.838
	c9.668-8.866,20.004-22.349,17.126-31.429c-3.366,5.822-12.687,16.844-21.091,23.085c-8.277,6.147-17.062,18.683-21.742,27.477
	c-2.874-11.402,10.978-30.502,19.744-38.35c10.393-9.305,27.271-24.882,24.604-36.945c-2.157,6.167-21.207,23.24-29.003,29.102
	c-7.725,5.808-16.902,17.91-21.38,28.768c-2.944-9.918,6.544-27.554,15.587-37.891c9.367-10.707,20.641-20.17,27.044-25.876
	c12.754-11.366,31.948-29.104,33.295-55.827c0.801-15.883-8.11-32.532-24.732-39.009c-9.748-3.798-23.905-4.05-33.59-1.624
	c-9.427,2.362-18.742,6.941-25.798,17.144c-5.646,8.167-7.296,17.66-6.52,25.004c1.296,12.263,6.634,17.629,6.854,29.01
	c0.105,5.747-0.472,12.516-3.744,20.624c-2.662,6.594-6.178,11.574-10.578,14.867c5.712-0.283,10.985-1.362,16.004-4.023
	c9.691-5.14,17.695-16.332,19.146-24.384c2.567-14.243-4.313-25.795-3.982-39.18c0.209-8.411,7.609-19.63,21.145-20.13
	c17.93-0.661,24.768,9.832,24.247,22.226c-0.522,12.435-9.568,25.356-21.406,35.934c-10.171,9.088-20.891,17.937-31.438,28.935
	c-8.225,8.578-24.396,26.731-24.364,50.264c0.022,17.439,5.447,31.405,13.7,43.904c8.254,12.499,18.647,24.94,24.878,29.511
	c22.013,20.051,24.747,60.742,0.367,62.446c-12.448,0.869-28.066-1.717-34.177-17.063c-4.276-10.736-8.095-21.599-16.205-32.748
	c-6.23-8.566-22.621-23.062-23.773-34.708c-1.503-15.094-2.192-31.229-1.454-39.118c2.022-21.616-5.178-41.733-25.76-48.161
	c-12.168-3.8-46.345-7.514-65.635,14.933c-9.856,11.469-12.785,26.99-21.229,42.187c-8.442,15.198-8.761,10.436-16.218,17.774
	c-7.458,7.337-14.232,13.056-16.384,14.528c-4.303,2.944-5.829,3.549-13.049,9.325s-13.662,11.166-14.855,12.569
	c-2.385,2.805-15.39,8.292-18.325,8.03c-1.811-0.161-7.174-8.905-11.048-9.526c-4.855-0.779-16.153,2.915-16.134,9.062
	c0.01,3.292,8.933,6.194,7.626,9.919c-0.889,2.535-7.794,5.195-10.903,4.562c-1.777-0.362-6.948-3.198-11.105-1.97
	c-7.767,2.296-9.869,13.648-5.125,17.933c2.412,2.178,11.513-0.796,12.91-0.029c1.583,0.869,2.601,1.559,1.808,3.345
	c-0.86,1.938-12.224,1.71-13.594,4.24c-4.663,8.614,2.578,20.551,11.357,16.469c2.949-1.371,5.745-3.618,7.705-5.119
	c1.739-1.331,3.428,0.243,3.631,1.21c0.463,2.201-7.595,7.578-6.416,10.905c2.268,6.399,16.022,7.74,19.222,2.27
	c2.483-4.245,7.5-14.29,8.457-15.661c0.478-0.685,3.781-1.547,8.996-3.394c5.215-1.848,6.595-0.683,10.886-2.97
	c5.854-3.121,10.166,6.306,18.029,6.792c-1.716-4.522-2.43-9.159,0.791-12.752c5.354,4.835,16.051,8.3,23.255,8.482
	c-1.777-2.327-3.295-4.84-3.515-7.583c4.94,4.373,11.4,5.142,13.81,4.537c-4.999-5.142-7.743-13.707-2.265-17.219
	c3.285-2.096,7.427-3.882,10.53-6.41c1.824,3.864,11.541,8.873,20.305,7.635c-4.715-3.365-8.815-5.997-9.971-12.299
	c2.038,1.326,10.697,10.995,23.847,9.21c-7.814-5.776-10.965-15.855-7.644-21.119c3.322-5.264,5.354-12.292,9.778-6.276
	c4.424,6.016,6.192,8.236,11.288,13.69c5.482,5.868,12.801,11.592,17.582,15.104c5.401,3.969,10.446,8.338,15.061,14.711
	c5.912,8.164,8.834,17.496,8.822,28.934c-0.006,5.869,0.563,11.2,1.574,17.092c0.636,3.699,1.749,10.476,1.18,14.34
	c-0.887,4.1,1.428,19.088,3.691,23.06c1.284,2.253,1.623,6.127,2.247,9.26c1.495,7.508,0.651,8.17-2.217,14.71
	c-1.457,3.323-2.693,13.505,1.075,23.534c3.291-17.476,8.61-14.15,12.41-26.912c1.934-6.491,2.542-12.011,1.546-17.793
	c7.336,5.924,16.406,9.824,22.365,14.923c2.257,1.932,12.496,11.078,15.047,12.98c5.223,4.854,4.511,4.001,12.534,9.956
	c0.592,1.1,2.215,8.663,2.257,10.622c0.013,0.567,0.438,5.088-1.039,10.326c-1.308,4.636-3.812,9.851-6.473,11.586
	c-2.737,1.786-3.686-5.002-6.872-4.373c-4.215,0.831-12.674,7.395-11.423,11.45c1.218,3.945,11.052,2.199,7.467,4.302l-4.585,2.688
	c-2.818,1.652-3.852-2.184-9.877-1.101c-7.403,1.332-9.167,10.558-4.982,15.424c2.753,3.203,8.414,0.995,8.414,0.995
	c6.311-1.623,8.545,0.602,0.591,2.88c0,0-7.673,2.357-6.555,8.46c0.763,4.163,6.658,8.434,9.794,7.822
	c4.162-0.812,8.776-3.576,10.079-5.99c2.442-4.528,4.622-1.898,2.914,1.7c-0.971,2.044-2.622,6.398,0.307,8.512
	c3.569,2.574,11.938,0.845,14.498-1.759c3.918-3.986,3.184-10.186,2.157-11.938c6.606-2.222,10.038-6.455,11.909-10.326V522.72z"/>
<path fill="#FCEF3C" stroke="#000000" stroke-width="3" stroke-linecap="round" d="M583.34,429.87
	c6.534,1.501,8.755,7.311,8.931,13.761"/>
<path fill="#FFD203" stroke="#000000" stroke-width="3" d="M456.79,318.99c10.397,8.245,18.266,24.91,18.429,35.753
	c-8.127,16.975-4.755,26.01,4.507,25.689c7.558-0.256,8.41-8.794,7.435-19.049c-0.871-9.148-2.927-15.632-7.93-23.08
	C472.698,328.579,460.024,318.837,456.79,318.99L456.79,318.99z"/>
<path fill="#FFD203" stroke="#000000" stroke-width="3" d="M422.2,130.28c-3.247-1.876-6.242-8.651-6.429-10.26l9.547-0.792
	C425.581,121.22,424.278,126.729,422.2,130.28L422.2,130.28z"/>
<path fill="#FFD203" stroke="#000000" stroke-width="3" d="M432.2,147.1c-2.409,2.874-2.907,10.265-2.532,11.84l9.242-2.521
	C438.476,154.458,435.367,149.727,432.2,147.1L432.2,147.1z"/>
<path fill="#FFD203" stroke="#000000" stroke-width="3" d="M532.3,264.06c-6.088-6.148-8.736-13.201-8.891-22.643
	c-0.09-5.703,0.108-11.8,0.28-17.107c0.123-3.788-1.608-11.551-2.932-15.955c5.628,5.341,14.575,10.351,20.626,8.847
	c-13.033-19.131-0.829-18.371-12.321-43.467c5.141,3.813,10.51,5.929,17.084,2.296c-15.978-16.757-5.14-26.991-17.728-46.734
	c6.079,2.606,9.085,2.701,15.033-2.055c-13.009-4.507-24.443-25.814-27.414-31.366c-2.769-5.173-3.835-11.086-4.391-13.056
	c-2.86-10.141-12.937-16.722-21.037-16.943c-17.717-0.482-25.49,3.468-43.966,8.551c-15.781,4.342-15.229,9.336-23.84,14.906
	c-1.471,0.951-12.622,5.1-19.368,7.856c-2.735,1.118-4.176,4.535-3.229,7.017c1.584,4.152,3.902,3.333,4.59,6.326
	c1.321,5.75,5.99,12.254,9.951,12.643c10.503,1.031,16.585-4.188,25.96-7.9c9.164-3.629,16.521,4.258,19.85,11.371
	c3.604,7.706,4.289,14.605,0.476,18.753c-3.275,3.562-18.316,7.99-23.422,8.389c-3.664,0.286-6.846-0.082-9.813,1.799
	c-1.514,0.959-0.278,8.152-0.32,11.149c-0.032,2.34,2.204,3.032,5.83,2.84c1.309-0.069,4.864,0.772,7.556,1.996
	c-0.011-1.567,0.938-3.84,2.312-4.091c5.52-1.007,15.45-6.302,15.378-4.146c-0.188,5.422-16.122,13.604-27.247,14.216
	c-6.22,0.342-16.818,0.469-23.702-1.328c-14.323-3.739-18.844-13.026-18.454-21.975c-11.868,12.686-3.347,30.719,11.104,38.468
	c-5.507,0.073-9.925,1.277-15.001,2.283c-9.994,1.981-22.538,2.128-32.039-3.393c-2.318,8.857,12.677,28.477,31.284,28.973
	c-7.013,3.527-10.602,9.633-17.041,15.851c-5.651,5.456-17.165,10.289-22.408,2.854c-0.605,12.775,5.463,20.193,15,23.792
	c7.667,2.893,15.945-0.467,21.253-3.064c6.517-3.189,14.776-7.364,18.849-10.353c-1.505,4.167-3.073,8.179-4.757,13.669
	c-1.61,5.253-5.196,10.854-9.079,14.006c-2.855,2.317-9.185,4.813-12.996,4.734c2.824,5.725,11.9,7.776,20.691,7.081
	c17.419-1.376,32.791-21.913,40.016-35.76c1.12,11.334-12.29,46.774,10.753,45.397c-1.732-6.892,0.624-12.928,6.425-20.58
	c10.941-14.431,14.903-23.444,18.266-33.867c4.569,14.57-4.301,20.784,1.309,34.43c4.254,10.351,13.574,11.416,19.169,11.94
	c-6.346-14.357,2.334-18.524,6.925-30.768c3.962-10.564,3.708-17.101,2.865-28.031c4.448,5.465,6.716,11.938,8.093,17.013
	C509.309,254.382,519.416,266.913,532.3,264.06L532.3,264.06z"/>
<path fill="#FFD203" stroke="#000000" stroke-width="3" stroke-linecap="round" d="M404.46,107.81
	c0.765-2.036,6.619-9.978,12.711-11.577c10.049-2.637,14.984,4.103,17.385,5.353"/>
<path fill="#FFD203" stroke="#000000" stroke-width="3" stroke-linecap="round" d="M414.64,102.96
	c4.584-4.019,15.321-0.187,18.187,2.147"/>
<path fill="#FFD203" stroke="#000000" stroke-width="3" stroke-linecap="round" d="M448.94,108.07
	c11.194-2.074,18.432,5.647,20.131,13.814"/>
<path fill="#FFD203" stroke="#000000" stroke-width="3" d="M449.32,90.101c-4.58,1.907-6.046,4.587-9.019,5.035
	c-2.49,0.375-5.684-0.903-6.654-2.283c4.104-1.635,5.738-4.735,8.705-5.167C445.508,87.229,447.52,88.918,449.32,90.101z"/>
<path fill="#FFD203" stroke="#000000" stroke-width="3" stroke-linecap="round" d="M431.44,88.579
	c3.409-1.469,8.689-7.815,16.183-7.837c6.266-0.019,8.439,2.566,10.173,4.551"/>
<path fill="#FFD203" stroke="#000000" stroke-width="3" stroke-linecap="round" d="M436.41,76.206
	c23.438-4.007,46.875-4.059,70.312,0c0.289-3.7,1.562-8.693,3.342-12.776c3.105-7.124,7.099-14.61,11.171-21
	c-3.106-0.131-7.189,2.41-10.189,7.524c-1.2-2.286-6.173-4.005-9.368-0.961c2.697,2.936,6.692,6.542,4.008,10.654
	c-1.923,2.945-5.523,2.437-7.942,0.955c-2.17-1.329-4.178-4.398-4.888-8.946c-2.96,5.033-6.342,7.352-9.39,7.429
	c-5.091,0.129-7.61-1.573-7.611-4.372c-0.002-4.911,5.564-6.755,9.368-7.949c-1.245-4.234-6.411-5.232-8.594-3.853
	c-0.041-5.929-2.307-10.171-5.062-11.61c-2.755,1.44-5.021,5.682-5.062,11.61c-2.183-1.379-7.35-0.382-8.594,3.853
	c3.803,1.194,9.37,3.038,9.368,7.949c-0.001,2.798-2.521,4.5-7.611,4.372c-3.049-0.077-6.43-2.396-9.39-7.429
	c-0.71,4.548-2.718,7.617-4.889,8.946c-2.419,1.482-6.02,1.99-7.941-0.955c-2.686-4.113,1.311-7.719,4.007-10.654
	c-3.194-3.044-8.168-1.325-9.368,0.961c-3-5.114-7.083-7.655-10.188-7.524c4.072,6.39,8.065,13.876,11.171,21
	C434.85,67.513,436.121,72.506,436.41,76.206L436.41,76.206z"/>
<path fill="#FFD203" stroke="#000000" stroke-width="3" stroke-linecap="round" d="M487.52,81.409
	c1.894-2.741,6.27-5.935,9.671-7.242c4.687-1.8,13.145-1.719,15.607,0.524c5.716,5.207-2.011,15.217-5.228,19.676"/>
<path fill="#ED2939" stroke="#000000" stroke-width="3" d="M461.576,135.542c-34.992,1.773-35.462,15.264-57.731,13.429
	c-16.487-1.358-21.824-15.44-21.515-22.497c12.345,13.807,18.722,15.208,32.508,11.375
	C432.712,132.882,450.02,117.598,461.576,135.542z"/>
</svg>
