<?xml version="1.0" encoding="UTF-8"?>
<svg xmlns="http://www.w3.org/2000/svg" xmlns:xlink="http://www.w3.org/1999/xlink" width="750" height="500">
<clipPath id="c">
<path d="m530,189.78c0,69.521-30.549,128.81-72.75,170.94-42.201,42.131-96.103,66.406-139.94,66.406v-237.34z"/>
</clipPath>
<rect width="750" height="500" fill="#c40026"/>
<g fill="#ffd203" clip-path="url(#c)">
<path d="m321.05,206.32h24.04v220.94h-24.04z"/>
<path d="m367.38,195.48h24.04v230.8h-24.04z"/>
<path d="m414.29,193.3h24.041v208.31h-24.041z"/>
<path d="m458.26,190.96h24.042v175.91h-24.042z"/>
<path d="m505.76,190.37h24.04v107.13h-24.04z"/>
</g>
<use xlink:href="#cross" stroke="#c40026" stroke-width="12.5"/>
<g id="cross">
<g id="leg" fill="#ffd203">
<path d="m315.19,74.888c-7.698,12.188-33.36,21.171-34.642,21.812-2.5663,2.565-2.5663,5.1325-1.2838,7.6975,14.114,15.397,21.171,35.284,23.095,55.172v4l10.829,6.192h12.979l10.829-6.192v-4c1.9238-19.888,8.9812-39.775,23.095-55.172,1.2825-2.565,1.2825-5.1325-1.2838-7.6975-1.2825-0.64125-26.944-9.6238-34.642-21.812z"/>
<circle cx="319.68" cy="63.34" r="8.34"/>
<circle cx="268.36" cy="94.775" r="8.34"/>
<circle cx="371" cy="94.775" r="8.34"/>
<path fill="#c40026" d="m347.26,102.47c-14.754,19.888-19.888,43.625-21.169,68.645l-6.41,18.88-6.42-18.88c-1.281-25.02-6.415-48.757-21.169-68.645,10.905-3.85,19.245-9.624,27.585-16.039,8.34,6.415,16.68,12.189,27.585,16.039z"/>
</g>
<use xlink:href="#leg" transform="rotate(90,319.68,176.25)"/>
<use xlink:href="#leg" transform="rotate(180,319.68,176.25)"/>
<use xlink:href="#leg" transform="rotate(270,319.68,176.25)"/>
</g>
</svg>