<?xml version="1.0" encoding="UTF-8"?>
<svg xmlns="http://www.w3.org/2000/svg" xmlns:xlink="http://www.w3.org/1999/xlink" width="600" height="400">
<rect width="600" height="400" fill="#fff"/>
<g>
<g id="g5">
<g id="g4">
<g id="g3">
<g id="g2">
<g id="g1" fill="#000">
<path d="m42,36.188c-2.9348,0.23259-4.0461,3.5756-5.1116,5.8489-2.8308,7.0782-4.0231,14.686-7.1974,21.644-3.0057,6.9089-6.3018,13.952-11.633,19.397-0.88518,0.71619-2.0506,1.3174-0.74865,2.2677,2.0264,1.1405,5.0415-0.26966,6.9855-1.3307,1.3763-0.48266,3.6793-3.2564,4.2797-2.8712-0.54967,3.6025-2.104,7.0443-4.418,9.8567,1.8573,0.0078,3.9552,0.13836,5.2608-1.489,2.6262-2.4776,4.2863-5.7338,6.4579-8.5735,1.7125,3.9689,1.8114,9.2023,5.8095,11.769,2.2136,1.4097,4.2692-2.0131,4.9577-3.7476,1.1608-2.1243,0.98328-6.5029,2.0819-7.4792,2.5729,3.0974,4.7079,6.9645,8.5095,8.7021,0.99924,0.29438,2.998,0.20315,3.6342-0.11284-2.3012-2.7329-5.064-5.5808-5.2428-9.3506,3.0755,2.0545,5.9052,4.8685,9.7891,5.235,1.3172,0.15799,2.6409,0.25772,3.9609,0.39003-4.091-3.697-7.455-8.113-10.219-12.877-4.357-7.403-8.166-15.268-9.94-23.712-1.249-4.238-2.136-8.817-4.916-12.372-0.59-0.651-1.395-1.178-2.3-1.194z"/>
<path id="p" d="m31.656,29.062c-1.7055,0-3.2198,0.83663-4.125,2.125-1.6294-0.69991-3.2935-0.9669-4.875-0.9375-0.98764,0.01836-1.9258,0.17638-2.8438,0.40625-3.6719,0.91948-6.6781,3.1614-8.3438,5.0312l-1.25,1.4062,1.8438,0.21875c2.4317,0.3002,6.2505,0.31255,9.9062,0.28125,2.4185-0.02071,4.7292-0.02446,6.4688,0,0.87551,0.72001,1.997,1.1562,3.2188,1.1562,2.7288,0,4.9688-2.1671,4.9688-4.8438,0-2.6766-2.2399-4.8438-4.9688-4.8438z"/>
<use xlink:href="#p" transform="matrix(0,1,-1,0,76.469,-5.156)"/>
<use xlink:href="#p" transform="matrix(-1,0,0,-1,85.125,67.8125)"/>
</g>
<use xlink:href="#g1" x="85.81418"/>
<use xlink:href="#g1" x="171.62836"/>
</g>
<use xlink:href="#g2" x="257.44254"/>
</g>
<use xlink:href="#g1" x="514.88508"/>
</g>
<use xlink:href="#g3" x="42.90709" y="75.20853"/>
</g>
<use xlink:href="#g5" y="150.41706"/>
<use xlink:href="#g4" y="300.83412"/>
</g>
<path d="M0,0V400H600V0zM39.863,40.122h520.27v319.76H39.863z" fill="#c40026"/>
</svg>
