<?xml version="1.0" encoding="UTF-8"?>
<svg xmlns="http://www.w3.org/2000/svg" xmlns:xlink="http://www.w3.org/1999/xlink" width="360" height="216">
<rect width="360" height="216" fill="#ffd700"/>
<path d="M0,42V0H70L360,174V216H290z" fill="#c4001a"/>
<g id="bird" fill="#fff">
<path d="m65.469,33.844c-1.6463,0.0468-3.1179,1.051-3.9375,2.4062-1.313,2.1674-1.0326,5.3701,2.0938,6.7812,3.2873,1.4824,6.047-0.41902,5.2812,3.5312l1.3438-1.5312c0.29825,0.81042,0.77004,2.2987,0.59375,3.5312l1.0938-2.1562c2.0469,5.8604,8.4727,6.6622,13.969,8.375,4.4762,3.3188,1.5773,8.7891,0.46875,12.156,1.5354-1.4472,2.1462-2.5516,2.4688,1.2188,1.398-2.3396,1.6665-2.206,3.1875,0.4375,0.1357-1.0698-1.0195-4.6387,1.4688-1.4688-0.74785-4.1197-0.53213-9.4591-4-11.688,0,0,3.4252-0.21752,4.0938,2.1562,1.0196,2.1312-0.09839,3.6982,1.4062,5.8438,0.931-5.6333,1.7856-3.9918,1.4688-0.125,1.0782-0.86254,2.1964-2.5688,2.875-2.25-0.13669,2.6184-1.2286,4.9-4.1562,7.3125,2.2475,0.85644,4.7212-2.2642,5.7813-4.25-0.2357,1.3532-0.10182,2.7486,0.8125,4,1.2538-1.3964,1.8107-3.1475,1.25-4.8125,1.4984,1.6197,2.7626,2.3229,4.0938,2.4375,0.80467,0.06939,1.8394-0.19232,2.9688-0.125-0.58338-0.96938-0.81537-2.0068-1.25-2.6875-0.71881-1.1263-1.9639-1.9236-4.0938-2.5,1.7352-0.27536,3.0318-1.5854,3.6875-3.3438-1.5327-0.22973-2.8167,0.3199-3.9062,1.1562,1.2677-1.8601,2.8948-5.531,1.0938-7.125-0.77969,3.7126-2.306,5.7584-4.5625,7.0938-0.5977-0.45257,0.39207-2.2385,0.65625-3.5938-3.2789,2.0739-5.1217,2.0622-0.5625-1.375-2.5987-0.3381-3.4827,1.3838-5.8438,1.4688-2.4131,0.50851-3.7812-2.625-3.7812-2.625,3.5825,2.039,8.2221-0.59588,12.219-1.8438-3.9624-0.73453-0.29117-1.4149,0.59375-2.0312-3.0474-0.1217-3.2683-0.27022-1.8438-2.5938-3.4905,1.4635-2.8202,0.40644-2.25-1.625-2.4691,2.5436-5.9526,7.6455-10.969,5.2188-4.0662-4.0751-7.7648-9.4042-13.906-8.5l1.375-1.9375c-1.0102,0.72775-2.5182,0.98134-3.375,1.0938l0.75-1.9062c-3.1447,2.5104-2.756-0.83752-5.5938-3.0625-1.0125-0.7933-2.0747-1.0906-3.0625-1.0625zm1.5938,3.25c0.08333,0.14583,0.16667,0.29167,0.25,0.4375-0.07738,0.04485-0.22637,0.15053-0.40625,0.25-0.14922,0.0988-0.32564,0.17367-0.46875,0.25-0.02131,0.03404-0.06366,0.1237-0.09375,0.28125-0.0323,0.1691-0.05634,0.40356-0.09375,0.625-0.0748,0.44289-0.18991,0.95482-0.625,1.2188-0.5598,0.33968-1.1942,0.45287-1.6875,0.1875-0.24663-0.13268-0.43746-0.37746-0.53125-0.6875-0.05846-0.19324-0.01222-0.4381,0-0.6875-0.22,0.16164-0.34772,0.34382-0.5,0.5625-0.13829-0.11287-0.27081-0.18748-0.40625-0.28125,0.1332-0.19988,0.24469-0.37641,0.40625-0.5625,0.18657-0.16275,0.5001-0.32586,0.71875-0.40625,1.1899-0.23564,1.9815-0.36949,2.5-0.65625,0.20187-0.11207,0.36567-0.18807,0.53125-0.28125,0.18946-0.10477,0.36445-0.22546,0.40625-0.25zm-1.2188,1.1562c-0.20524,0.07386-0.44602,0.12239-0.6875,0.1875,0.04029,0.03248,0.09413,0.07471,0.125,0.125,0.21791,0.43303,0.0018,0.83626-0.25,0.96875-0.31414,0.23773-0.71779,0.18428-0.90625-0.125-0.12229-0.20017-0.13156-0.49608-0.03125-0.71875-0.0778,0.01583-0.13746,0.04661-0.21875,0.0625-0.0485,0.3266-0.02238,0.60406,0.03125,0.78125,0.06169,0.2039,0.15052,0.30467,0.28125,0.375,0.26146,0.14066,0.72666,0.09213,1.1875-0.1875,0.19799-0.1201,0.3055-0.46352,0.375-0.875,0.03359-0.19884,0.05843-0.40375,0.09375-0.59375zm-1.75,0.4375c0.38979-0.07932,0.74964-0.16564,1.0625-0.25-0.20147-0.16242-0.48761-0.14292-0.78125-0.03125-0.12876,0.04878-0.22724,0.16135-0.28125,0.28125z"/>
<path d="m54.834,59.614c-0.02681,3.4532,10.394,8.4298,13.122,15.476,0.41117,0.997,0.66834,2.7097,1.0282,0.83645,1.2045-6.1638-7.4534-17.014-13.244-19.75-0.26445,0.43691-0.77942,1.2202-1.0158,1.6801-0.15654,0.90365,0.26537,0.8535,0.1096,1.7577z"/>
<path d="m58.273,60.406c0.68776,1.2507,2.3466,2.3146,3.5702,3.087,3.9457,2.4909,7.8544,5.2773,9.5314,12.028,0.39692,1.5737,0.7631,1.5725,1.0996,0.23463,1.8103-8.1041-6.7192-13.14-10.157-18.159-1.1106-0.4509-2.0369-1.1387-3.0732-0.87046-0.2156,0.46308-0.48104,0.89599-0.66537,1.3787-0.05695,0.91536-0.24861,1.3858-0.30556,2.3011z"/>
<path d="m61.531,60.621c1.681,1.376,3.3124,1.9453,4.8451,2.8312,3.9091,2.2589,7.2774,5.3043,9.3681,10.817,0.51433,1.4885,0.86826,1.4569,1.0824,0.13549,0.98419-7.7856-7.25-13.587-11.518-17.277-1.111-0.34333-2.2892-0.47428-3.269-0.12872-0.16965,0.46592-0.39032,0.9055-0.52907,1.3879,0.02169,0.89044-0.000894,1.344,0.0209,2.2343z"/>
<path d="m66.045,60.595c5.9902,2.3796,10.606,5.4378,13.826,12.563,0.5375,1.4352,0.88144,1.3957,1.0569,0.10459,1.6809-7.2529-7.3277-12.727-11.575-16.21-1.0897-0.30545-2.0133-0.77826-2.9582-0.41726-0.1533,0.45766-0.35646,0.89081-0.47918,1.3636,0.04327,0.86605,0.08571,1.7316,0.12948,2.5968z"/>
<path d="m69.706,59.465c5.3718,1.5468,9.0558,3.99,12.982,9.0531,0.79503,1.3097,1.1256,1.2079,1.0579-0.09398-0.31774-4.8921-7.1703-10.368-11.926-12.622-1.4563-0.43092-1.9326-0.11089-3.1432,0.75662-0.0648,0.47831-0.18465,0.94259-0.21751,1.43,0.38516,0.85621,0.09361,1.0679,1.2468,1.4765z"/>
<path d="m71.28,56.73c2.5704,0.57977,4.6768,2.0817,7.06,3.5333,1.7676,1.0755,3.6397,2.1996,5.4052,3.8278,1.5627,1.6053,1.7937,0.50916,1.1933-0.38885-2.136-4.7102-6.3691-7.4256-11.218-9.7804-0.66863-0.36726-1.1822-1.2513-3.5338-0.08129-0.504,1.7083-0.49752,2.5283,1.093,2.8894z"/>
<path d="m72.704,54.182c2.3004,0.17459,4.0327,1.3571,6.4556,2.5126,1.8678,0.8911,3.7969,2.4049,5.7192,3.8453,1.7177,1.4392,1.583,0.48037,1.1471-0.50759-3.5077-6.6459-8.3704-5.7599-12.445-9.1974-1.0464-0.1351-2.3311-0.51207-2.0588,2.0645l1.1815,1.2826z"/>
<path d="m71.137,43.95c2.94,4.9006-2.612,9.7287-7.741,8.019-7.4937-2.4975-9.3895,0.95386-9.8517,3.5786-0.39604,2.2515,0.04022,4.3265,1.9785,5.9618,3.8918,0.01129,13.209-3.9553,21.135-7.2393-0.001-1.1083-0.17608-2.4729-1.1257-3.3904-0.84347-2.861-1.0868-2.4533,1.5985-5.3654-1.6631-0.62754-4.3308-1.4966-5.9933-1.5643z"/>
<path d="m79.14,19.456c3.047-1.6251,12.289,5.2997,19.796,4.4486,1.074-0.09806,2.7107-0.66447,1.2179,0.52302-4.9473,4.4778-18.53,1.2865-23.64-2.5745,0.26445-0.43691,0.71962-1.2564,1.0175-1.6791,0.72802-0.55775,0.87924-0.1607,1.6081-0.71803z"/>
<path d="m81.437,22.136c1.427,0.02934,3.1389,1.0057,4.3906,1.7315,4.0366,2.3407,8.3179,4.5115,15.077,2.8666,1.5783-0.37812,1.747-0.05313,0.71781,0.86541-6.3405,5.362-14.758,0.14048-20.799-0.57795-0.9145-0.77484-1.9534-1.2766-2.1963-2.3191,0.31029-0.40576,0.57074-0.84169,0.9129-1.2288,0.78458-0.47494,1.1125-0.8629,1.897-1.3378z"/>
<path d="m83.139,24.922c1.9987,0.85122,3.2596,2.0325,4.7553,2.9797,3.8141,2.4158,8.0743,3.9878,13.928,3.2837,1.5573-0.23458,1.6934,0.09365,0.62201,0.89618-6.4414,4.4824-15.4-0.1226-20.648-2.1931-0.81939-0.82509-1.4818-1.8083-1.63-2.8366,0.33412-0.36637,0.62124-0.76573,0.98425-1.1123,0.79897-0.39371,1.1904-0.62407,1.9892-1.0176z"/>
<path d="m85.209,28.934c4.8861,4.2036,9.7362,6.8748,17.542,6.4236,1.5208-0.18935,1.6453,0.13368,0.58277,0.88787-6.1351,4.7021-14.674-0.59003-19.73-2.7377-0.77593-0.82376-1.6232-1.4228-1.7415-2.4274,0.33438-0.34805,0.62393-0.72892,0.98587-1.0569,0.78736-0.36328,1.5739-0.72707,2.3607-1.0895z"/>
<path d="m85.906,32.702c3.8615,4.042,7.7345,6.1729,14.041,7.3038,1.5291,0.09701,1.5922,0.43711,0.40733,0.98085-5.0952,1.3264-12.511-1.5448-16.714-4.713-1.0571-1.0904-0.99449-1.6608-0.78729-3.1357,0.39372-0.27922,0.74948-0.60071,1.1661-0.85587,0.9372-0.05582,0.98953-0.41229,1.8863,0.41993z"/>
<path d="m84.212,35.365c1.7057,2.0085,4.0132,3.1782,6.4044,4.6165,1.7726,1.0672,3.6366,2.2046,5.8979,3.0138,2.1469,0.64008,1.2829,1.3531,0.20884,1.2375-5.1636,0.29188-9.5325-2.1993-13.867-5.403-0.63545-0.42208-1.6568-0.46717-1.7108-3.0932,1.2798-1.2387,2.0093-1.6132,3.0668-0.3716z"/>
<path d="m82.615,37.808c1.2215,1.9571,3.0725,2.9436,5.2198,4.5543,1.6557,1.2416,3.8914,2.2487,6.0591,3.2838,2.0716,0.85442,1.1597,1.1798,0.08224,1.2517-7.5147-0.02578-8.9848-4.7449-13.92-6.7603-0.60493-0.86439-1.5347-1.8278,0.87432-2.7814l1.6842,0.45195z"/>
<path d="m72.823,41.165c5.7052,0.33215,7.4081-6.8257,3.5148-10.577-5.6878-5.4811-3.5092-8.7612-1.398-10.388,1.8111-1.395,3.8518-1.9707,6.1995-1.0118,4.7216,6.3004,2.64,13.134,3.3871,22.082-0.98243,0.51306-2.2726,0.99079-3.5259,0.57497-2.9259,0.57946-2.6776,0.17479-4.0123,3.9044-1.3272-1.1824-3.3343-3.1429-4.1653-4.5845z"/>
</g>
<use xlink:href="#bird" x="97.616027" y="59.083887"/>
<use xlink:href="#bird" x="194.22003" y="117.56089"/>
</svg>