<?xml version="1.0" encoding="UTF-8"?>
<svg xmlns="http://www.w3.org/2000/svg" width="500" height="300">
<rect width="500" height="300" fill="#ffd700"/>
<path d="m279.87,192.07c-11.514,6.0284-22.475,6.3884-30.151,2.7714-7.6763-3.617,1.2792,4.8225,5.1175,8.4394,3.8383,3.617,2.5588,7.2339,2.5588,10.851,0,3.617-0.0684,8.3029,0.9622,12.654-7.6761,1.2057-15.035-1.8031-21.432-5.4201,3.7672,4.1406,3.2449,6.5621,6.082,9.8076-6.4824,0.0557-12.597-5.4444-17.952-8.1411,2.7774,3.2414,5.1202,8.3006,7.5025,12.006-5.2262,0.53527-11.441-5.7074-13.979-7.7804,0.81931,1.6209,2.4804,8.6564,3.3272,13.17-6.2519-1.5428-7.7468-10.684-12.326-9.9891,0.0145,1.0132-1.271,4.3197,0.0973,7.4106,2.7047,6.1091-3.4424,3.5908-5.4742,3.1053-5.3695,0.0612-6.874,1.5183-5.8315-6.3632-1.2794-2.411-4.9455-4.7863-4.9455,0.0362,0,4.8227-3.3762,10.79-6.6606,10.79-3.2845,0-5.2893-4.1138-6.5417-7.5325-5.8967-4.5129-2.6775-8.3278,2.4401-7.1221,5.1174,1.2055,1.2524-7.2339-2.5855-4.8227-3.8382,2.4112-11.541,2.4616-10.262-1.1553,1.2792-3.617,2.0048-6.4888,0.7254-11.311-1.2794-4.8227,4.7088-4.0022,7.2676-1.5907,2.5588,2.4112,3.693,5.3442,8.8104,4.1387,5.1176-1.2055,0.38208-5.3442-3.4561-6.5749-3.8382,0-3.4556-4.6055,2.6387-7.5075,4.2485-7.2016,10.525-7.9931,9.5096-0.54696,0,3.617,1.7263,10.876,17.304,9.1232,11.514-1.2057,13.428-9.9548,8.8104-14.554-2.8756-2.2749-5.9208-6.9173-6.3296-15.594-1.8719,1.5322-4.4247,2.7034-7.902,2.7886-5.8919,0.35493-7.8399-2.1603-12.901-4.1781,3.1525-1.6514,7.8373-4.2125,12.431-3.3789,3.7888,0.0392,7.4609-1.9869,8.8588-5.5532,2.5589-6.0282,8.1034-6.0672,13.084-4.9595,5.5785,1.3029,18.968,0.66038,18.968-1.7511-6.1407-1.8212-13.695-7.2039-16.283-14.67-0.0115,5.5688-3.3747,9.2401-8.316,8.2426-2.3921-0.54718-5.8904-0.36364-8.1218-0.24059,2.7387-2.0866,6.7488-8.9706,3.4931-13.56-1.4931-2.1615-1.8369-6.4778-1.5348-9.131-0.93679,0.74493-3.8211,5.366-1.6706,8.9117-3.5007,0.31782-6.2369-4.0022-10.3-5.3195-0.72565,1.3927,1.6555,4.7599,2.1982,6.3213-1.8274,0.56918-3.057,1.2552-8.0412-1.0382-1.3242,3.5549-0.64137,5.2134-0.95122,6.4835-1.5772-0.11021-5.4357-0.9908-7.3322-2.9169,0.04,2.2815-1.2645,3.9859-1.8081,5.9033-2.5013-0.49654-4.6722-1.1439-6.8574-3.9272-0.17068,1.8017-1.5847,2.601-1.3218,5.4806-3.4241-0.1604-7.3437-5.0021-11.671-8.4642-1.2524,3.0588,4.0366,15.313,0.19864,14.108-5.87-1.4793-12.122,2.598-12.293-1.9759,1.2792-3.617-0.69894-3.6924-4.5372-0.0754-3.4029,3.7533-10.288,7.8201-10.235-3.617-4.4454-6.2404-2.9676-8.0545,3.8647-7.2087,6.397-1.2057,8.9824-3.79,3.9832-5.2077-9.6427,1.8643-11.648-2.2996-7.5845-6.0784,1.0158-3.3686,1.0158-6.8236,4.854-5.618,6.5954,4.0773,8.9559,0,5.1176-2.4115-3.8382-2.411-2.9941-5.3944,3.1658-7.2337,3.693-4.8477,8.3486-3.6167,8.3486,1.2057-0.87085,5.7798,2.9941,9.1484,5.5527,6.7369,2.5588-2.411,12.492-3.3686,16.33-4.5738,3.838-1.2057,15.219-10.603,15.219-14.22-8.4553,0.2917-13.57-1.5636-16.536-3.4094-0.38688-2.37-0.7596-4.2015,0.28579-7.6143-8.3441,4.2214-11.958,2.1787-14.285-0.0346,1.8414-1.6862,4.8208-7.785,6.1-10.072-4.6705,1.9523-6.1946,3.4052-8.2781,2.4591-0.87224-2.3849,0.67658-4.7936,1.2306-6.6831-4.9349,4.2558-8.1625,4.0961-12.474,3.4254,4.4531-6.5014,5.2799-9.9126,6.2738-16.515-2.9886,1.337-6.2256,1.1198-8.2037,1.2408-0.4223-2.1519-1.0237-5.4455-0.17166-8.6113-6.0299,1.4933-9.8529,3.0086-7.9663-4.4375,0-3.617-1.478-8.1908,4.1283-6.4132,2.5588,0,2.4136-4.3871-1.4246-4.3871-9.9331-0.68375-12.293-3.4802-7.2142-9.2852,1.4511-6.8992,4.8005-8.6014,7.3594-3.2066,2.5588,3.6167,9.6813,7.0861,7.6762,0-4.6171-7.0864-7.6379-13.15,1.2794-12.056,8.0467-2.0515,7.9933,2.6344,5.6979,7.6189-1.2792,4.4373,3.2577,5.643,4.5371,3.2318-0.46202-4.5993,2.4522-7.9427,6.5155-3.095,5.0791,5.9418,6.7938,9.4218-0.23689,13.176-3.8382,3.617,8.9558,12.726,13.111,23.429,6.1868,1.9509,16.525,7.6301,22.83,9.8936,3.838-3.617,19.994-11.325,34.543-10.851,10.067,0.3224,12.794-3.9016,14.073-7.5183,1.2794-3.617-3.7848-0.07562-5.2358-3.2822-2.177,2.6738-5.9352,2.5732-7.5314-0.93214-5.6595,6.2044-13.661,9.4898-11.304-0.29857,1.1682-4.9897,0.42365-8.4899,3.9181-8.7382,21.78,3.3074,20.405-9.6818,13.783-11.322-7.3951-1.7561-19.326,7.7023-17.621-5.805,0.8005-6.344,0.52687-4.0271-2.0318-5.2329-2.5588-1.2055,2.994-6.3016,6.832-6.3016,6.1602-0.13657,8.0199-2.7964,10.843-6.8488,0.95945-0.60287,14.152-0.26718,19.032-0.78251,6.313-1.2002,21.562-6.0303,28.656-4.5287-1.9315,4.6004-4.1229,4.2629-5.3351,7.2575,4.9922,0.74058,10.682,2.5597,11.82,3.0219-2.5598,2.5231-4.0131,4.2542-6.4003,6.0445,5.5562,1.1805,6.9173,0.65465,6.2251,9.62-0.11239,6.1749-0.55347,14.244-8.2298,14.244s7.0267,5.8781,6.5418,14.23c-0.49314,6.5183-0.806,16.094,3.3763,21.64,2.6228,3.576,6.385,11.905,0.98927,16.656-1.7308-5.8749-4.7337-10.677-7.9809-14.286-1.87,2.4445-3.4906,7.4917-1.62,10.46,2.2932,3.7719,2.2146,7.6663,2.2146,12.489s-1.5017,8.3948-1.0569,17.139c-2.1324-0.60149-4.8934-3.3065-6.3208-6.1233-0.71701,3.2123-2.9428,4.8392-4.0059,13.907-4.8991-3.85-6.3026-8.3909-5.9739-11.125,0.11859-8.4898-1.1271-7.3206-3.686-12.143-0.72343,2.3113-0.34314,5.3124,0.63627,9.9272-3.8378-2.4115-5.1445-2.7813,0.93033,6.9333,5.0064,7.8485,6.4726,29.633,16.456,34.67,6.3967,1.2055,9.3526,6.712,13.191,9.1232,3.8383,2.4115,11.091,1.055,19.256,11.236,14.696,10.592,25.76,1.0006,17.594-13.895-2.4955-4.4272-12.504-11.012-13.783-15.835-7.2293-0.44613-14.153-3.6277-12.53-12.467-8.3904,0.73393-12.901-8.7742-6.9508-17.016-11.464-3.3184-9.723-18.11,4.155-20.632,1.1074-14.01,20.1-27.208,29.426-33.484,7.5467-5.0012,27.403-20.866,16.025-38.418-7.2006-11.132-21.761-3.9499-19.863,7.0719,0.97413,5.4849,6.3916,6.5144,13.955,4.5491,0.26561,5.7088-10.65,16.691-18.228,7.6439,0.1718,4.9123-0.90922,11.833-10.499,14.518-6.3969,2.4112-6.3586,6.6868-4.9725,13.176-11.791-0.28528-17.357-10.977-14.799-18.21,2.5588-7.2337,10.709-7.3201,10.709-10.937,0-3.617-9.35-4.6859-10.472-10.739-1.2891-7.0919,1.6228-12.949,7.4926-14.468-2.5472,8.1908,7.6043,12.237,13.73,4.7975,10.605-12.841,29.276-15.637,37.564-6.4998,5.6129,6.1875,14.112,20.816,3.7463,36.169-6.293,9.3209-22.572,21.738-28.944,25.02-2.321,1.3253-10.287,7.2924-10.33,10.734,5.5104-3.6869,9.9558-3.5569,13.695-5.0046-0.23006,4.1522-15.466,11.568-13.607,17.434,3.8876-2.9873,15.307-7.8203,21.275-13.842,3.4029,11.289-26.658,21.263-22.707,29.084,3.4119-4.9882,21.255-9.1014,28.352-15.772-0.45025,7.1865-6.0799,14.705-16.659,20.683-12.175,6.5248-9.2727,13.265-5.92,15.755,2.215-9.9685,15.85-12.685,24.213-22.842,1.8331,5.1605-3.0057,13.525-8.8757,20.074-5.7246,5.5931-5.4613,10.005-0.34336,17.239,5.1175,7.2337,14.126,20.085,10.288,26.114-3.838,6.028,9.1126-6.1538,18.82,3.455,2.5322,2.7533,5.9388,6.2154,13.939,7.4988-2.3903,3.103-5.5514,5.5848-12.556,2.7687-7.1878-5.0851-10.919-3.5918-15.575-0.025-8.7188,7.8059-21.246,13.687-37.075,0.68376-6.3971-6.0282-9.0975-10.538-16.579-10.441,3.838,8.4394-1.623,16.555-1.623,22.583s0.17202,10.44,10.407,11.646c10.235,1.2055,12.622,8.8496,17.739,7.6439,2.315-0.9562,4.7149-0.32698,7.1781-1.0861,0.22937,2.4289,1.0824,6.1274-3.7917,7.3332-6.3971,2.411-2.5031,2.8038,0.0553,6.4205,1.2567,2.1693,0.65554,5.196,0.96794,8.3533-0.20964,3.8764,3.5465,6.1625,7.6311,6.7097-2.855,3.3436-8.5135,4.1594-12.484,0.98347,2.9442,7.5971-1.1533,9.0458-6.271,5.429,4.3154,6.2294-3.3928,6.9876-9.79,4.5764,3.0359,3.4692,6.5324,7.1201,0.66288,9.3695-6.015,5.9416-5.9083,1.3423-8.467-2.2747-2.5591-3.617-4.8925,7.3595-7.3593,8.9252-4.0633,0.47157-5.4347-5.4196-10.552-6.6256-2.9408-1.8895,1.5696-3.2568,3.3761-4.8225,2.2419-1.5657-1.623-2.2243-6.7405,0.18698-5.1175,2.4115-6.9891,1.9509-5.2744-4.9231,1.5698-8.2412,3.85-5.83,8.8491-3.3938,5.1443-1.1189-8.0048-4.6836,0.72343-10.283,0.88284-3.7696,3.6291-7.5263,8.3942,0.0891,6.3969,2.4112,5.4441-4.9684,4.1649-8.5852-1.2794-3.617-12.16-9.807-14.772-15.177-3.6431,8.7229-7.586,13.593-18.087,16.136,1.0565-4.6293-0.41447-8.2928,2.663-11.321,3.8378-6.0282-1.2081-8.4321-1.2081-14.46-5.6595-6.3016-2.0315-18.977-0.5537-25.679z" fill-rule="evenodd" fill="#000"/>
<g fill="#f00" stroke="#f00" stroke-width="1.636">
<path d="m256.18,42.698c-6.3201-2.4814-11.65-3.7373-17.97-3.241-6.32,0.49632-14.22-1.9853-15.8-5.4593-1.5799-3.4742-5.2667-9.43-10.007-9.9261-2.3701-0.24839-5.9119,1.304-7.8416,3.1424,1.7304,0.98209,3.2332,3.8676,4.5499,6.3492,3.33,5.9769,11.718,18.302,22.778,12.346,4.2133-2.4816,11.147-3.9566,14.307-3.4602,3.16,0.49609,7.9915,1.3723,9.9732,0.33867l0.009-0.08959z"/>
<path d="M180.57,37.536c7.64-10.731-3.34-23.478-8.08-23.974,1.0534,3.474,4.7399,8.9335,0.52656,14.889,3.6868,3.9705,5.2626,6.7688,7.3692,8.7541v0.06233l0.17919,0.26855z"/>
<path d="m165.03,22.884c-3.5806-12.495-19.984-12.5-23.57-9.5366,3.4323,1.6104,10.196,2.7281,12.02,9.6766,5.5972,0.1132,8.5735-0.01375,11.55-0.14z"/>
<path d="m144.97,33.153c-15.051-4.476-20.662,3.4327-21.635,7.8327,3.7699-0.65969,9.8859-3.6018,15.779,0.91404,4.5432-3.0828,3.5719-6.8568,5.8683-8.6452l-0.0124-0.10151z"/>
<path d="m188.04,197.3c-10.837-7.95-24.996,0.84965-24.915,5.7457,3.7696-0.65946,11.487-2.2935,17.381,2.2227,4.5432-3.0831,5.2378-6.1799,7.5344-7.9683z"/>
<path d="m160.74,116.65c-8.7278-9.9923-23.674-3.6248-25.645,0.46791,3.8315,0.13382,10.483-1.4757,15.184,4.1463,5.1489-2.0712,7.8052-3.3427,10.462-4.6142h-0.00023z"/>
<path d="m144.49,129.72c-16.161-6.0365-19.641-0.0115-21.363,4.1793,3.8334-0.0706,11.138-0.88127,16.169,4.4806,5.0163-2.3427,2.9546-6.456,5.1937-8.6599h-0.00025z"/>
<path d="m139.4,149.4c-12.518,1.4899-13.384,11.149-11.965,15.44,2.9544-2.3028,6.782-7.675,14.262-6.4274,2.3804-4.775-3.3815-6.3974-2.2969-9.0123z"/>
<path d="m169.68,213.4c-13.571-1.9846-16.544,9.6603-15.125,13.951,2.9546-2.3028,7.309-5.1937,14.788-3.946,2.3804-4.7753-0.74804-7.39,0.33658-10.005z"/>
<path d="m177.27,235.21c-12.901,4.4371-9.9155,18.348-6.4748,21.46,1.4077-3.361,4.1433-10.109,11.332-12.419-0.36186-5.2647-4.4676-6.2574-4.8574-9.0409z"/>
<path d="m301.06,247.13c-11.936-6.4008-19.598,2.3847-19.89,6.8701,3.6305-1.1624,7.53-3.54,14.051,0.13153,4.0259-3.666,3.8401-4.921,5.8404-7.0016h-0.00046z"/>
<path d="m290.97,259.77c-11.94-3.8386-20.377,5.7413-20.277,10.234,3.5165-1.4402,10.355-4.1117,17.174-0.95781,3.6926-3.9655,1.2911-6.5516,3.1034-8.7804h-0.00023l-0.0661-0.0619,0.0661-0.43422z"/>
<path d="m298.91,274.63c-9.6824,9.1784-2.771,20.184,1.7462,21.625-0.23946-3.6062,0.0206-9.919,5.4888-14.887-2.6997-4.622-5.6283-4.374-7.235-6.7383v0.00022z"/>
<path d="m328.63,272.29c5.028,12.044-4.4525,17.291-9.2058,16.926,1.737-3.221,4.3539-5.4361,1.4235-12.04,4.4229-3.2345,5.3127-3.3161,7.7825-4.8862h-0.00023z"/>
<path d="m209.49,242.52c-1.773,12.834-15.921,15.405-19.895,12.922,3.1723-2.0293,8.2499-6.7876,9.0702-13.904,5.5308-0.81849,7.8575,1.2321,10.825,0.98186z"/>
<path d="m169.9,160.13c-1.7727,12.834-15.394,11.931-19.368,9.4472,3.1723-2.0293,6.5559-2.005,7.3762-9.1211,5.5308-0.81826,9.025-0.0758,11.992-0.32607h-0.00023z"/>
<path d="m146.84,64.14c-13.519-2.2829-14.94-17.682-12.117-21.304,1.999,3.0833,3.7643,9.3365,11.268,10.449,0.60262,5.245,0.72588,8.0506,0.84915,10.855v-0.000229z"/>
</g>
<g fill="none" stroke="#ffd700" stroke-width="1.636">
<path d="m170.3,38.752c0,1.1074-0.71819,2.0052-1.6041,2.0052-0.88594,0-1.6041-0.89774-1.6041-2.0052,0-1.1074,0.7182-2.0052,1.6041-2.0052,0.88594,0,1.6041,0.89774,1.6041,2.0052z" fill="#ffd700" stroke-width="0.72" transform="matrix(1.3651173,0,0,1.2864316,27.189307,-28.858467)"/>
<path d="m253.36,16.028c2.2561,0.8453,7.8965,1.6904,9.8707,0.56346" stroke-width="1.433"/>
<path d="m261.38,91.073c-3.16,7.4448-3.2018,18.368,2.0648,24.324"/>
<path d="m242.42,197.78c4.2133,5.9556,11.06,4.9629,10.533,9.9261-1.4482,5.7697,0.5927,13.338,2.2384,16.192"/>
<path d="m229.26,138.72c1.5799,6.4519,3.6867,15.882,8.4266,19.356,4.7399,3.4742,15.8,7.9408,23.7,9.43,7.9002,1.4887,14.747,6.9482,17.38,11.911,2.6334,4.9629,1.0535,11.911,1.0535,11.911"/>
<path d="m231.89,75.688c-7.8997,2.9779-12.124,10.129-18.433,14.609-3.7631,2.5638-11.425,7.4842-15.273,8.2211,3.7224,2.3583,12.254,4.3342,19.126,0.90441-2.4538,10.128,3.5882,10.016,3.5205,25.896,4.0307-0.44728,8.4266-8.9332,9.4799-13.4,1.0535-4.4668-0.64476-8.9442,1.3684-12.679-0.0567,3.9417,1.2909,7.1796,3.9241,11.15,2.6334,3.9705,3.1343,7.9807,1.5542,11.951,6.5721-5.1472,5.1682-15.71,5.0743-22.389,3.2135,2.9412,3.9259,13.09,1.7707,19.907,3.008-0.86913,6.1084-2.6489,7.6043-11.027,2.4134,3.8363,5.2406,16.442,3.9839,19.464,4.4782,0.1038,8.3848-6.0135,7.947-12.946,0.82367,0.63311,3.071,2.9412,3.8949,3.7574,0.93881-2.6431-0.41676-7.4539-0.0936-11.164,1.0111,0.93787,3.2114,2.4071,4.0305,3.5867,1.1634,1.0719,3.9007,4.6126,7.9153,6.2342"/>
<path d="m286.66,53.85c6.8467,3.9705,13.562,10.298,13.562,30.151"/>
<path d="m280.87,62.784c7.3733,5.4593,10.006,11.911,8.9532,19.852-1.0533,7.9411-4.772,7.3011-4.7399,13.897-0.0716,2.8975,3.1635,7.6182,5.2668,10.422,2.4203,3.1344,3.7802,8.3581,3.0598,11.187"/>
<path d="m289.49,84.125c0.52686,6.4521,0.0787,9.9018,2.4359,13.897,2.1146,3.3248,4.2101,14.813,1.1533,21.579"/>
<path d="m275.6,82.636c4.7397,5.9558,0,7.4445-1.5801,12.408-1.5799,4.9629,3.5213,7.4729,5.7473,13.363"/>
<path d="m269.81,78.169c1.0533,6.9484,0,9.43-2.1068,13.897-2.1068,4.4668-4.2181,11.15-0.54774,15.906"/>
<path d="m257.7,83.132c-6.8469,5.9556-8.6821,18.462-5.8145,26.245"/>
<path d="m237.68,90.081c-2.6334,2.9779-5.239,6.4187-6.0421,9.2291"/>
<path d="m237.68,79.658c-2.6334,4.4668-8.8142,8.2591-13.554,10.244-4.7397,1.9853-6.9856,9.6081-6.9856,9.6081"/>
<path d="m329.85,46.405c-5.7462,6.0211-8.2658,7.7477-11.587,11.912-3.1869,3.8885-3.9007,11.141-0.66448,15.41"/>
<path d="m327.74,92.066c-3.16,2.9779-4.2133,8.4374-4.2133,9.43"/>
<path d="m325.11,104.97c-2.6334,3.9705-3.16,14.889-3.16,14.889"/>
<path d="m330.9,120.36c-6.32,5.4595-5.2666,12.904-5.2666,12.904"/>
<path d="m337.75,140.98c-1.0698,1.5336,3.166,7.5976,6.3201,7.173"/>
<path d="m360.92,193.31c-6.32,2.9777-9.4918,4.0363-15.8,1.4887"/>
<path d="m330.89,231.09c4.2133,4.4668,3.1717,16.318-3.1483,20.785-6.3198,4.4668-3.16,0.99264-3.16,0.99264"/>
<path d="m312.69,184.24c-1.5797,6.948-8.1222,11.558-8.1222,11.558"/>
<path d="m314.8,187.43c-3.16,8.9335-11.282,13.825-11.282,13.825"/>
<path d="m313.82,198.28c-5.7934,7.9411-13.465,12.904-13.465,12.904"/>
<path d="m311.79,206.64c-3.6867,5.4595-8.2745,8.5091-8.2745,8.5091"/>
<path d="m312.47,212.67c-3.6869,3.9703-8.4268,6.4521-8.4268,6.4521"/>
<path d="m315.63,216.64c-2.6334,3.4744-4.7399,7.4448-4.7399,7.4448"/>
<path d="m241.9,204.73c3.6867,3.9705,3.6867,4.4668,3.6867,7.9411,0,3.4742,3.16,7.9408,3.16,7.9408"/>
<path d="m234.52,210.19c1.5799,2.9779,5.7934,7.4445,5.7934,7.4445"/>
<path d="m223.99,214.65c2.1065,1.985,5.2666,3.9703,5.2666,3.9703"/>
<path d="m245.58,34.494c3.16-3.474,11.13-5.1064,13.764-2.6248,2.6332,2.4816,10.99,11.062,10.99,11.062"/>
<path d="m288.24,30.524c5.2666-4.4668,12.64-4.9632,12.64-4.9632s2.6334,6.9482,0.52664,10.423c-2.1065,3.474-13.167,3.474-13.167,3.474"/>
<path d="m270.86,113.41c-0.52664,6.4519-5.2668,19.852-5.2668,19.852"/>
<path d="m274.02,117.38c-0.52663,7.4445-5.2668,18.363-5.2668,18.363"/>
<path d="m277.18,124.33c-0.52663,7.445-4.2135,14.393-4.2135,14.393"/>
<path d="m280.87,133.26c-2.1068,6.9482-4.2133,11.415-4.2133,11.415"/>
<path d="m282.98,140.21c-1.0535,4.9632-3.6869,9.9261-3.6869,9.9261"/>
<path d="m285.61,144.67c0,2.9779-1.5799,6.4519-1.5799,6.4519"/>
<path d="m215.56,117.38c-1.0533,8.4372-3.6165,10.262-6.3961,6.5181,0.37461,3.8986-1.9663,6.4462-6.1738,4.825-1.0533,1.3515-3.7568,3.0498-3.7568,3.0498"/>
<path d="m193.97,129.79c-1.0533,3.9705-1.5799,9.4298-5.7932,8.4372"/>
<path d="m167.64,67.747c4.2133,0.49632,7.3733,0.49632,7.3733,0.49632"/>
<path d="m170.8,73.703c8.4267,0.99263,8.4267,0.99263,8.4267,0.99263"/>
<path d="m176.06,79.162c5.7934,2.9779,9.48,1.489,9.48,1.489"/>
<path d="m181.33,85.118c4.2133,1.985,8.9534,0,8.9534,0"/>
<path d="m189.23,92.066c6.32,0.99263,9.48-2.4814,9.48-2.4814"/>
<path d="m215.65,75.03c-1.8288,1.3884-3.6868,3.6158-3.4508,5.4716,2.6334,0,11.075,0.73691,11.075,0.73691"/>
<path d="m264.02,195.79c-2.6334-8.4372-14.22-18.363-14.22-18.363"/>
<path d="M256.12,195.79c-1.06-6.45-12.64-17.86-12.64-17.86"/>
<path d="m250.32,193.81c-0.52686-3.9705-12.113-14.393-12.113-14.393"/>
<path d="m246.64,192.82c-2.6332-3.474-12.113-9.9261-12.113-9.9261"/>
<path d="m241.9,195.3c0.52663-3.4742-4.7399-5.4595-4.7399-5.4595"/>
<path d="m279.29,188.35c-6.8465,2.9779-14.747-1.489-15.8-7.4448-1.0533-5.9558-12.113-7.9408-12.113-7.9408"/>
<path d="m261.38,53.354c1.0535,4.9632,2.6334,10.423,1.0535,13.897-1.5799,3.4742,9.4798-4.9632,7.9-8.9335-1.5801-3.9705,4.2133,1.985,2.6332,6.4521-1.5799,4.4666,7.9002-5.9558,6.8469-10.919-1.0535-4.9629,3.16-1.489,3.16,2.9779,0,4.4666,4.7397-5.9556,3.6864-8.4374-1.0533-2.4814-1.0533-2.4814-1.0533-2.4814"/>
<path d="m275.29,15.193c2.3701,2.3381,5.2507,2.2694,7.8972,1.7951,2.6465-0.47432,9.8971-4.0393,10.793-4.5764"/>
<path d="m286.14,24.568c2.6334-2.9779,11.06-3.474,11.06-3.474"/>
<path d="m217.59,104c-5.8575,0.84919-13.268,2.5476-16.873,5.52"/>
<path d="m253.43,15.261c-2.2529,14.437,8.1105,13.163,10.363,0.84919"/>
<path d="m312.68,28.088c-2.2106,8.0895,6.3978,13.562,13.255,13.838"/>
</g>
</svg>
