<?xml version="1.0" encoding="utf-8"?>
<!-- Generator: Adobe Illustrator 16.0.0, SVG Export Plug-In . SVG Version: 6.00 Build 0)  -->
<!DOCTYPE svg PUBLIC "-//W3C//DTD SVG 1.1//EN" "http://www.w3.org/Graphics/SVG/1.1/DTD/svg11.dtd">
<svg version="1.1" id="Calque_1" xmlns="http://www.w3.org/2000/svg" xmlns:xlink="http://www.w3.org/1999/xlink" x="0px" y="0px"
	 width="500px" height="300px" viewBox="0 0 500 300" enable-background="new 0 0 500 300" xml:space="preserve">
<rect fill="#ED2939" width="500" height="300"/>
<g>
	<g>
		<g transform="matrix(1.5874864,0,0,2.1364683,-8.587906,-161.08796)">
			<path fill="#002395" stroke="#650000" stroke-width="1.075" d="M168.995,136.52c-0.89,1.038,1.55,5.645,5.322,5.529
				c-2.461-2.849-2.201-6.163-2.201-6.163L168.995,136.52z"/>
			<path fill="#002395" stroke="#650000" stroke-width="1.075" d="M159.628,131.534c-1.36,0.145-4.641,6.202,0.591,8.363
				c0.167-3.76,2.63-5.992,2.63-5.992l-2.705-1.682L159.628,131.534L159.628,131.534z"/>
			<path fill="#002395" stroke="#650000" stroke-width="1.075" d="M158.99,127.917c-1.322-1.004-7.035,1.911-6.799,6.26
				c3.51-2.899,7.667-2.673,7.667-2.673L158.99,127.917L158.99,127.917z"/>
			<path fill="#002395" stroke="#650000" stroke-width="1.075" d="M165.596,124.399c-0.094-1.363-5.063-2.94-7.671-0.213
				c3.751,0.308,5.89,2.853,5.89,2.853L165.596,124.399L165.596,124.399z"/>
		</g>
		<g transform="matrix(1.5874864,0,0,2.1364683,-8.587906,-161.08796)">
			<path fill="#002395" stroke="#650000" stroke-width="1.075" d="M265.803,137.091c-0.09,1.249,0.352,1.684,1.201,2.386
				c0.85,0.702,1.812,2.786,1.812,2.786s2.721-5.49,2.04-6.227C270.176,135.298,265.972,137.055,265.803,137.091L265.803,137.091z"
				/>
			<path fill="#002395" stroke="#650000" stroke-width="1.075" d="M251.409,134.816c-1.355-0.188-3.917,4.351-1.785,7.465
				c1.072-3.608,4.002-5.178,4.002-5.178L251.409,134.816L251.409,134.816z"/>
			<path fill="#002395" stroke="#650000" stroke-width="1.075" d="M244.803,133.448c-1.054-0.869-5.615,1.655-5.428,5.425
				c2.803-2.512,6.121-2.316,6.121-2.316L244.803,133.448z"/>
			<path fill="#002395" stroke="#650000" stroke-width="1.075" d="M248.261,127.623c-0.727-1.159-5.851-0.203-6.865,3.432
				c3.454-1.499,6.539-0.264,6.539-0.264L248.261,127.623z"/>
		</g>
		<g transform="matrix(1.5874864,0,0,2.1364683,-7.595727,-161.088)">
			<path fill="#002395" stroke="#650000" stroke-width="1.075" d="M77.319,125.071c0.493-1.276-3.341-4.807-6.86-3.441
				c3.268,1.868,4.128,5.078,4.128,5.078L77.319,125.071z"/>
			<path fill="#002395" stroke="#650000" stroke-width="1.075" d="M62.626,133.045c-1.279-1.15-6.647,2.125-6.327,7.076
				c3.274-3.275,7.232-2.987,7.232-2.987L62.626,133.045L62.626,133.045z"/>
			<path fill="#002395" stroke="#650000" stroke-width="1.075" d="M63.095,126.036c-0.551-1.63-6.835-1.407-8.984,3.065
				c4.46-1.249,7.768,0.942,7.768,0.942L63.095,126.036L63.095,126.036z"/>
			<path fill="#002395" stroke="#650000" stroke-width="1.075" d="M69.495,139.265c-0.344,1.204,0,1.72,0.688,2.581
				c0.688,0.86,1.204,3.098,1.204,3.098s3.786-4.819,3.27-5.679C74.142,138.404,69.667,139.265,69.495,139.265L69.495,139.265z"/>
		</g>
		<g transform="matrix(1.5874864,0,0,2.1364683,-8.587906,-161.08796)">
			<path fill="#002395" stroke="#650000" stroke-width="1.075" d="M54.525,83.86c0-1.72-6.026-3.52-9.491,0.029
				c4.624,0.243,7.058,3.377,7.058,3.377L54.525,83.86L54.525,83.86z"/>
			<path fill="#002395" stroke="#650000" stroke-width="1.075" d="M48.271,90.709c-1.279-1.151-6.647,2.124-6.327,7.076
				c3.274-3.275,7.232-2.987,7.232-2.987L48.271,90.709L48.271,90.709z"/>
			<path fill="#002395" stroke="#650000" stroke-width="1.075" d="M70.14,83.265c0.582-1.62-4.479-5.351-8.942-3.182
				c4.269,1.793,5.5,5.566,5.5,5.566L70.14,83.265z"/>
			<path fill="#002395" stroke="#650000" stroke-width="1.075" d="M77.285,89.182c1.004-0.928-0.883-5.787-4.643-6.11
				c2.112,3.116,1.47,6.377,1.47,6.377L77.285,89.182z"/>
		</g>
	</g>
	<path fill="#FFD203" stroke="#650000" stroke-width="1.9798" d="M145.986,41.621c-6.004-6.793-0.071-19.182,5.312-13.897
		c-2.819-5.07,1.791-9.083,3.884-6.544c-0.974-4.126,3.448-6.862,5.616-3.053c-0.778-4.602,5.779-7.295,7.479-2.267
		c0.114-4.524,6.523-8.095,7.938-1.469c1.247-5.099,8.393-5.767,8.985,1.478c2.085-4.214,7.441-3.906,7.753,2.217
		c2.316-2.879,8.301,1.43,7.281,6.523c3.696-0.778,8.212,6.498,3.708,11.861c7.993-4.145,9.88,9.292,5.024,15.393
		c2.512,1.491,2.733,0.174,4.949,1.292c2.217,1.119,6.235,2.959,9.913,3.753c3.324,0,15.513-0.373,18.005-0.745
		c2.493-0.373,5.902-1.638,9.974-2.983c4.264-1.344,10.432-1.394,16.059-2.723c4.459-0.488,129.651,1.977,133.252,1.604
		c3.602-0.373,8.857-3.739,8.581-7.84c-0.277-4.101-4.425-7.074-8.581-7.446c-4.155-0.373-25.486-0.373-29.365,0.373
		c-3.877,0.745-9.418,2.609-12.187,5.22c-1.331,0.834-3.533,3.989-5.397,6.065c-1.745,1.431-6.673,1.642-6.673-0.223
		c0-1.218-0.415,0.235-1.626,0.707c-1.571,0.957-8.661,1.219-8.348,0c0.554-1.38-0.036-1.814-1.902-0.373
		c-1.385,1.119-11.184,1.53-12.982,0.423c1.078-1.753,1.087-1.653-1.857-0.212c-1.864,0.796-9.584,1.418-10.138-0.112
		c-0.074-1.207-0.949-0.616-2.038-0.272c-8.749,2.224-9.588-0.35-8.203-1.469c1.386-1.118,3.482-7.518,1.267-7.145
		c-2.217,0.373-16.067,2.982-20.776,3.728s-38.783,0-43.492-0.372c-4.708-0.373-9.972-4.682-10.25-10.812
		c-0.493-9.833,7.757-12.303,12.743-13.794c4.986-1.491,17.452-3.728,22.439-3.728c4.986,0,19.209,1.715,23.088,0.224
		c3.878-1.49,15.655-5.657,18.982-5.965c4.91-0.443,18.977,1.173,25.68,9.009c-3.49,1.541-5.132,2.448-1.171,1.058
		c3.601-0.746,19.059-3.878,22.66-4.698c12.468-0.522,9.196,1.343,3.103,2.833c-2.034,6.304-20.353,15.103-26.172,16.221
		c-5.817,1.119-18.162,0.299-20.923-0.189c-2.77-0.202-15.878-0.839-20.649-3.845c-7.711-5.084-21.955-8.426-28.202-8.309
		c-5.843,0.113-22.511,1.815-22.438,7.457c-0.087,9.906,15.513,10.439,22.162,10.066c6.648-0.373,23.27-1.119,27.979-2.983
		c4.708-1.864,14.895-2.322,20.436-2.322c5.54,0,13.638,1.204,16.13,0.831c2.493-0.373,8.311-0.457,11.081-2.321
		s8.794-3.813,14.889-3.813c6.094,0,51.32-1.694,57.413-1.321c8.823-0.059,15.057,9.316,15.162,17.288
		c0.051,3.727-1.828,9.237-3.424,10.091c2.738,0.245,9.589,0.996,11.849,1.454c4.243,0.819,11.121,5.365,11.909,9.507
		c-3.223-1.903-8.425-4.777-13.112-5.091c-0.918,0.011-99.645-0.161-107.399-0.114c21.096,2.424,37.217,18.219,41.244,27.263
		c3.602,5.592,12.467,3.355,15.79,2.61c3.325-0.747,7.203-4.102,9.974-6.711c2.771-2.61,7.102-3.272,9.058-2.61
		c4.306-0.372,5.071,4.102,3.409,6.337c-1.662,2.238,0.275,1.318,4.707,1.318c4.433,0,8.342,1.605,10.955,4.99
		c-2.494,2.238-3.751,0.402-0.15,0.775c3.602,0.374,7.95,6.795,5.265,8.606c-2.348,1.131-3.048,0.714,0,1.087
		c4.543,0.373,5.78,3.234,6.371,8.315c-3.846,0.686-1.939-0.487,0,1.378s4.765,10.12-2.217,10.438
		c-2.493-1.118-2.447-1.334-1.916,1.202c0.492,2.609-0.854,8.865-4.731,8.865c-5.374,1.006-10.251-1.864-10.805-5.22
		c-0.554-3.354-0.481,6.476-8.099,8.027c-7.193,1.557-11.016-2.434-11.569-4.298c-0.555-1.865-0.277-0.373-3.047-0.747
		c-2.771-0.372-6.262-0.406-7.756-4.846c0-2.61,0.54-6.05,5.474-6.515c2.217-0.372,2.837-3.179,1.173-3.552
		c-1.662-0.373-0.276-5.964,3.324-4.474c3.602,1.492,11.912,1.865,13.852,3.728c1.939,1.863,2.494-1.491-0.554-4.474
		c-3.047-2.983-21.606-8.948-26.595-6.71c-11.611,5.687-31.026,4.846-34.35,4.102c-3.324-0.747-12.925,1.288-17.452-12.303
		c-3.672-13.878-17.627-20.737-23.998-21.484c-31.431-2.876-29.724-0.664-9.34,0.274c-0.152,2.591-0.891,7.896,2.413,8.673
		c5.542-0.745,17.072-3.123,19.844-0.886c2.771,2.236,5.541,4.101,4.985,9.32c-0.554,5.219,0.277,3.729-2.217,5.965
		c-2.493,2.238-1.385,6.711,2.494,8.203c3.878,1.489,5.541,3.354,8.034,5.591s-1.108,6.711-3.325,5.22
		c-2.216-1.492-2.216-1.492-2.493,1.491c-0.277,2.982-3.031,8.626-7.713,9.04c-0.981-0.361-0.71-1.904-0.597-3.076
		c0.276-2.61-0.936,3.243-2.385,4.866c-0.922,1.095-8.764,3.239-10.98,2.121c0.99-2.334,0.418-1.382-1.521-0.263
		c-1.892,0.734-12.103,2.114-7.552-2.622c1.18-1.725-1.623,2.154-3.169,2.831c-1.3,0.787-7.358,1.27-7.358-0.967
		c-1.924,1.644-6.5,1.646-7.202,0.373c-1.384-1.491-1.517,1.119-4.009,1.491s-7.903-0.372-8.18-3.356
		c-0.277-2.982,0.554-1.118-2.493-0.746c-7.418,4.784-11.081-1.865-11.081-4.101c0-2.238-0.277-4.847,0.554-6.338
		c0.831-1.491-5.161-1.941-3.324-4.878c2.065-3.589,4.234-6.222,8.31-5.562c1.94,0.373,1.663-0.745,0.832-2.237
		c-0.832-1.49,2.216-2.236,5.817-0.746c3.602,1.492,6.095,5.22,7.203,8.575c1.107,3.355,9.695,0.746,13.297,1.118
		c3.602,0.374,3.878-5.592,1.662-7.456c-2.218-1.866-8.312-8.575-10.805-10.812c-2.494-2.237-0.832-10.066,1.385-11.93
		c12.9-8.479,5.818-11.185,1.106-10.439c-4.708,0.746-16.81,5.454-20.688,9.556c-3.878,4.1-34.01,24.201-36.78,26.437
		c-2.771,2.237-6.8,2.78-8.461,0.17c-1.662-2.611-2.771-0.745-2.494,2.984c2.201,14.08-10.805,18.568-13.085,18.39
		c-1.587-0.158-3.861-1.017-5.5-2.342c-1.617,7.869-8.766,8.65-15.224,7.874c-0.1-0.928,1.205-2.664,0.492-1.999
		c-2.135,2.703-8.696,2.418-14.329,2.008c-0.375-1.646,1.942-3.639,0.834-2.521c-1.891,3.46-5.142,2.841-10.411,2.474
		c-0.062-0.729,2.441-3.168,1.275-1.709c-2.307,2.452-7.11,1.685-10.837,1.746c-0.441-0.549,1.927-4.403-0.24-1.857
		c-2.071,2.173-6.458,2.536-10.651,1.953c-0.747-1.833,0.873-1.851,1.318-3.001c1.108-1.865-0.554,0-1.939,0
		c-1.385,0-3.325,0.372-4.156-1.492s-0.354,1.865-1.159,2.88c-0.804,0.88-1.712,2.949-4.482,3.693
		c-2.771,0.746-9.973,1.492-11.081-1.864c-1.493-1.545-2.217-4.846-1.108-6.711c1.108-1.864-5.275,3.597-8.033,4.102
		c-8.113,1.523-9.142-10.812-5.541-11.929c3.602-1.12,3.047-2.984,1.108-4.474c-1.939-1.492-3.047-7.458-0.554-9.321
		c2.493-1.864,8.263-2.896,11.912-0.746c2.134,1.426,6.704,6.315,5.817,2.61c-0.618-2.291,0.962-5.203,2.73-6.455
		c1.535-1.375,6.26-1.726,7.519,1.235c2.919,6.862,4.986,9.815,8.588,9.693c7.671-2.039,18.04-4.347,21.086-4.347
		c3.91-0.903,24.61-2.877,24.61-4.741c-12.415,4.178-17.433-1.229-18.818-0.857c-1.385,0.372-4.795-1.21-4.795-2.251
		c0-2.238,3.126-1.971-1.307-1.225c-2.653-0.211-5.017-0.332-7.251-3.024c-0.365-1.376,2.935-6.105,4.133-10.08
		c-2.861-0.751-9.187,4.253-11.259,8.669c-1.453-1.694-2.042-0.155-7.232,1.078c-2.448,1.038-6.431,0.666-8.647-0.454
		c-2.216-1.118-10.897-7.515-6.698-8.339c-1.104-0.525-2.375-0.826-3.212-1.051c-3.046-1.266-5.927-3.725-5.042-4.398
		c-0.771-1.121,0.882-1.116-0.338-1.341c-1.662-0.372-5.755-3.275-4.704-4.397c-1.049-0.673-3.54-1.713-4.596-2.236
		c-1.939-1.12-3.882-5-4.159-6.864c-1.787,0.168-5.6-3.12-3.878-4.101c-2.912-2.102-5.389-5.562-3.45-6.68
		c-1.699-1.302-2.886-3.68-1.703-2.79c-1.766-2.102-1.219-4.325,0.167-4.325c1.385,0,0.831-5.965-1.662-5.965s-6.503,1.881-9.419,0
		c-2.398-1.784-4.433-9.694-2.217-13.049c2.217-3.355,6.648-7.083,8.865-6.711c2.217,0.373,1.108,1.119,0.554-2.237
		c-0.554-3.356,3.128-5.875,5.541-6.711c2.924-1.3,8.588-0.373,10.25,1.119c1.662,1.491,2.216,1.491,2.216-1.119
		c0-1.834,2.14-2.79,4.044-3.27c3.172-0.728,5.651,0.148,6.759,1.406c1.722,2.398,2.771,5.22,0.554,7.457
		c-2.216,2.237-0.293,0.341,3.309-0.404c2.319-0.746,6.504,0.215,7.218,2.641c0.962,2.609,1.662,7.084-0.831,9.321
		c-2.493,2.237-6.095,7.829-4.156,9.693c1.94,1.864,8.034,10.066,9.419,11.185c1.385,1.118,3.047,3.727,5.264,3.354
		c2.215-0.372,4.709-0.745,6.648-1.118c7.696-1.504,11.166-2.287,1.287-1.98c2.218-3.046,6.862-3.944,8.877-4.481
		c-1.774-2.595,4.794-8.078,4.794-8.823L145.986,41.621z"/>
	<path fill="#002395" stroke="#650000" stroke-width="2.0846" d="M158.895,55.268c3.696,6.274,12.512,2.51,14.787,5.019
		c2.274,2.51-2.21,11.252-3.632,16.272c-3.285,4.322-10.602,4.041-13.293,0.832c1.449-5.995,1.57-18.776,1.854-19.194
		L158.895,55.268L158.895,55.268z"/>
	<path fill="none" stroke="#650000" stroke-width="1.9798" d="M423.895,123.396c-1.205-3.244-4.822-4.056-4.822-4.056"/>
	<g>
		<path fill="none" stroke="#650000" stroke-width="1.8085" stroke-opacity="0.3" d="M193.962,66.96
			c2.731,5.147,3.535,13.886,0.449,18.125"/>
		<path fill="none" stroke="#650000" stroke-width="1.8085" stroke-opacity="0.3" d="M184.125,78.728
			c2.732,1.471,6.557,10.293,6.011,13.237c-0.546,2.941-0.546,2.941-0.546,2.941"/>
		<path fill="none" stroke="#650000" stroke-width="1.8085" stroke-opacity="0.3" d="M183.034,82.403
			c1.639,4.413,3.825,11.031,3.278,13.238c-0.546,2.206-0.546,2.206-0.546,2.206"/>
		<path fill="none" stroke="#650000" stroke-width="1.8085" stroke-opacity="0.3" d="M173.197,86.81
			c1.093,4.413,0.546,11.766-1.093,13.237c-1.639,1.471-1.639,1.471-1.639,1.471"/>
		<path fill="none" stroke="#650000" stroke-width="1.8085" stroke-opacity="0.3" d="M170.46,87.549
			c-1.639,5.147-3.278,12.5-3.278,12.5"/>
		<path fill="none" stroke="#650000" stroke-width="1.8085" stroke-opacity="0.2994" d="M144.24,73.582
			c-2.732,2.207-6.557,7.354-6.557,7.354"/>
		<path fill="none" stroke="#650000" stroke-width="1.8085" stroke-opacity="0.2994" d="M147.513,80.934
			c-4.371-2.941-9.289,2.207-9.289,2.207"/>
	</g>
	<g>
		<path fill="none" stroke="#660000" stroke-width="2.3711" d="M207.668,40.378c-2.881,1.273-2.456,7.915-2.456,7.915"/>
		<path fill="none" stroke="#660000" stroke-width="2.0797" d="M146.389,31.133c3.076,2.113,1.846,8.448,1.846,8.448"/>
	</g>
	<path fill="#390000" fill-opacity="0.5987" d="M142.578,89.126c-1.175,3.438-3.112,6.099-2.805,8.235l-1.812-0.802
		c1.421,0.493-1.616-5.56-2.351-4.419l1.7-1.206l0.394-0.664l0.847-0.412L142.578,89.126L142.578,89.126z"/>
	<g>
		<path fill="none" stroke="#650000" stroke-width="1.9798" d="M75.235,25.771c5.983,0.576,8.975,5.177,10.257,9.204
			c1.282,4.026,2.137,6.326,2.137,6.326"/>
		<path fill="none" stroke="#650000" stroke-width="1.9798" d="M103.018,23.214c-3.42,4.026-2.992,11.503-2.992,11.503"/>
		<path fill="none" stroke="#650000" stroke-width="1.9798" d="M202.858,109.194c2.109-7.284,6.065-8.924,11.014-11.307
			c5.123-2.028,12.922-8.162,8.1-3.701c-4.822,4.461-11.779,7.3-14.19,8.924c-2.411,1.623-3.918,5.239-2.688,6.895"/>
		<path fill="none" stroke="#650000" stroke-width="1.9798" stroke-linecap="round" d="M192.736,81.614
			c4.521,7.3,1.727,17.462-3.999,20.301"/>
		<path fill="none" stroke="#650000" stroke-width="1.9798" d="M207.811,56.468c7.338,2.963,7.599,9.936,8.656,14.057
			c-2.586-1.164-4.466-0.604-6.407-1.463"/>
		<path fill="none" stroke="#650000" stroke-width="1.9798" d="M202.145,80.474c0,6.489-4.61,9.152-6.72,9.963"/>
		<path fill="none" stroke="#650000" stroke-width="1.9798" d="M92.596,18.636c0.603,3.65-0.301,4.461-1.206,7.707
			c-0.904,3.245,0.301,8.924,0.301,8.924"/>
		<path fill="none" stroke="#650000" stroke-width="1.9798" d="M400.218,88.229c-3.015-0.406-7.534,1.217-7.534,1.217"/>
		<path fill="none" stroke="#650000" stroke-width="1.9798" d="M414.227,93.818c-4.22,1.622-9.042,2.028-9.042,2.028"/>
		<path fill="none" stroke="#650000" stroke-width="1.9798" d="M419.648,103.176c-3.618-0.404-6.33-0.404-6.33-0.404"/>
		<path fill="none" stroke="#650000" stroke-width="1.9798" d="M426.682,111.981c-3.617-0.405-9.343,0-9.343,0"/>
		<path fill="none" stroke="#650000" stroke-width="1.9798" d="M388.374,130.941c0.905-4.867,6.895-8.767,10.209-8.767h3.315"/>
		<path fill="none" stroke="#650000" stroke-width="1.9798" d="M383.397,120.181c3.617-1.216,9.343-1.621,9.343-1.621"/>
		<path fill="none" stroke="#650000" stroke-width="1.9798" d="M139.296,55.209c-10.064,5.15-11.783,9.704-10.213,20.554"/>
		<path fill="none" stroke="#650000" stroke-width="1.9664" d="M181.397,77.787c0.586,5.792,0.932,21.974-5.224,26.11
			c-6.155,4.137-13.863,4.625-19.88,2.64"/>
		<path fill="none" stroke="#650000" stroke-width="1.9798" d="M167.774,86.759c-0.604,5.694-6.478,19.875-17.922,17.927"/>
		<path fill="none" stroke="#650000" stroke-width="1.9798" d="M347.592,47.639c1.508-4.462,8.438-8.518,8.438-8.518"/>
		<path fill="none" stroke="#650000" stroke-width="1.9798" d="M337.512,47.403c3.015-5.272,8.438-8.518,8.438-8.518"/>
		<path fill="none" stroke="#650000" stroke-width="1.9798" d="M322.807,47.89c4.579-2.682,5.865-3.742,7.369-5.124
			c1.623-1.543,4.821-4.461,4.821-4.461"/>
		<path fill="none" stroke="#650000" stroke-width="1.8846" d="M310.031,47.731c3.354-1.704,5.951-2.705,8.197-4.321
			c2.817-1.923,4.767-4.524,4.767-4.524"/>
		<path fill="none" stroke="#650000" stroke-width="1.9798" d="M312.776,33.647c-10.651-3.526-15.418-10.529-15.418-10.529"/>
		<path fill="none" stroke="#650000" stroke-width="1.9798" d="M330.512,18.72c-7.056,2.861-21.398,1.623-22.001,1.623"/>
		<path fill="none" stroke="#650000" stroke-width="1.9798" d="M148.948,101.037c3.617-2.839,6.463-8.688,6.463-8.688"/>
		<path fill="none" stroke="#650000" stroke-width="2.1425" d="M146.002,71.878c-5.31-0.813-18.741,10.501-14.409,24.569"/>
		<path fill="none" stroke="#650000" stroke-width="2.4657" d="M136.778,64.887c-6.838,1.784-9.624,13.951-5.98,20.493"/>
		<path fill="none" stroke="#650000" stroke-width="1.8085" d="M204.915,60.48c4.985,6.631,6.884,10.685,7.171,12.996
			c0.47,4.01,0.493,13.901-11.288,13.74c1.098-2.947,2.485-10.726,0.6-13.85"/>
		<path fill="none" stroke="#650000" stroke-width="3.8447" stroke-linecap="round" d="M187.448,35.259
			c-0.546,3.326-0.546,3.326-0.546,3.326"/>
		<path fill="none" stroke="#650000" stroke-width="3.1188" stroke-linecap="round" d="M164.971,29.254
			c-0.642,2.502-1.78,5.073-1.78,5.073"/>
		<path fill="none" stroke="#650000" stroke-width="1.9798" d="M173.532,23.471c0.855,7.477-2.564,11.504-4.701,11.504
			c-2.137,0-4.523,2.791-3.211,7.277"/>
		<path fill="none" stroke="#650000" stroke-width="1.9798" d="M182.463,22.32c-3.847,5.176-4.701,10.929-3.418,15.53
			c1.282,4.601,0.066,5.939,0.066,5.939"/>
		<path fill="none" stroke="#650000" stroke-width="1.9798" d="M199.602,47.63H194.9c0,0-2.991,6.328-8.12,4.601
			c-5.128-1.725-0.427,0-0.427,0"/>
		<path fill="none" stroke="#650000" stroke-width="1.9798" d="M174.388,42.351c7.318,0.185,5.846,5.851,0.428,5.276
			c0.427,6.902-8.088,6.032-7.359,0.745c-5.121,0.15-7.222-6.833,0.216-5.867"/>
		<path fill="none" stroke="#650000" stroke-width="1.9798" d="M184.301,51.6c0.301,7.707-14.165,13.385-13.864,1.623"/>
		<path fill="none" stroke="#650000" stroke-width="1.9954" d="M170.394,53.631c-0.307,5.679-8.267,6.895-11.022,2.028
			c-2.144-3.245-3.369-4.867-4.899-5.272c-1.53-0.406-1.358-5.128-1.668-5.823c-0.186-0.944-1.176-3.385-1.672-4.302"/>
		<path fill="none" stroke="#650000" stroke-width="1.9798" d="M193.039,30.104c-3.617,3.65-3.918,4.057-3.918,4.057"/>
		<path fill="none" stroke="#650000" stroke-width="1.9798" d="M196.656,36.996c-4.823,0.406-5.082,0.196-5.082,0.196"/>
		<path fill="none" stroke="#650000" stroke-width="2.2432" d="M179.492,34.26c3.565-1.271,11.863-0.203,11.743,2.754
			c0.005,3.63-3.244,3.852-11.816,0.417l0.073-2.665V34.26L179.492,34.26z"/>
		<path fill="none" stroke="#650000" stroke-width="1.8222" d="M168.245,34.637c0.444-4.312-8.218-8.564-10.327-6.159
			c-2.569,3.975,4.72,7.52,6.653,7.52c1.808,0,0.737,0.225,0.737,0.225"/>
		<path fill="none" stroke="#650000" stroke-width="1.9798" d="M191.771,50.786c-3.278,8.824-0.546,16.912-0.546,16.912"/>
		<path fill="none" stroke="#650000" stroke-width="1.9798" d="M152.978,52.985c-2.732,2.206-4.917,1.47-4.917,1.47"/>
		<path fill="none" stroke="#650000" stroke-width="2.0843" d="M158.298,53.379c-0.339,8.059-4.83,12.356-4.83,12.356"/>
		<path fill="none" stroke="#650000" stroke-width="2.301" d="M153.766,49.636c-2.312,8.783,0.649,15.84,0.649,15.84"/>
		<path fill="none" stroke="#650000" stroke-width="2.0754" d="M176.646,59.918c-0.548,7.974,3.43,12.933,3.43,12.933"/>
		<path fill="none" stroke="#650000" stroke-width="2.2912" d="M181.548,56.98c1.327,9.009-2.382,15.455-2.382,15.455"/>
		<path fill="none" stroke="#650000" stroke-width="1.9798" d="M208.935,51.902c0.896,0.433,3.188,0.036,7.404,1.753
			c-1.745,2.5-6.243,3.952-7.995,3.221"/>
		<path fill="none" stroke="#650000" stroke-width="1.9798" d="M80.333,58.524c2.565,1.151,7.266,0,7.266,0"/>
		<path fill="none" stroke="#650000" stroke-width="1.8012" d="M82.831,64.727c5.661,1.726,11.321-1.151,11.321-1.151"/>
		<path fill="none" stroke="#650000" stroke-width="1.9798" d="M109.426,89.613c5.983-1.725,9.83-5.177,9.83-5.177"/>
		<path fill="none" stroke="#650000" stroke-width="1.9798" d="M91.006,120.441c3.014-0.812,9.342,0,9.342,0"/>
		<path fill="none" stroke="#650000" stroke-width="1.9798" d="M102.24,130.026c1.809-3.244,6.028-6.083,6.028-6.083"/>
		<path fill="none" stroke="#650000" stroke-width="1.9798" d="M136.082,134.35c1.506-2.028,1.506-8.518,1.506-8.518"/>
		<path fill="none" stroke="#650000" stroke-width="1.9798" d="M147.077,134.299c2.399-2.661,2.531-8.372,2.531-8.372"/>
		<path fill="none" stroke="#650000" stroke-width="1.9798" d="M155.814,134.148c2.412-4.462,2.017-9.618,2.017-9.618"/>
		<path fill="none" stroke="#650000" stroke-width="1.9798" d="M169.503,134.643c1.507-2.433,1.507-8.111,1.507-8.111"/>
		<path fill="none" stroke="#650000" stroke-width="1.9798" d="M267.176,121.768c-5.425-1.216-8.74,6.084-8.74,6.084"/>
		<path fill="none" stroke="#650000" stroke-width="1.9798" d="M274.301,120.592c-0.603,5.274-4.82,10.141-4.82,10.141"/>
		<path fill="none" stroke="#650000" stroke-width="1.9798" d="M282.854,120.148c-0.301,4.462-5.124,10.546-5.124,10.546"/>
		<path fill="none" stroke="#650000" stroke-width="1.9798" d="M293.489,118.369c-0.794,5.934-5.132,10.382-5.132,10.382"/>
		<path fill="none" stroke="#650000" stroke-width="1.9798" d="M301.319,116.278c0.302,5.273-2.41,13.385-4.219,15.007"/>
		<path fill="none" stroke="#650000" stroke-width="1.9798" d="M310.661,118.528c0.905,2.839,0,6.895,0,6.895"/>
		<path fill="none" stroke="#650000" stroke-width="1.9798" d="M251.725,107.466c3.616,0.812,5.727,4.868,5.727,4.868"/>
		<path fill="none" stroke="#650000" stroke-width="1.9798" d="M245.555,117.646c1.901-6.385,10.09-3.266,11.081-1.552"/>
		<path fill="none" stroke="#650000" stroke-width="1.9798" stroke-linecap="round" d="M219.402,105.543
			c-5.186,1.72-7.617,1.839-9.312,0.318"/>
		<path fill="none" stroke="#650000" stroke-width="1.9129" stroke-linecap="round" d="M225.176,101.305
			c-4.549,1.72-7.14,2.31-9.399,0.906"/>
		<path fill="none" stroke="#650000" stroke-width="1.5599" stroke-linecap="round" d="M232.873,96.118
			c-3.025,1.72-4.748,2.31-6.25,0.906"/>
		<path fill="none" stroke="#650000" stroke-width="1.7257" stroke-linecap="round" d="M238.211,92.123
			c-3.702,1.721-5.811,2.31-7.649,0.906"/>
		<path fill="none" stroke="#650000" stroke-width="1.9798" d="M92.152,18.636c0.603,3.65-0.301,4.461-1.205,7.707
			c-0.904,3.245,0.302,8.924,0.302,8.924"/>
		<path fill="none" stroke="#650000" stroke-width="1.9798" d="M103.608,23.214c-3.419,4.026-2.992,11.503-2.992,11.503"/>
		<path fill="none" stroke="#650000" stroke-width="2.0032" d="M75.678,24.976c6.126,0.575,9.189,5.176,10.502,9.203
			c1.312,4.026,2.187,6.327,2.187,6.327"/>
	</g>
</g>
<g>
	<g>
		<g transform="matrix(1.5874864,0,0,2.1364683,-8.587906,-161.08796)">
			<path fill="#002395" stroke="#650000" stroke-width="1.075" d="M168.469,203.992c-0.89,1.038,1.55,5.645,5.322,5.529
				c-2.461-2.849-2.2-6.163-2.2-6.163L168.469,203.992z"/>
			<path fill="#002395" stroke="#650000" stroke-width="1.075" d="M159.102,199.006c-1.36,0.146-4.641,6.202,0.591,8.363
				c0.167-3.76,2.631-5.992,2.631-5.992l-2.705-1.683L159.102,199.006L159.102,199.006z"/>
			<path fill="#002395" stroke="#650000" stroke-width="1.075" d="M158.464,195.389c-1.322-1.004-7.035,1.911-6.799,6.259
				c3.51-2.899,7.667-2.673,7.667-2.673L158.464,195.389L158.464,195.389z"/>
			<path fill="#002395" stroke="#650000" stroke-width="1.075" d="M165.07,191.872c-0.094-1.364-5.063-2.94-7.672-0.213
				c3.751,0.308,5.89,2.853,5.89,2.853L165.07,191.872L165.07,191.872z"/>
		</g>
		<g transform="matrix(1.5874864,0,0,2.1364683,-8.587906,-161.08796)">
			<path fill="#002395" stroke="#650000" stroke-width="1.075" d="M265.276,204.563c-0.09,1.248,0.353,1.684,1.202,2.386
				c0.85,0.701,1.812,2.786,1.812,2.786s2.721-5.49,2.04-6.227C269.649,202.77,265.445,204.527,265.276,204.563L265.276,204.563z"/>
			<path fill="#002395" stroke="#650000" stroke-width="1.075" d="M250.882,202.287c-1.355-0.188-3.917,4.352-1.784,7.465
				c1.072-3.608,4.001-5.178,4.001-5.178L250.882,202.287L250.882,202.287z"/>
			<path fill="#002395" stroke="#650000" stroke-width="1.075" d="M244.276,200.919c-1.054-0.869-5.615,1.656-5.429,5.425
				c2.804-2.512,6.121-2.316,6.121-2.316L244.276,200.919z"/>
			<path fill="#002395" stroke="#650000" stroke-width="1.075" d="M247.735,195.095c-0.727-1.159-5.851-0.203-6.865,3.432
				c3.454-1.498,6.54-0.264,6.54-0.264L247.735,195.095z"/>
		</g>
		<g transform="matrix(1.5874864,0,0,2.1364683,-7.595727,-161.088)">
			<path fill="#002395" stroke="#650000" stroke-width="1.075" d="M76.793,192.544c0.493-1.276-3.341-4.807-6.86-3.441
				c3.268,1.868,4.128,5.078,4.128,5.078L76.793,192.544z"/>
			<path fill="#002395" stroke="#650000" stroke-width="1.075" d="M62.099,200.517c-1.279-1.15-6.647,2.125-6.327,7.076
				c3.274-3.275,7.232-2.987,7.232-2.987L62.099,200.517L62.099,200.517z"/>
			<path fill="#002395" stroke="#650000" stroke-width="1.075" d="M62.568,193.508c-0.551-1.63-6.835-1.407-8.984,3.065
				c4.459-1.248,7.768,0.943,7.768,0.943L62.568,193.508L62.568,193.508z"/>
			<path fill="#002395" stroke="#650000" stroke-width="1.075" d="M68.969,206.736c-0.344,1.205,0,1.72,0.688,2.581
				c0.688,0.86,1.204,3.098,1.204,3.098s3.786-4.819,3.27-5.679C73.615,205.876,69.141,206.736,68.969,206.736L68.969,206.736z"/>
		</g>
		<g transform="matrix(1.5874864,0,0,2.1364683,-8.587906,-161.08796)">
			<path fill="#002395" stroke="#650000" stroke-width="1.075" d="M53.998,151.333c0-1.72-6.025-3.521-9.491,0.029
				c4.624,0.244,7.058,3.378,7.058,3.378L53.998,151.333L53.998,151.333z"/>
			<path fill="#002395" stroke="#650000" stroke-width="1.075" d="M47.744,158.181c-1.279-1.151-6.647,2.125-6.327,7.076
				c3.274-3.275,7.232-2.988,7.232-2.988L47.744,158.181L47.744,158.181z"/>
			<path fill="#002395" stroke="#650000" stroke-width="1.075" d="M69.614,150.737c0.582-1.62-4.48-5.351-8.942-3.182
				c4.269,1.793,5.499,5.566,5.499,5.566L69.614,150.737z"/>
			<path fill="#002395" stroke="#650000" stroke-width="1.075" d="M76.759,156.654c1.004-0.928-0.883-5.787-4.643-6.11
				c2.112,3.115,1.47,6.377,1.47,6.377L76.759,156.654z"/>
		</g>
	</g>
	<path fill="#FFD203" stroke="#650000" stroke-width="1.9798" d="M145.15,185.772c-6.004-6.793-0.07-19.181,5.312-13.897
		c-2.819-5.07,1.791-9.084,3.883-6.544c-0.974-4.127,3.448-6.862,5.617-3.054c-0.779-4.603,5.779-7.296,7.479-2.267
		c0.114-4.524,6.523-8.095,7.938-1.47c1.248-5.099,8.393-5.768,8.985,1.479c2.085-4.215,7.441-3.906,7.752,2.216
		c2.316-2.878,8.301,1.43,7.282,6.523c3.696-0.778,8.212,6.498,3.707,11.861c7.993-4.146,9.881,9.292,5.024,15.392
		c2.512,1.492,2.732,0.176,4.948,1.294c2.217,1.118,6.235,2.959,9.913,3.753c3.325,0,15.513-0.373,18.006-0.745
		c2.493-0.373,5.901-1.639,9.973-2.983c4.264-1.344,10.431-1.394,16.059-2.723c4.459-0.487,129.651,1.977,133.253,1.604
		c3.602-0.374,8.857-3.739,8.58-7.84s-4.425-7.073-8.58-7.446c-4.155-0.372-25.486-0.372-29.365,0.373
		c-3.878,0.744-9.419,2.608-12.188,5.219c-1.331,0.835-3.532,3.989-5.396,6.065c-1.745,1.431-6.673,1.643-6.673-0.223
		c0-1.219-0.415,0.234-1.625,0.707c-1.572,0.957-8.662,1.219-8.349,0c0.554-1.38-0.036-1.814-1.902-0.372
		c-1.385,1.118-11.183,1.53-12.982,0.423c1.078-1.754,1.088-1.653-1.857-0.212c-1.864,0.796-9.584,1.419-10.138-0.112
		c-0.074-1.206-0.949-0.615-2.038-0.272c-8.749,2.225-9.588-0.35-8.203-1.469c1.386-1.117,3.482-7.518,1.268-7.144
		c-2.218,0.372-16.068,2.981-20.777,3.728s-38.783,0-43.492-0.372c-4.708-0.373-9.972-4.682-10.25-10.812
		c-0.493-9.833,7.757-12.303,12.742-13.795c4.987-1.491,17.452-3.728,22.438-3.728c4.987,0,19.21,1.715,23.089,0.223
		c3.878-1.489,15.654-5.656,18.982-5.964c4.91-0.443,18.977,1.173,25.68,9.009c-3.49,1.542-5.131,2.449-1.17,1.058
		c3.6-0.746,19.059-3.878,22.66-4.697c12.467-0.522,9.196,1.343,3.102,2.833c-2.035,6.305-20.353,15.103-26.172,16.221
		c-5.816,1.12-18.162,0.299-20.923-0.189c-2.771-0.202-15.878-0.839-20.649-3.845c-7.711-5.084-21.956-8.426-28.201-8.31
		c-5.844,0.114-22.511,1.816-22.438,7.457c-0.087,9.905,15.513,10.439,22.161,10.065c6.648-0.372,23.27-1.118,27.979-2.982
		c4.708-1.864,14.895-2.322,20.436-2.322s13.638,1.203,16.131,0.831c2.492-0.373,8.31-0.457,11.08-2.321
		c2.771-1.865,8.793-3.813,14.889-3.813c6.095,0,51.319-1.694,57.413-1.321c8.822-0.059,15.057,9.315,15.162,17.288
		c0.051,3.727-1.828,9.237-3.423,10.091c2.737,0.245,9.588,0.995,11.847,1.454c4.244,0.817,11.123,5.365,11.91,9.506
		c-3.223-1.903-8.425-4.777-13.111-5.091c-0.918,0.011-99.646-0.161-107.4-0.114c21.096,2.424,37.217,18.219,41.244,27.263
		c3.602,5.592,12.467,3.355,15.79,2.61c3.324-0.746,7.203-4.102,9.974-6.712c2.771-2.609,7.102-3.271,9.058-2.609
		c4.306-0.372,5.071,4.102,3.409,6.337c-1.662,2.238,0.275,1.318,4.708,1.318c4.432,0,8.341,1.604,10.954,4.99
		c-2.493,2.237-3.751,0.403-0.149,0.775c3.602,0.374,7.949,6.795,5.264,8.606c-2.347,1.131-3.047,0.715,0,1.088
		c4.543,0.372,5.78,3.233,6.371,8.314c-3.847,0.686-1.939-0.486,0,1.379c1.938,1.864,4.765,10.12-2.217,10.438
		c-2.493-1.118-2.447-1.334-1.916,1.203c0.493,2.608-0.854,8.864-4.731,8.864c-5.373,1.007-10.25-1.864-10.805-5.22
		c-0.554-3.354-0.481,6.476-8.098,8.027c-7.193,1.556-11.017-2.434-11.57-4.298c-0.555-1.865-0.277-0.374-3.046-0.748
		c-2.771-0.372-6.263-0.406-7.758-4.846c0-2.609,0.541-6.049,5.476-6.515c2.217-0.372,2.836-3.178,1.172-3.551
		c-1.662-0.373-0.276-5.965,3.325-4.474c3.602,1.492,11.911,1.864,13.851,3.729c1.94,1.862,2.494-1.492-0.553-4.474
		c-3.048-2.984-21.607-8.949-26.595-6.712c-11.611,5.687-31.027,4.846-34.35,4.102c-3.325-0.746-12.927,1.289-17.452-12.303
		c-3.672-13.879-17.628-20.737-23.998-21.483c-31.432-2.877-29.725-0.664-9.341,0.274c-0.152,2.591-0.89,7.896,2.413,8.673
		c5.543-0.746,17.073-3.123,19.844-0.887s5.541,4.102,4.985,9.321c-0.555,5.218,0.277,3.728-2.217,5.964
		c-2.493,2.237-1.385,6.711,2.494,8.203c3.878,1.49,5.542,3.354,8.034,5.592c2.493,2.235-1.108,6.711-3.325,5.22
		c-2.216-1.492-2.216-1.492-2.493,1.491c-0.277,2.982-3.031,8.626-7.713,9.039c-0.982-0.36-0.71-1.903-0.597-3.075
		c0.277-2.609-0.937,3.242-2.385,4.865c-0.922,1.096-8.765,3.239-10.98,2.121c0.99-2.334,0.418-1.382-1.521-0.262
		c-1.892,0.732-12.103,2.113-7.552-2.623c1.18-1.725-1.623,2.154-3.169,2.831c-1.298,0.787-7.358,1.271-7.358-0.967
		c-1.924,1.644-6.499,1.646-7.202,0.373c-1.384-1.491-1.517,1.118-4.009,1.49s-7.902-0.372-8.18-3.355
		c-0.277-2.981,0.555-1.118-2.492-0.746c-7.418,4.785-11.082-1.863-11.082-4.1c0-2.237-0.277-4.848,0.554-6.339
		c0.831-1.49-5.161-1.941-3.324-4.877c2.065-3.591,4.234-6.223,8.31-5.562c1.939,0.372,1.662-0.746,0.831-2.237
		c-0.831-1.49,2.216-2.236,5.818-0.746c3.602,1.491,6.095,5.22,7.203,8.575c1.107,3.355,9.696,0.746,13.297,1.118
		c3.602,0.373,3.878-5.592,1.662-7.456c-2.217-1.865-8.312-8.575-10.805-10.811c-2.494-2.238-0.832-10.067,1.385-11.932
		c12.901-8.479,5.818-11.185,1.106-10.438c-4.708,0.745-16.81,5.454-20.688,9.555c-3.879,4.101-34.011,24.201-36.78,26.438
		c-2.771,2.237-6.799,2.78-8.461,0.171c-1.662-2.611-2.771-0.746-2.494,2.983c2.201,14.08-10.805,18.568-13.085,18.39
		c-1.587-0.157-3.861-1.017-5.5-2.343c-1.616,7.869-8.766,8.65-15.224,7.874c-0.099-0.928,1.206-2.664,0.493-1.999
		c-2.135,2.704-8.696,2.418-14.329,2.009c-0.375-1.646,1.942-3.64,0.834-2.521c-1.891,3.461-5.142,2.841-10.411,2.474
		c-0.062-0.729,2.442-3.169,1.275-1.71c-2.306,2.453-7.11,1.686-10.837,1.746c-0.441-0.549,1.927-4.403-0.24-1.857
		c-2.071,2.174-6.458,2.536-10.651,1.954c-0.746-1.833,0.873-1.851,1.318-3.002c1.108-1.863-0.554,0-1.938,0
		c-1.385,0-3.325,0.373-4.156-1.491c-0.831-1.864-0.354,1.865-1.159,2.88c-0.804,0.881-1.712,2.949-4.482,3.693
		c-2.771,0.746-9.973,1.492-11.081-1.863c-1.493-1.545-2.217-4.846-1.108-6.712c1.108-1.863-5.275,3.597-8.033,4.102
		c-8.113,1.523-9.142-10.811-5.541-11.929c3.602-1.12,3.046-2.983,1.107-4.474c-1.939-1.492-3.047-7.458-0.553-9.321
		c2.492-1.864,8.263-2.896,11.911-0.746c2.135,1.426,6.705,6.314,5.818,2.609c-0.618-2.29,0.962-5.203,2.73-6.453
		c1.535-1.376,6.26-1.727,7.519,1.234c2.919,6.861,4.986,9.815,8.588,9.693c7.671-2.038,18.04-4.348,21.086-4.348
		c3.91-0.903,24.609-2.877,24.609-4.741c-12.414,4.179-17.433-1.229-18.817-0.857s-4.795-1.21-4.795-2.251
		c0-2.237,3.126-1.97-1.307-1.225c-2.653-0.211-5.017-0.331-7.251-3.024c-0.366-1.375,2.934-6.104,4.133-10.078
		c-2.861-0.753-9.187,4.252-11.259,8.669c-1.453-1.695-2.042-0.156-7.232,1.077c-2.448,1.037-6.432,0.665-8.647-0.454
		c-2.216-1.118-10.897-7.515-6.699-8.34c-1.104-0.524-2.375-0.826-3.212-1.051c-3.047-1.266-5.928-3.725-5.042-4.398
		c-0.771-1.121,0.882-1.116-0.338-1.341c-1.662-0.372-5.755-3.275-4.705-4.396c-1.049-0.674-3.54-1.713-4.596-2.236
		c-1.939-1.119-3.882-4.999-4.158-6.862c-1.788,0.167-5.601-3.12-3.879-4.102c-2.912-2.102-5.389-5.561-3.449-6.681
		c-1.699-1.302-2.886-3.679-1.704-2.788c-1.766-2.102-1.219-4.325,0.167-4.325c1.385,0,0.831-5.965-1.662-5.965
		c-2.493,0-6.503,1.881-9.419,0c-2.398-1.783-4.433-9.694-2.217-13.05c2.217-3.354,6.648-7.083,8.865-6.711
		c2.217,0.373,1.108,1.118,0.554-2.237s3.128-5.875,5.541-6.711c2.924-1.3,8.588-0.372,10.25,1.119
		c1.662,1.491,2.216,1.491,2.216-1.119c0-1.834,2.14-2.789,4.045-3.27c3.171-0.729,5.651,0.148,6.759,1.405
		c1.722,2.398,2.771,5.22,0.554,7.457c-2.216,2.236-0.293,0.341,3.309-0.404c2.319-0.746,6.504,0.215,7.218,2.641
		c0.962,2.609,1.662,7.084-0.831,9.321c-2.493,2.236-6.094,7.829-4.155,9.693c1.939,1.863,8.034,10.065,9.419,11.185
		c1.385,1.118,3.046,3.728,5.263,3.354c2.216-0.372,4.709-0.744,6.648-1.118c7.696-1.505,11.165-2.287,1.287-1.98
		c2.218-3.047,6.862-3.944,8.877-4.481c-1.774-2.596,4.794-8.078,4.794-8.823L145.15,185.772z"/>
	<path fill="#002395" stroke="#650000" stroke-width="2.0846" d="M158.059,199.42c3.697,6.273,12.512,2.51,14.787,5.02
		c2.275,2.51-2.209,11.252-3.632,16.271c-3.284,4.322-10.601,4.041-13.293,0.832c1.449-5.995,1.569-18.777,1.853-19.194
		L158.059,199.42L158.059,199.42z"/>
	<path fill="none" stroke="#650000" stroke-width="1.9798" d="M423.059,267.547c-1.205-3.244-4.821-4.056-4.821-4.056"/>
	<g>
		<path fill="none" stroke="#650000" stroke-width="1.8085" stroke-opacity="0.3" d="M193.126,211.111
			c2.732,5.148,3.535,13.886,0.449,18.125"/>
		<path fill="none" stroke="#650000" stroke-width="1.8085" stroke-opacity="0.3" d="M183.289,222.88
			c2.732,1.47,6.557,10.293,6.01,13.237c-0.546,2.94-0.546,2.94-0.546,2.94"/>
		<path fill="none" stroke="#650000" stroke-width="1.8085" stroke-opacity="0.3" d="M182.198,226.555
			c1.639,4.413,3.824,11.031,3.278,13.237c-0.546,2.207-0.546,2.207-0.546,2.207"/>
		<path fill="none" stroke="#650000" stroke-width="1.8085" stroke-opacity="0.3" d="M172.361,230.961
			c1.093,4.413,0.546,11.768-1.092,13.237c-1.64,1.471-1.64,1.471-1.64,1.471"/>
		<path fill="none" stroke="#650000" stroke-width="1.8085" stroke-opacity="0.3" d="M169.625,231.7
			c-1.639,5.147-3.279,12.502-3.279,12.502"/>
		<path fill="none" stroke="#650000" stroke-width="1.8085" stroke-opacity="0.2994" d="M143.404,217.733
			c-2.732,2.207-6.557,7.354-6.557,7.354"/>
		<path fill="none" stroke="#650000" stroke-width="1.8085" stroke-opacity="0.2994" d="M146.678,225.086
			c-4.372-2.941-9.289,2.206-9.289,2.206"/>
	</g>
	<g>
		<path fill="none" stroke="#660000" stroke-width="2.3711" d="M206.833,184.53c-2.882,1.273-2.457,7.915-2.457,7.915"/>
		<path fill="none" stroke="#660000" stroke-width="2.0797" d="M145.553,175.285c3.076,2.112,1.846,8.448,1.846,8.448"/>
	</g>
	<path fill="#390000" fill-opacity="0.5987" d="M141.742,233.277c-1.175,3.439-3.112,6.1-2.805,8.236l-1.812-0.802
		c1.421,0.491-1.616-5.561-2.351-4.42l1.7-1.206l0.394-0.664l0.847-0.411L141.742,233.277L141.742,233.277z"/>
	<g>
		<path fill="none" stroke="#650000" stroke-width="1.9798" d="M74.399,169.924c5.983,0.575,8.975,5.177,10.257,9.203
			c1.282,4.026,2.137,6.326,2.137,6.326"/>
		<path fill="none" stroke="#650000" stroke-width="1.9798" d="M102.182,167.367c-3.419,4.025-2.991,11.503-2.991,11.503"/>
		<path fill="none" stroke="#650000" stroke-width="1.9798" d="M202.023,253.346c2.109-7.283,6.064-8.924,11.013-11.306
			c5.124-2.028,12.922-8.162,8.1-3.702c-4.822,4.463-11.779,7.302-14.19,8.925c-2.412,1.623-3.918,5.239-2.688,6.895"/>
		<path fill="none" stroke="#650000" stroke-width="1.9798" stroke-linecap="round" d="M191.901,225.767
			c4.52,7.3,1.727,17.462-3.999,20.301"/>
		<path fill="none" stroke="#650000" stroke-width="1.9798" d="M206.975,200.62c7.338,2.963,7.599,9.936,8.656,14.058
			c-2.587-1.164-4.466-0.604-6.408-1.463"/>
		<path fill="none" stroke="#650000" stroke-width="1.9798" d="M201.31,224.625c0,6.49-4.611,9.152-6.72,9.964"/>
		<path fill="none" stroke="#650000" stroke-width="1.9798" d="M91.761,162.788c0.603,3.65-0.301,4.462-1.206,7.706
			c-0.904,3.244,0.301,8.924,0.301,8.924"/>
		<path fill="none" stroke="#650000" stroke-width="1.9798" d="M399.382,232.381c-3.015-0.406-7.534,1.217-7.534,1.217"/>
		<path fill="none" stroke="#650000" stroke-width="1.9798" d="M413.39,237.971c-4.219,1.621-9.04,2.028-9.04,2.028"/>
		<path fill="none" stroke="#650000" stroke-width="1.9798" d="M418.812,247.328c-3.617-0.403-6.329-0.403-6.329-0.403"/>
		<path fill="none" stroke="#650000" stroke-width="1.9798" d="M425.846,256.133c-3.616-0.405-9.343,0-9.343,0"/>
		<path fill="none" stroke="#650000" stroke-width="1.9798" d="M387.538,275.093c0.905-4.867,6.896-8.767,10.21-8.767h3.314"/>
		<path fill="none" stroke="#650000" stroke-width="1.9798" d="M382.562,264.333c3.618-1.217,9.342-1.622,9.342-1.622"/>
		<path fill="none" stroke="#650000" stroke-width="1.9798" d="M138.46,199.361c-10.064,5.15-11.783,9.704-10.214,20.555"/>
		<path fill="none" stroke="#650000" stroke-width="1.9664" d="M180.561,221.938c0.586,5.793,0.933,21.975-5.223,26.111
			c-6.156,4.136-13.864,4.624-19.88,2.639"/>
		<path fill="none" stroke="#650000" stroke-width="1.9798" d="M166.939,230.912c-0.604,5.693-6.478,19.873-17.922,17.926"/>
		<path fill="none" stroke="#650000" stroke-width="1.9798" d="M346.756,191.791c1.508-4.463,8.438-8.519,8.438-8.519"/>
		<path fill="none" stroke="#650000" stroke-width="1.9798" d="M336.676,191.556c3.015-5.273,8.438-8.518,8.438-8.518"/>
		<path fill="none" stroke="#650000" stroke-width="1.9798" d="M321.971,192.042c4.579-2.683,5.865-3.741,7.369-5.123
			c1.622-1.544,4.821-4.462,4.821-4.462"/>
		<path fill="none" stroke="#650000" stroke-width="1.8846" d="M309.195,191.883c3.354-1.703,5.951-2.704,8.197-4.32
			c2.817-1.923,4.767-4.524,4.767-4.524"/>
		<path fill="none" stroke="#650000" stroke-width="1.9798" d="M311.941,177.799c-10.652-3.525-15.419-10.529-15.419-10.529"/>
		<path fill="none" stroke="#650000" stroke-width="1.9798" d="M329.676,162.872c-7.056,2.861-21.398,1.622-22.001,1.622"/>
		<path fill="none" stroke="#650000" stroke-width="1.9798" d="M148.113,245.188c3.617-2.839,6.463-8.688,6.463-8.688"/>
		<path fill="none" stroke="#650000" stroke-width="2.1425" d="M145.167,216.03c-5.31-0.812-18.742,10.502-14.409,24.57"/>
		<path fill="none" stroke="#650000" stroke-width="2.4657" d="M135.942,209.039c-6.838,1.784-9.624,13.95-5.98,20.492"/>
		<path fill="none" stroke="#650000" stroke-width="1.8085" d="M204.079,204.632c4.985,6.631,6.883,10.686,7.171,12.995
			c0.47,4.012,0.494,13.901-11.288,13.741c1.098-2.948,2.485-10.727,0.6-13.85"/>
		<path fill="none" stroke="#650000" stroke-width="3.8447" stroke-linecap="round" d="M186.613,179.411
			c-0.546,3.326-0.546,3.326-0.546,3.326"/>
		<path fill="none" stroke="#650000" stroke-width="3.1188" stroke-linecap="round" d="M164.136,173.406
			c-0.642,2.503-1.78,5.073-1.78,5.073"/>
		<path fill="none" stroke="#650000" stroke-width="1.9798" d="M172.697,167.623c0.855,7.478-2.564,11.504-4.701,11.504
			c-2.138,0-4.523,2.79-3.211,7.278"/>
		<path fill="none" stroke="#650000" stroke-width="1.9798" d="M181.627,166.473c-3.847,5.176-4.701,10.929-3.418,15.529
			c1.281,4.602,0.066,5.939,0.066,5.939"/>
		<path fill="none" stroke="#650000" stroke-width="1.9798" d="M198.766,191.782h-4.701c0,0-2.991,6.328-8.12,4.601
			c-5.128-1.725-0.427,0-0.427,0"/>
		<path fill="none" stroke="#650000" stroke-width="1.9798" d="M173.553,186.502c7.318,0.186,5.846,5.852,0.427,5.277
			c0.427,6.902-8.088,6.032-7.359,0.744c-5.121,0.151-7.222-6.833,0.216-5.866"/>
		<path fill="none" stroke="#650000" stroke-width="1.9798" d="M183.465,195.752c0.301,7.707-14.166,13.385-13.864,1.622"/>
		<path fill="none" stroke="#650000" stroke-width="1.9954" d="M169.558,197.784c-0.307,5.679-8.267,6.895-11.022,2.027
			c-2.144-3.245-3.368-4.867-4.898-5.273c-1.53-0.404-1.358-5.128-1.668-5.822c-0.186-0.944-1.177-3.385-1.672-4.302"/>
		<path fill="none" stroke="#650000" stroke-width="1.9798" d="M192.203,174.257c-3.617,3.649-3.918,4.056-3.918,4.056"/>
		<path fill="none" stroke="#650000" stroke-width="1.9798" d="M195.82,181.148c-4.823,0.405-5.083,0.195-5.083,0.195"/>
		<path fill="none" stroke="#650000" stroke-width="2.2432" d="M178.656,178.412c3.565-1.271,11.863-0.203,11.743,2.754
			c0.005,3.63-3.244,3.852-11.816,0.417l0.073-2.665V178.412L178.656,178.412z"/>
		<path fill="none" stroke="#650000" stroke-width="1.8222" d="M167.409,178.789c0.444-4.311-8.218-8.563-10.327-6.158
			c-2.569,3.975,4.72,7.52,6.653,7.52c1.808,0,0.737,0.225,0.737,0.225"/>
		<path fill="none" stroke="#650000" stroke-width="1.9798" d="M190.935,194.938c-3.278,8.823-0.546,16.912-0.546,16.912"/>
		<path fill="none" stroke="#650000" stroke-width="1.9798" d="M152.142,197.138c-2.732,2.205-4.917,1.47-4.917,1.47"/>
		<path fill="none" stroke="#650000" stroke-width="2.0843" d="M157.463,197.531c-0.339,8.06-4.83,12.355-4.83,12.355"/>
		<path fill="none" stroke="#650000" stroke-width="2.301" d="M152.931,193.788c-2.312,8.783,0.649,15.84,0.649,15.84"/>
		<path fill="none" stroke="#650000" stroke-width="2.0754" d="M175.811,204.07c-0.548,7.974,3.43,12.933,3.43,12.933"/>
		<path fill="none" stroke="#650000" stroke-width="2.2912" d="M180.712,201.133c1.327,9.009-2.382,15.454-2.382,15.454"/>
		<path fill="none" stroke="#650000" stroke-width="1.9798" d="M208.1,196.055c0.896,0.433,3.188,0.036,7.404,1.753
			c-1.745,2.499-6.243,3.952-7.995,3.222"/>
		<path fill="none" stroke="#650000" stroke-width="1.9798" d="M79.498,202.677c2.565,1.15,7.266,0,7.266,0"/>
		<path fill="none" stroke="#650000" stroke-width="1.8012" d="M81.995,208.879c5.66,1.727,11.321-1.15,11.321-1.15"/>
		<path fill="none" stroke="#650000" stroke-width="1.9798" d="M108.591,233.765c5.983-1.725,9.83-5.177,9.83-5.177"/>
		<path fill="none" stroke="#650000" stroke-width="1.9798" d="M90.17,264.594c3.014-0.812,9.343,0,9.343,0"/>
		<path fill="none" stroke="#650000" stroke-width="1.9798" d="M101.404,274.179c1.809-3.244,6.028-6.084,6.028-6.084"/>
		<path fill="none" stroke="#650000" stroke-width="1.9798" d="M135.246,278.501c1.507-2.027,1.507-8.518,1.507-8.518"/>
		<path fill="none" stroke="#650000" stroke-width="1.9798" d="M146.241,278.45c2.399-2.66,2.53-8.372,2.53-8.372"/>
		<path fill="none" stroke="#650000" stroke-width="1.9798" d="M154.979,278.3c2.412-4.463,2.017-9.618,2.017-9.618"/>
		<path fill="none" stroke="#650000" stroke-width="1.9798" d="M168.668,278.795c1.506-2.433,1.506-8.111,1.506-8.111"/>
		<path fill="none" stroke="#650000" stroke-width="1.9798" d="M266.341,265.92c-5.427-1.217-8.741,6.085-8.741,6.085"/>
		<path fill="none" stroke="#650000" stroke-width="1.9798" d="M273.465,264.744c-0.604,5.273-4.82,10.141-4.82,10.141"/>
		<path fill="none" stroke="#650000" stroke-width="1.9798" d="M282.02,264.3c-0.302,4.462-5.125,10.546-5.125,10.546"/>
		<path fill="none" stroke="#650000" stroke-width="1.9798" d="M292.653,262.521c-0.794,5.933-5.133,10.382-5.133,10.382"/>
		<path fill="none" stroke="#650000" stroke-width="1.9798" d="M300.484,260.431c0.302,5.272-2.411,13.386-4.22,15.007"/>
		<path fill="none" stroke="#650000" stroke-width="1.9798" d="M309.825,262.68c0.905,2.84,0,6.896,0,6.896"/>
		<path fill="none" stroke="#650000" stroke-width="1.9798" d="M250.889,251.618c3.617,0.812,5.727,4.867,5.727,4.867"/>
		<path fill="none" stroke="#650000" stroke-width="1.9798" d="M244.719,261.798c1.901-6.385,10.09-3.265,11.082-1.552"/>
		<path fill="none" stroke="#650000" stroke-width="1.9798" stroke-linecap="round" d="M218.566,249.695
			c-5.186,1.72-7.617,1.839-9.312,0.318"/>
		<path fill="none" stroke="#650000" stroke-width="1.9129" stroke-linecap="round" d="M224.34,245.458
			c-4.549,1.72-7.14,2.31-9.399,0.906"/>
		<path fill="none" stroke="#650000" stroke-width="1.5599" stroke-linecap="round" d="M232.037,240.27
			c-3.025,1.721-4.748,2.31-6.25,0.906"/>
		<path fill="none" stroke="#650000" stroke-width="1.7257" stroke-linecap="round" d="M237.375,236.274
			c-3.702,1.721-5.811,2.31-7.649,0.906"/>
		<path fill="none" stroke="#650000" stroke-width="1.9798" d="M91.316,162.788c0.603,3.65-0.301,4.462-1.205,7.706
			s0.301,8.924,0.301,8.924"/>
		<path fill="none" stroke="#650000" stroke-width="1.9798" d="M102.772,167.367c-3.419,4.025-2.992,11.503-2.992,11.503"/>
		<path fill="none" stroke="#650000" stroke-width="2.0032" d="M74.842,169.128c6.126,0.575,9.189,5.177,10.502,9.203
			c1.312,4.026,2.187,6.327,2.187,6.327"/>
	</g>
</g>
</svg>
