<?xml version="1.0" encoding="UTF-8"?>
<svg xmlns="http://www.w3.org/2000/svg" xmlns:xlink="http://www.w3.org/1999/xlink" width="500" height="300">
<defs>
<linearGradient id="linearGradient3680" x1="178.24" xlink:href="#linearGradient662-1" gradientUnits="userSpaceOnUse" y1="173.5" gradientTransform="scale(0.95221776,1.0501799)" x2="174.87" y2="172.8"/>
<linearGradient id="linearGradient662-1">
<stop stop-color="#000" offset="0"/>
<stop stop-color="#00F" offset="1"/>
</linearGradient>
<linearGradient id="linearGradient3682" x1="187.14" xlink:href="#linearGradient662-1" gradientUnits="userSpaceOnUse" y1="150.67" gradientTransform="scale(0.83073016,1.2037603)" x2="182.27" y2="149.97"/>
<linearGradient id="linearGradient3684" x1="140.9" xlink:href="#linearGradient662-1" gradientUnits="userSpaceOnUse" y1="187.71" gradientTransform="scale(1.079469,0.92638136)" x2="135.37" y2="184.64"/>
<linearGradient id="linearGradient3686" x1="133.1" xlink:href="#linearGradient662-1" gradientUnits="userSpaceOnUse" y1="225.51" gradientTransform="scale(1.2777849,0.78260432)" x2="115.37" y2="219.95"/>
<linearGradient id="linearGradient3620" y2="131.68" gradientUnits="userSpaceOnUse" y1="131.68" gradientTransform="scale(1.0177993,0.98251195)" x2="84.063" x1="56.291">
<stop stop-color="#000" offset="0"/>
<stop stop-color="#00F" offset="1"/>
</linearGradient>
<linearGradient id="linearGradient3672" x1="314.23" xlink:href="#linearGradient662-1" gradientUnits="userSpaceOnUse" y1="165.93" gradientTransform="scale(0.91178996,1.0967438)" x2="310.07" y2="165.06"/>
<linearGradient id="linearGradient3674" x1="321.59" xlink:href="#linearGradient662-1" gradientUnits="userSpaceOnUse" y1="149.74" gradientTransform="scale(0.82664761,1.2097053)" x2="315.63" y2="147.61"/>
<linearGradient id="linearGradient3676" x1="244.21" xlink:href="#linearGradient662-1" gradientUnits="userSpaceOnUse" y1="187.46" gradientTransform="scale(1.0399762,0.96156044)" x2="241.92" y2="182.49"/>
<linearGradient id="linearGradient3678" x1="201.72" xlink:href="#linearGradient662-1" gradientUnits="userSpaceOnUse" y1="217.62" gradientTransform="scale(1.272115,0.78609246)" x2="200.05" y2="212.73"/>
<linearGradient id="linearGradient3662" x1="50.516" xlink:href="#linearGradient662-1" gradientUnits="userSpaceOnUse" y1="183.58" gradientTransform="scale(1.1140257,0.89764539)" x2="44.601" y2="180.06"/>
<linearGradient id="linearGradient3664" x1="39.92" xlink:href="#linearGradient662-1" gradientUnits="userSpaceOnUse" y1="179.65" gradientTransform="scale(0.99628159,1.0037323)" x2="33.016" y2="175.54"/>
<linearGradient id="linearGradient3666" x1="30.063" xlink:href="#linearGradient662-1" gradientUnits="userSpaceOnUse" y1="219.75" gradientTransform="scale(1.3013162,0.76845275)" x2="23.649" y2="215.93"/>
<linearGradient id="linearGradient3668" x1="56.194" xlink:href="#linearGradient662-1" gradientUnits="userSpaceOnUse" y1="176.52" gradientTransform="scale(0.94725152,1.0556858)" x2="50.624" y2="173.21"/>
<linearGradient id="linearGradient3652" x1="13.377" xlink:href="#linearGradient662-1" gradientUnits="userSpaceOnUse" y1="143.22" gradientTransform="scale(1.2820051,0.78002811)" x2="23.037" y2="143.22"/>
<linearGradient id="linearGradient3654" x1="13.504" xlink:href="#linearGradient662-1" gradientUnits="userSpaceOnUse" y1="121.56" gradientTransform="scale(0.99628159,1.0037323)" x2="23.247" y2="121.56"/>
<linearGradient id="linearGradient3656" x1="30.909" xlink:href="#linearGradient662-1" gradientUnits="userSpaceOnUse" y1="128.2" gradientTransform="scale(1.1779548,0.84892903)" x2="40.913" y2="128.2"/>
<linearGradient id="linearGradient3658" x1="56.002" xlink:href="#linearGradient662-1" gradientUnits="userSpaceOnUse" y1="101.14" gradientTransform="scale(0.89362035,1.1190434)" x2="63.752" y2="101.14"/>
<linearGradient id="linearGradient3596" x1="120.22" xlink:href="#linearGradient662-1" gradientUnits="userSpaceOnUse" y1="156.07" gradientTransform="matrix(1.5601973,0,0,2.1738368,-46.290708,-211.82906)" x2="119.34" y2="162.87"/>
<linearGradient id="linearGradient3628" x1="89.291" xlink:href="#linearGradient698-7" gradientUnits="userSpaceOnUse" y1="215.98" gradientTransform="matrix(2.1016131,0,0,1.6138149,-46.290708,-182.4526)" x2="89.458" y2="193.8"/>
<linearGradient id="linearGradient698-7">
<stop stop-color="#4a0000" offset="0"/>
<stop stop-color="#ffcf00" offset="1"/>
</linearGradient>
<linearGradient id="linearGradient3546" x1="60.328" xlink:href="#linearGradient698-7" gradientUnits="userSpaceOnUse" y1="184.92" gradientTransform="matrix(1.8266658,0,0,1.856724,-46.290708,-182.4526)" x2="72.657" y2="173.36"/>
<linearGradient id="linearGradient3543" x1="41.458" xlink:href="#linearGradient698-7" gradientUnits="userSpaceOnUse" y1="237.94" gradientTransform="matrix(2.2600779,0,0,1.5006626,-46.290708,-211.82906)" x2="52.6" y2="227.49"/>
</defs>
<rect fill-rule="evenodd" height="300" width="500" y="0" x="0" stroke-width="1" fill="#F00"/>
<g id="l" transform="matrix(0.76894864,0,0,0.57267983,60.820005,-39.528284)">
<g fill-rule="evenodd" font-size="12px" stroke="#650000" stroke-dasharray="none" stroke-width="1.07500005">
<g transform="matrix(1.5874864,0,0,2.1364683,-8.587906,-161.08796)">
<path fill="url(#linearGradient3680)" d="m165.38,177.4c-1.0595,1.2374,1.847,6.7263,6.3416,6.5876-2.9307-3.3947-2.6226-7.3428-2.6226-7.3428l-3.72,0.75z"/>
<path fill="url(#linearGradient3682)" d="m154.22,171.46c-1.6199,0.1724-5.5299,7.3892,0.7041,9.9636,0.1992-4.4802,3.1337-7.1395,3.1337-7.1395l-3.2227-2.004-0.6151-0.8201z"/>
<path fill="url(#linearGradient3684)" d="m153.46,167.15c-1.575-1.1953-8.3818,2.2771-8.1015,7.4585,4.1827-3.4545,9.1355-3.1851,9.1355-3.1851l-1.04-4.27z"/>
<path fill="url(#linearGradient3686)" d="m161.33,162.96c-0.1115-1.6252-6.0318-3.5032-9.1404-0.254,4.4696,0.3672,7.017,3.3993,7.017,3.3993l2.12-3.15z"/>
</g>
<g transform="matrix(1.5874864,0,0,2.1364683,-8.587906,-161.08796)">
<path fill="url(#linearGradient3672)" d="m280.72,178.08c-0.1082,1.4887,0.4189,2.0071,1.4312,2.8431,1.0123,0.8359,2.159,3.3193,2.159,3.3193s3.2425-6.5414,2.4309-7.4192c-0.8116-0.8779-5.8205,1.2149-6.0211,1.2568z"/>
<path fill="url(#linearGradient3674)" d="m263.57,175.37c-1.6135-0.2245-4.6673,5.1838-2.1259,8.8935,1.2774-4.299,4.768-6.1694,4.768-6.1694l-2.64-2.72z"/>
<path fill="url(#linearGradient3676)" d="m255.7,173.74c-1.2569-1.0363-6.6908,1.9718-6.4685,6.463,3.3396-2.9933,7.2927-2.7587,7.2927-2.7587l-0.82-3.7z"/>
<path fill="url(#linearGradient3678)" d="m259.82,166.8c-0.8653-1.3802-6.9711-0.2424-8.1788,4.0891,4.1141-1.7853,7.7908-0.3141,7.7908-0.3141l0.388-3.775z"/>
</g>
<g transform="matrix(1.5874864,0,0,2.1364683,-7.595727,-161.088)">
<path fill="url(#linearGradient3662)" d="m56.274,163.76c0.58695-1.5195-3.9815-5.7273-8.1734-4.0996,3.894,2.2248,4.9182,6.0502,4.9182,6.0502l3.255-1.95z"/>
<path fill="url(#linearGradient3664)" d="m38.768,173.26c-1.5241-1.3714-7.9193,2.531-7.5378,8.4298,3.9006-3.9014,8.616-3.5591,8.616-3.5591l-1.078-4.87z"/>
<path fill="url(#linearGradient3666)" d="m39.326,164.91c-0.65598-1.9425-8.1431-1.6768-10.703,3.6514,5.3124-1.4879,9.2543,1.1223,9.2543,1.1223l1.4484-4.7737z"/>
<path stroke-linejoin="miter" d="m46.952,180.67c-0.41006,1.4352,0,2.0503,0.82013,3.0755,0.82013,1.0251,1.4352,3.6905,1.4352,3.6905s4.5107-5.7409,3.8956-6.766c-0.61509-1.0252-5.9459,0-6.151,0z" stroke-linecap="butt" fill="url(#linearGradient3668)"/>
</g>
<g transform="matrix(1.5874864,0,0,2.1364683,-8.587906,-161.08796)">
<path stroke-linejoin="miter" d="m28.996,114.66c0-2.0503-7.1786-4.194-11.308,0.0352,5.5092,0.29,8.4088,4.0242,8.4088,4.0242l2.8996-4.0594z" stroke-linecap="butt" fill="url(#linearGradient3652)"/>
<path fill="url(#linearGradient3654)" d="m21.545,122.82c-1.5241-1.3714-7.9193,2.531-7.5378,8.4298,3.9006-3.9014,8.616-3.5591,8.616-3.5591l-1.078-4.87z"/>
<path fill="url(#linearGradient3656)" d="m47.601,113.95c0.69338-1.9295-5.3373-6.3746-10.654-3.7912,5.0865,2.1361,6.5524,6.6308,6.5524,6.6308l4.102-2.84z"/>
<path fill="url(#linearGradient3658)" d="m56.114,121c1.1962-1.1057-1.0523-6.8954-5.5326-7.2802,2.5162,3.7124,1.751,7.5979,1.751,7.5979l3.782-0.32z"/>
</g>
</g>
<path d="m118.48,111.93c-7.1545-8.0929-0.0846-22.854,6.329-16.558-3.3588-6.0409,2.1342-10.822,4.6274-7.7973-1.1597-4.916,4.1078-8.1756,6.6924-3.6378-0.92757-5.4832,6.8851-8.6924,8.9109-2.7003,0.13541-5.3897,7.7725-9.6438,9.4584-1.7506,1.486-6.0757,9.9986-6.8715,10.705,1.7598,2.4841-5.0211,8.8663-4.6534,9.237,2.6411,2.759-3.4305,9.8899,1.7038,8.6745,7.7723,4.4043-0.92723,9.785,7.7415,4.4167,14.132,9.5229-4.9397,11.772,11.071,5.9861,18.339,2.9927,1.7767,3.2564,0.20766,5.8969,1.5402,2.6403,1.3325,7.4283,3.5264,11.81,4.4718,3.9606,0,18.483-0.44417,21.453-0.88835,2.9703-0.44417,7.031-1.9521,11.882-3.5536,5.0811-1.6013,12.429-1.6602,19.134-3.2436,5.3124-0.58069,154.47,2.3552,158.76,1.9111,4.2907-0.44417,10.553-4.4537,10.223-9.3398-0.33004-4.8861-5.2719-8.4277-10.223-8.8719-4.9509-0.44417-30.365-0.44417-34.986,0.44417-4.6207,0.88834-11.222,3.1092-14.522,6.2186-1.586,0.99431-4.208,4.7534-6.4298,7.2262-2.0788,1.7038-7.9511,1.9557-7.9511-0.26534,0-1.4517-0.49291,0.2788-1.9359,0.84219-1.8718,1.1402-10.32,1.4519-9.9459,0,0.66008-1.644-0.0443-2.1612-2.266-0.44417-1.6504,1.3325-13.325,1.823-15.468,0.50378,1.2859-2.0882,1.2959-1.969-2.2118-0.25189-2.2217,0.94795-11.419,1.6904-12.079-0.13268-0.0886-1.4383-1.13-0.73409-2.4276-0.32495-10.424,2.6501-11.424-0.41725-9.7743-1.75,1.6504-1.3325,4.1494-8.9567,1.5089-8.5126-2.6403,0.44417-19.143,3.5536-24.754,4.4419-5.6108,0.88835-46.207,0-51.818-0.44417-5.6108-0.44417-11.88-5.5777-12.212-12.881-0.58722-11.715,9.2416-14.658,15.182-16.435,5.941-1.7769,20.793-4.4419,26.734-4.4419,5.9408,0,22.886,2.0437,27.507,0.26684,4.6207-1.7767,18.653-6.7399,22.618-7.107,5.8497-0.52835,22.608,1.3979,30.594,10.734-4.1578,1.8363-6.1137,2.9169-1.3944,1.2594,4.2907-0.88834,22.708-4.6195,26.998-5.5969,14.854-0.62214,10.958,1.5996,3.6966,3.376-2.4236,7.5105-24.248,17.994-31.18,19.326-6.9311,1.3327-21.64,0.35572-24.929-0.22604-3.3005-0.24121-18.917-0.99944-24.603-4.5812-9.1852-6.0571-26.158-10.039-33.599-9.8998-6.9618,0.13524-26.82,2.1632-26.734,8.8839-0.10366,11.802,18.483,12.437,26.404,11.993,7.9212-0.44418,27.724-1.3325,33.335-3.5536,5.6108-2.2209,17.747-2.7665,24.348-2.7665,6.6009,0,16.248,1.434,19.218,0.98982,2.9704-0.44417,9.9015-0.54565,13.202-2.7665,3.3005-2.2211,10.477-4.5434,17.738-4.5434,7.2612,0,61.145-2.0181,68.406-1.5737,10.511-0.07029,17.937,11.099,18.064,20.597,0.0602,4.4411-2.1772,11.006-4.0786,12.023,3.2618,0.29269,11.423,1.1864,14.116,1.7327,5.055,0.97487,13.251,6.3915,14.19,11.327-3.8396-2.2674-10.037-5.6922-15.622-6.0663-1.0935,0.0128-118.72-0.19228-127.96-0.13631,25.134,2.8883,44.342,21.707,49.141,32.482,4.2907,6.6628,14.852,3.9975,18.813,3.1092,3.9606-0.88835,8.5813-4.8861,11.882-7.9953,3.3005-3.1094,8.4608-3.8984,10.791-3.1094,5.1301-0.44418,6.042,4.8861,4.0617,7.5513-1.9804,2.665,0.32813,1.5694,5.6091,1.5694,5.2809,0,9.9366,1.9121,13.051,5.9466-2.9705,2.665-4.4678,0.47921-0.17716,0.92338,4.2907,0.44417,9.4705,8.0949,6.271,10.253-2.7967,1.3475-3.6306,0.85181,0,1.296,5.4127,0.44418,6.8879,3.8527,7.5912,9.9079-4.5824,0.81655-2.3104-0.57984,0,1.641,2.3103,2.2211,5.6767,12.057-2.6405,12.437-2.9705-1.3327-2.916-1.5912-2.2833,1.4319,0.58642,3.1094-1.0173,10.561-5.638,10.561-6.4025,1.199-12.212-2.2209-12.872-6.2186-0.66008-3.9978-0.57388,7.7148-9.6494,9.5626-8.5707,1.854-13.124-2.8998-13.784-5.1207-0.66008-2.2211-0.33004-0.44417-3.6306-0.88855-3.3005-0.44417-7.4596-0.48498-9.2414-5.7744,0-3.1092,0.64309-7.2076,6.5233-7.7607,2.6403-0.44417,3.3782-3.7882,1.3979-4.2323-1.9804-0.44418-0.33004-7.107,3.9606-5.3303,4.2907,1.7769,14.192,2.2211,16.503,4.4419,2.3103,2.2209,2.9705-1.7767-0.66008-5.3303s-25.744-10.661-31.685-7.9953c-13.834,6.7769-36.966,5.7744-40.926,4.8859-3.9606-0.88834-15.399,1.5355-20.793-14.658-4.3753-16.536-21.001-24.707-28.592-25.596-37.448-3.4271-35.413-0.79114-11.127,0.32688-0.18066,3.0866-1.0612,9.4073,2.8759,10.334,6.6011-0.88856,20.34-3.7211,23.641-1.0558,3.3006,2.665,6.6011,4.8861,5.941,11.105-0.66007,6.2186,0.33004,4.4419-2.6405,7.107-2.9705,2.6652-1.6504,7.9955,2.9705,9.7722,4.6207,1.7767,6.6009,3.9978,9.5714,6.6628,2.9705,2.6652-1.3202,7.9955-3.9606,6.2186-2.6403-1.7767-2.6405-1.7767-2.9705,1.7769-0.33004,3.5534-3.6106,10.278-9.1888,10.771-1.1714-0.42964-0.84676-2.2683-0.71262-3.6645,0.33004-3.1094-1.115,3.8625-2.8406,5.7964-1.0981,1.3048-10.442,3.8604-13.082,2.5279,1.1787-2.7823,0.49768-1.647-1.8128-0.31427-2.2549,0.8736-14.42,2.518-8.9985-3.1239,1.4073-2.0551-1.9331,2.5674-3.7757,3.3728-1.5486,0.93727-8.7663,1.5133-8.7663-1.152-2.2907,1.9596-7.7441,1.9598-8.5813,0.44418-1.6502-1.7767-1.8054,1.3327-4.776,1.7769-2.9704,0.44417-9.4162-0.44418-9.7462-3.9978-0.33003-3.5536,0.66008-1.3325-2.9705-0.88835-8.8383,5.7007-13.202-2.2211-13.202-4.8861,0-2.6652-0.33004-5.7744,0.66007-7.5511,0.99012-1.7769-6.1493-2.3127-3.9606-5.811,2.4614-4.277,5.0452-7.4133,9.9015-6.6265,2.3104,0.44417,1.9804-0.88835,0.99012-2.665-0.99012-1.7769,2.6405-2.6652,6.9311-0.88835,4.2907,1.7767,7.2612,6.2186,8.5813,10.216,1.3203,3.9978,11.552,0.88855,15.842,1.3327,4.2907,0.44417,4.6207-6.6628,1.9804-8.8839-2.6405-2.2209-9.9016-10.216-12.872-12.881-2.9705-2.6652-0.99027-11.993,1.6502-14.214,15.371-10.102,6.9311-13.326,1.3202-12.437-5.6108,0.88834-20.029,6.4979-24.65,11.384-4.6207,4.8859-40.521,28.834-43.821,31.499-3.3006,2.665-8.1005,3.3122-10.081,0.20296-1.9804-3.1094-3.3005-0.88834-2.9705,3.5534,2.6214,16.777-12.873,22.124-15.59,21.912-1.891-0.18993-4.5994-1.2124-6.5516-2.7928-1.9259,9.3757-10.444,10.308-18.139,9.3821-0.11747-1.1065,1.4357-3.1733,0.58769-2.382-2.5446,3.2216-10.361,2.8825-17.072,2.3928-0.44688-1.9598,2.3144-4.3349,0.99425-3.0026-2.2531,4.1225-6.126,3.3831-12.404,2.9456-0.0735-0.86912,2.9091-3.7743,1.5186-2.0354-2.7481,2.9212-8.4703,2.0064-12.912,2.0788-0.52625-0.65397,2.2964-5.2463-0.28565-2.2117-2.4684,2.5894-7.6939,3.0216-12.69,2.3268-0.88855-2.183,1.0398-2.2053,1.5701-3.5756,1.3202-2.2211-0.66008,0-2.3103,0-1.6503,0-3.9606,0.44417-4.9508-1.7769-0.99016-2.2209-0.4224,2.2211-1.3809,3.431-0.95854,1.0486-2.0397,3.5128-5.3403,4.4011-3.3005,0.88834-11.882,1.7767-13.202-2.2209-1.7784-1.8397-2.6404-5.7744-1.3202-7.9955,1.3202-2.2209-6.2847,4.2849-9.5715,4.8861-9.6656,1.8147-10.892-12.881-6.601-14.214,4.2907-1.3325,3.6306-3.5534,1.3202-5.3301-2.3104-1.7769-3.6306-8.8839-0.66011-11.105,2.9705-2.2209,9.8451-3.4519,14.192-0.88834,2.5432,1.6987,7.9882,7.5234,6.9311,3.1094-0.73555-2.7287,1.1468-6.2,3.2533-7.6906,1.8295-1.6374,7.4579-2.0546,8.9586,1.472,3.4783,8.1743,5.9409,11.694,10.232,11.549,9.1401-2.4294,21.493-5.1805,25.123-5.1805,4.6591-1.0766,29.321-3.428,29.321-5.649-14.791,4.9775-20.77-1.4652-22.42-1.021-1.6504,0.44417-5.7134-1.4423-5.7134-2.6815,0-2.665,3.7244-2.3471-1.5564-1.4588-3.1616-0.25254-5.9775-0.39504-8.6387-3.6027-0.43602-1.6389,3.496-7.2732,4.9243-12.009-3.4086-0.89668-10.945,5.0688-13.414,10.328-1.7313-2.0177-2.4329-0.18395-8.616,1.2853-2.9168,1.2368-7.6625,0.79241-10.303-0.5401-2.6404-1.3325-12.984-8.955-7.9816-9.9356-1.3165-0.62641-2.8295-0.98577-3.8271-1.2528-3.6306-1.5073-7.0627-4.437-6.0077-5.2403-0.91968-1.3351,1.0513-1.3302-0.4024-1.5972-1.9803-0.44417-6.8569-3.9029-5.6053-5.238-1.2497-0.80331-4.2183-2.0412-5.4755-2.665-2.3104-1.3327-4.6245-5.9567-4.9545-8.1775-2.1289,0.19976-6.6723-3.7175-4.6207-4.8861-3.469-2.5044-6.4207-6.6267-4.1103-7.9594-2.0241-1.5506-3.4376-4.3836-2.029-3.3224-2.1044-2.5044-1.4519-5.1532,0.1984-5.1532s0.99015-7.107-1.9803-7.107c-2.9705,0-7.7477,2.2422-11.222,0-2.8566-2.1254-5.2808-11.549-2.6404-15.547,2.6404-3.9978,7.9212-8.4397,10.562-7.9955,2.6404,0.44417,1.3202,1.3327,0.66011-2.665-0.66011-3.9978,3.7265-7.0001,6.601-7.9955,3.4845-1.5492,10.232-0.44417,12.212,1.3327,1.9803,1.7767,2.6404,1.7767,2.6404-1.3327,0-2.1843,2.5496-3.3231,4.8188-3.8961,3.7785-0.86655,6.733,0.17754,8.0532,1.6752,2.0504,2.8584,3.3005,6.2186,0.66009,8.8839-2.6404,2.665-0.34899,0.40614,3.9417-0.4822,2.763-0.88834,7.7485,0.2568,8.6003,3.1472,1.1454,3.1094,1.9803,8.4397-0.99015,11.105-2.9705,2.6652-7.2611,9.328-4.9508,11.549,2.3103,2.2211,9.5715,11.993,11.222,13.326,1.6503,1.3325,3.6306,4.4417,6.271,3.9975,2.6404-0.44417,5.6109-0.88834,7.9212-1.3325,9.1692-1.7925,13.303-2.7253,1.5338-2.3597,2.6423-3.6299,8.1756-4.7,10.576-5.3401-2.114-3.0923,5.7124-9.6235,5.7124-10.512z" fill-rule="evenodd" stroke="#650000" stroke-width="1.97975624" fill="#ffcd00"/>
<path d="m133.86,128.19c4.4043,7.4749,14.907,2.9898,17.617,5.98,2.7106,2.9896-2.633,13.406-4.3272,19.386-3.9132,5.15-12.631,4.8156-15.838,0.99175,1.7264-7.1431,1.8699-22.371,2.2087-22.869l0.33877-3.4882z" fill-rule="evenodd" stroke="#650000" stroke-width="2.08462596" fill="url(#linearGradient3596)"/>
<path d="m449.59,209.36c-1.4364-3.8662-5.7453-4.8325-5.7453-4.8325" stroke="#650000" stroke-width="1.97975624" fill="none"/>
<g stroke-width="1.97975624" stroke="#650000" fill="none">
<path stroke-opacity="0.3" d="m175.64,142.12c3.2548,6.1327,4.2124,16.544,0.53466,21.595"/>
<path stroke-opacity="0.3" d="m163.92,156.14c3.2548,1.7523,7.8116,12.265,7.1607,15.77-0.65103,3.5042-0.65103,3.5042-0.65103,3.5042"/>
<path stroke-opacity="0.3" d="m162.62,160.52c1.9528,5.2566,4.5567,13.141,3.9057,15.77-0.65087,2.6283-0.65087,2.6283-0.65087,2.6283"/>
<path stroke-opacity="0.3" d="m150.9,165.77c1.3021,5.2566,0.65103,14.017-1.3019,15.77-1.9529,1.7521-1.9529,1.7521-1.9529,1.7521"/>
<path stroke-opacity="0.3" d="m147.64,166.65c-1.9529,6.1325-3.9058,14.894-3.9058,14.894"/>
<path stroke-opacity="0.2994" d="m116.4,150.01c-3.2548,2.6283-7.8116,8.7608-7.8116,8.7608"/>
<path stroke-opacity="0.2994" d="m120.3,158.77c-5.2078-3.5042-11.067,2.6283-11.067,2.6283"/>
</g>
<g stroke="#650000" fill="none">
<path d="m119,128.98c-3.9057,5.2566-9.1135,10.513-9.1135,10.513" stroke-opacity="0.10189999" stroke-linecap="round" stroke-width="4.28179836"/>
<path d="m95.799,143.76c-5.0921,13.021-4.5829,13.021-11.203,15.762-6.6196,2.7413-6.6196,2.7413-6.6196,2.7413" stroke-opacity="0.08920001" stroke-width="2.44016457"/>
<path d="m87.912,168.14c-1.3019,3.5042-11.066,6.1325-11.066,6.1325" stroke-opacity="0.09549997" stroke-width="2.44016457"/>
</g>
<g stroke="#600" fill="none">
<path stroke-width="2.37110329" d="m191.97,110.45c-3.4328,1.5169-2.9257,9.4297-2.9257,9.4297"/>
<path stroke-width="2.07974768" d="m118.96,99.435c3.6652,2.5165,2.1991,10.065,2.1991,10.065"/>
</g>
<path d="m94.847,220.95c-0.26646,7.534-7.5594,5.5396-10.664,5.5614l2.6928-4.9196c0.38328-0.004,1.2603,0.47857,2.3135-0.28842l5.6575-0.35337z" fill-opacity="0.59870001" stroke-width="1" fill="#390000"/>
<g fill="none">
<path stroke-width="2.11477733" stroke="url(#linearGradient3628)" d="m119.46,132.95c-8.5427,52.528,43.856,32.182,44.216,14.488"/>
<path d="m58.3,155.66c18.426,0,26.252-25.272,26.252-25.272" stroke-opacity="0.26110002" stroke="url(#linearGradient3620)" stroke-width="2.01428676"/>
<path d="M65.492,161.6c14.098-3.25,21.952-21.52,21.952-21.52" stroke-opacity="0.26110002" stroke="url(#linearGradient3546)" stroke-width="2.78320193"/>
<path d="m49.038,145.29c14.29,0.81976,24.828-14.818,24.828-14.818" stroke-opacity="0.26110002" stroke="url(#linearGradient3543)" stroke-width="2.78320193"/>
</g>
<g stroke-width="1" fill="#390000" fill-opacity="0.1">
<path d="m48.393,124.46c-1.1659,2.4114-2.0484,3.4216-3.5163,4.8825-2.4326,1.8797-3.6559,1.6998-5.9794,1.4765-0.68235-0.25296-0.66073-5.5469-1.3005-5.9761l1.2529-3.6068c0.27643,0.19998,0.54781,0.36043,0.84408,0.48071,1.1326,0.16023,1.988-0.15447,3.1794-1.111,1.0465-1.0794,2.0149-3.1487,0.5813,0.1363l4.9385,3.7179z"/>
<path d="m158.87,156.25c0.83454,3.6181,0.76914,6.0289,0.47307,9.9504-0.95313,6.2802-1.2425,6.478-3.8792,11.664-0.93424,1.4475-0.47307-0.0994-2.9292,4.753l-8.588-5.7593c0.46195,1.8346-0.00032-1.3372,0.41433-1.9615,1.329-2.5069,1.2525-2.9082,1.6888-5.9986,0.17843-2.8112,2.4376-7.5105,3.7368-2.9325l9.0834-9.7152z"/>
<path d="m178.83,171.08c2.0161-2.1518,2.8365-4.0364,4.0111-7.2407,1.478-5.479,1.8199-10.008,1.4832-15.875-0.26098-1.7818-0.58832-3.4745-0.99964-5.2057l-7.8738,3.4987c0.19018,0.75268,0.34559,1.4802,0.46799,2.2572,0.2086,2.8761-0.0111,4.9113-0.76596,7.5836-0.87042,2.2723-2.6022,4.039,0.15367,1.4934l3.5234,13.489z"/>
<path d="m171.6,181.47c2.1747-3.463,3.9636-1.4466,4.6159-5.7426,0.36496-7.0958-0.57816-12.547-2.9035-19.242-0.93059-1.9583-1.9272-3.7813-3.0546-5.6095l-10.039,7.7962c0.50625,0.78942,0.95519,1.5658,1.3733,2.4159,1.2012,3.2611,1.5318,5.7418,1.3057,9.2189-0.51562,3.0641,0.0683,4.0379,2.4578,5.0062l6.2441,6.1567z"/>
<path d="m128.44,179.85c1.9628,0.54972,6.7995-1.0473,8.9069-1.4827,3.3669-1.1092,0.27114-1.6767,3.0202-4.1815,0.76406-0.86933,1.4548-3.8937,2.1266-4.8466l-3.649-0.23587c-0.46402,3.0421-3.4088,0.57258-3.7384,0.95757-1.3281,1.2577-1.193,0.4666-2.8502,0.98427-1.5113,0.28308-3.1567-0.22048-0.66945,0.68388l-3.1467,8.1209z"/>
<path d="m318.17,161.11c-1.1024,6.0353-2.637,9.1635-5.3778,13.98-5.006,7.0247-9.6724,10.823-16.188,13.965-2.0737,0.59244-4.0921,0.97401-6.2015,1.1889l-0.97043-20.301c0.92407-0.0673,1.8002-0.19784,2.7098-0.43648,3.2196-1.441,5.2773-3.2985,7.6984-6.8021,1.9212-3.501,2.7805-8.6313,1.6989-0.645l16.63-0.94945z"/>
<path d="m115.64,171.41c-0.44989,2.0814,5.0809,4.9489,8.3173,5.0878,3.3915-2.0482,3.5085-2.8349,5.8453-6.259,0.60246-1.1417-0.11731-0.37196,0.36148-1.5823l-7.1967-6.7083c-0.90836,0.53327-1.4751,1.0306-1.7323,1.5342-1.116,1.7064-1.0916,2.6783-2.7687,3.6553-1.5803,0.68432-1.7513,0.30146-0.54895,0.91527l-1.2155,1.928-1.0619,1.4291z"/>
<path d="m184.23,135.5c2.5838,0.29846,4.0292,1.2928,6.2955,3.1541,3.4166,3.5938,5.4792,7.2456,7.4771,12.582,0.46926,1.7436,0.84645,3.4611,1.166,5.2773l-8.1782,3.0761c-0.12907-0.79818-0.27845-1.5479-0.47577-2.3149-0.94138-2.6496-1.9256-4.2396-3.6212-5.9657-1.6399-1.2911-3.8276-1.4769-0.44973-1.4111l-2.2136-14.397z"/>
<path d="m122.16,215.87c-0.37099,7.7024-10.528,5.6636-14.852,5.6858l1.2144-2.0232c0.53378-0.004,4.2913-2.517,5.7581-3.3013l7.8793-0.36128z"/>
<path d="m131.99,212.38c-0.31639,10.871-8.9791,7.9934-12.667,8.0246l1.0358-2.8554c0.45513-0.004,3.6598-3.5525,4.9107-4.6592l6.7202-0.50998z"/>
<path d="m147.83,212.87c-0.43465,16.151-12.335,11.876-17.401,11.923l1.423-4.2424c0.62531-0.006,5.0277-5.2781,6.7462-6.9226l9.2319-0.75759z"/>
<path d="m163.49,212.62c-0.43465,16.151-12.335,11.876-17.401,11.923l1.423-4.2424c0.62531-0.006,5.0277-5.2781,6.7462-6.9226l9.2319-0.7576z"/>
<path d="m106.8,212.62c-0.371,16.151-10.528,11.876-14.852,11.923l1.2144-4.2424c0.53378-0.006,4.2912-5.2781,5.7581-6.9226l7.8793-0.7576z"/>
</g>
<path d="m114.42,168.53c-1.4005,4.0962-3.7086,7.2661-3.3419,9.8113l-2.1594-0.95479c1.6934,0.58561-1.9262-6.6237-2.8006-5.2653l2.0265-1.4366,0.46917-0.78986,1.0087-0.4916,4.7975-0.87317z" fill-opacity="0.59870001" stroke-width="1" fill="#390000"/>
<g stroke-opacity="0.10189999" stroke="#700" fill="none">
<path stroke-width="5.06449223" d="m390.09,185.75c0.23383-0.62941,0.46783-1.259,0.70167-1.8884-1.5448,4.158-1.1558,2.2377,4.2094-1.8884h10.524c4.367,0.0581,6.5628,0.93662,10.524,1.8884,2.419,1.3022,4.6461,3.263,7.0157,4.721"/>
<path stroke-width="5.06449223" d="m439.85,198.63c4.367,0.0581,6.5628,0.93662,10.524,1.8884,2.419,1.3022,4.6461,3.263,7.0157,4.721"/>
<path stroke-width="5.06449223" d="m419.28,171.45c4.2921-1.0853,6.573-0.79776,10.596-0.90009,2.5609,0.64457,5.0287,1.9856,7.5637,2.796"/>
<path stroke-width="3.8155241" d="m351.16,182.83c-2.8365,0.0833-4.2735-0.61679-6.8576-1.3267-1.5872-1.0631-3.058-2.7076-4.6151-3.9085"/>
<path stroke-width="4.19849539" d="m378.58,131.59c-14.071-0.41939-24.585-0.64821-34.021-0.90523-9.1046-0.22262-24.182-0.68409-34.061-0.93555"/>
<path stroke-width="3.81552243" d="m265.34,142.92c2.606-1.5094,4.1332-1.5859,6.7265-2.2326,1.7677,0.18395,3.5893,0.96569,5.3676,1.2928"/>
<path stroke-width="4.09289837" d="m318.18,192.91c-3.1937,0.79306-4.9298,0.46554-7.9643,0.41576-1.9637-0.6465-3.8884-1.8933-5.84-2.683"/>
<path stroke-width="6.28043509" d="m286.8,203.81c5.997,1.5733,9.4217,1.5205,15.294,2.0538,3.9338-0.38991,7.923-1.5062,11.864-2.0702"/>
</g>
<g stroke="#650000" fill="none">
<path stroke-width="1.97975624" d="m34.185,93.047c7.1289,0.68516,10.693,6.1676,12.221,10.965,1.5276,4.797,2.546,7.5381,2.546,7.5381"/>
<path stroke-width="1.97975624" d="m67.286,90c-4.0736,4.797-3.5644,13.706-3.5644,13.706"/>
<path stroke-width="1.97975624" d="m186.24,192.44c2.5135-8.6785,7.2262-10.634,13.122-13.471,6.1042-2.4161,15.396-9.7252,9.6503-4.4095-5.7453,5.316-14.034,8.6986-16.906,10.632-2.8726,1.9329-4.668,6.2421-3.202,8.2152"/>
<path d="m174.18,159.58c5.386,8.6984,2.0583,20.805-4.7642,24.188" stroke-linecap="round" stroke-width="1.97975624"/>
<path stroke-width="1.97975624" d="m192.14,129.62c8.7428,3.5297,9.0545,11.838,10.313,16.748-3.0815-1.3857-5.3208-0.7202-7.6341-1.7425"/>
<path stroke-width="1.97975624" d="m185.39,158.22c0,7.7321-5.4927,10.905-8.0063,11.871"/>
<path stroke-width="1.97975624" d="m54.87,84.545c0.71816,4.3492-0.35907,5.3157-1.4363,9.1817-1.0772,3.8662,0.35907,10.632,0.35907,10.632"/>
<path stroke-width="1.97975624" d="m421.38,167.46c-3.5907-0.48327-8.9769,1.4496-8.9769,1.4496"/>
<path stroke-width="1.97975624" d="m438.07,174.12c-5.0271,1.9331-10.772,2.4164-10.772,2.4164"/>
<path stroke-width="1.97975624" d="m444.53,185.27c-4.3089-0.48327-7.5406-0.48327-7.5406-0.48327"/>
<path stroke-width="1.97975624" d="m452.91,195.76c-4.3089-0.48327-11.131,0-11.131,0"/>
<path stroke-width="1.97975624" d="m407.27,218.35c1.0773-5.799,8.2129-10.446,12.163-10.446h3.9498"/>
<path stroke-width="1.97975624" d="m401.34,205.53c4.3089-1.4496,11.131-1.9329,11.131-1.9329"/>
<path stroke-width="1.97975624" d="m110.51,128.12c-11.991,6.1368-14.039,11.562-12.169,24.489"/>
<path stroke-width="1.96643186" d="m160.67,155.02c0.69833,6.9008,1.1106,26.179-6.2231,31.108-7.334,4.9288-16.518,5.5106-23.686,3.1455"/>
<path stroke-width="1.97975624" d="m144.44,165.71c-0.72008,6.7837-7.7185,23.678-21.353,21.358"/>
<path stroke-width="1.97975624" d="m358.68,119.1c1.7954-5.3158,10.054-10.148,10.054-10.148"/>
<path stroke-width="1.97975624" d="m346.67,118.82c3.5907-6.2823,10.054-10.148,10.054-10.148"/>
<path stroke-width="1.97975624" d="m329.15,119.4c5.4557-3.1957,6.988-4.4582,8.7796-6.1054,1.9344-1.8395,5.7451-5.3157,5.7451-5.3157"/>
<path stroke-width="1.88460267" d="m313.93,119.21c3.996-2.0296,7.0886-3.2218,9.7642-5.148,3.3585-2.2907,5.68-5.3901,5.68-5.3901"/>
<path stroke-width="1.97975624" d="M317.2,102.43c-12.69-4.201-18.37-12.544-18.37-12.544"/>
<path stroke-width="1.97975624" d="m338.33,84.645c-8.4064,3.4094-25.494,1.9331-26.213,1.9331"/>
<path stroke-width="1.97975624" d="m122.01,182.72c4.3089-3.3827,7.6993-10.351,7.6993-10.351"/>
<path stroke-width="2.14253068" d="m118.5,147.98c-6.3257-0.96931-22.329,12.511-17.167,29.273"/>
<path stroke-width="2.46566582" d="m107.51,139.65c-8.1473,2.1258-11.466,16.622-7.1248,24.417"/>
<path stroke-width="1.80852103" d="m188.69,134.4c5.9389,7.8996,8.2005,12.73,8.5438,15.483,0.55943,4.7782,0.58848,16.563-13.449,16.371,1.3082-3.5113,2.9608-12.78,0.71453-16.501"/>
<path d="m167.88,104.35c-0.65087,3.9634-0.65087,3.9634-0.65087,3.9634" stroke-linecap="round" stroke-width="3.84472704"/>
<path d="m141.1,97.197c-0.76501,2.9806-2.1204,6.0428-2.1204,6.0428" stroke-linecap="round" stroke-width="3.1188159"/>
<path stroke-width="1.97975624" d="m151.3,90.306c1.0185,8.9089-3.0551,13.706-5.6013,13.706-2.546,0-5.3889,3.3252-3.8255,8.6713"/>
<path stroke-width="1.97975624" d="m161.94,88.935c-4.5828,6.1678-5.6011,13.021-4.0735,18.503,1.5275,5.4824,0.0795,7.0762,0.0795,7.0762"/>
<path stroke-width="1.97975624" d="m182.36,119.09-5.6013,0s-3.5644,7.5383-9.6749,5.4824c-6.1104-2.0559-0.50911,0-0.50911,0"/>
<path stroke-width="1.97975624" d="m152.32,112.8c8.7185,0.21984,6.9654,6.9711,0.5091,6.2857,0.50927,8.2237-9.6356,7.1869-8.7674,0.88749-6.1009,0.17989-8.604-8.1402,0.25765-6.9892"/>
<path stroke-width="1.97975624" d="m164.13,123.82c0.35909,9.1819-16.877,15.947-16.518,1.9331"/>
<path stroke-width="1.99537325" d="m147.56,126.24c-0.3648,6.7656-9.8486,8.2154-13.132,2.4163-2.5533-3.8662-4.0124-5.799-5.8362-6.2823-1.8237-0.48327-1.6192-6.1103-1.9882-6.9375-0.22145-1.1255-1.4021-4.0319-1.9923-5.1243"/>
<path stroke-width="1.97975624" d="m174.54,98.209c-4.3089,4.3492-4.668,4.8325-4.668,4.8325"/>
<path stroke-width="1.97975624" d="m178.85,106.42c-5.7453,0.48326-6.0553,0.23287-6.0553,0.23287"/>
<path stroke-width="2.24324799" d="m158.4,103.16c4.2481-1.5152,14.134-0.24099,13.991,3.2808,0.006,4.3249-3.8649,4.5894-14.078,0.49695l0.0872-3.1756v-0.60206z"/>
<path stroke-width="1.82222652" d="m145,103.61c0.52942-5.1376-9.7904-10.204-12.304-7.3383-3.0613,4.7361,5.6237,8.9591,7.9271,8.9591,2.1545,0,0.87835,0.26813,0.87835,0.26813"/>
<path stroke-width="1.97975624" d="M173.03,122.85c-3.91,10.51-0.65,20.15-0.65,20.15"/>
<path stroke-width="1.97975624" d="m126.81,125.47c-3.2548,2.6283-5.8588,1.7523-5.8588,1.7523"/>
<path stroke-linejoin="miter" d="m133.15,125.94c-0.40418,9.6015-5.7548,14.721-5.7548,14.721" stroke-linecap="butt" stroke-width="2.08430052"/>
<path stroke-width="2.30103397" d="m127.75,121.48c-2.7551,10.464,0.77343,18.872,0.77343,18.872"/>
<path stroke-linejoin="miter" d="m155.01,133.73c-0.65352,9.4993,4.0861,15.409,4.0861,15.409" stroke-linecap="butt" stroke-width="2.07541871"/>
<path stroke-width="2.29122877" d="m160.85,130.23c1.5812,10.734-2.838,18.413-2.838,18.413"/>
<path stroke-width="1.97975624" d="m193.48,124.18c1.0671,0.51639,3.7979,0.043,8.8215,2.0893-2.0782,2.9778-7.437,4.709-9.5257,3.838"/>
<path stroke-width="1.97975624" d="m40.26,132.07c3.0552,1.3708,8.6565,0,8.6565,0"/>
<path stroke-width="1.80122638" d="m43.235,139.46c6.7441,2.0559,13.488-1.3705,13.488-1.3705"/>
<path stroke-width="1.97975624" d="m74.922,169.11c7.1289-2.0559,11.712-6.1678,11.712-6.1678"/>
<path stroke-width="1.97975624" d="m52.975,205.84c3.5908-0.96654,11.131,0,11.131,0"/>
<path stroke-width="1.97975624" d="m66.36,217.26c2.1545-3.8662,7.1816-7.2488,7.1816-7.2488"/>
<path stroke-width="1.97975624" d="m106.68,222.41c1.7954-2.4163,1.7954-10.148,1.7954-10.148"/>
<path stroke-width="1.97975624" d="m119.78,222.35c2.8583-3.1703,3.0143-9.9743,3.0143-9.9743"/>
<path stroke-width="1.97975624" d="m130.19,222.17c2.8727-5.316,2.4027-11.459,2.4027-11.459"/>
<path stroke-width="1.97975624" d="m146.5,222.76c1.7953-2.8996,1.7953-9.6652,1.7953-9.6652"/>
<path stroke-width="1.97975624" d="m262.87,207.42c-6.4633-1.4498-10.413,7.2488-10.413,7.2488"/>
<path stroke-width="1.97975624" d="m271.36,206.02c-0.71817,6.2823-5.7453,12.081-5.7453,12.081"/>
<path stroke-width="1.97975624" d="m281.55,205.49c-0.35893,5.316-6.1042,12.565-6.1042,12.565"/>
<path stroke-width="1.97975421" d="m294.22,203.37c-0.94583,7.0704-6.1152,12.37-6.1152,12.37"/>
<path stroke-width="1.97975624" d="m303.55,200.88c0.35909,6.2823-2.8727,15.947-5.0271,17.88"/>
<path stroke-width="1.97975624" d="m314.68,203.56c1.0773,3.3827,0,8.2154,0,8.2154"/>
<path stroke-width="1.97975624" d="m244.46,190.38c4.3089,0.96654,6.8225,5.799,6.8225,5.799"/>
<path stroke-width="1.97975624" d="m237.11,202.51c2.2647-7.6078,12.022-3.8903,13.202-1.8493"/>
<path d="m205.95,188.09c-6.178,2.0493-9.0749,2.1912-11.094,0.37879" stroke-linecap="round" stroke-width="1.97975624"/>
<path d="m212.83,183.04c-5.4202,2.0493-8.507,2.7522-11.198,1.08" stroke-linecap="round" stroke-width="1.91291404"/>
<path d="m222,176.86c-3.6042,2.0493-5.6568,2.7522-7.4463,1.08" stroke-linecap="round" stroke-width="1.55987656"/>
<path d="m228.36,172.1c-4.4113,2.0493-6.9237,2.7522-9.1138,1.08" stroke-linecap="round" stroke-width="1.72572303"/>
<path stroke-width="1.97975624" d="m54.341,84.545c0.71816,4.3492-0.35907,5.3157-1.4363,9.1817-1.0772,3.8662,0.35907,10.632,0.35907,10.632"/>
<path stroke-width="1.97975624" d="m67.99,90c-4.0736,4.797-3.5644,13.706-3.5644,13.706"/>
<path stroke-width="2.00321841" d="m34.713,92.099c7.2988,0.68517,10.948,6.1676,12.512,10.965,1.564,4.797,2.6067,7.5381,2.6067,7.5381"/>
</g>
</g>
<use xlink:href="#l" transform="translate(0,100.534)" height="300" width="500" y="0" x="0"/>
<use xlink:href="#l" transform="translate(0,201.633)" height="300" width="500" y="0" x="0"/>
</svg>
