<?xml version="1.0" encoding="UTF-8"?>
<svg xmlns="http://www.w3.org/2000/svg" xmlns:xlink="http://www.w3.org/1999/xlink" width="360" height="216">
<rect width="360" height="216" fill="#ed2939"/>
<g id="castle" transform="translate(0,-0.625025)" fill="#ffd700" stroke="#000" stroke-width="0.75">
<rect width="14.0299" height="27.284" y="32.6322" x="35.0056"/>
<rect width="14.0299" height="35.7965" y="24.2732" x="57.8343"/>
<rect width="14.0299" height="27.3549" y="32.7149" x="80.9781"/>
<path d="m30.5239,62.8751h67.8915l2.34026,25.9995 -72.4865,0.879236 2.25469,-26.8162z"/>
<rect width="79.3361" height="8.79214" y="89.0849" x="25.0484"/>
<path d="m28.3318,53.7454,6.76406,0,0.000108,3.95644,6.30917,0,0-3.95641,6.76406,0-0.000236,3.95644,6.30952,0,0-3.95644,6.76406,0,0.000416,3.95644,6.30886,0,0-3.95644,6.76406,0,0.00008,3.95644,6.662,0,0.000082-3.95644,6.4112,0,0,3.95641,6.29972,0.000038-0.000161-3.95648,6.76407,0,0,8.35256-72.1211,0z" transform="translate(0,0.625025)"/>
<path id="tower" d="m31.355,25.458,4.27967,0,0.000352,3.14631,4.02864,0,0.000365-3.14632,4.242,0.000013,0,3.13766,4.55642,0-0.000421-3.13764,4.3147,0,0,6.64199-21.4217,0.00026z" transform="translate(0,0.625025)"/>
<use xlink:href="#tower" x="22.82878" y="-8.2881957"/>
<use xlink:href="#tower" x="45.97247" y="0.15340429"/>
<g fill="#ed2939">
<rect height="5.59529" width="4.14521" y="38.9318" x="85.761"/>
<rect height="5.59529" width="4.14521" y="38.7783" x="39.7885"/>
<rect height="5.59529" width="4.14521" y="30.4901" x="62.6173"/>
<rect height="8.03588" width="6.46986" y="67.6219" x="84.0757"/>
<rect height="8.03588" width="6.46986" y="67.7962" x="39.0129"/>
<path d="m61.3431,88.418v-13.7719c0,-3.8352 8.04692,-3.4866 8.22584,-0.348682c0.178711,3.13792 0.178711,13.2489 0.178711,14.1205c-0.894171,0.174321 -7.33146,0.00006 -8.40455,0z"/>
</g>
</g>
<use xlink:href="#castle" x="234"/>
<use xlink:href="#castle" y="52" x="117"/>
<use xlink:href="#castle" y="104" x="234"/>
<use xlink:href="#castle" y="104"/>
</svg>
