<?xml version="1.0" encoding="UTF-8" standalone="no"?>
<!-- Created with Inkscape (http://www.inkscape.org/) -->

<svg
   xmlns:dc="http://purl.org/dc/elements/1.1/"
   xmlns:cc="http://creativecommons.org/ns#"
   xmlns:rdf="http://www.w3.org/1999/02/22-rdf-syntax-ns#"
   xmlns:svg="http://www.w3.org/2000/svg"
   xmlns="http://www.w3.org/2000/svg"
   xmlns:inkscape="http://www.inkscape.org/namespaces/inkscape"
   version="1.1"
   width="625"
   height="375"
   id="svg2"
   xml:space="preserve"><metadata
     id="metadata8"><rdf:RDF><cc:Work
         rdf:about=""><dc:format>image/svg+xml</dc:format><dc:type
           rdf:resource="http://purl.org/dc/dcmitype/StillImage" /></cc:Work></rdf:RDF></metadata><defs
     id="defs6"><clipPath
       id="clipPath22"><path
         d="M 0,300 500,300 500,0 0,0 0,300 z"
         inkscape:connector-curvature="0"
         id="path24" /></clipPath></defs><g
     transform="matrix(1.25,0,0,-1.25,0,375)"
     id="g10"><path
       d="M 0,0 500,0 500,300 0,300 0,0 z"
       inkscape:connector-curvature="0"
       id="path12"
       style="fill:#ed2939;fill-opacity:1;fill-rule:nonzero;stroke:none" /><path
       d="M 0,0 250,0 250,300 0,300 0,0 z"
       inkscape:connector-curvature="0"
       id="path14"
       style="fill:#ffd203;fill-opacity:1;fill-rule:nonzero;stroke:none" /><path
       d="m 0,195.63 500,0 0,104.369 -500,0 0,-104.369 z"
       inkscape:connector-curvature="0"
       id="path16"
       style="fill:#002395;fill-opacity:1;fill-rule:nonzero;stroke:none" /><g
       id="g18"><g
         clip-path="url(#clipPath22)"
         id="g20"><g
           transform="translate(413.3555,69.8887)"
           id="g26"><path
             d="m 0,0 c -6.979,-3.653 -13.621,-3.871 -18.273,-1.68 -4.653,2.192 0.775,-2.922 3.101,-5.114 2.326,-2.192 1.551,-4.384 1.551,-6.575 0,-2.193 -0.041,-5.032 0.583,-7.669 -4.652,-0.731 -9.112,1.093 -12.989,3.284 2.283,-2.509 1.966,-3.976 3.685,-5.943 -3.928,-0.033 -7.635,3.3 -10.879,4.933 1.683,-1.964 3.103,-5.029 4.547,-7.275 -3.168,-0.324 -6.934,3.459 -8.472,4.715 0.496,-0.983 1.502,-5.246 2.015,-7.981 -3.789,0.934 -4.694,6.474 -7.47,6.053 0.009,-0.613 -0.77,-2.617 0.06,-4.49 1.639,-3.703 -2.087,-2.177 -3.318,-1.883 -3.254,-0.037 -4.166,-0.92 -3.535,3.856 -0.775,1.462 -2.997,2.902 -2.997,-0.022 0,-2.922 -2.047,-6.538 -4.037,-6.538 -1.99,0 -3.205,2.493 -3.965,4.565 -3.574,2.735 -1.623,5.047 1.479,4.316 3.101,-0.731 0.76,4.384 -1.566,2.923 -2.327,-1.461 -6.995,-1.493 -6.219,0.7 0.775,2.192 1.215,3.932 0.439,6.854 -0.775,2.923 2.854,2.426 4.405,0.965 1.55,-1.462 2.238,-3.239 5.339,-2.509 3.102,0.731 0.232,3.24 -2.094,3.985 -2.327,0 -2.095,2.791 1.598,4.55 2.575,4.364 6.38,4.843 5.764,0.332 0,-2.193 1.047,-6.592 10.488,-5.53 6.979,0.731 8.139,6.033 5.34,8.821 -1.743,1.378 -3.589,4.191 -3.836,9.449 -1.135,-0.928 -2.682,-1.638 -4.79,-1.69 -3.571,-0.215 -4.751,1.309 -7.819,2.533 1.911,1.001 4.75,2.552 7.535,2.047 2.295,-0.024 4.521,1.204 5.368,3.366 1.552,3.652 4.911,3.675 7.931,3.005 3.381,-0.79 11.495,-0.4 11.495,1.061 -3.722,1.104 -8.3,4.365 -9.868,8.891 -0.008,-3.375 -2.046,-5.6 -5.041,-4.996 -1.45,0.332 -3.571,0.22 -4.922,0.146 1.66,1.264 4.09,5.436 2.117,8.217 -0.905,1.31 -1.113,3.926 -0.931,5.533 -0.567,-0.451 -2.315,-3.252 -1.012,-5.4 -2.121,-0.193 -3.78,2.425 -6.243,3.224 -0.439,-0.844 1.003,-2.884 1.332,-3.832 -1.107,-0.343 -1.853,-0.76 -4.873,0.63 -0.802,-2.154 -0.388,-3.159 -0.577,-3.929 -0.956,0.067 -3.294,0.6 -4.444,1.768 0.025,-1.383 -0.766,-2.416 -1.096,-3.578 -1.515,0.301 -2.831,0.693 -4.156,2.381 -0.103,-1.092 -0.96,-1.576 -0.801,-3.323 -2.074,0.098 -4.451,3.032 -7.072,5.13 -0.76,-1.853 2.445,-9.28 0.119,-8.549 -3.557,0.896 -7.346,-1.575 -7.45,1.197 0.775,2.192 -0.423,2.238 -2.749,0.046 -2.063,-2.275 -6.236,-4.74 -6.203,2.192 -2.696,3.781 -1.799,4.881 2.342,4.368 3.876,0.731 5.443,2.297 2.414,3.156 -5.844,-1.129 -7.06,1.394 -4.597,3.683 0.616,2.042 0.616,4.136 2.942,3.405 3.996,-2.47 5.428,0 3.102,1.462 -2.326,1.461 -1.816,3.269 1.918,4.383 2.238,2.938 5.06,2.192 5.06,-0.73 -0.528,-3.502 1.815,-5.544 3.366,-4.082 1.55,1.461 7.57,2.041 9.896,2.771 2.326,0.731 9.225,6.425 9.225,8.617 -5.125,-0.176 -8.225,0.948 -10.023,2.067 -0.234,1.435 -0.46,2.546 0.173,4.613 -5.057,-2.558 -7.247,-1.32 -8.657,0.021 1.116,1.022 2.922,4.718 3.696,6.104 -2.83,-1.183 -3.754,-2.063 -5.016,-1.49 -0.529,1.445 0.41,2.905 0.746,4.051 -2.992,-2.581 -4.948,-2.483 -7.56,-2.077 2.698,3.94 3.199,6.007 3.802,10.008 -1.812,-0.81 -3.773,-0.678 -4.972,-0.752 -0.256,1.305 -0.621,3.301 -0.104,5.219 -3.655,-0.904 -5.972,-1.823 -4.828,2.689 0,2.192 -0.896,4.964 2.502,3.887 1.551,0 1.463,2.658 -0.864,2.658 -6.02,0.414 -7.45,2.109 -4.372,5.627 0.879,4.181 2.91,5.213 4.461,1.944 1.551,-2.192 5.867,-4.295 4.651,0 -2.797,4.294 -4.628,7.968 0.777,7.306 4.876,1.243 4.844,-1.597 3.453,-4.617 -0.775,-2.689 1.974,-3.42 2.749,-1.959 -0.28,2.787 1.486,4.814 3.949,1.876 3.078,-3.601 4.117,-5.71 -0.143,-7.985 -2.327,-2.192 5.427,-7.712 7.945,-14.198 3.75,-1.183 10.016,-4.624 13.838,-5.996 2.326,2.192 12.117,6.863 20.935,6.576 6.101,-0.196 7.754,2.364 8.53,4.556 0.775,2.192 -2.294,0.046 -3.174,1.989 -1.319,-1.621 -3.598,-1.56 -4.565,0.565 -3.429,-3.76 -8.279,-5.751 -6.851,0.181 0.709,3.024 0.258,5.145 2.375,5.295 13.2,-2.004 12.367,5.868 8.353,6.862 -4.482,1.064 -11.713,-4.668 -10.679,3.517 0.485,3.845 0.319,2.441 -1.231,3.172 -1.552,0.73 1.815,3.819 4.141,3.819 3.732,0.082 4.859,1.694 6.57,4.15 0.582,0.365 8.577,0.162 11.535,0.474 3.826,0.728 13.069,3.654 17.367,2.745 -1.17,-2.788 -2.499,-2.584 -3.233,-4.399 3.025,-0.448 6.474,-1.551 7.163,-1.831 -1.551,-1.529 -2.431,-2.578 -3.879,-3.663 3.367,-0.715 4.193,-0.397 3.774,-5.83 -0.069,-3.742 -0.336,-8.632 -4.989,-8.632 -4.652,0 4.259,-3.562 3.965,-8.624 -0.299,-3.95 -0.488,-9.754 2.046,-13.114 1.59,-2.167 3.87,-7.215 0.6,-10.093 -1.049,3.56 -2.868,6.47 -4.837,8.657 -1.133,-1.481 -2.115,-4.54 -0.982,-6.338 1.39,-2.287 1.342,-4.647 1.342,-7.569 0,-2.923 -0.91,-5.088 -0.64,-10.386 -1.292,0.364 -2.966,2.003 -3.83,3.71 -0.435,-1.947 -1.785,-2.932 -2.429,-8.427 -2.969,2.332 -3.82,5.084 -3.62,6.742 0.071,5.144 -0.684,4.435 -2.235,7.358 -0.438,-1.401 -0.208,-3.219 0.386,-6.016 -2.326,1.462 -3.118,1.685 0.564,-4.201 3.035,-4.756 3.923,-17.957 9.974,-21.01 3.877,-0.731 5.668,-4.068 7.994,-5.53 2.326,-1.46 6.722,-0.638 11.67,-6.808 8.907,-6.418 15.613,-0.607 10.664,8.421 -1.512,2.682 -7.578,6.674 -8.353,9.596 -4.382,0.27 -8.578,2.199 -7.594,7.555 -5.086,-0.445 -7.819,5.317 -4.213,10.312 -6.948,2.01 -5.892,10.974 2.518,12.503 0.672,8.49 12.182,16.488 17.835,20.293 4.573,3.03 16.607,12.644 9.712,23.28 -4.365,6.746 -13.19,2.394 -12.039,-4.285 0.59,-3.324 3.874,-3.948 8.458,-2.757 0.161,-3.46 -6.455,-10.115 -11.048,-4.632 0.104,-2.978 -0.551,-7.171 -6.363,-8.798 -3.877,-1.462 -3.853,-4.053 -3.013,-7.985 -7.147,0.173 -10.52,6.652 -8.97,11.036 1.551,4.383 6.491,4.436 6.491,6.628 0,2.192 -5.667,2.839 -6.348,6.508 -0.781,4.298 0.985,7.847 4.542,8.767 -1.543,-4.964 4.609,-7.415 8.321,-2.907 6.428,7.782 17.744,9.476 22.766,3.939 3.403,-3.75 8.553,-12.615 2.271,-21.919 C 52.398,76.994 42.532,69.469 38.67,67.48 c -1.406,-0.802 -6.235,-4.419 -6.261,-6.505 3.34,2.234 6.034,2.156 8.3,3.033 -0.14,-2.516 -9.374,-7.01 -8.247,-10.565 2.356,1.811 9.277,4.74 12.894,8.389 C 47.419,54.99 29.2,48.945 31.595,44.206 c 2.067,3.023 12.882,5.515 17.183,9.558 -0.273,-4.356 -3.685,-8.911 -10.096,-12.535 -7.379,-3.954 -5.62,-8.038 -3.588,-9.547 1.343,6.041 9.606,7.687 14.675,13.841 1.11,-3.127 -1.823,-8.195 -5.38,-12.164 -3.47,-3.39 -3.31,-6.064 -0.208,-10.447 3.101,-4.385 8.561,-12.172 6.235,-15.825 -2.326,-3.653 5.523,3.729 11.406,-2.094 1.535,-1.669 3.6,-3.766 8.449,-4.544 -1.45,-1.881 -3.365,-3.385 -7.61,-1.678 -4.356,3.082 -6.618,2.176 -9.439,0.015 C 47.938,-5.944 40.345,-9.508 30.751,-1.629 26.874,2.025 25.237,4.758 20.703,4.699 23.029,-0.416 19.72,-5.334 19.72,-8.986 c 0,-3.655 0.104,-6.328 6.307,-7.059 6.203,-0.73 7.65,-5.363 10.751,-4.632 1.404,0.579 2.858,0.198 4.351,0.658 0.139,-1.471 0.656,-3.713 -2.299,-4.444 -3.877,-1.461 -1.517,-1.699 0.034,-3.891 0.762,-1.314 0.398,-3.148 0.587,-5.062 -0.128,-2.35 2.15,-3.734 4.625,-4.066 -1.73,-2.026 -5.16,-2.52 -7.566,-0.596 1.784,-4.604 -0.699,-5.482 -3.801,-3.29 2.615,-3.775 -2.057,-4.235 -5.934,-2.773 1.84,-2.103 3.959,-4.315 0.403,-5.678 -3.646,-3.601 -3.581,-0.814 -5.132,1.378 -1.551,2.192 -2.965,-4.459 -4.46,-5.409 -2.463,-0.285 -3.294,3.285 -6.396,4.016 -1.782,1.145 0.952,1.973 2.046,2.922 1.359,0.949 -0.983,1.348 -4.085,-0.113 -3.101,-1.461 -4.236,-1.182 -3.197,2.983 0.952,4.994 2.334,3.533 5.363,2.057 3.119,0.678 -4.851,2.839 0.439,6.231 0.535,2.285 2.2,4.562 5.088,-0.054 3.877,-1.462 3.3,3.011 2.524,5.203 -0.775,2.192 -7.37,5.943 -8.953,9.197 -2.208,-5.285 -4.598,-8.238 -10.962,-9.779 0.64,2.806 -0.252,5.027 1.613,6.861 2.327,3.654 -0.731,5.11 -0.731,8.763 -3.431,3.819 -1.231,11.501 -0.336,15.561 L 0,0 z"
             inkscape:connector-curvature="0"
             id="path28"
             style="fill:#ffffff;fill-opacity:1;fill-rule:nonzero;stroke:none" /></g><g
           transform="translate(413.3555,69.8887)"
           id="g30"><path
             d="m 0,0 c -6.979,-3.653 -13.621,-3.871 -18.273,-1.68 -4.653,2.192 0.775,-2.922 3.101,-5.114 2.326,-2.192 1.551,-4.384 1.551,-6.575 0,-2.193 -0.041,-5.032 0.583,-7.669 -4.652,-0.731 -9.112,1.093 -12.989,3.284 2.283,-2.509 1.966,-3.976 3.685,-5.943 -3.928,-0.033 -7.635,3.3 -10.879,4.933 1.683,-1.964 3.103,-5.029 4.547,-7.275 -3.168,-0.324 -6.934,3.459 -8.472,4.715 0.496,-0.983 1.502,-5.246 2.015,-7.981 -3.789,0.934 -4.694,6.474 -7.47,6.053 0.009,-0.613 -0.77,-2.617 0.06,-4.49 1.639,-3.703 -2.087,-2.177 -3.318,-1.883 -3.254,-0.037 -4.166,-0.92 -3.535,3.856 -0.775,1.462 -2.997,2.902 -2.997,-0.022 0,-2.922 -2.047,-6.538 -4.037,-6.538 -1.99,0 -3.205,2.493 -3.965,4.565 -3.574,2.735 -1.623,5.047 1.479,4.316 3.101,-0.731 0.76,4.384 -1.566,2.923 -2.327,-1.461 -6.995,-1.493 -6.219,0.7 0.775,2.192 1.215,3.932 0.439,6.854 -0.775,2.923 2.854,2.426 4.405,0.965 1.55,-1.462 2.238,-3.239 5.339,-2.509 3.102,0.731 0.232,3.24 -2.094,3.985 -2.327,0 -2.095,2.791 1.598,4.55 2.575,4.364 6.38,4.843 5.764,0.332 0,-2.193 1.047,-6.592 10.488,-5.53 6.979,0.731 8.139,6.033 5.34,8.821 -1.743,1.378 -3.589,4.191 -3.836,9.449 -1.135,-0.928 -2.682,-1.638 -4.79,-1.69 -3.571,-0.215 -4.751,1.309 -7.819,2.533 1.911,1.001 4.75,2.552 7.535,2.047 2.295,-0.024 4.521,1.204 5.368,3.366 1.552,3.652 4.911,3.675 7.931,3.005 3.381,-0.79 11.495,-0.4 11.495,1.061 -3.722,1.104 -8.3,4.365 -9.868,8.891 -0.008,-3.375 -2.046,-5.6 -5.041,-4.996 -1.45,0.332 -3.571,0.22 -4.922,0.146 1.66,1.264 4.09,5.436 2.117,8.217 -0.905,1.31 -1.113,3.926 -0.931,5.533 -0.567,-0.451 -2.315,-3.252 -1.012,-5.4 -2.121,-0.193 -3.78,2.425 -6.243,3.224 -0.439,-0.844 1.003,-2.884 1.332,-3.832 -1.107,-0.343 -1.853,-0.76 -4.873,0.63 -0.802,-2.154 -0.388,-3.159 -0.577,-3.929 -0.956,0.067 -3.294,0.6 -4.444,1.768 0.025,-1.383 -0.766,-2.416 -1.096,-3.578 -1.515,0.301 -2.831,0.693 -4.156,2.381 -0.103,-1.092 -0.96,-1.576 -0.801,-3.323 -2.074,0.098 -4.451,3.032 -7.072,5.13 -0.76,-1.853 2.445,-9.28 0.119,-8.549 -3.557,0.896 -7.346,-1.575 -7.45,1.197 0.775,2.192 -0.423,2.238 -2.749,0.046 -2.063,-2.275 -6.236,-4.74 -6.203,2.192 -2.696,3.781 -1.799,4.881 2.342,4.368 3.876,0.731 5.443,2.297 2.414,3.156 -5.844,-1.129 -7.06,1.394 -4.597,3.683 0.616,2.042 0.616,4.136 2.942,3.405 3.996,-2.47 5.428,0 3.102,1.462 -2.326,1.461 -1.816,3.269 1.918,4.383 2.238,2.938 5.06,2.192 5.06,-0.73 -0.528,-3.502 1.815,-5.544 3.366,-4.082 1.55,1.461 7.57,2.041 9.896,2.771 2.326,0.731 9.225,6.425 9.225,8.617 -5.125,-0.176 -8.225,0.948 -10.023,2.067 -0.234,1.435 -0.46,2.546 0.173,4.613 -5.057,-2.558 -7.247,-1.32 -8.657,0.021 1.116,1.022 2.922,4.718 3.696,6.104 -2.83,-1.183 -3.754,-2.063 -5.016,-1.49 -0.529,1.445 0.41,2.905 0.746,4.051 -2.992,-2.581 -4.948,-2.483 -7.56,-2.077 2.698,3.94 3.199,6.007 3.802,10.008 -1.812,-0.81 -3.773,-0.678 -4.972,-0.752 -0.256,1.305 -0.621,3.301 -0.104,5.219 -3.655,-0.904 -5.972,-1.823 -4.828,2.689 0,2.192 -0.896,4.964 2.502,3.887 1.551,0 1.463,2.658 -0.864,2.658 -6.02,0.414 -7.45,2.109 -4.372,5.627 0.879,4.181 2.91,5.213 4.461,1.944 1.551,-2.192 5.867,-4.295 4.651,0 -2.797,4.294 -4.628,7.968 0.777,7.306 4.876,1.243 4.844,-1.597 3.453,-4.617 -0.775,-2.689 1.974,-3.42 2.749,-1.959 -0.28,2.787 1.486,4.814 3.949,1.876 3.078,-3.601 4.117,-5.71 -0.143,-7.985 -2.327,-2.192 5.427,-7.712 7.945,-14.198 3.75,-1.183 10.016,-4.624 13.838,-5.996 2.326,2.192 12.117,6.863 20.935,6.576 6.101,-0.196 7.754,2.364 8.53,4.556 0.775,2.192 -2.294,0.046 -3.174,1.989 -1.319,-1.621 -3.598,-1.56 -4.565,0.565 -3.429,-3.76 -8.279,-5.751 -6.851,0.181 0.709,3.024 0.258,5.145 2.375,5.295 13.2,-2.004 12.367,5.868 8.353,6.862 -4.482,1.064 -11.713,-4.668 -10.679,3.517 0.485,3.845 0.319,2.441 -1.231,3.172 -1.552,0.73 1.815,3.819 4.141,3.819 3.732,0.082 4.859,1.694 6.57,4.15 0.582,0.365 8.577,0.162 11.535,0.474 3.826,0.728 13.069,3.654 17.367,2.745 -1.17,-2.788 -2.499,-2.584 -3.233,-4.399 3.025,-0.448 6.474,-1.551 7.163,-1.831 -1.551,-1.529 -2.431,-2.578 -3.879,-3.663 3.367,-0.715 4.193,-0.397 3.774,-5.83 -0.069,-3.742 -0.336,-8.632 -4.989,-8.632 -4.652,0 4.259,-3.562 3.965,-8.624 -0.299,-3.95 -0.488,-9.754 2.046,-13.114 1.59,-2.167 3.87,-7.215 0.6,-10.093 -1.049,3.56 -2.868,6.47 -4.837,8.657 -1.133,-1.481 -2.115,-4.54 -0.982,-6.338 1.39,-2.287 1.342,-4.647 1.342,-7.569 0,-2.923 -0.91,-5.088 -0.64,-10.386 -1.292,0.364 -2.966,2.003 -3.83,3.71 -0.435,-1.947 -1.785,-2.932 -2.429,-8.427 -2.969,2.332 -3.82,5.084 -3.62,6.742 0.071,5.144 -0.684,4.435 -2.235,7.358 -0.438,-1.401 -0.208,-3.219 0.386,-6.016 -2.326,1.462 -3.118,1.685 0.564,-4.201 3.035,-4.756 3.923,-17.957 9.974,-21.01 3.877,-0.731 5.668,-4.068 7.994,-5.53 2.326,-1.46 6.722,-0.638 11.67,-6.808 8.907,-6.418 15.613,-0.607 10.664,8.421 -1.512,2.682 -7.578,6.674 -8.353,9.596 -4.382,0.27 -8.578,2.199 -7.594,7.555 -5.086,-0.445 -7.819,5.317 -4.213,10.312 -6.948,2.01 -5.892,10.974 2.518,12.503 0.672,8.49 12.182,16.488 17.835,20.293 4.573,3.03 16.607,12.644 9.712,23.28 -4.365,6.746 -13.19,2.394 -12.039,-4.285 0.59,-3.324 3.874,-3.948 8.458,-2.757 0.161,-3.46 -6.455,-10.115 -11.048,-4.632 0.104,-2.978 -0.551,-7.171 -6.363,-8.798 -3.877,-1.462 -3.853,-4.053 -3.013,-7.985 -7.147,0.173 -10.52,6.652 -8.97,11.036 1.551,4.383 6.491,4.436 6.491,6.628 0,2.192 -5.667,2.839 -6.348,6.508 -0.781,4.298 0.985,7.847 4.542,8.767 -1.543,-4.964 4.609,-7.415 8.321,-2.907 6.428,7.782 17.744,9.476 22.766,3.939 3.403,-3.75 8.553,-12.615 2.271,-21.919 C 52.398,76.994 42.532,69.469 38.67,67.48 c -1.406,-0.802 -6.235,-4.419 -6.261,-6.505 3.34,2.234 6.034,2.156 8.3,3.033 -0.14,-2.516 -9.374,-7.01 -8.247,-10.565 2.356,1.811 9.277,4.74 12.894,8.389 C 47.419,54.99 29.2,48.945 31.595,44.206 c 2.067,3.023 12.882,5.515 17.183,9.558 -0.273,-4.356 -3.685,-8.911 -10.096,-12.535 -7.379,-3.954 -5.62,-8.038 -3.588,-9.547 1.343,6.041 9.606,7.687 14.675,13.841 1.11,-3.127 -1.823,-8.195 -5.38,-12.164 -3.47,-3.39 -3.31,-6.064 -0.208,-10.447 3.101,-4.385 8.561,-12.172 6.235,-15.825 -2.326,-3.653 5.523,3.729 11.406,-2.094 1.535,-1.669 3.6,-3.766 8.449,-4.544 -1.45,-1.881 -3.365,-3.385 -7.61,-1.678 -4.356,3.082 -6.618,2.176 -9.439,0.015 C 47.938,-5.944 40.345,-9.508 30.751,-1.629 26.874,2.025 25.237,4.758 20.703,4.699 23.029,-0.416 19.72,-5.334 19.72,-8.986 c 0,-3.655 0.104,-6.328 6.307,-7.059 6.203,-0.73 7.65,-5.363 10.751,-4.632 1.404,0.579 2.858,0.198 4.351,0.658 0.139,-1.471 0.656,-3.713 -2.299,-4.444 -3.877,-1.461 -1.517,-1.699 0.034,-3.891 0.762,-1.314 0.398,-3.148 0.587,-5.062 -0.128,-2.35 2.15,-3.734 4.625,-4.066 -1.73,-2.026 -5.16,-2.52 -7.566,-0.596 1.784,-4.604 -0.699,-5.482 -3.801,-3.29 2.615,-3.775 -2.057,-4.235 -5.934,-2.773 1.84,-2.103 3.959,-4.315 0.403,-5.678 -3.646,-3.601 -3.581,-0.814 -5.132,1.378 -1.551,2.192 -2.965,-4.459 -4.46,-5.409 -2.463,-0.285 -3.294,3.285 -6.396,4.016 -1.782,1.145 0.952,1.973 2.046,2.922 1.359,0.949 -0.983,1.348 -4.085,-0.113 -3.101,-1.461 -4.236,-1.182 -3.197,2.983 0.952,4.994 2.334,3.533 5.363,2.057 3.119,0.678 -4.851,2.839 0.439,6.231 0.535,2.285 2.2,4.562 5.088,-0.054 3.877,-1.462 3.3,3.011 2.524,5.203 -0.775,2.192 -7.37,5.943 -8.953,9.197 -2.208,-5.285 -4.598,-8.238 -10.962,-9.779 0.64,2.806 -0.252,5.027 1.613,6.861 2.327,3.654 -0.731,5.11 -0.731,8.763 -3.431,3.819 -1.231,11.501 -0.336,15.561 L 0,0 z"
             inkscape:connector-curvature="0"
             id="path32"
             style="fill:none;stroke:#000000;stroke-width:0.89200002;stroke-linecap:butt;stroke-linejoin:miter;stroke-miterlimit:4;stroke-opacity:1;stroke-dasharray:none" /></g><g
           transform="translate(433.248,74.6377)"
           id="g34"><path
             d="M 0,0 C -0.957,-4.21 -4.922,-7.005 -4.922,-7.005"
             inkscape:connector-curvature="0"
             id="path36"
             style="fill:none;stroke:#666666;stroke-width:0.71399999;stroke-linecap:butt;stroke-linejoin:miter;stroke-miterlimit:4;stroke-opacity:1;stroke-dasharray:none" /></g><g
           transform="translate(443.6465,158.1626)"
           id="g38"><path
             d="m 0,0 c -3.482,-3.649 -5.01,-4.695 -7.022,-7.218 -1.932,-2.357 -2.365,-6.751 -0.403,-9.339"
             inkscape:connector-curvature="0"
             id="path40"
             style="fill:none;stroke:#666666;stroke-width:0.71399999;stroke-linecap:butt;stroke-linejoin:miter;stroke-miterlimit:4;stroke-opacity:1;stroke-dasharray:none" /></g><g
           transform="translate(442.3818,130.4883)"
           id="g42"><path
             d="M 0,0 C -1.915,-1.805 -2.554,-5.113 -2.554,-5.715"
             inkscape:connector-curvature="0"
             id="path44"
             style="fill:none;stroke:#666666;stroke-width:0.71399999;stroke-linecap:butt;stroke-linejoin:miter;stroke-miterlimit:4;stroke-opacity:1;stroke-dasharray:none" /></g><g
           transform="translate(440.7832,122.6699)"
           id="g46"><path
             d="M 0,0 C -1.597,-2.406 -1.915,-9.023 -1.915,-9.023"
             inkscape:connector-curvature="0"
             id="path48"
             style="fill:none;stroke:#666666;stroke-width:0.71399999;stroke-linecap:butt;stroke-linejoin:miter;stroke-miterlimit:4;stroke-opacity:1;stroke-dasharray:none" /></g><g
           transform="translate(444.2861,113.3516)"
           id="g50"><path
             d="M 0,0 C -3.83,-3.308 -3.192,-7.819 -3.192,-7.819"
             inkscape:connector-curvature="0"
             id="path52"
             style="fill:none;stroke:#666666;stroke-width:0.71399999;stroke-linecap:butt;stroke-linejoin:miter;stroke-miterlimit:4;stroke-opacity:1;stroke-dasharray:none" /></g><g
           transform="translate(448.4424,100.8545)"
           id="g54"><path
             d="M 0,0 C -0.648,-0.929 1.919,-4.604 3.831,-4.347"
             inkscape:connector-curvature="0"
             id="path56"
             style="fill:none;stroke:#666666;stroke-width:0.71399999;stroke-linecap:butt;stroke-linejoin:miter;stroke-miterlimit:4;stroke-opacity:1;stroke-dasharray:none" /></g><g
           transform="translate(462.4834,69.1387)"
           id="g58"><path
             d="M 0,0 C -3.831,-1.805 -5.753,-2.445 -9.576,-0.902"
             inkscape:connector-curvature="0"
             id="path60"
             style="fill:none;stroke:#666666;stroke-width:0.71399999;stroke-linecap:butt;stroke-linejoin:miter;stroke-miterlimit:4;stroke-opacity:1;stroke-dasharray:none" /></g><g
           transform="translate(444.2861,46.2402)"
           id="g62"><path
             d="m 0,0 c 2.554,-2.707 1.922,-9.889 -1.908,-12.596 -3.83,-2.707 -1.915,-0.601 -1.915,-0.601"
             inkscape:connector-curvature="0"
             id="path64"
             style="fill:none;stroke:#666666;stroke-width:0.71399999;stroke-linecap:butt;stroke-linejoin:miter;stroke-miterlimit:4;stroke-opacity:1;stroke-dasharray:none" /></g><g
           transform="translate(434.5273,72.6934)"
           id="g66"><path
             d="M 0,0 C -1.915,-5.414 -6.838,-8.378 -6.838,-8.378"
             inkscape:connector-curvature="0"
             id="path68"
             style="fill:none;stroke:#666666;stroke-width:0.71399999;stroke-linecap:butt;stroke-linejoin:miter;stroke-miterlimit:4;stroke-opacity:1;stroke-dasharray:none" /></g><g
           transform="translate(433.9434,66.125)"
           id="g70"><path
             d="M 0,0 C -3.511,-4.812 -8.161,-7.819 -8.161,-7.819"
             inkscape:connector-curvature="0"
             id="path72"
             style="fill:none;stroke:#666666;stroke-width:0.71399999;stroke-linecap:butt;stroke-linejoin:miter;stroke-miterlimit:4;stroke-opacity:1;stroke-dasharray:none" /></g><g
           transform="translate(432.7061,61.0566)"
           id="g74"><path
             d="M 0,0 C -2.234,-3.309 -5.015,-5.156 -5.015,-5.156"
             inkscape:connector-curvature="0"
             id="path76"
             style="fill:none;stroke:#666666;stroke-width:0.71399999;stroke-linecap:butt;stroke-linejoin:miter;stroke-miterlimit:4;stroke-opacity:1;stroke-dasharray:none" /></g><g
           transform="translate(433.123,57.4043)"
           id="g78"><path
             d="M 0,0 C -2.234,-2.405 -5.107,-3.909 -5.107,-3.909"
             inkscape:connector-curvature="0"
             id="path80"
             style="fill:none;stroke:#666666;stroke-width:0.71399999;stroke-linecap:butt;stroke-linejoin:miter;stroke-miterlimit:4;stroke-opacity:1;stroke-dasharray:none" /></g><g
           transform="translate(435.0273,55.0029)"
           id="g82"><path
             d="M 0,0 C -1.596,-2.106 -2.872,-4.512 -2.872,-4.512"
             inkscape:connector-curvature="0"
             id="path84"
             style="fill:none;stroke:#666666;stroke-width:0.71399999;stroke-linecap:butt;stroke-linejoin:miter;stroke-miterlimit:4;stroke-opacity:1;stroke-dasharray:none" /></g><g
           transform="translate(390.668,66.4316)"
           id="g86"><path
             d="M 0,0 C 2.554,-3.609 6.703,-3.008 6.384,-6.016 5.507,-9.513 6.743,-14.1 7.741,-15.828"
             inkscape:connector-curvature="0"
             id="path88"
             style="fill:none;stroke:#666666;stroke-width:0.71399999;stroke-linecap:butt;stroke-linejoin:miter;stroke-miterlimit:4;stroke-opacity:1;stroke-dasharray:none" /></g><g
           transform="translate(390.3486,62.209)"
           id="g90"><path
             d="m 0,0 c 2.234,-2.406 2.234,-2.707 2.234,-4.812 0,-2.105 1.915,-4.812 1.915,-4.812"
             inkscape:connector-curvature="0"
             id="path92"
             style="fill:none;stroke:#666666;stroke-width:0.71399999;stroke-linecap:butt;stroke-linejoin:miter;stroke-miterlimit:4;stroke-opacity:1;stroke-dasharray:none" /></g><g
           transform="translate(385.8721,58.9043)"
           id="g94"><path
             d="M 0,0 C 0.958,-1.805 3.511,-4.512 3.511,-4.512"
             inkscape:connector-curvature="0"
             id="path96"
             style="fill:none;stroke:#666666;stroke-width:0.71399999;stroke-linecap:butt;stroke-linejoin:miter;stroke-miterlimit:4;stroke-opacity:1;stroke-dasharray:none" /></g><g
           transform="translate(379.4922,56.1973)"
           id="g98"><path
             d="M 0,0 C 1.275,-1.203 3.191,-2.406 3.191,-2.406"
             inkscape:connector-curvature="0"
             id="path100"
             style="fill:none;stroke:#666666;stroke-width:0.71399999;stroke-linecap:butt;stroke-linejoin:miter;stroke-miterlimit:4;stroke-opacity:1;stroke-dasharray:none" /></g><g
           transform="translate(392.5869,165.3794)"
           id="g102"><path
             d="m 0,0 c 1.915,2.105 6.745,3.094 8.342,1.591 1.596,-1.504 6.66,-6.704 6.66,-6.704"
             inkscape:connector-curvature="0"
             id="path104"
             style="fill:none;stroke:#666666;stroke-width:0.71399999;stroke-linecap:butt;stroke-linejoin:miter;stroke-miterlimit:4;stroke-opacity:1;stroke-dasharray:none" /></g><g
           transform="translate(407.9062,117.5596)"
           id="g106"><path
             d="M 0,0 C -0.319,-3.909 -3.192,-12.03 -3.192,-12.03"
             inkscape:connector-curvature="0"
             id="path108"
             style="fill:none;stroke:#666666;stroke-width:0.71399999;stroke-linecap:butt;stroke-linejoin:miter;stroke-miterlimit:4;stroke-opacity:1;stroke-dasharray:none" /></g><g
           transform="translate(409.8105,115.1572)"
           id="g110"><path
             d="M 0,0 C -0.319,-4.511 -3.192,-11.128 -3.192,-11.128"
             inkscape:connector-curvature="0"
             id="path112"
             style="fill:none;stroke:#666666;stroke-width:0.71399999;stroke-linecap:butt;stroke-linejoin:miter;stroke-miterlimit:4;stroke-opacity:1;stroke-dasharray:none" /></g><g
           transform="translate(411.7285,110.9355)"
           id="g114"><path
             d="M 0,0 C -0.318,-4.512 -2.554,-8.723 -2.554,-8.723"
             inkscape:connector-curvature="0"
             id="path116"
             style="fill:none;stroke:#666666;stroke-width:0.71399999;stroke-linecap:butt;stroke-linejoin:miter;stroke-miterlimit:4;stroke-opacity:1;stroke-dasharray:none" /></g><g
           transform="translate(413.9668,105.5205)"
           id="g118"><path
             d="M 0,0 C -1.276,-4.211 -2.554,-6.918 -2.554,-6.918"
             inkscape:connector-curvature="0"
             id="path120"
             style="fill:none;stroke:#666666;stroke-width:0.71399999;stroke-linecap:butt;stroke-linejoin:miter;stroke-miterlimit:4;stroke-opacity:1;stroke-dasharray:none" /></g><g
           transform="translate(415.2461,101.3125)"
           id="g122"><path
             d="M 0,0 C -0.639,-3.008 -2.234,-6.015 -2.234,-6.015"
             inkscape:connector-curvature="0"
             id="path124"
             style="fill:none;stroke:#666666;stroke-width:0.71399999;stroke-linecap:butt;stroke-linejoin:miter;stroke-miterlimit:4;stroke-opacity:1;stroke-dasharray:none" /></g><g
           transform="translate(416.8447,98.6055)"
           id="g126"><path
             d="M 0,0 C 0,-1.805 -0.958,-3.91 -0.958,-3.91"
             inkscape:connector-curvature="0"
             id="path128"
             style="fill:none;stroke:#666666;stroke-width:0.71399999;stroke-linecap:butt;stroke-linejoin:miter;stroke-miterlimit:4;stroke-opacity:1;stroke-dasharray:none" /></g><g
           transform="translate(374.3896,115.1572)"
           id="g130"><path
             d="m 0,0 c -0.638,-5.112 -2.192,-6.219 -3.876,-3.95 0.227,-2.362 -1.192,-3.906 -3.742,-2.924 -0.639,-0.818 -2.278,-1.848 -2.278,-1.848"
             inkscape:connector-curvature="0"
             id="path132"
             style="fill:none;stroke:#666666;stroke-width:0.71399999;stroke-linecap:butt;stroke-linejoin:miter;stroke-miterlimit:4;stroke-opacity:1;stroke-dasharray:none" /></g><g
           transform="translate(361.2949,107.6309)"
           id="g134"><path
             d="M 0,0 C -0.639,-2.406 -0.958,-5.715 -3.512,-5.113"
             inkscape:connector-curvature="0"
             id="path136"
             style="fill:none;stroke:#666666;stroke-width:0.71399999;stroke-linecap:butt;stroke-linejoin:miter;stroke-miterlimit:4;stroke-opacity:1;stroke-dasharray:none" /></g><g
           transform="translate(345.3359,145.2207)"
           id="g138"><path
             d="M 0,0 C 2.553,-0.301 4.469,-0.301 4.469,-0.301"
             inkscape:connector-curvature="0"
             id="path140"
             style="fill:none;stroke:#666666;stroke-width:0.71399999;stroke-linecap:butt;stroke-linejoin:miter;stroke-miterlimit:4;stroke-opacity:1;stroke-dasharray:none" /></g><g
           transform="translate(347.2539,141.625)"
           id="g142"><path
             d="M 0,0 5.107,-0.602"
             inkscape:connector-curvature="0"
             id="path144"
             style="fill:none;stroke:#666666;stroke-width:0.71399999;stroke-linecap:butt;stroke-linejoin:miter;stroke-miterlimit:4;stroke-opacity:1;stroke-dasharray:none" /></g><g
           transform="translate(350.4512,138.3057)"
           id="g146"><path
             d="M 0,0 C 3.512,-1.805 5.746,-0.902 5.746,-0.902"
             inkscape:connector-curvature="0"
             id="path148"
             style="fill:none;stroke:#666666;stroke-width:0.71399999;stroke-linecap:butt;stroke-linejoin:miter;stroke-miterlimit:4;stroke-opacity:1;stroke-dasharray:none" /></g><g
           transform="translate(353.6348,134.6953)"
           id="g150"><path
             d="M 0,0 C 2.554,-1.203 5.427,0 5.427,0"
             inkscape:connector-curvature="0"
             id="path152"
             style="fill:none;stroke:#666666;stroke-width:0.71399999;stroke-linecap:butt;stroke-linejoin:miter;stroke-miterlimit:4;stroke-opacity:1;stroke-dasharray:none" /></g><g
           transform="translate(358.4307,130.4883)"
           id="g154"><path
             d="M 0,0 C 3.831,-0.602 5.745,1.503 5.745,1.503"
             inkscape:connector-curvature="0"
             id="path156"
             style="fill:none;stroke:#666666;stroke-width:0.71399999;stroke-linecap:butt;stroke-linejoin:miter;stroke-miterlimit:4;stroke-opacity:1;stroke-dasharray:none" /></g><g
           transform="translate(403.75,67.625)"
           id="g158"><path
             d="M 0,0 C -1.597,5.113 -8.619,11.129 -8.619,11.129"
             inkscape:connector-curvature="0"
             id="path160"
             style="fill:none;stroke:#666666;stroke-width:0.71399999;stroke-linecap:butt;stroke-linejoin:miter;stroke-miterlimit:4;stroke-opacity:1;stroke-dasharray:none" /></g><g
           transform="translate(398.9678,67.625)"
           id="g162"><path
             d="M 0,0 C -0.639,3.91 -7.661,10.828 -7.661,10.828"
             inkscape:connector-curvature="0"
             id="path164"
             style="fill:none;stroke:#666666;stroke-width:0.71399999;stroke-linecap:butt;stroke-linejoin:miter;stroke-miterlimit:4;stroke-opacity:1;stroke-dasharray:none" /></g><g
           transform="translate(395.4502,68.833)"
           id="g166"><path
             d="M 0,0 C -0.319,2.406 -7.341,8.723 -7.341,8.723"
             inkscape:connector-curvature="0"
             id="path168"
             style="fill:none;stroke:#666666;stroke-width:0.71399999;stroke-linecap:butt;stroke-linejoin:miter;stroke-miterlimit:4;stroke-opacity:1;stroke-dasharray:none" /></g><g
           transform="translate(393.2129,69.4297)"
           id="g170"><path
             d="M 0,0 C -1.597,2.105 -7.342,6.016 -7.342,6.016"
             inkscape:connector-curvature="0"
             id="path172"
             style="fill:none;stroke:#666666;stroke-width:0.71399999;stroke-linecap:butt;stroke-linejoin:miter;stroke-miterlimit:4;stroke-opacity:1;stroke-dasharray:none" /></g><g
           transform="translate(390.3486,67.9307)"
           id="g174"><path
             d="M 0,0 C 0.319,2.105 -2.873,3.309 -2.873,3.309"
             inkscape:connector-curvature="0"
             id="path176"
             style="fill:none;stroke:#666666;stroke-width:0.71399999;stroke-linecap:butt;stroke-linejoin:miter;stroke-miterlimit:4;stroke-opacity:1;stroke-dasharray:none" /></g><g
           transform="translate(413.0078,72.1387)"
           id="g178"><path
             d="m 0,0 c -4.149,-1.805 -8.938,0.902 -9.576,4.512 -0.638,3.608 -7.341,4.811 -7.341,4.811"
             inkscape:connector-curvature="0"
             id="path180"
             style="fill:none;stroke:#666666;stroke-width:0.71399999;stroke-linecap:butt;stroke-linejoin:miter;stroke-miterlimit:4;stroke-opacity:1;stroke-dasharray:none" /></g><g
           transform="translate(410.5889,177.0757)"
           id="g182"><path
             d="M 0,0 C 1.437,-1.417 3.183,-1.375 4.786,-1.088 6.391,-0.8 10.785,1.36 11.328,1.686"
             inkscape:connector-curvature="0"
             id="path184"
             style="fill:none;stroke:#666666;stroke-width:0.71399999;stroke-linecap:butt;stroke-linejoin:miter;stroke-miterlimit:4;stroke-opacity:1;stroke-dasharray:none" /></g><g
           transform="translate(417.1641,171.395)"
           id="g186"><path
             d="M 0,0 C 1.597,1.804 6.703,2.105 6.703,2.105"
             inkscape:connector-curvature="0"
             id="path188"
             style="fill:none;stroke:#666666;stroke-width:0.71399999;stroke-linecap:butt;stroke-linejoin:miter;stroke-miterlimit:4;stroke-opacity:1;stroke-dasharray:none" /></g><g
           transform="translate(398.7871,160.3569)"
           id="g190"><path
             d="m 0,0 c -3.831,1.503 -6.838,2.319 -10.668,2.018 -3.831,-0.301 -8.619,1.203 -9.576,3.309 -0.958,2.105 -3.193,5.714 -6.065,6.015 -1.437,0.15 -3.584,-0.79 -4.753,-1.904 1.048,-0.596 1.96,-2.344 2.757,-3.848 2.019,-3.622 7.103,-11.091 13.806,-7.482 2.554,1.504 7.342,1.174 9.257,0.873 C -3.327,-1.32 0.319,-0.301 0,0"
             inkscape:connector-curvature="0"
             id="path192"
             style="fill:#ffffff;fill-opacity:1;fill-rule:nonzero;stroke:none" /></g><g
           transform="translate(398.7871,160.3569)"
           id="g194"><path
             d="m 0,0 c -3.831,1.503 -6.838,2.319 -10.668,2.018 -3.831,-0.301 -8.619,1.203 -9.576,3.309 -0.958,2.105 -3.193,5.714 -6.065,6.015 -1.437,0.15 -3.584,-0.79 -4.753,-1.904 1.048,-0.596 1.96,-2.344 2.757,-3.848 2.019,-3.622 7.103,-11.091 13.806,-7.482 2.554,1.504 7.342,1.174 9.257,0.873 C -3.327,-1.32 0.319,-0.301 0,0 z"
             inkscape:connector-curvature="0"
             id="path196"
             style="fill:none;stroke:#000000;stroke-width:0.71399999;stroke-linecap:butt;stroke-linejoin:miter;stroke-miterlimit:4;stroke-opacity:1;stroke-dasharray:none" /></g><g
           transform="translate(353.0645,163.7031)"
           id="g198"><path
             d="M 0,0 C 4.63,6.503 -1.912,14.065 -4.785,14.365 -4.146,12.26 -1.912,8.952 -4.466,5.342 -2.231,2.936 -1.276,1.24 0,0.038 L 0,0 z"
             inkscape:connector-curvature="0"
             id="path200"
             style="fill:#ffffff;fill-opacity:1;fill-rule:nonzero;stroke:none" /></g><g
           transform="translate(353.0645,163.7031)"
           id="g202"><path
             d="M 0,0 C 4.63,6.503 -1.912,14.065 -4.785,14.365 -4.146,12.26 -1.912,8.952 -4.466,5.342 -2.231,2.936 -1.276,1.24 0,0.038 L 0,0 0,0 z"
             inkscape:connector-curvature="0"
             id="path204"
             style="fill:none;stroke:#000000;stroke-width:0.71399999;stroke-linecap:butt;stroke-linejoin:miter;stroke-miterlimit:4;stroke-opacity:1;stroke-dasharray:none" /></g><g
           transform="translate(343.7646,172.4155)"
           id="g206"><path
             d="M 0,0 C -2.17,7.572 -12.111,7.575 -14.285,5.779 -12.204,4.803 -8.105,4.126 -7,-0.085 -3.608,-0.153 -1.804,-0.077 0,0"
             inkscape:connector-curvature="0"
             id="path208"
             style="fill:#ffffff;fill-opacity:1;fill-rule:nonzero;stroke:none" /></g><g
           transform="translate(343.7646,172.4155)"
           id="g210"><path
             d="M 0,0 C -2.17,7.572 -12.111,7.575 -14.285,5.779 -12.204,4.803 -8.105,4.126 -7,-0.085 -3.608,-0.153 -1.804,-0.077 0,0 z"
             inkscape:connector-curvature="0"
             id="path212"
             style="fill:none;stroke:#000000;stroke-width:0.71399999;stroke-linecap:butt;stroke-linejoin:miter;stroke-miterlimit:4;stroke-opacity:1;stroke-dasharray:none" /></g><g
           transform="translate(331.6016,166.1919)"
           id="g214"><path
             d="m 0,0 c -9.122,2.712 -12.523,-2.081 -13.113,-4.747 2.285,0.4 5.992,2.183 9.563,-0.554 2.753,1.868 2.165,4.155 3.557,5.239 L 0,0 z"
             inkscape:connector-curvature="0"
             id="path216"
             style="fill:#ffffff;fill-opacity:1;fill-rule:nonzero;stroke:none" /></g><g
           transform="translate(331.6016,166.1919)"
           id="g218"><path
             d="m 0,0 c -9.122,2.712 -12.523,-2.081 -13.113,-4.747 2.285,0.4 5.992,2.183 9.563,-0.554 2.753,1.868 2.165,4.155 3.557,5.239 L 0,0 z"
             inkscape:connector-curvature="0"
             id="path220"
             style="fill:none;stroke:#000000;stroke-width:0.71399999;stroke-linecap:butt;stroke-linejoin:miter;stroke-miterlimit:4;stroke-opacity:1;stroke-dasharray:none" /></g><g
           transform="translate(357.708,66.7227)"
           id="g222"><path
             d="m 0,0 c -6.568,4.818 -15.149,-0.516 -15.1,-3.482 2.285,0.4 6.962,1.39 10.535,-1.347 2.753,1.868 3.173,3.745 4.566,4.829 L 0,0 z"
             inkscape:connector-curvature="0"
             id="path224"
             style="fill:#ffffff;fill-opacity:1;fill-rule:nonzero;stroke:none" /></g><g
           transform="translate(357.708,66.7227)"
           id="g226"><path
             d="m 0,0 c -6.568,4.818 -15.149,-0.516 -15.1,-3.482 2.285,0.4 6.962,1.39 10.535,-1.347 2.753,1.868 3.173,3.745 4.566,4.829 L 0,0 z"
             inkscape:connector-curvature="0"
             id="path228"
             style="fill:none;stroke:#000000;stroke-width:0.71399999;stroke-linecap:butt;stroke-linejoin:miter;stroke-miterlimit:4;stroke-opacity:1;stroke-dasharray:none" /></g><g
           transform="translate(341.1514,115.5879)"
           id="g230"><path
             d="m 0,0 c -5.29,6.056 -14.348,2.197 -15.543,-0.283 2.321,-0.082 6.353,0.894 9.202,-2.514 3.121,1.256 4.731,2.026 6.34,2.797 L 0,0 z"
             inkscape:connector-curvature="0"
             id="path232"
             style="fill:#ffffff;fill-opacity:1;fill-rule:nonzero;stroke:none" /></g><g
           transform="translate(341.1514,115.5879)"
           id="g234"><path
             d="m 0,0 c -5.29,6.056 -14.348,2.197 -15.543,-0.283 2.321,-0.082 6.353,0.894 9.202,-2.514 3.121,1.256 4.731,2.026 6.34,2.797 L 0,0 z"
             inkscape:connector-curvature="0"
             id="path236"
             style="fill:none;stroke:#000000;stroke-width:0.71399999;stroke-linecap:butt;stroke-linejoin:miter;stroke-miterlimit:4;stroke-opacity:1;stroke-dasharray:none" /></g><g
           transform="translate(331.3086,107.6729)"
           id="g238"><path
             d="m 0,0 c -9.795,3.658 -11.903,0.007 -12.947,-2.532 2.324,0.042 6.75,0.533 9.801,-2.716 3.039,1.42 1.79,3.913 3.146,5.248"
             inkscape:connector-curvature="0"
             id="path240"
             style="fill:#ffffff;fill-opacity:1;fill-rule:nonzero;stroke:none" /></g><g
           transform="translate(331.3086,107.6729)"
           id="g242"><path
             d="m 0,0 c -9.795,3.658 -11.903,0.007 -12.947,-2.532 2.324,0.042 6.75,0.533 9.801,-2.716 3.039,1.42 1.79,3.913 3.146,5.248 z"
             inkscape:connector-curvature="0"
             id="path244"
             style="fill:none;stroke:#000000;stroke-width:0.71399999;stroke-linecap:butt;stroke-linejoin:miter;stroke-miterlimit:4;stroke-opacity:1;stroke-dasharray:none" /></g><g
           transform="translate(328.2227,95.7441)"
           id="g246"><path
             d="m 0,0 c -7.586,-0.902 -8.111,-6.756 -7.251,-9.356 1.79,1.395 4.11,4.651 8.644,3.895 C 2.835,-2.567 -0.657,-1.584 0,0"
             inkscape:connector-curvature="0"
             id="path248"
             style="fill:#ffffff;fill-opacity:1;fill-rule:nonzero;stroke:none" /></g><g
           transform="translate(328.2227,95.7441)"
           id="g250"><path
             d="m 0,0 c -7.586,-0.902 -8.111,-6.756 -7.251,-9.356 1.79,1.395 4.11,4.651 8.644,3.895 C 2.835,-2.567 -0.657,-1.584 0,0 z"
             inkscape:connector-curvature="0"
             id="path252"
             style="fill:none;stroke:#000000;stroke-width:0.71399999;stroke-linecap:butt;stroke-linejoin:miter;stroke-miterlimit:4;stroke-opacity:1;stroke-dasharray:none" /></g><g
           transform="translate(346.5723,56.9609)"
           id="g254"><path
             d="m 0,0 c -8.225,1.202 -10.025,-5.854 -9.166,-8.455 1.791,1.396 4.43,3.148 8.963,2.392 C 1.239,-3.17 -0.656,-1.585 0,0"
             inkscape:connector-curvature="0"
             id="path256"
             style="fill:#ffffff;fill-opacity:1;fill-rule:nonzero;stroke:none" /></g><g
           transform="translate(346.5723,56.9609)"
           id="g258"><path
             d="m 0,0 c -8.225,1.202 -10.025,-5.854 -9.166,-8.455 1.791,1.396 4.43,3.148 8.963,2.392 C 1.239,-3.17 -0.656,-1.585 0,0 z"
             inkscape:connector-curvature="0"
             id="path260"
             style="fill:none;stroke:#000000;stroke-width:0.71399999;stroke-linecap:butt;stroke-linejoin:miter;stroke-miterlimit:4;stroke-opacity:1;stroke-dasharray:none" /></g><g
           transform="translate(351.1738,43.7412)"
           id="g262"><path
             d="m 0,0 c -7.818,-2.688 -6.009,-11.12 -3.924,-13.005 0.854,2.036 2.512,6.125 6.868,7.526 C 2.725,-2.288 0.236,-1.687 0,0"
             inkscape:connector-curvature="0"
             id="path264"
             style="fill:#ffffff;fill-opacity:1;fill-rule:nonzero;stroke:none" /></g><g
           transform="translate(351.1738,43.7412)"
           id="g266"><path
             d="m 0,0 c -7.818,-2.688 -6.009,-11.12 -3.924,-13.005 0.854,2.036 2.512,6.125 6.868,7.526 C 2.725,-2.288 0.236,-1.687 0,0 z"
             inkscape:connector-curvature="0"
             id="path268"
             style="fill:none;stroke:#000000;stroke-width:0.71399999;stroke-linecap:butt;stroke-linejoin:miter;stroke-miterlimit:4;stroke-opacity:1;stroke-dasharray:none" /></g><g
           transform="translate(426.2002,36.5195)"
           id="g270"><path
             d="m 0,0 c -7.234,3.88 -11.878,-1.444 -12.055,-4.162 2.201,0.704 4.564,2.144 8.516,-0.08 C -1.1,-2.021 -1.212,-1.26 0,0"
             inkscape:connector-curvature="0"
             id="path272"
             style="fill:#ffffff;fill-opacity:1;fill-rule:nonzero;stroke:none" /></g><g
           transform="translate(426.2002,36.5195)"
           id="g274"><path
             d="m 0,0 c -7.234,3.88 -11.878,-1.444 -12.055,-4.162 2.201,0.704 4.564,2.144 8.516,-0.08 C -1.1,-2.021 -1.212,-1.26 0,0 z"
             inkscape:connector-curvature="0"
             id="path276"
             style="fill:none;stroke:#000000;stroke-width:0.71399999;stroke-linecap:butt;stroke-linejoin:miter;stroke-miterlimit:4;stroke-opacity:1;stroke-dasharray:none" /></g><g
           transform="translate(420.084,28.8555)"
           id="g278"><path
             d="m 0,0 c -7.236,2.326 -12.351,-3.479 -12.29,-6.203 2.132,0.873 6.276,2.492 10.409,0.581 2.238,2.403 0.782,3.97 1.881,5.321 L -0.04,-0.264 0,0 z"
             inkscape:connector-curvature="0"
             id="path280"
             style="fill:#ffffff;fill-opacity:1;fill-rule:nonzero;stroke:none" /></g><g
           transform="translate(420.084,28.8555)"
           id="g282"><path
             d="m 0,0 c -7.236,2.326 -12.351,-3.479 -12.29,-6.203 2.132,0.873 6.276,2.492 10.409,0.581 2.238,2.403 0.782,3.97 1.881,5.321 L -0.04,-0.264 0,0 z"
             inkscape:connector-curvature="0"
             id="path284"
             style="fill:none;stroke:#000000;stroke-width:0.71399999;stroke-linecap:butt;stroke-linejoin:miter;stroke-miterlimit:4;stroke-opacity:1;stroke-dasharray:none" /></g><g
           transform="translate(424.9072,19.8574)"
           id="g286"><path
             d="m 0,0 c -5.868,-5.562 -1.679,-12.232 1.059,-13.105 -0.146,2.185 0.012,6.01 3.326,9.021 C 2.749,-1.283 0.974,-1.434 0,0"
             inkscape:connector-curvature="0"
             id="path288"
             style="fill:#ffffff;fill-opacity:1;fill-rule:nonzero;stroke:none" /></g><g
           transform="translate(424.9072,19.8574)"
           id="g290"><path
             d="m 0,0 c -5.868,-5.562 -1.679,-12.232 1.059,-13.105 -0.146,2.185 0.012,6.01 3.326,9.021 C 2.749,-1.283 0.974,-1.434 0,0 z"
             inkscape:connector-curvature="0"
             id="path292"
             style="fill:none;stroke:#000000;stroke-width:0.71399999;stroke-linecap:butt;stroke-linejoin:miter;stroke-miterlimit:4;stroke-opacity:1;stroke-dasharray:none" /></g><g
           transform="translate(442.9102,21.2734)"
           id="g294"><path
             d="m 0,0 c 3.047,-7.299 -2.699,-10.479 -5.58,-10.258 1.053,1.952 2.639,3.295 0.863,7.297 2.681,1.96 3.22,2.01 4.717,2.961"
             inkscape:connector-curvature="0"
             id="path296"
             style="fill:#ffffff;fill-opacity:1;fill-rule:nonzero;stroke:none" /></g><g
           transform="translate(442.9102,21.2734)"
           id="g298"><path
             d="m 0,0 c 3.047,-7.299 -2.699,-10.479 -5.58,-10.258 1.053,1.952 2.639,3.295 0.863,7.297 2.681,1.96 3.22,2.01 4.717,2.961 z"
             inkscape:connector-curvature="0"
             id="path300"
             style="fill:none;stroke:#000000;stroke-width:0.71399999;stroke-linecap:butt;stroke-linejoin:miter;stroke-miterlimit:4;stroke-opacity:1;stroke-dasharray:none" /></g><g
           transform="translate(370.7061,39.3115)"
           id="g302"><path
             d="m 0,0 c -1.075,-7.778 -9.649,-9.336 -12.058,-7.831 1.922,1.23 5,4.113 5.496,8.426 C -3.209,1.091 -1.799,-0.151 0,0"
             inkscape:connector-curvature="0"
             id="path304"
             style="fill:#ffffff;fill-opacity:1;fill-rule:nonzero;stroke:none" /></g><g
           transform="translate(370.7061,39.3115)"
           id="g306"><path
             d="m 0,0 c -1.075,-7.778 -9.649,-9.336 -12.058,-7.831 1.922,1.23 5,4.113 5.496,8.426 C -3.209,1.091 -1.799,-0.151 0,0 z"
             inkscape:connector-curvature="0"
             id="path308"
             style="fill:none;stroke:#000000;stroke-width:0.71399999;stroke-linecap:butt;stroke-linejoin:miter;stroke-miterlimit:4;stroke-opacity:1;stroke-dasharray:none" /></g><g
           transform="translate(346.7119,89.2461)"
           id="g310"><path
             d="m 0,0 c -1.074,-7.777 -9.329,-7.23 -11.738,-5.726 1.923,1.23 3.973,1.216 4.469,5.529 3.353,0.495 5.471,0.045 7.27,0.197 L 0,0 z"
             inkscape:connector-curvature="0"
             id="path312"
             style="fill:#ffffff;fill-opacity:1;fill-rule:nonzero;stroke:none" /></g><g
           transform="translate(346.7119,89.2461)"
           id="g314"><path
             d="m 0,0 c -1.074,-7.777 -9.329,-7.23 -11.738,-5.726 1.923,1.23 3.973,1.216 4.469,5.529 3.353,0.495 5.471,0.045 7.27,0.197 L 0,0 z"
             inkscape:connector-curvature="0"
             id="path316"
             style="fill:none;stroke:#000000;stroke-width:0.71399999;stroke-linecap:butt;stroke-linejoin:miter;stroke-miterlimit:4;stroke-opacity:1;stroke-dasharray:none" /></g><g
           transform="translate(332.7266,147.415)"
           id="g318"><path
             d="M 0,0 C -8.193,1.384 -9.055,10.715 -7.343,12.911 -6.131,11.042 -5.062,7.252 -0.514,6.578 -0.148,3.4 -0.074,1.7 0,-0.001 L 0,0 z"
             inkscape:connector-curvature="0"
             id="path320"
             style="fill:#ffffff;fill-opacity:1;fill-rule:nonzero;stroke:none" /></g><g
           transform="translate(332.7266,147.415)"
           id="g322"><path
             d="M 0,0 C -8.193,1.384 -9.055,10.715 -7.343,12.911 -6.131,11.042 -5.062,7.252 -0.514,6.578 -0.148,3.4 -0.074,1.7 0,-0.001 L 0,0 z"
             inkscape:connector-curvature="0"
             id="path324"
             style="fill:none;stroke:#000000;stroke-width:0.71399999;stroke-linecap:butt;stroke-linejoin:miter;stroke-miterlimit:4;stroke-opacity:1;stroke-dasharray:none" /></g><g
           transform="translate(397.3408,177.0342)"
           id="g326"><path
             d="M 0,0 C -1.365,-8.749 4.916,-7.977 6.281,-0.515"
             inkscape:connector-curvature="0"
             id="path328"
             style="fill:none;stroke:#000000;stroke-width:0.71399999;stroke-linecap:butt;stroke-linejoin:miter;stroke-miterlimit:4;stroke-opacity:1;stroke-dasharray:none" /></g><g
           transform="translate(401.1172,173.5605)"
           id="g330"><path
             d="m 0,0 c 0,-0.863 -0.594,-1.563 -1.327,-1.563 -0.734,0 -1.327,0.7 -1.327,1.563 0,0.863 0.593,1.563 1.327,1.563 C -0.594,1.563 0,0.863 0,0"
             inkscape:connector-curvature="0"
             id="path332"
             style="fill:#000000;fill-opacity:1;fill-rule:nonzero;stroke:none" /></g><g
           transform="translate(401.1172,173.5605)"
           id="g334"><path
             d="m 0,0 c 0,-0.863 -0.594,-1.563 -1.327,-1.563 -0.734,0 -1.327,0.7 -1.327,1.563 0,0.863 0.593,1.563 1.327,1.563 C -0.594,1.563 0,0.863 0,0 z"
             inkscape:connector-curvature="0"
             id="path336"
             style="fill:none;stroke:#000000;stroke-width:1;stroke-linecap:butt;stroke-linejoin:miter;stroke-miterlimit:4;stroke-opacity:1;stroke-dasharray:none" /></g><g
           transform="translate(382.6895,102.2148)"
           id="g338"><path
             d="m 0,0 c 0.957,-3.909 2.234,-9.624 5.106,-11.729 2.873,-2.105 9.577,-4.812 14.365,-5.714 4.788,-0.903 8.937,-4.211 10.533,-7.219 1.597,-3.008 0.639,-7.219 0.639,-7.219"
             inkscape:connector-curvature="0"
             id="path340"
             style="fill:none;stroke:#000000;stroke-width:0.71399999;stroke-linecap:butt;stroke-linejoin:miter;stroke-miterlimit:4;stroke-opacity:1;stroke-dasharray:none" /></g><g
           transform="translate(384.2871,140.416)"
           id="g342"><path
             d="m 0,0 c -4.787,-1.805 -7.348,-6.139 -11.172,-8.854 -2.28,-1.552 -6.924,-4.535 -9.256,-4.981 2.256,-1.429 7.426,-2.626 11.592,-0.548 -1.488,-6.138 2.174,-6.07 2.133,-15.693 2.443,0.271 5.107,5.414 5.746,8.121 0.639,2.707 -0.391,5.42 0.829,7.684 -0.034,-2.389 0.782,-4.352 2.378,-6.758 1.596,-2.407 1.9,-4.836 0.942,-7.242 3.984,3.119 3.132,9.52 3.076,13.568 1.947,-1.783 2.378,-7.934 1.073,-12.065 1.823,0.528 3.702,1.606 4.608,6.682 1.463,-2.324 3.177,-9.963 2.415,-11.795 2.714,-0.062 5.082,3.645 4.817,7.846 0.499,-0.383 1.861,-1.782 2.36,-2.277 0.569,1.602 -0.252,4.517 -0.057,6.765 0.614,-0.568 1.947,-1.458 2.444,-2.173 0.705,-0.649 2.363,-2.796 4.797,-3.778"
             inkscape:connector-curvature="0"
             id="path344"
             style="fill:none;stroke:#000000;stroke-width:0.71399999;stroke-linecap:butt;stroke-linejoin:miter;stroke-miterlimit:4;stroke-opacity:1;stroke-dasharray:none" /></g><g
           transform="translate(417.4844,153.6499)"
           id="g346"><path
             d="M 0,0 C 4.149,-2.406 8.219,-6.241 8.219,-18.271"
             inkscape:connector-curvature="0"
             id="path348"
             style="fill:none;stroke:#000000;stroke-width:0.71399999;stroke-linecap:butt;stroke-linejoin:miter;stroke-miterlimit:4;stroke-opacity:1;stroke-dasharray:none" /></g><g
           transform="translate(413.9668,148.2344)"
           id="g350"><path
             d="m 0,0 c 4.469,-3.309 6.064,-7.219 5.427,-12.031 -0.639,-4.813 -2.893,-4.424 -2.873,-8.421 -0.043,-1.756 1.917,-4.616 3.192,-6.317 1.467,-1.899 2.291,-5.065 1.855,-6.779"
             inkscape:connector-curvature="0"
             id="path352"
             style="fill:none;stroke:#000000;stroke-width:0.71399999;stroke-linecap:butt;stroke-linejoin:miter;stroke-miterlimit:4;stroke-opacity:1;stroke-dasharray:none" /></g><g
           transform="translate(419.1943,135.3066)"
           id="g354"><path
             d="m 0,0 c 0.319,-3.91 0.047,-6.001 1.476,-8.422 1.282,-2.016 2.551,-8.976 0.699,-13.077"
             inkscape:connector-curvature="0"
             id="path356"
             style="fill:none;stroke:#000000;stroke-width:0.71399999;stroke-linecap:butt;stroke-linejoin:miter;stroke-miterlimit:4;stroke-opacity:1;stroke-dasharray:none" /></g><g
           transform="translate(410.7695,136.209)"
           id="g358"><path
             d="m 0,0 c 2.873,-3.609 0,-4.512 -0.957,-7.52 -0.958,-3.007 2.134,-4.528 3.482,-8.097"
             inkscape:connector-curvature="0"
             id="path360"
             style="fill:none;stroke:#000000;stroke-width:0.71399999;stroke-linecap:butt;stroke-linejoin:miter;stroke-miterlimit:4;stroke-opacity:1;stroke-dasharray:none" /></g><g
           transform="translate(407.2666,138.916)"
           id="g362"><path
             d="m 0,0 c 0.639,-4.211 0,-5.714 -1.277,-8.421 -1.277,-2.707 -2.556,-6.757 -0.331,-9.64"
             inkscape:connector-curvature="0"
             id="path364"
             style="fill:none;stroke:#000000;stroke-width:0.71399999;stroke-linecap:butt;stroke-linejoin:miter;stroke-miterlimit:4;stroke-opacity:1;stroke-dasharray:none" /></g><g
           transform="translate(402.1504,131.085)"
           id="g366"><path
             d="M 0,0 C -1.915,-4.512 -1.94,-11.132 1.252,-14.74"
             inkscape:connector-curvature="0"
             id="path368"
             style="fill:none;stroke:#000000;stroke-width:0.71399999;stroke-linecap:butt;stroke-linejoin:miter;stroke-miterlimit:4;stroke-opacity:1;stroke-dasharray:none" /></g><g
           transform="translate(399.9268,135.9033)"
           id="g370"><path
             d="M 0,0 C -4.149,-3.609 -5.263,-11.188 -3.524,-15.905"
             inkscape:connector-curvature="0"
             id="path372"
             style="fill:none;stroke:#000000;stroke-width:0.71399999;stroke-linecap:butt;stroke-linejoin:miter;stroke-miterlimit:4;stroke-opacity:1;stroke-dasharray:none" /></g><g
           transform="translate(387.791,131.6953)"
           id="g374"><path
             d="M 0,0 C -1.596,-1.805 -3.176,-3.889 -3.662,-5.592"
             inkscape:connector-curvature="0"
             id="path376"
             style="fill:none;stroke:#000000;stroke-width:0.71399999;stroke-linecap:butt;stroke-linejoin:miter;stroke-miterlimit:4;stroke-opacity:1;stroke-dasharray:none" /></g><g
           transform="translate(387.791,138.0137)"
           id="g378"><path
             d="m 0,0 c -1.596,-2.707 -5.342,-5.005 -8.215,-6.208 -2.873,-1.203 -4.234,-5.822 -4.234,-5.822"
             inkscape:connector-curvature="0"
             id="path380"
             style="fill:none;stroke:#000000;stroke-width:0.71399999;stroke-linecap:butt;stroke-linejoin:miter;stroke-miterlimit:4;stroke-opacity:1;stroke-dasharray:none" /></g><g
           transform="translate(418.4297,167.7856)"
           id="g382"><path
             d="m 0,0 c 3.191,2.707 7.66,3.008 7.66,3.008 0,0 1.597,-4.211 0.319,-6.316 C 6.703,-5.414 0,-5.414 0,-5.414"
             inkscape:connector-curvature="0"
             id="path384"
             style="fill:none;stroke:#000000;stroke-width:0.71399999;stroke-linecap:butt;stroke-linejoin:miter;stroke-miterlimit:4;stroke-opacity:1;stroke-dasharray:none" /></g><g
           transform="translate(374.4385,140.8184)"
           id="g386"><path
             d="m 0,0 c -1.108,-0.841 -2.235,-2.19 -2.092,-3.315 1.597,0 6.712,-0.447 6.712,-0.447"
             inkscape:connector-curvature="0"
             id="path388"
             style="fill:none;stroke:#000000;stroke-width:0.71399999;stroke-linecap:butt;stroke-linejoin:miter;stroke-miterlimit:4;stroke-opacity:1;stroke-dasharray:none" /></g><g
           transform="translate(402.1504,153.9551)"
           id="g390"><path
             d="m 0,0 c 0.639,-3.007 1.597,-6.316 0.639,-8.422 -0.957,-2.105 5.746,3.008 4.788,5.415 -0.958,2.405 2.553,-1.203 1.595,-3.911 -0.957,-2.707 4.789,3.61 4.151,6.617 -0.639,3.008 1.915,0.903 1.915,-1.804 0,-2.707 2.872,3.609 2.234,5.113 l -0.638,1.504"
             inkscape:connector-curvature="0"
             id="path392"
             style="fill:none;stroke:#000000;stroke-width:0.71399999;stroke-linecap:butt;stroke-linejoin:miter;stroke-miterlimit:4;stroke-opacity:1;stroke-dasharray:none" /></g><g
           transform="translate(375.6113,123.2529)"
           id="g394"><path
             d="M 0,0 C -3.55,-0.515 -8.041,-1.544 -10.227,-3.345"
             inkscape:connector-curvature="0"
             id="path396"
             style="fill:none;stroke:#000000;stroke-width:0.71399999;stroke-linecap:butt;stroke-linejoin:miter;stroke-miterlimit:4;stroke-opacity:1;stroke-dasharray:none" /></g><g
           transform="translate(397.2988,176.5703)"
           id="g398"><path
             d="M 0,0 C 1.368,-0.512 4.786,-1.024 5.982,-0.342"
             inkscape:connector-curvature="0"
             id="path400"
             style="fill:none;stroke:#000000;stroke-width:0.625;stroke-linecap:butt;stroke-linejoin:miter;stroke-miterlimit:4;stroke-opacity:1;stroke-dasharray:none" /></g><g
           transform="translate(67.7212,234.1562)"
           id="g402"><path
             d="m 0,0 c 8.818,3.486 13.159,8.763 13.626,16.214 0.299,4.478 -4.176,9.732 -8.967,9.853 -14.968,0.404 -19.972,-23.971 -19.882,-29.92 0.632,0.001 3.746,0.064 4.518,0.034 0.683,3.757 0.097,8.36 4.879,12.242 4.783,3.882 6.897,0.924 7.495,-1.465 C 2.267,4.569 -0.539,-0.242 0,0 z"
             inkscape:connector-curvature="0"
             id="path404"
             style="fill:#ffd203;fill-opacity:1;fill-rule:nonzero;stroke:none" /></g><g
           transform="translate(27.7461,234.1562)"
           id="g406"><path
             d="m 0,0 c -8.818,3.486 -13.159,8.763 -13.626,16.214 -0.299,4.478 4.176,9.732 8.967,9.853 14.967,0.404 19.971,-23.971 19.881,-29.92 -0.632,0.001 -3.745,0.064 -4.517,0.034 C 10.022,-0.062 10.608,4.542 5.826,8.423 1.043,12.305 -1.071,9.347 -1.669,6.958 -2.267,4.569 0.538,-0.242 0,0 z"
             inkscape:connector-curvature="0"
             id="path408"
             style="fill:#ffd203;fill-opacity:1;fill-rule:nonzero;stroke:none" /></g><g
           transform="translate(47.8579,288.6538)"
           id="g410"><path
             d="m 0,0 c 10.17,-10.563 12.901,-21.307 6.12,-38.517 -2.326,-5.748 -3.31,-12.646 -3.215,-19.815 -0.984,-0.022 -5.175,0.025 -6.168,0.096 0.088,7.082 -1.088,14.536 -3.405,20.38 C -14.521,-20.281 -8.862,-8.359 -0.27,0 L -0.135,0 0,0 z"
             inkscape:connector-curvature="0"
             id="path412"
             style="fill:#ffd203;fill-opacity:1;fill-rule:nonzero;stroke:none" /></g><g
           transform="translate(53.2012,226.2622)"
           id="g414"><path
             d="m 0,0 c 2.082,-5.551 5.757,-7.649 8.761,-9.12 -4.578,-2.165 -9.87,0.187 -10.867,1.307 0.121,-1.566 0.245,-5.796 -0.327,-8.652 -0.387,-2.304 -1.368,-3.631 -3.023,-5.469 -1.716,1.796 -2.777,3.243 -3.349,5.283 -0.695,2.963 0.04,7.165 -0.021,8.734 -0.794,-0.976 -7.128,-3.324 -11.294,-1.283 3.88,1.689 7.639,3.656 8.863,9.304 C -10.803,0.076 -1.144,0.082 0,0.082 L 0,0 z"
             inkscape:connector-curvature="0"
             id="path416"
             style="fill:#ffd203;fill-opacity:1;fill-rule:nonzero;stroke:none" /></g><path
           d="m 35.557,230.155 24.098,0 0,-3.581 -24.098,0 0,3.581 z"
           inkscape:connector-curvature="0"
           id="path418"
           style="fill:#ffd203;fill-opacity:1;fill-rule:nonzero;stroke:none" /><g
           transform="translate(168.855,234.1562)"
           id="g420"><path
             d="m 0,0 c 8.818,3.486 13.159,8.763 13.626,16.214 0.299,4.478 -4.176,9.732 -8.967,9.853 -14.967,0.404 -19.972,-23.971 -19.881,-29.92 0.632,0.001 3.745,0.064 4.517,0.034 0.683,3.757 0.097,8.36 4.879,12.242 4.783,3.882 6.897,0.924 7.495,-1.465 C 2.267,4.569 -0.538,-0.242 0,0 z"
             inkscape:connector-curvature="0"
             id="path422"
             style="fill:#ffd203;fill-opacity:1;fill-rule:nonzero;stroke:none" /></g><g
           transform="translate(128.8799,234.1562)"
           id="g424"><path
             d="m 0,0 c -8.818,3.486 -13.159,8.763 -13.626,16.214 -0.299,4.478 4.176,9.732 8.967,9.853 14.968,0.404 19.972,-23.971 19.882,-29.92 -0.633,0.001 -3.746,0.064 -4.518,0.034 C 10.022,-0.062 10.608,4.542 5.826,8.423 1.043,12.305 -1.071,9.347 -1.669,6.958 -2.267,4.569 0.539,-0.242 0,0 z"
             inkscape:connector-curvature="0"
             id="path426"
             style="fill:#ffd203;fill-opacity:1;fill-rule:nonzero;stroke:none" /></g><g
           transform="translate(148.9922,288.6538)"
           id="g428"><path
             d="m 0,0 c 10.17,-10.563 12.901,-21.307 6.12,-38.517 -2.326,-5.748 -3.31,-12.646 -3.215,-19.815 -0.984,-0.022 -5.175,0.025 -6.168,0.096 0.087,7.082 -1.088,14.536 -3.406,20.38 C -14.521,-20.281 -8.862,-8.359 -0.271,0 L -0.135,0 0,0 z"
             inkscape:connector-curvature="0"
             id="path430"
             style="fill:#ffd203;fill-opacity:1;fill-rule:nonzero;stroke:none" /></g><g
           transform="translate(154.335,226.2622)"
           id="g432"><path
             d="m 0,0 c 2.082,-5.551 5.757,-7.649 8.761,-9.12 -4.578,-2.165 -9.87,0.187 -10.866,1.307 0.121,-1.566 0.245,-5.796 -0.328,-8.652 -0.387,-2.304 -1.367,-3.631 -3.023,-5.469 -1.716,1.796 -2.777,3.243 -3.349,5.283 -0.695,2.963 0.04,7.165 -0.021,8.734 -0.794,-0.976 -7.127,-3.324 -11.294,-1.283 3.88,1.689 7.64,3.656 8.863,9.304 C -10.803,0.076 -1.144,0.082 0,0.082 L 0,0 z"
             inkscape:connector-curvature="0"
             id="path434"
             style="fill:#ffd203;fill-opacity:1;fill-rule:nonzero;stroke:none" /></g><path
           d="m 136.691,230.155 24.098,0 0,-3.581 -24.098,0 0,3.581 z"
           inkscape:connector-curvature="0"
           id="path436"
           style="fill:#ffd203;fill-opacity:1;fill-rule:nonzero;stroke:none" /><g
           transform="translate(472.2549,234.1562)"
           id="g438"><path
             d="m 0,0 c 8.818,3.486 13.159,8.763 13.626,16.214 0.299,4.478 -4.176,9.732 -8.967,9.853 -14.968,0.404 -19.972,-23.971 -19.882,-29.92 0.633,0.001 3.746,0.064 4.519,0.034 0.682,3.757 0.096,8.36 4.879,12.242 4.782,3.882 6.896,0.924 7.494,-1.465 C 2.268,4.569 -0.538,-0.242 0,0 z"
             inkscape:connector-curvature="0"
             id="path440"
             style="fill:#ffd203;fill-opacity:1;fill-rule:nonzero;stroke:none" /></g><g
           transform="translate(432.2803,234.1562)"
           id="g442"><path
             d="m 0,0 c -8.818,3.486 -13.159,8.763 -13.626,16.214 -0.299,4.478 4.176,9.732 8.967,9.853 14.967,0.404 19.971,-23.971 19.881,-29.92 -0.632,0.001 -3.745,0.064 -4.518,0.034 C 10.022,-0.062 10.608,4.542 5.825,8.423 1.043,12.305 -1.071,9.347 -1.67,6.958 -2.268,4.569 0.538,-0.242 0,0 z"
             inkscape:connector-curvature="0"
             id="path444"
             style="fill:#ffd203;fill-opacity:1;fill-rule:nonzero;stroke:none" /></g><g
           transform="translate(452.3916,288.6538)"
           id="g446"><path
             d="m 0,0 c 10.171,-10.563 12.901,-21.307 6.12,-38.517 -2.325,-5.748 -3.309,-12.646 -3.215,-19.815 -0.984,-0.022 -5.175,0.025 -6.168,0.096 0.088,7.082 -1.088,14.536 -3.405,20.38 C -14.521,-20.281 -8.861,-8.359 -0.27,0 L -0.135,0 0,0 z"
             inkscape:connector-curvature="0"
             id="path448"
             style="fill:#ffd203;fill-opacity:1;fill-rule:nonzero;stroke:none" /></g><g
           transform="translate(457.7354,226.2622)"
           id="g450"><path
             d="m 0,0 c 2.082,-5.551 5.757,-7.649 8.761,-9.12 -4.578,-2.165 -9.87,0.187 -10.867,1.307 0.121,-1.566 0.245,-5.796 -0.327,-8.652 -0.387,-2.304 -1.368,-3.631 -3.023,-5.469 -1.716,1.796 -2.777,3.243 -3.35,5.283 -0.694,2.963 0.041,7.165 -0.02,8.734 -0.794,-0.976 -7.127,-3.324 -11.294,-1.283 3.88,1.689 7.639,3.656 8.863,9.304 C -10.804,0.076 -1.145,0.082 0,0.082 L 0,0 z"
             inkscape:connector-curvature="0"
             id="path452"
             style="fill:#ffd203;fill-opacity:1;fill-rule:nonzero;stroke:none" /></g><path
           d="m 440.091,230.155 24.099,0 0,-3.581 -24.099,0 0,3.581 z"
           inkscape:connector-curvature="0"
           id="path454"
           style="fill:#ffd203;fill-opacity:1;fill-rule:nonzero;stroke:none" /><g
           transform="translate(269.9883,234.1562)"
           id="g456"><path
             d="m 0,0 c 8.818,3.486 13.158,8.763 13.626,16.214 0.299,4.478 -4.177,9.732 -8.968,9.853 -14.967,0.404 -19.971,-23.971 -19.881,-29.92 0.632,0.001 3.745,0.064 4.518,0.034 0.682,3.757 0.097,8.36 4.879,12.242 C -1.043,12.305 1.07,9.347 1.669,6.958 2.267,4.569 -0.539,-0.242 0,0 z"
             inkscape:connector-curvature="0"
             id="path458"
             style="fill:#ffd203;fill-opacity:1;fill-rule:nonzero;stroke:none" /></g><g
           transform="translate(230.0132,234.1562)"
           id="g460"><path
             d="m 0,0 c -8.818,3.486 -13.159,8.763 -13.626,16.214 -0.299,4.478 4.176,9.732 8.967,9.853 14.967,0.404 19.971,-23.971 19.881,-29.92 -0.632,0.001 -3.745,0.064 -4.517,0.034 C 10.022,-0.062 10.608,4.542 5.826,8.423 1.043,12.305 -1.071,9.347 -1.669,6.958 -2.267,4.569 0.538,-0.242 0,0 z"
             inkscape:connector-curvature="0"
             id="path462"
             style="fill:#ffd203;fill-opacity:1;fill-rule:nonzero;stroke:none" /></g><g
           transform="translate(250.125,288.6538)"
           id="g464"><path
             d="m 0,0 c 10.17,-10.563 12.9,-21.307 6.12,-38.517 -2.326,-5.748 -3.31,-12.646 -3.215,-19.815 -0.984,-0.022 -5.175,0.025 -6.168,0.096 0.088,7.082 -1.088,14.536 -3.405,20.38 C -14.521,-20.281 -8.862,-8.359 -0.27,0 L -0.135,0 0,0 z"
             inkscape:connector-curvature="0"
             id="path466"
             style="fill:#ffd203;fill-opacity:1;fill-rule:nonzero;stroke:none" /></g><g
           transform="translate(255.4678,226.2622)"
           id="g468"><path
             d="m 0,0 c 2.083,-5.551 5.757,-7.649 8.762,-9.12 -4.579,-2.165 -9.871,0.187 -10.867,1.307 0.121,-1.566 0.245,-5.796 -0.328,-8.652 -0.386,-2.304 -1.367,-3.631 -3.023,-5.469 -1.715,1.796 -2.777,3.243 -3.349,5.283 -0.695,2.963 0.041,7.165 -0.021,8.734 -0.794,-0.976 -7.127,-3.324 -11.294,-1.283 3.88,1.689 7.64,3.656 8.863,9.304 C -10.803,0.076 -1.144,0.082 0.001,0.082 L 0.001,0 0,0 z"
             inkscape:connector-curvature="0"
             id="path470"
             style="fill:#ffd203;fill-opacity:1;fill-rule:nonzero;stroke:none" /></g><path
           d="m 237.824,230.155 24.098,0 0,-3.581 -24.098,0 0,3.581 z"
           inkscape:connector-curvature="0"
           id="path472"
           style="fill:#ffd203;fill-opacity:1;fill-rule:nonzero;stroke:none" /><g
           transform="translate(371.1221,234.1562)"
           id="g474"><path
             d="m 0,0 c 8.818,3.486 13.159,8.763 13.626,16.214 0.299,4.478 -4.176,9.732 -8.967,9.853 -14.968,0.404 -19.972,-23.971 -19.881,-29.92 0.631,0.001 3.744,0.064 4.518,0.034 0.682,3.757 0.096,8.36 4.879,12.242 4.782,3.882 6.896,0.924 7.494,-1.465 C 2.267,4.569 -0.538,-0.242 0,0 z"
             inkscape:connector-curvature="0"
             id="path476"
             style="fill:#ffd203;fill-opacity:1;fill-rule:nonzero;stroke:none" /></g><g
           transform="translate(331.1465,234.1562)"
           id="g478"><path
             d="m 0,0 c -8.818,3.486 -13.158,8.763 -13.625,16.214 -0.299,4.478 4.176,9.732 8.967,9.853 14.967,0.404 19.971,-23.971 19.881,-29.92 -0.632,0.001 -3.745,0.064 -4.518,0.034 C 10.023,-0.062 10.609,4.542 5.826,8.423 1.043,12.305 -1.07,9.347 -1.668,6.958 -2.267,4.569 0.539,-0.242 0,0 z"
             inkscape:connector-curvature="0"
             id="path480"
             style="fill:#ffd203;fill-opacity:1;fill-rule:nonzero;stroke:none" /></g><g
           transform="translate(351.2588,288.6538)"
           id="g482"><path
             d="m 0,0 c 10.171,-10.563 12.901,-21.307 6.12,-38.517 -2.326,-5.748 -3.31,-12.646 -3.215,-19.815 -0.984,-0.022 -5.175,0.025 -6.168,0.096 0.088,7.082 -1.088,14.536 -3.406,20.38 C -14.521,-20.281 -8.861,-8.359 -0.271,0 L -0.135,0 0,0 z"
             inkscape:connector-curvature="0"
             id="path484"
             style="fill:#ffd203;fill-opacity:1;fill-rule:nonzero;stroke:none" /></g><g
           transform="translate(356.6016,226.2622)"
           id="g486"><path
             d="m 0,0 c 2.082,-5.551 5.758,-7.649 8.762,-9.12 -4.578,-2.165 -9.871,0.187 -10.867,1.307 0.121,-1.566 0.245,-5.796 -0.327,-8.652 -0.387,-2.304 -1.368,-3.631 -3.023,-5.469 -1.717,1.796 -2.777,3.243 -3.35,5.283 -0.695,2.963 0.041,7.165 -0.021,8.734 -0.793,-0.976 -7.127,-3.324 -11.293,-1.283 3.879,1.689 7.639,3.656 8.863,9.304 C -10.803,0.076 -1.144,0.082 0,0.082 L 0,0 z"
             inkscape:connector-curvature="0"
             id="path488"
             style="fill:#ffd203;fill-opacity:1;fill-rule:nonzero;stroke:none" /></g><path
           d="m 338.958,230.155 24.099,0 0,-3.581 -24.099,0 0,3.581 z"
           inkscape:connector-curvature="0"
           id="path490"
           style="fill:#ffd203;fill-opacity:1;fill-rule:nonzero;stroke:none" /><g
           transform="translate(88.1865,133.7246)"
           id="g492"><path
             d="m 0,0 c 5.045,-3.965 14.046,-7.09 7.92,-14.297 5.406,-0.72 7.575,4.567 7.575,8.53 C 15.495,-1.804 0.36,-0.36 0,0"
             inkscape:connector-curvature="0"
             id="path494"
             style="fill:#ed2939;fill-opacity:1;fill-rule:nonzero;stroke:none" /></g><g
           transform="translate(88.1865,133.7246)"
           id="g496"><path
             d="m 0,0 c 5.045,-3.965 14.046,-7.09 7.92,-14.297 5.406,-0.72 7.575,4.567 7.575,8.53 C 15.495,-1.804 0.36,-0.36 0,0 z"
             inkscape:connector-curvature="0"
             id="path498"
             style="fill:none;stroke:#000000;stroke-width:0.625;stroke-linecap:butt;stroke-linejoin:miter;stroke-miterlimit:4;stroke-opacity:1;stroke-dasharray:none" /></g><g
           transform="translate(94.4146,49.7813)"
           id="g500"><path
             d="m 0,0 c 60.18,20.252 38.848,90.094 -12.811,83.481 -3.994,-0.39 -7.054,-1.068 -9.918,-2.892 -4.547,-2.117 -11.778,-2.786 -12.812,-0.413 0.749,1.546 4.739,3.013 4.545,5.372 -3.407,1.628 -8.944,3.622 -7.852,9.918 9.851,-1.774 12.813,5.786 12.399,9.92 -0.413,2.771 -2.893,9.918 15.704,16.531 33.061,7.438 76.043,-4.546 82.657,-61.165 C 74.392,21.904 43.807,8.266 35.542,2.066 27.278,-4.133 17.772,-8.68 13.226,-21.903 11.573,-10.333 5.374,-4.133 0,0"
             inkscape:connector-curvature="0"
             id="path502"
             style="fill:#002395;fill-opacity:1;fill-rule:nonzero;stroke:none" /></g><g
           transform="translate(94.4146,49.7813)"
           id="g504"><path
             d="m 0,0 c 60.18,20.252 38.848,90.094 -12.811,83.481 -3.994,-0.39 -7.054,-1.068 -9.918,-2.892 -4.547,-2.117 -11.778,-2.786 -12.812,-0.413 0.749,1.546 4.739,3.013 4.545,5.372 -3.407,1.628 -8.944,3.622 -7.852,9.918 9.851,-1.774 12.813,5.786 12.399,9.92 -0.413,2.771 -2.893,9.918 15.704,16.531 33.061,7.438 76.043,-4.546 82.657,-61.165 C 74.392,21.904 43.807,8.266 35.542,2.066 27.278,-4.133 17.772,-8.68 13.226,-21.903 11.573,-10.333 5.374,-4.133 0,0 z"
             inkscape:connector-curvature="0"
             id="path506"
             style="fill:none;stroke:#000000;stroke-width:0.625;stroke-linecap:butt;stroke-linejoin:miter;stroke-miterlimit:4;stroke-opacity:1;stroke-dasharray:none" /></g><g
           transform="translate(67.647,151.0205)"
           id="g508"><path
             d="m 0,0 c 2.882,-2.522 7.567,-4.678 11.891,2.882 4.325,6.126 10.47,0.359 10.47,0.359"
             inkscape:connector-curvature="0"
             id="path510"
             style="fill:none;stroke:#000000;stroke-width:0.625;stroke-linecap:butt;stroke-linejoin:miter;stroke-miterlimit:4;stroke-opacity:1;stroke-dasharray:none" /></g><g
           transform="translate(83.8647,147.8623)"
           id="g512"><path
             d="M 0,0 C 5.765,-10.097 18.794,-10.045 32.919,-8.646"
             inkscape:connector-curvature="0"
             id="path514"
             style="fill:none;stroke:#000000;stroke-width:0.625;stroke-linecap:butt;stroke-linejoin:miter;stroke-miterlimit:4;stroke-opacity:1;stroke-dasharray:none" /></g><g
           transform="translate(119.542,144.042)"
           id="g516"><path
             d="M 0,0 C 42.315,-11.529 37.025,-62.338 9.822,-82.155"
             inkscape:connector-curvature="0"
             id="path518"
             style="fill:none;stroke:#000000;stroke-width:1.91999996;stroke-linecap:butt;stroke-linejoin:miter;stroke-miterlimit:4;stroke-opacity:1;stroke-dasharray:none" /></g><g
           transform="translate(116.2925,51.5674)"
           id="g520"><path
             d="m 0,0 c -17.656,-4.323 -35.313,-1.44 -48.646,21.98 -4.684,8.65 -15.554,8.01 -16.176,2.29 7.19,6.209 10.672,-5.018 9.857,-9.255 -8.561,-0.124 -10.623,-2.853 -14.677,-5.956 2.939,-0.037 8.148,2.338 14.871,-6.537 7.866,-9.823 18.738,-10.529 22.341,-10.529 4.324,-0.359 6.002,-1.141 11.287,0.981 -3.043,-4.323 -14.649,-6.182 -20.295,-2.107 -1.547,-6 3.711,-4.543 13.692,-9.603 7.012,-4.087 12.019,-11.205 19.458,-14.414 7.431,-3.056 12.819,-2.556 20.385,3.928 C -4.479,-32.823 -15.134,-24.863 0,0"
             inkscape:connector-curvature="0"
             id="path522"
             style="fill:#ed2939;fill-opacity:1;fill-rule:nonzero;stroke:none" /></g><g
           transform="translate(116.2925,51.5674)"
           id="g524"><path
             d="m 0,0 c -17.656,-4.323 -35.313,-1.44 -48.646,21.98 -4.684,8.65 -15.554,8.01 -16.176,2.29 7.19,6.209 10.672,-5.018 9.857,-9.255 -8.561,-0.124 -10.623,-2.853 -14.677,-5.956 2.939,-0.037 8.148,2.338 14.871,-6.537 7.866,-9.823 18.738,-10.529 22.341,-10.529 4.324,-0.359 6.002,-1.141 11.287,0.981 -3.043,-4.323 -14.649,-6.182 -20.295,-2.107 -1.547,-6 3.711,-4.543 13.692,-9.603 7.012,-4.087 12.019,-11.205 19.458,-14.414 7.431,-3.056 12.819,-2.556 20.385,3.928 C -4.479,-32.823 -15.134,-24.863 0,0 z"
             inkscape:connector-curvature="0"
             id="path526"
             style="fill:none;stroke:#000000;stroke-width:0.625;stroke-linecap:butt;stroke-linejoin:miter;stroke-miterlimit:4;stroke-opacity:1;stroke-dasharray:none" /></g><g
           transform="translate(155.5688,73.5479)"
           id="g528"><path
             d="m 0,0 c -4.324,-11.169 -9.785,-23.552 -1.858,-31.839 -10.449,-0.362 -17.967,10.33 -17.967,14.294 C -15.861,-15.022 -4.324,-6.486 0,0"
             inkscape:connector-curvature="0"
             id="path530"
             style="fill:#ed2939;fill-opacity:1;fill-rule:nonzero;stroke:none" /></g><g
           transform="translate(155.5688,73.5479)"
           id="g532"><path
             d="m 0,0 c -4.324,-11.169 -9.785,-23.552 -1.858,-31.839 -10.449,-0.362 -17.967,10.33 -17.967,14.294 C -15.861,-15.022 -4.324,-6.486 0,0 z"
             inkscape:connector-curvature="0"
             id="path534"
             style="fill:none;stroke:#000000;stroke-width:0.625;stroke-linecap:butt;stroke-linejoin:miter;stroke-miterlimit:4;stroke-opacity:1;stroke-dasharray:none" /></g><g
           transform="translate(131.0664,89.4023)"
           id="g536"><path
             d="m 0,0 c -5.044,-13.331 -10.464,-16.214 -21.273,-16.214 5.764,-2.882 8.661,-3.604 6.859,-10.809 C -7.207,-20.899 0,-9.367 0,0"
             inkscape:connector-curvature="0"
             id="path538"
             style="fill:#ed2939;fill-opacity:1;fill-rule:nonzero;stroke:none" /></g><g
           transform="translate(131.0664,89.4023)"
           id="g540"><path
             d="m 0,0 c -5.044,-13.331 -10.464,-16.214 -21.273,-16.214 5.764,-2.882 8.661,-3.604 6.859,-10.809 C -7.207,-20.899 0,-9.367 0,0 z"
             inkscape:connector-curvature="0"
             id="path542"
             style="fill:none;stroke:#000000;stroke-width:0.625;stroke-linecap:butt;stroke-linejoin:miter;stroke-miterlimit:4;stroke-opacity:1;stroke-dasharray:none" /></g><g
           transform="translate(124.5806,159.3071)"
           id="g544"><path
             d="m 0,0 c 2.521,-1.801 3.242,-4.323 2.882,-9.008 3.964,6.486 8.648,6.847 12.251,2.883 0.36,4.324 5.046,4.684 8.288,2.162"
             inkscape:connector-curvature="0"
             id="path546"
             style="fill:none;stroke:#000000;stroke-width:0.625;stroke-linecap:butt;stroke-linejoin:miter;stroke-miterlimit:4;stroke-opacity:1;stroke-dasharray:none" /></g><g
           transform="translate(108.7246,132.6426)"
           id="g548"><path
             d="M 0,0 C 11.531,-1.441 19.458,-10.449 21.621,-15.134"
             inkscape:connector-curvature="0"
             id="path550"
             style="fill:none;stroke:#000000;stroke-width:0.625;stroke-linecap:butt;stroke-linejoin:miter;stroke-miterlimit:4;stroke-opacity:1;stroke-dasharray:none" /></g><g
           transform="translate(128.5444,169.0371)"
           id="g552"><path
             d="M 0,0 C 7.205,0.719 15.985,1.212 22.701,6.846 21.259,1.441 15.619,-0.84 13.816,-4.082 c 2.163,-0.36 7.443,-0.603 8.885,0.118 3.603,0.72 8.287,3.243 12.971,5.044 4.683,1.802 8.656,3.362 12.258,0.479 C 40.363,0.838 33.033,-5.295 37.474,-12.253 31.709,-11.171 25.471,-14.905 25.831,-22.833 22.589,-15.627 5.043,-1.081 0.36,-0.361 L 0,0 z"
             inkscape:connector-curvature="0"
             id="path554"
             style="fill:#ed2939;fill-opacity:1;fill-rule:nonzero;stroke:none" /></g><g
           transform="translate(128.5444,169.0371)"
           id="g556"><path
             d="M 0,0 C 7.205,0.719 15.985,1.212 22.701,6.846 21.259,1.441 15.619,-0.84 13.816,-4.082 c 2.163,-0.36 7.443,-0.603 8.885,0.118 3.603,0.72 8.287,3.243 12.971,5.044 4.683,1.802 8.656,3.362 12.258,0.479 C 40.363,0.838 33.033,-5.295 37.474,-12.253 31.709,-11.171 25.471,-14.905 25.831,-22.833 22.589,-15.627 5.043,-1.081 0.36,-0.361 L 0,0 z"
             inkscape:connector-curvature="0"
             id="path558"
             style="fill:none;stroke:#000000;stroke-width:0.625;stroke-linecap:butt;stroke-linejoin:miter;stroke-miterlimit:4;stroke-opacity:1;stroke-dasharray:none" /></g><g
           transform="translate(162.4141,128.6797)"
           id="g560"><path
             d="m 0,0 c 5.046,-7.206 13.334,-16.576 16.216,-17.655 -7.567,-1.444 -9.723,-6.377 -4.325,-16.576 -3.963,3.603 -5.764,5.044 -8.287,2.522 C 5.766,-25.945 -0.359,0.359 0,0"
             inkscape:connector-curvature="0"
             id="path562"
             style="fill:#ed2939;fill-opacity:1;fill-rule:nonzero;stroke:none" /></g><g
           transform="translate(162.4141,128.6797)"
           id="g564"><path
             d="m 0,0 c 5.046,-7.206 13.334,-16.576 16.216,-17.655 -7.567,-1.444 -9.723,-6.377 -4.325,-16.576 -3.963,3.603 -5.764,5.044 -8.287,2.522 C 5.766,-25.945 -0.359,0.359 0,0 z"
             inkscape:connector-curvature="0"
             id="path566"
             style="fill:none;stroke:#000000;stroke-width:0.625;stroke-linecap:butt;stroke-linejoin:miter;stroke-miterlimit:4;stroke-opacity:1;stroke-dasharray:none" /></g><g
           transform="translate(63.9175,136.0557)"
           id="g568"><path
             d="m 0,0 c 15.6,8.628 19.649,-1.128 -0.065,-1.885 -0.34,0.529 -0.126,1.205 -0.126,1.567 L 0,0 z"
             inkscape:connector-curvature="0"
             id="path570"
             style="fill:#ffd203;fill-opacity:1;fill-rule:nonzero;stroke:none" /></g><g
           transform="translate(63.9175,136.0557)"
           id="g572"><path
             d="m 0,0 c 15.6,8.628 19.649,-1.128 -0.065,-1.885 -0.34,0.529 -0.126,1.205 -0.126,1.567 L 0,0 z"
             inkscape:connector-curvature="0"
             id="path574"
             style="fill:none;stroke:#000000;stroke-width:0.625;stroke-linecap:butt;stroke-linejoin:miter;stroke-miterlimit:4;stroke-opacity:1;stroke-dasharray:none" /></g><g
           transform="translate(88.5464,141.6514)"
           id="g576"><path
             d="m 0,0 c 6.487,-4.685 15.854,-3.963 20.899,-3.604 5.045,0.361 -1.08,-2.162 -1.08,-5.404 0,-3.242 0.934,-4.782 2.162,-7.567 1.419,-3.216 0.846,-8.059 -3.722,-10.699 2.28,7.082 -5.288,13.581 -8.169,15.744 C 6.675,-9.395 0,0.36 0,0"
             inkscape:connector-curvature="0"
             id="path578"
             style="fill:#ed2939;fill-opacity:1;fill-rule:nonzero;stroke:none" /></g><g
           transform="translate(88.5464,141.6514)"
           id="g580"><path
             d="m 0,0 c 6.487,-4.685 15.854,-3.963 20.899,-3.604 5.045,0.361 -1.08,-2.162 -1.08,-5.404 0,-3.242 0.934,-4.782 2.162,-7.567 1.419,-3.216 0.846,-8.059 -3.722,-10.699 2.28,7.082 -5.288,13.581 -8.169,15.744 C 6.675,-9.395 0,0.36 0,0 z"
             inkscape:connector-curvature="0"
             id="path582"
             style="fill:none;stroke:#000000;stroke-width:0.625;stroke-linecap:butt;stroke-linejoin:miter;stroke-miterlimit:4;stroke-opacity:1;stroke-dasharray:none" /></g><g
           transform="translate(85.0479,150.1191)"
           id="g584"><path
             d="m 0,0 c 0,1.371 -1.177,2.48 -2.628,2.48 -1.45,0 -2.625,-1.109 -2.625,-2.48 0,-1.37 1.175,-2.481 2.625,-2.481 C -1.177,-2.481 0,-1.37 0,0"
             inkscape:connector-curvature="0"
             id="path586"
             style="fill:#ffffff;fill-opacity:1;fill-rule:nonzero;stroke:none" /></g><g
           transform="translate(61.4771,68.3516)"
           id="g588"><path
             d="m 0,0 c 0.7,-2.165 1.919,-2.951 3.514,-5.23 -2.112,0.48 -4.415,2.588 -5.57,2.945"
             inkscape:connector-curvature="0"
             id="path590"
             style="fill:none;stroke:#000000;stroke-width:0.625;stroke-linecap:butt;stroke-linejoin:miter;stroke-miterlimit:4;stroke-opacity:1;stroke-dasharray:none" /></g><g
           transform="translate(93.5996,29.2256)"
           id="g592"><path
             d="M 0,0 C 3.299,0.692 3.218,1.365 3.998,1.871 3.848,0.731 1.771,0.168 2.718,-2.441"
             inkscape:connector-curvature="0"
             id="path594"
             style="fill:none;stroke:#000000;stroke-width:0.625;stroke-linecap:butt;stroke-linejoin:miter;stroke-miterlimit:4;stroke-opacity:1;stroke-dasharray:none" /></g><g
           transform="translate(74.855,139.5732)"
           id="g596"><path
             d="m 0,0 c 2.579,0.848 5.16,-1.13 6.504,-2.479 1.723,-1.644 5.106,-2.9 7.529,-3.457"
             inkscape:connector-curvature="0"
             id="path598"
             style="fill:none;stroke:#000000;stroke-width:0.625;stroke-linecap:butt;stroke-linejoin:miter;stroke-miterlimit:4;stroke-opacity:1;stroke-dasharray:none" /></g><g
           transform="translate(104.4302,173.2715)"
           id="g600"><path
             d="m 0,0 c 5.766,2.884 8.862,5.281 9.941,7.441 1.082,-2.522 -0.72,-5.044 -0.72,-7.205 4.323,0 11.171,3.242 12.612,4.683 3.244,-2.522 1.293,-8.031 0.466,-9.687"
             inkscape:connector-curvature="0"
             id="path602"
             style="fill:#002395;fill-opacity:1;fill-rule:nonzero;stroke:#000000;stroke-width:0.625;stroke-linecap:butt;stroke-linejoin:miter;stroke-miterlimit:4;stroke-opacity:1;stroke-dasharray:none" /></g><g
           transform="translate(141.3062,160.4155)"
           id="g604"><path
             d="M 0,0 C 5.606,-2.038 7.18,-0.923 11.257,0.605 8.709,-3.472 6.161,-3.98 2.594,-2.962"
             inkscape:connector-curvature="0"
             id="path606"
             style="fill:none;stroke:#000000;stroke-width:0.75;stroke-linecap:butt;stroke-linejoin:miter;stroke-miterlimit:4;stroke-opacity:1;stroke-dasharray:none" /></g><g
           transform="translate(220.5391,127.7422)"
           id="g608"><path
             d="m 0,0 c -0.106,-6.735 -0.136,-13.473 -0.097,-20.207 0.018,-3.105 0.051,-6.207 0.097,-9.311 0.142,-9.478 0.615,-16.876 4.861,-22.66 5.116,-6.967 13.638,-11.996 24.6,-16.935 10.962,4.939 19.484,9.968 24.601,16.935 4.246,5.784 4.717,13.182 4.86,22.66 0.146,9.838 0.156,19.679 0,29.518 L 0,0 z"
             inkscape:connector-curvature="0"
             id="path610"
             style="fill:#ed2939;fill-opacity:1;fill-rule:nonzero;stroke:none" /></g><g
           transform="translate(220.6738,100.9277)"
           id="g612"><path
             d="m 0,0 24.176,-0.045 0,26.859 10.023,-0.002 0,-26.86 24.403,0 -0.004,-9.515 -24.399,-0.047 0,-30.401 -4.897,-2.288 -5.126,2.426 0,30.265 L 0,-9.563 0,0 z"
             inkscape:connector-curvature="0"
             id="path614"
             style="fill:#ffffff;fill-opacity:1;fill-rule:nonzero;stroke:none" /></g><g
           transform="translate(220.6738,100.9277)"
           id="g616"><path
             d="m 0,0 24.176,-0.045 0,26.859 10.023,-0.002 0,-26.86 24.403,0 -0.004,-9.515 -24.399,-0.047 0,-30.401 -4.897,-2.288 -5.126,2.426 0,30.265 L 0,-9.563 0,0 z"
             inkscape:connector-curvature="0"
             id="path618"
             style="fill:none;stroke:#ffffff;stroke-width:1;stroke-linecap:butt;stroke-linejoin:miter;stroke-miterlimit:4;stroke-opacity:1;stroke-dasharray:none" /></g><g
           transform="translate(220.5391,127.7422)"
           id="g620"><path
             d="m 0,0 c -0.106,-6.735 -0.136,-13.473 -0.097,-20.207 0.018,-3.105 0.051,-6.207 0.097,-9.311 0.142,-9.478 0.615,-16.876 4.861,-22.66 5.116,-6.967 13.638,-11.996 24.6,-16.935 10.962,4.939 19.484,9.968 24.601,16.935 4.246,5.784 4.717,13.182 4.86,22.66 0.146,9.838 0.156,19.679 0,29.518 L 0,0 z"
             inkscape:connector-curvature="0"
             id="path622"
             style="fill:none;stroke:#000000;stroke-width:1;stroke-linecap:butt;stroke-linejoin:miter;stroke-miterlimit:4;stroke-opacity:1;stroke-dasharray:none" /></g></g></g></g></svg>