<?xml version="1.0" encoding="iso-8859-1"?>
<!DOCTYPE svg PUBLIC "-//W3C//DTD SVG 1.0//EN" "http://www.w3.org/TR/2001/REC-SVG-20010904/DTD/svg10.dtd">
<!-- Creator: CorelDRAW -->
<svg xmlns="http://www.w3.org/2000/svg" xmlns:odm="http://product.corel.com/CGS/11/cddns/" xml:space="preserve" width="625px" height="375px" shape-rendering="geometricPrecision" text-rendering="geometricPrecision" image-rendering="optimizeQuality" fill-rule="evenodd"
     viewBox="0 0 626 376">
 <path fill="#160055" d="M0 0l626 0 0 376 -626 0 0 -376z"/>
 <g id="Layer 1">
  <g transform="matrix(0.910532 0 0 1 -223.749 164.831)">
   <text x="313" y="188" fill="#EFC53D" font-weight="normal" font-size="50" font-family="Arial">SPRINGFIELD  ILLINOIS</text>
  </g>
  <path fill="#C70102" stroke="#FFFFFF" stroke-width="4" d="M175 93l13 39 41 0 -33 24 12 40 -33 -25 -33 25 12 -40 -33 -24 41 0 13 -39zm6 19m27 20m4 12m-10 32m-10 7m-34 0m-10 -7m-10 -32m4 -12m27 -20"/>
  <path fill="#FFFFFF" d="M175 24l3 10 11 0 -9 7 4 10 -9 -6 -9 6 4 -10 -9 -7 11 0 3 -10zm2 5m7 5m1 4m-3 8m-3 2m-8 0m-3 -2m-3 -8m1 -4m7 -5"/>
  <path fill="#FFFFFF" d="M140 31l3 10 11 0 -9 7 3 10 -8 -6 -9 6 3 -10 -8 -7 11 0 3 -10zm1 5m7 5m2 4m-3 8m-3 2m-8 0m-3 -2m-3 -8m1 -4m7 -5"/>
  <path fill="#FFFFFF" d="M85 72l4 10 10 0 -8 6 3 11 -9 -7 -8 7 3 -11 -9 -6 11 0 3 -10zm2 5m7 5m1 3m-3 8m-2 2m-9 0m-3 -2m-2 -8m1 -3m7 -5"/>
  <path fill="#FFFFFF" d="M68 102l3 11 11 0 -9 6 4 10 -9 -6 -9 6 4 -10 -9 -6 11 0 3 -11zm2 6m7 5m1 3m-3 8m-3 2m-8 0m-3 -2m-3 -8m1 -3m7 -5"/>
  <path fill="#FFFFFF" d="M64 137l4 11 10 0 -8 6 3 10 -9 -6 -8 6 3 -10 -9 -6 11 0 3 -11zm2 5m7 6m1 3m-3 8m-2 2m-9 0m-3 -2m-2 -8m1 -3m7 -6"/>
  <path fill="#FFFFFF" d="M69 170l3 10 11 0 -9 7 3 10 -8 -6 -9 6 3 -10 -8 -7 10 0 4 -10zm1 5m7 5m1 3m-2 9m-3 2m-9 0m-2 -2m-3 -9m1 -3m7 -5"/>
  <path fill="#FFFFFF" d="M85 203l4 10 10 0 -8 6 3 10 -9 -6 -8 6 3 -10 -9 -6 11 0 3 -10zm2 5m7 5m1 3m-3 8m-2 2m-9 0m-3 -2m-2 -8m1 -3m7 -5"/>
  <path fill="#FFFFFF" d="M110 228l3 10 11 0 -9 7 3 10 -8 -7 -9 7 3 -10 -8 -7 10 0 4 -10zm1 5m7 5m1 3m-2 9m-3 2m-9 0m-2 -2m-3 -9m1 -3m7 -5"/>
  <path fill="#FFFFFF" d="M141 242l3 11 11 0 -9 6 4 10 -9 -6 -9 6 4 -10 -9 -6 11 0 3 -11zm2 6m7 5m1 3m-3 8m-3 2m-8 0m-3 -2m-3 -8m1 -3m7 -5"/>
  <path fill="#FFFFFF" d="M176 249l3 10 11 0 -9 6 3 11 -8 -7 -9 7 3 -11 -8 -6 10 0 4 -10zm1 5m7 5m1 3m-2 8m-3 2m-9 0m-2 -2m-3 -8m1 -3m7 -5"/>
  <path fill="#FFFFFF" d="M211 242l3 10 11 0 -9 6 4 11 -9 -7 -9 7 4 -11 -9 -6 11 0 3 -10zm2 5m7 5m1 3m-3 8m-3 2m-8 0m-3 -2m-3 -8m1 -3m7 -5"/>
  <path fill="#FFFFFF" d="M240 229l4 10 10 0 -8 6 3 10 -9 -6 -8 6 3 -10 -9 -6 11 0 3 -10zm2 5m7 5m1 3m-3 8m-2 2m-9 0m-3 -2m-2 -8m1 -3m7 -5"/>
  <path fill="#FFFFFF" d="M265 201l3 10 11 0 -9 7 4 10 -9 -7 -9 7 4 -10 -9 -7 11 0 3 -10zm2 5m7 5m1 3m-3 9m-3 2m-8 0m-3 -2m-3 -9m1 -3m7 -5"/>
  <path fill="#FFFFFF" d="M280 170l3 11 11 0 -9 6 4 10 -9 -6 -9 6 4 -10 -9 -6 11 0 3 -11zm2 5m7 6m1 3m-3 8m-3 2m-8 0m-3 -2m-3 -8m1 -3m7 -6"/>
  <path fill="#FFFFFF" d="M285 136l3 10 11 0 -9 6 3 10 -8 -6 -9 6 3 -10 -8 -6 10 0 4 -10zm1 5m7 5m1 3m-2 8m-3 2m-9 0m-2 -2m-3 -8m1 -3m7 -5"/>
  <path fill="#FFFFFF" d="M281 103l3 10 11 0 -9 7 4 10 -9 -6 -9 6 4 -10 -9 -7 11 0 3 -10zm2 5m7 5m1 3m-3 9m-3 2m-8 0m-3 -2m-3 -9m1 -3m7 -5"/>
  <path fill="#FFFFFF" d="M266 71l3 10 11 0 -9 6 4 10 -9 -6 -9 6 4 -10 -9 -6 11 0 3 -10zm2 5m7 5m1 3m-3 8m-3 2m-8 0m-3 -2m-3 -8m1 -3m7 -5"/>
  <path fill="#FFFFFF" d="M241 46l3 10 11 0 -9 6 4 10 -9 -6 -9 6 4 -10 -9 -6 11 0 3 -10zm2 5m7 5m1 3m-3 8m-3 2m-8 0m-3 -2m-3 -8m1 -3m7 -5"/>
  <path fill="#FFFFFF" d="M210 30l3 10 11 0 -9 6 3 10 -8 -6 -9 6 3 -10 -8 -6 10 0 4 -10zm1 5m7 5m1 3m-2 8m-3 2m-9 0m-2 -2m-3 -8m1 -3m7 -5"/>
  <path fill="#FFFFFF" d="M110 47l4 10 10 0 -8 7 3 10 -9 -7 -8 7 3 -10 -9 -7 11 0 3 -10zm2 5m7 5m1 3m-3 9m-2 2m-9 0m-3 -2m-2 -9m1 -3m7 -5"/>
 </g>
</svg>
